<svg class="main-svg" xmlns="http://www.w3.org/2000/svg" xmlns:xlink="http://www.w3.org/1999/xlink" width="900" height="450" style="" viewBox="0 0 900 450"><rect x="0" y="0" width="900" height="450" style="fill: rgb(17, 17, 17); fill-opacity: 1;"/><defs id="defs-30015c"><g class="clips"><clipPath id="clip30015cxyplot" class="plotclip"><rect width="297.90000000000003" height="270"/></clipPath><clipPath id="clip30015cx2y2plot" class="plotclip"><rect width="297.9" height="270"/></clipPath><clipPath class="axesclip" id="clip30015cx"><rect x="80" y="0" width="297.90000000000003" height="450"/></clipPath><clipPath class="axesclip" id="clip30015cy"><rect x="0" y="100" width="900" height="270"/></clipPath><clipPath class="axesclip" id="clip30015cxy"><rect x="80" y="100" width="297.90000000000003" height="270"/></clipPath><clipPath class="axesclip" id="clip30015cy2"><rect x="0" y="100" width="900" height="270"/></clipPath><clipPath class="axesclip" id="clip30015cxy2"><rect x="80" y="100" width="297.90000000000003" height="270"/></clipPath><clipPath class="axesclip" id="clip30015cx2"><rect x="444.1" y="0" width="297.9" height="450"/></clipPath><clipPath class="axesclip" id="clip30015cx2y"><rect x="444.1" y="100" width="297.9" height="270"/></clipPath><clipPath class="axesclip" id="clip30015cx2y2"><rect x="444.1" y="100" width="297.9" height="270"/></clipPath></g><g class="gradients"/></defs><g class="bglayer"/><g class="layer-below"><g class="imagelayer"/><g class="shapelayer"/></g><g class="cartesianlayer"><g class="subplot xy"><g class="layer-subplot"><g class="shapelayer"/><g class="imagelayer"/></g><g class="gridlayer"><g class="x"><path class="xgrid crisp" transform="translate(118.6,0)" d="M0,100v270" style="stroke: rgb(40, 52, 66); stroke-opacity: 1; stroke-width: 1px;"/><path class="xgrid crisp" transform="translate(178.97,0)" d="M0,100v270" style="stroke: rgb(40, 52, 66); stroke-opacity: 1; stroke-width: 1px;"/><path class="xgrid crisp" transform="translate(239.34,0)" d="M0,100v270" style="stroke: rgb(40, 52, 66); stroke-opacity: 1; stroke-width: 1px;"/><path class="xgrid crisp" transform="translate(300.7,0)" d="M0,100v270" style="stroke: rgb(40, 52, 66); stroke-opacity: 1; stroke-width: 1px;"/><path class="xgrid crisp" transform="translate(361.08,0)" d="M0,100v270" style="stroke: rgb(40, 52, 66); stroke-opacity: 1; stroke-width: 1px;"/></g><g class="y"><path class="ygrid crisp" transform="translate(0,310.91999999999996)" d="M80,0h297.90000000000003" style="stroke: rgb(40, 52, 66); stroke-opacity: 1; stroke-width: 1px;"/><path class="ygrid crisp" transform="translate(0,265.34000000000003)" d="M80,0h297.90000000000003" style="stroke: rgb(40, 52, 66); stroke-opacity: 1; stroke-width: 1px;"/><path class="ygrid crisp" transform="translate(0,219.75)" d="M80,0h297.90000000000003" style="stroke: rgb(40, 52, 66); stroke-opacity: 1; stroke-width: 1px;"/><path class="ygrid crisp" transform="translate(0,174.17000000000002)" d="M80,0h297.90000000000003" style="stroke: rgb(40, 52, 66); stroke-opacity: 1; stroke-width: 1px;"/><path class="ygrid crisp" transform="translate(0,128.59)" d="M80,0h297.90000000000003" style="stroke: rgb(40, 52, 66); stroke-opacity: 1; stroke-width: 1px;"/></g></g><g class="zerolinelayer"><path class="yzl zl crisp" transform="translate(0,356.5)" d="M80,0h297.90000000000003" style="stroke: rgb(40, 52, 66); stroke-opacity: 1; stroke-width: 2px;"/></g><path class="xlines-below"/><path class="ylines-below"/><g class="overlines-below"/><g class="xaxislayer-below"/><g class="yaxislayer-below"/><g class="overaxes-below"/><g class="plot" transform="translate(80, 100)" clip-path="url('#clip30015cxyplot')"><g class="scatterlayer mlayer"><g class="trace scatter trace7380cf" style="stroke-miterlimit: 2; opacity: 1;"><g class="fills"/><g class="errorbars"/><g class="lines"><path class="js-line" d="M0,256.5L58.39,255.91L59.38,255.53L67.3,253.92L68.29,253.65L81.16,248.44L82.15,248.44L86.1,246.34L87.09,245.89L91.05,244.19L92.04,243.73L105.9,238.62L106.89,238.06L115.8,234.1L116.78,233.51L119.75,231.81L120.74,231.27L136.58,220.54L137.57,220.17L140.54,218.06L141.53,217.57L145.49,215.17L146.48,214.22L149.44,212.7L150.43,210.85L155.38,205.37L156.37,204.81L157.36,203.97L158.35,202.13L161.32,197.5L162.31,196.73L163.3,194.01L164.29,193.71L165.28,193.71L166.27,190.45L169.24,186.08L170.23,186.08L174.19,177.85L175.18,175.75L177.16,172.29L178.15,172.12L179.14,170.96L180.13,168.59L183.09,162.33L184.08,161.96L185.07,161.34L186.06,159.56L187.05,158.29L188.04,155.02L189.03,155.02L190.02,151.81L191.01,151.44L192,148.51L192.99,147.93L193.98,145.86L196.95,145.86L197.94,136.17L198.93,136L199.92,131.93L201.9,126.78L202.89,123.78L203.88,123.78L204.87,118.63L205.86,118.57L206.85,115.77L209.82,106.36L210.81,104.32L212.79,103.95L213.78,99.01L214.77,98.01L215.75,95.86L216.74,93.8L217.73,93.8L224.66,82.09L225.65,82.09L226.64,80.1L227.63,80.1L229.61,76.81L230.6,75.82L231.59,75.66L232.58,74.25L236.54,72.69L237.53,70.85L240.5,68.33L241.49,67.35L248.41,62.11L249.4,61.56L257.32,56.5L258.31,56.47L260.29,54.58L261.28,54.58L263.26,52.97L264.25,52.56L266.23,51.75L267.22,50.14L275.14,43.26L276.13,43.26L278.11,41.02L279.1,39.76L286.02,33.89L287.01,31.65L290.97,26.32L291.96,24.94L295.92,19.04L296.91,15.28L297.9,13.5" style="vector-effect: non-scaling-stroke; fill: none; stroke: rgb(230, 25, 75); stroke-opacity: 1; stroke-width: 2px; opacity: 1;"/></g><g class="points"/><g class="text"/></g><g class="trace scatter trace3a6910" style="stroke-miterlimit: 2; opacity: 1;"><g class="fills"/><g class="errorbars"/><g class="lines"><path class="js-line" d="M0,256.5L67.3,255.86L68.29,255.65L114.81,249.23L115.8,249.23L125.69,248.06L126.68,247.93L139.55,245.91L140.54,245.59L142.52,245.03L143.51,245.03L147.47,242.97L148.46,242.32L150.43,242.32L151.42,241.49L155.38,238.7L156.37,238.7L158.35,238.01L159.34,237.05L161.32,235.05L162.31,235.05L164.29,235.05L165.28,233.25L170.23,229.09L171.22,229.09L172.21,228.13L173.2,224.86L174.19,217.08L175.18,215.47L176.17,213.46L177.16,213.46L178.15,213.46L179.14,210.31L182.1,206.87L183.09,205.48L185.07,205.48L186.06,203.81L189.03,201.1L190.02,200.01L192,200.01L192.99,199.15L195.96,197.15L196.95,196.54L199.92,195.84L200.91,194.73L205.86,193.08L206.85,191.23L210.81,184.34L211.8,184.34L212.79,184.34L213.78,182.46L215.75,178.87L216.74,178.87L218.72,178.28L219.71,178.28L222.68,175.33L223.67,174.03L225.65,172.96L226.64,172.96L227.63,172.96L228.62,171.01L230.6,169.11L231.59,167.25L233.57,167.25L234.56,165.19L237.53,161.24L238.52,161.11L242.48,160.39L243.47,160.27L249.4,158.29L250.39,157.63L252.37,155.93L253.36,155.93L254.35,155.93L255.34,154.97L258.31,150.32L259.3,149.62L261.28,149.62L262.27,147.59L264.25,145.98L265.24,145.98L266.23,144.11L267.22,144.11L271.18,143.36L272.17,139.72L274.15,138.71L275.14,138.71L279.1,134.84L280.09,134.38L283.05,133.63L284.04,133.12L288,132.5L288.99,132.5L297.9,132.5" style="vector-effect: non-scaling-stroke; fill: none; stroke: rgb(60, 180, 75); stroke-opacity: 1; stroke-width: 2px; opacity: 1;"/></g><g class="points"/><g class="text"/></g><g class="trace scatter trace5631d3" style="stroke-miterlimit: 2; opacity: 1;"><g class="fills"/><g class="errorbars"/><g class="lines"><path class="js-line" d="M0,256.5L65.32,255.78L66.31,255.6L75.22,254.69L76.21,254.58L90.06,252.72L91.05,252.42L97.98,250.96L98.97,250.67L106.89,248.48L107.88,248.37L123.71,244.86L124.7,244.51L147.47,240.68L148.46,240.61L160.33,238.55L161.32,237.55L180.13,231.78L181.12,231.24L191.01,226.89L192,226.47L203.88,222.05L204.87,221.97L209.82,220.22L210.81,218.92L216.74,217.14L217.73,216.61L227.63,213.42L228.62,213.07L235.55,211.39L236.54,210.74L261.28,202.32L262.27,201.51L265.24,199.59L266.23,198.69L275.14,192.89L276.13,191.69L282.06,186.5L283.05,185L288.99,176.27L289.98,173.65L290.97,171.8L291.96,168.29L295.92,158.02L296.91,158.02L297.9,158.02" style="vector-effect: non-scaling-stroke; fill: none; stroke: rgb(255, 225, 25); stroke-opacity: 1; stroke-width: 2px; opacity: 1;"/></g><g class="points"/><g class="text"/></g><g class="trace scatter trace641035" style="stroke-miterlimit: 2; opacity: 1;"><g class="fills"/><g class="errorbars"/><g class="lines"><path class="js-line" d="M0,256.5L118.76,255.75L119.75,255.69L168.25,253.56L169.24,253.47L194.97,251.57L195.96,251.37L225.65,247.92L226.64,247.59L231.59,245.82L232.58,245.27L236.54,243.57L237.53,242.86L249.4,238.07L250.39,237.92L262.27,233.94L263.26,233.78L268.21,231.9L269.2,231.33L272.17,229.42L273.16,228.32L275.14,225.91L276.13,224.81L281.08,220.02L282.06,218.79L285.03,214.5L286.02,213L288.99,209.28L289.98,208.36L290.97,207.73L291.96,205.84L293.94,204.34L294.93,202.22L297.9,195.56" style="vector-effect: non-scaling-stroke; fill: none; stroke: rgb(67, 99, 216); stroke-opacity: 1; stroke-width: 2px; opacity: 1;"/></g><g class="points"/><g class="text"/></g><g class="trace scatter trace5d6d1e" style="stroke-miterlimit: 2; opacity: 1;"><g class="fills"/><g class="errorbars"/><g class="lines"><path class="js-line" d="M0,256.5L67.3,255.83L68.29,255.67L73.24,254.93L74.23,254.88L128.66,249.77L129.65,249.75L153.4,248.15L154.39,247.8L162.31,246.61L163.3,246.54L171.22,245.68L172.21,245.5L181.12,244.48L182.1,244.32L188.04,243.39L189.03,243.2L207.84,241.44L208.83,241.36L215.75,240.68L216.74,240.56L221.69,239.96L222.68,239.73L228.62,236.72L229.61,235.57L231.59,233.48L232.58,233.48L237.53,228.32L238.52,227.71L239.51,227.71L240.5,226.94L246.44,224.54L247.43,224.25L252.37,222.71L253.36,222.71L266.23,217.87L267.22,217.87L270.19,216.43L271.18,216.11L276.13,214.29L277.12,213.81L280.09,211.57L281.08,211.57L283.05,210.2L284.04,210L286.02,207.27L287.01,207.27L288,207.27L288.99,204.44L290.97,202.3L291.96,200.2L293.94,196.53L294.93,196.53L296.91,192.34L297.9,191.15" style="vector-effect: non-scaling-stroke; fill: none; stroke: rgb(245, 130, 49); stroke-opacity: 1; stroke-width: 2px; opacity: 1;"/></g><g class="points"/><g class="text"/></g><g class="trace scatter trace10949b" style="stroke-miterlimit: 2; opacity: 1;"><g class="fills"/><g class="errorbars"/><g class="lines"><path class="js-line" d="M0,256.5L68.29,255.88L69.28,255.72L76.21,254.74L77.2,254.65L88.08,253.51L89.07,253.42L97.98,252.18L98.97,251.92L103.92,250.53L104.91,250.47L130.64,244.85L131.63,244.46L135.59,243.02L136.58,242.62L153.4,235.84L154.39,235.19L157.36,234.16L158.35,233.45L162.31,229.89L163.3,229.27L166.27,227.02L167.26,226.18L174.19,218.99L175.18,217.83L178.15,214.4L179.14,213.51L184.08,207.37L185.07,206.23L188.04,204.05L189.03,202.72L191.01,201.42L192,201.14L198.93,196.43L199.92,196.07L205.86,191.44L206.85,191.05L213.78,187.92L214.77,187.03L232.58,178.74L233.57,177.83L236.54,176.47L237.53,175.65L243.47,173.08L244.46,172.26L255.34,166.39L256.33,165.54L260.29,162.49L261.28,161.25L267.22,157.44L268.21,155.94L271.18,153.72L272.17,151.64L273.16,150.65L274.15,148.08L279.1,142.68L280.09,142.29L283.05,139.61L284.04,137.86L286.02,136.34L287.01,134.17L294.93,118.42L295.92,114.92L296.91,113.96L297.9,111.94" style="vector-effect: non-scaling-stroke; fill: none; stroke: rgb(145, 30, 180); stroke-opacity: 1; stroke-width: 2px; opacity: 1;"/></g><g class="points"/><g class="text"/></g></g></g><g class="overplot"/><path class="xlines-above crisp" d="M0,0" style="fill: none;"/><path class="ylines-above crisp" d="M0,0" style="fill: none;"/><g class="overlines-above"/><g class="xaxislayer-above"><g class="xtick"><text text-anchor="middle" x="0" y="383" transform="translate(118.6,0)" style="font-family: 'Open Sans', verdana, arial, sans-serif; font-size: 12px; fill: rgb(242, 245, 250); fill-opacity: 1; white-space: pre;">Mar 2020</text></g><g class="xtick"><text text-anchor="middle" x="0" y="383" transform="translate(178.97,0)" style="font-family: 'Open Sans', verdana, arial, sans-serif; font-size: 12px; fill: rgb(242, 245, 250); fill-opacity: 1; white-space: pre;">May 2020</text></g><g class="xtick"><text text-anchor="middle" x="0" y="383" transform="translate(239.34,0)" style="font-family: 'Open Sans', verdana, arial, sans-serif; font-size: 12px; fill: rgb(242, 245, 250); fill-opacity: 1; white-space: pre;">Jul 2020</text></g><g class="xtick"><text text-anchor="middle" x="0" y="383" transform="translate(300.7,0)" style="font-family: 'Open Sans', verdana, arial, sans-serif; font-size: 12px; fill: rgb(242, 245, 250); fill-opacity: 1; white-space: pre;">Sep 2020</text></g><g class="xtick"><text text-anchor="middle" x="0" y="383" transform="translate(361.08,0)" style="font-family: 'Open Sans', verdana, arial, sans-serif; font-size: 12px; fill: rgb(242, 245, 250); fill-opacity: 1; white-space: pre;">Nov 2020</text></g></g><g class="yaxislayer-above"><g class="ytick"><text text-anchor="end" x="79" y="4.199999999999999" transform="translate(0,356.5)" style="font-family: 'Open Sans', verdana, arial, sans-serif; font-size: 12px; fill: rgb(242, 245, 250); fill-opacity: 1; white-space: pre;">0</text></g><g class="ytick"><text text-anchor="end" x="79" y="4.199999999999999" transform="translate(0,310.91999999999996)" style="font-family: 'Open Sans', verdana, arial, sans-serif; font-size: 12px; fill: rgb(242, 245, 250); fill-opacity: 1; white-space: pre;">5k</text></g><g class="ytick"><text text-anchor="end" x="79" y="4.199999999999999" transform="translate(0,265.34000000000003)" style="font-family: 'Open Sans', verdana, arial, sans-serif; font-size: 12px; fill: rgb(242, 245, 250); fill-opacity: 1; white-space: pre;">10k</text></g><g class="ytick"><text text-anchor="end" x="79" y="4.199999999999999" transform="translate(0,219.75)" style="font-family: 'Open Sans', verdana, arial, sans-serif; font-size: 12px; fill: rgb(242, 245, 250); fill-opacity: 1; white-space: pre;">15k</text></g><g class="ytick"><text text-anchor="end" x="79" y="4.199999999999999" transform="translate(0,174.17000000000002)" style="font-family: 'Open Sans', verdana, arial, sans-serif; font-size: 12px; fill: rgb(242, 245, 250); fill-opacity: 1; white-space: pre;">20k</text></g><g class="ytick"><text text-anchor="end" x="79" y="4.199999999999999" transform="translate(0,128.59)" style="font-family: 'Open Sans', verdana, arial, sans-serif; font-size: 12px; fill: rgb(242, 245, 250); fill-opacity: 1; white-space: pre;">25k</text></g></g><g class="overaxes-above"/></g><g class="subplot x2y2"><g class="layer-subplot"><g class="shapelayer"/><g class="imagelayer"/></g><g class="gridlayer"><g class="x2"><path class="x2grid crisp" transform="translate(482.70000000000005,0)" d="M0,100v270" style="stroke: rgb(40, 52, 66); stroke-opacity: 1; stroke-width: 1px;"/><path class="x2grid crisp" transform="translate(543.07,0)" d="M0,100v270" style="stroke: rgb(40, 52, 66); stroke-opacity: 1; stroke-width: 1px;"/><path class="x2grid crisp" transform="translate(603.44,0)" d="M0,100v270" style="stroke: rgb(40, 52, 66); stroke-opacity: 1; stroke-width: 1px;"/><path class="x2grid crisp" transform="translate(664.8,0)" d="M0,100v270" style="stroke: rgb(40, 52, 66); stroke-opacity: 1; stroke-width: 1px;"/><path class="x2grid crisp" transform="translate(725.1800000000001,0)" d="M0,100v270" style="stroke: rgb(40, 52, 66); stroke-opacity: 1; stroke-width: 1px;"/></g><g class="y2"><path class="y2grid crisp" transform="translate(0,307.31)" d="M444.1,0h297.9" style="stroke: rgb(40, 52, 66); stroke-opacity: 1; stroke-width: 1px;"/><path class="y2grid crisp" transform="translate(0,258.12)" d="M444.1,0h297.9" style="stroke: rgb(40, 52, 66); stroke-opacity: 1; stroke-width: 1px;"/><path class="y2grid crisp" transform="translate(0,208.93)" d="M444.1,0h297.9" style="stroke: rgb(40, 52, 66); stroke-opacity: 1; stroke-width: 1px;"/><path class="y2grid crisp" transform="translate(0,159.74)" d="M444.1,0h297.9" style="stroke: rgb(40, 52, 66); stroke-opacity: 1; stroke-width: 1px;"/><path class="y2grid crisp" transform="translate(0,110.55)" d="M444.1,0h297.9" style="stroke: rgb(40, 52, 66); stroke-opacity: 1; stroke-width: 1px;"/></g></g><g class="zerolinelayer"><path class="y2zl zl crisp" transform="translate(0,356.5)" d="M444.1,0h297.9" style="stroke: rgb(40, 52, 66); stroke-opacity: 1; stroke-width: 2px;"/></g><path class="xlines-below"/><path class="ylines-below"/><g class="overlines-below"/><g class="xaxislayer-below"/><g class="yaxislayer-below"/><g class="overaxes-below"/><g class="plot" transform="translate(444.1, 100)" clip-path="url('#clip30015cx2y2plot')"><g class="scatterlayer mlayer"><g class="trace scatter trace729c7f" style="stroke-miterlimit: 2; opacity: 1;"><g class="fills"/><g class="errorbars"/><g class="lines"><path class="js-line" d="M0,256.5L60.37,256.01L61.36,255.52L62.35,255.52L63.34,254.53L64.33,254.53L65.32,253.55L67.3,253.06L68.29,253.06L70.27,252.07L71.26,250.6L74.23,250.11L75.22,249.12L77.2,248.14L78.19,246.66L81.16,245.19L82.15,245.19L83.13,238.79L84.12,237.32L85.11,237.32L86.1,236.33L91.05,233.87L92.04,232.89L93.03,230.92L94.02,230.92L95.01,230.92L96,229.45L99.96,225.51L100.95,225.51L101.94,225.51L102.93,224.03L104.91,223.54L105.9,222.07L107.88,221.57L108.87,221.57L112.83,216.16L113.82,215.67L115.8,215.67L116.78,214.2L120.74,211.24L121.73,210.75L125.69,210.26L126.68,209.77L129.65,209.28L130.64,208.79L132.62,208.79L133.61,206.82L137.57,206.33L138.56,204.85L140.54,202.88L141.53,202.88L142.52,201.41L143.51,201.41L144.5,201.41L145.49,199.44L148.46,198.46L149.44,198.46L152.41,196.49L153.4,193.54L156.37,191.08L157.36,191.08L161.32,187.63L162.31,187.63L165.28,187.63L166.27,186.65L168.25,184.19L169.24,183.7L171.22,183.7L172.21,181.73L174.19,180.75L175.18,177.3L177.16,176.81L178.15,176.81L182.1,168.94L183.09,168.94L185.07,168.94L186.06,167.47L189.03,166.97L190.02,163.53L192,163.53L192.99,162.05L194.97,161.56L195.96,161.56L196.95,161.56L197.94,155.66L199.92,155.66L200.91,152.22L202.89,148.77L203.88,148.77L206.85,146.31L207.84,144.35L209.82,141.89L210.81,141.89L212.79,141.39L213.78,138.44L216.74,135L217.73,135L218.72,130.08L219.71,130.08L220.7,130.08L221.69,121.72L222.68,111.39L223.67,110.9L224.66,109.42L225.65,109.42L227.63,108.93L228.62,107.45L229.61,107.45L230.6,99.09L231.59,99.09L232.58,93.19L233.57,92.7L234.56,81.38L235.55,81.38L236.54,76.96L238.52,72.53L239.51,72.53L240.5,72.53L241.49,64.66L245.45,56.79L246.44,56.79L247.43,56.79L248.41,55.8L249.4,53.84L250.39,49.9L251.38,49.9L252.37,47.44L254.35,47.44L255.34,46.46L256.33,44.49L257.32,44.49L269.2,44L270.19,42.52L271.18,32.19L272.17,32.19L274.15,29.73L275.14,29.73L278.11,28.75L279.1,28.75L284.04,28.75L285.03,27.77L287.01,23.34L288,23.34L289.98,23.34L290.97,18.91L291.96,17.44L292.95,17.44L294.93,15.47L295.92,15.47L297.9,13.5" style="vector-effect: non-scaling-stroke; fill: none; stroke: rgb(230, 25, 75); stroke-opacity: 1; stroke-width: 2px; opacity: 1;"/></g><g class="points"/><g class="text"/></g><g class="trace scatter trace9e0505" style="stroke-miterlimit: 2; opacity: 1;"><g class="fills"/><g class="errorbars"/><g class="lines"><path class="js-line" d="M0,256.5L68.29,256.5L69.28,255.52L75.22,255.02L76.21,254.53L81.16,254.04L82.15,253.55L91.05,253.06L92.04,252.56L94.02,252.07L95.01,252.07L97.98,250.6L98.97,250.6L100.95,249.61L101.94,249.61L103.92,249.12L104.91,249.12L108.87,248.63L109.86,248.14L117.77,247.65L118.76,246.17L119.75,246.17L120.74,245.19L124.7,244.69L125.69,243.71L133.61,243.22L134.6,242.73L136.58,242.73L137.57,241.25L143.51,240.76L144.5,240.27L152.41,239.78L153.4,238.79L165.28,238.3L166.27,237.81L167.26,237.81L168.25,236.82L170.23,236.33L171.22,236.33L176.17,233.87L177.16,233.87L178.15,233.87L179.14,232.4L181.12,231.9L182.1,230.43L184.08,230.43L185.07,227.97L186.06,227.97L187.05,224.53L189.03,221.57L190.02,221.08L192.99,220.59L193.98,219.12L194.97,219.12L195.96,217.64L201.9,210.75L202.89,208.79L204.87,205.83L205.86,205.83L207.84,202.88L208.83,202.39L209.82,202.39L210.81,201.41L213.78,199.93L214.77,198.95L216.74,197.47L217.73,197.47L218.72,197.47L219.71,196.49L222.68,191.57L223.67,191.57L225.65,191.08L226.64,191.08L227.63,190.59L228.62,189.11L229.61,187.63L230.6,187.63L232.58,185.17L233.57,185.17L239.51,179.27L240.5,179.27L248.41,178.78L249.4,178.29L251.38,177.3L252.37,177.3L254.35,176.81L255.34,176.81L257.32,176.81L258.31,175.83L262.27,174.35L263.26,174.35L265.24,174.35L266.23,173.37L270.19,171.89L271.18,171.89L274.15,171.4L275.14,170.91L277.12,168.45L278.11,168.45L279.1,166.97L280.09,166.97L284.04,166.48L285.03,165.99L287.01,165.5L288,165.5L292.95,162.55L293.94,161.56L295.92,161.07L296.91,159.6L297.9,158.61" style="vector-effect: non-scaling-stroke; fill: none; stroke: rgb(60, 180, 75); stroke-opacity: 1; stroke-width: 2px; opacity: 1;"/></g><g class="points"/><g class="text"/></g><g class="trace scatter trace5142e5" style="stroke-miterlimit: 2; opacity: 1;"><g class="fills"/><g class="errorbars"/><g class="lines"><path class="js-line" d="M0,256.5L64.33,256.01L65.32,254.53L67.3,254.04L68.29,254.04L70.27,253.06L71.26,253.06L72.25,253.06L73.24,252.07L76.21,250.6L77.2,250.6L80.17,249.61L81.16,249.61L85.11,248.14L86.1,246.66L87.09,246.17L88.08,244.69L90.06,241.74L91.05,240.76L92.04,239.28L93.03,239.28L96,235.35L96.99,232.4L98.97,232.4L99.96,228.46L101.94,227.97L102.93,224.03L104.91,220.59L105.9,220.1L106.89,218.13L107.88,218.13L108.87,218.13L109.86,214.2L110.85,213.21L111.84,206.82L112.83,205.34L113.82,202.39L114.81,202.39L115.8,201.41L116.78,200.91L117.77,192.06L120.74,178.29L121.73,178.29L124.7,177.8L125.69,171.89L128.66,171.4L129.65,169.93L131.63,167.47L132.62,167.47L133.61,167.47L134.6,166.48L136.58,165.99L137.57,165.5L141.53,162.05L142.52,162.05L144.5,160.58L145.49,160.58L146.48,160.09L147.47,158.61L149.44,157.63L150.43,157.14L156.37,157.14L157.36,156.15L160.33,155.17L161.32,155.17L166.27,154.68L167.26,153.69L173.2,153.69L174.19,152.71L184.08,152.22L185.07,151.23L186.06,151.23L187.05,150.25L192.99,149.76L193.98,149.27L194.97,149.27L195.96,148.28L197.94,147.3L198.93,146.81L201.9,146.31L202.89,145.82L203.88,144.35L204.87,144.35L206.85,144.35L207.84,142.87L213.78,142.38L214.77,141.89L217.73,140.9L218.72,140.9L226.64,140.41L227.63,138.94L229.61,138.44L230.6,136.48L234.56,136.48L235.55,135.49L236.54,135.49L237.53,134.51L241.49,134.02L242.48,133.52L244.46,132.54L245.45,132.54L254.35,132.05L255.34,131.56L256.33,129.59L257.32,129.59L265.24,129.1L266.23,128.61L269.2,128.11L270.19,126.15L274.15,125.65L275.14,124.18L277.12,123.69L278.11,122.7L281.08,122.7L282.06,121.72L285.03,118.77L286.02,118.77L290.97,118.77L291.96,115.82L296.91,113.36L297.9,113.36" style="vector-effect: non-scaling-stroke; fill: none; stroke: rgb(255, 225, 25); stroke-opacity: 1; stroke-width: 2px; opacity: 1;"/></g><g class="points"/><g class="text"/></g><g class="trace scatter tracecd6790" style="stroke-miterlimit: 2; opacity: 1;"><g class="fills"/><g class="errorbars"/><g class="lines"><path class="js-line" d="M0,256.5L175.18,256.01L176.17,255.52L192.99,255.02L193.98,254.53L209.82,254.53L210.81,253.55L255.34,253.06L256.33,252.56L268.21,252.07L269.2,251.09L271.18,250.6L272.17,250.6L277.12,250.6L278.11,248.63L280.09,248.14L281.08,246.17L282.06,246.17L283.05,244.2L284.04,242.73L285.03,242.73L287.01,241.25L288,241.25L288.99,241.25L289.98,239.28L292.95,239.28L293.94,236.82L294.93,236.82L295.92,235.84L297.9,233.87" style="vector-effect: non-scaling-stroke; fill: none; stroke: rgb(67, 99, 216); stroke-opacity: 1; stroke-width: 2px; opacity: 1;"/></g><g class="points"/><g class="text"/></g><g class="trace scatter trace04c4d8" style="stroke-miterlimit: 2; opacity: 1;"><g class="fills"/><g class="errorbars"/><g class="lines"><path class="js-line" d="M0,256.5L75.22,256.01L76.21,255.52L78.19,255.02L79.18,255.02L82.15,254.53L83.13,254.04L85.11,253.55L86.1,253.55L90.06,253.06L91.05,252.07L96.99,251.58L97.98,251.09L100.95,250.11L101.94,250.11L103.92,249.61L104.91,249.61L106.89,248.63L107.88,248.63L115.8,245.19L116.78,245.19L119.75,244.69L120.74,244.2L129.65,243.71L130.64,243.22L138.56,242.73L139.55,242.23L197.94,241.74L198.93,241.25L202.89,240.76L203.88,240.27L206.85,240.27L207.84,239.28L209.82,238.79L210.81,238.79L215.75,238.3L216.74,237.81L218.72,237.32L219.71,236.82L228.62,236.33L229.61,235.84L235.55,235.35L236.54,234.86L238.52,234.36L239.51,234.36L241.49,233.38L242.48,233.38L248.41,232.89L249.4,232.4L252.37,231.41L253.36,231.41L258.31,230.92L259.3,230.43L261.28,230.43L262.27,229.45L264.25,228.46L265.24,228.46L267.22,227.97L268.21,227.97L270.19,226L271.18,226L272.17,226L273.16,225.02L277.12,224.53L278.11,224.03L280.09,222.56L281.08,222.56L283.05,222.07L284.04,222.07L288,222.07L288.99,219.61L290.97,217.15L291.96,216.66L292.95,216.66L293.94,214.69L294.93,214.69L295.92,213.7L297.9,211.74" style="vector-effect: non-scaling-stroke; fill: none; stroke: rgb(245, 130, 49); stroke-opacity: 1; stroke-width: 2px; opacity: 1;"/></g><g class="points"/><g class="text"/></g><g class="trace scatter trace8eb025" style="stroke-miterlimit: 2; opacity: 1;"><g class="fills"/><g class="errorbars"/><g class="lines"><path class="js-line" d="M0,256.5L70.27,256.01L71.26,255.02L76.21,255.02L77.2,253.55L92.04,253.06L93.03,252.56L95.01,252.07L96,252.07L97.98,251.09L98.97,251.09L102.93,250.6L103.92,249.61L108.87,249.61L109.86,247.65L111.84,247.15L112.83,247.15L119.75,246.66L120.74,245.68L129.65,245.19L130.64,243.22L133.61,242.23L134.6,242.23L143.51,241.74L144.5,241.25L150.43,240.76L151.42,240.27L158.35,239.78L159.34,239.28L165.28,238.79L166.27,238.3L169.24,237.32L170.23,237.32L174.19,236.82L175.18,236.33L178.15,236.33L179.14,235.35L180.13,235.35L181.12,234.36L182.1,234.36L183.09,233.38L186.06,232.89L187.05,232.4L188.04,232.4L189.03,231.41L191.01,231.41L192,230.43L197.94,229.94L198.93,229.45L201.9,229.45L202.89,228.46L204.87,227.48L205.86,227.48L207.84,226.49L208.83,226.49L209.82,224.53L210.81,225.02L212.79,225.02L213.78,223.54L217.73,223.05L218.72,222.07L221.69,222.07L222.68,220.59L224.66,217.15L225.65,217.15L228.62,216.66L229.61,216.16L230.6,216.16L231.59,215.18L235.55,214.69L236.54,214.2L238.52,213.7L239.51,213.7L243.47,213.21L244.46,212.72L248.41,212.23L249.4,211.24L251.38,209.28L252.37,208.29L256.33,207.8L257.32,206.82L260.29,205.83L261.28,205.83L263.26,205.34L264.25,204.85L269.2,204.36L270.19,203.87L272.17,200.91L273.16,201.41L275.14,199.93L276.13,199.93L281.08,199.44L282.06,198.95L283.05,198.95L284.04,196.98L286.02,196L287.01,194.52L289.98,194.03L290.97,193.54L292.95,193.04L293.94,193.04L296.91,190.59L297.9,188.13" style="vector-effect: non-scaling-stroke; fill: none; stroke: rgb(145, 30, 180); stroke-opacity: 1; stroke-width: 2px; opacity: 1;"/></g><g class="points"/><g class="text"/></g></g></g><g class="overplot"/><path class="xlines-above crisp" d="M0,0" style="fill: none;"/><path class="ylines-above crisp" d="M0,0" style="fill: none;"/><g class="overlines-above"/><g class="xaxislayer-above"><g class="x2tick"><text text-anchor="middle" x="0" y="383" transform="translate(482.70000000000005,0)" style="font-family: 'Open Sans', verdana, arial, sans-serif; font-size: 12px; fill: rgb(242, 245, 250); fill-opacity: 1; white-space: pre;">Mar 2020</text></g><g class="x2tick"><text text-anchor="middle" x="0" y="383" transform="translate(543.07,0)" style="font-family: 'Open Sans', verdana, arial, sans-serif; font-size: 12px; fill: rgb(242, 245, 250); fill-opacity: 1; white-space: pre;">May 2020</text></g><g class="x2tick"><text text-anchor="middle" x="0" y="383" transform="translate(603.44,0)" style="font-family: 'Open Sans', verdana, arial, sans-serif; font-size: 12px; fill: rgb(242, 245, 250); fill-opacity: 1; white-space: pre;">Jul 2020</text></g><g class="x2tick"><text text-anchor="middle" x="0" y="383" transform="translate(664.8,0)" style="font-family: 'Open Sans', verdana, arial, sans-serif; font-size: 12px; fill: rgb(242, 245, 250); fill-opacity: 1; white-space: pre;">Sep 2020</text></g><g class="x2tick"><text text-anchor="middle" x="0" y="383" transform="translate(725.1800000000001,0)" style="font-family: 'Open Sans', verdana, arial, sans-serif; font-size: 12px; fill: rgb(242, 245, 250); fill-opacity: 1; white-space: pre;">Nov 2020</text></g></g><g class="yaxislayer-above"><g class="y2tick"><text text-anchor="end" x="443.1" y="4.199999999999999" transform="translate(0,356.5)" style="font-family: 'Open Sans', verdana, arial, sans-serif; font-size: 12px; fill: rgb(242, 245, 250); fill-opacity: 1; white-space: pre;">0</text></g><g class="y2tick"><text text-anchor="end" x="443.1" y="4.199999999999999" transform="translate(0,307.31)" style="font-family: 'Open Sans', verdana, arial, sans-serif; font-size: 12px; fill: rgb(242, 245, 250); fill-opacity: 1; white-space: pre;">100</text></g><g class="y2tick"><text text-anchor="end" x="443.1" y="4.199999999999999" transform="translate(0,258.12)" style="font-family: 'Open Sans', verdana, arial, sans-serif; font-size: 12px; fill: rgb(242, 245, 250); fill-opacity: 1; white-space: pre;">200</text></g><g class="y2tick"><text text-anchor="end" x="443.1" y="4.199999999999999" transform="translate(0,208.93)" style="font-family: 'Open Sans', verdana, arial, sans-serif; font-size: 12px; fill: rgb(242, 245, 250); fill-opacity: 1; white-space: pre;">300</text></g><g class="y2tick"><text text-anchor="end" x="443.1" y="4.199999999999999" transform="translate(0,159.74)" style="font-family: 'Open Sans', verdana, arial, sans-serif; font-size: 12px; fill: rgb(242, 245, 250); fill-opacity: 1; white-space: pre;">400</text></g><g class="y2tick"><text text-anchor="end" x="443.1" y="4.199999999999999" transform="translate(0,110.55)" style="font-family: 'Open Sans', verdana, arial, sans-serif; font-size: 12px; fill: rgb(242, 245, 250); fill-opacity: 1; white-space: pre;">500</text></g></g><g class="overaxes-above"/></g></g><g class="polarlayer"/><g class="ternarylayer"/><g class="geolayer"/><g class="funnelarealayer"/><g class="pielayer"/><g class="treemaplayer"/><g class="sunburstlayer"/><g class="glimages"/><defs id="topdefs-30015c"><g class="clips"/><clipPath id="legend30015c"><rect width="133" height="124" x="0" y="0"/></clipPath></defs><g class="layer-above"><g class="imagelayer"/><g class="shapelayer"/></g><g class="infolayer"><g class="legend" pointer-events="all" transform="translate(755.24, 100)"><rect class="bg" shape-rendering="crispEdges" width="133" height="124" x="0" y="0" style="stroke: rgb(68, 68, 68); stroke-opacity: 1; fill: rgb(17, 17, 17); fill-opacity: 1; stroke-width: 0px;"/><g class="scrollbox" transform="translate(0, 0)" clip-path="url('#legend30015c')"><g class="groups"><g class="traces" transform="translate(0, 14.5)" style="opacity: 1;"><text class="legendtext user-select-none" text-anchor="start" x="40" y="4.680000000000001" style="font-family: 'Open Sans', verdana, arial, sans-serif; font-size: 12px; fill: rgb(242, 245, 250); fill-opacity: 1; white-space: pre;">Alameda, CA</text><g class="layers" style="opacity: 1;"><g class="legendfill"/><g class="legendlines"><path class="js-line" d="M5,0h30" style="fill: none; stroke: rgb(230, 25, 75); stroke-opacity: 1; stroke-width: 2px;"/></g><g class="legendsymbols"><g class="legendpoints"/></g></g><rect class="legendtoggle" pointer-events="all" x="0" y="-9.5" width="127.8125" height="19" style="cursor: pointer; fill: rgb(0, 0, 0); fill-opacity: 0;"/></g><g class="traces" transform="translate(0, 33.5)" style="opacity: 1;"><text class="legendtext user-select-none" text-anchor="start" x="40" y="4.680000000000001" style="font-family: 'Open Sans', verdana, arial, sans-serif; font-size: 12px; fill: rgb(242, 245, 250); fill-opacity: 1; white-space: pre;">Montgomery, TX</text><g class="layers" style="opacity: 1;"><g class="legendfill"/><g class="legendlines"><path class="js-line" d="M5,0h30" style="fill: none; stroke: rgb(60, 180, 75); stroke-opacity: 1; stroke-width: 2px;"/></g><g class="legendsymbols"><g class="legendpoints"/></g></g><rect class="legendtoggle" pointer-events="all" x="0" y="-9.5" width="127.8125" height="19" style="cursor: pointer; fill: rgb(0, 0, 0); fill-opacity: 0;"/></g><g class="traces" transform="translate(0, 52.5)" style="opacity: 1;"><text class="legendtext user-select-none" text-anchor="start" x="40" y="4.680000000000001" style="font-family: 'Open Sans', verdana, arial, sans-serif; font-size: 12px; fill: rgb(242, 245, 250); fill-opacity: 1; white-space: pre;">Summit, OH</text><g class="layers" style="opacity: 1;"><g class="legendfill"/><g class="legendlines"><path class="js-line" d="M5,0h30" style="fill: none; stroke: rgb(255, 225, 25); stroke-opacity: 1; stroke-width: 2px;"/></g><g class="legendsymbols"><g class="legendpoints"/></g></g><rect class="legendtoggle" pointer-events="all" x="0" y="-9.5" width="127.8125" height="19" style="cursor: pointer; fill: rgb(0, 0, 0); fill-opacity: 0;"/></g><g class="traces" transform="translate(0, 71.5)" style="opacity: 1;"><text class="legendtext user-select-none" text-anchor="start" x="40" y="4.680000000000001" style="font-family: 'Open Sans', verdana, arial, sans-serif; font-size: 12px; fill: rgb(242, 245, 250); fill-opacity: 1; white-space: pre;">Eau Claire, WI</text><g class="layers" style="opacity: 1;"><g class="legendfill"/><g class="legendlines"><path class="js-line" d="M5,0h30" style="fill: none; stroke: rgb(67, 99, 216); stroke-opacity: 1; stroke-width: 2px;"/></g><g class="legendsymbols"><g class="legendpoints"/></g></g><rect class="legendtoggle" pointer-events="all" x="0" y="-9.5" width="127.8125" height="19" style="cursor: pointer; fill: rgb(0, 0, 0); fill-opacity: 0;"/></g><g class="traces" transform="translate(0, 90.5)" style="opacity: 1;"><text class="legendtext user-select-none" text-anchor="start" x="40" y="4.680000000000001" style="font-family: 'Open Sans', verdana, arial, sans-serif; font-size: 12px; fill: rgb(242, 245, 250); fill-opacity: 1; white-space: pre;">Ingham, MI</text><g class="layers" style="opacity: 1;"><g class="legendfill"/><g class="legendlines"><path class="js-line" d="M5,0h30" style="fill: none; stroke: rgb(245, 130, 49); stroke-opacity: 1; stroke-width: 2px;"/></g><g class="legendsymbols"><g class="legendpoints"/></g></g><rect class="legendtoggle" pointer-events="all" x="0" y="-9.5" width="127.8125" height="19" style="cursor: pointer; fill: rgb(0, 0, 0); fill-opacity: 0;"/></g><g class="traces" transform="translate(0, 109.5)" style="opacity: 1;"><text class="legendtext user-select-none" text-anchor="start" x="40" y="4.680000000000001" style="font-family: 'Open Sans', verdana, arial, sans-serif; font-size: 12px; fill: rgb(242, 245, 250); fill-opacity: 1; white-space: pre;">Rutherford, TN</text><g class="layers" style="opacity: 1;"><g class="legendfill"/><g class="legendlines"><path class="js-line" d="M5,0h30" style="fill: none; stroke: rgb(145, 30, 180); stroke-opacity: 1; stroke-width: 2px;"/></g><g class="legendsymbols"><g class="legendpoints"/></g></g><rect class="legendtoggle" pointer-events="all" x="0" y="-9.5" width="127.8125" height="19" style="cursor: pointer; fill: rgb(0, 0, 0); fill-opacity: 0;"/></g></g></g><rect class="scrollbar" rx="20" ry="3" width="0" height="0" x="0" y="0" style="fill: rgb(128, 139, 164); fill-opacity: 1;"/></g><g class="g-gtitle"/><g class="g-xtitle"><text class="xtitle" x="228.95000000000002" y="410.8" text-anchor="middle" style="font-family: 'Open Sans', verdana, arial, sans-serif; font-size: 14px; fill: rgb(242, 245, 250); opacity: 1; font-weight: normal; white-space: pre;">Date</text></g><g class="g-x2title"><text class="x2title" x="593.05" y="410.8" text-anchor="middle" style="font-family: 'Open Sans', verdana, arial, sans-serif; font-size: 14px; fill: rgb(242, 245, 250); opacity: 1; font-weight: normal; white-space: pre;">Date</text></g><g class="g-ytitle"><text class="ytitle" transform="rotate(-90,34.840625,235)" x="34.840625" y="235" text-anchor="middle" style="font-family: 'Open Sans', verdana, arial, sans-serif; font-size: 14px; fill: rgb(242, 245, 250); opacity: 1; font-weight: normal; white-space: pre;">Cases</text></g><g class="g-y2title"><text class="y2title" transform="rotate(-90,398.278125,235)" x="398.278125" y="235" text-anchor="middle" style="font-family: 'Open Sans', verdana, arial, sans-serif; font-size: 14px; fill: rgb(242, 245, 250); opacity: 1; font-weight: normal; white-space: pre;">Deaths</text></g><g class="annotation" data-index="0" style="opacity: 1;"><g class="annotation-text-g" transform="rotate(0,228.95000000000002,89.5)"><g class="cursor-pointer" transform="translate(204, 79)"><rect class="bg" x="0.5" y="0.5" width="48" height="20" style="stroke-width: 1px; stroke: rgb(0, 0, 0); stroke-opacity: 0; fill: rgb(0, 0, 0); fill-opacity: 0;"/><text class="annotation-text" text-anchor="middle" x="24.6875" y="16" style="font-family: 'Open Sans', verdana, arial, sans-serif; font-size: 16px; fill: rgb(242, 245, 250); fill-opacity: 1; white-space: pre;">Cases</text></g></g></g><g class="annotation" data-index="1" style="opacity: 1;"><g class="annotation-text-g" transform="rotate(0,593.0500000000001,89.5)"><g class="cursor-pointer" transform="translate(566, 79)"><rect class="bg" x="0.5" y="0.5" width="54" height="20" style="stroke-width: 1px; stroke: rgb(0, 0, 0); stroke-opacity: 0; fill: rgb(0, 0, 0); fill-opacity: 0;"/><text class="annotation-text" text-anchor="middle" x="27.359375" y="16" style="font-family: 'Open Sans', verdana, arial, sans-serif; font-size: 16px; fill: rgb(242, 245, 250); fill-opacity: 1; white-space: pre;">Deaths</text></g></g></g></g></svg>