<svg class="main-svg" xmlns="http://www.w3.org/2000/svg" xmlns:xlink="http://www.w3.org/1999/xlink" width="900" height="450" style="" viewBox="0 0 900 450"><rect x="0" y="0" width="900" height="450" style="fill: rgb(17, 17, 17); fill-opacity: 1;"/><defs id="defs-1b6c3b"><g class="clips"><clipPath id="clip1b6c3bxyplot" class="plotclip"><rect width="301.5" height="270"/></clipPath><clipPath id="clip1b6c3bx2y2plot" class="plotclip"><rect width="301.49999999999994" height="270"/></clipPath><clipPath class="axesclip" id="clip1b6c3bx"><rect x="80" y="0" width="301.5" height="450"/></clipPath><clipPath class="axesclip" id="clip1b6c3by"><rect x="0" y="100" width="900" height="270"/></clipPath><clipPath class="axesclip" id="clip1b6c3bxy"><rect x="80" y="100" width="301.5" height="270"/></clipPath><clipPath class="axesclip" id="clip1b6c3by2"><rect x="0" y="100" width="900" height="270"/></clipPath><clipPath class="axesclip" id="clip1b6c3bxy2"><rect x="80" y="100" width="301.5" height="270"/></clipPath><clipPath class="axesclip" id="clip1b6c3bx2"><rect x="448.50000000000006" y="0" width="301.49999999999994" height="450"/></clipPath><clipPath class="axesclip" id="clip1b6c3bx2y"><rect x="448.50000000000006" y="100" width="301.49999999999994" height="270"/></clipPath><clipPath class="axesclip" id="clip1b6c3bx2y2"><rect x="448.50000000000006" y="100" width="301.49999999999994" height="270"/></clipPath></g><g class="gradients"/></defs><g class="bglayer"/><g class="layer-below"><g class="imagelayer"/><g class="shapelayer"/></g><g class="cartesianlayer"><g class="subplot xy"><g class="layer-subplot"><g class="shapelayer"/><g class="imagelayer"/></g><g class="gridlayer"><g class="x"><path class="xgrid crisp" transform="translate(185.07,0)" d="M0,100v270" style="stroke: rgb(40, 52, 66); stroke-opacity: 1; stroke-width: 1px;"/><path class="xgrid crisp" transform="translate(305.15,0)" d="M0,100v270" style="stroke: rgb(40, 52, 66); stroke-opacity: 1; stroke-width: 1px;"/></g><g class="y"><path class="ygrid crisp" transform="translate(0,312.46000000000004)" d="M80,0h301.5" style="stroke: rgb(40, 52, 66); stroke-opacity: 1; stroke-width: 1px;"/><path class="ygrid crisp" transform="translate(0,268.43)" d="M80,0h301.5" style="stroke: rgb(40, 52, 66); stroke-opacity: 1; stroke-width: 1px;"/><path class="ygrid crisp" transform="translate(0,224.39)" d="M80,0h301.5" style="stroke: rgb(40, 52, 66); stroke-opacity: 1; stroke-width: 1px;"/><path class="ygrid crisp" transform="translate(0,180.36)" d="M80,0h301.5" style="stroke: rgb(40, 52, 66); stroke-opacity: 1; stroke-width: 1px;"/><path class="ygrid crisp" transform="translate(0,136.32)" d="M80,0h301.5" style="stroke: rgb(40, 52, 66); stroke-opacity: 1; stroke-width: 1px;"/></g></g><g class="zerolinelayer"><path class="yzl zl crisp" transform="translate(0,356.5)" d="M80,0h301.5" style="stroke: rgb(40, 52, 66); stroke-opacity: 1; stroke-width: 2px;"/></g><path class="xlines-below"/><path class="ylines-below"/><g class="overlines-below"/><g class="xaxislayer-below"/><g class="yaxislayer-below"/><g class="overaxes-below"/><g class="plot" transform="translate(80, 100)" clip-path="url('#clip1b6c3bxyplot')"><g class="scatterlayer mlayer"><g class="trace scatter tracea572f9" style="stroke-miterlimit: 2; opacity: 1;"><g class="fills"/><g class="errorbars"/><g class="lines"><path class="js-line" d="M0,256.5L52.86,255.76L53.51,255.72L65.91,255L66.56,254.96L82.88,253.77L83.53,253.69L110.94,249.91L111.59,249.7L114.2,249.03L114.86,248.9L123.99,246.7L124.65,246.7L127.91,245.81L128.56,245.81L129.87,245.81L130.52,244.88L132.48,244.08L133.13,243.97L139.66,241.77L140.31,241.76L142.92,240.78L143.57,240.78L153.36,238.89L154.01,238.87L191.86,234.26L192.52,234.13L204.92,230.2L205.57,229.79L212.09,224.63L212.75,224.63L214.05,222.18L214.7,221.63L217.31,218.93L217.97,217.75L231.02,203.55L231.67,202.68L238.2,195.92L238.85,195.45L254.51,187.42L255.17,187.23L263,185.55L263.65,184.96L276.05,183.55L276.7,183.52L301.5,180.49" style="vector-effect: non-scaling-stroke; fill: none; stroke: rgb(230, 25, 75); stroke-opacity: 1; stroke-width: 2px; opacity: 1;"/></g><g class="points"/><g class="text"/></g><g class="trace scatter trace932692" style="stroke-miterlimit: 2; opacity: 1;"><g class="fills"/><g class="errorbars"/><g class="lines"><path class="js-line" d="M0,256.5L51.56,255.87L52.21,255.68L72.44,253.46L73.09,253.43L97.24,252.65L97.89,252.64L168.37,249.97L169.02,249.9L175.55,249.27L176.2,249.27L184.69,248.08L185.34,248L195.78,246.19L196.43,246.03L208.83,242.37L209.48,242L234.28,231.84L234.94,231.51L236.89,230.9L237.55,230.74L240.16,229.99L240.81,229.88L242.77,229.35L243.42,228.06L252.56,226.43L253.21,226.31L264.95,224.89L265.61,224.73L282.57,221.53L283.23,221.36L301.5,216.71" style="vector-effect: non-scaling-stroke; fill: none; stroke: rgb(60, 180, 75); stroke-opacity: 1; stroke-width: 2px; opacity: 1;"/></g><g class="points"/><g class="text"/></g><g class="trace scatter traceef1ee0" style="stroke-miterlimit: 2; opacity: 1;"><g class="fills"/><g class="errorbars"/><g class="lines"><path class="js-line" d="M0,256.5L98.54,255.75L99.19,255.73L105.07,254.77L105.72,254.58L114.2,253.22L114.86,253.15L127.91,251.47L128.56,251.4L182.73,246.53L183.38,246.37L219.27,239.3L219.93,239.07L223.19,238.43L223.84,238.2L232.98,234.56L233.63,234.3L238.2,232.74L238.85,232.5L246.68,230.06L247.33,229.94L252.56,228.55L253.21,228.4L292.36,222.26L293.02,222.15L301.5,220.69" style="vector-effect: non-scaling-stroke; fill: none; stroke: rgb(255, 225, 25); stroke-opacity: 1; stroke-width: 2px; opacity: 1;"/></g><g class="points"/><g class="text"/></g><g class="trace scatter trace6a0edd" style="stroke-miterlimit: 2; opacity: 1;"><g class="fills"/><g class="errorbars"/><g class="lines"><path class="js-line" d="M0,256.5L92.02,255.76L92.67,255.7L100.5,254.62L101.15,254.3L110.94,251.16L111.59,250.04L115.51,248.36L116.16,247.26L119.43,244.37L120.08,243.65L121.38,243.15L122.04,243.15L124.65,241.84L125.3,241.52L127.26,240.87L127.91,240.43L131.82,238.76L132.48,238.51L140.96,234.33L141.61,233.64L143.57,232.5L144.22,232.5L172.94,227L173.59,226.9L180.77,225.7L181.42,225.7L196.43,223.03L197.08,222.43L199.04,221.2L199.69,221.2L200.35,221.2L201,219.98L202.96,218.77L203.61,218.77L205.57,218.15L206.22,217.61L208.18,216.53L208.83,216.53L210.14,216.19L210.79,215.59L212.75,215.01L213.4,214.61L219.27,214L219.93,213.7L221.88,213.37L222.54,213.37L229.71,210.39L230.37,209.15L232.32,208.68L232.98,208.27L235.59,206.78L236.24,206.78L237.55,206.19L238.2,205.54L240.16,204.28L240.81,204.28L244.72,201.35L245.38,201.35L249.29,197.87L249.94,197.87L252.56,195.42L253.21,194.86L256.47,194.21L257.12,193.81L261.04,191.49L261.69,190.78L263,189.92L263.65,189.92L266.26,188.44L266.91,188.19L270.83,187.45L271.48,186.74L273.44,186.04L274.09,185.19L276.05,184.18L276.7,184.18L301.5,180.32" style="vector-effect: non-scaling-stroke; fill: none; stroke: rgb(67, 99, 216); stroke-opacity: 1; stroke-width: 2px; opacity: 1;"/></g><g class="points"/><g class="text"/></g><g class="trace scatter trace56746b" style="stroke-miterlimit: 2; opacity: 1;"><g class="fills"/><g class="errorbars"/><g class="lines"><path class="js-line" d="M0,256.5L45.68,255.75L46.33,255.65L54.82,254.73L55.47,254.66L67.87,252.84L68.52,252.7L95.93,247.82L96.58,247.61L102.46,245.19L103.11,244.76L125.95,230.18L126.6,229.88L175.55,210.72L176.2,210.72L190.56,203.16L191.21,202.73L191.86,202.73L192.52,201.6L195.78,198.09L196.43,197.28L197.74,196.49L198.39,194.23L202.31,189.25L202.96,186.03L206.22,180.63L206.87,178.84L212.09,164.06L212.75,164.06L214.7,155.88L215.36,153.59L217.31,145.12L217.97,145.12L222.54,128.11L223.19,126.57L225.8,115.52L226.45,111.62L235.59,71.64L236.24,69.98L240.81,56.41L241.46,55.14L249.94,39.35L250.6,38.74L259.08,30.13L259.73,29.85L263,27.43L263.65,23.29L271.48,20.88L272.13,20.75L279.96,19.17L280.62,19.17L283.88,18.45L284.53,18.23L287.14,17.25L287.8,17.25L289.75,16.33L290.41,16.33L292.36,15.44L293.02,15.21L298.24,13.5L298.89,14.22L301.5,13.7" style="vector-effect: non-scaling-stroke; fill: none; stroke: rgb(245, 130, 49); stroke-opacity: 1; stroke-width: 2px; opacity: 1;"/></g><g class="points"/><g class="text"/></g><g class="trace scatter trace82b852" style="stroke-miterlimit: 2; opacity: 1;"><g class="fills"/><g class="errorbars"/><g class="lines"><path class="js-line" d="M0,256.5L43.72,255.77L44.38,255.54L47.64,253.98L48.29,253.66L51.56,252.08L52.21,251.84L59.39,248.23L60.04,247.8L67.22,244.61L67.87,244.35L77.01,242.96L77.66,242.91L97.89,241.76L98.54,241.73L129.87,240.98L130.52,240.96L177.51,238.81L178.16,238.74L186.64,237.52L187.3,237.36L193.82,234.93L194.47,234.59L197.74,233.24L198.39,232.89L202.96,230.71L203.61,230.21L214.05,224.8L214.7,224.43L222.54,221.88L223.19,219.26L237.55,213.91L238.2,213.62L248.64,210.14L249.29,209.94L255.17,208.3L255.82,208.04L270.18,204.36L270.83,204.07L276.05,203.31L276.7,203.31L278.01,203.31L278.66,201.39L282.57,200.82L283.23,199.73L289.75,197.18L290.41,197.18L296.28,194.98L296.93,194.61L301.5,193.81" style="vector-effect: non-scaling-stroke; fill: none; stroke: rgb(145, 30, 180); stroke-opacity: 1; stroke-width: 2px; opacity: 1;"/></g><g class="points"/><g class="text"/></g></g></g><g class="overplot"/><path class="xlines-above crisp" d="M0,0" style="fill: none;"/><path class="ylines-above crisp" d="M0,0" style="fill: none;"/><g class="overlines-above"/><g class="xaxislayer-above"><g class="xtick"><text text-anchor="middle" x="0" y="383" transform="translate(185.07,0)" style="font-family: 'Open Sans', verdana, arial, sans-serif; font-size: 12px; fill: rgb(242, 245, 250); fill-opacity: 1; white-space: pre;">Jul 2020</text></g><g class="xtick"><text text-anchor="middle" x="0" y="383" transform="translate(305.15,0)" style="font-family: 'Open Sans', verdana, arial, sans-serif; font-size: 12px; fill: rgb(242, 245, 250); fill-opacity: 1; white-space: pre;">Jan 2021</text></g></g><g class="yaxislayer-above"><g class="ytick"><text text-anchor="end" x="79" y="4.199999999999999" transform="translate(0,356.5)" style="font-family: 'Open Sans', verdana, arial, sans-serif; font-size: 12px; fill: rgb(242, 245, 250); fill-opacity: 1; white-space: pre;">0</text></g><g class="ytick"><text text-anchor="end" x="79" y="4.199999999999999" transform="translate(0,312.46000000000004)" style="font-family: 'Open Sans', verdana, arial, sans-serif; font-size: 12px; fill: rgb(242, 245, 250); fill-opacity: 1; white-space: pre;">50k</text></g><g class="ytick"><text text-anchor="end" x="79" y="4.199999999999999" transform="translate(0,268.43)" style="font-family: 'Open Sans', verdana, arial, sans-serif; font-size: 12px; fill: rgb(242, 245, 250); fill-opacity: 1; white-space: pre;">100k</text></g><g class="ytick"><text text-anchor="end" x="79" y="4.199999999999999" transform="translate(0,224.39)" style="font-family: 'Open Sans', verdana, arial, sans-serif; font-size: 12px; fill: rgb(242, 245, 250); fill-opacity: 1; white-space: pre;">150k</text></g><g class="ytick"><text text-anchor="end" x="79" y="4.199999999999999" transform="translate(0,180.36)" style="font-family: 'Open Sans', verdana, arial, sans-serif; font-size: 12px; fill: rgb(242, 245, 250); fill-opacity: 1; white-space: pre;">200k</text></g><g class="ytick"><text text-anchor="end" x="79" y="4.199999999999999" transform="translate(0,136.32)" style="font-family: 'Open Sans', verdana, arial, sans-serif; font-size: 12px; fill: rgb(242, 245, 250); fill-opacity: 1; white-space: pre;">250k</text></g></g><g class="overaxes-above"/></g><g class="subplot x2y2"><g class="layer-subplot"><g class="shapelayer"/><g class="imagelayer"/></g><g class="gridlayer"><g class="x2"><path class="x2grid crisp" transform="translate(553.57,0)" d="M0,100v270" style="stroke: rgb(40, 52, 66); stroke-opacity: 1; stroke-width: 1px;"/><path class="x2grid crisp" transform="translate(673.6500000000001,0)" d="M0,100v270" style="stroke: rgb(40, 52, 66); stroke-opacity: 1; stroke-width: 1px;"/></g><g class="y2"><path class="y2grid crisp" transform="translate(0,290.68)" d="M448.50000000000006,0h301.49999999999994" style="stroke: rgb(40, 52, 66); stroke-opacity: 1; stroke-width: 1px;"/><path class="y2grid crisp" transform="translate(0,224.86)" d="M448.50000000000006,0h301.49999999999994" style="stroke: rgb(40, 52, 66); stroke-opacity: 1; stroke-width: 1px;"/><path class="y2grid crisp" transform="translate(0,159.05)" d="M448.50000000000006,0h301.49999999999994" style="stroke: rgb(40, 52, 66); stroke-opacity: 1; stroke-width: 1px;"/></g></g><g class="zerolinelayer"><path class="y2zl zl crisp" transform="translate(0,356.5)" d="M448.50000000000006,0h301.49999999999994" style="stroke: rgb(40, 52, 66); stroke-opacity: 1; stroke-width: 2px;"/></g><path class="xlines-below"/><path class="ylines-below"/><g class="overlines-below"/><g class="xaxislayer-below"/><g class="yaxislayer-below"/><g class="overaxes-below"/><g class="plot" transform="translate(448.50000000000006, 100)" clip-path="url('#clip1b6c3bx2y2plot')"><g class="scatterlayer mlayer"><g class="trace scatter trace3d2c31" style="stroke-miterlimit: 2; opacity: 1;"><g class="fills"/><g class="errorbars"/><g class="lines"><path class="js-line" d="M0,256.5L46.33,255.91L46.99,255.71L54.17,254.99L54.82,254.13L58.73,253.67L59.39,253.54L73.74,251.3L74.4,251.1L100.5,248.47L101.15,248.08L108.33,247.29L108.98,247.29L127.91,243.8L128.56,243.8L129.87,243.8L130.52,243.01L133.13,242.28L133.78,242.09L137.05,241.49L137.7,241.3L145.53,239.58L146.18,238.47L147.49,237.02L148.14,236.82L151.4,236.56L152.06,235.44L152.71,235.44L153.36,234.65L154.01,234.58L154.67,233.07L155.97,232.48L156.62,232.15L159.23,230.83L159.89,230.5L168.37,228.4L169.02,227.54L178.16,227.87L178.81,226.49L187.95,225.89L188.6,225.5L195.78,224.05L196.43,223.99L204.92,222.67L205.57,222.27L210.14,221.88L210.79,221.42L214.7,219.44L215.36,218.72L216.66,218L217.31,217.86L218.62,217.8L219.27,216.42L221.88,215.36L222.54,215.36L224.49,215.36L225.15,213.32L228.41,213.32L229.06,210.62L229.71,210.62L230.37,208.52L232.32,208.06L232.98,206.81L238.2,206.08L238.85,201.08L240.16,200.16L240.81,197.66L242.11,196.87L242.77,195.36L244.07,193.38L244.72,192.39L247.33,190.75L247.99,189.3L249.94,187.98L250.6,187.98L253.21,184.89L253.86,182.78L257.12,182.39L257.78,179.43L258.43,179.43L259.08,177.52L260.39,177.52L261.04,176.33L263,174.82L263.65,183.77L266.26,181.4L266.91,181.27L268.87,180.74L269.52,180.15L272.13,179.62L272.79,179.69L274.74,178.24L275.4,178.37L276.05,178.97L276.7,178.37L278.66,177.58L279.31,177.12L286.49,176.27L287.14,176.27L291.06,175.02L291.71,175.02L301.5,173.57" style="vector-effect: non-scaling-stroke; fill: none; stroke: rgb(230, 25, 75); stroke-opacity: 1; stroke-width: 2px; opacity: 1;"/></g><g class="points"/><g class="text"/></g><g class="trace scatter trace61cdf5" style="stroke-miterlimit: 2; opacity: 1;"><g class="fills"/><g class="errorbars"/><g class="lines"><path class="js-line" d="M0,256.5L50.9,255.97L51.56,255.71L54.17,254.72L54.82,254.66L56.12,254.26L56.78,253.87L58.08,251.63L58.73,251.1L63.3,250.51L63.95,248.87L67.22,248.73L67.87,246.82L68.52,246.76L69.18,245.44L73.09,244.72L73.74,243.6L75.05,242.81L75.7,242.81L77.01,239.26L77.66,238.53L80.92,237.02L81.57,237.02L86.14,235.37L86.8,235.31L107.03,233.33L107.68,233.33L122.04,232.67L122.69,232.54L136.39,231.82L137.05,231.75L157.28,231.03L157.93,230.96L161.19,230.63L161.84,230.63L170.98,230.04L171.63,229.71L179.46,228.99L180.12,228.92L187.3,228.2L187.95,228.07L206.87,225.57L207.53,225.43L210.79,224.78L211.44,224.51L218.62,222.14L219.27,221.68L221.23,220.96L221.88,220.96L223.19,220.56L223.84,219.84L225.8,218.85L226.45,218.79L227.76,218.39L228.41,217.34L231.02,215.17L231.67,215.1L232.32,214.9L232.98,213.59L234.94,211.41L235.59,211.28L237.55,209.97L238.2,208.91L242.11,205.75L242.77,204.5L249.94,201.02L250.6,200.75L253.21,199.63L253.86,199.37L258.43,198.65L259.08,198.58L260.39,197.99L261.04,197.72L263.65,197.26L264.3,197.07L293.02,193.91L293.67,193.38L301.5,191.67" style="vector-effect: non-scaling-stroke; fill: none; stroke: rgb(60, 180, 75); stroke-opacity: 1; stroke-width: 2px; opacity: 1;"/></g><g class="points"/><g class="text"/></g><g class="trace scatter tracecfde40" style="stroke-miterlimit: 2; opacity: 1;"><g class="fills"/><g class="errorbars"/><g class="lines"><path class="js-line" d="M0,256.5L80.27,255.78L80.92,255.71L109.64,255.18L110.29,254.79L114.2,253.87L114.86,253.6L122.04,252.22L122.69,250.91L123.99,249.39L124.65,249L127.26,248.4L127.91,247.81L131.17,246.56L131.82,246.17L140.31,243.67L140.96,243.67L144.22,242.68L144.88,242.68L146.18,242.15L146.83,241.82L149.44,241.03L150.1,241.03L151.4,240.37L152.06,239.85L155.32,238.99L155.97,238.73L161.19,237.35L161.84,237.22L166.41,236.56L167.06,236.43L178.81,233.33L179.46,232.34L183.38,232.15L184.03,231.82L188.6,231.16L189.25,230.77L193.17,229.71L193.82,229.58L197.08,228.99L197.74,228.72L211.44,225.37L212.09,225.1L214.7,224.51L215.36,224.25L218.62,223.66L219.27,223.66L220.58,222.87L221.23,222.74L225.15,222.08L225.8,221.95L229.06,221.29L229.71,220.96L231.67,219.77L232.32,219.71L236.24,218.19L236.89,217.6L242.77,215.23L243.42,214.44L244.72,213.46L245.38,213.39L247.99,212.67L248.64,212.07L253.86,210.23L254.51,210.16L257.78,208.98L258.43,208.58L261.69,207.93L262.34,207.73L264.95,207.07L265.61,207.07L266.91,206.22L267.56,206.22L270.83,205.62L271.48,205.1L278.66,204.37L279.31,204.31L280.62,203.65L281.27,203.58L301.5,200.03" style="vector-effect: non-scaling-stroke; fill: none; stroke: rgb(255, 225, 25); stroke-opacity: 1; stroke-width: 2px; opacity: 1;"/></g><g class="points"/><g class="text"/></g><g class="trace scatter trace355c19" style="stroke-miterlimit: 2; opacity: 1;"><g class="fills"/><g class="errorbars"/><g class="lines"><path class="js-line" d="M0,256.5L88.75,255.78L89.41,255.71L99.85,254.99L100.5,254.85L103.11,254.46L103.76,254.39L104.42,254.39L105.07,253.47L108.98,252.62L109.64,251.56L112.9,246.63L113.55,246.63L114.2,246.5L114.86,244.46L120.08,228L120.73,226.49L121.38,226.49L122.04,240.44L122.69,239.78L123.34,236.62L123.99,235.96L124.65,233.79L125.95,229.38L126.6,226.42L131.17,214.38L131.82,213.46L133.13,210.36L133.78,207.66L137.05,199.04L137.7,197.2L139.66,191.8L140.31,191.6L140.96,191.01L141.61,188.9L144.22,182.32L144.88,182.19L146.18,179.76L146.83,177.12L148.79,174.42L149.44,173.96L153.36,168.11L154.01,168.04L160.54,159.16L161.19,158.56L162.5,157.58L163.15,157.51L164.45,156.13L165.11,155.01L167.72,153.96L168.37,153.76L171.63,150.47L172.29,150.47L178.16,147.57L178.81,147.31L180.77,146.19L181.42,146.19L183.38,145.27L184.03,144.68L187.3,142.7L187.95,142.5L192.52,140.92L193.17,140.46L196.43,139.54L197.08,138.82L199.69,137.9L200.35,137.9L209.48,134.67L210.14,134.21L213.4,133.03L214.05,132.83L216.01,132.17L216.66,132.17L217.97,132.17L218.62,130.79L222.54,130.26L223.19,129.8L227.76,127.76L228.41,127.56L231.02,126.44L231.67,126.44L233.63,125.19L234.28,124.47L236.24,123.94L236.89,123.68L240.16,120.39L240.81,120.39L242.11,119.2L242.77,118.41L244.72,116.77L245.38,116.77L251.25,112.1L251.9,110.91L255.17,108.8L255.82,108.74L259.08,108.08L259.73,107.22L264.95,103.47L265.61,102.49L268.87,101.43L269.52,101.1L271.48,99.52L272.13,99.39L273.44,98.93L274.09,98.34L276.05,97.29L276.7,96.89L282.57,94.65L283.23,94.65L284.53,93.67L285.19,93.53L293.02,92.28L293.67,91.89L301.5,90.51" style="vector-effect: non-scaling-stroke; fill: none; stroke: rgb(67, 99, 216); stroke-opacity: 1; stroke-width: 2px; opacity: 1;"/></g><g class="points"/><g class="text"/></g><g class="trace scatter trace043075" style="stroke-miterlimit: 2; opacity: 1;"><g class="fills"/><g class="errorbars"/><g class="lines"><path class="js-line" d="M0,256.5L45.03,255.91L45.68,255.51L49.6,254.46L50.25,254.13L58.73,250.77L59.39,250.18L68.52,246.1L69.18,245.64L73.09,243.73L73.74,243.34L75.05,242.74L75.7,242.74L77.01,241.89L77.66,241.36L79.62,240.11L80.27,240.11L83.53,239.39L84.19,238.79L86.14,238.33L86.8,237.87L89.41,237.02L90.06,237.02L94.63,235.44L95.28,235.24L99.19,234.25L99.85,234.25L102.46,232.81L103.11,232.74L105.07,232.02L105.72,231.69L107.03,231.03L107.68,231.03L108.33,231.03L108.98,230.24L112.25,228.72L112.9,228.72L116.16,225.04L116.81,225.04L118.12,224.45L118.77,223.26L124.65,219.58L125.3,219.31L127.26,219.12L127.91,218.46L139.66,213.06L140.31,213.06L144.22,211.61L144.88,211.61L148.79,209.97L149.44,209.97L150.1,209.97L150.75,209.05L159.23,206.15L159.89,206.02L161.84,205.49L162.5,205.43L164.45,204.96L165.11,204.37L169.02,202.99L169.68,202.6L172.29,202.13L172.94,201.21L178.81,199.5L179.46,199.44L183.38,198.51L184.03,198.05L194.47,195.55L195.13,195.55L202.31,190.95L202.96,190.88L204.26,190.88L204.92,189.43L206.87,187.59L207.53,187.06L208.83,186.6L209.48,184.89L214.05,177.91L214.7,176.4L217.31,172.25L217.97,172.25L218.62,172.06L219.27,170.21L221.23,164.22L221.88,164.22L223.19,164.09L223.84,162.05L225.15,155.54L225.8,151.72L227.76,151.32L228.41,147.64L236.24,118.08L236.89,118.08L237.55,117.69L238.2,113.41L240.81,100.18L241.46,100.18L244.72,85.18L245.38,85.18L246.68,83.46L247.33,79.91L249.29,71.42L249.94,70.83L250.6,70.83L251.25,68.72L253.86,58.45L254.51,56.61L255.82,56.28L256.47,52.53L258.43,46.67L259.08,46.54L259.73,46.54L260.39,44.7L261.04,43.91L261.69,41.93L264.3,38.18L264.95,36.54L267.56,33.38L268.22,33.38L270.83,30.48L271.48,29.82L276.7,26.53L277.35,26.53L278.66,25.54L279.31,24.82L282.57,23.04L283.23,23.04L287.14,20.67L287.8,20.67L290.41,19.56L291.06,18.17L292.36,18.04L293.02,16.4L296.28,14.68L296.93,14.68L298.89,14.03L299.54,13.76L301.5,13.5" style="vector-effect: non-scaling-stroke; fill: none; stroke: rgb(245, 130, 49); stroke-opacity: 1; stroke-width: 2px; opacity: 1;"/></g><g class="points"/><g class="text"/></g><g class="trace scatter trace642d18" style="stroke-miterlimit: 2; opacity: 1;"><g class="fills"/><g class="errorbars"/><g class="lines"><path class="js-line" d="M0,256.5L45.03,255.91L45.68,255.51L50.9,251.1L51.56,249.85L52.86,247.88L53.51,247.88L56.78,240.51L57.43,240.05L59.39,237.15L60.04,237.15L61.34,229.12L62,228.46L62.65,227.67L63.3,225.24L65.91,215.43L66.56,214.9L67.22,214.84L67.87,212.86L69.83,209.44L70.48,208.19L72.44,206.15L73.09,204.83L75.7,201.34L76.35,201.28L77.66,200.23L78.31,199.63L79.62,198.05L80.27,197.92L82.88,197.07L83.53,196.14L85.49,195.36L86.14,195.22L90.06,192.33L90.71,192.2L95.93,190.22L96.58,190.09L101.81,188.77L102.46,178.83L108.98,177.52L109.64,177.26L110.94,176.33L111.59,176.27L114.2,175.74L114.86,175.41L122.69,174.49L123.34,174.82L128.56,174.95L129.21,174.95L154.01,174.29L154.67,174.16L184.03,173.5L184.69,173.44L191.86,172.71L192.52,172.45L195.78,172.06L196.43,171.53L206.22,169.03L206.87,168.76L211.44,166.99L212.09,166.2L214.7,165.67L215.36,165.34L218.62,163.89L219.27,163.17L221.23,162.64L221.88,162.64L223.19,162.05L223.84,161L225.8,160.27L226.45,160.27L227.76,159.48L228.41,159.02L230.37,157.11L231.02,157.11L232.32,156.52L232.98,156.19L234.28,155.54L234.94,155.07L241.46,152.9L242.11,152.18L246.03,150.86L246.68,150.73L249.94,149.87L250.6,149.61L254.51,148.36L255.17,148.36L257.78,147.18L258.43,147.18L261.69,145.86L262.34,145.53L264.3,144.74L264.95,144.28L269.52,143.03L270.18,142.63L275.4,140.86L276.05,140.59L279.96,139.61L280.62,139.61L282.57,139.21L283.23,138.75L285.84,138.23L286.49,137.96L298.89,134.74L299.54,134.67L301.5,134.14" style="vector-effect: non-scaling-stroke; fill: none; stroke: rgb(145, 30, 180); stroke-opacity: 1; stroke-width: 2px; opacity: 1;"/></g><g class="points"/><g class="text"/></g></g></g><g class="overplot"/><path class="xlines-above crisp" d="M0,0" style="fill: none;"/><path class="ylines-above crisp" d="M0,0" style="fill: none;"/><g class="overlines-above"/><g class="xaxislayer-above"><g class="x2tick"><text text-anchor="middle" x="0" y="383" transform="translate(553.57,0)" style="font-family: 'Open Sans', verdana, arial, sans-serif; font-size: 12px; fill: rgb(242, 245, 250); fill-opacity: 1; white-space: pre;">Jul 2020</text></g><g class="x2tick"><text text-anchor="middle" x="0" y="383" transform="translate(673.6500000000001,0)" style="font-family: 'Open Sans', verdana, arial, sans-serif; font-size: 12px; fill: rgb(242, 245, 250); fill-opacity: 1; white-space: pre;">Jan 2021</text></g></g><g class="yaxislayer-above"><g class="y2tick"><text text-anchor="end" x="447.50000000000006" y="4.199999999999999" transform="translate(0,356.5)" style="font-family: 'Open Sans', verdana, arial, sans-serif; font-size: 12px; fill: rgb(242, 245, 250); fill-opacity: 1; white-space: pre;">0</text></g><g class="y2tick"><text text-anchor="end" x="447.50000000000006" y="4.199999999999999" transform="translate(0,290.68)" style="font-family: 'Open Sans', verdana, arial, sans-serif; font-size: 12px; fill: rgb(242, 245, 250); fill-opacity: 1; white-space: pre;">1000</text></g><g class="y2tick"><text text-anchor="end" x="447.50000000000006" y="4.199999999999999" transform="translate(0,224.86)" style="font-family: 'Open Sans', verdana, arial, sans-serif; font-size: 12px; fill: rgb(242, 245, 250); fill-opacity: 1; white-space: pre;">2000</text></g><g class="y2tick"><text text-anchor="end" x="447.50000000000006" y="4.199999999999999" transform="translate(0,159.05)" style="font-family: 'Open Sans', verdana, arial, sans-serif; font-size: 12px; fill: rgb(242, 245, 250); fill-opacity: 1; white-space: pre;">3000</text></g></g><g class="overaxes-above"/></g></g><g class="polarlayer"/><g class="ternarylayer"/><g class="geolayer"/><g class="funnelarealayer"/><g class="pielayer"/><g class="treemaplayer"/><g class="sunburstlayer"/><g class="glimages"/><defs id="topdefs-1b6c3b"><g class="clips"/><clipPath id="legend1b6c3b"><rect width="125" height="124" x="0" y="0"/></clipPath></defs><g class="layer-above"><g class="imagelayer"/><g class="shapelayer"/></g><g class="infolayer"><g class="legend" pointer-events="all" transform="translate(763.4, 100)"><rect class="bg" shape-rendering="crispEdges" width="125" height="124" x="0" y="0" style="stroke: rgb(68, 68, 68); stroke-opacity: 1; fill: rgb(17, 17, 17); fill-opacity: 1; stroke-width: 0px;"/><g class="scrollbox" transform="translate(0, 0)" clip-path="url('#legend1b6c3b')"><g class="groups"><g class="traces" transform="translate(0, 14.5)" style="opacity: 1;"><text class="legendtext user-select-none" text-anchor="start" x="40" y="4.680000000000001" style="font-family: 'Open Sans', verdana, arial, sans-serif; font-size: 12px; fill: rgb(242, 245, 250); fill-opacity: 1; white-space: pre;">Alameda, CA</text><g class="layers" style="opacity: 1;"><g class="legendfill"/><g class="legendlines"><path class="js-line" d="M5,0h30" style="fill: none; stroke: rgb(230, 25, 75); stroke-opacity: 1; stroke-width: 2px;"/></g><g class="legendsymbols"><g class="legendpoints"/></g></g><rect class="legendtoggle" pointer-events="all" x="0" y="-9.5" width="119.390625" height="19" style="cursor: pointer; fill: rgb(0, 0, 0); fill-opacity: 0;"/></g><g class="traces" transform="translate(0, 33.5)" style="opacity: 1;"><text class="legendtext user-select-none" text-anchor="start" x="40" y="4.680000000000001" style="font-family: 'Open Sans', verdana, arial, sans-serif; font-size: 12px; fill: rgb(242, 245, 250); fill-opacity: 1; white-space: pre;">Berks, PA</text><g class="layers" style="opacity: 1;"><g class="legendfill"/><g class="legendlines"><path class="js-line" d="M5,0h30" style="fill: none; stroke: rgb(60, 180, 75); stroke-opacity: 1; stroke-width: 2px;"/></g><g class="legendsymbols"><g class="legendpoints"/></g></g><rect class="legendtoggle" pointer-events="all" x="0" y="-9.5" width="119.390625" height="19" style="cursor: pointer; fill: rgb(0, 0, 0); fill-opacity: 0;"/></g><g class="traces" transform="translate(0, 52.5)" style="opacity: 1;"><text class="legendtext user-select-none" text-anchor="start" x="40" y="4.680000000000001" style="font-family: 'Open Sans', verdana, arial, sans-serif; font-size: 12px; fill: rgb(242, 245, 250); fill-opacity: 1; white-space: pre;">Brevard, FL</text><g class="layers" style="opacity: 1;"><g class="legendfill"/><g class="legendlines"><path class="js-line" d="M5,0h30" style="fill: none; stroke: rgb(255, 225, 25); stroke-opacity: 1; stroke-width: 2px;"/></g><g class="legendsymbols"><g class="legendpoints"/></g></g><rect class="legendtoggle" pointer-events="all" x="0" y="-9.5" width="119.390625" height="19" style="cursor: pointer; fill: rgb(0, 0, 0); fill-opacity: 0;"/></g><g class="traces" transform="translate(0, 71.5)" style="opacity: 1;"><text class="legendtext user-select-none" text-anchor="start" x="40" y="4.680000000000001" style="font-family: 'Open Sans', verdana, arial, sans-serif; font-size: 12px; fill: rgb(242, 245, 250); fill-opacity: 1; white-space: pre;">Hidalgo, TX</text><g class="layers" style="opacity: 1;"><g class="legendfill"/><g class="legendlines"><path class="js-line" d="M5,0h30" style="fill: none; stroke: rgb(67, 99, 216); stroke-opacity: 1; stroke-width: 2px;"/></g><g class="legendsymbols"><g class="legendpoints"/></g></g><rect class="legendtoggle" pointer-events="all" x="0" y="-9.5" width="119.390625" height="19" style="cursor: pointer; fill: rgb(0, 0, 0); fill-opacity: 0;"/></g><g class="traces" transform="translate(0, 90.5)" style="opacity: 1;"><text class="legendtext user-select-none" text-anchor="start" x="40" y="4.680000000000001" style="font-family: 'Open Sans', verdana, arial, sans-serif; font-size: 12px; fill: rgb(242, 245, 250); fill-opacity: 1; white-space: pre;">San Diego, CA</text><g class="layers" style="opacity: 1;"><g class="legendfill"/><g class="legendlines"><path class="js-line" d="M5,0h30" style="fill: none; stroke: rgb(245, 130, 49); stroke-opacity: 1; stroke-width: 2px;"/></g><g class="legendsymbols"><g class="legendpoints"/></g></g><rect class="legendtoggle" pointer-events="all" x="0" y="-9.5" width="119.390625" height="19" style="cursor: pointer; fill: rgb(0, 0, 0); fill-opacity: 0;"/></g><g class="traces" transform="translate(0, 109.5)" style="opacity: 1;"><text class="legendtext user-select-none" text-anchor="start" x="40" y="4.680000000000001" style="font-family: 'Open Sans', verdana, arial, sans-serif; font-size: 12px; fill: rgb(242, 245, 250); fill-opacity: 1; white-space: pre;">Passaic, NJ</text><g class="layers" style="opacity: 1;"><g class="legendfill"/><g class="legendlines"><path class="js-line" d="M5,0h30" style="fill: none; stroke: rgb(145, 30, 180); stroke-opacity: 1; stroke-width: 2px;"/></g><g class="legendsymbols"><g class="legendpoints"/></g></g><rect class="legendtoggle" pointer-events="all" x="0" y="-9.5" width="119.390625" height="19" style="cursor: pointer; fill: rgb(0, 0, 0); fill-opacity: 0;"/></g></g></g><rect class="scrollbar" rx="20" ry="3" width="0" height="0" x="0" y="0" style="fill: rgb(128, 139, 164); fill-opacity: 1;"/></g><g class="g-gtitle"/><g class="g-xtitle"><text class="xtitle" x="230.75" y="410.8" text-anchor="middle" style="font-family: 'Open Sans', verdana, arial, sans-serif; font-size: 14px; fill: rgb(242, 245, 250); opacity: 1; font-weight: normal; white-space: pre;">Date</text></g><g class="g-x2title"><text class="x2title" x="599.25" y="410.8" text-anchor="middle" style="font-family: 'Open Sans', verdana, arial, sans-serif; font-size: 14px; fill: rgb(242, 245, 250); opacity: 1; font-weight: normal; white-space: pre;">Date</text></g><g class="g-ytitle"><text class="ytitle" transform="rotate(-90,28.168750000000003,235)" x="28.168750000000003" y="235" text-anchor="middle" style="font-family: 'Open Sans', verdana, arial, sans-serif; font-size: 14px; fill: rgb(242, 245, 250); opacity: 1; font-weight: normal; white-space: pre;">Cases</text></g><g class="g-y2title"><text class="y2title" transform="rotate(-90,395.996875,235)" x="395.996875" y="235" text-anchor="middle" style="font-family: 'Open Sans', verdana, arial, sans-serif; font-size: 14px; fill: rgb(242, 245, 250); opacity: 1; font-weight: normal; white-space: pre;">Deaths</text></g><g class="annotation" data-index="0" style="opacity: 1;"><g class="annotation-text-g" transform="rotate(0,230.75,89.5)"><g class="cursor-pointer" transform="translate(206, 79)"><rect class="bg" x="0.5" y="0.5" width="48" height="20" style="stroke-width: 1px; stroke: rgb(0, 0, 0); stroke-opacity: 0; fill: rgb(0, 0, 0); fill-opacity: 0;"/><text class="annotation-text" text-anchor="middle" x="24.6875" y="16" style="font-family: 'Open Sans', verdana, arial, sans-serif; font-size: 16px; fill: rgb(242, 245, 250); fill-opacity: 1; white-space: pre;">Cases</text></g></g></g><g class="annotation" data-index="1" style="opacity: 1;"><g class="annotation-text-g" transform="rotate(0,599.25,89.5)"><g class="cursor-pointer" transform="translate(572, 79)"><rect class="bg" x="0.5" y="0.5" width="54" height="20" style="stroke-width: 1px; stroke: rgb(0, 0, 0); stroke-opacity: 0; fill: rgb(0, 0, 0); fill-opacity: 0;"/><text class="annotation-text" text-anchor="middle" x="27.359375" y="16" style="font-family: 'Open Sans', verdana, arial, sans-serif; font-size: 16px; fill: rgb(242, 245, 250); fill-opacity: 1; white-space: pre;">Deaths</text></g></g></g></g></svg>