<svg class="main-svg" xmlns="http://www.w3.org/2000/svg" xmlns:xlink="http://www.w3.org/1999/xlink" width="900" height="450" style="" viewBox="0 0 900 450"><rect x="0" y="0" width="900" height="450" style="fill: rgb(17, 17, 17); fill-opacity: 1;"/><defs id="defs-e8857f"><g class="clips"><clipPath id="clipe8857fxyplot" class="plotclip"><rect width="292.5" height="270"/></clipPath><clipPath id="clipe8857fx2y2plot" class="plotclip"><rect width="292.49999999999994" height="270"/></clipPath><clipPath class="axesclip" id="clipe8857fx"><rect x="80" y="0" width="292.5" height="450"/></clipPath><clipPath class="axesclip" id="clipe8857fy"><rect x="0" y="100" width="900" height="270"/></clipPath><clipPath class="axesclip" id="clipe8857fxy"><rect x="80" y="100" width="292.5" height="270"/></clipPath><clipPath class="axesclip" id="clipe8857fy2"><rect x="0" y="100" width="900" height="270"/></clipPath><clipPath class="axesclip" id="clipe8857fxy2"><rect x="80" y="100" width="292.5" height="270"/></clipPath><clipPath class="axesclip" id="clipe8857fx2"><rect x="437.50000000000006" y="0" width="292.49999999999994" height="450"/></clipPath><clipPath class="axesclip" id="clipe8857fx2y"><rect x="437.50000000000006" y="100" width="292.49999999999994" height="270"/></clipPath><clipPath class="axesclip" id="clipe8857fx2y2"><rect x="437.50000000000006" y="100" width="292.49999999999994" height="270"/></clipPath></g><g class="gradients"/></defs><g class="bglayer"/><g class="layer-below"><g class="imagelayer"/><g class="shapelayer"/></g><g class="cartesianlayer"><g class="subplot xy"><g class="layer-subplot"><g class="shapelayer"/><g class="imagelayer"/></g><g class="gridlayer"><g class="x"><path class="xgrid crisp" transform="translate(126.11,0)" d="M0,100v270" style="stroke: rgb(40, 52, 66); stroke-opacity: 1; stroke-width: 1px;"/><path class="xgrid crisp" transform="translate(186.06,0)" d="M0,100v270" style="stroke: rgb(40, 52, 66); stroke-opacity: 1; stroke-width: 1px;"/><path class="xgrid crisp" transform="translate(246.67,0)" d="M0,100v270" style="stroke: rgb(40, 52, 66); stroke-opacity: 1; stroke-width: 1px;"/><path class="xgrid crisp" transform="translate(307.28,0)" d="M0,100v270" style="stroke: rgb(40, 52, 66); stroke-opacity: 1; stroke-width: 1px;"/><path class="xgrid crisp" transform="translate(366.57,0)" d="M0,100v270" style="stroke: rgb(40, 52, 66); stroke-opacity: 1; stroke-width: 1px;"/></g><g class="y"><path class="ygrid crisp" transform="translate(0,301.88)" d="M80,0h292.5" style="stroke: rgb(40, 52, 66); stroke-opacity: 1; stroke-width: 1px;"/><path class="ygrid crisp" transform="translate(0,247.26)" d="M80,0h292.5" style="stroke: rgb(40, 52, 66); stroke-opacity: 1; stroke-width: 1px;"/><path class="ygrid crisp" transform="translate(0,192.64)" d="M80,0h292.5" style="stroke: rgb(40, 52, 66); stroke-opacity: 1; stroke-width: 1px;"/><path class="ygrid crisp" transform="translate(0,138.02)" d="M80,0h292.5" style="stroke: rgb(40, 52, 66); stroke-opacity: 1; stroke-width: 1px;"/></g></g><g class="zerolinelayer"><path class="yzl zl crisp" transform="translate(0,356.5)" d="M80,0h292.5" style="stroke: rgb(40, 52, 66); stroke-opacity: 1; stroke-width: 2px;"/></g><path class="xlines-below"/><path class="ylines-below"/><g class="overlines-below"/><g class="xaxislayer-below"/><g class="yaxislayer-below"/><g class="overaxes-below"/><g class="plot" transform="translate(80, 100)" clip-path="url('#clipe8857fxyplot')"><g class="scatterlayer mlayer"><g class="trace scatter tracea902a7" style="stroke-miterlimit: 2; opacity: 1;"><g class="fills"/><g class="errorbars"/><g class="lines"><path class="js-line" d="M0,256.5L50.73,255.76L51.39,255.72L100.14,251.03L100.79,250.89L116.6,246.82L117.26,246.55L127.15,243.91L127.8,243.56L131.1,243.24L131.76,242.08L133.07,241.57L133.73,241.1L137.69,239.64L138.34,239.2L140.98,238.23L141.64,238.22L143.61,237.25L144.27,237L146.91,236.35L147.57,236.08L156.13,234.55L156.79,234.55L190.39,229.83L191.05,229.56L204.22,224.98L204.88,224.69L209.49,221.83L210.15,220.95L210.81,220.86L211.47,219.65L214.76,216.97L215.42,214.75L219.38,209.9L220.03,208.43L232.55,191.86L233.21,190.82L239.14,182.28L239.8,181.74L243.75,178.66L244.41,178.01L257.58,170.59L258.24,170.47L265.49,168.49L266.15,167.76L277.35,166.14L278.01,166.07L291.84,164.51L292.5,164.3" style="vector-effect: non-scaling-stroke; fill: none; stroke: rgb(230, 25, 75); stroke-opacity: 1; stroke-width: 2px; opacity: 1;"/></g><g class="points"/><g class="text"/></g><g class="trace scatter tracebae2cd" style="stroke-miterlimit: 2; opacity: 1;"><g class="fills"/><g class="errorbars"/><g class="lines"><path class="js-line" d="M0,256.5L184.46,255.75L185.12,255.74L266.15,252.71L266.81,252.71L292.5,252.62" style="vector-effect: non-scaling-stroke; fill: none; stroke: rgb(60, 180, 75); stroke-opacity: 1; stroke-width: 2px; opacity: 1;"/></g><g class="points"/><g class="text"/></g><g class="trace scatter traceb855e1" style="stroke-miterlimit: 2; opacity: 1;"><g class="fills"/><g class="errorbars"/><g class="lines"><path class="js-line" d="M0,256.5L42.82,255.81L43.48,255.6L52.7,253.39L53.36,253.28L58.63,252.05L59.29,251.95L81.69,249.12L82.35,249.07L90.25,247.97L90.91,247.84L96.18,246.12L96.84,245.78L102.11,242.75L102.77,241.95L107.38,236.59L108.04,235.12L110.02,231.82L110.68,230.52L121.22,205.62L121.88,203.86L127.15,193.17L127.8,192.56L130.44,190.14L131.1,189.19L137.69,183.1L138.34,182.73L141.64,180.71L142.3,180.49L146.25,178.81L146.91,177.58L156.79,174.75L157.45,174.52L167.33,171.7L167.99,171.55L176.55,168.62L177.21,168.21L182.48,165.34L183.14,164.78L187.09,161.5L187.75,160.96L195.66,153.96L196.32,152.38L197.64,150.86L198.29,150.02L202.91,143.5L203.56,143.5L205.54,139.94L206.2,139.04L208.83,134.56L209.49,133.35L218.06,119.58L218.72,118.42L225.96,107.89L226.62,106.17L227.28,106.17L227.94,103.44L230.57,98.55L231.23,96.79L233.87,90.97L234.53,89.75L248.36,65.68L249.02,64.99L260.88,49.13L261.54,48.55L274.71,33.83L275.37,33.38L287.23,20.24L287.89,19.38L292.5,13.5" style="vector-effect: non-scaling-stroke; fill: none; stroke: rgb(255, 225, 25); stroke-opacity: 1; stroke-width: 2px; opacity: 1;"/></g><g class="points"/><g class="text"/></g><g class="trace scatter trace76e0f6" style="stroke-miterlimit: 2; opacity: 1;"><g class="fills"/><g class="errorbars"/><g class="lines"><path class="js-line" d="M0,256.5L52.04,255.75L52.7,255.67L69.83,253.38L70.49,253.29L73.13,252.78L73.78,252.7L79.05,251.76L79.71,251.59L86.3,250.38L86.96,250.29L97.5,248.96L98.16,248.92L115.29,246.67L115.95,246.51L141.64,241.13L142.3,241.09L162.72,239.64L163.38,239.59L182.48,237.45L183.14,237.38L191.71,235.53L192.36,235.35L199.61,232.46L200.27,231.96L225.3,222.5L225.96,222.29L245.73,215.4L246.39,215.24L252.97,214L253.63,213.87L266.15,212.29L266.81,212.28L276.69,210.58L277.35,210.37L292.5,205.08" style="vector-effect: non-scaling-stroke; fill: none; stroke: rgb(67, 99, 216); stroke-opacity: 1; stroke-width: 2px; opacity: 1;"/></g><g class="points"/><g class="text"/></g><g class="trace scatter trace82df3c" style="stroke-miterlimit: 2; opacity: 1;"><g class="fills"/><g class="errorbars"/><g class="lines"><path class="js-line" d="M0,256.5L52.7,255.76L53.36,255.73L91.57,251.31L92.23,251.14L101.45,248.73L102.11,248.56L125.17,238.24L125.83,237.79L131.76,234.86L132.42,234.68L135.71,233.11L136.37,232.98L141.64,231.18L142.3,230.93L148.23,229.45L148.89,229.33L159.43,227.42L160.08,227.36L173.92,224.97L174.58,224.8L198.29,219.2L198.95,218.92L208.18,215.13L208.83,214.51L214.1,210.88L214.76,210.29L218.72,207.24L219.38,206.68L221.35,205.03L222.01,204.16L225.96,201.19L226.62,200.23L228.6,198L229.26,197.64L238.48,185.75L239.14,185.03L243.75,178.47L244.41,177.96L248.36,175.26L249.02,174.76L252.31,173.15L252.97,172.82L260.22,170.19L260.88,170.03L285.25,165.38L285.91,165.3L292.5,164.33" style="vector-effect: non-scaling-stroke; fill: none; stroke: rgb(245, 130, 49); stroke-opacity: 1; stroke-width: 2px; opacity: 1;"/></g><g class="points"/><g class="text"/></g><g class="trace scatter trace39e223" style="stroke-miterlimit: 2; opacity: 1;"><g class="fills"/><g class="errorbars"/><g class="lines"><path class="js-line" d="M0,256.5L125.83,255.75L126.49,255.71L198.95,253.89L199.61,253.84L212.13,253.07L212.79,253L230.57,250.93L231.23,250.83L255.61,248.34L256.27,248.31L292.5,247.88" style="vector-effect: non-scaling-stroke; fill: none; stroke: rgb(145, 30, 180); stroke-opacity: 1; stroke-width: 2px; opacity: 1;"/></g><g class="points"/><g class="text"/></g></g></g><g class="overplot"/><path class="xlines-above crisp" d="M0,0" style="fill: none;"/><path class="ylines-above crisp" d="M0,0" style="fill: none;"/><g class="overlines-above"/><g class="xaxislayer-above"><g class="xtick"><text text-anchor="middle" x="0" y="383" transform="translate(126.11,0)" style="font-family: 'Open Sans', verdana, arial, sans-serif; font-size: 12px; fill: rgb(242, 245, 250); fill-opacity: 1; white-space: pre;">Apr 2020</text></g><g class="xtick"><text text-anchor="middle" x="0" y="383" transform="translate(186.06,0)" style="font-family: 'Open Sans', verdana, arial, sans-serif; font-size: 12px; fill: rgb(242, 245, 250); fill-opacity: 1; white-space: pre;">Jul 2020</text></g><g class="xtick"><text text-anchor="middle" x="0" y="383" transform="translate(246.67,0)" style="font-family: 'Open Sans', verdana, arial, sans-serif; font-size: 12px; fill: rgb(242, 245, 250); fill-opacity: 1; white-space: pre;">Oct 2020</text></g><g class="xtick"><text text-anchor="middle" x="0" y="383" transform="translate(307.28,0)" style="font-family: 'Open Sans', verdana, arial, sans-serif; font-size: 12px; fill: rgb(242, 245, 250); fill-opacity: 1; white-space: pre;">Jan 2021</text></g><g class="xtick"><text text-anchor="middle" x="0" y="383" transform="translate(366.57,0)" style="font-family: 'Open Sans', verdana, arial, sans-serif; font-size: 12px; fill: rgb(242, 245, 250); fill-opacity: 1; white-space: pre;">Apr 2021</text></g></g><g class="yaxislayer-above"><g class="ytick"><text text-anchor="end" x="79" y="4.199999999999999" transform="translate(0,356.5)" style="font-family: 'Open Sans', verdana, arial, sans-serif; font-size: 12px; fill: rgb(242, 245, 250); fill-opacity: 1; white-space: pre;">0</text></g><g class="ytick"><text text-anchor="end" x="79" y="4.199999999999999" transform="translate(0,301.88)" style="font-family: 'Open Sans', verdana, arial, sans-serif; font-size: 12px; fill: rgb(242, 245, 250); fill-opacity: 1; white-space: pre;">50k</text></g><g class="ytick"><text text-anchor="end" x="79" y="4.199999999999999" transform="translate(0,247.26)" style="font-family: 'Open Sans', verdana, arial, sans-serif; font-size: 12px; fill: rgb(242, 245, 250); fill-opacity: 1; white-space: pre;">100k</text></g><g class="ytick"><text text-anchor="end" x="79" y="4.199999999999999" transform="translate(0,192.64)" style="font-family: 'Open Sans', verdana, arial, sans-serif; font-size: 12px; fill: rgb(242, 245, 250); fill-opacity: 1; white-space: pre;">150k</text></g><g class="ytick"><text text-anchor="end" x="79" y="4.199999999999999" transform="translate(0,138.02)" style="font-family: 'Open Sans', verdana, arial, sans-serif; font-size: 12px; fill: rgb(242, 245, 250); fill-opacity: 1; white-space: pre;">200k</text></g></g><g class="overaxes-above"/></g><g class="subplot x2y2"><g class="layer-subplot"><g class="shapelayer"/><g class="imagelayer"/></g><g class="gridlayer"><g class="x2"><path class="x2grid crisp" transform="translate(483.61000000000007,0)" d="M0,100v270" style="stroke: rgb(40, 52, 66); stroke-opacity: 1; stroke-width: 1px;"/><path class="x2grid crisp" transform="translate(543.5600000000001,0)" d="M0,100v270" style="stroke: rgb(40, 52, 66); stroke-opacity: 1; stroke-width: 1px;"/><path class="x2grid crisp" transform="translate(604.1700000000001,0)" d="M0,100v270" style="stroke: rgb(40, 52, 66); stroke-opacity: 1; stroke-width: 1px;"/><path class="x2grid crisp" transform="translate(664.7800000000001,0)" d="M0,100v270" style="stroke: rgb(40, 52, 66); stroke-opacity: 1; stroke-width: 1px;"/><path class="x2grid crisp" transform="translate(724.07,0)" d="M0,100v270" style="stroke: rgb(40, 52, 66); stroke-opacity: 1; stroke-width: 1px;"/></g><g class="y2"><path class="y2grid crisp" transform="translate(0,311.85)" d="M437.50000000000006,0h292.49999999999994" style="stroke: rgb(40, 52, 66); stroke-opacity: 1; stroke-width: 1px;"/><path class="y2grid crisp" transform="translate(0,267.19)" d="M437.50000000000006,0h292.49999999999994" style="stroke: rgb(40, 52, 66); stroke-opacity: 1; stroke-width: 1px;"/><path class="y2grid crisp" transform="translate(0,222.54000000000002)" d="M437.50000000000006,0h292.49999999999994" style="stroke: rgb(40, 52, 66); stroke-opacity: 1; stroke-width: 1px;"/><path class="y2grid crisp" transform="translate(0,177.89)" d="M437.50000000000006,0h292.49999999999994" style="stroke: rgb(40, 52, 66); stroke-opacity: 1; stroke-width: 1px;"/><path class="y2grid crisp" transform="translate(0,133.24)" d="M437.50000000000006,0h292.49999999999994" style="stroke: rgb(40, 52, 66); stroke-opacity: 1; stroke-width: 1px;"/></g></g><g class="zerolinelayer"><path class="y2zl zl crisp" transform="translate(0,356.5)" d="M437.50000000000006,0h292.49999999999994" style="stroke: rgb(40, 52, 66); stroke-opacity: 1; stroke-width: 2px;"/></g><path class="xlines-below"/><path class="ylines-below"/><g class="overlines-below"/><g class="xaxislayer-below"/><g class="yaxislayer-below"/><g class="overaxes-below"/><g class="plot" transform="translate(437.50000000000006, 100)" clip-path="url('#clipe8857fx2y2plot')"><g class="scatterlayer mlayer"><g class="trace scatter tracee7f977" style="stroke-miterlimit: 2; opacity: 1;"><g class="fills"/><g class="errorbars"/><g class="lines"><path class="js-line" d="M0,256.5L46.11,255.79L46.77,255.7L50.07,255.16L50.73,255.07L54.68,254.45L55.34,253.29L58.63,252.75L59.29,252.66L69.17,250.61L69.83,250.52L74.44,249.44L75.1,249.18L101.45,245.6L102.11,245.07L108.7,244L109.36,244L113.97,243.28L114.63,242.93L125.17,240.25L125.83,240.25L127.15,239.62L127.8,239.62L130.44,239.26L131.1,239.26L132.42,238.19L133.07,238.19L135.05,236.94L135.71,236.94L144.93,234.44L145.59,233.46L146.91,233.55L147.57,232.03L148.89,230.07L149.54,229.8L152.84,229.44L153.5,227.92L154.16,227.92L154.81,226.85L155.47,226.76L156.13,224.71L156.79,224.71L157.45,223.9L159.43,223.1L160.08,223.1L161.4,221.22L162.06,221.05L163.38,220.42L164.04,220.24L166.01,219.71L166.67,218.99L169.97,218.37L170.63,217.21L173.92,217.56L174.58,218.01L175.24,217.03L175.9,217.83L177.21,217.03L177.87,217.83L179.85,217.65L180.51,215.78L189.07,215.15L189.73,214.97L191.71,214.17L192.36,214.17L193.02,214.17L193.68,213.37L197.64,212.47L198.29,212.38L206.86,210.6L207.52,210.06L212.13,209.53L212.79,208.9L216.74,206.22L217.4,205.24L218.06,205.24L218.72,204.26L220.69,203.99L221.35,202.11L223.33,201.22L223.99,200.68L226.62,200.68L227.28,197.92L230.57,197.92L231.23,194.25L231.89,194.25L232.55,191.4L234.53,190.77L235.19,189.07L238.48,188.9L239.14,188.27L240.46,188.09L241.11,181.3L242.43,180.05L243.09,176.66L244.41,175.59L245.07,173.54L245.73,172.82L246.39,170.86L247.7,168.98L248.36,168.8L252.31,163.53L252.97,163.53L255.61,159.34L256.27,156.48L259.56,155.94L260.22,151.92L260.88,151.92L261.54,149.33L262.85,149.33L263.51,147.73L264.17,147.19L264.83,145.67L265.49,145.67L266.15,157.82L268.78,154.6L269.44,154.42L271.42,153.71L272.08,152.91L274.71,152.19L275.37,152.28L277.35,150.32L278.01,150.49L278.67,151.3L279.32,150.49L281.3,149.42L281.96,148.8L287.89,147.82L288.55,147.82L291.84,146.48L292.5,146.03" style="vector-effect: non-scaling-stroke; fill: none; stroke: rgb(230, 25, 75); stroke-opacity: 1; stroke-width: 2px; opacity: 1;"/></g><g class="points"/><g class="text"/></g><g class="trace scatter trace8635cc" style="stroke-miterlimit: 2; opacity: 1;"><g class="fills"/><g class="errorbars"/><g class="lines"><path class="js-line" d="M0,256.5L196.98,255.79L197.64,255.7L207.52,255.07L208.18,255.07L214.76,254.89L215.42,254.89L244.41,254.18L245.07,254.09L260.22,252.57L260.88,252.57L270.76,251.86L271.42,251.68L289.21,251.5L289.86,249.71L292.5,249.71" style="vector-effect: non-scaling-stroke; fill: none; stroke: rgb(60, 180, 75); stroke-opacity: 1; stroke-width: 2px; opacity: 1;"/></g><g class="points"/><g class="text"/></g><g class="trace scatter tracecca79a" style="stroke-miterlimit: 2; opacity: 1;"><g class="fills"/><g class="errorbars"/><g class="lines"><path class="js-line" d="M0,256.5L42.16,256.23L42.82,255.61L47.43,254.54L48.09,253.64L52.7,249.71L53.36,249.71L54.68,249.27L55.34,248.11L59.29,245.25L59.95,243.37L61.27,242.03L61.93,242.03L64.56,240.25L65.22,239.98L66.54,238.28L67.2,238.01L68.51,237.3L69.17,236.94L71.81,233.55L72.47,233.46L73.13,233.46L73.78,232.66L75.1,232.21L75.76,231.67L81.03,230.42L81.69,229.89L88.94,227.3L89.59,226.67L92.89,225.24L93.55,225.24L94.86,224.62L95.52,224.53L97.5,223.9L98.16,223.72L103.43,222.39L104.09,222.39L106.06,222.12L106.72,221.31L108.04,219.97L108.7,219.71L111.33,218.37L111.99,217.38L113.31,215.06L113.97,215.06L115.95,215.06L116.6,213.9L121.22,207.74L121.88,204.7L123.19,202.29L123.85,202.29L125.17,196.13L125.83,193.18L127.15,189.97L127.8,189.7L129.78,186.66L130.44,186.66L131.76,184.79L132.42,183.18L133.73,179.79L134.39,177.64L138.34,162.82L139,162.64L143.61,152.1L144.27,151.57L145.59,150.85L146.25,150.76L147.57,149.6L148.23,148.8L151.52,146.3L152.18,145.4L154.16,142.28L154.81,142.19L156.79,140.67L157.45,139.42L159.43,138.62L160.08,138.44L161.4,136.56L162.06,135.22L164.04,133.35L164.7,133.26L166.01,131.83L166.67,130.94L168.65,129.69L169.31,129.42L171.94,126.56L172.6,125.49L173.92,125.31L174.58,124.24L175.9,123.26L176.55,122.54L179.85,120.85L180.51,120.85L187.09,120.22L187.75,119.77L189.73,118.79L190.39,118.52L191.71,118.26L192.36,117.27L194.34,116.29L195,115.31L203.56,110.22L204.22,109.32L207.52,107.09L208.18,105.84L211.47,103.7L212.13,102.89L214.1,102L214.76,101.02L222.01,95.93L222.67,95.93L224.65,93.25L225.3,93.07L229.26,88.43L229.92,88.34L239.14,78.78L239.8,78.07L241.77,76.28L242.43,74.85L245.07,71.73L245.73,71.55L260.22,48.95L260.88,47.53L263.51,45.29L264.17,44.94L264.83,44.49L265.49,43.06L270.1,36.36L270.76,35.29L271.42,34.67L272.08,32.16L279.32,24.75L279.98,24.57L285.25,21.27L285.91,19.3L288.55,15.29L289.21,15.29L292.5,13.5" style="vector-effect: non-scaling-stroke; fill: none; stroke: rgb(255, 225, 25); stroke-opacity: 1; stroke-width: 2px; opacity: 1;"/></g><g class="points"/><g class="text"/></g><g class="trace scatter tracec1bf77" style="stroke-miterlimit: 2; opacity: 1;"><g class="fills"/><g class="errorbars"/><g class="lines"><path class="js-line" d="M0,256.5L49.41,255.79L50.07,255.7L52.04,254.98L52.7,254.54L56,253.73L56.66,253.11L59.29,251.68L59.95,251.32L61.27,251.14L61.93,250.07L63.9,249.09L64.56,248.11L66.54,246.05L67.2,245.78L68.51,245.43L69.17,244.8L71.81,242.21L72.47,242.03L76.42,239.09L77.08,238.64L79.71,237.48L80.37,236.85L83.01,235.42L83.67,235.07L84.98,234.53L85.64,234.17L89.59,231.85L90.25,231.41L93.55,230.24L94.21,229.98L97.5,228.9L98.16,228.82L106.06,226.31L106.72,226.14L111.33,224.53L111.99,224.08L116.6,222.74L117.26,222.39L140.32,216.4L140.98,216.4L150.2,214.53L150.86,214.53L158.11,213.81L158.77,213.63L163.38,213.01L164.04,213.01L173.92,212.47L174.58,212.38L196.98,209.35L197.64,209.08L202.25,207.83L202.91,207.56L205.54,206.04L206.2,205.86L207.52,204.97L208.18,204.61L209.49,203.63L210.15,203.45L211.47,203.45L212.13,202.38L221.35,196.04L222.01,195.06L223.99,194.61L224.65,194.43L233.21,190.06L233.87,189.88L245.07,184.7L245.73,183.98L249.02,183L249.68,183L256.93,179.88L257.58,179.79L261.54,179.07L262.2,178.89L264.83,177.38L265.49,177.38L267.47,176.66L268.13,176.48L276.69,174.7L277.35,174.43L283.94,172.29L284.59,172.29L291.18,170.95L291.84,170.14L292.5,169.78" style="vector-effect: non-scaling-stroke; fill: none; stroke: rgb(67, 99, 216); stroke-opacity: 1; stroke-width: 2px; opacity: 1;"/></g><g class="points"/><g class="text"/></g><g class="trace scatter tracef464e7" style="stroke-miterlimit: 2; opacity: 1;"><g class="fills"/><g class="errorbars"/><g class="lines"><path class="js-line" d="M0,256.5L48.75,255.87L49.41,255.61L52.7,254.89L53.36,254.8L54.02,254.8L54.68,253.91L59.95,252.39L60.61,252.39L63.9,251.68L64.56,251.59L67.85,250.7L68.51,249.62L71.15,248.73L71.81,248.73L73.78,247.48L74.44,247.48L77.08,247.12L77.74,246.32L80.37,245.69L81.03,245.69L85.64,245.07L86.3,244.71L98.82,242.03L99.48,242.03L105.41,241.32L106.06,241.05L111.33,240.6L111.99,240.25L116.6,239.09L117.26,238.91L120.56,237.84L121.22,237.48L125.17,236.14L125.83,235.25L129.78,234.71L130.44,233.82L134.39,231.32L135.05,231.23L138.34,230.15L139,230.15L140.98,229.17L141.64,229.17L146.25,226.49L146.91,226.05L153.5,223.55L154.16,223.28L159.43,221.58L160.08,221.58L162.72,220.69L163.38,220.6L173.26,218.63L173.92,218.63L174.58,218.55L175.24,219.53L176.55,218.19L177.21,218.01L185.78,216.4L186.44,216.31L190.39,215.6L191.05,215.51L193.68,214.97L194.34,214.35L199.61,213.72L200.27,213.28L204.22,212.56L204.88,212.38L207.52,211.76L208.18,211.31L210.81,210.69L211.47,210.69L215.42,209.35L216.08,209.35L223.33,207.02L223.99,207.02L226.62,206.31L227.28,206.04L231.23,205.51L231.89,205.24L233.21,204.35L233.87,204.17L238.48,201.49L239.14,200.42L241.11,199.08L241.77,198.18L243.09,197.92L243.75,196.22L245.73,194.61L246.39,192.38L248.36,191.66L249.02,190.41L251,187.91L251.66,187.91L254.29,186.48L254.95,184.88L256.27,183.89L256.93,183.72L259.56,179.97L260.22,179.34L261.54,178.71L262.2,178.54L266.81,176.04L267.47,175.23L271.42,173.45L272.08,173.27L276.69,170.95L277.35,170.59L279.98,169.87L280.64,169.87L281.96,169.52L282.62,168.8L285.91,167.46L286.57,160.85L288.55,160.5L289.21,160.5L291.18,159.69L291.84,159.16L292.5,158.62" style="vector-effect: non-scaling-stroke; fill: none; stroke: rgb(245, 130, 49); stroke-opacity: 1; stroke-width: 2px; opacity: 1;"/></g><g class="points"/><g class="text"/></g><g class="trace scatter trace497458" style="stroke-miterlimit: 2; opacity: 1;"><g class="fills"/><g class="errorbars"/><g class="lines"><path class="js-line" d="M0,256.5L58.63,255.87L59.29,255.43L123.19,254.71L123.85,254.62L131.1,254.45L131.76,254.45L193.68,253.73L194.34,253.64L201.59,253.37L202.25,253.37L221.35,252.66L222.01,252.57L234.53,251.86L235.19,251.5L247.7,250.34L248.36,250.34L260.22,249.36L260.88,249.36L275.37,248.82L276.03,248.55L289.21,248.37L289.86,246.5L292.5,246.5" style="vector-effect: non-scaling-stroke; fill: none; stroke: rgb(145, 30, 180); stroke-opacity: 1; stroke-width: 2px; opacity: 1;"/></g><g class="points"/><g class="text"/></g></g></g><g class="overplot"/><path class="xlines-above crisp" d="M0,0" style="fill: none;"/><path class="ylines-above crisp" d="M0,0" style="fill: none;"/><g class="overlines-above"/><g class="xaxislayer-above"><g class="x2tick"><text text-anchor="middle" x="0" y="383" transform="translate(483.61000000000007,0)" style="font-family: 'Open Sans', verdana, arial, sans-serif; font-size: 12px; fill: rgb(242, 245, 250); fill-opacity: 1; white-space: pre;">Apr 2020</text></g><g class="x2tick"><text text-anchor="middle" x="0" y="383" transform="translate(543.5600000000001,0)" style="font-family: 'Open Sans', verdana, arial, sans-serif; font-size: 12px; fill: rgb(242, 245, 250); fill-opacity: 1; white-space: pre;">Jul 2020</text></g><g class="x2tick"><text text-anchor="middle" x="0" y="383" transform="translate(604.1700000000001,0)" style="font-family: 'Open Sans', verdana, arial, sans-serif; font-size: 12px; fill: rgb(242, 245, 250); fill-opacity: 1; white-space: pre;">Oct 2020</text></g><g class="x2tick"><text text-anchor="middle" x="0" y="383" transform="translate(664.7800000000001,0)" style="font-family: 'Open Sans', verdana, arial, sans-serif; font-size: 12px; fill: rgb(242, 245, 250); fill-opacity: 1; white-space: pre;">Jan 2021</text></g><g class="x2tick"><text text-anchor="middle" x="0" y="383" transform="translate(724.07,0)" style="font-family: 'Open Sans', verdana, arial, sans-serif; font-size: 12px; fill: rgb(242, 245, 250); fill-opacity: 1; white-space: pre;">Apr 2021</text></g></g><g class="yaxislayer-above"><g class="y2tick"><text text-anchor="end" x="436.50000000000006" y="4.199999999999999" transform="translate(0,356.5)" style="font-family: 'Open Sans', verdana, arial, sans-serif; font-size: 12px; fill: rgb(242, 245, 250); fill-opacity: 1; white-space: pre;">0</text></g><g class="y2tick"><text text-anchor="end" x="436.50000000000006" y="4.199999999999999" transform="translate(0,311.85)" style="font-family: 'Open Sans', verdana, arial, sans-serif; font-size: 12px; fill: rgb(242, 245, 250); fill-opacity: 1; white-space: pre;">500</text></g><g class="y2tick"><text text-anchor="end" x="436.50000000000006" y="4.199999999999999" transform="translate(0,267.19)" style="font-family: 'Open Sans', verdana, arial, sans-serif; font-size: 12px; fill: rgb(242, 245, 250); fill-opacity: 1; white-space: pre;">1000</text></g><g class="y2tick"><text text-anchor="end" x="436.50000000000006" y="4.199999999999999" transform="translate(0,222.54000000000002)" style="font-family: 'Open Sans', verdana, arial, sans-serif; font-size: 12px; fill: rgb(242, 245, 250); fill-opacity: 1; white-space: pre;">1500</text></g><g class="y2tick"><text text-anchor="end" x="436.50000000000006" y="4.199999999999999" transform="translate(0,177.89)" style="font-family: 'Open Sans', verdana, arial, sans-serif; font-size: 12px; fill: rgb(242, 245, 250); fill-opacity: 1; white-space: pre;">2000</text></g><g class="y2tick"><text text-anchor="end" x="436.50000000000006" y="4.199999999999999" transform="translate(0,133.24)" style="font-family: 'Open Sans', verdana, arial, sans-serif; font-size: 12px; fill: rgb(242, 245, 250); fill-opacity: 1; white-space: pre;">2500</text></g></g><g class="overaxes-above"/></g></g><g class="polarlayer"/><g class="ternarylayer"/><g class="geolayer"/><g class="funnelarealayer"/><g class="pielayer"/><g class="treemaplayer"/><g class="sunburstlayer"/><g class="glimages"/><defs id="topdefs-e8857f"><g class="clips"/><clipPath id="legende8857f"><rect width="145" height="124" x="0" y="0"/></clipPath></defs><g class="layer-above"><g class="imagelayer"/><g class="shapelayer"/></g><g class="infolayer"><g class="legend" pointer-events="all" transform="translate(743, 100)"><rect class="bg" shape-rendering="crispEdges" width="145" height="124" x="0" y="0" style="stroke: rgb(68, 68, 68); stroke-opacity: 1; fill: rgb(17, 17, 17); fill-opacity: 1; stroke-width: 0px;"/><g class="scrollbox" transform="translate(0, 0)" clip-path="url('#legende8857f')"><g class="groups"><g class="traces" transform="translate(0, 14.5)" style="opacity: 1;"><text class="legendtext user-select-none" text-anchor="start" x="40" y="4.680000000000001" style="font-family: 'Open Sans', verdana, arial, sans-serif; font-size: 12px; fill: rgb(242, 245, 250); fill-opacity: 1; white-space: pre;">Alameda, CA</text><g class="layers" style="opacity: 1;"><g class="legendfill"/><g class="legendlines"><path class="js-line" d="M5,0h30" style="fill: none; stroke: rgb(230, 25, 75); stroke-opacity: 1; stroke-width: 2px;"/></g><g class="legendsymbols"><g class="legendpoints"/></g></g><rect class="legendtoggle" pointer-events="all" x="0" y="-9.5" width="139.46875" height="19" style="cursor: pointer; fill: rgb(0, 0, 0); fill-opacity: 0;"/></g><g class="traces" transform="translate(0, 33.5)" style="opacity: 1;"><text class="legendtext user-select-none" text-anchor="start" x="40" y="4.680000000000001" style="font-family: 'Open Sans', verdana, arial, sans-serif; font-size: 12px; fill: rgb(242, 245, 250); fill-opacity: 1; white-space: pre;">Garvin, OK</text><g class="layers" style="opacity: 1;"><g class="legendfill"/><g class="legendlines"><path class="js-line" d="M5,0h30" style="fill: none; stroke: rgb(60, 180, 75); stroke-opacity: 1; stroke-width: 2px;"/></g><g class="legendsymbols"><g class="legendpoints"/></g></g><rect class="legendtoggle" pointer-events="all" x="0" y="-9.5" width="139.46875" height="19" style="cursor: pointer; fill: rgb(0, 0, 0); fill-opacity: 0;"/></g><g class="traces" transform="translate(0, 52.5)" style="opacity: 1;"><text class="legendtext user-select-none" text-anchor="start" x="40" y="4.680000000000001" style="font-family: 'Open Sans', verdana, arial, sans-serif; font-size: 12px; fill: rgb(242, 245, 250); fill-opacity: 1; white-space: pre;">Broward, FL</text><g class="layers" style="opacity: 1;"><g class="legendfill"/><g class="legendlines"><path class="js-line" d="M5,0h30" style="fill: none; stroke: rgb(255, 225, 25); stroke-opacity: 1; stroke-width: 2px;"/></g><g class="legendsymbols"><g class="legendpoints"/></g></g><rect class="legendtoggle" pointer-events="all" x="0" y="-9.5" width="139.46875" height="19" style="cursor: pointer; fill: rgb(0, 0, 0); fill-opacity: 0;"/></g><g class="traces" transform="translate(0, 71.5)" style="opacity: 1;"><text class="legendtext user-select-none" text-anchor="start" x="40" y="4.680000000000001" style="font-family: 'Open Sans', verdana, arial, sans-serif; font-size: 12px; fill: rgb(242, 245, 250); fill-opacity: 1; white-space: pre;">Baltimore City, MD</text><g class="layers" style="opacity: 1;"><g class="legendfill"/><g class="legendlines"><path class="js-line" d="M5,0h30" style="fill: none; stroke: rgb(67, 99, 216); stroke-opacity: 1; stroke-width: 2px;"/></g><g class="legendsymbols"><g class="legendpoints"/></g></g><rect class="legendtoggle" pointer-events="all" x="0" y="-9.5" width="139.46875" height="19" style="cursor: pointer; fill: rgb(0, 0, 0); fill-opacity: 0;"/></g><g class="traces" transform="translate(0, 90.5)" style="opacity: 1;"><text class="legendtext user-select-none" text-anchor="start" x="40" y="4.680000000000001" style="font-family: 'Open Sans', verdana, arial, sans-serif; font-size: 12px; fill: rgb(242, 245, 250); fill-opacity: 1; white-space: pre;">Gwinnett, GA</text><g class="layers" style="opacity: 1;"><g class="legendfill"/><g class="legendlines"><path class="js-line" d="M5,0h30" style="fill: none; stroke: rgb(245, 130, 49); stroke-opacity: 1; stroke-width: 2px;"/></g><g class="legendsymbols"><g class="legendpoints"/></g></g><rect class="legendtoggle" pointer-events="all" x="0" y="-9.5" width="139.46875" height="19" style="cursor: pointer; fill: rgb(0, 0, 0); fill-opacity: 0;"/></g><g class="traces" transform="translate(0, 109.5)" style="opacity: 1;"><text class="legendtext user-select-none" text-anchor="start" x="40" y="4.680000000000001" style="font-family: 'Open Sans', verdana, arial, sans-serif; font-size: 12px; fill: rgb(242, 245, 250); fill-opacity: 1; white-space: pre;">Wagoner, OK</text><g class="layers" style="opacity: 1;"><g class="legendfill"/><g class="legendlines"><path class="js-line" d="M5,0h30" style="fill: none; stroke: rgb(145, 30, 180); stroke-opacity: 1; stroke-width: 2px;"/></g><g class="legendsymbols"><g class="legendpoints"/></g></g><rect class="legendtoggle" pointer-events="all" x="0" y="-9.5" width="139.46875" height="19" style="cursor: pointer; fill: rgb(0, 0, 0); fill-opacity: 0;"/></g></g></g><rect class="scrollbar" rx="20" ry="3" width="0" height="0" x="0" y="0" style="fill: rgb(128, 139, 164); fill-opacity: 1;"/></g><g class="g-gtitle"/><g class="g-xtitle"><text class="xtitle" x="226.25" y="410.8" text-anchor="middle" style="font-family: 'Open Sans', verdana, arial, sans-serif; font-size: 14px; fill: rgb(242, 245, 250); opacity: 1; font-weight: normal; white-space: pre;">Date</text></g><g class="g-x2title"><text class="x2title" x="583.75" y="410.8" text-anchor="middle" style="font-family: 'Open Sans', verdana, arial, sans-serif; font-size: 14px; fill: rgb(242, 245, 250); opacity: 1; font-weight: normal; white-space: pre;">Date</text></g><g class="g-ytitle"><text class="ytitle" transform="rotate(-90,28.168750000000003,235)" x="28.168750000000003" y="235" text-anchor="middle" style="font-family: 'Open Sans', verdana, arial, sans-serif; font-size: 14px; fill: rgb(242, 245, 250); opacity: 1; font-weight: normal; white-space: pre;">Cases</text></g><g class="g-y2title"><text class="y2title" transform="rotate(-90,384.996875,235)" x="384.996875" y="235" text-anchor="middle" style="font-family: 'Open Sans', verdana, arial, sans-serif; font-size: 14px; fill: rgb(242, 245, 250); opacity: 1; font-weight: normal; white-space: pre;">Deaths</text></g><g class="annotation" data-index="0" style="opacity: 1;"><g class="annotation-text-g" transform="rotate(0,226.25,89.5)"><g class="cursor-pointer" transform="translate(202, 79)"><rect class="bg" x="0.5" y="0.5" width="48" height="20" style="stroke-width: 1px; stroke: rgb(0, 0, 0); stroke-opacity: 0; fill: rgb(0, 0, 0); fill-opacity: 0;"/><text class="annotation-text" text-anchor="middle" x="24.6875" y="16" style="font-family: 'Open Sans', verdana, arial, sans-serif; font-size: 16px; fill: rgb(242, 245, 250); fill-opacity: 1; white-space: pre;">Cases</text></g></g></g><g class="annotation" data-index="1" style="opacity: 1;"><g class="annotation-text-g" transform="rotate(0,583.75,89.5)"><g class="cursor-pointer" transform="translate(556, 79)"><rect class="bg" x="0.5" y="0.5" width="54" height="20" style="stroke-width: 1px; stroke: rgb(0, 0, 0); stroke-opacity: 0; fill: rgb(0, 0, 0); fill-opacity: 0;"/><text class="annotation-text" text-anchor="middle" x="27.359375" y="16" style="font-family: 'Open Sans', verdana, arial, sans-serif; font-size: 16px; fill: rgb(242, 245, 250); fill-opacity: 1; white-space: pre;">Deaths</text></g></g></g></g></svg>