<svg class="main-svg" xmlns="http://www.w3.org/2000/svg" xmlns:xlink="http://www.w3.org/1999/xlink" width="900" height="450" style="" viewBox="0 0 900 450"><rect x="0" y="0" width="900" height="450" style="fill: rgb(17, 17, 17); fill-opacity: 1;"/><defs id="defs-6544c6"><g class="clips"><clipPath id="clip6544c6xyplot" class="plotclip"><rect width="305.1" height="270"/></clipPath><clipPath id="clip6544c6x2y2plot" class="plotclip"><rect width="305.09999999999997" height="270"/></clipPath><clipPath class="axesclip" id="clip6544c6x"><rect x="80" y="0" width="305.1" height="450"/></clipPath><clipPath class="axesclip" id="clip6544c6y"><rect x="0" y="100" width="900" height="270"/></clipPath><clipPath class="axesclip" id="clip6544c6xy"><rect x="80" y="100" width="305.1" height="270"/></clipPath><clipPath class="axesclip" id="clip6544c6y2"><rect x="0" y="100" width="900" height="270"/></clipPath><clipPath class="axesclip" id="clip6544c6xy2"><rect x="80" y="100" width="305.1" height="270"/></clipPath><clipPath class="axesclip" id="clip6544c6x2"><rect x="452.90000000000003" y="0" width="305.09999999999997" height="450"/></clipPath><clipPath class="axesclip" id="clip6544c6x2y"><rect x="452.90000000000003" y="100" width="305.09999999999997" height="270"/></clipPath><clipPath class="axesclip" id="clip6544c6x2y2"><rect x="452.90000000000003" y="100" width="305.09999999999997" height="270"/></clipPath></g><g class="gradients"/></defs><g class="bglayer"/><g class="layer-below"><g class="imagelayer"/><g class="shapelayer"/></g><g class="cartesianlayer"><g class="subplot xy"><g class="layer-subplot"><g class="shapelayer"/><g class="imagelayer"/></g><g class="gridlayer"><g class="x"><path class="xgrid crisp" transform="translate(133.8,0)" d="M0,100v270" style="stroke: rgb(40, 52, 66); stroke-opacity: 1; stroke-width: 1px;"/><path class="xgrid crisp" transform="translate(203.73000000000002,0)" d="M0,100v270" style="stroke: rgb(40, 52, 66); stroke-opacity: 1; stroke-width: 1px;"/><path class="xgrid crisp" transform="translate(274.43,0)" d="M0,100v270" style="stroke: rgb(40, 52, 66); stroke-opacity: 1; stroke-width: 1px;"/><path class="xgrid crisp" transform="translate(345.14,0)" d="M0,100v270" style="stroke: rgb(40, 52, 66); stroke-opacity: 1; stroke-width: 1px;"/></g><g class="y"><path class="ygrid crisp" transform="translate(0,293.77)" d="M80,0h305.1" style="stroke: rgb(40, 52, 66); stroke-opacity: 1; stroke-width: 1px;"/><path class="ygrid crisp" transform="translate(0,231.04)" d="M80,0h305.1" style="stroke: rgb(40, 52, 66); stroke-opacity: 1; stroke-width: 1px;"/><path class="ygrid crisp" transform="translate(0,168.31)" d="M80,0h305.1" style="stroke: rgb(40, 52, 66); stroke-opacity: 1; stroke-width: 1px;"/><path class="ygrid crisp" transform="translate(0,105.58)" d="M80,0h305.1" style="stroke: rgb(40, 52, 66); stroke-opacity: 1; stroke-width: 1px;"/></g></g><g class="zerolinelayer"><path class="yzl zl crisp" transform="translate(0,356.5)" d="M80,0h305.1" style="stroke: rgb(40, 52, 66); stroke-opacity: 1; stroke-width: 2px;"/></g><path class="xlines-below"/><path class="ylines-below"/><g class="overlines-below"/><g class="xaxislayer-below"/><g class="yaxislayer-below"/><g class="overaxes-below"/><g class="plot" transform="translate(80, 100)" clip-path="url('#clip6544c6xyplot')"><g class="scatterlayer mlayer"><g class="trace scatter traceada42f" style="stroke-miterlimit: 2; opacity: 1;"><g class="fills"/><g class="errorbars"/><g class="lines"><path class="js-line" d="M0,256.5L57.64,255.76L58.41,255.7L99.14,252.37L99.91,252.25L123.73,248.78L124.5,248.49L132.18,246.81L132.95,246.49L136.8,245.07L137.56,244.91L140.64,244.12L141.41,243.69L149.86,241.56L150.63,241.27L152.93,241.27L153.7,239.94L155.24,239.36L156.01,238.81L160.62,237.13L161.39,236.63L164.46,235.52L165.23,235.51L167.54,234.39L168.3,234.11L171.38,233.36L172.15,233.05L181.37,231.38L182.14,231.29L186.75,230.6L187.52,230.47L225.94,224.82L226.71,224.63L238.24,220.3L239.01,219.97L244.39,216.68L245.16,215.67L245.92,215.57L246.69,214.18L250.54,211.1L251.3,208.55L254.38,205.96L255.15,203.77L256.68,201.29L257.45,200.35L262.06,194.07L262.83,193.26L265.14,190.67L265.91,189.36L268.98,185.7L269.75,184.89L276.66,174.43L277.43,172.97L279.74,170.64L280.51,170.2L289.73,163.19L290.5,162.86L300.49,157.83L301.26,157.69L305.1,156.57" style="vector-effect: non-scaling-stroke; fill: none; stroke: rgb(230, 25, 75); stroke-opacity: 1; stroke-width: 2px; opacity: 1;"/></g><g class="points"/><g class="text"/></g><g class="trace scatter trace409d4f" style="stroke-miterlimit: 2; opacity: 1;"><g class="fills"/><g class="errorbars"/><g class="lines"><path class="js-line" d="M0,256.5L76.08,255.79L76.85,255.73L96.06,254.57L96.83,254.45L110.67,253.3L111.43,253.11L119.12,251.42L119.89,251.01L123.73,249.86L124.5,249.44L129.88,246.93L130.65,246.58L132.18,246.11L132.95,246.11L136.8,244.01L137.56,244.01L139.87,242.18L140.64,241.75L152.17,235.13L152.93,234.81L154.47,234.11L155.24,233.95L159.08,231.53L159.85,230.14L170.61,225.18L171.38,224.9L174.45,223.7L175.22,223.7L177.53,223.08L178.3,222.97L191.36,221.12L192.13,220.82L216.72,217.21L217.49,217.1L221.33,216.41L222.1,216.28L232.86,212.24L233.63,211.79L234.4,211.79L235.17,210.94L237.47,210.05L238.24,210.05L239.78,208.83L240.54,208.11L243.62,206.72L244.39,206.18L245.16,206.18L245.92,205.23L246.69,205.23L247.46,204.34L251.3,201.16L252.07,200.39L252.84,200.39L253.61,194.81L254.38,193.87L255.15,190.46L255.92,190.46L256.68,184.22L262.83,175.86L263.6,174.77L264.37,174.45L265.14,173.14L268.98,167.46L269.75,166.92L275.13,158.29L275.9,157.35L279.74,152.12L280.51,151.63L288.19,145.5L288.96,145.03L294.34,142.1L295.11,141.79L302.79,138.9L303.56,138.6L305.1,138.1" style="vector-effect: non-scaling-stroke; fill: none; stroke: rgb(60, 180, 75); stroke-opacity: 1; stroke-width: 2px; opacity: 1;"/></g><g class="points"/><g class="text"/></g><g class="trace scatter trace867aac" style="stroke-miterlimit: 2; opacity: 1;"><g class="fills"/><g class="errorbars"/><g class="lines"><path class="js-line" d="M0,256.5L61.48,255.76L62.25,255.72L93.76,253.99L94.53,253.96L103.75,252.88L104.52,252.8L116.81,249.49L117.58,248.86L125.27,245.18L126.04,244.82L137.56,239.63L138.33,239.45L149.86,235.41L150.63,235.22L155.24,233.44L156.01,233.28L158.31,232.27L159.08,231.93L169.07,229.99L169.84,229.92L177.53,228.81L178.3,228.72L182.91,227.79L183.67,226.94L185.21,225.75L185.98,225.62L186.75,224.32L187.52,225.39L192.13,224.58L192.9,224.42L214.42,221.74L215.18,221.42L219.79,219.94L220.56,219.75L224.41,218.24L225.17,217.59L228.25,216.09L229.02,215.35L232.09,213.31L232.86,212.61L234.4,211.19L235.17,210.51L237.47,208.85L238.24,207.99L243.62,202.93L244.39,201.39L247.46,196.82L248.23,195.73L254.38,184.68L255.15,183.68L256.68,182.33L257.45,182.33L261.29,182.33L262.06,171.99L263.6,170.64L264.37,169.28L265.91,166.3L266.67,163.53L269.75,158.83L270.52,157.15L274.36,149.54L275.13,148.17L278.97,141.41L279.74,140.43L282.81,135.13L283.58,134.21L293.57,125.18L294.34,124.87L295.88,123.73L296.65,123.63L301.26,121.76L302.03,121.53L305.1,120.58" style="vector-effect: non-scaling-stroke; fill: none; stroke: rgb(255, 225, 25); stroke-opacity: 1; stroke-width: 2px; opacity: 1;"/></g><g class="points"/><g class="text"/></g><g class="trace scatter tracef12dd8" style="stroke-miterlimit: 2; opacity: 1;"><g class="fills"/><g class="errorbars"/><g class="lines"><path class="js-line" d="M0,256.5L49.18,255.87L49.95,255.71L59.18,253.53L59.94,253.39L68.4,251.38L69.17,251.27L95.3,248.02L96.06,247.97L103.75,247L104.52,246.85L111.43,245.1L112.2,244.58L119.12,240.71L119.89,239.79L125.27,233.63L126.04,231.94L127.57,229.08L128.34,228.15L131.42,221.05L132.18,218.83L143.71,192.79L144.48,191.69L145.25,188.36L146.02,188.36L149.86,182.54L150.63,182.04L159.08,173.14L159.85,172.66L168.3,168.04L169.07,167.72L170.61,167.27L171.38,165.86L178.3,163.83L179.06,163.56L196.74,158.73L197.51,158.63L200.58,157.65L201.35,156.97L204.42,156.29L205.19,155.99L213.65,151.16L214.42,150.69L219.03,146.78L219.79,146.15L222.87,143.37L223.64,142.34L228.25,138.74L229.02,136.93L230.55,135.18L231.32,134.21L236.7,126.73L237.47,126.73L239.78,122.64L240.54,121.6L243.62,116.45L244.39,115.07L253.61,100.94L254.38,99.25L258.99,92.18L259.76,92.18L264.37,83.86L265.14,83.86L266.67,79.59L267.44,78.36L275.13,61.96L275.9,60.22L284.35,45.73L285.12,44.91L292.04,34.04L292.8,33.04L304.33,18.34L305.1,17.67" style="vector-effect: non-scaling-stroke; fill: none; stroke: rgb(67, 99, 216); stroke-opacity: 1; stroke-width: 2px; opacity: 1;"/></g><g class="points"/><g class="text"/></g><g class="trace scatter trace53d7c2" style="stroke-miterlimit: 2; opacity: 1;"><g class="fills"/><g class="errorbars"/><g class="lines"><path class="js-line" d="M0,256.5L218.26,255.77L219.03,255.74L232.09,255L232.86,254.91L246.69,254.2L247.46,254.08L262.83,253.45L263.6,253.31L277.43,252.62L278.2,252.54L302.03,251.8L302.79,251.78L305.1,251.76" style="vector-effect: non-scaling-stroke; fill: none; stroke: rgb(245, 130, 49); stroke-opacity: 1; stroke-width: 2px; opacity: 1;"/></g><g class="points"/><g class="text"/></g><g class="trace scatter traceaff3bf" style="stroke-miterlimit: 2; opacity: 1;"><g class="fills"/><g class="errorbars"/><g class="lines"><path class="js-line" d="M0,256.5L59.18,255.8L59.94,255.73L109.13,251.68L109.9,251.47L115.28,249.02L116.05,248.54L122.96,242.95L123.73,241.36L125.27,240.34L126.04,238.67L129.11,236.58L129.88,235.52L132.95,231.85L133.72,231.14L134.49,229.47L135.26,222.57L136.8,220.58L137.56,217.82L138.33,217.21L139.1,215.23L143.71,210.79L144.48,208.85L147.55,204.84L148.32,204.84L150.63,204.29L151.4,203.88L156.78,201.6L157.55,201.52L179.83,196.03L180.6,193.88L185.21,192.82L185.98,189.58L190.59,188.38L191.36,184.81L195.2,183.69L195.97,183.5L198.28,182.56L199.05,182.29L206.73,180.44L207.5,177.05L212.11,175.61L212.88,175.43L220.56,172.8L221.33,172.56L226.71,170.29L227.48,169.43L232.86,165.78L233.63,165.16L236.7,160.21L237.47,160.21L238.24,160.21L239.01,158.13L241.31,154.09L242.08,152.21L245.16,147.37L245.92,145.85L249.77,139.23L250.54,138.34L252.84,135.89L253.61,134.13L255.15,130.01L255.92,128.33L256.68,128.33L257.45,126.72L258.22,99.24L258.99,98.86L259.76,122.52L260.53,122.52L261.29,115.71L262.06,115.66L263.6,111.36L264.37,111.36L265.14,111.36L265.91,106.76L268.98,97.3L269.75,95.83L271.29,92.84L272.05,88.99L275.13,80.09L275.9,76.46L278.97,65.51L279.74,64.45L282.04,56.37L282.81,55.74L285.12,50.41L285.89,48.21L287.42,43.61L288.19,39.27L289.73,34.7L290.5,33.43L292.8,29.41L293.57,26.66L294.34,26.37L295.11,24.67L298.95,20.96L299.72,20.96L302.79,20.96L303.56,18.18L305.1,13.5" style="vector-effect: non-scaling-stroke; fill: none; stroke: rgb(145, 30, 180); stroke-opacity: 1; stroke-width: 2px; opacity: 1;"/></g><g class="points"/><g class="text"/></g></g></g><g class="overplot"/><path class="xlines-above crisp" d="M0,0" style="fill: none;"/><path class="ylines-above crisp" d="M0,0" style="fill: none;"/><g class="overlines-above"/><g class="xaxislayer-above"><g class="xtick"><text text-anchor="middle" x="0" y="383" transform="translate(133.8,0)" style="font-family: 'Open Sans', verdana, arial, sans-serif; font-size: 12px; fill: rgb(242, 245, 250); fill-opacity: 1; white-space: pre;">Apr 2020</text></g><g class="xtick"><text text-anchor="middle" x="0" y="383" transform="translate(203.73000000000002,0)" style="font-family: 'Open Sans', verdana, arial, sans-serif; font-size: 12px; fill: rgb(242, 245, 250); fill-opacity: 1; white-space: pre;">Jul 2020</text></g><g class="xtick"><text text-anchor="middle" x="0" y="383" transform="translate(274.43,0)" style="font-family: 'Open Sans', verdana, arial, sans-serif; font-size: 12px; fill: rgb(242, 245, 250); fill-opacity: 1; white-space: pre;">Oct 2020</text></g><g class="xtick"><text text-anchor="middle" x="0" y="383" transform="translate(345.14,0)" style="font-family: 'Open Sans', verdana, arial, sans-serif; font-size: 12px; fill: rgb(242, 245, 250); fill-opacity: 1; white-space: pre;">Jan 2021</text></g></g><g class="yaxislayer-above"><g class="ytick"><text text-anchor="end" x="79" y="4.199999999999999" transform="translate(0,356.5)" style="font-family: 'Open Sans', verdana, arial, sans-serif; font-size: 12px; fill: rgb(242, 245, 250); fill-opacity: 1; white-space: pre;">0</text></g><g class="ytick"><text text-anchor="end" x="79" y="4.199999999999999" transform="translate(0,293.77)" style="font-family: 'Open Sans', verdana, arial, sans-serif; font-size: 12px; fill: rgb(242, 245, 250); fill-opacity: 1; white-space: pre;">50k</text></g><g class="ytick"><text text-anchor="end" x="79" y="4.199999999999999" transform="translate(0,231.04)" style="font-family: 'Open Sans', verdana, arial, sans-serif; font-size: 12px; fill: rgb(242, 245, 250); fill-opacity: 1; white-space: pre;">100k</text></g><g class="ytick"><text text-anchor="end" x="79" y="4.199999999999999" transform="translate(0,168.31)" style="font-family: 'Open Sans', verdana, arial, sans-serif; font-size: 12px; fill: rgb(242, 245, 250); fill-opacity: 1; white-space: pre;">150k</text></g><g class="ytick"><text text-anchor="end" x="79" y="4.199999999999999" transform="translate(0,105.58)" style="font-family: 'Open Sans', verdana, arial, sans-serif; font-size: 12px; fill: rgb(242, 245, 250); fill-opacity: 1; white-space: pre;">200k</text></g></g><g class="overaxes-above"/></g><g class="subplot x2y2"><g class="layer-subplot"><g class="shapelayer"/><g class="imagelayer"/></g><g class="gridlayer"><g class="x2"><path class="x2grid crisp" transform="translate(506.70000000000005,0)" d="M0,100v270" style="stroke: rgb(40, 52, 66); stroke-opacity: 1; stroke-width: 1px;"/><path class="x2grid crisp" transform="translate(576.63,0)" d="M0,100v270" style="stroke: rgb(40, 52, 66); stroke-opacity: 1; stroke-width: 1px;"/><path class="x2grid crisp" transform="translate(647.33,0)" d="M0,100v270" style="stroke: rgb(40, 52, 66); stroke-opacity: 1; stroke-width: 1px;"/><path class="x2grid crisp" transform="translate(718.04,0)" d="M0,100v270" style="stroke: rgb(40, 52, 66); stroke-opacity: 1; stroke-width: 1px;"/></g><g class="y2"><path class="y2grid crisp" transform="translate(0,312.53)" d="M452.90000000000003,0h305.09999999999997" style="stroke: rgb(40, 52, 66); stroke-opacity: 1; stroke-width: 1px;"/><path class="y2grid crisp" transform="translate(0,268.55)" d="M452.90000000000003,0h305.09999999999997" style="stroke: rgb(40, 52, 66); stroke-opacity: 1; stroke-width: 1px;"/><path class="y2grid crisp" transform="translate(0,224.57999999999998)" d="M452.90000000000003,0h305.09999999999997" style="stroke: rgb(40, 52, 66); stroke-opacity: 1; stroke-width: 1px;"/><path class="y2grid crisp" transform="translate(0,180.6)" d="M452.90000000000003,0h305.09999999999997" style="stroke: rgb(40, 52, 66); stroke-opacity: 1; stroke-width: 1px;"/><path class="y2grid crisp" transform="translate(0,136.63)" d="M452.90000000000003,0h305.09999999999997" style="stroke: rgb(40, 52, 66); stroke-opacity: 1; stroke-width: 1px;"/></g></g><g class="zerolinelayer"><path class="y2zl zl crisp" transform="translate(0,356.5)" d="M452.90000000000003,0h305.09999999999997" style="stroke: rgb(40, 52, 66); stroke-opacity: 1; stroke-width: 2px;"/></g><path class="xlines-below"/><path class="ylines-below"/><g class="overlines-below"/><g class="xaxislayer-below"/><g class="yaxislayer-below"/><g class="overaxes-below"/><g class="plot" transform="translate(452.90000000000003, 100)" clip-path="url('#clip6544c6x2y2plot')"><g class="scatterlayer mlayer"><g class="trace scatter trace03b4a2" style="stroke-miterlimit: 2; opacity: 1;"><g class="fills"/><g class="errorbars"/><g class="lines"><path class="js-line" d="M0,256.5L53.8,255.8L54.56,255.71L57.64,255.36L58.41,255.18L63.79,254.48L64.56,253.33L67.63,252.81L68.4,252.81L76.08,251.22L76.85,251.05L90.68,248.94L91.45,248.76L96.06,248.32L96.83,248.32L118.35,245.77L119.12,245.24L126.8,244.19L127.57,244.19L132.95,243.48L133.72,243.13L146.02,240.49L146.79,240.49L148.32,239.88L149.09,239.88L152.17,239.53L152.93,239.53L154.47,238.47L155.24,238.47L157.55,237.24L158.31,237.24L169.07,234.78L169.84,233.81L171.38,233.9L172.15,232.4L173.68,230.47L174.45,230.2L178.3,229.85L179.06,228.36L179.83,228.36L180.6,227.3L181.37,227.21L182.14,225.19L182.91,225.19L183.67,224.4L185.98,223.61L186.75,223.61L188.29,221.76L189.05,221.58L190.59,220.97L191.36,220.79L193.67,220.27L194.43,219.56L198.28,218.95L199.05,217.8L202.89,218.15L203.66,218.59L204.42,217.63L205.19,218.42L206.73,217.63L207.5,218.42L209.8,218.24L210.57,216.4L220.56,215.78L221.33,215.6L223.64,214.81L224.41,214.81L225.17,214.81L225.94,214.02L230.55,213.14L231.32,213.05L240.54,211.47L241.31,211.29L242.85,210.77L243.62,210.77L247.46,210.24L248.23,209.62L252.84,206.99L253.61,206.02L254.38,206.02L255.15,205.05L257.45,204.79L258.22,202.94L259.76,202.06L260.53,202.06L262.06,201.53L262.83,201.53L264.37,201.53L265.14,198.81L268.98,198.81L269.75,195.2L270.52,195.2L271.29,192.39L273.59,191.77L274.36,190.1L278.2,189.92L278.97,189.31L280.51,189.13L281.28,182.45L282.81,181.22L283.58,177.87L285.12,176.82L285.89,174.8L286.66,174.09L287.42,172.16L288.96,170.31L289.73,170.14L291.27,168.64L292.04,166.71L294.34,164.95L295.11,164.95L297.41,162.92L298.18,160.81L299.72,158L300.49,157.91L302.79,157.47L303.56,153.51L304.33,153.51L305.1,150.96" style="vector-effect: non-scaling-stroke; fill: none; stroke: rgb(230, 25, 75); stroke-opacity: 1; stroke-width: 2px; opacity: 1;"/></g><g class="points"/><g class="text"/></g><g class="trace scatter trace1485c8" style="stroke-miterlimit: 2; opacity: 1;"><g class="fills"/><g class="errorbars"/><g class="lines"><path class="js-line" d="M0,256.5L78.39,255.8L79.16,255.71L90.68,255L91.45,254.74L101.44,253.25L102.21,253.25L105.29,252.72L106.05,252.72L108.36,252.01L109.13,251.93L112.2,251.49L112.97,251.14L135.26,248.5L136.03,247.71L140.64,247.35L141.41,246.65L146.02,245.95L146.79,244.36L149.09,244.36L149.86,242.69L151.4,242.69L152.17,241.46L154.47,241.46L155.24,239.7L156.78,239.7L157.55,238.65L162.16,238.47L162.92,236.62L165.23,236.62L166,235.48L168.3,235.48L169.07,233.37L170.61,233.37L171.38,231L172.92,231L173.68,229.06L176.76,229.06L177.53,227.83L178.3,227.83L179.06,226.86L181.37,226.86L182.14,225.89L186.75,225.28L187.52,224.66L189.05,224.66L189.82,222.9L194.43,222.2L195.2,221.41L202.89,220.79L203.66,219.21L210.57,218.68L211.34,218.15L219.03,217.54L219.79,217.19L224.41,216.57L225.17,216.4L232.09,215.78L232.86,215.08L238.24,214.55L239.01,214.2L242.85,213.58L243.62,212L248.23,211.29L249,208.83L251.3,208.83L252.07,207.51L257.45,207.51L258.22,199.69L265.14,199.69L265.91,193.97L272.82,193.97L273.59,182.8L275.13,182.1L275.9,177L277.43,174.53L278.2,174.53L278.97,174.53L279.74,171.37L280.51,171.37L281.28,166.79L282.81,164.77L283.58,164.77L286.66,156.5L287.42,156.5L288.96,156.5L289.73,153.34L291.27,151.14L292.04,148.85L294.34,148.85L295.11,146.21L295.88,145.86L296.65,143.66L298.18,142.96L298.95,142.96L300.49,142.96L301.26,138.56L304.33,136.28L305.1,136.28" style="vector-effect: non-scaling-stroke; fill: none; stroke: rgb(60, 180, 75); stroke-opacity: 1; stroke-width: 2px; opacity: 1;"/></g><g class="points"/><g class="text"/></g><g class="trace scatter trace1d22ff" style="stroke-miterlimit: 2; opacity: 1;"><g class="fills"/><g class="errorbars"/><g class="lines"><path class="js-line" d="M0,256.5L53.8,255.8L54.56,255.53L59.18,255.09L59.94,254.74L62.25,253.95L63.02,253.95L65.32,253.25L66.09,252.01L69.93,250.52L70.7,250.34L73.01,249.82L73.78,249.82L79.93,248.67L80.69,246.3L81.46,246.12L82.23,244.98L86.07,243.84L86.84,243.13L94.53,241.29L95.3,241.29L96.83,241.11L97.6,240.23L101.44,239.7L102.21,239.26L104.52,238.47L105.29,238.47L106.82,237.86L107.59,237.5L113.74,235.83L114.51,235.39L117.58,234.78L118.35,234.07L119.89,233.11L120.66,232.93L122.96,232.49L123.73,231.87L127.57,231.7L128.34,229.94L129.11,229.94L129.88,228.97L130.65,228.97L131.42,227.83L132.95,227.74L133.72,226.77L137.56,222.9L138.33,222.9L142.18,219.83L142.94,219.74L143.71,219.74L144.48,218.59L145.25,218.59L146.02,216.92L147.55,215.87L148.32,215.87L150.63,215.25L151.4,214.29L154.47,213.49L155.24,212.44L156.78,211.56L157.55,210.42L159.08,209.8L159.85,209.8L162.16,209.54L162.92,209.71L164.46,208.04L165.23,208.04L166.77,206.99L167.54,206.63L169.07,205.93L169.84,205.84L172.15,206.02L172.92,204.61L176.76,204.08L177.53,204.08L179.83,203.56L180.6,203.56L182.91,203.56L183.67,202.68L204.42,200.83L205.19,200.83L217.49,200.13L218.26,200.04L221.33,199.33L222.1,199.07L224.41,198.54L225.17,198.37L226.71,197.66L227.48,197.66L238.24,196.52L239.01,195.82L242.85,195.2L243.62,193L245.16,192.3L245.92,192.3L246.69,192.3L247.46,190.89L250.54,186.14L251.3,186.14L255.92,176.91L256.68,176.91L261.29,176.91L262.06,170.05L264.37,162.92L265.14,161.34L267.44,161.16L268.21,156.5L268.98,156.06L269.75,151.93L272.05,145.42L272.82,145.42L275.13,136.71L275.9,133.99L277.43,131.44L278.2,131.44L278.97,131.44L279.74,125.02L282.81,114.82L283.58,114.82L286.66,103.82L287.42,103.65L288.96,103.47L289.73,98.63L292.04,89.49L292.8,89.22L294.34,89.05L295.11,84.3L296.65,78.58L297.41,75.94L298.95,74.01L299.72,74.01L301.26,73.39L302.03,70.14L303.56,67.76L304.33,67.5L305.1,67.5" style="vector-effect: non-scaling-stroke; fill: none; stroke: rgb(255, 225, 25); stroke-opacity: 1; stroke-width: 2px; opacity: 1;"/></g><g class="points"/><g class="text"/></g><g class="trace scatter traceedc09f" style="stroke-miterlimit: 2; opacity: 1;"><g class="fills"/><g class="errorbars"/><g class="lines"><path class="js-line" d="M0,256.5L49.18,256.24L49.95,255.62L55.33,254.57L56.1,253.69L60.71,250.17L61.48,249.82L63.79,249.38L64.56,248.23L69.17,245.42L69.93,243.57L71.47,242.25L72.24,242.25L74.55,240.76L75.31,240.49L76.08,240.23L76.85,239L81.46,236.27L82.23,234.69L83.77,233.9L84.54,233.81L85.31,233.81L86.07,233.02L87.61,232.58L88.38,232.05L94.53,230.82L95.3,230.29L103.75,227.74L104.52,227.13L108.36,225.72L109.13,225.72L110.67,225.1L111.43,225.01L113.74,224.4L114.51,224.22L120.66,222.9L121.43,222.9L123.73,222.64L124.5,221.85L126.04,220.53L126.8,220.27L129.88,218.95L130.65,217.98L132.18,215.69L132.95,215.69L135.26,215.69L136.03,214.55L141.41,208.48L142.18,205.49L143.71,203.12L144.48,203.12L145.25,197.05L146.02,197.05L148.32,190.98L149.09,190.71L151.4,187.72L152.17,187.72L153.7,185.88L154.47,184.29L156.01,180.95L156.78,178.84L161.39,164.24L162.16,164.07L167.54,153.69L168.3,153.16L169.84,152.46L170.61,152.37L172.15,151.23L172.92,150.43L176.76,147.97L177.53,147.09L179.83,144.01L180.6,143.93L182.91,142.43L183.67,141.2L185.98,140.41L186.75,140.23L188.29,138.39L189.05,137.07L191.36,135.22L192.13,135.13L193.67,133.72L194.43,132.85L195.97,132.14L196.74,131.61L198.28,130.82L199.05,129.86L200.58,128.54L201.35,127.48L202.89,127.3L203.66,126.25L205.19,125.28L205.96,124.58L209.04,123.08L209.8,122.91L218.26,122.29L219.03,121.85L221.33,120.88L222.1,120.62L223.64,120.36L224.41,119.39L226.71,118.42L227.48,117.45L237.47,112.44L238.24,111.56L242.08,109.36L242.85,108.13L246.69,106.02L247.46,105.23L249.77,104.35L250.54,103.38L258.99,98.37L259.76,98.37L262.06,95.73L262.83,95.56L264.37,94.06L265.14,94.06L267.44,90.98L268.21,90.89L277.43,83.33L278.2,82.1L282.81,77.61L283.58,76.65L286.66,74.36L287.42,73.39L288.19,72.51L288.96,70.49L290.5,69.61L291.27,68.38L303.56,52.11L304.33,50.7L305.1,49.91" style="vector-effect: non-scaling-stroke; fill: none; stroke: rgb(67, 99, 216); stroke-opacity: 1; stroke-width: 2px; opacity: 1;"/></g><g class="points"/><g class="text"/></g><g class="trace scatter trace540304" style="stroke-miterlimit: 2; opacity: 1;"><g class="fills"/><g class="errorbars"/><g class="lines"><path class="js-line" d="M0,256.5L199.81,255.8L200.58,255.71L302.03,255.62L302.79,248.23L305.1,248.23" style="vector-effect: non-scaling-stroke; fill: none; stroke: rgb(245, 130, 49); stroke-opacity: 1; stroke-width: 2px; opacity: 1;"/></g><g class="points"/><g class="text"/></g><g class="trace scatter trace436516" style="stroke-miterlimit: 2; opacity: 1;"><g class="fills"/><g class="errorbars"/><g class="lines"><path class="js-line" d="M0,256.5L52.26,256.06L53.03,255.71L58.41,255.44L59.18,254.92L69.17,253.07L69.93,253.07L76.85,252.37L77.62,252.28L84.54,251.57L85.31,251.49L92.99,250.87L93.76,250.7L100.68,249.99L101.44,249.9L109.13,249.29L109.9,249.11L112.2,248.67L112.97,248.67L124.5,246.74L125.27,246.39L126.8,245.77L127.57,245.07L129.11,244.45L129.88,243.66L131.42,241.9L132.18,241.11L136.03,236.36L136.8,235.39L137.56,235.39L138.33,233.9L139.87,232.4L140.64,231.61L142.94,228.18L143.71,214.29L146.02,208.57L146.79,205.67L148.32,202.76L149.09,201.8L152.17,191.51L152.93,188.52L154.47,187.55L155.24,185.61L159.08,178.05L159.85,178.05L163.69,169.26L164.46,168.73L165.23,168.73L166,167.94L169.84,160.99L170.61,160.99L175.22,154.04L175.99,153.95L177.53,153.43L178.3,152.63L180.6,150.61L181.37,150.52L184.44,147.27L185.21,147.09L187.52,146.13L188.29,145.33L189.82,144.01L190.59,142.43L192.9,141.9L193.67,141.02L198.28,139L199.05,138.74L201.35,136.89L202.12,136.89L204.42,136.36L205.19,136.01L207.5,135.04L208.27,135.04L214.42,133.2L215.18,132.76L225.94,130.03L226.71,129.5L235.93,126.34L236.7,125.81L242.08,123.52L242.85,123.17L245.16,121.32L245.92,121.24L254.38,115.78L255.15,115.78L256.68,115.78L257.45,111.21L258.22,111.21L258.99,109.98L260.53,108.31L261.29,107.96L262.06,107.96L262.83,107.08L265.91,103.21L266.67,103.03L267.44,102.86L268.21,101.89L270.52,98.28L271.29,94.32L273.59,90.81L274.36,88.34L277.43,78.93L278.2,78.85L280.51,72.69L281.28,69.79L282.81,67.15L283.58,66.44L285.12,61.61L285.89,57.56L288.19,50L288.96,49.91L293.57,34.26L294.34,33.64L298.95,20.71L299.72,20.18L301.26,19.48L302.03,18.43L302.79,17.9L303.56,16.31L305.1,13.5" style="vector-effect: non-scaling-stroke; fill: none; stroke: rgb(145, 30, 180); stroke-opacity: 1; stroke-width: 2px; opacity: 1;"/></g><g class="points"/><g class="text"/></g></g></g><g class="overplot"/><path class="xlines-above crisp" d="M0,0" style="fill: none;"/><path class="ylines-above crisp" d="M0,0" style="fill: none;"/><g class="overlines-above"/><g class="xaxislayer-above"><g class="x2tick"><text text-anchor="middle" x="0" y="383" transform="translate(506.70000000000005,0)" style="font-family: 'Open Sans', verdana, arial, sans-serif; font-size: 12px; fill: rgb(242, 245, 250); fill-opacity: 1; white-space: pre;">Apr 2020</text></g><g class="x2tick"><text text-anchor="middle" x="0" y="383" transform="translate(576.63,0)" style="font-family: 'Open Sans', verdana, arial, sans-serif; font-size: 12px; fill: rgb(242, 245, 250); fill-opacity: 1; white-space: pre;">Jul 2020</text></g><g class="x2tick"><text text-anchor="middle" x="0" y="383" transform="translate(647.33,0)" style="font-family: 'Open Sans', verdana, arial, sans-serif; font-size: 12px; fill: rgb(242, 245, 250); fill-opacity: 1; white-space: pre;">Oct 2020</text></g><g class="x2tick"><text text-anchor="middle" x="0" y="383" transform="translate(718.04,0)" style="font-family: 'Open Sans', verdana, arial, sans-serif; font-size: 12px; fill: rgb(242, 245, 250); fill-opacity: 1; white-space: pre;">Jan 2021</text></g></g><g class="yaxislayer-above"><g class="y2tick"><text text-anchor="end" x="451.90000000000003" y="4.199999999999999" transform="translate(0,356.5)" style="font-family: 'Open Sans', verdana, arial, sans-serif; font-size: 12px; fill: rgb(242, 245, 250); fill-opacity: 1; white-space: pre;">0</text></g><g class="y2tick"><text text-anchor="end" x="451.90000000000003" y="4.199999999999999" transform="translate(0,312.53)" style="font-family: 'Open Sans', verdana, arial, sans-serif; font-size: 12px; fill: rgb(242, 245, 250); fill-opacity: 1; white-space: pre;">500</text></g><g class="y2tick"><text text-anchor="end" x="451.90000000000003" y="4.199999999999999" transform="translate(0,268.55)" style="font-family: 'Open Sans', verdana, arial, sans-serif; font-size: 12px; fill: rgb(242, 245, 250); fill-opacity: 1; white-space: pre;">1000</text></g><g class="y2tick"><text text-anchor="end" x="451.90000000000003" y="4.199999999999999" transform="translate(0,224.57999999999998)" style="font-family: 'Open Sans', verdana, arial, sans-serif; font-size: 12px; fill: rgb(242, 245, 250); fill-opacity: 1; white-space: pre;">1500</text></g><g class="y2tick"><text text-anchor="end" x="451.90000000000003" y="4.199999999999999" transform="translate(0,180.6)" style="font-family: 'Open Sans', verdana, arial, sans-serif; font-size: 12px; fill: rgb(242, 245, 250); fill-opacity: 1; white-space: pre;">2000</text></g><g class="y2tick"><text text-anchor="end" x="451.90000000000003" y="4.199999999999999" transform="translate(0,136.63)" style="font-family: 'Open Sans', verdana, arial, sans-serif; font-size: 12px; fill: rgb(242, 245, 250); fill-opacity: 1; white-space: pre;">2500</text></g></g><g class="overaxes-above"/></g></g><g class="polarlayer"/><g class="ternarylayer"/><g class="geolayer"/><g class="funnelarealayer"/><g class="pielayer"/><g class="treemaplayer"/><g class="sunburstlayer"/><g class="glimages"/><defs id="topdefs-6544c6"><g class="clips"/><clipPath id="legend6544c6"><rect width="116" height="124" x="0" y="0"/></clipPath></defs><g class="layer-above"><g class="imagelayer"/><g class="shapelayer"/></g><g class="infolayer"><g class="legend" pointer-events="all" transform="translate(771.5600000000001, 100)"><rect class="bg" shape-rendering="crispEdges" width="116" height="124" x="0" y="0" style="stroke: rgb(68, 68, 68); stroke-opacity: 1; fill: rgb(17, 17, 17); fill-opacity: 1; stroke-width: 0px;"/><g class="scrollbox" transform="translate(0, 0)" clip-path="url('#legend6544c6')"><g class="groups"><g class="traces" transform="translate(0, 14.5)" style="opacity: 1;"><text class="legendtext user-select-none" text-anchor="start" x="40" y="4.680000000000001" style="font-family: 'Open Sans', verdana, arial, sans-serif; font-size: 12px; fill: rgb(242, 245, 250); fill-opacity: 1; white-space: pre;">Alameda, CA</text><g class="layers" style="opacity: 1;"><g class="legendfill"/><g class="legendlines"><path class="js-line" d="M5,0h30" style="fill: none; stroke: rgb(230, 25, 75); stroke-opacity: 1; stroke-width: 2px;"/></g><g class="legendsymbols"><g class="legendpoints"/></g></g><rect class="legendtoggle" pointer-events="all" x="0" y="-9.5" width="110.703125" height="19" style="cursor: pointer; fill: rgb(0, 0, 0); fill-opacity: 0;"/></g><g class="traces" transform="translate(0, 33.5)" style="opacity: 1;"><text class="legendtext user-select-none" text-anchor="start" x="40" y="4.680000000000001" style="font-family: 'Open Sans', verdana, arial, sans-serif; font-size: 12px; fill: rgb(242, 245, 250); fill-opacity: 1; white-space: pre;">Fresno, CA</text><g class="layers" style="opacity: 1;"><g class="legendfill"/><g class="legendlines"><path class="js-line" d="M5,0h30" style="fill: none; stroke: rgb(60, 180, 75); stroke-opacity: 1; stroke-width: 2px;"/></g><g class="legendsymbols"><g class="legendpoints"/></g></g><rect class="legendtoggle" pointer-events="all" x="0" y="-9.5" width="110.703125" height="19" style="cursor: pointer; fill: rgb(0, 0, 0); fill-opacity: 0;"/></g><g class="traces" transform="translate(0, 52.5)" style="opacity: 1;"><text class="legendtext user-select-none" text-anchor="start" x="40" y="4.680000000000001" style="font-family: 'Open Sans', verdana, arial, sans-serif; font-size: 12px; fill: rgb(242, 245, 250); fill-opacity: 1; white-space: pre;">Pima, AZ</text><g class="layers" style="opacity: 1;"><g class="legendfill"/><g class="legendlines"><path class="js-line" d="M5,0h30" style="fill: none; stroke: rgb(255, 225, 25); stroke-opacity: 1; stroke-width: 2px;"/></g><g class="legendsymbols"><g class="legendpoints"/></g></g><rect class="legendtoggle" pointer-events="all" x="0" y="-9.5" width="110.703125" height="19" style="cursor: pointer; fill: rgb(0, 0, 0); fill-opacity: 0;"/></g><g class="traces" transform="translate(0, 71.5)" style="opacity: 1;"><text class="legendtext user-select-none" text-anchor="start" x="40" y="4.680000000000001" style="font-family: 'Open Sans', verdana, arial, sans-serif; font-size: 12px; fill: rgb(242, 245, 250); fill-opacity: 1; white-space: pre;">Broward, FL</text><g class="layers" style="opacity: 1;"><g class="legendfill"/><g class="legendlines"><path class="js-line" d="M5,0h30" style="fill: none; stroke: rgb(67, 99, 216); stroke-opacity: 1; stroke-width: 2px;"/></g><g class="legendsymbols"><g class="legendpoints"/></g></g><rect class="legendtoggle" pointer-events="all" x="0" y="-9.5" width="110.703125" height="19" style="cursor: pointer; fill: rgb(0, 0, 0); fill-opacity: 0;"/></g><g class="traces" transform="translate(0, 90.5)" style="opacity: 1;"><text class="legendtext user-select-none" text-anchor="start" x="40" y="4.680000000000001" style="font-family: 'Open Sans', verdana, arial, sans-serif; font-size: 12px; fill: rgb(242, 245, 250); fill-opacity: 1; white-space: pre;">Cowley, KS</text><g class="layers" style="opacity: 1;"><g class="legendfill"/><g class="legendlines"><path class="js-line" d="M5,0h30" style="fill: none; stroke: rgb(245, 130, 49); stroke-opacity: 1; stroke-width: 2px;"/></g><g class="legendsymbols"><g class="legendpoints"/></g></g><rect class="legendtoggle" pointer-events="all" x="0" y="-9.5" width="110.703125" height="19" style="cursor: pointer; fill: rgb(0, 0, 0); fill-opacity: 0;"/></g><g class="traces" transform="translate(0, 109.5)" style="opacity: 1;"><text class="legendtext user-select-none" text-anchor="start" x="40" y="4.680000000000001" style="font-family: 'Open Sans', verdana, arial, sans-serif; font-size: 12px; fill: rgb(242, 245, 250); fill-opacity: 1; white-space: pre;">Bexar, TX</text><g class="layers" style="opacity: 1;"><g class="legendfill"/><g class="legendlines"><path class="js-line" d="M5,0h30" style="fill: none; stroke: rgb(145, 30, 180); stroke-opacity: 1; stroke-width: 2px;"/></g><g class="legendsymbols"><g class="legendpoints"/></g></g><rect class="legendtoggle" pointer-events="all" x="0" y="-9.5" width="110.703125" height="19" style="cursor: pointer; fill: rgb(0, 0, 0); fill-opacity: 0;"/></g></g></g><rect class="scrollbar" rx="20" ry="3" width="0" height="0" x="0" y="0" style="fill: rgb(128, 139, 164); fill-opacity: 1;"/></g><g class="g-gtitle"/><g class="g-xtitle"><text class="xtitle" x="232.55" y="410.8" text-anchor="middle" style="font-family: 'Open Sans', verdana, arial, sans-serif; font-size: 14px; fill: rgb(242, 245, 250); opacity: 1; font-weight: normal; white-space: pre;">Date</text></g><g class="g-x2title"><text class="x2title" x="605.45" y="410.8" text-anchor="middle" style="font-family: 'Open Sans', verdana, arial, sans-serif; font-size: 14px; fill: rgb(242, 245, 250); opacity: 1; font-weight: normal; white-space: pre;">Date</text></g><g class="g-ytitle"><text class="ytitle" transform="rotate(-90,28.168750000000003,235)" x="28.168750000000003" y="235" text-anchor="middle" style="font-family: 'Open Sans', verdana, arial, sans-serif; font-size: 14px; fill: rgb(242, 245, 250); opacity: 1; font-weight: normal; white-space: pre;">Cases</text></g><g class="g-y2title"><text class="y2title" transform="rotate(-90,400.403125,235)" x="400.403125" y="235" text-anchor="middle" style="font-family: 'Open Sans', verdana, arial, sans-serif; font-size: 14px; fill: rgb(242, 245, 250); opacity: 1; font-weight: normal; white-space: pre;">Deaths</text></g><g class="annotation" data-index="0" style="opacity: 1;"><g class="annotation-text-g" transform="rotate(0,232.55,89.5)"><g class="cursor-pointer" transform="translate(208, 79)"><rect class="bg" x="0.5" y="0.5" width="48" height="20" style="stroke-width: 1px; stroke: rgb(0, 0, 0); stroke-opacity: 0; fill: rgb(0, 0, 0); fill-opacity: 0;"/><text class="annotation-text" text-anchor="middle" x="24.6875" y="16" style="font-family: 'Open Sans', verdana, arial, sans-serif; font-size: 16px; fill: rgb(242, 245, 250); fill-opacity: 1; white-space: pre;">Cases</text></g></g></g><g class="annotation" data-index="1" style="opacity: 1;"><g class="annotation-text-g" transform="rotate(0,605.45,89.5)"><g class="cursor-pointer" transform="translate(578, 79)"><rect class="bg" x="0.5" y="0.5" width="54" height="20" style="stroke-width: 1px; stroke: rgb(0, 0, 0); stroke-opacity: 0; fill: rgb(0, 0, 0); fill-opacity: 0;"/><text class="annotation-text" text-anchor="middle" x="27.359375" y="16" style="font-family: 'Open Sans', verdana, arial, sans-serif; font-size: 16px; fill: rgb(242, 245, 250); fill-opacity: 1; white-space: pre;">Deaths</text></g></g></g></g></svg>