<svg class="main-svg" xmlns="http://www.w3.org/2000/svg" xmlns:xlink="http://www.w3.org/1999/xlink" width="900" height="450" style="" viewBox="0 0 900 450"><rect x="0" y="0" width="900" height="450" style="fill: rgb(17, 17, 17); fill-opacity: 1;"/><defs id="defs-5b8491"><g class="clips"><clipPath id="clip5b8491xyplot" class="plotclip"><rect width="302.85" height="270"/></clipPath><clipPath id="clip5b8491x2y2plot" class="plotclip"><rect width="302.84999999999997" height="270"/></clipPath><clipPath class="axesclip" id="clip5b8491x"><rect x="80" y="0" width="302.85" height="450"/></clipPath><clipPath class="axesclip" id="clip5b8491y"><rect x="0" y="100" width="900" height="270"/></clipPath><clipPath class="axesclip" id="clip5b8491xy"><rect x="80" y="100" width="302.85" height="270"/></clipPath><clipPath class="axesclip" id="clip5b8491y2"><rect x="0" y="100" width="900" height="270"/></clipPath><clipPath class="axesclip" id="clip5b8491xy2"><rect x="80" y="100" width="302.85" height="270"/></clipPath><clipPath class="axesclip" id="clip5b8491x2"><rect x="450.15000000000003" y="0" width="302.84999999999997" height="450"/></clipPath><clipPath class="axesclip" id="clip5b8491x2y"><rect x="450.15000000000003" y="100" width="302.84999999999997" height="270"/></clipPath><clipPath class="axesclip" id="clip5b8491x2y2"><rect x="450.15000000000003" y="100" width="302.84999999999997" height="270"/></clipPath></g><g class="gradients"/></defs><g class="bglayer"/><g class="layer-below"><g class="imagelayer"/><g class="shapelayer"/></g><g class="cartesianlayer"><g class="subplot xy"><g class="layer-subplot"><g class="shapelayer"/><g class="imagelayer"/></g><g class="gridlayer"><g class="x"><path class="xgrid crisp" transform="translate(121.88,0)" d="M0,100v270" style="stroke: rgb(40, 52, 66); stroke-opacity: 1; stroke-width: 1px;"/><path class="xgrid crisp" transform="translate(187.39,0)" d="M0,100v270" style="stroke: rgb(40, 52, 66); stroke-opacity: 1; stroke-width: 1px;"/><path class="xgrid crisp" transform="translate(252.9,0)" d="M0,100v270" style="stroke: rgb(40, 52, 66); stroke-opacity: 1; stroke-width: 1px;"/><path class="xgrid crisp" transform="translate(319.49,0)" d="M0,100v270" style="stroke: rgb(40, 52, 66); stroke-opacity: 1; stroke-width: 1px;"/></g><g class="y"><path class="ygrid crisp" transform="translate(0,305.4)" d="M80,0h302.85" style="stroke: rgb(40, 52, 66); stroke-opacity: 1; stroke-width: 1px;"/><path class="ygrid crisp" transform="translate(0,254.29)" d="M80,0h302.85" style="stroke: rgb(40, 52, 66); stroke-opacity: 1; stroke-width: 1px;"/><path class="ygrid crisp" transform="translate(0,203.19)" d="M80,0h302.85" style="stroke: rgb(40, 52, 66); stroke-opacity: 1; stroke-width: 1px;"/><path class="ygrid crisp" transform="translate(0,152.07999999999998)" d="M80,0h302.85" style="stroke: rgb(40, 52, 66); stroke-opacity: 1; stroke-width: 1px;"/></g></g><g class="zerolinelayer"><path class="yzl zl crisp" transform="translate(0,356.5)" d="M80,0h302.85" style="stroke: rgb(40, 52, 66); stroke-opacity: 1; stroke-width: 2px;"/></g><path class="xlines-below"/><path class="ylines-below"/><g class="overlines-below"/><g class="xaxislayer-below"/><g class="yaxislayer-below"/><g class="overaxes-below"/><g class="plot" transform="translate(80, 100)" clip-path="url('#clip5b8491xyplot')"><g class="scatterlayer mlayer"><g class="trace scatter tracee47070" style="stroke-miterlimit: 2; opacity: 1;"><g class="fills"/><g class="errorbars"/><g class="lines"><path class="js-line" d="M0,256.5L63.36,255.84L64.44,255.42L73.03,253.61L74.1,253.3L88.06,247.46L89.14,247.46L93.43,245.11L94.51,244.6L97.73,243.42L98.8,242.7L104.17,240.83L105.25,240.47L113.84,236.91L114.91,236.46L119.21,234.7L120.28,234.24L133.17,227.13L134.24,225.98L138.54,222.88L139.61,221.85L148.2,216.18L149.28,215.77L151.42,214.4L152.5,213.41L157.87,210.17L158.94,209.1L162.16,207.39L163.24,205.32L168.61,199.18L169.68,198.55L170.76,197.61L171.83,195.54L175.05,190.35L176.13,189.49L177.2,186.44L178.27,186.11L179.35,186.11L180.42,182.45L183.64,177.54L184.72,177.54L187.94,169.85L189.01,168.32L192.23,162.09L193.31,161.9L194.38,160.6L195.46,157.94L198.68,150.92L199.75,150.51L200.83,149.82L201.9,147.82L202.97,146.39L204.05,142.73L205.12,142.73L206.2,139.12L207.27,138.72L208.34,135.42L209.42,134.78L210.49,132.46L213.71,132.46L214.79,121.6L215.86,121.4L216.94,116.84L219.08,111.07L220.16,107.71L221.23,107.71L222.3,101.93L223.38,101.86L224.45,98.72L227.67,88.17L228.75,85.88L230.9,85.48L231.97,79.94L233.04,78.81L234.12,76.4L235.19,74.09L236.27,74.09L243.78,60.97L244.86,60.97L245.93,58.73L247.01,58.73L249.15,55.05L250.23,53.93L251.3,53.75L252.38,52.18L256.67,50.43L257.74,48.36L260.97,45.53L262.04,44.44L269.56,38.56L270.63,37.95L279.22,32.28L280.3,32.23L282.45,30.12L283.52,30.12L285.67,28.32L286.74,27.86L288.89,26.95L289.96,25.14L298.55,17.42L299.63,17.42L301.78,14.92L302.85,13.5" style="vector-effect: non-scaling-stroke; fill: none; stroke: rgb(230, 25, 75); stroke-opacity: 1; stroke-width: 2px; opacity: 1;"/></g><g class="points"/><g class="text"/></g><g class="trace scatter trace9b9f84" style="stroke-miterlimit: 2; opacity: 1;"><g class="fills"/><g class="errorbars"/><g class="lines"><path class="js-line" d="M0,256.5L170.76,255.75L171.83,255.73L212.64,253.3L213.71,253.18L238.41,251.47L239.49,251.22L270.63,246.18L271.71,246.11L289.96,244.34L291.04,244.12L302.85,242.69" style="vector-effect: non-scaling-stroke; fill: none; stroke: rgb(60, 180, 75); stroke-opacity: 1; stroke-width: 2px; opacity: 1;"/></g><g class="points"/><g class="text"/></g><g class="trace scatter trace9c3c52" style="stroke-miterlimit: 2; opacity: 1;"><g class="fills"/><g class="errorbars"/><g class="lines"><path class="js-line" d="M0,256.5L66.58,255.79L67.66,255.6L75.18,252.61L76.25,251.99L86.99,246.3L88.06,246.3L90.21,246.3L91.28,242.78L98.8,237.86L99.88,235.75L104.17,232.87L105.25,232.08L117.06,223.06L118.13,222.64L132.09,215.22L133.17,214.85L146.06,209.22L147.13,209.11L180.42,200.7L181.5,200.18L184.72,198.78L185.79,198.43L196.53,192.35L197.6,191.36L201.9,188.11L202.97,187.52L216.94,181.1L218.01,180.81L223.38,178.72L224.45,178.35L230.9,176.24L231.97,175.68L238.41,173.75L239.49,173.29L247.01,171.34L248.08,171.04L262.04,165.13L263.11,164.52L272.78,158.67L273.85,158.67L277.08,155.81L278.15,155.22L283.52,149.94L284.59,148.45L288.89,143.77L289.96,142.62L295.33,136.24L296.41,134.47L302.85,120.43" style="vector-effect: non-scaling-stroke; fill: none; stroke: rgb(255, 225, 25); stroke-opacity: 1; stroke-width: 2px; opacity: 1;"/></g><g class="points"/><g class="text"/></g><g class="trace scatter trace1325a9" style="stroke-miterlimit: 2; opacity: 1;"><g class="fills"/><g class="errorbars"/><g class="lines"><path class="js-line" d="M0,256.5L86.99,255.77L88.06,255.73L99.88,254.93L100.95,254.7L165.39,252.33L166.46,252.32L196.53,251.57L197.6,251.56L231.97,250.29L233.04,245.82L266.34,244.62L267.41,244.59L291.04,243.23L292.11,243.12L299.63,241.85L300.7,241.55L302.85,241.18" style="vector-effect: non-scaling-stroke; fill: none; stroke: rgb(67, 99, 216); stroke-opacity: 1; stroke-width: 2px; opacity: 1;"/></g><g class="points"/><g class="text"/></g><g class="trace scatter tracecc9a3a" style="stroke-miterlimit: 2; opacity: 1;"><g class="fills"/><g class="errorbars"/><g class="lines"><path class="js-line" d="M0,256.5L77.32,255.92L78.4,255.68L88.06,254.44L89.14,254.25L98.8,253.13L99.88,252.92L110.62,250.87L111.69,250.58L144.98,243.6L146.06,243.25L165.39,239.42L166.46,239.19L181.5,234.75L182.57,233.99L187.94,231.6L189.01,231.07L198.68,224.75L199.75,224.28L204.05,221.56L205.12,220.66L214.79,215.56L215.86,215.33L222.3,211.27L223.38,210.67L236.27,203.08L237.34,202.9L239.49,201.85L240.56,201.17L241.64,200.8L242.71,199.47L245.93,198.14L247.01,197.72L249.15,196.69L250.23,195.95L268.48,188.38L269.56,187.72L272.78,186.63L273.85,186.2L278.15,185.02L279.22,184.02L295.33,176.63L296.41,175.98L300.7,173.75L301.78,172.97L302.85,172.21" style="vector-effect: non-scaling-stroke; fill: none; stroke: rgb(245, 130, 49); stroke-opacity: 1; stroke-width: 2px; opacity: 1;"/></g><g class="points"/><g class="text"/></g><g class="trace scatter trace0f8a9f" style="stroke-miterlimit: 2; opacity: 1;"><g class="fills"/><g class="errorbars"/><g class="lines"><path class="js-line" d="M0,256.5L69.81,255.84L70.88,255.69L80.55,254.57L81.62,254.47L103.1,251.39L104.17,250.96L110.62,249.18L111.69,248.82L118.13,247.15L119.21,246.99L127.8,245.49L128.87,244.84L135.32,243.06L136.39,242.86L140.69,241.65L141.76,241.42L164.31,238.14L165.39,238.01L172.9,236.38L173.98,236.38L176.13,234.93L177.2,234.72L179.35,234.27L180.42,233.6L194.38,229.24L195.46,228.78L205.12,223.92L206.2,223.67L227.67,215.82L228.75,214.37L235.19,212.37L236.27,211.77L245.93,208.52L247.01,208.21L253.45,206.48L254.52,206.3L282.45,196.26L283.52,195.76L291.04,190.31L292.11,189.5L298.55,185.18L299.63,183.84L302.85,180.77" style="vector-effect: non-scaling-stroke; fill: none; stroke: rgb(145, 30, 180); stroke-opacity: 1; stroke-width: 2px; opacity: 1;"/></g><g class="points"/><g class="text"/></g></g></g><g class="overplot"/><path class="xlines-above crisp" d="M0,0" style="fill: none;"/><path class="ylines-above crisp" d="M0,0" style="fill: none;"/><g class="overlines-above"/><g class="xaxislayer-above"><g class="xtick"><text text-anchor="middle" x="0" y="383" transform="translate(121.88,0)" style="font-family: 'Open Sans', verdana, arial, sans-serif; font-size: 12px; fill: rgb(242, 245, 250); fill-opacity: 1; white-space: pre;">Mar 2020</text></g><g class="xtick"><text text-anchor="middle" x="0" y="383" transform="translate(187.39,0)" style="font-family: 'Open Sans', verdana, arial, sans-serif; font-size: 12px; fill: rgb(242, 245, 250); fill-opacity: 1; white-space: pre;">May 2020</text></g><g class="xtick"><text text-anchor="middle" x="0" y="383" transform="translate(252.9,0)" style="font-family: 'Open Sans', verdana, arial, sans-serif; font-size: 12px; fill: rgb(242, 245, 250); fill-opacity: 1; white-space: pre;">Jul 2020</text></g><g class="xtick"><text text-anchor="middle" x="0" y="383" transform="translate(319.49,0)" style="font-family: 'Open Sans', verdana, arial, sans-serif; font-size: 12px; fill: rgb(242, 245, 250); fill-opacity: 1; white-space: pre;">Sep 2020</text></g></g><g class="yaxislayer-above"><g class="ytick"><text text-anchor="end" x="79" y="4.199999999999999" transform="translate(0,356.5)" style="font-family: 'Open Sans', verdana, arial, sans-serif; font-size: 12px; fill: rgb(242, 245, 250); fill-opacity: 1; white-space: pre;">0</text></g><g class="ytick"><text text-anchor="end" x="79" y="4.199999999999999" transform="translate(0,305.4)" style="font-family: 'Open Sans', verdana, arial, sans-serif; font-size: 12px; fill: rgb(242, 245, 250); fill-opacity: 1; white-space: pre;">5k</text></g><g class="ytick"><text text-anchor="end" x="79" y="4.199999999999999" transform="translate(0,254.29)" style="font-family: 'Open Sans', verdana, arial, sans-serif; font-size: 12px; fill: rgb(242, 245, 250); fill-opacity: 1; white-space: pre;">10k</text></g><g class="ytick"><text text-anchor="end" x="79" y="4.199999999999999" transform="translate(0,203.19)" style="font-family: 'Open Sans', verdana, arial, sans-serif; font-size: 12px; fill: rgb(242, 245, 250); fill-opacity: 1; white-space: pre;">15k</text></g><g class="ytick"><text text-anchor="end" x="79" y="4.199999999999999" transform="translate(0,152.07999999999998)" style="font-family: 'Open Sans', verdana, arial, sans-serif; font-size: 12px; fill: rgb(242, 245, 250); fill-opacity: 1; white-space: pre;">20k</text></g><g class="ytick"><text text-anchor="end" x="79" y="4.199999999999999" transform="translate(0,100.98)" style="font-family: 'Open Sans', verdana, arial, sans-serif; font-size: 12px; fill: rgb(242, 245, 250); fill-opacity: 1; white-space: pre;">25k</text></g></g><g class="overaxes-above"/></g><g class="subplot x2y2"><g class="layer-subplot"><g class="shapelayer"/><g class="imagelayer"/></g><g class="gridlayer"><g class="x2"><path class="x2grid crisp" transform="translate(492.03000000000003,0)" d="M0,100v270" style="stroke: rgb(40, 52, 66); stroke-opacity: 1; stroke-width: 1px;"/><path class="x2grid crisp" transform="translate(557.5400000000001,0)" d="M0,100v270" style="stroke: rgb(40, 52, 66); stroke-opacity: 1; stroke-width: 1px;"/><path class="x2grid crisp" transform="translate(623.0500000000001,0)" d="M0,100v270" style="stroke: rgb(40, 52, 66); stroke-opacity: 1; stroke-width: 1px;"/><path class="x2grid crisp" transform="translate(689.6400000000001,0)" d="M0,100v270" style="stroke: rgb(40, 52, 66); stroke-opacity: 1; stroke-width: 1px;"/></g><g class="y2"><path class="y2grid crisp" transform="translate(0,304.02)" d="M450.15000000000003,0h302.84999999999997" style="stroke: rgb(40, 52, 66); stroke-opacity: 1; stroke-width: 1px;"/><path class="y2grid crisp" transform="translate(0,251.53)" d="M450.15000000000003,0h302.84999999999997" style="stroke: rgb(40, 52, 66); stroke-opacity: 1; stroke-width: 1px;"/><path class="y2grid crisp" transform="translate(0,199.05)" d="M450.15000000000003,0h302.84999999999997" style="stroke: rgb(40, 52, 66); stroke-opacity: 1; stroke-width: 1px;"/><path class="y2grid crisp" transform="translate(0,146.56)" d="M450.15000000000003,0h302.84999999999997" style="stroke: rgb(40, 52, 66); stroke-opacity: 1; stroke-width: 1px;"/></g></g><g class="zerolinelayer"><path class="y2zl zl crisp" transform="translate(0,356.5)" d="M450.15000000000003,0h302.84999999999997" style="stroke: rgb(40, 52, 66); stroke-opacity: 1; stroke-width: 2px;"/></g><path class="xlines-below"/><path class="ylines-below"/><g class="overlines-below"/><g class="xaxislayer-below"/><g class="yaxislayer-below"/><g class="overaxes-below"/><g class="plot" transform="translate(450.15000000000003, 100)" clip-path="url('#clip5b8491x2y2plot')"><g class="scatterlayer mlayer"><g class="trace scatter tracea7b85b" style="stroke-miterlimit: 2; opacity: 1;"><g class="fills"/><g class="errorbars"/><g class="lines"><path class="js-line" d="M0,256.5L65.51,255.98L66.58,255.45L67.66,255.45L68.73,254.4L69.81,254.4L70.88,253.35L73.03,252.83L74.1,252.83L76.25,251.78L77.32,250.2L80.55,249.68L81.62,248.63L83.77,247.58L84.84,246L88.06,244.43L89.14,244.43L90.21,237.61L91.28,236.03L92.36,236.03L93.43,234.98L98.8,232.36L99.88,231.31L100.95,229.21L102.02,229.21L103.1,229.21L104.17,227.63L108.47,223.44L109.54,223.44L110.62,223.44L111.69,221.86L113.84,221.34L114.91,219.76L117.06,219.24L118.13,219.24L122.43,213.46L123.5,212.94L125.65,212.94L126.72,211.36L128.87,209.26L129.95,209.26L132.09,207.69L133.17,207.69L136.39,207.17L137.46,206.64L140.69,206.12L141.76,205.59L143.91,205.59L144.98,203.49L149.28,202.97L150.35,201.39L152.5,199.29L153.57,199.29L154.65,197.72L155.72,197.72L156.79,197.72L157.87,195.62L161.09,194.57L162.16,194.57L165.39,192.47L166.46,189.32L167.53,188.27L168.61,188.27L169.68,186.7L170.76,186.7L175.05,183.02L176.13,183.02L179.35,183.02L180.42,181.97L182.57,179.35L183.64,178.82L185.79,178.82L186.86,176.72L189.01,175.67L190.09,172L192.23,171.48L193.31,171.48L195.46,166.75L196.53,165.7L197.6,163.08L198.68,163.08L200.83,163.08L201.9,161.5L205.12,160.98L206.2,157.31L208.34,157.31L209.42,155.73L211.57,155.21L212.64,155.21L213.71,155.21L214.79,148.91L216.94,148.91L218.01,145.23L220.16,141.56L221.23,141.56L222.3,140.51L223.38,140.51L227.67,134.21L228.75,134.21L230.9,133.69L231.97,130.54L235.19,126.87L236.27,126.87L237.34,121.62L238.41,121.62L239.49,121.62L240.56,112.69L241.64,101.67L242.71,101.15L243.78,99.57L244.86,99.57L247.01,99.05L248.08,97.47L249.15,97.47L250.23,88.55L251.3,88.55L252.38,82.25L253.45,81.73L254.52,69.66L255.6,69.66L256.67,64.93L258.82,60.21L259.89,60.21L260.97,60.21L262.04,51.81L265.26,44.47L266.34,43.42L268.48,43.42L269.56,42.37L270.63,40.27L271.71,36.07L272.78,36.07L273.85,33.44L276,33.44L277.08,32.39L278.15,30.29L279.22,30.29L292.11,29.77L293.18,28.2L294.26,17.17L295.33,17.17L297.48,14.55L298.55,14.55L301.78,13.5L302.85,13.5" style="vector-effect: non-scaling-stroke; fill: none; stroke: rgb(230, 25, 75); stroke-opacity: 1; stroke-width: 2px; opacity: 1;"/></g><g class="points"/><g class="text"/></g><g class="trace scatter trace9339e3" style="stroke-miterlimit: 2; opacity: 1;"><g class="fills"/><g class="errorbars"/><g class="lines"><path class="js-line" d="M0,256.5L149.28,255.98L150.35,255.45L202.97,254.93L204.05,254.4L248.08,253.88L249.15,252.83L264.19,252.3L265.26,251.78L277.08,251.25L278.15,250.73L280.3,250.2L281.37,250.2L284.59,249.68L285.67,249.15L291.04,248.63L292.11,248.1L295.33,247.58L296.41,246.53L298.55,246L299.63,244.95L302.85,243.9" style="vector-effect: non-scaling-stroke; fill: none; stroke: rgb(60, 180, 75); stroke-opacity: 1; stroke-width: 2px; opacity: 1;"/></g><g class="points"/><g class="text"/></g><g class="trace scatter tracedfd07d" style="stroke-miterlimit: 2; opacity: 1;"><g class="fills"/><g class="errorbars"/><g class="lines"><path class="js-line" d="M0,256.5L69.81,255.98L70.88,254.93L73.03,254.93L74.1,253.35L75.18,252.83L76.25,251.25L78.4,251.25L79.47,249.68L82.69,246.53L83.77,243.9L85.91,237.08L86.99,236.56L88.06,236.56L89.14,233.93L91.28,227.63L92.36,226.06L95.58,218.71L96.65,214.51L97.73,210.84L98.8,203.49L99.88,190.9L100.95,189.85L102.02,189.85L103.1,188.27L105.25,183.02L106.32,182.5L107.39,176.72L108.47,176.2L110.62,174.1L111.69,169.9L114.91,164.13L115.99,164.13L117.06,164.13L118.13,162.55L119.21,160.45L120.28,151.53L124.58,123.72L125.65,123.72L126.72,121.09L127.8,113.74L128.87,113.22L129.95,111.64L132.09,109.55L133.17,109.55L134.24,107.45L135.32,100.1L138.54,96.42L139.61,96.42L141.76,94.33L142.83,88.55L143.91,85.93L144.98,85.4L148.2,85.4L149.28,83.83L152.5,80.68L153.57,80.68L155.72,80.68L156.79,79.1L158.94,78.58L160.02,78.58L163.24,78.58L164.31,77.01L170.76,76.48L171.83,75.96L177.2,75.43L178.27,74.91L180.42,74.38L181.5,73.33L185.79,73.33L186.86,72.28L195.46,71.76L196.53,67.56L201.9,67.56L202.97,66.51L220.16,65.98L221.23,65.46L235.19,64.93L236.27,63.88L244.86,63.36L245.93,62.83L265.26,62.31L266.34,61.79L271.71,61.26L272.78,60.74L278.15,60.74L279.22,59.69L287.81,59.16L288.89,58.64L296.41,58.11L297.48,57.59L300.7,56.01L301.78,54.96L302.85,54.44" style="vector-effect: non-scaling-stroke; fill: none; stroke: rgb(255, 225, 25); stroke-opacity: 1; stroke-width: 2px; opacity: 1;"/></g><g class="points"/><g class="text"/></g><g class="trace scatter trace7170f7" style="stroke-miterlimit: 2; opacity: 1;"><g class="fills"/><g class="errorbars"/><g class="lines"><path class="js-line" d="M0,256.5L82.69,255.98L83.77,255.45L90.21,254.93L91.28,254.4L95.58,254.4L96.65,253.35L104.17,253.35L105.25,250.2L110.62,249.68L111.69,249.15L114.91,248.63L115.99,248.1L119.21,247.58L120.28,247.05L122.43,246.53L123.5,246L135.32,245.48L136.39,244.95L157.87,244.43L158.94,243.9L201.9,243.38L202.97,242.85L216.94,242.33L218.01,241.8L231.97,241.8L233.04,237.61L292.11,237.08L293.18,236.56L297.48,236.03L298.55,235.51L300.7,233.41L301.78,232.88L302.85,232.88" style="vector-effect: non-scaling-stroke; fill: none; stroke: rgb(67, 99, 216); stroke-opacity: 1; stroke-width: 2px; opacity: 1;"/></g><g class="points"/><g class="text"/></g><g class="trace scatter traceb53616" style="stroke-miterlimit: 2; opacity: 1;"><g class="fills"/><g class="errorbars"/><g class="lines"><path class="js-line" d="M0,256.5L73.03,255.98L74.1,255.45L82.69,254.93L83.77,254.4L88.06,252.3L89.14,252.3L91.28,249.15L92.36,247.58L96.65,247.05L97.73,246.53L99.88,246.53L100.95,243.9L104.17,243.38L105.25,241.28L110.62,238.66L111.69,234.98L113.84,233.41L114.91,232.36L117.06,230.26L118.13,229.21L119.21,228.68L120.28,225.53L123.5,222.39L124.58,222.39L125.65,221.86L126.72,220.29L131.02,219.76L132.09,219.24L135.32,218.19L136.39,216.09L139.61,213.46L140.69,213.46L143.91,208.74L144.98,208.21L148.2,206.64L149.28,205.07L151.42,200.34L152.5,200.34L153.57,197.72L154.65,197.72L155.72,197.72L156.79,195.09L157.87,192.47L158.94,191.94L160.02,191.94L161.09,190.9L163.24,190.37L164.31,189.85L166.46,187.22L167.53,186.7L169.68,185.65L170.76,185.65L173.98,185.12L175.05,184.6L179.35,184.07L180.42,181.45L182.57,180.92L183.64,180.92L187.94,180.4L189.01,179.35L195.46,176.72L196.53,176.72L201.9,176.2L202.97,175.67L205.12,175.15L206.2,174.63L209.42,174.63L210.49,173.05L212.64,172.53L213.71,172L223.38,171.48L224.45,170.95L226.6,169.38L227.67,169.38L231.97,169.38L233.04,168.33L235.19,167.28L236.27,167.28L239.49,167.28L240.56,166.23L244.86,164.65L245.93,164.65L249.15,164.13L250.23,163.08L254.52,163.08L255.6,162.03L256.67,162.03L257.74,160.98L259.89,160.45L260.97,160.45L262.04,158.36L263.11,158.36L267.41,156.78L268.48,156.78L269.56,156.78L270.63,155.73L271.71,155.21L272.78,153.63L277.08,153.11L278.15,152.06L281.37,150.48L282.45,150.48L283.52,150.48L284.59,148.91L289.96,144.71L291.04,144.71L292.11,144.71L293.18,143.66L299.63,140.51L300.7,140.51L302.85,138.94" style="vector-effect: non-scaling-stroke; fill: none; stroke: rgb(245, 130, 49); stroke-opacity: 1; stroke-width: 2px; opacity: 1;"/></g><g class="points"/><g class="text"/></g><g class="trace scatter trace8524ab" style="stroke-miterlimit: 2; opacity: 1;"><g class="fills"/><g class="errorbars"/><g class="lines"><path class="js-line" d="M0,256.5L69.81,255.98L70.88,254.4L73.03,253.88L74.1,253.88L76.25,252.83L77.32,252.83L78.4,252.83L79.47,251.78L82.69,250.2L83.77,250.2L86.99,249.15L88.06,249.15L92.36,247.58L93.43,246L94.51,245.48L95.58,243.9L97.73,240.75L98.8,239.71L99.88,238.13L100.95,238.13L104.17,233.93L105.25,230.78L107.39,230.78L108.47,226.58L110.62,226.06L111.69,221.86L113.84,218.19L114.91,217.66L115.99,215.56L117.06,215.56L118.13,215.56L119.21,211.36L120.28,210.31L121.35,203.49L122.43,201.92L123.5,198.77L124.58,198.77L125.65,197.72L126.72,197.19L127.8,187.75L131.02,173.05L132.09,173.05L135.32,172.53L136.39,166.23L139.61,165.7L140.69,164.13L142.83,161.5L143.91,161.5L144.98,161.5L146.06,160.45L148.2,159.93L149.28,159.4L153.57,155.73L154.65,155.73L156.79,154.16L157.87,154.16L158.94,153.63L160.02,152.06L162.16,151.01L163.24,150.48L169.68,150.48L170.76,149.43L173.98,148.38L175.05,148.38L180.42,147.86L181.5,146.81L187.94,146.81L189.01,145.76L199.75,145.23L200.83,144.18L201.9,144.18L202.97,143.13L209.42,142.61L210.49,142.09L211.57,142.09L212.64,141.04L213.71,139.99L214.79,139.99L218.01,138.94L219.08,138.94L220.16,138.41L221.23,136.84L224.45,136.84L225.53,135.26L231.97,134.74L233.04,134.21L236.27,133.16L237.34,133.16L245.93,132.64L247.01,131.06L249.15,130.54L250.23,128.44L254.52,128.44L255.6,127.39L256.67,127.39L257.74,126.34L262.04,125.82L263.11,125.29L265.26,124.24L266.34,124.24L276,123.72L277.08,123.19L278.15,121.09L279.22,121.09L287.81,120.57L288.89,120.04L292.11,119.52L293.18,117.42L297.48,116.89L298.55,115.32L300.7,114.79L301.78,113.74L302.85,113.74" style="vector-effect: non-scaling-stroke; fill: none; stroke: rgb(145, 30, 180); stroke-opacity: 1; stroke-width: 2px; opacity: 1;"/></g><g class="points"/><g class="text"/></g></g></g><g class="overplot"/><path class="xlines-above crisp" d="M0,0" style="fill: none;"/><path class="ylines-above crisp" d="M0,0" style="fill: none;"/><g class="overlines-above"/><g class="xaxislayer-above"><g class="x2tick"><text text-anchor="middle" x="0" y="383" transform="translate(492.03000000000003,0)" style="font-family: 'Open Sans', verdana, arial, sans-serif; font-size: 12px; fill: rgb(242, 245, 250); fill-opacity: 1; white-space: pre;">Mar 2020</text></g><g class="x2tick"><text text-anchor="middle" x="0" y="383" transform="translate(557.5400000000001,0)" style="font-family: 'Open Sans', verdana, arial, sans-serif; font-size: 12px; fill: rgb(242, 245, 250); fill-opacity: 1; white-space: pre;">May 2020</text></g><g class="x2tick"><text text-anchor="middle" x="0" y="383" transform="translate(623.0500000000001,0)" style="font-family: 'Open Sans', verdana, arial, sans-serif; font-size: 12px; fill: rgb(242, 245, 250); fill-opacity: 1; white-space: pre;">Jul 2020</text></g><g class="x2tick"><text text-anchor="middle" x="0" y="383" transform="translate(689.6400000000001,0)" style="font-family: 'Open Sans', verdana, arial, sans-serif; font-size: 12px; fill: rgb(242, 245, 250); fill-opacity: 1; white-space: pre;">Sep 2020</text></g></g><g class="yaxislayer-above"><g class="y2tick"><text text-anchor="end" x="449.15000000000003" y="4.199999999999999" transform="translate(0,356.5)" style="font-family: 'Open Sans', verdana, arial, sans-serif; font-size: 12px; fill: rgb(242, 245, 250); fill-opacity: 1; white-space: pre;">0</text></g><g class="y2tick"><text text-anchor="end" x="449.15000000000003" y="4.199999999999999" transform="translate(0,304.02)" style="font-family: 'Open Sans', verdana, arial, sans-serif; font-size: 12px; fill: rgb(242, 245, 250); fill-opacity: 1; white-space: pre;">100</text></g><g class="y2tick"><text text-anchor="end" x="449.15000000000003" y="4.199999999999999" transform="translate(0,251.53)" style="font-family: 'Open Sans', verdana, arial, sans-serif; font-size: 12px; fill: rgb(242, 245, 250); fill-opacity: 1; white-space: pre;">200</text></g><g class="y2tick"><text text-anchor="end" x="449.15000000000003" y="4.199999999999999" transform="translate(0,199.05)" style="font-family: 'Open Sans', verdana, arial, sans-serif; font-size: 12px; fill: rgb(242, 245, 250); fill-opacity: 1; white-space: pre;">300</text></g><g class="y2tick"><text text-anchor="end" x="449.15000000000003" y="4.199999999999999" transform="translate(0,146.56)" style="font-family: 'Open Sans', verdana, arial, sans-serif; font-size: 12px; fill: rgb(242, 245, 250); fill-opacity: 1; white-space: pre;">400</text></g></g><g class="overaxes-above"/></g></g><g class="polarlayer"/><g class="ternarylayer"/><g class="geolayer"/><g class="funnelarealayer"/><g class="pielayer"/><g class="treemaplayer"/><g class="sunburstlayer"/><g class="glimages"/><defs id="topdefs-5b8491"><g class="clips"/><clipPath id="legend5b8491"><rect width="122" height="124" x="0" y="0"/></clipPath></defs><g class="layer-above"><g class="imagelayer"/><g class="shapelayer"/></g><g class="infolayer"><g class="legend" pointer-events="all" transform="translate(766.46, 100)"><rect class="bg" shape-rendering="crispEdges" width="122" height="124" x="0" y="0" style="stroke: rgb(68, 68, 68); stroke-opacity: 1; fill: rgb(17, 17, 17); fill-opacity: 1; stroke-width: 0px;"/><g class="scrollbox" transform="translate(0, 0)" clip-path="url('#legend5b8491')"><g class="groups"><g class="traces" transform="translate(0, 14.5)" style="opacity: 1;"><text class="legendtext user-select-none" text-anchor="start" x="40" y="4.680000000000001" style="font-family: 'Open Sans', verdana, arial, sans-serif; font-size: 12px; fill: rgb(242, 245, 250); fill-opacity: 1; white-space: pre;">Alameda, CA</text><g class="layers" style="opacity: 1;"><g class="legendfill"/><g class="legendlines"><path class="js-line" d="M5,0h30" style="fill: none; stroke: rgb(230, 25, 75); stroke-opacity: 1; stroke-width: 2px;"/></g><g class="legendsymbols"><g class="legendpoints"/></g></g><rect class="legendtoggle" pointer-events="all" x="0" y="-9.5" width="116.71875" height="19" style="cursor: pointer; fill: rgb(0, 0, 0); fill-opacity: 0;"/></g><g class="traces" transform="translate(0, 33.5)" style="opacity: 1;"><text class="legendtext user-select-none" text-anchor="start" x="40" y="4.680000000000001" style="font-family: 'Open Sans', verdana, arial, sans-serif; font-size: 12px; fill: rgb(242, 245, 250); fill-opacity: 1; white-space: pre;">Franklin, TN</text><g class="layers" style="opacity: 1;"><g class="legendfill"/><g class="legendlines"><path class="js-line" d="M5,0h30" style="fill: none; stroke: rgb(60, 180, 75); stroke-opacity: 1; stroke-width: 2px;"/></g><g class="legendsymbols"><g class="legendpoints"/></g></g><rect class="legendtoggle" pointer-events="all" x="0" y="-9.5" width="116.71875" height="19" style="cursor: pointer; fill: rgb(0, 0, 0); fill-opacity: 0;"/></g><g class="traces" transform="translate(0, 52.5)" style="opacity: 1;"><text class="legendtext user-select-none" text-anchor="start" x="40" y="4.680000000000001" style="font-family: 'Open Sans', verdana, arial, sans-serif; font-size: 12px; fill: rgb(242, 245, 250); fill-opacity: 1; white-space: pre;">Arapahoe, CO</text><g class="layers" style="opacity: 1;"><g class="legendfill"/><g class="legendlines"><path class="js-line" d="M5,0h30" style="fill: none; stroke: rgb(255, 225, 25); stroke-opacity: 1; stroke-width: 2px;"/></g><g class="legendsymbols"><g class="legendpoints"/></g></g><rect class="legendtoggle" pointer-events="all" x="0" y="-9.5" width="116.71875" height="19" style="cursor: pointer; fill: rgb(0, 0, 0); fill-opacity: 0;"/></g><g class="traces" transform="translate(0, 71.5)" style="opacity: 1;"><text class="legendtext user-select-none" text-anchor="start" x="40" y="4.680000000000001" style="font-family: 'Open Sans', verdana, arial, sans-serif; font-size: 12px; fill: rgb(242, 245, 250); fill-opacity: 1; white-space: pre;">Shelby, IN</text><g class="layers" style="opacity: 1;"><g class="legendfill"/><g class="legendlines"><path class="js-line" d="M5,0h30" style="fill: none; stroke: rgb(67, 99, 216); stroke-opacity: 1; stroke-width: 2px;"/></g><g class="legendsymbols"><g class="legendpoints"/></g></g><rect class="legendtoggle" pointer-events="all" x="0" y="-9.5" width="116.71875" height="19" style="cursor: pointer; fill: rgb(0, 0, 0); fill-opacity: 0;"/></g><g class="traces" transform="translate(0, 90.5)" style="opacity: 1;"><text class="legendtext user-select-none" text-anchor="start" x="40" y="4.680000000000001" style="font-family: 'Open Sans', verdana, arial, sans-serif; font-size: 12px; fill: rgb(242, 245, 250); fill-opacity: 1; white-space: pre;">St Clair, IL</text><g class="layers" style="opacity: 1;"><g class="legendfill"/><g class="legendlines"><path class="js-line" d="M5,0h30" style="fill: none; stroke: rgb(245, 130, 49); stroke-opacity: 1; stroke-width: 2px;"/></g><g class="legendsymbols"><g class="legendpoints"/></g></g><rect class="legendtoggle" pointer-events="all" x="0" y="-9.5" width="116.71875" height="19" style="cursor: pointer; fill: rgb(0, 0, 0); fill-opacity: 0;"/></g><g class="traces" transform="translate(0, 109.5)" style="opacity: 1;"><text class="legendtext user-select-none" text-anchor="start" x="40" y="4.680000000000001" style="font-family: 'Open Sans', verdana, arial, sans-serif; font-size: 12px; fill: rgb(242, 245, 250); fill-opacity: 1; white-space: pre;">Summit, OH</text><g class="layers" style="opacity: 1;"><g class="legendfill"/><g class="legendlines"><path class="js-line" d="M5,0h30" style="fill: none; stroke: rgb(145, 30, 180); stroke-opacity: 1; stroke-width: 2px;"/></g><g class="legendsymbols"><g class="legendpoints"/></g></g><rect class="legendtoggle" pointer-events="all" x="0" y="-9.5" width="116.71875" height="19" style="cursor: pointer; fill: rgb(0, 0, 0); fill-opacity: 0;"/></g></g></g><rect class="scrollbar" rx="20" ry="3" width="0" height="0" x="0" y="0" style="fill: rgb(128, 139, 164); fill-opacity: 1;"/></g><g class="g-gtitle"/><g class="g-xtitle"><text class="xtitle" x="231.425" y="410.8" text-anchor="middle" style="font-family: 'Open Sans', verdana, arial, sans-serif; font-size: 14px; fill: rgb(242, 245, 250); opacity: 1; font-weight: normal; white-space: pre;">Date</text></g><g class="g-x2title"><text class="x2title" x="601.575" y="410.8" text-anchor="middle" style="font-family: 'Open Sans', verdana, arial, sans-serif; font-size: 14px; fill: rgb(242, 245, 250); opacity: 1; font-weight: normal; white-space: pre;">Date</text></g><g class="g-ytitle"><text class="ytitle" transform="rotate(-90,34.840625,235)" x="34.840625" y="235" text-anchor="middle" style="font-family: 'Open Sans', verdana, arial, sans-serif; font-size: 14px; fill: rgb(242, 245, 250); opacity: 1; font-weight: normal; white-space: pre;">Cases</text></g><g class="g-y2title"><text class="y2title" transform="rotate(-90,404.325,235)" x="404.325" y="235" text-anchor="middle" style="font-family: 'Open Sans', verdana, arial, sans-serif; font-size: 14px; fill: rgb(242, 245, 250); opacity: 1; font-weight: normal; white-space: pre;">Deaths</text></g><g class="annotation" data-index="0" style="opacity: 1;"><g class="annotation-text-g" transform="rotate(0,231.425,89.5)"><g class="cursor-pointer" transform="translate(207, 79)"><rect class="bg" x="0.5" y="0.5" width="48" height="20" style="stroke-width: 1px; stroke: rgb(0, 0, 0); stroke-opacity: 0; fill: rgb(0, 0, 0); fill-opacity: 0;"/><text class="annotation-text" text-anchor="middle" x="24.6875" y="16" style="font-family: 'Open Sans', verdana, arial, sans-serif; font-size: 16px; fill: rgb(242, 245, 250); fill-opacity: 1; white-space: pre;">Cases</text></g></g></g><g class="annotation" data-index="1" style="opacity: 1;"><g class="annotation-text-g" transform="rotate(0,601.575,89.5)"><g class="cursor-pointer" transform="translate(574, 79)"><rect class="bg" x="0.5" y="0.5" width="54" height="20" style="stroke-width: 1px; stroke: rgb(0, 0, 0); stroke-opacity: 0; fill: rgb(0, 0, 0); fill-opacity: 0;"/><text class="annotation-text" text-anchor="middle" x="27.359375" y="16" style="font-family: 'Open Sans', verdana, arial, sans-serif; font-size: 16px; fill: rgb(242, 245, 250); fill-opacity: 1; white-space: pre;">Deaths</text></g></g></g></g></svg>