<svg class="main-svg" xmlns="http://www.w3.org/2000/svg" xmlns:xlink="http://www.w3.org/1999/xlink" width="900" height="450" style="" viewBox="0 0 900 450"><rect x="0" y="0" width="900" height="450" style="fill: rgb(17, 17, 17); fill-opacity: 1;"/><defs id="defs-bb93e7"><g class="clips"><clipPath id="clipbb93e7xyplot" class="plotclip"><rect width="303.75" height="270"/></clipPath><clipPath id="clipbb93e7x2y2plot" class="plotclip"><rect width="303.74999999999994" height="270"/></clipPath><clipPath class="axesclip" id="clipbb93e7x"><rect x="80" y="0" width="303.75" height="450"/></clipPath><clipPath class="axesclip" id="clipbb93e7y"><rect x="0" y="100" width="900" height="270"/></clipPath><clipPath class="axesclip" id="clipbb93e7xy"><rect x="80" y="100" width="303.75" height="270"/></clipPath><clipPath class="axesclip" id="clipbb93e7y2"><rect x="0" y="100" width="900" height="270"/></clipPath><clipPath class="axesclip" id="clipbb93e7xy2"><rect x="80" y="100" width="303.75" height="270"/></clipPath><clipPath class="axesclip" id="clipbb93e7x2"><rect x="451.25000000000006" y="0" width="303.74999999999994" height="450"/></clipPath><clipPath class="axesclip" id="clipbb93e7x2y"><rect x="451.25000000000006" y="100" width="303.74999999999994" height="270"/></clipPath><clipPath class="axesclip" id="clipbb93e7x2y2"><rect x="451.25000000000006" y="100" width="303.74999999999994" height="270"/></clipPath></g><g class="gradients"/></defs><g class="bglayer"/><g class="layer-below"><g class="imagelayer"/><g class="shapelayer"/></g><g class="cartesianlayer"><g class="subplot xy"><g class="layer-subplot"><g class="shapelayer"/><g class="imagelayer"/></g><g class="gridlayer"><g class="x"><path class="xgrid crisp" transform="translate(124.7,0)" d="M0,100v270" style="stroke: rgb(40, 52, 66); stroke-opacity: 1; stroke-width: 1px;"/><path class="xgrid crisp" transform="translate(194.62,0)" d="M0,100v270" style="stroke: rgb(40, 52, 66); stroke-opacity: 1; stroke-width: 1px;"/><path class="xgrid crisp" transform="translate(264.53999999999996,0)" d="M0,100v270" style="stroke: rgb(40, 52, 66); stroke-opacity: 1; stroke-width: 1px;"/><path class="xgrid crisp" transform="translate(335.61,0)" d="M0,100v270" style="stroke: rgb(40, 52, 66); stroke-opacity: 1; stroke-width: 1px;"/></g><g class="y"><path class="ygrid crisp" transform="translate(0,301.96000000000004)" d="M80,0h303.75" style="stroke: rgb(40, 52, 66); stroke-opacity: 1; stroke-width: 1px;"/><path class="ygrid crisp" transform="translate(0,247.43)" d="M80,0h303.75" style="stroke: rgb(40, 52, 66); stroke-opacity: 1; stroke-width: 1px;"/><path class="ygrid crisp" transform="translate(0,192.89)" d="M80,0h303.75" style="stroke: rgb(40, 52, 66); stroke-opacity: 1; stroke-width: 1px;"/><path class="ygrid crisp" transform="translate(0,138.36)" d="M80,0h303.75" style="stroke: rgb(40, 52, 66); stroke-opacity: 1; stroke-width: 1px;"/></g></g><g class="zerolinelayer"><path class="yzl zl crisp" transform="translate(0,356.5)" d="M80,0h303.75" style="stroke: rgb(40, 52, 66); stroke-opacity: 1; stroke-width: 2px;"/></g><path class="xlines-below"/><path class="ylines-below"/><g class="overlines-below"/><g class="xaxislayer-below"/><g class="yaxislayer-below"/><g class="overaxes-below"/><g class="plot" transform="translate(80, 100)" clip-path="url('#clipbb93e7xyplot')"><g class="scatterlayer mlayer"><g class="trace scatter tracef8fa92" style="stroke-miterlimit: 2; opacity: 1;"><g class="fills"/><g class="errorbars"/><g class="lines"><path class="js-line" d="M0,256.5L67.63,255.79L68.77,255.34L74.5,254.1L75.65,253.71L80.24,252.58L81.38,252.18L93.99,246.86L95.14,246.86L99.72,244.35L100.87,243.8L104.31,242.54L105.45,241.78L111.18,239.78L112.33,239.4L120.35,236.18L121.5,235.59L134.11,229.7L135.25,228.99L137.55,228.04L138.69,226.96L145.57,222.72L146.72,221.65L151.3,218.16L152.45,217.8L158.18,213.47L159.33,213.04L161.62,211.57L162.76,210.52L168.5,207.06L169.64,205.91L173.08,204.09L174.23,201.89L179.96,195.33L181.1,194.66L182.25,193.65L183.4,191.45L186.83,185.91L187.98,184.99L189.13,181.73L190.27,181.38L191.42,181.38L192.57,177.48L196,172.24L197.15,172.24L200.59,164.03L201.74,162.4L205.17,155.75L206.32,155.54L207.47,154.16L208.61,151.32L212.05,143.83L213.2,143.39L214.34,142.65L215.49,140.52L216.64,139L217.78,135.09L218.93,135.09L220.08,131.24L221.22,130.81L222.37,127.29L223.51,126.61L224.66,124.13L228.1,124.13L229.25,112.54L230.39,112.33L231.54,107.46L232.68,102.72L233.83,101.3L234.98,97.71L236.12,97.71L237.27,91.55L238.42,91.48L244.15,74.43L245.29,74.1L246.44,73.99L247.58,68.08L248.73,66.88L249.88,64.31L251.02,61.84L252.17,61.84L260.19,47.84L261.34,47.84L262.49,45.45L263.63,45.45L265.92,41.52L267.07,40.33L268.22,40.14L269.36,38.46L273.95,36.59L275.09,34.39L277.39,32.27L278.53,31.37L285.41,25.39L286.56,24.83L294.58,19.31L295.73,18.63L299.17,17.18L300.31,15.76L303.75,13.5" style="vector-effect: non-scaling-stroke; fill: none; stroke: rgb(230, 25, 75); stroke-opacity: 1; stroke-width: 2px; opacity: 1;"/></g><g class="points"/><g class="text"/></g><g class="trace scatter traceb307c1" style="stroke-miterlimit: 2; opacity: 1;"><g class="fills"/><g class="errorbars"/><g class="lines"><path class="js-line" d="M0,256.5L106.6,255.82L107.75,255.74L143.28,252.98L144.42,252.96L184.54,250.73L185.69,250.18L193.71,247.47L194.86,246.78L205.17,243.67L206.32,243.5L232.68,237.81L233.83,237.66L264.78,232.14L265.92,231.75L273.95,229.17L275.09,228.03L286.56,220.43L287.7,220.03L294.58,215.81L295.73,215.59L302.6,210.97L303.75,210.68" style="vector-effect: non-scaling-stroke; fill: none; stroke: rgb(60, 180, 75); stroke-opacity: 1; stroke-width: 2px; opacity: 1;"/></g><g class="points"/><g class="text"/></g><g class="trace scatter trace78e0fe" style="stroke-miterlimit: 2; opacity: 1;"><g class="fills"/><g class="errorbars"/><g class="lines"><path class="js-line" d="M0,256.5L79.09,255.94L80.24,255.73L89.41,254.26L90.55,253.88L104.31,251.33L105.45,250.97L118.06,248.56L119.21,248.41L137.55,245.94L138.69,245.89L171.93,243.53L173.08,243.49L201.74,240.3L202.88,240.02L206.32,239.22L207.47,239.03L223.51,235.96L224.66,235.69L254.46,228.93L255.61,228.81L277.39,225.27L278.53,225.13L286.56,224.09L287.7,223.88L302.6,221.51L303.75,221.06" style="vector-effect: non-scaling-stroke; fill: none; stroke: rgb(255, 225, 25); stroke-opacity: 1; stroke-width: 2px; opacity: 1;"/></g><g class="points"/><g class="text"/></g><g class="trace scatter trace1f845c" style="stroke-miterlimit: 2; opacity: 1;"><g class="fills"/><g class="errorbars"/><g class="lines"><path class="js-line" d="M0,256.5L98.58,255.78L99.72,255.73L144.42,254.35L145.57,254.3L187.98,252.2L189.13,252.14L249.88,243.19L251.02,242.91L267.07,240.54L268.22,240.35L288.85,237.26L290,237.1L300.31,234.9L301.46,234.52L303.75,233.69" style="vector-effect: non-scaling-stroke; fill: none; stroke: rgb(67, 99, 216); stroke-opacity: 1; stroke-width: 2px; opacity: 1;"/></g><g class="points"/><g class="text"/></g><g class="trace scatter tracea86a34" style="stroke-miterlimit: 2; opacity: 1;"><g class="fills"/><g class="errorbars"/><g class="lines"><path class="js-line" d="M0,256.5L82.53,255.75L83.67,255.69L97.43,254.49L98.58,254.14L120.35,253.36L121.5,253.32L160.47,251.92L161.62,251.84L175.37,250.93L176.52,250.8L182.25,249.06L183.4,248.72L185.69,247.76L186.83,247L196,241.2L197.15,240.05L200.59,238.6L201.74,236.97L206.32,233.19L207.47,232.54L212.05,229.53L213.2,228.82L217.78,226.42L218.93,225.87L225.81,222.58L226.95,221.75L230.39,220.53L231.54,220.21L234.98,219.54L236.12,218.98L246.44,216.25L247.58,215.77L251.02,214.35L252.17,213.85L253.32,213.31L254.46,211.87L262.49,209.8L263.63,209.8L265.92,209.51L267.07,208.39L269.36,206.57L270.51,206.4L273.95,205.54L275.09,204.99L287.7,200.58L288.85,200.32L294.58,198.65L295.73,198.38L303.75,196.13" style="vector-effect: non-scaling-stroke; fill: none; stroke: rgb(245, 130, 49); stroke-opacity: 1; stroke-width: 2px; opacity: 1;"/></g><g class="points"/><g class="text"/></g><g class="trace scatter trace66e8b8" style="stroke-miterlimit: 2; opacity: 1;"><g class="fills"/><g class="errorbars"/><g class="lines"><path class="js-line" d="M0,256.5L75.65,255.8L76.8,255.74L82.53,254.9L83.67,254.78L92.84,254.21L93.99,254L152.45,250.52L153.59,250.23L185.69,248.31L186.83,248.05L196,245.33L197.15,245.05L199.44,244.41L200.59,244.01L206.32,241.52L207.47,241.32L214.34,239.19L215.49,238.84L222.37,237.35L223.51,237.3L234.98,234.72L236.12,234.3L241.85,233.2L243,232.78L268.22,229.13L269.36,228.98L276.24,227.88L277.39,227.66L283.12,226.68L284.26,226.45L303.75,223.43" style="vector-effect: non-scaling-stroke; fill: none; stroke: rgb(145, 30, 180); stroke-opacity: 1; stroke-width: 2px; opacity: 1;"/></g><g class="points"/><g class="text"/></g></g></g><g class="overplot"/><path class="xlines-above crisp" d="M0,0" style="fill: none;"/><path class="ylines-above crisp" d="M0,0" style="fill: none;"/><g class="overlines-above"/><g class="xaxislayer-above"><g class="xtick"><text text-anchor="middle" x="0" y="383" transform="translate(124.7,0)" style="font-family: 'Open Sans', verdana, arial, sans-serif; font-size: 12px; fill: rgb(242, 245, 250); fill-opacity: 1; white-space: pre;">Mar 2020</text></g><g class="xtick"><text text-anchor="middle" x="0" y="383" transform="translate(194.62,0)" style="font-family: 'Open Sans', verdana, arial, sans-serif; font-size: 12px; fill: rgb(242, 245, 250); fill-opacity: 1; white-space: pre;">May 2020</text></g><g class="xtick"><text text-anchor="middle" x="0" y="383" transform="translate(264.53999999999996,0)" style="font-family: 'Open Sans', verdana, arial, sans-serif; font-size: 12px; fill: rgb(242, 245, 250); fill-opacity: 1; white-space: pre;">Jul 2020</text></g><g class="xtick"><text text-anchor="middle" x="0" y="383" transform="translate(335.61,0)" style="font-family: 'Open Sans', verdana, arial, sans-serif; font-size: 12px; fill: rgb(242, 245, 250); fill-opacity: 1; white-space: pre;">Sep 2020</text></g></g><g class="yaxislayer-above"><g class="ytick"><text text-anchor="end" x="79" y="4.199999999999999" transform="translate(0,356.5)" style="font-family: 'Open Sans', verdana, arial, sans-serif; font-size: 12px; fill: rgb(242, 245, 250); fill-opacity: 1; white-space: pre;">0</text></g><g class="ytick"><text text-anchor="end" x="79" y="4.199999999999999" transform="translate(0,301.96000000000004)" style="font-family: 'Open Sans', verdana, arial, sans-serif; font-size: 12px; fill: rgb(242, 245, 250); fill-opacity: 1; white-space: pre;">5k</text></g><g class="ytick"><text text-anchor="end" x="79" y="4.199999999999999" transform="translate(0,247.43)" style="font-family: 'Open Sans', verdana, arial, sans-serif; font-size: 12px; fill: rgb(242, 245, 250); fill-opacity: 1; white-space: pre;">10k</text></g><g class="ytick"><text text-anchor="end" x="79" y="4.199999999999999" transform="translate(0,192.89)" style="font-family: 'Open Sans', verdana, arial, sans-serif; font-size: 12px; fill: rgb(242, 245, 250); fill-opacity: 1; white-space: pre;">15k</text></g><g class="ytick"><text text-anchor="end" x="79" y="4.199999999999999" transform="translate(0,138.36)" style="font-family: 'Open Sans', verdana, arial, sans-serif; font-size: 12px; fill: rgb(242, 245, 250); fill-opacity: 1; white-space: pre;">20k</text></g></g><g class="overaxes-above"/></g><g class="subplot x2y2"><g class="layer-subplot"><g class="shapelayer"/><g class="imagelayer"/></g><g class="gridlayer"><g class="x2"><path class="x2grid crisp" transform="translate(495.95000000000005,0)" d="M0,100v270" style="stroke: rgb(40, 52, 66); stroke-opacity: 1; stroke-width: 1px;"/><path class="x2grid crisp" transform="translate(565.8700000000001,0)" d="M0,100v270" style="stroke: rgb(40, 52, 66); stroke-opacity: 1; stroke-width: 1px;"/><path class="x2grid crisp" transform="translate(635.7900000000001,0)" d="M0,100v270" style="stroke: rgb(40, 52, 66); stroke-opacity: 1; stroke-width: 1px;"/><path class="x2grid crisp" transform="translate(706.8600000000001,0)" d="M0,100v270" style="stroke: rgb(40, 52, 66); stroke-opacity: 1; stroke-width: 1px;"/></g><g class="y2"><path class="y2grid crisp" transform="translate(0,300.12)" d="M451.25000000000006,0h303.74999999999994" style="stroke: rgb(40, 52, 66); stroke-opacity: 1; stroke-width: 1px;"/><path class="y2grid crisp" transform="translate(0,243.74)" d="M451.25000000000006,0h303.74999999999994" style="stroke: rgb(40, 52, 66); stroke-opacity: 1; stroke-width: 1px;"/><path class="y2grid crisp" transform="translate(0,187.36)" d="M451.25000000000006,0h303.74999999999994" style="stroke: rgb(40, 52, 66); stroke-opacity: 1; stroke-width: 1px;"/><path class="y2grid crisp" transform="translate(0,130.98)" d="M451.25000000000006,0h303.74999999999994" style="stroke: rgb(40, 52, 66); stroke-opacity: 1; stroke-width: 1px;"/></g></g><g class="zerolinelayer"><path class="y2zl zl crisp" transform="translate(0,356.5)" d="M451.25000000000006,0h303.74999999999994" style="stroke: rgb(40, 52, 66); stroke-opacity: 1; stroke-width: 2px;"/></g><path class="xlines-below"/><path class="ylines-below"/><g class="overlines-below"/><g class="xaxislayer-below"/><g class="yaxislayer-below"/><g class="overaxes-below"/><g class="plot" transform="translate(451.25000000000006, 100)" clip-path="url('#clipbb93e7x2y2plot')"><g class="scatterlayer mlayer"><g class="trace scatter trace26118f" style="stroke-miterlimit: 2; opacity: 1;"><g class="fills"/><g class="errorbars"/><g class="lines"><path class="js-line" d="M0,256.5L69.92,255.94L71.07,255.37L72.21,255.37L73.36,254.24L74.5,254.24L75.65,253.12L77.94,252.55L79.09,252.55L81.38,251.43L82.53,249.73L85.97,249.17L87.11,248.04L89.41,246.92L90.55,245.22L93.99,243.53L95.14,243.53L96.28,236.2L97.43,234.51L98.58,234.51L99.72,233.38L105.45,230.56L106.6,229.44L107.75,227.18L108.89,227.18L110.04,227.18L111.18,225.49L115.77,220.98L116.92,220.98L118.06,220.98L119.21,219.29L121.5,218.73L122.65,217.03L124.94,216.47L126.08,216.47L130.67,210.27L131.82,209.7L134.11,209.7L135.25,208.01L137.55,205.76L138.69,205.76L140.99,204.07L142.13,204.07L145.57,203.5L146.72,202.94L150.16,202.37L151.3,201.81L153.59,201.81L154.74,199.56L159.33,198.99L160.47,197.3L162.76,195.05L163.91,195.05L165.06,193.35L166.2,193.35L167.35,193.35L168.5,191.1L171.93,189.97L173.08,189.97L174.23,188.84L175.37,188.84L176.52,187.72L177.67,184.33L178.81,183.21L179.96,183.21L181.1,181.51L182.25,181.51L186.83,177.57L187.98,177.57L191.42,177.57L192.57,176.44L193.71,174.18L194.86,173.62L197.15,173.06L198.3,173.06L200.59,169.67L201.74,169.67L202.88,165.73L204.03,165.16L206.32,165.16L207.47,162.34L210.91,156.14L212.05,156.14L214.34,156.14L215.49,154.45L218.93,153.89L220.08,149.94L222.37,149.94L223.51,148.25L225.81,147.69L226.95,147.69L228.1,147.69L229.25,140.92L231.54,140.92L232.68,136.97L234.98,133.03L236.12,133.03L237.27,131.9L238.42,131.9L243,125.13L244.15,125.13L246.44,124.57L247.58,121.19L251.02,117.24L252.17,117.24L253.32,111.6L254.46,111.6L255.61,111.6L256.75,102.02L257.9,90.18L259.05,89.61L260.19,87.92L261.34,87.92L263.63,87.36L264.78,85.67L265.92,85.67L267.07,76.08L268.22,76.08L269.36,69.32L270.51,68.75L271.66,55.79L272.8,55.79L273.95,50.71L276.24,45.64L277.39,45.64L278.53,45.64L279.68,36.62L283.12,28.72L284.26,27.6L286.56,27.6L287.7,26.47L288.85,24.21L290,19.7L291.14,19.7L292.29,16.88L294.58,16.88L295.73,15.76L296.87,13.5L298.02,13.5L303.75,13.5" style="vector-effect: non-scaling-stroke; fill: none; stroke: rgb(230, 25, 75); stroke-opacity: 1; stroke-width: 2px; opacity: 1;"/></g><g class="points"/><g class="text"/></g><g class="trace scatter trace81f437" style="stroke-miterlimit: 2; opacity: 1;"><g class="fills"/><g class="errorbars"/><g class="lines"><path class="js-line" d="M0,256.5L108.89,255.94L110.04,255.37L112.33,254.81L113.48,254.24L121.5,253.68L122.65,253.12L127.23,252.55L128.38,251.43L130.67,250.86L131.82,250.86L136.4,250.3L137.55,249.17L138.69,247.48L139.84,247.48L145.57,246.92L146.72,246.35L150.16,246.35L151.3,245.22L153.59,244.66L154.74,244.66L194.86,244.1L196,243.53L209.76,242.97L210.91,241.84L216.64,241.84L217.78,240.71L223.51,240.15L224.66,239.02L239.56,239.02L240.71,237.89L244.15,236.77L245.29,236.77L264.78,236.2L265.92,235.64L272.8,235.08L273.95,233.95L287.7,233.38L288.85,232.82L292.29,231.69L293.43,231.69L294.58,231.69L295.73,230.56L298.02,230L299.17,230L302.6,229.44L303.75,228.31" style="vector-effect: non-scaling-stroke; fill: none; stroke: rgb(60, 180, 75); stroke-opacity: 1; stroke-width: 2px; opacity: 1;"/></g><g class="points"/><g class="text"/></g><g class="trace scatter trace522eba" style="stroke-miterlimit: 2; opacity: 1;"><g class="fills"/><g class="errorbars"/><g class="lines"><path class="js-line" d="M0,256.5L84.82,256.5L85.97,255.37L87.11,254.81L88.26,253.12L91.7,251.43L92.84,251.43L93.99,251.43L95.14,246.92L97.43,245.22L98.58,242.97L100.87,242.97L102.01,240.15L107.75,232.26L108.89,232.26L115.77,219.29L116.92,219.29L119.21,217.03L120.35,214.78L121.5,212.52L122.65,211.96L123.79,209.7L124.94,209.7L128.38,205.76L129.52,204.07L131.82,201.81L132.96,201.81L134.11,200.68L135.25,200.68L136.4,200.12L137.55,198.43L143.28,196.17L144.42,196.17L146.72,195.61L147.86,195.61L153.59,195.05L154.74,192.79L158.18,192.79L159.33,191.66L160.47,191.66L161.62,190.53L165.06,190.53L166.2,189.41L168.5,188.84L169.64,188.84L174.23,188.84L175.37,187.72L177.67,187.15L178.81,187.15L215.49,186.59L216.64,185.46L217.78,184.33L218.93,184.33L243,183.77L244.15,183.21L252.17,182.64L253.32,182.08L267.07,181.51L268.22,180.95L269.36,180.95L270.51,179.82L273.95,178.69L275.09,178.69L286.56,178.13L287.7,177.57L294.58,177L295.73,175.88L302.6,175.31L303.75,173.62" style="vector-effect: non-scaling-stroke; fill: none; stroke: rgb(255, 225, 25); stroke-opacity: 1; stroke-width: 2px; opacity: 1;"/></g><g class="points"/><g class="text"/></g><g class="trace scatter tracefe2990" style="stroke-miterlimit: 2; opacity: 1;"><g class="fills"/><g class="errorbars"/><g class="lines"><path class="js-line" d="M0,256.5L100.87,255.94L102.01,255.37L128.38,254.81L129.52,254.24L154.74,253.68L155.89,253.12L204.03,252.55L205.17,251.99L207.47,251.43L208.61,251.43L221.22,250.86L222.37,250.3L241.85,249.73L243,249.17L253.32,248.61L254.46,248.04L265.92,247.48L267.07,246.92L272.8,246.35L273.95,245.79L276.24,245.22L277.39,245.22L280.83,244.66L281.97,243.53L290,242.97L291.14,238.46L295.73,238.46L296.87,237.33L302.6,237.33L303.75,236.2" style="vector-effect: non-scaling-stroke; fill: none; stroke: rgb(67, 99, 216); stroke-opacity: 1; stroke-width: 2px; opacity: 1;"/></g><g class="points"/><g class="text"/></g><g class="trace scatter traceea93d7" style="stroke-miterlimit: 2; opacity: 1;"><g class="fills"/><g class="errorbars"/><g class="lines"><path class="js-line" d="M0,256.5L68.77,255.94L69.92,255.37L72.21,255.37L73.36,254.24L80.24,253.68L81.38,253.12L89.41,252.55L90.55,251.99L99.72,251.43L100.87,250.3L105.45,249.73L106.6,249.17L111.18,248.61L112.33,248.04L114.62,247.48L115.77,246.35L124.94,245.79L126.08,244.66L128.38,244.1L129.52,244.1L132.96,242.4L134.11,242.4L138.69,242.4L139.84,241.28L150.16,240.71L151.3,239.59L152.45,238.46L153.59,238.46L177.67,237.89L178.81,237.33L194.86,236.77L196,236.2L198.3,236.2L199.44,234.51L200.59,232.82L201.74,232.82L207.47,232.26L208.61,231.69L212.05,230L213.2,230L222.37,229.44L223.51,228.87L226.95,228.31L228.1,227.75L231.54,227.18L232.68,226.62L233.83,222.11L234.98,222.11L236.12,219.85L237.27,219.85L238.42,219.85L239.56,217.6L241.85,217.03L243,217.03L246.44,216.47L247.58,215.34L248.73,215.34L249.88,214.21L254.46,213.65L255.61,213.09L256.75,213.09L257.9,211.96L263.63,211.96L264.78,210.83L265.92,210.83L267.07,208.58L269.36,208.01L270.51,208.01L273.95,205.19L275.09,205.19L279.68,205.19L280.83,202.94L283.12,201.25L284.26,200.12L288.85,200.12L290,198.43L291.14,197.3L292.29,197.3L294.58,197.3L295.73,196.17L296.87,196.17L298.02,194.48L303.75,193.92" style="vector-effect: non-scaling-stroke; fill: none; stroke: rgb(245, 130, 49); stroke-opacity: 1; stroke-width: 2px; opacity: 1;"/></g><g class="points"/><g class="text"/></g><g class="trace scatter trace14a567" style="stroke-miterlimit: 2; opacity: 1;"><g class="fills"/><g class="errorbars"/><g class="lines"><path class="js-line" d="M0,256.5L79.09,255.94L80.24,255.37L84.82,255.37L85.97,254.24L93.99,253.68L95.14,253.12L99.72,251.43L100.87,251.43L102.01,250.3L103.16,250.3L108.89,250.3L110.04,249.17L116.92,248.61L118.06,248.04L121.5,247.48L122.65,246.92L124.94,246.92L126.08,245.79L132.96,245.22L134.11,244.66L136.4,244.1L137.55,242.97L151.3,242.97L152.45,240.71L157.03,240.71L158.18,238.46L159.33,237.89L160.47,235.64L166.2,235.64L167.35,234.51L202.88,233.95L204.03,232.82L217.78,232.26L218.93,230.56L221.22,230L222.37,230L225.81,230L226.95,228.87L230.39,228.31L231.54,227.75L233.83,227.18L234.98,227.18L236.12,226.05L237.27,226.05L241.85,225.49L243,224.93L249.88,224.36L251.02,223.8L253.32,222.11L254.46,222.11L257.9,220.98L259.05,220.98L280.83,220.42L281.97,219.85L286.56,218.16L287.7,218.16L292.29,217.6L293.43,217.03L299.17,216.47L300.31,215.91L302.6,215.91L303.75,214.78" style="vector-effect: non-scaling-stroke; fill: none; stroke: rgb(145, 30, 180); stroke-opacity: 1; stroke-width: 2px; opacity: 1;"/></g><g class="points"/><g class="text"/></g></g></g><g class="overplot"/><path class="xlines-above crisp" d="M0,0" style="fill: none;"/><path class="ylines-above crisp" d="M0,0" style="fill: none;"/><g class="overlines-above"/><g class="xaxislayer-above"><g class="x2tick"><text text-anchor="middle" x="0" y="383" transform="translate(495.95000000000005,0)" style="font-family: 'Open Sans', verdana, arial, sans-serif; font-size: 12px; fill: rgb(242, 245, 250); fill-opacity: 1; white-space: pre;">Mar 2020</text></g><g class="x2tick"><text text-anchor="middle" x="0" y="383" transform="translate(565.8700000000001,0)" style="font-family: 'Open Sans', verdana, arial, sans-serif; font-size: 12px; fill: rgb(242, 245, 250); fill-opacity: 1; white-space: pre;">May 2020</text></g><g class="x2tick"><text text-anchor="middle" x="0" y="383" transform="translate(635.7900000000001,0)" style="font-family: 'Open Sans', verdana, arial, sans-serif; font-size: 12px; fill: rgb(242, 245, 250); fill-opacity: 1; white-space: pre;">Jul 2020</text></g><g class="x2tick"><text text-anchor="middle" x="0" y="383" transform="translate(706.8600000000001,0)" style="font-family: 'Open Sans', verdana, arial, sans-serif; font-size: 12px; fill: rgb(242, 245, 250); fill-opacity: 1; white-space: pre;">Sep 2020</text></g></g><g class="yaxislayer-above"><g class="y2tick"><text text-anchor="end" x="450.25000000000006" y="4.199999999999999" transform="translate(0,356.5)" style="font-family: 'Open Sans', verdana, arial, sans-serif; font-size: 12px; fill: rgb(242, 245, 250); fill-opacity: 1; white-space: pre;">0</text></g><g class="y2tick"><text text-anchor="end" x="450.25000000000006" y="4.199999999999999" transform="translate(0,300.12)" style="font-family: 'Open Sans', verdana, arial, sans-serif; font-size: 12px; fill: rgb(242, 245, 250); fill-opacity: 1; white-space: pre;">100</text></g><g class="y2tick"><text text-anchor="end" x="450.25000000000006" y="4.199999999999999" transform="translate(0,243.74)" style="font-family: 'Open Sans', verdana, arial, sans-serif; font-size: 12px; fill: rgb(242, 245, 250); fill-opacity: 1; white-space: pre;">200</text></g><g class="y2tick"><text text-anchor="end" x="450.25000000000006" y="4.199999999999999" transform="translate(0,187.36)" style="font-family: 'Open Sans', verdana, arial, sans-serif; font-size: 12px; fill: rgb(242, 245, 250); fill-opacity: 1; white-space: pre;">300</text></g><g class="y2tick"><text text-anchor="end" x="450.25000000000006" y="4.199999999999999" transform="translate(0,130.98)" style="font-family: 'Open Sans', verdana, arial, sans-serif; font-size: 12px; fill: rgb(242, 245, 250); fill-opacity: 1; white-space: pre;">400</text></g></g><g class="overaxes-above"/></g></g><g class="polarlayer"/><g class="ternarylayer"/><g class="geolayer"/><g class="funnelarealayer"/><g class="pielayer"/><g class="treemaplayer"/><g class="sunburstlayer"/><g class="glimages"/><defs id="topdefs-bb93e7"><g class="clips"/><clipPath id="legendbb93e7"><rect width="119" height="124" x="0" y="0"/></clipPath></defs><g class="layer-above"><g class="imagelayer"/><g class="shapelayer"/></g><g class="infolayer"><g class="legend" pointer-events="all" transform="translate(768.5, 100)"><rect class="bg" shape-rendering="crispEdges" width="119" height="124" x="0" y="0" style="stroke: rgb(68, 68, 68); stroke-opacity: 1; fill: rgb(17, 17, 17); fill-opacity: 1; stroke-width: 0px;"/><g class="scrollbox" transform="translate(0, 0)" clip-path="url('#legendbb93e7')"><g class="groups"><g class="traces" transform="translate(0, 14.5)" style="opacity: 1;"><text class="legendtext user-select-none" text-anchor="start" x="40" y="4.680000000000001" style="font-family: 'Open Sans', verdana, arial, sans-serif; font-size: 12px; fill: rgb(242, 245, 250); fill-opacity: 1; white-space: pre;">Alameda, CA</text><g class="layers" style="opacity: 1;"><g class="legendfill"/><g class="legendlines"><path class="js-line" d="M5,0h30" style="fill: none; stroke: rgb(230, 25, 75); stroke-opacity: 1; stroke-width: 2px;"/></g><g class="legendsymbols"><g class="legendpoints"/></g></g><rect class="legendtoggle" pointer-events="all" x="0" y="-9.5" width="113.359375" height="19" style="cursor: pointer; fill: rgb(0, 0, 0); fill-opacity: 0;"/></g><g class="traces" transform="translate(0, 33.5)" style="opacity: 1;"><text class="legendtext user-select-none" text-anchor="start" x="40" y="4.680000000000001" style="font-family: 'Open Sans', verdana, arial, sans-serif; font-size: 12px; fill: rgb(242, 245, 250); fill-opacity: 1; white-space: pre;">Dubuque, IA</text><g class="layers" style="opacity: 1;"><g class="legendfill"/><g class="legendlines"><path class="js-line" d="M5,0h30" style="fill: none; stroke: rgb(60, 180, 75); stroke-opacity: 1; stroke-width: 2px;"/></g><g class="legendsymbols"><g class="legendpoints"/></g></g><rect class="legendtoggle" pointer-events="all" x="0" y="-9.5" width="113.359375" height="19" style="cursor: pointer; fill: rgb(0, 0, 0); fill-opacity: 0;"/></g><g class="traces" transform="translate(0, 52.5)" style="opacity: 1;"><text class="legendtext user-select-none" text-anchor="start" x="40" y="4.680000000000001" style="font-family: 'Open Sans', verdana, arial, sans-serif; font-size: 12px; fill: rgb(242, 245, 250); fill-opacity: 1; white-space: pre;">Saginaw, MI</text><g class="layers" style="opacity: 1;"><g class="legendfill"/><g class="legendlines"><path class="js-line" d="M5,0h30" style="fill: none; stroke: rgb(255, 225, 25); stroke-opacity: 1; stroke-width: 2px;"/></g><g class="legendsymbols"><g class="legendpoints"/></g></g><rect class="legendtoggle" pointer-events="all" x="0" y="-9.5" width="113.359375" height="19" style="cursor: pointer; fill: rgb(0, 0, 0); fill-opacity: 0;"/></g><g class="traces" transform="translate(0, 71.5)" style="opacity: 1;"><text class="legendtext user-select-none" text-anchor="start" x="40" y="4.680000000000001" style="font-family: 'Open Sans', verdana, arial, sans-serif; font-size: 12px; fill: rgb(242, 245, 250); fill-opacity: 1; white-space: pre;">Clermont, OH</text><g class="layers" style="opacity: 1;"><g class="legendfill"/><g class="legendlines"><path class="js-line" d="M5,0h30" style="fill: none; stroke: rgb(67, 99, 216); stroke-opacity: 1; stroke-width: 2px;"/></g><g class="legendsymbols"><g class="legendpoints"/></g></g><rect class="legendtoggle" pointer-events="all" x="0" y="-9.5" width="113.359375" height="19" style="cursor: pointer; fill: rgb(0, 0, 0); fill-opacity: 0;"/></g><g class="traces" transform="translate(0, 90.5)" style="opacity: 1;"><text class="legendtext user-select-none" text-anchor="start" x="40" y="4.680000000000001" style="font-family: 'Open Sans', verdana, arial, sans-serif; font-size: 12px; fill: rgb(242, 245, 250); fill-opacity: 1; white-space: pre;">Clay, FL</text><g class="layers" style="opacity: 1;"><g class="legendfill"/><g class="legendlines"><path class="js-line" d="M5,0h30" style="fill: none; stroke: rgb(245, 130, 49); stroke-opacity: 1; stroke-width: 2px;"/></g><g class="legendsymbols"><g class="legendpoints"/></g></g><rect class="legendtoggle" pointer-events="all" x="0" y="-9.5" width="113.359375" height="19" style="cursor: pointer; fill: rgb(0, 0, 0); fill-opacity: 0;"/></g><g class="traces" transform="translate(0, 109.5)" style="opacity: 1;"><text class="legendtext user-select-none" text-anchor="start" x="40" y="4.680000000000001" style="font-family: 'Open Sans', verdana, arial, sans-serif; font-size: 12px; fill: rgb(242, 245, 250); fill-opacity: 1; white-space: pre;">Carroll, GA</text><g class="layers" style="opacity: 1;"><g class="legendfill"/><g class="legendlines"><path class="js-line" d="M5,0h30" style="fill: none; stroke: rgb(145, 30, 180); stroke-opacity: 1; stroke-width: 2px;"/></g><g class="legendsymbols"><g class="legendpoints"/></g></g><rect class="legendtoggle" pointer-events="all" x="0" y="-9.5" width="113.359375" height="19" style="cursor: pointer; fill: rgb(0, 0, 0); fill-opacity: 0;"/></g></g></g><rect class="scrollbar" rx="20" ry="3" width="0" height="0" x="0" y="0" style="fill: rgb(128, 139, 164); fill-opacity: 1;"/></g><g class="g-gtitle"/><g class="g-xtitle"><text class="xtitle" x="231.875" y="410.8" text-anchor="middle" style="font-family: 'Open Sans', verdana, arial, sans-serif; font-size: 14px; fill: rgb(242, 245, 250); opacity: 1; font-weight: normal; white-space: pre;">Date</text></g><g class="g-x2title"><text class="x2title" x="603.125" y="410.8" text-anchor="middle" style="font-family: 'Open Sans', verdana, arial, sans-serif; font-size: 14px; fill: rgb(242, 245, 250); opacity: 1; font-weight: normal; white-space: pre;">Date</text></g><g class="g-ytitle"><text class="ytitle" transform="rotate(-90,34.840625,235)" x="34.840625" y="235" text-anchor="middle" style="font-family: 'Open Sans', verdana, arial, sans-serif; font-size: 14px; fill: rgb(242, 245, 250); opacity: 1; font-weight: normal; white-space: pre;">Cases</text></g><g class="g-y2title"><text class="y2title" transform="rotate(-90,405.41875,235)" x="405.41875" y="235" text-anchor="middle" style="font-family: 'Open Sans', verdana, arial, sans-serif; font-size: 14px; fill: rgb(242, 245, 250); opacity: 1; font-weight: normal; white-space: pre;">Deaths</text></g><g class="annotation" data-index="0" style="opacity: 1;"><g class="annotation-text-g" transform="rotate(0,231.875,89.5)"><g class="cursor-pointer" transform="translate(207, 79)"><rect class="bg" x="0.5" y="0.5" width="48" height="20" style="stroke-width: 1px; stroke: rgb(0, 0, 0); stroke-opacity: 0; fill: rgb(0, 0, 0); fill-opacity: 0;"/><text class="annotation-text" text-anchor="middle" x="24.6875" y="16" style="font-family: 'Open Sans', verdana, arial, sans-serif; font-size: 16px; fill: rgb(242, 245, 250); fill-opacity: 1; white-space: pre;">Cases</text></g></g></g><g class="annotation" data-index="1" style="opacity: 1;"><g class="annotation-text-g" transform="rotate(0,603.125,89.5)"><g class="cursor-pointer" transform="translate(576, 79)"><rect class="bg" x="0.5" y="0.5" width="54" height="20" style="stroke-width: 1px; stroke: rgb(0, 0, 0); stroke-opacity: 0; fill: rgb(0, 0, 0); fill-opacity: 0;"/><text class="annotation-text" text-anchor="middle" x="27.359375" y="16" style="font-family: 'Open Sans', verdana, arial, sans-serif; font-size: 16px; fill: rgb(242, 245, 250); fill-opacity: 1; white-space: pre;">Deaths</text></g></g></g></g></svg>