<svg class="main-svg" xmlns="http://www.w3.org/2000/svg" xmlns:xlink="http://www.w3.org/1999/xlink" width="900" height="450" style="" viewBox="0 0 900 450"><rect x="0" y="0" width="900" height="450" style="fill: rgb(17, 17, 17); fill-opacity: 1;"/><defs id="defs-8aab49"><g class="clips"><clipPath id="clip8aab49xyplot" class="plotclip"><rect width="297.45" height="270"/></clipPath><clipPath id="clip8aab49x2y2plot" class="plotclip"><rect width="297.45" height="270"/></clipPath><clipPath class="axesclip" id="clip8aab49x"><rect x="80" y="0" width="297.45" height="450"/></clipPath><clipPath class="axesclip" id="clip8aab49y"><rect x="0" y="100" width="900" height="270"/></clipPath><clipPath class="axesclip" id="clip8aab49xy"><rect x="80" y="100" width="297.45" height="270"/></clipPath><clipPath class="axesclip" id="clip8aab49y2"><rect x="0" y="100" width="900" height="270"/></clipPath><clipPath class="axesclip" id="clip8aab49xy2"><rect x="80" y="100" width="297.45" height="270"/></clipPath><clipPath class="axesclip" id="clip8aab49x2"><rect x="443.55" y="0" width="297.45" height="450"/></clipPath><clipPath class="axesclip" id="clip8aab49x2y"><rect x="443.55" y="100" width="297.45" height="270"/></clipPath><clipPath class="axesclip" id="clip8aab49x2y2"><rect x="443.55" y="100" width="297.45" height="270"/></clipPath></g><g class="gradients"/></defs><g class="bglayer"/><g class="layer-below"><g class="imagelayer"/><g class="shapelayer"/></g><g class="cartesianlayer"><g class="subplot xy"><g class="layer-subplot"><g class="shapelayer"/><g class="imagelayer"/></g><g class="gridlayer"><g class="x"><path class="xgrid crisp" transform="translate(182.55,0)" d="M0,100v270" style="stroke: rgb(40, 52, 66); stroke-opacity: 1; stroke-width: 1px;"/><path class="xgrid crisp" transform="translate(299.74,0)" d="M0,100v270" style="stroke: rgb(40, 52, 66); stroke-opacity: 1; stroke-width: 1px;"/></g><g class="y"><path class="ygrid crisp" transform="translate(0,320.34000000000003)" d="M80,0h297.45" style="stroke: rgb(40, 52, 66); stroke-opacity: 1; stroke-width: 1px;"/><path class="ygrid crisp" transform="translate(0,284.16999999999996)" d="M80,0h297.45" style="stroke: rgb(40, 52, 66); stroke-opacity: 1; stroke-width: 1px;"/><path class="ygrid crisp" transform="translate(0,248.01)" d="M80,0h297.45" style="stroke: rgb(40, 52, 66); stroke-opacity: 1; stroke-width: 1px;"/><path class="ygrid crisp" transform="translate(0,211.85)" d="M80,0h297.45" style="stroke: rgb(40, 52, 66); stroke-opacity: 1; stroke-width: 1px;"/><path class="ygrid crisp" transform="translate(0,175.69)" d="M80,0h297.45" style="stroke: rgb(40, 52, 66); stroke-opacity: 1; stroke-width: 1px;"/><path class="ygrid crisp" transform="translate(0,139.52)" d="M80,0h297.45" style="stroke: rgb(40, 52, 66); stroke-opacity: 1; stroke-width: 1px;"/><path class="ygrid crisp" transform="translate(0,103.36)" d="M80,0h297.45" style="stroke: rgb(40, 52, 66); stroke-opacity: 1; stroke-width: 1px;"/></g></g><g class="zerolinelayer"><path class="yzl zl crisp" transform="translate(0,356.5)" d="M80,0h297.45" style="stroke: rgb(40, 52, 66); stroke-opacity: 1; stroke-width: 2px;"/></g><path class="xlines-below"/><path class="ylines-below"/><g class="overlines-below"/><g class="xaxislayer-below"/><g class="yaxislayer-below"/><g class="overaxes-below"/><g class="plot" transform="translate(80, 100)" clip-path="url('#clip8aab49xyplot')"><g class="scatterlayer mlayer"><g class="trace scatter trace8f8377" style="stroke-miterlimit: 2; opacity: 1;"><g class="fills"/><g class="errorbars"/><g class="lines"><path class="js-line" d="M0,256.5L45.22,255.78L45.86,255.7L50.96,255.04L51.59,254.98L82.16,250.55L82.8,250.37L101.27,246.08L101.91,245.72L108.92,242.53L109.55,242.53L114.01,239.8L114.65,239.76L116.56,238.66L117.2,238.03L121.66,236.37L122.29,235.74L124.2,234.97L124.84,234.56L126.75,234.56L127.39,232.63L128.02,232.6L128.66,231.79L130.57,230.18L131.21,230.18L132.48,229.14L133.12,228.59L135.67,226.32L136.3,226.26L136.94,226.24L137.58,225.26L141.4,223.62L142.04,223.15L144.58,221.91L145.22,221.91L148.41,220.66L149.04,220.63L153.5,219.44L154.14,219.33L184.08,212.35L184.71,211.9L192.99,207.28L193.63,206.89L195.54,206.13L196.18,205.47L196.81,205.47L197.45,204.32L200.64,201.66L201.27,200.48L202.55,199.11L203.18,197.65L203.82,197.51L204.46,195.5L207.64,191.07L208.28,187.4L210.83,183.66L211.46,180.51L212.74,176.93L213.37,175.57L217.2,166.52L217.83,165.36L219.74,161.62L220.38,159.73L222.93,154.46L223.57,153.29L231.85,132.76L232.48,132.13L239.49,122.74L240.13,122.02L245.22,117.24L245.86,116.65L253.5,112.22L254.14,111.94L256.69,110.83L257.32,109.62L265.6,107.42L266.24,107.28L275.79,105.99L276.43,105.99L279.62,104.7L280.25,104.6L294.9,100.29L295.54,100.11L297.45,99.58" style="vector-effect: non-scaling-stroke; fill: none; stroke: rgb(230, 25, 75); stroke-opacity: 1; stroke-width: 2px; opacity: 1;"/></g><g class="points"/><g class="text"/></g><g class="trace scatter tracef4b1ff" style="stroke-miterlimit: 2; opacity: 1;"><g class="fills"/><g class="errorbars"/><g class="lines"><path class="js-line" d="M0,256.5L57.96,255.81L58.6,255.74L78.98,253.82L79.62,253.72L85.99,252.74L86.62,252.66L90.45,252.02L91.08,251.89L93.63,251.26L94.27,250.97L98.73,249.17L99.36,248.59L101.91,247.44L102.55,246.94L106.37,243.98L107.01,243.98L108.92,241.52L109.55,241.52L110.19,241.52L110.83,240.67L114.01,238.5L114.65,237.26L130.57,221.86L131.21,220.52L131.85,220.52L132.48,218.51L138.85,212.98L139.49,212.98L141.4,211.36L142.04,210.96L144.58,209.22L145.22,209.22L147.13,208.33L147.77,208.18L155.41,206.16L156.05,205.97L174.52,201.66L175.16,201.4L187.26,197.27L187.9,196.31L190.44,194.49L191.08,193.95L194.27,192.07L194.9,190.84L196.81,189.56L197.45,189.56L198.72,187.8L199.36,186.76L201.27,185.4L201.91,184.75L207.64,178.62L208.28,176.74L209.55,175.63L210.19,167.59L210.83,166.24L211.46,161.31L212.1,161.31L212.74,152.32L217.83,140.28L218.47,138.7L219.11,138.25L219.74,136.36L222.93,128.17L223.57,127.39L228.02,114.96L228.66,113.6L231.85,106.06L232.48,105.36L238.85,96.52L239.49,95.84L243.95,91.63L244.58,91.18L249.68,87.69L250.32,87.34L256.69,84.02L257.32,81.95L268.15,78.41L268.79,78.29L278.98,76.5L279.62,76.22L297.45,73.2" style="vector-effect: non-scaling-stroke; fill: none; stroke: rgb(60, 180, 75); stroke-opacity: 1; stroke-width: 2px; opacity: 1;"/></g><g class="points"/><g class="text"/></g><g class="trace scatter trace06adca" style="stroke-miterlimit: 2; opacity: 1;"><g class="fills"/><g class="errorbars"/><g class="lines"><path class="js-line" d="M0,256.5L54.14,255.79L54.78,255.68L73.25,253.51L73.88,253.38L82.16,251.61L82.8,251.5L87.9,250.4L88.53,250.15L98.73,247.49L99.36,247.07L102.55,245.43L103.18,244.95L108.92,240.05L109.55,239.3L113.37,236.37L114.01,235.57L123.57,229.53L124.2,229.12L133.76,222.3L134.39,222.04L150.95,217.04L151.59,217.04L154.78,215.54L155.41,215.24L156.69,214.54L157.32,214.21L164.33,209.43L164.97,208.71L169.43,202.46L170.06,202.46L171.97,197.27L172.61,196.24L174.52,191.36L175.16,189.12L179.62,171.42L180.25,168.11L182.16,161L182.8,154.6L185.35,142.3L185.99,140.49L191.72,116.94L192.36,115.51L195.54,106.77L196.18,105.61L205.09,91.69L205.73,91.11L210.19,86.1L210.83,86.1L212.1,86.1L212.74,83.74L217.83,79.83L218.47,79.27L223.57,73.06L224.2,73.06L225.48,69.91L226.11,68.84L227.39,67.16L228.02,66.02L235.03,57.38L235.67,55.69L238.85,51.03L239.49,51.03L242.04,47.03L242.67,46.28L250.32,38.52L250.95,38.13L253.5,35.79L254.14,35.1L260.51,30.03L261.14,29.81L275.79,22.87L276.43,22.87L278.34,21.39L278.98,21.26L297.45,13.5" style="vector-effect: non-scaling-stroke; fill: none; stroke: rgb(255, 225, 25); stroke-opacity: 1; stroke-width: 2px; opacity: 1;"/></g><g class="points"/><g class="text"/></g><g class="trace scatter trace69f6c4" style="stroke-miterlimit: 2; opacity: 1;"><g class="fills"/><g class="errorbars"/><g class="lines"><path class="js-line" d="M0,256.5L42.04,255.82L42.67,255.73L70.7,250L71.34,249.96L78.98,249.12L79.62,248.8L97.45,245.78L98.09,245.43L101.91,243.58L102.55,243.04L105.09,240.81L105.73,240.29L110.19,237.04L110.83,235.97L121.66,224.59L122.29,224.21L125.48,221.73L126.11,220.98L129.3,218.28L129.94,217.85L140.13,211.75L140.76,211.66L171.34,202.84L171.97,202.58L175.16,201.28L175.79,201.01L190.44,195.06L191.08,193.88L200.64,187.61L201.27,186.9L205.09,182.68L205.73,181.85L210.19,176.48L210.83,175.48L212.74,173.59L213.37,172.12L214.65,169.9L215.29,168.81L218.47,165.77L219.11,164.51L221.02,161.19L221.65,160.52L223.57,157.18L224.2,155.19L231.21,142.93L231.85,142.01L238.85,133.14L239.49,132.69L252.23,124.49L252.86,124.26L261.78,119.87L262.42,119.67L297.45,108.24" style="vector-effect: non-scaling-stroke; fill: none; stroke: rgb(67, 99, 216); stroke-opacity: 1; stroke-width: 2px; opacity: 1;"/></g><g class="points"/><g class="text"/></g><g class="trace scatter trace913a9e" style="stroke-miterlimit: 2; opacity: 1;"><g class="fills"/><g class="errorbars"/><g class="lines"><path class="js-line" d="M0,256.5L49.04,255.75L49.68,255.39L63.69,251.53L64.33,251.42L75.16,249.75L75.8,249.7L148.41,244.85L149.04,244.71L155.41,244.02L156.05,243.95L165.6,242.67L166.24,242.53L170.7,241.85L171.34,241.65L173.88,241.07L174.52,240.89L181.53,238.9L182.16,238.67L191.08,235.33L191.72,235L201.27,229.72L201.91,229.13L210.19,221.42L210.83,220.88L228.66,205.87L229.3,205.2L230.57,204.56L231.21,203.95L236.94,200.77L237.58,198.12L242.04,196.47L242.67,196.17L247.77,194.44L248.41,194.34L256.69,192.03L257.32,191.95L268.79,188.21L269.42,187.64L273.25,186.26L273.88,185.61L277.7,183.77L278.34,183.16L284.07,180.57L284.71,179.58L294.27,174.82L294.9,174.39L297.45,173.57" style="vector-effect: non-scaling-stroke; fill: none; stroke: rgb(245, 130, 49); stroke-opacity: 1; stroke-width: 2px; opacity: 1;"/></g><g class="points"/><g class="text"/></g><g class="trace scatter trace1cfeb9" style="stroke-miterlimit: 2; opacity: 1;"><g class="fills"/><g class="errorbars"/><g class="lines"><path class="js-line" d="M0,256.5L46.5,255.79L47.13,255.7L77.71,254.17L78.34,254.16L92.99,253.2L93.63,253.08L98.73,251.96L99.36,251.68L101.27,251.07L101.91,250.67L104.46,250.06L105.09,250.06L106.37,248.24L107.01,247.86L114.01,243.96L114.65,243.25L118.47,240.4L119.11,240.19L121.02,239.03L121.66,238.74L124.2,238.1L124.84,237.98L126.75,236.98L127.39,236.98L128.66,234.31L129.3,233.94L130.57,231.88L131.21,231.88L131.85,231.88L132.48,230.6L135.67,228.93L136.3,228.93L137.58,226.44L138.22,226.23L140.76,225.49L141.4,223.86L144.58,222.48L145.22,222.48L146.5,221.31L147.13,221.2L154.78,217.39L155.41,217.08L163.06,215.17L163.69,214.47L170.7,212.76L171.34,212.76L172.61,212.05L173.25,211.64L182.8,207.6L183.44,207.18L185.99,205.44L186.62,204.57L189.17,202.55L189.81,202.55L191.08,199.75L191.72,198.91L193.63,197.08L194.27,197.08L196.18,191.88L196.81,191.88L198.09,190.27L198.72,190.27L201.27,183.62L201.91,182.19L203.18,182.19L203.82,177.98L206.37,170.66L207,170.66L207.64,170.66L208.28,165.69L211.46,158.85L212.1,158.85L214.65,148.62L215.29,146.93L218.47,138.83L219.11,137.99L219.74,137.49L220.38,135.43L227.39,116.91L228.02,114.98L229.3,113.44L229.93,113.44L231.85,109.71L232.48,108.8L236.94,102.03L237.58,101.55L238.85,100.3L239.49,99.99L249.68,91.51L250.32,91.4L256.69,87.83L257.32,86.22L272.61,80.42L273.25,80.35L277.07,79.74L277.7,79.39L278.98,78.13L279.62,77.82L282.16,76.92L282.8,76.19L283.44,76.19L284.07,75.15L289.17,73.01L289.81,72.74L294.9,70.96L295.54,70.83L297.45,69.98" style="vector-effect: non-scaling-stroke; fill: none; stroke: rgb(145, 30, 180); stroke-opacity: 1; stroke-width: 2px; opacity: 1;"/></g><g class="points"/><g class="text"/></g></g></g><g class="overplot"/><path class="xlines-above crisp" d="M0,0" style="fill: none;"/><path class="ylines-above crisp" d="M0,0" style="fill: none;"/><g class="overlines-above"/><g class="xaxislayer-above"><g class="xtick"><text text-anchor="middle" x="0" y="383" transform="translate(182.55,0)" style="font-family: 'Open Sans', verdana, arial, sans-serif; font-size: 12px; fill: rgb(242, 245, 250); fill-opacity: 1; white-space: pre;">Jul 2020</text></g><g class="xtick"><text text-anchor="middle" x="0" y="383" transform="translate(299.74,0)" style="font-family: 'Open Sans', verdana, arial, sans-serif; font-size: 12px; fill: rgb(242, 245, 250); fill-opacity: 1; white-space: pre;">Jan 2021</text></g></g><g class="yaxislayer-above"><g class="ytick"><text text-anchor="end" x="79" y="4.199999999999999" transform="translate(0,356.5)" style="font-family: 'Open Sans', verdana, arial, sans-serif; font-size: 12px; fill: rgb(242, 245, 250); fill-opacity: 1; white-space: pre;">0</text></g><g class="ytick"><text text-anchor="end" x="79" y="4.199999999999999" transform="translate(0,320.34000000000003)" style="font-family: 'Open Sans', verdana, arial, sans-serif; font-size: 12px; fill: rgb(242, 245, 250); fill-opacity: 1; white-space: pre;">20k</text></g><g class="ytick"><text text-anchor="end" x="79" y="4.199999999999999" transform="translate(0,284.16999999999996)" style="font-family: 'Open Sans', verdana, arial, sans-serif; font-size: 12px; fill: rgb(242, 245, 250); fill-opacity: 1; white-space: pre;">40k</text></g><g class="ytick"><text text-anchor="end" x="79" y="4.199999999999999" transform="translate(0,248.01)" style="font-family: 'Open Sans', verdana, arial, sans-serif; font-size: 12px; fill: rgb(242, 245, 250); fill-opacity: 1; white-space: pre;">60k</text></g><g class="ytick"><text text-anchor="end" x="79" y="4.199999999999999" transform="translate(0,211.85)" style="font-family: 'Open Sans', verdana, arial, sans-serif; font-size: 12px; fill: rgb(242, 245, 250); fill-opacity: 1; white-space: pre;">80k</text></g><g class="ytick"><text text-anchor="end" x="79" y="4.199999999999999" transform="translate(0,175.69)" style="font-family: 'Open Sans', verdana, arial, sans-serif; font-size: 12px; fill: rgb(242, 245, 250); fill-opacity: 1; white-space: pre;">100k</text></g><g class="ytick"><text text-anchor="end" x="79" y="4.199999999999999" transform="translate(0,139.52)" style="font-family: 'Open Sans', verdana, arial, sans-serif; font-size: 12px; fill: rgb(242, 245, 250); fill-opacity: 1; white-space: pre;">120k</text></g><g class="ytick"><text text-anchor="end" x="79" y="4.199999999999999" transform="translate(0,103.36)" style="font-family: 'Open Sans', verdana, arial, sans-serif; font-size: 12px; fill: rgb(242, 245, 250); fill-opacity: 1; white-space: pre;">140k</text></g></g><g class="overaxes-above"/></g><g class="subplot x2y2"><g class="layer-subplot"><g class="shapelayer"/><g class="imagelayer"/></g><g class="gridlayer"><g class="x2"><path class="x2grid crisp" transform="translate(546.1,0)" d="M0,100v270" style="stroke: rgb(40, 52, 66); stroke-opacity: 1; stroke-width: 1px;"/><path class="x2grid crisp" transform="translate(663.29,0)" d="M0,100v270" style="stroke: rgb(40, 52, 66); stroke-opacity: 1; stroke-width: 1px;"/></g><g class="y2"><path class="y2grid crisp" transform="translate(0,310.82)" d="M443.55,0h297.45" style="stroke: rgb(40, 52, 66); stroke-opacity: 1; stroke-width: 1px;"/><path class="y2grid crisp" transform="translate(0,265.15)" d="M443.55,0h297.45" style="stroke: rgb(40, 52, 66); stroke-opacity: 1; stroke-width: 1px;"/><path class="y2grid crisp" transform="translate(0,219.47)" d="M443.55,0h297.45" style="stroke: rgb(40, 52, 66); stroke-opacity: 1; stroke-width: 1px;"/><path class="y2grid crisp" transform="translate(0,173.79000000000002)" d="M443.55,0h297.45" style="stroke: rgb(40, 52, 66); stroke-opacity: 1; stroke-width: 1px;"/><path class="y2grid crisp" transform="translate(0,128.12)" d="M443.55,0h297.45" style="stroke: rgb(40, 52, 66); stroke-opacity: 1; stroke-width: 1px;"/></g></g><g class="zerolinelayer"><path class="y2zl zl crisp" transform="translate(0,356.5)" d="M443.55,0h297.45" style="stroke: rgb(40, 52, 66); stroke-opacity: 1; stroke-width: 2px;"/></g><path class="xlines-below"/><path class="ylines-below"/><g class="overlines-below"/><g class="xaxislayer-below"/><g class="yaxislayer-below"/><g class="overaxes-below"/><g class="plot" transform="translate(443.55, 100)" clip-path="url('#clip8aab49x2y2plot')"><g class="scatterlayer mlayer"><g class="trace scatter trace8a877a" style="stroke-miterlimit: 2; opacity: 1;"><g class="fills"/><g class="errorbars"/><g class="lines"><path class="js-line" d="M0,256.5L44.59,255.77L45.22,255.68L47.77,255.31L48.41,255.13L52.87,254.4L53.5,253.21L56.69,252.66L57.32,252.57L66.88,250.47L67.52,250.38L70.7,249.74L71.34,249.56L75.16,248.64L75.8,248.46L79.62,248L80.25,248L98.09,245.35L98.73,244.81L104.46,243.71L105.09,243.71L110.19,242.98L110.83,242.61L121.02,239.87L121.66,239.87L122.93,239.23L123.57,239.23L126.11,238.87L126.75,238.87L128.02,237.77L128.66,237.77L130.57,236.49L131.21,236.49L140.13,233.94L140.76,232.93L142.04,233.02L142.67,231.47L143.95,229.46L144.58,229.19L147.77,228.82L148.41,227.27L149.04,227.27L149.68,226.17L150.32,226.08L150.95,223.98L151.59,223.98L152.23,223.16L154.14,222.33L154.78,222.33L156.05,220.42L156.69,220.23L157.96,219.59L158.6,219.41L160.51,218.86L161.15,218.13L164.33,217.49L164.97,216.3L168.15,216.67L168.79,217.13L169.43,216.12L170.06,216.94L171.34,216.12L171.97,216.94L173.88,216.76L174.52,214.84L182.8,214.2L183.44,214.02L185.35,213.2L185.99,213.2L186.62,213.2L187.26,212.38L191.08,211.46L191.72,211.37L200,209.54L200.64,209L205.09,208.45L205.73,207.81L209.55,205.07L210.19,204.06L210.83,204.06L211.46,203.06L213.37,202.78L214.01,200.87L215.92,199.95L216.56,199.4L219.11,199.4L219.74,196.57L222.93,196.57L223.57,192.83L224.2,192.83L224.84,189.9L226.75,189.26L227.39,187.53L230.57,187.35L231.21,186.71L232.48,186.52L233.12,179.58L234.39,178.3L235.03,174.83L236.3,173.73L236.94,171.63L237.58,170.9L238.21,168.89L239.49,166.97L240.13,166.79L243.95,161.4L244.58,161.4L247.13,157.11L247.77,154.18L250.95,153.64L251.59,149.53L252.23,149.53L252.86,146.88L254.14,146.88L254.78,145.23L256.69,143.13L257.32,155.55L259.87,152.27L260.51,152.08L262.42,151.35L263.06,150.53L265.6,149.8L266.24,149.89L268.15,147.88L268.79,148.06L269.42,148.89L270.06,148.06L271.97,146.97L272.61,146.33L278.34,145.32L278.98,145.32L282.16,143.95L282.8,143.5L285.35,143.31L285.99,142.58L289.81,142.49L290.44,142.4L292.99,141.76L293.63,141.76L297.45,140.3" style="vector-effect: non-scaling-stroke; fill: none; stroke: rgb(230, 25, 75); stroke-opacity: 1; stroke-width: 2px; opacity: 1;"/></g><g class="points"/><g class="text"/></g><g class="trace scatter trace794c7d" style="stroke-miterlimit: 2; opacity: 1;"><g class="fills"/><g class="errorbars"/><g class="lines"><path class="js-line" d="M0,256.5L64.97,255.77L65.6,255.68L75.16,254.95L75.8,254.67L82.8,253.3L83.44,253.3L91.08,251.75L91.72,251.75L97.45,250.11L98.09,250.01L105.73,249.37L106.37,249.1L110.19,248.46L110.83,248.19L112.1,248.19L112.74,247.36L116.56,247L117.2,246.27L121.02,245.54L121.66,243.89L123.57,243.89L124.2,242.16L125.48,242.16L126.11,240.88L128.02,240.88L128.66,239.05L129.94,239.05L130.57,237.96L134.39,237.77L135.03,235.85L136.94,235.85L137.58,234.67L139.49,234.67L140.13,232.47L141.4,232.47L142.04,230.01L143.31,230.01L143.95,228L146.5,228L147.13,226.72L147.77,226.72L148.41,225.71L150.32,225.71L150.95,224.71L154.78,224.07L155.41,223.43L156.69,223.43L157.32,221.6L161.15,220.87L161.78,220.05L168.15,219.41L168.79,217.77L174.52,217.22L175.16,216.67L181.53,216.03L182.16,215.67L185.99,215.03L186.62,214.84L192.36,214.2L192.99,213.47L197.45,212.92L198.09,212.56L201.27,211.92L201.91,210.28L205.73,209.54L206.37,206.99L208.28,206.99L208.92,205.62L213.37,205.62L214.01,197.49L219.74,197.49L220.38,191.55L226.11,191.55L226.75,179.95L228.02,179.22L228.66,173.92L229.93,171.36L230.57,171.36L231.21,171.36L231.85,168.07L232.48,168.07L233.12,163.32L234.39,161.22L235.03,161.22L237.58,152.63L238.21,152.63L239.49,152.63L240.13,149.34L242.67,144.68L243.31,144.68L243.95,144.68L244.58,141.94L245.22,141.58L245.86,139.29L247.13,138.56L247.77,138.56L249.04,138.56L249.68,134L252.23,131.62L252.86,131.62L254.14,128.51L254.78,127.51L256.69,124.68L257.32,128.15L261.78,124.77L262.42,122.85L265.6,119.84L266.24,119.84L267.51,118.83L268.15,117L269.42,116.55L270.06,114.35L270.7,114.35L271.34,112.62L273.88,109.79L274.52,109.79L276.43,109.79L277.07,108.87L280.89,108.32L281.53,107.87L284.71,107.32L285.35,107.05L287.9,106.13L288.53,106.13L290.44,105.4L291.08,105.13L292.99,104.67L293.63,104.67L296.18,103.94L296.81,103.21L297.45,103.21" style="vector-effect: non-scaling-stroke; fill: none; stroke: rgb(60, 180, 75); stroke-opacity: 1; stroke-width: 2px; opacity: 1;"/></g><g class="points"/><g class="text"/></g><g class="trace scatter trace5ca735" style="stroke-miterlimit: 2; opacity: 1;"><g class="fills"/><g class="errorbars"/><g class="lines"><path class="js-line" d="M0,256.5L56.69,255.77L57.32,255.68L62.42,255.22L63.06,254.86L65.6,254.49L66.24,254.49L68.15,253.76L68.79,253.58L71.34,253.49L71.97,252.75L80.89,249.92L81.53,249.47L92.36,247.18L92.99,246.54L95.54,245.54L96.18,245.54L101.27,244.81L101.91,244.62L107.64,243.25L108.28,242.8L110.83,242.61L111.46,241.97L112.74,240.33L113.37,240.15L115.29,239.42L115.92,238.59L117.2,236.58L117.83,236.31L118.47,236.04L119.11,236.77L121.66,234.85L122.29,233.84L124.2,233.3L124.84,232.75L129.94,228.09L130.57,226.54L133.12,224.89L133.76,222.79L135.67,220.69L136.3,220.69L138.22,220.42L138.85,219.41L140.13,217.4L140.76,217.4L142.04,216.94L142.67,216.4L145.86,214.11L146.5,214.11L148.41,213.56L149.04,212.74L153.5,211.1L154.14,210.46L156.05,209.91L156.69,209.18L164.33,207.35L164.97,206.9L172.61,203.97L173.25,203.88L178.34,201.6L178.98,200.59L181.53,197.67L182.16,197.21L183.44,194.75L184.08,194.11L187.26,189.9L187.9,187.89L189.81,183.14L190.44,182.78L191.72,179.85L192.36,176.47L194.9,166.97L195.54,165.6L198.09,158.93L198.72,158.39L200,156.83L200.64,155.37L203.18,143.86L203.82,143.13L204.46,142.4L205.09,139.38L210.19,125.23L210.83,125.23L212.74,125.23L213.37,113.35L214.01,113.35L214.65,110.52L215.92,109.42L216.56,109.33L217.83,108.32L218.47,106.22L220.38,101.02L221.02,100.93L222.29,99.92L222.93,98.37L226.11,87.22L226.75,86.58L227.39,85.76L228.02,83.29L229.93,79.73L230.57,79.64L231.21,79.27L231.85,77.08L235.03,67.95L235.67,67.58L236.3,67.31L236.94,65.94L241.4,59.91L242.04,58.26L243.31,57.17L243.95,57.17L247.77,50.95L248.41,50.95L250.95,48.12L251.59,46.84L256.05,42.92L256.69,41.73L259.23,39.81L259.87,38.62L261.78,36.61L262.42,36.16L269.42,26.38L270.06,26.29L273.25,25.56L273.88,25.01L276.43,24.37L277.07,23.64L282.16,19.99L282.8,19.16L287.9,16.97L288.53,16.97L289.81,16.24L290.44,15.69L292.35,15.05L292.99,15.05L295.54,14.23L296.18,13.77L297.45,13.5" style="vector-effect: non-scaling-stroke; fill: none; stroke: rgb(255, 225, 25); stroke-opacity: 1; stroke-width: 2px; opacity: 1;"/></g><g class="points"/><g class="text"/></g><g class="trace scatter trace8529f4" style="stroke-miterlimit: 2; opacity: 1;"><g class="fills"/><g class="errorbars"/><g class="lines"><path class="js-line" d="M0,256.5L40.76,256.13L41.4,255.4L44.59,254.67L45.22,254.4L51.59,251.93L52.23,251.93L54.14,250.47L54.78,249.74L56.69,249.19L57.32,248.92L61.15,247.09L61.78,246.63L64.33,245.35L64.97,245.35L66.88,244.17L67.52,243.98L68.79,243.35L69.43,243.35L75.8,240.51L76.43,238.87L78.98,238.32L79.62,237.22L82.8,235.03L83.44,234.48L86.62,233.48L87.26,233.48L88.53,231.74L89.17,231.65L94.9,229L95.54,229L98.09,228.82L98.73,228.18L111.46,226.26L112.1,226.08L115.92,224.53L116.56,223.98L118.47,222.52L119.11,222.61L121.02,221.51L121.66,220.96L122.93,220.14L123.57,220.14L126.75,217.22L127.39,217.22L128.66,215.85L129.3,214.93L131.85,213.2L132.48,213.02L136.94,211.74L137.58,211.1L139.49,210.55L140.13,209.64L143.31,207.99L143.95,207.63L145.86,206.71L146.5,206.44L149.68,205.8L150.32,205.8L166.24,202.78L166.88,202.6L168.79,202.24L169.43,203.61L170.7,201.41L171.34,201.23L178.34,199.86L178.98,199.31L187.26,197.67L187.9,197.21L195.54,196.57L196.18,196.39L203.18,194.11L203.82,194.01L208.28,191.91L208.92,191.91L220.38,188.99L221.02,188.9L223.57,187.8L224.2,187.16L227.39,185.24L228.02,184.33L229.3,182.14L229.93,182.14L231.21,181.22L231.85,180.68L233.76,178.67L234.39,178.67L236.3,177.39L236.94,176.47L240.76,173L241.4,171.82L243.31,170.26L243.95,170.26L247.13,166.52L247.77,166.52L249.68,165.24L250.32,164.51L252.23,163.14L252.86,162.86L253.5,162.86L254.14,162.04L255.41,160.76L256.05,160.58L257.96,159.76L258.6,158.57L260.51,157.2L261.14,157.11L263.06,155.55L263.69,154.73L270.7,151.17L271.34,151.17L273.25,149.43L273.88,148.89L275.79,148.52L276.43,148.06L277.7,139.29L278.34,138.65L280.89,137.92L281.53,137.47L287.9,134.27L288.53,134.18L289.81,134.09L290.44,133.9L292.99,132.99L293.63,132.9L296.18,131.53L296.81,131.53L297.45,131.35" style="vector-effect: non-scaling-stroke; fill: none; stroke: rgb(67, 99, 216); stroke-opacity: 1; stroke-width: 2px; opacity: 1;"/></g><g class="points"/><g class="text"/></g><g class="trace scatter trace191334" style="stroke-miterlimit: 2; opacity: 1;"><g class="fills"/><g class="errorbars"/><g class="lines"><path class="js-line" d="M0,256.5L49.68,255.77L50.32,255.4L51.59,254.67L52.23,254.67L53.5,253.94L54.14,253.94L55.41,252.85L56.05,250.56L57.96,248.73L58.6,248.64L61.78,248.19L62.42,245.9L65.6,245.72L66.24,243.07L66.88,242.98L67.52,241.15L70.7,240.79L71.34,240.15L72.61,237.59L73.25,237.5L73.88,237.5L74.52,233.84L76.43,231.01L77.07,230.65L78.34,229.46L78.98,229.46L80.25,229L80.89,228.36L87.9,225.99L88.53,225.99L94.27,225.26L94.9,225.17L104.46,224.34L105.09,224.34L114.65,223.61L115.29,223.52L122.93,223.16L123.57,223.16L126.75,222.88L127.39,222.88L135.03,222.15L135.67,222.06L149.68,221.33L150.32,221.24L159.87,220.51L160.51,220.42L166.88,219.78L167.51,219.32L172.61,218.77L173.25,218.41L200.64,214.2L201.27,213.84L204.46,213.2L205.09,213.11L207,211.83L207.64,211.74L208.28,211.74L208.92,210.91L214.01,208.17L214.65,207.44L217.83,206.62L218.47,205.62L220.38,204.25L221.02,204.15L222.29,203.61L222.93,202.14L225.48,199.13L226.11,199.04L226.75,198.76L227.39,196.94L229.3,193.92L229.93,193.74L231.21,193.28L231.85,191.91L233.76,188.44L234.39,188.44L235.03,188.17L235.67,187.07L238.21,183.42L238.85,183.23L240.76,182.05L241.4,181.5L246.49,177.57L247.13,177.57L249.68,176.84L250.32,176.66L252.86,176.11L253.5,176.11L255.41,174.46L256.05,174.46L261.78,173.55L262.42,173.46L266.88,172.91L267.51,172.82L273.25,172.09L273.88,171.82L280.25,171.36L280.89,170.9L285.99,169.62L286.62,168.89L290.44,167.52L291.08,167.16L294.27,166.52L294.9,165.97L297.45,165.42" style="vector-effect: non-scaling-stroke; fill: none; stroke: rgb(245, 130, 49); stroke-opacity: 1; stroke-width: 2px; opacity: 1;"/></g><g class="points"/><g class="text"/></g><g class="trace scatter trace8e5055" style="stroke-miterlimit: 2; opacity: 1;"><g class="fills"/><g class="errorbars"/><g class="lines"><path class="js-line" d="M0,256.5L43.95,255.86L44.59,255.68L47.13,255.04L47.77,254.86L50.96,254.12L51.59,254.12L64.33,252.66L64.97,252.66L66.88,252.21L67.52,252.02L77.07,251.38L77.71,251.38L92.99,250.74L93.63,250.47L105.73,249.74L106.37,249.56L114.65,247.73L115.29,247.73L117.2,247.09L117.83,246.63L119.11,246.09L119.74,245.45L124.84,242.52L125.48,242.34L126.75,241.79L127.39,241.79L128.66,240.15L129.3,239.51L131.21,238.32L131.85,238.32L133.12,236.49L133.76,235.49L136.3,235.12L136.94,234.03L140.13,231.47L140.76,231.47L142.04,229.46L142.67,228.73L144.58,226.63L145.22,226.63L149.04,224.53L149.68,224.53L152.87,222.24L153.5,222.24L154.78,221.51L155.41,220.6L157.32,219.41L157.96,219.41L159.23,218.86L159.87,218.5L163.06,217.22L163.69,217.04L166.88,215.39L167.51,215.39L169.43,214.29L170.06,214.11L172.61,213.47L173.25,213.2L175.16,212.28L175.79,212.28L177.07,211.65L177.71,211.19L180.25,210.82L180.89,210.82L190.44,208.36L191.08,207.81L195.54,205.62L196.18,204.79L196.81,204.79L197.45,203.88L199.36,203.42L200,202.97L201.27,201.41L201.91,200.41L203.82,199.86L204.46,198.49L207,195.29L207.64,195.29L210.83,188.81L211.46,188.81L212.74,188.81L213.37,185.79L215.92,182.6L216.56,182.6L217.2,182.6L217.83,180.95L219.11,180.4L219.74,178.21L221.65,178.21L222.29,174.46L225.48,167.25L226.11,167.25L227.39,162.31L228.02,161.13L229.93,157.84L230.57,157.84L231.21,157.84L231.85,155.01L233.76,150.8L234.39,150.8L235.03,150.8L235.67,148.25L237.58,145.41L238.21,143.31L239.49,143.31L240.13,141.21L240.76,141.21L241.4,139.48L243.31,137.56L243.95,137.56L246.49,132.26L247.13,132.26L249.04,132.26L249.68,130.25L251.59,125.77L252.23,125.77L253.5,125.13L254.14,124.4L256.69,122.03L257.32,128.51L259.87,125.86L260.51,125.32L262.42,124.77L263.06,123.85L267.51,121.57L268.15,121.21L271.34,119.84L271.97,119.47L274.52,118.19L275.16,118.19L277.7,117.55L278.34,117L280.89,116.46L281.53,115.45L282.8,113.62L283.44,113.62L288.53,112.89L289.17,112.89L297.45,110.15" style="vector-effect: non-scaling-stroke; fill: none; stroke: rgb(145, 30, 180); stroke-opacity: 1; stroke-width: 2px; opacity: 1;"/></g><g class="points"/><g class="text"/></g></g></g><g class="overplot"/><path class="xlines-above crisp" d="M0,0" style="fill: none;"/><path class="ylines-above crisp" d="M0,0" style="fill: none;"/><g class="overlines-above"/><g class="xaxislayer-above"><g class="x2tick"><text text-anchor="middle" x="0" y="383" transform="translate(546.1,0)" style="font-family: 'Open Sans', verdana, arial, sans-serif; font-size: 12px; fill: rgb(242, 245, 250); fill-opacity: 1; white-space: pre;">Jul 2020</text></g><g class="x2tick"><text text-anchor="middle" x="0" y="383" transform="translate(663.29,0)" style="font-family: 'Open Sans', verdana, arial, sans-serif; font-size: 12px; fill: rgb(242, 245, 250); fill-opacity: 1; white-space: pre;">Jan 2021</text></g></g><g class="yaxislayer-above"><g class="y2tick"><text text-anchor="end" x="442.55" y="4.199999999999999" transform="translate(0,356.5)" style="font-family: 'Open Sans', verdana, arial, sans-serif; font-size: 12px; fill: rgb(242, 245, 250); fill-opacity: 1; white-space: pre;">0</text></g><g class="y2tick"><text text-anchor="end" x="442.55" y="4.199999999999999" transform="translate(0,310.82)" style="font-family: 'Open Sans', verdana, arial, sans-serif; font-size: 12px; fill: rgb(242, 245, 250); fill-opacity: 1; white-space: pre;">500</text></g><g class="y2tick"><text text-anchor="end" x="442.55" y="4.199999999999999" transform="translate(0,265.15)" style="font-family: 'Open Sans', verdana, arial, sans-serif; font-size: 12px; fill: rgb(242, 245, 250); fill-opacity: 1; white-space: pre;">1000</text></g><g class="y2tick"><text text-anchor="end" x="442.55" y="4.199999999999999" transform="translate(0,219.47)" style="font-family: 'Open Sans', verdana, arial, sans-serif; font-size: 12px; fill: rgb(242, 245, 250); fill-opacity: 1; white-space: pre;">1500</text></g><g class="y2tick"><text text-anchor="end" x="442.55" y="4.199999999999999" transform="translate(0,173.79000000000002)" style="font-family: 'Open Sans', verdana, arial, sans-serif; font-size: 12px; fill: rgb(242, 245, 250); fill-opacity: 1; white-space: pre;">2000</text></g><g class="y2tick"><text text-anchor="end" x="442.55" y="4.199999999999999" transform="translate(0,128.12)" style="font-family: 'Open Sans', verdana, arial, sans-serif; font-size: 12px; fill: rgb(242, 245, 250); fill-opacity: 1; white-space: pre;">2500</text></g></g><g class="overaxes-above"/></g></g><g class="polarlayer"/><g class="ternarylayer"/><g class="geolayer"/><g class="funnelarealayer"/><g class="pielayer"/><g class="treemaplayer"/><g class="sunburstlayer"/><g class="glimages"/><defs id="topdefs-8aab49"><g class="clips"/><clipPath id="legend8aab49"><rect width="134" height="124" x="0" y="0"/></clipPath></defs><g class="layer-above"><g class="imagelayer"/><g class="shapelayer"/></g><g class="infolayer"><g class="legend" pointer-events="all" transform="translate(754.22, 100)"><rect class="bg" shape-rendering="crispEdges" width="134" height="124" x="0" y="0" style="stroke: rgb(68, 68, 68); stroke-opacity: 1; fill: rgb(17, 17, 17); fill-opacity: 1; stroke-width: 0px;"/><g class="scrollbox" transform="translate(0, 0)" clip-path="url('#legend8aab49')"><g class="groups"><g class="traces" transform="translate(0, 14.5)" style="opacity: 1;"><text class="legendtext user-select-none" text-anchor="start" x="40" y="4.680000000000001" style="font-family: 'Open Sans', verdana, arial, sans-serif; font-size: 12px; fill: rgb(242, 245, 250); fill-opacity: 1; white-space: pre;">Alameda, CA</text><g class="layers" style="opacity: 1;"><g class="legendfill"/><g class="legendlines"><path class="js-line" d="M5,0h30" style="fill: none; stroke: rgb(230, 25, 75); stroke-opacity: 1; stroke-width: 2px;"/></g><g class="legendsymbols"><g class="legendpoints"/></g></g><rect class="legendtoggle" pointer-events="all" x="0" y="-9.5" width="128.046875" height="19" style="cursor: pointer; fill: rgb(0, 0, 0); fill-opacity: 0;"/></g><g class="traces" transform="translate(0, 33.5)" style="opacity: 1;"><text class="legendtext user-select-none" text-anchor="start" x="40" y="4.680000000000001" style="font-family: 'Open Sans', verdana, arial, sans-serif; font-size: 12px; fill: rgb(242, 245, 250); fill-opacity: 1; white-space: pre;">Fresno, CA</text><g class="layers" style="opacity: 1;"><g class="legendfill"/><g class="legendlines"><path class="js-line" d="M5,0h30" style="fill: none; stroke: rgb(60, 180, 75); stroke-opacity: 1; stroke-width: 2px;"/></g><g class="legendsymbols"><g class="legendpoints"/></g></g><rect class="legendtoggle" pointer-events="all" x="0" y="-9.5" width="128.046875" height="19" style="cursor: pointer; fill: rgb(0, 0, 0); fill-opacity: 0;"/></g><g class="traces" transform="translate(0, 52.5)" style="opacity: 1;"><text class="legendtext user-select-none" text-anchor="start" x="40" y="4.680000000000001" style="font-family: 'Open Sans', verdana, arial, sans-serif; font-size: 12px; fill: rgb(242, 245, 250); fill-opacity: 1; white-space: pre;">El Paso, TX</text><g class="layers" style="opacity: 1;"><g class="legendfill"/><g class="legendlines"><path class="js-line" d="M5,0h30" style="fill: none; stroke: rgb(255, 225, 25); stroke-opacity: 1; stroke-width: 2px;"/></g><g class="legendsymbols"><g class="legendpoints"/></g></g><rect class="legendtoggle" pointer-events="all" x="0" y="-9.5" width="128.046875" height="19" style="cursor: pointer; fill: rgb(0, 0, 0); fill-opacity: 0;"/></g><g class="traces" transform="translate(0, 71.5)" style="opacity: 1;"><text class="legendtext user-select-none" text-anchor="start" x="40" y="4.680000000000001" style="font-family: 'Open Sans', verdana, arial, sans-serif; font-size: 12px; fill: rgb(242, 245, 250); fill-opacity: 1; white-space: pre;">Fulton, GA</text><g class="layers" style="opacity: 1;"><g class="legendfill"/><g class="legendlines"><path class="js-line" d="M5,0h30" style="fill: none; stroke: rgb(67, 99, 216); stroke-opacity: 1; stroke-width: 2px;"/></g><g class="legendsymbols"><g class="legendpoints"/></g></g><rect class="legendtoggle" pointer-events="all" x="0" y="-9.5" width="128.046875" height="19" style="cursor: pointer; fill: rgb(0, 0, 0); fill-opacity: 0;"/></g><g class="traces" transform="translate(0, 90.5)" style="opacity: 1;"><text class="legendtext user-select-none" text-anchor="start" x="40" y="4.680000000000001" style="font-family: 'Open Sans', verdana, arial, sans-serif; font-size: 12px; fill: rgb(242, 245, 250); fill-opacity: 1; white-space: pre;">Berks, PA</text><g class="layers" style="opacity: 1;"><g class="legendfill"/><g class="legendlines"><path class="js-line" d="M5,0h30" style="fill: none; stroke: rgb(245, 130, 49); stroke-opacity: 1; stroke-width: 2px;"/></g><g class="legendsymbols"><g class="legendpoints"/></g></g><rect class="legendtoggle" pointer-events="all" x="0" y="-9.5" width="128.046875" height="19" style="cursor: pointer; fill: rgb(0, 0, 0); fill-opacity: 0;"/></g><g class="traces" transform="translate(0, 109.5)" style="opacity: 1;"><text class="legendtext user-select-none" text-anchor="start" x="40" y="4.680000000000001" style="font-family: 'Open Sans', verdana, arial, sans-serif; font-size: 12px; fill: rgb(242, 245, 250); fill-opacity: 1; white-space: pre;">Sacramento, CA</text><g class="layers" style="opacity: 1;"><g class="legendfill"/><g class="legendlines"><path class="js-line" d="M5,0h30" style="fill: none; stroke: rgb(145, 30, 180); stroke-opacity: 1; stroke-width: 2px;"/></g><g class="legendsymbols"><g class="legendpoints"/></g></g><rect class="legendtoggle" pointer-events="all" x="0" y="-9.5" width="128.046875" height="19" style="cursor: pointer; fill: rgb(0, 0, 0); fill-opacity: 0;"/></g></g></g><rect class="scrollbar" rx="20" ry="3" width="0" height="0" x="0" y="0" style="fill: rgb(128, 139, 164); fill-opacity: 1;"/></g><g class="g-gtitle"/><g class="g-xtitle"><text class="xtitle" x="228.725" y="410.8" text-anchor="middle" style="font-family: 'Open Sans', verdana, arial, sans-serif; font-size: 14px; fill: rgb(242, 245, 250); opacity: 1; font-weight: normal; white-space: pre;">Date</text></g><g class="g-x2title"><text class="x2title" x="592.275" y="410.8" text-anchor="middle" style="font-family: 'Open Sans', verdana, arial, sans-serif; font-size: 14px; fill: rgb(242, 245, 250); opacity: 1; font-weight: normal; white-space: pre;">Date</text></g><g class="g-ytitle"><text class="ytitle" transform="rotate(-90,28.168750000000003,235)" x="28.168750000000003" y="235" text-anchor="middle" style="font-family: 'Open Sans', verdana, arial, sans-serif; font-size: 14px; fill: rgb(242, 245, 250); opacity: 1; font-weight: normal; white-space: pre;">Cases</text></g><g class="g-y2title"><text class="y2title" transform="rotate(-90,391.04375,235)" x="391.04375" y="235" text-anchor="middle" style="font-family: 'Open Sans', verdana, arial, sans-serif; font-size: 14px; fill: rgb(242, 245, 250); opacity: 1; font-weight: normal; white-space: pre;">Deaths</text></g><g class="annotation" data-index="0" style="opacity: 1;"><g class="annotation-text-g" transform="rotate(0,228.725,89.5)"><g class="cursor-pointer" transform="translate(204, 79)"><rect class="bg" x="0.5" y="0.5" width="48" height="20" style="stroke-width: 1px; stroke: rgb(0, 0, 0); stroke-opacity: 0; fill: rgb(0, 0, 0); fill-opacity: 0;"/><text class="annotation-text" text-anchor="middle" x="24.6875" y="16" style="font-family: 'Open Sans', verdana, arial, sans-serif; font-size: 16px; fill: rgb(242, 245, 250); fill-opacity: 1; white-space: pre;">Cases</text></g></g></g><g class="annotation" data-index="1" style="opacity: 1;"><g class="annotation-text-g" transform="rotate(0,592.275,89.5)"><g class="cursor-pointer" transform="translate(565, 79)"><rect class="bg" x="0.5" y="0.5" width="54" height="20" style="stroke-width: 1px; stroke: rgb(0, 0, 0); stroke-opacity: 0; fill: rgb(0, 0, 0); fill-opacity: 0;"/><text class="annotation-text" text-anchor="middle" x="27.359375" y="16" style="font-family: 'Open Sans', verdana, arial, sans-serif; font-size: 16px; fill: rgb(242, 245, 250); fill-opacity: 1; white-space: pre;">Deaths</text></g></g></g></g></svg>