<svg class="main-svg" xmlns="http://www.w3.org/2000/svg" xmlns:xlink="http://www.w3.org/1999/xlink" width="900" height="450" style="" viewBox="0 0 900 450"><rect x="0" y="0" width="900" height="450" style="fill: rgb(17, 17, 17); fill-opacity: 1;"/><defs id="defs-b6a995"><g class="clips"><clipPath id="clipb6a995xyplot" class="plotclip"><rect width="296.55" height="270"/></clipPath><clipPath id="clipb6a995x2y2plot" class="plotclip"><rect width="296.54999999999995" height="270"/></clipPath><clipPath class="axesclip" id="clipb6a995x"><rect x="80" y="0" width="296.55" height="450"/></clipPath><clipPath class="axesclip" id="clipb6a995y"><rect x="0" y="100" width="900" height="270"/></clipPath><clipPath class="axesclip" id="clipb6a995xy"><rect x="80" y="100" width="296.55" height="270"/></clipPath><clipPath class="axesclip" id="clipb6a995y2"><rect x="0" y="100" width="900" height="270"/></clipPath><clipPath class="axesclip" id="clipb6a995xy2"><rect x="80" y="100" width="296.55" height="270"/></clipPath><clipPath class="axesclip" id="clipb6a995x2"><rect x="442.45000000000005" y="0" width="296.54999999999995" height="450"/></clipPath><clipPath class="axesclip" id="clipb6a995x2y"><rect x="442.45000000000005" y="100" width="296.54999999999995" height="270"/></clipPath><clipPath class="axesclip" id="clipb6a995x2y2"><rect x="442.45000000000005" y="100" width="296.54999999999995" height="270"/></clipPath></g><g class="gradients"/></defs><g class="bglayer"/><g class="layer-below"><g class="imagelayer"/><g class="shapelayer"/></g><g class="cartesianlayer"><g class="subplot xy"><g class="layer-subplot"><g class="shapelayer"/><g class="imagelayer"/></g><g class="gridlayer"><g class="x"><path class="xgrid crisp" transform="translate(130.26,0)" d="M0,100v270" style="stroke: rgb(40, 52, 66); stroke-opacity: 1; stroke-width: 1px;"/><path class="xgrid crisp" transform="translate(195.6,0)" d="M0,100v270" style="stroke: rgb(40, 52, 66); stroke-opacity: 1; stroke-width: 1px;"/><path class="xgrid crisp" transform="translate(261.65999999999997,0)" d="M0,100v270" style="stroke: rgb(40, 52, 66); stroke-opacity: 1; stroke-width: 1px;"/><path class="xgrid crisp" transform="translate(327.72,0)" d="M0,100v270" style="stroke: rgb(40, 52, 66); stroke-opacity: 1; stroke-width: 1px;"/></g><g class="y"><path class="ygrid crisp" transform="translate(0,305.93)" d="M80,0h296.55" style="stroke: rgb(40, 52, 66); stroke-opacity: 1; stroke-width: 1px;"/><path class="ygrid crisp" transform="translate(0,255.35)" d="M80,0h296.55" style="stroke: rgb(40, 52, 66); stroke-opacity: 1; stroke-width: 1px;"/><path class="ygrid crisp" transform="translate(0,204.78)" d="M80,0h296.55" style="stroke: rgb(40, 52, 66); stroke-opacity: 1; stroke-width: 1px;"/><path class="ygrid crisp" transform="translate(0,154.21)" d="M80,0h296.55" style="stroke: rgb(40, 52, 66); stroke-opacity: 1; stroke-width: 1px;"/><path class="ygrid crisp" transform="translate(0,103.63)" d="M80,0h296.55" style="stroke: rgb(40, 52, 66); stroke-opacity: 1; stroke-width: 1px;"/></g></g><g class="zerolinelayer"><path class="yzl zl crisp" transform="translate(0,356.5)" d="M80,0h296.55" style="stroke: rgb(40, 52, 66); stroke-opacity: 1; stroke-width: 2px;"/></g><path class="xlines-below"/><path class="ylines-below"/><g class="overlines-below"/><g class="xaxislayer-below"/><g class="yaxislayer-below"/><g class="overaxes-below"/><g class="plot" transform="translate(80, 100)" clip-path="url('#clipb6a995xyplot')"><g class="scatterlayer mlayer"><g class="trace scatter trace3443f6" style="stroke-miterlimit: 2; opacity: 1;"><g class="fills"/><g class="errorbars"/><g class="lines"><path class="js-line" d="M0,256.5L68.21,255.76L68.93,255.74L109.86,253.9L110.58,253.83L127.09,252.02L127.81,251.89L142.89,250.36L143.61,249.82L147.92,249.14L148.63,248.85L152.22,248.17L152.94,248.06L160.12,247.17L160.84,247.05L178.79,245.78L179.51,245.76L214.69,243.33L215.41,243.12L227.62,240.72L228.34,240.45L233.36,238.2L234.08,238.2L235.52,236.79L236.23,236.47L239.11,234.93L239.82,234.25L257.06,224.35L257.78,223.95L261.37,221.89L262.08,221.71L275.01,217.81L275.73,217.69L288.65,215.85L289.37,215.76L296.55,215.22" style="vector-effect: non-scaling-stroke; fill: none; stroke: rgb(230, 25, 75); stroke-opacity: 1; stroke-width: 2px; opacity: 1;"/></g><g class="points"/><g class="text"/></g><g class="trace scatter trace6390df" style="stroke-miterlimit: 2; opacity: 1;"><g class="fills"/><g class="errorbars"/><g class="lines"><path class="js-line" d="M0,256.5L81.14,255.76L81.86,255.69L114.17,253.59L114.89,253.5L125.66,251.29L126.37,251.12L147.2,247.58L147.92,247.36L156.53,246.42L157.25,246.35L185.25,243.34L185.97,243.13L195.31,239.29L196.02,238.92L202.49,232.7L203.2,231.78L205.36,229.79L206.08,228L209.67,224.05L210.39,223.3L214.69,218.58L215.41,218.03L221.16,214.3L221.87,214.02L230.49,210.61L231.21,210.4L251.31,205.45L252.03,205.19L253.47,204.47L254.19,204.31L262.8,201.32L263.52,201.32L266.39,200.01L267.11,199.73L290.09,193.8L290.81,193.71L296.55,192.78" style="vector-effect: non-scaling-stroke; fill: none; stroke: rgb(60, 180, 75); stroke-opacity: 1; stroke-width: 2px; opacity: 1;"/></g><g class="points"/><g class="text"/></g><g class="trace scatter tracee0d402" style="stroke-miterlimit: 2; opacity: 1;"><g class="fills"/><g class="errorbars"/><g class="lines"><path class="js-line" d="M0,256.5L89.04,255.75L89.75,255.72L115.6,253.83L116.32,253.65L129.97,250.95L130.68,250.73L161.56,243.46L162.28,243.36L180.23,242.08L180.95,242.03L213.98,239.46L214.69,239.15L231.93,235.28L232.64,235.03L236.23,233.88L236.95,231.63L237.67,231.25L238.39,229.88L239.11,229.88L239.82,227.36L246.29,223.55L247.01,223.42L256.34,217.23L257.06,216.91L264.96,213.1L265.67,212.84L284.34,208.84L285.06,208.77L296.55,207.57" style="vector-effect: non-scaling-stroke; fill: none; stroke: rgb(255, 225, 25); stroke-opacity: 1; stroke-width: 2px; opacity: 1;"/></g><g class="points"/><g class="text"/></g><g class="trace scatter trace742ec9" style="stroke-miterlimit: 2; opacity: 1;"><g class="fills"/><g class="errorbars"/><g class="lines"><path class="js-line" d="M0,256.5L45.24,255.78L45.95,255.54L50.98,253.68L51.7,253.23L66.78,242.53L67.5,241.8L84.01,224.29L84.73,223.78L89.75,219.17L90.47,218.81L99.09,214.62L99.81,214.39L121.35,208.96L122.07,208.65L141.45,201.3L142.17,200.87L147.92,198.17L148.63,197.85L162.28,190.98L162.99,190.44L172.33,186.92L173.05,186.42L181.66,182.59L182.38,182.2L191.72,176.07L192.43,175.26L201.05,164.91L201.77,163.62L203.2,162.23L203.92,158.84L206.8,152.84L207.51,150.16L219.72,112.76L220.44,111.29L224.03,102.64L224.75,101.56L229.77,88.24L230.49,86.97L240.54,66.67L241.26,65.48L244.13,61.83L244.85,61.05L249.88,53.47L250.6,52.19L257.06,40.72L257.78,39.4L261.37,35.26L262.08,34.42L264.24,31.48L264.96,30.92L273.57,23.99L274.29,23.58L282.91,19.47L283.63,19.12L296.55,13.5" style="vector-effect: non-scaling-stroke; fill: none; stroke: rgb(67, 99, 216); stroke-opacity: 1; stroke-width: 2px; opacity: 1;"/></g><g class="points"/><g class="text"/></g><g class="trace scatter trace05f5ef" style="stroke-miterlimit: 2; opacity: 1;"><g class="fills"/><g class="errorbars"/><g class="lines"><path class="js-line" d="M0,256.5L101.96,255.77L102.68,255.72L119.19,254.24L119.91,253.67L162.99,247.35L163.71,247.35L170.18,246.61L170.89,246.58L220.44,243.74L221.16,243.52L226.9,242.8L227.62,242.61L230.49,242.07L231.21,241.04L236.23,239.64L236.95,238.98L238.39,238.08L239.11,238.08L240.54,236.87L241.26,236.56L244.13,234.81L244.85,234.49L262.08,227.15L262.8,227.08L265.67,226.51L266.39,226.21L285.06,223.63L285.78,223.6L296.55,222.93" style="vector-effect: non-scaling-stroke; fill: none; stroke: rgb(245, 130, 49); stroke-opacity: 1; stroke-width: 2px; opacity: 1;"/></g><g class="points"/><g class="text"/></g><g class="trace scatter tracedef36a" style="stroke-miterlimit: 2; opacity: 1;"><g class="fills"/><g class="errorbars"/><g class="lines"><path class="js-line" d="M0,256.5L123.5,255.75L124.22,255.67L162.99,252.05L163.71,252.02L212.54,250.63L213.26,250.59L234.08,248.99L234.8,248.95L254.9,246.03L255.62,245.89L271.42,243.94L272.14,243.86L281.47,243.04L282.19,242.97L296.55,242.24" style="vector-effect: non-scaling-stroke; fill: none; stroke: rgb(145, 30, 180); stroke-opacity: 1; stroke-width: 2px; opacity: 1;"/></g><g class="points"/><g class="text"/></g></g></g><g class="overplot"/><path class="xlines-above crisp" d="M0,0" style="fill: none;"/><path class="ylines-above crisp" d="M0,0" style="fill: none;"/><g class="overlines-above"/><g class="xaxislayer-above"><g class="xtick"><text text-anchor="middle" x="0" y="383" transform="translate(130.26,0)" style="font-family: 'Open Sans', verdana, arial, sans-serif; font-size: 12px; fill: rgb(242, 245, 250); fill-opacity: 1; white-space: pre;">Apr 2020</text></g><g class="xtick"><text text-anchor="middle" x="0" y="383" transform="translate(195.6,0)" style="font-family: 'Open Sans', verdana, arial, sans-serif; font-size: 12px; fill: rgb(242, 245, 250); fill-opacity: 1; white-space: pre;">Jul 2020</text></g><g class="xtick"><text text-anchor="middle" x="0" y="383" transform="translate(261.65999999999997,0)" style="font-family: 'Open Sans', verdana, arial, sans-serif; font-size: 12px; fill: rgb(242, 245, 250); fill-opacity: 1; white-space: pre;">Oct 2020</text></g><g class="xtick"><text text-anchor="middle" x="0" y="383" transform="translate(327.72,0)" style="font-family: 'Open Sans', verdana, arial, sans-serif; font-size: 12px; fill: rgb(242, 245, 250); fill-opacity: 1; white-space: pre;">Jan 2021</text></g></g><g class="yaxislayer-above"><g class="ytick"><text text-anchor="end" x="79" y="4.199999999999999" transform="translate(0,356.5)" style="font-family: 'Open Sans', verdana, arial, sans-serif; font-size: 12px; fill: rgb(242, 245, 250); fill-opacity: 1; white-space: pre;">0</text></g><g class="ytick"><text text-anchor="end" x="79" y="4.199999999999999" transform="translate(0,305.93)" style="font-family: 'Open Sans', verdana, arial, sans-serif; font-size: 12px; fill: rgb(242, 245, 250); fill-opacity: 1; white-space: pre;">100k</text></g><g class="ytick"><text text-anchor="end" x="79" y="4.199999999999999" transform="translate(0,255.35)" style="font-family: 'Open Sans', verdana, arial, sans-serif; font-size: 12px; fill: rgb(242, 245, 250); fill-opacity: 1; white-space: pre;">200k</text></g><g class="ytick"><text text-anchor="end" x="79" y="4.199999999999999" transform="translate(0,204.78)" style="font-family: 'Open Sans', verdana, arial, sans-serif; font-size: 12px; fill: rgb(242, 245, 250); fill-opacity: 1; white-space: pre;">300k</text></g><g class="ytick"><text text-anchor="end" x="79" y="4.199999999999999" transform="translate(0,154.21)" style="font-family: 'Open Sans', verdana, arial, sans-serif; font-size: 12px; fill: rgb(242, 245, 250); fill-opacity: 1; white-space: pre;">400k</text></g><g class="ytick"><text text-anchor="end" x="79" y="4.199999999999999" transform="translate(0,103.63)" style="font-family: 'Open Sans', verdana, arial, sans-serif; font-size: 12px; fill: rgb(242, 245, 250); fill-opacity: 1; white-space: pre;">500k</text></g></g><g class="overaxes-above"/></g><g class="subplot x2y2"><g class="layer-subplot"><g class="shapelayer"/><g class="imagelayer"/></g><g class="gridlayer"><g class="x2"><path class="x2grid crisp" transform="translate(492.71000000000004,0)" d="M0,100v270" style="stroke: rgb(40, 52, 66); stroke-opacity: 1; stroke-width: 1px;"/><path class="x2grid crisp" transform="translate(558.0500000000001,0)" d="M0,100v270" style="stroke: rgb(40, 52, 66); stroke-opacity: 1; stroke-width: 1px;"/><path class="x2grid crisp" transform="translate(624.11,0)" d="M0,100v270" style="stroke: rgb(40, 52, 66); stroke-opacity: 1; stroke-width: 1px;"/><path class="x2grid crisp" transform="translate(690.1700000000001,0)" d="M0,100v270" style="stroke: rgb(40, 52, 66); stroke-opacity: 1; stroke-width: 1px;"/></g><g class="y2"><path class="y2grid crisp" transform="translate(0,305.15)" d="M442.45000000000005,0h296.54999999999995" style="stroke: rgb(40, 52, 66); stroke-opacity: 1; stroke-width: 1px;"/><path class="y2grid crisp" transform="translate(0,253.81)" d="M442.45000000000005,0h296.54999999999995" style="stroke: rgb(40, 52, 66); stroke-opacity: 1; stroke-width: 1px;"/><path class="y2grid crisp" transform="translate(0,202.45999999999998)" d="M442.45000000000005,0h296.54999999999995" style="stroke: rgb(40, 52, 66); stroke-opacity: 1; stroke-width: 1px;"/><path class="y2grid crisp" transform="translate(0,151.11)" d="M442.45000000000005,0h296.54999999999995" style="stroke: rgb(40, 52, 66); stroke-opacity: 1; stroke-width: 1px;"/></g></g><g class="zerolinelayer"><path class="y2zl zl crisp" transform="translate(0,356.5)" d="M442.45000000000005,0h296.54999999999995" style="stroke: rgb(40, 52, 66); stroke-opacity: 1; stroke-width: 2px;"/></g><path class="xlines-below"/><path class="ylines-below"/><g class="overlines-below"/><g class="xaxislayer-below"/><g class="yaxislayer-below"/><g class="overaxes-below"/><g class="plot" transform="translate(442.45000000000005, 100)" clip-path="url('#clipb6a995x2y2plot')"><g class="scatterlayer mlayer"><g class="trace scatter trace211284" style="stroke-miterlimit: 2; opacity: 1;"><g class="fills"/><g class="errorbars"/><g class="lines"><path class="js-line" d="M0,256.5L59.6,255.91L60.32,255.58L72.52,254.88L73.24,254.88L87.6,254.14L88.32,254.11L110.58,253.37L111.3,253.21L160.12,249.9L160.84,249.47L162.28,248.9L162.99,248.82L168.02,248.28L168.74,247.98L171.61,247.13L172.33,247L188.13,245.18L188.84,245.31L198.18,244.69L198.9,244.66L214.69,243.92L215.41,243.84L232.64,242.69L233.36,242.58L236.23,242.05L236.95,241.76L240.54,241.4L241.26,240.86L245.57,240.45L246.29,240.45L247.01,240.45L247.72,239.66L251.31,239.66L252.03,238.61L252.75,238.61L253.47,237.78L262.08,236.83L262.8,234.88L274.29,229.88L275.01,229.77L277.88,229.18L278.6,228.57L280.04,227.75L280.75,227.72L282.91,227.59L283.63,226.44L286.5,225.69L287.22,225.23L292.24,224.56L292.96,223.61L296.55,223.1" style="vector-effect: non-scaling-stroke; fill: none; stroke: rgb(230, 25, 75); stroke-opacity: 1; stroke-width: 2px; opacity: 1;"/></g><g class="points"/><g class="text"/></g><g class="trace scatter trace5c0720" style="stroke-miterlimit: 2; opacity: 1;"><g class="fills"/><g class="errorbars"/><g class="lines"><path class="js-line" d="M0,256.5L76.11,255.91L76.83,255.73L129.97,251.7L130.68,251.47L133.56,250.75L134.27,250.95L146.48,248.52L147.2,248.08L159.4,245.51L160.12,245.38L169.46,244.13L170.18,244.07L186.69,242.48L187.41,242.41L193.87,241.74L194.59,241.74L201.77,240.79L202.49,240.51L212.54,236.53L213.26,236.17L216.13,234.96L216.85,234.01L219.72,231.34L220.44,230.95L224.03,228.93L224.75,228.82L226.9,227.18L227.62,226.05L229.05,224.84L229.77,224.64L231.21,223.59L231.93,223.07L238.39,219.61L239.11,219.61L239.82,219.61L240.54,216.27L241.26,216.27L241.98,215.47L247.01,213.73L247.72,212.85L251.31,212.06L252.03,211.31L252.75,211.31L253.47,209.8L259.21,206.82L259.93,206.8L261.37,206.08L262.08,205.44L264.96,203.51L265.67,203.41L268.55,202.53L269.26,202.17L271.42,201.51L272.14,201.25L274.29,200.48L275.01,200.48L280.75,198.55L281.47,198.43L296.55,194.32" style="vector-effect: non-scaling-stroke; fill: none; stroke: rgb(60, 180, 75); stroke-opacity: 1; stroke-width: 2px; opacity: 1;"/></g><g class="points"/><g class="text"/></g><g class="trace scatter traceb3a30f" style="stroke-miterlimit: 2; opacity: 1;"><g class="fills"/><g class="errorbars"/><g class="lines"><path class="js-line" d="M0,256.5L89.75,255.83L90.47,255.73L117.76,254.52L118.48,254.52L136.43,253.42L137.15,252.96L141.45,252.47L142.17,252.11L146.48,251.6L147.2,251.29L154.38,250.7L155.1,250.36L159.4,249.75L160.12,249.05L165.15,248.49L165.87,248.13L174.48,247.39L175.2,247.21L181.66,246.49L182.38,246.26L191.72,245.61L192.43,245.49L211.82,244.79L212.54,244.69L226.9,243.97L227.62,243.51L231.93,243.3L232.64,242.58L240.54,242.2L241.26,239.91L247.72,239.91L248.44,238.25L254.9,238.25L255.62,234.99L257.06,234.78L257.78,233.29L259.21,232.57L259.93,232.57L260.65,232.57L261.37,231.65L262.08,231.65L262.8,230.31L264.24,229.72L264.96,229.72L268.55,227.31L269.26,227.31L269.98,227.31L270.7,226.38L274.29,225.08L275.01,225.08L277.16,223.56L277.88,223.36L280.75,223.36L281.47,222.07L287.93,219.99L288.65,219.45L292.96,218.86L293.68,218.3L296.55,217.76" style="vector-effect: non-scaling-stroke; fill: none; stroke: rgb(255, 225, 25); stroke-opacity: 1; stroke-width: 2px; opacity: 1;"/></g><g class="points"/><g class="text"/></g><g class="trace scatter trace410608" style="stroke-miterlimit: 2; opacity: 1;"><g class="fills"/><g class="errorbars"/><g class="lines"><path class="js-line" d="M0,256.5L47.39,255.78L48.11,255.47L49.54,254.93L50.26,254.06L51.7,252.88L52.42,252.21L54.57,250.11L55.29,248.49L58.88,244.05L59.6,241.69L61.75,236.99L62.47,234.42L63.91,233.01L64.62,230.78L68.21,222.79L68.93,221.92L71.8,213.55L72.52,211.75L73.96,210.24L74.68,207.16L82.57,184.25L83.29,183.61L84.73,179.99L85.45,177.58L87.6,173.16L88.32,171.67L89.75,170.39L90.47,167.8L93.35,163L94.06,162.59L96.94,156.89L97.65,156.04L100.53,152.45L101.24,150.96L102.68,149.36L103.4,148.95L104.83,147.31L105.55,146L112.01,140.3L112.73,140.04L115.6,138.89L116.32,138.17L122.07,136.01L122.78,135.55L127.09,134.17L127.81,133.93L131.4,133.01L132.12,132.7L145.04,129.85L145.76,129.83L156.53,127.13L157.25,126.98L161.56,126.08L162.28,125.92L192.43,119.43L193.15,119.15L201.05,116.58L201.77,116.25L205.36,114.86L206.08,114.24L208.95,111.73L209.67,111.57L212.54,109.42L213.26,107.67L215.41,106.18L216.13,104.13L219,99.74L219.72,98.89L231.21,80.87L231.93,79.35L233.36,76.76L234.08,76.04L235.52,73.45L236.23,72.47L239.82,65.36L240.54,64.33L244.85,58.07L245.57,57.3L247.01,54.71L247.72,54.71L251.31,48.52L252.03,47.21L256.34,41.64L257.06,41.28L259.93,37.63L260.65,37.15L269.26,28.9L269.98,28.57L275.01,24.82L275.73,24.67L276.44,24.26L277.16,22.87L278.6,22.36L279.32,21.97L283.63,19.15L284.34,18.92L287.93,16.73L288.65,16.43L292.96,14.45L293.68,13.96L296.55,13.5" style="vector-effect: non-scaling-stroke; fill: none; stroke: rgb(67, 99, 216); stroke-opacity: 1; stroke-width: 2px; opacity: 1;"/></g><g class="points"/><g class="text"/></g><g class="trace scatter tracefbf19e" style="stroke-miterlimit: 2; opacity: 1;"><g class="fills"/><g class="errorbars"/><g class="lines"><path class="js-line" d="M0,256.5L78.98,255.76L79.7,255.73L106.99,255.34L107.71,255.34L125.66,254.63L126.37,254.42L134.27,253.47L134.99,253.09L139.3,251.88L140.02,251.88L153.66,248.95L154.38,248.87L158.69,248.62L159.4,248.08L161.56,247.23L162.28,247.05L170.18,246.44L170.89,246.26L176.64,245.28L177.36,245.18L181.66,244.54L182.38,244.43L209.67,243.74L210.39,243.66L229.05,243.1L229.77,242.89L236.95,242.23L237.67,242.1L240.54,241.4L241.26,241.3L244.13,240.63L244.85,240.63L259.93,237.3L260.65,237.3L262.08,236.27L262.8,235.81L265.67,235.06L266.39,234.83L275.73,232.8L276.44,232.65L280.04,231.03L280.75,231.03L282.19,230.36L282.91,230.29L287.22,229.26L287.93,228.72L289.37,228.23L290.09,228.23L292.96,226.28L293.68,226.15L296.55,225.72" style="vector-effect: non-scaling-stroke; fill: none; stroke: rgb(245, 130, 49); stroke-opacity: 1; stroke-width: 2px; opacity: 1;"/></g><g class="points"/><g class="text"/></g><g class="trace scatter trace721c70" style="stroke-miterlimit: 2; opacity: 1;"><g class="fills"/><g class="errorbars"/><g class="lines"><path class="js-line" d="M0,256.5L128.53,255.76L129.25,255.73L157.25,252.16L157.97,252.03L173.05,249.85L173.77,249.82L180.23,249.08L180.95,249.05L191.72,247.93L192.43,247.9L202.49,247.59L203.2,247.57L221.16,246.82L221.87,246.82L247.72,244.61L248.44,244.33L262.08,242.17L262.8,242.12L271.42,240.92L272.14,240.02L276.44,239.2L277.16,239.2L281.47,238.53L282.19,238.04L285.06,237.12L285.78,236.71L296.55,233.98" style="vector-effect: non-scaling-stroke; fill: none; stroke: rgb(145, 30, 180); stroke-opacity: 1; stroke-width: 2px; opacity: 1;"/></g><g class="points"/><g class="text"/></g></g></g><g class="overplot"/><path class="xlines-above crisp" d="M0,0" style="fill: none;"/><path class="ylines-above crisp" d="M0,0" style="fill: none;"/><g class="overlines-above"/><g class="xaxislayer-above"><g class="x2tick"><text text-anchor="middle" x="0" y="383" transform="translate(492.71000000000004,0)" style="font-family: 'Open Sans', verdana, arial, sans-serif; font-size: 12px; fill: rgb(242, 245, 250); fill-opacity: 1; white-space: pre;">Apr 2020</text></g><g class="x2tick"><text text-anchor="middle" x="0" y="383" transform="translate(558.0500000000001,0)" style="font-family: 'Open Sans', verdana, arial, sans-serif; font-size: 12px; fill: rgb(242, 245, 250); fill-opacity: 1; white-space: pre;">Jul 2020</text></g><g class="x2tick"><text text-anchor="middle" x="0" y="383" transform="translate(624.11,0)" style="font-family: 'Open Sans', verdana, arial, sans-serif; font-size: 12px; fill: rgb(242, 245, 250); fill-opacity: 1; white-space: pre;">Oct 2020</text></g><g class="x2tick"><text text-anchor="middle" x="0" y="383" transform="translate(690.1700000000001,0)" style="font-family: 'Open Sans', verdana, arial, sans-serif; font-size: 12px; fill: rgb(242, 245, 250); fill-opacity: 1; white-space: pre;">Jan 2021</text></g></g><g class="yaxislayer-above"><g class="y2tick"><text text-anchor="end" x="441.45000000000005" y="4.199999999999999" transform="translate(0,356.5)" style="font-family: 'Open Sans', verdana, arial, sans-serif; font-size: 12px; fill: rgb(242, 245, 250); fill-opacity: 1; white-space: pre;">0</text></g><g class="y2tick"><text text-anchor="end" x="441.45000000000005" y="4.199999999999999" transform="translate(0,305.15)" style="font-family: 'Open Sans', verdana, arial, sans-serif; font-size: 12px; fill: rgb(242, 245, 250); fill-opacity: 1; white-space: pre;">2k</text></g><g class="y2tick"><text text-anchor="end" x="441.45000000000005" y="4.199999999999999" transform="translate(0,253.81)" style="font-family: 'Open Sans', verdana, arial, sans-serif; font-size: 12px; fill: rgb(242, 245, 250); fill-opacity: 1; white-space: pre;">4k</text></g><g class="y2tick"><text text-anchor="end" x="441.45000000000005" y="4.199999999999999" transform="translate(0,202.45999999999998)" style="font-family: 'Open Sans', verdana, arial, sans-serif; font-size: 12px; fill: rgb(242, 245, 250); fill-opacity: 1; white-space: pre;">6k</text></g><g class="y2tick"><text text-anchor="end" x="441.45000000000005" y="4.199999999999999" transform="translate(0,151.11)" style="font-family: 'Open Sans', verdana, arial, sans-serif; font-size: 12px; fill: rgb(242, 245, 250); fill-opacity: 1; white-space: pre;">8k</text></g></g><g class="overaxes-above"/></g></g><g class="polarlayer"/><g class="ternarylayer"/><g class="geolayer"/><g class="funnelarealayer"/><g class="pielayer"/><g class="treemaplayer"/><g class="sunburstlayer"/><g class="glimages"/><defs id="topdefs-b6a995"><g class="clips"/><clipPath id="legendb6a995"><rect width="136" height="124" x="0" y="0"/></clipPath></defs><g class="layer-above"><g class="imagelayer"/><g class="shapelayer"/></g><g class="infolayer"><g class="legend" pointer-events="all" transform="translate(752.1800000000001, 100)"><rect class="bg" shape-rendering="crispEdges" width="136" height="124" x="0" y="0" style="stroke: rgb(68, 68, 68); stroke-opacity: 1; fill: rgb(17, 17, 17); fill-opacity: 1; stroke-width: 0px;"/><g class="scrollbox" transform="translate(0, 0)" clip-path="url('#legendb6a995')"><g class="groups"><g class="traces" transform="translate(0, 14.5)" style="opacity: 1;"><text class="legendtext user-select-none" text-anchor="start" x="40" y="4.680000000000001" style="font-family: 'Open Sans', verdana, arial, sans-serif; font-size: 12px; fill: rgb(242, 245, 250); fill-opacity: 1; white-space: pre;">Alameda, CA</text><g class="layers" style="opacity: 1;"><g class="legendfill"/><g class="legendlines"><path class="js-line" d="M5,0h30" style="fill: none; stroke: rgb(230, 25, 75); stroke-opacity: 1; stroke-width: 2px;"/></g><g class="legendsymbols"><g class="legendpoints"/></g></g><rect class="legendtoggle" pointer-events="all" x="0" y="-9.5" width="130.0625" height="19" style="cursor: pointer; fill: rgb(0, 0, 0); fill-opacity: 0;"/></g><g class="traces" transform="translate(0, 33.5)" style="opacity: 1;"><text class="legendtext user-select-none" text-anchor="start" x="40" y="4.680000000000001" style="font-family: 'Open Sans', verdana, arial, sans-serif; font-size: 12px; fill: rgb(242, 245, 250); fill-opacity: 1; white-space: pre;">El Paso, TX</text><g class="layers" style="opacity: 1;"><g class="legendfill"/><g class="legendlines"><path class="js-line" d="M5,0h30" style="fill: none; stroke: rgb(60, 180, 75); stroke-opacity: 1; stroke-width: 2px;"/></g><g class="legendsymbols"><g class="legendpoints"/></g></g><rect class="legendtoggle" pointer-events="all" x="0" y="-9.5" width="130.0625" height="19" style="cursor: pointer; fill: rgb(0, 0, 0); fill-opacity: 0;"/></g><g class="traces" transform="translate(0, 52.5)" style="opacity: 1;"><text class="legendtext user-select-none" text-anchor="start" x="40" y="4.680000000000001" style="font-family: 'Open Sans', verdana, arial, sans-serif; font-size: 12px; fill: rgb(242, 245, 250); fill-opacity: 1; white-space: pre;">Fresno, CA</text><g class="layers" style="opacity: 1;"><g class="legendfill"/><g class="legendlines"><path class="js-line" d="M5,0h30" style="fill: none; stroke: rgb(255, 225, 25); stroke-opacity: 1; stroke-width: 2px;"/></g><g class="legendsymbols"><g class="legendpoints"/></g></g><rect class="legendtoggle" pointer-events="all" x="0" y="-9.5" width="130.0625" height="19" style="cursor: pointer; fill: rgb(0, 0, 0); fill-opacity: 0;"/></g><g class="traces" transform="translate(0, 71.5)" style="opacity: 1;"><text class="legendtext user-select-none" text-anchor="start" x="40" y="4.680000000000001" style="font-family: 'Open Sans', verdana, arial, sans-serif; font-size: 12px; fill: rgb(242, 245, 250); fill-opacity: 1; white-space: pre;">Cook, IL</text><g class="layers" style="opacity: 1;"><g class="legendfill"/><g class="legendlines"><path class="js-line" d="M5,0h30" style="fill: none; stroke: rgb(67, 99, 216); stroke-opacity: 1; stroke-width: 2px;"/></g><g class="legendsymbols"><g class="legendpoints"/></g></g><rect class="legendtoggle" pointer-events="all" x="0" y="-9.5" width="130.0625" height="19" style="cursor: pointer; fill: rgb(0, 0, 0); fill-opacity: 0;"/></g><g class="traces" transform="translate(0, 90.5)" style="opacity: 1;"><text class="legendtext user-select-none" text-anchor="start" x="40" y="4.680000000000001" style="font-family: 'Open Sans', verdana, arial, sans-serif; font-size: 12px; fill: rgb(242, 245, 250); fill-opacity: 1; white-space: pre;">San Joaquin, CA</text><g class="layers" style="opacity: 1;"><g class="legendfill"/><g class="legendlines"><path class="js-line" d="M5,0h30" style="fill: none; stroke: rgb(245, 130, 49); stroke-opacity: 1; stroke-width: 2px;"/></g><g class="legendsymbols"><g class="legendpoints"/></g></g><rect class="legendtoggle" pointer-events="all" x="0" y="-9.5" width="130.0625" height="19" style="cursor: pointer; fill: rgb(0, 0, 0); fill-opacity: 0;"/></g><g class="traces" transform="translate(0, 109.5)" style="opacity: 1;"><text class="legendtext user-select-none" text-anchor="start" x="40" y="4.680000000000001" style="font-family: 'Open Sans', verdana, arial, sans-serif; font-size: 12px; fill: rgb(242, 245, 250); fill-opacity: 1; white-space: pre;">Marion, FL</text><g class="layers" style="opacity: 1;"><g class="legendfill"/><g class="legendlines"><path class="js-line" d="M5,0h30" style="fill: none; stroke: rgb(145, 30, 180); stroke-opacity: 1; stroke-width: 2px;"/></g><g class="legendsymbols"><g class="legendpoints"/></g></g><rect class="legendtoggle" pointer-events="all" x="0" y="-9.5" width="130.0625" height="19" style="cursor: pointer; fill: rgb(0, 0, 0); fill-opacity: 0;"/></g></g></g><rect class="scrollbar" rx="20" ry="3" width="0" height="0" x="0" y="0" style="fill: rgb(128, 139, 164); fill-opacity: 1;"/></g><g class="g-gtitle"/><g class="g-xtitle"><text class="xtitle" x="228.275" y="410.8" text-anchor="middle" style="font-family: 'Open Sans', verdana, arial, sans-serif; font-size: 14px; fill: rgb(242, 245, 250); opacity: 1; font-weight: normal; white-space: pre;">Date</text></g><g class="g-x2title"><text class="x2title" x="590.725" y="410.8" text-anchor="middle" style="font-family: 'Open Sans', verdana, arial, sans-serif; font-size: 14px; fill: rgb(242, 245, 250); opacity: 1; font-weight: normal; white-space: pre;">Date</text></g><g class="g-ytitle"><text class="ytitle" transform="rotate(-90,28.168750000000003,235)" x="28.168750000000003" y="235" text-anchor="middle" style="font-family: 'Open Sans', verdana, arial, sans-serif; font-size: 14px; fill: rgb(242, 245, 250); opacity: 1; font-weight: normal; white-space: pre;">Cases</text></g><g class="g-y2title"><text class="y2title" transform="rotate(-90,403.965625,235)" x="403.965625" y="235" text-anchor="middle" style="font-family: 'Open Sans', verdana, arial, sans-serif; font-size: 14px; fill: rgb(242, 245, 250); opacity: 1; font-weight: normal; white-space: pre;">Deaths</text></g><g class="annotation" data-index="0" style="opacity: 1;"><g class="annotation-text-g" transform="rotate(0,228.275,89.5)"><g class="cursor-pointer" transform="translate(204, 79)"><rect class="bg" x="0.5" y="0.5" width="48" height="20" style="stroke-width: 1px; stroke: rgb(0, 0, 0); stroke-opacity: 0; fill: rgb(0, 0, 0); fill-opacity: 0;"/><text class="annotation-text" text-anchor="middle" x="24.6875" y="16" style="font-family: 'Open Sans', verdana, arial, sans-serif; font-size: 16px; fill: rgb(242, 245, 250); fill-opacity: 1; white-space: pre;">Cases</text></g></g></g><g class="annotation" data-index="1" style="opacity: 1;"><g class="annotation-text-g" transform="rotate(0,590.725,89.5)"><g class="cursor-pointer" transform="translate(563, 79)"><rect class="bg" x="0.5" y="0.5" width="54" height="20" style="stroke-width: 1px; stroke: rgb(0, 0, 0); stroke-opacity: 0; fill: rgb(0, 0, 0); fill-opacity: 0;"/><text class="annotation-text" text-anchor="middle" x="27.359375" y="16" style="font-family: 'Open Sans', verdana, arial, sans-serif; font-size: 16px; fill: rgb(242, 245, 250); fill-opacity: 1; white-space: pre;">Deaths</text></g></g></g></g></svg>