<svg class="main-svg" xmlns="http://www.w3.org/2000/svg" xmlns:xlink="http://www.w3.org/1999/xlink" width="900" height="450" style="" viewBox="0 0 900 450"><rect x="0" y="0" width="900" height="450" style="fill: rgb(17, 17, 17); fill-opacity: 1;"/><defs id="defs-204ead"><g class="clips"><clipPath id="clip204eadxyplot" class="plotclip"><rect width="296.1" height="270"/></clipPath><clipPath id="clip204eadx2y2plot" class="plotclip"><rect width="296.09999999999997" height="270"/></clipPath><clipPath class="axesclip" id="clip204eadx"><rect x="80" y="0" width="296.1" height="450"/></clipPath><clipPath class="axesclip" id="clip204eady"><rect x="0" y="100" width="900" height="270"/></clipPath><clipPath class="axesclip" id="clip204eadxy"><rect x="80" y="100" width="296.1" height="270"/></clipPath><clipPath class="axesclip" id="clip204eady2"><rect x="0" y="100" width="900" height="270"/></clipPath><clipPath class="axesclip" id="clip204eadxy2"><rect x="80" y="100" width="296.1" height="270"/></clipPath><clipPath class="axesclip" id="clip204eadx2"><rect x="441.90000000000003" y="0" width="296.09999999999997" height="450"/></clipPath><clipPath class="axesclip" id="clip204eadx2y"><rect x="441.90000000000003" y="100" width="296.09999999999997" height="270"/></clipPath><clipPath class="axesclip" id="clip204eadx2y2"><rect x="441.90000000000003" y="100" width="296.09999999999997" height="270"/></clipPath></g><g class="gradients"/></defs><g class="bglayer"/><g class="layer-below"><g class="imagelayer"/><g class="shapelayer"/></g><g class="cartesianlayer"><g class="subplot xy"><g class="layer-subplot"><g class="shapelayer"/><g class="imagelayer"/></g><g class="gridlayer"><g class="x"><path class="xgrid crisp" transform="translate(118.49000000000001,0)" d="M0,100v270" style="stroke: rgb(40, 52, 66); stroke-opacity: 1; stroke-width: 1px;"/><path class="xgrid crisp" transform="translate(178.7,0)" d="M0,100v270" style="stroke: rgb(40, 52, 66); stroke-opacity: 1; stroke-width: 1px;"/><path class="xgrid crisp" transform="translate(238.91,0)" d="M0,100v270" style="stroke: rgb(40, 52, 66); stroke-opacity: 1; stroke-width: 1px;"/><path class="xgrid crisp" transform="translate(300.1,0)" d="M0,100v270" style="stroke: rgb(40, 52, 66); stroke-opacity: 1; stroke-width: 1px;"/><path class="xgrid crisp" transform="translate(360.31,0)" d="M0,100v270" style="stroke: rgb(40, 52, 66); stroke-opacity: 1; stroke-width: 1px;"/></g><g class="y"><path class="ygrid crisp" transform="translate(0,290.90999999999997)" d="M80,0h296.1" style="stroke: rgb(40, 52, 66); stroke-opacity: 1; stroke-width: 1px;"/><path class="ygrid crisp" transform="translate(0,225.32)" d="M80,0h296.1" style="stroke: rgb(40, 52, 66); stroke-opacity: 1; stroke-width: 1px;"/><path class="ygrid crisp" transform="translate(0,159.73)" d="M80,0h296.1" style="stroke: rgb(40, 52, 66); stroke-opacity: 1; stroke-width: 1px;"/></g></g><g class="zerolinelayer"><path class="yzl zl crisp" transform="translate(0,356.5)" d="M80,0h296.1" style="stroke: rgb(40, 52, 66); stroke-opacity: 1; stroke-width: 2px;"/></g><path class="xlines-below"/><path class="ylines-below"/><g class="overlines-below"/><g class="xaxislayer-below"/><g class="yaxislayer-below"/><g class="overaxes-below"/><g class="plot" transform="translate(80, 100)" clip-path="url('#clip204eadxyplot')"><g class="scatterlayer mlayer"><g class="trace scatter trace5a1215" style="stroke-miterlimit: 2; opacity: 1;"><g class="fills"/><g class="errorbars"/><g class="lines"><path class="js-line" d="M0,256.5L59.22,255.8L60.21,255.7L64.15,255.06L65.14,254.82L71.06,253.59L72.05,252.98L82.91,250.19L83.89,249.9L94.75,246.67L95.74,246.44L105.61,243.64L106.6,243.23L118.44,239.39L119.43,238.74L127.32,234.93L128.31,234.26L137.19,230.36L138.18,230.05L148.05,224.98L149.04,224.98L152,221.9L152.98,221.2L157.92,217.38L158.91,216.12L160.88,214.05L161.87,213.5L162.85,211.54L163.84,211.33L164.83,211.33L165.82,208.98L168.78,205.83L169.76,205.83L175.69,196.75L176.67,195.91L178.65,194.96L179.63,193.25L182.59,188.74L183.58,188.48L184.57,188.04L185.56,186.76L186.54,185.84L187.53,183.49L188.52,183.49L189.5,181.18L190.49,180.91L191.48,178.8L192.46,178.39L193.45,176.9L196.41,176.9L197.4,169.93L198.39,169.8L199.37,166.88L201.35,163.17L202.33,161.01L203.32,161.01L204.31,157.31L205.3,157.26L206.28,155.25L209.24,148.48L210.23,147.01L212.2,146.75L213.19,143.19L215.17,140.92L216.15,139.44L217.14,139.44L218.13,138.17L220.1,135.52L221.09,133.88L224.05,131.02L225.04,131.02L226.02,129.58L227.01,129.58L228.98,127.22L229.97,126.51L230.96,126.39L231.94,125.38L235.89,124.26L236.88,122.93L240.83,120.41L241.81,119.82L245.76,117.52L246.75,117.19L254.65,113.45L255.63,113.22L259.58,111.22L260.57,111.22L262.54,110.07L263.53,109.77L265.5,109.19L266.49,108.03L274.39,103.08L275.37,103.08L278.33,100.56L279.32,99.9L284.26,96.66L285.24,96.34L288.2,92.52L289.19,91.8L295.11,85.66L296.1,82.95" style="vector-effect: non-scaling-stroke; fill: none; stroke: rgb(230, 25, 75); stroke-opacity: 1; stroke-width: 2px; opacity: 1;"/></g><g class="points"/><g class="text"/></g><g class="trace scatter trace09b62e" style="stroke-miterlimit: 2; opacity: 1;"><g class="fills"/><g class="errorbars"/><g class="lines"><path class="js-line" d="M0,256.5L60.21,255.78L61.19,255.44L62.18,255.02L63.17,253.33L65.14,252.67L66.13,252.07L72.05,246.2L73.04,244.96L77.97,239.45L78.96,238.52L89.82,228.54L90.8,228.54L92.78,225.5L93.76,225.04L96.73,221.77L97.71,220.23L101.66,215L102.65,214.4L104.62,211.15L105.61,210.07L109.56,206.44L110.54,205.98L112.52,204.06L113.5,203.04L119.43,197.94L120.41,197.21L127.32,193.43L128.31,191.87L133.24,189.68L134.23,189.1L147.06,185.1L148.05,184.98L159.89,181.5L160.88,181.08L167.79,178.32L168.78,177.67L173.71,175.42L174.7,174.62L186.54,164.04L187.53,162.9L200.36,150.28L201.35,149.56L206.28,145.86L207.27,145.36L213.19,140.48L214.18,138.46L222.07,131.85L223.06,131.07L227.01,128.77L228,128.24L230.96,126.49L231.94,123.79L236.88,120.88L237.87,119.98L241.81,118.07L242.8,117.2L247.74,113.94L248.72,113.23L251.68,110.32L252.67,109.22L255.63,107.4L256.62,106.55L270.44,90.4L271.42,88.82L274.39,84.48L275.37,83.16L277.35,79.54L278.33,77.58L285.24,62.21L286.23,58.61L289.19,49.92L290.18,45.27L295.11,19.19L296.1,13.5" style="vector-effect: non-scaling-stroke; fill: none; stroke: rgb(60, 180, 75); stroke-opacity: 1; stroke-width: 2px; opacity: 1;"/></g><g class="points"/><g class="text"/></g><g class="trace scatter traceaa1b66" style="stroke-miterlimit: 2; opacity: 1;"><g class="fills"/><g class="errorbars"/><g class="lines"><path class="js-line" d="M0,256.5L61.19,255.8L62.18,255.67L71.06,252.79L72.05,252.3L75.01,250.79L76,249.36L90.8,236.43L91.79,235.33L94.75,231.29L95.74,230.24L97.71,228.3L98.7,225.32L102.65,220.16L103.63,218.52L109.56,209.73L110.54,208.73L115.48,201.29L116.47,197.8L118.44,195.76L119.43,194.63L122.39,189L123.38,189L125.35,185.98L126.34,184.12L128.31,181.98L129.3,181.23L134.23,173.7L135.22,172.98L137.19,171.44L138.18,170.42L142.13,167.25L143.11,166.92L149.04,164.16L150.02,163.75L152.98,162.17L153.97,161.26L155.95,160.69L156.93,160.25L163.84,157.04L164.83,155.94L173.71,151.19L174.7,150.55L188.52,141.27L189.5,140.63L206.28,131.04L207.27,130.7L216.15,126.59L217.14,126.2L225.04,121.53L226.02,120.61L229.97,118.81L230.96,118.18L251.68,106.34L252.67,105.8L274.39,90.68L275.37,89.65L283.27,82.35L284.26,80.87L295.11,64.94L296.1,62.54" style="vector-effect: non-scaling-stroke; fill: none; stroke: rgb(255, 225, 25); stroke-opacity: 1; stroke-width: 2px; opacity: 1;"/></g><g class="points"/><g class="text"/></g><g class="trace scatter trace2a4ace" style="stroke-miterlimit: 2; opacity: 1;"><g class="fills"/><g class="errorbars"/><g class="lines"><path class="js-line" d="M0,256.5L63.17,255.76L64.15,255.42L68.1,255.03L69.09,254.44L77.97,252.22L78.96,251.92L81.92,251.15L82.91,250.91L92.78,249.78L93.76,249.7L128.31,247.32L129.3,247.13L137.19,245.85L138.18,245.73L149.04,243.54L150.02,241.79L153.97,239.01L154.96,239.01L155.95,239.01L156.93,236.8L159.89,233.16L160.88,233.16L162.85,233.16L163.84,227.67L170.75,219.02L171.74,217.55L177.66,208.45L178.65,206.09L183.58,198.1L184.57,197.35L186.54,194.1L187.53,193.11L190.49,190.47L191.48,190.11L193.45,189.31L194.44,187.34L195.43,185.69L196.41,185.69L197.4,185.69L198.39,177.53L200.36,174.66L201.35,169.82L202.33,167.2L203.32,167.2L204.31,167.2L205.3,162.53L209.24,156.5L210.23,156.5L211.22,156.5L212.2,149.38L214.18,146.69L215.17,145.59L216.15,144.01L217.14,144.01L218.13,144.01L219.11,138.1L223.06,133.1L224.05,133.1L225.04,133.1L226.02,129.61L228.98,127.49L229.97,124.91L231.94,124.91L232.93,122.47L234.91,120.99L235.89,119.02L236.88,117.64L237.87,117.64L238.85,117.64L239.84,114.64L243.79,111L244.78,111L245.76,111L246.75,109.33L249.71,107.25L250.7,106.59L252.67,106.59L253.66,104.03L257.61,101.38L258.59,101.38L259.58,101.38L260.57,100.07L264.52,97.82L265.5,97.82L266.49,97.82L267.48,95.27L270.44,91.91L271.42,90.79L273.4,90.79L274.39,88.58L278.33,84.75L279.32,84.75L280.31,84.75L281.29,81.27L286.23,75.93L287.22,75.93L289.19,68.12L290.18,66.2L292.15,60.8L293.14,60.8L294.13,60.8L295.11,53.18L296.1,50.63" style="vector-effect: non-scaling-stroke; fill: none; stroke: rgb(67, 99, 216); stroke-opacity: 1; stroke-width: 2px; opacity: 1;"/></g><g class="points"/><g class="text"/></g><g class="trace scatter tracea8354e" style="stroke-miterlimit: 2; opacity: 1;"><g class="fills"/><g class="errorbars"/><g class="lines"><path class="js-line" d="M0,256.5L62.18,255.84L63.17,255.59L68.1,253.49L69.09,252.82L71.06,251.61L72.05,250.61L75.01,248.67L76,247.8L80.93,242.46L81.92,242.02L86.86,237.92L87.84,236.98L88.83,236.54L89.82,235.16L90.8,233.35L91.79,229.21L92.78,227.77L93.76,227.77L97.71,223.16L98.7,222.01L106.6,215.11L107.58,214.64L111.53,212.07L112.52,211.41L116.47,209.29L117.45,208.75L122.39,206.69L123.38,206.44L128.31,204.95L129.3,202.72L143.11,200.67L144.1,200.66L184.57,197.47L185.56,197.35L200.36,195.58L201.35,195.58L208.26,195.58L209.24,194.58L216.15,193.76L217.14,193.55L235.89,190.99L236.88,190.76L257.61,186.77L258.59,186.5L267.48,183.08L268.46,182.47L271.42,181.23L272.41,180.62L279.32,177.37L280.31,176.93L284.26,174.97L285.24,174.36L296.1,166.99" style="vector-effect: non-scaling-stroke; fill: none; stroke: rgb(245, 130, 49); stroke-opacity: 1; stroke-width: 2px; opacity: 1;"/></g><g class="points"/><g class="text"/></g><g class="trace scatter trace2f8110" style="stroke-miterlimit: 2; opacity: 1;"><g class="fills"/><g class="errorbars"/><g class="lines"><path class="js-line" d="M0,256.5L61.19,255.92L62.18,255.74L67.12,254.34L68.1,253.92L74.02,250.71L75.01,249.65L78.96,244.48L79.95,243.95L81.92,240.96L82.91,239.64L85.87,235.54L86.86,234.52L88.83,230.59L89.82,229.42L97.71,219.76L98.7,217.6L99.69,216.41L100.67,216.41L102.65,214.84L103.63,213.67L107.58,208.86L108.57,208.24L113.5,202.07L114.49,199.29L117.45,195.93L118.44,195.51L122.39,191.95L123.38,191.45L127.32,189.55L128.31,188.97L131.27,187.02L132.26,186.74L139.17,184.57L140.15,183.67L143.11,182.84L144.1,182.64L180.62,176.84L181.61,175.56L185.56,175.16L186.54,174.24L211.22,171.22L212.2,170.05L214.18,169.44L215.17,169.22L217.14,168.66L218.13,168.66L220.1,167.76L221.09,167.55L231.94,165.42L232.93,164.28L246.75,160.28L247.74,159.84L251.68,158.19L252.67,158.19L254.65,156.33L255.63,155.88L258.59,154.7L259.58,154.7L261.55,151.89L262.54,151.49L263.53,151.17L264.52,149.76L266.49,149.76L267.48,147.83L271.42,144.59L272.41,144.59L273.4,144.59L274.39,141.61L279.32,137.23L280.31,137.23L282.28,131.6L283.27,131.02L285.24,126.83L286.23,126.83L287.22,126.83L288.2,122.64L292.15,111.66L293.14,111.66L294.13,111.66L295.11,103.9L296.1,101.47" style="vector-effect: non-scaling-stroke; fill: none; stroke: rgb(145, 30, 180); stroke-opacity: 1; stroke-width: 2px; opacity: 1;"/></g><g class="points"/><g class="text"/></g></g></g><g class="overplot"/><path class="xlines-above crisp" d="M0,0" style="fill: none;"/><path class="ylines-above crisp" d="M0,0" style="fill: none;"/><g class="overlines-above"/><g class="xaxislayer-above"><g class="xtick"><text text-anchor="middle" x="0" y="383" transform="translate(118.49000000000001,0)" style="font-family: 'Open Sans', verdana, arial, sans-serif; font-size: 12px; fill: rgb(242, 245, 250); fill-opacity: 1; white-space: pre;">Mar 2020</text></g><g class="xtick"><text text-anchor="middle" x="0" y="383" transform="translate(178.7,0)" style="font-family: 'Open Sans', verdana, arial, sans-serif; font-size: 12px; fill: rgb(242, 245, 250); fill-opacity: 1; white-space: pre;">May 2020</text></g><g class="xtick"><text text-anchor="middle" x="0" y="383" transform="translate(238.91,0)" style="font-family: 'Open Sans', verdana, arial, sans-serif; font-size: 12px; fill: rgb(242, 245, 250); fill-opacity: 1; white-space: pre;">Jul 2020</text></g><g class="xtick"><text text-anchor="middle" x="0" y="383" transform="translate(300.1,0)" style="font-family: 'Open Sans', verdana, arial, sans-serif; font-size: 12px; fill: rgb(242, 245, 250); fill-opacity: 1; white-space: pre;">Sep 2020</text></g><g class="xtick"><text text-anchor="middle" x="0" y="383" transform="translate(360.31,0)" style="font-family: 'Open Sans', verdana, arial, sans-serif; font-size: 12px; fill: rgb(242, 245, 250); fill-opacity: 1; white-space: pre;">Nov 2020</text></g></g><g class="yaxislayer-above"><g class="ytick"><text text-anchor="end" x="79" y="4.199999999999999" transform="translate(0,356.5)" style="font-family: 'Open Sans', verdana, arial, sans-serif; font-size: 12px; fill: rgb(242, 245, 250); fill-opacity: 1; white-space: pre;">0</text></g><g class="ytick"><text text-anchor="end" x="79" y="4.199999999999999" transform="translate(0,290.90999999999997)" style="font-family: 'Open Sans', verdana, arial, sans-serif; font-size: 12px; fill: rgb(242, 245, 250); fill-opacity: 1; white-space: pre;">10k</text></g><g class="ytick"><text text-anchor="end" x="79" y="4.199999999999999" transform="translate(0,225.32)" style="font-family: 'Open Sans', verdana, arial, sans-serif; font-size: 12px; fill: rgb(242, 245, 250); fill-opacity: 1; white-space: pre;">20k</text></g><g class="ytick"><text text-anchor="end" x="79" y="4.199999999999999" transform="translate(0,159.73)" style="font-family: 'Open Sans', verdana, arial, sans-serif; font-size: 12px; fill: rgb(242, 245, 250); fill-opacity: 1; white-space: pre;">30k</text></g></g><g class="overaxes-above"/></g><g class="subplot x2y2"><g class="layer-subplot"><g class="shapelayer"/><g class="imagelayer"/></g><g class="gridlayer"><g class="x2"><path class="x2grid crisp" transform="translate(480.39000000000004,0)" d="M0,100v270" style="stroke: rgb(40, 52, 66); stroke-opacity: 1; stroke-width: 1px;"/><path class="x2grid crisp" transform="translate(540.6,0)" d="M0,100v270" style="stroke: rgb(40, 52, 66); stroke-opacity: 1; stroke-width: 1px;"/><path class="x2grid crisp" transform="translate(600.8100000000001,0)" d="M0,100v270" style="stroke: rgb(40, 52, 66); stroke-opacity: 1; stroke-width: 1px;"/><path class="x2grid crisp" transform="translate(662,0)" d="M0,100v270" style="stroke: rgb(40, 52, 66); stroke-opacity: 1; stroke-width: 1px;"/><path class="x2grid crisp" transform="translate(722.21,0)" d="M0,100v270" style="stroke: rgb(40, 52, 66); stroke-opacity: 1; stroke-width: 1px;"/></g><g class="y2"><path class="y2grid crisp" transform="translate(0,277.65999999999997)" d="M441.90000000000003,0h296.09999999999997" style="stroke: rgb(40, 52, 66); stroke-opacity: 1; stroke-width: 1px;"/><path class="y2grid crisp" transform="translate(0,198.81)" d="M441.90000000000003,0h296.09999999999997" style="stroke: rgb(40, 52, 66); stroke-opacity: 1; stroke-width: 1px;"/><path class="y2grid crisp" transform="translate(0,119.97)" d="M441.90000000000003,0h296.09999999999997" style="stroke: rgb(40, 52, 66); stroke-opacity: 1; stroke-width: 1px;"/></g></g><g class="zerolinelayer"><path class="y2zl zl crisp" transform="translate(0,356.5)" d="M441.90000000000003,0h296.09999999999997" style="stroke: rgb(40, 52, 66); stroke-opacity: 1; stroke-width: 2px;"/></g><path class="xlines-below"/><path class="ylines-below"/><g class="overlines-below"/><g class="xaxislayer-below"/><g class="yaxislayer-below"/><g class="overaxes-below"/><g class="plot" transform="translate(441.90000000000003, 100)" clip-path="url('#clip204eadx2y2plot')"><g class="scatterlayer mlayer"><g class="trace scatter trace9c01ef" style="stroke-miterlimit: 2; opacity: 1;"><g class="fills"/><g class="errorbars"/><g class="lines"><path class="js-line" d="M0,256.5L64.15,255.87L65.14,255.55L81.92,252.87L82.91,250.82L85.87,250.03L86.86,249.88L90.8,249.25L91.79,248.93L93.76,248.3L94.75,248.3L99.69,246.57L100.67,246.57L104.62,245.93L105.61,245.46L110.54,244.52L111.53,244.04L114.49,243.41L115.48,243.41L119.43,242.31L120.41,241.99L128.31,241.36L129.3,241.36L141.14,239.31L142.13,238.84L145.09,238.21L146.08,238.05L152,237.26L152.99,236.32L160.88,234.42L161.87,234.42L165.82,234.11L166.8,233.48L173.71,232.22L174.7,231.11L178.65,230.17L179.63,229.54L183.58,228.43L184.57,228.43L187.53,227.8L188.52,227.8L190.49,226.7L191.48,226.7L194.44,226.07L195.43,226.07L196.41,226.07L197.4,224.17L199.37,224.17L200.36,223.07L203.32,221.97L204.31,221.65L206.28,221.18L207.27,220.55L210.23,219.76L211.22,219.6L212.2,219.6L213.19,218.65L217.14,217.55L218.13,215.97L220.1,215.97L221.09,213.29L222.08,209.98L223.06,209.82L226.02,209.19L227.01,209.19L228.98,208.72L229.97,206.04L230.96,206.04L231.94,204.15L232.93,203.99L233.92,200.36L234.91,200.36L235.89,198.94L238.85,197.52L239.84,197.52L241.81,194.21L242.8,193.9L244.78,192.48L245.76,192.48L247.74,192.16L248.72,191.53L249.71,190.27L250.7,190.27L252.67,189.48L253.66,189.48L257.61,188.54L258.59,188.54L269.45,187.9L270.44,184.59L272.41,183.96L273.4,183.8L284.26,183.17L285.24,182.23L287.22,181.76L288.2,181.76L289.19,181.76L290.18,180.34L294.13,179.23L295.11,179.23L296.1,178.76" style="vector-effect: non-scaling-stroke; fill: none; stroke: rgb(230, 25, 75); stroke-opacity: 1; stroke-width: 2px; opacity: 1;"/></g><g class="points"/><g class="text"/></g><g class="trace scatter traceb0f8ca" style="stroke-miterlimit: 2; opacity: 1;"><g class="fills"/><g class="errorbars"/><g class="lines"><path class="js-line" d="M0,256.5L61.19,256.03L62.18,255.55L66.13,254.92L67.12,254.61L72.05,251.14L73.04,250.67L75.01,248.93L76,247.35L78.96,237.89L79.95,237.1L80.93,237.1L81.92,234.27L85.87,226.54L86.86,226.22L87.84,226.22L88.83,224.02L89.82,222.75L90.8,222.75L95.74,222.75L96.73,208.4L99.69,200.2L100.67,199.73L101.66,199.26L102.65,197.52L104.62,193.74L105.61,192.95L108.57,189.8L109.56,188.85L113.51,181.76L114.49,181.28L115.48,180.81L116.47,178.13L120.41,172.77L121.4,172.45L122.39,172.45L123.38,171.51L125.35,168.51L126.34,166.46L127.32,166.46L128.31,165.36L129.3,164.88L130.28,163.15L132.26,162.2L133.24,161.26L135.22,158.57L136.21,158.26L139.17,155.11L140.15,155.11L144.1,153.37L145.09,152.9L149.04,151.16L150.02,151.01L152,150.37L152.99,150.06L170.75,147.22L171.74,146.59L179.63,144.38L180.62,144.38L186.54,143.91L187.53,143.44L200.36,141.23L201.35,140.91L213.19,139.02L214.18,130.98L223.06,130.19L224.05,130.19L231.94,129.56L232.93,129.4L252.67,126.88L253.66,126.88L259.58,126.56L260.57,126.56L267.48,124.99L268.46,124.51L274.39,123.09L275.37,122.62L278.33,122.46L279.32,122.46L285.24,121.83L286.23,121.52L290.18,120.41L291.17,119.78L296.1,117.73" style="vector-effect: non-scaling-stroke; fill: none; stroke: rgb(60, 180, 75); stroke-opacity: 1; stroke-width: 2px; opacity: 1;"/></g><g class="points"/><g class="text"/></g><g class="trace scatter tracef694b7" style="stroke-miterlimit: 2; opacity: 1;"><g class="fills"/><g class="errorbars"/><g class="lines"><path class="js-line" d="M0,256.5L70.08,255.87L71.06,255.4L73.04,254.45L74.02,253.5L76.99,251.93L77.97,251.14L80.93,249.88L81.92,247.98L82.91,247.35L83.9,245.46L85.87,245.46L86.86,243.88L90.8,237.42L91.79,237.42L94.75,226.54L95.74,224.8L97.71,220.39L98.7,219.29L100.67,214.24L101.66,213.29L104.62,206.83L105.61,205.41L113.51,189.8L114.49,187.59L115.48,186.8L116.47,183.17L118.44,179.07L119.43,177.34L121.4,173.56L122.39,168.98L126.34,168.98L127.32,167.41L129.3,165.67L130.28,158.1L134.23,153.69L135.22,153.06L137.19,151.32L138.18,150.53L140.15,149.43L141.14,148.32L152.99,141.23L153.97,141.07L166.8,137.6L167.79,137.44L178.65,134.45L179.63,133.34L185.56,133.03L186.54,132.08L191.48,131.45L192.47,131.29L194.44,130.82L195.43,130.19L212.2,127.98L213.19,127.98L228,125.78L228.98,125.3L238.85,124.36L239.84,124.36L241.81,123.88L242.8,123.88L259.58,121.68L260.57,121.68L270.44,120.41L271.42,120.41L283.27,118.05L284.26,117.42L287.22,116.31L288.2,115.84L292.15,114.11L293.14,113.79L296.1,112.21" style="vector-effect: non-scaling-stroke; fill: none; stroke: rgb(255, 225, 25); stroke-opacity: 1; stroke-width: 2px; opacity: 1;"/></g><g class="points"/><g class="text"/></g><g class="trace scatter trace143eed" style="stroke-miterlimit: 2; opacity: 1;"><g class="fills"/><g class="errorbars"/><g class="lines"><path class="js-line" d="M0,256.5L61.19,255.87L62.18,255.71L70.08,255.08L71.06,254.92L72.05,254.92L73.04,253.98L78.96,252.4L79.95,252.4L94.75,250.03L95.74,250.03L115.48,247.67L116.47,247.67L135.22,247.2L136.21,246.88L144.1,246.57L145.09,246.09L162.85,245.62L163.84,244.83L170.75,243.41L171.74,242.15L180.62,241.05L181.61,240.26L186.54,236.63L187.53,236.47L190.49,234.11L191.48,233.63L196.41,231.11L197.4,231.11L198.39,228.59L199.37,228.27L202.33,225.12L203.32,225.12L204.31,225.12L205.3,222.12L206.28,221.97L207.27,220.23L211.22,219.6L212.2,217.71L217.14,213.29L218.13,213.29L219.11,210.3L220.1,209.82L223.06,204.94L224.05,204.94L225.04,204.94L226.02,204.15L228,203.04L228.98,201.94L230.96,201.31L231.94,201.31L236.88,197.37L237.87,197.37L238.85,197.37L239.84,196.1L241.81,193.58L242.8,193.11L244.78,192.48L245.76,192.48L250.7,188.69L251.68,188.69L253.66,188.38L254.65,187.59L256.62,186.01L257.61,185.54L259.58,185.54L260.57,184.28L262.54,183.65L263.53,183.33L265.5,182.7L266.49,182.7L272.41,180.18L273.4,180.18L276.36,177.81L277.35,177.66L282.28,177.02L283.27,176.71L287.22,176.39L288.2,175.61L294.13,174.5L295.11,173.4L296.1,172.45" style="vector-effect: non-scaling-stroke; fill: none; stroke: rgb(67, 99, 216); stroke-opacity: 1; stroke-width: 2px; opacity: 1;"/></g><g class="points"/><g class="text"/></g><g class="trace scatter traceaaf9fd" style="stroke-miterlimit: 2; opacity: 1;"><g class="fills"/><g class="errorbars"/><g class="lines"><path class="js-line" d="M0,256.5L68.1,256.18L69.09,255.71L74.02,254.45L75.01,252.72L80.93,246.41L81.92,244.67L86.86,236.16L87.84,235.37L88.83,234.27L89.82,231.74L94.75,218.65L95.74,216.13L99.69,207.3L100.67,205.57L108.57,192.16L109.56,192L112.52,186.49L113.51,184.75L116.47,182.39L117.45,180.65L123.38,174.19L124.36,172.92L126.34,171.03L127.32,170.09L128.31,169.46L129.3,167.88L134.23,163.78L135.22,163.31L139.17,159.99L140.15,158.89L145.09,157L146.08,156.21L149.04,155.11L150.02,154.63L152,153.84L152.99,153.37L155.95,151.95L156.93,151.95L161.87,151.32L162.85,151.16L164.83,151.01L165.82,150.37L171.74,149.27L172.72,148.32L181.61,145.8L182.59,145.8L189.5,144.38L190.49,144.22L204.31,142.49L205.3,142.49L206.28,142.49L207.27,141.39L220.1,139.49L221.09,139.49L245.76,135.55L246.75,135.08L250.7,134.61L251.68,134.13L262.54,132.56L263.53,131.45L265.5,130.03L266.49,129.72L268.46,129.4L269.45,128.93L272.41,127.19L273.4,126.72L280.31,124.2L281.29,123.88L287.22,122.31L288.2,122.31L291.17,120.57L292.15,120.41L296.1,118.68" style="vector-effect: non-scaling-stroke; fill: none; stroke: rgb(245, 130, 49); stroke-opacity: 1; stroke-width: 2px; opacity: 1;"/></g><g class="points"/><g class="text"/></g><g class="trace scatter trace9cced2" style="stroke-miterlimit: 2; opacity: 1;"><g class="fills"/><g class="errorbars"/><g class="lines"><path class="js-line" d="M0,256.5L67.12,256.03L68.1,255.4L74.02,251.61L75.01,248.93L76.99,244.67L77.97,242.62L80.93,235.53L81.92,232.37L83.9,218.18L84.88,214.55L86.86,209.98L87.84,198.31L97.71,146.43L98.7,143.75L105.61,117.1L106.6,114.42L109.56,109.69L110.54,104.64L113.51,91.87L114.49,87.93L117.45,80.52L118.44,77.84L120.41,72.16L121.4,71.21L124.36,66.8L125.35,66.01L128.31,59.39L129.3,59.39L131.27,57.97L132.26,56.86L134.23,54.81L135.22,53.55L137.19,52.92L138.18,51.03L143.11,47.09L144.1,46.77L146.08,45.83L147.06,45.04L156.93,40.46L157.92,40.46L161.87,39.2L162.85,39.2L168.78,38.1L169.76,38.1L172.72,36.05L173.71,35.42L186.54,34L187.53,34L192.47,33.84L193.45,33.84L197.4,33.37L198.39,33.37L207.27,32.74L208.26,32.58L211.22,32.27L212.2,32.27L215.17,31.79L216.15,31.79L228,31.32L228.98,31L246.75,30.37L247.74,30.06L254.65,29.43L255.63,29.43L258.59,29.11L259.58,29.11L267.48,28.01L268.46,27.38L270.44,26.43L271.42,25.64L273.4,25.64L274.39,24.85L276.36,24.07L277.35,23.28L281.29,21.86L282.28,21.38L286.23,19.18L287.22,19.18L289.19,16.5L290.18,16.02L291.17,16.02L292.15,14.92L294.13,14.92L295.11,13.97L296.1,13.5" style="vector-effect: non-scaling-stroke; fill: none; stroke: rgb(145, 30, 180); stroke-opacity: 1; stroke-width: 2px; opacity: 1;"/></g><g class="points"/><g class="text"/></g></g></g><g class="overplot"/><path class="xlines-above crisp" d="M0,0" style="fill: none;"/><path class="ylines-above crisp" d="M0,0" style="fill: none;"/><g class="overlines-above"/><g class="xaxislayer-above"><g class="x2tick"><text text-anchor="middle" x="0" y="383" transform="translate(480.39000000000004,0)" style="font-family: 'Open Sans', verdana, arial, sans-serif; font-size: 12px; fill: rgb(242, 245, 250); fill-opacity: 1; white-space: pre;">Mar 2020</text></g><g class="x2tick"><text text-anchor="middle" x="0" y="383" transform="translate(540.6,0)" style="font-family: 'Open Sans', verdana, arial, sans-serif; font-size: 12px; fill: rgb(242, 245, 250); fill-opacity: 1; white-space: pre;">May 2020</text></g><g class="x2tick"><text text-anchor="middle" x="0" y="383" transform="translate(600.8100000000001,0)" style="font-family: 'Open Sans', verdana, arial, sans-serif; font-size: 12px; fill: rgb(242, 245, 250); fill-opacity: 1; white-space: pre;">Jul 2020</text></g><g class="x2tick"><text text-anchor="middle" x="0" y="383" transform="translate(662,0)" style="font-family: 'Open Sans', verdana, arial, sans-serif; font-size: 12px; fill: rgb(242, 245, 250); fill-opacity: 1; white-space: pre;">Sep 2020</text></g><g class="x2tick"><text text-anchor="middle" x="0" y="383" transform="translate(722.21,0)" style="font-family: 'Open Sans', verdana, arial, sans-serif; font-size: 12px; fill: rgb(242, 245, 250); fill-opacity: 1; white-space: pre;">Nov 2020</text></g></g><g class="yaxislayer-above"><g class="y2tick"><text text-anchor="end" x="440.90000000000003" y="4.199999999999999" transform="translate(0,356.5)" style="font-family: 'Open Sans', verdana, arial, sans-serif; font-size: 12px; fill: rgb(242, 245, 250); fill-opacity: 1; white-space: pre;">0</text></g><g class="y2tick"><text text-anchor="end" x="440.90000000000003" y="4.199999999999999" transform="translate(0,277.65999999999997)" style="font-family: 'Open Sans', verdana, arial, sans-serif; font-size: 12px; fill: rgb(242, 245, 250); fill-opacity: 1; white-space: pre;">500</text></g><g class="y2tick"><text text-anchor="end" x="440.90000000000003" y="4.199999999999999" transform="translate(0,198.81)" style="font-family: 'Open Sans', verdana, arial, sans-serif; font-size: 12px; fill: rgb(242, 245, 250); fill-opacity: 1; white-space: pre;">1000</text></g><g class="y2tick"><text text-anchor="end" x="440.90000000000003" y="4.199999999999999" transform="translate(0,119.97)" style="font-family: 'Open Sans', verdana, arial, sans-serif; font-size: 12px; fill: rgb(242, 245, 250); fill-opacity: 1; white-space: pre;">1500</text></g></g><g class="overaxes-above"/></g></g><g class="polarlayer"/><g class="ternarylayer"/><g class="geolayer"/><g class="funnelarealayer"/><g class="pielayer"/><g class="treemaplayer"/><g class="sunburstlayer"/><g class="glimages"/><defs id="topdefs-204ead"><g class="clips"/><clipPath id="legend204ead"><rect width="137" height="124" x="0" y="0"/></clipPath></defs><g class="layer-above"><g class="imagelayer"/><g class="shapelayer"/></g><g class="infolayer"><g class="legend" pointer-events="all" transform="translate(751.16, 100)"><rect class="bg" shape-rendering="crispEdges" width="137" height="124" x="0" y="0" style="stroke: rgb(68, 68, 68); stroke-opacity: 1; fill: rgb(17, 17, 17); fill-opacity: 1; stroke-width: 0px;"/><g class="scrollbox" transform="translate(0, 0)" clip-path="url('#legend204ead')"><g class="groups"><g class="traces" transform="translate(0, 14.5)" style="opacity: 1;"><text class="legendtext user-select-none" text-anchor="start" x="40" y="4.680000000000001" style="font-family: 'Open Sans', verdana, arial, sans-serif; font-size: 12px; fill: rgb(242, 245, 250); fill-opacity: 1; white-space: pre;">Alameda, CA</text><g class="layers" style="opacity: 1;"><g class="legendfill"/><g class="legendlines"><path class="js-line" d="M5,0h30" style="fill: none; stroke: rgb(230, 25, 75); stroke-opacity: 1; stroke-width: 2px;"/></g><g class="legendsymbols"><g class="legendpoints"/></g></g><rect class="legendtoggle" pointer-events="all" x="0" y="-9.5" width="131.46875" height="19" style="cursor: pointer; fill: rgb(0, 0, 0); fill-opacity: 0;"/></g><g class="traces" transform="translate(0, 33.5)" style="opacity: 1;"><text class="legendtext user-select-none" text-anchor="start" x="40" y="4.680000000000001" style="font-family: 'Open Sans', verdana, arial, sans-serif; font-size: 12px; fill: rgb(242, 245, 250); fill-opacity: 1; white-space: pre;">Marion, IN</text><g class="layers" style="opacity: 1;"><g class="legendfill"/><g class="legendlines"><path class="js-line" d="M5,0h30" style="fill: none; stroke: rgb(60, 180, 75); stroke-opacity: 1; stroke-width: 2px;"/></g><g class="legendsymbols"><g class="legendpoints"/></g></g><rect class="legendtoggle" pointer-events="all" x="0" y="-9.5" width="131.46875" height="19" style="cursor: pointer; fill: rgb(0, 0, 0); fill-opacity: 0;"/></g><g class="traces" transform="translate(0, 52.5)" style="opacity: 1;"><text class="legendtext user-select-none" text-anchor="start" x="40" y="4.680000000000001" style="font-family: 'Open Sans', verdana, arial, sans-serif; font-size: 12px; fill: rgb(242, 245, 250); fill-opacity: 1; white-space: pre;">Montgomery, MD</text><g class="layers" style="opacity: 1;"><g class="legendfill"/><g class="legendlines"><path class="js-line" d="M5,0h30" style="fill: none; stroke: rgb(255, 225, 25); stroke-opacity: 1; stroke-width: 2px;"/></g><g class="legendsymbols"><g class="legendpoints"/></g></g><rect class="legendtoggle" pointer-events="all" x="0" y="-9.5" width="131.46875" height="19" style="cursor: pointer; fill: rgb(0, 0, 0); fill-opacity: 0;"/></g><g class="traces" transform="translate(0, 71.5)" style="opacity: 1;"><text class="legendtext user-select-none" text-anchor="start" x="40" y="4.680000000000001" style="font-family: 'Open Sans', verdana, arial, sans-serif; font-size: 12px; fill: rgb(242, 245, 250); fill-opacity: 1; white-space: pre;">Sacramento, CA</text><g class="layers" style="opacity: 1;"><g class="legendfill"/><g class="legendlines"><path class="js-line" d="M5,0h30" style="fill: none; stroke: rgb(67, 99, 216); stroke-opacity: 1; stroke-width: 2px;"/></g><g class="legendsymbols"><g class="legendpoints"/></g></g><rect class="legendtoggle" pointer-events="all" x="0" y="-9.5" width="131.46875" height="19" style="cursor: pointer; fill: rgb(0, 0, 0); fill-opacity: 0;"/></g><g class="traces" transform="translate(0, 90.5)" style="opacity: 1;"><text class="legendtext user-select-none" text-anchor="start" x="40" y="4.680000000000001" style="font-family: 'Open Sans', verdana, arial, sans-serif; font-size: 12px; fill: rgb(242, 245, 250); fill-opacity: 1; white-space: pre;">Plymouth, MA</text><g class="layers" style="opacity: 1;"><g class="legendfill"/><g class="legendlines"><path class="js-line" d="M5,0h30" style="fill: none; stroke: rgb(245, 130, 49); stroke-opacity: 1; stroke-width: 2px;"/></g><g class="legendsymbols"><g class="legendpoints"/></g></g><rect class="legendtoggle" pointer-events="all" x="0" y="-9.5" width="131.46875" height="19" style="cursor: pointer; fill: rgb(0, 0, 0); fill-opacity: 0;"/></g><g class="traces" transform="translate(0, 109.5)" style="opacity: 1;"><text class="legendtext user-select-none" text-anchor="start" x="40" y="4.680000000000001" style="font-family: 'Open Sans', verdana, arial, sans-serif; font-size: 12px; fill: rgb(242, 245, 250); fill-opacity: 1; white-space: pre;">Hartford, CT</text><g class="layers" style="opacity: 1;"><g class="legendfill"/><g class="legendlines"><path class="js-line" d="M5,0h30" style="fill: none; stroke: rgb(145, 30, 180); stroke-opacity: 1; stroke-width: 2px;"/></g><g class="legendsymbols"><g class="legendpoints"/></g></g><rect class="legendtoggle" pointer-events="all" x="0" y="-9.5" width="131.46875" height="19" style="cursor: pointer; fill: rgb(0, 0, 0); fill-opacity: 0;"/></g></g></g><rect class="scrollbar" rx="20" ry="3" width="0" height="0" x="0" y="0" style="fill: rgb(128, 139, 164); fill-opacity: 1;"/></g><g class="g-gtitle"/><g class="g-xtitle"><text class="xtitle" x="228.05" y="410.8" text-anchor="middle" style="font-family: 'Open Sans', verdana, arial, sans-serif; font-size: 14px; fill: rgb(242, 245, 250); opacity: 1; font-weight: normal; white-space: pre;">Date</text></g><g class="g-x2title"><text class="x2title" x="589.95" y="410.8" text-anchor="middle" style="font-family: 'Open Sans', verdana, arial, sans-serif; font-size: 14px; fill: rgb(242, 245, 250); opacity: 1; font-weight: normal; white-space: pre;">Date</text></g><g class="g-ytitle"><text class="ytitle" transform="rotate(-90,34.840625,235)" x="34.840625" y="235" text-anchor="middle" style="font-family: 'Open Sans', verdana, arial, sans-serif; font-size: 14px; fill: rgb(242, 245, 250); opacity: 1; font-weight: normal; white-space: pre;">Cases</text></g><g class="g-y2title"><text class="y2title" transform="rotate(-90,389.403125,235)" x="389.403125" y="235" text-anchor="middle" style="font-family: 'Open Sans', verdana, arial, sans-serif; font-size: 14px; fill: rgb(242, 245, 250); opacity: 1; font-weight: normal; white-space: pre;">Deaths</text></g><g class="annotation" data-index="0" style="opacity: 1;"><g class="annotation-text-g" transform="rotate(0,228.05,89.5)"><g class="cursor-pointer" transform="translate(204, 79)"><rect class="bg" x="0.5" y="0.5" width="48" height="20" style="stroke-width: 1px; stroke: rgb(0, 0, 0); stroke-opacity: 0; fill: rgb(0, 0, 0); fill-opacity: 0;"/><text class="annotation-text" text-anchor="middle" x="24.6875" y="16" style="font-family: 'Open Sans', verdana, arial, sans-serif; font-size: 16px; fill: rgb(242, 245, 250); fill-opacity: 1; white-space: pre;">Cases</text></g></g></g><g class="annotation" data-index="1" style="opacity: 1;"><g class="annotation-text-g" transform="rotate(0,589.95,89.5)"><g class="cursor-pointer" transform="translate(562, 79)"><rect class="bg" x="0.5" y="0.5" width="54" height="20" style="stroke-width: 1px; stroke: rgb(0, 0, 0); stroke-opacity: 0; fill: rgb(0, 0, 0); fill-opacity: 0;"/><text class="annotation-text" text-anchor="middle" x="27.359375" y="16" style="font-family: 'Open Sans', verdana, arial, sans-serif; font-size: 16px; fill: rgb(242, 245, 250); fill-opacity: 1; white-space: pre;">Deaths</text></g></g></g></g></svg>