<svg class="main-svg" xmlns="http://www.w3.org/2000/svg" xmlns:xlink="http://www.w3.org/1999/xlink" width="900" height="450" style="" viewBox="0 0 900 450"><rect x="0" y="0" width="900" height="450" style="fill: rgb(17, 17, 17); fill-opacity: 1;"/><defs id="defs-85fc4d"><g class="clips"><clipPath id="clip85fc4dxyplot" class="plotclip"><rect width="301.95" height="270"/></clipPath><clipPath id="clip85fc4dx2y2plot" class="plotclip"><rect width="301.95" height="270"/></clipPath><clipPath class="axesclip" id="clip85fc4dx"><rect x="80" y="0" width="301.95" height="450"/></clipPath><clipPath class="axesclip" id="clip85fc4dy"><rect x="0" y="100" width="900" height="270"/></clipPath><clipPath class="axesclip" id="clip85fc4dxy"><rect x="80" y="100" width="301.95" height="270"/></clipPath><clipPath class="axesclip" id="clip85fc4dy2"><rect x="0" y="100" width="900" height="270"/></clipPath><clipPath class="axesclip" id="clip85fc4dxy2"><rect x="80" y="100" width="301.95" height="270"/></clipPath><clipPath class="axesclip" id="clip85fc4dx2"><rect x="449.05" y="0" width="301.95" height="450"/></clipPath><clipPath class="axesclip" id="clip85fc4dx2y"><rect x="449.05" y="100" width="301.95" height="270"/></clipPath><clipPath class="axesclip" id="clip85fc4dx2y2"><rect x="449.05" y="100" width="301.95" height="270"/></clipPath></g><g class="gradients"/></defs><g class="bglayer"/><g class="layer-below"><g class="imagelayer"/><g class="shapelayer"/></g><g class="cartesianlayer"><g class="subplot xy"><g class="layer-subplot"><g class="shapelayer"/><g class="imagelayer"/></g><g class="gridlayer"><g class="x"><path class="xgrid crisp" transform="translate(147.75,0)" d="M0,100v270" style="stroke: rgb(40, 52, 66); stroke-opacity: 1; stroke-width: 1px;"/><path class="xgrid crisp" transform="translate(235.81,0)" d="M0,100v270" style="stroke: rgb(40, 52, 66); stroke-opacity: 1; stroke-width: 1px;"/><path class="xgrid crisp" transform="translate(324.85,0)" d="M0,100v270" style="stroke: rgb(40, 52, 66); stroke-opacity: 1; stroke-width: 1px;"/></g><g class="y"><path class="ygrid crisp" transform="translate(0,295.65999999999997)" d="M80,0h301.95" style="stroke: rgb(40, 52, 66); stroke-opacity: 1; stroke-width: 1px;"/><path class="ygrid crisp" transform="translate(0,234.83)" d="M80,0h301.95" style="stroke: rgb(40, 52, 66); stroke-opacity: 1; stroke-width: 1px;"/><path class="ygrid crisp" transform="translate(0,173.99)" d="M80,0h301.95" style="stroke: rgb(40, 52, 66); stroke-opacity: 1; stroke-width: 1px;"/><path class="ygrid crisp" transform="translate(0,113.16)" d="M80,0h301.95" style="stroke: rgb(40, 52, 66); stroke-opacity: 1; stroke-width: 1px;"/></g></g><g class="zerolinelayer"><path class="yzl zl crisp" transform="translate(0,356.5)" d="M80,0h301.95" style="stroke: rgb(40, 52, 66); stroke-opacity: 1; stroke-width: 2px;"/></g><path class="xlines-below"/><path class="ylines-below"/><g class="overlines-below"/><g class="xaxislayer-below"/><g class="yaxislayer-below"/><g class="overaxes-below"/><g class="plot" transform="translate(80, 100)" clip-path="url('#clip85fc4dxyplot')"><g class="scatterlayer mlayer"><g class="trace scatter trace36f872" style="stroke-miterlimit: 2; opacity: 1;"><g class="fills"/><g class="errorbars"/><g class="lines"><path class="js-line" d="M0,256.5L60,255.75L60.97,255.68L72.58,252.92L73.55,252.64L102.59,244.84L103.55,244.57L114.2,241.16L115.17,240.93L120.01,239.02L120.97,238.33L130.65,233.84L131.62,233.35L146.14,227.27L147.1,226.04L152.91,222.01L153.88,221.45L157.75,217.13L158.72,216.62L159.69,214.8L160.65,214.6L161.62,214.6L162.59,212.42L167.43,207.98L168.4,205.88L174.2,200.19L175.17,199.42L179.04,193.66L180.01,193.41L181.94,191.81L182.91,190.96L183.88,188.78L184.85,188.78L185.82,186.64L186.78,186.39L188.72,184.05L189.69,182.67L192.59,182.67L193.56,176.2L194.53,176.09L195.49,173.37L197.43,169.94L198.4,167.94L199.36,167.94L200.33,164.5L201.3,164.46L202.27,162.59L205.17,156.31L206.14,154.95L208.07,154.7L209.04,151.41L210.98,149.3L211.95,147.93L212.91,147.93L213.88,146.75L215.82,144.29L216.78,142.77L219.69,140.12L220.66,140.12L221.62,138.78L222.59,138.78L224.53,136.59L225.49,135.93L226.46,135.82L227.43,134.88L231.3,133.84L232.27,132.62L236.14,130.28L237.11,129.73L240.98,127.6L241.95,127.29L249.69,123.82L250.66,123.61L254.53,121.76L255.5,121.76L257.43,120.69L258.4,120.41L260.34,119.87L261.3,118.79L269.05,114.2L270.01,114.2L272.92,111.86L273.88,111.25L278.72,108.24L279.69,107.95L282.59,104.41L283.56,103.74L289.37,98.04L290.34,95.53L295.18,89.29L296.14,88.46L298.08,84.79L299.05,84.79L300.98,79.37L301.95,77.18" style="vector-effect: non-scaling-stroke; fill: none; stroke: rgb(230, 25, 75); stroke-opacity: 1; stroke-width: 2px; opacity: 1;"/></g><g class="points"/><g class="text"/></g><g class="trace scatter trace5047a9" style="stroke-miterlimit: 2; opacity: 1;"><g class="fills"/><g class="errorbars"/><g class="lines"><path class="js-line" d="M0,256.5L111.3,255.76L112.26,255.69L139.36,255.01L140.33,255L175.17,254.26L176.14,254.19L185.82,253.35L186.78,253.32L265.17,247.25L266.14,247.09L284.53,243.17L285.5,242.5L289.37,241.3L290.34,241.3L293.24,241.3L294.21,239.56L301.95,238.1" style="vector-effect: non-scaling-stroke; fill: none; stroke: rgb(60, 180, 75); stroke-opacity: 1; stroke-width: 2px; opacity: 1;"/></g><g class="points"/><g class="text"/></g><g class="trace scatter trace695fec" style="stroke-miterlimit: 2; opacity: 1;"><g class="fills"/><g class="errorbars"/><g class="lines"><path class="js-line" d="M0,256.5L111.3,255.76L112.26,255.7L139.36,255.33L140.33,255.33L191.62,254.58L192.59,254.55L224.53,253.84L225.49,253.79L257.43,252.15L258.4,251.69L265.17,250.96L266.14,250.88L270.98,250.22L271.95,249.87L279.69,247.89L280.66,247.54L301.95,238.29" style="vector-effect: non-scaling-stroke; fill: none; stroke: rgb(255, 225, 25); stroke-opacity: 1; stroke-width: 2px; opacity: 1;"/></g><g class="points"/><g class="text"/></g><g class="trace scatter trace993fae" style="stroke-miterlimit: 2; opacity: 1;"><g class="fills"/><g class="errorbars"/><g class="lines"><path class="js-line" d="M0,256.5L64.84,255.77L65.81,255.68L123.88,248.87L124.84,248.82L133.55,248.08L134.52,247.96L142.26,245.83L143.23,245.18L155.81,238.07L156.78,237.43L161.62,233.27L162.59,231.93L166.46,227.29L167.43,226.17L172.27,218.81L173.23,218.35L174.2,218.17L175.17,217.01L182.91,205.13L183.88,203.76L186.78,199.58L187.75,199.08L188.72,198.14L189.69,195.97L200.33,185.93L201.3,185.23L204.2,183.27L205.17,181.5L207.11,179.95L208.07,179.54L224.53,166.99L225.49,166.03L231.3,160.02L232.27,158.09L235.17,154.61L236.14,153.32L252.59,134.92L253.56,133.57L262.27,122.61L263.24,121.37L266.14,117.7L267.11,114.85L270.01,111.22L270.98,110.51L276.79,102.5L277.76,101.53L279.69,96.49L280.66,96.49L282.59,86.95L283.56,84.87L288.4,66.94L289.37,63.33L290.34,62.01L291.3,58.31L298.08,28.73L299.05,28.73L300.01,24.65L300.98,16.13L301.95,13.5" style="vector-effect: non-scaling-stroke; fill: none; stroke: rgb(67, 99, 216); stroke-opacity: 1; stroke-width: 2px; opacity: 1;"/></g><g class="points"/><g class="text"/></g><g class="trace scatter trace918733" style="stroke-miterlimit: 2; opacity: 1;"><g class="fills"/><g class="errorbars"/><g class="lines"><path class="js-line" d="M0,256.5L89.04,255.77L90,255.35L94.84,252.07L95.81,251.99L98.71,249.74L99.68,249.49L102.59,247.81L103.55,247.18L106.46,246.3L107.42,244.41L114.2,242.25L115.17,242.19L121.94,240.38L122.91,240.26L151.94,237.49L152.91,237.42L176.14,235.25L177.11,235.17L211.95,231.94L212.91,231.67L226.46,229.63L227.43,228.98L231.3,227.71L232.27,227.27L235.17,226.02L236.14,225.85L242.91,222.65L243.88,222.39L248.72,220.18L249.69,220.1L267.11,213.4L268.08,213.01L274.85,209.8L275.82,209.23L278.72,207.57L279.69,206.89L281.63,206.34L282.59,205.14L295.18,196.67L296.14,196.45L301.95,193.65" style="vector-effect: non-scaling-stroke; fill: none; stroke: rgb(245, 130, 49); stroke-opacity: 1; stroke-width: 2px; opacity: 1;"/></g><g class="points"/><g class="text"/></g><g class="trace scatter trace0ce122" style="stroke-miterlimit: 2; opacity: 1;"><g class="fills"/><g class="errorbars"/><g class="lines"><path class="js-line" d="M0,256.5L241.95,255.75L242.91,255.72L264.21,255.04L265.17,254.9L281.63,253.68L282.59,253.57L293.24,252.39L294.21,251.4L301.95,250.16" style="vector-effect: non-scaling-stroke; fill: none; stroke: rgb(145, 30, 180); stroke-opacity: 1; stroke-width: 2px; opacity: 1;"/></g><g class="points"/><g class="text"/></g></g></g><g class="overplot"/><path class="xlines-above crisp" d="M0,0" style="fill: none;"/><path class="ylines-above crisp" d="M0,0" style="fill: none;"/><g class="overlines-above"/><g class="xaxislayer-above"><g class="xtick"><text text-anchor="middle" x="0" y="383" transform="translate(147.75,0)" style="font-family: 'Open Sans', verdana, arial, sans-serif; font-size: 12px; fill: rgb(242, 245, 250); fill-opacity: 1; white-space: pre;">Apr 2020</text></g><g class="xtick"><text text-anchor="middle" x="0" y="383" transform="translate(235.81,0)" style="font-family: 'Open Sans', verdana, arial, sans-serif; font-size: 12px; fill: rgb(242, 245, 250); fill-opacity: 1; white-space: pre;">Jul 2020</text></g><g class="xtick"><text text-anchor="middle" x="0" y="383" transform="translate(324.85,0)" style="font-family: 'Open Sans', verdana, arial, sans-serif; font-size: 12px; fill: rgb(242, 245, 250); fill-opacity: 1; white-space: pre;">Oct 2020</text></g></g><g class="yaxislayer-above"><g class="ytick"><text text-anchor="end" x="79" y="4.199999999999999" transform="translate(0,356.5)" style="font-family: 'Open Sans', verdana, arial, sans-serif; font-size: 12px; fill: rgb(242, 245, 250); fill-opacity: 1; white-space: pre;">0</text></g><g class="ytick"><text text-anchor="end" x="79" y="4.199999999999999" transform="translate(0,295.65999999999997)" style="font-family: 'Open Sans', verdana, arial, sans-serif; font-size: 12px; fill: rgb(242, 245, 250); fill-opacity: 1; white-space: pre;">10k</text></g><g class="ytick"><text text-anchor="end" x="79" y="4.199999999999999" transform="translate(0,234.83)" style="font-family: 'Open Sans', verdana, arial, sans-serif; font-size: 12px; fill: rgb(242, 245, 250); fill-opacity: 1; white-space: pre;">20k</text></g><g class="ytick"><text text-anchor="end" x="79" y="4.199999999999999" transform="translate(0,173.99)" style="font-family: 'Open Sans', verdana, arial, sans-serif; font-size: 12px; fill: rgb(242, 245, 250); fill-opacity: 1; white-space: pre;">30k</text></g><g class="ytick"><text text-anchor="end" x="79" y="4.199999999999999" transform="translate(0,113.16)" style="font-family: 'Open Sans', verdana, arial, sans-serif; font-size: 12px; fill: rgb(242, 245, 250); fill-opacity: 1; white-space: pre;">40k</text></g></g><g class="overaxes-above"/></g><g class="subplot x2y2"><g class="layer-subplot"><g class="shapelayer"/><g class="imagelayer"/></g><g class="gridlayer"><g class="x2"><path class="x2grid crisp" transform="translate(516.8,0)" d="M0,100v270" style="stroke: rgb(40, 52, 66); stroke-opacity: 1; stroke-width: 1px;"/><path class="x2grid crisp" transform="translate(604.86,0)" d="M0,100v270" style="stroke: rgb(40, 52, 66); stroke-opacity: 1; stroke-width: 1px;"/><path class="x2grid crisp" transform="translate(693.9,0)" d="M0,100v270" style="stroke: rgb(40, 52, 66); stroke-opacity: 1; stroke-width: 1px;"/></g><g class="y2"><path class="y2grid crisp" transform="translate(0,309.03999999999996)" d="M449.05,0h301.95" style="stroke: rgb(40, 52, 66); stroke-opacity: 1; stroke-width: 1px;"/><path class="y2grid crisp" transform="translate(0,261.58000000000004)" d="M449.05,0h301.95" style="stroke: rgb(40, 52, 66); stroke-opacity: 1; stroke-width: 1px;"/><path class="y2grid crisp" transform="translate(0,214.12)" d="M449.05,0h301.95" style="stroke: rgb(40, 52, 66); stroke-opacity: 1; stroke-width: 1px;"/><path class="y2grid crisp" transform="translate(0,166.66)" d="M449.05,0h301.95" style="stroke: rgb(40, 52, 66); stroke-opacity: 1; stroke-width: 1px;"/><path class="y2grid crisp" transform="translate(0,119.2)" d="M449.05,0h301.95" style="stroke: rgb(40, 52, 66); stroke-opacity: 1; stroke-width: 1px;"/></g></g><g class="zerolinelayer"><path class="y2zl zl crisp" transform="translate(0,356.5)" d="M449.05,0h301.95" style="stroke: rgb(40, 52, 66); stroke-opacity: 1; stroke-width: 2px;"/></g><path class="xlines-below"/><path class="ylines-below"/><g class="overlines-below"/><g class="xaxislayer-below"/><g class="yaxislayer-below"/><g class="overaxes-below"/><g class="plot" transform="translate(449.05, 100)" clip-path="url('#clip85fc4dx2y2plot')"><g class="scatterlayer mlayer"><g class="trace scatter tracec0b6c4" style="stroke-miterlimit: 2; opacity: 1;"><g class="fills"/><g class="errorbars"/><g class="lines"><path class="js-line" d="M0,256.5L59.04,256.03L60,255.55L60.97,255.55L61.94,254.6L62.91,254.6L63.87,253.65L65.81,253.18L66.78,253.18L68.71,252.23L69.68,250.8L72.58,250.33L73.55,249.38L75.49,248.43L76.46,247.01L79.36,245.58L80.33,245.58L82.26,237.99L83.23,237.99L85.17,236.57L86.13,236.57L89.04,234.67L90,233.72L90.97,231.82L91.94,231.82L92.91,231.82L93.88,230.4L97.75,226.6L98.71,226.6L99.68,226.6L100.65,225.18L102.59,224.7L103.55,223.28L105.49,222.8L106.46,222.8L110.33,217.58L111.3,217.11L113.23,217.11L114.2,215.68L118.07,212.84L119.04,212.36L122.91,211.89L123.88,211.41L126.78,210.94L127.75,210.46L129.68,210.46L130.65,208.56L134.52,208.09L135.49,206.67L137.43,204.77L138.39,204.77L139.36,203.34L140.33,203.34L141.3,203.34L142.26,201.45L145.17,200.5L146.14,200.5L149.04,198.6L150.01,195.75L152.91,193.38L153.88,193.38L157.75,190.05L158.72,190.05L161.62,190.05L162.59,189.11L164.52,186.73L165.49,186.26L167.43,186.26L168.4,184.36L170.33,183.41L171.3,180.09L173.23,179.61L174.2,179.61L178.07,172.02L179.04,172.02L180.98,172.02L181.94,170.6L184.85,170.12L185.82,166.8L187.75,166.8L188.72,165.38L190.65,164.9L191.62,164.9L192.59,164.9L193.56,159.21L195.49,159.21L196.46,155.88L198.4,152.56L199.36,152.56L202.27,150.19L203.24,148.29L205.17,145.92L206.14,145.92L208.07,145.44L209.04,142.59L211.95,139.27L212.91,139.27L213.88,134.53L214.85,134.53L215.82,134.53L216.78,126.46L217.75,116.49L218.72,116.02L219.69,114.59L220.66,114.59L222.59,114.12L223.56,112.69L224.53,112.69L225.49,104.63L226.46,104.63L227.43,98.93L228.4,98.46L229.37,87.54L230.33,87.54L231.3,83.27L233.24,79L234.2,79L235.17,79L236.14,71.4L240.01,63.81L240.98,63.81L241.95,63.81L242.91,62.86L243.88,60.96L244.85,57.16L245.82,57.16L246.79,54.79L248.72,54.79L249.69,53.84L250.66,51.94L251.63,51.94L263.24,51.47L264.21,50.04L265.17,40.08L266.14,40.08L268.08,37.71L269.05,37.71L271.95,36.76L272.92,36.76L277.76,36.76L278.72,35.81L280.66,31.54L281.63,31.54L283.56,31.54L284.53,27.26L285.5,25.84L286.47,25.84L288.4,23.94L289.37,23.94L291.3,22.04L292.27,21.57L293.24,19.67L294.21,19.67L297.11,19.67L298.08,18.25L299.05,18.25L300.01,16.82L300.98,13.97L301.95,13.5" style="vector-effect: non-scaling-stroke; fill: none; stroke: rgb(230, 25, 75); stroke-opacity: 1; stroke-width: 2px; opacity: 1;"/></g><g class="points"/><g class="text"/></g><g class="trace scatter trace4be94a" style="stroke-miterlimit: 2; opacity: 1;"><g class="fills"/><g class="errorbars"/><g class="lines"><path class="js-line" d="M0,256.5L111.3,256.03L112.26,255.55L120.97,255.08L121.94,254.6L123.88,253.18L124.84,253.18L159.69,252.7L160.65,252.23L169.36,251.75L170.33,251.28L181.94,251.28L182.91,250.33L209.04,249.86L210.01,248.43L241.95,247.96L242.91,247.48L245.82,247.48L246.79,246.53L250.66,246.53L251.63,243.69L268.08,243.21L269.05,242.74L270.98,242.26L271.95,242.26L276.79,241.79L277.76,240.84L282.59,240.84L283.56,239.89L285.5,239.89L286.47,238.94L296.14,238.94L297.11,235.14L299.05,234.19L300.01,234.19L300.98,232.77L301.95,232.77" style="vector-effect: non-scaling-stroke; fill: none; stroke: rgb(60, 180, 75); stroke-opacity: 1; stroke-width: 2px; opacity: 1;"/></g><g class="points"/><g class="text"/></g><g class="trace scatter tracecabcd1" style="stroke-miterlimit: 2; opacity: 1;"><g class="fills"/><g class="errorbars"/><g class="lines"><path class="js-line" d="M0,256.5L102.59,256.03L103.55,255.55L249.69,255.08L250.66,254.6L264.21,254.13L265.17,253.18L268.08,252.23L269.05,252.23L270.01,252.23L270.98,251.28L275.82,249.38L276.79,249.38L280.66,247.48L281.63,246.53L283.56,246.06L284.53,244.16L285.5,244.16L286.47,243.21L287.43,241.31L288.4,241.31L289.37,241.31L290.34,239.89L293.24,239.41L294.21,238.46L295.18,238.46L296.14,237.52L297.11,237.52L298.08,236.57L300.01,233.72L300.98,233.72L301.95,232.29" style="vector-effect: non-scaling-stroke; fill: none; stroke: rgb(255, 225, 25); stroke-opacity: 1; stroke-width: 2px; opacity: 1;"/></g><g class="points"/><g class="text"/></g><g class="trace scatter trace4477d1" style="stroke-miterlimit: 2; opacity: 1;"><g class="fills"/><g class="errorbars"/><g class="lines"><path class="js-line" d="M0,256.5L60,256.5L60.97,255.55L63.87,255.08L64.84,254.6L65.81,254.6L66.78,253.18L67.75,251.75L68.71,251.75L73.55,251.28L74.52,249.38L75.49,249.38L76.46,248.43L78.39,247.48L79.36,247.48L80.33,247.48L81.29,246.06L86.13,246.06L87.1,245.11L90,244.63L90.97,242.74L94.84,242.26L95.81,241.79L96.78,241.79L97.75,240.84L99.68,240.84L100.65,239.41L101.62,237.52L102.59,237.52L106.46,236.09L107.42,236.09L108.39,236.09L109.36,235.14L113.23,234.67L114.2,233.24L118.07,229.92L119.04,229.92L120.01,229.92L120.97,228.97L122.91,228.5L123.88,228.02L125.81,227.55L126.78,227.55L129.68,226.6L130.65,226.6L132.59,226.13L133.55,226.13L149.04,225.65L150.01,224.23L152.91,223.28L153.88,223.28L162.59,222.8L163.56,222.33L164.52,222.33L165.49,221.38L168.4,220.9L169.36,220.43L171.3,219.96L172.27,219.96L174.2,219.96L175.17,217.58L176.14,216.16L177.11,216.16L179.04,214.26L180.01,214.26L181.94,214.26L182.91,211.89L185.82,209.99L186.78,209.99L187.75,209.99L188.72,208.09L190.65,204.77L191.62,203.34L194.53,203.34L195.49,201.92L199.36,195.28L200.33,194.33L202.27,193.85L203.24,192.43L204.2,190.53L205.17,190.53L207.11,188.63L208.07,188.16L209.04,187.68L210.01,186.26L212.91,183.41L213.88,183.41L215.82,183.41L216.78,182.46L217.75,181.51L218.72,179.14L221.62,176.77L222.59,176.77L223.56,176.77L224.53,175.34L227.43,173.44L228.4,173.44L235.17,169.65L236.14,168.7L238.08,167.27L239.04,166.32L240.01,164.43L240.98,164.43L243.88,163.95L244.85,163.48L246.79,163L247.75,163L249.69,163L250.66,161.58L254.53,161.1L255.5,160.63L256.46,160.63L257.43,157.78L259.37,153.98L260.34,153.98L262.27,153.98L263.24,153.04L264.21,152.56L265.17,151.14L267.11,149.24L268.08,148.76L269.05,148.29L270.01,146.87L274.85,146.39L275.82,145.92L277.76,143.07L278.72,140.7L279.69,138.8L280.66,138.8L283.56,137.85L284.53,135.95L285.5,135.95L286.47,134.53L287.43,133.1L288.4,133.1L290.34,132.63L291.3,130.25L293.24,127.41L294.21,127.41L296.14,123.13L297.11,122.66L298.08,121.24L299.05,121.24L300.01,118.86L300.98,118.86L301.95,118.39" style="vector-effect: non-scaling-stroke; fill: none; stroke: rgb(67, 99, 216); stroke-opacity: 1; stroke-width: 2px; opacity: 1;"/></g><g class="points"/><g class="text"/></g><g class="trace scatter trace42aa0f" style="stroke-miterlimit: 2; opacity: 1;"><g class="fills"/><g class="errorbars"/><g class="lines"><path class="js-line" d="M0,256.5L96.78,256.03L97.75,255.55L100.65,255.08L101.62,254.6L102.59,254.6L103.55,253.18L105.49,252.7L106.46,252.23L109.36,249.86L110.33,249.86L112.26,248.91L113.23,248.43L115.17,247.96L116.13,246.06L119.04,245.11L120.01,245.11L120.97,245.11L121.94,241.79L122.91,241.79L123.88,240.84L125.81,240.36L126.78,240.36L128.72,238.94L129.68,238.94L136.46,238.46L137.43,237.99L142.26,237.52L143.23,236.57L154.85,236.09L155.81,235.62L169.36,235.62L170.33,234.67L184.85,234.19L185.82,233.24L186.78,233.24L187.75,232.29L198.4,231.82L199.36,230.87L210.98,230.4L211.95,229.92L221.62,229.92L222.59,228.97L231.3,228.5L232.27,228.02L234.2,227.55L235.17,227.55L237.11,226.6L238.08,226.6L240.98,226.13L241.95,225.65L243.88,224.23L244.85,224.23L246.79,223.75L247.75,223.75L248.72,223.75L249.69,221.85L254.53,219.48L255.5,218.53L258.4,217.58L259.37,216.16L262.27,215.68L263.24,214.73L265.17,211.89L266.14,211.89L269.05,211.89L270.01,210.46L271.95,209.99L272.92,209.51L276.79,209.04L277.76,208.56L279.69,208.09L280.66,208.09L283.56,207.62L284.53,206.67L288.4,206.19L289.37,205.24L292.27,204.77L293.24,204.29L295.18,203.82L296.14,202.39L299.05,201.45L300.01,199.07L300.98,197.65L301.95,197.65" style="vector-effect: non-scaling-stroke; fill: none; stroke: rgb(245, 130, 49); stroke-opacity: 1; stroke-width: 2px; opacity: 1;"/></g><g class="points"/><g class="text"/></g><g class="trace scatter trace085acf" style="stroke-miterlimit: 2; opacity: 1;"><g class="fills"/><g class="errorbars"/><g class="lines"><path class="js-line" d="M0,256.5L194.53,256.03L195.49,255.55L265.17,255.08L266.14,254.13L296.14,253.65L297.11,248.91L299.05,247.96L300.01,247.96L301.95,247.96" style="vector-effect: non-scaling-stroke; fill: none; stroke: rgb(145, 30, 180); stroke-opacity: 1; stroke-width: 2px; opacity: 1;"/></g><g class="points"/><g class="text"/></g></g></g><g class="overplot"/><path class="xlines-above crisp" d="M0,0" style="fill: none;"/><path class="ylines-above crisp" d="M0,0" style="fill: none;"/><g class="overlines-above"/><g class="xaxislayer-above"><g class="x2tick"><text text-anchor="middle" x="0" y="383" transform="translate(516.8,0)" style="font-family: 'Open Sans', verdana, arial, sans-serif; font-size: 12px; fill: rgb(242, 245, 250); fill-opacity: 1; white-space: pre;">Apr 2020</text></g><g class="x2tick"><text text-anchor="middle" x="0" y="383" transform="translate(604.86,0)" style="font-family: 'Open Sans', verdana, arial, sans-serif; font-size: 12px; fill: rgb(242, 245, 250); fill-opacity: 1; white-space: pre;">Jul 2020</text></g><g class="x2tick"><text text-anchor="middle" x="0" y="383" transform="translate(693.9,0)" style="font-family: 'Open Sans', verdana, arial, sans-serif; font-size: 12px; fill: rgb(242, 245, 250); fill-opacity: 1; white-space: pre;">Oct 2020</text></g></g><g class="yaxislayer-above"><g class="y2tick"><text text-anchor="end" x="448.05" y="4.199999999999999" transform="translate(0,356.5)" style="font-family: 'Open Sans', verdana, arial, sans-serif; font-size: 12px; fill: rgb(242, 245, 250); fill-opacity: 1; white-space: pre;">0</text></g><g class="y2tick"><text text-anchor="end" x="448.05" y="4.199999999999999" transform="translate(0,309.03999999999996)" style="font-family: 'Open Sans', verdana, arial, sans-serif; font-size: 12px; fill: rgb(242, 245, 250); fill-opacity: 1; white-space: pre;">100</text></g><g class="y2tick"><text text-anchor="end" x="448.05" y="4.199999999999999" transform="translate(0,261.58000000000004)" style="font-family: 'Open Sans', verdana, arial, sans-serif; font-size: 12px; fill: rgb(242, 245, 250); fill-opacity: 1; white-space: pre;">200</text></g><g class="y2tick"><text text-anchor="end" x="448.05" y="4.199999999999999" transform="translate(0,214.12)" style="font-family: 'Open Sans', verdana, arial, sans-serif; font-size: 12px; fill: rgb(242, 245, 250); fill-opacity: 1; white-space: pre;">300</text></g><g class="y2tick"><text text-anchor="end" x="448.05" y="4.199999999999999" transform="translate(0,166.66)" style="font-family: 'Open Sans', verdana, arial, sans-serif; font-size: 12px; fill: rgb(242, 245, 250); fill-opacity: 1; white-space: pre;">400</text></g><g class="y2tick"><text text-anchor="end" x="448.05" y="4.199999999999999" transform="translate(0,119.2)" style="font-family: 'Open Sans', verdana, arial, sans-serif; font-size: 12px; fill: rgb(242, 245, 250); fill-opacity: 1; white-space: pre;">500</text></g></g><g class="overaxes-above"/></g></g><g class="polarlayer"/><g class="ternarylayer"/><g class="geolayer"/><g class="funnelarealayer"/><g class="pielayer"/><g class="treemaplayer"/><g class="sunburstlayer"/><g class="glimages"/><defs id="topdefs-85fc4d"><g class="clips"/><clipPath id="legend85fc4d"><rect width="124" height="124" x="0" y="0"/></clipPath></defs><g class="layer-above"><g class="imagelayer"/><g class="shapelayer"/></g><g class="infolayer"><g class="legend" pointer-events="all" transform="translate(764.42, 100)"><rect class="bg" shape-rendering="crispEdges" width="124" height="124" x="0" y="0" style="stroke: rgb(68, 68, 68); stroke-opacity: 1; fill: rgb(17, 17, 17); fill-opacity: 1; stroke-width: 0px;"/><g class="scrollbox" transform="translate(0, 0)" clip-path="url('#legend85fc4d')"><g class="groups"><g class="traces" transform="translate(0, 14.5)" style="opacity: 1;"><text class="legendtext user-select-none" text-anchor="start" x="40" y="4.680000000000001" style="font-family: 'Open Sans', verdana, arial, sans-serif; font-size: 12px; fill: rgb(242, 245, 250); fill-opacity: 1; white-space: pre;">Alameda, CA</text><g class="layers" style="opacity: 1;"><g class="legendfill"/><g class="legendlines"><path class="js-line" d="M5,0h30" style="fill: none; stroke: rgb(230, 25, 75); stroke-opacity: 1; stroke-width: 2px;"/></g><g class="legendsymbols"><g class="legendpoints"/></g></g><rect class="legendtoggle" pointer-events="all" x="0" y="-9.5" width="118.703125" height="19" style="cursor: pointer; fill: rgb(0, 0, 0); fill-opacity: 0;"/></g><g class="traces" transform="translate(0, 33.5)" style="opacity: 1;"><text class="legendtext user-select-none" text-anchor="start" x="40" y="4.680000000000001" style="font-family: 'Open Sans', verdana, arial, sans-serif; font-size: 12px; fill: rgb(242, 245, 250); fill-opacity: 1; white-space: pre;">Mercer, OH</text><g class="layers" style="opacity: 1;"><g class="legendfill"/><g class="legendlines"><path class="js-line" d="M5,0h30" style="fill: none; stroke: rgb(60, 180, 75); stroke-opacity: 1; stroke-width: 2px;"/></g><g class="legendsymbols"><g class="legendpoints"/></g></g><rect class="legendtoggle" pointer-events="all" x="0" y="-9.5" width="118.703125" height="19" style="cursor: pointer; fill: rgb(0, 0, 0); fill-opacity: 0;"/></g><g class="traces" transform="translate(0, 52.5)" style="opacity: 1;"><text class="legendtext user-select-none" text-anchor="start" x="40" y="4.680000000000001" style="font-family: 'Open Sans', verdana, arial, sans-serif; font-size: 12px; fill: rgb(242, 245, 250); fill-opacity: 1; white-space: pre;">Benton, MN</text><g class="layers" style="opacity: 1;"><g class="legendfill"/><g class="legendlines"><path class="js-line" d="M5,0h30" style="fill: none; stroke: rgb(255, 225, 25); stroke-opacity: 1; stroke-width: 2px;"/></g><g class="legendsymbols"><g class="legendpoints"/></g></g><rect class="legendtoggle" pointer-events="all" x="0" y="-9.5" width="118.703125" height="19" style="cursor: pointer; fill: rgb(0, 0, 0); fill-opacity: 0;"/></g><g class="traces" transform="translate(0, 71.5)" style="opacity: 1;"><text class="legendtext user-select-none" text-anchor="start" x="40" y="4.680000000000001" style="font-family: 'Open Sans', verdana, arial, sans-serif; font-size: 12px; fill: rgb(242, 245, 250); fill-opacity: 1; white-space: pre;">Oklahoma, OK</text><g class="layers" style="opacity: 1;"><g class="legendfill"/><g class="legendlines"><path class="js-line" d="M5,0h30" style="fill: none; stroke: rgb(67, 99, 216); stroke-opacity: 1; stroke-width: 2px;"/></g><g class="legendsymbols"><g class="legendpoints"/></g></g><rect class="legendtoggle" pointer-events="all" x="0" y="-9.5" width="118.703125" height="19" style="cursor: pointer; fill: rgb(0, 0, 0); fill-opacity: 0;"/></g><g class="traces" transform="translate(0, 90.5)" style="opacity: 1;"><text class="legendtext user-select-none" text-anchor="start" x="40" y="4.680000000000001" style="font-family: 'Open Sans', verdana, arial, sans-serif; font-size: 12px; fill: rgb(242, 245, 250); fill-opacity: 1; white-space: pre;">Woodbury, IA</text><g class="layers" style="opacity: 1;"><g class="legendfill"/><g class="legendlines"><path class="js-line" d="M5,0h30" style="fill: none; stroke: rgb(245, 130, 49); stroke-opacity: 1; stroke-width: 2px;"/></g><g class="legendsymbols"><g class="legendpoints"/></g></g><rect class="legendtoggle" pointer-events="all" x="0" y="-9.5" width="118.703125" height="19" style="cursor: pointer; fill: rgb(0, 0, 0); fill-opacity: 0;"/></g><g class="traces" transform="translate(0, 109.5)" style="opacity: 1;"><text class="legendtext user-select-none" text-anchor="start" x="40" y="4.680000000000001" style="font-family: 'Open Sans', verdana, arial, sans-serif; font-size: 12px; fill: rgb(242, 245, 250); fill-opacity: 1; white-space: pre;">Van Wert, OH</text><g class="layers" style="opacity: 1;"><g class="legendfill"/><g class="legendlines"><path class="js-line" d="M5,0h30" style="fill: none; stroke: rgb(145, 30, 180); stroke-opacity: 1; stroke-width: 2px;"/></g><g class="legendsymbols"><g class="legendpoints"/></g></g><rect class="legendtoggle" pointer-events="all" x="0" y="-9.5" width="118.703125" height="19" style="cursor: pointer; fill: rgb(0, 0, 0); fill-opacity: 0;"/></g></g></g><rect class="scrollbar" rx="20" ry="3" width="0" height="0" x="0" y="0" style="fill: rgb(128, 139, 164); fill-opacity: 1;"/></g><g class="g-gtitle"/><g class="g-xtitle"><text class="xtitle" x="230.975" y="410.8" text-anchor="middle" style="font-family: 'Open Sans', verdana, arial, sans-serif; font-size: 14px; fill: rgb(242, 245, 250); opacity: 1; font-weight: normal; white-space: pre;">Date</text></g><g class="g-x2title"><text class="x2title" x="600.025" y="410.8" text-anchor="middle" style="font-family: 'Open Sans', verdana, arial, sans-serif; font-size: 14px; fill: rgb(242, 245, 250); opacity: 1; font-weight: normal; white-space: pre;">Date</text></g><g class="g-ytitle"><text class="ytitle" transform="rotate(-90,34.840625,235)" x="34.840625" y="235" text-anchor="middle" style="font-family: 'Open Sans', verdana, arial, sans-serif; font-size: 14px; fill: rgb(242, 245, 250); opacity: 1; font-weight: normal; white-space: pre;">Cases</text></g><g class="g-y2title"><text class="y2title" transform="rotate(-90,403.215625,235)" x="403.215625" y="235" text-anchor="middle" style="font-family: 'Open Sans', verdana, arial, sans-serif; font-size: 14px; fill: rgb(242, 245, 250); opacity: 1; font-weight: normal; white-space: pre;">Deaths</text></g><g class="annotation" data-index="0" style="opacity: 1;"><g class="annotation-text-g" transform="rotate(0,230.975,89.5)"><g class="cursor-pointer" transform="translate(206, 79)"><rect class="bg" x="0.5" y="0.5" width="48" height="20" style="stroke-width: 1px; stroke: rgb(0, 0, 0); stroke-opacity: 0; fill: rgb(0, 0, 0); fill-opacity: 0;"/><text class="annotation-text" text-anchor="middle" x="24.6875" y="16" style="font-family: 'Open Sans', verdana, arial, sans-serif; font-size: 16px; fill: rgb(242, 245, 250); fill-opacity: 1; white-space: pre;">Cases</text></g></g></g><g class="annotation" data-index="1" style="opacity: 1;"><g class="annotation-text-g" transform="rotate(0,600.025,89.5)"><g class="cursor-pointer" transform="translate(573, 79)"><rect class="bg" x="0.5" y="0.5" width="54" height="20" style="stroke-width: 1px; stroke: rgb(0, 0, 0); stroke-opacity: 0; fill: rgb(0, 0, 0); fill-opacity: 0;"/><text class="annotation-text" text-anchor="middle" x="27.359375" y="16" style="font-family: 'Open Sans', verdana, arial, sans-serif; font-size: 16px; fill: rgb(242, 245, 250); fill-opacity: 1; white-space: pre;">Deaths</text></g></g></g></g></svg>