<svg class="main-svg" xmlns="http://www.w3.org/2000/svg" xmlns:xlink="http://www.w3.org/1999/xlink" width="900" height="450" style="" viewBox="0 0 900 450"><rect x="0" y="0" width="900" height="450" style="fill: rgb(17, 17, 17); fill-opacity: 1;"/><defs id="defs-03d108"><g class="clips"><clipPath id="clip03d108xyplot" class="plotclip"><rect width="297.90000000000003" height="270"/></clipPath><clipPath id="clip03d108x2y2plot" class="plotclip"><rect width="297.9" height="270"/></clipPath><clipPath class="axesclip" id="clip03d108x"><rect x="80" y="0" width="297.90000000000003" height="450"/></clipPath><clipPath class="axesclip" id="clip03d108y"><rect x="0" y="100" width="900" height="270"/></clipPath><clipPath class="axesclip" id="clip03d108xy"><rect x="80" y="100" width="297.90000000000003" height="270"/></clipPath><clipPath class="axesclip" id="clip03d108y2"><rect x="0" y="100" width="900" height="270"/></clipPath><clipPath class="axesclip" id="clip03d108xy2"><rect x="80" y="100" width="297.90000000000003" height="270"/></clipPath><clipPath class="axesclip" id="clip03d108x2"><rect x="444.1" y="0" width="297.9" height="450"/></clipPath><clipPath class="axesclip" id="clip03d108x2y"><rect x="444.1" y="100" width="297.9" height="270"/></clipPath><clipPath class="axesclip" id="clip03d108x2y2"><rect x="444.1" y="100" width="297.9" height="270"/></clipPath></g><g class="gradients"/></defs><g class="bglayer"/><g class="layer-below"><g class="imagelayer"/><g class="shapelayer"/></g><g class="cartesianlayer"><g class="subplot xy"><g class="layer-subplot"><g class="shapelayer"/><g class="imagelayer"/></g><g class="gridlayer"><g class="x"><path class="xgrid crisp" transform="translate(146.62,0)" d="M0,100v270" style="stroke: rgb(40, 52, 66); stroke-opacity: 1; stroke-width: 1px;"/><path class="xgrid crisp" transform="translate(233.23,0)" d="M0,100v270" style="stroke: rgb(40, 52, 66); stroke-opacity: 1; stroke-width: 1px;"/><path class="xgrid crisp" transform="translate(320.78999999999996,0)" d="M0,100v270" style="stroke: rgb(40, 52, 66); stroke-opacity: 1; stroke-width: 1px;"/></g><g class="y"><path class="ygrid crisp" transform="translate(0,315.55)" d="M80,0h297.90000000000003" style="stroke: rgb(40, 52, 66); stroke-opacity: 1; stroke-width: 1px;"/><path class="ygrid crisp" transform="translate(0,274.59000000000003)" d="M80,0h297.90000000000003" style="stroke: rgb(40, 52, 66); stroke-opacity: 1; stroke-width: 1px;"/><path class="ygrid crisp" transform="translate(0,233.64)" d="M80,0h297.90000000000003" style="stroke: rgb(40, 52, 66); stroke-opacity: 1; stroke-width: 1px;"/><path class="ygrid crisp" transform="translate(0,192.69)" d="M80,0h297.90000000000003" style="stroke: rgb(40, 52, 66); stroke-opacity: 1; stroke-width: 1px;"/><path class="ygrid crisp" transform="translate(0,151.73)" d="M80,0h297.90000000000003" style="stroke: rgb(40, 52, 66); stroke-opacity: 1; stroke-width: 1px;"/><path class="ygrid crisp" transform="translate(0,110.78)" d="M80,0h297.90000000000003" style="stroke: rgb(40, 52, 66); stroke-opacity: 1; stroke-width: 1px;"/></g></g><g class="zerolinelayer"><path class="yzl zl crisp" transform="translate(0,356.5)" d="M80,0h297.90000000000003" style="stroke: rgb(40, 52, 66); stroke-opacity: 1; stroke-width: 2px;"/></g><path class="xlines-below"/><path class="ylines-below"/><g class="overlines-below"/><g class="xaxislayer-below"/><g class="yaxislayer-below"/><g class="overaxes-below"/><g class="plot" transform="translate(80, 100)" clip-path="url('#clip03d108xyplot')"><g class="scatterlayer mlayer"><g class="trace scatter tracec0c4b7" style="stroke-miterlimit: 2; opacity: 1;"><g class="fills"/><g class="errorbars"/><g class="lines"><path class="js-line" d="M0,256.5L56.15,255.97L57.11,255.63L65.67,253.94L66.62,253.56L79.95,248.62L80.9,248.25L90.42,244.48L91.37,244.23L101.84,240.44L102.79,239.93L111.36,236.38L112.31,235.84L116.11,233.84L117.07,233.18L118.97,232.04L119.92,231.53L122.78,229.56L123.73,228.73L131.34,224.19L132.29,223.86L137.05,221.12L138,220.68L142.76,217.14L143.72,217.14L146.57,213.29L147.52,212.42L152.28,207.65L153.23,206.08L155.14,203.49L156.09,202.8L157.04,200.35L157.99,200.09L158.94,200.09L159.9,197.16L162.75,193.23L163.7,193.23L169.41,181.88L170.36,180.84L171.32,180.69L172.27,179.65L176.08,171.89L177.03,171.56L177.98,171.01L178.93,169.41L179.88,168.26L180.83,165.33L181.79,165.33L182.74,162.44L183.69,162.11L184.64,159.47L185.59,158.96L186.54,157.1L189.4,157.1L190.35,148.39L191.3,148.24L192.25,144.58L194.16,139.96L195.11,137.26L196.06,137.26L197.01,132.63L197.97,132.58L198.92,130.06L201.77,121.61L202.72,119.77L204.63,119.45L205.58,115.01L206.53,114.11L207.48,112.17L208.43,110.32L209.39,110.32L216.05,99.8L217,99.8L217.95,98.01L218.9,98.01L220.81,95.06L221.76,94.17L222.71,94.02L223.66,92.76L227.47,91.36L228.42,89.71L231.28,87.44L232.23,86.56L239.84,81.36L240.79,80.75L242.7,79.41L243.65,78.7L248.41,76.78L249.36,75.72L254.12,73.28L255.07,72.96L256.02,72.55L256.97,71.1L264.59,64.91L265.54,64.91L268.4,61.77L269.35,60.94L274.11,56.89L275.06,56.5L277.91,51.73L278.86,50.83L284.58,43.16L285.53,39.78L288.38,33.53L289.33,31.79L291.24,30.26L292.19,28.33L293.14,25.32L294.09,25.32L296,18.02L296.95,15.07L297.9,13.5" style="vector-effect: non-scaling-stroke; fill: none; stroke: rgb(230, 25, 75); stroke-opacity: 1; stroke-width: 2px; opacity: 1;"/></g><g class="points"/><g class="text"/></g><g class="trace scatter trace573292" style="stroke-miterlimit: 2; opacity: 1;"><g class="fills"/><g class="errorbars"/><g class="lines"><path class="js-line" d="M0,256.5L183.69,255.81L184.64,255.73L221.76,253.44L222.71,253.41L261.73,251.96L262.68,251.84L279.82,249.05L280.77,248.69L290.29,247.32L291.24,247.18L297.9,246.45" style="vector-effect: non-scaling-stroke; fill: none; stroke: rgb(60, 180, 75); stroke-opacity: 1; stroke-width: 2px; opacity: 1;"/></g><g class="points"/><g class="text"/></g><g class="trace scatter trace60df50" style="stroke-miterlimit: 2; opacity: 1;"><g class="fills"/><g class="errorbars"/><g class="lines"><path class="js-line" d="M0,256.5L53.3,255.87L54.25,255.03L55.2,254.52L56.15,252.92L61.86,244.71L62.82,241.91L67.57,233.39L68.53,225.75L73.29,212.74L74.24,207.49L78.04,193.69L79,191.3L85.66,173.23L86.61,171.28L92.32,162.18L93.27,161L97.08,156.62L98.03,156.12L107.55,151.16L108.5,150.77L112.31,149.46L113.26,149.2L128.49,144.59L129.44,144.36L139.91,142.71L140.86,142.65L173.22,137.27L174.17,137.02L189.4,134.39L190.35,134.29L213.19,130.92L214.15,130.77L235.08,126.78L236.04,126.54L244.6,124.16L245.55,123.74L255.07,120.49L256.02,119.96L266.49,115.2L267.44,114.32L275.06,107.99L276.01,106.87L280.77,100.58L281.72,98.71L286.48,90.93L287.43,89.43L293.14,78.79L294.09,76.71L297.9,67.99" style="vector-effect: non-scaling-stroke; fill: none; stroke: rgb(255, 225, 25); stroke-opacity: 1; stroke-width: 2px; opacity: 1;"/></g><g class="points"/><g class="text"/></g><g class="trace scatter trace1909dd" style="stroke-miterlimit: 2; opacity: 1;"><g class="fills"/><g class="errorbars"/><g class="lines"><path class="js-line" d="M0,256.5L57.11,255.79L58.06,255.44L59.96,255.09L60.91,254.19L64.72,252.08L65.67,251.83L69.48,248.46L70.43,247.4L74.24,242.63L75.19,241.03L78.04,237.78L79,237.22L97.08,219.22L98.03,218.45L98.98,218.11L99.93,216.96L110.4,208.4L111.36,207.26L113.26,206.09L114.21,205.16L118.02,202.64L118.97,202.46L121.82,199.94L122.78,199.12L127.54,196.29L128.49,195.76L130.39,194.4L131.34,194.17L137.05,191.81L138,191.55L146.57,189.44L147.52,188.98L152.28,187.31L153.23,187.02L169.41,182.04L170.36,181.57L176.08,179.15L177.03,178.75L183.69,175.95L184.64,175.66L206.53,167.89L207.48,167.46L253.17,150.47L254.12,150.03L262.68,145.74L263.64,145.16L269.35,139.37L270.3,138.38L272.2,136.68L273.15,135.56L275.06,132.67L276.01,131.09L278.86,126.62L279.82,124.51L285.53,109.95L286.48,107.8L292.19,91.79L293.14,89.6L297.9,76.1" style="vector-effect: non-scaling-stroke; fill: none; stroke: rgb(67, 99, 216); stroke-opacity: 1; stroke-width: 2px; opacity: 1;"/></g><g class="points"/><g class="text"/></g><g class="trace scatter traced55aae" style="stroke-miterlimit: 2; opacity: 1;"><g class="fills"/><g class="errorbars"/><g class="lines"><path class="js-line" d="M0,256.5L59.96,255.79L60.91,255.62L67.57,253.81L68.53,253.4L88.51,245.42L89.47,244.79L92.32,243.25L93.27,242.54L96.13,241.46L97.08,241.17L116.11,236.92L117.07,236.79L130.39,235.34L131.34,235.22L153.23,233.38L154.18,233.25L166.56,231.19L167.51,230.89L171.32,229.93L172.27,229.81L180.83,228.02L181.79,227.81L204.63,224.1L205.58,224.02L224.61,221.07L225.57,220.82L232.23,219.02L233.18,218.85L255.07,213.03L256.02,212.54L258.88,211.39L259.83,210.94L267.44,205.27L268.4,204.13L269.35,204.13L270.3,201.08L275.06,194.71L276.01,192.69L279.82,186.17L280.77,183.76L288.38,163.39L289.33,160.17L297.9,141.62" style="vector-effect: non-scaling-stroke; fill: none; stroke: rgb(245, 130, 49); stroke-opacity: 1; stroke-width: 2px; opacity: 1;"/></g><g class="points"/><g class="text"/></g><g class="trace scatter trace066e1a" style="stroke-miterlimit: 2; opacity: 1;"><g class="fills"/><g class="errorbars"/><g class="lines"><path class="js-line" d="M0,256.5L71.38,255.75L72.33,255.7L118.97,253.23L119.92,253.23L134.2,252.36L135.15,252.25L140.86,250.86L141.81,250.37L147.52,247.09L148.47,245.88L150.38,243.14L151.33,242.44L153.23,240.43L154.18,238.64L156.09,236.41L157.04,235.85L159.9,233.47L160.85,232.05L177.98,214.98L178.93,214.28L183.69,210.74L184.64,210.48L189.4,207.66L190.35,206.83L193.21,205.32L194.16,204.79L198.92,202.33L199.87,201.89L203.68,199.89L204.63,199.61L208.43,198.08L209.39,197.67L211.29,197.25L212.24,196.07L227.47,189.39L228.42,188.81L232.23,186.86L233.18,186.24L239.84,182.38L240.79,181.52L247.46,177.4L248.41,176.42L249.36,176.42L250.31,175.31L252.22,174.39L253.17,173.69L260.78,168.48L261.73,167.64L263.64,165.95L264.59,165.72L268.4,161.19L269.35,160.32L271.25,159.13L272.2,157.93L276.96,152.64L277.91,151.82L283.62,145.09L284.58,144.68L293.14,133.8L294.09,133.8L296,130.68L296.95,129.59L297.9,129.09" style="vector-effect: non-scaling-stroke; fill: none; stroke: rgb(145, 30, 180); stroke-opacity: 1; stroke-width: 2px; opacity: 1;"/></g><g class="points"/><g class="text"/></g></g></g><g class="overplot"/><path class="xlines-above crisp" d="M0,0" style="fill: none;"/><path class="ylines-above crisp" d="M0,0" style="fill: none;"/><g class="overlines-above"/><g class="xaxislayer-above"><g class="xtick"><text text-anchor="middle" x="0" y="383" transform="translate(146.62,0)" style="font-family: 'Open Sans', verdana, arial, sans-serif; font-size: 12px; fill: rgb(242, 245, 250); fill-opacity: 1; white-space: pre;">Apr 2020</text></g><g class="xtick"><text text-anchor="middle" x="0" y="383" transform="translate(233.23,0)" style="font-family: 'Open Sans', verdana, arial, sans-serif; font-size: 12px; fill: rgb(242, 245, 250); fill-opacity: 1; white-space: pre;">Jul 2020</text></g><g class="xtick"><text text-anchor="middle" x="0" y="383" transform="translate(320.78999999999996,0)" style="font-family: 'Open Sans', verdana, arial, sans-serif; font-size: 12px; fill: rgb(242, 245, 250); fill-opacity: 1; white-space: pre;">Oct 2020</text></g></g><g class="yaxislayer-above"><g class="ytick"><text text-anchor="end" x="79" y="4.199999999999999" transform="translate(0,356.5)" style="font-family: 'Open Sans', verdana, arial, sans-serif; font-size: 12px; fill: rgb(242, 245, 250); fill-opacity: 1; white-space: pre;">0</text></g><g class="ytick"><text text-anchor="end" x="79" y="4.199999999999999" transform="translate(0,315.55)" style="font-family: 'Open Sans', verdana, arial, sans-serif; font-size: 12px; fill: rgb(242, 245, 250); fill-opacity: 1; white-space: pre;">5k</text></g><g class="ytick"><text text-anchor="end" x="79" y="4.199999999999999" transform="translate(0,274.59000000000003)" style="font-family: 'Open Sans', verdana, arial, sans-serif; font-size: 12px; fill: rgb(242, 245, 250); fill-opacity: 1; white-space: pre;">10k</text></g><g class="ytick"><text text-anchor="end" x="79" y="4.199999999999999" transform="translate(0,233.64)" style="font-family: 'Open Sans', verdana, arial, sans-serif; font-size: 12px; fill: rgb(242, 245, 250); fill-opacity: 1; white-space: pre;">15k</text></g><g class="ytick"><text text-anchor="end" x="79" y="4.199999999999999" transform="translate(0,192.69)" style="font-family: 'Open Sans', verdana, arial, sans-serif; font-size: 12px; fill: rgb(242, 245, 250); fill-opacity: 1; white-space: pre;">20k</text></g><g class="ytick"><text text-anchor="end" x="79" y="4.199999999999999" transform="translate(0,151.73)" style="font-family: 'Open Sans', verdana, arial, sans-serif; font-size: 12px; fill: rgb(242, 245, 250); fill-opacity: 1; white-space: pre;">25k</text></g><g class="ytick"><text text-anchor="end" x="79" y="4.199999999999999" transform="translate(0,110.78)" style="font-family: 'Open Sans', verdana, arial, sans-serif; font-size: 12px; fill: rgb(242, 245, 250); fill-opacity: 1; white-space: pre;">30k</text></g></g><g class="overaxes-above"/></g><g class="subplot x2y2"><g class="layer-subplot"><g class="shapelayer"/><g class="imagelayer"/></g><g class="gridlayer"><g class="x2"><path class="x2grid crisp" transform="translate(510.72,0)" d="M0,100v270" style="stroke: rgb(40, 52, 66); stroke-opacity: 1; stroke-width: 1px;"/><path class="x2grid crisp" transform="translate(597.33,0)" d="M0,100v270" style="stroke: rgb(40, 52, 66); stroke-opacity: 1; stroke-width: 1px;"/><path class="x2grid crisp" transform="translate(684.89,0)" d="M0,100v270" style="stroke: rgb(40, 52, 66); stroke-opacity: 1; stroke-width: 1px;"/></g><g class="y2"><path class="y2grid crisp" transform="translate(0,313.53)" d="M444.1,0h297.9" style="stroke: rgb(40, 52, 66); stroke-opacity: 1; stroke-width: 1px;"/><path class="y2grid crisp" transform="translate(0,270.56)" d="M444.1,0h297.9" style="stroke: rgb(40, 52, 66); stroke-opacity: 1; stroke-width: 1px;"/><path class="y2grid crisp" transform="translate(0,227.59)" d="M444.1,0h297.9" style="stroke: rgb(40, 52, 66); stroke-opacity: 1; stroke-width: 1px;"/><path class="y2grid crisp" transform="translate(0,184.62)" d="M444.1,0h297.9" style="stroke: rgb(40, 52, 66); stroke-opacity: 1; stroke-width: 1px;"/><path class="y2grid crisp" transform="translate(0,141.65)" d="M444.1,0h297.9" style="stroke: rgb(40, 52, 66); stroke-opacity: 1; stroke-width: 1px;"/></g></g><g class="zerolinelayer"><path class="y2zl zl crisp" transform="translate(0,356.5)" d="M444.1,0h297.9" style="stroke: rgb(40, 52, 66); stroke-opacity: 1; stroke-width: 2px;"/></g><path class="xlines-below"/><path class="ylines-below"/><g class="overlines-below"/><g class="xaxislayer-below"/><g class="yaxislayer-below"/><g class="overaxes-below"/><g class="plot" transform="translate(444.1, 100)" clip-path="url('#clip03d108x2y2plot')"><g class="scatterlayer mlayer"><g class="trace scatter trace935844" style="stroke-miterlimit: 2; opacity: 1;"><g class="fills"/><g class="errorbars"/><g class="lines"><path class="js-line" d="M0,256.5L59.96,256.07L60.91,255.64L65.67,255L66.62,254.78L76.14,251.99L77.09,251.56L79,251.56L79.95,248.77L82.8,247.69L83.75,247.48L86.61,246.83L87.56,246.62L90.42,245.33L91.37,245.33L96.13,242.96L97.08,242.96L99.93,242.32L100.89,242.1L102.79,241.25L103.74,241.25L105.65,240.6L106.6,240.17L109.45,238.67L110.4,238.67L112.31,238.02L113.26,237.59L117.07,236.52L118.02,236.52L124.68,235.87L125.63,235.66L127.54,235.66L128.49,234.8L132.29,234.58L133.25,233.94L135.15,233.08L136.1,233.08L138,232.44L138.96,232.44L140.86,231.36L141.81,231.15L145.62,230.72L146.57,230.29L148.47,228.57L149.43,228.57L152.28,227.49L153.23,227.28L156.09,226.42L157.04,226.42L159.9,225.99L160.85,225.13L165.61,223.84L166.56,223.41L167.51,223.41L168.46,221.91L171.32,221.69L172.27,220.62L175.12,218.26L176.08,218.26L179.88,217.61L180.83,217.4L181.79,217.4L182.74,215.89L185.59,215.25L186.54,215.03L189.4,215.03L190.35,212.45L192.25,212.45L193.21,210.95L195.11,209.45L196.06,209.45L199.87,207.51L200.82,206.87L203.68,206.22L204.63,206.22L206.53,204.29L207.48,204.08L209.39,203.43L210.34,201.28L212.24,201.28L213.19,197.63L214.15,193.12L215.1,192.9L217,192.26L217.95,192.04L220.81,191.4L221.76,187.75L222.71,187.75L223.66,185.17L224.61,184.95L225.57,180.01L226.52,180.01L227.47,178.08L229.37,176.14L230.33,176.14L231.28,176.14L232.23,172.71L236.04,169.27L236.99,169.27L238.89,168.84L239.84,167.98L240.79,166.26L241.75,166.26L243.65,165.19L244.6,165.19L247.46,163.9L248.41,163.9L258.88,163.68L259.83,163.04L260.78,158.53L261.73,158.53L263.64,157.45L264.59,157.45L269.35,157.02L270.3,157.02L274.11,156.59L275.06,155.3L276.96,154.66L277.91,154.66L278.86,154.66L279.82,152.73L282.67,151.44L283.62,151.22L285.53,150.58L286.48,150.36L291.24,149.29L292.19,149.29L296.95,146.49L297.9,146.49" style="vector-effect: non-scaling-stroke; fill: none; stroke: rgb(230, 25, 75); stroke-opacity: 1; stroke-width: 2px; opacity: 1;"/></g><g class="points"/><g class="text"/></g><g class="trace scatter tracead0973" style="stroke-miterlimit: 2; opacity: 1;"><g class="fills"/><g class="errorbars"/><g class="lines"><path class="js-line" d="M0,256.5L193.21,255.86L194.16,255.64L197.97,255.43L198.92,255.43L233.18,254.78L234.13,254.57L280.77,253.92L281.72,253.71L285.53,252.85L286.48,251.56L287.43,249.62L288.38,249.41L292.19,248.77L293.14,247.69L294.09,247.69L295.04,246.19L297.9,245.97" style="vector-effect: non-scaling-stroke; fill: none; stroke: rgb(60, 180, 75); stroke-opacity: 1; stroke-width: 2px; opacity: 1;"/></g><g class="points"/><g class="text"/></g><g class="trace scatter trace868a3d" style="stroke-miterlimit: 2; opacity: 1;"><g class="fills"/><g class="errorbars"/><g class="lines"><path class="js-line" d="M0,256.5L56.15,256.5L57.11,255.64L59.01,255.64L59.96,251.99L61.86,249.41L62.82,247.26L63.77,246.62L64.72,244.04L67.57,239.74L68.53,235.87L72.33,214.39L73.29,207.3L74.24,203.65L75.19,194.41L78.04,182.81L79,169.27L82.8,152.51L83.75,143.92L91.37,109.11L92.32,106.53L96.13,98.15L97.08,91.28L105.65,66.57L106.6,65.06L111.36,55.61L112.31,55.18L115.16,51.53L116.11,49.38L119.92,47.66L120.87,46.37L122.78,44.44L123.73,43.79L125.63,42.94L126.58,42.51L130.39,38.64L131.34,38.64L139.91,36.06L140.86,35.42L143.72,34.56L144.67,34.56L147.52,34.13L148.47,33.27L150.38,32.84L151.33,32.84L153.23,30.9L154.18,30.26L157.04,28.54L157.99,28.54L159.9,28.11L160.85,28.11L164.65,26.18L165.61,26.18L180.83,25.53L181.79,25.32L199.87,24.67L200.82,24.46L205.58,24.03L206.53,24.03L210.34,23.81L211.29,23.81L244.6,23.17L245.55,22.74L258.88,22.09L259.83,21.88L265.54,21.23L266.49,21.23L273.15,20.59L274.11,20.38L284.58,18.66L285.53,18.66L287.43,17.15L288.38,16.72L290.29,16.29L291.24,16.29L294.09,15.43L295.04,14.57L297.9,13.5" style="vector-effect: non-scaling-stroke; fill: none; stroke: rgb(255, 225, 25); stroke-opacity: 1; stroke-width: 2px; opacity: 1;"/></g><g class="points"/><g class="text"/></g><g class="trace scatter trace581d56" style="stroke-miterlimit: 2; opacity: 1;"><g class="fills"/><g class="errorbars"/><g class="lines"><path class="js-line" d="M0,256.5L61.86,255.86L62.82,255.43L66.62,254.78L67.57,254.57L68.53,254.14L69.48,252.85L71.38,252.63L72.33,250.05L73.29,248.55L74.24,248.55L76.14,243.61L77.09,242.96L78.04,242.96L79,240.17L79.95,238.88L80.9,238.88L82.8,233.73L83.75,221.26L85.66,212.67L86.61,212.67L87.56,212.67L88.51,211.81L90.42,209.88L91.37,206.65L92.32,203L93.27,185.81L95.18,178.72L96.13,177.22L97.08,174.64L98.03,174.43L99.93,155.3L100.89,147.78L102.79,144.13L103.74,143.7L104.69,143.7L105.65,141.77L106.6,137.04L107.55,137.04L111.36,137.04L112.31,132.96L114.21,126.08L115.16,123.51L116.11,120.5L117.07,120.5L118.97,120.07L119.92,118.13L122.78,109.97L123.73,109.97L124.68,109.97L125.63,106.96L127.54,103.31L128.49,101.59L132.29,98.8L133.25,97.51L136.1,92.57L137.05,92.57L138,92.35L138.96,91.28L140.86,90.42L141.81,88.91L143.72,88.05L144.67,88.05L149.43,85.05L150.38,85.05L152.28,84.4L153.23,83.76L157.04,82.25L157.99,82.25L162.75,78.39L163.7,78.39L166.56,77.74L167.51,77.1L174.17,75.59L175.12,75.16L180.83,74.52L181.79,74.3L183.69,73.87L184.64,73.87L194.16,71.94L195.11,71.94L211.29,71.51L212.24,71.08L220.81,70.65L221.76,70.22L229.37,69.58L230.33,68.72L232.23,68.29L233.18,67.86L241.75,67.21L242.7,66.78L249.36,66.14L250.31,65.92L256.97,65.49L257.93,65.06L262.68,64.64L263.64,64.64L272.2,64.21L273.15,63.56L280.77,62.92L281.72,62.49L286.48,61.2L287.43,60.12L289.33,59.05L290.29,58.4L293.14,57.12L294.09,56.47L297.9,55.4" style="vector-effect: non-scaling-stroke; fill: none; stroke: rgb(67, 99, 216); stroke-opacity: 1; stroke-width: 2px; opacity: 1;"/></g><g class="points"/><g class="text"/></g><g class="trace scatter tracea5a79e" style="stroke-miterlimit: 2; opacity: 1;"><g class="fills"/><g class="errorbars"/><g class="lines"><path class="js-line" d="M0,256.5L59.01,256.07L59.96,255.64L62.82,255L63.77,254.57L68.53,253.06L69.48,251.77L73.29,250.05L74.24,248.77L80.9,243.61L81.85,243.39L83.75,242.75L84.71,241.89L87.56,241.46L88.51,239.74L90.42,239.53L91.37,237.81L92.32,237.59L93.27,236.52L96.13,235.01L97.08,235.01L99.93,233.08L100.89,232.22L104.69,232.01L105.65,231.36L109.45,230.07L110.4,230.07L118.02,229.86L118.97,229.21L129.44,227.49L130.39,227.49L166.56,226.85L167.51,226.64L188.45,225.99L189.4,225.78L214.15,225.13L215.1,224.92L238.89,224.27L239.84,224.06L251.26,223.63L252.22,223.2L259.83,222.55L260.78,222.34L274.11,221.91L275.06,221.48L280.77,220.83L281.72,220.19L287.43,218.26L288.38,217.83L292.19,216.11L293.14,215.46L297.9,214.39" style="vector-effect: non-scaling-stroke; fill: none; stroke: rgb(245, 130, 49); stroke-opacity: 1; stroke-width: 2px; opacity: 1;"/></g><g class="points"/><g class="text"/></g><g class="trace scatter trace0b7309" style="stroke-miterlimit: 2; opacity: 1;"><g class="fills"/><g class="errorbars"/><g class="lines"><path class="js-line" d="M0,256.5L76.14,255.86L77.09,255.64L86.61,255L87.56,254.78L117.07,254.14L118.02,253.92L138,253.28L138.96,253.06L157.99,252.42L158.94,252.2L159.9,252.2L160.85,250.91L164.65,250.27L165.61,249.19L167.51,247.05L168.46,246.62L170.36,245.76L171.32,245.76L176.08,242.75L177.03,242.75L178.93,242.53L179.88,236.09L181.79,232.01L182.74,231.79L184.64,231.36L185.59,230.07L187.5,227.71L188.45,226.42L189.4,225.99L190.35,224.06L191.3,224.06L192.25,222.77L195.11,220.4L196.06,219.12L197.97,218.26L198.92,217.61L200.82,215.25L201.77,214.82L205.58,214.6L206.53,213.53L208.43,212.03L209.39,211.6L212.24,211.38L213.19,209.66L217,206.01L217.95,206.01L219.86,205.58L220.81,203.86L222.71,201.93L223.66,201.93L224.61,201.5L225.57,199.99L230.33,196.99L231.28,196.99L235.08,193.98L236.04,193.55L238.89,193.12L239.84,192.47L244.6,190.97L245.55,190.11L249.36,188.39L250.31,187.1L253.17,185.38L254.12,184.09L256.02,182.38L256.97,182.38L260.78,180.87L261.73,177.65L264.59,177.86L265.54,177.43L267.44,177L268.4,175.93L272.2,175.29L273.15,174L275.06,173.78L276.01,172.49L277.91,172.28L278.86,170.77L280.77,170.56L281.72,169.05L283.62,168.62L284.58,168.62L288.38,165.83L289.33,165.4L292.19,163.68L293.14,163.25L295.04,162.82L296,162.39L296.95,161.1L297.9,161.1" style="vector-effect: non-scaling-stroke; fill: none; stroke: rgb(145, 30, 180); stroke-opacity: 1; stroke-width: 2px; opacity: 1;"/></g><g class="points"/><g class="text"/></g></g></g><g class="overplot"/><path class="xlines-above crisp" d="M0,0" style="fill: none;"/><path class="ylines-above crisp" d="M0,0" style="fill: none;"/><g class="overlines-above"/><g class="xaxislayer-above"><g class="x2tick"><text text-anchor="middle" x="0" y="383" transform="translate(510.72,0)" style="font-family: 'Open Sans', verdana, arial, sans-serif; font-size: 12px; fill: rgb(242, 245, 250); fill-opacity: 1; white-space: pre;">Apr 2020</text></g><g class="x2tick"><text text-anchor="middle" x="0" y="383" transform="translate(597.33,0)" style="font-family: 'Open Sans', verdana, arial, sans-serif; font-size: 12px; fill: rgb(242, 245, 250); fill-opacity: 1; white-space: pre;">Jul 2020</text></g><g class="x2tick"><text text-anchor="middle" x="0" y="383" transform="translate(684.89,0)" style="font-family: 'Open Sans', verdana, arial, sans-serif; font-size: 12px; fill: rgb(242, 245, 250); fill-opacity: 1; white-space: pre;">Oct 2020</text></g></g><g class="yaxislayer-above"><g class="y2tick"><text text-anchor="end" x="443.1" y="4.199999999999999" transform="translate(0,356.5)" style="font-family: 'Open Sans', verdana, arial, sans-serif; font-size: 12px; fill: rgb(242, 245, 250); fill-opacity: 1; white-space: pre;">0</text></g><g class="y2tick"><text text-anchor="end" x="443.1" y="4.199999999999999" transform="translate(0,313.53)" style="font-family: 'Open Sans', verdana, arial, sans-serif; font-size: 12px; fill: rgb(242, 245, 250); fill-opacity: 1; white-space: pre;">200</text></g><g class="y2tick"><text text-anchor="end" x="443.1" y="4.199999999999999" transform="translate(0,270.56)" style="font-family: 'Open Sans', verdana, arial, sans-serif; font-size: 12px; fill: rgb(242, 245, 250); fill-opacity: 1; white-space: pre;">400</text></g><g class="y2tick"><text text-anchor="end" x="443.1" y="4.199999999999999" transform="translate(0,227.59)" style="font-family: 'Open Sans', verdana, arial, sans-serif; font-size: 12px; fill: rgb(242, 245, 250); fill-opacity: 1; white-space: pre;">600</text></g><g class="y2tick"><text text-anchor="end" x="443.1" y="4.199999999999999" transform="translate(0,184.62)" style="font-family: 'Open Sans', verdana, arial, sans-serif; font-size: 12px; fill: rgb(242, 245, 250); fill-opacity: 1; white-space: pre;">800</text></g><g class="y2tick"><text text-anchor="end" x="443.1" y="4.199999999999999" transform="translate(0,141.65)" style="font-family: 'Open Sans', verdana, arial, sans-serif; font-size: 12px; fill: rgb(242, 245, 250); fill-opacity: 1; white-space: pre;">1000</text></g></g><g class="overaxes-above"/></g></g><g class="polarlayer"/><g class="ternarylayer"/><g class="geolayer"/><g class="funnelarealayer"/><g class="pielayer"/><g class="treemaplayer"/><g class="sunburstlayer"/><g class="glimages"/><defs id="topdefs-03d108"><g class="clips"/><clipPath id="legend03d108"><rect width="133" height="124" x="0" y="0"/></clipPath></defs><g class="layer-above"><g class="imagelayer"/><g class="shapelayer"/></g><g class="infolayer"><g class="legend" pointer-events="all" transform="translate(755.24, 100)"><rect class="bg" shape-rendering="crispEdges" width="133" height="124" x="0" y="0" style="stroke: rgb(68, 68, 68); stroke-opacity: 1; fill: rgb(17, 17, 17); fill-opacity: 1; stroke-width: 0px;"/><g class="scrollbox" transform="translate(0, 0)" clip-path="url('#legend03d108')"><g class="groups"><g class="traces" transform="translate(0, 14.5)" style="opacity: 1;"><text class="legendtext user-select-none" text-anchor="start" x="40" y="4.680000000000001" style="font-family: 'Open Sans', verdana, arial, sans-serif; font-size: 12px; fill: rgb(242, 245, 250); fill-opacity: 1; white-space: pre;">Alameda, CA</text><g class="layers" style="opacity: 1;"><g class="legendfill"/><g class="legendlines"><path class="js-line" d="M5,0h30" style="fill: none; stroke: rgb(230, 25, 75); stroke-opacity: 1; stroke-width: 2px;"/></g><g class="legendsymbols"><g class="legendpoints"/></g></g><rect class="legendtoggle" pointer-events="all" x="0" y="-9.5" width="127.59375" height="19" style="cursor: pointer; fill: rgb(0, 0, 0); fill-opacity: 0;"/></g><g class="traces" transform="translate(0, 33.5)" style="opacity: 1;"><text class="legendtext user-select-none" text-anchor="start" x="40" y="4.680000000000001" style="font-family: 'Open Sans', verdana, arial, sans-serif; font-size: 12px; fill: rgb(242, 245, 250); fill-opacity: 1; white-space: pre;">Wise, VA</text><g class="layers" style="opacity: 1;"><g class="legendfill"/><g class="legendlines"><path class="js-line" d="M5,0h30" style="fill: none; stroke: rgb(60, 180, 75); stroke-opacity: 1; stroke-width: 2px;"/></g><g class="legendsymbols"><g class="legendpoints"/></g></g><rect class="legendtoggle" pointer-events="all" x="0" y="-9.5" width="127.59375" height="19" style="cursor: pointer; fill: rgb(0, 0, 0); fill-opacity: 0;"/></g><g class="traces" transform="translate(0, 52.5)" style="opacity: 1;"><text class="legendtext user-select-none" text-anchor="start" x="40" y="4.680000000000001" style="font-family: 'Open Sans', verdana, arial, sans-serif; font-size: 12px; fill: rgb(242, 245, 250); fill-opacity: 1; white-space: pre;">Richmond, NY</text><g class="layers" style="opacity: 1;"><g class="legendfill"/><g class="legendlines"><path class="js-line" d="M5,0h30" style="fill: none; stroke: rgb(255, 225, 25); stroke-opacity: 1; stroke-width: 2px;"/></g><g class="legendsymbols"><g class="legendpoints"/></g></g><rect class="legendtoggle" pointer-events="all" x="0" y="-9.5" width="127.59375" height="19" style="cursor: pointer; fill: rgb(0, 0, 0); fill-opacity: 0;"/></g><g class="traces" transform="translate(0, 71.5)" style="opacity: 1;"><text class="legendtext user-select-none" text-anchor="start" x="40" y="4.680000000000001" style="font-family: 'Open Sans', verdana, arial, sans-serif; font-size: 12px; fill: rgb(242, 245, 250); fill-opacity: 1; white-space: pre;">Montgomery, PA</text><g class="layers" style="opacity: 1;"><g class="legendfill"/><g class="legendlines"><path class="js-line" d="M5,0h30" style="fill: none; stroke: rgb(67, 99, 216); stroke-opacity: 1; stroke-width: 2px;"/></g><g class="legendsymbols"><g class="legendpoints"/></g></g><rect class="legendtoggle" pointer-events="all" x="0" y="-9.5" width="127.59375" height="19" style="cursor: pointer; fill: rgb(0, 0, 0); fill-opacity: 0;"/></g><g class="traces" transform="translate(0, 90.5)" style="opacity: 1;"><text class="legendtext user-select-none" text-anchor="start" x="40" y="4.680000000000001" style="font-family: 'Open Sans', verdana, arial, sans-serif; font-size: 12px; fill: rgb(242, 245, 250); fill-opacity: 1; white-space: pre;">Weld, CO</text><g class="layers" style="opacity: 1;"><g class="legendfill"/><g class="legendlines"><path class="js-line" d="M5,0h30" style="fill: none; stroke: rgb(245, 130, 49); stroke-opacity: 1; stroke-width: 2px;"/></g><g class="legendsymbols"><g class="legendpoints"/></g></g><rect class="legendtoggle" pointer-events="all" x="0" y="-9.5" width="127.59375" height="19" style="cursor: pointer; fill: rgb(0, 0, 0); fill-opacity: 0;"/></g><g class="traces" transform="translate(0, 109.5)" style="opacity: 1;"><text class="legendtext user-select-none" text-anchor="start" x="40" y="4.680000000000001" style="font-family: 'Open Sans', verdana, arial, sans-serif; font-size: 12px; fill: rgb(242, 245, 250); fill-opacity: 1; white-space: pre;">Brevard, FL</text><g class="layers" style="opacity: 1;"><g class="legendfill"/><g class="legendlines"><path class="js-line" d="M5,0h30" style="fill: none; stroke: rgb(145, 30, 180); stroke-opacity: 1; stroke-width: 2px;"/></g><g class="legendsymbols"><g class="legendpoints"/></g></g><rect class="legendtoggle" pointer-events="all" x="0" y="-9.5" width="127.59375" height="19" style="cursor: pointer; fill: rgb(0, 0, 0); fill-opacity: 0;"/></g></g></g><rect class="scrollbar" rx="20" ry="3" width="0" height="0" x="0" y="0" style="fill: rgb(128, 139, 164); fill-opacity: 1;"/></g><g class="g-gtitle"/><g class="g-xtitle"><text class="xtitle" x="228.95000000000002" y="410.8" text-anchor="middle" style="font-family: 'Open Sans', verdana, arial, sans-serif; font-size: 14px; fill: rgb(242, 245, 250); opacity: 1; font-weight: normal; white-space: pre;">Date</text></g><g class="g-x2title"><text class="x2title" x="593.05" y="410.8" text-anchor="middle" style="font-family: 'Open Sans', verdana, arial, sans-serif; font-size: 14px; fill: rgb(242, 245, 250); opacity: 1; font-weight: normal; white-space: pre;">Date</text></g><g class="g-ytitle"><text class="ytitle" transform="rotate(-90,34.840625,235)" x="34.840625" y="235" text-anchor="middle" style="font-family: 'Open Sans', verdana, arial, sans-serif; font-size: 14px; fill: rgb(242, 245, 250); opacity: 1; font-weight: normal; white-space: pre;">Cases</text></g><g class="g-y2title"><text class="y2title" transform="rotate(-90,391.590625,235)" x="391.590625" y="235" text-anchor="middle" style="font-family: 'Open Sans', verdana, arial, sans-serif; font-size: 14px; fill: rgb(242, 245, 250); opacity: 1; font-weight: normal; white-space: pre;">Deaths</text></g><g class="annotation" data-index="0" style="opacity: 1;"><g class="annotation-text-g" transform="rotate(0,228.95000000000002,89.5)"><g class="cursor-pointer" transform="translate(204, 79)"><rect class="bg" x="0.5" y="0.5" width="48" height="20" style="stroke-width: 1px; stroke: rgb(0, 0, 0); stroke-opacity: 0; fill: rgb(0, 0, 0); fill-opacity: 0;"/><text class="annotation-text" text-anchor="middle" x="24.6875" y="16" style="font-family: 'Open Sans', verdana, arial, sans-serif; font-size: 16px; fill: rgb(242, 245, 250); fill-opacity: 1; white-space: pre;">Cases</text></g></g></g><g class="annotation" data-index="1" style="opacity: 1;"><g class="annotation-text-g" transform="rotate(0,593.0500000000001,89.5)"><g class="cursor-pointer" transform="translate(566, 79)"><rect class="bg" x="0.5" y="0.5" width="54" height="20" style="stroke-width: 1px; stroke: rgb(0, 0, 0); stroke-opacity: 0; fill: rgb(0, 0, 0); fill-opacity: 0;"/><text class="annotation-text" text-anchor="middle" x="27.359375" y="16" style="font-family: 'Open Sans', verdana, arial, sans-serif; font-size: 16px; fill: rgb(242, 245, 250); fill-opacity: 1; white-space: pre;">Deaths</text></g></g></g></g></svg>