<svg class="main-svg" xmlns="http://www.w3.org/2000/svg" xmlns:xlink="http://www.w3.org/1999/xlink" width="900" height="450" style="" viewBox="0 0 900 450"><rect x="0" y="0" width="900" height="450" style="fill: rgb(17, 17, 17); fill-opacity: 1;"/><defs id="defs-a9653e"><g class="clips"><clipPath id="clipa9653exyplot" class="plotclip"><rect width="304.65000000000003" height="270"/></clipPath><clipPath id="clipa9653ex2y2plot" class="plotclip"><rect width="304.65" height="270"/></clipPath><clipPath class="axesclip" id="clipa9653ex"><rect x="80" y="0" width="304.65000000000003" height="450"/></clipPath><clipPath class="axesclip" id="clipa9653ey"><rect x="0" y="100" width="900" height="270"/></clipPath><clipPath class="axesclip" id="clipa9653exy"><rect x="80" y="100" width="304.65000000000003" height="270"/></clipPath><clipPath class="axesclip" id="clipa9653ey2"><rect x="0" y="100" width="900" height="270"/></clipPath><clipPath class="axesclip" id="clipa9653exy2"><rect x="80" y="100" width="304.65000000000003" height="270"/></clipPath><clipPath class="axesclip" id="clipa9653ex2"><rect x="452.35" y="0" width="304.65" height="450"/></clipPath><clipPath class="axesclip" id="clipa9653ex2y"><rect x="452.35" y="100" width="304.65" height="270"/></clipPath><clipPath class="axesclip" id="clipa9653ex2y2"><rect x="452.35" y="100" width="304.65" height="270"/></clipPath></g><g class="gradients"/></defs><g class="bglayer"/><g class="layer-below"><g class="imagelayer"/><g class="shapelayer"/></g><g class="cartesianlayer"><g class="subplot xy"><g class="layer-subplot"><g class="shapelayer"/><g class="imagelayer"/></g><g class="gridlayer"><g class="x"><path class="xgrid crisp" transform="translate(132.4,0)" d="M0,100v270" style="stroke: rgb(40, 52, 66); stroke-opacity: 1; stroke-width: 1px;"/><path class="xgrid crisp" transform="translate(200.51,0)" d="M0,100v270" style="stroke: rgb(40, 52, 66); stroke-opacity: 1; stroke-width: 1px;"/><path class="xgrid crisp" transform="translate(269.38,0)" d="M0,100v270" style="stroke: rgb(40, 52, 66); stroke-opacity: 1; stroke-width: 1px;"/><path class="xgrid crisp" transform="translate(338.24,0)" d="M0,100v270" style="stroke: rgb(40, 52, 66); stroke-opacity: 1; stroke-width: 1px;"/></g><g class="y"><path class="ygrid crisp" transform="translate(0,296.90999999999997)" d="M80,0h304.65000000000003" style="stroke: rgb(40, 52, 66); stroke-opacity: 1; stroke-width: 1px;"/><path class="ygrid crisp" transform="translate(0,237.32)" d="M80,0h304.65000000000003" style="stroke: rgb(40, 52, 66); stroke-opacity: 1; stroke-width: 1px;"/><path class="ygrid crisp" transform="translate(0,177.73000000000002)" d="M80,0h304.65000000000003" style="stroke: rgb(40, 52, 66); stroke-opacity: 1; stroke-width: 1px;"/><path class="ygrid crisp" transform="translate(0,118.14)" d="M80,0h304.65000000000003" style="stroke: rgb(40, 52, 66); stroke-opacity: 1; stroke-width: 1px;"/></g></g><g class="zerolinelayer"><path class="yzl zl crisp" transform="translate(0,356.5)" d="M80,0h304.65000000000003" style="stroke: rgb(40, 52, 66); stroke-opacity: 1; stroke-width: 2px;"/></g><path class="xlines-below"/><path class="ylines-below"/><g class="overlines-below"/><g class="xaxislayer-below"/><g class="yaxislayer-below"/><g class="overaxes-below"/><g class="plot" transform="translate(80, 100)" clip-path="url('#clipa9653exyplot')"><g class="scatterlayer mlayer"><g class="trace scatter trace6fb28e" style="stroke-miterlimit: 2; opacity: 1;"><g class="fills"/><g class="errorbars"/><g class="lines"><path class="js-line" d="M0,256.5L48.65,255.84L49.4,255.74L56.89,254.61L57.64,254.49L84.58,249.84L85.33,249.65L96.56,246.7L97.31,246.4L112.28,242.18L113.03,242.18L116.77,240.13L117.52,240.13L124.26,235.98L125,235.98L126.5,234.43L127.25,234.2L133.24,229.36L133.99,228.98L135.48,228.54L136.23,227.77L139.23,225.6L139.97,225.4L146.71,220.34L147.46,220.34L148.96,220.34L149.71,217.17L150.45,217.12L151.2,215.79L153.45,213.12L154.2,213.12L155.69,211.42L156.44,210.51L159.44,206.76L160.18,206.67L160.93,206.64L161.68,205.03L166.17,202.31L166.92,201.54L169.92,199.5L170.66,199.5L173.66,197.77L174.41,197.45L178.9,196.43L179.65,195.83L184.89,193.85L185.63,193.85L188.63,192.79L189.38,192.57L201.35,189.58L202.1,189.06L218.57,182.01L219.32,181.69L223.81,178.89L224.56,177.66L231.29,172.4L232.04,170.52L235.79,166.13L236.53,164.2L238.03,161.93L238.78,159.53L239.53,159.29L240.28,155.98L244.02,148.69L244.77,142.63L247.01,136.54L247.76,136.47L250.01,125.39L250.76,123.15L255.25,108.23L256,106.32L258.24,100.15L258.99,97.04L261.24,89.95L261.98,88.36L263.48,83.93L264.23,80.2L271.71,54.08L272.46,52.6L275.46,47.7L276.21,45.48L284.44,31.78L285.19,30.91L288.18,27.03L288.93,26.06L296.42,19.64L297.16,19.19L304.65,15.25" style="vector-effect: non-scaling-stroke; fill: none; stroke: rgb(230, 25, 75); stroke-opacity: 1; stroke-width: 2px; opacity: 1;"/></g><g class="points"/><g class="text"/></g><g class="trace scatter trace6c9a99" style="stroke-miterlimit: 2; opacity: 1;"><g class="fills"/><g class="errorbars"/><g class="lines"><path class="js-line" d="M0,256.5L52.4,255.77L53.15,255.59L55.39,255.06L56.14,255L104.05,245.13L104.79,244.65L112.28,240.75L113.03,239.51L114.52,237.61L115.27,236.85L116.77,235.35L117.52,235.35L122.01,224.63L122.76,223.7L123.51,223.34L124.26,221.7L125.75,219.53L126.5,217.29L128.75,212.93L129.49,212.44L132.49,205.9L133.24,205.21L135.48,203.49L136.23,201.7L139.23,198.7L139.97,198.46L145.96,192.3L146.71,191.48L157.19,182.73L157.94,181.83L160.18,180.11L160.93,179.82L164.68,178.12L165.42,178.09L170.66,176.26L171.41,176.15L177.4,173.74L178.15,173.19L182.64,171.3L183.39,171.16L193.87,167.26L194.62,167.12L208.84,162.19L209.59,161.83L215.58,159.35L216.32,158.93L225.31,152.16L226.05,151.25L231.29,145.55L232.04,145.55L234.29,143.15L235.04,142.16L238.78,137.54L239.53,136.7L244.77,130.05L245.52,128.81L247.01,125.89L247.76,125.89L249.26,125.89L250.01,120.96L252.25,116.24L253,116.24L253.75,116.24L254.5,112.87L256,110.65L256.74,108.58L258.24,105.75L258.99,105.75L261.24,99.46L261.98,97.78L263.48,95.8L264.23,91.42L267.22,87.19L267.97,82.84L269.47,77.48L270.22,76.6L271.71,73.36L272.46,70.87L275.46,63.85L276.21,62.94L285.19,43.69L285.94,43.1L287.43,41.15L288.18,40.12L290.43,37.4L291.18,37.4L296.42,37.4L297.16,36.59L300.91,31.96L301.66,31.2L303.15,30.35L303.9,29.8L304.65,29.24" style="vector-effect: non-scaling-stroke; fill: none; stroke: rgb(60, 180, 75); stroke-opacity: 1; stroke-width: 2px; opacity: 1;"/></g><g class="points"/><g class="text"/></g><g class="trace scatter tracedced38" style="stroke-miterlimit: 2; opacity: 1;"><g class="fills"/><g class="errorbars"/><g class="lines"><path class="js-line" d="M0,256.5L52.4,255.81L53.15,255.74L108.54,251.33L109.28,251.22L115.27,249.64L116.02,249.3L128,245.15L128.75,244.77L136.23,240.66L136.98,239.98L142.97,236.59L143.72,236.23L145.96,235.55L146.71,235.27L154.94,231.77L155.69,231.77L169.92,225.17L170.66,224.95L172.91,224.42L173.66,224.18L200.6,216.86L201.35,216.39L209.59,213.16L210.34,212.79L219.32,208.93L220.07,208.39L229.8,200.74L230.55,199.83L232.04,198.82L232.79,198.08L235.04,196.76L235.79,195.77L241.03,188.4L241.77,186.54L244.02,181.47L244.77,181.47L247.01,175.69L247.76,175.69L249.26,175.69L250.01,154.3L252.25,148.34L253,148.34L253.75,148.34L254.5,146.82L255.25,146.82L256,145.48L258.24,139.76L258.99,139.76L260.49,137.94L261.24,136.72L263.48,133.12L264.23,129.25L267.22,124.93L267.97,123L270.22,118.63L270.97,118.63L271.71,118.63L272.46,115.46L274.71,108.72L275.46,108.07L276.21,108.07L276.95,106.22L280.7,96.94L281.45,96.94L285.94,87.78L286.69,87.78L291.18,77.23L291.93,77.23L297.16,77.23L297.91,74.29L300.91,66.86L301.66,65.83L302.4,65.83L303.15,63.74L304.65,60.39" style="vector-effect: non-scaling-stroke; fill: none; stroke: rgb(255, 225, 25); stroke-opacity: 1; stroke-width: 2px; opacity: 1;"/></g><g class="points"/><g class="text"/></g><g class="trace scatter trace72d039" style="stroke-miterlimit: 2; opacity: 1;"><g class="fills"/><g class="errorbars"/><g class="lines"><path class="js-line" d="M0,256.5L44.91,255.88L45.66,255.7L49.4,253.79L50.15,252.79L53.15,250.15L53.89,248.4L55.39,247.41L56.14,245.42L59.88,240.39L60.63,240.01L62.88,237.19L63.62,236.19L65.87,234.35L66.62,231.71L67.37,231.26L68.12,227.05L73.36,223.77L74.1,222.85L75.6,221.34L76.35,221.34L77.85,219.67L78.6,219.39L83.09,216.31L83.83,215.87L89.07,212.65L89.82,212.55L94.31,210.87L95.06,210.76L109.28,207.76L110.03,207.69L136.98,205.3L137.73,204.59L140.72,204.38L141.47,203.66L148.21,203L148.96,203L154.94,202.39L155.69,201.92L160.18,201.58L160.93,201.07L171.41,199.8L172.16,199.49L176.65,198.35L177.4,198.23L199.86,193.39L200.6,192.83L202.1,192.83L202.85,191.92L205.1,190.69L205.84,189.99L207.34,189.99L208.09,188.29L209.59,187.14L210.34,185.31L211.83,184.53L212.58,184.53L214.08,180.93L214.83,180.41L216.32,177.74L217.07,177.74L217.82,177.74L218.57,174.11L222.31,167.59L223.06,167.59L224.56,161.83L225.31,160.06L226.8,156.25L227.55,156.25L228.3,156.25L229.05,151.41L231.29,149.13L232.04,146.05L233.54,146.05L234.29,142.37L235.04,141.03L235.79,138L237.28,132.75L238.03,132.75L238.78,132.75L239.53,125.88L241.77,120.91L242.52,117.61L244.02,117.61L244.77,112.57L248.51,105.7L249.26,105.7L250.76,101.33L251.5,99.86L253,98.29L253.75,98.29L254.5,98.29L255.25,92.52L256.74,90.71L257.49,88.79L258.24,88.79L258.99,85.28L259.74,85.28L260.49,82.41L262.73,76.55L263.48,73.9L264.98,73.9L265.73,68.58L267.97,62.16L268.72,60.67L270.22,60.67L270.97,56.63L273.96,50.72L274.71,50.72L275.46,50.72L276.21,46.9L279.2,41.9L279.95,41.9L280.7,41.9L281.45,39.04L282.94,36.73L283.69,35.92L285.19,34.82L285.94,34.82L287.43,30.8L288.18,30.03L290.43,28.54L291.18,28.54L292.67,25.72L293.42,25.3L295.67,23.56L296.42,23.56L298.66,19.01L299.41,18.11L300.91,17.42L301.66,17.42L303.15,14.62L303.9,14.23L304.65,13.5" style="vector-effect: non-scaling-stroke; fill: none; stroke: rgb(67, 99, 216); stroke-opacity: 1; stroke-width: 2px; opacity: 1;"/></g><g class="points"/><g class="text"/></g><g class="trace scatter trace579070" style="stroke-miterlimit: 2; opacity: 1;"><g class="fills"/><g class="errorbars"/><g class="lines"><path class="js-line" d="M0,256.5L44.91,255.99L45.66,255.69L47.91,254.69L48.65,254.04L53.15,248.7L53.89,247.36L60.63,234.42L61.38,233.75L65.12,227L65.87,225.8L71.11,218.18L71.86,217.63L74.1,215.73L74.85,214.81L78.6,211.95L79.34,211.52L83.83,209.58L84.58,209.35L86.83,208.41L87.58,207.04L101.8,202.67L102.55,202.64L119.02,200.69L119.76,200.61L140.72,198.77L141.47,198.61L151.95,197.47L152.7,197.39L195.37,192.12L196.11,191.88L202.1,189.52L202.85,189.09L205.84,187.22L206.59,186.16L210.34,182.88L211.08,182.1L214.08,179.94L214.83,178.88L218.57,174.86L219.32,172.8L236.53,147.59L237.28,145.86L240.28,140.27L241.03,139.26L249.26,126.02L250.01,125.36L255.25,119.01L256,107.82L262.73,96.08L263.48,92.64L264.23,92.64L264.98,91.28L267.22,87.19L267.97,85.15L270.97,79.42L271.71,78.54L279.2,65.03L279.95,63.56L282.94,59.96L283.69,59.34L295.67,43.62L296.42,43.19L300.16,38.77L300.91,37.49L304.65,33.45" style="vector-effect: non-scaling-stroke; fill: none; stroke: rgb(245, 130, 49); stroke-opacity: 1; stroke-width: 2px; opacity: 1;"/></g><g class="points"/><g class="text"/></g><g class="trace scatter trace001a44" style="stroke-miterlimit: 2; opacity: 1;"><g class="fills"/><g class="errorbars"/><g class="lines"><path class="js-line" d="M0,256.5L53.15,255.78L53.89,255.7L63.62,254.72L64.37,254.72L70.36,253.18L71.11,253.16L80.09,251.7L80.84,251.61L86.83,250.94L87.58,250.79L99.55,248.72L100.3,248.28L105.54,246.88L106.29,246.73L130.99,242.47L131.74,242.26L136.23,240.06L136.98,239.71L140.72,237.28L141.47,236.99L151.2,231.83L151.95,230.27L170.66,218.03L171.41,217.89L173.66,216.93L174.41,216.44L190.13,207.91L190.87,207.18L200.6,200.32L201.35,199.46L205.1,195.6L205.84,194.68L214.08,183.53L214.83,182.54L221.56,171.35L222.31,169.39L225.31,165.05L226.05,162.91L229.05,156.4L229.8,155.31L233.54,146.61L234.29,145.57L238.78,134.89L239.53,133.84L242.52,126.88L243.27,125.15L251.5,112.03L252.25,112.03L253,112.03L253.75,109.02L256,106.67L256.74,105.13L258.24,105.13L258.99,100.85L261.98,95.1L262.73,93.06L265.73,86.36L266.48,85.34L270.22,76.96L270.97,75.98L273.21,72.02L273.96,70.73L277.7,63.6L278.45,62.21L287.43,50.53L288.18,49.84L291.18,47.24L291.93,46.82L301.66,39.03L302.4,38.72L304.65,37.39" style="vector-effect: non-scaling-stroke; fill: none; stroke: rgb(145, 30, 180); stroke-opacity: 1; stroke-width: 2px; opacity: 1;"/></g><g class="points"/><g class="text"/></g></g></g><g class="overplot"/><path class="xlines-above crisp" d="M0,0" style="fill: none;"/><path class="ylines-above crisp" d="M0,0" style="fill: none;"/><g class="overlines-above"/><g class="xaxislayer-above"><g class="xtick"><text text-anchor="middle" x="0" y="383" transform="translate(132.4,0)" style="font-family: 'Open Sans', verdana, arial, sans-serif; font-size: 12px; fill: rgb(242, 245, 250); fill-opacity: 1; white-space: pre;">Apr 2020</text></g><g class="xtick"><text text-anchor="middle" x="0" y="383" transform="translate(200.51,0)" style="font-family: 'Open Sans', verdana, arial, sans-serif; font-size: 12px; fill: rgb(242, 245, 250); fill-opacity: 1; white-space: pre;">Jul 2020</text></g><g class="xtick"><text text-anchor="middle" x="0" y="383" transform="translate(269.38,0)" style="font-family: 'Open Sans', verdana, arial, sans-serif; font-size: 12px; fill: rgb(242, 245, 250); fill-opacity: 1; white-space: pre;">Oct 2020</text></g><g class="xtick"><text text-anchor="middle" x="0" y="383" transform="translate(338.24,0)" style="font-family: 'Open Sans', verdana, arial, sans-serif; font-size: 12px; fill: rgb(242, 245, 250); fill-opacity: 1; white-space: pre;">Jan 2021</text></g></g><g class="yaxislayer-above"><g class="ytick"><text text-anchor="end" x="79" y="4.199999999999999" transform="translate(0,356.5)" style="font-family: 'Open Sans', verdana, arial, sans-serif; font-size: 12px; fill: rgb(242, 245, 250); fill-opacity: 1; white-space: pre;">0</text></g><g class="ytick"><text text-anchor="end" x="79" y="4.199999999999999" transform="translate(0,296.90999999999997)" style="font-family: 'Open Sans', verdana, arial, sans-serif; font-size: 12px; fill: rgb(242, 245, 250); fill-opacity: 1; white-space: pre;">20k</text></g><g class="ytick"><text text-anchor="end" x="79" y="4.199999999999999" transform="translate(0,237.32)" style="font-family: 'Open Sans', verdana, arial, sans-serif; font-size: 12px; fill: rgb(242, 245, 250); fill-opacity: 1; white-space: pre;">40k</text></g><g class="ytick"><text text-anchor="end" x="79" y="4.199999999999999" transform="translate(0,177.73000000000002)" style="font-family: 'Open Sans', verdana, arial, sans-serif; font-size: 12px; fill: rgb(242, 245, 250); fill-opacity: 1; white-space: pre;">60k</text></g><g class="ytick"><text text-anchor="end" x="79" y="4.199999999999999" transform="translate(0,118.14)" style="font-family: 'Open Sans', verdana, arial, sans-serif; font-size: 12px; fill: rgb(242, 245, 250); fill-opacity: 1; white-space: pre;">80k</text></g></g><g class="overaxes-above"/></g><g class="subplot x2y2"><g class="layer-subplot"><g class="shapelayer"/><g class="imagelayer"/></g><g class="gridlayer"><g class="x2"><path class="x2grid crisp" transform="translate(504.75,0)" d="M0,100v270" style="stroke: rgb(40, 52, 66); stroke-opacity: 1; stroke-width: 1px;"/><path class="x2grid crisp" transform="translate(572.86,0)" d="M0,100v270" style="stroke: rgb(40, 52, 66); stroke-opacity: 1; stroke-width: 1px;"/><path class="x2grid crisp" transform="translate(641.73,0)" d="M0,100v270" style="stroke: rgb(40, 52, 66); stroke-opacity: 1; stroke-width: 1px;"/><path class="x2grid crisp" transform="translate(710.59,0)" d="M0,100v270" style="stroke: rgb(40, 52, 66); stroke-opacity: 1; stroke-width: 1px;"/></g><g class="y2"><path class="y2grid crisp" transform="translate(0,311.41999999999996)" d="M452.35,0h304.65" style="stroke: rgb(40, 52, 66); stroke-opacity: 1; stroke-width: 1px;"/><path class="y2grid crisp" transform="translate(0,266.33000000000004)" d="M452.35,0h304.65" style="stroke: rgb(40, 52, 66); stroke-opacity: 1; stroke-width: 1px;"/><path class="y2grid crisp" transform="translate(0,221.25)" d="M452.35,0h304.65" style="stroke: rgb(40, 52, 66); stroke-opacity: 1; stroke-width: 1px;"/><path class="y2grid crisp" transform="translate(0,176.17000000000002)" d="M452.35,0h304.65" style="stroke: rgb(40, 52, 66); stroke-opacity: 1; stroke-width: 1px;"/><path class="y2grid crisp" transform="translate(0,131.07999999999998)" d="M452.35,0h304.65" style="stroke: rgb(40, 52, 66); stroke-opacity: 1; stroke-width: 1px;"/></g></g><g class="zerolinelayer"><path class="y2zl zl crisp" transform="translate(0,356.5)" d="M452.35,0h304.65" style="stroke: rgb(40, 52, 66); stroke-opacity: 1; stroke-width: 2px;"/></g><path class="xlines-below"/><path class="ylines-below"/><g class="overlines-below"/><g class="xaxislayer-below"/><g class="yaxislayer-below"/><g class="overaxes-below"/><g class="plot" transform="translate(452.35, 100)" clip-path="url('#clipa9653ex2y2plot')"><g class="scatterlayer mlayer"><g class="trace scatter trace8daa26" style="stroke-miterlimit: 2; opacity: 1;"><g class="fills"/><g class="errorbars"/><g class="lines"><path class="js-line" d="M0,256.5L52.4,255.78L53.15,255.69L56.14,255.33L56.89,255.15L62.13,254.43L62.88,253.25L65.87,252.71L66.62,252.71L74.1,251.09L74.85,250.91L88.33,248.75L89.07,248.57L93.57,248.11L94.31,248.11L115.27,245.5L116.02,244.96L123.51,243.88L124.26,243.88L129.49,243.16L130.24,242.79L142.22,240.09L142.97,240.09L144.47,239.46L145.21,239.46L148.21,239.1L148.96,239.1L150.45,238.02L151.2,238.02L153.45,236.75L154.2,236.75L164.68,234.23L165.42,233.24L166.92,233.33L167.67,231.79L169.17,229.81L169.92,229.54L173.66,229.18L174.41,227.65L175.16,227.65L175.9,226.56L176.65,226.47L177.4,224.4L178.15,224.4L178.9,223.59L181.14,222.78L181.89,222.78L183.39,220.88L184.14,220.7L185.63,220.07L186.38,219.89L188.63,219.35L189.38,218.63L193.12,218L193.87,216.83L197.61,217.19L198.36,217.64L199.11,216.65L199.86,217.46L201.35,216.65L202.1,217.46L204.35,217.28L205.1,215.38L214.83,214.75L215.58,214.57L217.82,213.76L218.57,213.76L219.32,213.76L220.07,212.95L224.56,212.05L225.31,211.96L235.04,210.15L235.79,209.61L241.03,209.07L241.77,208.44L246.26,205.74L247.01,204.74L247.76,204.74L248.51,203.75L250.76,203.48L251.5,201.59L253,200.69L253.75,200.69L255.25,200.15L256,200.15L257.49,200.15L258.24,197.35L261.98,197.35L262.73,193.65L263.48,193.65L264.23,190.77L266.48,190.14L267.22,188.42L270.97,188.24L271.71,187.61L273.21,187.43L273.96,180.58L275.46,179.32L276.21,175.89L277.7,174.81L278.45,172.73L279.2,172.01L279.95,170.03L281.45,168.14L282.19,167.96L283.69,166.42L284.44,164.44L286.69,162.64L287.43,162.64L289.68,160.56L290.43,158.4L291.93,155.51L292.67,155.42L294.92,154.97L295.67,150.91L296.42,150.91L297.16,148.3L298.66,148.3L299.41,146.68L300.16,146.14L300.91,144.6L304.65,144.33" style="vector-effect: non-scaling-stroke; fill: none; stroke: rgb(230, 25, 75); stroke-opacity: 1; stroke-width: 2px; opacity: 1;"/></g><g class="points"/><g class="text"/></g><g class="trace scatter trace86e1f9" style="stroke-miterlimit: 2; opacity: 1;"><g class="fills"/><g class="errorbars"/><g class="lines"><path class="js-line" d="M0,256.5L59.13,255.87L59.88,255.69L63.62,254.97L64.37,254.88L69.61,253.7L70.36,253.61L75.6,251.9L76.35,251.9L83.09,250.64L83.83,250.1L121.26,244.96L122.01,244.51L125,243.52L125.75,242.88L128,241.53L128.75,241.35L130.99,240.36L131.74,240L139.23,234.77L139.97,238.11L145.96,234.86L146.71,234.5L150.45,232.61L151.2,232.06L155.69,229.18L156.44,228.91L158.69,226.93L159.44,226.84L163.18,225.21L163.93,224.67L168.42,223.05L169.17,222.42L178.15,220.79L178.9,220.88L186.38,218.81L187.13,218.81L193.12,218.09L193.87,217.82L198.36,217.46L199.11,217.37L203.6,217.01L204.35,216.92L211.83,216.2L212.58,216.11L220.82,215.38L221.56,215.29L241.03,212.86L241.77,212.59L249.26,211.24L250.01,211.24L251.5,210.24L252.25,209.88L257.49,207.99L258.24,207.36L263.48,205.65L264.23,204.29L267.22,203.39L267.97,202.58L270.22,201.14L270.97,200.78L273.96,197.17L274.71,195.55L278.45,193.02L279.2,191.94L286.69,186.89L287.43,186.71L288.93,185.63L289.68,184.73L293.42,183.92L294.17,183.74L298.66,181.84L299.41,180.58L304.65,178.24" style="vector-effect: non-scaling-stroke; fill: none; stroke: rgb(60, 180, 75); stroke-opacity: 1; stroke-width: 2px; opacity: 1;"/></g><g class="points"/><g class="text"/></g><g class="trace scatter trace4b676f" style="stroke-miterlimit: 2; opacity: 1;"><g class="fills"/><g class="errorbars"/><g class="lines"><path class="js-line" d="M0,256.5L58.39,255.87L59.13,255.69L71.86,254.7L72.61,254.7L89.82,253.98L90.57,253.89L97.31,253.7L98.06,253.7L107.79,253.25L108.54,253.25L134.73,252.71L135.48,252.44L139.23,252.08L139.97,250.46L141.47,249.92L142.22,250.37L148.96,248.66L149.71,248.66L153.45,247.48L154.2,247.21L162.43,245.5L163.18,245.23L166.92,244.6L167.67,244.42L187.13,242.79L187.88,242.79L198.36,242.07L199.11,241.89L207.34,241.17L208.09,241.08L213.33,240.54L214.08,240.45L218.57,239.82L219.32,239.64L223.06,238.92L223.81,238.92L234.29,237.11L235.04,236.57L240.28,234.41L241.03,234.14L244.77,232.61L245.52,232.15L248.51,231.07L249.26,231.07L250.76,230.98L251.5,228.37L255.25,227.56L256,226.38L258.24,224.76L258.99,224.67L261.24,224.22L261.98,223.5L274.71,214.48L275.46,214.48L276.95,213.58L277.7,211.96L282.94,208.62L283.69,207.9L288.18,205.38L288.93,204.2L290.43,203.3L291.18,203.12L297.16,201.95L297.91,201.05L300.91,198.52L301.66,198.07L303.9,197.53L304.65,196.99" style="vector-effect: non-scaling-stroke; fill: none; stroke: rgb(255, 225, 25); stroke-opacity: 1; stroke-width: 2px; opacity: 1;"/></g><g class="points"/><g class="text"/></g><g class="trace scatter trace16d24c" style="stroke-miterlimit: 2; opacity: 1;"><g class="fills"/><g class="errorbars"/><g class="lines"><path class="js-line" d="M0,256.5L46.41,255.87L47.16,255.42L50.9,254.61L51.65,253.07L53.15,250.64L53.89,249.65L56.14,247.39L56.89,244.6L62.13,230.62L62.88,223.59L64.37,218.18L65.12,217.55L65.87,216.2L66.62,210.33L71.86,190.95L72.61,189.15L80.09,165.79L80.84,164.8L83.09,162.19L83.83,160.2L86.83,153.17L87.58,152.54L89.82,150.1L90.57,148.75L92.82,146.41L93.57,145.5L97.31,141.36L98.06,141.36L99.55,140.27L100.3,139.91L101.8,138.47L102.55,138.2L106.29,135.95L107.04,135.23L111.53,134.32L112.28,133.78L114.52,133.24L115.27,132.97L118.27,132.52L119.02,132.43L128.75,132.07L129.49,131.62L131.74,131.08L132.49,130.72L140.72,130L141.47,129.91L145.96,129.54L146.71,129.54L149.71,129.54L150.45,129.45L173.66,128.73L174.41,128.64L198.36,127.92L199.11,127.83L210.34,127.11L211.08,127.02L214.83,126.39L215.58,126.21L221.56,125.4L222.31,125.4L224.56,124.86L225.31,124.59L232.79,122.06L233.54,122.06L235.79,118.36L236.53,118.18L238.03,117.19L238.78,117.19L240.28,115.21L241.03,114.31L244.02,113.31L244.77,112.05L248.51,109.71L249.26,109.71L250.76,107.45L251.5,106.82L253,106.01L253.75,106.01L254.5,106.01L255.25,103.49L256,103.22L256.74,102.04L258.24,101.41L258.99,99.61L259.74,99.61L260.49,98.71L264.23,96.09L264.98,96.09L267.22,92.31L267.97,91.95L269.47,91.49L270.22,91.49L271.71,89.42L272.46,88.07L274.71,86.45L275.46,86.45L278.45,82.75L279.2,82.3L282.19,81.58L282.94,81.31L285.94,80.94L286.69,79.32L288.18,78.42L288.93,77.79L292.67,76.17L293.42,75.26L295.67,73.73L296.42,73.73L298.66,72.65L299.41,72.2L300.91,71.57L301.66,71.57L304.65,69.85" style="vector-effect: non-scaling-stroke; fill: none; stroke: rgb(67, 99, 216); stroke-opacity: 1; stroke-width: 2px; opacity: 1;"/></g><g class="points"/><g class="text"/></g><g class="trace scatter traced58879" style="stroke-miterlimit: 2; opacity: 1;"><g class="fills"/><g class="errorbars"/><g class="lines"><path class="js-line" d="M0,256.5L47.16,255.87L47.91,255.51L51.65,253.7L52.4,250.28L55.39,240.99L56.14,239.73L60.63,217.91L61.38,217.91L63.62,198.61L64.37,194.83L65.87,189.78L66.62,188.78L68.12,179.95L68.86,179.95L70.36,164.62L71.11,164.26L71.86,163.81L72.61,158.22L75.6,142.44L76.35,140.91L77.1,140L77.85,137.57L80.84,129L81.59,128.19L82.34,127.92L83.09,126.3L85.33,120.35L86.08,119.27L86.83,118.72L87.58,117.1L89.07,115.03L89.82,114.4L92.07,112.68L92.82,112.68L98.06,106.19L98.81,105.74L101.05,103.13L101.8,103.13L104.79,101.14L105.54,101.14L110.78,97.99L111.53,97.99L115.27,97.45L116.02,96.54L116.77,96.18L117.52,74.54L125.75,72.02L126.5,70.76L128.75,69.85L129.49,69.22L130.99,68.5L131.74,68.14L134.73,67.78L135.48,67.6L136.23,68.14L136.98,67.69L139.97,66.88L140.72,66.88L142.97,66.97L143.72,66.97L148.21,66.52L148.96,66.16L167.67,65.62L168.42,65.44L183.39,64.71L184.14,64.62L190.87,64.53L191.62,64.53L203.6,63.9L204.35,63.81L208.84,63.36L209.59,63.36L214.83,62.73L215.58,62.46L219.32,61.83L220.07,61.65L223.81,60.48L224.56,59.49L229.05,57.95L229.8,57.23L231.29,55.97L232.04,55.79L235.04,54.71L235.79,54.53L238.03,52.81L238.78,52.81L240.28,51.73L241.03,51.01L243.27,49.66L244.02,49.57L245.52,48.94L246.26,47.67L250.76,45.6L251.5,44.34L253,43.44L253.75,43.35L256,42.62L256.74,41.45L259.74,39.83L260.49,39.74L264.23,37.48L264.98,37.48L265.73,37.48L266.48,35.59L269.47,33.25L270.22,33.07L271.71,32.89L272.46,31.98L274.71,30.72L275.46,30.54L276.21,30.45L276.95,29.55L281.45,27.39L282.19,27.12L285.19,25.04L285.94,24.77L288.93,23.06L289.68,22.25L292.67,21.25L293.42,19.99L297.16,17.74L297.91,17.29L299.41,15.84L300.16,15.66L303.15,14.58L303.9,13.68L304.65,13.5" style="vector-effect: non-scaling-stroke; fill: none; stroke: rgb(245, 130, 49); stroke-opacity: 1; stroke-width: 2px; opacity: 1;"/></g><g class="points"/><g class="text"/></g><g class="trace scatter tracef11b54" style="stroke-miterlimit: 2; opacity: 1;"><g class="fills"/><g class="errorbars"/><g class="lines"><path class="js-line" d="M0,256.5L51.65,255.78L52.4,255.69L59.88,252.71L60.63,252.71L68.86,249.47L69.61,249.47L75.6,248.11L76.35,247.93L78.6,246.94L79.34,246.85L86.83,245.95L87.58,244.87L95.06,243.43L95.81,243.43L97.31,242.7L98.06,242.43L109.28,240.45L110.03,240.09L119.02,239.37L119.76,239.1L122.76,238.74L123.51,238.74L127.25,238.11L128,237.93L133.24,237.2L133.99,237.11L139.23,236.66L139.97,236.03L142.97,235.58L143.72,235.49L150.45,235.13L151.2,234.68L159.44,233.24L160.18,233.24L163.18,232.7L163.93,232.7L167.67,232.61L168.42,231.97L180.39,229.81L181.14,229.81L186.38,229.09L187.13,228.82L192.37,228.19L193.12,228.01L199.11,227.38L199.86,227.11L203.6,226.47L204.35,225.93L209.59,224.04L210.34,223.68L214.83,222.24L215.58,221.61L219.32,221.15L220.07,220.43L225.31,219.17L226.05,218.72L228.3,217.73L229.05,217.73L232.04,216.47L232.79,216.47L234.29,216.38L235.04,215.2L237.28,214.57L238.03,214.3L247.01,211.87L247.76,211.33L252.25,210.33L253,210.33L257.49,208.71L258.24,208.71L259.74,207.9L260.49,207.54L266.48,205.19L267.22,204.38L273.21,200.96L273.96,200.33L275.46,198.61L276.21,198.43L277.7,197.35L278.45,196.45L279.95,195.19L280.7,194.28L284.44,191.13L285.19,190.95L288.93,188.51L289.68,188.51L291.18,187.97L291.93,187.97L293.42,187.43L294.17,186.8L298.66,184.55L299.41,183.55L300.91,182.56L301.66,182.56L303.15,182.11L303.9,181.57L304.65,181.21" style="vector-effect: non-scaling-stroke; fill: none; stroke: rgb(145, 30, 180); stroke-opacity: 1; stroke-width: 2px; opacity: 1;"/></g><g class="points"/><g class="text"/></g></g></g><g class="overplot"/><path class="xlines-above crisp" d="M0,0" style="fill: none;"/><path class="ylines-above crisp" d="M0,0" style="fill: none;"/><g class="overlines-above"/><g class="xaxislayer-above"><g class="x2tick"><text text-anchor="middle" x="0" y="383" transform="translate(504.75,0)" style="font-family: 'Open Sans', verdana, arial, sans-serif; font-size: 12px; fill: rgb(242, 245, 250); fill-opacity: 1; white-space: pre;">Apr 2020</text></g><g class="x2tick"><text text-anchor="middle" x="0" y="383" transform="translate(572.86,0)" style="font-family: 'Open Sans', verdana, arial, sans-serif; font-size: 12px; fill: rgb(242, 245, 250); fill-opacity: 1; white-space: pre;">Jul 2020</text></g><g class="x2tick"><text text-anchor="middle" x="0" y="383" transform="translate(641.73,0)" style="font-family: 'Open Sans', verdana, arial, sans-serif; font-size: 12px; fill: rgb(242, 245, 250); fill-opacity: 1; white-space: pre;">Oct 2020</text></g><g class="x2tick"><text text-anchor="middle" x="0" y="383" transform="translate(710.59,0)" style="font-family: 'Open Sans', verdana, arial, sans-serif; font-size: 12px; fill: rgb(242, 245, 250); fill-opacity: 1; white-space: pre;">Jan 2021</text></g></g><g class="yaxislayer-above"><g class="y2tick"><text text-anchor="end" x="451.35" y="4.199999999999999" transform="translate(0,356.5)" style="font-family: 'Open Sans', verdana, arial, sans-serif; font-size: 12px; fill: rgb(242, 245, 250); fill-opacity: 1; white-space: pre;">0</text></g><g class="y2tick"><text text-anchor="end" x="451.35" y="4.199999999999999" transform="translate(0,311.41999999999996)" style="font-family: 'Open Sans', verdana, arial, sans-serif; font-size: 12px; fill: rgb(242, 245, 250); fill-opacity: 1; white-space: pre;">500</text></g><g class="y2tick"><text text-anchor="end" x="451.35" y="4.199999999999999" transform="translate(0,266.33000000000004)" style="font-family: 'Open Sans', verdana, arial, sans-serif; font-size: 12px; fill: rgb(242, 245, 250); fill-opacity: 1; white-space: pre;">1000</text></g><g class="y2tick"><text text-anchor="end" x="451.35" y="4.199999999999999" transform="translate(0,221.25)" style="font-family: 'Open Sans', verdana, arial, sans-serif; font-size: 12px; fill: rgb(242, 245, 250); fill-opacity: 1; white-space: pre;">1500</text></g><g class="y2tick"><text text-anchor="end" x="451.35" y="4.199999999999999" transform="translate(0,176.17000000000002)" style="font-family: 'Open Sans', verdana, arial, sans-serif; font-size: 12px; fill: rgb(242, 245, 250); fill-opacity: 1; white-space: pre;">2000</text></g><g class="y2tick"><text text-anchor="end" x="451.35" y="4.199999999999999" transform="translate(0,131.07999999999998)" style="font-family: 'Open Sans', verdana, arial, sans-serif; font-size: 12px; fill: rgb(242, 245, 250); fill-opacity: 1; white-space: pre;">2500</text></g></g><g class="overaxes-above"/></g></g><g class="polarlayer"/><g class="ternarylayer"/><g class="geolayer"/><g class="funnelarealayer"/><g class="pielayer"/><g class="treemaplayer"/><g class="sunburstlayer"/><g class="glimages"/><defs id="topdefs-a9653e"><g class="clips"/><clipPath id="legenda9653e"><rect width="117" height="124" x="0" y="0"/></clipPath></defs><g class="layer-above"><g class="imagelayer"/><g class="shapelayer"/></g><g class="infolayer"><g class="legend" pointer-events="all" transform="translate(770.54, 100)"><rect class="bg" shape-rendering="crispEdges" width="117" height="124" x="0" y="0" style="stroke: rgb(68, 68, 68); stroke-opacity: 1; fill: rgb(17, 17, 17); fill-opacity: 1; stroke-width: 0px;"/><g class="scrollbox" transform="translate(0, 0)" clip-path="url('#legenda9653e')"><g class="groups"><g class="traces" transform="translate(0, 14.5)" style="opacity: 1;"><text class="legendtext user-select-none" text-anchor="start" x="40" y="4.680000000000001" style="font-family: 'Open Sans', verdana, arial, sans-serif; font-size: 12px; fill: rgb(242, 245, 250); fill-opacity: 1; white-space: pre;">Alameda, CA</text><g class="layers" style="opacity: 1;"><g class="legendfill"/><g class="legendlines"><path class="js-line" d="M5,0h30" style="fill: none; stroke: rgb(230, 25, 75); stroke-opacity: 1; stroke-width: 2px;"/></g><g class="legendsymbols"><g class="legendpoints"/></g></g><rect class="legendtoggle" pointer-events="all" x="0" y="-9.5" width="111.828125" height="19" style="cursor: pointer; fill: rgb(0, 0, 0); fill-opacity: 0;"/></g><g class="traces" transform="translate(0, 33.5)" style="opacity: 1;"><text class="legendtext user-select-none" text-anchor="start" x="40" y="4.680000000000001" style="font-family: 'Open Sans', verdana, arial, sans-serif; font-size: 12px; fill: rgb(242, 245, 250); fill-opacity: 1; white-space: pre;">Travis, TX</text><g class="layers" style="opacity: 1;"><g class="legendfill"/><g class="legendlines"><path class="js-line" d="M5,0h30" style="fill: none; stroke: rgb(60, 180, 75); stroke-opacity: 1; stroke-width: 2px;"/></g><g class="legendsymbols"><g class="legendpoints"/></g></g><rect class="legendtoggle" pointer-events="all" x="0" y="-9.5" width="111.828125" height="19" style="cursor: pointer; fill: rgb(0, 0, 0); fill-opacity: 0;"/></g><g class="traces" transform="translate(0, 52.5)" style="opacity: 1;"><text class="legendtext user-select-none" text-anchor="start" x="40" y="4.680000000000001" style="font-family: 'Open Sans', verdana, arial, sans-serif; font-size: 12px; fill: rgb(242, 245, 250); fill-opacity: 1; white-space: pre;">Denton, TX</text><g class="layers" style="opacity: 1;"><g class="legendfill"/><g class="legendlines"><path class="js-line" d="M5,0h30" style="fill: none; stroke: rgb(255, 225, 25); stroke-opacity: 1; stroke-width: 2px;"/></g><g class="legendsymbols"><g class="legendpoints"/></g></g><rect class="legendtoggle" pointer-events="all" x="0" y="-9.5" width="111.828125" height="19" style="cursor: pointer; fill: rgb(0, 0, 0); fill-opacity: 0;"/></g><g class="traces" transform="translate(0, 71.5)" style="opacity: 1;"><text class="legendtext user-select-none" text-anchor="start" x="40" y="4.680000000000001" style="font-family: 'Open Sans', verdana, arial, sans-serif; font-size: 12px; fill: rgb(242, 245, 250); fill-opacity: 1; white-space: pre;">Fairfield, CT</text><g class="layers" style="opacity: 1;"><g class="legendfill"/><g class="legendlines"><path class="js-line" d="M5,0h30" style="fill: none; stroke: rgb(67, 99, 216); stroke-opacity: 1; stroke-width: 2px;"/></g><g class="legendsymbols"><g class="legendpoints"/></g></g><rect class="legendtoggle" pointer-events="all" x="0" y="-9.5" width="111.828125" height="19" style="cursor: pointer; fill: rgb(0, 0, 0); fill-opacity: 0;"/></g><g class="traces" transform="translate(0, 90.5)" style="opacity: 1;"><text class="legendtext user-select-none" text-anchor="start" x="40" y="4.680000000000001" style="font-family: 'Open Sans', verdana, arial, sans-serif; font-size: 12px; fill: rgb(242, 245, 250); fill-opacity: 1; white-space: pre;">Essex, NJ</text><g class="layers" style="opacity: 1;"><g class="legendfill"/><g class="legendlines"><path class="js-line" d="M5,0h30" style="fill: none; stroke: rgb(245, 130, 49); stroke-opacity: 1; stroke-width: 2px;"/></g><g class="legendsymbols"><g class="legendpoints"/></g></g><rect class="legendtoggle" pointer-events="all" x="0" y="-9.5" width="111.828125" height="19" style="cursor: pointer; fill: rgb(0, 0, 0); fill-opacity: 0;"/></g><g class="traces" transform="translate(0, 109.5)" style="opacity: 1;"><text class="legendtext user-select-none" text-anchor="start" x="40" y="4.680000000000001" style="font-family: 'Open Sans', verdana, arial, sans-serif; font-size: 12px; fill: rgb(242, 245, 250); fill-opacity: 1; white-space: pre;">Jefferson, KY</text><g class="layers" style="opacity: 1;"><g class="legendfill"/><g class="legendlines"><path class="js-line" d="M5,0h30" style="fill: none; stroke: rgb(145, 30, 180); stroke-opacity: 1; stroke-width: 2px;"/></g><g class="legendsymbols"><g class="legendpoints"/></g></g><rect class="legendtoggle" pointer-events="all" x="0" y="-9.5" width="111.828125" height="19" style="cursor: pointer; fill: rgb(0, 0, 0); fill-opacity: 0;"/></g></g></g><rect class="scrollbar" rx="20" ry="3" width="0" height="0" x="0" y="0" style="fill: rgb(128, 139, 164); fill-opacity: 1;"/></g><g class="g-gtitle"/><g class="g-xtitle"><text class="xtitle" x="232.32500000000002" y="410.8" text-anchor="middle" style="font-family: 'Open Sans', verdana, arial, sans-serif; font-size: 14px; fill: rgb(242, 245, 250); opacity: 1; font-weight: normal; white-space: pre;">Date</text></g><g class="g-x2title"><text class="x2title" x="604.675" y="410.8" text-anchor="middle" style="font-family: 'Open Sans', verdana, arial, sans-serif; font-size: 14px; fill: rgb(242, 245, 250); opacity: 1; font-weight: normal; white-space: pre;">Date</text></g><g class="g-ytitle"><text class="ytitle" transform="rotate(-90,34.840625,235)" x="34.840625" y="235" text-anchor="middle" style="font-family: 'Open Sans', verdana, arial, sans-serif; font-size: 14px; fill: rgb(242, 245, 250); opacity: 1; font-weight: normal; white-space: pre;">Cases</text></g><g class="g-y2title"><text class="y2title" transform="rotate(-90,399.840625,235)" x="399.840625" y="235" text-anchor="middle" style="font-family: 'Open Sans', verdana, arial, sans-serif; font-size: 14px; fill: rgb(242, 245, 250); opacity: 1; font-weight: normal; white-space: pre;">Deaths</text></g><g class="annotation" data-index="0" style="opacity: 1;"><g class="annotation-text-g" transform="rotate(0,232.32500000000002,89.5)"><g class="cursor-pointer" transform="translate(208, 79)"><rect class="bg" x="0.5" y="0.5" width="48" height="20" style="stroke-width: 1px; stroke: rgb(0, 0, 0); stroke-opacity: 0; fill: rgb(0, 0, 0); fill-opacity: 0;"/><text class="annotation-text" text-anchor="middle" x="24.6875" y="16" style="font-family: 'Open Sans', verdana, arial, sans-serif; font-size: 16px; fill: rgb(242, 245, 250); fill-opacity: 1; white-space: pre;">Cases</text></g></g></g><g class="annotation" data-index="1" style="opacity: 1;"><g class="annotation-text-g" transform="rotate(0,604.6750000000001,89.5)"><g class="cursor-pointer" transform="translate(577, 79)"><rect class="bg" x="0.5" y="0.5" width="54" height="20" style="stroke-width: 1px; stroke: rgb(0, 0, 0); stroke-opacity: 0; fill: rgb(0, 0, 0); fill-opacity: 0;"/><text class="annotation-text" text-anchor="middle" x="27.359375" y="16" style="font-family: 'Open Sans', verdana, arial, sans-serif; font-size: 16px; fill: rgb(242, 245, 250); fill-opacity: 1; white-space: pre;">Deaths</text></g></g></g></g></svg>