<svg class="main-svg" xmlns="http://www.w3.org/2000/svg" xmlns:xlink="http://www.w3.org/1999/xlink" width="900" height="450" style="" viewBox="0 0 900 450"><rect x="0" y="0" width="900" height="450" style="fill: rgb(17, 17, 17); fill-opacity: 1;"/><defs id="defs-2ca953"><g class="clips"><clipPath id="clip2ca953xyplot" class="plotclip"><rect width="293.40000000000003" height="270"/></clipPath><clipPath id="clip2ca953x2y2plot" class="plotclip"><rect width="293.4" height="270"/></clipPath><clipPath class="axesclip" id="clip2ca953x"><rect x="80" y="0" width="293.40000000000003" height="450"/></clipPath><clipPath class="axesclip" id="clip2ca953y"><rect x="0" y="100" width="900" height="270"/></clipPath><clipPath class="axesclip" id="clip2ca953xy"><rect x="80" y="100" width="293.40000000000003" height="270"/></clipPath><clipPath class="axesclip" id="clip2ca953y2"><rect x="0" y="100" width="900" height="270"/></clipPath><clipPath class="axesclip" id="clip2ca953xy2"><rect x="80" y="100" width="293.40000000000003" height="270"/></clipPath><clipPath class="axesclip" id="clip2ca953x2"><rect x="438.6" y="0" width="293.4" height="450"/></clipPath><clipPath class="axesclip" id="clip2ca953x2y"><rect x="438.6" y="100" width="293.4" height="270"/></clipPath><clipPath class="axesclip" id="clip2ca953x2y2"><rect x="438.6" y="100" width="293.4" height="270"/></clipPath></g><g class="gradients"/></defs><g class="bglayer"/><g class="layer-below"><g class="imagelayer"/><g class="shapelayer"/></g><g class="cartesianlayer"><g class="subplot xy"><g class="layer-subplot"><g class="shapelayer"/><g class="imagelayer"/></g><g class="gridlayer"><g class="x"><path class="xgrid crisp" transform="translate(131.09,0)" d="M0,100v270" style="stroke: rgb(40, 52, 66); stroke-opacity: 1; stroke-width: 1px;"/><path class="xgrid crisp" transform="translate(197.51,0)" d="M0,100v270" style="stroke: rgb(40, 52, 66); stroke-opacity: 1; stroke-width: 1px;"/><path class="xgrid crisp" transform="translate(264.65,0)" d="M0,100v270" style="stroke: rgb(40, 52, 66); stroke-opacity: 1; stroke-width: 1px;"/><path class="xgrid crisp" transform="translate(331.8,0)" d="M0,100v270" style="stroke: rgb(40, 52, 66); stroke-opacity: 1; stroke-width: 1px;"/></g><g class="y"><path class="ygrid crisp" transform="translate(0,312.11)" d="M80,0h293.40000000000003" style="stroke: rgb(40, 52, 66); stroke-opacity: 1; stroke-width: 1px;"/><path class="ygrid crisp" transform="translate(0,267.72)" d="M80,0h293.40000000000003" style="stroke: rgb(40, 52, 66); stroke-opacity: 1; stroke-width: 1px;"/><path class="ygrid crisp" transform="translate(0,223.32999999999998)" d="M80,0h293.40000000000003" style="stroke: rgb(40, 52, 66); stroke-opacity: 1; stroke-width: 1px;"/><path class="ygrid crisp" transform="translate(0,178.95)" d="M80,0h293.40000000000003" style="stroke: rgb(40, 52, 66); stroke-opacity: 1; stroke-width: 1px;"/><path class="ygrid crisp" transform="translate(0,134.56)" d="M80,0h293.40000000000003" style="stroke: rgb(40, 52, 66); stroke-opacity: 1; stroke-width: 1px;"/></g></g><g class="zerolinelayer"><path class="yzl zl crisp" transform="translate(0,356.5)" d="M80,0h293.40000000000003" style="stroke: rgb(40, 52, 66); stroke-opacity: 1; stroke-width: 2px;"/></g><path class="xlines-below"/><path class="ylines-below"/><g class="overlines-below"/><g class="xaxislayer-below"/><g class="yaxislayer-below"/><g class="overaxes-below"/><g class="plot" transform="translate(80, 100)" clip-path="url('#clip2ca953xyplot')"><g class="scatterlayer mlayer"><g class="trace scatter tracee72fb0" style="stroke-miterlimit: 2; opacity: 1;"><g class="fills"/><g class="errorbars"/><g class="lines"><path class="js-line" d="M0,256.5L50.36,255.81L51.09,255.7L82.47,251.54L83.2,251.4L99.26,248.06L99.99,247.9L114.59,244.31L115.32,243.92L119.7,241.95L120.43,241.29L122.61,240.42L123.34,240.06L126.26,238.8L126.99,238.03L140.86,230.92L141.59,230.21L145.24,229.57L145.97,227.21L146.7,227.16L147.43,226.17L149.62,224.19L150.35,224.19L151.81,222.92L152.54,222.24L155.46,219.45L156.19,219.38L156.92,219.36L157.65,218.16L162.03,216.14L162.76,215.56L165.68,214.04L166.41,214.04L169.33,212.76L170.06,212.51L174.43,211.75L175.16,211.3L181.73,209.47L182.46,209.36L209.47,202.72L210.2,202.41L211.66,201.76L212.39,201.35L219.69,197.34L220.41,196.74L222.6,195.5L223.33,195.2L226.98,191.88L227.71,191.08L229.9,189.18L230.63,187.74L232.09,186.06L232.82,184.27L233.55,184.09L234.28,181.63L237.93,176.19L238.66,171.68L240.85,167.14L241.58,167.09L243.77,158.84L244.5,157.17L248.88,146.05L249.61,144.63L251.8,140.04L252.53,137.72L254.72,132.44L255.45,131.25L256.91,127.95L257.64,125.17L264.94,105.72L265.67,104.62L268.59,100.96L269.31,99.31L278.8,87.45L279.53,86.71L289.02,80.06L289.75,79.73L293.4,78.09" style="vector-effect: non-scaling-stroke; fill: none; stroke: rgb(230, 25, 75); stroke-opacity: 1; stroke-width: 2px; opacity: 1;"/></g><g class="points"/><g class="text"/></g><g class="trace scatter tracea8eec5" style="stroke-miterlimit: 2; opacity: 1;"><g class="fills"/><g class="errorbars"/><g class="lines"><path class="js-line" d="M0,256.5L53.28,255.78L54.01,255.67L89.77,252L90.5,251.96L97.8,250.58L98.53,250.1L103.64,248.45L104.37,247.87L105.83,247.75L106.56,246.89L108.02,246.11L108.75,245.36L130.64,226.65L131.37,226.33L141.59,219.34L142.32,219.19L146.7,216.56L147.43,215.7L148.16,215.42L148.89,214.33L156.19,211.06L156.92,210.92L158.38,210.09L159.11,209.89L166.41,207.92L167.14,207.67L172.24,206.54L172.97,206.25L173.7,205.7L174.43,204.2L175.89,202.1L176.62,201.88L177.35,199.58L178.08,201.46L181,200.28L181.73,200.1L187.57,198.84L188.3,198.68L195.6,197.09L196.33,196.92L203.63,195.02L204.36,194.44L206.55,193.03L207.28,192.53L210.2,191.12L210.93,190.44L216.77,185.02L217.5,183.7L219.69,181.43L220.41,180.1L227.71,168.14L228.44,168.04L237.93,141.87L238.66,137.88L242.31,127.67L243.04,125.3L248.15,125.3L248.88,107L250.34,104.61L251.07,102.2L252.53,96.94L253.26,92.02L256.18,83.71L256.91,80.74L260.56,67.28L261.29,64.86L264.94,52.89L265.67,51.16L268.59,41.8L269.31,40.16L278.07,24.58L278.8,24.18L279.53,23.64L280.26,22.12L289.75,16.05L290.48,16.05L292.67,16.05L293.4,13.5" style="vector-effect: non-scaling-stroke; fill: none; stroke: rgb(60, 180, 75); stroke-opacity: 1; stroke-width: 2px; opacity: 1;"/></g><g class="points"/><g class="text"/></g><g class="trace scatter tracea20286" style="stroke-miterlimit: 2; opacity: 1;"><g class="fills"/><g class="errorbars"/><g class="lines"><path class="js-line" d="M0,256.5L64.96,255.77L65.69,255.73L81.74,254.59L82.47,254.48L108.02,251.23L108.75,251.05L114.59,250.19L115.32,250.16L131.37,248.79L132.1,248.65L147.43,246.65L148.16,246.57L213.85,239.28L214.58,239.08L233.55,234.18L234.28,233.83L247.42,229.15L248.15,228.98L262.75,221.5L263.48,220.26L266.4,218.21L267.13,217.86L270.04,216.03L270.77,215.55L281.72,208.85L282.45,208.34L285.37,206.47L286.1,206.25L293.4,204.37" style="vector-effect: non-scaling-stroke; fill: none; stroke: rgb(255, 225, 25); stroke-opacity: 1; stroke-width: 2px; opacity: 1;"/></g><g class="points"/><g class="text"/></g><g class="trace scatter trace0a886f" style="stroke-miterlimit: 2; opacity: 1;"><g class="fills"/><g class="errorbars"/><g class="lines"><path class="js-line" d="M0,256.5L40.14,255.89L40.87,255.19L51.82,240.08L52.55,237.74L55.47,232.06L56.2,230.97L60.58,223.48L61.31,219.62L64.96,215.51L65.69,215L75.17,205.68L75.9,205.33L81.74,202.46L82.47,202.07L84.66,200.73L85.39,200.54L92.69,198.02L93.42,197.73L103.64,195.57L104.37,195.4L123.34,192.07L124.07,191.89L195.6,179.41L196.33,179.11L210.93,173.43L211.66,172.96L224.79,160.44L225.52,159.41L236.47,143.36L237.2,141.84L251.07,117.65L251.8,116.02L260.56,95.92L261.29,94.15L264.94,84.63L265.67,83.02L270.77,70.22L271.5,68.17L275.15,59.82L275.88,58.97L278.07,56.32L278.8,52.55L289.02,33.6L289.75,32.38L292.67,28.64L293.4,25.5" style="vector-effect: non-scaling-stroke; fill: none; stroke: rgb(67, 99, 216); stroke-opacity: 1; stroke-width: 2px; opacity: 1;"/></g><g class="points"/><g class="text"/></g><g class="trace scatter tracef35c8a" style="stroke-miterlimit: 2; opacity: 1;"><g class="fills"/><g class="errorbars"/><g class="lines"><path class="js-line" d="M0,256.5L60.58,255.76L61.31,255.69L95.61,254.48L96.34,254.32L104.37,253.07L105.1,252.83L110.94,251.17L111.67,250.82L114.59,249.64L115.32,249.64L117.51,247.81L118.24,246.96L120.43,246.57L121.16,246.57L122.61,243.59L123.34,243.04L124.8,242.56L125.53,242.56L126.99,240.48L127.72,240.01L129.91,239.15L130.64,239.15L134.29,234.03L135.02,234.03L135.75,234.03L136.48,232.81L139.4,231.01L140.13,231.01L140.86,231.01L141.59,230.12L145.97,229.19L146.7,227.95L148.16,225.37L148.89,224.82L150.35,223.98L151.08,223.98L153.27,222.37L154,222.12L156.19,221.83L156.92,220.7L158.38,219.62L159.11,219.27L161.3,218.96L162.03,217.67L166.41,216.33L167.14,216.33L171.51,215.03L172.24,213.52L175.16,212.57L175.89,212.57L179.54,211.83L180.27,211.68L186.84,211.04L187.57,210.85L189.76,210.27L190.49,210.27L194.87,209.59L195.6,209.48L199.25,208.84L199.98,208.72L202.9,208.27L203.63,207.88L215.31,204.96L216.04,204.31L218.23,203.82L218.96,202.85L224.06,200.49L224.79,199.52L228.44,198.97L229.17,198.65L231.36,195.53L232.09,195.53L232.82,195.53L233.55,194.7L234.28,193.18L235.01,188.63L235.74,188.11L236.47,186.1L238.66,185.96L239.39,184.06L240.85,179.62L241.58,175.65L243.04,175.65L243.77,171.57L245.23,169L245.96,166.18L257.64,143.33L258.37,141.25L264.94,129.09L265.67,128.54L267.13,127.41L267.86,127.41L268.59,127.41L269.31,125.51L271.5,123.04L272.23,121.94L279.53,116.56L280.26,116.35L286.83,113.22L287.56,113.05L293.4,111.15" style="vector-effect: non-scaling-stroke; fill: none; stroke: rgb(245, 130, 49); stroke-opacity: 1; stroke-width: 2px; opacity: 1;"/></g><g class="points"/><g class="text"/></g><g class="trace scatter tracec42589" style="stroke-miterlimit: 2; opacity: 1;"><g class="fills"/><g class="errorbars"/><g class="lines"><path class="js-line" d="M0,256.5L57.66,255.75L58.39,255.64L63.5,254.95L64.23,254.85L71.53,253.11L72.26,252.85L89.04,246.72L89.77,246.58L92.69,245.05L93.42,244.8L99.99,242.72L100.72,242.57L121.89,239.55L122.61,239.49L129.91,238.41L130.64,238.41L143.78,236.16L144.51,235.77L153.27,234.23L154,234.08L164.95,231.9L165.68,231.81L172.97,230.39L173.7,230.29L185.38,228.45L186.11,228.39L201.44,225.54L202.17,225.46L206.55,224.29L207.28,224.2L223.33,218.85L224.06,218.42L226.98,216.32L227.71,216.11L235.01,211.93L235.74,211.46L243.04,206.36L243.77,206.04L253.26,197.78L253.99,197.32L262.75,189.87L263.48,186.86L265.67,184.41L266.4,184.17L274.42,177.91L275.15,177.55L278.07,175.68L278.8,175.31L280.99,173.97L281.72,173.44L292.67,169.61L293.4,169.47" style="vector-effect: non-scaling-stroke; fill: none; stroke: rgb(145, 30, 180); stroke-opacity: 1; stroke-width: 2px; opacity: 1;"/></g><g class="points"/><g class="text"/></g></g></g><g class="overplot"/><path class="xlines-above crisp" d="M0,0" style="fill: none;"/><path class="ylines-above crisp" d="M0,0" style="fill: none;"/><g class="overlines-above"/><g class="xaxislayer-above"><g class="xtick"><text text-anchor="middle" x="0" y="383" transform="translate(131.09,0)" style="font-family: 'Open Sans', verdana, arial, sans-serif; font-size: 12px; fill: rgb(242, 245, 250); fill-opacity: 1; white-space: pre;">Apr 2020</text></g><g class="xtick"><text text-anchor="middle" x="0" y="383" transform="translate(197.51,0)" style="font-family: 'Open Sans', verdana, arial, sans-serif; font-size: 12px; fill: rgb(242, 245, 250); fill-opacity: 1; white-space: pre;">Jul 2020</text></g><g class="xtick"><text text-anchor="middle" x="0" y="383" transform="translate(264.65,0)" style="font-family: 'Open Sans', verdana, arial, sans-serif; font-size: 12px; fill: rgb(242, 245, 250); fill-opacity: 1; white-space: pre;">Oct 2020</text></g><g class="xtick"><text text-anchor="middle" x="0" y="383" transform="translate(331.8,0)" style="font-family: 'Open Sans', verdana, arial, sans-serif; font-size: 12px; fill: rgb(242, 245, 250); fill-opacity: 1; white-space: pre;">Jan 2021</text></g></g><g class="yaxislayer-above"><g class="ytick"><text text-anchor="end" x="79" y="4.199999999999999" transform="translate(0,356.5)" style="font-family: 'Open Sans', verdana, arial, sans-serif; font-size: 12px; fill: rgb(242, 245, 250); fill-opacity: 1; white-space: pre;">0</text></g><g class="ytick"><text text-anchor="end" x="79" y="4.199999999999999" transform="translate(0,312.11)" style="font-family: 'Open Sans', verdana, arial, sans-serif; font-size: 12px; fill: rgb(242, 245, 250); fill-opacity: 1; white-space: pre;">20k</text></g><g class="ytick"><text text-anchor="end" x="79" y="4.199999999999999" transform="translate(0,267.72)" style="font-family: 'Open Sans', verdana, arial, sans-serif; font-size: 12px; fill: rgb(242, 245, 250); fill-opacity: 1; white-space: pre;">40k</text></g><g class="ytick"><text text-anchor="end" x="79" y="4.199999999999999" transform="translate(0,223.32999999999998)" style="font-family: 'Open Sans', verdana, arial, sans-serif; font-size: 12px; fill: rgb(242, 245, 250); fill-opacity: 1; white-space: pre;">60k</text></g><g class="ytick"><text text-anchor="end" x="79" y="4.199999999999999" transform="translate(0,178.95)" style="font-family: 'Open Sans', verdana, arial, sans-serif; font-size: 12px; fill: rgb(242, 245, 250); fill-opacity: 1; white-space: pre;">80k</text></g><g class="ytick"><text text-anchor="end" x="79" y="4.199999999999999" transform="translate(0,134.56)" style="font-family: 'Open Sans', verdana, arial, sans-serif; font-size: 12px; fill: rgb(242, 245, 250); fill-opacity: 1; white-space: pre;">100k</text></g></g><g class="overaxes-above"/></g><g class="subplot x2y2"><g class="layer-subplot"><g class="shapelayer"/><g class="imagelayer"/></g><g class="gridlayer"><g class="x2"><path class="x2grid crisp" transform="translate(489.69000000000005,0)" d="M0,100v270" style="stroke: rgb(40, 52, 66); stroke-opacity: 1; stroke-width: 1px;"/><path class="x2grid crisp" transform="translate(556.11,0)" d="M0,100v270" style="stroke: rgb(40, 52, 66); stroke-opacity: 1; stroke-width: 1px;"/><path class="x2grid crisp" transform="translate(623.25,0)" d="M0,100v270" style="stroke: rgb(40, 52, 66); stroke-opacity: 1; stroke-width: 1px;"/><path class="x2grid crisp" transform="translate(690.4000000000001,0)" d="M0,100v270" style="stroke: rgb(40, 52, 66); stroke-opacity: 1; stroke-width: 1px;"/></g><g class="y2"><path class="y2grid crisp" transform="translate(0,294)" d="M438.6,0h293.4" style="stroke: rgb(40, 52, 66); stroke-opacity: 1; stroke-width: 1px;"/><path class="y2grid crisp" transform="translate(0,231.5)" d="M438.6,0h293.4" style="stroke: rgb(40, 52, 66); stroke-opacity: 1; stroke-width: 1px;"/><path class="y2grid crisp" transform="translate(0,169)" d="M438.6,0h293.4" style="stroke: rgb(40, 52, 66); stroke-opacity: 1; stroke-width: 1px;"/><path class="y2grid crisp" transform="translate(0,106.5)" d="M438.6,0h293.4" style="stroke: rgb(40, 52, 66); stroke-opacity: 1; stroke-width: 1px;"/></g></g><g class="zerolinelayer"><path class="y2zl zl crisp" transform="translate(0,356.5)" d="M438.6,0h293.4" style="stroke: rgb(40, 52, 66); stroke-opacity: 1; stroke-width: 2px;"/></g><path class="xlines-below"/><path class="ylines-below"/><g class="overlines-below"/><g class="xaxislayer-below"/><g class="yaxislayer-below"/><g class="overaxes-below"/><g class="plot" transform="translate(438.6, 100)" clip-path="url('#clip2ca953x2y2plot')"><g class="scatterlayer mlayer"><g class="trace scatter trace7e749d" style="stroke-miterlimit: 2; opacity: 1;"><g class="fills"/><g class="errorbars"/><g class="lines"><path class="js-line" d="M0,256.5L54.01,255.75L54.74,255.69L74.44,252.56L75.17,252.56L81.01,251.88L81.74,251.75L87.58,250.88L88.31,250.88L94.15,250.56L94.88,250.5L102.91,249.75L103.64,249.69L111.67,249L112.4,248.88L115.32,248.19L116.05,248.19L125.53,247.25L126.26,247.25L130.64,246.38L131.37,246.38L135.02,245.38L135.75,245.38L141.59,244.69L142.32,244.5L147.43,243.69L148.16,243.25L153.27,242.25L154,242.06L162.76,240.44L163.49,239.38L164.95,238L165.68,237.81L169.33,237.56L170.06,236.5L171.51,235.75L172.24,235.69L173.7,234.25L174.43,233.69L181.73,231.13L182.46,231.13L188.3,229.81L189.03,229L199.25,229.31L199.98,228L210.2,227.44L210.93,227.06L219.69,225.63L220.41,225.56L223.33,225.31L224.06,225.31L232.09,224L232.82,224L235.01,223.63L235.74,223.19L240.12,221.31L240.85,220.63L242.31,219.94L243.04,219.81L244.5,219.75L245.23,218.44L248.15,217.44L248.88,217.44L251.07,217.44L251.8,215.5L255.45,215.5L256.18,212.94L256.91,212.94L257.64,210.94L259.83,210.5L260.56,209.31L266.4,208.63L267.13,203.88L268.59,203L269.31,200.63L270.77,199.88L271.5,198.44L272.96,196.56L273.69,195.63L276.61,194.06L277.34,192.69L279.53,191.44L280.26,191.44L283.18,188.5L283.91,186.5L287.56,186.13L288.29,183.31L289.02,183.31L289.75,181.5L291.21,181.5L291.94,180.38L293.4,178.94" style="vector-effect: non-scaling-stroke; fill: none; stroke: rgb(230, 25, 75); stroke-opacity: 1; stroke-width: 2px; opacity: 1;"/></g><g class="points"/><g class="text"/></g><g class="trace scatter trace618c8a" style="stroke-miterlimit: 2; opacity: 1;"><g class="fills"/><g class="errorbars"/><g class="lines"><path class="js-line" d="M0,256.5L53.28,255.75L54.01,255.63L57.66,254.88L58.39,254.69L62.04,254.19L62.77,253.31L67.88,251.88L68.61,251.75L72.99,251.44L73.71,250.94L75.9,250.94L76.63,249.25L81.01,248L81.74,247.5L83.93,246.69L84.66,246.69L86.85,246.06L87.58,245.69L95.61,244.94L96.34,244.56L99.99,243.69L100.72,243.69L103.64,242.63L104.37,242.56L108.02,241.81L108.75,241.5L112.4,240.56L113.13,239.88L116.78,239.44L117.51,239L121.16,238.88L121.89,237.63L124.07,236.94L124.8,236.13L126.99,235.38L127.72,234.81L130.64,232.63L131.37,232.63L135.02,230.44L135.75,230.38L136.48,230.38L137.21,229.56L137.94,229.56L138.67,228.38L140.13,227.63L140.86,227.63L143.05,227.19L143.78,226.5L147.43,225.19L148.16,224.94L151.81,223.31L152.54,223.13L154.73,223.25L155.46,222.06L158.38,221.31L159.11,221.06L161.3,220.5L162.03,220.5L163.49,220.63L164.22,219.63L169.33,219L170.06,219L182.46,217.63L183.19,217.63L185.38,217.31L186.11,217.31L205.82,216.56L206.55,216.44L213.85,215.19L214.58,214.69L224.79,214.06L225.52,213.88L228.44,213.31L229.17,213.06L230.63,212.94L231.36,211.38L232.82,210.88L233.55,210.88L234.28,210.88L235.01,209.88L237.93,206.5L238.66,206.5L243.04,199.94L243.77,199.94L248.15,199.94L248.88,195.06L251.07,190L251.8,188.88L253.99,188.75L254.72,185.44L255.45,185.13L256.18,182.19L258.37,177.56L259.1,177.56L261.29,171.38L262.02,169.44L263.48,167.63L264.21,167.63L264.94,167.63L265.67,163.06L268.59,155.81L269.31,155.81L272.23,148L272.96,147.88L274.42,147.75L275.15,144.31L278.07,137.63L278.8,137.5L279.53,137.5L280.26,134.13L283.91,126.81L284.64,126.81L286.1,126.38L286.83,124.06L288.29,122.38L289.02,122.19L289.75,122.19L290.48,120.25L291.94,118.88L292.67,118.25L293.4,118" style="vector-effect: non-scaling-stroke; fill: none; stroke: rgb(60, 180, 75); stroke-opacity: 1; stroke-width: 2px; opacity: 1;"/></g><g class="points"/><g class="text"/></g><g class="trace scatter tracecefdfd" style="stroke-miterlimit: 2; opacity: 1;"><g class="fills"/><g class="errorbars"/><g class="lines"><path class="js-line" d="M0,256.5L67.15,256.06L67.88,255.38L90.5,254.63L91.23,254.5L108.02,254L108.75,253.63L121.89,253L122.61,252.81L126.26,252.56L126.99,252.56L148.89,251.5L149.62,251.5L172.97,251.06L173.7,250.94L179.54,250.63L180.27,250.63L203.63,249.88L204.36,249.44L207.28,249L208.01,249L229.9,248.31L230.63,248.06L236.47,247.38L237.2,247.25L244.5,246.63L245.23,246.44L253.26,245.69L253.99,245.69L288.29,242.63L289.02,242.06L291.21,240.06L291.94,239.69L293.4,238.31" style="vector-effect: non-scaling-stroke; fill: none; stroke: rgb(255, 225, 25); stroke-opacity: 1; stroke-width: 2px; opacity: 1;"/></g><g class="points"/><g class="text"/></g><g class="trace scatter trace87c21b" style="stroke-miterlimit: 2; opacity: 1;"><g class="fills"/><g class="errorbars"/><g class="lines"><path class="js-line" d="M0,256.5L43.79,255.88L44.52,255.31L51.82,245.38L52.55,243.06L53.28,240L54.01,232.13L55.47,224.44L56.2,218.75L59.12,203.44L59.85,203.44L61.31,179.75L62.04,175.38L69.34,132.88L70.07,130.63L72.26,123.25L72.99,120.44L81.01,93.81L81.74,92.19L84.66,85.19L85.39,83.94L89.04,78.75L89.77,78.31L91.96,77.25L92.69,76.5L95.61,73.75L96.34,73.44L97.8,72.19L98.53,71.69L100.72,70.19L101.45,69.88L104.37,68.06L105.1,68.06L108.75,66.19L109.48,66.06L116.05,64.94L116.78,63.5L119.7,63.19L120.43,62.63L132.1,60.19L132.83,60.38L135.75,60.13L136.48,60.06L148.16,59.38L148.89,59.19L156.92,58.5L157.65,58.5L172.97,57.94L173.7,57.94L194.14,57.44L194.87,57.19L201.44,57L202.17,57L231.36,54.5L232.09,54.31L237.2,53.88L237.93,53.56L240.85,52.81L241.58,52.63L244.5,52.25L245.23,52.25L248.15,52.25L248.88,49.19L251.8,47.25L252.53,46.75L256.91,45.94L257.64,45.56L262.02,42.81L262.75,42.5L272.23,34.25L272.96,33.31L275.88,30.75L276.61,30L289.75,17.13L290.48,17.13L292.67,14.31L293.4,13.5" style="vector-effect: non-scaling-stroke; fill: none; stroke: rgb(67, 99, 216); stroke-opacity: 1; stroke-width: 2px; opacity: 1;"/></g><g class="points"/><g class="text"/></g><g class="trace scatter trace67a663" style="stroke-miterlimit: 2; opacity: 1;"><g class="fills"/><g class="errorbars"/><g class="lines"><path class="js-line" d="M0,256.5L54.74,255.81L55.47,255.69L73.71,254.94L74.44,254.94L89.04,254.44L89.77,254.44L110.21,253.69L110.94,253.5L121.89,252.88L122.61,252.69L124.8,252.25L125.53,252.25L132.83,250.38L133.56,249.81L136.48,249.13L137.21,248.19L140.13,246L140.86,246L143.05,244.81L143.78,244.5L145.24,243.31L145.97,243.31L149.62,240.19L150.35,240.19L151.81,239.69L152.54,239L154.73,238.13L155.46,238.13L159.11,237.5L159.84,237.31L161.3,237.31L162.03,236L163.49,235L164.22,233.94L165.68,233.5L166.41,233.5L167.87,232.94L168.6,232.63L172.97,232L173.7,231.56L175.89,230.63L176.62,230.63L178.08,230.19L178.81,229.38L183.92,228L184.65,227.38L187.57,227.06L188.3,227L210.93,225.63L211.66,225.63L227.71,225.13L228.44,224.69L232.82,223.88L233.55,223.38L239.39,222.94L240.12,222.19L242.31,221.44L243.04,221.44L243.77,221.44L244.5,219.75L245.96,218.81L246.69,217.88L251.07,217.25L251.8,215.81L253.99,215.81L254.72,214.81L256.18,213.81L256.91,213L258.37,212L259.1,212L261.29,210.5L262.02,210.38L263.48,209.75L264.21,209.75L264.94,209.75L265.67,207.38L266.4,207.25L267.13,206.13L269.31,206L270.04,204.31L272.23,203.38L272.96,203.19L274.42,203.19L275.15,202.13L277.34,201.63L278.07,200.69L279.53,200.69L280.26,198.81L281.72,197.56L282.45,196.19L283.91,194.5L284.64,194.5L285.37,194.5L286.1,192.88L289.75,192.38L290.48,191.56L291.21,191.38L291.94,190.19L293.4,187.69" style="vector-effect: non-scaling-stroke; fill: none; stroke: rgb(245, 130, 49); stroke-opacity: 1; stroke-width: 2px; opacity: 1;"/></g><g class="points"/><g class="text"/></g><g class="trace scatter trace139b6a" style="stroke-miterlimit: 2; opacity: 1;"><g class="fills"/><g class="errorbars"/><g class="lines"><path class="js-line" d="M0,256.5L62.04,255.81L62.77,255.69L77.36,254.06L78.09,253.63L81.01,252.88L81.74,252.44L89.77,251.25L90.5,250.63L102.18,249.13L102.91,249.13L114.59,247.81L115.32,247.81L122.61,247.06L123.34,246.75L137.94,246L138.67,245.94L156.92,245.06L157.65,245.06L172.97,244.44L173.7,244.25L184.65,243.56L185.38,243.38L191.95,243.19L192.68,243.19L196.33,242.94L197.06,242.94L208.74,242.56L209.47,242.56L233.55,241.81L234.28,241.75L269.31,238.69L270.04,238.31L276.61,236.44L277.34,236.25L288.29,235.63L289.02,234.94L293.4,231.63" style="vector-effect: non-scaling-stroke; fill: none; stroke: rgb(145, 30, 180); stroke-opacity: 1; stroke-width: 2px; opacity: 1;"/></g><g class="points"/><g class="text"/></g></g></g><g class="overplot"/><path class="xlines-above crisp" d="M0,0" style="fill: none;"/><path class="ylines-above crisp" d="M0,0" style="fill: none;"/><g class="overlines-above"/><g class="xaxislayer-above"><g class="x2tick"><text text-anchor="middle" x="0" y="383" transform="translate(489.69000000000005,0)" style="font-family: 'Open Sans', verdana, arial, sans-serif; font-size: 12px; fill: rgb(242, 245, 250); fill-opacity: 1; white-space: pre;">Apr 2020</text></g><g class="x2tick"><text text-anchor="middle" x="0" y="383" transform="translate(556.11,0)" style="font-family: 'Open Sans', verdana, arial, sans-serif; font-size: 12px; fill: rgb(242, 245, 250); fill-opacity: 1; white-space: pre;">Jul 2020</text></g><g class="x2tick"><text text-anchor="middle" x="0" y="383" transform="translate(623.25,0)" style="font-family: 'Open Sans', verdana, arial, sans-serif; font-size: 12px; fill: rgb(242, 245, 250); fill-opacity: 1; white-space: pre;">Oct 2020</text></g><g class="x2tick"><text text-anchor="middle" x="0" y="383" transform="translate(690.4000000000001,0)" style="font-family: 'Open Sans', verdana, arial, sans-serif; font-size: 12px; fill: rgb(242, 245, 250); fill-opacity: 1; white-space: pre;">Jan 2021</text></g></g><g class="yaxislayer-above"><g class="y2tick"><text text-anchor="end" x="437.6" y="4.199999999999999" transform="translate(0,356.5)" style="font-family: 'Open Sans', verdana, arial, sans-serif; font-size: 12px; fill: rgb(242, 245, 250); fill-opacity: 1; white-space: pre;">0</text></g><g class="y2tick"><text text-anchor="end" x="437.6" y="4.199999999999999" transform="translate(0,294)" style="font-family: 'Open Sans', verdana, arial, sans-serif; font-size: 12px; fill: rgb(242, 245, 250); fill-opacity: 1; white-space: pre;">1000</text></g><g class="y2tick"><text text-anchor="end" x="437.6" y="4.199999999999999" transform="translate(0,231.5)" style="font-family: 'Open Sans', verdana, arial, sans-serif; font-size: 12px; fill: rgb(242, 245, 250); fill-opacity: 1; white-space: pre;">2000</text></g><g class="y2tick"><text text-anchor="end" x="437.6" y="4.199999999999999" transform="translate(0,169)" style="font-family: 'Open Sans', verdana, arial, sans-serif; font-size: 12px; fill: rgb(242, 245, 250); fill-opacity: 1; white-space: pre;">3000</text></g><g class="y2tick"><text text-anchor="end" x="437.6" y="4.199999999999999" transform="translate(0,106.5)" style="font-family: 'Open Sans', verdana, arial, sans-serif; font-size: 12px; fill: rgb(242, 245, 250); fill-opacity: 1; white-space: pre;">4000</text></g></g><g class="overaxes-above"/></g></g><g class="polarlayer"/><g class="ternarylayer"/><g class="geolayer"/><g class="funnelarealayer"/><g class="pielayer"/><g class="treemaplayer"/><g class="sunburstlayer"/><g class="glimages"/><defs id="topdefs-2ca953"><g class="clips"/><clipPath id="legend2ca953"><rect width="143" height="124" x="0" y="0"/></clipPath></defs><g class="layer-above"><g class="imagelayer"/><g class="shapelayer"/></g><g class="infolayer"><g class="legend" pointer-events="all" transform="translate(745.04, 100)"><rect class="bg" shape-rendering="crispEdges" width="143" height="124" x="0" y="0" style="stroke: rgb(68, 68, 68); stroke-opacity: 1; fill: rgb(17, 17, 17); fill-opacity: 1; stroke-width: 0px;"/><g class="scrollbox" transform="translate(0, 0)" clip-path="url('#legend2ca953')"><g class="groups"><g class="traces" transform="translate(0, 14.5)" style="opacity: 1;"><text class="legendtext user-select-none" text-anchor="start" x="40" y="4.680000000000001" style="font-family: 'Open Sans', verdana, arial, sans-serif; font-size: 12px; fill: rgb(242, 245, 250); fill-opacity: 1; white-space: pre;">Alameda, CA</text><g class="layers" style="opacity: 1;"><g class="legendfill"/><g class="legendlines"><path class="js-line" d="M5,0h30" style="fill: none; stroke: rgb(230, 25, 75); stroke-opacity: 1; stroke-width: 2px;"/></g><g class="legendsymbols"><g class="legendpoints"/></g></g><rect class="legendtoggle" pointer-events="all" x="0" y="-9.5" width="137.796875" height="19" style="cursor: pointer; fill: rgb(0, 0, 0); fill-opacity: 0;"/></g><g class="traces" transform="translate(0, 33.5)" style="opacity: 1;"><text class="legendtext user-select-none" text-anchor="start" x="40" y="4.680000000000001" style="font-family: 'Open Sans', verdana, arial, sans-serif; font-size: 12px; fill: rgb(242, 245, 250); fill-opacity: 1; white-space: pre;">Pima, AZ</text><g class="layers" style="opacity: 1;"><g class="legendfill"/><g class="legendlines"><path class="js-line" d="M5,0h30" style="fill: none; stroke: rgb(60, 180, 75); stroke-opacity: 1; stroke-width: 2px;"/></g><g class="legendsymbols"><g class="legendpoints"/></g></g><rect class="legendtoggle" pointer-events="all" x="0" y="-9.5" width="137.796875" height="19" style="cursor: pointer; fill: rgb(0, 0, 0); fill-opacity: 0;"/></g><g class="traces" transform="translate(0, 52.5)" style="opacity: 1;"><text class="legendtext user-select-none" text-anchor="start" x="40" y="4.680000000000001" style="font-family: 'Open Sans', verdana, arial, sans-serif; font-size: 12px; fill: rgb(242, 245, 250); fill-opacity: 1; white-space: pre;">Chesterfield, VA</text><g class="layers" style="opacity: 1;"><g class="legendfill"/><g class="legendlines"><path class="js-line" d="M5,0h30" style="fill: none; stroke: rgb(255, 225, 25); stroke-opacity: 1; stroke-width: 2px;"/></g><g class="legendsymbols"><g class="legendpoints"/></g></g><rect class="legendtoggle" pointer-events="all" x="0" y="-9.5" width="137.796875" height="19" style="cursor: pointer; fill: rgb(0, 0, 0); fill-opacity: 0;"/></g><g class="traces" transform="translate(0, 71.5)" style="opacity: 1;"><text class="legendtext user-select-none" text-anchor="start" x="40" y="4.680000000000001" style="font-family: 'Open Sans', verdana, arial, sans-serif; font-size: 12px; fill: rgb(242, 245, 250); fill-opacity: 1; white-space: pre;">New York, NY</text><g class="layers" style="opacity: 1;"><g class="legendfill"/><g class="legendlines"><path class="js-line" d="M5,0h30" style="fill: none; stroke: rgb(67, 99, 216); stroke-opacity: 1; stroke-width: 2px;"/></g><g class="legendsymbols"><g class="legendpoints"/></g></g><rect class="legendtoggle" pointer-events="all" x="0" y="-9.5" width="137.796875" height="19" style="cursor: pointer; fill: rgb(0, 0, 0); fill-opacity: 0;"/></g><g class="traces" transform="translate(0, 90.5)" style="opacity: 1;"><text class="legendtext user-select-none" text-anchor="start" x="40" y="4.680000000000001" style="font-family: 'Open Sans', verdana, arial, sans-serif; font-size: 12px; fill: rgb(242, 245, 250); fill-opacity: 1; white-space: pre;">San Joaquin, CA</text><g class="layers" style="opacity: 1;"><g class="legendfill"/><g class="legendlines"><path class="js-line" d="M5,0h30" style="fill: none; stroke: rgb(245, 130, 49); stroke-opacity: 1; stroke-width: 2px;"/></g><g class="legendsymbols"><g class="legendpoints"/></g></g><rect class="legendtoggle" pointer-events="all" x="0" y="-9.5" width="137.796875" height="19" style="cursor: pointer; fill: rgb(0, 0, 0); fill-opacity: 0;"/></g><g class="traces" transform="translate(0, 109.5)" style="opacity: 1;"><text class="legendtext user-select-none" text-anchor="start" x="40" y="4.680000000000001" style="font-family: 'Open Sans', verdana, arial, sans-serif; font-size: 12px; fill: rgb(242, 245, 250); fill-opacity: 1; white-space: pre;">Prince William, VA</text><g class="layers" style="opacity: 1;"><g class="legendfill"/><g class="legendlines"><path class="js-line" d="M5,0h30" style="fill: none; stroke: rgb(145, 30, 180); stroke-opacity: 1; stroke-width: 2px;"/></g><g class="legendsymbols"><g class="legendpoints"/></g></g><rect class="legendtoggle" pointer-events="all" x="0" y="-9.5" width="137.796875" height="19" style="cursor: pointer; fill: rgb(0, 0, 0); fill-opacity: 0;"/></g></g></g><rect class="scrollbar" rx="20" ry="3" width="0" height="0" x="0" y="0" style="fill: rgb(128, 139, 164); fill-opacity: 1;"/></g><g class="g-gtitle"/><g class="g-xtitle"><text class="xtitle" x="226.70000000000002" y="410.8" text-anchor="middle" style="font-family: 'Open Sans', verdana, arial, sans-serif; font-size: 14px; fill: rgb(242, 245, 250); opacity: 1; font-weight: normal; white-space: pre;">Date</text></g><g class="g-x2title"><text class="x2title" x="585.3" y="410.8" text-anchor="middle" style="font-family: 'Open Sans', verdana, arial, sans-serif; font-size: 14px; fill: rgb(242, 245, 250); opacity: 1; font-weight: normal; white-space: pre;">Date</text></g><g class="g-ytitle"><text class="ytitle" transform="rotate(-90,28.168750000000003,235)" x="28.168750000000003" y="235" text-anchor="middle" style="font-family: 'Open Sans', verdana, arial, sans-serif; font-size: 14px; fill: rgb(242, 245, 250); opacity: 1; font-weight: normal; white-space: pre;">Cases</text></g><g class="g-y2title"><text class="y2title" transform="rotate(-90,386.090625,235)" x="386.090625" y="235" text-anchor="middle" style="font-family: 'Open Sans', verdana, arial, sans-serif; font-size: 14px; fill: rgb(242, 245, 250); opacity: 1; font-weight: normal; white-space: pre;">Deaths</text></g><g class="annotation" data-index="0" style="opacity: 1;"><g class="annotation-text-g" transform="rotate(0,226.70000000000002,89.5)"><g class="cursor-pointer" transform="translate(202, 79)"><rect class="bg" x="0.5" y="0.5" width="48" height="20" style="stroke-width: 1px; stroke: rgb(0, 0, 0); stroke-opacity: 0; fill: rgb(0, 0, 0); fill-opacity: 0;"/><text class="annotation-text" text-anchor="middle" x="24.6875" y="16" style="font-family: 'Open Sans', verdana, arial, sans-serif; font-size: 16px; fill: rgb(242, 245, 250); fill-opacity: 1; white-space: pre;">Cases</text></g></g></g><g class="annotation" data-index="1" style="opacity: 1;"><g class="annotation-text-g" transform="rotate(0,585.3,89.5)"><g class="cursor-pointer" transform="translate(558, 79)"><rect class="bg" x="0.5" y="0.5" width="54" height="20" style="stroke-width: 1px; stroke: rgb(0, 0, 0); stroke-opacity: 0; fill: rgb(0, 0, 0); fill-opacity: 0;"/><text class="annotation-text" text-anchor="middle" x="27.359375" y="16" style="font-family: 'Open Sans', verdana, arial, sans-serif; font-size: 16px; fill: rgb(242, 245, 250); fill-opacity: 1; white-space: pre;">Deaths</text></g></g></g></g></svg>