<svg class="main-svg" xmlns="http://www.w3.org/2000/svg" xmlns:xlink="http://www.w3.org/1999/xlink" width="900" height="450" style="" viewBox="0 0 900 450"><rect x="0" y="0" width="900" height="450" style="fill: rgb(17, 17, 17); fill-opacity: 1;"/><defs id="defs-919f98"><g class="clips"><clipPath id="clip919f98xyplot" class="plotclip"><rect width="304.2" height="270"/></clipPath><clipPath id="clip919f98x2y2plot" class="plotclip"><rect width="304.2" height="270"/></clipPath><clipPath class="axesclip" id="clip919f98x"><rect x="80" y="0" width="304.2" height="450"/></clipPath><clipPath class="axesclip" id="clip919f98y"><rect x="0" y="100" width="900" height="270"/></clipPath><clipPath class="axesclip" id="clip919f98xy"><rect x="80" y="100" width="304.2" height="270"/></clipPath><clipPath class="axesclip" id="clip919f98y2"><rect x="0" y="100" width="900" height="270"/></clipPath><clipPath class="axesclip" id="clip919f98xy2"><rect x="80" y="100" width="304.2" height="270"/></clipPath><clipPath class="axesclip" id="clip919f98x2"><rect x="451.8" y="0" width="304.2" height="450"/></clipPath><clipPath class="axesclip" id="clip919f98x2y"><rect x="451.8" y="100" width="304.2" height="270"/></clipPath><clipPath class="axesclip" id="clip919f98x2y2"><rect x="451.8" y="100" width="304.2" height="270"/></clipPath></g><g class="gradients"/></defs><g class="bglayer"/><g class="layer-below"><g class="imagelayer"/><g class="shapelayer"/></g><g class="cartesianlayer"><g class="subplot xy"><g class="layer-subplot"><g class="shapelayer"/><g class="imagelayer"/></g><g class="gridlayer"><g class="x"><path class="xgrid crisp" transform="translate(185.78,0)" d="M0,100v270" style="stroke: rgb(40, 52, 66); stroke-opacity: 1; stroke-width: 1px;"/><path class="xgrid crisp" transform="translate(306.66999999999996,0)" d="M0,100v270" style="stroke: rgb(40, 52, 66); stroke-opacity: 1; stroke-width: 1px;"/></g><g class="y"><path class="ygrid crisp" transform="translate(0,300.24)" d="M80,0h304.2" style="stroke: rgb(40, 52, 66); stroke-opacity: 1; stroke-width: 1px;"/><path class="ygrid crisp" transform="translate(0,243.99)" d="M80,0h304.2" style="stroke: rgb(40, 52, 66); stroke-opacity: 1; stroke-width: 1px;"/><path class="ygrid crisp" transform="translate(0,187.73000000000002)" d="M80,0h304.2" style="stroke: rgb(40, 52, 66); stroke-opacity: 1; stroke-width: 1px;"/><path class="ygrid crisp" transform="translate(0,131.47)" d="M80,0h304.2" style="stroke: rgb(40, 52, 66); stroke-opacity: 1; stroke-width: 1px;"/></g></g><g class="zerolinelayer"><path class="yzl zl crisp" transform="translate(0,356.5)" d="M80,0h304.2" style="stroke: rgb(40, 52, 66); stroke-opacity: 1; stroke-width: 2px;"/></g><path class="xlines-below"/><path class="ylines-below"/><g class="overlines-below"/><g class="xaxislayer-below"/><g class="yaxislayer-below"/><g class="overaxes-below"/><g class="plot" transform="translate(80, 100)" clip-path="url('#clip919f98xyplot')"><g class="scatterlayer mlayer"><g class="trace scatter trace381766" style="stroke-miterlimit: 2; opacity: 1;"><g class="fills"/><g class="errorbars"/><g class="lines"><path class="js-line" d="M0,256.5L43.36,255.78L44.02,255.74L50.59,254.6L51.25,254.49L84.76,247.25L85.41,246.96L101.84,241.36L102.5,241.05L103.81,240.55L104.47,240.29L109.07,237.13L109.72,237.13L111.69,235.45L112.35,234.77L113.66,234.06L114.32,233.09L120.23,228.74L120.89,227.77L124.18,226.2L124.83,225.19L125.49,225.19L126.15,224.2L126.8,224.08L127.46,223.18L130.75,222.36L131.4,219.37L132.06,219.32L132.72,218.07L134.69,215.55L135.35,215.55L136.66,213.94L137.32,213.08L139.95,209.55L140.6,209.46L141.26,209.43L141.92,207.91L145.86,205.34L146.52,204.62L149.14,202.69L149.8,202.69L152.43,201.06L153.09,200.75L157.03,199.79L157.68,199.22L162.28,197.35L162.94,197.35L165.57,196.35L166.23,196.14L176.74,193.33L177.4,192.83L192.51,185.87L193.16,185.48L197.11,182.07L197.76,181.52L201.05,178.8L201.7,178.14L205.65,173.05L206.3,172.49L210.25,164.73L210.9,161.61L214.19,154.72L214.85,149L216.82,143.25L217.47,143.19L219.44,132.72L220.1,130.61L224.04,116.52L224.7,114.72L226.67,108.9L227.33,105.96L229.96,97.77L230.61,95.94L236.53,72.5L237.18,69.21L239.16,64.01L239.81,63.02L247.04,48.41L247.7,47.3L250.32,43.52L250.98,42.25L256.24,35.86L256.89,35.28L259.52,33.39L260.18,32.89L264.78,29.88L265.44,28.01L272.01,25.17L272.66,24.93L283.18,22.36L283.83,22.36L285.8,21.7L286.46,21.42L288.43,20.36L289.09,20.2L300.91,14.78L301.57,14.55L304.2,13.5" style="vector-effect: non-scaling-stroke; fill: none; stroke: rgb(230, 25, 75); stroke-opacity: 1; stroke-width: 2px; opacity: 1;"/></g><g class="points"/><g class="text"/></g><g class="trace scatter tracef8bf63" style="stroke-miterlimit: 2; opacity: 1;"><g class="fills"/><g class="errorbars"/><g class="lines"><path class="js-line" d="M0,256.5L55.85,255.79L56.5,255.74L90.67,253.99L91.33,253.92L99.87,252.15L100.52,251.87L108.41,248.68L109.07,248.68L112.35,246.67L113.01,245.66L113.66,245.66L114.32,244.76L117.61,239.93L118.26,239.93L122.21,234.48L122.86,234.48L124.83,229.99L125.49,227.94L126.8,225.64L127.46,218.48L128.78,213.98L129.43,212.72L133.37,208.49L134.03,207.79L136,206.39L136.66,205.86L141.26,202.42L141.92,200.63L142.57,200.63L143.23,198.51L149.8,195.85L150.46,195.85L151.77,195.17L152.43,195.09L156.37,193.99L157.03,193.84L163.6,192.65L164.25,192.65L168.2,191.96L168.85,191.96L176.08,189.94L176.74,189.94L198.42,185.31L199.08,185.07L203.02,183.77L203.68,183.77L205.65,183.77L206.3,182.94L209.59,181.75L210.25,181.75L212.22,180.49L212.87,180.05L216.16,178.47L216.82,177.95L218.79,177.95L219.44,177.03L220.76,176.02L221.42,175.66L223.39,175.28L224.04,175.28L225.36,173.77L226.01,173.45L228.64,173.04L229.3,171.29L232.58,168.76L233.24,168.76L234.56,167.97L235.21,165.99L237.18,164.53L237.84,164.53L238.5,164.53L239.16,163.52L241.78,161.57L242.44,161.57L243.75,159.51L244.41,159.51L245.07,159.51L245.73,158.16L247.04,158.5L247.7,157.21L250.32,155.98L250.98,155.98L251.64,155.98L252.3,155.02L256.89,153.79L257.55,153.79L258.87,153.79L259.52,152.7L263.46,151.96L264.12,151.75L266.75,151.15L267.41,150.97L278.58,149.27L279.23,149.27L282.52,148.61L283.18,148.61L285.8,147.97L286.46,147.7L289.75,146.98L290.4,146.86L304.2,143.26" style="vector-effect: non-scaling-stroke; fill: none; stroke: rgb(60, 180, 75); stroke-opacity: 1; stroke-width: 2px; opacity: 1;"/></g><g class="points"/><g class="text"/></g><g class="trace scatter tracef32635" style="stroke-miterlimit: 2; opacity: 1;"><g class="fills"/><g class="errorbars"/><g class="lines"><path class="js-line" d="M0,256.5L120.89,255.77L121.55,255.74L132.06,254.84L132.72,254.78L136,254.53L136.66,254.46L149.8,252.93L150.46,252.9L159.66,252.07L160.31,251.97L168.2,251.14L168.85,251.09L183.31,248.81L183.97,248.6L189.22,247.16L189.88,246.71L197.11,242.44L197.76,241.86L206.3,236.55L206.96,236.1L212.22,233.27L212.87,232.92L233.9,224.08L234.56,223.87L241.78,221.91L242.44,221.77L259.52,219.03L260.18,218.96L283.83,216.13L284.49,215.95L291.06,213.69L291.72,213.5L303.54,210.26L304.2,210.13" style="vector-effect: non-scaling-stroke; fill: none; stroke: rgb(255, 225, 25); stroke-opacity: 1; stroke-width: 2px; opacity: 1;"/></g><g class="points"/><g class="text"/></g><g class="trace scatter tracedf5b4e" style="stroke-miterlimit: 2; opacity: 1;"><g class="fills"/><g class="errorbars"/><g class="lines"><path class="js-line" d="M0,256.5L66.36,255.77L67.02,255.71L75.56,254.33L76.21,254.19L91.33,251.92L91.98,251.85L119.58,248.65L120.23,248.49L141.26,244.16L141.92,244.09L156.37,241.13L157.03,240.94L173.45,235.76L174.11,235.45L176.08,234.8L176.74,234.14L179.37,233.56L180.02,232.83L180.68,232.44L181.34,233.56L182.65,231.07L183.31,230.73L189.22,225.27L189.88,223.98L192.51,219.03L193.16,216.1L193.82,216.1L194.48,214.83L196.45,208.74L197.11,207.63L197.76,207.63L198.42,206.27L206.96,191.25L207.62,190.28L213.53,182.34L214.19,181.75L218.79,178.22L219.44,177.81L224.7,175.57L225.36,175.25L227.99,174.06L228.64,173.43L238.5,169.31L239.16,169.13L267.41,162.58L268.06,162.47L282.52,157.72L283.18,157.51L289.09,153.97L289.75,153.53L296.97,147.77L297.63,147.48L300.26,145.88L300.91,145.41L304.2,143.81" style="vector-effect: non-scaling-stroke; fill: none; stroke: rgb(67, 99, 216); stroke-opacity: 1; stroke-width: 2px; opacity: 1;"/></g><g class="points"/><g class="text"/></g><g class="trace scatter trace70d88d" style="stroke-miterlimit: 2; opacity: 1;"><g class="fills"/><g class="errorbars"/><g class="lines"><path class="js-line" d="M0,256.5L67.67,255.78L68.33,255.74L78.84,255.35L79.5,255.34L105.78,254.27L106.44,254.15L122.21,251.77L122.86,251.67L128.78,250.58L129.43,250.47L145.2,249.03L145.86,248.97L154.4,248.42L155.06,248.41L171.48,247.49L172.14,247.37L181.99,246.63L182.65,246.51L203.02,242.91L203.68,242.53L210.25,240.77L210.9,240.6L220.1,237.75L220.76,237.54L226.01,235.66L226.67,235.66L228.64,234.54L229.3,234.33L233.9,232.31L234.56,232.08L247.04,229.09L247.7,228.93L262.81,226.62L263.46,226.57L285.8,223.86L286.46,223.68L304.2,220.8" style="vector-effect: non-scaling-stroke; fill: none; stroke: rgb(245, 130, 49); stroke-opacity: 1; stroke-width: 2px; opacity: 1;"/></g><g class="points"/><g class="text"/></g><g class="trace scatter trace6a875e" style="stroke-miterlimit: 2; opacity: 1;"><g class="fills"/><g class="errorbars"/><g class="lines"><path class="js-line" d="M0,256.5L43.36,255.88L44.02,255.67L49.93,253.59L50.59,253.16L55.85,250.58L56.5,250.33L70.3,245.34L70.96,245.26L78.19,244.27L78.84,244.15L95.92,243.09L96.58,243.05L130.75,241.79L131.4,241.75L178.05,239.15L178.71,239.08L189.88,237.34L190.54,237.12L195.13,235.39L195.79,234.99L201.05,232.84L201.7,232.49L210.25,228.63L210.9,228.23L216.82,224.93L217.47,224.74L224.04,221.95L224.7,214.76L243.1,202.33L243.75,202L254.92,196.34L255.58,196.2L260.18,194.36L260.84,194.14L266.75,191.4L267.41,191.13L272.66,188.5L273.32,188.15L277.26,187.25L277.92,187.25L279.89,187.25L280.55,183.96L281.2,183.96L281.86,182.99L284.49,182.99L285.15,181.34L287.12,180.47L287.77,180.47L288.43,180.47L289.09,179.16L296.32,175.76L296.97,175.48L301.57,173.99L302.23,174.48L304.2,173.92" style="vector-effect: non-scaling-stroke; fill: none; stroke: rgb(145, 30, 180); stroke-opacity: 1; stroke-width: 2px; opacity: 1;"/></g><g class="points"/><g class="text"/></g></g></g><g class="overplot"/><path class="xlines-above crisp" d="M0,0" style="fill: none;"/><path class="ylines-above crisp" d="M0,0" style="fill: none;"/><g class="overlines-above"/><g class="xaxislayer-above"><g class="xtick"><text text-anchor="middle" x="0" y="383" transform="translate(185.78,0)" style="font-family: 'Open Sans', verdana, arial, sans-serif; font-size: 12px; fill: rgb(242, 245, 250); fill-opacity: 1; white-space: pre;">Jul 2020</text></g><g class="xtick"><text text-anchor="middle" x="0" y="383" transform="translate(306.66999999999996,0)" style="font-family: 'Open Sans', verdana, arial, sans-serif; font-size: 12px; fill: rgb(242, 245, 250); fill-opacity: 1; white-space: pre;">Jan 2021</text></g></g><g class="yaxislayer-above"><g class="ytick"><text text-anchor="end" x="79" y="4.199999999999999" transform="translate(0,356.5)" style="font-family: 'Open Sans', verdana, arial, sans-serif; font-size: 12px; fill: rgb(242, 245, 250); fill-opacity: 1; white-space: pre;">0</text></g><g class="ytick"><text text-anchor="end" x="79" y="4.199999999999999" transform="translate(0,300.24)" style="font-family: 'Open Sans', verdana, arial, sans-serif; font-size: 12px; fill: rgb(242, 245, 250); fill-opacity: 1; white-space: pre;">20k</text></g><g class="ytick"><text text-anchor="end" x="79" y="4.199999999999999" transform="translate(0,243.99)" style="font-family: 'Open Sans', verdana, arial, sans-serif; font-size: 12px; fill: rgb(242, 245, 250); fill-opacity: 1; white-space: pre;">40k</text></g><g class="ytick"><text text-anchor="end" x="79" y="4.199999999999999" transform="translate(0,187.73000000000002)" style="font-family: 'Open Sans', verdana, arial, sans-serif; font-size: 12px; fill: rgb(242, 245, 250); fill-opacity: 1; white-space: pre;">60k</text></g><g class="ytick"><text text-anchor="end" x="79" y="4.199999999999999" transform="translate(0,131.47)" style="font-family: 'Open Sans', verdana, arial, sans-serif; font-size: 12px; fill: rgb(242, 245, 250); fill-opacity: 1; white-space: pre;">80k</text></g></g><g class="overaxes-above"/></g><g class="subplot x2y2"><g class="layer-subplot"><g class="shapelayer"/><g class="imagelayer"/></g><g class="gridlayer"><g class="x2"><path class="x2grid crisp" transform="translate(557.58,0)" d="M0,100v270" style="stroke: rgb(40, 52, 66); stroke-opacity: 1; stroke-width: 1px;"/><path class="x2grid crisp" transform="translate(678.47,0)" d="M0,100v270" style="stroke: rgb(40, 52, 66); stroke-opacity: 1; stroke-width: 1px;"/></g><g class="y2"><path class="y2grid crisp" transform="translate(0,274.02)" d="M451.8,0h304.2" style="stroke: rgb(40, 52, 66); stroke-opacity: 1; stroke-width: 1px;"/><path class="y2grid crisp" transform="translate(0,191.53)" d="M451.8,0h304.2" style="stroke: rgb(40, 52, 66); stroke-opacity: 1; stroke-width: 1px;"/><path class="y2grid crisp" transform="translate(0,109.05)" d="M451.8,0h304.2" style="stroke: rgb(40, 52, 66); stroke-opacity: 1; stroke-width: 1px;"/></g></g><g class="zerolinelayer"><path class="y2zl zl crisp" transform="translate(0,356.5)" d="M451.8,0h304.2" style="stroke: rgb(40, 52, 66); stroke-opacity: 1; stroke-width: 2px;"/></g><path class="xlines-below"/><path class="ylines-below"/><g class="overlines-below"/><g class="xaxislayer-below"/><g class="yaxislayer-below"/><g class="overaxes-below"/><g class="plot" transform="translate(451.8, 100)" clip-path="url('#clip919f98x2y2plot')"><g class="scatterlayer mlayer"><g class="trace scatter tracead380f" style="stroke-miterlimit: 2; opacity: 1;"><g class="fills"/><g class="errorbars"/><g class="lines"><path class="js-line" d="M0,256.5L42.71,255.84L43.36,255.51L54.53,252.71L55.19,250.56L57.16,249.74L57.82,249.57L60.45,248.91L61.1,248.58L62.42,247.92L63.07,247.92L66.36,246.11L67.02,246.11L69.64,245.45L70.3,244.95L73.59,243.96L74.24,243.47L76.21,242.81L76.87,242.81L79.5,241.65L80.16,241.32L85.41,240.66L86.07,240.66L93.95,238.52L94.61,238.02L96.58,237.36L97.24,237.2L101.18,236.37L101.84,235.38L107.09,233.4L107.75,233.4L110.38,233.07L111.04,232.41L115.64,231.09L116.29,229.94L118.92,228.95L119.58,228.29L122.21,227.14L122.86,227.14L124.83,226.48L125.49,226.48L126.8,225.32L127.46,225.32L129.43,224.66L130.09,224.66L130.75,224.66L131.4,222.68L132.72,222.68L133.37,221.53L135.35,220.37L136,220.04L137.32,219.55L137.97,218.89L139.95,218.06L140.6,217.9L141.26,217.9L141.92,216.91L144.54,215.75L145.2,213.94L146.52,214.1L147.17,211.3L148.49,207.67L149.14,207.17L152.43,206.51L153.09,203.71L153.74,203.71L154.4,201.73L155.06,201.57L155.71,197.77L156.37,197.77L157.03,196.29L159,194.8L159.66,194.8L160.97,191.34L161.63,191.01L162.94,189.85L163.6,189.52L164.91,189.19L165.57,188.53L167.54,186.22L168.2,186.39L169.51,186.06L170.17,183.91L172.14,183.75L172.8,184.57L173.45,184.57L174.11,185.4L174.77,183.58L175.42,185.07L176.74,183.58L177.4,185.07L179.37,184.74L180.02,181.27L181.34,180.61L181.99,180.45L189.22,179.79L189.88,178.8L191.19,178.3L191.85,178.3L192.51,178.3L193.16,176.82L195.79,175.66L196.45,175.66L199.08,174.18L199.73,174.18L203.02,173.69L203.68,173.19L204.99,172.04L205.65,172.04L208.28,170.72L208.93,170.72L210.25,170.72L210.9,169.89L211.56,169.73L212.22,168.57L216.16,163.62L216.82,161.81L217.47,161.81L218.13,159.99L220.1,159.5L220.76,156.03L222.07,154.38L222.73,154.38L224.04,153.39L224.7,153.39L226.01,153.39L226.67,148.28L229.96,148.28L230.61,141.52L231.27,141.52L231.93,136.24L233.9,135.08L234.56,131.95L237.84,131.62L238.5,130.46L239.81,130.13L240.47,117.6L241.78,115.29L242.44,109.02L243.1,108.69L243.75,107.04L246.38,95.82L247.04,94.83L247.7,94.5L248.35,93.02L249.01,91.7L249.67,88.07L251.64,84.77L252.3,84.77L254.27,80.97L254.92,77.01L256.24,71.73L256.89,71.57L258.87,70.74L259.52,63.32L260.18,63.32L260.84,58.54L262.15,58.54L262.81,55.57L263.46,54.58L264.12,51.77L264.78,51.77L265.44,74.21L268.06,68.27L268.72,67.94L270.03,68.1L270.69,66.62L272.01,64.48L272.66,64.48L273.98,63.82L274.63,63.98L276.61,60.35L277.26,60.68L277.92,62.17L278.58,60.68L279.89,60.19L280.55,58.7L282.52,56.72L283.18,56.56L286.46,55.9L287.12,55.73L289.09,55.4L289.75,54.58L290.4,54.58L291.06,53.26L292.37,52.43L293.03,52.27L294.34,52.1L295,50.78L297.63,50.78L298.29,50.78L300.26,49.79L300.91,49.3L304.2,48.64" style="vector-effect: non-scaling-stroke; fill: none; stroke: rgb(230, 25, 75); stroke-opacity: 1; stroke-width: 2px; opacity: 1;"/></g><g class="points"/><g class="text"/></g><g class="trace scatter trace071f87" style="stroke-miterlimit: 2; opacity: 1;"><g class="fills"/><g class="errorbars"/><g class="lines"><path class="js-line" d="M0,256.5L56.5,255.84L57.16,255.68L67.02,253.53L67.67,253.53L72.27,252.87L72.93,252.71L75.56,252.21L76.21,252.05L78.19,251.55L78.84,251.22L87.38,250.56L88.04,250.07L92.64,249.57L93.3,249.24L99.87,248.58L100.52,248.42L107.09,246.6L107.75,246.11L109.07,245.45L109.72,245.45L113.01,243.47L113.66,243.47L115.64,243.47L116.29,241.82L118.26,240.66L118.92,238.19L122.21,227.3L122.86,211.63L123.52,210.97L124.18,208L125.49,202.88L126.15,199.42L126.8,199.42L127.46,195.79L130.09,188.04L130.75,186.39L132.06,185.56L132.72,181.6L135.35,166.26L136,164.12L136.66,163.29L137.32,159.33L140.6,148.77L141.26,148.12L142.57,143L143.23,139.04L145.2,132.44L145.86,131.62L149.8,122.21L150.46,122.05L152.43,119.08L153.09,118.09L155.71,116.61L156.37,115.62L157.03,115.29L157.68,113.8L160.31,112.15L160.97,110.34L163.6,107.7L164.25,107.7L165.57,106.05L166.23,105.55L168.2,103.24L168.85,103.08L170.83,101.26L171.48,100.6L174.11,99.45L174.77,99.28L177.4,97.63L178.05,97.63L185.28,94.5L185.94,94.5L188.56,94.17L189.22,93.68L191.19,92.85L191.85,92.85L195.13,92.19L195.79,91.86L199.73,91.37L200.39,90.71L201.7,90.38L202.36,89.88L206.96,88.56L207.62,87.9L208.93,86.09L209.59,86.09L212.87,84.77L213.53,84.44L217.47,83.12L218.13,83.12L219.44,83.12L220.1,80.48L221.42,79.82L222.07,79.49L225.36,78.83L226.01,78L227.33,77.18L227.99,77.18L229.96,76.52L230.61,76.02L231.27,76.02L231.93,75.03L233.9,74.87L234.56,73.88L235.21,73.55L235.87,72.23L237.84,70.74L238.5,70.74L239.16,70.25L239.81,68.76L241.78,65.8L242.44,65.8L243.75,63.65L244.41,61.51L247.04,57.88L247.7,57.38L251.64,50.12L252.3,48.8L255.58,43.36L256.24,43.19L260.84,39.57L261.49,38.58L264.78,34.12L265.44,34.12L266.09,34.12L266.75,33.13L270.03,28.68L270.69,27.69L273.98,24.22L274.63,24.22L275.95,23.73L276.61,22.41L279.89,21.58L280.55,21.42L286.46,18.61L287.12,18.45L293.69,17.79L294.34,17.46L296.97,15.81L297.63,15.81L302.23,14.32L302.89,14.32L304.2,13.5" style="vector-effect: non-scaling-stroke; fill: none; stroke: rgb(60, 180, 75); stroke-opacity: 1; stroke-width: 2px; opacity: 1;"/></g><g class="points"/><g class="text"/></g><g class="trace scatter trace59674b" style="stroke-miterlimit: 2; opacity: 1;"><g class="fills"/><g class="errorbars"/><g class="lines"><path class="js-line" d="M0,256.5L84.1,255.84L84.76,255.68L145.86,255.02L146.52,254.85L157.03,254.36L157.68,254.03L159,253.53L159.66,253.53L162.28,252.87L162.94,252.71L166.23,251.72L166.88,251.72L168.2,251.06L168.85,251.06L170.83,250.23L171.48,249.57L177.4,248.75L178.05,248.75L182.65,247.26L183.31,247.26L188.56,246.6L189.22,246.27L197.76,244.46L198.42,243.63L200.39,242.31L201.05,242.31L204.33,240.66L204.99,240.66L208.93,238.19L209.59,237.36L221.42,230.93L222.07,230.43L223.39,229.94L224.04,229.45L229.96,226.15L230.61,224.83L232.58,223.18L233.24,223.18L234.56,223.01L235.21,222.35L236.53,221.69L237.18,221.69L241.13,220.54L241.78,220.54L249.01,219.05L249.67,219.05L252.95,218.72L253.61,218.06L258.87,217.4L259.52,217.07L280.55,216.41L281.2,216.25L285.15,216.25L285.8,209.48L291.06,208.99L291.72,208.66L294.34,208.16L295,208L296.97,207.67L297.63,207.67L304.2,205.69" style="vector-effect: non-scaling-stroke; fill: none; stroke: rgb(255, 225, 25); stroke-opacity: 1; stroke-width: 2px; opacity: 1;"/></g><g class="points"/><g class="text"/></g><g class="trace scatter traced0b4a4" style="stroke-miterlimit: 2; opacity: 1;"><g class="fills"/><g class="errorbars"/><g class="lines"><path class="js-line" d="M0,256.5L61.76,256.01L62.42,255.68L64.39,255.18L65.04,254.85L67.67,253.7L68.33,253.2L70.3,252.05L70.96,251.72L73.59,251.06L74.24,250.73L76.87,249.57L77.53,249.57L80.81,247.43L81.47,247.26L82.78,246.77L83.44,246.11L85.41,244.95L86.07,244.95L87.38,244.46L88.04,243.63L97.9,240.66L98.55,240.17L100.52,239.51L101.18,239.51L107.75,238.85L108.41,238.52L113.66,238.19L114.32,237.69L114.98,237.53L115.64,238.68L118.92,238.35L119.58,238.52L128.78,237.86L129.43,237.69L141.92,237.03L142.57,236.87L146.52,236.54L147.17,236.54L152.43,235.88L153.09,235.71L155.71,235.22L156.37,235.05L160.31,234.72L160.97,234.72L163.6,234.23L164.25,233.9L170.17,233.24L170.83,233.07L177.4,232.74L178.05,232.08L182.65,231.59L183.31,231.26L187.25,229.94L187.91,229.94L189.22,229.28L189.88,228.62L191.85,227.3L192.51,227.14L193.82,225.98L194.48,225.65L198.42,223.01L199.08,222.19L200.39,221.36L201.05,221.36L204.99,218.89L205.65,218.89L206.96,218.23L207.62,217.57L213.53,214.43L214.19,213.28L216.16,212.29L216.82,211.63L218.79,208.49L219.44,207.83L220.1,207.83L220.76,206.68L223.39,204.2L224.04,204.2L226.01,203.21L226.67,203.21L229.3,201.24L229.96,200.91L239.81,196.12L240.47,196.12L242.44,195.79L243.1,195.79L249.67,194.8L250.32,194.8L257.55,193.81L258.21,193.81L260.84,193.32L261.49,193.32L266.09,192.99L266.75,192.49L272.66,190.18L273.32,190.18L284.49,189.52L285.15,189.36L290.4,188.7L291.06,188.53L295.66,188.04L296.32,188.04L298.94,187.38L299.6,187.21L302.89,186.55L303.54,186.06L304.2,186.06" style="vector-effect: non-scaling-stroke; fill: none; stroke: rgb(67, 99, 216); stroke-opacity: 1; stroke-width: 2px; opacity: 1;"/></g><g class="points"/><g class="text"/></g><g class="trace scatter trace904179" style="stroke-miterlimit: 2; opacity: 1;"><g class="fills"/><g class="errorbars"/><g class="lines"><path class="js-line" d="M0,256.5L51.25,255.84L51.9,255.68L57.82,255.02L58.47,254.69L63.73,254.03L64.39,253.53L70.3,251.39L70.96,251.06L73.59,250.4L74.24,250.23L77.53,249.24L78.19,248.09L88.04,245.28L88.7,244.62L108.41,243.96L109.07,243.8L117.61,243.14L118.26,242.97L125.49,242.31L126.15,241.82L132.06,241.49L132.72,240.99L136,240L136.66,239.84L139.95,238.85L140.6,238.85L145.86,238.35L146.52,238.02L156.37,235.38L157.03,234.89L164.25,234.23L164.91,234.06L170.17,233.4L170.83,233.07L171.48,232.91L172.14,231.92L176.74,231.26L177.4,231.09L185.28,230.6L185.94,230.27L187.91,229.94L188.56,229.94L194.48,227.8L195.13,227.8L197.76,227.47L198.42,226.97L201.7,226.31L202.36,225.82L203.02,225.82L203.68,224.83L210.9,223.01L211.56,222.35L214.19,222.02L214.85,221.53L218.13,221.36L218.79,220.7L222.07,220.7L222.73,218.89L225.36,218.39L226.01,218.39L226.67,218.39L227.33,217.57L235.21,214.1L235.87,214.1L237.18,213.11L237.84,211.96L241.13,211.63L241.78,209.65L243.1,208.66L243.75,208.66L245.73,208.33L246.38,207.17L247.7,206.51L248.35,206.35L250.32,206.02L250.98,205.36L252.3,204.86L252.95,204.86L254.27,203.21L254.92,203.21L256.24,201.57L256.89,201.24L259.52,199.09L260.18,198.27L263.46,197.28L264.12,197.28L266.09,195.13L266.75,195.13L270.69,194.47L271.35,193.98L275.95,192.49L276.61,192.49L287.77,191.83L288.43,191.67L291.72,191.17L292.37,190.68L295.66,190.18L296.32,189.85L299.6,189.52L300.26,189.03L302.89,188.37L303.54,188.2L304.2,187.87" style="vector-effect: non-scaling-stroke; fill: none; stroke: rgb(245, 130, 49); stroke-opacity: 1; stroke-width: 2px; opacity: 1;"/></g><g class="points"/><g class="text"/></g><g class="trace scatter trace9aa1ba" style="stroke-miterlimit: 2; opacity: 1;"><g class="fills"/><g class="errorbars"/><g class="lines"><path class="js-line" d="M0,256.5L42.05,256.01L42.71,255.51L44.68,255.18L45.33,255.18L47.31,252.71L47.96,252.54L49.28,251.39L49.93,249.9L51.25,246.77L51.9,245.12L53.22,243.47L53.88,243.47L59.13,227.47L59.79,227.47L60.45,227.47L61.1,223.84L62.42,219.71L63.07,219.05L66.36,208.82L67.02,207.83L68.33,206.02L68.99,204.53L71.62,201.57L72.27,201.24L74.24,199.09L74.9,197.28L75.56,196.62L76.21,194.64L76.87,194.64L77.53,193.48L79.5,191.83L80.16,191.01L82.13,190.68L82.78,189.19L88.7,186.55L89.35,186.39L97.9,184.24L98.55,184.24L100.52,183.75L101.18,183.42L102.5,183.42L103.15,170.06L105.12,169.4L105.78,169.4L107.75,169.23L108.41,169.07L110.38,167.91L111.04,166.76L112.35,165.6L113.01,165.6L120.89,165.27L121.55,164.94L123.52,164.45L124.18,165.27L128.12,164.94L128.78,163.95L131.4,163.95L132.06,163.95L137.32,163.13L137.97,163.29L157.03,162.8L157.68,162.63L164.91,161.97L165.57,161.31L170.83,160.65L171.48,160.49L174.11,159.83L174.77,159.66L180.68,158.84L181.34,158.84L187.91,158.34L188.56,158.01L193.16,157.52L193.82,157.52L200.39,156.36L201.05,156.36L204.99,156.03L205.65,156.03L210.9,154.55L211.56,153.56L214.19,152.9L214.85,152.9L216.82,150.92L217.47,150.75L220.1,149.76L220.76,148.94L224.04,147.95L224.7,147.79L227.33,146.47L227.99,146.3L229.3,145.48L229.96,143.83L231.93,142.18L232.58,142.18L233.24,142.18L233.9,140.36L237.18,139.37L237.84,139.37L242.44,137.06L243.1,135.91L244.41,134.42L245.07,133.93L249.01,132.77L249.67,131.95L254.27,130.3L254.92,129.64L256.89,129.14L257.55,128.65L269.38,126.34L270.03,126.34L272.01,125.68L272.66,125.18L274.63,124.85L275.29,124.85L279.23,124.36L279.89,124.03L288.43,123.37L289.09,123.04L294.34,122.38L295,122.38L296.97,122.05L297.63,122.05L300.91,121.55L301.57,121.23L303.54,120.57L304.2,120.4" style="vector-effect: non-scaling-stroke; fill: none; stroke: rgb(145, 30, 180); stroke-opacity: 1; stroke-width: 2px; opacity: 1;"/></g><g class="points"/><g class="text"/></g></g></g><g class="overplot"/><path class="xlines-above crisp" d="M0,0" style="fill: none;"/><path class="ylines-above crisp" d="M0,0" style="fill: none;"/><g class="overlines-above"/><g class="xaxislayer-above"><g class="x2tick"><text text-anchor="middle" x="0" y="383" transform="translate(557.58,0)" style="font-family: 'Open Sans', verdana, arial, sans-serif; font-size: 12px; fill: rgb(242, 245, 250); fill-opacity: 1; white-space: pre;">Jul 2020</text></g><g class="x2tick"><text text-anchor="middle" x="0" y="383" transform="translate(678.47,0)" style="font-family: 'Open Sans', verdana, arial, sans-serif; font-size: 12px; fill: rgb(242, 245, 250); fill-opacity: 1; white-space: pre;">Jan 2021</text></g></g><g class="yaxislayer-above"><g class="y2tick"><text text-anchor="end" x="450.8" y="4.199999999999999" transform="translate(0,356.5)" style="font-family: 'Open Sans', verdana, arial, sans-serif; font-size: 12px; fill: rgb(242, 245, 250); fill-opacity: 1; white-space: pre;">0</text></g><g class="y2tick"><text text-anchor="end" x="450.8" y="4.199999999999999" transform="translate(0,274.02)" style="font-family: 'Open Sans', verdana, arial, sans-serif; font-size: 12px; fill: rgb(242, 245, 250); fill-opacity: 1; white-space: pre;">500</text></g><g class="y2tick"><text text-anchor="end" x="450.8" y="4.199999999999999" transform="translate(0,191.53)" style="font-family: 'Open Sans', verdana, arial, sans-serif; font-size: 12px; fill: rgb(242, 245, 250); fill-opacity: 1; white-space: pre;">1000</text></g><g class="y2tick"><text text-anchor="end" x="450.8" y="4.199999999999999" transform="translate(0,109.05)" style="font-family: 'Open Sans', verdana, arial, sans-serif; font-size: 12px; fill: rgb(242, 245, 250); fill-opacity: 1; white-space: pre;">1500</text></g></g><g class="overaxes-above"/></g></g><g class="polarlayer"/><g class="ternarylayer"/><g class="geolayer"/><g class="funnelarealayer"/><g class="pielayer"/><g class="treemaplayer"/><g class="sunburstlayer"/><g class="glimages"/><defs id="topdefs-919f98"><g class="clips"/><clipPath id="legend919f98"><rect width="118" height="124" x="0" y="0"/></clipPath></defs><g class="layer-above"><g class="imagelayer"/><g class="shapelayer"/></g><g class="infolayer"><g class="legend" pointer-events="all" transform="translate(769.52, 100)"><rect class="bg" shape-rendering="crispEdges" width="118" height="124" x="0" y="0" style="stroke: rgb(68, 68, 68); stroke-opacity: 1; fill: rgb(17, 17, 17); fill-opacity: 1; stroke-width: 0px;"/><g class="scrollbox" transform="translate(0, 0)" clip-path="url('#legend919f98')"><g class="groups"><g class="traces" transform="translate(0, 14.5)" style="opacity: 1;"><text class="legendtext user-select-none" text-anchor="start" x="40" y="4.680000000000001" style="font-family: 'Open Sans', verdana, arial, sans-serif; font-size: 12px; fill: rgb(242, 245, 250); fill-opacity: 1; white-space: pre;">Alameda, CA</text><g class="layers" style="opacity: 1;"><g class="legendfill"/><g class="legendlines"><path class="js-line" d="M5,0h30" style="fill: none; stroke: rgb(230, 25, 75); stroke-opacity: 1; stroke-width: 2px;"/></g><g class="legendsymbols"><g class="legendpoints"/></g></g><rect class="legendtoggle" pointer-events="all" x="0" y="-9.5" width="112.6875" height="19" style="cursor: pointer; fill: rgb(0, 0, 0); fill-opacity: 0;"/></g><g class="traces" transform="translate(0, 33.5)" style="opacity: 1;"><text class="legendtext user-select-none" text-anchor="start" x="40" y="4.680000000000001" style="font-family: 'Open Sans', verdana, arial, sans-serif; font-size: 12px; fill: rgb(242, 245, 250); fill-opacity: 1; white-space: pre;">Cameron, TX</text><g class="layers" style="opacity: 1;"><g class="legendfill"/><g class="legendlines"><path class="js-line" d="M5,0h30" style="fill: none; stroke: rgb(60, 180, 75); stroke-opacity: 1; stroke-width: 2px;"/></g><g class="legendsymbols"><g class="legendpoints"/></g></g><rect class="legendtoggle" pointer-events="all" x="0" y="-9.5" width="112.6875" height="19" style="cursor: pointer; fill: rgb(0, 0, 0); fill-opacity: 0;"/></g><g class="traces" transform="translate(0, 52.5)" style="opacity: 1;"><text class="legendtext user-select-none" text-anchor="start" x="40" y="4.680000000000001" style="font-family: 'Open Sans', verdana, arial, sans-serif; font-size: 12px; fill: rgb(242, 245, 250); fill-opacity: 1; white-space: pre;">Tazewell, IL</text><g class="layers" style="opacity: 1;"><g class="legendfill"/><g class="legendlines"><path class="js-line" d="M5,0h30" style="fill: none; stroke: rgb(255, 225, 25); stroke-opacity: 1; stroke-width: 2px;"/></g><g class="legendsymbols"><g class="legendpoints"/></g></g><rect class="legendtoggle" pointer-events="all" x="0" y="-9.5" width="112.6875" height="19" style="cursor: pointer; fill: rgb(0, 0, 0); fill-opacity: 0;"/></g><g class="traces" transform="translate(0, 71.5)" style="opacity: 1;"><text class="legendtext user-select-none" text-anchor="start" x="40" y="4.680000000000001" style="font-family: 'Open Sans', verdana, arial, sans-serif; font-size: 12px; fill: rgb(242, 245, 250); fill-opacity: 1; white-space: pre;">Anoka, MN</text><g class="layers" style="opacity: 1;"><g class="legendfill"/><g class="legendlines"><path class="js-line" d="M5,0h30" style="fill: none; stroke: rgb(67, 99, 216); stroke-opacity: 1; stroke-width: 2px;"/></g><g class="legendsymbols"><g class="legendpoints"/></g></g><rect class="legendtoggle" pointer-events="all" x="0" y="-9.5" width="112.6875" height="19" style="cursor: pointer; fill: rgb(0, 0, 0); fill-opacity: 0;"/></g><g class="traces" transform="translate(0, 90.5)" style="opacity: 1;"><text class="legendtext user-select-none" text-anchor="start" x="40" y="4.680000000000001" style="font-family: 'Open Sans', verdana, arial, sans-serif; font-size: 12px; fill: rgb(242, 245, 250); fill-opacity: 1; white-space: pre;">Charlotte, FL</text><g class="layers" style="opacity: 1;"><g class="legendfill"/><g class="legendlines"><path class="js-line" d="M5,0h30" style="fill: none; stroke: rgb(245, 130, 49); stroke-opacity: 1; stroke-width: 2px;"/></g><g class="legendsymbols"><g class="legendpoints"/></g></g><rect class="legendtoggle" pointer-events="all" x="0" y="-9.5" width="112.6875" height="19" style="cursor: pointer; fill: rgb(0, 0, 0); fill-opacity: 0;"/></g><g class="traces" transform="translate(0, 109.5)" style="opacity: 1;"><text class="legendtext user-select-none" text-anchor="start" x="40" y="4.680000000000001" style="font-family: 'Open Sans', verdana, arial, sans-serif; font-size: 12px; fill: rgb(242, 245, 250); fill-opacity: 1; white-space: pre;">Somerset, NJ</text><g class="layers" style="opacity: 1;"><g class="legendfill"/><g class="legendlines"><path class="js-line" d="M5,0h30" style="fill: none; stroke: rgb(145, 30, 180); stroke-opacity: 1; stroke-width: 2px;"/></g><g class="legendsymbols"><g class="legendpoints"/></g></g><rect class="legendtoggle" pointer-events="all" x="0" y="-9.5" width="112.6875" height="19" style="cursor: pointer; fill: rgb(0, 0, 0); fill-opacity: 0;"/></g></g></g><rect class="scrollbar" rx="20" ry="3" width="0" height="0" x="0" y="0" style="fill: rgb(128, 139, 164); fill-opacity: 1;"/></g><g class="g-gtitle"/><g class="g-xtitle"><text class="xtitle" x="232.1" y="410.8" text-anchor="middle" style="font-family: 'Open Sans', verdana, arial, sans-serif; font-size: 14px; fill: rgb(242, 245, 250); opacity: 1; font-weight: normal; white-space: pre;">Date</text></g><g class="g-x2title"><text class="x2title" x="603.9" y="410.8" text-anchor="middle" style="font-family: 'Open Sans', verdana, arial, sans-serif; font-size: 14px; fill: rgb(242, 245, 250); opacity: 1; font-weight: normal; white-space: pre;">Date</text></g><g class="g-ytitle"><text class="ytitle" transform="rotate(-90,34.840625,235)" x="34.840625" y="235" text-anchor="middle" style="font-family: 'Open Sans', verdana, arial, sans-serif; font-size: 14px; fill: rgb(242, 245, 250); opacity: 1; font-weight: normal; white-space: pre;">Cases</text></g><g class="g-y2title"><text class="y2title" transform="rotate(-90,399.29375,235)" x="399.29375" y="235" text-anchor="middle" style="font-family: 'Open Sans', verdana, arial, sans-serif; font-size: 14px; fill: rgb(242, 245, 250); opacity: 1; font-weight: normal; white-space: pre;">Deaths</text></g><g class="annotation" data-index="0" style="opacity: 1;"><g class="annotation-text-g" transform="rotate(0,232.1,89.5)"><g class="cursor-pointer" transform="translate(208, 79)"><rect class="bg" x="0.5" y="0.5" width="48" height="20" style="stroke-width: 1px; stroke: rgb(0, 0, 0); stroke-opacity: 0; fill: rgb(0, 0, 0); fill-opacity: 0;"/><text class="annotation-text" text-anchor="middle" x="24.6875" y="16" style="font-family: 'Open Sans', verdana, arial, sans-serif; font-size: 16px; fill: rgb(242, 245, 250); fill-opacity: 1; white-space: pre;">Cases</text></g></g></g><g class="annotation" data-index="1" style="opacity: 1;"><g class="annotation-text-g" transform="rotate(0,603.9,89.5)"><g class="cursor-pointer" transform="translate(576, 79)"><rect class="bg" x="0.5" y="0.5" width="54" height="20" style="stroke-width: 1px; stroke: rgb(0, 0, 0); stroke-opacity: 0; fill: rgb(0, 0, 0); fill-opacity: 0;"/><text class="annotation-text" text-anchor="middle" x="27.359375" y="16" style="font-family: 'Open Sans', verdana, arial, sans-serif; font-size: 16px; fill: rgb(242, 245, 250); fill-opacity: 1; white-space: pre;">Deaths</text></g></g></g></g></svg>