<svg class="main-svg" xmlns="http://www.w3.org/2000/svg" xmlns:xlink="http://www.w3.org/1999/xlink" width="900" height="450" style="" viewBox="0 0 900 450"><rect x="0" y="0" width="900" height="450" style="fill: rgb(17, 17, 17); fill-opacity: 1;"/><defs id="defs-4b3d49"><g class="clips"><clipPath id="clip4b3d49xyplot" class="plotclip"><rect width="305.1" height="270"/></clipPath><clipPath id="clip4b3d49x2y2plot" class="plotclip"><rect width="305.09999999999997" height="270"/></clipPath><clipPath class="axesclip" id="clip4b3d49x"><rect x="80" y="0" width="305.1" height="450"/></clipPath><clipPath class="axesclip" id="clip4b3d49y"><rect x="0" y="100" width="900" height="270"/></clipPath><clipPath class="axesclip" id="clip4b3d49xy"><rect x="80" y="100" width="305.1" height="270"/></clipPath><clipPath class="axesclip" id="clip4b3d49y2"><rect x="0" y="100" width="900" height="270"/></clipPath><clipPath class="axesclip" id="clip4b3d49xy2"><rect x="80" y="100" width="305.1" height="270"/></clipPath><clipPath class="axesclip" id="clip4b3d49x2"><rect x="452.90000000000003" y="0" width="305.09999999999997" height="450"/></clipPath><clipPath class="axesclip" id="clip4b3d49x2y"><rect x="452.90000000000003" y="100" width="305.09999999999997" height="270"/></clipPath><clipPath class="axesclip" id="clip4b3d49x2y2"><rect x="452.90000000000003" y="100" width="305.09999999999997" height="270"/></clipPath></g><g class="gradients"/></defs><g class="bglayer"/><g class="layer-below"><g class="imagelayer"/><g class="shapelayer"/></g><g class="cartesianlayer"><g class="subplot xy"><g class="layer-subplot"><g class="shapelayer"/><g class="imagelayer"/></g><g class="gridlayer"><g class="x"><path class="xgrid crisp" transform="translate(123.59,0)" d="M0,100v270" style="stroke: rgb(40, 52, 66); stroke-opacity: 1; stroke-width: 1px;"/><path class="xgrid crisp" transform="translate(191.76,0)" d="M0,100v270" style="stroke: rgb(40, 52, 66); stroke-opacity: 1; stroke-width: 1px;"/><path class="xgrid crisp" transform="translate(259.93,0)" d="M0,100v270" style="stroke: rgb(40, 52, 66); stroke-opacity: 1; stroke-width: 1px;"/><path class="xgrid crisp" transform="translate(329.22,0)" d="M0,100v270" style="stroke: rgb(40, 52, 66); stroke-opacity: 1; stroke-width: 1px;"/></g><g class="y"><path class="ygrid crisp" transform="translate(0,303.52)" d="M80,0h305.1" style="stroke: rgb(40, 52, 66); stroke-opacity: 1; stroke-width: 1px;"/><path class="ygrid crisp" transform="translate(0,250.53)" d="M80,0h305.1" style="stroke: rgb(40, 52, 66); stroke-opacity: 1; stroke-width: 1px;"/><path class="ygrid crisp" transform="translate(0,197.55)" d="M80,0h305.1" style="stroke: rgb(40, 52, 66); stroke-opacity: 1; stroke-width: 1px;"/><path class="ygrid crisp" transform="translate(0,144.57)" d="M80,0h305.1" style="stroke: rgb(40, 52, 66); stroke-opacity: 1; stroke-width: 1px;"/></g></g><g class="zerolinelayer"><path class="yzl zl crisp" transform="translate(0,356.5)" d="M80,0h305.1" style="stroke: rgb(40, 52, 66); stroke-opacity: 1; stroke-width: 2px;"/></g><path class="xlines-below"/><path class="ylines-below"/><g class="overlines-below"/><g class="xaxislayer-below"/><g class="yaxislayer-below"/><g class="overaxes-below"/><g class="plot" transform="translate(80, 100)" clip-path="url('#clip4b3d49xyplot')"><g class="scatterlayer mlayer"><g class="trace scatter tracef42563" style="stroke-miterlimit: 2; opacity: 1;"><g class="fills"/><g class="errorbars"/><g class="lines"><path class="js-line" d="M0,256.5L65.94,255.81L67.05,255.38L72.64,254.17L73.76,253.79L79.35,252.3L80.47,251.81L82.7,250.5L83.82,250.27L108.41,240.26L109.52,239.88L118.46,236.19L119.58,235.72L124.05,233.9L125.17,233.42L138.58,226.05L139.7,224.86L144.17,221.65L145.29,220.58L153.11,215.45L154.23,214.7L157.58,212.85L158.7,211.82L164.28,208.47L165.4,207.35L168.75,205.58L169.87,203.44L175.46,197.07L176.58,196.42L177.7,195.44L178.81,193.3L182.17,187.92L183.28,187.03L184.4,183.86L185.52,183.52L186.64,183.52L187.75,179.73L191.11,174.64L192.22,174.64L195.58,166.66L196.69,165.08L200.05,158.62L201.16,158.42L202.28,157.07L203.4,154.32L206.75,147.04L207.87,146.61L208.99,145.89L210.11,143.83L211.22,142.34L212.34,138.55L213.46,138.55L214.58,134.81L215.69,134.39L216.81,130.97L217.93,130.31L219.05,127.9L222.4,127.9L223.52,116.64L224.63,116.43L225.75,111.71L226.87,107.1L227.99,105.72L229.1,102.24L230.22,102.24L231.34,96.25L232.46,96.17L238.05,79.61L239.16,79.29L240.28,79.19L241.4,73.44L242.52,72.28L243.63,69.78L244.75,67.38L245.87,67.38L253.69,53.78L254.81,53.78L255.93,51.46L257.04,51.46L259.28,47.64L260.4,46.49L261.51,46.3L262.63,44.66L267.1,42.85L268.22,40.71L270.45,38.66L271.57,37.78L278.28,31.97L279.4,31.43L287.22,26.07L288.34,25.4L291.69,23.99L292.81,22.61L298.39,19.46L299.51,19.05L300.63,18.51L301.75,16.64L305.1,13.5" style="vector-effect: non-scaling-stroke; fill: none; stroke: rgb(230, 25, 75); stroke-opacity: 1; stroke-width: 2px; opacity: 1;"/></g><g class="points"/><g class="text"/></g><g class="trace scatter trace6e27e0" style="stroke-miterlimit: 2; opacity: 1;"><g class="fills"/><g class="errorbars"/><g class="lines"><path class="js-line" d="M0,256.5L117.35,255.75L118.46,255.73L204.52,255.01L205.64,254.92L264.87,253.67L265.98,253.62L288.34,252.94L289.45,252.94L305.1,252.18" style="vector-effect: non-scaling-stroke; fill: none; stroke: rgb(60, 180, 75); stroke-opacity: 1; stroke-width: 2px; opacity: 1;"/></g><g class="points"/><g class="text"/></g><g class="trace scatter tracee16d07" style="stroke-miterlimit: 2; opacity: 1;"><g class="fills"/><g class="errorbars"/><g class="lines"><path class="js-line" d="M0,256.5L84.94,255.85L86.05,255.66L111.76,253.52L112.88,253.42L134.11,249.86L135.23,249.37L150.87,247.61L151.99,247.55L172.11,246.67L173.23,246.54L188.87,245.65L189.99,245.56L201.16,244.57L202.28,244.5L214.58,242.97L215.69,242.89L226.87,241.54L227.99,241.34L290.57,233.44L291.69,233.09L305.1,229.79" style="vector-effect: non-scaling-stroke; fill: none; stroke: rgb(255, 225, 25); stroke-opacity: 1; stroke-width: 2px; opacity: 1;"/></g><g class="points"/><g class="text"/></g><g class="trace scatter tracea16add" style="stroke-miterlimit: 2; opacity: 1;"><g class="fills"/><g class="errorbars"/><g class="lines"><path class="js-line" d="M0,256.5L169.87,255.75L170.99,255.69L196.69,254.77L197.81,254.72L253.69,252.05L254.81,252.05L268.22,251.3L269.34,251.24L290.57,250.49L291.69,250.47L305.1,249.92" style="vector-effect: non-scaling-stroke; fill: none; stroke: rgb(67, 99, 216); stroke-opacity: 1; stroke-width: 2px; opacity: 1;"/></g><g class="points"/><g class="text"/></g><g class="trace scatter traceb69851" style="stroke-miterlimit: 2; opacity: 1;"><g class="fills"/><g class="errorbars"/><g class="lines"><path class="js-line" d="M0,256.5L214.58,255.75L215.69,255.72L242.52,254.6L243.63,253.88L255.93,252.83L257.04,252.83L268.22,251.94L269.34,251.8L298.39,248.53L299.51,248.31L305.1,247.75" style="vector-effect: non-scaling-stroke; fill: none; stroke: rgb(245, 130, 49); stroke-opacity: 1; stroke-width: 2px; opacity: 1;"/></g><g class="points"/><g class="text"/></g><g class="trace scatter trace0936c9" style="stroke-miterlimit: 2; opacity: 1;"><g class="fills"/><g class="errorbars"/><g class="lines"><path class="js-line" d="M0,256.5L74.88,255.77L76,255.68L129.64,252.6L130.76,252.6L149.76,251.06L150.87,250.94L166.52,248.29L167.64,247.79L181.05,243.06L182.17,242.49L196.69,235.14L197.81,233.37L206.75,228.31L207.87,227.94L217.93,224.09L219.05,223.71L231.34,220.32L232.46,220.24L240.28,218.09L241.4,217.61L268.22,207.88L269.34,207.24L274.93,204.85L276.04,203.88L281.63,200.26L282.75,199.23L283.87,199.23L284.98,197.55L289.45,194.15L290.57,192.42L292.81,189.67L293.92,189.67L296.16,186.48L297.28,185.42L301.75,180.81L302.86,179.82L305.1,177.42" style="vector-effect: non-scaling-stroke; fill: none; stroke: rgb(145, 30, 180); stroke-opacity: 1; stroke-width: 2px; opacity: 1;"/></g><g class="points"/><g class="text"/></g></g></g><g class="overplot"/><path class="xlines-above crisp" d="M0,0" style="fill: none;"/><path class="ylines-above crisp" d="M0,0" style="fill: none;"/><g class="overlines-above"/><g class="xaxislayer-above"><g class="xtick"><text text-anchor="middle" x="0" y="383" transform="translate(123.59,0)" style="font-family: 'Open Sans', verdana, arial, sans-serif; font-size: 12px; fill: rgb(242, 245, 250); fill-opacity: 1; white-space: pre;">Mar 2020</text></g><g class="xtick"><text text-anchor="middle" x="0" y="383" transform="translate(191.76,0)" style="font-family: 'Open Sans', verdana, arial, sans-serif; font-size: 12px; fill: rgb(242, 245, 250); fill-opacity: 1; white-space: pre;">May 2020</text></g><g class="xtick"><text text-anchor="middle" x="0" y="383" transform="translate(259.93,0)" style="font-family: 'Open Sans', verdana, arial, sans-serif; font-size: 12px; fill: rgb(242, 245, 250); fill-opacity: 1; white-space: pre;">Jul 2020</text></g><g class="xtick"><text text-anchor="middle" x="0" y="383" transform="translate(329.22,0)" style="font-family: 'Open Sans', verdana, arial, sans-serif; font-size: 12px; fill: rgb(242, 245, 250); fill-opacity: 1; white-space: pre;">Sep 2020</text></g></g><g class="yaxislayer-above"><g class="ytick"><text text-anchor="end" x="79" y="4.199999999999999" transform="translate(0,356.5)" style="font-family: 'Open Sans', verdana, arial, sans-serif; font-size: 12px; fill: rgb(242, 245, 250); fill-opacity: 1; white-space: pre;">0</text></g><g class="ytick"><text text-anchor="end" x="79" y="4.199999999999999" transform="translate(0,303.52)" style="font-family: 'Open Sans', verdana, arial, sans-serif; font-size: 12px; fill: rgb(242, 245, 250); fill-opacity: 1; white-space: pre;">5k</text></g><g class="ytick"><text text-anchor="end" x="79" y="4.199999999999999" transform="translate(0,250.53)" style="font-family: 'Open Sans', verdana, arial, sans-serif; font-size: 12px; fill: rgb(242, 245, 250); fill-opacity: 1; white-space: pre;">10k</text></g><g class="ytick"><text text-anchor="end" x="79" y="4.199999999999999" transform="translate(0,197.55)" style="font-family: 'Open Sans', verdana, arial, sans-serif; font-size: 12px; fill: rgb(242, 245, 250); fill-opacity: 1; white-space: pre;">15k</text></g><g class="ytick"><text text-anchor="end" x="79" y="4.199999999999999" transform="translate(0,144.57)" style="font-family: 'Open Sans', verdana, arial, sans-serif; font-size: 12px; fill: rgb(242, 245, 250); fill-opacity: 1; white-space: pre;">20k</text></g></g><g class="overaxes-above"/></g><g class="subplot x2y2"><g class="layer-subplot"><g class="shapelayer"/><g class="imagelayer"/></g><g class="gridlayer"><g class="x2"><path class="x2grid crisp" transform="translate(496.49,0)" d="M0,100v270" style="stroke: rgb(40, 52, 66); stroke-opacity: 1; stroke-width: 1px;"/><path class="x2grid crisp" transform="translate(564.6600000000001,0)" d="M0,100v270" style="stroke: rgb(40, 52, 66); stroke-opacity: 1; stroke-width: 1px;"/><path class="x2grid crisp" transform="translate(632.83,0)" d="M0,100v270" style="stroke: rgb(40, 52, 66); stroke-opacity: 1; stroke-width: 1px;"/><path class="x2grid crisp" transform="translate(702.12,0)" d="M0,100v270" style="stroke: rgb(40, 52, 66); stroke-opacity: 1; stroke-width: 1px;"/></g><g class="y2"><path class="y2grid crisp" transform="translate(0,300.64)" d="M452.90000000000003,0h305.09999999999997" style="stroke: rgb(40, 52, 66); stroke-opacity: 1; stroke-width: 1px;"/><path class="y2grid crisp" transform="translate(0,244.78)" d="M452.90000000000003,0h305.09999999999997" style="stroke: rgb(40, 52, 66); stroke-opacity: 1; stroke-width: 1px;"/><path class="y2grid crisp" transform="translate(0,188.91)" d="M452.90000000000003,0h305.09999999999997" style="stroke: rgb(40, 52, 66); stroke-opacity: 1; stroke-width: 1px;"/><path class="y2grid crisp" transform="translate(0,133.05)" d="M452.90000000000003,0h305.09999999999997" style="stroke: rgb(40, 52, 66); stroke-opacity: 1; stroke-width: 1px;"/></g></g><g class="zerolinelayer"><path class="y2zl zl crisp" transform="translate(0,356.5)" d="M452.90000000000003,0h305.09999999999997" style="stroke: rgb(40, 52, 66); stroke-opacity: 1; stroke-width: 2px;"/></g><path class="xlines-below"/><path class="ylines-below"/><g class="overlines-below"/><g class="xaxislayer-below"/><g class="yaxislayer-below"/><g class="overaxes-below"/><g class="plot" transform="translate(452.90000000000003, 100)" clip-path="url('#clip4b3d49x2y2plot')"><g class="scatterlayer mlayer"><g class="trace scatter tracebd9a67" style="stroke-miterlimit: 2; opacity: 1;"><g class="fills"/><g class="errorbars"/><g class="lines"><path class="js-line" d="M0,256.5L68.17,255.94L69.29,255.38L70.41,255.38L71.53,254.27L72.64,254.27L73.76,253.15L76,252.59L77.11,252.59L79.35,251.47L80.47,249.8L83.82,249.24L84.94,248.12L87.17,247L88.29,245.33L91.64,243.65L92.76,243.65L93.88,236.39L94.99,234.71L96.11,234.71L97.23,233.6L102.82,230.8L103.94,229.69L105.05,227.45L106.17,227.45L107.29,227.45L108.41,225.78L112.88,221.31L113.99,221.31L115.11,221.31L116.23,219.63L118.46,219.07L119.58,217.4L121.82,216.84L122.93,216.84L127.4,210.69L128.52,210.13L130.76,210.13L131.87,208.46L134.11,206.22L135.23,206.22L137.46,204.55L138.58,204.55L141.93,203.99L143.05,203.43L146.4,202.87L147.52,202.31L149.76,202.31L150.87,200.08L155.34,199.52L156.46,197.84L158.7,195.61L159.81,195.61L160.93,193.93L162.05,193.93L163.17,193.93L164.28,191.7L167.64,190.58L168.75,190.58L169.87,189.47L170.99,189.47L172.11,188.35L173.23,185L174.34,183.88L175.46,183.88L176.58,182.2L177.7,182.2L182.17,178.29L183.28,178.29L186.64,178.29L187.75,177.18L188.87,174.94L189.99,174.38L192.22,173.82L193.34,173.82L195.58,170.47L196.69,170.47L197.81,166.56L198.93,166L201.16,166L202.28,163.21L205.64,157.07L206.75,157.07L208.99,157.07L210.11,155.39L213.46,154.83L214.58,150.92L216.81,150.92L217.93,149.24L220.16,148.69L221.28,148.69L222.4,148.69L223.52,141.98L225.75,141.98L226.87,138.07L229.1,134.16L230.22,134.16L231.34,133.04L232.46,133.04L236.93,126.34L238.05,126.34L240.28,125.78L241.4,122.43L244.75,118.52L245.87,118.52L246.99,112.93L248.1,112.93L249.22,112.93L250.34,103.44L251.46,91.71L252.57,91.15L253.69,89.47L254.81,89.47L257.04,88.91L258.16,87.24L259.28,87.24L260.4,77.74L261.51,77.74L262.63,71.04L263.75,70.48L264.87,57.63L265.98,57.63L267.1,52.6L269.34,47.58L270.45,47.58L271.57,47.58L272.69,38.64L276.04,30.82L277.16,29.7L279.4,29.7L280.51,28.58L281.63,26.35L282.75,21.88L283.87,21.88L284.98,19.09L287.22,19.09L288.34,17.97L289.45,15.73L290.57,15.73L303.98,15.18L305.1,13.5" style="vector-effect: non-scaling-stroke; fill: none; stroke: rgb(230, 25, 75); stroke-opacity: 1; stroke-width: 2px; opacity: 1;"/></g><g class="points"/><g class="text"/></g><g class="trace scatter traceb1d849" style="stroke-miterlimit: 2; opacity: 1;"><g class="fills"/><g class="errorbars"/><g class="lines"><path class="js-line" d="M0,256.5L135.23,255.94L136.35,255.38L241.4,254.82L242.52,254.27L273.81,253.71L274.93,253.15L297.28,252.59L298.39,251.47L305.1,250.91" style="vector-effect: non-scaling-stroke; fill: none; stroke: rgb(60, 180, 75); stroke-opacity: 1; stroke-width: 2px; opacity: 1;"/></g><g class="points"/><g class="text"/></g><g class="trace scatter trace0b8a67" style="stroke-miterlimit: 2; opacity: 1;"><g class="fills"/><g class="errorbars"/><g class="lines"><path class="js-line" d="M0,256.5L74.88,255.94L76,255.38L100.58,254.82L101.7,254.27L103.94,253.71L105.05,253.71L115.11,253.15L116.23,251.47L118.46,250.91L119.58,250.91L120.7,249.8L121.82,249.8L122.93,249.8L124.05,248.12L125.17,248.12L126.29,247L130.76,246.44L131.87,245.89L181.05,245.33L182.17,244.77L212.34,244.21L213.46,243.65L252.57,243.09L253.69,242.53L297.28,241.98L298.39,241.42L303.98,241.42L305.1,240.3" style="vector-effect: non-scaling-stroke; fill: none; stroke: rgb(255, 225, 25); stroke-opacity: 1; stroke-width: 2px; opacity: 1;"/></g><g class="points"/><g class="text"/></g><g class="trace scatter trace0733c4" style="stroke-miterlimit: 2; opacity: 1;"><g class="fills"/><g class="errorbars"/><g class="lines"><path class="js-line" d="M0,256.5L146.4,255.94L147.52,254.82L156.46,254.27L157.58,253.71L221.28,253.15L222.4,252.59L226.87,252.03L227.99,251.47L232.46,251.47L233.57,250.36L235.81,249.8L236.93,249.8L242.52,249.24L243.63,248.68L250.34,248.12L251.46,247.56L260.4,247L261.51,246.44L263.75,246.44L264.87,245.33L273.81,244.77L274.93,244.21L279.4,243.65L280.51,243.09L282.75,242.53L283.87,242.53L286.1,241.98L287.22,241.98L289.45,240.3L290.57,240.3L293.92,239.18L295.04,239.18L298.39,238.62L299.51,238.07L301.75,237.51L302.86,237.51L305.1,236.95" style="vector-effect: non-scaling-stroke; fill: none; stroke: rgb(67, 99, 216); stroke-opacity: 1; stroke-width: 2px; opacity: 1;"/></g><g class="points"/><g class="text"/></g><g class="trace scatter trace029940" style="stroke-miterlimit: 2; opacity: 1;"><g class="fills"/><g class="errorbars"/><g class="lines"><path class="js-line" d="M0,256.5L260.4,255.94L261.51,255.38L263.75,254.82L264.87,254.82L274.93,254.27L276.04,253.71L297.28,253.15L298.39,252.03L305.1,251.47" style="vector-effect: non-scaling-stroke; fill: none; stroke: rgb(245, 130, 49); stroke-opacity: 1; stroke-width: 2px; opacity: 1;"/></g><g class="points"/><g class="text"/></g><g class="trace scatter trace576bc5" style="stroke-miterlimit: 2; opacity: 1;"><g class="fills"/><g class="errorbars"/><g class="lines"><path class="js-line" d="M0,256.5L93.88,255.94L94.99,255.38L156.46,254.82L157.58,254.27L184.4,253.71L185.52,253.15L201.16,252.59L202.28,252.03L206.75,250.36L207.87,250.36L211.22,249.8L212.34,249.24L215.69,248.68L216.81,248.12L220.16,245.89L221.28,244.77L241.4,244.21L242.52,243.65L252.57,243.09L253.69,242.53L255.93,241.98L257.04,241.98L260.4,241.42L261.51,240.86L280.51,240.86L281.63,239.74L282.75,239.74L283.87,238.62L289.45,238.07L290.57,237.51L292.81,236.95L293.92,236.95L295.04,235.83L296.16,235.83L299.51,235.27L300.63,234.71L302.86,234.16L303.98,234.16L305.1,234.16" style="vector-effect: non-scaling-stroke; fill: none; stroke: rgb(145, 30, 180); stroke-opacity: 1; stroke-width: 2px; opacity: 1;"/></g><g class="points"/><g class="text"/></g></g></g><g class="overplot"/><path class="xlines-above crisp" d="M0,0" style="fill: none;"/><path class="ylines-above crisp" d="M0,0" style="fill: none;"/><g class="overlines-above"/><g class="xaxislayer-above"><g class="x2tick"><text text-anchor="middle" x="0" y="383" transform="translate(496.49,0)" style="font-family: 'Open Sans', verdana, arial, sans-serif; font-size: 12px; fill: rgb(242, 245, 250); fill-opacity: 1; white-space: pre;">Mar 2020</text></g><g class="x2tick"><text text-anchor="middle" x="0" y="383" transform="translate(564.6600000000001,0)" style="font-family: 'Open Sans', verdana, arial, sans-serif; font-size: 12px; fill: rgb(242, 245, 250); fill-opacity: 1; white-space: pre;">May 2020</text></g><g class="x2tick"><text text-anchor="middle" x="0" y="383" transform="translate(632.83,0)" style="font-family: 'Open Sans', verdana, arial, sans-serif; font-size: 12px; fill: rgb(242, 245, 250); fill-opacity: 1; white-space: pre;">Jul 2020</text></g><g class="x2tick"><text text-anchor="middle" x="0" y="383" transform="translate(702.12,0)" style="font-family: 'Open Sans', verdana, arial, sans-serif; font-size: 12px; fill: rgb(242, 245, 250); fill-opacity: 1; white-space: pre;">Sep 2020</text></g></g><g class="yaxislayer-above"><g class="y2tick"><text text-anchor="end" x="451.90000000000003" y="4.199999999999999" transform="translate(0,356.5)" style="font-family: 'Open Sans', verdana, arial, sans-serif; font-size: 12px; fill: rgb(242, 245, 250); fill-opacity: 1; white-space: pre;">0</text></g><g class="y2tick"><text text-anchor="end" x="451.90000000000003" y="4.199999999999999" transform="translate(0,300.64)" style="font-family: 'Open Sans', verdana, arial, sans-serif; font-size: 12px; fill: rgb(242, 245, 250); fill-opacity: 1; white-space: pre;">100</text></g><g class="y2tick"><text text-anchor="end" x="451.90000000000003" y="4.199999999999999" transform="translate(0,244.78)" style="font-family: 'Open Sans', verdana, arial, sans-serif; font-size: 12px; fill: rgb(242, 245, 250); fill-opacity: 1; white-space: pre;">200</text></g><g class="y2tick"><text text-anchor="end" x="451.90000000000003" y="4.199999999999999" transform="translate(0,188.91)" style="font-family: 'Open Sans', verdana, arial, sans-serif; font-size: 12px; fill: rgb(242, 245, 250); fill-opacity: 1; white-space: pre;">300</text></g><g class="y2tick"><text text-anchor="end" x="451.90000000000003" y="4.199999999999999" transform="translate(0,133.05)" style="font-family: 'Open Sans', verdana, arial, sans-serif; font-size: 12px; fill: rgb(242, 245, 250); fill-opacity: 1; white-space: pre;">400</text></g></g><g class="overaxes-above"/></g></g><g class="polarlayer"/><g class="ternarylayer"/><g class="geolayer"/><g class="funnelarealayer"/><g class="pielayer"/><g class="treemaplayer"/><g class="sunburstlayer"/><g class="glimages"/><defs id="topdefs-4b3d49"><g class="clips"/><clipPath id="legend4b3d49"><rect width="116" height="124" x="0" y="0"/></clipPath></defs><g class="layer-above"><g class="imagelayer"/><g class="shapelayer"/></g><g class="infolayer"><g class="legend" pointer-events="all" transform="translate(771.5600000000001, 100)"><rect class="bg" shape-rendering="crispEdges" width="116" height="124" x="0" y="0" style="stroke: rgb(68, 68, 68); stroke-opacity: 1; fill: rgb(17, 17, 17); fill-opacity: 1; stroke-width: 0px;"/><g class="scrollbox" transform="translate(0, 0)" clip-path="url('#legend4b3d49')"><g class="groups"><g class="traces" transform="translate(0, 14.5)" style="opacity: 1;"><text class="legendtext user-select-none" text-anchor="start" x="40" y="4.680000000000001" style="font-family: 'Open Sans', verdana, arial, sans-serif; font-size: 12px; fill: rgb(242, 245, 250); fill-opacity: 1; white-space: pre;">Alameda, CA</text><g class="layers" style="opacity: 1;"><g class="legendfill"/><g class="legendlines"><path class="js-line" d="M5,0h30" style="fill: none; stroke: rgb(230, 25, 75); stroke-opacity: 1; stroke-width: 2px;"/></g><g class="legendsymbols"><g class="legendpoints"/></g></g><rect class="legendtoggle" pointer-events="all" x="0" y="-9.5" width="110.703125" height="19" style="cursor: pointer; fill: rgb(0, 0, 0); fill-opacity: 0;"/></g><g class="traces" transform="translate(0, 33.5)" style="opacity: 1;"><text class="legendtext user-select-none" text-anchor="start" x="40" y="4.680000000000001" style="font-family: 'Open Sans', verdana, arial, sans-serif; font-size: 12px; fill: rgb(242, 245, 250); fill-opacity: 1; white-space: pre;">Gray, TX</text><g class="layers" style="opacity: 1;"><g class="legendfill"/><g class="legendlines"><path class="js-line" d="M5,0h30" style="fill: none; stroke: rgb(60, 180, 75); stroke-opacity: 1; stroke-width: 2px;"/></g><g class="legendsymbols"><g class="legendpoints"/></g></g><rect class="legendtoggle" pointer-events="all" x="0" y="-9.5" width="110.703125" height="19" style="cursor: pointer; fill: rgb(0, 0, 0); fill-opacity: 0;"/></g><g class="traces" transform="translate(0, 52.5)" style="opacity: 1;"><text class="legendtext user-select-none" text-anchor="start" x="40" y="4.680000000000001" style="font-family: 'Open Sans', verdana, arial, sans-serif; font-size: 12px; fill: rgb(242, 245, 250); fill-opacity: 1; white-space: pre;">Kendall, IL</text><g class="layers" style="opacity: 1;"><g class="legendfill"/><g class="legendlines"><path class="js-line" d="M5,0h30" style="fill: none; stroke: rgb(255, 225, 25); stroke-opacity: 1; stroke-width: 2px;"/></g><g class="legendsymbols"><g class="legendpoints"/></g></g><rect class="legendtoggle" pointer-events="all" x="0" y="-9.5" width="110.703125" height="19" style="cursor: pointer; fill: rgb(0, 0, 0); fill-opacity: 0;"/></g><g class="traces" transform="translate(0, 71.5)" style="opacity: 1;"><text class="legendtext user-select-none" text-anchor="start" x="40" y="4.680000000000001" style="font-family: 'Open Sans', verdana, arial, sans-serif; font-size: 12px; fill: rgb(242, 245, 250); fill-opacity: 1; white-space: pre;">Wood, TX</text><g class="layers" style="opacity: 1;"><g class="legendfill"/><g class="legendlines"><path class="js-line" d="M5,0h30" style="fill: none; stroke: rgb(67, 99, 216); stroke-opacity: 1; stroke-width: 2px;"/></g><g class="legendsymbols"><g class="legendpoints"/></g></g><rect class="legendtoggle" pointer-events="all" x="0" y="-9.5" width="110.703125" height="19" style="cursor: pointer; fill: rgb(0, 0, 0); fill-opacity: 0;"/></g><g class="traces" transform="translate(0, 90.5)" style="opacity: 1;"><text class="legendtext user-select-none" text-anchor="start" x="40" y="4.680000000000001" style="font-family: 'Open Sans', verdana, arial, sans-serif; font-size: 12px; fill: rgb(242, 245, 250); fill-opacity: 1; white-space: pre;">Meade, SD</text><g class="layers" style="opacity: 1;"><g class="legendfill"/><g class="legendlines"><path class="js-line" d="M5,0h30" style="fill: none; stroke: rgb(245, 130, 49); stroke-opacity: 1; stroke-width: 2px;"/></g><g class="legendsymbols"><g class="legendpoints"/></g></g><rect class="legendtoggle" pointer-events="all" x="0" y="-9.5" width="110.703125" height="19" style="cursor: pointer; fill: rgb(0, 0, 0); fill-opacity: 0;"/></g><g class="traces" transform="translate(0, 109.5)" style="opacity: 1;"><text class="legendtext user-select-none" text-anchor="start" x="40" y="4.680000000000001" style="font-family: 'Open Sans', verdana, arial, sans-serif; font-size: 12px; fill: rgb(242, 245, 250); fill-opacity: 1; white-space: pre;">Davis, UT</text><g class="layers" style="opacity: 1;"><g class="legendfill"/><g class="legendlines"><path class="js-line" d="M5,0h30" style="fill: none; stroke: rgb(145, 30, 180); stroke-opacity: 1; stroke-width: 2px;"/></g><g class="legendsymbols"><g class="legendpoints"/></g></g><rect class="legendtoggle" pointer-events="all" x="0" y="-9.5" width="110.703125" height="19" style="cursor: pointer; fill: rgb(0, 0, 0); fill-opacity: 0;"/></g></g></g><rect class="scrollbar" rx="20" ry="3" width="0" height="0" x="0" y="0" style="fill: rgb(128, 139, 164); fill-opacity: 1;"/></g><g class="g-gtitle"/><g class="g-xtitle"><text class="xtitle" x="232.55" y="410.8" text-anchor="middle" style="font-family: 'Open Sans', verdana, arial, sans-serif; font-size: 14px; fill: rgb(242, 245, 250); opacity: 1; font-weight: normal; white-space: pre;">Date</text></g><g class="g-x2title"><text class="x2title" x="605.45" y="410.8" text-anchor="middle" style="font-family: 'Open Sans', verdana, arial, sans-serif; font-size: 14px; fill: rgb(242, 245, 250); opacity: 1; font-weight: normal; white-space: pre;">Date</text></g><g class="g-ytitle"><text class="ytitle" transform="rotate(-90,34.840625,235)" x="34.840625" y="235" text-anchor="middle" style="font-family: 'Open Sans', verdana, arial, sans-serif; font-size: 14px; fill: rgb(242, 245, 250); opacity: 1; font-weight: normal; white-space: pre;">Cases</text></g><g class="g-y2title"><text class="y2title" transform="rotate(-90,407.075,235)" x="407.075" y="235" text-anchor="middle" style="font-family: 'Open Sans', verdana, arial, sans-serif; font-size: 14px; fill: rgb(242, 245, 250); opacity: 1; font-weight: normal; white-space: pre;">Deaths</text></g><g class="annotation" data-index="0" style="opacity: 1;"><g class="annotation-text-g" transform="rotate(0,232.55,89.5)"><g class="cursor-pointer" transform="translate(208, 79)"><rect class="bg" x="0.5" y="0.5" width="48" height="20" style="stroke-width: 1px; stroke: rgb(0, 0, 0); stroke-opacity: 0; fill: rgb(0, 0, 0); fill-opacity: 0;"/><text class="annotation-text" text-anchor="middle" x="24.6875" y="16" style="font-family: 'Open Sans', verdana, arial, sans-serif; font-size: 16px; fill: rgb(242, 245, 250); fill-opacity: 1; white-space: pre;">Cases</text></g></g></g><g class="annotation" data-index="1" style="opacity: 1;"><g class="annotation-text-g" transform="rotate(0,605.45,89.5)"><g class="cursor-pointer" transform="translate(578, 79)"><rect class="bg" x="0.5" y="0.5" width="54" height="20" style="stroke-width: 1px; stroke: rgb(0, 0, 0); stroke-opacity: 0; fill: rgb(0, 0, 0); fill-opacity: 0;"/><text class="annotation-text" text-anchor="middle" x="27.359375" y="16" style="font-family: 'Open Sans', verdana, arial, sans-serif; font-size: 16px; fill: rgb(242, 245, 250); fill-opacity: 1; white-space: pre;">Deaths</text></g></g></g></g></svg>