<svg class="main-svg" xmlns="http://www.w3.org/2000/svg" xmlns:xlink="http://www.w3.org/1999/xlink" width="900" height="450" style="" viewBox="0 0 900 450"><rect x="0" y="0" width="900" height="450" style="fill: rgb(17, 17, 17); fill-opacity: 1;"/><defs id="defs-49004f"><g class="clips"><clipPath id="clip49004fxyplot" class="plotclip"><rect width="297" height="270"/></clipPath><clipPath id="clip49004fx2y2plot" class="plotclip"><rect width="296.99999999999994" height="270"/></clipPath><clipPath class="axesclip" id="clip49004fx"><rect x="80" y="0" width="297" height="450"/></clipPath><clipPath class="axesclip" id="clip49004fy"><rect x="0" y="100" width="900" height="270"/></clipPath><clipPath class="axesclip" id="clip49004fxy"><rect x="80" y="100" width="297" height="270"/></clipPath><clipPath class="axesclip" id="clip49004fy2"><rect x="0" y="100" width="900" height="270"/></clipPath><clipPath class="axesclip" id="clip49004fxy2"><rect x="80" y="100" width="297" height="270"/></clipPath><clipPath class="axesclip" id="clip49004fx2"><rect x="443.00000000000006" y="0" width="296.99999999999994" height="450"/></clipPath><clipPath class="axesclip" id="clip49004fx2y"><rect x="443.00000000000006" y="100" width="296.99999999999994" height="270"/></clipPath><clipPath class="axesclip" id="clip49004fx2y2"><rect x="443.00000000000006" y="100" width="296.99999999999994" height="270"/></clipPath></g><g class="gradients"/></defs><g class="bglayer"/><g class="layer-below"><g class="imagelayer"/><g class="shapelayer"/></g><g class="cartesianlayer"><g class="subplot xy"><g class="layer-subplot"><g class="shapelayer"/><g class="imagelayer"/></g><g class="gridlayer"><g class="x"><path class="xgrid crisp" transform="translate(131.32999999999998,0)" d="M0,100v270" style="stroke: rgb(40, 52, 66); stroke-opacity: 1; stroke-width: 1px;"/><path class="xgrid crisp" transform="translate(198.07,0)" d="M0,100v270" style="stroke: rgb(40, 52, 66); stroke-opacity: 1; stroke-width: 1px;"/><path class="xgrid crisp" transform="translate(265.53,0)" d="M0,100v270" style="stroke: rgb(40, 52, 66); stroke-opacity: 1; stroke-width: 1px;"/><path class="xgrid crisp" transform="translate(333,0)" d="M0,100v270" style="stroke: rgb(40, 52, 66); stroke-opacity: 1; stroke-width: 1px;"/></g><g class="y"><path class="ygrid crisp" transform="translate(0,311.58000000000004)" d="M80,0h297" style="stroke: rgb(40, 52, 66); stroke-opacity: 1; stroke-width: 1px;"/><path class="ygrid crisp" transform="translate(0,266.65999999999997)" d="M80,0h297" style="stroke: rgb(40, 52, 66); stroke-opacity: 1; stroke-width: 1px;"/><path class="ygrid crisp" transform="translate(0,221.74)" d="M80,0h297" style="stroke: rgb(40, 52, 66); stroke-opacity: 1; stroke-width: 1px;"/><path class="ygrid crisp" transform="translate(0,176.82)" d="M80,0h297" style="stroke: rgb(40, 52, 66); stroke-opacity: 1; stroke-width: 1px;"/><path class="ygrid crisp" transform="translate(0,131.9)" d="M80,0h297" style="stroke: rgb(40, 52, 66); stroke-opacity: 1; stroke-width: 1px;"/></g></g><g class="zerolinelayer"><path class="yzl zl crisp" transform="translate(0,356.5)" d="M80,0h297" style="stroke: rgb(40, 52, 66); stroke-opacity: 1; stroke-width: 2px;"/></g><path class="xlines-below"/><path class="ylines-below"/><g class="overlines-below"/><g class="xaxislayer-below"/><g class="yaxislayer-below"/><g class="overaxes-below"/><g class="plot" transform="translate(80, 100)" clip-path="url('#clip49004fxyplot')"><g class="scatterlayer mlayer"><g class="trace scatter traceb9f7dd" style="stroke-miterlimit: 2; opacity: 1;"><g class="fills"/><g class="errorbars"/><g class="lines"><path class="js-line" d="M0,256.5L50.6,255.8L51.33,255.69L82.13,251.61L82.87,251.48L112.2,244.96L112.93,244.65L118.07,242.67L118.8,242.16L123.2,240.23L123.93,239.86L126.87,238.59L127.6,237.81L140.07,231.5L140.8,230.71L143,229.75L143.73,229.24L145.93,229.24L146.67,226.86L147.4,226.81L148.13,225.81L150.33,223.8L151.07,223.8L152.53,222.52L153.27,221.83L156.2,219.01L156.93,218.94L157.67,218.92L158.4,217.7L162.8,215.65L163.53,215.07L166.47,213.53L167.2,213.53L170.13,212.23L170.87,211.99L175.27,211.22L176,210.76L181.13,209.27L181.87,209.27L184.8,208.47L185.53,208.31L198.73,205.43L199.47,205.28L209,202.38L209.73,202.23L213.4,200.68L214.13,200.35L219.27,198L220,197.07L226.6,193.11L227.33,191.69L231,188.38L231.73,186.92L233.2,185.21L233.93,183.4L234.67,183.22L235.4,180.73L239.07,175.23L239.8,170.66L242,166.07L242.73,166.02L244.93,157.67L245.67,155.98L250.07,144.73L250.8,143.29L253,138.64L253.73,136.3L256.67,129.75L257.4,128.3L264,109.58L264.73,106.96L266.93,102.8L267.67,102.01L275,91.15L275.73,90.34L282.33,83.52L283.07,82.79L291.13,77.61L291.87,77.28L297,75.01" style="vector-effect: non-scaling-stroke; fill: none; stroke: rgb(230, 25, 75); stroke-opacity: 1; stroke-width: 2px; opacity: 1;"/></g><g class="points"/><g class="text"/></g><g class="trace scatter trace3955ab" style="stroke-miterlimit: 2; opacity: 1;"><g class="fills"/><g class="errorbars"/><g class="lines"><path class="js-line" d="M0,256.5L46.2,256L46.93,255.63L52.07,253.42L52.8,252.72L56.47,250.09L57.2,249.55L71.87,242.46L72.6,242.18L80.67,239.5L81.4,239.36L104.13,235.84L104.87,235.79L164.27,231.21L165,231.11L181.13,228.06L181.87,227.52L184.8,225.81L185.53,225.69L192.87,222.43L193.6,222.24L202.4,219.59L203.13,219.49L214.13,216.89L214.87,216.56L222.2,212.37L222.93,211.85L231,205.86L231.73,205.03L246.4,190.04L247.13,188.95L250.07,186.35L250.8,178.64L257.4,169.14L258.13,166.38L258.87,166.38L259.6,165.43L267.67,153.6L268.4,152.77L271.33,148.64L272.07,147.78L275.73,143.08L276.47,142.42L278.67,140.15L279.4,139.29L284.53,133.7L285.27,133.39L286.73,132.33L287.47,131.57L290.4,129.31L291.13,128.71L297,123.66" style="vector-effect: non-scaling-stroke; fill: none; stroke: rgb(60, 180, 75); stroke-opacity: 1; stroke-width: 2px; opacity: 1;"/></g><g class="points"/><g class="text"/></g><g class="trace scatter tracee32fd1" style="stroke-miterlimit: 2; opacity: 1;"><g class="fills"/><g class="errorbars"/><g class="lines"><path class="js-line" d="M0,256.5L49.13,255.8L49.87,255.61L57.2,254.24L57.93,254.07L68.93,251.81L69.67,251.34L76.27,249.98L77,249.74L90.2,246.76L90.93,246.5L95.33,245.12L96.07,244.76L104.87,241.82L105.6,241.29L116.6,234.78L117.33,233.98L125.4,226.35L126.13,225.97L129.07,222.08L129.8,221.39L131.27,219.51L132,218.99L135.67,216.2L136.4,215.33L139.33,211.4L140.07,210.26L142.27,208.23L143,207.7L145.2,205.66L145.93,205.03L148.87,203.08L149.6,202.72L152.53,200.8L153.27,200.56L162.8,195.59L163.53,195.47L169.4,193.35L170.13,192.71L173.8,191.14L174.53,190.49L192.87,183.01L193.6,182.26L198,180.15L198.73,179.31L200.93,178.13L201.67,176.62L202.4,176.2L203.13,174.8L206.8,172.01L207.53,171.79L208.27,171.69L209,170.51L210.47,169.75L211.2,169.19L212.67,168.17L213.4,166.99L214.87,165.01L215.6,164.41L217.8,162.16L218.53,160.69L220,158.35L220.73,157.45L226.6,151.95L227.33,150.74L231,145.52L231.73,144.8L238.33,134.17L239.07,131.95L242.73,123.16L243.47,123.16L244.93,118.5L245.67,117.72L247.87,115.05L248.6,111.96L250.8,109.88L251.53,108.25L253,107L253.73,102.82L255.93,100.03L256.67,98.74L259.6,92.9L260.33,91.82L270.6,79.01L271.33,78.58L272.8,77.03L273.53,77.03L275,74.68L275.73,74.27L282.33,69.36L283.07,67.93L285.27,65.38L286,64.53L287.47,63.77L288.2,63.66L293.33,61.56L294.07,61.19L297,60.39" style="vector-effect: non-scaling-stroke; fill: none; stroke: rgb(255, 225, 25); stroke-opacity: 1; stroke-width: 2px; opacity: 1;"/></g><g class="points"/><g class="text"/></g><g class="trace scatter trace918e8f" style="stroke-miterlimit: 2; opacity: 1;"><g class="fills"/><g class="errorbars"/><g class="lines"><path class="js-line" d="M0,256.5L39.6,256.01L40.33,255.65L43.27,253.39L44,252.29L49.87,235.55L50.6,234.11L57.2,218.31L57.93,215.9L68.93,195.34L69.67,194.37L75.53,188.9L76.27,188.58L84.33,184.41L85.07,184.13L98.27,180.66L99,180.46L109.27,179.11L110,179.04L167.93,172.78L168.67,172.69L193.6,168.9L194.33,168.76L201.67,166.91L202.4,166.57L209.73,163.91L210.47,163.61L215.6,160.06L216.33,159.27L226.6,147.7L227.33,146.22L233.2,135.34L233.93,133.71L239.07,124.35L239.8,123.02L251.53,102.2L252.27,100.04L255.2,93.08L255.93,91.69L262.53,74.87L263.27,72.37L266.2,65.55L266.93,63.97L272.07,51.61L272.8,49.73L276.47,42.45L277.2,41.69L279.4,39.84L280.13,36.6L286.73,26.97L287.47,26.07L297,13.5" style="vector-effect: non-scaling-stroke; fill: none; stroke: rgb(67, 99, 216); stroke-opacity: 1; stroke-width: 2px; opacity: 1;"/></g><g class="points"/><g class="text"/></g><g class="trace scatter trace23d9a0" style="stroke-miterlimit: 2; opacity: 1;"><g class="fills"/><g class="errorbars"/><g class="lines"><path class="js-line" d="M0,256.5L50.6,255.77L51.33,255.7L61.6,254.47L62.33,254.42L116.6,250.55L117.33,250.3L121,248.51L121.73,248.02L133.47,241.52L134.2,241.19L140.07,238.32L140.8,238.17L162.8,233.26L163.53,233.2L195.8,225.79L196.53,225.46L211.2,219.22L211.93,218.68L217.8,212.71L218.53,211.52L225.87,199.95L226.6,198.21L228.8,193.6L229.53,192.71L231.73,187.9L232.47,185.85L234.67,179.86L235.4,178.31L236.87,174.06L237.6,171.09L241.27,159.91L242,158L248.6,142.27L249.33,141.37L250.07,140.94L250.8,138.65L253,134.4L253.73,132.05L255.93,128.87L256.67,126.89L262.53,115.14L263.27,114.2L267.67,107.49L268.4,107.49L271.33,104.42L272.07,103.58L277.2,98.91L277.93,98.21L283.8,93.22L284.53,92.53L293.33,86.42L294.07,85.5L297,83.44" style="vector-effect: non-scaling-stroke; fill: none; stroke: rgb(245, 130, 49); stroke-opacity: 1; stroke-width: 2px; opacity: 1;"/></g><g class="points"/><g class="text"/></g><g class="trace scatter trace9d0a6a" style="stroke-miterlimit: 2; opacity: 1;"><g class="fills"/><g class="errorbars"/><g class="lines"><path class="js-line" d="M0,256.5L60.13,255.77L60.87,255.73L81.4,253.78L82.13,253.62L93.87,251.04L94.6,250.82L131.27,246.06L132,246.01L160.6,243.3L161.33,243.19L175.27,241.75L176,241.64L195.8,239.84L196.53,239.76L210.47,238.21L211.2,238.14L224.4,235.51L225.13,235.14L228.07,234.09L228.8,233.99L232.47,232.99L233.2,232.79L235.4,231.78L236.13,231.19L247.13,226.92L247.87,226.67L258.13,222.32L258.87,222.17L263.27,220.49L264,220.01L266.93,217.44L267.67,217.04L271.33,213.46L272.07,212.69L275,210.72L275.73,210.49L284.53,206.86L285.27,206.67L297,204.43" style="vector-effect: non-scaling-stroke; fill: none; stroke: rgb(145, 30, 180); stroke-opacity: 1; stroke-width: 2px; opacity: 1;"/></g><g class="points"/><g class="text"/></g></g></g><g class="overplot"/><path class="xlines-above crisp" d="M0,0" style="fill: none;"/><path class="ylines-above crisp" d="M0,0" style="fill: none;"/><g class="overlines-above"/><g class="xaxislayer-above"><g class="xtick"><text text-anchor="middle" x="0" y="383" transform="translate(131.32999999999998,0)" style="font-family: 'Open Sans', verdana, arial, sans-serif; font-size: 12px; fill: rgb(242, 245, 250); fill-opacity: 1; white-space: pre;">Apr 2020</text></g><g class="xtick"><text text-anchor="middle" x="0" y="383" transform="translate(198.07,0)" style="font-family: 'Open Sans', verdana, arial, sans-serif; font-size: 12px; fill: rgb(242, 245, 250); fill-opacity: 1; white-space: pre;">Jul 2020</text></g><g class="xtick"><text text-anchor="middle" x="0" y="383" transform="translate(265.53,0)" style="font-family: 'Open Sans', verdana, arial, sans-serif; font-size: 12px; fill: rgb(242, 245, 250); fill-opacity: 1; white-space: pre;">Oct 2020</text></g><g class="xtick"><text text-anchor="middle" x="0" y="383" transform="translate(333,0)" style="font-family: 'Open Sans', verdana, arial, sans-serif; font-size: 12px; fill: rgb(242, 245, 250); fill-opacity: 1; white-space: pre;">Jan 2021</text></g></g><g class="yaxislayer-above"><g class="ytick"><text text-anchor="end" x="79" y="4.199999999999999" transform="translate(0,356.5)" style="font-family: 'Open Sans', verdana, arial, sans-serif; font-size: 12px; fill: rgb(242, 245, 250); fill-opacity: 1; white-space: pre;">0</text></g><g class="ytick"><text text-anchor="end" x="79" y="4.199999999999999" transform="translate(0,311.58000000000004)" style="font-family: 'Open Sans', verdana, arial, sans-serif; font-size: 12px; fill: rgb(242, 245, 250); fill-opacity: 1; white-space: pre;">20k</text></g><g class="ytick"><text text-anchor="end" x="79" y="4.199999999999999" transform="translate(0,266.65999999999997)" style="font-family: 'Open Sans', verdana, arial, sans-serif; font-size: 12px; fill: rgb(242, 245, 250); fill-opacity: 1; white-space: pre;">40k</text></g><g class="ytick"><text text-anchor="end" x="79" y="4.199999999999999" transform="translate(0,221.74)" style="font-family: 'Open Sans', verdana, arial, sans-serif; font-size: 12px; fill: rgb(242, 245, 250); fill-opacity: 1; white-space: pre;">60k</text></g><g class="ytick"><text text-anchor="end" x="79" y="4.199999999999999" transform="translate(0,176.82)" style="font-family: 'Open Sans', verdana, arial, sans-serif; font-size: 12px; fill: rgb(242, 245, 250); fill-opacity: 1; white-space: pre;">80k</text></g><g class="ytick"><text text-anchor="end" x="79" y="4.199999999999999" transform="translate(0,131.9)" style="font-family: 'Open Sans', verdana, arial, sans-serif; font-size: 12px; fill: rgb(242, 245, 250); fill-opacity: 1; white-space: pre;">100k</text></g></g><g class="overaxes-above"/></g><g class="subplot x2y2"><g class="layer-subplot"><g class="shapelayer"/><g class="imagelayer"/></g><g class="gridlayer"><g class="x2"><path class="x2grid crisp" transform="translate(494.33000000000004,0)" d="M0,100v270" style="stroke: rgb(40, 52, 66); stroke-opacity: 1; stroke-width: 1px;"/><path class="x2grid crisp" transform="translate(561.07,0)" d="M0,100v270" style="stroke: rgb(40, 52, 66); stroke-opacity: 1; stroke-width: 1px;"/><path class="x2grid crisp" transform="translate(628.5300000000001,0)" d="M0,100v270" style="stroke: rgb(40, 52, 66); stroke-opacity: 1; stroke-width: 1px;"/><path class="x2grid crisp" transform="translate(696,0)" d="M0,100v270" style="stroke: rgb(40, 52, 66); stroke-opacity: 1; stroke-width: 1px;"/></g><g class="y2"><path class="y2grid crisp" transform="translate(0,298.78)" d="M443.00000000000006,0h296.99999999999994" style="stroke: rgb(40, 52, 66); stroke-opacity: 1; stroke-width: 1px;"/><path class="y2grid crisp" transform="translate(0,241.06)" d="M443.00000000000006,0h296.99999999999994" style="stroke: rgb(40, 52, 66); stroke-opacity: 1; stroke-width: 1px;"/><path class="y2grid crisp" transform="translate(0,183.34)" d="M443.00000000000006,0h296.99999999999994" style="stroke: rgb(40, 52, 66); stroke-opacity: 1; stroke-width: 1px;"/><path class="y2grid crisp" transform="translate(0,125.62)" d="M443.00000000000006,0h296.99999999999994" style="stroke: rgb(40, 52, 66); stroke-opacity: 1; stroke-width: 1px;"/></g></g><g class="zerolinelayer"><path class="y2zl zl crisp" transform="translate(0,356.5)" d="M443.00000000000006,0h296.99999999999994" style="stroke: rgb(40, 52, 66); stroke-opacity: 1; stroke-width: 2px;"/></g><path class="xlines-below"/><path class="ylines-below"/><g class="overlines-below"/><g class="xaxislayer-below"/><g class="yaxislayer-below"/><g class="overaxes-below"/><g class="plot" transform="translate(443.00000000000006, 100)" clip-path="url('#clip49004fx2y2plot')"><g class="scatterlayer mlayer"><g class="trace scatter trace74c4a0" style="stroke-miterlimit: 2; opacity: 1;"><g class="fills"/><g class="errorbars"/><g class="lines"><path class="js-line" d="M0,256.5L48.4,255.81L49.13,255.69L55,255L55.73,254.77L60.87,253.84L61.6,252.34L64.53,251.65L65.27,251.65L71.87,249.92L72.6,249.57L77,248.88L77.73,248.77L79.93,248.3L80.67,248.3L85.07,246.92L85.8,246.92L89.47,245.88L90.2,245.76L98.27,245.3L99,244.84L102.67,244.38L103.4,244.03L112.93,242.42L113.67,241.72L120.27,240.34L121,240.34L123.93,239.65L124.67,239.53L129.07,238.72L129.8,237.91L132.73,237.22L133.47,236.76L137.87,235.61L138.6,235.61L145.93,234.22L146.67,232.83L148.13,232.83L148.87,232.03L151.8,230.99L152.53,230.99L156.93,229.49L157.67,229.49L159.87,228.33L160.6,227.99L161.33,227.99L162.07,226.72L163.53,226.83L164.27,224.87L165.73,222.33L166.47,221.98L170.13,221.52L170.87,219.56L171.6,219.56L172.33,218.17L173.07,218.06L173.8,215.4L174.53,215.4L175.27,214.36L177.47,213.33L178.2,213.33L179.67,210.9L180.4,210.67L181.87,209.86L182.6,209.63L184.8,208.94L185.53,208.02L188.47,207.44L189.2,207.21L190.67,205.71L191.4,205.71L192.87,206.17L193.6,206.17L194.33,206.75L195.07,205.48L195.8,206.51L196.53,205.82L197.27,205.48L198,206.51L200.2,206.28L200.93,203.86L205.33,203.17L206.07,203.05L211.2,202.82L211.93,202.13L214.13,201.78L214.87,201.78L216.33,200.4L217.07,200.4L220.73,199.47L221.47,199.36L222.93,198.9L223.67,198.9L227.33,198.2L228.07,197.51L236.13,195.78L236.87,194.97L241.27,191.51L242,190.24L242.73,190.24L243.47,188.97L245.67,188.62L246.4,186.2L247.87,185.04L248.6,185.04L250.07,184.35L250.8,184.35L252.27,184.35L253,180.77L256.67,180.77L257.4,176.04L258.13,176.04L258.87,172.34L261.07,171.54L261.8,169.34L265.47,169.11L266.2,168.3L267.67,168.07L268.4,159.3L269.87,157.68L270.6,153.3L271.33,153.07L272.07,151.91L275,144.06L275.73,143.37L276.47,143.14L277.2,142.1L277.93,141.18L278.67,138.64L280.87,136.33L281.6,136.33L283.8,133.67L284.53,130.9L286,127.21L286.73,127.09L288.93,126.52L289.67,121.32L290.4,121.32L291.13,117.97L292.6,117.97L293.33,115.89L294.07,115.2L294.8,113.24L297,113.12" style="vector-effect: non-scaling-stroke; fill: none; stroke: rgb(230, 25, 75); stroke-opacity: 1; stroke-width: 2px; opacity: 1;"/></g><g class="points"/><g class="text"/></g><g class="trace scatter trace831d50" style="stroke-miterlimit: 2; opacity: 1;"><g class="fills"/><g class="errorbars"/><g class="lines"><path class="js-line" d="M0,256.5L47.67,255.92L48.4,255.35L50.6,254.65L51.33,253.84L53.53,250.04L54.27,249.34L55.73,246.69L56.47,244.84L57.93,242.53L58.67,241.26L60.87,239.3L61.6,237.34L63.8,232.03L64.53,231.45L65.27,230.87L66,227.29L67.47,227.29L68.2,221.75L69.67,219.33L70.4,218.4L71.87,214.13L72.6,210.67L74.07,207.32L74.8,205.71L75.53,204.9L76.27,202.36L84.33,185.27L85.07,184.23L88,180.19L88.73,178.23L90.2,177.31L90.93,176.85L91.67,176.62L92.4,175.23L96.07,171.07L96.8,170.73L98.27,168.42L99,168.19L100.47,167.15L101.2,166.34L107.07,161.15L107.8,160.92L110.73,158.72L111.47,158.38L112.93,156.53L113.67,156.3L114.4,155.84L115.13,147.87L118.8,145.56L119.53,144.87L121.73,144.06L122.47,143.14L126.13,141.41L126.87,141.41L132,139.91L132.73,139.56L134.2,139.68L134.93,139.44L137.13,139.68L137.87,139.68L139.33,139.44L140.07,139.44L149.6,138.75L150.33,138.75L164.27,138.06L165,137.94L167.2,137.6L167.93,137.6L172.33,136.9L173.07,136.79L185.53,135.29L186.27,135.29L199.47,134.6L200.2,134.25L205.33,133.33L206.07,133.33L210.47,132.63L211.2,132.52L217.8,131.02L218.53,131.02L224.4,129.63L225.13,129.17L231.73,124.32L232.47,123.74L234.67,122.82L235.4,121.44L237.6,117.97L238.33,116.93L239.8,116.47L240.53,115.32L245.67,110.24L246.4,107.35L250.8,103.54L251.53,101L252.27,99.96L253,97.08L255.2,96.39L255.93,93.85L258.87,87.84L259.6,87.84L260.33,87.84L261.07,85.19L264,79.42L264.73,78.95L266.2,78.26L266.93,76.65L269.13,71.8L269.87,71.68L270.6,71.45L271.33,69.26L274.27,66.14L275,65.91L275.73,65.68L276.47,63.72L279.4,58.52L280.13,58.41L281.6,56.91L282.33,56.1L284.53,53.44L285.27,53.21L286.73,52.98L287.47,50.21L289.67,47.55L290.4,47.32L291.13,47.21L291.87,46.05L294.8,42.13L295.53,42.13L296.27,42.01L297,41.09" style="vector-effect: non-scaling-stroke; fill: none; stroke: rgb(60, 180, 75); stroke-opacity: 1; stroke-width: 2px; opacity: 1;"/></g><g class="points"/><g class="text"/></g><g class="trace scatter traceab03f6" style="stroke-miterlimit: 2; opacity: 1;"><g class="fills"/><g class="errorbars"/><g class="lines"><path class="js-line" d="M0,256.5L52.8,255.81L53.53,255.58L56.47,254.54L57.2,254.19L60.87,253.5L61.6,252.92L68.2,251.54L68.93,251.54L73.33,250.61L74.07,250.15L76.27,249.57L77,249.11L80.67,248.42L81.4,248.07L88.73,245.88L89.47,245.88L91.67,245.42L92.4,244.38L103.4,240.92L104.13,239.07L107.8,238.72L108.53,238.26L113.67,236.3L114.4,235.61L116.6,235.03L117.33,234.34L122.47,233.18L123.2,232.49L126.13,230.64L126.87,230.64L129.07,229.6L129.8,229.37L133.47,226.83L134.2,226.49L136.4,225.68L137.13,226.02L140.8,223.72L141.53,223.6L152.53,217.94L153.27,217.25L154.73,216.56L155.47,214.94L159.13,213.33L159.87,212.98L164.27,211.59L165,211.13L167.2,210.09L167.93,210.09L172.33,207.21L173.07,207.09L176,205.36L176.73,205.01L183.33,203.4L184.07,202.71L187,200.74L187.73,200.28L189.93,199.82L190.67,196.01L193.6,194.39L194.33,194.16L196.53,193.24L197.27,193.12L206.8,190.58L207.53,190.58L209,190.47L209.73,189.78L211.93,189.31L212.67,188.85L214.87,188.04L215.6,186.89L224.4,182.97L225.13,182.04L227.33,180.54L228.07,180.54L228.8,180.31L229.53,179.04L230.27,179.04L231,177.89L241.27,168.65L242,166.23L243.47,163.92L244.2,162.42L245.67,161.38L246.4,160.11L249.33,158.72L250.07,157.34L252.27,152.26L253,152.26L254.47,150.18L255.2,148.1L255.93,147.18L256.67,143.72L258.87,139.21L259.6,137.71L261.07,134.71L261.8,131.83L263.27,129.29L264,127.79L265.47,126.28L266.2,126.28L269.13,121.2L269.87,120.51L270.6,119.59L271.33,116.7L275.73,109.78L276.47,108.97L279.4,99.96L280.13,99.85L282.33,96.62L283.07,93.73L284.53,92L285.27,91.19L287.47,90.84L288.2,89.92L291.87,89L292.6,86.57L293.33,86.11L294.07,84.73L297,84.26" style="vector-effect: non-scaling-stroke; fill: none; stroke: rgb(255, 225, 25); stroke-opacity: 1; stroke-width: 2px; opacity: 1;"/></g><g class="points"/><g class="text"/></g><g class="trace scatter trace9241be" style="stroke-miterlimit: 2; opacity: 1;"><g class="fills"/><g class="errorbars"/><g class="lines"><path class="js-line" d="M0,256.5L45.47,256.38L46.2,255.58L49.13,255.35L49.87,254.31L50.6,253.61L51.33,249.11L52.8,248.3L53.53,233.76L55,229.6L55.73,223.83L56.47,220.14L57.2,211.59L57.93,211.59L58.67,203.28L62.33,179.39L63.07,179.39L63.8,179.39L64.53,170.73L69.67,147.29L70.4,145.45L71.13,145.33L71.87,140.37L74.8,131.13L75.53,129.4L76.27,127.67L77,121.78L79.93,115.89L80.67,114.86L85.8,107.01L86.53,106.66L93.13,99.85L93.87,99.62L95.33,99.62L96.07,97.89L101.2,95.46L101.93,95.35L105.6,94.42L106.33,94.31L109.27,93.73L110,93.38L135.67,89.92L136.4,89.92L159.13,89.23L159.87,89.11L187,88.42L187.73,88.3L195.8,87.61L196.53,87.38L205.33,86.69L206.07,86.69L213.4,86.11L214.13,85.77L221.47,84.03L222.2,83.57L225.13,83.11L225.87,82.65L228.07,81.72L228.8,81.72L231,81.03L231.73,80.45L235.4,78.84L236.13,78.15L243.47,71.8L244.2,71.1L246.4,71.1L247.13,67.76L249.33,67.76L250.07,65.79L252.27,64.41L253,63.14L255.2,62.22L255.93,61.18L256.67,60.6L257.4,58.98L258.87,57.83L259.6,56.79L261.8,54.48L262.53,52.98L266.93,46.52L267.67,45.94L275,36.47L275.73,35.2L280.87,28.39L281.6,27.47L283.8,24.47L284.53,23.89L291.13,18.23L291.87,18.23L293.33,16.27L294.07,15.58L295.53,14.42L296.27,13.96L297,13.5" style="vector-effect: non-scaling-stroke; fill: none; stroke: rgb(67, 99, 216); stroke-opacity: 1; stroke-width: 2px; opacity: 1;"/></g><g class="points"/><g class="text"/></g><g class="trace scatter tracecb2f87" style="stroke-miterlimit: 2; opacity: 1;"><g class="fills"/><g class="errorbars"/><g class="lines"><path class="js-line" d="M0,256.5L55.73,255.81L56.47,255.35L62.33,253.5L63.07,251.54L65.27,250.15L66,248.77L70.4,247.38L71.13,246.57L71.87,246.57L72.6,245.65L74.8,244.73L75.53,244.73L77.73,242.99L78.47,242.76L81.4,241.84L82.13,240.45L86.53,239.76L87.27,239.53L88.73,238.72L89.47,238.26L104.87,236.64L105.6,236.64L110,235.84L110.73,235.84L117.33,235.37L118.07,234.91L132,232.49L132.73,232.14L135.67,231.33L136.4,231.33L137.87,230.76L138.6,230.3L140.8,229.6L141.53,229.49L143.73,228.91L144.47,228.45L148.13,227.18L148.87,226.6L150.33,225.91L151.07,225.45L154,224.52L154.73,223.95L156.93,222.68L157.67,222.68L162.8,220.37L163.53,220.25L167.93,218.75L168.67,218.75L170.87,218.29L171.6,218.29L173.8,217.83L174.53,217.14L189.2,214.13L189.93,213.79L194.33,213.33L195.07,212.86L197.27,211.82L198,211.82L200.93,210.44L201.67,209.98L214.87,206.28L215.6,206.17L217.07,205.71L217.8,205.71L220.73,204.21L221.47,203.17L230.27,196.7L231,194.62L232.47,191.85L233.2,191.39L234.67,190.35L235.4,188.62L239.07,176.73L239.8,176.15L244.2,161.49L244.93,160.69L248.6,151.91L249.33,150.76L250.07,149.72L250.8,146.6L253.73,136.33L254.47,135.63L255.93,132.98L256.67,129.63L260.33,118.9L261.07,117.05L263.27,106.2L264,103.89L265.47,102.27L266.2,102.04L268.4,93.38L269.13,92.35L269.87,92.35L270.6,90.84L274.27,81.49L275,81.03L275.73,80.92L276.47,79.19L278.67,74.57L279.4,73.41L282.33,70.87L283.07,69.49L285.27,66.72L286,66.49L286.73,66.37L287.47,65.1L290.4,61.98L291.13,61.52L291.87,61.52L292.6,59.79L297,56.79" style="vector-effect: non-scaling-stroke; fill: none; stroke: rgb(245, 130, 49); stroke-opacity: 1; stroke-width: 2px; opacity: 1;"/></g><g class="points"/><g class="text"/></g><g class="trace scatter trace45ce02" style="stroke-miterlimit: 2; opacity: 1;"><g class="fills"/><g class="errorbars"/><g class="lines"><path class="js-line" d="M0,256.5L62.33,255.81L63.07,255.69L71.13,255.11L71.87,254.88L77.73,253.5L78.47,253.15L82.13,252.11L82.87,251.42L84.33,250.96L85.07,250.96L92.4,250.38L93.13,249.34L102.67,248.77L103.4,248.53L107.07,247.73L107.8,247.26L111.47,246.8L112.2,246.8L118.8,246.23L119.53,246L122.47,245.76L123.2,245.19L131.27,244.61L132,244.61L134.2,244.26L134.93,244.26L142.27,243.57L143,243.46L174.53,242.76L175.27,242.65L178.2,242.3L178.93,242.3L198.73,241.61L199.47,241.49L220.73,240.8L221.47,240.57L230.27,239.88L231,239.88L232.47,239.18L233.2,239.18L250.8,238.49L251.53,238.26L261.07,237.45L261.8,237.45L271.33,236.76L272.07,236.53L277.2,235.26L277.93,235.26L282.33,234.45L283.07,234.45L286.73,233.99L287.47,233.99L290.4,233.41L291.13,233.07L294.07,231.8L294.8,230.99L297,228.1" style="vector-effect: non-scaling-stroke; fill: none; stroke: rgb(145, 30, 180); stroke-opacity: 1; stroke-width: 2px; opacity: 1;"/></g><g class="points"/><g class="text"/></g></g></g><g class="overplot"/><path class="xlines-above crisp" d="M0,0" style="fill: none;"/><path class="ylines-above crisp" d="M0,0" style="fill: none;"/><g class="overlines-above"/><g class="xaxislayer-above"><g class="x2tick"><text text-anchor="middle" x="0" y="383" transform="translate(494.33000000000004,0)" style="font-family: 'Open Sans', verdana, arial, sans-serif; font-size: 12px; fill: rgb(242, 245, 250); fill-opacity: 1; white-space: pre;">Apr 2020</text></g><g class="x2tick"><text text-anchor="middle" x="0" y="383" transform="translate(561.07,0)" style="font-family: 'Open Sans', verdana, arial, sans-serif; font-size: 12px; fill: rgb(242, 245, 250); fill-opacity: 1; white-space: pre;">Jul 2020</text></g><g class="x2tick"><text text-anchor="middle" x="0" y="383" transform="translate(628.5300000000001,0)" style="font-family: 'Open Sans', verdana, arial, sans-serif; font-size: 12px; fill: rgb(242, 245, 250); fill-opacity: 1; white-space: pre;">Oct 2020</text></g><g class="x2tick"><text text-anchor="middle" x="0" y="383" transform="translate(696,0)" style="font-family: 'Open Sans', verdana, arial, sans-serif; font-size: 12px; fill: rgb(242, 245, 250); fill-opacity: 1; white-space: pre;">Jan 2021</text></g></g><g class="yaxislayer-above"><g class="y2tick"><text text-anchor="end" x="442.00000000000006" y="4.199999999999999" transform="translate(0,356.5)" style="font-family: 'Open Sans', verdana, arial, sans-serif; font-size: 12px; fill: rgb(242, 245, 250); fill-opacity: 1; white-space: pre;">0</text></g><g class="y2tick"><text text-anchor="end" x="442.00000000000006" y="4.199999999999999" transform="translate(0,298.78)" style="font-family: 'Open Sans', verdana, arial, sans-serif; font-size: 12px; fill: rgb(242, 245, 250); fill-opacity: 1; white-space: pre;">500</text></g><g class="y2tick"><text text-anchor="end" x="442.00000000000006" y="4.199999999999999" transform="translate(0,241.06)" style="font-family: 'Open Sans', verdana, arial, sans-serif; font-size: 12px; fill: rgb(242, 245, 250); fill-opacity: 1; white-space: pre;">1000</text></g><g class="y2tick"><text text-anchor="end" x="442.00000000000006" y="4.199999999999999" transform="translate(0,183.34)" style="font-family: 'Open Sans', verdana, arial, sans-serif; font-size: 12px; fill: rgb(242, 245, 250); fill-opacity: 1; white-space: pre;">1500</text></g><g class="y2tick"><text text-anchor="end" x="442.00000000000006" y="4.199999999999999" transform="translate(0,125.62)" style="font-family: 'Open Sans', verdana, arial, sans-serif; font-size: 12px; fill: rgb(242, 245, 250); fill-opacity: 1; white-space: pre;">2000</text></g></g><g class="overaxes-above"/></g></g><g class="polarlayer"/><g class="ternarylayer"/><g class="geolayer"/><g class="funnelarealayer"/><g class="pielayer"/><g class="treemaplayer"/><g class="sunburstlayer"/><g class="glimages"/><defs id="topdefs-49004f"><g class="clips"/><clipPath id="legend49004f"><rect width="135" height="124" x="0" y="0"/></clipPath></defs><g class="layer-above"><g class="imagelayer"/><g class="shapelayer"/></g><g class="infolayer"><g class="legend" pointer-events="all" transform="translate(753.2, 100)"><rect class="bg" shape-rendering="crispEdges" width="135" height="124" x="0" y="0" style="stroke: rgb(68, 68, 68); stroke-opacity: 1; fill: rgb(17, 17, 17); fill-opacity: 1; stroke-width: 0px;"/><g class="scrollbox" transform="translate(0, 0)" clip-path="url('#legend49004f')"><g class="groups"><g class="traces" transform="translate(0, 14.5)" style="opacity: 1;"><text class="legendtext user-select-none" text-anchor="start" x="40" y="4.680000000000001" style="font-family: 'Open Sans', verdana, arial, sans-serif; font-size: 12px; fill: rgb(242, 245, 250); fill-opacity: 1; white-space: pre;">Alameda, CA</text><g class="layers" style="opacity: 1;"><g class="legendfill"/><g class="legendlines"><path class="js-line" d="M5,0h30" style="fill: none; stroke: rgb(230, 25, 75); stroke-opacity: 1; stroke-width: 2px;"/></g><g class="legendsymbols"><g class="legendpoints"/></g></g><rect class="legendtoggle" pointer-events="all" x="0" y="-9.5" width="129.15625" height="19" style="cursor: pointer; fill: rgb(0, 0, 0); fill-opacity: 0;"/></g><g class="traces" transform="translate(0, 33.5)" style="opacity: 1;"><text class="legendtext user-select-none" text-anchor="start" x="40" y="4.680000000000001" style="font-family: 'Open Sans', verdana, arial, sans-serif; font-size: 12px; fill: rgb(242, 245, 250); fill-opacity: 1; white-space: pre;">Ocean, NJ</text><g class="layers" style="opacity: 1;"><g class="legendfill"/><g class="legendlines"><path class="js-line" d="M5,0h30" style="fill: none; stroke: rgb(60, 180, 75); stroke-opacity: 1; stroke-width: 2px;"/></g><g class="legendsymbols"><g class="legendpoints"/></g></g><rect class="legendtoggle" pointer-events="all" x="0" y="-9.5" width="129.15625" height="19" style="cursor: pointer; fill: rgb(0, 0, 0); fill-opacity: 0;"/></g><g class="traces" transform="translate(0, 52.5)" style="opacity: 1;"><text class="legendtext user-select-none" text-anchor="start" x="40" y="4.680000000000001" style="font-family: 'Open Sans', verdana, arial, sans-serif; font-size: 12px; fill: rgb(242, 245, 250); fill-opacity: 1; white-space: pre;">Shelby, TN</text><g class="layers" style="opacity: 1;"><g class="legendfill"/><g class="legendlines"><path class="js-line" d="M5,0h30" style="fill: none; stroke: rgb(255, 225, 25); stroke-opacity: 1; stroke-width: 2px;"/></g><g class="legendsymbols"><g class="legendpoints"/></g></g><rect class="legendtoggle" pointer-events="all" x="0" y="-9.5" width="129.15625" height="19" style="cursor: pointer; fill: rgb(0, 0, 0); fill-opacity: 0;"/></g><g class="traces" transform="translate(0, 71.5)" style="opacity: 1;"><text class="legendtext user-select-none" text-anchor="start" x="40" y="4.680000000000001" style="font-family: 'Open Sans', verdana, arial, sans-serif; font-size: 12px; fill: rgb(242, 245, 250); fill-opacity: 1; white-space: pre;">Westchester, NY</text><g class="layers" style="opacity: 1;"><g class="legendfill"/><g class="legendlines"><path class="js-line" d="M5,0h30" style="fill: none; stroke: rgb(67, 99, 216); stroke-opacity: 1; stroke-width: 2px;"/></g><g class="legendsymbols"><g class="legendpoints"/></g></g><rect class="legendtoggle" pointer-events="all" x="0" y="-9.5" width="129.15625" height="19" style="cursor: pointer; fill: rgb(0, 0, 0); fill-opacity: 0;"/></g><g class="traces" transform="translate(0, 90.5)" style="opacity: 1;"><text class="legendtext user-select-none" text-anchor="start" x="40" y="4.680000000000001" style="font-family: 'Open Sans', verdana, arial, sans-serif; font-size: 12px; fill: rgb(242, 245, 250); fill-opacity: 1; white-space: pre;">Allegheny, PA</text><g class="layers" style="opacity: 1;"><g class="legendfill"/><g class="legendlines"><path class="js-line" d="M5,0h30" style="fill: none; stroke: rgb(245, 130, 49); stroke-opacity: 1; stroke-width: 2px;"/></g><g class="legendsymbols"><g class="legendpoints"/></g></g><rect class="legendtoggle" pointer-events="all" x="0" y="-9.5" width="129.15625" height="19" style="cursor: pointer; fill: rgb(0, 0, 0); fill-opacity: 0;"/></g><g class="traces" transform="translate(0, 109.5)" style="opacity: 1;"><text class="legendtext user-select-none" text-anchor="start" x="40" y="4.680000000000001" style="font-family: 'Open Sans', verdana, arial, sans-serif; font-size: 12px; fill: rgb(242, 245, 250); fill-opacity: 1; white-space: pre;">Loudoun, VA</text><g class="layers" style="opacity: 1;"><g class="legendfill"/><g class="legendlines"><path class="js-line" d="M5,0h30" style="fill: none; stroke: rgb(145, 30, 180); stroke-opacity: 1; stroke-width: 2px;"/></g><g class="legendsymbols"><g class="legendpoints"/></g></g><rect class="legendtoggle" pointer-events="all" x="0" y="-9.5" width="129.15625" height="19" style="cursor: pointer; fill: rgb(0, 0, 0); fill-opacity: 0;"/></g></g></g><rect class="scrollbar" rx="20" ry="3" width="0" height="0" x="0" y="0" style="fill: rgb(128, 139, 164); fill-opacity: 1;"/></g><g class="g-gtitle"/><g class="g-xtitle"><text class="xtitle" x="228.5" y="410.8" text-anchor="middle" style="font-family: 'Open Sans', verdana, arial, sans-serif; font-size: 14px; fill: rgb(242, 245, 250); opacity: 1; font-weight: normal; white-space: pre;">Date</text></g><g class="g-x2title"><text class="x2title" x="591.5" y="410.8" text-anchor="middle" style="font-family: 'Open Sans', verdana, arial, sans-serif; font-size: 14px; fill: rgb(242, 245, 250); opacity: 1; font-weight: normal; white-space: pre;">Date</text></g><g class="g-ytitle"><text class="ytitle" transform="rotate(-90,28.168750000000003,235)" x="28.168750000000003" y="235" text-anchor="middle" style="font-family: 'Open Sans', verdana, arial, sans-serif; font-size: 14px; fill: rgb(242, 245, 250); opacity: 1; font-weight: normal; white-space: pre;">Cases</text></g><g class="g-y2title"><text class="y2title" transform="rotate(-90,390.496875,235)" x="390.496875" y="235" text-anchor="middle" style="font-family: 'Open Sans', verdana, arial, sans-serif; font-size: 14px; fill: rgb(242, 245, 250); opacity: 1; font-weight: normal; white-space: pre;">Deaths</text></g><g class="annotation" data-index="0" style="opacity: 1;"><g class="annotation-text-g" transform="rotate(0,228.5,89.5)"><g class="cursor-pointer" transform="translate(204, 79)"><rect class="bg" x="0.5" y="0.5" width="48" height="20" style="stroke-width: 1px; stroke: rgb(0, 0, 0); stroke-opacity: 0; fill: rgb(0, 0, 0); fill-opacity: 0;"/><text class="annotation-text" text-anchor="middle" x="24.6875" y="16" style="font-family: 'Open Sans', verdana, arial, sans-serif; font-size: 16px; fill: rgb(242, 245, 250); fill-opacity: 1; white-space: pre;">Cases</text></g></g></g><g class="annotation" data-index="1" style="opacity: 1;"><g class="annotation-text-g" transform="rotate(0,591.5,89.5)"><g class="cursor-pointer" transform="translate(564, 79)"><rect class="bg" x="0.5" y="0.5" width="54" height="20" style="stroke-width: 1px; stroke: rgb(0, 0, 0); stroke-opacity: 0; fill: rgb(0, 0, 0); fill-opacity: 0;"/><text class="annotation-text" text-anchor="middle" x="27.359375" y="16" style="font-family: 'Open Sans', verdana, arial, sans-serif; font-size: 16px; fill: rgb(242, 245, 250); fill-opacity: 1; white-space: pre;">Deaths</text></g></g></g></g></svg>