<svg class="main-svg" xmlns="http://www.w3.org/2000/svg" xmlns:xlink="http://www.w3.org/1999/xlink" width="900" height="450" style="" viewBox="0 0 900 450"><rect x="0" y="0" width="900" height="450" style="fill: rgb(17, 17, 17); fill-opacity: 1;"/><defs id="defs-0e0129"><g class="clips"><clipPath id="clip0e0129xyplot" class="plotclip"><rect width="297.90000000000003" height="270"/></clipPath><clipPath id="clip0e0129x2y2plot" class="plotclip"><rect width="297.9" height="270"/></clipPath><clipPath class="axesclip" id="clip0e0129x"><rect x="80" y="0" width="297.90000000000003" height="450"/></clipPath><clipPath class="axesclip" id="clip0e0129y"><rect x="0" y="100" width="900" height="270"/></clipPath><clipPath class="axesclip" id="clip0e0129xy"><rect x="80" y="100" width="297.90000000000003" height="270"/></clipPath><clipPath class="axesclip" id="clip0e0129y2"><rect x="0" y="100" width="900" height="270"/></clipPath><clipPath class="axesclip" id="clip0e0129xy2"><rect x="80" y="100" width="297.90000000000003" height="270"/></clipPath><clipPath class="axesclip" id="clip0e0129x2"><rect x="444.1" y="0" width="297.9" height="450"/></clipPath><clipPath class="axesclip" id="clip0e0129x2y"><rect x="444.1" y="100" width="297.9" height="270"/></clipPath><clipPath class="axesclip" id="clip0e0129x2y2"><rect x="444.1" y="100" width="297.9" height="270"/></clipPath></g><g class="gradients"/></defs><g class="bglayer"/><g class="layer-below"><g class="imagelayer"/><g class="shapelayer"/></g><g class="cartesianlayer"><g class="subplot xy"><g class="layer-subplot"><g class="shapelayer"/><g class="imagelayer"/></g><g class="gridlayer"><g class="x"><path class="xgrid crisp" transform="translate(124.68,0)" d="M0,100v270" style="stroke: rgb(40, 52, 66); stroke-opacity: 1; stroke-width: 1px;"/><path class="xgrid crisp" transform="translate(194.57999999999998,0)" d="M0,100v270" style="stroke: rgb(40, 52, 66); stroke-opacity: 1; stroke-width: 1px;"/><path class="xgrid crisp" transform="translate(264.47,0)" d="M0,100v270" style="stroke: rgb(40, 52, 66); stroke-opacity: 1; stroke-width: 1px;"/><path class="xgrid crisp" transform="translate(335.51,0)" d="M0,100v270" style="stroke: rgb(40, 52, 66); stroke-opacity: 1; stroke-width: 1px;"/></g><g class="y"><path class="ygrid crisp" transform="translate(0,287.19)" d="M80,0h297.90000000000003" style="stroke: rgb(40, 52, 66); stroke-opacity: 1; stroke-width: 1px;"/><path class="ygrid crisp" transform="translate(0,217.88)" d="M80,0h297.90000000000003" style="stroke: rgb(40, 52, 66); stroke-opacity: 1; stroke-width: 1px;"/><path class="ygrid crisp" transform="translate(0,148.57)" d="M80,0h297.90000000000003" style="stroke: rgb(40, 52, 66); stroke-opacity: 1; stroke-width: 1px;"/></g></g><g class="zerolinelayer"><path class="yzl zl crisp" transform="translate(0,356.5)" d="M80,0h297.90000000000003" style="stroke: rgb(40, 52, 66); stroke-opacity: 1; stroke-width: 2px;"/></g><path class="xlines-below"/><path class="ylines-below"/><g class="overlines-below"/><g class="xaxislayer-below"/><g class="yaxislayer-below"/><g class="overaxes-below"/><g class="plot" transform="translate(80, 100)" clip-path="url('#clip0e0129xyplot')"><g class="scatterlayer mlayer"><g class="trace scatter trace756221" style="stroke-miterlimit: 2; opacity: 1;"><g class="fills"/><g class="errorbars"/><g class="lines"><path class="js-line" d="M0,256.5L73.33,255.94L74.47,255.74L120.31,250.04L121.45,249.86L143.22,246.15L144.37,245.93L152.39,244.2L153.53,243.88L171.87,239.85L173.01,239.85L177.59,237.85L178.74,237.46L184.47,235.17L185.61,234.38L191.34,232.63L192.49,231.39L198.22,228.86L199.36,227.66L209.68,222.3L210.82,221.1L216.55,219.17L217.7,217.93L218.84,217.93L219.99,216.7L221.13,216.56L222.28,215.45L228.01,214.44L229.15,210.76L230.3,210.69L231.45,209.15L233.74,207.19L234.88,206.05L236.03,206.05L237.17,204.09L238.32,204.07L239.47,203L242.9,199.43L244.05,198.65L246.34,198.51L247.49,196.63L249.78,195.44L250.92,194.65L253.22,193.98L254.36,193.47L258.94,190.74L260.09,190.2L261.24,190.2L262.38,189.44L263.53,189.44L264.67,188.59L271.55,186.86L272.69,186.86L278.42,184.97L279.57,184.6L293.32,181.27L294.46,181.14L297.9,180.48" style="vector-effect: non-scaling-stroke; fill: none; stroke: rgb(230, 25, 75); stroke-opacity: 1; stroke-width: 2px; opacity: 1;"/></g><g class="points"/><g class="text"/></g><g class="trace scatter trace66c426" style="stroke-miterlimit: 2; opacity: 1;"><g class="fills"/><g class="errorbars"/><g class="lines"><path class="js-line" d="M0,256.5L75.62,255.79L76.77,255.72L99.68,253.23L100.83,253.17L123.74,251.65L124.89,251.54L140.93,249.97L142.08,249.78L152.39,248.24L153.53,247.91L162.7,245.08L163.84,244.36L167.28,242.54L168.43,241.69L175.3,235.1L176.45,232.62L178.74,228.71L179.89,224.86L182.18,220.73L183.32,219.24L189.05,206.82L190.2,205.64L205.09,174.35L206.24,172.86L210.82,166.27L211.97,164.23L223.42,149.77L224.57,148.39L230.3,143.07L231.45,142.15L241.76,135L242.9,134.19L245.19,132.71L246.34,132.39L250.92,129.76L252.07,129.03L261.24,123.34L262.38,122.92L268.11,120.32L269.26,119.79L274.98,116.67L276.13,115.85L297.9,105.48" style="vector-effect: non-scaling-stroke; fill: none; stroke: rgb(60, 180, 75); stroke-opacity: 1; stroke-width: 2px; opacity: 1;"/></g><g class="points"/><g class="text"/></g><g class="trace scatter tracef343a8" style="stroke-miterlimit: 2; opacity: 1;"><g class="fills"/><g class="errorbars"/><g class="lines"><path class="js-line" d="M0,256.5L69.89,255.98L71.04,255.64L74.47,254.96L75.62,254.67L76.77,254.67L77.91,253.89L91.66,249.07L92.81,249.07L96.24,249.07L97.39,247.4L112.29,243.02L113.43,242.71L114.58,242.71L115.72,241.86L122.6,241.2L123.74,240.2L128.33,239.02L129.47,238.67L138.64,236.35L139.78,235.54L150.1,233.22L151.24,233.22L160.41,229.07L161.55,228.43L170.72,222.36L171.87,220.95L175.3,217.74L176.45,216.71L178.74,214.21L179.89,210.85L184.47,202.43L185.61,200.43L189.05,192.59L190.2,191.29L192.49,186.75L193.63,185.04L200.51,167.75L201.66,163.19L206.24,147.99L207.38,145.52L213.11,129.69L214.26,126.57L221.13,106.98L222.28,103.79L224.57,98.6L225.72,96.45L230.3,86.17L231.45,84.45L233.74,81.26L234.88,78.18L239.47,69.1L240.61,68.14L241.76,66.61L242.9,62.4L244.05,62.4L245.19,60.83L249.78,56.35L250.92,54.49L254.36,50.58L255.51,50.58L256.65,49.07L257.8,49.07L260.09,45.74L261.24,44.29L263.53,43.23L264.67,42.88L278.42,33.71L279.57,33.71L280.71,33.08L281.86,30.64L287.59,24.67L288.73,23.71L289.88,22.59L291.03,20.29L294.46,16.86L295.61,16.86L297.9,13.5" style="vector-effect: non-scaling-stroke; fill: none; stroke: rgb(255, 225, 25); stroke-opacity: 1; stroke-width: 2px; opacity: 1;"/></g><g class="points"/><g class="text"/></g><g class="trace scatter traceee0373" style="stroke-miterlimit: 2; opacity: 1;"><g class="fills"/><g class="errorbars"/><g class="lines"><path class="js-line" d="M0,256.5L95.1,255.75L96.24,255.67L167.28,252.42L168.43,252.22L179.89,249.27L181.03,248.93L184.47,248.19L185.61,247.8L195.93,244.38L197.07,243.14L198.22,243.14L199.36,242.03L203.95,237.21L205.09,236.09L206.24,236.09L207.38,234.97L210.82,231.68L211.97,229.38L214.26,229.38L215.4,228.08L218.84,221.31L219.99,218.48L221.13,218.48L222.28,209.66L223.42,205.28L224.57,204.11L228.01,200.05L229.15,200.05L236.03,194.76L237.17,194.76L246.34,189.88L247.49,187.67L248.63,187.67L249.78,185.05L253.22,184.24L254.36,184.24L258.94,182.13L260.09,181.77L263.53,181.77L264.67,180.95L272.69,179.49L273.84,179.3L285.3,177.84L286.44,177.84L292.17,176.98L293.32,176.98L297.9,176.35" style="vector-effect: non-scaling-stroke; fill: none; stroke: rgb(67, 99, 216); stroke-opacity: 1; stroke-width: 2px; opacity: 1;"/></g><g class="points"/><g class="text"/></g><g class="trace scatter trace8a322b" style="stroke-miterlimit: 2; opacity: 1;"><g class="fills"/><g class="errorbars"/><g class="lines"><path class="js-line" d="M0,256.5L79.06,255.78L80.2,255.71L90.52,254.2L91.66,253.99L107.7,252.36L108.85,252.23L120.31,250.69L121.45,250.4L155.82,245.61L156.97,245.1L160.41,244.33L161.55,243.86L168.43,239.6L169.57,238.68L179.89,225.81L181.03,223.05L183.32,219.08L184.47,214.69L186.76,211.87L187.91,207.25L191.34,204.16L192.49,201.47L194.78,196L195.93,196L200.51,196L201.66,162.77L202.8,161.11L203.95,157.27L205.09,149.64L206.24,147.98L208.53,140.22L209.68,136.48L210.82,135.45L211.97,132.82L214.26,130.23L215.4,124.87L218.84,115.1L219.99,113.94L223.42,113.47L224.57,112.29L229.15,108.24L230.3,107.63L236.03,104.04L237.17,103.84L241.76,102.44L242.9,101.8L244.05,100.01L245.19,99.67L249.78,97.74L250.92,96.8L253.22,95.7L254.36,95.56L258.94,92.99L260.09,92.53L263.53,91.07L264.67,90.55L268.11,89.47L269.26,83.52L274.98,81.19L276.13,80.59L277.28,71.65L278.42,71.3L284.15,68.34L285.3,58.47L286.44,58.25L287.59,56.62L292.17,54.87L293.32,53.16L295.61,52.25L296.75,51.51L297.9,50.92" style="vector-effect: non-scaling-stroke; fill: none; stroke: rgb(245, 130, 49); stroke-opacity: 1; stroke-width: 2px; opacity: 1;"/></g><g class="points"/><g class="text"/></g><g class="trace scatter trace6bfdfe" style="stroke-miterlimit: 2; opacity: 1;"><g class="fills"/><g class="errorbars"/><g class="lines"><path class="js-line" d="M0,256.5L68.75,255.83L69.89,255.7L75.62,254.81L76.77,254.7L99.68,248.83L100.83,248.64L105.41,247.34L106.56,246.71L123.74,239.95L124.89,239.43L142.08,232.95L143.22,232.65L152.39,229.48L153.53,228.98L156.97,227.13L158.12,226.63L166.14,223.2L167.28,222.78L169.57,221.53L170.72,220.63L173.01,219.09L174.16,218.05L175.3,218.05L176.45,216.21L179.89,212.01L181.03,210.29L186.76,202.11L187.91,202.11L189.05,198.54L190.2,197.59L193.63,192.73L194.78,191.13L215.4,159.45L216.55,158.47L224.57,149.54L225.72,148.63L229.15,143.02L230.3,142.23L233.74,139.86L234.88,138.45L249.78,126.55L250.92,126.55L253.22,123.77L254.36,122.72L258.94,118.23L260.09,116.7L261.24,115.63L262.38,115.63L263.53,115.63L264.67,113.29L287.59,93.68L288.73,93L297.9,85.08" style="vector-effect: non-scaling-stroke; fill: none; stroke: rgb(145, 30, 180); stroke-opacity: 1; stroke-width: 2px; opacity: 1;"/></g><g class="points"/><g class="text"/></g></g></g><g class="overplot"/><path class="xlines-above crisp" d="M0,0" style="fill: none;"/><path class="ylines-above crisp" d="M0,0" style="fill: none;"/><g class="overlines-above"/><g class="xaxislayer-above"><g class="xtick"><text text-anchor="middle" x="0" y="383" transform="translate(124.68,0)" style="font-family: 'Open Sans', verdana, arial, sans-serif; font-size: 12px; fill: rgb(242, 245, 250); fill-opacity: 1; white-space: pre;">Mar 2020</text></g><g class="xtick"><text text-anchor="middle" x="0" y="383" transform="translate(194.57999999999998,0)" style="font-family: 'Open Sans', verdana, arial, sans-serif; font-size: 12px; fill: rgb(242, 245, 250); fill-opacity: 1; white-space: pre;">May 2020</text></g><g class="xtick"><text text-anchor="middle" x="0" y="383" transform="translate(264.47,0)" style="font-family: 'Open Sans', verdana, arial, sans-serif; font-size: 12px; fill: rgb(242, 245, 250); fill-opacity: 1; white-space: pre;">Jul 2020</text></g><g class="xtick"><text text-anchor="middle" x="0" y="383" transform="translate(335.51,0)" style="font-family: 'Open Sans', verdana, arial, sans-serif; font-size: 12px; fill: rgb(242, 245, 250); fill-opacity: 1; white-space: pre;">Sep 2020</text></g></g><g class="yaxislayer-above"><g class="ytick"><text text-anchor="end" x="79" y="4.199999999999999" transform="translate(0,356.5)" style="font-family: 'Open Sans', verdana, arial, sans-serif; font-size: 12px; fill: rgb(242, 245, 250); fill-opacity: 1; white-space: pre;">0</text></g><g class="ytick"><text text-anchor="end" x="79" y="4.199999999999999" transform="translate(0,287.19)" style="font-family: 'Open Sans', verdana, arial, sans-serif; font-size: 12px; fill: rgb(242, 245, 250); fill-opacity: 1; white-space: pre;">20k</text></g><g class="ytick"><text text-anchor="end" x="79" y="4.199999999999999" transform="translate(0,217.88)" style="font-family: 'Open Sans', verdana, arial, sans-serif; font-size: 12px; fill: rgb(242, 245, 250); fill-opacity: 1; white-space: pre;">40k</text></g><g class="ytick"><text text-anchor="end" x="79" y="4.199999999999999" transform="translate(0,148.57)" style="font-family: 'Open Sans', verdana, arial, sans-serif; font-size: 12px; fill: rgb(242, 245, 250); fill-opacity: 1; white-space: pre;">60k</text></g></g><g class="overaxes-above"/></g><g class="subplot x2y2"><g class="layer-subplot"><g class="shapelayer"/><g class="imagelayer"/></g><g class="gridlayer"><g class="x2"><path class="x2grid crisp" transform="translate(488.79,0)" d="M0,100v270" style="stroke: rgb(40, 52, 66); stroke-opacity: 1; stroke-width: 1px;"/><path class="x2grid crisp" transform="translate(558.6800000000001,0)" d="M0,100v270" style="stroke: rgb(40, 52, 66); stroke-opacity: 1; stroke-width: 1px;"/><path class="x2grid crisp" transform="translate(628.57,0)" d="M0,100v270" style="stroke: rgb(40, 52, 66); stroke-opacity: 1; stroke-width: 1px;"/><path class="x2grid crisp" transform="translate(699.61,0)" d="M0,100v270" style="stroke: rgb(40, 52, 66); stroke-opacity: 1; stroke-width: 1px;"/></g><g class="y2"><path class="y2grid crisp" transform="translate(0,271.59000000000003)" d="M444.1,0h297.9" style="stroke: rgb(40, 52, 66); stroke-opacity: 1; stroke-width: 1px;"/><path class="y2grid crisp" transform="translate(0,186.69)" d="M444.1,0h297.9" style="stroke: rgb(40, 52, 66); stroke-opacity: 1; stroke-width: 1px;"/><path class="y2grid crisp" transform="translate(0,101.78)" d="M444.1,0h297.9" style="stroke: rgb(40, 52, 66); stroke-opacity: 1; stroke-width: 1px;"/></g></g><g class="zerolinelayer"><path class="y2zl zl crisp" transform="translate(0,356.5)" d="M444.1,0h297.9" style="stroke: rgb(40, 52, 66); stroke-opacity: 1; stroke-width: 2px;"/></g><path class="xlines-below"/><path class="ylines-below"/><g class="overlines-below"/><g class="xaxislayer-below"/><g class="yaxislayer-below"/><g class="overaxes-below"/><g class="plot" transform="translate(444.1, 100)" clip-path="url('#clip0e0129x2y2plot')"><g class="scatterlayer mlayer"><g class="trace scatter trace1d3d2e" style="stroke-miterlimit: 2; opacity: 1;"><g class="fills"/><g class="errorbars"/><g class="lines"><path class="js-line" d="M0,256.5L74.48,255.82L75.62,255.48L95.1,252.59L96.24,250.39L99.68,249.54L100.83,249.37L105.41,248.69L106.56,248.35L108.85,247.67L109.99,247.67L115.72,245.8L116.87,245.8L121.45,245.12L122.6,244.61L128.33,243.59L129.47,243.08L131.76,242.41L132.91,242.41L135.2,241.9L136.35,241.56L140.93,240.71L142.08,240.71L153.53,240.03L154.68,239.35L160.41,238.67L161.55,238.16L176.45,235.78L177.59,234.76L186.76,232.73L187.91,232.73L192.49,232.39L193.64,231.71L201.66,230.35L202.8,229.16L207.38,228.14L208.53,227.46L213.11,226.27L214.26,226.27L216.55,225.76L217.7,225.59L218.84,225.59L219.99,224.41L228.01,223.73L229.15,221.69L231.45,221.69L232.59,220.5L236.03,219.31L237.17,218.97L239.47,218.46L240.61,217.78L244.05,216.93L245.19,216.76L246.34,216.76L247.49,215.75L250.92,214.56L252.07,214.56L253.22,212.86L254.36,212.86L255.51,212.86L256.65,209.97L257.8,206.41L258.94,206.24L261.24,205.73L262.38,205.56L265.82,205.05L266.96,202.16L268.11,202.16L269.26,200.12L270.4,199.95L271.55,196.05L272.69,196.05L273.84,194.52L276.13,192.99L277.28,192.99L278.42,192.99L279.57,190.27L284.15,187.56L285.3,187.56L287.59,187.22L288.73,186.54L289.88,185.18L291.03,185.18L293.32,184.33L294.46,184.33L295.61,183.99L296.75,181.78L297.9,181.78" style="vector-effect: non-scaling-stroke; fill: none; stroke: rgb(230, 25, 75); stroke-opacity: 1; stroke-width: 2px; opacity: 1;"/></g><g class="points"/><g class="text"/></g><g class="trace scatter tracedca152" style="stroke-miterlimit: 2; opacity: 1;"><g class="fills"/><g class="errorbars"/><g class="lines"><path class="js-line" d="M0,256.5L80.2,255.99L81.35,255.65L89.37,254.97L90.52,254.46L92.81,253.78L93.95,253.78L97.39,253.44L98.54,253.27L113.43,252.59L114.58,252.42L116.87,251.92L118.01,251.58L122.6,250.22L123.74,250.22L127.18,249.54L128.33,249.03L134.06,247.16L135.2,246.31L139.78,244.27L140.93,244.27L145.51,243.59L146.66,243.08L150.1,242.75L151.24,242.75L155.82,241.22L156.97,241.22L169.57,238.67L170.72,237.99L173.01,237.14L174.16,236.97L179.89,234.08L181.03,234.08L189.05,231.03L190.2,229.67L192.49,228.82L193.64,225.59L195.93,224.75L197.07,224.58L200.51,223.9L201.66,217.1L205.09,216.59L206.24,215.24L207.38,215.07L208.53,212.35L209.68,209.29L210.82,208.95L211.97,208.95L213.11,206.41L215.4,205.9L216.55,201.65L219.99,198.59L221.13,197.58L222.28,197.41L223.42,193.84L224.57,192.48L225.72,192.31L228.01,190.61L229.15,190.61L230.3,190.61L231.45,189.42L232.59,184.16L233.74,183.99L234.88,178.73L236.03,178.39L237.17,174.48L238.32,173.8L239.47,173.29L240.61,170.24L244.05,168.37L245.19,168.2L247.49,165.82L248.63,165.31L257.8,161.75L258.94,161.75L263.53,160.56L264.67,160.05L266.96,157.33L268.11,157.33L270.4,157.16L271.55,156.14L274.98,153.93L276.13,153.93L279.57,153.76L280.71,152.24L284.15,149.86L285.3,149.86L286.44,149.86L287.59,148.5L291.03,144.42L292.17,143.07L295.61,142.9L296.75,141.88L297.9,140.18" style="vector-effect: non-scaling-stroke; fill: none; stroke: rgb(60, 180, 75); stroke-opacity: 1; stroke-width: 2px; opacity: 1;"/></g><g class="points"/><g class="text"/></g><g class="trace scatter trace5376a8" style="stroke-miterlimit: 2; opacity: 1;"><g class="fills"/><g class="errorbars"/><g class="lines"><path class="js-line" d="M0,256.5L69.89,255.82L71.04,255.48L74.48,254.8L75.62,254.12L77.91,253.95L79.06,252.59L83.64,249.54L84.79,249.54L85.93,249.54L87.08,247.33L89.37,244.44L90.52,243.76L96.24,243.76L97.39,235.95L98.54,235.44L99.68,233.92L104.26,231.03L105.41,228.82L108.85,226.95L109.99,226.95L113.43,222.2L114.58,222.2L115.72,219.99L116.87,219.48L118.01,219.48L119.16,218.63L121.45,214.9L122.6,213.54L127.18,211.16L128.33,209.8L131.76,206.75L132.91,206.24L134.06,206.24L135.2,204.88L137.49,204.88L138.64,201.82L139.78,200.63L140.93,200.63L144.37,200.12L145.51,198.93L152.39,197.75L153.53,196.22L160.41,194.18L161.55,192.82L166.14,192.14L167.28,191.97L169.57,190.78L170.72,190.27L173.01,188.92L174.16,188.58L184.47,185.18L185.61,183.14L189.05,181.95L190.2,181.95L193.64,177.03L194.78,176.18L195.93,174.48L197.07,174.48L198.22,174.48L199.36,171.93L201.66,170.41L202.8,168.54L203.95,167.01L205.09,167.01L206.24,167.01L207.38,162.59L208.53,158.52L209.68,158.01L211.97,154.44L213.11,154.44L215.4,153.59L216.55,150.2L218.84,139.84L219.99,139.67L221.13,139.67L222.28,137.29L223.42,134.92L224.57,130.16L225.72,128.8L226.86,125.75L228.01,120.82L229.15,119.46L230.3,118.78L231.45,115.9L232.59,113.52L233.74,108.93L236.03,102.31L237.17,101.97L240.61,101.97L241.76,85.67L242.9,82.1L244.05,82.1L246.34,81.93L247.49,76.84L248.63,73.44L249.78,73.44L252.07,65.46L253.22,65.46L255.51,65.29L256.65,60.03L257.8,60.03L258.94,54.42L260.09,52.22L261.24,51.88L263.53,51.71L264.67,48.82L266.96,44.41L268.11,42.71L270.4,42.2L271.55,37.95L274.98,31.5L276.13,31.16L279.57,30.99L280.71,28.44L283.01,24.2L284.15,22.67L287.59,21.31L288.73,20.29L291.03,18.76L292.17,17.24L295.61,17.24L296.75,15.37L297.9,13.5" style="vector-effect: non-scaling-stroke; fill: none; stroke: rgb(255, 225, 25); stroke-opacity: 1; stroke-width: 2px; opacity: 1;"/></g><g class="points"/><g class="text"/></g><g class="trace scatter trace66b4e4" style="stroke-miterlimit: 2; opacity: 1;"><g class="fills"/><g class="errorbars"/><g class="lines"><path class="js-line" d="M0,256.5L98.54,255.82L99.68,255.65L116.87,253.44L118.01,253.44L126.03,252.76L127.18,252.59L130.62,252.08L131.76,252.08L143.22,250.9L144.37,250.9L152.39,250.39L153.53,249.88L161.55,249.37L162.7,249.03L174.16,248.35L175.3,248.18L186.76,246.31L187.91,245.8L190.2,245.12L191.34,245.12L193.64,244.44L194.78,244.44L197.07,243.08L198.22,243.08L201.66,243.08L202.8,241.39L206.24,240.2L207.38,237.65L213.11,226.44L214.26,210.31L215.4,210.31L216.55,206.58L217.7,204.88L218.84,201.31L219.99,197.75L221.13,197.75L223.42,191.46L224.57,189.59L229.15,183.48L230.3,183.48L236.03,163.61L237.17,161.41L238.32,160.56L239.47,156.48L242.9,149.69L244.05,146.46L246.34,144.93L247.49,143.07L252.07,129.82L253.22,128.8L255.51,126.25L256.65,124.9L258.94,119.63L260.09,118.61L263.53,117.42L264.67,116.58L266.96,114.03L268.11,113.69L271.55,112.5L272.69,111.48L273.84,111.14L274.98,109.61L278.42,108.42L279.57,107.92L281.86,105.37L283.01,104.18L285.3,103.33L286.44,103.33L288.73,101.63L289.88,101.12L293.32,98.75L294.46,98.75L297.9,96.71" style="vector-effect: non-scaling-stroke; fill: none; stroke: rgb(67, 99, 216); stroke-opacity: 1; stroke-width: 2px; opacity: 1;"/></g><g class="points"/><g class="text"/></g><g class="trace scatter trace22f4e1" style="stroke-miterlimit: 2; opacity: 1;"><g class="fills"/><g class="errorbars"/><g class="lines"><path class="js-line" d="M0,256.5L72.18,255.99L73.33,255.65L83.64,254.97L84.79,254.63L87.08,254.46L88.22,253.44L99.68,250.22L100.83,250.05L116.87,248.35L118.01,248.35L120.31,247.67L121.45,247.5L135.2,245.97L136.35,245.97L156.97,243.25L158.12,243.25L162.7,242.58L163.85,242.24L166.14,241.56L167.28,241.39L170.72,240.88L171.87,240.2L176.45,239.52L177.59,238.84L181.03,238.33L182.18,237.99L185.61,237.65L186.76,236.97L189.05,235.78L190.2,234.42L192.49,233.24L193.64,231.71L194.78,228.48L195.93,228.31L201.66,221.18L202.8,217.61L203.95,215.75L205.09,215.75L207.38,212.01L208.53,209.97L210.82,205.9L211.97,203.35L213.11,201.82L214.26,174.99L215.4,174.99L216.55,168.03L218.84,158.35L219.99,152.75L221.13,152.75L222.28,150.88L225.72,136.78L226.86,131.01L228.01,125.24L229.15,123.71L230.3,123.37L231.45,119.63L236.03,105.88L237.17,105.03L238.32,105.03L239.47,101.46L244.05,88.05L245.19,87.03L246.34,87.03L247.49,85.5L252.07,73.44L253.22,72.08L254.36,72.08L255.51,69.54L258.94,62.07L260.09,59.69L262.38,58.5L263.53,58.33L265.82,55.95L266.96,54.25L269.26,52.05L270.4,51.88L274.98,45.59L276.13,45.25L278.42,44.58L279.57,43.39L283.01,39.31L284.15,36.25L286.44,36.25L287.59,35.24L289.88,32.69L291.03,31.84L293.32,30.31L294.46,30.31L297.9,27.76" style="vector-effect: non-scaling-stroke; fill: none; stroke: rgb(245, 130, 49); stroke-opacity: 1; stroke-width: 2px; opacity: 1;"/></g><g class="points"/><g class="text"/></g><g class="trace scatter trace7e707b" style="stroke-miterlimit: 2; opacity: 1;"><g class="fills"/><g class="errorbars"/><g class="lines"><path class="js-line" d="M0,256.5L73.33,255.99L74.48,255.65L84.79,253.27L85.93,253.27L88.22,250.39L89.37,249.71L91.66,248.86L92.81,248.86L95.1,247.5L96.24,246.31L98.54,245.8L99.68,244.44L101.97,244.27L103.12,241.73L105.41,239.52L106.56,239.18L107.7,237.65L108.85,237.65L112.29,236.12L113.43,235.44L115.72,233.07L116.87,232.9L120.31,229.67L121.45,228.48L124.89,226.78L126.03,226.78L127.18,224.24L128.33,223.56L131.76,221.01L132.91,221.01L134.06,220.67L135.2,218.8L137.49,215.58L138.64,215.41L139.78,214.22L140.93,214.22L143.22,214.22L144.37,213.2L147.8,210.82L148.95,210.82L150.1,210.82L151.24,209.63L154.68,206.58L155.82,206.24L158.12,206.24L159.26,205.39L164.99,202.33L166.14,202.16L173.01,199.1L174.16,199.1L175.3,199.1L176.45,197.58L179.89,195.37L181.03,195.2L183.32,194.52L184.47,193.33L187.91,190.78L189.05,190.78L190.2,190.78L191.34,188.75L194.78,185.18L195.93,184.84L198.22,184.84L199.36,182.46L202.8,176.35L203.95,175.33L206.24,175.33L207.38,173.8L209.68,169.56L210.82,167.52L211.97,165.99L213.11,165.99L214.26,165.99L215.4,163.61L219.99,160.56L221.13,160.56L223.42,160.05L224.57,158.35L229.15,155.63L230.3,155.63L234.88,150.88L236.03,150.2L238.32,150.2L239.47,149.01L242.9,145.78L244.05,144.42L246.34,144.42L247.49,143.58L255.51,139.67L256.65,138.48L258.94,137.46L260.09,136.95L262.38,136.44L263.53,136.44L265.82,133.39L266.96,132.54L269.26,131.86L270.4,131.86L273.84,128.46L274.98,127.95L277.28,127.44L278.42,127.44L283.01,124.9L284.15,124.9L287.59,123.88L288.73,123.54L291.03,121.67L292.17,120.99L294.46,120.14L295.61,119.63L297.9,117.42" style="vector-effect: non-scaling-stroke; fill: none; stroke: rgb(145, 30, 180); stroke-opacity: 1; stroke-width: 2px; opacity: 1;"/></g><g class="points"/><g class="text"/></g></g></g><g class="overplot"/><path class="xlines-above crisp" d="M0,0" style="fill: none;"/><path class="ylines-above crisp" d="M0,0" style="fill: none;"/><g class="overlines-above"/><g class="xaxislayer-above"><g class="x2tick"><text text-anchor="middle" x="0" y="383" transform="translate(488.79,0)" style="font-family: 'Open Sans', verdana, arial, sans-serif; font-size: 12px; fill: rgb(242, 245, 250); fill-opacity: 1; white-space: pre;">Mar 2020</text></g><g class="x2tick"><text text-anchor="middle" x="0" y="383" transform="translate(558.6800000000001,0)" style="font-family: 'Open Sans', verdana, arial, sans-serif; font-size: 12px; fill: rgb(242, 245, 250); fill-opacity: 1; white-space: pre;">May 2020</text></g><g class="x2tick"><text text-anchor="middle" x="0" y="383" transform="translate(628.57,0)" style="font-family: 'Open Sans', verdana, arial, sans-serif; font-size: 12px; fill: rgb(242, 245, 250); fill-opacity: 1; white-space: pre;">Jul 2020</text></g><g class="x2tick"><text text-anchor="middle" x="0" y="383" transform="translate(699.61,0)" style="font-family: 'Open Sans', verdana, arial, sans-serif; font-size: 12px; fill: rgb(242, 245, 250); fill-opacity: 1; white-space: pre;">Sep 2020</text></g></g><g class="yaxislayer-above"><g class="y2tick"><text text-anchor="end" x="443.1" y="4.199999999999999" transform="translate(0,356.5)" style="font-family: 'Open Sans', verdana, arial, sans-serif; font-size: 12px; fill: rgb(242, 245, 250); fill-opacity: 1; white-space: pre;">0</text></g><g class="y2tick"><text text-anchor="end" x="443.1" y="4.199999999999999" transform="translate(0,271.59000000000003)" style="font-family: 'Open Sans', verdana, arial, sans-serif; font-size: 12px; fill: rgb(242, 245, 250); fill-opacity: 1; white-space: pre;">500</text></g><g class="y2tick"><text text-anchor="end" x="443.1" y="4.199999999999999" transform="translate(0,186.69)" style="font-family: 'Open Sans', verdana, arial, sans-serif; font-size: 12px; fill: rgb(242, 245, 250); fill-opacity: 1; white-space: pre;">1000</text></g><g class="y2tick"><text text-anchor="end" x="443.1" y="4.199999999999999" transform="translate(0,101.78)" style="font-family: 'Open Sans', verdana, arial, sans-serif; font-size: 12px; fill: rgb(242, 245, 250); fill-opacity: 1; white-space: pre;">1500</text></g></g><g class="overaxes-above"/></g></g><g class="polarlayer"/><g class="ternarylayer"/><g class="geolayer"/><g class="funnelarealayer"/><g class="pielayer"/><g class="treemaplayer"/><g class="sunburstlayer"/><g class="glimages"/><defs id="topdefs-0e0129"><g class="clips"/><clipPath id="legend0e0129"><rect width="133" height="124" x="0" y="0"/></clipPath></defs><g class="layer-above"><g class="imagelayer"/><g class="shapelayer"/></g><g class="infolayer"><g class="legend" pointer-events="all" transform="translate(755.24, 100)"><rect class="bg" shape-rendering="crispEdges" width="133" height="124" x="0" y="0" style="stroke: rgb(68, 68, 68); stroke-opacity: 1; fill: rgb(17, 17, 17); fill-opacity: 1; stroke-width: 0px;"/><g class="scrollbox" transform="translate(0, 0)" clip-path="url('#legend0e0129')"><g class="groups"><g class="traces" transform="translate(0, 14.5)" style="opacity: 1;"><text class="legendtext user-select-none" text-anchor="start" x="40" y="4.680000000000001" style="font-family: 'Open Sans', verdana, arial, sans-serif; font-size: 12px; fill: rgb(242, 245, 250); fill-opacity: 1; white-space: pre;">Alameda, CA</text><g class="layers" style="opacity: 1;"><g class="legendfill"/><g class="legendlines"><path class="js-line" d="M5,0h30" style="fill: none; stroke: rgb(230, 25, 75); stroke-opacity: 1; stroke-width: 2px;"/></g><g class="legendsymbols"><g class="legendpoints"/></g></g><rect class="legendtoggle" pointer-events="all" x="0" y="-9.5" width="127.703125" height="19" style="cursor: pointer; fill: rgb(0, 0, 0); fill-opacity: 0;"/></g><g class="traces" transform="translate(0, 33.5)" style="opacity: 1;"><text class="legendtext user-select-none" text-anchor="start" x="40" y="4.680000000000001" style="font-family: 'Open Sans', verdana, arial, sans-serif; font-size: 12px; fill: rgb(242, 245, 250); fill-opacity: 1; white-space: pre;">Hillsborough, FL</text><g class="layers" style="opacity: 1;"><g class="legendfill"/><g class="legendlines"><path class="js-line" d="M5,0h30" style="fill: none; stroke: rgb(60, 180, 75); stroke-opacity: 1; stroke-width: 2px;"/></g><g class="legendsymbols"><g class="legendpoints"/></g></g><rect class="legendtoggle" pointer-events="all" x="0" y="-9.5" width="127.703125" height="19" style="cursor: pointer; fill: rgb(0, 0, 0); fill-opacity: 0;"/></g><g class="traces" transform="translate(0, 52.5)" style="opacity: 1;"><text class="legendtext user-select-none" text-anchor="start" x="40" y="4.680000000000001" style="font-family: 'Open Sans', verdana, arial, sans-serif; font-size: 12px; fill: rgb(242, 245, 250); fill-opacity: 1; white-space: pre;">Clark, NV</text><g class="layers" style="opacity: 1;"><g class="legendfill"/><g class="legendlines"><path class="js-line" d="M5,0h30" style="fill: none; stroke: rgb(255, 225, 25); stroke-opacity: 1; stroke-width: 2px;"/></g><g class="legendsymbols"><g class="legendpoints"/></g></g><rect class="legendtoggle" pointer-events="all" x="0" y="-9.5" width="127.703125" height="19" style="cursor: pointer; fill: rgb(0, 0, 0); fill-opacity: 0;"/></g><g class="traces" transform="translate(0, 71.5)" style="opacity: 1;"><text class="legendtext user-select-none" text-anchor="start" x="40" y="4.680000000000001" style="font-family: 'Open Sans', verdana, arial, sans-serif; font-size: 12px; fill: rgb(242, 245, 250); fill-opacity: 1; white-space: pre;">Cameron, TX</text><g class="layers" style="opacity: 1;"><g class="legendfill"/><g class="legendlines"><path class="js-line" d="M5,0h30" style="fill: none; stroke: rgb(67, 99, 216); stroke-opacity: 1; stroke-width: 2px;"/></g><g class="legendsymbols"><g class="legendpoints"/></g></g><rect class="legendtoggle" pointer-events="all" x="0" y="-9.5" width="127.703125" height="19" style="cursor: pointer; fill: rgb(0, 0, 0); fill-opacity: 0;"/></g><g class="traces" transform="translate(0, 90.5)" style="opacity: 1;"><text class="legendtext user-select-none" text-anchor="start" x="40" y="4.680000000000001" style="font-family: 'Open Sans', verdana, arial, sans-serif; font-size: 12px; fill: rgb(242, 245, 250); fill-opacity: 1; white-space: pre;">Bexar, TX</text><g class="layers" style="opacity: 1;"><g class="legendfill"/><g class="legendlines"><path class="js-line" d="M5,0h30" style="fill: none; stroke: rgb(245, 130, 49); stroke-opacity: 1; stroke-width: 2px;"/></g><g class="legendsymbols"><g class="legendpoints"/></g></g><rect class="legendtoggle" pointer-events="all" x="0" y="-9.5" width="127.703125" height="19" style="cursor: pointer; fill: rgb(0, 0, 0); fill-opacity: 0;"/></g><g class="traces" transform="translate(0, 109.5)" style="opacity: 1;"><text class="legendtext user-select-none" text-anchor="start" x="40" y="4.680000000000001" style="font-family: 'Open Sans', verdana, arial, sans-serif; font-size: 12px; fill: rgb(242, 245, 250); fill-opacity: 1; white-space: pre;">San Diego, CA</text><g class="layers" style="opacity: 1;"><g class="legendfill"/><g class="legendlines"><path class="js-line" d="M5,0h30" style="fill: none; stroke: rgb(145, 30, 180); stroke-opacity: 1; stroke-width: 2px;"/></g><g class="legendsymbols"><g class="legendpoints"/></g></g><rect class="legendtoggle" pointer-events="all" x="0" y="-9.5" width="127.703125" height="19" style="cursor: pointer; fill: rgb(0, 0, 0); fill-opacity: 0;"/></g></g></g><rect class="scrollbar" rx="20" ry="3" width="0" height="0" x="0" y="0" style="fill: rgb(128, 139, 164); fill-opacity: 1;"/></g><g class="g-gtitle"/><g class="g-xtitle"><text class="xtitle" x="228.95000000000002" y="410.8" text-anchor="middle" style="font-family: 'Open Sans', verdana, arial, sans-serif; font-size: 14px; fill: rgb(242, 245, 250); opacity: 1; font-weight: normal; white-space: pre;">Date</text></g><g class="g-x2title"><text class="x2title" x="593.05" y="410.8" text-anchor="middle" style="font-family: 'Open Sans', verdana, arial, sans-serif; font-size: 14px; fill: rgb(242, 245, 250); opacity: 1; font-weight: normal; white-space: pre;">Date</text></g><g class="g-ytitle"><text class="ytitle" transform="rotate(-90,34.840625,235)" x="34.840625" y="235" text-anchor="middle" style="font-family: 'Open Sans', verdana, arial, sans-serif; font-size: 14px; fill: rgb(242, 245, 250); opacity: 1; font-weight: normal; white-space: pre;">Cases</text></g><g class="g-y2title"><text class="y2title" transform="rotate(-90,391.590625,235)" x="391.590625" y="235" text-anchor="middle" style="font-family: 'Open Sans', verdana, arial, sans-serif; font-size: 14px; fill: rgb(242, 245, 250); opacity: 1; font-weight: normal; white-space: pre;">Deaths</text></g><g class="annotation" data-index="0" style="opacity: 1;"><g class="annotation-text-g" transform="rotate(0,228.95000000000002,89.5)"><g class="cursor-pointer" transform="translate(204, 79)"><rect class="bg" x="0.5" y="0.5" width="48" height="20" style="stroke-width: 1px; stroke: rgb(0, 0, 0); stroke-opacity: 0; fill: rgb(0, 0, 0); fill-opacity: 0;"/><text class="annotation-text" text-anchor="middle" x="24.6875" y="16" style="font-family: 'Open Sans', verdana, arial, sans-serif; font-size: 16px; fill: rgb(242, 245, 250); fill-opacity: 1; white-space: pre;">Cases</text></g></g></g><g class="annotation" data-index="1" style="opacity: 1;"><g class="annotation-text-g" transform="rotate(0,593.0500000000001,89.5)"><g class="cursor-pointer" transform="translate(566, 79)"><rect class="bg" x="0.5" y="0.5" width="54" height="20" style="stroke-width: 1px; stroke: rgb(0, 0, 0); stroke-opacity: 0; fill: rgb(0, 0, 0); fill-opacity: 0;"/><text class="annotation-text" text-anchor="middle" x="27.359375" y="16" style="font-family: 'Open Sans', verdana, arial, sans-serif; font-size: 16px; fill: rgb(242, 245, 250); fill-opacity: 1; white-space: pre;">Deaths</text></g></g></g></g></svg>