<svg class="main-svg" xmlns="http://www.w3.org/2000/svg" xmlns:xlink="http://www.w3.org/1999/xlink" width="900" height="450" style="" viewBox="0 0 900 450"><rect x="0" y="0" width="900" height="450" style="fill: rgb(17, 17, 17); fill-opacity: 1;"/><defs id="defs-a4749d"><g class="clips"><clipPath id="clipa4749dxyplot" class="plotclip"><rect width="300.15000000000003" height="270"/></clipPath><clipPath id="clipa4749dx2y2plot" class="plotclip"><rect width="300.15" height="270"/></clipPath><clipPath class="axesclip" id="clipa4749dx"><rect x="80" y="0" width="300.15000000000003" height="450"/></clipPath><clipPath class="axesclip" id="clipa4749dy"><rect x="0" y="100" width="900" height="270"/></clipPath><clipPath class="axesclip" id="clipa4749dxy"><rect x="80" y="100" width="300.15000000000003" height="270"/></clipPath><clipPath class="axesclip" id="clipa4749dy2"><rect x="0" y="100" width="900" height="270"/></clipPath><clipPath class="axesclip" id="clipa4749dxy2"><rect x="80" y="100" width="300.15000000000003" height="270"/></clipPath><clipPath class="axesclip" id="clipa4749dx2"><rect x="446.85" y="0" width="300.15" height="450"/></clipPath><clipPath class="axesclip" id="clipa4749dx2y"><rect x="446.85" y="100" width="300.15" height="270"/></clipPath><clipPath class="axesclip" id="clipa4749dx2y2"><rect x="446.85" y="100" width="300.15" height="270"/></clipPath></g><g class="gradients"/></defs><g class="bglayer"/><g class="layer-below"><g class="imagelayer"/><g class="shapelayer"/></g><g class="cartesianlayer"><g class="subplot xy"><g class="layer-subplot"><g class="shapelayer"/><g class="imagelayer"/></g><g class="gridlayer"><g class="x"><path class="xgrid crisp" transform="translate(127.97,0)" d="M0,100v270" style="stroke: rgb(40, 52, 66); stroke-opacity: 1; stroke-width: 1px;"/><path class="xgrid crisp" transform="translate(190.32999999999998,0)" d="M0,100v270" style="stroke: rgb(40, 52, 66); stroke-opacity: 1; stroke-width: 1px;"/><path class="xgrid crisp" transform="translate(253.37,0)" d="M0,100v270" style="stroke: rgb(40, 52, 66); stroke-opacity: 1; stroke-width: 1px;"/><path class="xgrid crisp" transform="translate(316.41999999999996,0)" d="M0,100v270" style="stroke: rgb(40, 52, 66); stroke-opacity: 1; stroke-width: 1px;"/><path class="xgrid crisp" transform="translate(378.09,0)" d="M0,100v270" style="stroke: rgb(40, 52, 66); stroke-opacity: 1; stroke-width: 1px;"/></g><g class="y"><path class="ygrid crisp" transform="translate(0,298.49)" d="M80,0h300.15000000000003" style="stroke: rgb(40, 52, 66); stroke-opacity: 1; stroke-width: 1px;"/><path class="ygrid crisp" transform="translate(0,240.48)" d="M80,0h300.15000000000003" style="stroke: rgb(40, 52, 66); stroke-opacity: 1; stroke-width: 1px;"/><path class="ygrid crisp" transform="translate(0,182.45999999999998)" d="M80,0h300.15000000000003" style="stroke: rgb(40, 52, 66); stroke-opacity: 1; stroke-width: 1px;"/><path class="ygrid crisp" transform="translate(0,124.45)" d="M80,0h300.15000000000003" style="stroke: rgb(40, 52, 66); stroke-opacity: 1; stroke-width: 1px;"/></g></g><g class="zerolinelayer"><path class="yzl zl crisp" transform="translate(0,356.5)" d="M80,0h300.15000000000003" style="stroke: rgb(40, 52, 66); stroke-opacity: 1; stroke-width: 2px;"/></g><path class="xlines-below"/><path class="ylines-below"/><g class="overlines-below"/><g class="xaxislayer-below"/><g class="yaxislayer-below"/><g class="overaxes-below"/><g class="plot" transform="translate(80, 100)" clip-path="url('#clipa4749dxyplot')"><g class="scatterlayer mlayer"><g class="trace scatter trace7a630c" style="stroke-miterlimit: 2; opacity: 1;"><g class="fills"/><g class="errorbars"/><g class="lines"><path class="js-line" d="M0,256.5L45.23,255.76L45.91,255.72L52.08,254.66L52.77,254.55L83.6,248.47L84.29,248.24L87.72,247.23L88.4,246.96L94.57,245.06L95.25,244.94L102.11,242.86L102.79,242.56L104.16,241.98L104.85,241.59L116.5,234.79L117.18,234.09L118.55,233.36L119.24,232.36L125.41,227.87L126.09,226.87L129.52,225.25L130.2,224.21L130.89,224.21L131.57,223.19L132.26,223.07L132.94,222.14L136.37,221.3L137.05,218.22L137.74,218.16L138.43,216.87L140.48,214.27L141.17,214.27L142.54,212.61L143.22,211.72L145.96,208.08L146.65,207.99L147.33,207.96L148.02,206.39L152.13,203.75L152.82,203L155.56,201.01L156.24,201.01L158.98,199.33L159.67,199.01L163.78,198.02L164.47,197.43L169.26,195.51L169.95,195.51L172.69,194.48L173.37,194.26L184.34,191.36L185.02,190.84L199.41,184.42L200.1,183.98L204.21,181.46L204.9,180.95L207.64,177.54L208.32,176.92L209.69,176.38L210.38,175.7L214.49,170.45L215.18,169.87L219.29,161.87L219.97,158.65L223.4,151.54L224.08,145.65L226.14,139.72L226.83,139.65L228.88,128.86L229.57,126.68L233.68,112.15L234.36,110.3L236.42,104.29L237.1,101.27L239.85,92.81L240.53,90.93L246.7,66.75L247.38,63.37L249.44,58L250.13,56.98L256.98,42.95L257.66,41.92L263.15,33.92L263.83,33.1L267.94,28.38L268.63,28.06L276.17,22.81L276.85,20.88L283.7,17.95L284.39,17.71L295.35,15.06L296.04,15.06L298.09,14.37L298.78,14.09L300.15,13.5" style="vector-effect: non-scaling-stroke; fill: none; stroke: rgb(230, 25, 75); stroke-opacity: 1; stroke-width: 2px; opacity: 1;"/></g><g class="points"/><g class="text"/></g><g class="trace scatter trace862c46" style="stroke-miterlimit: 2; opacity: 1;"><g class="fills"/><g class="errorbars"/><g class="lines"><path class="js-line" d="M0,256.5L52.08,255.76L52.77,255.7L67.84,255.11L68.53,255.09L85.66,254.58L86.34,254.55L101.42,253.81L102.11,253.72L106.9,252.19L107.59,251.72L113.76,247.6L114.44,247.25L117.18,245.3L117.87,244.41L126.78,235.02L127.46,234.41L128.83,233.37L129.52,232.48L130.89,231.93L131.57,231.41L141.85,226.58L142.54,226.41L185.02,217.42L185.71,217.34L197.36,213.67L198.04,213.37L201.47,211.71L202.16,211.38L206.27,208.67L206.95,208.08L211.06,205.59L211.75,205.59L213.12,204.15L213.81,203.57L215.86,201.92L216.55,201.2L219.97,197.68L220.66,196.91L224.77,193.17L225.46,192.52L228.88,189.06L229.57,188.58L236.42,182.99L237.1,180.76L239.16,178.98L239.85,177.86L242.59,173.89L243.27,172.88L252.87,162.44L253.55,161.94L264.52,154.88L265.2,154.54L275.48,150.01L276.17,149.75L278.91,148.63L279.59,148.33L285.07,146.26L285.76,146.05L289.19,144.9L289.87,144.6L298.09,141.16L298.78,140.75L300.15,140.13" style="vector-effect: non-scaling-stroke; fill: none; stroke: rgb(60, 180, 75); stroke-opacity: 1; stroke-width: 2px; opacity: 1;"/></g><g class="points"/><g class="text"/></g><g class="trace scatter traceeba644" style="stroke-miterlimit: 2; opacity: 1;"><g class="fills"/><g class="errorbars"/><g class="lines"><path class="js-line" d="M0,256.5L47.28,255.84L47.97,255.57L66.47,249.96L67.16,249.63L78.81,243.99L79.49,243.77L83.6,241.96L84.29,241.66L93.88,239.42L94.57,239.34L128.83,232.74L129.52,232.54L149.39,224.2L150.07,223.79L174.74,214.36L175.43,214.18L182.97,209.88L183.65,209.16L187.08,206.16L187.77,205.4L192.56,199.89L193.25,198.64L193.93,198.64L194.62,196.58L197.36,191.75L198.04,188.98L212.43,146.67L213.12,145.43L214.49,143.32L215.18,140.21L224.08,121.38L224.77,120.52L231.62,109.94L232.31,109.41L235.05,106.27L235.73,104.82L236.42,104.82L237.1,103.06L239.85,99.26L240.53,97.9L243.27,93.65L243.96,92.81L249.44,86.29L250.13,85.44L254.24,81.37L254.92,80.68L257.66,78.36L258.35,77.95L264.52,73.7L265.2,73.7L267.26,72.37L267.94,72.14L276.17,67.85L276.85,67.69L291.93,60.9L292.61,60.9L295.35,58.84L296.04,58.55L300.15,55.93" style="vector-effect: non-scaling-stroke; fill: none; stroke: rgb(255, 225, 25); stroke-opacity: 1; stroke-width: 2px; opacity: 1;"/></g><g class="points"/><g class="text"/></g><g class="trace scatter traceacc09e" style="stroke-miterlimit: 2; opacity: 1;"><g class="fills"/><g class="errorbars"/><g class="lines"><path class="js-line" d="M0,256.5L110.33,255.76L111.01,255.74L182.28,254.03L182.97,253.96L208.32,251.78L209.01,251.73L222.03,250.23L222.71,250.11L234.36,249.04L235.05,248.89L239.16,248.42L239.85,248.12L246.7,247.08L247.38,247.04L300.15,244.2" style="vector-effect: non-scaling-stroke; fill: none; stroke: rgb(67, 99, 216); stroke-opacity: 1; stroke-width: 2px; opacity: 1;"/></g><g class="points"/><g class="text"/></g><g class="trace scatter trace975f72" style="stroke-miterlimit: 2; opacity: 1;"><g class="fills"/><g class="errorbars"/><g class="lines"><path class="js-line" d="M0,256.5L77.44,255.75L78.12,255.72L91.83,255.02L92.51,254.95L117.87,252.43L118.55,252.19L130.89,250.2L131.57,250.18L147.33,248.59L148.02,248.57L174.74,246.09L175.43,245.96L182.97,243.87L183.65,243.45L189.14,240.78L189.82,240.19L201.47,230.51L202.16,229.61L206.27,225.21L206.95,223.76L211.75,219.15L212.43,218.86L215.18,216.81L215.86,216.81L217.92,214.44L218.6,214.18L222.03,212.4L222.71,212.12L229.57,209.01L230.25,208.62L232.31,207.25L232.99,207.09L235.73,205.81L236.42,205.35L244.64,200.74L245.33,200.27L248.07,198.78L248.75,198.53L253.55,196.53L254.24,196.18L279.59,189.87L280.28,189.77L285.76,189.03L286.44,188.94L300.15,187.1" style="vector-effect: non-scaling-stroke; fill: none; stroke: rgb(245, 130, 49); stroke-opacity: 1; stroke-width: 2px; opacity: 1;"/></g><g class="points"/><g class="text"/></g><g class="trace scatter trace00231f" style="stroke-miterlimit: 2; opacity: 1;"><g class="fills"/><g class="errorbars"/><g class="lines"><path class="js-line" d="M0,256.5L72.64,255.75L73.32,255.72L84.97,254.84L85.66,254.74L98.68,252.76L99.36,252.57L106.9,251.24L107.59,251.1L111.01,250.32L111.7,250.09L120.61,247.93L121.29,247.75L132.94,244.76L133.63,244.71L145.28,242.35L145.96,242.08L148.02,241.48L148.7,241.04L151.45,239.54L152.13,239.45L167.89,234.98L168.58,231.6L174.74,230.01L175.43,229.83L182.97,228.36L183.65,228.23L188.45,226.81L189.14,226.64L202.84,222.95L203.53,222.49L215.18,217.73L215.86,217.08L222.71,212.7L223.4,212.7L225.46,210.06L226.14,209.61L231.62,205.35L232.31,205.21L234.36,204.04L235.05,203.3L239.85,199.98L240.53,199.27L245.33,196.93L246.01,196.81L250.81,194.91L251.5,194.16L254.24,193.1L254.92,192.45L259.72,190.15L260.4,189.97L272.74,187.14L273.42,187L300.15,183.47" style="vector-effect: non-scaling-stroke; fill: none; stroke: rgb(145, 30, 180); stroke-opacity: 1; stroke-width: 2px; opacity: 1;"/></g><g class="points"/><g class="text"/></g></g></g><g class="overplot"/><path class="xlines-above crisp" d="M0,0" style="fill: none;"/><path class="ylines-above crisp" d="M0,0" style="fill: none;"/><g class="overlines-above"/><g class="xaxislayer-above"><g class="xtick"><text text-anchor="middle" x="0" y="383" transform="translate(127.97,0)" style="font-family: 'Open Sans', verdana, arial, sans-serif; font-size: 12px; fill: rgb(242, 245, 250); fill-opacity: 1; white-space: pre;">Apr 2020</text></g><g class="xtick"><text text-anchor="middle" x="0" y="383" transform="translate(190.32999999999998,0)" style="font-family: 'Open Sans', verdana, arial, sans-serif; font-size: 12px; fill: rgb(242, 245, 250); fill-opacity: 1; white-space: pre;">Jul 2020</text></g><g class="xtick"><text text-anchor="middle" x="0" y="383" transform="translate(253.37,0)" style="font-family: 'Open Sans', verdana, arial, sans-serif; font-size: 12px; fill: rgb(242, 245, 250); fill-opacity: 1; white-space: pre;">Oct 2020</text></g><g class="xtick"><text text-anchor="middle" x="0" y="383" transform="translate(316.41999999999996,0)" style="font-family: 'Open Sans', verdana, arial, sans-serif; font-size: 12px; fill: rgb(242, 245, 250); fill-opacity: 1; white-space: pre;">Jan 2021</text></g><g class="xtick"><text text-anchor="middle" x="0" y="383" transform="translate(378.09,0)" style="font-family: 'Open Sans', verdana, arial, sans-serif; font-size: 12px; fill: rgb(242, 245, 250); fill-opacity: 1; white-space: pre;">Apr 2021</text></g></g><g class="yaxislayer-above"><g class="ytick"><text text-anchor="end" x="79" y="4.199999999999999" transform="translate(0,356.5)" style="font-family: 'Open Sans', verdana, arial, sans-serif; font-size: 12px; fill: rgb(242, 245, 250); fill-opacity: 1; white-space: pre;">0</text></g><g class="ytick"><text text-anchor="end" x="79" y="4.199999999999999" transform="translate(0,298.49)" style="font-family: 'Open Sans', verdana, arial, sans-serif; font-size: 12px; fill: rgb(242, 245, 250); fill-opacity: 1; white-space: pre;">20k</text></g><g class="ytick"><text text-anchor="end" x="79" y="4.199999999999999" transform="translate(0,240.48)" style="font-family: 'Open Sans', verdana, arial, sans-serif; font-size: 12px; fill: rgb(242, 245, 250); fill-opacity: 1; white-space: pre;">40k</text></g><g class="ytick"><text text-anchor="end" x="79" y="4.199999999999999" transform="translate(0,182.45999999999998)" style="font-family: 'Open Sans', verdana, arial, sans-serif; font-size: 12px; fill: rgb(242, 245, 250); fill-opacity: 1; white-space: pre;">60k</text></g><g class="ytick"><text text-anchor="end" x="79" y="4.199999999999999" transform="translate(0,124.45)" style="font-family: 'Open Sans', verdana, arial, sans-serif; font-size: 12px; fill: rgb(242, 245, 250); fill-opacity: 1; white-space: pre;">80k</text></g></g><g class="overaxes-above"/></g><g class="subplot x2y2"><g class="layer-subplot"><g class="shapelayer"/><g class="imagelayer"/></g><g class="gridlayer"><g class="x2"><path class="x2grid crisp" transform="translate(494.82000000000005,0)" d="M0,100v270" style="stroke: rgb(40, 52, 66); stroke-opacity: 1; stroke-width: 1px;"/><path class="x2grid crisp" transform="translate(557.1800000000001,0)" d="M0,100v270" style="stroke: rgb(40, 52, 66); stroke-opacity: 1; stroke-width: 1px;"/><path class="x2grid crisp" transform="translate(620.22,0)" d="M0,100v270" style="stroke: rgb(40, 52, 66); stroke-opacity: 1; stroke-width: 1px;"/><path class="x2grid crisp" transform="translate(683.27,0)" d="M0,100v270" style="stroke: rgb(40, 52, 66); stroke-opacity: 1; stroke-width: 1px;"/><path class="x2grid crisp" transform="translate(744.94,0)" d="M0,100v270" style="stroke: rgb(40, 52, 66); stroke-opacity: 1; stroke-width: 1px;"/></g><g class="y2"><path class="y2grid crisp" transform="translate(0,317.34000000000003)" d="M446.85,0h300.15" style="stroke: rgb(40, 52, 66); stroke-opacity: 1; stroke-width: 1px;"/><path class="y2grid crisp" transform="translate(0,278.18)" d="M446.85,0h300.15" style="stroke: rgb(40, 52, 66); stroke-opacity: 1; stroke-width: 1px;"/><path class="y2grid crisp" transform="translate(0,239.01)" d="M446.85,0h300.15" style="stroke: rgb(40, 52, 66); stroke-opacity: 1; stroke-width: 1px;"/><path class="y2grid crisp" transform="translate(0,199.85)" d="M446.85,0h300.15" style="stroke: rgb(40, 52, 66); stroke-opacity: 1; stroke-width: 1px;"/><path class="y2grid crisp" transform="translate(0,160.69)" d="M446.85,0h300.15" style="stroke: rgb(40, 52, 66); stroke-opacity: 1; stroke-width: 1px;"/><path class="y2grid crisp" transform="translate(0,121.53)" d="M446.85,0h300.15" style="stroke: rgb(40, 52, 66); stroke-opacity: 1; stroke-width: 1px;"/></g></g><g class="zerolinelayer"><path class="y2zl zl crisp" transform="translate(0,356.5)" d="M446.85,0h300.15" style="stroke: rgb(40, 52, 66); stroke-opacity: 1; stroke-width: 2px;"/></g><path class="xlines-below"/><path class="ylines-below"/><g class="overlines-below"/><g class="xaxislayer-below"/><g class="yaxislayer-below"/><g class="overaxes-below"/><g class="plot" transform="translate(446.85, 100)" clip-path="url('#clipa4749dx2y2plot')"><g class="scatterlayer mlayer"><g class="trace scatter tracef254c0" style="stroke-miterlimit: 2; opacity: 1;"><g class="fills"/><g class="errorbars"/><g class="lines"><path class="js-line" d="M0,256.5L43.17,256.11L43.86,255.72L47.28,255.13L47.97,254.93L54.82,252.39L55.51,252L56.88,252L57.56,249.45L59.62,248.47L60.3,248.28L62.36,247.69L63.05,247.49L69.21,244.16L69.9,244.16L71.95,243.58L72.64,243.38L74.01,242.6L74.69,242.6L76.07,242.01L76.75,241.62L79.49,240.25L80.18,240.25L82.23,238.88L82.92,238.88L84.97,238.29L85.66,238.29L89.77,237.7L90.46,237.51L91.83,237.51L92.51,236.72L95.25,236.53L95.94,235.94L97.31,235.16L97.99,235.16L99.36,234.57L100.05,234.57L101.42,233.59L102.11,233.39L104.85,233L105.53,232.61L106.9,231.04L107.59,231.04L109.64,230.07L110.33,229.87L113.07,229.09L113.76,229.09L115.13,228.7L115.81,227.91L119.24,226.74L119.92,226.35L120.61,226.35L121.29,224.97L123.35,224.78L124.03,223.8L126.78,221.65L127.46,221.65L129.52,221.06L130.2,220.86L130.89,220.86L131.57,219.49L133.63,218.9L134.31,218.71L136.37,218.71L137.05,216.36L138.43,216.36L139.11,214.99L141.17,213.62L141.85,213.23L143.22,212.64L143.91,211.86L145.96,210.88L146.65,210.68L147.33,210.68L148.02,209.51L150.08,208.13L150.76,208.13L152.13,206.18L152.82,206.18L154.87,198.54L155.56,197.95L157.61,197.76L158.3,197.17L158.98,197.17L159.67,193.84L160.35,193.84L161.04,191.49L161.72,191.3L162.41,186.79L163.1,186.79L163.78,185.03L165.84,183.27L166.52,183.27L167.89,179.16L168.58,178.76L169.95,177.39L170.63,177L172,176.61L172.69,175.83L174.06,174.26L174.74,173.09L176.8,172.89L177.49,170.34L179.54,170.15L180.23,171.13L180.91,171.13L181.6,172.11L182.28,169.95L182.97,171.71L184.34,169.95L185.02,171.71L187.08,171.32L187.77,167.21L188.45,167.21L189.14,166.43L193.25,165.84L193.93,165.84L197.36,165.45L198.04,164.27L199.41,163.69L200.1,163.69L200.79,163.69L201.47,161.92L204.21,160.55L204.9,160.55L207.64,158.79L208.32,158.79L211.75,158.2L212.43,157.62L213.81,156.25L214.49,156.25L217.23,154.68L217.92,154.68L219.29,154.68L219.97,153.7L220.66,153.5L221.34,152.13L223.4,150.37L224.08,149.59L226.14,144.11L226.83,144.11L228.2,141.56L228.88,141.56L229.57,141.36L230.25,137.25L231.62,135.29L232.31,135.29L233.68,134.12L234.36,134.12L235.73,134.12L236.42,128.05L239.85,128.05L240.53,120.02L241.22,120.02L241.9,113.75L243.96,112.38L244.64,108.66L248.07,108.27L248.75,106.9L250.13,106.51L250.81,91.63L252.18,88.89L252.87,81.45L253.55,81.05L254.24,79.1L256.98,65.78L257.66,64.61L258.35,64.21L259.03,62.45L259.72,60.89L260.4,56.58L262.46,52.66L263.15,52.66L265.2,48.16L265.89,43.46L267.26,37.19L267.94,37L270,36.02L270.68,27.21L271.37,27.21L272.05,21.53L273.42,21.53L274.11,18L274.79,16.83L275.48,13.5L276.17,13.5L276.85,40.13L279.59,33.08L280.28,32.69L280.96,32.3L281.65,32.89L283.7,28.58L284.39,28.58L285.76,27.79L286.44,27.99L288.5,23.68L289.19,24.07L289.87,25.84L290.56,24.07L291.93,23.49L292.61,21.72L293.98,19.96L294.67,19.37L300.15,18.2" style="vector-effect: non-scaling-stroke; fill: none; stroke: rgb(230, 25, 75); stroke-opacity: 1; stroke-width: 2px; opacity: 1;"/></g><g class="points"/><g class="text"/></g><g class="trace scatter trace24a152" style="stroke-miterlimit: 2; opacity: 1;"><g class="fills"/><g class="errorbars"/><g class="lines"><path class="js-line" d="M0,256.5L47.97,256.3L48.65,255.72L68.53,255.13L69.21,254.93L72.64,254.35L73.32,254.15L76.07,253.56L76.75,253.37L89.77,252.78L90.46,252.58L104.85,252L105.53,251.8L113.07,251.21L113.76,250.82L118.55,250.43L119.24,249.26L123.35,249.06L124.03,248.08L124.72,248.08L125.41,246.91L128.83,245.73L129.52,243.97L130.2,243.97L130.89,242.6L132.26,240.84L132.94,240.64L135,237.7L135.68,236.92L137.05,236.14L137.74,236.14L140.48,235.16L141.17,233.39L149.39,231.44L150.08,231.44L155.56,230.46L156.24,230.46L161.72,229.87L162.41,229.67L167.89,229.09L168.58,228.3L172,227.52L172.69,226.54L174.74,225.56L175.43,225.56L176.12,225.37L176.8,224.39L178.86,222.82L179.54,222.43L182.28,222.43L182.97,221.65L185.02,221.06L185.71,220.86L187.77,220.08L188.45,220.28L189.82,218.51L190.51,217.93L195.3,215.97L195.99,215.38L200.1,215.18L200.79,214.4L201.47,214.4L202.16,212.05L206.27,211.66L206.95,209.9L208.32,210.48L209.01,210.29L210.38,209.7L211.06,209.51L214.49,208.92L215.18,208.53L219.29,208.13L219.97,207.16L221.34,204.41L222.03,204.41L224.77,203.44L225.46,203.63L229.57,203.24L230.25,201.48L232.31,201.09L232.99,200.5L236.42,200.11L237.1,199.72L239.16,198.74L239.85,198.34L241.22,196.78L241.9,196.97L244.64,195.41L245.33,192.67L246.01,192.67L246.7,191.88L250.81,191.3L251.5,191.1L252.18,191.1L252.87,189.34L254.24,186.6L254.92,186.4L256.29,183.27L256.98,183.27L258.35,182.09L259.03,182.29L260.4,181.31L261.09,181.31L262.46,181.31L263.15,178.96L264.52,178.37L265.2,178.18L267.26,177.78L267.94,175.83L270,174.85L270.68,173.28L271.37,173.28L272.05,171.91L274.11,171.32L274.79,170.15L276.17,169.56L276.85,168.78L278.91,168.58L279.59,167.8L280.28,167.8L280.96,166.62L283.02,166.23L283.7,166.04L286.44,164.47L287.13,164.47L291.24,163.88L291.93,163.88L292.61,163.88L293.3,162.71L295.35,162.32L296.04,162.12L298.78,161.14L299.46,161.14L300.15,161.14" style="vector-effect: non-scaling-stroke; fill: none; stroke: rgb(60, 180, 75); stroke-opacity: 1; stroke-width: 2px; opacity: 1;"/></g><g class="points"/><g class="text"/></g><g class="trace scatter trace00bdfc" style="stroke-miterlimit: 2; opacity: 1;"><g class="fills"/><g class="errorbars"/><g class="lines"><path class="js-line" d="M0,256.5L44.54,255.91L45.23,255.72L46.6,255.52L47.28,254.93L50.02,254.35L50.71,254.15L55.51,244.75L56.19,244.75L57.56,240.64L58.25,239.27L59.62,238.09L60.3,236.72L61.67,235.94L62.36,234.96L64.42,230.85L65.1,230.46L65.79,229.87L66.47,228.11L68.53,225.56L69.21,224.78L69.9,224.78L70.58,223.41L73.32,217.53L74.01,216.95L75.38,216.95L76.07,215.38L76.75,214.6L77.44,211.27L78.81,209.51L79.49,209.51L80.18,209.51L80.86,208.72L84.97,205.98L85.66,205.98L87.72,203.83L88.4,203.04L91.83,200.89L92.51,200.69L94.57,200.11L95.25,198.74L96.62,198.34L97.31,197.95L99.36,197.37L100.05,197.37L101.42,195.99L102.11,195.99L107.59,194.62L108.27,194.04L115.81,193.45L116.5,193.06L127.46,190.32L128.15,190.32L134.31,189.73L135,189.14L139.8,188.55L140.48,188.36L142.54,187.77L143.22,187.38L148.7,186.79L149.39,186.6L153.5,186.01L154.19,186.01L156.93,185.81L157.61,185.81L165.84,183.66L166.52,183.66L176.8,180.33L177.49,179.35L183.65,175.43L184.34,174.65L185.71,174.46L186.39,173.87L189.14,172.89L189.82,172.89L191.88,172.3L192.56,171.52L194.62,169.36L195.3,169.17L200.79,166.23L201.47,164.47L202.84,163.88L203.53,161.92L207.64,159.57L208.32,158.2L209.69,157.42L210.38,157.03L212.43,152.13L213.12,151.74L214.49,151.35L215.18,150.96L217.23,145.87L217.92,143.32L219.97,140.97L220.66,139.41L222.71,134.12L223.4,133.53L224.08,133.34L224.77,130.99L237.1,113.95L237.79,113.56L239.16,112.38L239.85,110.62L242.59,105.73L243.27,105.53L245.33,102.2L246.01,101.42L247.38,100.44L248.07,99.85L248.75,99.85L249.44,98.87L251.5,96.72L252.18,96.52L253.55,95.74L254.24,94.96L256.29,92.22L256.98,92.02L258.35,91.43L259.03,90.65L261.09,88.1L261.77,88.1L263.83,87.91L264.52,86.34L266.57,86.15L267.26,85.56L274.79,82.82L275.48,81.84L278.22,80.86L278.91,79.68L281.65,77.73L282.33,77.73L286.44,75.77L287.13,75.38L287.82,75.18L288.5,74.2L292.61,73.61L293.3,73.42L300.15,71.26" style="vector-effect: non-scaling-stroke; fill: none; stroke: rgb(255, 225, 25); stroke-opacity: 1; stroke-width: 2px; opacity: 1;"/></g><g class="points"/><g class="text"/></g><g class="trace scatter trace591f69" style="stroke-miterlimit: 2; opacity: 1;"><g class="fills"/><g class="errorbars"/><g class="lines"><path class="js-line" d="M0,256.5L55.51,255.91L56.19,254.93L60.99,254.35L61.67,253.37L67.84,252.19L68.53,252.19L74.69,251.6L75.38,251.41L78.12,251.21L78.81,251.21L90.46,250.63L91.14,250.43L139.8,249.84L140.48,249.65L163.78,249.06L164.47,248.86L190.51,248.28L191.19,248.08L213.12,247.49L213.81,247.3L217.23,246.71L217.92,246.32L222.71,245.73L223.4,245.34L224.77,244.75L225.46,244.75L227.51,243.77L228.2,243.38L231.62,242.79L232.31,241.42L236.42,241.03L237.1,240.25L239.85,239.86L240.53,238.88L242.59,238.29L243.27,238.09L246.7,236.72L247.38,236.72L249.44,236.14L250.13,235.94L256.29,234.77L256.98,234.77L258.35,234.37L259.03,233.98L262.46,233.59L263.15,233.2L268.63,232.61L269.31,232.42L282.33,231.83L283.02,231.63L287.82,231.63L288.5,230.65L291.93,230.46L292.61,230.46L296.04,230.26L296.72,229.67L300.15,229.28" style="vector-effect: non-scaling-stroke; fill: none; stroke: rgb(67, 99, 216); stroke-opacity: 1; stroke-width: 2px; opacity: 1;"/></g><g class="points"/><g class="text"/></g><g class="trace scatter trace49ca90" style="stroke-miterlimit: 2; opacity: 1;"><g class="fills"/><g class="errorbars"/><g class="lines"><path class="js-line" d="M0,256.5L95.94,255.91L96.62,255.52L107.59,254.93L108.27,254.74L121.29,254.15L121.98,253.95L127.46,253.37L128.15,253.17L131.57,252L132.26,252L138.43,250.43L139.11,250.43L140.48,250.23L141.17,249.65L147.33,249.06L148.02,248.67L152.82,248.08L153.5,247.88L161.04,246.51L161.72,246.51L168.58,245.93L169.26,245.73L174.74,245.14L175.43,244.95L181.6,244.36L182.28,244.16L188.45,243.58L189.14,243.38L191.19,242.79L191.88,242.4L193.25,242.01L193.93,240.84L196.67,238.88L197.36,237.51L201.47,233.79L202.16,232.61L204.21,230.07L204.9,229.67L211.75,221.65L212.43,221.45L215.86,217.93L216.55,216.36L218.6,214.21L219.29,214.21L219.97,214.21L220.66,213.23L222.03,212.25L222.71,211.07L228.2,205.79L228.88,205.59L234.36,203.63L235.05,202.65L237.1,200.69L237.79,200.69L241.22,197.56L241.9,197.37L243.27,197.37L243.96,196.39L245.33,195.02L246.01,194.23L250.13,191.49L250.81,191.49L252.18,189.92L252.87,189.53L253.55,189.34L254.24,188.36L258.35,186.4L259.03,185.81L261.09,185.42L261.77,185.42L265.89,183.46L266.57,183.46L273.42,180.33L274.11,180.13L278.91,177.98L279.59,177.98L283.02,176.61L283.7,176.61L291.24,176.22L291.93,175.43L300.15,173.87" style="vector-effect: non-scaling-stroke; fill: none; stroke: rgb(245, 130, 49); stroke-opacity: 1; stroke-width: 2px; opacity: 1;"/></g><g class="points"/><g class="text"/></g><g class="trace scatter trace36c7ea" style="stroke-miterlimit: 2; opacity: 1;"><g class="fills"/><g class="errorbars"/><g class="lines"><path class="js-line" d="M0,256.5L71.27,255.91L71.95,255.72L75.38,255.72L76.07,254.93L82.92,254.74L83.6,254.15L89.09,253.56L89.77,253.37L93.88,252.98L94.57,252L100.74,251.6L101.42,251.02L108.96,249.06L109.64,249.06L113.07,247.88L113.76,247.88L117.87,245.73L118.55,245.73L121.98,245.34L122.66,245.34L128.83,244.75L129.52,244.16L132.94,243.77L133.63,243.18L136.37,241.81L137.05,241.81L138.43,240.64L139.11,240.44L141.85,240.44L142.54,239.27L148.7,238.68L149.39,238.29L156.93,236.14L157.61,236.14L161.72,235.55L162.41,235.16L163.78,234.57L164.47,234.18L168.58,233.59L169.26,233.39L177.49,232.81L178.17,232.22L180.91,231.44L181.6,231.44L182.97,231.04L183.65,230.65L186.39,230.46L187.08,229.67L189.14,229.09L189.82,229.09L193.25,228.7L193.93,228.11L209.69,227.52L210.38,227.13L211.75,226.35L212.43,226.35L215.86,225.95L216.55,222.62L217.92,222.04L218.6,221.84L219.29,221.84L219.97,220.08L221.34,219.1L222.03,218.71L224.77,218.71L225.46,216.36L228.88,216.16L229.57,215.58L231.62,214.21L232.31,214.21L239.16,213.81L239.85,213.23L240.53,213.03L241.22,204.22L250.13,204.02L250.81,203.44L252.18,202.65L252.87,202.65L254.24,202.26L254.92,201.09L256.29,197.95L256.98,197.37L257.66,197.37L258.35,195.8L261.09,189.53L261.77,189.53L262.46,189.53L263.15,188.75L265.2,180.33L265.89,179.94L268.63,179.35L269.31,177.98L271.37,177.39L272.05,177.39L272.74,177.39L273.42,176.41L277.54,175.83L278.22,175.43L279.59,174.06L280.28,173.67L283.02,173.28L283.7,172.69L285.76,172.11L286.44,172.11L298.09,171.52L298.78,170.93L300.15,170.54" style="vector-effect: non-scaling-stroke; fill: none; stroke: rgb(145, 30, 180); stroke-opacity: 1; stroke-width: 2px; opacity: 1;"/></g><g class="points"/><g class="text"/></g></g></g><g class="overplot"/><path class="xlines-above crisp" d="M0,0" style="fill: none;"/><path class="ylines-above crisp" d="M0,0" style="fill: none;"/><g class="overlines-above"/><g class="xaxislayer-above"><g class="x2tick"><text text-anchor="middle" x="0" y="383" transform="translate(494.82000000000005,0)" style="font-family: 'Open Sans', verdana, arial, sans-serif; font-size: 12px; fill: rgb(242, 245, 250); fill-opacity: 1; white-space: pre;">Apr 2020</text></g><g class="x2tick"><text text-anchor="middle" x="0" y="383" transform="translate(557.1800000000001,0)" style="font-family: 'Open Sans', verdana, arial, sans-serif; font-size: 12px; fill: rgb(242, 245, 250); fill-opacity: 1; white-space: pre;">Jul 2020</text></g><g class="x2tick"><text text-anchor="middle" x="0" y="383" transform="translate(620.22,0)" style="font-family: 'Open Sans', verdana, arial, sans-serif; font-size: 12px; fill: rgb(242, 245, 250); fill-opacity: 1; white-space: pre;">Oct 2020</text></g><g class="x2tick"><text text-anchor="middle" x="0" y="383" transform="translate(683.27,0)" style="font-family: 'Open Sans', verdana, arial, sans-serif; font-size: 12px; fill: rgb(242, 245, 250); fill-opacity: 1; white-space: pre;">Jan 2021</text></g><g class="x2tick"><text text-anchor="middle" x="0" y="383" transform="translate(744.94,0)" style="font-family: 'Open Sans', verdana, arial, sans-serif; font-size: 12px; fill: rgb(242, 245, 250); fill-opacity: 1; white-space: pre;">Apr 2021</text></g></g><g class="yaxislayer-above"><g class="y2tick"><text text-anchor="end" x="445.85" y="4.199999999999999" transform="translate(0,356.5)" style="font-family: 'Open Sans', verdana, arial, sans-serif; font-size: 12px; fill: rgb(242, 245, 250); fill-opacity: 1; white-space: pre;">0</text></g><g class="y2tick"><text text-anchor="end" x="445.85" y="4.199999999999999" transform="translate(0,317.34000000000003)" style="font-family: 'Open Sans', verdana, arial, sans-serif; font-size: 12px; fill: rgb(242, 245, 250); fill-opacity: 1; white-space: pre;">200</text></g><g class="y2tick"><text text-anchor="end" x="445.85" y="4.199999999999999" transform="translate(0,278.18)" style="font-family: 'Open Sans', verdana, arial, sans-serif; font-size: 12px; fill: rgb(242, 245, 250); fill-opacity: 1; white-space: pre;">400</text></g><g class="y2tick"><text text-anchor="end" x="445.85" y="4.199999999999999" transform="translate(0,239.01)" style="font-family: 'Open Sans', verdana, arial, sans-serif; font-size: 12px; fill: rgb(242, 245, 250); fill-opacity: 1; white-space: pre;">600</text></g><g class="y2tick"><text text-anchor="end" x="445.85" y="4.199999999999999" transform="translate(0,199.85)" style="font-family: 'Open Sans', verdana, arial, sans-serif; font-size: 12px; fill: rgb(242, 245, 250); fill-opacity: 1; white-space: pre;">800</text></g><g class="y2tick"><text text-anchor="end" x="445.85" y="4.199999999999999" transform="translate(0,160.69)" style="font-family: 'Open Sans', verdana, arial, sans-serif; font-size: 12px; fill: rgb(242, 245, 250); fill-opacity: 1; white-space: pre;">1000</text></g><g class="y2tick"><text text-anchor="end" x="445.85" y="4.199999999999999" transform="translate(0,121.53)" style="font-family: 'Open Sans', verdana, arial, sans-serif; font-size: 12px; fill: rgb(242, 245, 250); fill-opacity: 1; white-space: pre;">1200</text></g></g><g class="overaxes-above"/></g></g><g class="polarlayer"/><g class="ternarylayer"/><g class="geolayer"/><g class="funnelarealayer"/><g class="pielayer"/><g class="treemaplayer"/><g class="sunburstlayer"/><g class="glimages"/><defs id="topdefs-a4749d"><g class="clips"/><clipPath id="legenda4749d"><rect width="128" height="124" x="0" y="0"/></clipPath></defs><g class="layer-above"><g class="imagelayer"/><g class="shapelayer"/></g><g class="infolayer"><g class="legend" pointer-events="all" transform="translate(760.34, 100)"><rect class="bg" shape-rendering="crispEdges" width="128" height="124" x="0" y="0" style="stroke: rgb(68, 68, 68); stroke-opacity: 1; fill: rgb(17, 17, 17); fill-opacity: 1; stroke-width: 0px;"/><g class="scrollbox" transform="translate(0, 0)" clip-path="url('#legenda4749d')"><g class="groups"><g class="traces" transform="translate(0, 14.5)" style="opacity: 1;"><text class="legendtext user-select-none" text-anchor="start" x="40" y="4.680000000000001" style="font-family: 'Open Sans', verdana, arial, sans-serif; font-size: 12px; fill: rgb(242, 245, 250); fill-opacity: 1; white-space: pre;">Alameda, CA</text><g class="layers" style="opacity: 1;"><g class="legendfill"/><g class="legendlines"><path class="js-line" d="M5,0h30" style="fill: none; stroke: rgb(230, 25, 75); stroke-opacity: 1; stroke-width: 2px;"/></g><g class="legendsymbols"><g class="legendpoints"/></g></g><rect class="legendtoggle" pointer-events="all" x="0" y="-9.5" width="122.59375" height="19" style="cursor: pointer; fill: rgb(0, 0, 0); fill-opacity: 0;"/></g><g class="traces" transform="translate(0, 33.5)" style="opacity: 1;"><text class="legendtext user-select-none" text-anchor="start" x="40" y="4.680000000000001" style="font-family: 'Open Sans', verdana, arial, sans-serif; font-size: 12px; fill: rgb(242, 245, 250); fill-opacity: 1; white-space: pre;">Osceola, FL</text><g class="layers" style="opacity: 1;"><g class="legendfill"/><g class="legendlines"><path class="js-line" d="M5,0h30" style="fill: none; stroke: rgb(60, 180, 75); stroke-opacity: 1; stroke-width: 2px;"/></g><g class="legendsymbols"><g class="legendpoints"/></g></g><rect class="legendtoggle" pointer-events="all" x="0" y="-9.5" width="122.59375" height="19" style="cursor: pointer; fill: rgb(0, 0, 0); fill-opacity: 0;"/></g><g class="traces" transform="translate(0, 52.5)" style="opacity: 1;"><text class="legendtext user-select-none" text-anchor="start" x="40" y="4.680000000000001" style="font-family: 'Open Sans', verdana, arial, sans-serif; font-size: 12px; fill: rgb(242, 245, 250); fill-opacity: 1; white-space: pre;">Will, IL</text><g class="layers" style="opacity: 1;"><g class="legendfill"/><g class="legendlines"><path class="js-line" d="M5,0h30" style="fill: none; stroke: rgb(255, 225, 25); stroke-opacity: 1; stroke-width: 2px;"/></g><g class="legendsymbols"><g class="legendpoints"/></g></g><rect class="legendtoggle" pointer-events="all" x="0" y="-9.5" width="122.59375" height="19" style="cursor: pointer; fill: rgb(0, 0, 0); fill-opacity: 0;"/></g><g class="traces" transform="translate(0, 71.5)" style="opacity: 1;"><text class="legendtext user-select-none" text-anchor="start" x="40" y="4.680000000000001" style="font-family: 'Open Sans', verdana, arial, sans-serif; font-size: 12px; fill: rgb(242, 245, 250); fill-opacity: 1; white-space: pre;">Hopkins, KY</text><g class="layers" style="opacity: 1;"><g class="legendfill"/><g class="legendlines"><path class="js-line" d="M5,0h30" style="fill: none; stroke: rgb(67, 99, 216); stroke-opacity: 1; stroke-width: 2px;"/></g><g class="legendsymbols"><g class="legendpoints"/></g></g><rect class="legendtoggle" pointer-events="all" x="0" y="-9.5" width="122.59375" height="19" style="cursor: pointer; fill: rgb(0, 0, 0); fill-opacity: 0;"/></g><g class="traces" transform="translate(0, 90.5)" style="opacity: 1;"><text class="legendtext user-select-none" text-anchor="start" x="40" y="4.680000000000001" style="font-family: 'Open Sans', verdana, arial, sans-serif; font-size: 12px; fill: rgb(242, 245, 250); fill-opacity: 1; white-space: pre;">Dona Ana, NM</text><g class="layers" style="opacity: 1;"><g class="legendfill"/><g class="legendlines"><path class="js-line" d="M5,0h30" style="fill: none; stroke: rgb(245, 130, 49); stroke-opacity: 1; stroke-width: 2px;"/></g><g class="legendsymbols"><g class="legendpoints"/></g></g><rect class="legendtoggle" pointer-events="all" x="0" y="-9.5" width="122.59375" height="19" style="cursor: pointer; fill: rgb(0, 0, 0); fill-opacity: 0;"/></g><g class="traces" transform="translate(0, 109.5)" style="opacity: 1;"><text class="legendtext user-select-none" text-anchor="start" x="40" y="4.680000000000001" style="font-family: 'Open Sans', verdana, arial, sans-serif; font-size: 12px; fill: rgb(242, 245, 250); fill-opacity: 1; white-space: pre;">Tuscaloosa, AL</text><g class="layers" style="opacity: 1;"><g class="legendfill"/><g class="legendlines"><path class="js-line" d="M5,0h30" style="fill: none; stroke: rgb(145, 30, 180); stroke-opacity: 1; stroke-width: 2px;"/></g><g class="legendsymbols"><g class="legendpoints"/></g></g><rect class="legendtoggle" pointer-events="all" x="0" y="-9.5" width="122.59375" height="19" style="cursor: pointer; fill: rgb(0, 0, 0); fill-opacity: 0;"/></g></g></g><rect class="scrollbar" rx="20" ry="3" width="0" height="0" x="0" y="0" style="fill: rgb(128, 139, 164); fill-opacity: 1;"/></g><g class="g-gtitle"/><g class="g-xtitle"><text class="xtitle" x="230.07500000000002" y="410.8" text-anchor="middle" style="font-family: 'Open Sans', verdana, arial, sans-serif; font-size: 14px; fill: rgb(242, 245, 250); opacity: 1; font-weight: normal; white-space: pre;">Date</text></g><g class="g-x2title"><text class="x2title" x="596.925" y="410.8" text-anchor="middle" style="font-family: 'Open Sans', verdana, arial, sans-serif; font-size: 14px; fill: rgb(242, 245, 250); opacity: 1; font-weight: normal; white-space: pre;">Date</text></g><g class="g-ytitle"><text class="ytitle" transform="rotate(-90,34.840625,235)" x="34.840625" y="235" text-anchor="middle" style="font-family: 'Open Sans', verdana, arial, sans-serif; font-size: 14px; fill: rgb(242, 245, 250); opacity: 1; font-weight: normal; white-space: pre;">Cases</text></g><g class="g-y2title"><text class="y2title" transform="rotate(-90,394.340625,235)" x="394.340625" y="235" text-anchor="middle" style="font-family: 'Open Sans', verdana, arial, sans-serif; font-size: 14px; fill: rgb(242, 245, 250); opacity: 1; font-weight: normal; white-space: pre;">Deaths</text></g><g class="annotation" data-index="0" style="opacity: 1;"><g class="annotation-text-g" transform="rotate(0,230.07500000000002,89.5)"><g class="cursor-pointer" transform="translate(206, 79)"><rect class="bg" x="0.5" y="0.5" width="48" height="20" style="stroke-width: 1px; stroke: rgb(0, 0, 0); stroke-opacity: 0; fill: rgb(0, 0, 0); fill-opacity: 0;"/><text class="annotation-text" text-anchor="middle" x="24.6875" y="16" style="font-family: 'Open Sans', verdana, arial, sans-serif; font-size: 16px; fill: rgb(242, 245, 250); fill-opacity: 1; white-space: pre;">Cases</text></g></g></g><g class="annotation" data-index="1" style="opacity: 1;"><g class="annotation-text-g" transform="rotate(0,596.9250000000001,89.5)"><g class="cursor-pointer" transform="translate(569, 79)"><rect class="bg" x="0.5" y="0.5" width="54" height="20" style="stroke-width: 1px; stroke: rgb(0, 0, 0); stroke-opacity: 0; fill: rgb(0, 0, 0); fill-opacity: 0;"/><text class="annotation-text" text-anchor="middle" x="27.359375" y="16" style="font-family: 'Open Sans', verdana, arial, sans-serif; font-size: 16px; fill: rgb(242, 245, 250); fill-opacity: 1; white-space: pre;">Deaths</text></g></g></g></g></svg>