<svg class="main-svg" xmlns="http://www.w3.org/2000/svg" xmlns:xlink="http://www.w3.org/1999/xlink" width="900" height="450" style="" viewBox="0 0 900 450"><rect x="0" y="0" width="900" height="450" style="fill: rgb(17, 17, 17); fill-opacity: 1;"/><defs id="defs-cb4e5a"><g class="clips"><clipPath id="clipcb4e5axyplot" class="plotclip"><rect width="299.7" height="270"/></clipPath><clipPath id="clipcb4e5ax2y2plot" class="plotclip"><rect width="299.7" height="270"/></clipPath><clipPath class="axesclip" id="clipcb4e5ax"><rect x="80" y="0" width="299.7" height="450"/></clipPath><clipPath class="axesclip" id="clipcb4e5ay"><rect x="0" y="100" width="900" height="270"/></clipPath><clipPath class="axesclip" id="clipcb4e5axy"><rect x="80" y="100" width="299.7" height="270"/></clipPath><clipPath class="axesclip" id="clipcb4e5ay2"><rect x="0" y="100" width="900" height="270"/></clipPath><clipPath class="axesclip" id="clipcb4e5axy2"><rect x="80" y="100" width="299.7" height="270"/></clipPath><clipPath class="axesclip" id="clipcb4e5ax2"><rect x="446.3" y="0" width="299.7" height="450"/></clipPath><clipPath class="axesclip" id="clipcb4e5ax2y"><rect x="446.3" y="100" width="299.7" height="270"/></clipPath><clipPath class="axesclip" id="clipcb4e5ax2y2"><rect x="446.3" y="100" width="299.7" height="270"/></clipPath></g><g class="gradients"/></defs><g class="bglayer"/><g class="layer-below"><g class="imagelayer"/><g class="shapelayer"/></g><g class="cartesianlayer"><g class="subplot xy"><g class="layer-subplot"><g class="shapelayer"/><g class="imagelayer"/></g><g class="gridlayer"><g class="x"><path class="xgrid crisp" transform="translate(118.7,0)" d="M0,100v270" style="stroke: rgb(40, 52, 66); stroke-opacity: 1; stroke-width: 1px;"/><path class="xgrid crisp" transform="translate(179.24,0)" d="M0,100v270" style="stroke: rgb(40, 52, 66); stroke-opacity: 1; stroke-width: 1px;"/><path class="xgrid crisp" transform="translate(239.77,0)" d="M0,100v270" style="stroke: rgb(40, 52, 66); stroke-opacity: 1; stroke-width: 1px;"/><path class="xgrid crisp" transform="translate(301.3,0)" d="M0,100v270" style="stroke: rgb(40, 52, 66); stroke-opacity: 1; stroke-width: 1px;"/><path class="xgrid crisp" transform="translate(361.84,0)" d="M0,100v270" style="stroke: rgb(40, 52, 66); stroke-opacity: 1; stroke-width: 1px;"/></g><g class="y"><path class="ygrid crisp" transform="translate(0,311.38)" d="M80,0h299.7" style="stroke: rgb(40, 52, 66); stroke-opacity: 1; stroke-width: 1px;"/><path class="ygrid crisp" transform="translate(0,266.26)" d="M80,0h299.7" style="stroke: rgb(40, 52, 66); stroke-opacity: 1; stroke-width: 1px;"/><path class="ygrid crisp" transform="translate(0,221.13)" d="M80,0h299.7" style="stroke: rgb(40, 52, 66); stroke-opacity: 1; stroke-width: 1px;"/><path class="ygrid crisp" transform="translate(0,176.01)" d="M80,0h299.7" style="stroke: rgb(40, 52, 66); stroke-opacity: 1; stroke-width: 1px;"/><path class="ygrid crisp" transform="translate(0,130.89)" d="M80,0h299.7" style="stroke: rgb(40, 52, 66); stroke-opacity: 1; stroke-width: 1px;"/></g></g><g class="zerolinelayer"><path class="yzl zl crisp" transform="translate(0,356.5)" d="M80,0h299.7" style="stroke: rgb(40, 52, 66); stroke-opacity: 1; stroke-width: 2px;"/></g><path class="xlines-below"/><path class="ylines-below"/><g class="overlines-below"/><g class="xaxislayer-below"/><g class="yaxislayer-below"/><g class="overaxes-below"/><g class="plot" transform="translate(80, 100)" clip-path="url('#clipcb4e5axyplot')"><g class="scatterlayer mlayer"><g class="trace scatter tracef699f8" style="stroke-miterlimit: 2; opacity: 1;"><g class="fills"/><g class="errorbars"/><g class="lines"><path class="js-line" d="M0,256.5L58.55,255.91L59.54,255.54L67.48,253.95L68.47,253.68L81.38,248.52L82.37,248.52L86.34,246.45L87.33,246L91.3,244.32L92.29,243.86L106.19,238.8L107.18,238.24L116.11,234.33L117.1,233.74L120.08,232.06L121.07,231.53L136.95,220.9L137.94,220.54L141.91,217.97L142.9,217.51L145.88,215.59L146.87,214.64L149.85,213.14L150.84,211.31L155.8,205.89L156.8,205.33L157.79,204.5L158.78,202.68L161.76,198.09L162.75,197.34L163.74,194.64L164.74,194.35L165.73,194.35L166.72,191.12L169.7,186.79L170.69,186.79L174.66,178.65L175.65,176.56L177.64,173.14L178.63,172.97L179.62,171.82L180.61,169.48L183.59,163.28L184.58,162.92L185.58,162.3L186.57,160.54L187.56,159.28L188.55,156.05L189.55,156.05L190.54,152.86L191.53,152.5L192.52,149.6L193.51,149.03L194.51,146.98L197.48,146.98L198.48,137.39L199.47,137.22L200.46,133.19L202.45,128.09L203.44,125.12L204.43,125.12L205.42,120.02L206.42,119.96L207.41,117.19L210.39,107.88L211.38,105.86L213.36,105.49L214.35,100.6L215.35,99.61L216.34,97.48L217.33,95.44L218.32,95.44L225.27,83.85L226.26,83.85L227.26,81.88L228.25,81.88L230.23,78.63L231.23,77.65L232.22,77.48L233.21,76.09L237.18,74.55L238.17,72.73L241.15,70.23L242.14,69.26L249.09,64.07L250.08,63.53L258.02,58.52L259.01,58.49L261,56.62L261.99,56.62L263.97,55.03L264.97,54.62L266.95,53.82L267.94,52.22L275.88,45.41L276.88,45.41L278.86,43.2L279.85,41.94L286.8,36.14L287.79,33.92L290.77,29.9L291.76,28.64L296.72,21.44L297.72,17.71L299.7,13.5" style="vector-effect: non-scaling-stroke; fill: none; stroke: rgb(230, 25, 75); stroke-opacity: 1; stroke-width: 2px; opacity: 1;"/></g><g class="points"/><g class="text"/></g><g class="trace scatter trace88d578" style="stroke-miterlimit: 2; opacity: 1;"><g class="fills"/><g class="errorbars"/><g class="lines"><path class="js-line" d="M0,256.5L72.44,255.79L73.44,255.72L94.28,254.35L95.27,254.33L105.19,254.05L106.19,254.04L152.83,252.54L153.82,252.37L164.74,250.74L165.73,250.28L175.65,248.38L176.64,247.31L179.62,245.82L180.61,244.15L182.6,243.13L183.59,242.49L186.57,241.72L187.56,240.51L193.51,237.88L194.51,237.04L198.48,235.96L199.47,235.85L208.4,233.09L209.39,232.59L217.33,230.04L218.32,229.91L224.28,228.29L225.27,228.1L243.13,225.55L244.13,225.31L256.04,221.77L257.03,221.47L269.93,216.86L270.92,216.34L276.88,213.18L277.87,212.42L283.82,210.68L284.81,209.72L290.77,206.61L291.76,206.61L299.7,203.33" style="vector-effect: non-scaling-stroke; fill: none; stroke: rgb(60, 180, 75); stroke-opacity: 1; stroke-width: 2px; opacity: 1;"/></g><g class="points"/><g class="text"/></g><g class="trace scatter trace36225b" style="stroke-miterlimit: 2; opacity: 1;"><g class="fills"/><g class="errorbars"/><g class="lines"><path class="js-line" d="M0,256.5L71.45,256L72.44,255.32L78.4,253.75L79.39,253.63L87.33,252.51L88.32,252.42L91.3,251.98L92.29,251.92L100.23,251.23L101.22,251.23L114.12,250.01L115.12,249.92L126.03,249L127.03,248.79L134.96,248.06L135.96,247.98L140.92,247.47L141.91,247.12L150.84,246.37L151.83,246L160.77,243.92L161.76,243.31L164.74,242.59L165.73,241.84L170.69,239.41L171.68,239.23L174.66,237.17L175.65,236.49L177.64,235.74L178.63,234.42L180.61,233.61L181.61,232.82L188.55,229.42L189.55,229.09L190.54,229.09L191.53,228.19L193.51,227.41L194.51,226.8L210.39,221.31L211.38,221.31L215.35,220.8L216.34,220.72L240.16,217.01L241.15,216.93L256.04,215.28L257.03,213.51L271.91,211.96L272.91,211.75L278.86,211.04L279.85,210.95L287.79,210.33L288.78,210.14L292.75,209.6L293.75,208.82L297.72,208.82L298.71,205.23L299.7,201.64" style="vector-effect: non-scaling-stroke; fill: none; stroke: rgb(255, 225, 25); stroke-opacity: 1; stroke-width: 2px; opacity: 1;"/></g><g class="points"/><g class="text"/></g><g class="trace scatter traceae5f1a" style="stroke-miterlimit: 2; opacity: 1;"><g class="fills"/><g class="errorbars"/><g class="lines"><path class="js-line" d="M0,256.5L256.04,255.75L257.03,255.6L282.83,253.13L283.82,253.03L296.72,252.31L297.72,252.3L299.7,252.21" style="vector-effect: non-scaling-stroke; fill: none; stroke: rgb(67, 99, 216); stroke-opacity: 1; stroke-width: 2px; opacity: 1;"/></g><g class="points"/><g class="text"/></g><g class="trace scatter trace5bb32e" style="stroke-miterlimit: 2; opacity: 1;"><g class="fills"/><g class="errorbars"/><g class="lines"><path class="js-line" d="M0,256.5L104.2,255.96L105.19,255.52L122.06,254.44L123.06,254.44L201.45,253.71L202.45,253.68L219.32,253.22L220.31,253.22L236.19,252.95L237.18,252.95L256.04,252.45L257.03,252.04L263.97,251.05L264.97,250.88L275.88,248.61L276.88,248.09L299.7,243.32" style="vector-effect: non-scaling-stroke; fill: none; stroke: rgb(245, 130, 49); stroke-opacity: 1; stroke-width: 2px; opacity: 1;"/></g><g class="points"/><g class="text"/></g><g class="trace scatter tracec86c2e" style="stroke-miterlimit: 2; opacity: 1;"><g class="fills"/><g class="errorbars"/><g class="lines"><path class="js-line" d="M0,256.5L65.5,255.77L66.49,255.64L71.45,254.48L72.44,254.32L75.42,253.43L76.41,253.14L81.38,251.77L82.37,251.67L91.3,249.86L92.29,249.59L133.97,241.47L134.96,241L137.94,239.6L138.93,239.01L154.81,229.11L155.8,228.06L159.77,224.22L160.77,223.09L171.68,212.12L172.67,210.02L180.61,198.05L181.61,197.15L183.59,194.91L184.58,194.29L186.57,192.33L187.56,190.95L189.55,187.54L190.54,186.84L195.5,181.77L196.49,179.68L197.48,179.68L198.48,177.32L200.46,176.03L201.45,174L203.44,173.26L204.43,172.44L208.4,170.19L209.39,169.13L217.33,162.61L218.32,160.81L220.31,155.48L221.3,153.96L223.29,152.16L224.28,148.1L227.26,145.34L228.25,144.63L230.23,143.67L231.23,136.76L232.22,135.8L233.21,133.43L239.16,127.01L240.16,126.24L242.14,124.82L243.13,123.92L248.1,118.07L249.09,117.56L255.04,114.24L256.04,113.51L263.97,109.74L264.97,108.81L267.94,106.46L268.94,106.23L276.88,101.44L277.87,100.91L288.78,92.14L289.78,91.75L293.75,87.95L294.74,86.56L296.72,85.93L297.72,85.93L298.71,85.93L299.7,82.19" style="vector-effect: non-scaling-stroke; fill: none; stroke: rgb(145, 30, 180); stroke-opacity: 1; stroke-width: 2px; opacity: 1;"/></g><g class="points"/><g class="text"/></g></g></g><g class="overplot"/><path class="xlines-above crisp" d="M0,0" style="fill: none;"/><path class="ylines-above crisp" d="M0,0" style="fill: none;"/><g class="overlines-above"/><g class="xaxislayer-above"><g class="xtick"><text text-anchor="middle" x="0" y="383" transform="translate(118.7,0)" style="font-family: 'Open Sans', verdana, arial, sans-serif; font-size: 12px; fill: rgb(242, 245, 250); fill-opacity: 1; white-space: pre;">Mar 2020</text></g><g class="xtick"><text text-anchor="middle" x="0" y="383" transform="translate(179.24,0)" style="font-family: 'Open Sans', verdana, arial, sans-serif; font-size: 12px; fill: rgb(242, 245, 250); fill-opacity: 1; white-space: pre;">May 2020</text></g><g class="xtick"><text text-anchor="middle" x="0" y="383" transform="translate(239.77,0)" style="font-family: 'Open Sans', verdana, arial, sans-serif; font-size: 12px; fill: rgb(242, 245, 250); fill-opacity: 1; white-space: pre;">Jul 2020</text></g><g class="xtick"><text text-anchor="middle" x="0" y="383" transform="translate(301.3,0)" style="font-family: 'Open Sans', verdana, arial, sans-serif; font-size: 12px; fill: rgb(242, 245, 250); fill-opacity: 1; white-space: pre;">Sep 2020</text></g><g class="xtick"><text text-anchor="middle" x="0" y="383" transform="translate(361.84,0)" style="font-family: 'Open Sans', verdana, arial, sans-serif; font-size: 12px; fill: rgb(242, 245, 250); fill-opacity: 1; white-space: pre;">Nov 2020</text></g></g><g class="yaxislayer-above"><g class="ytick"><text text-anchor="end" x="79" y="4.199999999999999" transform="translate(0,356.5)" style="font-family: 'Open Sans', verdana, arial, sans-serif; font-size: 12px; fill: rgb(242, 245, 250); fill-opacity: 1; white-space: pre;">0</text></g><g class="ytick"><text text-anchor="end" x="79" y="4.199999999999999" transform="translate(0,311.38)" style="font-family: 'Open Sans', verdana, arial, sans-serif; font-size: 12px; fill: rgb(242, 245, 250); fill-opacity: 1; white-space: pre;">5k</text></g><g class="ytick"><text text-anchor="end" x="79" y="4.199999999999999" transform="translate(0,266.26)" style="font-family: 'Open Sans', verdana, arial, sans-serif; font-size: 12px; fill: rgb(242, 245, 250); fill-opacity: 1; white-space: pre;">10k</text></g><g class="ytick"><text text-anchor="end" x="79" y="4.199999999999999" transform="translate(0,221.13)" style="font-family: 'Open Sans', verdana, arial, sans-serif; font-size: 12px; fill: rgb(242, 245, 250); fill-opacity: 1; white-space: pre;">15k</text></g><g class="ytick"><text text-anchor="end" x="79" y="4.199999999999999" transform="translate(0,176.01)" style="font-family: 'Open Sans', verdana, arial, sans-serif; font-size: 12px; fill: rgb(242, 245, 250); fill-opacity: 1; white-space: pre;">20k</text></g><g class="ytick"><text text-anchor="end" x="79" y="4.199999999999999" transform="translate(0,130.89)" style="font-family: 'Open Sans', verdana, arial, sans-serif; font-size: 12px; fill: rgb(242, 245, 250); fill-opacity: 1; white-space: pre;">25k</text></g></g><g class="overaxes-above"/></g><g class="subplot x2y2"><g class="layer-subplot"><g class="shapelayer"/><g class="imagelayer"/></g><g class="gridlayer"><g class="x2"><path class="x2grid crisp" transform="translate(485,0)" d="M0,100v270" style="stroke: rgb(40, 52, 66); stroke-opacity: 1; stroke-width: 1px;"/><path class="x2grid crisp" transform="translate(545.54,0)" d="M0,100v270" style="stroke: rgb(40, 52, 66); stroke-opacity: 1; stroke-width: 1px;"/><path class="x2grid crisp" transform="translate(606.07,0)" d="M0,100v270" style="stroke: rgb(40, 52, 66); stroke-opacity: 1; stroke-width: 1px;"/><path class="x2grid crisp" transform="translate(667.6,0)" d="M0,100v270" style="stroke: rgb(40, 52, 66); stroke-opacity: 1; stroke-width: 1px;"/><path class="x2grid crisp" transform="translate(728.14,0)" d="M0,100v270" style="stroke: rgb(40, 52, 66); stroke-opacity: 1; stroke-width: 1px;"/></g><g class="y2"><path class="y2grid crisp" transform="translate(0,307.40999999999997)" d="M446.3,0h299.7" style="stroke: rgb(40, 52, 66); stroke-opacity: 1; stroke-width: 1px;"/><path class="y2grid crisp" transform="translate(0,258.32)" d="M446.3,0h299.7" style="stroke: rgb(40, 52, 66); stroke-opacity: 1; stroke-width: 1px;"/><path class="y2grid crisp" transform="translate(0,209.23000000000002)" d="M446.3,0h299.7" style="stroke: rgb(40, 52, 66); stroke-opacity: 1; stroke-width: 1px;"/><path class="y2grid crisp" transform="translate(0,160.14)" d="M446.3,0h299.7" style="stroke: rgb(40, 52, 66); stroke-opacity: 1; stroke-width: 1px;"/><path class="y2grid crisp" transform="translate(0,111.05)" d="M446.3,0h299.7" style="stroke: rgb(40, 52, 66); stroke-opacity: 1; stroke-width: 1px;"/></g></g><g class="zerolinelayer"><path class="y2zl zl crisp" transform="translate(0,356.5)" d="M446.3,0h299.7" style="stroke: rgb(40, 52, 66); stroke-opacity: 1; stroke-width: 2px;"/></g><path class="xlines-below"/><path class="ylines-below"/><g class="overlines-below"/><g class="xaxislayer-below"/><g class="yaxislayer-below"/><g class="overaxes-below"/><g class="plot" transform="translate(446.3, 100)" clip-path="url('#clipcb4e5ax2y2plot')"><g class="scatterlayer mlayer"><g class="trace scatter trace44c565" style="stroke-miterlimit: 2; opacity: 1;"><g class="fills"/><g class="errorbars"/><g class="lines"><path class="js-line" d="M0,256.5L60.54,256.01L61.53,255.52L62.52,255.52L63.51,254.54L64.5,254.54L65.5,253.55L67.48,253.06L68.47,253.06L70.46,252.08L71.45,250.61L74.43,250.12L75.42,249.14L77.41,248.15L78.4,246.68L81.38,245.21L82.37,245.21L83.36,238.83L84.35,237.35L85.35,237.35L86.34,236.37L91.3,233.92L92.29,232.94L93.28,230.97L94.28,230.97L95.27,230.97L96.26,229.5L100.23,225.57L101.22,225.57L102.22,225.57L103.21,224.1L105.19,223.61L106.19,222.14L108.17,221.65L109.16,221.65L113.13,216.25L114.12,215.75L116.11,215.75L117.1,214.28L121.07,211.34L122.06,210.85L126.03,210.35L127.03,209.86L130,209.37L130.99,208.88L132.98,208.88L133.97,206.92L137.94,206.43L138.93,204.95L140.92,202.99L141.91,202.99L142.9,201.52L143.9,201.52L144.89,201.52L145.88,199.55L148.86,198.57L149.85,198.57L152.83,196.61L153.82,193.66L156.8,191.21L157.79,191.21L161.76,187.77L162.75,187.77L165.73,187.77L166.72,186.79L168.71,184.34L169.7,183.85L171.68,183.85L172.67,181.88L174.66,180.9L175.65,177.46L177.64,176.97L178.63,176.97L182.6,169.12L183.59,169.12L185.58,169.12L186.57,167.65L189.55,167.15L190.54,163.72L192.52,163.72L193.51,162.25L195.5,161.75L196.49,161.75L197.48,161.75L198.48,155.86L200.46,155.86L201.45,152.43L203.44,148.99L204.43,148.99L207.41,146.54L208.4,144.57L210.39,142.12L211.38,142.12L213.36,141.63L214.35,138.68L217.33,135.25L218.32,135.25L219.32,130.34L220.31,130.34L221.3,130.34L222.29,121.99L223.29,111.68L224.28,111.19L225.27,109.72L226.26,109.72L228.25,109.23L229.24,107.75L230.23,107.75L231.23,99.41L232.22,99.41L233.21,93.52L234.2,93.03L235.2,81.74L236.19,81.74L237.18,77.32L239.16,72.9L240.16,72.9L241.15,72.9L242.14,65.05L246.11,57.19L247.1,57.19L248.1,57.19L249.09,56.21L250.08,54.25L251.07,50.32L252.07,50.32L253.06,47.86L255.04,47.86L256.04,46.88L257.03,44.92L258.02,44.92L269.93,44.43L270.92,42.95L271.91,32.65L272.91,32.65L274.89,30.19L275.88,30.19L278.86,29.21L279.85,29.21L284.81,29.21L285.81,28.23L287.79,23.81L288.78,23.81L290.77,23.81L291.76,19.39L292.75,17.92L293.75,17.92L295.73,15.95L296.72,15.95L298.71,13.99L299.7,13.5" style="vector-effect: non-scaling-stroke; fill: none; stroke: rgb(230, 25, 75); stroke-opacity: 1; stroke-width: 2px; opacity: 1;"/></g><g class="points"/><g class="text"/></g><g class="trace scatter trace7c85c9" style="stroke-miterlimit: 2; opacity: 1;"><g class="fills"/><g class="errorbars"/><g class="lines"><path class="js-line" d="M0,256.5L72.44,256.01L73.44,255.03L75.42,254.05L76.41,254.05L99.24,253.55L100.23,253.06L102.22,253.06L103.21,252.08L106.19,251.1L107.18,251.1L109.16,251.1L110.15,250.12L131.99,249.63L132.98,249.14L164.74,248.65L165.73,248.15L168.71,247.66L169.7,247.17L176.64,246.68L177.64,246.19L181.61,244.72L182.6,244.72L184.58,243.25L185.58,243.25L194.51,243.25L195.5,235.88L199.47,235.39L200.46,234.9L203.44,233.43L204.43,233.43L207.41,232.94L208.4,231.95L211.38,229.99L212.37,229.99L213.36,229.99L214.35,228.52L216.34,227.54L217.33,227.54L228.25,227.05L229.24,225.08L232.22,224.1L233.21,224.1L241.15,223.61L242.14,222.63L255.04,222.14L256.04,221.65L259.01,220.17L260,220.17L263.97,219.68L264.97,219.19L267.94,218.21L268.94,216.74L270.92,215.26L271.91,215.26L274.89,214.77L275.88,213.79L280.84,211.83L281.84,211.83L282.83,207.9L283.82,207.41L285.81,206.92L286.8,206.43L292.75,205.94L293.75,204.95L296.72,204.95L297.72,202.01L299.7,201.52" style="vector-effect: non-scaling-stroke; fill: none; stroke: rgb(60, 180, 75); stroke-opacity: 1; stroke-width: 2px; opacity: 1;"/></g><g class="points"/><g class="text"/></g><g class="trace scatter trace349f49" style="stroke-miterlimit: 2; opacity: 1;"><g class="fills"/><g class="errorbars"/><g class="lines"><path class="js-line" d="M0,256.5L71.45,256.01L72.44,255.52L75.42,255.03L76.41,254.54L81.38,252.57L82.37,251.1L84.35,248.65L85.35,247.66L91.3,247.66L92.29,246.19L98.25,245.7L99.24,245.21L103.21,245.21L104.2,244.23L108.17,242.75L109.16,242.75L112.14,241.77L113.13,241.77L120.08,241.28L121.07,240.79L123.06,240.3L124.05,240.3L127.03,239.32L128.02,239.32L130,239.32L130.99,238.34L132.98,237.35L133.97,237.35L137.94,237.35L138.93,236.37L140.92,235.88L141.91,235.88L167.71,235.39L168.71,234.9L173.67,234.41L174.66,233.92L179.62,233.43L180.61,230.48L183.59,229.99L184.58,229.01L186.57,229.01L187.56,228.03L189.55,226.06L190.54,226.06L192.52,225.57L193.51,225.57L194.51,222.63L195.5,222.63L196.49,221.15L197.48,221.15L199.47,218.7L200.46,218.21L202.45,218.21L203.44,217.23L204.43,217.23L205.42,215.75L206.42,215.75L207.41,214.77L209.39,213.79L210.39,213.3L213.36,213.3L214.35,212.32L216.34,211.83L217.33,210.35L218.32,210.35L219.32,208.88L221.3,208.39L222.29,206.43L225.27,205.45L226.26,203.97L232.22,203.48L233.21,202.99L237.18,200.05L238.17,199.55L243.13,199.06L244.13,198.57L250.08,198.08L251.07,197.59L261,197.1L261.99,196.61L274.89,196.12L275.88,194.65L287.79,194.15L288.78,193.17L298.71,192.68L299.7,188.26" style="vector-effect: non-scaling-stroke; fill: none; stroke: rgb(255, 225, 25); stroke-opacity: 1; stroke-width: 2px; opacity: 1;"/></g><g class="points"/><g class="text"/></g><g class="trace scatter trace333c8e" style="stroke-miterlimit: 2; opacity: 1;"><g class="fills"/><g class="errorbars"/><g class="lines"><path class="js-line" d="M0,256.5L261.99,256.5L262.98,255.52L276.88,255.03L277.87,253.06L293.75,252.57L294.74,250.12L297.72,249.63L298.71,248.15L299.7,248.15" style="vector-effect: non-scaling-stroke; fill: none; stroke: rgb(67, 99, 216); stroke-opacity: 1; stroke-width: 2px; opacity: 1;"/></g><g class="points"/><g class="text"/></g><g class="trace scatter tracea47a1b" style="stroke-miterlimit: 2; opacity: 1;"><g class="fills"/><g class="errorbars"/><g class="lines"><path class="js-line" d="M0,256.5L124.05,256.01L125.04,255.52L132.98,255.03L133.97,254.54L229.24,254.05L230.23,253.55L260,253.55L261,252.57L267.94,252.57L268.94,251.59L270.92,251.1L271.91,251.1L273.9,249.14L274.89,249.14L276.88,249.14L277.87,248.15L280.84,247.17L281.84,247.17L283.82,247.17L284.81,246.19L286.8,244.72L287.79,242.26L289.78,242.26L290.77,240.3L292.75,239.81L293.75,239.81L294.74,238.34L295.73,238.34L296.72,238.34L297.72,237.35L298.71,236.86L299.7,235.39" style="vector-effect: non-scaling-stroke; fill: none; stroke: rgb(245, 130, 49); stroke-opacity: 1; stroke-width: 2px; opacity: 1;"/></g><g class="points"/><g class="text"/></g><g class="trace scatter trace621ee1" style="stroke-miterlimit: 2; opacity: 1;"><g class="fills"/><g class="errorbars"/><g class="lines"><path class="js-line" d="M0,256.5L64.5,256.5L65.5,255.52L70.46,255.03L71.45,254.05L74.43,253.06L75.42,253.06L76.41,251.59L77.41,251.59L82.37,251.1L83.36,250.61L86.34,249.63L87.33,249.63L90.31,249.14L91.3,248.15L94.28,247.66L95.27,247.17L96.26,246.19L97.25,241.77L101.22,236.86L102.22,235.88L104.2,232.45L105.19,230.97L106.19,230.97L107.18,229.99L108.17,229.99L109.16,228.52L111.15,227.54L112.14,227.05L117.1,226.55L118.09,226.06L124.05,225.57L125.04,224.1L132.98,223.61L133.97,223.12L135.96,223.12L136.95,222.14L140.92,221.65L141.91,221.15L143.9,221.15L144.89,220.17L147.87,220.17L148.86,219.19L150.84,217.23L151.83,217.23L156.8,216.74L157.79,216.25L162.75,213.79L163.74,213.79L164.74,213.79L165.73,212.32L169.7,208.39L170.69,208.39L172.67,207.9L173.67,207.9L176.64,204.46L177.64,203.48L178.63,202.99L179.62,201.52L180.61,200.54L181.61,197.59L184.58,195.14L185.58,195.14L187.56,194.65L188.55,194.15L190.54,192.19L191.53,188.75L193.51,187.28L194.51,185.32L197.48,185.32L198.48,181.88L200.46,180.9L201.45,178.45L202.45,178.45L203.44,176.48L206.42,173.05L207.41,169.12L209.39,168.63L210.39,166.66L212.37,165.68L213.36,165.68L218.32,160.77L219.32,160.28L224.28,159.79L225.27,156.85L228.25,156.35L229.24,154.88L233.21,149.97L234.2,149.48L237.18,147.52L238.17,147.03L241.15,145.55L242.14,143.59L243.13,143.59L244.13,141.63L245.12,141.14L246.11,139.17L247.1,138.68L248.1,136.72L250.08,136.72L251.07,135.74L253.06,134.26L254.05,134.26L255.04,134.26L256.04,133.28L258.02,133.28L259.01,132.3L261.99,131.32L262.98,129.85L264.97,129.85L265.96,128.86L266.95,128.86L267.94,127.88L269.93,127.39L270.92,126.41L274.89,125.92L275.88,124.45L277.87,123.95L278.86,123.46L279.85,123.46L280.84,122.48L286.8,120.03L287.79,120.03L289.78,119.54L290.77,119.54L291.76,118.06L292.75,118.06L294.74,117.08L295.73,117.08L298.71,117.08L299.7,113.65" style="vector-effect: non-scaling-stroke; fill: none; stroke: rgb(145, 30, 180); stroke-opacity: 1; stroke-width: 2px; opacity: 1;"/></g><g class="points"/><g class="text"/></g></g></g><g class="overplot"/><path class="xlines-above crisp" d="M0,0" style="fill: none;"/><path class="ylines-above crisp" d="M0,0" style="fill: none;"/><g class="overlines-above"/><g class="xaxislayer-above"><g class="x2tick"><text text-anchor="middle" x="0" y="383" transform="translate(485,0)" style="font-family: 'Open Sans', verdana, arial, sans-serif; font-size: 12px; fill: rgb(242, 245, 250); fill-opacity: 1; white-space: pre;">Mar 2020</text></g><g class="x2tick"><text text-anchor="middle" x="0" y="383" transform="translate(545.54,0)" style="font-family: 'Open Sans', verdana, arial, sans-serif; font-size: 12px; fill: rgb(242, 245, 250); fill-opacity: 1; white-space: pre;">May 2020</text></g><g class="x2tick"><text text-anchor="middle" x="0" y="383" transform="translate(606.07,0)" style="font-family: 'Open Sans', verdana, arial, sans-serif; font-size: 12px; fill: rgb(242, 245, 250); fill-opacity: 1; white-space: pre;">Jul 2020</text></g><g class="x2tick"><text text-anchor="middle" x="0" y="383" transform="translate(667.6,0)" style="font-family: 'Open Sans', verdana, arial, sans-serif; font-size: 12px; fill: rgb(242, 245, 250); fill-opacity: 1; white-space: pre;">Sep 2020</text></g><g class="x2tick"><text text-anchor="middle" x="0" y="383" transform="translate(728.14,0)" style="font-family: 'Open Sans', verdana, arial, sans-serif; font-size: 12px; fill: rgb(242, 245, 250); fill-opacity: 1; white-space: pre;">Nov 2020</text></g></g><g class="yaxislayer-above"><g class="y2tick"><text text-anchor="end" x="445.3" y="4.199999999999999" transform="translate(0,356.5)" style="font-family: 'Open Sans', verdana, arial, sans-serif; font-size: 12px; fill: rgb(242, 245, 250); fill-opacity: 1; white-space: pre;">0</text></g><g class="y2tick"><text text-anchor="end" x="445.3" y="4.199999999999999" transform="translate(0,307.40999999999997)" style="font-family: 'Open Sans', verdana, arial, sans-serif; font-size: 12px; fill: rgb(242, 245, 250); fill-opacity: 1; white-space: pre;">100</text></g><g class="y2tick"><text text-anchor="end" x="445.3" y="4.199999999999999" transform="translate(0,258.32)" style="font-family: 'Open Sans', verdana, arial, sans-serif; font-size: 12px; fill: rgb(242, 245, 250); fill-opacity: 1; white-space: pre;">200</text></g><g class="y2tick"><text text-anchor="end" x="445.3" y="4.199999999999999" transform="translate(0,209.23000000000002)" style="font-family: 'Open Sans', verdana, arial, sans-serif; font-size: 12px; fill: rgb(242, 245, 250); fill-opacity: 1; white-space: pre;">300</text></g><g class="y2tick"><text text-anchor="end" x="445.3" y="4.199999999999999" transform="translate(0,160.14)" style="font-family: 'Open Sans', verdana, arial, sans-serif; font-size: 12px; fill: rgb(242, 245, 250); fill-opacity: 1; white-space: pre;">400</text></g><g class="y2tick"><text text-anchor="end" x="445.3" y="4.199999999999999" transform="translate(0,111.05)" style="font-family: 'Open Sans', verdana, arial, sans-serif; font-size: 12px; fill: rgb(242, 245, 250); fill-opacity: 1; white-space: pre;">500</text></g></g><g class="overaxes-above"/></g></g><g class="polarlayer"/><g class="ternarylayer"/><g class="geolayer"/><g class="funnelarealayer"/><g class="pielayer"/><g class="treemaplayer"/><g class="sunburstlayer"/><g class="glimages"/><defs id="topdefs-cb4e5a"><g class="clips"/><clipPath id="legendcb4e5a"><rect width="129" height="124" x="0" y="0"/></clipPath></defs><g class="layer-above"><g class="imagelayer"/><g class="shapelayer"/></g><g class="infolayer"><g class="legend" pointer-events="all" transform="translate(759.32, 100)"><rect class="bg" shape-rendering="crispEdges" width="129" height="124" x="0" y="0" style="stroke: rgb(68, 68, 68); stroke-opacity: 1; fill: rgb(17, 17, 17); fill-opacity: 1; stroke-width: 0px;"/><g class="scrollbox" transform="translate(0, 0)" clip-path="url('#legendcb4e5a')"><g class="groups"><g class="traces" transform="translate(0, 14.5)" style="opacity: 1;"><text class="legendtext user-select-none" text-anchor="start" x="40" y="4.680000000000001" style="font-family: 'Open Sans', verdana, arial, sans-serif; font-size: 12px; fill: rgb(242, 245, 250); fill-opacity: 1; white-space: pre;">Alameda, CA</text><g class="layers" style="opacity: 1;"><g class="legendfill"/><g class="legendlines"><path class="js-line" d="M5,0h30" style="fill: none; stroke: rgb(230, 25, 75); stroke-opacity: 1; stroke-width: 2px;"/></g><g class="legendsymbols"><g class="legendpoints"/></g></g><rect class="legendtoggle" pointer-events="all" x="0" y="-9.5" width="123.40625" height="19" style="cursor: pointer; fill: rgb(0, 0, 0); fill-opacity: 0;"/></g><g class="traces" transform="translate(0, 33.5)" style="opacity: 1;"><text class="legendtext user-select-none" text-anchor="start" x="40" y="4.680000000000001" style="font-family: 'Open Sans', verdana, arial, sans-serif; font-size: 12px; fill: rgb(242, 245, 250); fill-opacity: 1; white-space: pre;">Jackson, MS</text><g class="layers" style="opacity: 1;"><g class="legendfill"/><g class="legendlines"><path class="js-line" d="M5,0h30" style="fill: none; stroke: rgb(60, 180, 75); stroke-opacity: 1; stroke-width: 2px;"/></g><g class="legendsymbols"><g class="legendpoints"/></g></g><rect class="legendtoggle" pointer-events="all" x="0" y="-9.5" width="123.40625" height="19" style="cursor: pointer; fill: rgb(0, 0, 0); fill-opacity: 0;"/></g><g class="traces" transform="translate(0, 52.5)" style="opacity: 1;"><text class="legendtext user-select-none" text-anchor="start" x="40" y="4.680000000000001" style="font-family: 'Open Sans', verdana, arial, sans-serif; font-size: 12px; fill: rgb(242, 245, 250); fill-opacity: 1; white-space: pre;">Tangipahoa, LA</text><g class="layers" style="opacity: 1;"><g class="legendfill"/><g class="legendlines"><path class="js-line" d="M5,0h30" style="fill: none; stroke: rgb(255, 225, 25); stroke-opacity: 1; stroke-width: 2px;"/></g><g class="legendsymbols"><g class="legendpoints"/></g></g><rect class="legendtoggle" pointer-events="all" x="0" y="-9.5" width="123.40625" height="19" style="cursor: pointer; fill: rgb(0, 0, 0); fill-opacity: 0;"/></g><g class="traces" transform="translate(0, 71.5)" style="opacity: 1;"><text class="legendtext user-select-none" text-anchor="start" x="40" y="4.680000000000001" style="font-family: 'Open Sans', verdana, arial, sans-serif; font-size: 12px; fill: rgb(242, 245, 250); fill-opacity: 1; white-space: pre;">Blaine, MT</text><g class="layers" style="opacity: 1;"><g class="legendfill"/><g class="legendlines"><path class="js-line" d="M5,0h30" style="fill: none; stroke: rgb(67, 99, 216); stroke-opacity: 1; stroke-width: 2px;"/></g><g class="legendsymbols"><g class="legendpoints"/></g></g><rect class="legendtoggle" pointer-events="all" x="0" y="-9.5" width="123.40625" height="19" style="cursor: pointer; fill: rgb(0, 0, 0); fill-opacity: 0;"/></g><g class="traces" transform="translate(0, 90.5)" style="opacity: 1;"><text class="legendtext user-select-none" text-anchor="start" x="40" y="4.680000000000001" style="font-family: 'Open Sans', verdana, arial, sans-serif; font-size: 12px; fill: rgb(242, 245, 250); fill-opacity: 1; white-space: pre;">Huntingdon, PA</text><g class="layers" style="opacity: 1;"><g class="legendfill"/><g class="legendlines"><path class="js-line" d="M5,0h30" style="fill: none; stroke: rgb(245, 130, 49); stroke-opacity: 1; stroke-width: 2px;"/></g><g class="legendsymbols"><g class="legendpoints"/></g></g><rect class="legendtoggle" pointer-events="all" x="0" y="-9.5" width="123.40625" height="19" style="cursor: pointer; fill: rgb(0, 0, 0); fill-opacity: 0;"/></g><g class="traces" transform="translate(0, 109.5)" style="opacity: 1;"><text class="legendtext user-select-none" text-anchor="start" x="40" y="4.680000000000001" style="font-family: 'Open Sans', verdana, arial, sans-serif; font-size: 12px; fill: rgb(242, 245, 250); fill-opacity: 1; white-space: pre;">Richland, SC</text><g class="layers" style="opacity: 1;"><g class="legendfill"/><g class="legendlines"><path class="js-line" d="M5,0h30" style="fill: none; stroke: rgb(145, 30, 180); stroke-opacity: 1; stroke-width: 2px;"/></g><g class="legendsymbols"><g class="legendpoints"/></g></g><rect class="legendtoggle" pointer-events="all" x="0" y="-9.5" width="123.40625" height="19" style="cursor: pointer; fill: rgb(0, 0, 0); fill-opacity: 0;"/></g></g></g><rect class="scrollbar" rx="20" ry="3" width="0" height="0" x="0" y="0" style="fill: rgb(128, 139, 164); fill-opacity: 1;"/></g><g class="g-gtitle"/><g class="g-xtitle"><text class="xtitle" x="229.85" y="410.8" text-anchor="middle" style="font-family: 'Open Sans', verdana, arial, sans-serif; font-size: 14px; fill: rgb(242, 245, 250); opacity: 1; font-weight: normal; white-space: pre;">Date</text></g><g class="g-x2title"><text class="x2title" x="596.15" y="410.8" text-anchor="middle" style="font-family: 'Open Sans', verdana, arial, sans-serif; font-size: 14px; fill: rgb(242, 245, 250); opacity: 1; font-weight: normal; white-space: pre;">Date</text></g><g class="g-ytitle"><text class="ytitle" transform="rotate(-90,34.840625,235)" x="34.840625" y="235" text-anchor="middle" style="font-family: 'Open Sans', verdana, arial, sans-serif; font-size: 14px; fill: rgb(242, 245, 250); opacity: 1; font-weight: normal; white-space: pre;">Cases</text></g><g class="g-y2title"><text class="y2title" transform="rotate(-90,400.465625,235)" x="400.465625" y="235" text-anchor="middle" style="font-family: 'Open Sans', verdana, arial, sans-serif; font-size: 14px; fill: rgb(242, 245, 250); opacity: 1; font-weight: normal; white-space: pre;">Deaths</text></g><g class="annotation" data-index="0" style="opacity: 1;"><g class="annotation-text-g" transform="rotate(0,229.85,89.5)"><g class="cursor-pointer" transform="translate(205, 79)"><rect class="bg" x="0.5" y="0.5" width="48" height="20" style="stroke-width: 1px; stroke: rgb(0, 0, 0); stroke-opacity: 0; fill: rgb(0, 0, 0); fill-opacity: 0;"/><text class="annotation-text" text-anchor="middle" x="24.6875" y="16" style="font-family: 'Open Sans', verdana, arial, sans-serif; font-size: 16px; fill: rgb(242, 245, 250); fill-opacity: 1; white-space: pre;">Cases</text></g></g></g><g class="annotation" data-index="1" style="opacity: 1;"><g class="annotation-text-g" transform="rotate(0,596.15,89.5)"><g class="cursor-pointer" transform="translate(569, 79)"><rect class="bg" x="0.5" y="0.5" width="54" height="20" style="stroke-width: 1px; stroke: rgb(0, 0, 0); stroke-opacity: 0; fill: rgb(0, 0, 0); fill-opacity: 0;"/><text class="annotation-text" text-anchor="middle" x="27.359375" y="16" style="font-family: 'Open Sans', verdana, arial, sans-serif; font-size: 16px; fill: rgb(242, 245, 250); fill-opacity: 1; white-space: pre;">Deaths</text></g></g></g></g></svg>