<svg class="main-svg" xmlns="http://www.w3.org/2000/svg" xmlns:xlink="http://www.w3.org/1999/xlink" width="900" height="450" style="" viewBox="0 0 900 450"><rect x="0" y="0" width="900" height="450" style="fill: rgb(17, 17, 17); fill-opacity: 1;"/><defs id="defs-083cfb"><g class="clips"><clipPath id="clip083cfbxyplot" class="plotclip"><rect width="297.45" height="270"/></clipPath><clipPath id="clip083cfbx2y2plot" class="plotclip"><rect width="297.45" height="270"/></clipPath><clipPath class="axesclip" id="clip083cfbx"><rect x="80" y="0" width="297.45" height="450"/></clipPath><clipPath class="axesclip" id="clip083cfby"><rect x="0" y="100" width="900" height="270"/></clipPath><clipPath class="axesclip" id="clip083cfbxy"><rect x="80" y="100" width="297.45" height="270"/></clipPath><clipPath class="axesclip" id="clip083cfby2"><rect x="0" y="100" width="900" height="270"/></clipPath><clipPath class="axesclip" id="clip083cfbxy2"><rect x="80" y="100" width="297.45" height="270"/></clipPath><clipPath class="axesclip" id="clip083cfbx2"><rect x="443.55" y="0" width="297.45" height="450"/></clipPath><clipPath class="axesclip" id="clip083cfbx2y"><rect x="443.55" y="100" width="297.45" height="270"/></clipPath><clipPath class="axesclip" id="clip083cfbx2y2"><rect x="443.55" y="100" width="297.45" height="270"/></clipPath></g><g class="gradients"/></defs><g class="bglayer"/><g class="layer-below"><g class="imagelayer"/><g class="shapelayer"/></g><g class="cartesianlayer"><g class="subplot xy"><g class="layer-subplot"><g class="shapelayer"/><g class="imagelayer"/></g><g class="gridlayer"><g class="x"><path class="xgrid crisp" transform="translate(125.85,0)" d="M0,100v270" style="stroke: rgb(40, 52, 66); stroke-opacity: 1; stroke-width: 1px;"/><path class="xgrid crisp" transform="translate(197.57,0)" d="M0,100v270" style="stroke: rgb(40, 52, 66); stroke-opacity: 1; stroke-width: 1px;"/><path class="xgrid crisp" transform="translate(269.28999999999996,0)" d="M0,100v270" style="stroke: rgb(40, 52, 66); stroke-opacity: 1; stroke-width: 1px;"/><path class="xgrid crisp" transform="translate(342.18,0)" d="M0,100v270" style="stroke: rgb(40, 52, 66); stroke-opacity: 1; stroke-width: 1px;"/></g><g class="y"><path class="ygrid crisp" transform="translate(0,297.53)" d="M80,0h297.45" style="stroke: rgb(40, 52, 66); stroke-opacity: 1; stroke-width: 1px;"/><path class="ygrid crisp" transform="translate(0,238.55)" d="M80,0h297.45" style="stroke: rgb(40, 52, 66); stroke-opacity: 1; stroke-width: 1px;"/><path class="ygrid crisp" transform="translate(0,179.57999999999998)" d="M80,0h297.45" style="stroke: rgb(40, 52, 66); stroke-opacity: 1; stroke-width: 1px;"/><path class="ygrid crisp" transform="translate(0,120.61)" d="M80,0h297.45" style="stroke: rgb(40, 52, 66); stroke-opacity: 1; stroke-width: 1px;"/></g></g><g class="zerolinelayer"><path class="yzl zl crisp" transform="translate(0,356.5)" d="M80,0h297.45" style="stroke: rgb(40, 52, 66); stroke-opacity: 1; stroke-width: 2px;"/></g><path class="xlines-below"/><path class="ylines-below"/><g class="overlines-below"/><g class="xaxislayer-below"/><g class="yaxislayer-below"/><g class="overaxes-below"/><g class="plot" transform="translate(80, 100)" clip-path="url('#clip083cfbxyplot')"><g class="scatterlayer mlayer"><g class="trace scatter traceb38cff" style="stroke-miterlimit: 2; opacity: 1;"><g class="fills"/><g class="errorbars"/><g class="lines"><path class="js-line" d="M0,256.5L77.6,255.75L78.77,255.7L88.18,254.77L89.35,254.63L141.08,248.81L142.26,248.51L161.07,245.08L162.25,244.87L172.83,243.13L174,242.82L179.88,241.34L181.06,240.95L189.29,238.35L190.46,237.68L196.34,236.19L197.52,235.14L206.92,231.06L208.1,230.38L210.45,229.26L211.62,229.21L215.15,227.4L216.33,226.38L222.21,224.73L223.38,223.68L224.56,223.68L225.73,222.64L226.91,222.52L228.08,221.57L233.96,220.71L235.14,217.58L236.31,217.52L237.49,216.21L239.84,214.54L241.02,213.57L242.19,213.57L243.37,211.91L244.54,211.89L245.72,210.98L250.42,207.28L251.6,207.19L252.77,207.16L253.95,205.56L259.83,203.31L261,202.87L265.71,200.54L266.88,200.09L270.41,199.44L271.58,198.72L278.64,197.24L279.81,197.24L285.69,195.64L286.87,195.32L297.45,193.23" style="vector-effect: non-scaling-stroke; fill: none; stroke: rgb(230, 25, 75); stroke-opacity: 1; stroke-width: 2px; opacity: 1;"/></g><g class="points"/><g class="text"/></g><g class="trace scatter trace715236" style="stroke-miterlimit: 2; opacity: 1;"><g class="fills"/><g class="errorbars"/><g class="lines"><path class="js-line" d="M0,256.5L79.95,256.04L81.12,255.7L91.7,254.62L92.88,254.42L103.46,252.84L104.64,252.84L108.16,252.28L109.34,251.9L115.22,250.34L116.39,250.16L128.15,247.03L129.33,245.6L132.85,244.48L134.03,244.08L148.14,241.64L149.31,241.2L166.95,236.38L168.12,235.51L175.18,232.62L176.35,231.93L179.88,229.59L181.06,228.82L186.93,222.66L188.11,221.89L191.64,216.92L192.81,216.92L193.99,216.92L195.16,215.2L198.69,208.79L199.87,207.26L203.39,202.95L204.57,202L211.62,192.76L212.8,191.62L218.68,182.35L219.85,181.31L221.03,180.6L222.21,178.91L225.73,172.73L226.91,172.73L230.44,167.56L231.61,167.37L235.14,163.07L236.31,161.62L241.02,158.01L242.19,156.62L244.54,150.36L245.72,149.64L249.25,146.78L250.42,146.2L263.35,140.06L264.53,139.56L269.23,137.9L270.41,137.9L279.81,132.04L280.99,130.93L286.87,126.78L288.04,125.97L297.45,118.35" style="vector-effect: non-scaling-stroke; fill: none; stroke: rgb(60, 180, 75); stroke-opacity: 1; stroke-width: 2px; opacity: 1;"/></g><g class="points"/><g class="text"/></g><g class="trace scatter tracea2dff6" style="stroke-miterlimit: 2; opacity: 1;"><g class="fills"/><g class="errorbars"/><g class="lines"><path class="js-line" d="M0,256.5L81.12,255.84L82.3,255.57L121.1,253.18L122.27,253.16L169.3,251.33L170.48,251.21L178.71,249.89L179.88,249.5L185.76,248.64L186.93,247.64L190.46,246.01L191.64,246.01L193.99,246.01L195.16,243.54L205.75,238.29L206.92,237.64L210.45,236.05L211.62,234.9L216.33,231.28L217.5,231.04L223.38,228L224.56,227.54L228.08,226.65L229.26,226.5L231.61,225.41L232.79,224.67L235.14,224.67L236.31,221L238.67,219.71L239.84,217.53L241.02,216.35L242.19,216.35L243.37,216.35L244.54,214.26L249.25,211.54L250.42,211.54L251.6,211.54L252.77,208.35L256.3,206.64L257.48,205.93L259.83,205.93L261,203.27L265.71,201.03L266.88,201.03L268.06,201.03L269.23,199.46L272.76,198.5L273.94,197.34L276.29,197.34L277.46,196.24L280.99,194.69L282.17,194.07L284.52,194.07L285.69,192.73L290.4,191.09L291.57,191.09L293.92,190.34L295.1,189.89L297.45,189.4" style="vector-effect: non-scaling-stroke; fill: none; stroke: rgb(255, 225, 25); stroke-opacity: 1; stroke-width: 2px; opacity: 1;"/></g><g class="points"/><g class="text"/></g><g class="trace scatter trace6cda2e" style="stroke-miterlimit: 2; opacity: 1;"><g class="fills"/><g class="errorbars"/><g class="lines"><path class="js-line" d="M0,256.5L74.07,255.77L75.24,255.61L91.7,252.28L92.88,251.97L108.16,248.59L109.34,248.35L116.39,246.62L117.57,246.09L124.62,242.14L125.8,241.4L139.91,233.19L141.08,233.19L143.43,231.5L144.61,231L155.19,225.65L156.37,224.89L164.6,219.21L165.77,218.33L176.35,209.2L177.53,208.03L185.76,198.72L186.93,197.04L191.64,189.89L192.81,186.69L213.98,129.63L215.15,128.41L217.5,124.56L218.68,120.82L223.38,112.81L224.56,111.22L225.73,109.14L226.91,109.14L229.26,104.67L230.44,102.78L236.31,95.28L237.49,93.57L239.84,92L241.02,90.11L243.37,85.28L244.54,69.47L246.9,61.7L248.07,60.52L249.25,59.61L250.42,57.51L251.6,54.3L252.77,53.32L255.13,52.15L256.3,50.44L259.83,47.7L261,46.64L265.71,41.66L266.88,41.08L270.41,38.41L271.58,38L275.11,35.68L276.29,35.2L277.46,34.74L278.64,33.44L280.99,31.96L282.17,30.61L284.52,29.1L285.69,26.83L289.22,24.37L290.4,22.3L291.57,18.82L292.75,17.72L295.1,16.56L296.27,14.23L297.45,13.5" style="vector-effect: non-scaling-stroke; fill: none; stroke: rgb(67, 99, 216); stroke-opacity: 1; stroke-width: 2px; opacity: 1;"/></g><g class="points"/><g class="text"/></g><g class="trace scatter tracee38584" style="stroke-miterlimit: 2; opacity: 1;"><g class="fills"/><g class="errorbars"/><g class="lines"><path class="js-line" d="M0,256.5L62.31,255.75L63.49,255.64L91.7,251.8L92.88,251.56L111.69,250.35L112.87,250.29L166.95,247.31L168.12,247.19L179.88,245.51L181.06,245.2L188.11,243.61L189.29,243.02L196.34,240.35L197.52,240.13L202.22,237.93L203.39,237.21L212.8,232.77L213.98,231.96L223.38,227.81L224.56,227.27L228.08,224.67L229.26,223.98L232.79,222.66L233.96,222.04L235.14,221.25L236.31,219.07L241.02,215.64L242.19,214.61L255.13,208.16L256.3,207.53L269.23,201.31L270.41,201.31L273.94,200.05L275.11,199.25L292.75,194.13L293.92,193.87L297.45,193.23" style="vector-effect: non-scaling-stroke; fill: none; stroke: rgb(245, 130, 49); stroke-opacity: 1; stroke-width: 2px; opacity: 1;"/></g><g class="points"/><g class="text"/></g><g class="trace scatter tracef43631" style="stroke-miterlimit: 2; opacity: 1;"><g class="fills"/><g class="errorbars"/><g class="lines"><path class="js-line" d="M0,256.5L99.93,255.75L101.11,255.7L159.89,253.96L161.07,253.87L170.48,253.14L171.65,253.03L183.41,250.69L184.58,250.35L201.04,246.19L202.22,245.14L203.39,245.14L204.57,244.19L210.45,239.13L211.62,239.13L216.33,235.38L217.5,233.42L219.85,233.42L221.03,232.32L224.56,226.56L225.73,224.15L226.91,224.15L228.08,216.65L229.26,212.92L230.44,211.92L233.96,208.47L235.14,208.47L242.19,203.97L243.37,203.97L252.77,199.81L253.95,197.93L255.13,197.93L256.3,195.71L266.88,192.92L268.06,192.92L271.58,192.21L272.76,192.12L276.29,191.68L277.46,191.68L280.99,190.82L282.17,190.63L292.75,189.57L293.92,189.57L297.45,189.05" style="vector-effect: non-scaling-stroke; fill: none; stroke: rgb(145, 30, 180); stroke-opacity: 1; stroke-width: 2px; opacity: 1;"/></g><g class="points"/><g class="text"/></g></g></g><g class="overplot"/><path class="xlines-above crisp" d="M0,0" style="fill: none;"/><path class="ylines-above crisp" d="M0,0" style="fill: none;"/><g class="overlines-above"/><g class="xaxislayer-above"><g class="xtick"><text text-anchor="middle" x="0" y="383" transform="translate(125.85,0)" style="font-family: 'Open Sans', verdana, arial, sans-serif; font-size: 12px; fill: rgb(242, 245, 250); fill-opacity: 1; white-space: pre;">Mar 2020</text></g><g class="xtick"><text text-anchor="middle" x="0" y="383" transform="translate(197.57,0)" style="font-family: 'Open Sans', verdana, arial, sans-serif; font-size: 12px; fill: rgb(242, 245, 250); fill-opacity: 1; white-space: pre;">May 2020</text></g><g class="xtick"><text text-anchor="middle" x="0" y="383" transform="translate(269.28999999999996,0)" style="font-family: 'Open Sans', verdana, arial, sans-serif; font-size: 12px; fill: rgb(242, 245, 250); fill-opacity: 1; white-space: pre;">Jul 2020</text></g><g class="xtick"><text text-anchor="middle" x="0" y="383" transform="translate(342.18,0)" style="font-family: 'Open Sans', verdana, arial, sans-serif; font-size: 12px; fill: rgb(242, 245, 250); fill-opacity: 1; white-space: pre;">Sep 2020</text></g></g><g class="yaxislayer-above"><g class="ytick"><text text-anchor="end" x="79" y="4.199999999999999" transform="translate(0,356.5)" style="font-family: 'Open Sans', verdana, arial, sans-serif; font-size: 12px; fill: rgb(242, 245, 250); fill-opacity: 1; white-space: pre;">0</text></g><g class="ytick"><text text-anchor="end" x="79" y="4.199999999999999" transform="translate(0,297.53)" style="font-family: 'Open Sans', verdana, arial, sans-serif; font-size: 12px; fill: rgb(242, 245, 250); fill-opacity: 1; white-space: pre;">20k</text></g><g class="ytick"><text text-anchor="end" x="79" y="4.199999999999999" transform="translate(0,238.55)" style="font-family: 'Open Sans', verdana, arial, sans-serif; font-size: 12px; fill: rgb(242, 245, 250); fill-opacity: 1; white-space: pre;">40k</text></g><g class="ytick"><text text-anchor="end" x="79" y="4.199999999999999" transform="translate(0,179.57999999999998)" style="font-family: 'Open Sans', verdana, arial, sans-serif; font-size: 12px; fill: rgb(242, 245, 250); fill-opacity: 1; white-space: pre;">60k</text></g><g class="ytick"><text text-anchor="end" x="79" y="4.199999999999999" transform="translate(0,120.61)" style="font-family: 'Open Sans', verdana, arial, sans-serif; font-size: 12px; fill: rgb(242, 245, 250); fill-opacity: 1; white-space: pre;">80k</text></g></g><g class="overaxes-above"/></g><g class="subplot x2y2"><g class="layer-subplot"><g class="shapelayer"/><g class="imagelayer"/></g><g class="gridlayer"><g class="x2"><path class="x2grid crisp" transform="translate(489.40000000000003,0)" d="M0,100v270" style="stroke: rgb(40, 52, 66); stroke-opacity: 1; stroke-width: 1px;"/><path class="x2grid crisp" transform="translate(561.12,0)" d="M0,100v270" style="stroke: rgb(40, 52, 66); stroke-opacity: 1; stroke-width: 1px;"/><path class="x2grid crisp" transform="translate(632.84,0)" d="M0,100v270" style="stroke: rgb(40, 52, 66); stroke-opacity: 1; stroke-width: 1px;"/><path class="x2grid crisp" transform="translate(705.73,0)" d="M0,100v270" style="stroke: rgb(40, 52, 66); stroke-opacity: 1; stroke-width: 1px;"/></g><g class="y2"><path class="y2grid crisp" transform="translate(0,313.76)" d="M443.55,0h297.45" style="stroke: rgb(40, 52, 66); stroke-opacity: 1; stroke-width: 1px;"/><path class="y2grid crisp" transform="translate(0,271.01)" d="M443.55,0h297.45" style="stroke: rgb(40, 52, 66); stroke-opacity: 1; stroke-width: 1px;"/><path class="y2grid crisp" transform="translate(0,228.27)" d="M443.55,0h297.45" style="stroke: rgb(40, 52, 66); stroke-opacity: 1; stroke-width: 1px;"/><path class="y2grid crisp" transform="translate(0,185.51999999999998)" d="M443.55,0h297.45" style="stroke: rgb(40, 52, 66); stroke-opacity: 1; stroke-width: 1px;"/><path class="y2grid crisp" transform="translate(0,142.78)" d="M443.55,0h297.45" style="stroke: rgb(40, 52, 66); stroke-opacity: 1; stroke-width: 1px;"/></g></g><g class="zerolinelayer"><path class="y2zl zl crisp" transform="translate(0,356.5)" d="M443.55,0h297.45" style="stroke: rgb(40, 52, 66); stroke-opacity: 1; stroke-width: 2px;"/></g><path class="xlines-below"/><path class="ylines-below"/><g class="overlines-below"/><g class="xaxislayer-below"/><g class="yaxislayer-below"/><g class="overaxes-below"/><g class="plot" transform="translate(443.55, 100)" clip-path="url('#clip083cfbx2y2plot')"><g class="scatterlayer mlayer"><g class="trace scatter trace984f30" style="stroke-miterlimit: 2; opacity: 1;"><g class="fills"/><g class="errorbars"/><g class="lines"><path class="js-line" d="M0,256.5L74.07,256.07L75.24,255.65L81.12,255L82.3,254.79L94.06,252.01L95.23,251.58L97.58,251.58L98.76,248.81L101.11,248.16L102.29,247.74L109.34,246.24L110.52,245.39L114.04,244.75L115.22,244.32L118.74,243.04L119.92,243.04L123.45,242.39L124.62,242.18L126.97,241.33L128.15,241.33L130.5,240.68L131.68,240.26L135.2,238.76L136.38,238.76L138.73,238.12L139.91,237.69L144.61,236.62L145.79,236.62L154.02,235.98L155.19,235.77L157.54,235.77L158.72,234.91L163.42,234.7L164.6,234.06L166.95,233.2L168.12,233.2L170.48,232.56L171.65,232.56L174,231.49L175.18,231.28L179.88,230.85L181.06,230.43L183.41,228.72L184.58,228.72L188.11,227.65L189.29,227.43L192.81,226.58L193.99,226.58L197.52,226.15L198.69,225.3L204.57,224.01L205.75,223.59L206.92,223.59L208.1,222.09L211.62,221.88L212.8,220.81L216.33,218.46L217.5,218.46L222.21,217.82L223.38,217.6L224.56,217.6L225.73,216.11L229.26,215.47L230.44,215.25L233.96,215.25L235.14,212.69L237.49,212.69L238.67,211.19L241.02,209.7L242.19,209.7L246.9,207.77L248.07,207.13L251.6,206.49L252.77,206.49L255.13,204.57L256.3,204.35L258.65,203.71L259.83,201.57L262.18,201.57L263.35,197.94L264.53,193.45L265.71,193.24L268.06,192.6L269.23,192.38L272.76,191.74L273.94,188.11L275.11,188.11L276.29,185.54L277.46,185.33L278.64,180.42L279.81,180.42L280.99,178.49L283.34,176.57L284.52,176.57L285.69,176.57L286.87,173.15L291.57,169.73L292.75,169.73L295.1,169.3L296.27,168.45L297.45,166.74" style="vector-effect: non-scaling-stroke; fill: none; stroke: rgb(230, 25, 75); stroke-opacity: 1; stroke-width: 2px; opacity: 1;"/></g><g class="points"/><g class="text"/></g><g class="trace scatter traceac24ce" style="stroke-miterlimit: 2; opacity: 1;"><g class="fills"/><g class="errorbars"/><g class="lines"><path class="js-line" d="M0,256.5L82.3,255.86L83.47,255.22L87,254.58L88.18,254.15L96.41,251.16L97.58,251.16L101.11,249.23L102.29,249.02L104.64,248.16L105.81,248.16L112.87,245.17L114.04,245.17L118.74,241.75L119.92,241.33L129.33,234.49L130.5,234.27L135.2,230.85L136.38,230.64L138.73,230.21L139.91,228.72L141.08,228.29L142.26,226.79L146.96,225.72L148.14,225.72L149.31,223.37L150.49,222.73L154.02,221.24L155.19,221.24L163.42,218.46L164.6,217.18L166.95,215.89L168.12,215.68L171.65,214.4L172.83,214.18L174,213.97L175.18,212.69L179.88,211.62L181.06,211.41L185.76,208.63L186.93,208.41L189.29,207.77L190.46,207.13L192.81,206.7L193.99,206.7L196.34,205.63L197.52,203.5L202.22,199.22L203.39,198.37L205.75,198.37L206.92,197.3L211.62,192.81L212.8,192.6L215.15,190.25L216.33,188.32L218.68,184.26L219.85,184.26L221.03,184.26L222.21,181.48L225.73,175.71L226.91,175.71L229.26,171.44L230.44,168.87L233.96,161.39L235.14,160.97L236.31,160.54L237.49,158.83L242.19,149.85L243.37,148.78L244.54,148.78L245.72,146.86L248.07,141.73L249.25,139.59L251.6,135.96L252.77,135.96L253.95,134.68L255.13,131.26L256.3,130.41L257.48,128.48L259.83,126.13L261,126.13L265.71,121.86L266.88,120.57L271.58,119.08L272.76,116.73L276.29,115.23L277.46,115.02L284.52,108.39L285.69,108.39L286.87,108.39L288.04,107.32L290.4,106.25L291.57,104.76L293.92,104.54L295.1,102.84L297.45,101.55" style="vector-effect: non-scaling-stroke; fill: none; stroke: rgb(60, 180, 75); stroke-opacity: 1; stroke-width: 2px; opacity: 1;"/></g><g class="points"/><g class="text"/></g><g class="trace scatter traceb409e9" style="stroke-miterlimit: 2; opacity: 1;"><g class="fills"/><g class="errorbars"/><g class="lines"><path class="js-line" d="M0,256.5L70.54,255.86L71.72,255.65L81.12,255L82.3,254.58L85.83,254.36L87,253.08L94.06,250.94L95.23,250.94L106.99,248.81L108.16,247.74L119.92,247.52L121.1,246.46L130.5,245.81L131.68,245.6L134.03,244.96L135.2,244.96L141.08,244.53L142.26,244.53L161.07,243.89L162.25,243.46L171.65,243.04L172.83,242.39L193.99,241.75L195.16,240.68L202.22,238.76L203.39,238.76L204.57,237.05L205.75,236.84L209.27,235.98L210.45,235.98L215.15,235.56L216.33,234.49L217.5,233.42L218.68,233.42L222.21,229.57L223.38,229.36L225.73,226.15L226.91,226.15L233.96,222.09L235.14,222.09L236.31,218.67L237.49,218.24L241.02,213.97L242.19,213.97L243.37,213.97L244.54,209.91L245.72,209.7L246.9,207.34L248.07,207.34L249.25,206.49L251.6,206.49L252.77,203.92L257.48,197.94L258.65,197.94L259.83,197.94L261,193.88L262.18,193.24L263.35,191.53L265.71,186.61L266.88,186.61L268.06,186.61L269.23,185.54L271.58,184.05L272.76,182.55L275.11,181.7L276.29,181.7L282.17,176.35L283.34,176.35L284.52,176.35L285.69,174.65L288.04,171.23L289.22,170.58L291.57,169.73L292.75,169.73L297.45,165.46" style="vector-effect: non-scaling-stroke; fill: none; stroke: rgb(255, 225, 25); stroke-opacity: 1; stroke-width: 2px; opacity: 1;"/></g><g class="points"/><g class="text"/></g><g class="trace scatter tracee1e040" style="stroke-miterlimit: 2; opacity: 1;"><g class="fills"/><g class="errorbars"/><g class="lines"><path class="js-line" d="M0,256.5L70.54,256.29L71.72,255.65L82.3,253.29L83.47,252.87L91.7,252.23L92.88,251.8L97.58,249.66L98.76,247.52L99.93,247.31L101.11,245.81L103.46,243.68L104.64,243.68L105.81,243.68L106.99,242.82L108.16,242.61L109.34,241.11L111.69,239.19L112.87,238.97L114.04,238.55L115.22,236.41L119.92,232.99L121.1,232.78L125.8,229.78L126.97,227.65L128.15,225.94L129.33,225.94L131.68,224.87L132.85,223.8L137.56,218.89L138.73,218.67L139.91,215.68L141.08,215.68L143.43,212.26L144.61,211.62L148.14,210.98L149.31,209.27L151.66,208.84L152.84,207.77L155.19,207.56L156.37,204.14L158.72,203.07L159.89,200.93L163.42,200.08L164.6,198.58L170.48,195.8L171.65,195.59L175.18,190.89L176.35,190.03L179.88,188.75L181.06,187.25L183.41,185.12L184.58,182.98L185.76,181.48L186.93,181.27L188.11,181.06L189.29,176.78L192.81,172.51L193.99,172.08L195.16,172.08L196.34,170.8L197.52,168.87L198.69,165.46L202.22,160.54L203.39,160.11L204.57,158.83L205.75,154.56L206.92,152.85L208.1,149.43L210.45,144.72L211.62,144.3L212.8,144.08L213.98,141.73L216.33,132.76L217.5,132.33L221.03,132.33L222.21,126.34L223.38,126.34L224.56,121.86L225.73,119.51L226.91,119.51L228.08,117.58L229.26,112.88L233.96,101.34L235.14,99.63L236.31,98.77L237.49,95.78L241.02,85.1L242.19,82.1L243.37,81.68L244.54,79.97L245.72,78.9L246.9,76.76L250.42,68.85L251.6,68.21L252.77,67.78L253.95,64.37L258.65,54.96L259.83,54.11L261,54.11L262.18,51.54L264.53,46.2L265.71,44.7L268.06,41.07L269.23,40.64L270.41,40.43L271.58,38.29L272.76,37.44L273.94,34.87L276.29,33.16L277.46,32.95L280.99,30.17L282.17,27.18L283.34,25.04L284.52,24.61L285.69,24.61L286.87,23.33L289.22,18.2L290.4,17.56L295.1,15.85L296.27,14.35L297.45,13.5" style="vector-effect: non-scaling-stroke; fill: none; stroke: rgb(67, 99, 216); stroke-opacity: 1; stroke-width: 2px; opacity: 1;"/></g><g class="points"/><g class="text"/></g><g class="trace scatter trace78b9c5" style="stroke-miterlimit: 2; opacity: 1;"><g class="fills"/><g class="errorbars"/><g class="lines"><path class="js-line" d="M0,256.5L54.08,255.86L55.26,255.65L63.49,255L64.66,254.79L71.72,253.08L72.89,252.44L76.42,251.58L77.6,250.52L79.95,249.87L81.12,249.45L95.23,244.32L96.41,243.04L97.58,243.04L98.76,241.97L102.29,240.26L103.46,240.26L105.81,237.05L106.99,236.41L111.69,235.13L112.87,234.49L117.57,232.35L118.74,232.14L121.1,231.49L122.27,230.64L124.62,229.36L125.8,229.14L130.5,228.72L131.68,228.29L135.2,227.65L136.38,227.65L142.26,227.01L143.43,226.79L154.02,226.37L155.19,225.94L164.6,225.3L165.77,224.87L169.3,224.23L170.48,224.23L181.06,223.59L182.23,223.37L189.29,222.73L190.46,222.52L201.04,221.02L202.22,221.02L204.57,220.17L205.75,219.53L208.1,218.67L209.27,218.67L213.98,218.03L215.15,217.82L218.68,217.18L219.85,217.18L231.61,214.61L232.79,213.11L243.37,211.83L244.54,211.83L249.25,209.05L250.42,208.63L252.77,208.63L253.95,206.7L257.48,204.35L258.65,204.35L261,204.35L262.18,203.5L269.23,200.93L270.41,200.93L272.76,200.29L273.94,197.51L276.29,196.02L277.46,196.02L280.99,193.45L282.17,193.45L288.04,192.38L289.22,191.53L293.92,189.39L295.1,188.54L297.45,187.04" style="vector-effect: non-scaling-stroke; fill: none; stroke: rgb(245, 130, 49); stroke-opacity: 1; stroke-width: 2px; opacity: 1;"/></g><g class="points"/><g class="text"/></g><g class="trace scatter trace926ca1" style="stroke-miterlimit: 2; opacity: 1;"><g class="fills"/><g class="errorbars"/><g class="lines"><path class="js-line" d="M0,256.5L99.93,255.86L101.11,255.65L109.34,253.94L110.52,253.51L116.39,252.87L117.57,252.65L125.8,252.23L126.97,251.8L132.85,251.16L134.03,250.94L138.73,250.3L139.91,250.09L142.26,249.66L143.43,249.66L148.14,249.45L149.31,249.45L152.84,248.81L154.02,248.81L163.42,248.16L164.6,247.95L168.12,247.1L169.3,247.1L174,246.46L175.18,246.24L181.06,245.81L182.23,245.39L189.29,244.75L190.46,244.53L193.99,242.18L195.16,242.18L197.52,241.54L198.69,241.33L199.87,241.33L201.04,240.04L203.39,239.62L204.57,239.62L206.92,239.62L208.1,237.48L211.62,235.98L212.8,232.78L218.68,218.67L219.85,198.37L221.03,198.37L222.21,193.67L223.38,191.53L224.56,187.04L225.73,182.55L226.91,182.55L229.26,174.65L230.44,172.29L233.96,165.67L235.14,164.6L236.31,164.6L237.49,159.47L241.02,143.66L242.19,139.59L244.54,135.75L245.72,130.62L249.25,122.07L250.42,118.01L252.77,116.09L253.95,113.73L258.65,97.06L259.83,95.78L261,94.71L262.18,92.58L263.35,90.87L264.53,87.02L266.88,82.96L268.06,82.53L270.41,81.46L271.58,80.39L273.94,77.19L275.11,76.76L278.64,75.27L279.81,73.98L280.99,73.56L282.17,71.63L284.52,70.14L285.69,70.14L286.87,69.49L288.04,67.14L292.75,63.72L293.92,63.72L296.27,61.59L297.45,60.95" style="vector-effect: non-scaling-stroke; fill: none; stroke: rgb(145, 30, 180); stroke-opacity: 1; stroke-width: 2px; opacity: 1;"/></g><g class="points"/><g class="text"/></g></g></g><g class="overplot"/><path class="xlines-above crisp" d="M0,0" style="fill: none;"/><path class="ylines-above crisp" d="M0,0" style="fill: none;"/><g class="overlines-above"/><g class="xaxislayer-above"><g class="x2tick"><text text-anchor="middle" x="0" y="383" transform="translate(489.40000000000003,0)" style="font-family: 'Open Sans', verdana, arial, sans-serif; font-size: 12px; fill: rgb(242, 245, 250); fill-opacity: 1; white-space: pre;">Mar 2020</text></g><g class="x2tick"><text text-anchor="middle" x="0" y="383" transform="translate(561.12,0)" style="font-family: 'Open Sans', verdana, arial, sans-serif; font-size: 12px; fill: rgb(242, 245, 250); fill-opacity: 1; white-space: pre;">May 2020</text></g><g class="x2tick"><text text-anchor="middle" x="0" y="383" transform="translate(632.84,0)" style="font-family: 'Open Sans', verdana, arial, sans-serif; font-size: 12px; fill: rgb(242, 245, 250); fill-opacity: 1; white-space: pre;">Jul 2020</text></g><g class="x2tick"><text text-anchor="middle" x="0" y="383" transform="translate(705.73,0)" style="font-family: 'Open Sans', verdana, arial, sans-serif; font-size: 12px; fill: rgb(242, 245, 250); fill-opacity: 1; white-space: pre;">Sep 2020</text></g></g><g class="yaxislayer-above"><g class="y2tick"><text text-anchor="end" x="442.55" y="4.199999999999999" transform="translate(0,356.5)" style="font-family: 'Open Sans', verdana, arial, sans-serif; font-size: 12px; fill: rgb(242, 245, 250); fill-opacity: 1; white-space: pre;">0</text></g><g class="y2tick"><text text-anchor="end" x="442.55" y="4.199999999999999" transform="translate(0,313.76)" style="font-family: 'Open Sans', verdana, arial, sans-serif; font-size: 12px; fill: rgb(242, 245, 250); fill-opacity: 1; white-space: pre;">200</text></g><g class="y2tick"><text text-anchor="end" x="442.55" y="4.199999999999999" transform="translate(0,271.01)" style="font-family: 'Open Sans', verdana, arial, sans-serif; font-size: 12px; fill: rgb(242, 245, 250); fill-opacity: 1; white-space: pre;">400</text></g><g class="y2tick"><text text-anchor="end" x="442.55" y="4.199999999999999" transform="translate(0,228.27)" style="font-family: 'Open Sans', verdana, arial, sans-serif; font-size: 12px; fill: rgb(242, 245, 250); fill-opacity: 1; white-space: pre;">600</text></g><g class="y2tick"><text text-anchor="end" x="442.55" y="4.199999999999999" transform="translate(0,185.51999999999998)" style="font-family: 'Open Sans', verdana, arial, sans-serif; font-size: 12px; fill: rgb(242, 245, 250); fill-opacity: 1; white-space: pre;">800</text></g><g class="y2tick"><text text-anchor="end" x="442.55" y="4.199999999999999" transform="translate(0,142.78)" style="font-family: 'Open Sans', verdana, arial, sans-serif; font-size: 12px; fill: rgb(242, 245, 250); fill-opacity: 1; white-space: pre;">1000</text></g><g class="y2tick"><text text-anchor="end" x="442.55" y="4.199999999999999" transform="translate(0,100.04)" style="font-family: 'Open Sans', verdana, arial, sans-serif; font-size: 12px; fill: rgb(242, 245, 250); fill-opacity: 1; white-space: pre;">1200</text></g></g><g class="overaxes-above"/></g></g><g class="polarlayer"/><g class="ternarylayer"/><g class="geolayer"/><g class="funnelarealayer"/><g class="pielayer"/><g class="treemaplayer"/><g class="sunburstlayer"/><g class="glimages"/><defs id="topdefs-083cfb"><g class="clips"/><clipPath id="legend083cfb"><rect width="134" height="124" x="0" y="0"/></clipPath></defs><g class="layer-above"><g class="imagelayer"/><g class="shapelayer"/></g><g class="infolayer"><g class="legend" pointer-events="all" transform="translate(754.22, 100)"><rect class="bg" shape-rendering="crispEdges" width="134" height="124" x="0" y="0" style="stroke: rgb(68, 68, 68); stroke-opacity: 1; fill: rgb(17, 17, 17); fill-opacity: 1; stroke-width: 0px;"/><g class="scrollbox" transform="translate(0, 0)" clip-path="url('#legend083cfb')"><g class="groups"><g class="traces" transform="translate(0, 14.5)" style="opacity: 1;"><text class="legendtext user-select-none" text-anchor="start" x="40" y="4.680000000000001" style="font-family: 'Open Sans', verdana, arial, sans-serif; font-size: 12px; fill: rgb(242, 245, 250); fill-opacity: 1; white-space: pre;">Alameda, CA</text><g class="layers" style="opacity: 1;"><g class="legendfill"/><g class="legendlines"><path class="js-line" d="M5,0h30" style="fill: none; stroke: rgb(230, 25, 75); stroke-opacity: 1; stroke-width: 2px;"/></g><g class="legendsymbols"><g class="legendpoints"/></g></g><rect class="legendtoggle" pointer-events="all" x="0" y="-9.5" width="128.046875" height="19" style="cursor: pointer; fill: rgb(0, 0, 0); fill-opacity: 0;"/></g><g class="traces" transform="translate(0, 33.5)" style="opacity: 1;"><text class="legendtext user-select-none" text-anchor="start" x="40" y="4.680000000000001" style="font-family: 'Open Sans', verdana, arial, sans-serif; font-size: 12px; fill: rgb(242, 245, 250); fill-opacity: 1; white-space: pre;">Tarrant, TX</text><g class="layers" style="opacity: 1;"><g class="legendfill"/><g class="legendlines"><path class="js-line" d="M5,0h30" style="fill: none; stroke: rgb(60, 180, 75); stroke-opacity: 1; stroke-width: 2px;"/></g><g class="legendsymbols"><g class="legendpoints"/></g></g><rect class="legendtoggle" pointer-events="all" x="0" y="-9.5" width="128.046875" height="19" style="cursor: pointer; fill: rgb(0, 0, 0); fill-opacity: 0;"/></g><g class="traces" transform="translate(0, 52.5)" style="opacity: 1;"><text class="legendtext user-select-none" text-anchor="start" x="40" y="4.680000000000001" style="font-family: 'Open Sans', verdana, arial, sans-serif; font-size: 12px; fill: rgb(242, 245, 250); fill-opacity: 1; white-space: pre;">Sacramento, CA</text><g class="layers" style="opacity: 1;"><g class="legendfill"/><g class="legendlines"><path class="js-line" d="M5,0h30" style="fill: none; stroke: rgb(255, 225, 25); stroke-opacity: 1; stroke-width: 2px;"/></g><g class="legendsymbols"><g class="legendpoints"/></g></g><rect class="legendtoggle" pointer-events="all" x="0" y="-9.5" width="128.046875" height="19" style="cursor: pointer; fill: rgb(0, 0, 0); fill-opacity: 0;"/></g><g class="traces" transform="translate(0, 71.5)" style="opacity: 1;"><text class="legendtext user-select-none" text-anchor="start" x="40" y="4.680000000000001" style="font-family: 'Open Sans', verdana, arial, sans-serif; font-size: 12px; fill: rgb(242, 245, 250); fill-opacity: 1; white-space: pre;">Dallas, TX</text><g class="layers" style="opacity: 1;"><g class="legendfill"/><g class="legendlines"><path class="js-line" d="M5,0h30" style="fill: none; stroke: rgb(67, 99, 216); stroke-opacity: 1; stroke-width: 2px;"/></g><g class="legendsymbols"><g class="legendpoints"/></g></g><rect class="legendtoggle" pointer-events="all" x="0" y="-9.5" width="128.046875" height="19" style="cursor: pointer; fill: rgb(0, 0, 0); fill-opacity: 0;"/></g><g class="traces" transform="translate(0, 90.5)" style="opacity: 1;"><text class="legendtext user-select-none" text-anchor="start" x="40" y="4.680000000000001" style="font-family: 'Open Sans', verdana, arial, sans-serif; font-size: 12px; fill: rgb(242, 245, 250); fill-opacity: 1; white-space: pre;">Santa Clara, CA</text><g class="layers" style="opacity: 1;"><g class="legendfill"/><g class="legendlines"><path class="js-line" d="M5,0h30" style="fill: none; stroke: rgb(245, 130, 49); stroke-opacity: 1; stroke-width: 2px;"/></g><g class="legendsymbols"><g class="legendpoints"/></g></g><rect class="legendtoggle" pointer-events="all" x="0" y="-9.5" width="128.046875" height="19" style="cursor: pointer; fill: rgb(0, 0, 0); fill-opacity: 0;"/></g><g class="traces" transform="translate(0, 109.5)" style="opacity: 1;"><text class="legendtext user-select-none" text-anchor="start" x="40" y="4.680000000000001" style="font-family: 'Open Sans', verdana, arial, sans-serif; font-size: 12px; fill: rgb(242, 245, 250); fill-opacity: 1; white-space: pre;">Cameron, TX</text><g class="layers" style="opacity: 1;"><g class="legendfill"/><g class="legendlines"><path class="js-line" d="M5,0h30" style="fill: none; stroke: rgb(145, 30, 180); stroke-opacity: 1; stroke-width: 2px;"/></g><g class="legendsymbols"><g class="legendpoints"/></g></g><rect class="legendtoggle" pointer-events="all" x="0" y="-9.5" width="128.046875" height="19" style="cursor: pointer; fill: rgb(0, 0, 0); fill-opacity: 0;"/></g></g></g><rect class="scrollbar" rx="20" ry="3" width="0" height="0" x="0" y="0" style="fill: rgb(128, 139, 164); fill-opacity: 1;"/></g><g class="g-gtitle"/><g class="g-xtitle"><text class="xtitle" x="228.725" y="410.8" text-anchor="middle" style="font-family: 'Open Sans', verdana, arial, sans-serif; font-size: 14px; fill: rgb(242, 245, 250); opacity: 1; font-weight: normal; white-space: pre;">Date</text></g><g class="g-x2title"><text class="x2title" x="592.275" y="410.8" text-anchor="middle" style="font-family: 'Open Sans', verdana, arial, sans-serif; font-size: 14px; fill: rgb(242, 245, 250); opacity: 1; font-weight: normal; white-space: pre;">Date</text></g><g class="g-ytitle"><text class="ytitle" transform="rotate(-90,34.840625,235)" x="34.840625" y="235" text-anchor="middle" style="font-family: 'Open Sans', verdana, arial, sans-serif; font-size: 14px; fill: rgb(242, 245, 250); opacity: 1; font-weight: normal; white-space: pre;">Cases</text></g><g class="g-y2title"><text class="y2title" transform="rotate(-90,391.04375,235)" x="391.04375" y="235" text-anchor="middle" style="font-family: 'Open Sans', verdana, arial, sans-serif; font-size: 14px; fill: rgb(242, 245, 250); opacity: 1; font-weight: normal; white-space: pre;">Deaths</text></g><g class="annotation" data-index="0" style="opacity: 1;"><g class="annotation-text-g" transform="rotate(0,228.725,89.5)"><g class="cursor-pointer" transform="translate(204, 79)"><rect class="bg" x="0.5" y="0.5" width="48" height="20" style="stroke-width: 1px; stroke: rgb(0, 0, 0); stroke-opacity: 0; fill: rgb(0, 0, 0); fill-opacity: 0;"/><text class="annotation-text" text-anchor="middle" x="24.6875" y="16" style="font-family: 'Open Sans', verdana, arial, sans-serif; font-size: 16px; fill: rgb(242, 245, 250); fill-opacity: 1; white-space: pre;">Cases</text></g></g></g><g class="annotation" data-index="1" style="opacity: 1;"><g class="annotation-text-g" transform="rotate(0,592.275,89.5)"><g class="cursor-pointer" transform="translate(565, 79)"><rect class="bg" x="0.5" y="0.5" width="54" height="20" style="stroke-width: 1px; stroke: rgb(0, 0, 0); stroke-opacity: 0; fill: rgb(0, 0, 0); fill-opacity: 0;"/><text class="annotation-text" text-anchor="middle" x="27.359375" y="16" style="font-family: 'Open Sans', verdana, arial, sans-serif; font-size: 16px; fill: rgb(242, 245, 250); fill-opacity: 1; white-space: pre;">Deaths</text></g></g></g></g></svg>