<svg class="main-svg" xmlns="http://www.w3.org/2000/svg" xmlns:xlink="http://www.w3.org/1999/xlink" width="900" height="450" style="" viewBox="0 0 900 450"><rect x="0" y="0" width="900" height="450" style="fill: rgb(17, 17, 17); fill-opacity: 1;"/><defs id="defs-36c370"><g class="clips"><clipPath id="clip36c370xyplot" class="plotclip"><rect width="296.55" height="270"/></clipPath><clipPath id="clip36c370x2y2plot" class="plotclip"><rect width="296.54999999999995" height="270"/></clipPath><clipPath class="axesclip" id="clip36c370x"><rect x="80" y="0" width="296.55" height="450"/></clipPath><clipPath class="axesclip" id="clip36c370y"><rect x="0" y="100" width="900" height="270"/></clipPath><clipPath class="axesclip" id="clip36c370xy"><rect x="80" y="100" width="296.55" height="270"/></clipPath><clipPath class="axesclip" id="clip36c370y2"><rect x="0" y="100" width="900" height="270"/></clipPath><clipPath class="axesclip" id="clip36c370xy2"><rect x="80" y="100" width="296.55" height="270"/></clipPath><clipPath class="axesclip" id="clip36c370x2"><rect x="442.45000000000005" y="0" width="296.54999999999995" height="450"/></clipPath><clipPath class="axesclip" id="clip36c370x2y"><rect x="442.45000000000005" y="100" width="296.54999999999995" height="270"/></clipPath><clipPath class="axesclip" id="clip36c370x2y2"><rect x="442.45000000000005" y="100" width="296.54999999999995" height="270"/></clipPath></g><g class="gradients"/></defs><g class="bglayer"/><g class="layer-below"><g class="imagelayer"/><g class="shapelayer"/></g><g class="cartesianlayer"><g class="subplot xy"><g class="layer-subplot"><g class="shapelayer"/><g class="imagelayer"/></g><g class="gridlayer"><g class="x"><path class="xgrid crisp" transform="translate(126.45,0)" d="M0,100v270" style="stroke: rgb(40, 52, 66); stroke-opacity: 1; stroke-width: 1px;"/><path class="xgrid crisp" transform="translate(199.1,0)" d="M0,100v270" style="stroke: rgb(40, 52, 66); stroke-opacity: 1; stroke-width: 1px;"/><path class="xgrid crisp" transform="translate(271.75,0)" d="M0,100v270" style="stroke: rgb(40, 52, 66); stroke-opacity: 1; stroke-width: 1px;"/><path class="xgrid crisp" transform="translate(345.58,0)" d="M0,100v270" style="stroke: rgb(40, 52, 66); stroke-opacity: 1; stroke-width: 1px;"/></g><g class="y"><path class="ygrid crisp" transform="translate(0,314.73)" d="M80,0h296.55" style="stroke: rgb(40, 52, 66); stroke-opacity: 1; stroke-width: 1px;"/><path class="ygrid crisp" transform="translate(0,272.96000000000004)" d="M80,0h296.55" style="stroke: rgb(40, 52, 66); stroke-opacity: 1; stroke-width: 1px;"/><path class="ygrid crisp" transform="translate(0,231.19)" d="M80,0h296.55" style="stroke: rgb(40, 52, 66); stroke-opacity: 1; stroke-width: 1px;"/><path class="ygrid crisp" transform="translate(0,189.43)" d="M80,0h296.55" style="stroke: rgb(40, 52, 66); stroke-opacity: 1; stroke-width: 1px;"/><path class="ygrid crisp" transform="translate(0,147.66)" d="M80,0h296.55" style="stroke: rgb(40, 52, 66); stroke-opacity: 1; stroke-width: 1px;"/><path class="ygrid crisp" transform="translate(0,105.89)" d="M80,0h296.55" style="stroke: rgb(40, 52, 66); stroke-opacity: 1; stroke-width: 1px;"/></g></g><g class="zerolinelayer"><path class="yzl zl crisp" transform="translate(0,356.5)" d="M80,0h296.55" style="stroke: rgb(40, 52, 66); stroke-opacity: 1; stroke-width: 2px;"/></g><path class="xlines-below"/><path class="ylines-below"/><g class="overlines-below"/><g class="xaxislayer-below"/><g class="yaxislayer-below"/><g class="overaxes-below"/><g class="plot" transform="translate(80, 100)" clip-path="url('#clip36c370xyplot')"><g class="scatterlayer mlayer"><g class="trace scatter tracec0cb51" style="stroke-miterlimit: 2; opacity: 1;"><g class="fills"/><g class="errorbars"/><g class="lines"><path class="js-line" d="M0,256.5L76.22,255.82L77.41,255.58L108.38,251.15L109.57,250.86L151.25,243.56L152.44,243.16L163.16,240.32L164.35,240.02L172.69,238.23L173.88,237.78L179.84,236.43L181.03,235.59L191.75,230.79L192.94,229.84L195.32,229.12L196.51,227.87L198.89,227.73L200.08,226.24L206.04,223.19L207.23,221.74L217.95,215.28L219.14,213.84L225.09,211.5L226.28,210.01L227.47,210.01L228.67,208.53L229.86,208.37L231.05,207.02L235.81,205.81L237,205.81L238.19,201.37L239.38,201.29L242.96,197.07L244.15,195.69L245.34,195.69L246.53,193.33L247.72,193.3L248.91,192.02L252.48,187.71L253.68,186.78L256.06,186.61L257.25,184.35L259.63,182.9L260.82,181.96L262.01,181.96L263.2,181.15L265.58,179.46L266.78,178.41L272.73,175.68L273.92,175.68L276.3,174.17L277.49,173.72L281.07,172.87L282.26,172.56L284.64,172.29L285.83,171.44L292.98,168.99L294.17,168.67L296.55,168" style="vector-effect: non-scaling-stroke; fill: none; stroke: rgb(230, 25, 75); stroke-opacity: 1; stroke-width: 2px; opacity: 1;"/></g><g class="points"/><g class="text"/></g><g class="trace scatter tracebaca88" style="stroke-miterlimit: 2; opacity: 1;"><g class="fills"/><g class="errorbars"/><g class="lines"><path class="js-line" d="M0,256.5L76.22,255.78L77.41,255.47L88.13,252.81L89.32,252.19L92.9,250.68L94.09,250.24L111.95,245.15L113.14,244.83L121.48,242.61L122.67,242.22L167.93,234.8L169.12,234.7L184.6,232.12L185.79,231.71L194.13,229.37L195.32,229.37L201.27,227.39L202.46,225.93L207.23,223.71L208.42,222.74L215.56,218.47L216.76,217.33L222.71,209.92L223.9,209.3L227.47,203.85L228.67,202.91L232.24,200.2L233.43,198.92L235.81,197.26L237,197.26L245.34,190.15L246.53,189.67L251.29,186.5L252.48,185.75L275.11,172.26L276.3,171.93L283.45,168.11L284.64,167.38L296.55,161.47" style="vector-effect: non-scaling-stroke; fill: none; stroke: rgb(60, 180, 75); stroke-opacity: 1; stroke-width: 2px; opacity: 1;"/></g><g class="points"/><g class="text"/></g><g class="trace scatter tracee12e08" style="stroke-miterlimit: 2; opacity: 1;"><g class="fills"/><g class="errorbars"/><g class="lines"><path class="js-line" d="M0,256.5L95.28,255.84L96.47,255.69L114.33,254.97L115.52,254.93L170.31,251.98L171.5,251.75L176.26,251.07L177.45,250.77L200.08,243.98L201.27,243.47L203.65,241.9L204.85,240.4L206.04,240.4L207.23,239.06L211.99,233.26L213.18,231.89L214.37,231.89L215.56,230.55L219.14,226.59L220.33,223.81L222.71,223.81L223.9,222.25L227.47,214.08L228.67,210.68L229.86,210.68L231.05,200.05L232.24,194.76L233.43,193.35L237,188.46L238.19,188.46L244.15,182.91L245.34,182.09L246.53,182.09L247.72,181.3L253.68,177.14L254.87,176.2L256.06,176.2L257.25,173.54L258.44,173.54L259.63,170.39L263.2,169.4L264.39,169.4L269.16,166.87L270.35,166.43L273.92,166.43L275.11,165.44L282.26,163.97L283.45,163.68L296.55,161.69" style="vector-effect: non-scaling-stroke; fill: none; stroke: rgb(255, 225, 25); stroke-opacity: 1; stroke-width: 2px; opacity: 1;"/></g><g class="points"/><g class="text"/></g><g class="trace scatter trace0e6ef5" style="stroke-miterlimit: 2; opacity: 1;"><g class="fills"/><g class="errorbars"/><g class="lines"><path class="js-line" d="M0,256.5L79.79,255.81L80.99,255.56L86.94,254.87L88.13,254.65L97.66,253.41L98.85,253.09L110.76,252.24L111.95,252.22L167.93,249.52L169.12,249.38L176.26,248.4L177.45,248.25L179.84,248.25L181.03,247.13L185.79,245.36L186.98,245.36L188.17,245.36L189.36,243.95L192.94,241.63L194.13,241.63L196.51,241.63L197.7,238.14L207.23,231.7L208.42,230.71L214.37,225.9L215.56,224.4L221.52,219.31L222.71,218.83L225.09,216.76L226.28,216.14L229.86,214.45L231.05,214.22L233.43,213.71L234.62,212.46L235.81,211.41L237,211.41L238.19,211.41L239.38,206.21L241.77,204.38L242.96,201.3L244.15,199.63L245.34,199.63L246.53,199.63L247.72,196.66L252.48,192.82L253.68,192.82L254.87,192.82L256.06,188.29L258.44,186.57L259.63,185.87L260.82,184.87L262.01,184.87L263.2,184.87L264.39,181.1L269.16,177.92L270.35,177.92L271.54,177.92L272.73,175.69L276.3,174.35L277.49,172.7L279.88,172.7L281.07,171.15L283.45,170.21L284.64,168.95L287.02,168.07L288.21,168.07L290.6,165.44L291.79,165.14L295.36,163.85L296.55,163.85" style="vector-effect: non-scaling-stroke; fill: none; stroke: rgb(67, 99, 216); stroke-opacity: 1; stroke-width: 2px; opacity: 1;"/></g><g class="points"/><g class="text"/></g><g class="trace scatter tracef5b186" style="stroke-miterlimit: 2; opacity: 1;"><g class="fills"/><g class="errorbars"/><g class="lines"><path class="js-line" d="M0,256.5L76.22,256.05L77.41,255.73L82.18,254.95L83.37,254.71L88.13,253.16L89.32,252.55L95.28,250.52L96.47,249.74L117.91,239.66L119.1,239.46L123.86,237.9L125.05,236.99L134.58,233.78L135.77,233.03L138.15,233.03L139.34,231.64L145.3,229.5L146.49,229.5L147.68,227.25L148.87,226.68L156.02,223.16L157.21,222.44L159.59,221.82L160.78,219.84L163.16,218.12L164.35,218.05L169.12,212.68L170.31,211.7L173.88,207.66L175.07,206.58L177.45,203.13L178.64,203.13L179.84,203.13L181.03,198.86L183.41,194.24L184.6,193.25L185.79,191.16L186.98,191.16L190.55,184.26L191.75,181.15L194.13,175.26L195.32,175.26L196.51,175.26L197.7,170.65L200.08,164.79L201.27,159.04L202.46,153.06L203.65,153.06L204.85,153.06L206.04,148.95L210.8,136.65L211.99,136.65L213.18,136.65L214.37,131.27L219.14,116.71L220.33,116.71L221.52,116.71L222.71,109.53L225.09,105.47L226.28,103.51L233.43,93.7L234.62,90.51L235.81,87.54L237,87.54L238.19,87.54L239.38,81.14L241.77,72.79L242.96,69.88L244.15,65.78L245.34,65.78L246.53,65.78L247.72,58.14L250.1,53.38L251.29,52.02L252.48,49.82L253.68,49.82L254.87,49.82L256.06,44.55L258.44,41.23L259.63,40.42L262.01,39.89L263.2,39.89L264.39,35.51L265.58,34.49L266.78,33.85L267.97,32.19L269.16,31.01L270.35,31.01L272.73,31.01L273.92,28.56L278.69,26.47L279.88,26.47L281.07,23.57L282.26,22.66L287.02,19.75L288.21,19.75L289.4,16.67L290.6,16.41L295.36,13.5L296.55,13.5" style="vector-effect: non-scaling-stroke; fill: none; stroke: rgb(245, 130, 49); stroke-opacity: 1; stroke-width: 2px; opacity: 1;"/></g><g class="points"/><g class="text"/></g><g class="trace scatter trace822d27" style="stroke-miterlimit: 2; opacity: 1;"><g class="fills"/><g class="errorbars"/><g class="lines"><path class="js-line" d="M0,256.5L84.56,255.76L85.75,255.73L136.96,253.7L138.15,253.62L159.59,252.22L160.78,252.11L177.45,248.46L178.64,247.41L182.22,245.81L183.41,245.05L186.98,243.58L188.17,243.58L189.36,242.75L190.55,240.39L191.75,240.15L192.94,238.55L195.32,237.81L196.51,237.81L197.7,237.81L198.89,233.11L203.65,230.27L204.85,230.27L207.23,226.36L208.42,225.47L210.8,223.84L211.99,223.84L213.18,223.84L214.37,221.74L217.95,215.46L219.14,214.21L221.52,214.21L222.71,211.91L227.47,208.54L228.67,208.54L229.86,208.54L231.05,206.86L238.19,205.11L239.38,202.77L240.57,198.57L241.77,197.92L244.15,195.31L245.34,195.31L246.53,195.31L247.72,193.81L252.48,191.25L253.68,191.25L254.87,191.25L256.06,189.12L257.25,187.39L258.44,187.1L262.01,185.86L263.2,185.86L264.39,183.42L265.58,182.9L269.16,180.9L270.35,180.9L273.92,180.46L275.11,179.38L279.88,178.45L281.07,175.62L283.45,174.54L284.64,174.21L288.21,173.83L289.4,173.63L291.79,172.71L292.98,172.44L296.55,172.15" style="vector-effect: non-scaling-stroke; fill: none; stroke: rgb(145, 30, 180); stroke-opacity: 1; stroke-width: 2px; opacity: 1;"/></g><g class="points"/><g class="text"/></g></g></g><g class="overplot"/><path class="xlines-above crisp" d="M0,0" style="fill: none;"/><path class="ylines-above crisp" d="M0,0" style="fill: none;"/><g class="overlines-above"/><g class="xaxislayer-above"><g class="xtick"><text text-anchor="middle" x="0" y="383" transform="translate(126.45,0)" style="font-family: 'Open Sans', verdana, arial, sans-serif; font-size: 12px; fill: rgb(242, 245, 250); fill-opacity: 1; white-space: pre;">Mar 2020</text></g><g class="xtick"><text text-anchor="middle" x="0" y="383" transform="translate(199.1,0)" style="font-family: 'Open Sans', verdana, arial, sans-serif; font-size: 12px; fill: rgb(242, 245, 250); fill-opacity: 1; white-space: pre;">May 2020</text></g><g class="xtick"><text text-anchor="middle" x="0" y="383" transform="translate(271.75,0)" style="font-family: 'Open Sans', verdana, arial, sans-serif; font-size: 12px; fill: rgb(242, 245, 250); fill-opacity: 1; white-space: pre;">Jul 2020</text></g><g class="xtick"><text text-anchor="middle" x="0" y="383" transform="translate(345.58,0)" style="font-family: 'Open Sans', verdana, arial, sans-serif; font-size: 12px; fill: rgb(242, 245, 250); fill-opacity: 1; white-space: pre;">Sep 2020</text></g></g><g class="yaxislayer-above"><g class="ytick"><text text-anchor="end" x="79" y="4.199999999999999" transform="translate(0,356.5)" style="font-family: 'Open Sans', verdana, arial, sans-serif; font-size: 12px; fill: rgb(242, 245, 250); fill-opacity: 1; white-space: pre;">0</text></g><g class="ytick"><text text-anchor="end" x="79" y="4.199999999999999" transform="translate(0,314.73)" style="font-family: 'Open Sans', verdana, arial, sans-serif; font-size: 12px; fill: rgb(242, 245, 250); fill-opacity: 1; white-space: pre;">10k</text></g><g class="ytick"><text text-anchor="end" x="79" y="4.199999999999999" transform="translate(0,272.96000000000004)" style="font-family: 'Open Sans', verdana, arial, sans-serif; font-size: 12px; fill: rgb(242, 245, 250); fill-opacity: 1; white-space: pre;">20k</text></g><g class="ytick"><text text-anchor="end" x="79" y="4.199999999999999" transform="translate(0,231.19)" style="font-family: 'Open Sans', verdana, arial, sans-serif; font-size: 12px; fill: rgb(242, 245, 250); fill-opacity: 1; white-space: pre;">30k</text></g><g class="ytick"><text text-anchor="end" x="79" y="4.199999999999999" transform="translate(0,189.43)" style="font-family: 'Open Sans', verdana, arial, sans-serif; font-size: 12px; fill: rgb(242, 245, 250); fill-opacity: 1; white-space: pre;">40k</text></g><g class="ytick"><text text-anchor="end" x="79" y="4.199999999999999" transform="translate(0,147.66)" style="font-family: 'Open Sans', verdana, arial, sans-serif; font-size: 12px; fill: rgb(242, 245, 250); fill-opacity: 1; white-space: pre;">50k</text></g><g class="ytick"><text text-anchor="end" x="79" y="4.199999999999999" transform="translate(0,105.89)" style="font-family: 'Open Sans', verdana, arial, sans-serif; font-size: 12px; fill: rgb(242, 245, 250); fill-opacity: 1; white-space: pre;">60k</text></g></g><g class="overaxes-above"/></g><g class="subplot x2y2"><g class="layer-subplot"><g class="shapelayer"/><g class="imagelayer"/></g><g class="gridlayer"><g class="x2"><path class="x2grid crisp" transform="translate(488.90000000000003,0)" d="M0,100v270" style="stroke: rgb(40, 52, 66); stroke-opacity: 1; stroke-width: 1px;"/><path class="x2grid crisp" transform="translate(561.5500000000001,0)" d="M0,100v270" style="stroke: rgb(40, 52, 66); stroke-opacity: 1; stroke-width: 1px;"/><path class="x2grid crisp" transform="translate(634.2,0)" d="M0,100v270" style="stroke: rgb(40, 52, 66); stroke-opacity: 1; stroke-width: 1px;"/><path class="x2grid crisp" transform="translate(708.03,0)" d="M0,100v270" style="stroke: rgb(40, 52, 66); stroke-opacity: 1; stroke-width: 1px;"/></g><g class="y2"><path class="y2grid crisp" transform="translate(0,315.63)" d="M442.45000000000005,0h296.54999999999995" style="stroke: rgb(40, 52, 66); stroke-opacity: 1; stroke-width: 1px;"/><path class="y2grid crisp" transform="translate(0,274.75)" d="M442.45000000000005,0h296.54999999999995" style="stroke: rgb(40, 52, 66); stroke-opacity: 1; stroke-width: 1px;"/><path class="y2grid crisp" transform="translate(0,233.88)" d="M442.45000000000005,0h296.54999999999995" style="stroke: rgb(40, 52, 66); stroke-opacity: 1; stroke-width: 1px;"/><path class="y2grid crisp" transform="translate(0,193)" d="M442.45000000000005,0h296.54999999999995" style="stroke: rgb(40, 52, 66); stroke-opacity: 1; stroke-width: 1px;"/><path class="y2grid crisp" transform="translate(0,152.13)" d="M442.45000000000005,0h296.54999999999995" style="stroke: rgb(40, 52, 66); stroke-opacity: 1; stroke-width: 1px;"/><path class="y2grid crisp" transform="translate(0,111.25)" d="M442.45000000000005,0h296.54999999999995" style="stroke: rgb(40, 52, 66); stroke-opacity: 1; stroke-width: 1px;"/></g></g><g class="zerolinelayer"><path class="y2zl zl crisp" transform="translate(0,356.5)" d="M442.45000000000005,0h296.54999999999995" style="stroke: rgb(40, 52, 66); stroke-opacity: 1; stroke-width: 2px;"/></g><path class="xlines-below"/><path class="ylines-below"/><g class="overlines-below"/><g class="xaxislayer-below"/><g class="yaxislayer-below"/><g class="overaxes-below"/><g class="plot" transform="translate(442.45000000000005, 100)" clip-path="url('#clip36c370x2y2plot')"><g class="scatterlayer mlayer"><g class="trace scatter trace3649c9" style="stroke-miterlimit: 2; opacity: 1;"><g class="fills"/><g class="errorbars"/><g class="lines"><path class="js-line" d="M0,256.5L75.03,256.09L76.22,255.68L82.18,255.07L83.37,254.87L95.28,252.21L96.47,251.8L98.85,251.8L100.04,249.14L103.61,248.12L104.8,247.92L108.38,247.3L109.57,247.1L113.14,245.87L114.33,245.87L120.29,243.62L121.48,243.62L125.05,243.01L126.24,242.81L128.62,241.99L129.82,241.99L132.2,241.38L133.39,240.97L136.96,239.54L138.15,239.54L140.53,238.92L141.72,238.52L146.49,237.49L147.68,237.49L156.02,236.88L157.21,236.68L159.59,236.68L160.78,235.86L165.54,235.65L166.73,235.04L169.12,234.22L170.31,234.22L172.69,233.61L173.88,233.61L176.26,232.59L177.45,232.38L182.22,231.98L183.41,231.57L185.79,229.93L186.98,229.93L190.55,228.91L191.75,228.71L195.32,227.89L196.51,227.89L200.08,227.48L201.27,226.66L207.23,225.44L208.42,225.03L209.61,225.03L210.8,223.6L214.37,223.39L215.56,222.37L219.14,220.12L220.33,220.12L225.09,219.51L226.28,219.3L227.47,219.3L228.67,217.87L232.24,217.26L233.43,217.06L237,217.06L238.19,214.6L240.57,214.6L241.77,213.17L244.15,211.74L245.34,211.74L250.1,209.9L251.29,209.29L254.87,208.68L256.06,208.68L258.44,206.84L259.63,206.63L262.01,206.02L263.2,203.98L265.58,203.98L266.78,200.5L267.97,196.21L269.16,196.01L271.54,195.39L272.73,195.19L276.3,194.57L277.49,191.1L278.69,191.1L279.88,188.65L281.07,188.44L282.26,183.74L283.45,183.74L284.64,181.9L287.02,180.06L288.21,180.06L289.4,180.06L290.6,176.79L295.36,173.52L296.55,173.52" style="vector-effect: non-scaling-stroke; fill: none; stroke: rgb(230, 25, 75); stroke-opacity: 1; stroke-width: 2px; opacity: 1;"/></g><g class="points"/><g class="text"/></g><g class="trace scatter trace8fec9a" style="stroke-miterlimit: 2; opacity: 1;"><g class="fills"/><g class="errorbars"/><g class="lines"><path class="js-line" d="M0,256.5L85.75,255.89L86.94,255.48L88.13,254.05L89.32,253.84L91.7,253.43L92.9,250.78L94.09,249.96L95.28,247.92L97.66,247.92L98.85,245.67L101.23,243.01L102.42,241.79L103.61,240.15L104.8,239.95L106,239.74L107.19,237.9L109.57,235.04L110.76,231.77L111.95,230.54L113.14,230.54L114.33,228.5L115.52,224L117.91,223.39L119.1,222.17L120.29,220.33L121.48,220.33L122.67,220.33L123.86,217.87L126.24,211.54L127.43,206.22L132.2,199.68L133.39,196.62L136.96,189.26L138.15,188.44L139.34,187.83L140.53,185.99L141.72,184.56L142.92,179.66L147.68,177.61L148.87,177.61L151.25,175.77L152.44,171.69L153.63,166.58L154.83,166.37L158.4,165.76L159.59,165.35L161.97,163.1L163.16,163.1L164.35,161.67L165.54,158.81L166.73,157.99L167.93,155.74L171.5,154.72L172.69,154.72L173.88,154.31L175.07,150.63L176.26,145.93L177.45,145.53L182.22,143.89L183.41,143.28L186.98,141.23L188.17,141.23L189.36,141.23L190.55,138.99L194.13,138.17L195.32,138.17L197.7,137.96L198.89,136.12L202.46,135.51L203.65,135.31L204.85,135.31L206.04,134.08L208.42,133.67L209.61,133.67L210.8,132.65L211.99,132.65L215.56,132.45L216.76,129.99L220.33,128.97L221.52,127.34L223.9,127.34L225.09,125.29L228.67,124.47L229.86,124.47L234.62,123.45L235.81,121.82L237,121.82L238.19,121L240.57,120.39L241.77,120.18L245.34,119.16L246.53,116.91L247.72,114.26L248.91,114.26L254.87,112.83L256.06,112.83L258.44,111.39L259.63,111.39L263.2,109.35L264.39,106.9L266.78,105.88L267.97,105.88L269.16,105.88L270.35,105.06L275.11,104.45L276.3,102.61L278.69,101.99L279.88,101.99L281.07,101.99L282.26,100.56L284.64,100.15L285.83,99.34L289.4,99.34L290.6,96.07L294.17,95.04L295.36,93L296.55,93" style="vector-effect: non-scaling-stroke; fill: none; stroke: rgb(60, 180, 75); stroke-opacity: 1; stroke-width: 2px; opacity: 1;"/></g><g class="points"/><g class="text"/></g><g class="trace scatter traceee6450" style="stroke-miterlimit: 2; opacity: 1;"><g class="fills"/><g class="errorbars"/><g class="lines"><path class="js-line" d="M0,256.5L101.23,255.89L102.42,255.68L110.76,254.05L111.95,253.64L117.91,253.03L119.1,252.82L127.43,252.41L128.62,252L134.58,251.39L135.77,251.19L140.53,250.57L141.72,250.37L144.11,249.96L145.3,249.96L150.06,249.76L151.25,249.76L154.83,249.14L156.02,249.14L165.54,248.53L166.73,248.33L170.31,247.51L171.5,247.51L176.26,246.89L177.45,246.69L183.41,246.28L184.6,245.87L191.75,245.26L192.94,245.06L196.51,242.81L197.7,242.81L200.08,242.19L201.27,241.99L202.46,241.99L203.65,240.76L206.04,240.35L207.23,240.35L209.61,240.35L210.8,238.31L214.37,236.88L215.56,233.81L221.52,220.33L222.71,200.91L223.9,200.91L225.09,196.41L226.28,194.37L227.47,190.08L228.67,185.79L229.86,185.79L232.24,178.22L233.43,175.98L237,169.64L238.19,168.62L239.38,168.62L240.57,163.71L244.15,148.59L245.34,144.71L247.72,141.03L248.91,136.12L252.48,127.95L253.68,124.07L256.06,122.23L257.25,119.98L262.01,104.04L263.2,102.81L264.39,101.79L265.58,99.75L266.78,98.11L267.97,94.43L270.35,90.55L271.54,90.14L273.92,89.12L275.11,88.1L277.49,85.03L278.69,84.62L282.26,83.19L283.45,81.97L284.64,81.56L285.83,79.72L288.21,78.29L289.4,78.29L290.6,77.67L291.79,75.43L296.55,72.16" style="vector-effect: non-scaling-stroke; fill: none; stroke: rgb(255, 225, 25); stroke-opacity: 1; stroke-width: 2px; opacity: 1;"/></g><g class="points"/><g class="text"/></g><g class="trace scatter trace0c450d" style="stroke-miterlimit: 2; opacity: 1;"><g class="fills"/><g class="errorbars"/><g class="lines"><path class="js-line" d="M0,256.5L71.46,255.89L72.65,255.68L82.18,255.07L83.37,254.66L86.94,254.46L88.13,253.23L95.28,251.19L96.47,251.19L108.38,249.14L109.57,248.12L121.48,247.92L122.67,246.89L132.2,246.28L133.39,246.08L135.77,245.46L136.96,245.46L142.92,245.06L144.11,245.06L163.16,244.44L164.35,244.03L173.88,243.62L175.07,243.01L196.51,242.4L197.7,241.38L204.85,239.54L206.04,239.54L207.23,237.9L208.42,237.7L211.99,236.88L213.18,236.88L217.95,236.47L219.14,235.45L220.33,234.43L221.52,234.43L225.09,230.75L226.28,230.54L228.67,227.48L229.86,227.48L237,223.6L238.19,223.6L239.38,220.33L240.57,219.92L244.15,215.83L245.34,215.83L246.53,215.83L247.72,211.95L248.91,211.74L250.1,209.49L251.29,209.49L252.48,208.68L254.87,208.68L256.06,206.22L260.82,200.5L262.01,200.5L263.2,200.5L264.39,196.62L265.58,196.01L266.78,194.37L269.16,189.67L270.35,189.67L271.54,189.67L272.73,188.65L275.11,187.22L276.3,185.79L278.69,184.97L279.88,184.97L285.83,179.86L287.02,179.86L288.21,179.86L289.4,178.22L291.79,174.96L292.98,174.34L295.36,173.52L296.55,173.52" style="vector-effect: non-scaling-stroke; fill: none; stroke: rgb(67, 99, 216); stroke-opacity: 1; stroke-width: 2px; opacity: 1;"/></g><g class="points"/><g class="text"/></g><g class="trace scatter trace2e3318" style="stroke-miterlimit: 2; opacity: 1;"><g class="fills"/><g class="errorbars"/><g class="lines"><path class="js-line" d="M0,256.5L67.88,255.89L69.08,255.68L77.41,254.87L78.6,254.87L80.99,254.66L82.18,253.84L85.75,253.43L86.94,252.82L88.13,252.62L89.32,251.39L96.47,248.12L97.66,246.28L98.85,246.28L100.04,245.46L101.23,244.44L102.42,244.44L103.61,241.38L104.8,241.17L108.38,236.27L109.57,236.06L111.95,232.59L113.14,232.38L114.33,227.68L115.52,227.68L116.71,227.27L117.91,226.05L120.29,223.6L121.48,223.6L122.67,219.51L123.86,218.9L125.05,218.49L126.24,217.26L127.43,214.81L128.62,214.81L129.82,214.6L131.01,212.15L134.58,208.47L135.77,207.04L138.15,207.04L139.34,203.16L140.53,201.32L141.72,201.32L144.11,197.23L145.3,197.23L147.68,196.82L148.87,194.57L151.25,192.53L152.44,190.49L156.02,190.49L157.21,186.6L159.59,185.99L160.78,183.95L164.35,183.74L165.54,181.9L169.12,178.22L170.31,178.22L172.69,178.02L173.88,175.77L175.07,174.96L176.26,173.12L178.64,172.71L179.84,172.71L182.22,168.42L183.41,168.21L186.98,166.98L188.17,166.98L189.36,166.58L190.55,163.1L192.94,161.47L194.13,158.61L196.51,158.61L197.7,157.17L201.27,147.57L202.46,146.75L204.85,146.75L206.04,144.09L207.23,143.48L208.42,138.58L210.8,136.53L211.99,136.53L215.56,136.12L216.76,130.4L217.95,126.31L219.14,126.31L221.52,126.31L222.71,119.37L223.9,119.16L225.09,117.12L227.47,114.46L228.67,114.46L229.86,114.46L231.05,105.88L232.24,105.67L233.43,102.81L235.81,93.21L237,93.21L238.19,93.21L239.38,88.91L240.57,88.1L241.77,82.17L242.96,76.86L244.15,76.45L246.53,76.45L247.72,70.11L250.1,69.09L251.29,68.07L252.48,67.05L253.68,67.05L254.87,67.05L256.06,57.85L258.44,55.4L259.63,52.74L260.82,50.7L262.01,50.7L263.2,50.7L264.39,48.24L266.78,45.38L267.97,41.29L269.16,38.43L270.35,38.43L272.73,38.43L273.92,36.8L277.49,31.08L278.69,31.08L279.88,31.08L281.07,28.01L284.64,22.9L285.83,20.86L288.21,20.86L289.4,19.02L290.6,16.97L291.79,16.77L294.17,13.5L295.36,13.5L296.55,13.5" style="vector-effect: non-scaling-stroke; fill: none; stroke: rgb(245, 130, 49); stroke-opacity: 1; stroke-width: 2px; opacity: 1;"/></g><g class="points"/><g class="text"/></g><g class="trace scatter trace77e50c" style="stroke-miterlimit: 2; opacity: 1;"><g class="fills"/><g class="errorbars"/><g class="lines"><path class="js-line" d="M0,256.5L76.22,255.89L77.41,255.68L80.99,255.27L82.18,254.87L89.32,254.25L90.51,253.84L98.85,253.03L100.04,253.03L108.38,252.41L109.57,252L113.14,251.39L114.33,251.39L128.62,250.78L129.82,250.57L139.34,249.96L140.53,249.76L160.78,249.14L161.97,248.94L166.73,248.33L167.93,247.92L179.84,247.3L181.03,246.69L184.6,246.49L185.79,245.87L197.7,245.26L198.89,244.65L202.46,242.6L203.65,242.6L206.04,242.19L207.23,241.58L208.42,241.58L209.61,239.95L211.99,239.54L213.18,239.54L214.37,237.29L215.56,237.08L216.76,236.47L217.95,234.63L220.33,234.02L221.52,234.02L222.71,232.38L223.9,229.32L227.47,222.17L228.67,222.17L229.86,222.17L231.05,219.71L232.24,219.71L233.43,218.28L234.62,217.26L235.81,213.38L238.19,213.38L239.38,210.92L241.77,207.65L242.96,206.43L244.15,203.16L245.34,203.16L246.53,203.16L247.72,201.52L250.1,197.84L251.29,197.64L252.48,196.41L253.68,196.41L258.44,195.8L259.63,194.37L262.01,193.76L263.2,193.76L264.39,189.47L265.58,189.06L269.16,181.29L270.35,181.29L272.73,181.29L273.92,179.45L276.3,178.22L277.49,178.22L279.88,178.22L281.07,177L283.45,174.96L284.64,173.32L285.83,171.89L287.02,171.89L289.4,171.69L290.6,170.46L291.79,167.8L292.98,167.19L295.36,166.37L296.55,166.37" style="vector-effect: non-scaling-stroke; fill: none; stroke: rgb(145, 30, 180); stroke-opacity: 1; stroke-width: 2px; opacity: 1;"/></g><g class="points"/><g class="text"/></g></g></g><g class="overplot"/><path class="xlines-above crisp" d="M0,0" style="fill: none;"/><path class="ylines-above crisp" d="M0,0" style="fill: none;"/><g class="overlines-above"/><g class="xaxislayer-above"><g class="x2tick"><text text-anchor="middle" x="0" y="383" transform="translate(488.90000000000003,0)" style="font-family: 'Open Sans', verdana, arial, sans-serif; font-size: 12px; fill: rgb(242, 245, 250); fill-opacity: 1; white-space: pre;">Mar 2020</text></g><g class="x2tick"><text text-anchor="middle" x="0" y="383" transform="translate(561.5500000000001,0)" style="font-family: 'Open Sans', verdana, arial, sans-serif; font-size: 12px; fill: rgb(242, 245, 250); fill-opacity: 1; white-space: pre;">May 2020</text></g><g class="x2tick"><text text-anchor="middle" x="0" y="383" transform="translate(634.2,0)" style="font-family: 'Open Sans', verdana, arial, sans-serif; font-size: 12px; fill: rgb(242, 245, 250); fill-opacity: 1; white-space: pre;">Jul 2020</text></g><g class="x2tick"><text text-anchor="middle" x="0" y="383" transform="translate(708.03,0)" style="font-family: 'Open Sans', verdana, arial, sans-serif; font-size: 12px; fill: rgb(242, 245, 250); fill-opacity: 1; white-space: pre;">Sep 2020</text></g></g><g class="yaxislayer-above"><g class="y2tick"><text text-anchor="end" x="441.45000000000005" y="4.199999999999999" transform="translate(0,356.5)" style="font-family: 'Open Sans', verdana, arial, sans-serif; font-size: 12px; fill: rgb(242, 245, 250); fill-opacity: 1; white-space: pre;">0</text></g><g class="y2tick"><text text-anchor="end" x="441.45000000000005" y="4.199999999999999" transform="translate(0,315.63)" style="font-family: 'Open Sans', verdana, arial, sans-serif; font-size: 12px; fill: rgb(242, 245, 250); fill-opacity: 1; white-space: pre;">200</text></g><g class="y2tick"><text text-anchor="end" x="441.45000000000005" y="4.199999999999999" transform="translate(0,274.75)" style="font-family: 'Open Sans', verdana, arial, sans-serif; font-size: 12px; fill: rgb(242, 245, 250); fill-opacity: 1; white-space: pre;">400</text></g><g class="y2tick"><text text-anchor="end" x="441.45000000000005" y="4.199999999999999" transform="translate(0,233.88)" style="font-family: 'Open Sans', verdana, arial, sans-serif; font-size: 12px; fill: rgb(242, 245, 250); fill-opacity: 1; white-space: pre;">600</text></g><g class="y2tick"><text text-anchor="end" x="441.45000000000005" y="4.199999999999999" transform="translate(0,193)" style="font-family: 'Open Sans', verdana, arial, sans-serif; font-size: 12px; fill: rgb(242, 245, 250); fill-opacity: 1; white-space: pre;">800</text></g><g class="y2tick"><text text-anchor="end" x="441.45000000000005" y="4.199999999999999" transform="translate(0,152.13)" style="font-family: 'Open Sans', verdana, arial, sans-serif; font-size: 12px; fill: rgb(242, 245, 250); fill-opacity: 1; white-space: pre;">1000</text></g><g class="y2tick"><text text-anchor="end" x="441.45000000000005" y="4.199999999999999" transform="translate(0,111.25)" style="font-family: 'Open Sans', verdana, arial, sans-serif; font-size: 12px; fill: rgb(242, 245, 250); fill-opacity: 1; white-space: pre;">1200</text></g></g><g class="overaxes-above"/></g></g><g class="polarlayer"/><g class="ternarylayer"/><g class="geolayer"/><g class="funnelarealayer"/><g class="pielayer"/><g class="treemaplayer"/><g class="sunburstlayer"/><g class="glimages"/><defs id="topdefs-36c370"><g class="clips"/><clipPath id="legend36c370"><rect width="136" height="124" x="0" y="0"/></clipPath></defs><g class="layer-above"><g class="imagelayer"/><g class="shapelayer"/></g><g class="infolayer"><g class="legend" pointer-events="all" transform="translate(752.1800000000001, 100)"><rect class="bg" shape-rendering="crispEdges" width="136" height="124" x="0" y="0" style="stroke: rgb(68, 68, 68); stroke-opacity: 1; fill: rgb(17, 17, 17); fill-opacity: 1; stroke-width: 0px;"/><g class="scrollbox" transform="translate(0, 0)" clip-path="url('#legend36c370')"><g class="groups"><g class="traces" transform="translate(0, 14.5)" style="opacity: 1;"><text class="legendtext user-select-none" text-anchor="start" x="40" y="4.680000000000001" style="font-family: 'Open Sans', verdana, arial, sans-serif; font-size: 12px; fill: rgb(242, 245, 250); fill-opacity: 1; white-space: pre;">Alameda, CA</text><g class="layers" style="opacity: 1;"><g class="legendfill"/><g class="legendlines"><path class="js-line" d="M5,0h30" style="fill: none; stroke: rgb(230, 25, 75); stroke-opacity: 1; stroke-width: 2px;"/></g><g class="legendsymbols"><g class="legendpoints"/></g></g><rect class="legendtoggle" pointer-events="all" x="0" y="-9.5" width="130.0625" height="19" style="cursor: pointer; fill: rgb(0, 0, 0); fill-opacity: 0;"/></g><g class="traces" transform="translate(0, 33.5)" style="opacity: 1;"><text class="legendtext user-select-none" text-anchor="start" x="40" y="4.680000000000001" style="font-family: 'Open Sans', verdana, arial, sans-serif; font-size: 12px; fill: rgb(242, 245, 250); fill-opacity: 1; white-space: pre;">St Louis, MO</text><g class="layers" style="opacity: 1;"><g class="legendfill"/><g class="legendlines"><path class="js-line" d="M5,0h30" style="fill: none; stroke: rgb(60, 180, 75); stroke-opacity: 1; stroke-width: 2px;"/></g><g class="legendsymbols"><g class="legendpoints"/></g></g><rect class="legendtoggle" pointer-events="all" x="0" y="-9.5" width="130.0625" height="19" style="cursor: pointer; fill: rgb(0, 0, 0); fill-opacity: 0;"/></g><g class="traces" transform="translate(0, 52.5)" style="opacity: 1;"><text class="legendtext user-select-none" text-anchor="start" x="40" y="4.680000000000001" style="font-family: 'Open Sans', verdana, arial, sans-serif; font-size: 12px; fill: rgb(242, 245, 250); fill-opacity: 1; white-space: pre;">Cameron, TX</text><g class="layers" style="opacity: 1;"><g class="legendfill"/><g class="legendlines"><path class="js-line" d="M5,0h30" style="fill: none; stroke: rgb(255, 225, 25); stroke-opacity: 1; stroke-width: 2px;"/></g><g class="legendsymbols"><g class="legendpoints"/></g></g><rect class="legendtoggle" pointer-events="all" x="0" y="-9.5" width="130.0625" height="19" style="cursor: pointer; fill: rgb(0, 0, 0); fill-opacity: 0;"/></g><g class="traces" transform="translate(0, 71.5)" style="opacity: 1;"><text class="legendtext user-select-none" text-anchor="start" x="40" y="4.680000000000001" style="font-family: 'Open Sans', verdana, arial, sans-serif; font-size: 12px; fill: rgb(242, 245, 250); fill-opacity: 1; white-space: pre;">Sacramento, CA</text><g class="layers" style="opacity: 1;"><g class="legendfill"/><g class="legendlines"><path class="js-line" d="M5,0h30" style="fill: none; stroke: rgb(67, 99, 216); stroke-opacity: 1; stroke-width: 2px;"/></g><g class="legendsymbols"><g class="legendpoints"/></g></g><rect class="legendtoggle" pointer-events="all" x="0" y="-9.5" width="130.0625" height="19" style="cursor: pointer; fill: rgb(0, 0, 0); fill-opacity: 0;"/></g><g class="traces" transform="translate(0, 90.5)" style="opacity: 1;"><text class="legendtext user-select-none" text-anchor="start" x="40" y="4.680000000000001" style="font-family: 'Open Sans', verdana, arial, sans-serif; font-size: 12px; fill: rgb(242, 245, 250); fill-opacity: 1; white-space: pre;">Riverside, CA</text><g class="layers" style="opacity: 1;"><g class="legendfill"/><g class="legendlines"><path class="js-line" d="M5,0h30" style="fill: none; stroke: rgb(245, 130, 49); stroke-opacity: 1; stroke-width: 2px;"/></g><g class="legendsymbols"><g class="legendpoints"/></g></g><rect class="legendtoggle" pointer-events="all" x="0" y="-9.5" width="130.0625" height="19" style="cursor: pointer; fill: rgb(0, 0, 0); fill-opacity: 0;"/></g><g class="traces" transform="translate(0, 109.5)" style="opacity: 1;"><text class="legendtext user-select-none" text-anchor="start" x="40" y="4.680000000000001" style="font-family: 'Open Sans', verdana, arial, sans-serif; font-size: 12px; fill: rgb(242, 245, 250); fill-opacity: 1; white-space: pre;">San Joaquin, CA</text><g class="layers" style="opacity: 1;"><g class="legendfill"/><g class="legendlines"><path class="js-line" d="M5,0h30" style="fill: none; stroke: rgb(145, 30, 180); stroke-opacity: 1; stroke-width: 2px;"/></g><g class="legendsymbols"><g class="legendpoints"/></g></g><rect class="legendtoggle" pointer-events="all" x="0" y="-9.5" width="130.0625" height="19" style="cursor: pointer; fill: rgb(0, 0, 0); fill-opacity: 0;"/></g></g></g><rect class="scrollbar" rx="20" ry="3" width="0" height="0" x="0" y="0" style="fill: rgb(128, 139, 164); fill-opacity: 1;"/></g><g class="g-gtitle"/><g class="g-xtitle"><text class="xtitle" x="228.275" y="410.8" text-anchor="middle" style="font-family: 'Open Sans', verdana, arial, sans-serif; font-size: 14px; fill: rgb(242, 245, 250); opacity: 1; font-weight: normal; white-space: pre;">Date</text></g><g class="g-x2title"><text class="x2title" x="590.725" y="410.8" text-anchor="middle" style="font-family: 'Open Sans', verdana, arial, sans-serif; font-size: 14px; fill: rgb(242, 245, 250); opacity: 1; font-weight: normal; white-space: pre;">Date</text></g><g class="g-ytitle"><text class="ytitle" transform="rotate(-90,34.840625,235)" x="34.840625" y="235" text-anchor="middle" style="font-family: 'Open Sans', verdana, arial, sans-serif; font-size: 14px; fill: rgb(242, 245, 250); opacity: 1; font-weight: normal; white-space: pre;">Cases</text></g><g class="g-y2title"><text class="y2title" transform="rotate(-90,389.95,235)" x="389.95" y="235" text-anchor="middle" style="font-family: 'Open Sans', verdana, arial, sans-serif; font-size: 14px; fill: rgb(242, 245, 250); opacity: 1; font-weight: normal; white-space: pre;">Deaths</text></g><g class="annotation" data-index="0" style="opacity: 1;"><g class="annotation-text-g" transform="rotate(0,228.275,89.5)"><g class="cursor-pointer" transform="translate(204, 79)"><rect class="bg" x="0.5" y="0.5" width="48" height="20" style="stroke-width: 1px; stroke: rgb(0, 0, 0); stroke-opacity: 0; fill: rgb(0, 0, 0); fill-opacity: 0;"/><text class="annotation-text" text-anchor="middle" x="24.6875" y="16" style="font-family: 'Open Sans', verdana, arial, sans-serif; font-size: 16px; fill: rgb(242, 245, 250); fill-opacity: 1; white-space: pre;">Cases</text></g></g></g><g class="annotation" data-index="1" style="opacity: 1;"><g class="annotation-text-g" transform="rotate(0,590.725,89.5)"><g class="cursor-pointer" transform="translate(563, 79)"><rect class="bg" x="0.5" y="0.5" width="54" height="20" style="stroke-width: 1px; stroke: rgb(0, 0, 0); stroke-opacity: 0; fill: rgb(0, 0, 0); fill-opacity: 0;"/><text class="annotation-text" text-anchor="middle" x="27.359375" y="16" style="font-family: 'Open Sans', verdana, arial, sans-serif; font-size: 16px; fill: rgb(242, 245, 250); fill-opacity: 1; white-space: pre;">Deaths</text></g></g></g></g></svg>