<svg class="main-svg" xmlns="http://www.w3.org/2000/svg" xmlns:xlink="http://www.w3.org/1999/xlink" width="900" height="450" style="" viewBox="0 0 900 450"><rect x="0" y="0" width="900" height="450" style="fill: rgb(17, 17, 17); fill-opacity: 1;"/><defs id="defs-7cbe3b"><g class="clips"><clipPath id="clip7cbe3bxyplot" class="plotclip"><rect width="302.85" height="270"/></clipPath><clipPath id="clip7cbe3bx2y2plot" class="plotclip"><rect width="302.84999999999997" height="270"/></clipPath><clipPath class="axesclip" id="clip7cbe3bx"><rect x="80" y="0" width="302.85" height="450"/></clipPath><clipPath class="axesclip" id="clip7cbe3by"><rect x="0" y="100" width="900" height="270"/></clipPath><clipPath class="axesclip" id="clip7cbe3bxy"><rect x="80" y="100" width="302.85" height="270"/></clipPath><clipPath class="axesclip" id="clip7cbe3by2"><rect x="0" y="100" width="900" height="270"/></clipPath><clipPath class="axesclip" id="clip7cbe3bxy2"><rect x="80" y="100" width="302.85" height="270"/></clipPath><clipPath class="axesclip" id="clip7cbe3bx2"><rect x="450.15000000000003" y="0" width="302.84999999999997" height="450"/></clipPath><clipPath class="axesclip" id="clip7cbe3bx2y"><rect x="450.15000000000003" y="100" width="302.84999999999997" height="270"/></clipPath><clipPath class="axesclip" id="clip7cbe3bx2y2"><rect x="450.15000000000003" y="100" width="302.84999999999997" height="270"/></clipPath></g><g class="gradients"/></defs><g class="bglayer"/><g class="layer-below"><g class="imagelayer"/><g class="shapelayer"/></g><g class="cartesianlayer"><g class="subplot xy"><g class="layer-subplot"><g class="shapelayer"/><g class="imagelayer"/></g><g class="gridlayer"><g class="x"><path class="xgrid crisp" transform="translate(123.11,0)" d="M0,100v270" style="stroke: rgb(40, 52, 66); stroke-opacity: 1; stroke-width: 1px;"/><path class="xgrid crisp" transform="translate(190.53,0)" d="M0,100v270" style="stroke: rgb(40, 52, 66); stroke-opacity: 1; stroke-width: 1px;"/><path class="xgrid crisp" transform="translate(257.95,0)" d="M0,100v270" style="stroke: rgb(40, 52, 66); stroke-opacity: 1; stroke-width: 1px;"/><path class="xgrid crisp" transform="translate(326.48,0)" d="M0,100v270" style="stroke: rgb(40, 52, 66); stroke-opacity: 1; stroke-width: 1px;"/></g><g class="y"><path class="ygrid crisp" transform="translate(0,294.35)" d="M80,0h302.85" style="stroke: rgb(40, 52, 66); stroke-opacity: 1; stroke-width: 1px;"/><path class="ygrid crisp" transform="translate(0,232.2)" d="M80,0h302.85" style="stroke: rgb(40, 52, 66); stroke-opacity: 1; stroke-width: 1px;"/><path class="ygrid crisp" transform="translate(0,170.05)" d="M80,0h302.85" style="stroke: rgb(40, 52, 66); stroke-opacity: 1; stroke-width: 1px;"/><path class="ygrid crisp" transform="translate(0,107.91)" d="M80,0h302.85" style="stroke: rgb(40, 52, 66); stroke-opacity: 1; stroke-width: 1px;"/></g></g><g class="zerolinelayer"><path class="yzl zl crisp" transform="translate(0,356.5)" d="M80,0h302.85" style="stroke: rgb(40, 52, 66); stroke-opacity: 1; stroke-width: 2px;"/></g><path class="xlines-below"/><path class="ylines-below"/><g class="overlines-below"/><g class="xaxislayer-below"/><g class="yaxislayer-below"/><g class="overaxes-below"/><g class="plot" transform="translate(80, 100)" clip-path="url('#clip7cbe3bxyplot')"><g class="scatterlayer mlayer"><g class="trace scatter trace8d8489" style="stroke-miterlimit: 2; opacity: 1;"><g class="fills"/><g class="errorbars"/><g class="lines"><path class="js-line" d="M0,256.5L66.32,255.84L67.42,255.74L71.84,255.13L72.95,254.91L79.58,253.75L80.69,253.16L92.84,250.52L93.95,250.24L107.21,246.97L108.32,246.76L123.79,242.96L124.9,242.62L143.69,235.43L144.79,234.93L150.32,232.85L151.42,232.42L166.9,226.64L168,225.38L174.64,221.26L175.74,220.69L180.16,216.28L181.27,215.76L182.37,213.9L183.48,213.7L184.58,213.7L185.69,211.47L189,208.49L190.11,208.49L194.53,202.88L195.64,201.45L197.85,199.09L198.95,198.98L201.16,196.57L202.27,195.17L204.48,192.3L205.58,192.05L207.79,190.42L208.9,189.55L210.01,187.32L211.11,187.32L212.22,185.13L213.32,184.88L214.43,182.88L215.53,182.49L216.64,181.08L217.74,181.08L219.95,181.08L221.06,174.47L222.16,174.35L223.27,171.58L225.48,168.07L226.58,166.02L227.69,166.02L228.8,162.51L229.9,162.47L231.01,160.56L234.32,154.15L235.43,152.76L237.64,152.51L238.74,149.14L240.95,146.99L242.06,145.58L243.16,145.58L244.27,144.38L246.48,141.87L247.59,140.31L250.9,137.6L252.01,137.6L253.11,136.24L254.22,136.24L256.43,134.01L257.53,133.33L258.64,133.22L259.74,132.26L264.16,131.2L265.27,129.94L269.69,127.55L270.8,126.99L275.22,124.81L276.32,124.5L285.17,120.96L286.27,120.74L290.69,118.85L291.8,118.85L294.01,117.75L295.11,117.47L297.32,116.92L298.43,115.82L302.85,113.55" style="vector-effect: non-scaling-stroke; fill: none; stroke: rgb(230, 25, 75); stroke-opacity: 1; stroke-width: 2px; opacity: 1;"/></g><g class="points"/><g class="text"/></g><g class="trace scatter trace0b7073" style="stroke-miterlimit: 2; opacity: 1;"><g class="fills"/><g class="errorbars"/><g class="lines"><path class="js-line" d="M0,256.5L78.48,255.86L79.58,255.72L151.42,249.18L152.53,249L162.48,246.34L163.58,245.92L168,242.67L169.11,242.34L172.43,239.22L173.53,236.72L175.74,233.62L176.85,232.66L180.16,227.54L181.27,226.01L190.11,211.47L191.22,209.08L196.74,200.38L197.85,197.31L200.06,193.9L201.16,192.43L205.58,185.51L206.69,183.68L212.22,177.35L213.32,175.76L217.74,171.64L218.85,170.49L222.16,166.54L223.27,165.48L229.9,160.13L231.01,159.51L239.85,153.97L240.95,153.53L254.22,145.06L255.32,144.48L284.06,129.1L285.17,128.56L302.85,118.18" style="vector-effect: non-scaling-stroke; fill: none; stroke: rgb(60, 180, 75); stroke-opacity: 1; stroke-width: 2px; opacity: 1;"/></g><g class="points"/><g class="text"/></g><g class="trace scatter tracee53f76" style="stroke-miterlimit: 2; opacity: 1;"><g class="fills"/><g class="errorbars"/><g class="lines"><path class="js-line" d="M0,256.5L63,255.76L64.11,255.16L68.53,251.07L69.63,249.53L71.84,245.25L72.95,242.11L76.27,233.29L77.37,228.72L78.48,225L79.58,218.61L86.21,193.77L87.32,191L95.06,174.26L96.16,172.78L99.48,167.91L100.58,166.01L103.9,159.87L105,158.63L106.11,157.86L107.21,155.99L110.53,151.03L111.63,150.19L113.85,148.9L114.95,148.42L119.37,144.88L120.48,144.17L123.79,142.22L124.9,139.85L134.85,134.09L135.95,133.63L140.37,131.84L141.48,130.79L142.58,130.62L143.69,129.62L148.11,128.54L149.21,125.73L153.64,122.68L154.74,122.45L175.74,115.66L176.85,115.01L184.58,110.86L185.69,109.85L192.32,105.67L193.43,104.08L196.74,100.81L197.85,100.28L201.16,97.9L202.27,97.1L207.79,92.86L208.9,90.63L211.11,88.28L212.22,87.56L214.43,86.36L215.53,85.19L223.27,80.05L224.37,80.05L227.69,75.88L228.8,75.58L235.43,70.96L236.53,69.97L239.85,66.36L240.95,64.96L247.59,60.84L248.69,60.07L250.9,57.89L252.01,57.89L254.22,55.29L255.32,53.77L258.64,49.85L259.74,49.85L261.95,47.35L263.06,46.5L265.27,44.98L266.38,44.69L267.48,44.69L268.59,43.32L285.17,31.29L286.27,30.43L294.01,23.9L295.11,22.19L297.32,19.43L298.43,19.43L302.85,13.5" style="vector-effect: non-scaling-stroke; fill: none; stroke: rgb(255, 225, 25); stroke-opacity: 1; stroke-width: 2px; opacity: 1;"/></g><g class="points"/><g class="text"/></g><g class="trace scatter trace158958" style="stroke-miterlimit: 2; opacity: 1;"><g class="fills"/><g class="errorbars"/><g class="lines"><path class="js-line" d="M0,256.5L87.32,255.75L88.42,255.68L99.48,255.16L100.58,255.14L112.74,253.44L113.85,253.18L121.58,250.37L122.69,249.96L127.11,247.7L128.21,246.99L135.95,242.11L137.06,241.35L143.69,237.74L144.79,237.39L152.53,234.42L153.64,233.97L174.64,227.85L175.74,227.73L187.9,224.64L189,224.38L193.43,222.96L194.53,222.5L203.37,218.78L204.48,218.19L226.58,207.38L227.69,206.97L245.37,199.3L246.48,199.06L261.95,193.45L263.06,193.32L268.59,190.8L269.69,190.65L273.01,189.54L274.11,188.69L286.27,182.96L287.38,182.44L294.01,178.62L295.11,176.19L296.22,176.19L297.32,174.9L298.43,174.9L299.53,173.03L301.74,173.03L302.85,170.85" style="vector-effect: non-scaling-stroke; fill: none; stroke: rgb(67, 99, 216); stroke-opacity: 1; stroke-width: 2px; opacity: 1;"/></g><g class="points"/><g class="text"/></g><g class="trace scatter trace6b243b" style="stroke-miterlimit: 2; opacity: 1;"><g class="fills"/><g class="errorbars"/><g class="lines"><path class="js-line" d="M0,256.5L69.63,255.81L70.74,255.7L87.32,254.17L88.42,253.62L90.63,253.04L91.74,252.85L99.48,250.44L100.58,250.44L107.21,250.44L108.32,246.35L112.74,243.13L113.85,242.22L123.79,230.5L124.9,229.58L128.21,224.44L129.32,222.88L139.27,209.64L140.37,208.68L144.79,203.59L145.9,203.11L153.64,197.04L154.74,196.38L160.27,192.61L161.37,192.34L173.53,185.56L174.64,184.68L183.48,179.09L184.58,178.21L187.9,175.37L189,173.67L191.22,171.38L192.32,170.8L198.95,164.3L200.06,162.5L202.27,159.94L203.37,158.24L208.9,151.59L210.01,150.28L222.16,135.48L223.27,134.88L225.48,132.99L226.58,131.81L231.01,127.72L232.11,126.9L238.74,120.18L239.85,119.5L244.27,113.66L245.37,112.73L247.59,111.25L248.69,110.02L253.11,105.49L254.22,104.95L257.53,104.87L258.64,103.55L261.95,101.02L263.06,100.55L273.01,90.53L274.11,88.95L290.69,68.7L291.8,67.22L292.9,65.72L294.01,65.72L295.11,60.91L296.22,60.91L297.32,57.69L298.43,57.69L299.53,54.24L300.64,54.24L301.74,54.24L302.85,49.48" style="vector-effect: non-scaling-stroke; fill: none; stroke: rgb(245, 130, 49); stroke-opacity: 1; stroke-width: 2px; opacity: 1;"/></g><g class="points"/><g class="text"/></g><g class="trace scatter trace1d426a" style="stroke-miterlimit: 2; opacity: 1;"><g class="fills"/><g class="errorbars"/><g class="lines"><path class="js-line" d="M0,256.5L78.48,255.82L79.58,255.73L114.95,254.05L116.06,253.98L158.06,251.89L159.16,251.73L166.9,250.52L168,250.33L172.43,248.76L173.53,248.17L179.06,245.89L180.16,245.23L182.37,243.08L183.48,242.88L187.9,240.66L189,240.09L190.11,237.2L191.22,236.49L193.43,235.08L194.53,233.36L201.16,228.12L202.27,227.64L205.58,224.79L206.69,224.38L214.43,220.37L215.53,220.12L222.16,217.62L223.27,217.26L229.9,214.69L231.01,214.46L239.85,212.59L240.95,212.43L250.9,210.65L252.01,210.45L265.27,208.06L266.38,207.73L286.27,203.94L287.38,203.56L301.74,199.6L302.85,199.11" style="vector-effect: non-scaling-stroke; fill: none; stroke: rgb(145, 30, 180); stroke-opacity: 1; stroke-width: 2px; opacity: 1;"/></g><g class="points"/><g class="text"/></g></g></g><g class="overplot"/><path class="xlines-above crisp" d="M0,0" style="fill: none;"/><path class="ylines-above crisp" d="M0,0" style="fill: none;"/><g class="overlines-above"/><g class="xaxislayer-above"><g class="xtick"><text text-anchor="middle" x="0" y="383" transform="translate(123.11,0)" style="font-family: 'Open Sans', verdana, arial, sans-serif; font-size: 12px; fill: rgb(242, 245, 250); fill-opacity: 1; white-space: pre;">Mar 2020</text></g><g class="xtick"><text text-anchor="middle" x="0" y="383" transform="translate(190.53,0)" style="font-family: 'Open Sans', verdana, arial, sans-serif; font-size: 12px; fill: rgb(242, 245, 250); fill-opacity: 1; white-space: pre;">May 2020</text></g><g class="xtick"><text text-anchor="middle" x="0" y="383" transform="translate(257.95,0)" style="font-family: 'Open Sans', verdana, arial, sans-serif; font-size: 12px; fill: rgb(242, 245, 250); fill-opacity: 1; white-space: pre;">Jul 2020</text></g><g class="xtick"><text text-anchor="middle" x="0" y="383" transform="translate(326.48,0)" style="font-family: 'Open Sans', verdana, arial, sans-serif; font-size: 12px; fill: rgb(242, 245, 250); fill-opacity: 1; white-space: pre;">Sep 2020</text></g></g><g class="yaxislayer-above"><g class="ytick"><text text-anchor="end" x="79" y="4.199999999999999" transform="translate(0,356.5)" style="font-family: 'Open Sans', verdana, arial, sans-serif; font-size: 12px; fill: rgb(242, 245, 250); fill-opacity: 1; white-space: pre;">0</text></g><g class="ytick"><text text-anchor="end" x="79" y="4.199999999999999" transform="translate(0,294.35)" style="font-family: 'Open Sans', verdana, arial, sans-serif; font-size: 12px; fill: rgb(242, 245, 250); fill-opacity: 1; white-space: pre;">10k</text></g><g class="ytick"><text text-anchor="end" x="79" y="4.199999999999999" transform="translate(0,232.2)" style="font-family: 'Open Sans', verdana, arial, sans-serif; font-size: 12px; fill: rgb(242, 245, 250); fill-opacity: 1; white-space: pre;">20k</text></g><g class="ytick"><text text-anchor="end" x="79" y="4.199999999999999" transform="translate(0,170.05)" style="font-family: 'Open Sans', verdana, arial, sans-serif; font-size: 12px; fill: rgb(242, 245, 250); fill-opacity: 1; white-space: pre;">30k</text></g><g class="ytick"><text text-anchor="end" x="79" y="4.199999999999999" transform="translate(0,107.91)" style="font-family: 'Open Sans', verdana, arial, sans-serif; font-size: 12px; fill: rgb(242, 245, 250); fill-opacity: 1; white-space: pre;">40k</text></g></g><g class="overaxes-above"/></g><g class="subplot x2y2"><g class="layer-subplot"><g class="shapelayer"/><g class="imagelayer"/></g><g class="gridlayer"><g class="x2"><path class="x2grid crisp" transform="translate(493.26000000000005,0)" d="M0,100v270" style="stroke: rgb(40, 52, 66); stroke-opacity: 1; stroke-width: 1px;"/><path class="x2grid crisp" transform="translate(560.6800000000001,0)" d="M0,100v270" style="stroke: rgb(40, 52, 66); stroke-opacity: 1; stroke-width: 1px;"/><path class="x2grid crisp" transform="translate(628.1,0)" d="M0,100v270" style="stroke: rgb(40, 52, 66); stroke-opacity: 1; stroke-width: 1px;"/><path class="x2grid crisp" transform="translate(696.63,0)" d="M0,100v270" style="stroke: rgb(40, 52, 66); stroke-opacity: 1; stroke-width: 1px;"/></g><g class="y2"><path class="y2grid crisp" transform="translate(0,316.53)" d="M450.15000000000003,0h302.84999999999997" style="stroke: rgb(40, 52, 66); stroke-opacity: 1; stroke-width: 1px;"/><path class="y2grid crisp" transform="translate(0,276.57)" d="M450.15000000000003,0h302.84999999999997" style="stroke: rgb(40, 52, 66); stroke-opacity: 1; stroke-width: 1px;"/><path class="y2grid crisp" transform="translate(0,236.6)" d="M450.15000000000003,0h302.84999999999997" style="stroke: rgb(40, 52, 66); stroke-opacity: 1; stroke-width: 1px;"/><path class="y2grid crisp" transform="translate(0,196.63)" d="M450.15000000000003,0h302.84999999999997" style="stroke: rgb(40, 52, 66); stroke-opacity: 1; stroke-width: 1px;"/><path class="y2grid crisp" transform="translate(0,156.66)" d="M450.15000000000003,0h302.84999999999997" style="stroke: rgb(40, 52, 66); stroke-opacity: 1; stroke-width: 1px;"/><path class="y2grid crisp" transform="translate(0,116.7)" d="M450.15000000000003,0h302.84999999999997" style="stroke: rgb(40, 52, 66); stroke-opacity: 1; stroke-width: 1px;"/></g></g><g class="zerolinelayer"><path class="y2zl zl crisp" transform="translate(0,356.5)" d="M450.15000000000003,0h302.84999999999997" style="stroke: rgb(40, 52, 66); stroke-opacity: 1; stroke-width: 2px;"/></g><path class="xlines-below"/><path class="ylines-below"/><g class="overlines-below"/><g class="xaxislayer-below"/><g class="yaxislayer-below"/><g class="overaxes-below"/><g class="plot" transform="translate(450.15000000000003, 100)" clip-path="url('#clip7cbe3bx2y2plot')"><g class="scatterlayer mlayer"><g class="trace scatter trace1af84e" style="stroke-miterlimit: 2; opacity: 1;"><g class="fills"/><g class="errorbars"/><g class="lines"><path class="js-line" d="M0,256.5L78.48,255.78L79.58,255.54L88.42,254.82L89.53,254.66L91.74,254.66L92.84,253.62L98.37,253.14L99.48,253.06L119.37,250.82L120.48,250.82L124.9,250.19L126,249.95L170.21,246.75L171.32,246.27L182.37,245.31L183.48,245.31L191.22,244.67L192.32,244.35L210.01,241.95L211.11,241.95L213.32,241.39L214.43,241.39L218.85,241.07L219.95,241.07L222.16,240.11L223.27,240.11L226.58,238.99L227.69,238.99L243.16,236.76L244.27,235.96L246.48,235.96L247.59,234.6L248.69,232.92L249.8,232.84L255.32,232.28L256.43,232.28L257.53,230.92L258.64,230.92L263.06,228.04L264.16,227.32L267.48,226.6L268.59,226.6L270.8,224.93L271.9,224.77L274.11,224.05L275.22,224.05L278.53,223.57L279.64,222.93L285.17,222.37L286.27,222.05L301.74,221.73L302.85,220.05" style="vector-effect: non-scaling-stroke; fill: none; stroke: rgb(230, 25, 75); stroke-opacity: 1; stroke-width: 2px; opacity: 1;"/></g><g class="points"/><g class="text"/></g><g class="trace scatter trace87c07e" style="stroke-miterlimit: 2; opacity: 1;"><g class="fills"/><g class="errorbars"/><g class="lines"><path class="js-line" d="M0,256.5L90.63,255.86L91.74,255.7L106.11,255.06L107.21,254.9L119.37,253.86L120.48,253.86L128.21,253.14L129.32,253.06L140.37,252.18L141.48,252.1L149.21,251.38L150.32,251.22L172.43,249.55L173.53,249.15L182.37,248.11L183.48,247.39L185.69,246.75L186.79,246.35L191.22,245.23L192.32,244.43L200.06,241.63L201.16,240.51L207.79,238.91L208.9,236.44L211.11,235.08L212.22,235L214.43,234.84L215.53,233.64L217.74,232.2L218.85,232.2L221.06,231.56L222.16,231.4L226.58,228.28L227.69,227.88L229.9,227.72L231.01,225.57L237.64,223.97L238.74,223.01L253.11,219.01L254.22,219.01L256.43,217.89L257.53,217.89L261.95,217.01L263.06,216.77L266.38,215.97L267.48,215.97L270.8,215.41L271.9,214.93L275.22,214.21L276.32,214.29L286.27,213.18L287.38,212.62L296.22,210.3L297.32,209.98L302.85,209.1" style="vector-effect: non-scaling-stroke; fill: none; stroke: rgb(60, 180, 75); stroke-opacity: 1; stroke-width: 2px; opacity: 1;"/></g><g class="points"/><g class="text"/></g><g class="trace scatter trace629072" style="stroke-miterlimit: 2; opacity: 1;"><g class="fills"/><g class="errorbars"/><g class="lines"><path class="js-line" d="M0,256.5L67.42,255.86L68.53,255.46L74.05,252.02L75.16,249.87L82.9,228.84L84,224.37L86.21,216.21L87.32,207.82L89.53,200.23L90.63,200.23L93.95,178.08L95.06,173.05L96.16,170.97L97.27,167.05L98.37,164.74L99.48,154.34L100.58,151.07L101.69,144.91L102.79,141.15L103.9,131.8L105,130.2L106.11,126.85L109.42,114.06L110.53,112.46L111.63,105.9L112.74,105.18L118.27,94.39L119.37,90.08L121.58,88.24L122.69,85.44L127.11,79.69L128.21,79.61L129.32,78.57L130.42,74.65L131.53,73.93L132.64,71.61L133.74,70.81L134.85,67.94L138.16,67.22L139.27,64.18L140.37,63.86L141.48,62.66L143.69,59.78L144.79,59.62L148.11,57.3L149.21,47.63L151.42,46.43L152.53,46.03L153.64,44.59L154.74,44.43L156.95,43.56L158.06,43.16L164.69,42.2L165.79,41.72L170.21,41.24L171.32,40.6L174.64,39.88L175.74,39.8L179.06,38.44L180.16,38.44L183.48,38.28L184.58,37.4L187.9,36.84L189,36.04L194.53,35.08L195.64,34.76L197.85,34.2L198.95,34.2L208.9,33.32L210.01,32.84L215.53,31.96L216.64,31.96L218.85,30.77L219.95,30.77L225.48,30.05L226.58,29.89L239.85,27.57L240.95,26.93L254.22,24.93L255.32,22.37L257.53,21.49L258.64,21.41L263.06,20.77L264.16,20.61L268.59,19.97L269.69,19.65L274.11,18.54L275.22,18.54L280.74,17.42L281.85,17.1L288.48,16.38L289.59,16.22L294.01,15.82L295.11,15.34L300.64,14.7L301.74,14.22L302.85,13.5" style="vector-effect: non-scaling-stroke; fill: none; stroke: rgb(255, 225, 25); stroke-opacity: 1; stroke-width: 2px; opacity: 1;"/></g><g class="points"/><g class="text"/></g><g class="trace scatter traced8dbd8" style="stroke-miterlimit: 2; opacity: 1;"><g class="fills"/><g class="errorbars"/><g class="lines"><path class="js-line" d="M0,256.5L97.27,255.78L98.37,255.7L110.53,254.18L111.63,254.02L119.37,253.06L120.48,252.9L126,251.62L127.11,251.14L137.06,248.75L138.16,248.67L154.74,243.15L155.85,242.99L158.06,241.95L159.16,241.31L162.48,240.59L163.58,240.11L174.64,239.15L175.74,239.15L181.27,238.43L182.37,238.35L193.43,237.48L194.53,236.84L208.9,236.2L210.01,235.88L238.74,233.56L239.85,233.24L243.16,232.68L244.27,232.68L256.43,232.12L257.53,231.88L267.48,231.08L268.59,231.08L284.06,230.44L285.17,230.28L294.01,229.72L295.11,229.72L298.43,229.72L299.53,228.76L301.74,228.76L302.85,227.96" style="vector-effect: non-scaling-stroke; fill: none; stroke: rgb(67, 99, 216); stroke-opacity: 1; stroke-width: 2px; opacity: 1;"/></g><g class="points"/><g class="text"/></g><g class="trace scatter trace0cf83b" style="stroke-miterlimit: 2; opacity: 1;"><g class="fills"/><g class="errorbars"/><g class="lines"><path class="js-line" d="M0,256.5L78.48,255.94L79.58,255.54L85.11,255.06L86.21,254.5L92.84,252.82L93.95,252.34L99.48,248.91L100.58,247.47L102.79,245.47L103.9,244.11L106.11,241.47L107.21,241.07L122.69,223.57L123.79,222.45L126,220.61L127.11,220.21L131.53,217.73L132.64,216.37L134.85,214.61L135.95,213.82L138.16,212.62L139.27,211.34L142.58,208.06L143.69,207.5L145.9,206.38L147,205.9L150.32,203.18L151.42,202.46L166.9,196.79L168,196.79L180.16,193.75L181.27,193.75L206.69,192.47L207.79,192.47L210.01,191.75L211.11,191.51L239.85,186.72L240.95,186.4L256.43,184.88L257.53,184.48L284.06,181.04L285.17,181.04L295.11,180.16L296.22,180.16L298.43,180.16L299.53,179.28L301.74,179.28L302.85,178.08" style="vector-effect: non-scaling-stroke; fill: none; stroke: rgb(245, 130, 49); stroke-opacity: 1; stroke-width: 2px; opacity: 1;"/></g><g class="points"/><g class="text"/></g><g class="trace scatter tracecfa4e2" style="stroke-miterlimit: 2; opacity: 1;"><g class="fills"/><g class="errorbars"/><g class="lines"><path class="js-line" d="M0,256.5L85.11,255.86L86.21,255.7L93.95,255.14L95.06,254.74L110.53,252.98L111.63,252.74L118.27,252.18L119.37,251.94L131.53,251.3L132.64,251.14L139.27,250.43L140.37,250.35L153.64,249.63L154.74,249.47L173.53,248.83L174.64,248.83L196.74,248.51L197.85,248.03L218.85,246.11L219.95,245.47L222.16,244.75L223.27,243.55L228.8,242.67L229.9,242.67L233.22,242.11L234.32,242.11L238.74,241.55L239.85,241.23L243.16,240.35L244.27,240.35L247.59,239.63L248.69,239.55L252.01,239.23L253.11,239.23L256.43,238.51L257.53,238.04L274.11,236.2L275.22,236.2L281.85,235.48L282.95,235.4L286.27,234.84L287.38,234.28L294.01,233.24L295.11,232.44L298.43,231.64L299.53,231.64L302.85,230.36" style="vector-effect: non-scaling-stroke; fill: none; stroke: rgb(145, 30, 180); stroke-opacity: 1; stroke-width: 2px; opacity: 1;"/></g><g class="points"/><g class="text"/></g></g></g><g class="overplot"/><path class="xlines-above crisp" d="M0,0" style="fill: none;"/><path class="ylines-above crisp" d="M0,0" style="fill: none;"/><g class="overlines-above"/><g class="xaxislayer-above"><g class="x2tick"><text text-anchor="middle" x="0" y="383" transform="translate(493.26000000000005,0)" style="font-family: 'Open Sans', verdana, arial, sans-serif; font-size: 12px; fill: rgb(242, 245, 250); fill-opacity: 1; white-space: pre;">Mar 2020</text></g><g class="x2tick"><text text-anchor="middle" x="0" y="383" transform="translate(560.6800000000001,0)" style="font-family: 'Open Sans', verdana, arial, sans-serif; font-size: 12px; fill: rgb(242, 245, 250); fill-opacity: 1; white-space: pre;">May 2020</text></g><g class="x2tick"><text text-anchor="middle" x="0" y="383" transform="translate(628.1,0)" style="font-family: 'Open Sans', verdana, arial, sans-serif; font-size: 12px; fill: rgb(242, 245, 250); fill-opacity: 1; white-space: pre;">Jul 2020</text></g><g class="x2tick"><text text-anchor="middle" x="0" y="383" transform="translate(696.63,0)" style="font-family: 'Open Sans', verdana, arial, sans-serif; font-size: 12px; fill: rgb(242, 245, 250); fill-opacity: 1; white-space: pre;">Sep 2020</text></g></g><g class="yaxislayer-above"><g class="y2tick"><text text-anchor="end" x="449.15000000000003" y="4.199999999999999" transform="translate(0,356.5)" style="font-family: 'Open Sans', verdana, arial, sans-serif; font-size: 12px; fill: rgb(242, 245, 250); fill-opacity: 1; white-space: pre;">0</text></g><g class="y2tick"><text text-anchor="end" x="449.15000000000003" y="4.199999999999999" transform="translate(0,316.53)" style="font-family: 'Open Sans', verdana, arial, sans-serif; font-size: 12px; fill: rgb(242, 245, 250); fill-opacity: 1; white-space: pre;">500</text></g><g class="y2tick"><text text-anchor="end" x="449.15000000000003" y="4.199999999999999" transform="translate(0,276.57)" style="font-family: 'Open Sans', verdana, arial, sans-serif; font-size: 12px; fill: rgb(242, 245, 250); fill-opacity: 1; white-space: pre;">1000</text></g><g class="y2tick"><text text-anchor="end" x="449.15000000000003" y="4.199999999999999" transform="translate(0,236.6)" style="font-family: 'Open Sans', verdana, arial, sans-serif; font-size: 12px; fill: rgb(242, 245, 250); fill-opacity: 1; white-space: pre;">1500</text></g><g class="y2tick"><text text-anchor="end" x="449.15000000000003" y="4.199999999999999" transform="translate(0,196.63)" style="font-family: 'Open Sans', verdana, arial, sans-serif; font-size: 12px; fill: rgb(242, 245, 250); fill-opacity: 1; white-space: pre;">2000</text></g><g class="y2tick"><text text-anchor="end" x="449.15000000000003" y="4.199999999999999" transform="translate(0,156.66)" style="font-family: 'Open Sans', verdana, arial, sans-serif; font-size: 12px; fill: rgb(242, 245, 250); fill-opacity: 1; white-space: pre;">2500</text></g><g class="y2tick"><text text-anchor="end" x="449.15000000000003" y="4.199999999999999" transform="translate(0,116.7)" style="font-family: 'Open Sans', verdana, arial, sans-serif; font-size: 12px; fill: rgb(242, 245, 250); fill-opacity: 1; white-space: pre;">3000</text></g></g><g class="overaxes-above"/></g></g><g class="polarlayer"/><g class="ternarylayer"/><g class="geolayer"/><g class="funnelarealayer"/><g class="pielayer"/><g class="treemaplayer"/><g class="sunburstlayer"/><g class="glimages"/><defs id="topdefs-7cbe3b"><g class="clips"/><clipPath id="legend7cbe3b"><rect width="122" height="124" x="0" y="0"/></clipPath></defs><g class="layer-above"><g class="imagelayer"/><g class="shapelayer"/></g><g class="infolayer"><g class="legend" pointer-events="all" transform="translate(766.46, 100)"><rect class="bg" shape-rendering="crispEdges" width="122" height="124" x="0" y="0" style="stroke: rgb(68, 68, 68); stroke-opacity: 1; fill: rgb(17, 17, 17); fill-opacity: 1; stroke-width: 0px;"/><g class="scrollbox" transform="translate(0, 0)" clip-path="url('#legend7cbe3b')"><g class="groups"><g class="traces" transform="translate(0, 14.5)" style="opacity: 1;"><text class="legendtext user-select-none" text-anchor="start" x="40" y="4.680000000000001" style="font-family: 'Open Sans', verdana, arial, sans-serif; font-size: 12px; fill: rgb(242, 245, 250); fill-opacity: 1; white-space: pre;">Alameda, CA</text><g class="layers" style="opacity: 1;"><g class="legendfill"/><g class="legendlines"><path class="js-line" d="M5,0h30" style="fill: none; stroke: rgb(230, 25, 75); stroke-opacity: 1; stroke-width: 2px;"/></g><g class="legendsymbols"><g class="legendpoints"/></g></g><rect class="legendtoggle" pointer-events="all" x="0" y="-9.5" width="116.71875" height="19" style="cursor: pointer; fill: rgb(0, 0, 0); fill-opacity: 0;"/></g><g class="traces" transform="translate(0, 33.5)" style="opacity: 1;"><text class="legendtext user-select-none" text-anchor="start" x="40" y="4.680000000000001" style="font-family: 'Open Sans', verdana, arial, sans-serif; font-size: 12px; fill: rgb(242, 245, 250); fill-opacity: 1; white-space: pre;">Polk, FL</text><g class="layers" style="opacity: 1;"><g class="legendfill"/><g class="legendlines"><path class="js-line" d="M5,0h30" style="fill: none; stroke: rgb(60, 180, 75); stroke-opacity: 1; stroke-width: 2px;"/></g><g class="legendsymbols"><g class="legendpoints"/></g></g><rect class="legendtoggle" pointer-events="all" x="0" y="-9.5" width="116.71875" height="19" style="cursor: pointer; fill: rgb(0, 0, 0); fill-opacity: 0;"/></g><g class="traces" transform="translate(0, 52.5)" style="opacity: 1;"><text class="legendtext user-select-none" text-anchor="start" x="40" y="4.680000000000001" style="font-family: 'Open Sans', verdana, arial, sans-serif; font-size: 12px; fill: rgb(242, 245, 250); fill-opacity: 1; white-space: pre;">Wayne, MI</text><g class="layers" style="opacity: 1;"><g class="legendfill"/><g class="legendlines"><path class="js-line" d="M5,0h30" style="fill: none; stroke: rgb(255, 225, 25); stroke-opacity: 1; stroke-width: 2px;"/></g><g class="legendsymbols"><g class="legendpoints"/></g></g><rect class="legendtoggle" pointer-events="all" x="0" y="-9.5" width="116.71875" height="19" style="cursor: pointer; fill: rgb(0, 0, 0); fill-opacity: 0;"/></g><g class="traces" transform="translate(0, 71.5)" style="opacity: 1;"><text class="legendtext user-select-none" text-anchor="start" x="40" y="4.680000000000001" style="font-family: 'Open Sans', verdana, arial, sans-serif; font-size: 12px; fill: rgb(242, 245, 250); fill-opacity: 1; white-space: pre;">Ramsey, MN</text><g class="layers" style="opacity: 1;"><g class="legendfill"/><g class="legendlines"><path class="js-line" d="M5,0h30" style="fill: none; stroke: rgb(67, 99, 216); stroke-opacity: 1; stroke-width: 2px;"/></g><g class="legendsymbols"><g class="legendpoints"/></g></g><rect class="legendtoggle" pointer-events="all" x="0" y="-9.5" width="116.71875" height="19" style="cursor: pointer; fill: rgb(0, 0, 0); fill-opacity: 0;"/></g><g class="traces" transform="translate(0, 90.5)" style="opacity: 1;"><text class="legendtext user-select-none" text-anchor="start" x="40" y="4.680000000000001" style="font-family: 'Open Sans', verdana, arial, sans-serif; font-size: 12px; fill: rgb(242, 245, 250); fill-opacity: 1; white-space: pre;">Hennepin, MN</text><g class="layers" style="opacity: 1;"><g class="legendfill"/><g class="legendlines"><path class="js-line" d="M5,0h30" style="fill: none; stroke: rgb(245, 130, 49); stroke-opacity: 1; stroke-width: 2px;"/></g><g class="legendsymbols"><g class="legendpoints"/></g></g><rect class="legendtoggle" pointer-events="all" x="0" y="-9.5" width="116.71875" height="19" style="cursor: pointer; fill: rgb(0, 0, 0); fill-opacity: 0;"/></g><g class="traces" transform="translate(0, 109.5)" style="opacity: 1;"><text class="legendtext user-select-none" text-anchor="start" x="40" y="4.680000000000001" style="font-family: 'Open Sans', verdana, arial, sans-serif; font-size: 12px; fill: rgb(242, 245, 250); fill-opacity: 1; white-space: pre;">Sarasota, FL</text><g class="layers" style="opacity: 1;"><g class="legendfill"/><g class="legendlines"><path class="js-line" d="M5,0h30" style="fill: none; stroke: rgb(145, 30, 180); stroke-opacity: 1; stroke-width: 2px;"/></g><g class="legendsymbols"><g class="legendpoints"/></g></g><rect class="legendtoggle" pointer-events="all" x="0" y="-9.5" width="116.71875" height="19" style="cursor: pointer; fill: rgb(0, 0, 0); fill-opacity: 0;"/></g></g></g><rect class="scrollbar" rx="20" ry="3" width="0" height="0" x="0" y="0" style="fill: rgb(128, 139, 164); fill-opacity: 1;"/></g><g class="g-gtitle"/><g class="g-xtitle"><text class="xtitle" x="231.425" y="410.8" text-anchor="middle" style="font-family: 'Open Sans', verdana, arial, sans-serif; font-size: 14px; fill: rgb(242, 245, 250); opacity: 1; font-weight: normal; white-space: pre;">Date</text></g><g class="g-x2title"><text class="x2title" x="601.575" y="410.8" text-anchor="middle" style="font-family: 'Open Sans', verdana, arial, sans-serif; font-size: 14px; fill: rgb(242, 245, 250); opacity: 1; font-weight: normal; white-space: pre;">Date</text></g><g class="g-ytitle"><text class="ytitle" transform="rotate(-90,34.840625,235)" x="34.840625" y="235" text-anchor="middle" style="font-family: 'Open Sans', verdana, arial, sans-serif; font-size: 14px; fill: rgb(242, 245, 250); opacity: 1; font-weight: normal; white-space: pre;">Cases</text></g><g class="g-y2title"><text class="y2title" transform="rotate(-90,397.653125,235)" x="397.653125" y="235" text-anchor="middle" style="font-family: 'Open Sans', verdana, arial, sans-serif; font-size: 14px; fill: rgb(242, 245, 250); opacity: 1; font-weight: normal; white-space: pre;">Deaths</text></g><g class="annotation" data-index="0" style="opacity: 1;"><g class="annotation-text-g" transform="rotate(0,231.425,89.5)"><g class="cursor-pointer" transform="translate(207, 79)"><rect class="bg" x="0.5" y="0.5" width="48" height="20" style="stroke-width: 1px; stroke: rgb(0, 0, 0); stroke-opacity: 0; fill: rgb(0, 0, 0); fill-opacity: 0;"/><text class="annotation-text" text-anchor="middle" x="24.6875" y="16" style="font-family: 'Open Sans', verdana, arial, sans-serif; font-size: 16px; fill: rgb(242, 245, 250); fill-opacity: 1; white-space: pre;">Cases</text></g></g></g><g class="annotation" data-index="1" style="opacity: 1;"><g class="annotation-text-g" transform="rotate(0,601.575,89.5)"><g class="cursor-pointer" transform="translate(574, 79)"><rect class="bg" x="0.5" y="0.5" width="54" height="20" style="stroke-width: 1px; stroke: rgb(0, 0, 0); stroke-opacity: 0; fill: rgb(0, 0, 0); fill-opacity: 0;"/><text class="annotation-text" text-anchor="middle" x="27.359375" y="16" style="font-family: 'Open Sans', verdana, arial, sans-serif; font-size: 16px; fill: rgb(242, 245, 250); fill-opacity: 1; white-space: pre;">Deaths</text></g></g></g></g></svg>