<svg class="main-svg" xmlns="http://www.w3.org/2000/svg" xmlns:xlink="http://www.w3.org/1999/xlink" width="900" height="450" style="" viewBox="0 0 900 450"><rect x="0" y="0" width="900" height="450" style="fill: rgb(17, 17, 17); fill-opacity: 1;"/><defs id="defs-8d625f"><g class="clips"><clipPath id="clip8d625fxyplot" class="plotclip"><rect width="298.35" height="270"/></clipPath><clipPath id="clip8d625fx2y2plot" class="plotclip"><rect width="298.34999999999997" height="270"/></clipPath><clipPath class="axesclip" id="clip8d625fx"><rect x="80" y="0" width="298.35" height="450"/></clipPath><clipPath class="axesclip" id="clip8d625fy"><rect x="0" y="100" width="900" height="270"/></clipPath><clipPath class="axesclip" id="clip8d625fxy"><rect x="80" y="100" width="298.35" height="270"/></clipPath><clipPath class="axesclip" id="clip8d625fy2"><rect x="0" y="100" width="900" height="270"/></clipPath><clipPath class="axesclip" id="clip8d625fxy2"><rect x="80" y="100" width="298.35" height="270"/></clipPath><clipPath class="axesclip" id="clip8d625fx2"><rect x="444.65000000000003" y="0" width="298.34999999999997" height="450"/></clipPath><clipPath class="axesclip" id="clip8d625fx2y"><rect x="444.65000000000003" y="100" width="298.34999999999997" height="270"/></clipPath><clipPath class="axesclip" id="clip8d625fx2y2"><rect x="444.65000000000003" y="100" width="298.34999999999997" height="270"/></clipPath></g><g class="gradients"/></defs><g class="bglayer"/><g class="layer-below"><g class="imagelayer"/><g class="shapelayer"/></g><g class="cartesianlayer"><g class="subplot xy"><g class="layer-subplot"><g class="shapelayer"/><g class="imagelayer"/></g><g class="gridlayer"><g class="x"><path class="xgrid crisp" transform="translate(147.81,0)" d="M0,100v270" style="stroke: rgb(40, 52, 66); stroke-opacity: 1; stroke-width: 1px;"/><path class="xgrid crisp" transform="translate(235.96,0)" d="M0,100v270" style="stroke: rgb(40, 52, 66); stroke-opacity: 1; stroke-width: 1px;"/><path class="xgrid crisp" transform="translate(325.07,0)" d="M0,100v270" style="stroke: rgb(40, 52, 66); stroke-opacity: 1; stroke-width: 1px;"/></g><g class="y"><path class="ygrid crisp" transform="translate(0,313.45)" d="M80,0h298.35" style="stroke: rgb(40, 52, 66); stroke-opacity: 1; stroke-width: 1px;"/><path class="ygrid crisp" transform="translate(0,270.40999999999997)" d="M80,0h298.35" style="stroke: rgb(40, 52, 66); stroke-opacity: 1; stroke-width: 1px;"/><path class="ygrid crisp" transform="translate(0,227.36)" d="M80,0h298.35" style="stroke: rgb(40, 52, 66); stroke-opacity: 1; stroke-width: 1px;"/><path class="ygrid crisp" transform="translate(0,184.31)" d="M80,0h298.35" style="stroke: rgb(40, 52, 66); stroke-opacity: 1; stroke-width: 1px;"/><path class="ygrid crisp" transform="translate(0,141.27)" d="M80,0h298.35" style="stroke: rgb(40, 52, 66); stroke-opacity: 1; stroke-width: 1px;"/></g></g><g class="zerolinelayer"><path class="yzl zl crisp" transform="translate(0,356.5)" d="M80,0h298.35" style="stroke: rgb(40, 52, 66); stroke-opacity: 1; stroke-width: 2px;"/></g><path class="xlines-below"/><path class="ylines-below"/><g class="overlines-below"/><g class="xaxislayer-below"/><g class="yaxislayer-below"/><g class="overaxes-below"/><g class="plot" transform="translate(80, 100)" clip-path="url('#clip8d625fxyplot')"><g class="scatterlayer mlayer"><g class="trace scatter tracedd7e93" style="stroke-miterlimit: 2; opacity: 1;"><g class="fills"/><g class="errorbars"/><g class="lines"><path class="js-line" d="M0,256.5L57.15,255.94L58.12,255.59L66.84,253.81L67.81,253.41L82.34,247.83L83.31,247.37L92.02,243.86L92.99,243.6L103.65,239.62L104.62,239.08L113.33,235.35L114.3,234.79L118.18,232.68L119.15,231.99L121.08,230.79L122.05,230.25L123.99,228.99L124.96,228.18L127.86,226.24L128.83,225.95L133.68,222.54L134.64,222.19L138.52,219.74L139.49,219.31L142.39,217.47L143.36,216.57L146.27,215.13L147.24,213.39L153.05,207.68L154.02,206.89L157.89,200.78L158.86,200.06L159.83,197.48L160.8,197.21L161.77,197.21L162.74,194.12L165.64,189.99L166.61,189.99L170.49,182.23L171.45,180.24L173.39,176.98L174.36,176.81L175.33,175.72L176.3,173.48L179.2,167.57L180.17,167.22L181.14,166.64L182.11,164.96L183.08,163.75L184.05,160.67L185.02,160.67L185.98,157.63L186.95,157.29L187.92,154.51L188.89,153.97L189.86,152.02L192.77,152.02L193.73,142.86L194.7,142.7L195.67,138.86L197.61,134L198.58,131.16L199.55,131.16L200.51,126.3L201.48,126.24L202.45,123.6L205.36,114.71L206.33,112.78L208.26,112.44L209.23,107.77L210.2,106.83L211.17,104.79L212.14,102.85L213.11,102.85L219.89,91.79L220.86,91.79L221.83,89.91L222.79,89.91L224.73,86.81L225.7,85.87L226.67,85.72L227.64,84.39L231.51,82.92L232.48,81.18L235.39,78.79L236.36,77.87L243.14,72.92L244.1,72.41L251.85,67.63L252.82,67.59L254.76,65.81L255.73,65.81L257.67,64.3L258.63,63.91L260.57,63.14L261.54,61.62L269.29,55.12L270.26,55.12L272.2,53.01L273.16,51.81L279.95,46.28L280.91,44.16L284.79,39.12L285.76,37.82L289.63,32.25L290.6,28.7L292.54,24.67L293.51,22.13L295.44,19.87L296.41,18.69L298.35,13.5" style="vector-effect: non-scaling-stroke; fill: none; stroke: rgb(230, 25, 75); stroke-opacity: 1; stroke-width: 2px; opacity: 1;"/></g><g class="points"/><g class="text"/></g><g class="trace scatter traceb0ff7c" style="stroke-miterlimit: 2; opacity: 1;"><g class="fills"/><g class="errorbars"/><g class="lines"><path class="js-line" d="M0,256.5L191.8,255.77L192.77,255.73L243.14,254.18L244.1,254.09L259.6,251.89L260.57,251.58L264.45,251.08L265.42,250.53L275.1,248.44L276.07,248.11L278.98,247.59L279.95,247.25L286.73,245.34L287.69,244.58L291.57,243.53L292.54,240.47L298.35,237.6" style="vector-effect: non-scaling-stroke; fill: none; stroke: rgb(60, 180, 75); stroke-opacity: 1; stroke-width: 2px; opacity: 1;"/></g><g class="points"/><g class="text"/></g><g class="trace scatter trace788ac8" style="stroke-miterlimit: 2; opacity: 1;"><g class="fills"/><g class="errorbars"/><g class="lines"><path class="js-line" d="M0,256.5L97.84,255.75L98.8,255.73L116.24,254.95L117.21,254.67L124.96,252.61L125.93,252.12L130.77,249.41L131.74,248.64L136.58,244.54L137.55,242.68L143.36,238.07L144.33,237.37L150.14,231.7L151.11,229.47L162.74,219.77L163.71,219.4L165.64,218.14L166.61,217.53L171.45,214.2L172.42,212.95L182.11,206.71L183.08,206.46L194.7,202.17L195.67,202.08L207.3,199.59L208.26,199.55L212.14,198.69L213.11,197.53L216.98,196.31L217.95,194.49L219.89,191.27L220.86,190.73L224.73,189.16L225.7,188.18L226.67,188.18L227.64,185.8L228.61,185.52L229.57,184.35L234.42,179.45L235.39,178.96L240.23,175.75L241.2,175.44L243.14,174.29L244.1,173.46L247.01,171.47L247.98,171.28L251.85,168.93L252.82,168L261.54,163.08L262.51,162.75L267.35,159.23L268.32,158.83L272.2,156.49L273.16,155.62L282.85,147.98L283.82,146.9L294.48,132.47L295.44,131.08L297.38,128.53L298.35,127.15" style="vector-effect: non-scaling-stroke; fill: none; stroke: rgb(255, 225, 25); stroke-opacity: 1; stroke-width: 2px; opacity: 1;"/></g><g class="points"/><g class="text"/></g><g class="trace scatter trace8f0112" style="stroke-miterlimit: 2; opacity: 1;"><g class="fills"/><g class="errorbars"/><g class="lines"><path class="js-line" d="M0,256.5L71.68,255.76L72.65,255.66L94.93,254.3L95.9,254.27L108.49,254.11L109.46,254.09L153.05,252.41L154.02,252.26L160.8,251.01L161.77,250.57L171.45,248.75L172.42,247.74L175.33,246.32L176.3,244.72L178.24,243.75L179.2,243.14L182.11,242.4L183.08,241.24L193.73,236.91L194.7,236.8L203.42,234.17L204.39,233.69L212.14,231.26L213.11,231.14L218.92,229.59L219.89,229.41L237.32,226.97L238.29,226.75L250.89,223.08L251.85,222.78L265.42,217.73L266.38,217.09L268.32,216.71L269.29,216.1L272.2,214.17L273.16,213.97L276.07,213.25L277.04,212.79L280.91,210.1L281.88,209.69L282.85,209.69L283.82,208.91L285.76,208.57L286.73,207.94L289.63,206.88L290.6,206.69L298.35,203.31" style="vector-effect: non-scaling-stroke; fill: none; stroke: rgb(67, 99, 216); stroke-opacity: 1; stroke-width: 2px; opacity: 1;"/></g><g class="points"/><g class="text"/></g><g class="trace scatter tracefae720" style="stroke-miterlimit: 2; opacity: 1;"><g class="fills"/><g class="errorbars"/><g class="lines"><path class="js-line" d="M0,256.5L67.81,256.03L68.78,255.66L74.59,254.7L75.56,254.49L120.11,251L121.08,250.98L150.14,248.89L151.11,248.48L154.02,247.8L154.99,247.63L163.71,244.32L164.67,243.28L180.17,235.38L181.14,234.81L185.98,233.31L186.95,232.56L190.83,231.18L191.8,230.79L195.67,230.05L196.64,229.85L207.3,228.44L208.26,228.44L215.04,227.72L216.01,227.68L228.61,226.26L229.57,226.26L242.17,225.23L243.14,225.23L251.85,224.51L252.82,224.51L262.51,223.76L263.48,223.62L276.07,222.92L277.04,222.91L284.79,222.3L285.76,222.05L289.63,221.8L290.6,221.8L294.48,219.45L295.44,218.95L298.35,218.51" style="vector-effect: non-scaling-stroke; fill: none; stroke: rgb(245, 130, 49); stroke-opacity: 1; stroke-width: 2px; opacity: 1;"/></g><g class="points"/><g class="text"/></g><g class="trace scatter trace0528d7" style="stroke-miterlimit: 2; opacity: 1;"><g class="fills"/><g class="errorbars"/><g class="lines"><path class="js-line" d="M0,256.5L141.43,255.75L142.39,255.74L168.55,254.78L169.52,254.72L184.05,253.71L185.02,253.59L200.51,252.86L201.48,252.81L239.26,252.11L240.23,252.05L255.73,251.09L256.7,250.96L269.29,249.19L270.26,249.05L277.04,247.68L278.01,247.09L298.35,239.4" style="vector-effect: non-scaling-stroke; fill: none; stroke: rgb(145, 30, 180); stroke-opacity: 1; stroke-width: 2px; opacity: 1;"/></g><g class="points"/><g class="text"/></g></g></g><g class="overplot"/><path class="xlines-above crisp" d="M0,0" style="fill: none;"/><path class="ylines-above crisp" d="M0,0" style="fill: none;"/><g class="overlines-above"/><g class="xaxislayer-above"><g class="xtick"><text text-anchor="middle" x="0" y="383" transform="translate(147.81,0)" style="font-family: 'Open Sans', verdana, arial, sans-serif; font-size: 12px; fill: rgb(242, 245, 250); fill-opacity: 1; white-space: pre;">Apr 2020</text></g><g class="xtick"><text text-anchor="middle" x="0" y="383" transform="translate(235.96,0)" style="font-family: 'Open Sans', verdana, arial, sans-serif; font-size: 12px; fill: rgb(242, 245, 250); fill-opacity: 1; white-space: pre;">Jul 2020</text></g><g class="xtick"><text text-anchor="middle" x="0" y="383" transform="translate(325.07,0)" style="font-family: 'Open Sans', verdana, arial, sans-serif; font-size: 12px; fill: rgb(242, 245, 250); fill-opacity: 1; white-space: pre;">Oct 2020</text></g></g><g class="yaxislayer-above"><g class="ytick"><text text-anchor="end" x="79" y="4.199999999999999" transform="translate(0,356.5)" style="font-family: 'Open Sans', verdana, arial, sans-serif; font-size: 12px; fill: rgb(242, 245, 250); fill-opacity: 1; white-space: pre;">0</text></g><g class="ytick"><text text-anchor="end" x="79" y="4.199999999999999" transform="translate(0,313.45)" style="font-family: 'Open Sans', verdana, arial, sans-serif; font-size: 12px; fill: rgb(242, 245, 250); fill-opacity: 1; white-space: pre;">5k</text></g><g class="ytick"><text text-anchor="end" x="79" y="4.199999999999999" transform="translate(0,270.40999999999997)" style="font-family: 'Open Sans', verdana, arial, sans-serif; font-size: 12px; fill: rgb(242, 245, 250); fill-opacity: 1; white-space: pre;">10k</text></g><g class="ytick"><text text-anchor="end" x="79" y="4.199999999999999" transform="translate(0,227.36)" style="font-family: 'Open Sans', verdana, arial, sans-serif; font-size: 12px; fill: rgb(242, 245, 250); fill-opacity: 1; white-space: pre;">15k</text></g><g class="ytick"><text text-anchor="end" x="79" y="4.199999999999999" transform="translate(0,184.31)" style="font-family: 'Open Sans', verdana, arial, sans-serif; font-size: 12px; fill: rgb(242, 245, 250); fill-opacity: 1; white-space: pre;">20k</text></g><g class="ytick"><text text-anchor="end" x="79" y="4.199999999999999" transform="translate(0,141.27)" style="font-family: 'Open Sans', verdana, arial, sans-serif; font-size: 12px; fill: rgb(242, 245, 250); fill-opacity: 1; white-space: pre;">25k</text></g></g><g class="overaxes-above"/></g><g class="subplot x2y2"><g class="layer-subplot"><g class="shapelayer"/><g class="imagelayer"/></g><g class="gridlayer"><g class="x2"><path class="x2grid crisp" transform="translate(512.46,0)" d="M0,100v270" style="stroke: rgb(40, 52, 66); stroke-opacity: 1; stroke-width: 1px;"/><path class="x2grid crisp" transform="translate(600.61,0)" d="M0,100v270" style="stroke: rgb(40, 52, 66); stroke-opacity: 1; stroke-width: 1px;"/><path class="x2grid crisp" transform="translate(689.72,0)" d="M0,100v270" style="stroke: rgb(40, 52, 66); stroke-opacity: 1; stroke-width: 1px;"/></g><g class="y2"><path class="y2grid crisp" transform="translate(0,308.09000000000003)" d="M444.65000000000003,0h298.34999999999997" style="stroke: rgb(40, 52, 66); stroke-opacity: 1; stroke-width: 1px;"/><path class="y2grid crisp" transform="translate(0,259.69)" d="M444.65000000000003,0h298.34999999999997" style="stroke: rgb(40, 52, 66); stroke-opacity: 1; stroke-width: 1px;"/><path class="y2grid crisp" transform="translate(0,211.28)" d="M444.65000000000003,0h298.34999999999997" style="stroke: rgb(40, 52, 66); stroke-opacity: 1; stroke-width: 1px;"/><path class="y2grid crisp" transform="translate(0,162.87)" d="M444.65000000000003,0h298.34999999999997" style="stroke: rgb(40, 52, 66); stroke-opacity: 1; stroke-width: 1px;"/><path class="y2grid crisp" transform="translate(0,114.47)" d="M444.65000000000003,0h298.34999999999997" style="stroke: rgb(40, 52, 66); stroke-opacity: 1; stroke-width: 1px;"/></g></g><g class="zerolinelayer"><path class="y2zl zl crisp" transform="translate(0,356.5)" d="M444.65000000000003,0h298.34999999999997" style="stroke: rgb(40, 52, 66); stroke-opacity: 1; stroke-width: 2px;"/></g><path class="xlines-below"/><path class="ylines-below"/><g class="overlines-below"/><g class="xaxislayer-below"/><g class="yaxislayer-below"/><g class="overaxes-below"/><g class="plot" transform="translate(444.65000000000003, 100)" clip-path="url('#clip8d625fx2y2plot')"><g class="scatterlayer mlayer"><g class="trace scatter tracef83ba4" style="stroke-miterlimit: 2; opacity: 1;"><g class="fills"/><g class="errorbars"/><g class="lines"><path class="js-line" d="M0,256.5L59.09,256.02L60.06,255.53L61.03,255.53L61.99,254.56L62.96,254.56L63.93,253.6L65.87,253.11L66.84,253.11L68.78,252.14L69.74,250.69L72.65,250.21L73.62,249.24L75.56,248.27L76.52,246.82L79.43,245.37L80.4,245.37L82.34,237.62L83.31,237.62L85.24,236.17L86.21,236.17L89.12,234.23L90.09,233.26L91.05,231.33L92.02,231.33L92.99,231.33L93.96,229.88L97.84,226L98.8,226L99.77,226L100.74,224.55L102.68,224.07L103.65,222.62L105.58,222.13L106.55,222.13L110.43,216.81L111.4,216.32L113.33,216.32L114.3,214.87L118.18,211.97L119.15,211.48L123.02,211L123.99,210.51L126.9,210.03L127.86,209.55L129.8,209.55L130.77,207.61L134.64,207.13L135.61,205.67L137.55,203.74L138.52,203.74L139.49,202.28L140.46,202.28L141.43,202.28L142.39,200.35L145.3,199.38L146.27,199.38L149.17,197.44L150.14,194.54L153.05,192.12L154.02,192.12L157.89,188.73L158.86,188.73L161.77,188.73L162.74,187.76L164.67,185.34L165.64,184.86L167.58,184.86L168.55,182.92L170.49,181.95L171.45,178.57L173.39,178.08L174.36,178.08L178.24,170.34L179.2,170.34L181.14,170.34L182.11,168.88L185.02,168.4L185.98,165.01L187.92,165.01L188.89,163.56L190.83,163.08L191.8,163.08L192.77,163.08L193.73,157.27L195.67,157.27L196.64,153.88L198.58,150.49L199.55,150.49L202.45,148.07L203.42,146.13L205.36,143.71L206.33,143.71L208.26,143.23L209.23,140.32L212.14,136.94L213.11,136.94L214.08,132.1L215.04,132.1L216.01,132.1L216.98,123.87L217.95,113.7L218.92,113.22L219.89,111.76L220.86,111.76L222.79,111.28L223.76,109.83L224.73,109.83L225.7,101.6L226.67,101.6L227.64,95.79L228.61,95.31L229.57,84.17L230.54,84.17L231.51,79.82L233.45,75.46L234.42,75.46L235.39,75.46L236.36,67.72L239.26,60.94L240.23,59.97L242.17,59.97L243.14,59L244.1,57.07L245.07,53.19L246.04,53.19L247.01,50.77L248.95,50.77L249.92,49.8L250.89,47.87L251.85,47.87L263.48,47.38L264.45,45.93L265.42,35.77L266.38,35.77L268.32,33.35L269.29,33.35L272.2,32.38L273.16,32.38L278.01,32.38L278.98,31.41L280.91,27.05L281.88,27.05L283.82,27.05L284.79,22.7L285.76,21.25L286.73,21.25L288.66,19.31L289.63,19.31L291.57,17.37L292.54,16.89L293.51,14.95L294.48,14.95L297.38,14.95L298.35,13.5" style="vector-effect: non-scaling-stroke; fill: none; stroke: rgb(230, 25, 75); stroke-opacity: 1; stroke-width: 2px; opacity: 1;"/></g><g class="points"/><g class="text"/></g><g class="trace scatter trace9da258" style="stroke-miterlimit: 2; opacity: 1;"><g class="fills"/><g class="errorbars"/><g class="lines"><path class="js-line" d="M0,256.5L239.26,256.02L240.23,255.53L261.54,255.05L262.51,253.6L264.45,253.6L265.42,252.63L267.35,252.14L268.32,252.14L279.95,251.66L280.91,251.18L282.85,250.69L283.82,250.69L286.73,248.75L287.69,248.75L291.57,248.75L292.54,247.3L295.44,246.33L296.41,246.33L297.38,246.33L298.35,244.88" style="vector-effect: non-scaling-stroke; fill: none; stroke: rgb(60, 180, 75); stroke-opacity: 1; stroke-width: 2px; opacity: 1;"/></g><g class="points"/><g class="text"/></g><g class="trace scatter tracebd08a6" style="stroke-miterlimit: 2; opacity: 1;"><g class="fills"/><g class="errorbars"/><g class="lines"><path class="js-line" d="M0,256.5L88.15,256.02L89.12,255.53L106.55,255.05L107.52,254.56L109.46,254.08L110.43,254.08L123.02,253.6L123.99,253.11L134.64,253.11L135.61,252.14L138.52,250.69L139.49,250.69L141.43,250.21L142.39,249.24L143.36,249.24L144.33,248.27L146.27,247.79L147.24,247.79L149.17,245.37L150.14,245.37L151.11,244.88L152.08,243.43L153.05,241.98L154.02,241.98L157.89,241.49L158.86,241.01L160.8,240.53L161.77,240.04L164.67,239.07L165.64,239.07L173.39,238.59L174.36,238.11L177.27,237.14L178.24,237.14L182.11,237.14L183.08,235.69L184.05,235.69L185.02,234.72L191.8,231.81L192.77,231.81L195.67,231.33L196.64,230.84L208.26,230.36L209.23,229.88L212.14,229.39L213.11,228.42L216.01,223.58L216.98,221.16L217.95,218.74L218.92,218.74L220.86,218.26L221.83,217.77L223.76,217.77L224.73,216.81L228.61,213.42L229.57,213.42L230.54,205.67L231.51,205.67L234.42,204.71L235.39,204.71L237.32,203.74L238.29,202.28L242.17,199.38L243.14,199.38L248.95,199.38L249.92,198.41L253.79,196.96L254.76,195.51L259.6,193.09L260.57,190.18L265.42,185.83L266.38,185.83L272.2,182.92L273.16,182.92L278.01,180.5L278.98,179.53L279.95,179.53L280.91,178.57L282.85,178.08L283.82,178.08L287.69,177.6L288.66,177.11L291.57,175.18L292.54,175.18L294.48,174.21L295.44,174.21L298.35,171.3" style="vector-effect: non-scaling-stroke; fill: none; stroke: rgb(255, 225, 25); stroke-opacity: 1; stroke-width: 2px; opacity: 1;"/></g><g class="points"/><g class="text"/></g><g class="trace scatter trace7082b6" style="stroke-miterlimit: 2; opacity: 1;"><g class="fills"/><g class="errorbars"/><g class="lines"><path class="js-line" d="M0,256.5L70.71,256.02L71.68,255.05L73.62,254.08L74.59,254.08L96.87,253.6L97.84,253.11L99.77,253.11L100.74,252.14L103.65,251.18L104.62,251.18L106.55,251.18L107.52,250.21L128.83,249.72L129.8,249.24L160.8,248.75L161.77,248.27L164.67,247.79L165.64,247.3L172.42,246.82L173.39,246.33L177.27,244.88L178.24,244.88L180.17,243.43L181.14,243.43L189.86,243.43L190.83,236.17L194.7,235.69L195.67,235.2L198.58,233.75L199.55,233.75L202.45,233.26L203.42,232.3L206.33,230.36L207.3,230.36L208.26,230.36L209.23,228.91L211.17,227.94L212.14,227.94L222.79,227.46L223.76,225.52L226.67,224.55L227.64,224.55L235.39,224.07L236.36,223.1L248.95,222.62L249.92,222.13L252.82,220.68L253.79,220.68L257.67,220.2L258.63,219.71L261.54,218.74L262.51,217.29L264.45,215.84L265.42,215.84L268.32,215.35L269.29,214.39L274.13,212.45L275.1,212.45L276.07,208.58L277.04,208.09L278.98,207.61L279.95,207.13L285.76,206.64L286.73,205.67L289.63,205.67L290.6,202.77L292.54,202.28L293.51,201.8L294.48,200.35L295.44,200.35L296.41,200.35L297.38,199.38L298.35,198.9" style="vector-effect: non-scaling-stroke; fill: none; stroke: rgb(67, 99, 216); stroke-opacity: 1; stroke-width: 2px; opacity: 1;"/></g><g class="points"/><g class="text"/></g><g class="trace scatter trace8aa2af" style="stroke-miterlimit: 2; opacity: 1;"><g class="fills"/><g class="errorbars"/><g class="lines"><path class="js-line" d="M0,256.5L68.78,256.02L69.74,255.53L71.68,253.11L72.65,253.11L74.59,250.21L75.56,250.21L79.43,249.72L80.4,248.27L82.34,247.79L83.31,247.79L84.27,246.33L85.24,246.33L86.21,246.33L87.18,244.88L90.09,244.4L91.05,243.91L92.99,243.91L93.96,241.49L100.74,241.01L101.71,240.53L104.62,238.59L105.58,238.11L107.52,237.62L108.49,237.62L111.4,235.69L112.37,235.69L115.27,235.2L116.24,234.72L117.21,234.72L118.18,233.26L123.02,233.26L123.99,231.81L126.9,231.81L127.86,230.36L129.8,229.88L130.77,229.88L136.58,229.39L137.55,228.91L143.36,228.42L144.33,227.94L146.27,227.46L147.24,227.46L160.8,226.97L161.77,226L163.71,226L164.67,225.04L167.58,224.07L168.55,224.07L174.36,223.58L175.33,223.1L179.2,223.1L180.17,221.65L184.05,221.16L185.02,220.68L185.98,220.68L186.95,218.74L187.92,218.74L188.89,217.77L189.86,217.77L190.83,215.84L192.77,215.35L193.73,215.35L199.55,214.87L200.51,212.93L204.39,212.93L205.36,211.48L209.23,211L210.2,210.51L215.04,208.58L216.01,208.58L219.89,208.58L220.86,207.13L222.79,206.64L223.76,206.16L224.73,206.16L225.7,205.19L229.57,204.71L230.54,204.22L233.45,203.74L234.42,203.25L236.36,203.25L237.32,202.28L239.26,201.8L240.23,201.8L242.17,200.35L243.14,200.35L246.04,199.38L247.01,199.38L255.73,198.9L256.7,198.41L259.6,197.44L260.57,197.44L262.51,196.96L263.48,196.96L270.26,196.48L271.23,195.99L285.76,195.51L286.73,194.54L291.57,194.54L292.54,191.64L296.41,191.64L297.38,190.67L298.35,190.67" style="vector-effect: non-scaling-stroke; fill: none; stroke: rgb(245, 130, 49); stroke-opacity: 1; stroke-width: 2px; opacity: 1;"/></g><g class="points"/><g class="text"/></g><g class="trace scatter traced499f9" style="stroke-miterlimit: 2; opacity: 1;"><g class="fills"/><g class="errorbars"/><g class="lines"><path class="js-line" d="M0,256.5L65.87,256.02L66.84,255.53L76.52,255.05L77.49,254.56L93.96,254.08L94.93,253.6L112.37,253.11L113.33,252.63L177.27,252.14L178.24,251.18L189.86,250.69L190.83,249.72L193.73,248.75L194.7,248.75L209.23,248.27L210.2,247.79L218.92,247.3L219.89,246.82L229.57,246.33L230.54,245.85L256.7,245.37L257.67,244.88L262.51,244.4L263.48,243.91L265.42,242.46L266.38,241.49L267.35,240.04L268.32,240.04L277.04,239.56L278.01,238.11L280.91,236.17L281.88,236.17L282.85,236.17L283.82,235.2L286.73,233.26L287.69,233.26L289.63,230.36L290.6,229.39L293.51,226.97L294.48,226.97L295.44,225.52L296.41,225.52L297.38,225.52L298.35,224.55" style="vector-effect: non-scaling-stroke; fill: none; stroke: rgb(145, 30, 180); stroke-opacity: 1; stroke-width: 2px; opacity: 1;"/></g><g class="points"/><g class="text"/></g></g></g><g class="overplot"/><path class="xlines-above crisp" d="M0,0" style="fill: none;"/><path class="ylines-above crisp" d="M0,0" style="fill: none;"/><g class="overlines-above"/><g class="xaxislayer-above"><g class="x2tick"><text text-anchor="middle" x="0" y="383" transform="translate(512.46,0)" style="font-family: 'Open Sans', verdana, arial, sans-serif; font-size: 12px; fill: rgb(242, 245, 250); fill-opacity: 1; white-space: pre;">Apr 2020</text></g><g class="x2tick"><text text-anchor="middle" x="0" y="383" transform="translate(600.61,0)" style="font-family: 'Open Sans', verdana, arial, sans-serif; font-size: 12px; fill: rgb(242, 245, 250); fill-opacity: 1; white-space: pre;">Jul 2020</text></g><g class="x2tick"><text text-anchor="middle" x="0" y="383" transform="translate(689.72,0)" style="font-family: 'Open Sans', verdana, arial, sans-serif; font-size: 12px; fill: rgb(242, 245, 250); fill-opacity: 1; white-space: pre;">Oct 2020</text></g></g><g class="yaxislayer-above"><g class="y2tick"><text text-anchor="end" x="443.65000000000003" y="4.199999999999999" transform="translate(0,356.5)" style="font-family: 'Open Sans', verdana, arial, sans-serif; font-size: 12px; fill: rgb(242, 245, 250); fill-opacity: 1; white-space: pre;">0</text></g><g class="y2tick"><text text-anchor="end" x="443.65000000000003" y="4.199999999999999" transform="translate(0,308.09000000000003)" style="font-family: 'Open Sans', verdana, arial, sans-serif; font-size: 12px; fill: rgb(242, 245, 250); fill-opacity: 1; white-space: pre;">100</text></g><g class="y2tick"><text text-anchor="end" x="443.65000000000003" y="4.199999999999999" transform="translate(0,259.69)" style="font-family: 'Open Sans', verdana, arial, sans-serif; font-size: 12px; fill: rgb(242, 245, 250); fill-opacity: 1; white-space: pre;">200</text></g><g class="y2tick"><text text-anchor="end" x="443.65000000000003" y="4.199999999999999" transform="translate(0,211.28)" style="font-family: 'Open Sans', verdana, arial, sans-serif; font-size: 12px; fill: rgb(242, 245, 250); fill-opacity: 1; white-space: pre;">300</text></g><g class="y2tick"><text text-anchor="end" x="443.65000000000003" y="4.199999999999999" transform="translate(0,162.87)" style="font-family: 'Open Sans', verdana, arial, sans-serif; font-size: 12px; fill: rgb(242, 245, 250); fill-opacity: 1; white-space: pre;">400</text></g><g class="y2tick"><text text-anchor="end" x="443.65000000000003" y="4.199999999999999" transform="translate(0,114.47)" style="font-family: 'Open Sans', verdana, arial, sans-serif; font-size: 12px; fill: rgb(242, 245, 250); fill-opacity: 1; white-space: pre;">500</text></g></g><g class="overaxes-above"/></g></g><g class="polarlayer"/><g class="ternarylayer"/><g class="geolayer"/><g class="funnelarealayer"/><g class="pielayer"/><g class="treemaplayer"/><g class="sunburstlayer"/><g class="glimages"/><defs id="topdefs-8d625f"><g class="clips"/><clipPath id="legend8d625f"><rect width="132" height="124" x="0" y="0"/></clipPath></defs><g class="layer-above"><g class="imagelayer"/><g class="shapelayer"/></g><g class="infolayer"><g class="legend" pointer-events="all" transform="translate(756.26, 100)"><rect class="bg" shape-rendering="crispEdges" width="132" height="124" x="0" y="0" style="stroke: rgb(68, 68, 68); stroke-opacity: 1; fill: rgb(17, 17, 17); fill-opacity: 1; stroke-width: 0px;"/><g class="scrollbox" transform="translate(0, 0)" clip-path="url('#legend8d625f')"><g class="groups"><g class="traces" transform="translate(0, 14.5)" style="opacity: 1;"><text class="legendtext user-select-none" text-anchor="start" x="40" y="4.680000000000001" style="font-family: 'Open Sans', verdana, arial, sans-serif; font-size: 12px; fill: rgb(242, 245, 250); fill-opacity: 1; white-space: pre;">Alameda, CA</text><g class="layers" style="opacity: 1;"><g class="legendfill"/><g class="legendlines"><path class="js-line" d="M5,0h30" style="fill: none; stroke: rgb(230, 25, 75); stroke-opacity: 1; stroke-width: 2px;"/></g><g class="legendsymbols"><g class="legendpoints"/></g></g><rect class="legendtoggle" pointer-events="all" x="0" y="-9.5" width="126.609375" height="19" style="cursor: pointer; fill: rgb(0, 0, 0); fill-opacity: 0;"/></g><g class="traces" transform="translate(0, 33.5)" style="opacity: 1;"><text class="legendtext user-select-none" text-anchor="start" x="40" y="4.680000000000001" style="font-family: 'Open Sans', verdana, arial, sans-serif; font-size: 12px; fill: rgb(242, 245, 250); fill-opacity: 1; white-space: pre;">Morrison, MN</text><g class="layers" style="opacity: 1;"><g class="legendfill"/><g class="legendlines"><path class="js-line" d="M5,0h30" style="fill: none; stroke: rgb(60, 180, 75); stroke-opacity: 1; stroke-width: 2px;"/></g><g class="legendsymbols"><g class="legendpoints"/></g></g><rect class="legendtoggle" pointer-events="all" x="0" y="-9.5" width="126.609375" height="19" style="cursor: pointer; fill: rgb(0, 0, 0); fill-opacity: 0;"/></g><g class="traces" transform="translate(0, 52.5)" style="opacity: 1;"><text class="legendtext user-select-none" text-anchor="start" x="40" y="4.680000000000001" style="font-family: 'Open Sans', verdana, arial, sans-serif; font-size: 12px; fill: rgb(242, 245, 250); fill-opacity: 1; white-space: pre;">Washington, AR</text><g class="layers" style="opacity: 1;"><g class="legendfill"/><g class="legendlines"><path class="js-line" d="M5,0h30" style="fill: none; stroke: rgb(255, 225, 25); stroke-opacity: 1; stroke-width: 2px;"/></g><g class="legendsymbols"><g class="legendpoints"/></g></g><rect class="legendtoggle" pointer-events="all" x="0" y="-9.5" width="126.609375" height="19" style="cursor: pointer; fill: rgb(0, 0, 0); fill-opacity: 0;"/></g><g class="traces" transform="translate(0, 71.5)" style="opacity: 1;"><text class="legendtext user-select-none" text-anchor="start" x="40" y="4.680000000000001" style="font-family: 'Open Sans', verdana, arial, sans-serif; font-size: 12px; fill: rgb(242, 245, 250); fill-opacity: 1; white-space: pre;">Jackson, MS</text><g class="layers" style="opacity: 1;"><g class="legendfill"/><g class="legendlines"><path class="js-line" d="M5,0h30" style="fill: none; stroke: rgb(67, 99, 216); stroke-opacity: 1; stroke-width: 2px;"/></g><g class="legendsymbols"><g class="legendpoints"/></g></g><rect class="legendtoggle" pointer-events="all" x="0" y="-9.5" width="126.609375" height="19" style="cursor: pointer; fill: rgb(0, 0, 0); fill-opacity: 0;"/></g><g class="traces" transform="translate(0, 90.5)" style="opacity: 1;"><text class="legendtext user-select-none" text-anchor="start" x="40" y="4.680000000000001" style="font-family: 'Open Sans', verdana, arial, sans-serif; font-size: 12px; fill: rgb(242, 245, 250); fill-opacity: 1; white-space: pre;">Terrebonne, LA</text><g class="layers" style="opacity: 1;"><g class="legendfill"/><g class="legendlines"><path class="js-line" d="M5,0h30" style="fill: none; stroke: rgb(245, 130, 49); stroke-opacity: 1; stroke-width: 2px;"/></g><g class="legendsymbols"><g class="legendpoints"/></g></g><rect class="legendtoggle" pointer-events="all" x="0" y="-9.5" width="126.609375" height="19" style="cursor: pointer; fill: rgb(0, 0, 0); fill-opacity: 0;"/></g><g class="traces" transform="translate(0, 109.5)" style="opacity: 1;"><text class="legendtext user-select-none" text-anchor="start" x="40" y="4.680000000000001" style="font-family: 'Open Sans', verdana, arial, sans-serif; font-size: 12px; fill: rgb(242, 245, 250); fill-opacity: 1; white-space: pre;">Lawrence, PA</text><g class="layers" style="opacity: 1;"><g class="legendfill"/><g class="legendlines"><path class="js-line" d="M5,0h30" style="fill: none; stroke: rgb(145, 30, 180); stroke-opacity: 1; stroke-width: 2px;"/></g><g class="legendsymbols"><g class="legendpoints"/></g></g><rect class="legendtoggle" pointer-events="all" x="0" y="-9.5" width="126.609375" height="19" style="cursor: pointer; fill: rgb(0, 0, 0); fill-opacity: 0;"/></g></g></g><rect class="scrollbar" rx="20" ry="3" width="0" height="0" x="0" y="0" style="fill: rgb(128, 139, 164); fill-opacity: 1;"/></g><g class="g-gtitle"/><g class="g-xtitle"><text class="xtitle" x="229.175" y="410.8" text-anchor="middle" style="font-family: 'Open Sans', verdana, arial, sans-serif; font-size: 14px; fill: rgb(242, 245, 250); opacity: 1; font-weight: normal; white-space: pre;">Date</text></g><g class="g-x2title"><text class="x2title" x="593.825" y="410.8" text-anchor="middle" style="font-family: 'Open Sans', verdana, arial, sans-serif; font-size: 14px; fill: rgb(242, 245, 250); opacity: 1; font-weight: normal; white-space: pre;">Date</text></g><g class="g-ytitle"><text class="ytitle" transform="rotate(-90,34.840625,235)" x="34.840625" y="235" text-anchor="middle" style="font-family: 'Open Sans', verdana, arial, sans-serif; font-size: 14px; fill: rgb(242, 245, 250); opacity: 1; font-weight: normal; white-space: pre;">Cases</text></g><g class="g-y2title"><text class="y2title" transform="rotate(-90,398.825,235)" x="398.825" y="235" text-anchor="middle" style="font-family: 'Open Sans', verdana, arial, sans-serif; font-size: 14px; fill: rgb(242, 245, 250); opacity: 1; font-weight: normal; white-space: pre;">Deaths</text></g><g class="annotation" data-index="0" style="opacity: 1;"><g class="annotation-text-g" transform="rotate(0,229.175,89.5)"><g class="cursor-pointer" transform="translate(205, 79)"><rect class="bg" x="0.5" y="0.5" width="48" height="20" style="stroke-width: 1px; stroke: rgb(0, 0, 0); stroke-opacity: 0; fill: rgb(0, 0, 0); fill-opacity: 0;"/><text class="annotation-text" text-anchor="middle" x="24.6875" y="16" style="font-family: 'Open Sans', verdana, arial, sans-serif; font-size: 16px; fill: rgb(242, 245, 250); fill-opacity: 1; white-space: pre;">Cases</text></g></g></g><g class="annotation" data-index="1" style="opacity: 1;"><g class="annotation-text-g" transform="rotate(0,593.825,89.5)"><g class="cursor-pointer" transform="translate(566, 79)"><rect class="bg" x="0.5" y="0.5" width="54" height="20" style="stroke-width: 1px; stroke: rgb(0, 0, 0); stroke-opacity: 0; fill: rgb(0, 0, 0); fill-opacity: 0;"/><text class="annotation-text" text-anchor="middle" x="27.359375" y="16" style="font-family: 'Open Sans', verdana, arial, sans-serif; font-size: 16px; fill: rgb(242, 245, 250); fill-opacity: 1; white-space: pre;">Deaths</text></g></g></g></g></svg>