<svg class="main-svg" xmlns="http://www.w3.org/2000/svg" xmlns:xlink="http://www.w3.org/1999/xlink" width="900" height="450" style="" viewBox="0 0 900 450"><rect x="0" y="0" width="900" height="450" style="fill: rgb(17, 17, 17); fill-opacity: 1;"/><defs id="defs-901a33"><g class="clips"><clipPath id="clip901a33xyplot" class="plotclip"><rect width="298.35" height="270"/></clipPath><clipPath id="clip901a33x2y2plot" class="plotclip"><rect width="298.34999999999997" height="270"/></clipPath><clipPath class="axesclip" id="clip901a33x"><rect x="80" y="0" width="298.35" height="450"/></clipPath><clipPath class="axesclip" id="clip901a33y"><rect x="0" y="100" width="900" height="270"/></clipPath><clipPath class="axesclip" id="clip901a33xy"><rect x="80" y="100" width="298.35" height="270"/></clipPath><clipPath class="axesclip" id="clip901a33y2"><rect x="0" y="100" width="900" height="270"/></clipPath><clipPath class="axesclip" id="clip901a33xy2"><rect x="80" y="100" width="298.35" height="270"/></clipPath><clipPath class="axesclip" id="clip901a33x2"><rect x="444.65000000000003" y="0" width="298.34999999999997" height="450"/></clipPath><clipPath class="axesclip" id="clip901a33x2y"><rect x="444.65000000000003" y="100" width="298.34999999999997" height="270"/></clipPath><clipPath class="axesclip" id="clip901a33x2y2"><rect x="444.65000000000003" y="100" width="298.34999999999997" height="270"/></clipPath></g><g class="gradients"/></defs><g class="bglayer"/><g class="layer-below"><g class="imagelayer"/><g class="shapelayer"/></g><g class="cartesianlayer"><g class="subplot xy"><g class="layer-subplot"><g class="shapelayer"/><g class="imagelayer"/></g><g class="gridlayer"><g class="x"><path class="xgrid crisp" transform="translate(123.42,0)" d="M0,100v270" style="stroke: rgb(40, 52, 66); stroke-opacity: 1; stroke-width: 1px;"/><path class="xgrid crisp" transform="translate(191.32,0)" d="M0,100v270" style="stroke: rgb(40, 52, 66); stroke-opacity: 1; stroke-width: 1px;"/><path class="xgrid crisp" transform="translate(259.23,0)" d="M0,100v270" style="stroke: rgb(40, 52, 66); stroke-opacity: 1; stroke-width: 1px;"/><path class="xgrid crisp" transform="translate(328.25,0)" d="M0,100v270" style="stroke: rgb(40, 52, 66); stroke-opacity: 1; stroke-width: 1px;"/></g><g class="y"><path class="ygrid crisp" transform="translate(0,307.45)" d="M80,0h298.35" style="stroke: rgb(40, 52, 66); stroke-opacity: 1; stroke-width: 1px;"/><path class="ygrid crisp" transform="translate(0,258.39)" d="M80,0h298.35" style="stroke: rgb(40, 52, 66); stroke-opacity: 1; stroke-width: 1px;"/><path class="ygrid crisp" transform="translate(0,209.34)" d="M80,0h298.35" style="stroke: rgb(40, 52, 66); stroke-opacity: 1; stroke-width: 1px;"/><path class="ygrid crisp" transform="translate(0,160.29)" d="M80,0h298.35" style="stroke: rgb(40, 52, 66); stroke-opacity: 1; stroke-width: 1px;"/><path class="ygrid crisp" transform="translate(0,111.23)" d="M80,0h298.35" style="stroke: rgb(40, 52, 66); stroke-opacity: 1; stroke-width: 1px;"/></g></g><g class="zerolinelayer"><path class="yzl zl crisp" transform="translate(0,356.5)" d="M80,0h298.35" style="stroke: rgb(40, 52, 66); stroke-opacity: 1; stroke-width: 2px;"/></g><path class="xlines-below"/><path class="ylines-below"/><g class="overlines-below"/><g class="xaxislayer-below"/><g class="yaxislayer-below"/><g class="overaxes-below"/><g class="plot" transform="translate(80, 100)" clip-path="url('#clip901a33xyplot')"><g class="scatterlayer mlayer"><g class="trace scatter trace79b83e" style="stroke-miterlimit: 2; opacity: 1;"><g class="fills"/><g class="errorbars"/><g class="lines"><path class="js-line" d="M0,256.5L65.68,255.86L66.79,255.46L75.7,253.72L76.81,253.43L91.29,247.83L92.4,247.83L96.85,245.57L97.97,245.08L101.31,243.94L102.42,243.26L107.98,241.46L109.1,241.12L119.12,237.26L120.23,236.65L130.25,232.4L131.36,231.76L134.7,229.93L135.82,229.35L146.95,222.02L148.06,221.69L153.63,217.8L154.74,217.4L156.97,216.09L158.08,215.14L163.65,212.03L164.76,211L168.1,209.36L169.21,207.38L174.78,201.48L175.89,200.87L177.01,199.97L178.12,197.99L181.46,193.01L182.57,192.18L183.69,189.25L184.8,188.93L185.91,188.93L187.03,185.42L190.37,180.71L191.48,180.71L194.82,173.33L195.93,171.86L199.27,165.88L200.38,165.69L201.5,164.45L202.61,161.9L205.95,155.16L207.06,154.76L208.18,154.1L209.29,152.18L210.4,150.81L211.52,147.3L212.63,147.3L213.74,143.83L214.86,143.44L215.97,140.28L217.08,139.66L218.2,137.44L221.54,137.44L222.65,127.01L223.76,126.82L224.88,122.45L225.99,118.18L227.1,116.9L228.22,113.68L229.33,113.68L230.44,108.13L231.56,108.06L237.12,92.73L238.23,92.44L239.35,92.34L240.46,87.02L241.57,85.94L242.69,83.63L243.8,81.41L244.91,81.41L252.71,68.81L253.82,68.81L254.93,66.66L256.05,66.66L258.27,63.13L259.39,62.06L260.5,61.89L261.61,60.38L266.07,58.7L267.18,56.72L270.52,54L271.63,52.95L279.42,47.31L280.54,46.72L289.44,41.27L290.56,41.23L292.78,39.2L293.9,39.2L296.12,37.48L297.24,37.04L298.35,36.66" style="vector-effect: non-scaling-stroke; fill: none; stroke: rgb(230, 25, 75); stroke-opacity: 1; stroke-width: 2px; opacity: 1;"/></g><g class="points"/><g class="text"/></g><g class="trace scatter tracee436f8" style="stroke-miterlimit: 2; opacity: 1;"><g class="fills"/><g class="errorbars"/><g class="lines"><path class="js-line" d="M0,256.5L80.15,255.94L81.27,255.72L91.29,254.52L92.4,254.34L102.42,253.26L103.53,253.07L114.66,251.09L115.78,250.82L130.25,248.5L131.36,248.34L160.31,242.31L161.42,242.13L188.14,235.62L189.25,234.9L194.82,232.6L195.93,232.09L205.95,226.03L207.06,225.58L211.52,222.96L212.63,222.09L222.65,217.2L223.76,216.98L231.56,212.51L232.67,211.85L241.57,206.88L242.69,206.4L250.48,203.03L251.59,201.76L254.93,200.48L256.05,200.08L258.27,199.09L259.39,198.38L278.31,191.11L279.42,190.48L282.76,189.43L283.88,189.02L288.33,187.88L289.44,186.93L298.35,183.61" style="vector-effect: non-scaling-stroke; fill: none; stroke: rgb(60, 180, 75); stroke-opacity: 1; stroke-width: 2px; opacity: 1;"/></g><g class="points"/><g class="text"/></g><g class="trace scatter trace78a425" style="stroke-miterlimit: 2; opacity: 1;"><g class="fills"/><g class="errorbars"/><g class="lines"><path class="js-line" d="M0,256.5L83.49,255.83L84.61,255.73L126.91,253.46L128.02,252.95L129.14,251.68L130.25,251.68L188.14,248.57L189.25,248.35L213.74,243.6L214.86,243.19L242.69,236.86L243.8,236.3L258.27,233.23L259.39,232.65L260.5,232.65L261.61,231.84L267.18,229.22L268.29,228.6L276.09,225.69L277.2,224.13L280.54,223.21L281.65,223.02L286.1,221.55L287.22,221.39L298.35,218.2" style="vector-effect: non-scaling-stroke; fill: none; stroke: rgb(255, 225, 25); stroke-opacity: 1; stroke-width: 2px; opacity: 1;"/></g><g class="points"/><g class="text"/></g><g class="trace scatter tracebf1233" style="stroke-miterlimit: 2; opacity: 1;"><g class="fills"/><g class="errorbars"/><g class="lines"><path class="js-line" d="M0,256.5L104.65,255.77L105.76,255.74L132.48,254.99L133.59,254.73L145.84,250.99L146.95,250.42L148.06,250.1L149.18,248.94L151.4,247.54L152.51,246.53L156.97,242.87L158.08,240.75L164.76,235.5L165.87,234.7L172.55,228.25L173.67,225.69L187.03,214.65L188.14,214.23L190.37,212.78L191.48,212.1L197.04,208.3L198.16,206.87L208.18,200.29L209.29,199.77L214.86,197.59L215.97,196.93L222.65,194.71L223.76,194.59L231.56,193.3L232.67,193.01L239.35,191.6L240.46,191.45L243.8,190.62L244.91,189.3L249.37,187.91L250.48,185.83L252.71,182.16L253.82,181.56L258.27,179.76L259.39,178.65L260.5,178.65L261.61,175.93L262.73,175.62L263.84,174.29L269.41,168.69L270.52,168.15L274.97,164.99L276.09,164.49L279.42,162.82L280.54,161.88L282.76,160.27L283.88,159.6L286.1,158.89L287.22,158.1L289.44,156.72L290.56,155.65L295.01,153.62L296.12,152.98L298.35,151.06" style="vector-effect: non-scaling-stroke; fill: none; stroke: rgb(67, 99, 216); stroke-opacity: 1; stroke-width: 2px; opacity: 1;"/></g><g class="points"/><g class="text"/></g><g class="trace scatter trace66ffb8" style="stroke-miterlimit: 2; opacity: 1;"><g class="fills"/><g class="errorbars"/><g class="lines"><path class="js-line" d="M0,256.5L70.13,256L71.25,255.71L77.93,253.66L79.04,253.04L84.61,250.1L85.72,248L91.29,243.15L92.4,242.99L94.63,241.63L95.74,241.11L104.65,233.08L105.76,231.89L107.98,230.69L109.1,229.62L111.32,226.94L112.44,225.27L114.66,222.85L115.78,222.85L119.12,219.84L120.23,219.84L128.02,211.87L129.14,211.14L133.59,206.12L134.7,205.78L138.04,202.56L139.16,202.56L141.38,200.8L142.5,199.41L148.06,193.15L149.18,192.97L152.51,190.25L153.63,189.65L156.97,187.97L158.08,187.33L165.87,184.26L166.99,184.26L173.67,184.26L174.78,179.98L180.35,176.98L181.46,176.22L189.25,172.31L190.37,171.39L195.93,165.64L197.04,166.82L199.27,161.11L200.38,160.08L204.84,153.29L205.95,150.61L210.4,144.43L211.52,142.55L217.08,133.62L218.2,132.24L221.54,128.37L222.65,126.44L223.76,125.29L224.88,125.29L228.22,122.1L229.33,120.65L234.89,115.94L236.01,114.53L240.46,111.08L241.57,110.2L248.25,103.52L249.37,102.82L253.82,97.73L254.93,96.57L259.39,94.43L260.5,93.17L263.84,90.65L264.95,88.1L280.54,79.97L281.65,78.46L289.44,73.35L290.56,72.14L298.35,66.14" style="vector-effect: non-scaling-stroke; fill: none; stroke: rgb(245, 130, 49); stroke-opacity: 1; stroke-width: 2px; opacity: 1;"/></g><g class="points"/><g class="text"/></g><g class="trace scatter trace756e64" style="stroke-miterlimit: 2; opacity: 1;"><g class="fills"/><g class="errorbars"/><g class="lines"><path class="js-line" d="M0,256.49L50.1,255.8L51.21,255.69L56.78,253.28L57.89,252.7L62.34,250.99L63.46,249.7L70.13,243.17L71.25,241.03L74.59,235.3L75.7,233.64L76.81,233.64L77.93,232.01L81.27,228.39L82.38,225.52L85.72,220.51L86.83,218.4L91.29,212.19L92.4,211.25L95.74,208.77L96.85,207.21L106.87,198.18L107.98,197.63L115.78,191.54L116.89,190.73L120.23,188.35L121.34,187.76L132.48,181.92L133.59,181.64L145.84,176.81L146.95,176.28L150.29,174.38L151.4,173.92L161.42,170.31L162.53,169.68L164.76,168.57L165.87,167.61L175.89,159.42L177.01,158.21L184.8,147.55L185.91,146.8L190.37,143.01L191.48,140.49L193.7,136.68L194.82,135.58L200.38,125.83L201.5,124.55L211.52,109.09L212.63,109.09L214.86,104.43L215.97,103.42L219.31,98.76L220.42,97.35L221.54,97.35L222.65,93.94L228.22,86.7L229.33,84.9L233.78,79.38L234.89,76.99L236.01,76.63L237.12,74.55L242.69,68.58L243.8,66.94L247.14,63.79L248.25,63.25L254.93,57.09L256.05,57.09L259.39,54.01L260.5,52.69L269.41,46.03L270.52,46.03L281.65,35.48L282.76,33.32L286.1,29.73L287.22,28.72L291.67,22.96L292.78,22.96L293.9,22.96L295.01,18.13L298.35,13.5" style="vector-effect: non-scaling-stroke; fill: none; stroke: rgb(145, 30, 180); stroke-opacity: 1; stroke-width: 2px; opacity: 1;"/></g><g class="points"/><g class="text"/></g></g></g><g class="overplot"/><path class="xlines-above crisp" d="M0,0" style="fill: none;"/><path class="ylines-above crisp" d="M0,0" style="fill: none;"/><g class="overlines-above"/><g class="xaxislayer-above"><g class="xtick"><text text-anchor="middle" x="0" y="383" transform="translate(123.42,0)" style="font-family: 'Open Sans', verdana, arial, sans-serif; font-size: 12px; fill: rgb(242, 245, 250); fill-opacity: 1; white-space: pre;">Mar 2020</text></g><g class="xtick"><text text-anchor="middle" x="0" y="383" transform="translate(191.32,0)" style="font-family: 'Open Sans', verdana, arial, sans-serif; font-size: 12px; fill: rgb(242, 245, 250); fill-opacity: 1; white-space: pre;">May 2020</text></g><g class="xtick"><text text-anchor="middle" x="0" y="383" transform="translate(259.23,0)" style="font-family: 'Open Sans', verdana, arial, sans-serif; font-size: 12px; fill: rgb(242, 245, 250); fill-opacity: 1; white-space: pre;">Jul 2020</text></g><g class="xtick"><text text-anchor="middle" x="0" y="383" transform="translate(328.25,0)" style="font-family: 'Open Sans', verdana, arial, sans-serif; font-size: 12px; fill: rgb(242, 245, 250); fill-opacity: 1; white-space: pre;">Sep 2020</text></g></g><g class="yaxislayer-above"><g class="ytick"><text text-anchor="end" x="79" y="4.199999999999999" transform="translate(0,356.5)" style="font-family: 'Open Sans', verdana, arial, sans-serif; font-size: 12px; fill: rgb(242, 245, 250); fill-opacity: 1; white-space: pre;">0</text></g><g class="ytick"><text text-anchor="end" x="79" y="4.199999999999999" transform="translate(0,307.45)" style="font-family: 'Open Sans', verdana, arial, sans-serif; font-size: 12px; fill: rgb(242, 245, 250); fill-opacity: 1; white-space: pre;">5k</text></g><g class="ytick"><text text-anchor="end" x="79" y="4.199999999999999" transform="translate(0,258.39)" style="font-family: 'Open Sans', verdana, arial, sans-serif; font-size: 12px; fill: rgb(242, 245, 250); fill-opacity: 1; white-space: pre;">10k</text></g><g class="ytick"><text text-anchor="end" x="79" y="4.199999999999999" transform="translate(0,209.34)" style="font-family: 'Open Sans', verdana, arial, sans-serif; font-size: 12px; fill: rgb(242, 245, 250); fill-opacity: 1; white-space: pre;">15k</text></g><g class="ytick"><text text-anchor="end" x="79" y="4.199999999999999" transform="translate(0,160.29)" style="font-family: 'Open Sans', verdana, arial, sans-serif; font-size: 12px; fill: rgb(242, 245, 250); fill-opacity: 1; white-space: pre;">20k</text></g><g class="ytick"><text text-anchor="end" x="79" y="4.199999999999999" transform="translate(0,111.23)" style="font-family: 'Open Sans', verdana, arial, sans-serif; font-size: 12px; fill: rgb(242, 245, 250); fill-opacity: 1; white-space: pre;">25k</text></g></g><g class="overaxes-above"/></g><g class="subplot x2y2"><g class="layer-subplot"><g class="shapelayer"/><g class="imagelayer"/></g><g class="gridlayer"><g class="x2"><path class="x2grid crisp" transform="translate(488.07000000000005,0)" d="M0,100v270" style="stroke: rgb(40, 52, 66); stroke-opacity: 1; stroke-width: 1px;"/><path class="x2grid crisp" transform="translate(555.97,0)" d="M0,100v270" style="stroke: rgb(40, 52, 66); stroke-opacity: 1; stroke-width: 1px;"/><path class="x2grid crisp" transform="translate(623.88,0)" d="M0,100v270" style="stroke: rgb(40, 52, 66); stroke-opacity: 1; stroke-width: 1px;"/><path class="x2grid crisp" transform="translate(692.9000000000001,0)" d="M0,100v270" style="stroke: rgb(40, 52, 66); stroke-opacity: 1; stroke-width: 1px;"/></g><g class="y2"><path class="y2grid crisp" transform="translate(0,295.14)" d="M444.65000000000003,0h298.34999999999997" style="stroke: rgb(40, 52, 66); stroke-opacity: 1; stroke-width: 1px;"/><path class="y2grid crisp" transform="translate(0,233.77)" d="M444.65000000000003,0h298.34999999999997" style="stroke: rgb(40, 52, 66); stroke-opacity: 1; stroke-width: 1px;"/><path class="y2grid crisp" transform="translate(0,172.41)" d="M444.65000000000003,0h298.34999999999997" style="stroke: rgb(40, 52, 66); stroke-opacity: 1; stroke-width: 1px;"/><path class="y2grid crisp" transform="translate(0,111.05)" d="M444.65000000000003,0h298.34999999999997" style="stroke: rgb(40, 52, 66); stroke-opacity: 1; stroke-width: 1px;"/></g></g><g class="zerolinelayer"><path class="y2zl zl crisp" transform="translate(0,356.5)" d="M444.65000000000003,0h298.34999999999997" style="stroke: rgb(40, 52, 66); stroke-opacity: 1; stroke-width: 2px;"/></g><path class="xlines-below"/><path class="ylines-below"/><g class="overlines-below"/><g class="xaxislayer-below"/><g class="yaxislayer-below"/><g class="overaxes-below"/><g class="plot" transform="translate(444.65000000000003, 100)" clip-path="url('#clip901a33x2y2plot')"><g class="scatterlayer mlayer"><g class="trace scatter traceab8bc0" style="stroke-miterlimit: 2; opacity: 1;"><g class="fills"/><g class="errorbars"/><g class="lines"><path class="js-line" d="M0,256.5L70.13,255.89L71.25,255.27L73.47,254.66L74.59,254.35L79.04,253.74L80.15,252.82L83.49,252.51L84.61,251.9L89.06,250.06L90.17,249.44L92.4,249.44L93.51,245.45L95.74,244.53L96.85,243.92L103.53,241.77L104.65,240.55L106.87,240.55L107.98,239.63L112.44,237.17L113.55,237.17L114.66,237.17L115.78,236.25L118,235.94L119.12,235.02L123.57,233.8L124.68,233.18L128.02,231.03L129.14,231.03L130.25,231.03L131.36,230.11L135.82,228.27L136.93,227.97L143.61,227.35L144.72,227.05L149.17,226.74L150.29,225.51L154.74,225.2L155.85,224.28L158.08,223.06L159.19,223.06L161.42,222.14L162.53,222.14L164.76,220.6L165.87,220.3L170.33,219.68L171.44,219.07L173.67,216.61L174.78,216.61L177.01,215.69L178.12,215.08L183.69,213.55L184.8,213.55L187.03,212.93L188.14,211.7L192.59,211.09L193.7,209.86L195.93,209.25L197.04,207.1L200.38,206.8L201.5,205.26L204.84,201.89L205.95,201.89L208.18,201.89L209.29,200.97L212.63,200.66L213.74,198.51L215.97,198.51L217.08,197.59L220.42,197.28L221.54,197.28L222.65,193.6L223.76,193.6L224.88,193.6L225.99,191.45L228.22,189.31L229.33,189.31L232.67,187.77L233.78,186.55L236.01,185.01L237.12,185.01L239.35,184.7L240.46,182.86L243.8,180.72L244.91,180.72L246.03,177.65L247.14,177.65L248.25,177.65L249.37,172.43L250.48,165.99L251.59,165.68L253.82,164.76L254.93,164.45L256.05,164.45L257.16,163.53L258.27,163.53L259.39,158.32L260.5,158.32L261.61,154.64L262.73,154.33L263.84,147.27L264.95,147.27L266.07,144.51L268.29,141.75L269.41,141.75L270.52,141.75L271.63,136.84L276.09,131.93L277.2,131.93L279.42,131.32L280.54,130.09L281.65,127.64L282.76,127.64L283.88,126.1L284.99,126.1L287.22,125.49L288.33,124.26L297.24,123.65L298.35,121.81" style="vector-effect: non-scaling-stroke; fill: none; stroke: rgb(230, 25, 75); stroke-opacity: 1; stroke-width: 2px; opacity: 1;"/></g><g class="points"/><g class="text"/></g><g class="trace scatter trace7ca5be" style="stroke-miterlimit: 2; opacity: 1;"><g class="fills"/><g class="errorbars"/><g class="lines"><path class="js-line" d="M0,256.5L84.61,255.89L85.72,255.58L93.51,253.43L94.63,252.2L96.85,251.28L97.97,250.98L103.53,250.67L104.65,249.14L107.98,248.83L109.1,247.6L114.66,246.07L115.78,243.92L119.12,242.39L120.23,241.47L123.57,240.24L124.68,238.4L129.14,236.56L130.25,236.25L132.48,235.33L133.59,235.33L140.27,234.1L141.38,232.88L144.72,231.34L145.84,231.34L149.17,228.58L150.29,228.27L154.74,226.43L155.85,224.28L158.08,223.67L159.19,222.14L161.42,222.14L162.53,220.6L164.76,218.76L165.87,218.76L168.1,218.15L169.21,217.84L171.44,216.61L172.55,216L177.01,215.08L178.12,215.08L182.57,214.47L183.69,214.47L185.91,214.16L187.03,212.63L190.37,212.32L191.48,212.32L194.82,212.01L195.93,211.4L203.72,209.86L204.84,209.86L208.18,209.56L209.29,209.56L214.86,208.64L215.97,208.64L217.08,208.64L218.2,207.72L224.88,207.1L225.99,206.8L232.67,206.49L233.78,205.88L237.12,205.57L238.23,205.57L241.57,204.95L242.69,204.34L249.37,203.73L250.48,203.42L256.05,202.81L257.16,202.5L263.84,201.89L264.95,201.27L267.18,200.66L268.29,200.35L270.52,200.35L271.63,199.13L274.97,198.51L276.09,198.2L280.54,197.59L281.65,197.28L283.88,196.36L284.99,196.36L287.22,196.06L288.33,195.44L292.78,194.52L293.9,194.52L297.24,192.68L298.35,192.07" style="vector-effect: non-scaling-stroke; fill: none; stroke: rgb(60, 180, 75); stroke-opacity: 1; stroke-width: 2px; opacity: 1;"/></g><g class="points"/><g class="text"/></g><g class="trace scatter trace7eeb05" style="stroke-miterlimit: 2; opacity: 1;"><g class="fills"/><g class="errorbars"/><g class="lines"><path class="js-line" d="M0,256.5L89.06,255.89L90.17,255.58L92.4,254.97L93.51,254.66L104.65,254.35L105.76,253.74L106.87,253.74L107.98,252.51L116.89,250.67L118,250.67L132.48,250.06L133.59,249.75L136.93,249.44L138.04,249.44L150.29,248.83L151.4,248.52L189.25,247.91L190.37,247.6L200.38,247.3L201.5,246.68L207.06,246.07L208.18,245.45L214.86,244.84L215.97,244.53L234.89,243.92L236.01,243.31L239.35,243L240.46,242.08L242.69,242.08L243.8,241.16L253.82,240.55L254.93,240.24L263.84,239.63L264.95,238.09L269.41,237.48L270.52,237.17L273.86,236.56L274.97,235.64L279.42,232.88L280.54,232.26L293.9,227.97L295.01,227.35L297.24,226.74L298.35,226.74" style="vector-effect: non-scaling-stroke; fill: none; stroke: rgb(255, 225, 25); stroke-opacity: 1; stroke-width: 2px; opacity: 1;"/></g><g class="points"/><g class="text"/></g><g class="trace scatter tracef1d784" style="stroke-miterlimit: 2; opacity: 1;"><g class="fills"/><g class="errorbars"/><g class="lines"><path class="js-line" d="M0,256.5L103.53,255.89L104.65,255.58L139.16,254.97L140.27,254.66L154.74,254.35L155.85,253.74L160.31,252.82L161.42,252.82L170.33,250.06L171.44,249.44L173.67,249.14L174.78,248.22L177.01,247.3L178.12,247.3L183.69,246.68L184.8,246.38L190.37,245.45L191.48,245.45L194.82,245.15L195.93,245.15L202.61,244.53L203.72,244.23L209.29,244.23L210.4,243.31L212.63,242.69L213.74,242.39L217.08,241.77L218.2,241.16L221.54,240.85L222.65,240.85L237.12,240.24L238.23,239.93L243.8,239.32L244.91,238.7L249.37,234.1L250.48,232.57L257.16,231.95L258.27,231.34L262.73,229.19L263.84,229.19L264.95,224.28L266.07,224.28L273.86,222.14L274.97,221.52L280.54,220.3L281.65,220.3L287.22,219.68L288.33,219.38L298.35,216.31" style="vector-effect: non-scaling-stroke; fill: none; stroke: rgb(67, 99, 216); stroke-opacity: 1; stroke-width: 2px; opacity: 1;"/></g><g class="points"/><g class="text"/></g><g class="trace scatter tracef01074" style="stroke-miterlimit: 2; opacity: 1;"><g class="fills"/><g class="errorbars"/><g class="lines"><path class="js-line" d="M0,256.5L77.93,255.89L79.04,255.58L81.27,255.27L82.38,254.66L83.49,253.13L84.61,253.13L86.83,251.59L87.95,250.06L90.17,247.3L91.29,247.3L93.51,245.76L94.63,245.15L96.85,243.92L97.97,243L99.08,243L100.19,240.85L102.42,237.48L103.53,237.48L105.76,234.72L106.87,229.81L116.89,210.78L118,208.94L123.57,198.82L124.68,194.22L125.8,192.99L126.91,189.92L130.25,183.78L131.36,180.72L133.59,173.35L134.7,171.51L136.93,166.91L138.04,160.77L139.16,160.77L140.27,158.32L142.5,158.32L143.61,156.78L145.84,154.33L146.95,146.66L149.17,142.67L150.29,141.14L151.4,138.68L152.51,138.07L153.63,137.45L154.74,134.39L159.19,128.86L160.31,127.02L162.53,125.49L163.65,123.95L169.21,116.9L170.33,115.98L172.55,115.36L173.67,115.06L177.01,112.3L178.12,111.38L180.35,111.07L181.46,109.84L185.91,107.39L187.03,106.16L190.37,104.32L191.48,104.32L193.7,103.7L194.82,102.48L200.38,99.41L201.5,97.88L203.72,96.65L204.84,96.65L207.06,95.73L208.18,95.42L209.29,95.42L210.4,89.28L212.63,88.67L213.74,88.06L222.65,83.76L223.76,83.76L228.22,80.39L229.33,80.39L232.67,79.77L233.78,78.24L237.12,76.7L238.23,76.09L239.35,76.09L240.46,74.86L242.69,73.02L243.8,73.02L248.25,71.18L249.37,70.88L251.59,69.95L252.71,69.95L260.5,69.34L261.61,69.03L274.97,65.66L276.09,65.66L278.31,64.43L279.42,63.2L281.65,62.59L282.76,62.59L286.1,61.98L287.22,61.06L290.56,59.52L291.67,59.52L293.9,58.6L295.01,57.99L297.24,57.38L298.35,57.07" style="vector-effect: non-scaling-stroke; fill: none; stroke: rgb(245, 130, 49); stroke-opacity: 1; stroke-width: 2px; opacity: 1;"/></g><g class="points"/><g class="text"/></g><g class="trace scatter trace37147e" style="stroke-miterlimit: 2; opacity: 1;"><g class="fills"/><g class="errorbars"/><g class="lines"><path class="js-line" d="M0,256.5L43.42,256.19L44.53,254.97L47.87,253.43L48.98,252.82L59,245.15L60.12,243.31L61.23,243.31L62.34,239.32L64.57,235.94L65.68,233.8L66.79,233.49L67.91,229.81L71.25,223.06L72.36,218.15L74.59,212.32L75.7,210.48L76.81,210.48L77.93,205.88L85.72,182.25L86.83,177.65L89.06,169.98L90.17,166.91L91.29,166.91L92.4,163.53L99.08,146.66L100.19,142.06L104.65,133.77L105.76,131.32L109.1,122.11L110.21,119.35L120.23,105.85L121.34,103.09L124.68,97.57L125.8,97.26L126.91,96.65L128.02,95.11L130.25,94.5L131.36,92.66L132.48,92.35L133.59,91.13L139.16,87.14L140.27,84.99L143.61,82.53L144.72,82.53L150.29,79.77L151.4,79.77L155.85,77.93L156.97,77.63L160.31,75.17L161.42,75.17L163.65,75.17L164.76,73.33L166.99,72.41L168.1,72.41L172.55,70.57L173.67,70.26L175.89,69.34L177.01,69.34L179.23,68.73L180.35,67.81L182.57,66.58L183.69,66.27L187.03,63.82L188.14,62.59L190.37,62.28L191.48,61.06L192.59,65.05L193.7,65.05L194.82,63.2L195.93,62.9L197.04,62.9L198.16,61.06L199.27,61.67L200.38,61.36L202.61,60.75L203.72,60.75L205.95,58.91L207.06,58.91L212.63,57.38L213.74,54.92L218.2,54.31L219.31,52.77L220.42,50.93L221.54,50.93L224.88,46.64L225.99,46.64L229.33,45.41L230.44,43.57L231.56,43.57L232.67,42.34L238.23,37.74L239.35,37.13L240.46,37.13L241.57,35.9L243.8,34.67L244.91,34.67L247.14,34.67L248.25,33.14L251.59,30.99L252.71,30.68L256.05,30.68L257.16,28.53L260.5,28.23L261.61,28.23L263.84,27L264.95,26.69L269.41,26.08L270.52,26.08L272.75,23.63L273.86,23.63L281.65,23.63L282.76,21.17L286.1,21.17L287.22,18.72L289.44,16.57L290.56,15.95L293.9,15.95L295.01,14.73L298.35,13.5" style="vector-effect: non-scaling-stroke; fill: none; stroke: rgb(145, 30, 180); stroke-opacity: 1; stroke-width: 2px; opacity: 1;"/></g><g class="points"/><g class="text"/></g></g></g><g class="overplot"/><path class="xlines-above crisp" d="M0,0" style="fill: none;"/><path class="ylines-above crisp" d="M0,0" style="fill: none;"/><g class="overlines-above"/><g class="xaxislayer-above"><g class="x2tick"><text text-anchor="middle" x="0" y="383" transform="translate(488.07000000000005,0)" style="font-family: 'Open Sans', verdana, arial, sans-serif; font-size: 12px; fill: rgb(242, 245, 250); fill-opacity: 1; white-space: pre;">Mar 2020</text></g><g class="x2tick"><text text-anchor="middle" x="0" y="383" transform="translate(555.97,0)" style="font-family: 'Open Sans', verdana, arial, sans-serif; font-size: 12px; fill: rgb(242, 245, 250); fill-opacity: 1; white-space: pre;">May 2020</text></g><g class="x2tick"><text text-anchor="middle" x="0" y="383" transform="translate(623.88,0)" style="font-family: 'Open Sans', verdana, arial, sans-serif; font-size: 12px; fill: rgb(242, 245, 250); fill-opacity: 1; white-space: pre;">Jul 2020</text></g><g class="x2tick"><text text-anchor="middle" x="0" y="383" transform="translate(692.9000000000001,0)" style="font-family: 'Open Sans', verdana, arial, sans-serif; font-size: 12px; fill: rgb(242, 245, 250); fill-opacity: 1; white-space: pre;">Sep 2020</text></g></g><g class="yaxislayer-above"><g class="y2tick"><text text-anchor="end" x="443.65000000000003" y="4.199999999999999" transform="translate(0,356.5)" style="font-family: 'Open Sans', verdana, arial, sans-serif; font-size: 12px; fill: rgb(242, 245, 250); fill-opacity: 1; white-space: pre;">0</text></g><g class="y2tick"><text text-anchor="end" x="443.65000000000003" y="4.199999999999999" transform="translate(0,295.14)" style="font-family: 'Open Sans', verdana, arial, sans-serif; font-size: 12px; fill: rgb(242, 245, 250); fill-opacity: 1; white-space: pre;">200</text></g><g class="y2tick"><text text-anchor="end" x="443.65000000000003" y="4.199999999999999" transform="translate(0,233.77)" style="font-family: 'Open Sans', verdana, arial, sans-serif; font-size: 12px; fill: rgb(242, 245, 250); fill-opacity: 1; white-space: pre;">400</text></g><g class="y2tick"><text text-anchor="end" x="443.65000000000003" y="4.199999999999999" transform="translate(0,172.41)" style="font-family: 'Open Sans', verdana, arial, sans-serif; font-size: 12px; fill: rgb(242, 245, 250); fill-opacity: 1; white-space: pre;">600</text></g><g class="y2tick"><text text-anchor="end" x="443.65000000000003" y="4.199999999999999" transform="translate(0,111.05)" style="font-family: 'Open Sans', verdana, arial, sans-serif; font-size: 12px; fill: rgb(242, 245, 250); fill-opacity: 1; white-space: pre;">800</text></g></g><g class="overaxes-above"/></g></g><g class="polarlayer"/><g class="ternarylayer"/><g class="geolayer"/><g class="funnelarealayer"/><g class="pielayer"/><g class="treemaplayer"/><g class="sunburstlayer"/><g class="glimages"/><defs id="topdefs-901a33"><g class="clips"/><clipPath id="legend901a33"><rect width="132" height="124" x="0" y="0"/></clipPath></defs><g class="layer-above"><g class="imagelayer"/><g class="shapelayer"/></g><g class="infolayer"><g class="legend" pointer-events="all" transform="translate(756.26, 100)"><rect class="bg" shape-rendering="crispEdges" width="132" height="124" x="0" y="0" style="stroke: rgb(68, 68, 68); stroke-opacity: 1; fill: rgb(17, 17, 17); fill-opacity: 1; stroke-width: 0px;"/><g class="scrollbox" transform="translate(0, 0)" clip-path="url('#legend901a33')"><g class="groups"><g class="traces" transform="translate(0, 14.5)" style="opacity: 1;"><text class="legendtext user-select-none" text-anchor="start" x="40" y="4.680000000000001" style="font-family: 'Open Sans', verdana, arial, sans-serif; font-size: 12px; fill: rgb(242, 245, 250); fill-opacity: 1; white-space: pre;">Alameda, CA</text><g class="layers" style="opacity: 1;"><g class="legendfill"/><g class="legendlines"><path class="js-line" d="M5,0h30" style="fill: none; stroke: rgb(230, 25, 75); stroke-opacity: 1; stroke-width: 2px;"/></g><g class="legendsymbols"><g class="legendpoints"/></g></g><rect class="legendtoggle" pointer-events="all" x="0" y="-9.5" width="126.609375" height="19" style="cursor: pointer; fill: rgb(0, 0, 0); fill-opacity: 0;"/></g><g class="traces" transform="translate(0, 33.5)" style="opacity: 1;"><text class="legendtext user-select-none" text-anchor="start" x="40" y="4.680000000000001" style="font-family: 'Open Sans', verdana, arial, sans-serif; font-size: 12px; fill: rgb(242, 245, 250); fill-opacity: 1; white-space: pre;">St Clair, IL</text><g class="layers" style="opacity: 1;"><g class="legendfill"/><g class="legendlines"><path class="js-line" d="M5,0h30" style="fill: none; stroke: rgb(60, 180, 75); stroke-opacity: 1; stroke-width: 2px;"/></g><g class="legendsymbols"><g class="legendpoints"/></g></g><rect class="legendtoggle" pointer-events="all" x="0" y="-9.5" width="126.609375" height="19" style="cursor: pointer; fill: rgb(0, 0, 0); fill-opacity: 0;"/></g><g class="traces" transform="translate(0, 52.5)" style="opacity: 1;"><text class="legendtext user-select-none" text-anchor="start" x="40" y="4.680000000000001" style="font-family: 'Open Sans', verdana, arial, sans-serif; font-size: 12px; fill: rgb(242, 245, 250); fill-opacity: 1; white-space: pre;">Jefferson, AR</text><g class="layers" style="opacity: 1;"><g class="legendfill"/><g class="legendlines"><path class="js-line" d="M5,0h30" style="fill: none; stroke: rgb(255, 225, 25); stroke-opacity: 1; stroke-width: 2px;"/></g><g class="legendsymbols"><g class="legendpoints"/></g></g><rect class="legendtoggle" pointer-events="all" x="0" y="-9.5" width="126.609375" height="19" style="cursor: pointer; fill: rgb(0, 0, 0); fill-opacity: 0;"/></g><g class="traces" transform="translate(0, 71.5)" style="opacity: 1;"><text class="legendtext user-select-none" text-anchor="start" x="40" y="4.680000000000001" style="font-family: 'Open Sans', verdana, arial, sans-serif; font-size: 12px; fill: rgb(242, 245, 250); fill-opacity: 1; white-space: pre;">Washington, AR</text><g class="layers" style="opacity: 1;"><g class="legendfill"/><g class="legendlines"><path class="js-line" d="M5,0h30" style="fill: none; stroke: rgb(67, 99, 216); stroke-opacity: 1; stroke-width: 2px;"/></g><g class="legendsymbols"><g class="legendpoints"/></g></g><rect class="legendtoggle" pointer-events="all" x="0" y="-9.5" width="126.609375" height="19" style="cursor: pointer; fill: rgb(0, 0, 0); fill-opacity: 0;"/></g><g class="traces" transform="translate(0, 90.5)" style="opacity: 1;"><text class="legendtext user-select-none" text-anchor="start" x="40" y="4.680000000000001" style="font-family: 'Open Sans', verdana, arial, sans-serif; font-size: 12px; fill: rgb(242, 245, 250); fill-opacity: 1; white-space: pre;">Baltimore, MD</text><g class="layers" style="opacity: 1;"><g class="legendfill"/><g class="legendlines"><path class="js-line" d="M5,0h30" style="fill: none; stroke: rgb(245, 130, 49); stroke-opacity: 1; stroke-width: 2px;"/></g><g class="legendsymbols"><g class="legendpoints"/></g></g><rect class="legendtoggle" pointer-events="all" x="0" y="-9.5" width="126.609375" height="19" style="cursor: pointer; fill: rgb(0, 0, 0); fill-opacity: 0;"/></g><g class="traces" transform="translate(0, 109.5)" style="opacity: 1;"><text class="legendtext user-select-none" text-anchor="start" x="40" y="4.680000000000001" style="font-family: 'Open Sans', verdana, arial, sans-serif; font-size: 12px; fill: rgb(242, 245, 250); fill-opacity: 1; white-space: pre;">King, WA</text><g class="layers" style="opacity: 1;"><g class="legendfill"/><g class="legendlines"><path class="js-line" d="M5,0h30" style="fill: none; stroke: rgb(145, 30, 180); stroke-opacity: 1; stroke-width: 2px;"/></g><g class="legendsymbols"><g class="legendpoints"/></g></g><rect class="legendtoggle" pointer-events="all" x="0" y="-9.5" width="126.609375" height="19" style="cursor: pointer; fill: rgb(0, 0, 0); fill-opacity: 0;"/></g></g></g><rect class="scrollbar" rx="20" ry="3" width="0" height="0" x="0" y="0" style="fill: rgb(128, 139, 164); fill-opacity: 1;"/></g><g class="g-gtitle"/><g class="g-xtitle"><text class="xtitle" x="229.175" y="410.8" text-anchor="middle" style="font-family: 'Open Sans', verdana, arial, sans-serif; font-size: 14px; fill: rgb(242, 245, 250); opacity: 1; font-weight: normal; white-space: pre;">Date</text></g><g class="g-x2title"><text class="x2title" x="593.825" y="410.8" text-anchor="middle" style="font-family: 'Open Sans', verdana, arial, sans-serif; font-size: 14px; fill: rgb(242, 245, 250); opacity: 1; font-weight: normal; white-space: pre;">Date</text></g><g class="g-ytitle"><text class="ytitle" transform="rotate(-90,34.840625,235)" x="34.840625" y="235" text-anchor="middle" style="font-family: 'Open Sans', verdana, arial, sans-serif; font-size: 14px; fill: rgb(242, 245, 250); opacity: 1; font-weight: normal; white-space: pre;">Cases</text></g><g class="g-y2title"><text class="y2title" transform="rotate(-90,398.825,235)" x="398.825" y="235" text-anchor="middle" style="font-family: 'Open Sans', verdana, arial, sans-serif; font-size: 14px; fill: rgb(242, 245, 250); opacity: 1; font-weight: normal; white-space: pre;">Deaths</text></g><g class="annotation" data-index="0" style="opacity: 1;"><g class="annotation-text-g" transform="rotate(0,229.175,89.5)"><g class="cursor-pointer" transform="translate(205, 79)"><rect class="bg" x="0.5" y="0.5" width="48" height="20" style="stroke-width: 1px; stroke: rgb(0, 0, 0); stroke-opacity: 0; fill: rgb(0, 0, 0); fill-opacity: 0;"/><text class="annotation-text" text-anchor="middle" x="24.6875" y="16" style="font-family: 'Open Sans', verdana, arial, sans-serif; font-size: 16px; fill: rgb(242, 245, 250); fill-opacity: 1; white-space: pre;">Cases</text></g></g></g><g class="annotation" data-index="1" style="opacity: 1;"><g class="annotation-text-g" transform="rotate(0,593.825,89.5)"><g class="cursor-pointer" transform="translate(566, 79)"><rect class="bg" x="0.5" y="0.5" width="54" height="20" style="stroke-width: 1px; stroke: rgb(0, 0, 0); stroke-opacity: 0; fill: rgb(0, 0, 0); fill-opacity: 0;"/><text class="annotation-text" text-anchor="middle" x="27.359375" y="16" style="font-family: 'Open Sans', verdana, arial, sans-serif; font-size: 16px; fill: rgb(242, 245, 250); fill-opacity: 1; white-space: pre;">Deaths</text></g></g></g></g></svg>