<svg class="main-svg" xmlns="http://www.w3.org/2000/svg" xmlns:xlink="http://www.w3.org/1999/xlink" width="900" height="450" style="" viewBox="0 0 900 450"><rect x="0" y="0" width="900" height="450" style="fill: rgb(17, 17, 17); fill-opacity: 1;"/><defs id="defs-122187"><g class="clips"><clipPath id="clip122187xyplot" class="plotclip"><rect width="298.35" height="270"/></clipPath><clipPath id="clip122187x2y2plot" class="plotclip"><rect width="298.34999999999997" height="270"/></clipPath><clipPath class="axesclip" id="clip122187x"><rect x="80" y="0" width="298.35" height="450"/></clipPath><clipPath class="axesclip" id="clip122187y"><rect x="0" y="100" width="900" height="270"/></clipPath><clipPath class="axesclip" id="clip122187xy"><rect x="80" y="100" width="298.35" height="270"/></clipPath><clipPath class="axesclip" id="clip122187y2"><rect x="0" y="100" width="900" height="270"/></clipPath><clipPath class="axesclip" id="clip122187xy2"><rect x="80" y="100" width="298.35" height="270"/></clipPath><clipPath class="axesclip" id="clip122187x2"><rect x="444.65000000000003" y="0" width="298.34999999999997" height="450"/></clipPath><clipPath class="axesclip" id="clip122187x2y"><rect x="444.65000000000003" y="100" width="298.34999999999997" height="270"/></clipPath><clipPath class="axesclip" id="clip122187x2y2"><rect x="444.65000000000003" y="100" width="298.34999999999997" height="270"/></clipPath></g><g class="gradients"/></defs><g class="bglayer"/><g class="layer-below"><g class="imagelayer"/><g class="shapelayer"/></g><g class="cartesianlayer"><g class="subplot xy"><g class="layer-subplot"><g class="shapelayer"/><g class="imagelayer"/></g><g class="gridlayer"><g class="x"><path class="xgrid crisp" transform="translate(130.69,0)" d="M0,100v270" style="stroke: rgb(40, 52, 66); stroke-opacity: 1; stroke-width: 1px;"/><path class="xgrid crisp" transform="translate(196.59,0)" d="M0,100v270" style="stroke: rgb(40, 52, 66); stroke-opacity: 1; stroke-width: 1px;"/><path class="xgrid crisp" transform="translate(263.21000000000004,0)" d="M0,100v270" style="stroke: rgb(40, 52, 66); stroke-opacity: 1; stroke-width: 1px;"/><path class="xgrid crisp" transform="translate(329.83000000000004,0)" d="M0,100v270" style="stroke: rgb(40, 52, 66); stroke-opacity: 1; stroke-width: 1px;"/></g><g class="y"><path class="ygrid crisp" transform="translate(0,305.87)" d="M80,0h298.35" style="stroke: rgb(40, 52, 66); stroke-opacity: 1; stroke-width: 1px;"/><path class="ygrid crisp" transform="translate(0,255.23)" d="M80,0h298.35" style="stroke: rgb(40, 52, 66); stroke-opacity: 1; stroke-width: 1px;"/><path class="ygrid crisp" transform="translate(0,204.6)" d="M80,0h298.35" style="stroke: rgb(40, 52, 66); stroke-opacity: 1; stroke-width: 1px;"/><path class="ygrid crisp" transform="translate(0,153.96)" d="M80,0h298.35" style="stroke: rgb(40, 52, 66); stroke-opacity: 1; stroke-width: 1px;"/><path class="ygrid crisp" transform="translate(0,103.33)" d="M80,0h298.35" style="stroke: rgb(40, 52, 66); stroke-opacity: 1; stroke-width: 1px;"/></g></g><g class="zerolinelayer"><path class="yzl zl crisp" transform="translate(0,356.5)" d="M80,0h298.35" style="stroke: rgb(40, 52, 66); stroke-opacity: 1; stroke-width: 2px;"/></g><path class="xlines-below"/><path class="ylines-below"/><g class="overlines-below"/><g class="xaxislayer-below"/><g class="yaxislayer-below"/><g class="overaxes-below"/><g class="plot" transform="translate(80, 100)" clip-path="url('#clip122187xyplot')"><g class="scatterlayer mlayer"><g class="trace scatter trace347229" style="stroke-miterlimit: 2; opacity: 1;"><g class="fills"/><g class="errorbars"/><g class="lines"><path class="js-line" d="M0,256.5L68.79,255.76L69.52,255.74L110.8,253.9L111.52,253.83L132.52,251.5L133.24,251.33L146.28,249.58L147,249.36L155.69,248.03L156.42,247.75L219.42,242.72L220.14,242.61L225.21,241.76L225.93,241.58L230.28,240.43L231,240.02L232.45,239.42L233.18,239.13L236.8,237.15L237.52,236.77L241.14,234.9L241.87,234.22L259.97,223.91L260.69,223.38L263.59,221.85L264.31,221.67L275.9,218.16L276.63,217.93L286.76,216.25L287.49,216.17L298.35,215.21" style="vector-effect: non-scaling-stroke; fill: none; stroke: rgb(230, 25, 75); stroke-opacity: 1; stroke-width: 2px; opacity: 1;"/></g><g class="points"/><g class="text"/></g><g class="trace scatter trace0f4cb9" style="stroke-miterlimit: 2; opacity: 1;"><g class="fills"/><g class="errorbars"/><g class="lines"><path class="js-line" d="M0,256.5L81.83,255.76L82.55,255.69L114.42,253.66L115.14,253.59L125.28,251.58L126,251.46L138.31,249.27L139.04,249.2L143.38,248.45L144.11,248.38L157.86,246.41L158.59,246.34L187.55,243.12L188.28,242.84L194.8,240.27L195.52,239.91L198.42,238.26L199.14,237.63L205.66,231.13L206.38,230.41L207.11,229.76L207.83,227.97L211.45,224.01L212.18,223.26L216.52,218.54L217.25,217.98L223.04,214.25L223.76,213.97L232.45,210.55L233.18,210.35L254.9,205.13L255.63,204.4L261.42,202.48L262.14,202.22L268.66,199.95L269.38,199.66L292.56,193.72L293.28,193.63L298.35,192.79" style="vector-effect: non-scaling-stroke; fill: none; stroke: rgb(60, 180, 75); stroke-opacity: 1; stroke-width: 2px; opacity: 1;"/></g><g class="points"/><g class="text"/></g><g class="trace scatter trace818b7e" style="stroke-miterlimit: 2; opacity: 1;"><g class="fills"/><g class="errorbars"/><g class="lines"><path class="js-line" d="M0,256.5L89.79,255.75L90.52,255.72L118.04,253.54L118.76,253.41L121.66,252.99L122.38,252.64L138.31,249.19L139.04,248.86L141.93,248.26L142.66,248.08L159.31,244.04L160.04,244.04L166.55,243.1L167.28,243.01L212.9,239.91L213.62,239.65L222.31,237.92L223.04,237.75L225.93,237.26L226.66,236.97L232.45,235.81L233.18,235.45L238.25,233.85L238.97,231.6L239.69,231.22L240.42,229.84L241.14,229.84L241.87,227.33L248.38,223.51L249.11,223.39L258.52,217.18L259.25,216.86L267.21,213.05L267.94,212.78L286.76,208.79L287.49,208.71L298.35,207.55" style="vector-effect: non-scaling-stroke; fill: none; stroke: rgb(255, 225, 25); stroke-opacity: 1; stroke-width: 2px; opacity: 1;"/></g><g class="points"/><g class="text"/></g><g class="trace scatter tracebe696b" style="stroke-miterlimit: 2; opacity: 1;"><g class="fills"/><g class="errorbars"/><g class="lines"><path class="js-line" d="M0,256.5L49.97,255.82L50.69,255.7L61.55,252.85L62.28,252.58L74.59,248.52L75.31,248.41L85.45,246.62L86.17,246.52L102.11,244.86L102.83,244.82L147.73,243.05L148.45,243.05L165.83,242.41L166.55,242.26L192.62,240.44L193.35,240.38L210,237.84L210.73,237.65L214.35,236.57L215.07,236.29L228.83,230.6L229.56,229.99L236.07,225.44L236.8,225.06L244.04,221.14L244.76,221.14L247.66,221.29L248.38,220.62L251.28,218.84L252,218.41L253.45,215.58L254.18,214.86L257.8,212.01L258.52,211.49L262.87,208.97L263.59,208.58L270.11,205.47L270.83,205.11L286.04,201.08L286.76,200.96L298.35,198.79" style="vector-effect: non-scaling-stroke; fill: none; stroke: rgb(67, 99, 216); stroke-opacity: 1; stroke-width: 2px; opacity: 1;"/></g><g class="points"/><g class="text"/></g><g class="trace scatter tracedfa552" style="stroke-miterlimit: 2; opacity: 1;"><g class="fills"/><g class="errorbars"/><g class="lines"><path class="js-line" d="M0,256.5L55.04,255.76L55.76,255.73L76.04,255.35L76.76,255.35L117.31,254.09L118.04,254.04L172.35,246.49L173.07,246.43L181.76,245.72L182.49,245.67L202.04,244.19L202.76,244.07L215.07,242.33L215.8,242.17L228.11,238.3L228.83,237.93L233.9,234.2L234.62,233.62L236.8,231.58L237.52,231.02L243.31,226.53L244.04,225.89L264.31,208.4L265.04,207.88L270.11,205.63L270.83,205.35L283.87,201.94L284.59,201.84L298.35,199.85" style="vector-effect: non-scaling-stroke; fill: none; stroke: rgb(245, 130, 49); stroke-opacity: 1; stroke-width: 2px; opacity: 1;"/></g><g class="points"/><g class="text"/></g><g class="trace scatter tracebe9614" style="stroke-miterlimit: 2; opacity: 1;"><g class="fills"/><g class="errorbars"/><g class="lines"><path class="js-line" d="M0,256.5L45.62,255.78L46.35,255.54L51.41,253.68L52.14,253.22L67.35,242.52L68.07,241.79L84.73,224.25L85.45,223.74L90.52,219.12L91.24,218.77L99.93,214.57L100.66,214.34L123.11,208.6L123.83,208.33L136.14,204.12L136.86,203.84L170.9,188.01L171.62,187.79L182.49,182.85L183.21,182.5L191.18,177.73L191.9,177.14L194.07,175.16L194.8,174.36L203.49,163.51L204.21,162.12L204.93,162.12L205.66,158.72L208.56,152.71L209.28,150.03L220.87,114.27L221.59,112.59L227.38,99.17L228.11,97.44L232.45,86.77L233.18,85.31L236.07,78.06L236.8,76.51L244.76,62.97L245.49,62.33L248.38,58.56L249.11,57.18L249.83,57.18L250.56,55.01L253.45,50.58L254.18,48.9L256.35,44.96L257.07,44.1L261.42,37.21L262.14,36.58L270.83,27.26L271.56,26.81L283.87,19.82L284.59,19.54L298.35,13.5" style="vector-effect: non-scaling-stroke; fill: none; stroke: rgb(145, 30, 180); stroke-opacity: 1; stroke-width: 2px; opacity: 1;"/></g><g class="points"/><g class="text"/></g></g></g><g class="overplot"/><path class="xlines-above crisp" d="M0,0" style="fill: none;"/><path class="ylines-above crisp" d="M0,0" style="fill: none;"/><g class="overlines-above"/><g class="xaxislayer-above"><g class="xtick"><text text-anchor="middle" x="0" y="383" transform="translate(130.69,0)" style="font-family: 'Open Sans', verdana, arial, sans-serif; font-size: 12px; fill: rgb(242, 245, 250); fill-opacity: 1; white-space: pre;">Apr 2020</text></g><g class="xtick"><text text-anchor="middle" x="0" y="383" transform="translate(196.59,0)" style="font-family: 'Open Sans', verdana, arial, sans-serif; font-size: 12px; fill: rgb(242, 245, 250); fill-opacity: 1; white-space: pre;">Jul 2020</text></g><g class="xtick"><text text-anchor="middle" x="0" y="383" transform="translate(263.21000000000004,0)" style="font-family: 'Open Sans', verdana, arial, sans-serif; font-size: 12px; fill: rgb(242, 245, 250); fill-opacity: 1; white-space: pre;">Oct 2020</text></g><g class="xtick"><text text-anchor="middle" x="0" y="383" transform="translate(329.83000000000004,0)" style="font-family: 'Open Sans', verdana, arial, sans-serif; font-size: 12px; fill: rgb(242, 245, 250); fill-opacity: 1; white-space: pre;">Jan 2021</text></g></g><g class="yaxislayer-above"><g class="ytick"><text text-anchor="end" x="79" y="4.199999999999999" transform="translate(0,356.5)" style="font-family: 'Open Sans', verdana, arial, sans-serif; font-size: 12px; fill: rgb(242, 245, 250); fill-opacity: 1; white-space: pre;">0</text></g><g class="ytick"><text text-anchor="end" x="79" y="4.199999999999999" transform="translate(0,305.87)" style="font-family: 'Open Sans', verdana, arial, sans-serif; font-size: 12px; fill: rgb(242, 245, 250); fill-opacity: 1; white-space: pre;">100k</text></g><g class="ytick"><text text-anchor="end" x="79" y="4.199999999999999" transform="translate(0,255.23)" style="font-family: 'Open Sans', verdana, arial, sans-serif; font-size: 12px; fill: rgb(242, 245, 250); fill-opacity: 1; white-space: pre;">200k</text></g><g class="ytick"><text text-anchor="end" x="79" y="4.199999999999999" transform="translate(0,204.6)" style="font-family: 'Open Sans', verdana, arial, sans-serif; font-size: 12px; fill: rgb(242, 245, 250); fill-opacity: 1; white-space: pre;">300k</text></g><g class="ytick"><text text-anchor="end" x="79" y="4.199999999999999" transform="translate(0,153.96)" style="font-family: 'Open Sans', verdana, arial, sans-serif; font-size: 12px; fill: rgb(242, 245, 250); fill-opacity: 1; white-space: pre;">400k</text></g><g class="ytick"><text text-anchor="end" x="79" y="4.199999999999999" transform="translate(0,103.33)" style="font-family: 'Open Sans', verdana, arial, sans-serif; font-size: 12px; fill: rgb(242, 245, 250); fill-opacity: 1; white-space: pre;">500k</text></g></g><g class="overaxes-above"/></g><g class="subplot x2y2"><g class="layer-subplot"><g class="shapelayer"/><g class="imagelayer"/></g><g class="gridlayer"><g class="x2"><path class="x2grid crisp" transform="translate(495.34000000000003,0)" d="M0,100v270" style="stroke: rgb(40, 52, 66); stroke-opacity: 1; stroke-width: 1px;"/><path class="x2grid crisp" transform="translate(561.24,0)" d="M0,100v270" style="stroke: rgb(40, 52, 66); stroke-opacity: 1; stroke-width: 1px;"/><path class="x2grid crisp" transform="translate(627.86,0)" d="M0,100v270" style="stroke: rgb(40, 52, 66); stroke-opacity: 1; stroke-width: 1px;"/><path class="x2grid crisp" transform="translate(694.48,0)" d="M0,100v270" style="stroke: rgb(40, 52, 66); stroke-opacity: 1; stroke-width: 1px;"/></g><g class="y2"><path class="y2grid crisp" transform="translate(0,305.11)" d="M444.65000000000003,0h298.34999999999997" style="stroke: rgb(40, 52, 66); stroke-opacity: 1; stroke-width: 1px;"/><path class="y2grid crisp" transform="translate(0,253.72)" d="M444.65000000000003,0h298.34999999999997" style="stroke: rgb(40, 52, 66); stroke-opacity: 1; stroke-width: 1px;"/><path class="y2grid crisp" transform="translate(0,202.32999999999998)" d="M444.65000000000003,0h298.34999999999997" style="stroke: rgb(40, 52, 66); stroke-opacity: 1; stroke-width: 1px;"/><path class="y2grid crisp" transform="translate(0,150.94)" d="M444.65000000000003,0h298.34999999999997" style="stroke: rgb(40, 52, 66); stroke-opacity: 1; stroke-width: 1px;"/></g></g><g class="zerolinelayer"><path class="y2zl zl crisp" transform="translate(0,356.5)" d="M444.65000000000003,0h298.34999999999997" style="stroke: rgb(40, 52, 66); stroke-opacity: 1; stroke-width: 2px;"/></g><path class="xlines-below"/><path class="ylines-below"/><g class="overlines-below"/><g class="xaxislayer-below"/><g class="yaxislayer-below"/><g class="overaxes-below"/><g class="plot" transform="translate(444.65000000000003, 100)" clip-path="url('#clip122187x2y2plot')"><g class="scatterlayer mlayer"><g class="trace scatter tracea5adcd" style="stroke-miterlimit: 2; opacity: 1;"><g class="fills"/><g class="errorbars"/><g class="lines"><path class="js-line" d="M0,256.5L60.1,255.91L60.83,255.57L76.04,254.8L76.76,254.78L89.07,254.11L89.79,254.11L111.52,253.37L112.24,253.21L161.49,249.9L162.21,249.46L163.66,248.89L164.38,248.82L169.45,248.28L170.18,247.97L173.07,247.12L173.8,246.99L189.73,245.17L190.45,245.3L199.87,244.68L200.59,244.65L216.52,243.91L217.25,243.83L234.62,242.68L235.35,242.57L238.25,242.03L238.97,241.75L242.59,241.39L243.31,240.85L247.66,240.44L248.38,240.44L249.11,240.44L249.83,239.64L253.45,239.64L254.18,238.59L254.9,238.59L255.63,237.77L264.31,236.82L265.04,234.86L276.63,229.85L277.35,229.75L280.25,229.16L280.97,228.54L282.42,227.72L283.14,227.7L285.32,227.57L286.04,226.41L288.94,225.67L289.66,225.2L294.73,224.54L295.45,223.58L298.35,223.28" style="vector-effect: non-scaling-stroke; fill: none; stroke: rgb(230, 25, 75); stroke-opacity: 1; stroke-width: 2px; opacity: 1;"/></g><g class="points"/><g class="text"/></g><g class="trace scatter trace3006bd" style="stroke-miterlimit: 2; opacity: 1;"><g class="fills"/><g class="errorbars"/><g class="lines"><path class="js-line" d="M0,256.5L76.76,255.91L77.48,255.73L131.07,251.69L131.8,251.46L134.69,250.74L135.42,250.95L147.73,248.51L148.45,248.07L160.76,245.5L161.49,245.37L170.9,244.11L171.62,244.06L190.45,242.21L191.18,242.21L203.49,240.77L204.21,240.49L214.35,236.51L215.07,236.15L217.97,234.94L218.69,233.99L221.59,231.32L222.31,230.93L225.93,228.9L226.66,228.8L228.83,227.16L229.56,226.03L231,224.82L231.73,224.61L233.18,223.56L233.9,223.04L240.42,219.58L241.14,219.58L241.87,219.58L242.59,216.24L243.31,216.24L244.04,215.44L249.11,213.69L249.83,212.82L253.45,212.02L254.18,211.28L254.9,211.28L255.63,209.76L261.42,206.78L262.14,206.75L263.59,206.03L264.31,205.39L267.21,203.46L267.94,203.36L270.83,202.49L271.56,202.13L273.73,201.46L274.45,201.2L276.63,200.43L277.35,200.43L283.14,198.51L283.87,198.38L298.35,194.52" style="vector-effect: non-scaling-stroke; fill: none; stroke: rgb(60, 180, 75); stroke-opacity: 1; stroke-width: 2px; opacity: 1;"/></g><g class="points"/><g class="text"/></g><g class="trace scatter traceaff1cd" style="stroke-miterlimit: 2; opacity: 1;"><g class="fills"/><g class="errorbars"/><g class="lines"><path class="js-line" d="M0,256.5L90.52,255.83L91.24,255.73L118.76,254.52L119.48,254.52L137.59,253.42L138.31,252.95L142.66,252.47L143.38,252.11L147.73,251.59L148.45,251.28L155.69,250.69L156.42,250.36L160.76,249.74L161.49,249.05L166.55,248.48L167.28,248.12L175.97,247.38L176.69,247.2L183.21,246.48L183.93,246.25L193.35,245.61L194.07,245.48L213.62,244.78L214.35,244.68L228.83,243.96L229.56,243.5L233.9,243.29L234.62,242.57L242.59,242.19L243.31,239.9L249.83,239.9L250.56,238.23L257.07,238.23L257.8,234.97L259.25,234.76L259.97,233.27L261.42,232.55L262.14,232.55L262.87,232.55L263.59,231.63L264.31,231.63L265.04,230.29L266.49,229.7L267.21,229.7L270.83,227.28L271.56,227.28L272.28,227.28L273,226.36L276.63,225.05L277.35,225.05L279.52,223.53L280.25,223.33L283.14,223.33L283.87,222.04L290.38,219.96L291.11,219.42L295.45,218.83L296.18,218.27L298.35,217.83" style="vector-effect: non-scaling-stroke; fill: none; stroke: rgb(255, 225, 25); stroke-opacity: 1; stroke-width: 2px; opacity: 1;"/></g><g class="points"/><g class="text"/></g><g class="trace scatter tracec3dd6c" style="stroke-miterlimit: 2; opacity: 1;"><g class="fills"/><g class="errorbars"/><g class="lines"><path class="js-line" d="M0,256.5L51.41,255.75L52.14,255.5L54.31,255.27L55.04,254.73L59.38,252.31L60.1,251.67L65.9,243.81L66.62,242.5L78.93,225.49L79.66,224.77L81.1,223.56L81.83,222.4L89.79,217.26L90.52,217.06L99.21,212.69L99.93,212.54L109.35,210.07L110.07,210.02L114.42,208.84L115.14,208.66L116.59,208.76L117.31,208.53L149.9,204.96L150.62,204.96L152.07,204.24L152.8,204.18L159.31,203.46L160.04,203.36L180.31,201.44L181.04,201.28L188.28,200.54L189,200.43L213.62,196.35L214.35,196.19L230.28,193.42L231,193.08L241.14,189.77L241.87,189.77L243.31,189.77L244.04,188.56L245.49,189.77L246.21,189.77L246.94,189.64L247.66,187.28L249.83,186.38L250.56,186.1L254.18,184.37L254.9,184.07L261.42,180.7L262.14,180.49L275.9,175.15L276.63,173.86L289.66,168.73L290.38,168.62L298.35,166.59" style="vector-effect: non-scaling-stroke; fill: none; stroke: rgb(67, 99, 216); stroke-opacity: 1; stroke-width: 2px; opacity: 1;"/></g><g class="points"/><g class="text"/></g><g class="trace scatter trace692d54" style="stroke-miterlimit: 2; opacity: 1;"><g class="fills"/><g class="errorbars"/><g class="lines"><path class="js-line" d="M0,256.5L48.52,255.78L49.24,255.7L91.97,252.9L92.69,252.9L155.69,250.74L156.42,250.51L167.28,249.74L168,249.74L170.18,248.53L170.9,249.23L189,247.33L189.73,247.33L198.42,246.61L199.14,246.53L207.11,245.91L207.83,245.68L236.8,242.91L237.52,242.29L249.11,239.21L249.83,238.28L251.28,237.31L252,237.31L253.45,236.69L254.18,235.97L255.63,234.84L256.35,233.81L257.07,233.81L257.8,232.24L259.97,230.09L260.69,229.78L266.49,226.15L267.21,224.79L272.28,220.17L273,220.06L274.45,218.65L275.18,217.83L282.42,213.69L283.14,213.64L284.59,213.28L285.32,212.61L287.49,212.07L288.21,211.89L294.01,210.33L294.73,210.3L296.18,209.68L296.9,209.68L298.35,209.55" style="vector-effect: non-scaling-stroke; fill: none; stroke: rgb(245, 130, 49); stroke-opacity: 1; stroke-width: 2px; opacity: 1;"/></g><g class="points"/><g class="text"/></g><g class="trace scatter trace4e775e" style="stroke-miterlimit: 2; opacity: 1;"><g class="fills"/><g class="errorbars"/><g class="lines"><path class="js-line" d="M0,256.5L47.79,255.78L48.52,255.47L49.97,254.93L50.69,254.06L52.14,252.88L52.86,252.21L55.04,250.1L55.76,248.48L59.38,244.04L60.1,241.67L62.28,236.97L63,234.4L64.45,232.99L65.17,230.75L68.79,222.76L69.52,221.89L72.42,213.51L73.14,211.71L74.59,210.2L75.31,207.11L84,183.55L84.73,182.27L87.62,174.61L88.35,173.09L93.42,163.92L94.14,162.92L94.86,162.51L95.59,160.76L98.48,155.95L99.21,155.16L99.93,154.77L100.66,153.46L103.55,149.27L104.28,148.86L105.73,147.22L106.45,145.91L112.24,140.87L112.97,140.2L122.38,136.35L123.11,135.91L126,134.68L126.73,134.58L132.52,132.91L133.24,132.6L146.28,129.75L147,129.72L157.86,127.02L158.59,126.87L162.93,125.97L163.66,125.81L194.07,119.31L194.8,119.03L202.76,116.46L203.49,116.13L207.11,114.74L207.83,114.12L210.73,111.6L211.45,111.45L214.35,109.29L215.07,107.54L217.25,106.05L217.97,104L221.59,98.76L222.31,97.63L224.49,95.57L225.21,93.64L227.38,90.59L228.11,88.76L236.07,75.89L236.8,73.63L238.25,72.32L238.97,70.59L240.42,68L241.14,67L243.31,62.91L244.04,62.01L246.21,58.34L246.94,57.9L250.56,52.97L251.28,51.32L258.52,41.46L259.25,41.1L262.14,37.45L262.87,36.96L271.56,28.71L272.28,28.38L277.35,24.63L278.07,24.47L278.8,24.06L279.52,22.67L280.97,22.16L281.69,21.77L286.04,18.95L286.76,18.72L290.38,16.53L291.11,16.22L295.45,14.25L296.18,13.76L298.35,13.5" style="vector-effect: non-scaling-stroke; fill: none; stroke: rgb(145, 30, 180); stroke-opacity: 1; stroke-width: 2px; opacity: 1;"/></g><g class="points"/><g class="text"/></g></g></g><g class="overplot"/><path class="xlines-above crisp" d="M0,0" style="fill: none;"/><path class="ylines-above crisp" d="M0,0" style="fill: none;"/><g class="overlines-above"/><g class="xaxislayer-above"><g class="x2tick"><text text-anchor="middle" x="0" y="383" transform="translate(495.34000000000003,0)" style="font-family: 'Open Sans', verdana, arial, sans-serif; font-size: 12px; fill: rgb(242, 245, 250); fill-opacity: 1; white-space: pre;">Apr 2020</text></g><g class="x2tick"><text text-anchor="middle" x="0" y="383" transform="translate(561.24,0)" style="font-family: 'Open Sans', verdana, arial, sans-serif; font-size: 12px; fill: rgb(242, 245, 250); fill-opacity: 1; white-space: pre;">Jul 2020</text></g><g class="x2tick"><text text-anchor="middle" x="0" y="383" transform="translate(627.86,0)" style="font-family: 'Open Sans', verdana, arial, sans-serif; font-size: 12px; fill: rgb(242, 245, 250); fill-opacity: 1; white-space: pre;">Oct 2020</text></g><g class="x2tick"><text text-anchor="middle" x="0" y="383" transform="translate(694.48,0)" style="font-family: 'Open Sans', verdana, arial, sans-serif; font-size: 12px; fill: rgb(242, 245, 250); fill-opacity: 1; white-space: pre;">Jan 2021</text></g></g><g class="yaxislayer-above"><g class="y2tick"><text text-anchor="end" x="443.65000000000003" y="4.199999999999999" transform="translate(0,356.5)" style="font-family: 'Open Sans', verdana, arial, sans-serif; font-size: 12px; fill: rgb(242, 245, 250); fill-opacity: 1; white-space: pre;">0</text></g><g class="y2tick"><text text-anchor="end" x="443.65000000000003" y="4.199999999999999" transform="translate(0,305.11)" style="font-family: 'Open Sans', verdana, arial, sans-serif; font-size: 12px; fill: rgb(242, 245, 250); fill-opacity: 1; white-space: pre;">2k</text></g><g class="y2tick"><text text-anchor="end" x="443.65000000000003" y="4.199999999999999" transform="translate(0,253.72)" style="font-family: 'Open Sans', verdana, arial, sans-serif; font-size: 12px; fill: rgb(242, 245, 250); fill-opacity: 1; white-space: pre;">4k</text></g><g class="y2tick"><text text-anchor="end" x="443.65000000000003" y="4.199999999999999" transform="translate(0,202.32999999999998)" style="font-family: 'Open Sans', verdana, arial, sans-serif; font-size: 12px; fill: rgb(242, 245, 250); fill-opacity: 1; white-space: pre;">6k</text></g><g class="y2tick"><text text-anchor="end" x="443.65000000000003" y="4.199999999999999" transform="translate(0,150.94)" style="font-family: 'Open Sans', verdana, arial, sans-serif; font-size: 12px; fill: rgb(242, 245, 250); fill-opacity: 1; white-space: pre;">8k</text></g></g><g class="overaxes-above"/></g></g><g class="polarlayer"/><g class="ternarylayer"/><g class="geolayer"/><g class="funnelarealayer"/><g class="pielayer"/><g class="treemaplayer"/><g class="sunburstlayer"/><g class="glimages"/><defs id="topdefs-122187"><g class="clips"/><clipPath id="legend122187"><rect width="132" height="124" x="0" y="0"/></clipPath></defs><g class="layer-above"><g class="imagelayer"/><g class="shapelayer"/></g><g class="infolayer"><g class="legend" pointer-events="all" transform="translate(756.26, 100)"><rect class="bg" shape-rendering="crispEdges" width="132" height="124" x="0" y="0" style="stroke: rgb(68, 68, 68); stroke-opacity: 1; fill: rgb(17, 17, 17); fill-opacity: 1; stroke-width: 0px;"/><g class="scrollbox" transform="translate(0, 0)" clip-path="url('#legend122187')"><g class="groups"><g class="traces" transform="translate(0, 14.5)" style="opacity: 1;"><text class="legendtext user-select-none" text-anchor="start" x="40" y="4.680000000000001" style="font-family: 'Open Sans', verdana, arial, sans-serif; font-size: 12px; fill: rgb(242, 245, 250); fill-opacity: 1; white-space: pre;">Alameda, CA</text><g class="layers" style="opacity: 1;"><g class="legendfill"/><g class="legendlines"><path class="js-line" d="M5,0h30" style="fill: none; stroke: rgb(230, 25, 75); stroke-opacity: 1; stroke-width: 2px;"/></g><g class="legendsymbols"><g class="legendpoints"/></g></g><rect class="legendtoggle" pointer-events="all" x="0" y="-9.5" width="126.71875" height="19" style="cursor: pointer; fill: rgb(0, 0, 0); fill-opacity: 0;"/></g><g class="traces" transform="translate(0, 33.5)" style="opacity: 1;"><text class="legendtext user-select-none" text-anchor="start" x="40" y="4.680000000000001" style="font-family: 'Open Sans', verdana, arial, sans-serif; font-size: 12px; fill: rgb(242, 245, 250); fill-opacity: 1; white-space: pre;">El Paso, TX</text><g class="layers" style="opacity: 1;"><g class="legendfill"/><g class="legendlines"><path class="js-line" d="M5,0h30" style="fill: none; stroke: rgb(60, 180, 75); stroke-opacity: 1; stroke-width: 2px;"/></g><g class="legendsymbols"><g class="legendpoints"/></g></g><rect class="legendtoggle" pointer-events="all" x="0" y="-9.5" width="126.71875" height="19" style="cursor: pointer; fill: rgb(0, 0, 0); fill-opacity: 0;"/></g><g class="traces" transform="translate(0, 52.5)" style="opacity: 1;"><text class="legendtext user-select-none" text-anchor="start" x="40" y="4.680000000000001" style="font-family: 'Open Sans', verdana, arial, sans-serif; font-size: 12px; fill: rgb(242, 245, 250); fill-opacity: 1; white-space: pre;">Fresno, CA</text><g class="layers" style="opacity: 1;"><g class="legendfill"/><g class="legendlines"><path class="js-line" d="M5,0h30" style="fill: none; stroke: rgb(255, 225, 25); stroke-opacity: 1; stroke-width: 2px;"/></g><g class="legendsymbols"><g class="legendpoints"/></g></g><rect class="legendtoggle" pointer-events="all" x="0" y="-9.5" width="126.71875" height="19" style="cursor: pointer; fill: rgb(0, 0, 0); fill-opacity: 0;"/></g><g class="traces" transform="translate(0, 71.5)" style="opacity: 1;"><text class="legendtext user-select-none" text-anchor="start" x="40" y="4.680000000000001" style="font-family: 'Open Sans', verdana, arial, sans-serif; font-size: 12px; fill: rgb(242, 245, 250); fill-opacity: 1; white-space: pre;">Middlesex, MA</text><g class="layers" style="opacity: 1;"><g class="legendfill"/><g class="legendlines"><path class="js-line" d="M5,0h30" style="fill: none; stroke: rgb(67, 99, 216); stroke-opacity: 1; stroke-width: 2px;"/></g><g class="legendsymbols"><g class="legendpoints"/></g></g><rect class="legendtoggle" pointer-events="all" x="0" y="-9.5" width="126.71875" height="19" style="cursor: pointer; fill: rgb(0, 0, 0); fill-opacity: 0;"/></g><g class="traces" transform="translate(0, 90.5)" style="opacity: 1;"><text class="legendtext user-select-none" text-anchor="start" x="40" y="4.680000000000001" style="font-family: 'Open Sans', verdana, arial, sans-serif; font-size: 12px; fill: rgb(242, 245, 250); fill-opacity: 1; white-space: pre;">Santa Clara, CA</text><g class="layers" style="opacity: 1;"><g class="legendfill"/><g class="legendlines"><path class="js-line" d="M5,0h30" style="fill: none; stroke: rgb(245, 130, 49); stroke-opacity: 1; stroke-width: 2px;"/></g><g class="legendsymbols"><g class="legendpoints"/></g></g><rect class="legendtoggle" pointer-events="all" x="0" y="-9.5" width="126.71875" height="19" style="cursor: pointer; fill: rgb(0, 0, 0); fill-opacity: 0;"/></g><g class="traces" transform="translate(0, 109.5)" style="opacity: 1;"><text class="legendtext user-select-none" text-anchor="start" x="40" y="4.680000000000001" style="font-family: 'Open Sans', verdana, arial, sans-serif; font-size: 12px; fill: rgb(242, 245, 250); fill-opacity: 1; white-space: pre;">Cook, IL</text><g class="layers" style="opacity: 1;"><g class="legendfill"/><g class="legendlines"><path class="js-line" d="M5,0h30" style="fill: none; stroke: rgb(145, 30, 180); stroke-opacity: 1; stroke-width: 2px;"/></g><g class="legendsymbols"><g class="legendpoints"/></g></g><rect class="legendtoggle" pointer-events="all" x="0" y="-9.5" width="126.71875" height="19" style="cursor: pointer; fill: rgb(0, 0, 0); fill-opacity: 0;"/></g></g></g><rect class="scrollbar" rx="20" ry="3" width="0" height="0" x="0" y="0" style="fill: rgb(128, 139, 164); fill-opacity: 1;"/></g><g class="g-gtitle"/><g class="g-xtitle"><text class="xtitle" x="229.175" y="410.8" text-anchor="middle" style="font-family: 'Open Sans', verdana, arial, sans-serif; font-size: 14px; fill: rgb(242, 245, 250); opacity: 1; font-weight: normal; white-space: pre;">Date</text></g><g class="g-x2title"><text class="x2title" x="593.825" y="410.8" text-anchor="middle" style="font-family: 'Open Sans', verdana, arial, sans-serif; font-size: 14px; fill: rgb(242, 245, 250); opacity: 1; font-weight: normal; white-space: pre;">Date</text></g><g class="g-ytitle"><text class="ytitle" transform="rotate(-90,28.168750000000003,235)" x="28.168750000000003" y="235" text-anchor="middle" style="font-family: 'Open Sans', verdana, arial, sans-serif; font-size: 14px; fill: rgb(242, 245, 250); opacity: 1; font-weight: normal; white-space: pre;">Cases</text></g><g class="g-y2title"><text class="y2title" transform="rotate(-90,406.16875,235)" x="406.16875" y="235" text-anchor="middle" style="font-family: 'Open Sans', verdana, arial, sans-serif; font-size: 14px; fill: rgb(242, 245, 250); opacity: 1; font-weight: normal; white-space: pre;">Deaths</text></g><g class="annotation" data-index="0" style="opacity: 1;"><g class="annotation-text-g" transform="rotate(0,229.175,89.5)"><g class="cursor-pointer" transform="translate(205, 79)"><rect class="bg" x="0.5" y="0.5" width="48" height="20" style="stroke-width: 1px; stroke: rgb(0, 0, 0); stroke-opacity: 0; fill: rgb(0, 0, 0); fill-opacity: 0;"/><text class="annotation-text" text-anchor="middle" x="24.6875" y="16" style="font-family: 'Open Sans', verdana, arial, sans-serif; font-size: 16px; fill: rgb(242, 245, 250); fill-opacity: 1; white-space: pre;">Cases</text></g></g></g><g class="annotation" data-index="1" style="opacity: 1;"><g class="annotation-text-g" transform="rotate(0,593.825,89.5)"><g class="cursor-pointer" transform="translate(566, 79)"><rect class="bg" x="0.5" y="0.5" width="54" height="20" style="stroke-width: 1px; stroke: rgb(0, 0, 0); stroke-opacity: 0; fill: rgb(0, 0, 0); fill-opacity: 0;"/><text class="annotation-text" text-anchor="middle" x="27.359375" y="16" style="font-family: 'Open Sans', verdana, arial, sans-serif; font-size: 16px; fill: rgb(242, 245, 250); fill-opacity: 1; white-space: pre;">Deaths</text></g></g></g></g></svg>