<svg class="main-svg" xmlns="http://www.w3.org/2000/svg" xmlns:xlink="http://www.w3.org/1999/xlink" width="900" height="450" style="" viewBox="0 0 900 450"><rect x="0" y="0" width="900" height="450" style="fill: rgb(17, 17, 17); fill-opacity: 1;"/><defs id="defs-cd9820"><g class="clips"><clipPath id="clipcd9820xyplot" class="plotclip"><rect width="289.35" height="270"/></clipPath><clipPath id="clipcd9820x2y2plot" class="plotclip"><rect width="289.34999999999997" height="270"/></clipPath><clipPath class="axesclip" id="clipcd9820x"><rect x="80" y="0" width="289.35" height="450"/></clipPath><clipPath class="axesclip" id="clipcd9820y"><rect x="0" y="100" width="900" height="270"/></clipPath><clipPath class="axesclip" id="clipcd9820xy"><rect x="80" y="100" width="289.35" height="270"/></clipPath><clipPath class="axesclip" id="clipcd9820y2"><rect x="0" y="100" width="900" height="270"/></clipPath><clipPath class="axesclip" id="clipcd9820xy2"><rect x="80" y="100" width="289.35" height="270"/></clipPath><clipPath class="axesclip" id="clipcd9820x2"><rect x="433.65000000000003" y="0" width="289.34999999999997" height="450"/></clipPath><clipPath class="axesclip" id="clipcd9820x2y"><rect x="433.65000000000003" y="100" width="289.34999999999997" height="270"/></clipPath><clipPath class="axesclip" id="clipcd9820x2y2"><rect x="433.65000000000003" y="100" width="289.34999999999997" height="270"/></clipPath></g><g class="gradients"/></defs><g class="bglayer"/><g class="layer-below"><g class="imagelayer"/><g class="shapelayer"/></g><g class="cartesianlayer"><g class="subplot xy"><g class="layer-subplot"><g class="shapelayer"/><g class="imagelayer"/></g><g class="gridlayer"><g class="x"><path class="xgrid crisp" transform="translate(123.4,0)" d="M0,100v270" style="stroke: rgb(40, 52, 66); stroke-opacity: 1; stroke-width: 1px;"/><path class="xgrid crisp" transform="translate(191.29000000000002,0)" d="M0,100v270" style="stroke: rgb(40, 52, 66); stroke-opacity: 1; stroke-width: 1px;"/><path class="xgrid crisp" transform="translate(259.16999999999996,0)" d="M0,100v270" style="stroke: rgb(40, 52, 66); stroke-opacity: 1; stroke-width: 1px;"/><path class="xgrid crisp" transform="translate(328.16999999999996,0)" d="M0,100v270" style="stroke: rgb(40, 52, 66); stroke-opacity: 1; stroke-width: 1px;"/></g><g class="y"><path class="ygrid crisp" transform="translate(0,314.02)" d="M80,0h289.35" style="stroke: rgb(40, 52, 66); stroke-opacity: 1; stroke-width: 1px;"/><path class="ygrid crisp" transform="translate(0,271.53999999999996)" d="M80,0h289.35" style="stroke: rgb(40, 52, 66); stroke-opacity: 1; stroke-width: 1px;"/><path class="ygrid crisp" transform="translate(0,229.06)" d="M80,0h289.35" style="stroke: rgb(40, 52, 66); stroke-opacity: 1; stroke-width: 1px;"/><path class="ygrid crisp" transform="translate(0,186.57999999999998)" d="M80,0h289.35" style="stroke: rgb(40, 52, 66); stroke-opacity: 1; stroke-width: 1px;"/><path class="ygrid crisp" transform="translate(0,144.1)" d="M80,0h289.35" style="stroke: rgb(40, 52, 66); stroke-opacity: 1; stroke-width: 1px;"/><path class="ygrid crisp" transform="translate(0,101.62)" d="M80,0h289.35" style="stroke: rgb(40, 52, 66); stroke-opacity: 1; stroke-width: 1px;"/></g></g><g class="zerolinelayer"><path class="yzl zl crisp" transform="translate(0,356.5)" d="M80,0h289.35" style="stroke: rgb(40, 52, 66); stroke-opacity: 1; stroke-width: 2px;"/></g><path class="xlines-below"/><path class="ylines-below"/><g class="overlines-below"/><g class="xaxislayer-below"/><g class="yaxislayer-below"/><g class="overaxes-below"/><g class="plot" transform="translate(80, 100)" clip-path="url('#clipcd9820xyplot')"><g class="scatterlayer mlayer"><g class="trace scatter trace5387c9" style="stroke-miterlimit: 2; opacity: 1;"><g class="fills"/><g class="errorbars"/><g class="lines"><path class="js-line" d="M0,256.5L71.22,255.81L72.34,255.57L102.39,250.77L103.5,250.55L126.87,246.73L127.98,246.51L138,244.29L139.11,243.82L163.59,237.24L164.71,236.8L169.16,235.23L170.27,234.67L179.17,230.35L180.29,229.38L182.51,228.65L183.63,227.38L185.85,227.24L186.96,225.72L192.53,222.62L193.64,221.15L203.66,214.58L204.77,213.11L210.34,210.74L211.45,209.22L212.56,209.22L213.67,207.72L214.79,207.55L215.9,206.18L220.35,204.95L221.46,204.95L222.58,200.43L223.69,200.35L227.03,196.05L228.14,194.66L229.25,194.66L230.37,192.26L231.48,192.23L232.59,190.92L235.93,186.54L237.04,185.59L239.27,185.42L240.38,183.12L242.61,181.65L243.72,180.69L244.83,180.69L245.95,179.87L248.17,178.15L249.29,177.08L254.85,174.3L255.96,174.3L258.19,172.77L259.3,172.31L262.64,171.45L263.75,171.13L265.98,170.85L267.09,169.99L273.77,167.5L274.88,167.17L280.45,165.66L281.56,165.35L289.35,163.31" style="vector-effect: non-scaling-stroke; fill: none; stroke: rgb(230, 25, 75); stroke-opacity: 1; stroke-width: 2px; opacity: 1;"/></g><g class="points"/><g class="text"/></g><g class="trace scatter traceb041a8" style="stroke-miterlimit: 2; opacity: 1;"><g class="fills"/><g class="errorbars"/><g class="lines"><path class="js-line" d="M0,256.5L76.79,255.79L77.9,255.51L87.92,254.67L89.03,254.61L124.64,252.58L125.76,252.41L138,251.46L139.11,251.42L149.13,250.57L150.24,250.22L158.03,248.25L159.14,247.57L164.71,244.24L165.82,243.11L169.16,240.13L170.27,239.37L173.61,234.84L174.72,232.23L180.29,225.71L181.4,223.8L184.74,219.29L185.85,218.13L200.32,198.28L201.43,197.35L209.22,190.48L210.34,189.38L213.67,185.97L214.79,185.24L219.24,182.76L220.35,181.99L224.8,179.6L225.92,179.11L239.27,173.76L240.38,173.57L270.43,164.91L271.54,164.66L289.35,159.55" style="vector-effect: non-scaling-stroke; fill: none; stroke: rgb(60, 180, 75); stroke-opacity: 1; stroke-width: 2px; opacity: 1;"/></g><g class="points"/><g class="text"/></g><g class="trace scatter trace097c0c" style="stroke-miterlimit: 2; opacity: 1;"><g class="fills"/><g class="errorbars"/><g class="lines"><path class="js-line" d="M0,256.5L74.56,255.8L75.68,255.55L81.24,254.84L82.35,254.62L91.26,253.36L92.37,253.03L103.5,252.17L104.61,252.15L159.14,249.21L160.26,249.05L168.05,248.11L169.16,246.97L173.61,245.17L174.72,245.17L175.84,245.17L176.95,243.74L180.29,241.38L181.4,241.38L183.63,241.38L184.74,237.83L193.64,231.28L194.75,230.27L200.32,225.38L201.43,223.85L207,218.68L208.11,218.19L210.34,216.08L211.45,215.45L214.79,213.74L215.9,213.5L218.13,212.98L219.24,211.71L220.35,210.64L221.46,210.64L222.58,210.64L223.69,205.35L225.92,203.49L227.03,200.36L228.14,198.66L229.25,198.66L230.37,198.66L231.48,195.64L235.93,191.73L237.04,191.73L238.16,191.73L239.27,187.13L241.5,185.38L242.61,184.67L243.72,183.65L244.83,183.65L245.95,183.65L247.06,179.81L251.51,176.58L252.62,176.58L253.74,176.58L254.85,174.32L258.19,172.95L259.3,171.27L261.53,171.27L262.64,169.69L264.87,168.74L265.98,167.46L268.21,166.56L269.32,166.56L271.54,163.89L272.66,163.59L276,162.27L277.11,162.27L279.33,160.54L280.45,160.27L283.79,159.41L284.9,159.41L287.12,157.25L288.24,157.01L289.35,156.57" style="vector-effect: non-scaling-stroke; fill: none; stroke: rgb(255, 225, 25); stroke-opacity: 1; stroke-width: 2px; opacity: 1;"/></g><g class="points"/><g class="text"/></g><g class="trace scatter trace02fffc" style="stroke-miterlimit: 2; opacity: 1;"><g class="fills"/><g class="errorbars"/><g class="lines"><path class="js-line" d="M0,256.5L75.68,256.03L76.79,255.72L91.26,252.35L92.37,252.35L96.82,251.32L97.93,251.04L102.39,249.67L103.5,249.42L117.97,245.62L119.08,245.33L121.3,243.91L122.42,243.69L130.21,241.24L131.32,240.75L134.66,238.89L135.77,238.17L139.11,237.1L140.22,236.21L158.03,226.87L159.14,226.08L163.59,222.46L164.71,220.59L169.16,216.73L170.27,213.98L173.61,208.54L174.72,208.54L176.95,206.39L178.06,203.19L180.29,200.63L181.4,198.4L182.51,198.4L183.63,193.11L185.85,188.82L186.96,186.04L190.3,176.16L191.42,175.6L192.53,173.65L193.64,169.6L194.75,165.3L195.87,165.3L196.98,165.3L198.09,156.39L200.32,154.13L201.43,150.01L205.88,139.45L207,137.59L210.34,121.89L211.45,121.89L214.79,116.4L215.9,114.48L218.13,111.06L219.24,109.37L223.69,103.27L224.8,97.98L227.03,91.85L228.14,89.24L230.37,81.8L231.48,79.93L238.16,65.19L239.27,64.29L244.83,56.23L245.95,55.26L249.29,51.55L250.4,51.55L251.51,49.98L252.62,46.97L254.85,45.41L255.96,45.41L261.53,41.13L262.64,41.09L267.09,36.66L268.21,33.6L270.43,32.85L271.54,31.89L274.88,28.51L276,25.47L278.22,25.06L279.33,23.5L283.79,18.56L284.9,17.44L288.24,15.11L289.35,13.5" style="vector-effect: non-scaling-stroke; fill: none; stroke: rgb(67, 99, 216); stroke-opacity: 1; stroke-width: 2px; opacity: 1;"/></g><g class="points"/><g class="text"/></g><g class="trace scatter tracef20cff" style="stroke-miterlimit: 2; opacity: 1;"><g class="fills"/><g class="errorbars"/><g class="lines"><path class="js-line" d="M0,256.5L75.68,255.84L76.79,255.67L114.63,252.21L115.74,252.08L145.79,248.72L146.9,248.21L156.92,246.15L158.03,246L165.82,244.4L166.93,244.05L171.38,243.19L172.5,242.75L186.96,238.2L188.08,237.61L191.42,236.54L192.53,236.25L198.09,233.67L199.21,232.6L202.54,230.09L203.66,228.47L210.34,220.88L211.45,218.86L213.67,217.16L214.79,216.66L225.92,208.29L227.03,207.02L231.48,203.77L232.59,203.11L243.72,195.67L244.83,194.92L263.75,184.88L264.87,184.59L273.77,179.19L274.88,178.19L279.33,176.37L280.45,174.29L287.12,170.1L288.24,169.69L289.35,169.01" style="vector-effect: non-scaling-stroke; fill: none; stroke: rgb(245, 130, 49); stroke-opacity: 1; stroke-width: 2px; opacity: 1;"/></g><g class="points"/><g class="text"/></g><g class="trace scatter trace9add8a" style="stroke-miterlimit: 2; opacity: 1;"><g class="fills"/><g class="errorbars"/><g class="lines"><path class="js-line" d="M0,256.5L72.34,255.85L73.45,255.56L82.35,253.96L83.47,253.76L104.61,248.69L105.72,248.25L109.06,247.09L110.18,246.13L121.3,240.46L122.42,240.01L132.43,236.14L133.55,235.75L145.79,231.3L146.9,231.03L155.8,227.86L156.92,227.43L166.93,223.82L168.05,223.39L174.72,219.57L175.84,218.95L180.29,216.83L181.4,214.76L188.08,209.25L189.19,207.93L205.88,190.45L207,189.88L210.34,187.21L211.45,185.86L214.79,183.83L215.9,183.2L223.69,177.98L224.8,177.07L228.14,174.57L229.25,173.93L235.93,170.2L237.04,169.66L241.5,167.49L242.61,166.73L255.96,156.77L257.08,155.55L268.21,146.71L269.32,146.15L284.9,137.5L286.01,137L289.35,134.75" style="vector-effect: non-scaling-stroke; fill: none; stroke: rgb(145, 30, 180); stroke-opacity: 1; stroke-width: 2px; opacity: 1;"/></g><g class="points"/><g class="text"/></g></g></g><g class="overplot"/><path class="xlines-above crisp" d="M0,0" style="fill: none;"/><path class="ylines-above crisp" d="M0,0" style="fill: none;"/><g class="overlines-above"/><g class="xaxislayer-above"><g class="xtick"><text text-anchor="middle" x="0" y="383" transform="translate(123.4,0)" style="font-family: 'Open Sans', verdana, arial, sans-serif; font-size: 12px; fill: rgb(242, 245, 250); fill-opacity: 1; white-space: pre;">Mar 2020</text></g><g class="xtick"><text text-anchor="middle" x="0" y="383" transform="translate(191.29000000000002,0)" style="font-family: 'Open Sans', verdana, arial, sans-serif; font-size: 12px; fill: rgb(242, 245, 250); fill-opacity: 1; white-space: pre;">May 2020</text></g><g class="xtick"><text text-anchor="middle" x="0" y="383" transform="translate(259.16999999999996,0)" style="font-family: 'Open Sans', verdana, arial, sans-serif; font-size: 12px; fill: rgb(242, 245, 250); fill-opacity: 1; white-space: pre;">Jul 2020</text></g><g class="xtick"><text text-anchor="middle" x="0" y="383" transform="translate(328.16999999999996,0)" style="font-family: 'Open Sans', verdana, arial, sans-serif; font-size: 12px; fill: rgb(242, 245, 250); fill-opacity: 1; white-space: pre;">Sep 2020</text></g></g><g class="yaxislayer-above"><g class="ytick"><text text-anchor="end" x="79" y="4.199999999999999" transform="translate(0,356.5)" style="font-family: 'Open Sans', verdana, arial, sans-serif; font-size: 12px; fill: rgb(242, 245, 250); fill-opacity: 1; white-space: pre;">0</text></g><g class="ytick"><text text-anchor="end" x="79" y="4.199999999999999" transform="translate(0,314.02)" style="font-family: 'Open Sans', verdana, arial, sans-serif; font-size: 12px; fill: rgb(242, 245, 250); fill-opacity: 1; white-space: pre;">10k</text></g><g class="ytick"><text text-anchor="end" x="79" y="4.199999999999999" transform="translate(0,271.53999999999996)" style="font-family: 'Open Sans', verdana, arial, sans-serif; font-size: 12px; fill: rgb(242, 245, 250); fill-opacity: 1; white-space: pre;">20k</text></g><g class="ytick"><text text-anchor="end" x="79" y="4.199999999999999" transform="translate(0,229.06)" style="font-family: 'Open Sans', verdana, arial, sans-serif; font-size: 12px; fill: rgb(242, 245, 250); fill-opacity: 1; white-space: pre;">30k</text></g><g class="ytick"><text text-anchor="end" x="79" y="4.199999999999999" transform="translate(0,186.57999999999998)" style="font-family: 'Open Sans', verdana, arial, sans-serif; font-size: 12px; fill: rgb(242, 245, 250); fill-opacity: 1; white-space: pre;">40k</text></g><g class="ytick"><text text-anchor="end" x="79" y="4.199999999999999" transform="translate(0,144.1)" style="font-family: 'Open Sans', verdana, arial, sans-serif; font-size: 12px; fill: rgb(242, 245, 250); fill-opacity: 1; white-space: pre;">50k</text></g><g class="ytick"><text text-anchor="end" x="79" y="4.199999999999999" transform="translate(0,101.62)" style="font-family: 'Open Sans', verdana, arial, sans-serif; font-size: 12px; fill: rgb(242, 245, 250); fill-opacity: 1; white-space: pre;">60k</text></g></g><g class="overaxes-above"/></g><g class="subplot x2y2"><g class="layer-subplot"><g class="shapelayer"/><g class="imagelayer"/></g><g class="gridlayer"><g class="x2"><path class="x2grid crisp" transform="translate(477.05,0)" d="M0,100v270" style="stroke: rgb(40, 52, 66); stroke-opacity: 1; stroke-width: 1px;"/><path class="x2grid crisp" transform="translate(544.94,0)" d="M0,100v270" style="stroke: rgb(40, 52, 66); stroke-opacity: 1; stroke-width: 1px;"/><path class="x2grid crisp" transform="translate(612.82,0)" d="M0,100v270" style="stroke: rgb(40, 52, 66); stroke-opacity: 1; stroke-width: 1px;"/><path class="x2grid crisp" transform="translate(681.82,0)" d="M0,100v270" style="stroke: rgb(40, 52, 66); stroke-opacity: 1; stroke-width: 1px;"/></g><g class="y2"><path class="y2grid crisp" transform="translate(0,306.6)" d="M433.65000000000003,0h289.34999999999997" style="stroke: rgb(40, 52, 66); stroke-opacity: 1; stroke-width: 1px;"/><path class="y2grid crisp" transform="translate(0,256.71000000000004)" d="M433.65000000000003,0h289.34999999999997" style="stroke: rgb(40, 52, 66); stroke-opacity: 1; stroke-width: 1px;"/><path class="y2grid crisp" transform="translate(0,206.81)" d="M433.65000000000003,0h289.34999999999997" style="stroke: rgb(40, 52, 66); stroke-opacity: 1; stroke-width: 1px;"/><path class="y2grid crisp" transform="translate(0,156.91)" d="M433.65000000000003,0h289.34999999999997" style="stroke: rgb(40, 52, 66); stroke-opacity: 1; stroke-width: 1px;"/><path class="y2grid crisp" transform="translate(0,107.01)" d="M433.65000000000003,0h289.34999999999997" style="stroke: rgb(40, 52, 66); stroke-opacity: 1; stroke-width: 1px;"/></g></g><g class="zerolinelayer"><path class="y2zl zl crisp" transform="translate(0,356.5)" d="M433.65000000000003,0h289.34999999999997" style="stroke: rgb(40, 52, 66); stroke-opacity: 1; stroke-width: 2px;"/></g><path class="xlines-below"/><path class="ylines-below"/><g class="overlines-below"/><g class="xaxislayer-below"/><g class="yaxislayer-below"/><g class="overaxes-below"/><g class="plot" transform="translate(433.65000000000003, 100)" clip-path="url('#clipcd9820x2y2plot')"><g class="scatterlayer mlayer"><g class="trace scatter trace3633cd" style="stroke-miterlimit: 2; opacity: 1;"><g class="fills"/><g class="errorbars"/><g class="lines"><path class="js-line" d="M0,256.5L70.11,256L71.22,255.5L76.79,254.75L77.9,254.5L89.03,251.26L90.14,250.76L92.37,250.76L93.48,247.52L95.71,246.77L96.82,246.27L103.5,244.52L104.61,243.53L107.95,242.78L109.06,242.28L112.4,240.78L113.51,240.78L116.85,240.03L117.97,239.78L120.19,238.79L121.3,238.79L123.53,238.04L124.64,237.54L127.98,235.79L129.09,235.79L131.32,235.04L132.43,234.55L136.88,233.3L138,233.3L145.79,232.55L146.9,232.3L149.13,232.3L150.24,231.3L154.69,231.05L155.8,230.3L158.03,229.31L159.14,229.31L161.37,228.56L162.48,228.56L164.71,227.31L165.82,227.06L170.27,226.56L171.38,226.06L173.61,224.07L174.72,224.07L176.95,223.32L178.06,222.82L184.74,221.57L185.85,221.57L190.3,219.58L191.42,219.58L192.53,219.58L193.64,218.58L195.87,218.08L196.98,216.33L200.32,216.08L201.43,214.84L204.77,212.09L205.88,212.09L210.34,211.34L211.45,211.09L212.56,211.09L213.67,209.35L217.01,208.6L218.13,208.35L221.46,208.35L222.58,205.36L224.8,205.36L225.92,203.61L228.14,201.86L229.25,201.86L233.71,199.62L234.82,198.87L238.16,198.12L239.27,198.12L241.5,195.87L242.61,195.63L244.83,194.88L245.95,192.38L248.17,192.38L249.29,188.14L250.4,182.9L251.51,182.65L253.74,181.9L254.85,181.65L258.19,180.91L259.3,176.66L260.42,176.66L261.53,173.67L262.64,173.42L263.75,167.68L264.87,167.68L265.98,165.44L268.21,163.19L269.32,163.19L270.43,163.19L271.54,159.2L276,155.21L277.11,155.21L279.33,154.71L280.45,153.71L281.56,151.72L282.67,151.72L283.79,150.47L284.9,150.47L287.12,149.97L288.24,146.73L289.35,146.73" style="vector-effect: non-scaling-stroke; fill: none; stroke: rgb(230, 25, 75); stroke-opacity: 1; stroke-width: 2px; opacity: 1;"/></g><g class="points"/><g class="text"/></g><g class="trace scatter traceef0dd7" style="stroke-miterlimit: 2; opacity: 1;"><g class="fills"/><g class="errorbars"/><g class="lines"><path class="js-line" d="M0,256.5L72.34,256.25L73.45,255.5L80.13,254.75L81.24,254.75L92.37,253.01L93.48,253.01L99.05,252.51L100.16,252.01L103.5,250.51L104.61,250.51L106.84,250.26L107.95,248.77L112.4,246.27L113.51,246.27L115.74,245.52L116.85,244.03L119.08,241.78L120.19,241.78L141.34,236.54L142.45,236.04L145.79,235.79L146.9,234.05L149.13,233.8L150.24,232.8L153.58,232.8L154.69,231.8L161.37,231.05L162.48,229.8L165.82,228.31L166.93,228.06L169.16,227.31L170.27,224.32L173.61,221.32L174.72,219.33L175.84,218.08L176.95,218.08L179.17,213.59L180.29,211.59L182.51,210.59L183.63,207.1L184.74,206.85L185.85,205.11L186.96,204.36L188.08,201.36L189.19,200.86L190.3,199.37L191.42,199.37L192.53,197.62L194.75,187.14L195.87,182.9L196.98,181.65L198.09,179.16L199.21,178.16L200.32,175.92L202.54,171.18L203.66,165.69L209.22,162.19L210.34,156.71L212.56,148.72L213.67,147.47L215.9,146.23L217.01,141.74L220.35,136.5L221.46,132.51L223.69,131.76L224.8,128.51L228.14,121.53L229.25,120.78L230.37,119.78L231.48,117.29L234.82,110.05L235.93,109.05L238.16,107.06L239.27,103.81L240.38,99.32L241.5,98.08L244.83,94.33L245.95,94.33L248.17,91.09L249.29,90.59L251.51,89.59L252.62,89.09L254.85,88.6L255.96,87.35L257.08,83.61L258.19,82.61L262.64,81.61L263.75,79.36L267.09,76.87L268.21,76.62L269.32,76.62L270.43,74.87L271.54,74.62L272.66,72.88L276,70.88L277.11,70.88L278.22,70.88L279.33,68.89L281.56,68.14L282.67,67.14L284.9,66.14L286.01,66.14L289.35,62.9" style="vector-effect: non-scaling-stroke; fill: none; stroke: rgb(60, 180, 75); stroke-opacity: 1; stroke-width: 2px; opacity: 1;"/></g><g class="points"/><g class="text"/></g><g class="trace scatter trace8f3e39" style="stroke-miterlimit: 2; opacity: 1;"><g class="fills"/><g class="errorbars"/><g class="lines"><path class="js-line" d="M0,256.5L66.77,255.75L67.89,255.5L76.79,254.75L77.9,254.25L81.24,254.01L82.35,252.51L89.03,250.01L90.14,250.01L101.27,247.52L102.39,246.27L113.51,246.02L114.63,244.77L123.53,244.03L124.64,243.78L126.87,243.03L127.98,243.03L133.55,242.53L134.66,242.53L152.47,241.78L153.58,241.28L162.48,240.78L163.59,240.03L183.63,239.29L184.74,238.04L191.42,235.79L192.53,235.79L193.64,233.8L194.75,233.55L198.09,232.55L199.21,232.55L203.66,232.05L204.77,230.8L205.88,229.56L207,229.56L210.34,225.06L211.45,224.82L213.67,221.07L214.79,221.07L219.24,217.83L220.35,216.33L222.58,216.33L223.69,212.34L224.8,211.84L225.92,210.1L228.14,206.85L229.25,206.85L230.37,206.85L231.48,202.11L232.59,201.86L233.71,199.12L234.82,199.12L235.93,198.12L238.16,198.12L239.27,195.13L243.72,188.14L244.83,188.14L245.95,188.14L247.06,183.4L248.17,182.65L249.29,180.66L251.51,174.92L252.62,174.92L253.74,174.92L254.85,173.67L257.08,171.92L258.19,170.18L260.42,169.18L261.53,169.18L265.98,163.94L267.09,162.94L269.32,162.94L270.43,160.95L272.66,156.95L273.77,156.21L276,155.21L277.11,155.21L281.56,150.22L282.67,149.22L286.01,148.72L287.12,147.47L289.35,144.98" style="vector-effect: non-scaling-stroke; fill: none; stroke: rgb(255, 225, 25); stroke-opacity: 1; stroke-width: 2px; opacity: 1;"/></g><g class="points"/><g class="text"/></g><g class="trace scatter trace0e922f" style="stroke-miterlimit: 2; opacity: 1;"><g class="fills"/><g class="errorbars"/><g class="lines"><path class="js-line" d="M0,256.5L75.68,255.75L76.79,255L79.01,254.5L80.13,253.26L83.47,252.51L84.58,252.26L87.92,250.26L89.03,250.26L90.14,248.77L91.26,248.77L92.37,248.77L93.48,246.77L94.6,244.77L95.71,244.77L96.82,242.28L97.93,242.28L99.05,241.53L100.16,239.78L103.5,236.54L104.61,236.04L107.95,235.29L109.06,234.3L112.4,232.3L113.51,232.3L114.63,232.3L115.74,231.3L121.3,228.06L122.42,227.81L123.53,226.56L124.64,222.07L125.76,221.82L126.87,219.08L127.98,217.83L129.09,217.83L132.43,217.08L133.55,215.58L135.77,212.59L136.88,212.59L139.11,212.59L140.22,210.84L143.56,205.6L144.67,205.6L145.79,205.6L146.9,204.61L149.13,204.11L150.24,202.36L151.35,200.61L152.47,200.61L156.92,199.87L158.03,199.62L165.82,199.12L166.93,198.37L170.27,198.12L171.38,195.38L173.61,194.63L174.72,194.63L178.06,193.38L179.17,192.13L181.4,189.39L182.51,189.39L185.85,188.64L186.96,183.4L188.08,180.66L189.19,180.66L192.53,179.91L193.64,179.41L196.98,179.16L198.09,174.67L200.32,174.42L201.43,173.42L202.54,172.42L203.66,167.18L204.77,163.69L205.88,162.69L207,160.95L208.11,160.7L210.34,155.96L211.45,155.96L213.67,152.46L214.79,152.46L215.9,152.21L217.01,137.49L219.24,134.25L220.35,132.51L221.46,131.26L222.58,120.28L224.8,119.53L225.92,118.03L228.14,116.54L229.25,114.79L231.48,114.79L232.59,102.82L235.93,99.57L237.04,84.1L239.27,83.86L240.38,83.11L242.61,78.12L243.72,77.87L247.06,77.87L248.17,72.88L249.29,71.13L250.4,71.13L251.51,70.88L252.62,65.64L255.96,65.64L257.08,59.16L259.3,56.91L260.42,53.42L261.53,48.93L262.64,48.93L265.98,47.18L267.09,42.44L268.21,29.97L269.32,29.97L272.66,29.97L273.77,27.47L276,25.72L277.11,25.72L278.22,25.72L279.33,18.99L281.56,18.24L282.67,16.49L286.01,16.49L287.12,15.5L288.24,15.25L289.35,13.5" style="vector-effect: non-scaling-stroke; fill: none; stroke: rgb(67, 99, 216); stroke-opacity: 1; stroke-width: 2px; opacity: 1;"/></g><g class="points"/><g class="text"/></g><g class="trace scatter traceba50e2" style="stroke-miterlimit: 2; opacity: 1;"><g class="fills"/><g class="errorbars"/><g class="lines"><path class="js-line" d="M0,256.5L83.47,256.25L84.58,255L91.26,253.26L92.37,252.26L99.05,251.26L100.16,251.26L106.84,250.51L107.95,250.26L111.29,249.51L112.4,249.51L116.85,249.26L117.97,249.26L122.42,249.02L123.53,249.02L138,246.52L139.11,246.52L150.24,244.28L151.35,244.28L168.05,243.53L169.16,243.03L189.19,242.28L190.3,241.78L192.53,241.28L193.64,240.03L194.75,238.79L195.87,236.29L200.32,235.54L201.43,234.79L205.88,233.55L207,233.55L210.34,231.8L211.45,231.8L215.9,230.3L217.01,230.05L222.58,227.81L223.69,227.81L230.37,226.81L231.48,226.81L250.4,222.57L251.51,222.07L253.74,214.59L254.85,214.59L264.87,212.34L265.98,211.59L269.32,210.84L270.43,210.1L271.54,209.35L272.66,203.36L277.11,201.61L278.22,201.61L279.33,201.61L280.45,197.62L282.67,197.37L283.79,195.87L286.01,195.87L287.12,194.13L289.35,192.38" style="vector-effect: non-scaling-stroke; fill: none; stroke: rgb(245, 130, 49); stroke-opacity: 1; stroke-width: 2px; opacity: 1;"/></g><g class="points"/><g class="text"/></g><g class="trace scatter tracef2600f" style="stroke-miterlimit: 2; opacity: 1;"><g class="fills"/><g class="errorbars"/><g class="lines"><path class="js-line" d="M0,256.5L76.79,255.75L77.9,255.5L90.14,253.01L91.26,253.01L93.48,251.76L94.6,251.76L97.93,249.26L99.05,247.77L101.27,246.02L102.39,245.02L106.84,242.28L107.95,241.03L109.06,238.79L110.18,238.29L115.74,234.79L116.85,231.8L117.97,229.8L119.08,229.56L122.42,225.56L123.53,222.07L124.64,219.58L125.76,219.08L126.87,217.58L127.98,214.34L129.09,214.09L130.21,212.34L132.43,206.6L133.55,205.36L136.88,199.62L138,197.37L140.22,195.87L141.34,193.38L144.67,191.13L145.79,188.89L149.13,183.4L150.24,182.9L154.69,180.91L155.8,178.41L159.14,174.42L160.26,174.42L164.71,171.18L165.82,169.68L166.93,167.43L168.05,167.18L169.16,167.18L170.27,164.19L172.5,162.19L173.61,160.95L174.72,158.7L175.84,158.45L176.95,157.95L178.06,155.71L180.29,154.96L181.4,152.46L183.63,151.22L184.74,149.47L185.85,148.97L186.96,146.98L188.08,146.98L189.19,145.98L193.64,144.48L194.75,144.48L195.87,142.73L196.98,142.48L202.54,137.25L203.66,135.75L205.88,135L207,134.5L208.11,133.25L209.22,133.25L211.45,130.01L212.56,129.01L215.9,128.26L217.01,128.01L222.58,125.77L223.69,125.52L227.03,123.52L228.14,123.52L230.37,122.53L231.48,122.53L233.71,120.53L234.82,120.03L237.04,118.53L238.16,118.53L243.72,117.04L244.83,116.29L253.74,115.54L254.85,115.04L260.42,112.05L261.53,112.05L262.64,112.05L263.75,108.55L265.98,106.81L267.09,106.06L273.77,105.31L274.88,105.06L278.22,105.06L279.33,103.07L281.56,103.07L282.67,99.57L289.35,98.57" style="vector-effect: non-scaling-stroke; fill: none; stroke: rgb(145, 30, 180); stroke-opacity: 1; stroke-width: 2px; opacity: 1;"/></g><g class="points"/><g class="text"/></g></g></g><g class="overplot"/><path class="xlines-above crisp" d="M0,0" style="fill: none;"/><path class="ylines-above crisp" d="M0,0" style="fill: none;"/><g class="overlines-above"/><g class="xaxislayer-above"><g class="x2tick"><text text-anchor="middle" x="0" y="383" transform="translate(477.05,0)" style="font-family: 'Open Sans', verdana, arial, sans-serif; font-size: 12px; fill: rgb(242, 245, 250); fill-opacity: 1; white-space: pre;">Mar 2020</text></g><g class="x2tick"><text text-anchor="middle" x="0" y="383" transform="translate(544.94,0)" style="font-family: 'Open Sans', verdana, arial, sans-serif; font-size: 12px; fill: rgb(242, 245, 250); fill-opacity: 1; white-space: pre;">May 2020</text></g><g class="x2tick"><text text-anchor="middle" x="0" y="383" transform="translate(612.82,0)" style="font-family: 'Open Sans', verdana, arial, sans-serif; font-size: 12px; fill: rgb(242, 245, 250); fill-opacity: 1; white-space: pre;">Jul 2020</text></g><g class="x2tick"><text text-anchor="middle" x="0" y="383" transform="translate(681.82,0)" style="font-family: 'Open Sans', verdana, arial, sans-serif; font-size: 12px; fill: rgb(242, 245, 250); fill-opacity: 1; white-space: pre;">Sep 2020</text></g></g><g class="yaxislayer-above"><g class="y2tick"><text text-anchor="end" x="432.65000000000003" y="4.199999999999999" transform="translate(0,356.5)" style="font-family: 'Open Sans', verdana, arial, sans-serif; font-size: 12px; fill: rgb(242, 245, 250); fill-opacity: 1; white-space: pre;">0</text></g><g class="y2tick"><text text-anchor="end" x="432.65000000000003" y="4.199999999999999" transform="translate(0,306.6)" style="font-family: 'Open Sans', verdana, arial, sans-serif; font-size: 12px; fill: rgb(242, 245, 250); fill-opacity: 1; white-space: pre;">200</text></g><g class="y2tick"><text text-anchor="end" x="432.65000000000003" y="4.199999999999999" transform="translate(0,256.71000000000004)" style="font-family: 'Open Sans', verdana, arial, sans-serif; font-size: 12px; fill: rgb(242, 245, 250); fill-opacity: 1; white-space: pre;">400</text></g><g class="y2tick"><text text-anchor="end" x="432.65000000000003" y="4.199999999999999" transform="translate(0,206.81)" style="font-family: 'Open Sans', verdana, arial, sans-serif; font-size: 12px; fill: rgb(242, 245, 250); fill-opacity: 1; white-space: pre;">600</text></g><g class="y2tick"><text text-anchor="end" x="432.65000000000003" y="4.199999999999999" transform="translate(0,156.91)" style="font-family: 'Open Sans', verdana, arial, sans-serif; font-size: 12px; fill: rgb(242, 245, 250); fill-opacity: 1; white-space: pre;">800</text></g><g class="y2tick"><text text-anchor="end" x="432.65000000000003" y="4.199999999999999" transform="translate(0,107.01)" style="font-family: 'Open Sans', verdana, arial, sans-serif; font-size: 12px; fill: rgb(242, 245, 250); fill-opacity: 1; white-space: pre;">1000</text></g></g><g class="overaxes-above"/></g></g><g class="polarlayer"/><g class="ternarylayer"/><g class="geolayer"/><g class="funnelarealayer"/><g class="pielayer"/><g class="treemaplayer"/><g class="sunburstlayer"/><g class="glimages"/><defs id="topdefs-cd9820"><g class="clips"/><clipPath id="legendcd9820"><rect width="152" height="124" x="0" y="0"/></clipPath></defs><g class="layer-above"><g class="imagelayer"/><g class="shapelayer"/></g><g class="infolayer"><g class="legend" pointer-events="all" transform="translate(735.86, 100)"><rect class="bg" shape-rendering="crispEdges" width="152" height="124" x="0" y="0" style="stroke: rgb(68, 68, 68); stroke-opacity: 1; fill: rgb(17, 17, 17); fill-opacity: 1; stroke-width: 0px;"/><g class="scrollbox" transform="translate(0, 0)" clip-path="url('#legendcd9820')"><g class="groups"><g class="traces" transform="translate(0, 14.5)" style="opacity: 1;"><text class="legendtext user-select-none" text-anchor="start" x="40" y="4.680000000000001" style="font-family: 'Open Sans', verdana, arial, sans-serif; font-size: 12px; fill: rgb(242, 245, 250); fill-opacity: 1; white-space: pre;">Alameda, CA</text><g class="layers" style="opacity: 1;"><g class="legendfill"/><g class="legendlines"><path class="js-line" d="M5,0h30" style="fill: none; stroke: rgb(230, 25, 75); stroke-opacity: 1; stroke-width: 2px;"/></g><g class="legendsymbols"><g class="legendpoints"/></g></g><rect class="legendtoggle" pointer-events="all" x="0" y="-9.5" width="146.734375" height="19" style="cursor: pointer; fill: rgb(0, 0, 0); fill-opacity: 0;"/></g><g class="traces" transform="translate(0, 33.5)" style="opacity: 1;"><text class="legendtext user-select-none" text-anchor="start" x="40" y="4.680000000000001" style="font-family: 'Open Sans', verdana, arial, sans-serif; font-size: 12px; fill: rgb(242, 245, 250); fill-opacity: 1; white-space: pre;">Pinellas, FL</text><g class="layers" style="opacity: 1;"><g class="legendfill"/><g class="legendlines"><path class="js-line" d="M5,0h30" style="fill: none; stroke: rgb(60, 180, 75); stroke-opacity: 1; stroke-width: 2px;"/></g><g class="legendsymbols"><g class="legendpoints"/></g></g><rect class="legendtoggle" pointer-events="all" x="0" y="-9.5" width="146.734375" height="19" style="cursor: pointer; fill: rgb(0, 0, 0); fill-opacity: 0;"/></g><g class="traces" transform="translate(0, 52.5)" style="opacity: 1;"><text class="legendtext user-select-none" text-anchor="start" x="40" y="4.680000000000001" style="font-family: 'Open Sans', verdana, arial, sans-serif; font-size: 12px; fill: rgb(242, 245, 250); fill-opacity: 1; white-space: pre;">Sacramento, CA</text><g class="layers" style="opacity: 1;"><g class="legendfill"/><g class="legendlines"><path class="js-line" d="M5,0h30" style="fill: none; stroke: rgb(255, 225, 25); stroke-opacity: 1; stroke-width: 2px;"/></g><g class="legendsymbols"><g class="legendpoints"/></g></g><rect class="legendtoggle" pointer-events="all" x="0" y="-9.5" width="146.734375" height="19" style="cursor: pointer; fill: rgb(0, 0, 0); fill-opacity: 0;"/></g><g class="traces" transform="translate(0, 71.5)" style="opacity: 1;"><text class="legendtext user-select-none" text-anchor="start" x="40" y="4.680000000000001" style="font-family: 'Open Sans', verdana, arial, sans-serif; font-size: 12px; fill: rgb(242, 245, 250); fill-opacity: 1; white-space: pre;">San Bernardino, CA</text><g class="layers" style="opacity: 1;"><g class="legendfill"/><g class="legendlines"><path class="js-line" d="M5,0h30" style="fill: none; stroke: rgb(67, 99, 216); stroke-opacity: 1; stroke-width: 2px;"/></g><g class="legendsymbols"><g class="legendpoints"/></g></g><rect class="legendtoggle" pointer-events="all" x="0" y="-9.5" width="146.734375" height="19" style="cursor: pointer; fill: rgb(0, 0, 0); fill-opacity: 0;"/></g><g class="traces" transform="translate(0, 90.5)" style="opacity: 1;"><text class="legendtext user-select-none" text-anchor="start" x="40" y="4.680000000000001" style="font-family: 'Open Sans', verdana, arial, sans-serif; font-size: 12px; fill: rgb(242, 245, 250); fill-opacity: 1; white-space: pre;">Jackson, MO</text><g class="layers" style="opacity: 1;"><g class="legendfill"/><g class="legendlines"><path class="js-line" d="M5,0h30" style="fill: none; stroke: rgb(245, 130, 49); stroke-opacity: 1; stroke-width: 2px;"/></g><g class="legendsymbols"><g class="legendpoints"/></g></g><rect class="legendtoggle" pointer-events="all" x="0" y="-9.5" width="146.734375" height="19" style="cursor: pointer; fill: rgb(0, 0, 0); fill-opacity: 0;"/></g><g class="traces" transform="translate(0, 109.5)" style="opacity: 1;"><text class="legendtext user-select-none" text-anchor="start" x="40" y="4.680000000000001" style="font-family: 'Open Sans', verdana, arial, sans-serif; font-size: 12px; fill: rgb(242, 245, 250); fill-opacity: 1; white-space: pre;">Franklin, OH</text><g class="layers" style="opacity: 1;"><g class="legendfill"/><g class="legendlines"><path class="js-line" d="M5,0h30" style="fill: none; stroke: rgb(145, 30, 180); stroke-opacity: 1; stroke-width: 2px;"/></g><g class="legendsymbols"><g class="legendpoints"/></g></g><rect class="legendtoggle" pointer-events="all" x="0" y="-9.5" width="146.734375" height="19" style="cursor: pointer; fill: rgb(0, 0, 0); fill-opacity: 0;"/></g></g></g><rect class="scrollbar" rx="20" ry="3" width="0" height="0" x="0" y="0" style="fill: rgb(128, 139, 164); fill-opacity: 1;"/></g><g class="g-gtitle"/><g class="g-xtitle"><text class="xtitle" x="224.675" y="410.8" text-anchor="middle" style="font-family: 'Open Sans', verdana, arial, sans-serif; font-size: 14px; fill: rgb(242, 245, 250); opacity: 1; font-weight: normal; white-space: pre;">Date</text></g><g class="g-x2title"><text class="x2title" x="578.325" y="410.8" text-anchor="middle" style="font-family: 'Open Sans', verdana, arial, sans-serif; font-size: 14px; fill: rgb(242, 245, 250); opacity: 1; font-weight: normal; white-space: pre;">Date</text></g><g class="g-ytitle"><text class="ytitle" transform="rotate(-90,34.840625,235)" x="34.840625" y="235" text-anchor="middle" style="font-family: 'Open Sans', verdana, arial, sans-serif; font-size: 14px; fill: rgb(242, 245, 250); opacity: 1; font-weight: normal; white-space: pre;">Cases</text></g><g class="g-y2title"><text class="y2title" transform="rotate(-90,381.153125,235)" x="381.153125" y="235" text-anchor="middle" style="font-family: 'Open Sans', verdana, arial, sans-serif; font-size: 14px; fill: rgb(242, 245, 250); opacity: 1; font-weight: normal; white-space: pre;">Deaths</text></g><g class="annotation" data-index="0" style="opacity: 1;"><g class="annotation-text-g" transform="rotate(0,224.675,89.5)"><g class="cursor-pointer" transform="translate(200, 79)"><rect class="bg" x="0.5" y="0.5" width="48" height="20" style="stroke-width: 1px; stroke: rgb(0, 0, 0); stroke-opacity: 0; fill: rgb(0, 0, 0); fill-opacity: 0;"/><text class="annotation-text" text-anchor="middle" x="24.6875" y="16" style="font-family: 'Open Sans', verdana, arial, sans-serif; font-size: 16px; fill: rgb(242, 245, 250); fill-opacity: 1; white-space: pre;">Cases</text></g></g></g><g class="annotation" data-index="1" style="opacity: 1;"><g class="annotation-text-g" transform="rotate(0,578.325,89.5)"><g class="cursor-pointer" transform="translate(551, 79)"><rect class="bg" x="0.5" y="0.5" width="54" height="20" style="stroke-width: 1px; stroke: rgb(0, 0, 0); stroke-opacity: 0; fill: rgb(0, 0, 0); fill-opacity: 0;"/><text class="annotation-text" text-anchor="middle" x="27.359375" y="16" style="font-family: 'Open Sans', verdana, arial, sans-serif; font-size: 16px; fill: rgb(242, 245, 250); fill-opacity: 1; white-space: pre;">Deaths</text></g></g></g></g></svg>