<svg class="main-svg" xmlns="http://www.w3.org/2000/svg" xmlns:xlink="http://www.w3.org/1999/xlink" width="900" height="450" style="" viewBox="0 0 900 450"><rect x="0" y="0" width="900" height="450" style="fill: rgb(17, 17, 17); fill-opacity: 1;"/><defs id="defs-1dfa67"><g class="clips"><clipPath id="clip1dfa67xyplot" class="plotclip"><rect width="296.55" height="270"/></clipPath><clipPath id="clip1dfa67x2y2plot" class="plotclip"><rect width="296.54999999999995" height="270"/></clipPath><clipPath class="axesclip" id="clip1dfa67x"><rect x="80" y="0" width="296.55" height="450"/></clipPath><clipPath class="axesclip" id="clip1dfa67y"><rect x="0" y="100" width="900" height="270"/></clipPath><clipPath class="axesclip" id="clip1dfa67xy"><rect x="80" y="100" width="296.55" height="270"/></clipPath><clipPath class="axesclip" id="clip1dfa67y2"><rect x="0" y="100" width="900" height="270"/></clipPath><clipPath class="axesclip" id="clip1dfa67xy2"><rect x="80" y="100" width="296.55" height="270"/></clipPath><clipPath class="axesclip" id="clip1dfa67x2"><rect x="442.45000000000005" y="0" width="296.54999999999995" height="450"/></clipPath><clipPath class="axesclip" id="clip1dfa67x2y"><rect x="442.45000000000005" y="100" width="296.54999999999995" height="270"/></clipPath><clipPath class="axesclip" id="clip1dfa67x2y2"><rect x="442.45000000000005" y="100" width="296.54999999999995" height="270"/></clipPath></g><g class="gradients"/></defs><g class="bglayer"/><g class="layer-below"><g class="imagelayer"/><g class="shapelayer"/></g><g class="cartesianlayer"><g class="subplot xy"><g class="layer-subplot"><g class="shapelayer"/><g class="imagelayer"/></g><g class="gridlayer"><g class="x"><path class="xgrid crisp" transform="translate(127.00999999999999,0)" d="M0,100v270" style="stroke: rgb(40, 52, 66); stroke-opacity: 1; stroke-width: 1px;"/><path class="xgrid crisp" transform="translate(200.55,0)" d="M0,100v270" style="stroke: rgb(40, 52, 66); stroke-opacity: 1; stroke-width: 1px;"/><path class="xgrid crisp" transform="translate(274.08000000000004,0)" d="M0,100v270" style="stroke: rgb(40, 52, 66); stroke-opacity: 1; stroke-width: 1px;"/><path class="xgrid crisp" transform="translate(348.82,0)" d="M0,100v270" style="stroke: rgb(40, 52, 66); stroke-opacity: 1; stroke-width: 1px;"/></g><g class="y"><path class="ygrid crisp" transform="translate(0,314.52)" d="M80,0h296.55" style="stroke: rgb(40, 52, 66); stroke-opacity: 1; stroke-width: 1px;"/><path class="ygrid crisp" transform="translate(0,272.53999999999996)" d="M80,0h296.55" style="stroke: rgb(40, 52, 66); stroke-opacity: 1; stroke-width: 1px;"/><path class="ygrid crisp" transform="translate(0,230.56)" d="M80,0h296.55" style="stroke: rgb(40, 52, 66); stroke-opacity: 1; stroke-width: 1px;"/><path class="ygrid crisp" transform="translate(0,188.57999999999998)" d="M80,0h296.55" style="stroke: rgb(40, 52, 66); stroke-opacity: 1; stroke-width: 1px;"/><path class="ygrid crisp" transform="translate(0,146.59)" d="M80,0h296.55" style="stroke: rgb(40, 52, 66); stroke-opacity: 1; stroke-width: 1px;"/><path class="ygrid crisp" transform="translate(0,104.61)" d="M80,0h296.55" style="stroke: rgb(40, 52, 66); stroke-opacity: 1; stroke-width: 1px;"/></g></g><g class="zerolinelayer"><path class="yzl zl crisp" transform="translate(0,356.5)" d="M80,0h296.55" style="stroke: rgb(40, 52, 66); stroke-opacity: 1; stroke-width: 2px;"/></g><path class="xlines-below"/><path class="ylines-below"/><g class="overlines-below"/><g class="xaxislayer-below"/><g class="yaxislayer-below"/><g class="overaxes-below"/><g class="plot" transform="translate(80, 100)" clip-path="url('#clip1dfa67xyplot')"><g class="scatterlayer mlayer"><g class="trace scatter traceb723d5" style="stroke-miterlimit: 2; opacity: 1;"><g class="fills"/><g class="errorbars"/><g class="lines"><path class="js-line" d="M0,256.5L77.15,255.82L78.36,255.58L109.7,251.13L110.9,250.83L153.1,243.5L154.3,243.09L165.15,240.24L166.36,239.94L174.8,238.14L176,237.69L182.03,236.33L183.23,235.48L194.08,230.66L195.29,229.7L197.7,228.98L198.91,227.72L201.32,227.59L202.52,226.08L208.55,223.02L209.75,221.57L220.6,215.07L221.81,213.62L227.84,211.27L229.04,209.77L230.25,209.77L231.45,208.29L232.66,208.12L233.86,206.77L238.69,205.55L239.89,205.55L241.1,201.09L242.3,201.01L245.92,196.76L247.13,195.38L248.33,195.38L249.54,193.01L250.74,192.98L251.95,191.69L255.56,187.36L256.77,186.42L259.18,186.25L260.39,183.98L262.8,182.52L264,181.58L265.21,181.58L266.41,180.77L268.82,179.07L270.03,178.02L276.06,175.27L277.26,175.27L279.67,173.75L280.88,173.3L284.5,172.45L285.7,172.13L288.11,171.86L289.32,171.01L295.34,169.02L296.55,168.55" style="vector-effect: non-scaling-stroke; fill: none; stroke: rgb(230, 25, 75); stroke-opacity: 1; stroke-width: 2px; opacity: 1;"/></g><g class="points"/><g class="text"/></g><g class="trace scatter trace853bfe" style="stroke-miterlimit: 2; opacity: 1;"><g class="fills"/><g class="errorbars"/><g class="lines"><path class="js-line" d="M0,256.5L80.77,255.81L81.97,255.56L88,254.86L89.21,254.64L98.85,253.4L100.06,253.07L112.11,252.22L113.32,252.2L169.97,249.49L171.18,249.35L178.41,248.36L179.62,248.2L182.03,248.2L183.23,247.08L188.06,245.31L189.26,245.31L190.47,245.31L191.67,243.89L195.29,241.56L196.49,241.56L198.91,241.56L200.11,238.05L209.75,231.57L210.96,230.58L216.99,225.74L218.19,224.23L224.22,219.12L225.43,218.64L226.63,216.96L227.84,216.56L233.86,214.01L235.07,213.79L236.28,213.49L237.48,212.23L238.69,211.18L239.89,211.18L241.1,211.18L242.3,205.95L244.71,204.12L245.92,201.02L247.13,199.34L248.33,199.34L249.54,199.34L250.74,196.36L255.56,192.5L256.77,192.5L257.97,192.5L259.18,187.94L261.59,186.22L262.8,185.51L264,184.5L265.21,184.5L266.41,184.5L267.62,180.72L272.44,177.52L273.65,177.52L274.85,177.52L276.06,175.28L279.67,173.93L280.88,172.27L283.29,172.27L284.5,170.71L286.91,169.77L288.11,168.5L290.52,167.62L291.73,167.62L294.14,164.98L295.34,164.68L296.55,164.03" style="vector-effect: non-scaling-stroke; fill: none; stroke: rgb(60, 180, 75); stroke-opacity: 1; stroke-width: 2px; opacity: 1;"/></g><g class="points"/><g class="text"/></g><g class="trace scatter tracee064b1" style="stroke-miterlimit: 2; opacity: 1;"><g class="fills"/><g class="errorbars"/><g class="lines"><path class="js-line" d="M0,256.5L96.44,255.83L97.64,255.68L115.73,254.96L116.93,254.92L168.77,252.51L169.97,252.34L183.23,250.01L184.44,249.59L196.49,245.54L197.7,245.2L204.93,242.87L206.14,241.82L207.34,240.32L208.55,240.32L215.78,231.77L216.99,231.77L221.81,226.43L223.02,223.64L225.43,223.64L226.63,222.07L230.25,213.87L231.45,210.44L232.66,210.44L233.86,199.76L235.07,194.45L236.28,193.03L239.89,188.11L241.1,188.11L247.13,182.54L248.33,181.71L249.54,181.71L250.74,180.91L256.77,176.73L257.97,175.79L259.18,175.79L260.39,173.12L261.59,173.12L262.8,169.95L266.41,168.96L267.62,168.96L272.44,166.41L273.65,165.98L277.26,165.98L278.47,164.97L285.7,163.5L286.91,163.21L296.55,161.68" style="vector-effect: non-scaling-stroke; fill: none; stroke: rgb(255, 225, 25); stroke-opacity: 1; stroke-width: 2px; opacity: 1;"/></g><g class="points"/><g class="text"/></g><g class="trace scatter trace7c1546" style="stroke-miterlimit: 2; opacity: 1;"><g class="fills"/><g class="errorbars"/><g class="lines"><path class="js-line" d="M0,256.5L85.59,255.75L86.8,255.72L107.29,254.63L108.49,254.59L133.81,253.86L135.01,253.82L156.71,252.9L157.92,252.69L163.95,251.81L165.15,251.63L171.18,250.44L172.38,250.01L178.41,248.41L179.62,248.41L182.03,247.02L183.23,246.42L189.26,243.52L190.47,243.52L191.67,242.68L192.88,240.31L194.08,240.07L195.29,238.46L197.7,237.72L198.91,237.72L200.11,237.72L201.32,232.99L206.14,230.14L207.34,230.14L208.55,227.16L209.75,226.21L213.37,223.67L214.58,223.67L215.78,223.67L216.99,221.57L220.6,215.25L221.81,213.99L224.22,213.99L225.43,211.69L230.25,208.29L231.45,208.29L232.66,208.29L233.86,206.61L241.1,204.85L242.3,202.5L243.51,198.27L244.71,197.62L247.13,194.99L248.33,194.99L249.54,194.99L250.74,193.49L255.56,190.92L256.77,190.92L257.97,190.92L259.18,188.78L260.39,187.04L261.59,186.75L265.21,185.5L266.41,185.5L267.62,183.05L268.82,182.53L272.44,180.52L273.65,180.52L277.26,180.08L278.47,178.99L283.29,178.05L284.5,175.21L286.91,174.12L288.11,173.79L291.73,173.41L292.93,173.21L295.34,172.29L296.55,172.01" style="vector-effect: non-scaling-stroke; fill: none; stroke: rgb(67, 99, 216); stroke-opacity: 1; stroke-width: 2px; opacity: 1;"/></g><g class="points"/><g class="text"/></g><g class="trace scatter trace94fbe0" style="stroke-miterlimit: 2; opacity: 1;"><g class="fills"/><g class="errorbars"/><g class="lines"><path class="js-line" d="M0,256.5L81.97,255.85L83.18,255.68L125.37,252.13L126.58,252.02L157.92,248.81L159.12,248.31L169.97,246.27L171.18,246.13L179.62,244.54L180.82,244.2L185.65,243.35L186.85,242.91L202.52,238.41L203.73,237.83L207.34,236.77L208.55,236.49L214.58,233.94L215.78,232.88L219.4,230.4L220.6,228.8L226.63,222.67L227.84,221.3L230.25,218.22L231.45,217.62L235.07,215.46L236.28,214.6L244.71,208.86L245.92,207.6L250.74,204.39L251.95,203.73L264,196.39L265.21,195.65L283.29,186.73L284.5,186.2L290.52,183.21L291.73,182.58L295.34,180.76L296.55,180.09" style="vector-effect: non-scaling-stroke; fill: none; stroke: rgb(245, 130, 49); stroke-opacity: 1; stroke-width: 2px; opacity: 1;"/></g><g class="points"/><g class="text"/></g><g class="trace scatter trace2d2206" style="stroke-miterlimit: 2; opacity: 1;"><g class="fills"/><g class="errorbars"/><g class="lines"><path class="js-line" d="M0,256.5L77.15,256.05L78.36,255.72L83.18,254.94L84.38,254.7L89.21,253.15L90.41,252.53L96.44,250.49L97.64,249.7L103.67,246.19L104.88,245.58L107.29,244.55L108.49,244.07L121.75,239.02L122.96,238.95L127.78,236.53L128.99,236.28L132.6,234.72L133.81,234.47L138.63,232.91L139.84,232.91L142.25,231.09L143.45,230.54L147.07,229.36L148.28,229.36L149.48,227.1L150.69,226.53L157.92,222.99L159.12,222.26L161.54,221.64L162.74,219.65L165.15,217.93L166.36,217.85L171.18,212.46L172.38,211.47L176,207.41L177.21,206.33L179.62,202.86L180.82,202.86L182.03,202.86L183.23,198.57L185.65,193.93L186.85,192.93L188.06,190.83L189.26,190.83L192.88,183.89L194.08,180.76L196.49,174.85L197.7,174.85L198.91,174.85L200.11,170.21L202.52,164.32L203.73,158.54L204.93,152.53L206.14,152.53L207.34,152.53L208.55,148.41L213.37,136.03L214.58,136.03L215.78,136.03L216.99,130.63L221.81,116L223.02,116L224.22,116L225.43,108.78L227.84,104.7L229.04,102.73L236.28,92.87L237.48,89.66L238.69,86.68L239.89,86.68L241.1,86.68L242.3,80.25L244.71,71.85L245.92,68.93L247.13,64.81L248.33,64.81L249.54,64.81L250.74,57.13L253.15,52.35L254.36,50.98L255.56,48.77L256.77,48.77L257.97,48.77L259.18,43.47L261.59,40.14L262.8,39.31L265.21,38.79L266.41,38.79L267.62,34.38L268.82,33.36L270.03,32.71L271.23,31.05L272.44,29.86L273.65,29.86L276.06,29.86L277.26,27.4L282.08,25.3L283.29,25.3L284.5,22.39L285.7,21.46L290.52,18.55L291.73,18.55L292.93,15.45L294.14,15.18L296.55,13.5" style="vector-effect: non-scaling-stroke; fill: none; stroke: rgb(145, 30, 180); stroke-opacity: 1; stroke-width: 2px; opacity: 1;"/></g><g class="points"/><g class="text"/></g></g></g><g class="overplot"/><path class="xlines-above crisp" d="M0,0" style="fill: none;"/><path class="ylines-above crisp" d="M0,0" style="fill: none;"/><g class="overlines-above"/><g class="xaxislayer-above"><g class="xtick"><text text-anchor="middle" x="0" y="383" transform="translate(127.00999999999999,0)" style="font-family: 'Open Sans', verdana, arial, sans-serif; font-size: 12px; fill: rgb(242, 245, 250); fill-opacity: 1; white-space: pre;">Mar 2020</text></g><g class="xtick"><text text-anchor="middle" x="0" y="383" transform="translate(200.55,0)" style="font-family: 'Open Sans', verdana, arial, sans-serif; font-size: 12px; fill: rgb(242, 245, 250); fill-opacity: 1; white-space: pre;">May 2020</text></g><g class="xtick"><text text-anchor="middle" x="0" y="383" transform="translate(274.08000000000004,0)" style="font-family: 'Open Sans', verdana, arial, sans-serif; font-size: 12px; fill: rgb(242, 245, 250); fill-opacity: 1; white-space: pre;">Jul 2020</text></g><g class="xtick"><text text-anchor="middle" x="0" y="383" transform="translate(348.82,0)" style="font-family: 'Open Sans', verdana, arial, sans-serif; font-size: 12px; fill: rgb(242, 245, 250); fill-opacity: 1; white-space: pre;">Sep 2020</text></g></g><g class="yaxislayer-above"><g class="ytick"><text text-anchor="end" x="79" y="4.199999999999999" transform="translate(0,356.5)" style="font-family: 'Open Sans', verdana, arial, sans-serif; font-size: 12px; fill: rgb(242, 245, 250); fill-opacity: 1; white-space: pre;">0</text></g><g class="ytick"><text text-anchor="end" x="79" y="4.199999999999999" transform="translate(0,314.52)" style="font-family: 'Open Sans', verdana, arial, sans-serif; font-size: 12px; fill: rgb(242, 245, 250); fill-opacity: 1; white-space: pre;">10k</text></g><g class="ytick"><text text-anchor="end" x="79" y="4.199999999999999" transform="translate(0,272.53999999999996)" style="font-family: 'Open Sans', verdana, arial, sans-serif; font-size: 12px; fill: rgb(242, 245, 250); fill-opacity: 1; white-space: pre;">20k</text></g><g class="ytick"><text text-anchor="end" x="79" y="4.199999999999999" transform="translate(0,230.56)" style="font-family: 'Open Sans', verdana, arial, sans-serif; font-size: 12px; fill: rgb(242, 245, 250); fill-opacity: 1; white-space: pre;">30k</text></g><g class="ytick"><text text-anchor="end" x="79" y="4.199999999999999" transform="translate(0,188.57999999999998)" style="font-family: 'Open Sans', verdana, arial, sans-serif; font-size: 12px; fill: rgb(242, 245, 250); fill-opacity: 1; white-space: pre;">40k</text></g><g class="ytick"><text text-anchor="end" x="79" y="4.199999999999999" transform="translate(0,146.59)" style="font-family: 'Open Sans', verdana, arial, sans-serif; font-size: 12px; fill: rgb(242, 245, 250); fill-opacity: 1; white-space: pre;">50k</text></g><g class="ytick"><text text-anchor="end" x="79" y="4.199999999999999" transform="translate(0,104.61)" style="font-family: 'Open Sans', verdana, arial, sans-serif; font-size: 12px; fill: rgb(242, 245, 250); fill-opacity: 1; white-space: pre;">60k</text></g></g><g class="overaxes-above"/></g><g class="subplot x2y2"><g class="layer-subplot"><g class="shapelayer"/><g class="imagelayer"/></g><g class="gridlayer"><g class="x2"><path class="x2grid crisp" transform="translate(489.46000000000004,0)" d="M0,100v270" style="stroke: rgb(40, 52, 66); stroke-opacity: 1; stroke-width: 1px;"/><path class="x2grid crisp" transform="translate(563,0)" d="M0,100v270" style="stroke: rgb(40, 52, 66); stroke-opacity: 1; stroke-width: 1px;"/><path class="x2grid crisp" transform="translate(636.5300000000001,0)" d="M0,100v270" style="stroke: rgb(40, 52, 66); stroke-opacity: 1; stroke-width: 1px;"/><path class="x2grid crisp" transform="translate(711.27,0)" d="M0,100v270" style="stroke: rgb(40, 52, 66); stroke-opacity: 1; stroke-width: 1px;"/></g><g class="y2"><path class="y2grid crisp" transform="translate(0,315.28)" d="M442.45000000000005,0h296.54999999999995" style="stroke: rgb(40, 52, 66); stroke-opacity: 1; stroke-width: 1px;"/><path class="y2grid crisp" transform="translate(0,274.06)" d="M442.45000000000005,0h296.54999999999995" style="stroke: rgb(40, 52, 66); stroke-opacity: 1; stroke-width: 1px;"/><path class="y2grid crisp" transform="translate(0,232.84)" d="M442.45000000000005,0h296.54999999999995" style="stroke: rgb(40, 52, 66); stroke-opacity: 1; stroke-width: 1px;"/><path class="y2grid crisp" transform="translate(0,191.61)" d="M442.45000000000005,0h296.54999999999995" style="stroke: rgb(40, 52, 66); stroke-opacity: 1; stroke-width: 1px;"/><path class="y2grid crisp" transform="translate(0,150.39)" d="M442.45000000000005,0h296.54999999999995" style="stroke: rgb(40, 52, 66); stroke-opacity: 1; stroke-width: 1px;"/><path class="y2grid crisp" transform="translate(0,109.17)" d="M442.45000000000005,0h296.54999999999995" style="stroke: rgb(40, 52, 66); stroke-opacity: 1; stroke-width: 1px;"/></g></g><g class="zerolinelayer"><path class="y2zl zl crisp" transform="translate(0,356.5)" d="M442.45000000000005,0h296.54999999999995" style="stroke: rgb(40, 52, 66); stroke-opacity: 1; stroke-width: 2px;"/></g><path class="xlines-below"/><path class="ylines-below"/><g class="overlines-below"/><g class="xaxislayer-below"/><g class="yaxislayer-below"/><g class="overaxes-below"/><g class="plot" transform="translate(442.45000000000005, 100)" clip-path="url('#clip1dfa67x2y2plot')"><g class="scatterlayer mlayer"><g class="trace scatter trace91ab33" style="stroke-miterlimit: 2; opacity: 1;"><g class="fills"/><g class="errorbars"/><g class="lines"><path class="js-line" d="M0,256.5L75.95,256.09L77.15,255.68L83.18,255.06L84.38,254.85L96.44,252.17L97.64,251.76L100.06,251.76L101.26,249.08L104.88,248.05L106.08,247.84L109.7,247.23L110.9,247.02L114.52,245.78L115.73,245.78L120.55,243.72L121.75,243.52L126.58,242.9L127.78,242.69L130.19,241.87L131.4,241.87L133.81,241.25L135.01,240.84L138.63,239.39L139.84,239.39L142.25,238.77L143.45,238.36L148.27,237.33L149.48,237.33L157.92,236.71L159.12,236.51L161.54,236.51L162.74,235.68L167.56,235.48L168.77,234.86L171.18,234.03L172.38,234.03L174.8,233.42L176,233.42L178.41,232.39L179.62,232.18L184.44,231.77L185.65,231.35L188.06,229.71L189.26,229.71L192.88,228.68L194.08,228.47L197.7,227.65L198.91,227.65L202.52,227.23L203.73,226.41L209.75,225.17L210.96,224.76L212.17,224.76L213.37,223.32L216.99,223.11L218.19,222.08L221.81,219.81L223.02,219.81L227.84,219.19L229.04,218.99L230.25,218.99L231.45,217.55L235.07,216.93L236.28,216.72L239.89,216.72L241.1,214.25L243.51,214.25L244.71,212.81L247.13,211.36L248.33,211.36L253.15,209.51L254.36,208.89L257.97,208.27L259.18,208.27L261.59,206.42L262.8,206.21L265.21,205.59L266.41,203.53L268.82,203.53L270.03,200.03L271.23,195.7L272.44,195.49L274.85,194.87L276.06,194.67L279.67,194.05L280.88,190.55L282.08,190.55L283.29,188.07L284.5,187.87L285.7,183.13L286.91,183.13L288.11,181.27L290.52,179.42L291.73,179.42L292.93,179.42L294.14,176.12L296.55,174.68" style="vector-effect: non-scaling-stroke; fill: none; stroke: rgb(230, 25, 75); stroke-opacity: 1; stroke-width: 2px; opacity: 1;"/></g><g class="points"/><g class="text"/></g><g class="trace scatter trace0f3582" style="stroke-miterlimit: 2; opacity: 1;"><g class="fills"/><g class="errorbars"/><g class="lines"><path class="js-line" d="M0,256.5L72.33,255.88L73.53,255.68L83.18,255.06L84.38,254.65L88,254.44L89.21,253.2L96.44,251.14L97.64,251.14L109.7,249.08L110.9,248.05L122.96,247.84L124.17,246.81L133.81,246.19L135.01,245.99L137.43,245.37L138.63,245.37L144.66,244.96L145.86,244.96L165.15,244.34L166.36,243.93L176,243.52L177.21,242.9L198.91,242.28L200.11,241.25L207.34,239.39L208.55,239.39L209.75,237.74L210.96,237.54L214.58,236.71L215.78,236.71L220.6,236.3L221.81,235.27L223.02,234.24L224.22,234.24L227.84,230.53L229.04,230.32L231.45,227.23L232.66,227.23L239.89,223.32L241.1,223.32L242.3,220.02L243.51,219.61L247.13,215.48L248.33,215.48L249.54,215.48L250.74,211.57L251.95,211.36L253.15,209.1L254.36,209.1L255.56,208.27L257.97,208.27L259.18,205.8L264,200.03L265.21,200.03L266.41,200.03L267.62,196.11L268.82,195.49L270.03,193.84L272.44,189.1L273.65,189.1L274.85,189.1L276.06,188.07L278.47,186.63L279.67,185.19L282.08,184.36L283.29,184.36L289.32,179.21L290.52,179.21L291.73,179.21L292.93,177.56L295.34,174.26L296.55,173.65" style="vector-effect: non-scaling-stroke; fill: none; stroke: rgb(60, 180, 75); stroke-opacity: 1; stroke-width: 2px; opacity: 1;"/></g><g class="points"/><g class="text"/></g><g class="trace scatter tracec1019c" style="stroke-miterlimit: 2; opacity: 1;"><g class="fills"/><g class="errorbars"/><g class="lines"><path class="js-line" d="M0,256.5L102.47,255.88L103.67,255.68L112.11,254.03L113.32,253.61L119.34,253L120.55,252.79L128.99,252.38L130.19,251.97L136.22,251.35L137.43,251.14L142.25,250.52L143.45,250.32L145.86,249.9L147.07,249.9L151.89,249.7L153.1,249.7L156.71,249.08L157.92,249.08L167.56,248.46L168.77,248.26L172.38,247.43L173.59,247.43L178.41,246.81L179.62,246.61L185.65,246.19L186.85,245.78L194.08,245.16L195.29,244.96L198.91,242.69L200.11,242.69L202.52,242.07L203.73,241.87L204.93,241.87L206.14,240.63L208.55,240.22L209.75,240.22L212.17,240.22L213.37,238.16L216.99,236.71L218.19,233.62L224.22,220.02L225.43,200.44L226.63,200.44L227.84,195.9L229.04,193.84L230.25,189.52L231.45,185.19L232.66,185.19L235.07,177.56L236.28,175.29L239.89,168.9L241.1,167.87L242.3,167.87L243.51,162.93L247.13,147.68L248.33,143.76L250.74,140.05L251.95,135.1L255.56,126.86L256.77,122.94L259.18,121.09L260.39,118.82L265.21,102.74L266.41,101.51L267.62,100.48L268.82,98.42L270.03,96.77L271.23,93.06L273.65,89.14L274.85,88.73L277.26,87.7L278.47,86.67L280.88,83.58L282.08,83.16L285.7,81.72L286.91,80.48L288.11,80.07L289.32,78.22L291.73,76.77L292.93,76.77L294.14,76.16L295.34,73.89L296.55,73.06" style="vector-effect: non-scaling-stroke; fill: none; stroke: rgb(255, 225, 25); stroke-opacity: 1; stroke-width: 2px; opacity: 1;"/></g><g class="points"/><g class="text"/></g><g class="trace scatter traceb74fe3" style="stroke-miterlimit: 2; opacity: 1;"><g class="fills"/><g class="errorbars"/><g class="lines"><path class="js-line" d="M0,256.5L77.15,255.88L78.36,255.68L81.97,255.26L83.18,254.85L90.41,254.23L91.62,253.82L100.06,253L101.26,253L109.7,252.38L110.9,251.97L114.52,251.35L115.73,251.35L130.19,250.73L131.4,250.52L141.04,249.9L142.25,249.7L162.74,249.08L163.95,248.87L168.77,248.26L169.97,247.84L182.03,247.23L183.23,246.61L186.85,246.4L188.06,245.78L200.11,245.16L201.32,244.55L204.93,242.48L206.14,242.48L208.55,242.07L209.75,241.45L210.96,241.45L212.17,239.81L214.58,239.39L215.78,239.39L216.99,237.13L218.19,236.92L219.4,236.3L220.6,234.45L223.02,233.83L224.22,233.83L225.43,232.18L226.63,229.09L230.25,221.87L231.45,221.87L232.66,221.87L233.86,219.4L235.07,219.4L236.28,217.96L237.48,216.93L238.69,213.01L241.1,213.01L242.3,210.54L244.71,207.24L245.92,206L247.13,202.71L248.33,202.71L249.54,202.71L250.74,201.06L253.15,197.35L254.36,197.14L255.56,195.9L256.77,195.9L261.59,195.29L262.8,193.84L265.21,193.23L266.41,193.23L267.62,188.9L268.82,188.48L272.44,180.65L273.65,180.65L276.06,180.65L277.26,178.8L279.67,177.56L280.88,177.56L283.29,177.56L284.5,176.32L286.91,174.26L288.11,172.61L289.32,171.17L290.52,171.17L292.93,170.97L294.14,169.73L295.34,167.05L296.55,166.43" style="vector-effect: non-scaling-stroke; fill: none; stroke: rgb(67, 99, 216); stroke-opacity: 1; stroke-width: 2px; opacity: 1;"/></g><g class="points"/><g class="text"/></g><g class="trace scatter tracea0086a" style="stroke-miterlimit: 2; opacity: 1;"><g class="fills"/><g class="errorbars"/><g class="lines"><path class="js-line" d="M0,256.5L90.41,256.29L91.62,255.26L98.85,253.82L100.06,253L107.29,252.17L108.49,252.17L115.73,251.55L116.93,251.35L120.55,250.73L121.75,250.73L126.58,250.52L127.78,250.52L132.6,250.32L133.81,250.32L149.48,248.26L150.69,248.26L162.74,246.4L163.95,246.4L182.03,245.78L183.23,245.37L204.93,244.75L206.14,244.34L208.55,243.93L209.75,242.9L210.96,241.87L212.17,239.81L216.99,239.19L218.19,238.57L223.02,237.54L224.22,237.54L227.84,236.1L229.04,236.1L233.86,234.86L235.07,234.65L241.1,232.8L242.3,232.8L249.54,231.97L250.74,231.97L271.23,228.47L272.44,228.06L274.85,221.87L276.06,221.87L286.91,220.02L288.11,219.4L291.73,218.78L292.93,218.16L294.14,217.55L295.34,212.6L296.55,212.19" style="vector-effect: non-scaling-stroke; fill: none; stroke: rgb(245, 130, 49); stroke-opacity: 1; stroke-width: 2px; opacity: 1;"/></g><g class="points"/><g class="text"/></g><g class="trace scatter tracef23a6e" style="stroke-miterlimit: 2; opacity: 1;"><g class="fills"/><g class="errorbars"/><g class="lines"><path class="js-line" d="M0,256.5L68.71,255.88L69.92,255.68L78.36,254.85L79.56,254.85L81.97,254.65L83.18,253.82L86.8,253.41L88,252.79L89.21,252.58L90.41,251.35L97.64,248.05L98.85,246.19L100.06,246.19L101.26,245.37L102.47,244.34L103.67,244.34L104.88,241.25L106.08,241.04L109.7,236.1L110.9,235.89L113.32,232.39L114.52,232.18L115.73,227.44L116.93,227.44L118.14,227.03L119.34,225.79L121.75,223.32L122.96,223.32L124.17,219.19L125.37,218.58L126.58,218.16L127.78,216.93L128.99,214.45L130.19,214.45L131.4,214.25L132.6,211.77L136.22,208.06L137.43,206.62L139.84,206.62L141.04,202.71L142.25,200.85L143.45,200.85L145.86,196.73L147.07,196.73L149.48,196.32L150.69,194.05L153.1,191.99L154.3,189.93L157.92,189.93L159.12,186.01L161.54,185.39L162.74,183.33L166.36,183.13L167.56,181.27L171.18,177.56L172.38,177.56L174.8,177.35L176,175.09L177.21,174.26L178.41,172.41L180.82,172L182.03,172L184.44,167.67L185.65,167.46L189.26,166.23L190.47,166.23L191.67,165.81L192.88,162.31L195.29,160.66L196.49,157.77L198.91,157.77L200.11,156.33L203.73,146.65L204.93,145.82L207.34,145.82L208.55,143.14L209.75,142.52L210.96,137.58L213.37,135.52L214.58,135.52L218.19,135.1L219.4,129.33L220.6,125.21L221.81,125.21L224.22,125.21L225.43,118.2L226.63,118L227.84,115.94L230.25,113.26L231.45,113.26L232.66,113.26L233.86,104.6L235.07,104.39L236.28,101.51L238.69,91.82L239.89,91.82L241.1,91.82L242.3,87.49L243.51,86.67L244.71,80.69L245.92,75.33L247.13,74.92L249.54,74.92L250.74,68.53L253.15,67.5L254.36,66.47L255.56,65.44L256.77,65.44L257.97,65.44L259.18,56.16L261.59,53.69L262.8,51.01L264,48.95L265.21,48.95L266.41,48.95L267.62,46.48L270.03,43.59L271.23,39.47L272.44,36.58L273.65,36.58L276.06,36.58L277.26,34.94L280.88,29.16L282.08,29.16L283.29,29.16L284.5,26.07L288.11,20.92L289.32,18.86L291.73,18.86L292.93,17L294.14,14.94L295.34,14.74L296.55,13.5" style="vector-effect: non-scaling-stroke; fill: none; stroke: rgb(145, 30, 180); stroke-opacity: 1; stroke-width: 2px; opacity: 1;"/></g><g class="points"/><g class="text"/></g></g></g><g class="overplot"/><path class="xlines-above crisp" d="M0,0" style="fill: none;"/><path class="ylines-above crisp" d="M0,0" style="fill: none;"/><g class="overlines-above"/><g class="xaxislayer-above"><g class="x2tick"><text text-anchor="middle" x="0" y="383" transform="translate(489.46000000000004,0)" style="font-family: 'Open Sans', verdana, arial, sans-serif; font-size: 12px; fill: rgb(242, 245, 250); fill-opacity: 1; white-space: pre;">Mar 2020</text></g><g class="x2tick"><text text-anchor="middle" x="0" y="383" transform="translate(563,0)" style="font-family: 'Open Sans', verdana, arial, sans-serif; font-size: 12px; fill: rgb(242, 245, 250); fill-opacity: 1; white-space: pre;">May 2020</text></g><g class="x2tick"><text text-anchor="middle" x="0" y="383" transform="translate(636.5300000000001,0)" style="font-family: 'Open Sans', verdana, arial, sans-serif; font-size: 12px; fill: rgb(242, 245, 250); fill-opacity: 1; white-space: pre;">Jul 2020</text></g><g class="x2tick"><text text-anchor="middle" x="0" y="383" transform="translate(711.27,0)" style="font-family: 'Open Sans', verdana, arial, sans-serif; font-size: 12px; fill: rgb(242, 245, 250); fill-opacity: 1; white-space: pre;">Sep 2020</text></g></g><g class="yaxislayer-above"><g class="y2tick"><text text-anchor="end" x="441.45000000000005" y="4.199999999999999" transform="translate(0,356.5)" style="font-family: 'Open Sans', verdana, arial, sans-serif; font-size: 12px; fill: rgb(242, 245, 250); fill-opacity: 1; white-space: pre;">0</text></g><g class="y2tick"><text text-anchor="end" x="441.45000000000005" y="4.199999999999999" transform="translate(0,315.28)" style="font-family: 'Open Sans', verdana, arial, sans-serif; font-size: 12px; fill: rgb(242, 245, 250); fill-opacity: 1; white-space: pre;">200</text></g><g class="y2tick"><text text-anchor="end" x="441.45000000000005" y="4.199999999999999" transform="translate(0,274.06)" style="font-family: 'Open Sans', verdana, arial, sans-serif; font-size: 12px; fill: rgb(242, 245, 250); fill-opacity: 1; white-space: pre;">400</text></g><g class="y2tick"><text text-anchor="end" x="441.45000000000005" y="4.199999999999999" transform="translate(0,232.84)" style="font-family: 'Open Sans', verdana, arial, sans-serif; font-size: 12px; fill: rgb(242, 245, 250); fill-opacity: 1; white-space: pre;">600</text></g><g class="y2tick"><text text-anchor="end" x="441.45000000000005" y="4.199999999999999" transform="translate(0,191.61)" style="font-family: 'Open Sans', verdana, arial, sans-serif; font-size: 12px; fill: rgb(242, 245, 250); fill-opacity: 1; white-space: pre;">800</text></g><g class="y2tick"><text text-anchor="end" x="441.45000000000005" y="4.199999999999999" transform="translate(0,150.39)" style="font-family: 'Open Sans', verdana, arial, sans-serif; font-size: 12px; fill: rgb(242, 245, 250); fill-opacity: 1; white-space: pre;">1000</text></g><g class="y2tick"><text text-anchor="end" x="441.45000000000005" y="4.199999999999999" transform="translate(0,109.17)" style="font-family: 'Open Sans', verdana, arial, sans-serif; font-size: 12px; fill: rgb(242, 245, 250); fill-opacity: 1; white-space: pre;">1200</text></g></g><g class="overaxes-above"/></g></g><g class="polarlayer"/><g class="ternarylayer"/><g class="geolayer"/><g class="funnelarealayer"/><g class="pielayer"/><g class="treemaplayer"/><g class="sunburstlayer"/><g class="glimages"/><defs id="topdefs-1dfa67"><g class="clips"/><clipPath id="legend1dfa67"><rect width="136" height="124" x="0" y="0"/></clipPath></defs><g class="layer-above"><g class="imagelayer"/><g class="shapelayer"/></g><g class="infolayer"><g class="legend" pointer-events="all" transform="translate(752.1800000000001, 100)"><rect class="bg" shape-rendering="crispEdges" width="136" height="124" x="0" y="0" style="stroke: rgb(68, 68, 68); stroke-opacity: 1; fill: rgb(17, 17, 17); fill-opacity: 1; stroke-width: 0px;"/><g class="scrollbox" transform="translate(0, 0)" clip-path="url('#legend1dfa67')"><g class="groups"><g class="traces" transform="translate(0, 14.5)" style="opacity: 1;"><text class="legendtext user-select-none" text-anchor="start" x="40" y="4.680000000000001" style="font-family: 'Open Sans', verdana, arial, sans-serif; font-size: 12px; fill: rgb(242, 245, 250); fill-opacity: 1; white-space: pre;">Alameda, CA</text><g class="layers" style="opacity: 1;"><g class="legendfill"/><g class="legendlines"><path class="js-line" d="M5,0h30" style="fill: none; stroke: rgb(230, 25, 75); stroke-opacity: 1; stroke-width: 2px;"/></g><g class="legendsymbols"><g class="legendpoints"/></g></g><rect class="legendtoggle" pointer-events="all" x="0" y="-9.5" width="130.0625" height="19" style="cursor: pointer; fill: rgb(0, 0, 0); fill-opacity: 0;"/></g><g class="traces" transform="translate(0, 33.5)" style="opacity: 1;"><text class="legendtext user-select-none" text-anchor="start" x="40" y="4.680000000000001" style="font-family: 'Open Sans', verdana, arial, sans-serif; font-size: 12px; fill: rgb(242, 245, 250); fill-opacity: 1; white-space: pre;">Sacramento, CA</text><g class="layers" style="opacity: 1;"><g class="legendfill"/><g class="legendlines"><path class="js-line" d="M5,0h30" style="fill: none; stroke: rgb(60, 180, 75); stroke-opacity: 1; stroke-width: 2px;"/></g><g class="legendsymbols"><g class="legendpoints"/></g></g><rect class="legendtoggle" pointer-events="all" x="0" y="-9.5" width="130.0625" height="19" style="cursor: pointer; fill: rgb(0, 0, 0); fill-opacity: 0;"/></g><g class="traces" transform="translate(0, 52.5)" style="opacity: 1;"><text class="legendtext user-select-none" text-anchor="start" x="40" y="4.680000000000001" style="font-family: 'Open Sans', verdana, arial, sans-serif; font-size: 12px; fill: rgb(242, 245, 250); fill-opacity: 1; white-space: pre;">Cameron, TX</text><g class="layers" style="opacity: 1;"><g class="legendfill"/><g class="legendlines"><path class="js-line" d="M5,0h30" style="fill: none; stroke: rgb(255, 225, 25); stroke-opacity: 1; stroke-width: 2px;"/></g><g class="legendsymbols"><g class="legendpoints"/></g></g><rect class="legendtoggle" pointer-events="all" x="0" y="-9.5" width="130.0625" height="19" style="cursor: pointer; fill: rgb(0, 0, 0); fill-opacity: 0;"/></g><g class="traces" transform="translate(0, 71.5)" style="opacity: 1;"><text class="legendtext user-select-none" text-anchor="start" x="40" y="4.680000000000001" style="font-family: 'Open Sans', verdana, arial, sans-serif; font-size: 12px; fill: rgb(242, 245, 250); fill-opacity: 1; white-space: pre;">San Joaquin, CA</text><g class="layers" style="opacity: 1;"><g class="legendfill"/><g class="legendlines"><path class="js-line" d="M5,0h30" style="fill: none; stroke: rgb(67, 99, 216); stroke-opacity: 1; stroke-width: 2px;"/></g><g class="legendsymbols"><g class="legendpoints"/></g></g><rect class="legendtoggle" pointer-events="all" x="0" y="-9.5" width="130.0625" height="19" style="cursor: pointer; fill: rgb(0, 0, 0); fill-opacity: 0;"/></g><g class="traces" transform="translate(0, 90.5)" style="opacity: 1;"><text class="legendtext user-select-none" text-anchor="start" x="40" y="4.680000000000001" style="font-family: 'Open Sans', verdana, arial, sans-serif; font-size: 12px; fill: rgb(242, 245, 250); fill-opacity: 1; white-space: pre;">Jackson, MO</text><g class="layers" style="opacity: 1;"><g class="legendfill"/><g class="legendlines"><path class="js-line" d="M5,0h30" style="fill: none; stroke: rgb(245, 130, 49); stroke-opacity: 1; stroke-width: 2px;"/></g><g class="legendsymbols"><g class="legendpoints"/></g></g><rect class="legendtoggle" pointer-events="all" x="0" y="-9.5" width="130.0625" height="19" style="cursor: pointer; fill: rgb(0, 0, 0); fill-opacity: 0;"/></g><g class="traces" transform="translate(0, 109.5)" style="opacity: 1;"><text class="legendtext user-select-none" text-anchor="start" x="40" y="4.680000000000001" style="font-family: 'Open Sans', verdana, arial, sans-serif; font-size: 12px; fill: rgb(242, 245, 250); fill-opacity: 1; white-space: pre;">Riverside, CA</text><g class="layers" style="opacity: 1;"><g class="legendfill"/><g class="legendlines"><path class="js-line" d="M5,0h30" style="fill: none; stroke: rgb(145, 30, 180); stroke-opacity: 1; stroke-width: 2px;"/></g><g class="legendsymbols"><g class="legendpoints"/></g></g><rect class="legendtoggle" pointer-events="all" x="0" y="-9.5" width="130.0625" height="19" style="cursor: pointer; fill: rgb(0, 0, 0); fill-opacity: 0;"/></g></g></g><rect class="scrollbar" rx="20" ry="3" width="0" height="0" x="0" y="0" style="fill: rgb(128, 139, 164); fill-opacity: 1;"/></g><g class="g-gtitle"/><g class="g-xtitle"><text class="xtitle" x="228.275" y="410.8" text-anchor="middle" style="font-family: 'Open Sans', verdana, arial, sans-serif; font-size: 14px; fill: rgb(242, 245, 250); opacity: 1; font-weight: normal; white-space: pre;">Date</text></g><g class="g-x2title"><text class="x2title" x="590.725" y="410.8" text-anchor="middle" style="font-family: 'Open Sans', verdana, arial, sans-serif; font-size: 14px; fill: rgb(242, 245, 250); opacity: 1; font-weight: normal; white-space: pre;">Date</text></g><g class="g-ytitle"><text class="ytitle" transform="rotate(-90,34.840625,235)" x="34.840625" y="235" text-anchor="middle" style="font-family: 'Open Sans', verdana, arial, sans-serif; font-size: 14px; fill: rgb(242, 245, 250); opacity: 1; font-weight: normal; white-space: pre;">Cases</text></g><g class="g-y2title"><text class="y2title" transform="rotate(-90,389.95,235)" x="389.95" y="235" text-anchor="middle" style="font-family: 'Open Sans', verdana, arial, sans-serif; font-size: 14px; fill: rgb(242, 245, 250); opacity: 1; font-weight: normal; white-space: pre;">Deaths</text></g><g class="annotation" data-index="0" style="opacity: 1;"><g class="annotation-text-g" transform="rotate(0,228.275,89.5)"><g class="cursor-pointer" transform="translate(204, 79)"><rect class="bg" x="0.5" y="0.5" width="48" height="20" style="stroke-width: 1px; stroke: rgb(0, 0, 0); stroke-opacity: 0; fill: rgb(0, 0, 0); fill-opacity: 0;"/><text class="annotation-text" text-anchor="middle" x="24.6875" y="16" style="font-family: 'Open Sans', verdana, arial, sans-serif; font-size: 16px; fill: rgb(242, 245, 250); fill-opacity: 1; white-space: pre;">Cases</text></g></g></g><g class="annotation" data-index="1" style="opacity: 1;"><g class="annotation-text-g" transform="rotate(0,590.725,89.5)"><g class="cursor-pointer" transform="translate(563, 79)"><rect class="bg" x="0.5" y="0.5" width="54" height="20" style="stroke-width: 1px; stroke: rgb(0, 0, 0); stroke-opacity: 0; fill: rgb(0, 0, 0); fill-opacity: 0;"/><text class="annotation-text" text-anchor="middle" x="27.359375" y="16" style="font-family: 'Open Sans', verdana, arial, sans-serif; font-size: 16px; fill: rgb(242, 245, 250); fill-opacity: 1; white-space: pre;">Deaths</text></g></g></g></g></svg>