<svg class="main-svg" xmlns="http://www.w3.org/2000/svg" xmlns:xlink="http://www.w3.org/1999/xlink" width="900" height="450" style="" viewBox="0 0 900 450"><rect x="0" y="0" width="900" height="450" style="fill: rgb(17, 17, 17); fill-opacity: 1;"/><defs id="defs-b6e093"><g class="clips"><clipPath id="clipb6e093xyplot" class="plotclip"><rect width="297.90000000000003" height="270"/></clipPath><clipPath id="clipb6e093x2y2plot" class="plotclip"><rect width="297.9" height="270"/></clipPath><clipPath class="axesclip" id="clipb6e093x"><rect x="80" y="0" width="297.90000000000003" height="450"/></clipPath><clipPath class="axesclip" id="clipb6e093y"><rect x="0" y="100" width="900" height="270"/></clipPath><clipPath class="axesclip" id="clipb6e093xy"><rect x="80" y="100" width="297.90000000000003" height="270"/></clipPath><clipPath class="axesclip" id="clipb6e093y2"><rect x="0" y="100" width="900" height="270"/></clipPath><clipPath class="axesclip" id="clipb6e093xy2"><rect x="80" y="100" width="297.90000000000003" height="270"/></clipPath><clipPath class="axesclip" id="clipb6e093x2"><rect x="444.1" y="0" width="297.9" height="450"/></clipPath><clipPath class="axesclip" id="clipb6e093x2y"><rect x="444.1" y="100" width="297.9" height="270"/></clipPath><clipPath class="axesclip" id="clipb6e093x2y2"><rect x="444.1" y="100" width="297.9" height="270"/></clipPath></g><g class="gradients"/></defs><g class="bglayer"/><g class="layer-below"><g class="imagelayer"/><g class="shapelayer"/></g><g class="cartesianlayer"><g class="subplot xy"><g class="layer-subplot"><g class="shapelayer"/><g class="imagelayer"/></g><g class="gridlayer"><g class="x"><path class="xgrid crisp" transform="translate(128.5,0)" d="M0,100v270" style="stroke: rgb(40, 52, 66); stroke-opacity: 1; stroke-width: 1px;"/><path class="xgrid crisp" transform="translate(191.54000000000002,0)" d="M0,100v270" style="stroke: rgb(40, 52, 66); stroke-opacity: 1; stroke-width: 1px;"/><path class="xgrid crisp" transform="translate(255.28,0)" d="M0,100v270" style="stroke: rgb(40, 52, 66); stroke-opacity: 1; stroke-width: 1px;"/><path class="xgrid crisp" transform="translate(319.01,0)" d="M0,100v270" style="stroke: rgb(40, 52, 66); stroke-opacity: 1; stroke-width: 1px;"/></g><g class="y"><path class="ygrid crisp" transform="translate(0,317.05)" d="M80,0h297.90000000000003" style="stroke: rgb(40, 52, 66); stroke-opacity: 1; stroke-width: 1px;"/><path class="ygrid crisp" transform="translate(0,277.6)" d="M80,0h297.90000000000003" style="stroke: rgb(40, 52, 66); stroke-opacity: 1; stroke-width: 1px;"/><path class="ygrid crisp" transform="translate(0,238.14)" d="M80,0h297.90000000000003" style="stroke: rgb(40, 52, 66); stroke-opacity: 1; stroke-width: 1px;"/><path class="ygrid crisp" transform="translate(0,198.69)" d="M80,0h297.90000000000003" style="stroke: rgb(40, 52, 66); stroke-opacity: 1; stroke-width: 1px;"/><path class="ygrid crisp" transform="translate(0,159.24)" d="M80,0h297.90000000000003" style="stroke: rgb(40, 52, 66); stroke-opacity: 1; stroke-width: 1px;"/><path class="ygrid crisp" transform="translate(0,119.78999999999999)" d="M80,0h297.90000000000003" style="stroke: rgb(40, 52, 66); stroke-opacity: 1; stroke-width: 1px;"/></g></g><g class="zerolinelayer"><path class="yzl zl crisp" transform="translate(0,356.5)" d="M80,0h297.90000000000003" style="stroke: rgb(40, 52, 66); stroke-opacity: 1; stroke-width: 2px;"/></g><path class="xlines-below"/><path class="ylines-below"/><g class="overlines-below"/><g class="xaxislayer-below"/><g class="yaxislayer-below"/><g class="overaxes-below"/><g class="plot" transform="translate(80, 100)" clip-path="url('#clipb6e093xyplot')"><g class="scatterlayer mlayer"><g class="trace scatter trace5b2571" style="stroke-miterlimit: 2; opacity: 1;"><g class="fills"/><g class="errorbars"/><g class="lines"><path class="js-line" d="M0,256.5L48.5,255.79L49.19,255.72L89.37,250.01L90.06,249.81L110.15,245.13L110.85,244.74L115,242.91L115.7,242.91L117.77,241.74L118.47,241.26L119.85,240.77L120.55,240.09L137.17,232.56L137.87,232.56L139.25,230.43L139.94,229.55L142.02,227.78L142.71,227.78L144.1,226.65L144.79,226.05L147.56,223.57L148.26,223.51L148.95,223.49L149.64,222.42L153.8,220.62L154.49,220.12L157.26,218.76L157.96,218.76L161.42,217.4L162.11,217.37L164.88,216.86L165.58,216.73L169.04,215.57L169.73,215.39L177.35,213.68L178.05,213.6L191.21,210.71L191.9,210.51L200.22,208.33L200.91,207.85L209.92,202.8L210.61,202.38L212.69,201.55L213.38,200.82L214.07,200.82L214.77,199.58L218.23,196.67L218.92,195.39L220.31,193.89L221,192.3L221.69,192.14L222.39,189.95L225.85,185.12L226.54,181.11L228.62,177.08L229.31,177.04L231.39,169.7L232.08,168.21L236.24,158.33L236.93,157.07L239.01,152.99L239.71,150.93L242.48,145.18L243.17,143.9L249.4,127.46L250.1,125.16L252.18,121.51L252.87,120.81L260.49,110.57L261.18,109.79L264.65,106.25L265.34,105.6L274.35,99.69L275.04,99.38L285.43,95.65L286.12,95.5L287.51,94.45L288.2,94.13L297.21,93.03L297.9,92.44" style="vector-effect: non-scaling-stroke; fill: none; stroke: rgb(230, 25, 75); stroke-opacity: 1; stroke-width: 2px; opacity: 1;"/></g><g class="points"/><g class="text"/></g><g class="trace scatter tracea7624c" style="stroke-miterlimit: 2; opacity: 1;"><g class="fills"/><g class="errorbars"/><g class="lines"><path class="js-line" d="M0,256.5L42.95,255.9L43.65,255.62L47.8,253.86L48.5,253.38L54.73,247.73L55.42,246.89L56.81,244.7L57.5,244.16L63.04,236.59L63.74,235.35L65.82,231.55L66.51,230.95L71.36,225.42L72.05,224.98L76.9,221.09L77.59,220.6L88.68,215.13L89.37,214.83L90.06,214.51L90.76,212.66L110.15,209.26L110.85,209.23L127.47,206.81L128.17,206.69L142.02,204.1L142.71,204.1L146.18,204.1L146.87,203.18L153.8,202.01L154.49,201.88L166.96,199.35L167.66,199.18L174.58,197.56L175.28,197.25L180.13,195.56L180.82,195.24L190.52,191.23L191.21,190.83L200.22,184.7L200.91,183.82L205.76,177.78L206.45,176.6L209.92,171.8L210.61,170.41L213.38,166.16L214.07,166.16L216.15,161.36L216.84,160.85L218.23,158.01L218.92,155.6L221.69,147.82L222.39,146.48L229.31,125.8L230.01,124.26L232.78,118.72L233.47,118.72L235.55,118.72L236.24,121.01L241.09,108.11L241.78,99.67L245.25,86.82L245.94,86.82L248.02,78.97L248.71,77.15L251.48,71.35L252.18,69.83L255.64,62.23L256.33,61.55L260.49,54.51L261.18,53.75L261.87,53.75L262.57,52.18L266.03,47.89L266.72,47.18L273.65,40.58L274.35,40.15L277.12,37.74L277.81,37.08L288.2,29.59L288.89,29.59L290.28,27.33L290.97,26.52L297.21,19.45L297.9,19.45" style="vector-effect: non-scaling-stroke; fill: none; stroke: rgb(60, 180, 75); stroke-opacity: 1; stroke-width: 2px; opacity: 1;"/></g><g class="points"/><g class="text"/></g><g class="trace scatter trace0de3b7" style="stroke-miterlimit: 2; opacity: 1;"><g class="fills"/><g class="errorbars"/><g class="lines"><path class="js-line" d="M0,256.5L133.71,255.77L134.4,255.73L177.35,254.62L178.05,254.22L182.9,253.85L183.59,253.35L201.6,251.66L202.29,251.31L211.99,248.81L212.69,247.68L215.46,247.19L216.15,247.19L219.61,245.67L220.31,245.67L221.69,245.01L222.39,244.56L223.77,243.92L224.46,243.13L230.7,242.45L231.39,242.19L242.48,240.04L243.17,239.77L250.79,237.59L251.48,237.56L257.03,236.7L257.72,236.56L266.72,235.6L267.42,235.5L293.05,234.39L293.74,234.39L297.9,234.32" style="vector-effect: non-scaling-stroke; fill: none; stroke: rgb(255, 225, 25); stroke-opacity: 1; stroke-width: 2px; opacity: 1;"/></g><g class="points"/><g class="text"/></g><g class="trace scatter tracebb07ad" style="stroke-miterlimit: 2; opacity: 1;"><g class="fills"/><g class="errorbars"/><g class="lines"><path class="js-line" d="M0,256.5L43.65,255.99L44.34,255.71L48.5,253.58L49.19,252.85L60.27,239.73L60.97,239.21L67.89,233.06L68.59,232.24L79.67,224.88L80.36,224.66L89.37,220.31L90.06,220.15L107.38,214.93L108.08,214.67L114.31,213.07L115,213.07L117.77,211.65L118.47,211.45L120.55,210.88L121.24,210.61L129.55,206.95L130.24,206.6L133.02,205.55L133.71,205.4L140.64,203.27L141.33,202.89L148.26,200.67L148.95,200.53L166.27,195.78L166.96,195L173.89,193.9L174.58,193.11L175.97,192.21L176.66,192.21L180.82,189.41L181.51,189.41L187.75,185.93L188.44,185.42L192.6,182.53L193.29,180.88L197.45,177.14L198.14,175.91L202.29,169.62L202.99,167.78L205.07,163.57L205.76,161.29L207.14,158.54L207.84,156.08L211.99,146.73L212.69,143.91L216.15,135.59L216.84,134.62L218.23,130.81L218.92,128.87L222.39,117.09L223.08,114.94L230.7,95.86L231.39,95.59L233.47,90.5L234.16,89.14L237.63,84.23L238.32,82.61L239.71,80.06L240.4,79.85L241.78,77.83L242.48,76.35L250.79,62.81L251.48,62.24L253.56,58.54L254.25,57.63L257.03,54.55L257.72,53.58L261.87,48.65L262.57,48.13L266.03,45.17L266.72,44.06L267.42,43.37L268.11,41.08L270.19,39.66L270.88,39.41L273.65,36.64L274.35,36.43L276.42,35L277.12,34.38L290.97,23.36L291.66,22.37L296.51,16.09L297.21,16.09L297.9,13.5" style="vector-effect: non-scaling-stroke; fill: none; stroke: rgb(67, 99, 216); stroke-opacity: 1; stroke-width: 2px; opacity: 1;"/></g><g class="points"/><g class="text"/></g><g class="trace scatter trace8820a0" style="stroke-miterlimit: 2; opacity: 1;"><g class="fills"/><g class="errorbars"/><g class="lines"><path class="js-line" d="M0,256.5L58.19,255.78L58.89,255.74L94.91,254.01L95.61,253.85L106,252.24L106.69,252.04L110.85,251.1L111.54,250.39L113.62,250.11L114.31,250.11L115.7,248.89L116.39,248.89L118.47,248.12L119.16,248.12L121.24,247.39L121.93,246.7L124.7,246.26L125.4,244.75L131.63,242.49L132.32,242.01L133.71,242.01L134.4,240.96L138.56,240.43L139.25,239.47L152.41,236.09L153.11,236.09L155.19,235.18L155.88,235.02L164.19,233.43L164.88,233.14L176.66,230.97L177.35,230.97L182.9,230.02L183.59,229.99L198.83,227.42L199.52,227.11L207.84,223.66L208.53,222.94L211.3,221.83L211.99,220.63L214.77,220.22L215.46,220.22L216.15,220.22L216.84,216.92L217.54,216.67L218.23,215.1L220.31,213.35L221,213.35L222.39,210.2L223.08,209.86L225.16,208.61L225.85,208.61L227.24,202.42L227.93,201.44L230.01,198.59L230.7,198.59L232.08,193.85L232.78,192.41L239.01,175.91L239.71,173.6L245.94,151.76L246.63,149.58L252.18,132.9L252.87,131.41L254.95,127.13L255.64,125.62L264.65,111.65L265.34,111L270.88,106.8L271.57,106.5L277.81,103.83L278.5,103.56L286.82,101.69L287.51,101.69L294.44,101.02L295.13,101.02L297.9,100.3" style="vector-effect: non-scaling-stroke; fill: none; stroke: rgb(245, 130, 49); stroke-opacity: 1; stroke-width: 2px; opacity: 1;"/></g><g class="points"/><g class="text"/></g><g class="trace scatter trace142b5c" style="stroke-miterlimit: 2; opacity: 1;"><g class="fills"/><g class="errorbars"/><g class="lines"><path class="js-line" d="M0,256.5L51.96,255.77L52.65,255.74L91.45,253.87L92.14,253.82L99.07,252.35L99.76,252.09L105.3,248.9L106,248.54L126.09,228.51L126.78,228.15L129.55,226.24L130.24,225.84L131.63,224.71L132.32,224.24L135.79,222.57L136.48,222.26L142.71,219.69L143.41,219.55L147.56,218.33L148.26,218.17L160.03,215.89L160.73,215.76L165.58,214.57L166.27,214.37L185.67,209.66L186.36,209.19L194.67,205.86L195.37,205.37L198.14,204.27L198.83,203.87L209.92,196.76L210.61,196.12L222.39,186.46L223.08,185.72L227.24,180.64L227.93,180L231.39,175.65L232.08,175.07L237.63,169.23L238.32,167.78L239.01,167.78L239.71,165.15L249.4,150.21L250.1,149.56L254.25,144.92L254.95,144.19L258.41,140.92L259.1,139.71L275.04,127.9L275.73,127.54L282.66,123.24L283.35,122.92L290.97,119.47L291.66,119.07L297.9,115.46" style="vector-effect: non-scaling-stroke; fill: none; stroke: rgb(145, 30, 180); stroke-opacity: 1; stroke-width: 2px; opacity: 1;"/></g><g class="points"/><g class="text"/></g></g></g><g class="overplot"/><path class="xlines-above crisp" d="M0,0" style="fill: none;"/><path class="ylines-above crisp" d="M0,0" style="fill: none;"/><g class="overlines-above"/><g class="xaxislayer-above"><g class="xtick"><text text-anchor="middle" x="0" y="383" transform="translate(128.5,0)" style="font-family: 'Open Sans', verdana, arial, sans-serif; font-size: 12px; fill: rgb(242, 245, 250); fill-opacity: 1; white-space: pre;">Apr 2020</text></g><g class="xtick"><text text-anchor="middle" x="0" y="383" transform="translate(191.54000000000002,0)" style="font-family: 'Open Sans', verdana, arial, sans-serif; font-size: 12px; fill: rgb(242, 245, 250); fill-opacity: 1; white-space: pre;">Jul 2020</text></g><g class="xtick"><text text-anchor="middle" x="0" y="383" transform="translate(255.28,0)" style="font-family: 'Open Sans', verdana, arial, sans-serif; font-size: 12px; fill: rgb(242, 245, 250); fill-opacity: 1; white-space: pre;">Oct 2020</text></g><g class="xtick"><text text-anchor="middle" x="0" y="383" transform="translate(319.01,0)" style="font-family: 'Open Sans', verdana, arial, sans-serif; font-size: 12px; fill: rgb(242, 245, 250); fill-opacity: 1; white-space: pre;">Jan 2021</text></g></g><g class="yaxislayer-above"><g class="ytick"><text text-anchor="end" x="79" y="4.199999999999999" transform="translate(0,356.5)" style="font-family: 'Open Sans', verdana, arial, sans-serif; font-size: 12px; fill: rgb(242, 245, 250); fill-opacity: 1; white-space: pre;">0</text></g><g class="ytick"><text text-anchor="end" x="79" y="4.199999999999999" transform="translate(0,317.05)" style="font-family: 'Open Sans', verdana, arial, sans-serif; font-size: 12px; fill: rgb(242, 245, 250); fill-opacity: 1; white-space: pre;">20k</text></g><g class="ytick"><text text-anchor="end" x="79" y="4.199999999999999" transform="translate(0,277.6)" style="font-family: 'Open Sans', verdana, arial, sans-serif; font-size: 12px; fill: rgb(242, 245, 250); fill-opacity: 1; white-space: pre;">40k</text></g><g class="ytick"><text text-anchor="end" x="79" y="4.199999999999999" transform="translate(0,238.14)" style="font-family: 'Open Sans', verdana, arial, sans-serif; font-size: 12px; fill: rgb(242, 245, 250); fill-opacity: 1; white-space: pre;">60k</text></g><g class="ytick"><text text-anchor="end" x="79" y="4.199999999999999" transform="translate(0,198.69)" style="font-family: 'Open Sans', verdana, arial, sans-serif; font-size: 12px; fill: rgb(242, 245, 250); fill-opacity: 1; white-space: pre;">80k</text></g><g class="ytick"><text text-anchor="end" x="79" y="4.199999999999999" transform="translate(0,159.24)" style="font-family: 'Open Sans', verdana, arial, sans-serif; font-size: 12px; fill: rgb(242, 245, 250); fill-opacity: 1; white-space: pre;">100k</text></g><g class="ytick"><text text-anchor="end" x="79" y="4.199999999999999" transform="translate(0,119.78999999999999)" style="font-family: 'Open Sans', verdana, arial, sans-serif; font-size: 12px; fill: rgb(242, 245, 250); fill-opacity: 1; white-space: pre;">120k</text></g></g><g class="overaxes-above"/></g><g class="subplot x2y2"><g class="layer-subplot"><g class="shapelayer"/><g class="imagelayer"/></g><g class="gridlayer"><g class="x2"><path class="x2grid crisp" transform="translate(492.6,0)" d="M0,100v270" style="stroke: rgb(40, 52, 66); stroke-opacity: 1; stroke-width: 1px;"/><path class="x2grid crisp" transform="translate(555.64,0)" d="M0,100v270" style="stroke: rgb(40, 52, 66); stroke-opacity: 1; stroke-width: 1px;"/><path class="x2grid crisp" transform="translate(619.38,0)" d="M0,100v270" style="stroke: rgb(40, 52, 66); stroke-opacity: 1; stroke-width: 1px;"/><path class="x2grid crisp" transform="translate(683.11,0)" d="M0,100v270" style="stroke: rgb(40, 52, 66); stroke-opacity: 1; stroke-width: 1px;"/></g><g class="y2"><path class="y2grid crisp" transform="translate(0,289.3)" d="M444.1,0h297.9" style="stroke: rgb(40, 52, 66); stroke-opacity: 1; stroke-width: 1px;"/><path class="y2grid crisp" transform="translate(0,222.1)" d="M444.1,0h297.9" style="stroke: rgb(40, 52, 66); stroke-opacity: 1; stroke-width: 1px;"/><path class="y2grid crisp" transform="translate(0,154.9)" d="M444.1,0h297.9" style="stroke: rgb(40, 52, 66); stroke-opacity: 1; stroke-width: 1px;"/></g></g><g class="zerolinelayer"><path class="y2zl zl crisp" transform="translate(0,356.5)" d="M444.1,0h297.9" style="stroke: rgb(40, 52, 66); stroke-opacity: 1; stroke-width: 2px;"/></g><path class="xlines-below"/><path class="ylines-below"/><g class="overlines-below"/><g class="xaxislayer-below"/><g class="yaxislayer-below"/><g class="overaxes-below"/><g class="plot" transform="translate(444.1, 100)" clip-path="url('#clipb6e093x2y2plot')"><g class="scatterlayer mlayer"><g class="trace scatter trace58eaad" style="stroke-miterlimit: 2; opacity: 1;"><g class="fills"/><g class="errorbars"/><g class="lines"><path class="js-line" d="M0,256.5L49.19,255.9L49.88,255.69L57.5,254.95L58.19,254.08L62.35,253.61L63.04,253.48L77.59,251.39L78.29,251.19L83.13,250.45L83.83,250.45L89.37,250.12L90.06,250.05L96.99,249.44L97.68,249.24L111.54,247.36L112.23,247.23L119.16,246.55L119.85,246.55L124.01,245.61L124.7,245.61L128.17,244.54L128.86,244.54L134.4,243.8L135.09,243.6L139.94,242.72L140.64,242.25L144.1,241.65L144.79,241.45L148.26,240.77L148.95,240.77L151.72,239.9L152.41,239.9L153.8,239.23L154.49,239.23L156.57,236.61L157.26,236.41L160.73,236.14L161.42,235L162.11,235L162.81,234.19L163.5,234.12L164.19,232.58L165.58,231.97L166.27,231.64L168.35,231.37L169.04,230.29L172.5,229.22L173.2,229.22L178.74,227.81L179.43,226.93L189.13,227.27L189.82,225.86L199.52,225.25L200.22,224.85L207.84,223.37L208.53,223.3L217.54,221.96L218.23,221.56L223.08,221.15L223.77,220.68L227.93,218.67L228.62,217.93L230.01,217.19L230.7,217.05L232.08,216.99L232.78,215.57L235.55,214.5L236.24,214.5L238.32,214.5L239.01,212.42L242.48,212.42L243.17,209.66L243.86,209.66L244.56,207.51L246.63,207.04L247.33,205.76L252.87,205.02L253.56,199.92L254.95,198.98L255.64,196.42L257.03,195.62L257.72,194.07L259.1,192.05L259.8,191.05L262.57,189.37L263.26,187.89L265.34,186.54L266.03,186.54L268.8,183.38L269.5,181.23L272.96,180.83L273.65,177.81L274.35,177.81L275.04,175.86L276.42,175.86L277.12,174.65L279.89,173.04L280.58,173.04L281.97,172.9L282.66,170.42L286.12,169.07L286.82,177.34L295.82,177.34L296.51,175.93L297.21,175.93L297.9,175.12" style="vector-effect: non-scaling-stroke; fill: none; stroke: rgb(230, 25, 75); stroke-opacity: 1; stroke-width: 2px; opacity: 1;"/></g><g class="points"/><g class="text"/></g><g class="trace scatter trace3a087a" style="stroke-miterlimit: 2; opacity: 1;"><g class="fills"/><g class="errorbars"/><g class="lines"><path class="js-line" d="M0,256.5L47.11,255.9L47.8,255.29L49.19,254.55L49.88,253.88L51.96,253.27L52.65,251.86L54.73,249.18L55.42,247.29L57.5,243.87L58.19,241.65L63.04,223.3L63.74,219.88L74.82,177.94L75.51,175.39L82.44,158.25L83.13,157.18L85.21,154.49L85.91,153.88L87.98,151.4L88.68,150.12L90.06,147.97L90.76,145.62L94.22,142.19L94.91,141.92L101.15,137.89L101.84,136.81L110.15,131.37L110.85,132.11L115,130.03L115.7,129.62L118.47,127.94L119.16,127.74L124.7,125.59L125.4,125.73L128.17,125.12L128.86,124.99L132.32,123.58L133.02,123.24L142.71,121.69L143.41,121.69L144.79,121.69L145.49,119.81L149.64,118.47L150.34,118.2L154.49,117.33L155.19,117.33L157.26,116.59L157.96,116.52L184.28,108.66L184.98,108.32L187.05,107.11L187.75,106.91L189.13,106.51L189.82,105.97L193.98,104.29L194.67,103.82L197.45,102.74L198.14,102.61L202.29,100.46L202.99,100.26L206.45,98.24L207.14,98.17L216.15,94.01L216.84,93.54L220.31,91.52L221,90.65L225.16,87.02L225.85,86.55L231.39,81.98L232.08,81.98L232.78,81.98L233.47,78.82L234.86,81.98L235.55,81.98L236.24,81.64L236.93,75.46L238.32,73.11L239.01,73.11L241.78,69.41L242.48,68.2L243.86,67.06L244.56,65.85L246.63,63.03L247.33,61.41L248.71,59.94L249.4,59L252.87,54.63L253.56,53.55L258.41,48.78L259.1,47.24L261.18,45.35L261.87,45.35L263.26,43.74L263.95,43.74L265.34,39.57L266.03,38.7L271.57,31.85L272.27,31.31L278.5,26.07L279.19,26.07L281.27,23.98L281.97,23.45L284.04,23.04L284.74,21.63L288.89,19.75L289.59,18.61L295.13,15.45L295.82,14.64L297.9,13.5" style="vector-effect: non-scaling-stroke; fill: none; stroke: rgb(60, 180, 75); stroke-opacity: 1; stroke-width: 2px; opacity: 1;"/></g><g class="points"/><g class="text"/></g><g class="trace scatter tracefb0ff4" style="stroke-miterlimit: 2; opacity: 1;"><g class="fills"/><g class="errorbars"/><g class="lines"><path class="js-line" d="M0,256.5L150.34,255.76L151.03,255.69L179.43,255.02L180.13,254.89L203.68,254.22L204.37,254.08L216.84,253.34L217.54,253.14L226.54,252.54L227.24,252.27L238.32,251.59L239.01,251.26L243.17,250.52L243.86,250.12L248.02,249.44L248.71,249.04L250.79,248.64L251.48,248.64L253.56,248.23L254.25,247.83L258.41,247.23L259.1,246.96L262.57,246.22L263.26,245.95L265.34,245.68L266.03,245.68L277.12,244.94L277.81,244.81L286.12,244.47L286.82,246.62L295.82,246.62L296.51,244.34L297.9,244.34" style="vector-effect: non-scaling-stroke; fill: none; stroke: rgb(255, 225, 25); stroke-opacity: 1; stroke-width: 2px; opacity: 1;"/></g><g class="points"/><g class="text"/></g><g class="trace scatter tracee7e079" style="stroke-miterlimit: 2; opacity: 1;"><g class="fills"/><g class="errorbars"/><g class="lines"><path class="js-line" d="M0,256.5L48.5,255.83L49.19,255.63L50.57,254.89L51.27,254.62L51.96,254.62L52.65,252.6L54.04,250.72L54.73,249.11L56.12,247.9L56.81,247.9L60.27,247.36L60.97,240.37L62.35,238.29L63.04,238.29L67.2,237.95L67.89,228.14L71.36,228.01L72.05,214.5L72.74,214.5L73.44,209.59L74.82,198.98L75.51,198.91L76.21,198.91L76.9,197.97L77.59,195.75L78.29,189.3L78.98,189.03L79.67,187.89L80.36,187.82L81.06,183.92L84.52,174.72L85.21,174.45L86.6,173.71L87.29,171.69L89.37,168.6L90.06,168.6L90.76,168.6L91.45,166.05L94.91,161.07L95.61,161.01L99.76,155.36L100.45,155.09L104.61,152.14L105.3,152.14L108.08,149.85L108.77,149.58L110.15,149.31L110.85,148.57L114.31,147.7L115,147.7L119.85,146.29L120.55,145.89L121.93,145.42L122.62,145.42L126.78,144.61L127.47,144.61L129.55,144.14L130.24,144.14L133.71,143.53L134.4,143.53L135.79,143.06L136.48,142.39L148.26,138.36L148.95,138.36L164.19,136.08L164.88,135.74L169.04,134.73L169.73,134.4L178.05,132.92L178.74,132.78L187.05,131.1L187.75,131.04L192.6,130.43L193.29,130.16L204.37,127.47L205.07,126.94L207.14,126.47L207.84,126.2L209.92,124.25L210.61,124.25L214.07,121.29L214.77,121.22L216.84,120.35L217.54,119.27L219.61,115.44L220.31,114.97L221.69,114.64L222.39,113.56L225.16,108.86L225.85,108.25L226.54,108.19L227.24,106.24L230.7,101.26L231.39,100.79L232.78,98.85L233.47,97.3L235.55,96.02L236.24,95.89L237.63,92.53L238.32,90.31L239.71,88.97L240.4,88.63L241.09,88.36L241.78,87.15L244.56,81.31L245.25,80.63L246.63,79.36L247.33,77.61L249.4,73.51L250.1,73.24L251.48,72.91L252.18,71.16L254.95,67.19L255.64,66.59L259.8,61.08L260.49,61.01L264.65,56.84L265.34,56.84L268.8,54.22L269.5,53.01L270.88,52.95L271.57,51.47L273.65,49.18L274.35,49.05L275.73,48.92L276.42,47.44L283.35,43.27L284.04,43L286.12,42.53L286.82,41.79L288.89,40.92L289.59,40.92L291.66,39.98L292.36,39.98L293.74,39.37L294.44,39.37L297.21,37.96L297.9,37.09" style="vector-effect: non-scaling-stroke; fill: none; stroke: rgb(67, 99, 216); stroke-opacity: 1; stroke-width: 2px; opacity: 1;"/></g><g class="points"/><g class="text"/></g><g class="trace scatter trace64aef6" style="stroke-miterlimit: 2; opacity: 1;"><g class="fills"/><g class="errorbars"/><g class="lines"><path class="js-line" d="M0,256.5L56.81,255.83L57.5,255.63L77.59,254.89L78.29,254.82L96.3,254.15L96.99,253.95L114.31,253.34L115,253.14L124.7,252.67L125.4,252.33L138.56,250.52L139.25,250.32L163.5,247.43L164.19,247.23L168.35,246.69L169.04,246.69L180.13,245.95L180.82,245.88L201.6,245.14L202.29,245.01L216.15,244.74L216.84,244.2L230.01,242.39L230.7,242.39L232.78,241.98L233.47,241.45L234.86,240.84L235.55,240.84L236.93,240.1L237.63,239.36L240.4,238.83L241.09,238.83L242.48,236.54L243.17,236L245.25,234.05L245.94,234.05L249.4,229.55L250.1,228.81L251.48,228.81L252.18,227.2L254.25,222.43L254.95,222.43L255.64,222.43L256.33,221.22L259.1,216.31L259.8,216.31L260.49,216.31L261.18,214.97L264.65,211.88L265.34,211.88L269.5,207.31L270.19,207.31L270.88,207.31L271.57,206.03L273.65,203.95L274.35,203.95L275.04,203.95L275.73,203.14L279.19,199.78L279.89,199.78L284.04,197.16L284.74,197.16L287.51,194.54L288.2,194.54L295.82,194.54L296.51,193.06L297.21,193.06L297.9,192.26" style="vector-effect: non-scaling-stroke; fill: none; stroke: rgb(245, 130, 49); stroke-opacity: 1; stroke-width: 2px; opacity: 1;"/></g><g class="points"/><g class="text"/></g><g class="trace scatter trace3b1aea" style="stroke-miterlimit: 2; opacity: 1;"><g class="fills"/><g class="errorbars"/><g class="lines"><path class="js-line" d="M0,256.5L54.04,255.83L54.73,255.69L63.74,254.95L64.43,254.89L67.89,254.22L68.59,254.01L72.74,253.14L73.44,252.74L77.59,252.27L78.29,252.13L101.15,249.31L101.84,249.11L106.69,247.63L107.38,247.29L111.54,244.94L112.23,244.4L115,243.13L115.7,242.66L119.85,240.64L120.55,238.89L123.32,235.67L124.01,235.4L128.17,231.5L128.86,231.43L130.24,229.96L130.94,228.41L131.63,228.41L132.32,227.47L134.4,226.8L135.09,225.59L137.17,224.18L137.87,223.1L139.94,222.03L140.64,221.42L142.02,220.14L142.71,219.94L144.1,219L144.79,218.2L146.87,216.78L147.56,216.52L148.95,215.37L149.64,214.16L156.57,211.54L157.26,211.41L159.34,210.94L160.03,209.93L166.96,208.05L167.66,208.05L170.43,206.84L171.12,206.64L180.13,204.35L180.82,204.08L200.22,200.66L200.91,200.66L203.68,200.19L204.37,199.45L211.3,198.24L211.99,197.9L214.07,197.09L214.77,197.03L217.54,195.28L218.23,195.28L227.93,191.58L228.62,189.97L231.39,189.37L232.08,189.3L238.32,186.01L239.01,186.01L240.4,184.86L241.09,183.99L242.48,182.18L243.17,181.64L246.63,180.43L247.33,179.29L252.87,175.32L253.56,175.25L254.95,174.25L255.64,172.36L258.41,169.94L259.1,169.94L259.8,169.88L260.49,168.87L262.57,168.33L263.26,167.12L264.65,166.79L265.34,166.11L266.03,166.11L266.72,165.31L268.11,164.3L268.8,164.3L270.19,164.3L270.88,163.49L272.27,162.62L272.96,161.68L274.35,161.48L275.04,160.47L279.19,159.66L279.89,158.99L285.43,156.91L286.12,156.91L287.51,156.57L288.2,155.63L289.59,155.03L290.28,154.35L296.51,153.28L297.21,151.6L297.9,151.6" style="vector-effect: non-scaling-stroke; fill: none; stroke: rgb(145, 30, 180); stroke-opacity: 1; stroke-width: 2px; opacity: 1;"/></g><g class="points"/><g class="text"/></g></g></g><g class="overplot"/><path class="xlines-above crisp" d="M0,0" style="fill: none;"/><path class="ylines-above crisp" d="M0,0" style="fill: none;"/><g class="overlines-above"/><g class="xaxislayer-above"><g class="x2tick"><text text-anchor="middle" x="0" y="383" transform="translate(492.6,0)" style="font-family: 'Open Sans', verdana, arial, sans-serif; font-size: 12px; fill: rgb(242, 245, 250); fill-opacity: 1; white-space: pre;">Apr 2020</text></g><g class="x2tick"><text text-anchor="middle" x="0" y="383" transform="translate(555.64,0)" style="font-family: 'Open Sans', verdana, arial, sans-serif; font-size: 12px; fill: rgb(242, 245, 250); fill-opacity: 1; white-space: pre;">Jul 2020</text></g><g class="x2tick"><text text-anchor="middle" x="0" y="383" transform="translate(619.38,0)" style="font-family: 'Open Sans', verdana, arial, sans-serif; font-size: 12px; fill: rgb(242, 245, 250); fill-opacity: 1; white-space: pre;">Oct 2020</text></g><g class="x2tick"><text text-anchor="middle" x="0" y="383" transform="translate(683.11,0)" style="font-family: 'Open Sans', verdana, arial, sans-serif; font-size: 12px; fill: rgb(242, 245, 250); fill-opacity: 1; white-space: pre;">Jan 2021</text></g></g><g class="yaxislayer-above"><g class="y2tick"><text text-anchor="end" x="443.1" y="4.199999999999999" transform="translate(0,356.5)" style="font-family: 'Open Sans', verdana, arial, sans-serif; font-size: 12px; fill: rgb(242, 245, 250); fill-opacity: 1; white-space: pre;">0</text></g><g class="y2tick"><text text-anchor="end" x="443.1" y="4.199999999999999" transform="translate(0,289.3)" style="font-family: 'Open Sans', verdana, arial, sans-serif; font-size: 12px; fill: rgb(242, 245, 250); fill-opacity: 1; white-space: pre;">1000</text></g><g class="y2tick"><text text-anchor="end" x="443.1" y="4.199999999999999" transform="translate(0,222.1)" style="font-family: 'Open Sans', verdana, arial, sans-serif; font-size: 12px; fill: rgb(242, 245, 250); fill-opacity: 1; white-space: pre;">2000</text></g><g class="y2tick"><text text-anchor="end" x="443.1" y="4.199999999999999" transform="translate(0,154.9)" style="font-family: 'Open Sans', verdana, arial, sans-serif; font-size: 12px; fill: rgb(242, 245, 250); fill-opacity: 1; white-space: pre;">3000</text></g></g><g class="overaxes-above"/></g></g><g class="polarlayer"/><g class="ternarylayer"/><g class="geolayer"/><g class="funnelarealayer"/><g class="pielayer"/><g class="treemaplayer"/><g class="sunburstlayer"/><g class="glimages"/><defs id="topdefs-b6e093"><g class="clips"/><clipPath id="legendb6e093"><rect width="133" height="124" x="0" y="0"/></clipPath></defs><g class="layer-above"><g class="imagelayer"/><g class="shapelayer"/></g><g class="infolayer"><g class="legend" pointer-events="all" transform="translate(755.24, 100)"><rect class="bg" shape-rendering="crispEdges" width="133" height="124" x="0" y="0" style="stroke: rgb(68, 68, 68); stroke-opacity: 1; fill: rgb(17, 17, 17); fill-opacity: 1; stroke-width: 0px;"/><g class="scrollbox" transform="translate(0, 0)" clip-path="url('#legendb6e093')"><g class="groups"><g class="traces" transform="translate(0, 14.5)" style="opacity: 1;"><text class="legendtext user-select-none" text-anchor="start" x="40" y="4.680000000000001" style="font-family: 'Open Sans', verdana, arial, sans-serif; font-size: 12px; fill: rgb(242, 245, 250); fill-opacity: 1; white-space: pre;">Alameda, CA</text><g class="layers" style="opacity: 1;"><g class="legendfill"/><g class="legendlines"><path class="js-line" d="M5,0h30" style="fill: none; stroke: rgb(230, 25, 75); stroke-opacity: 1; stroke-width: 2px;"/></g><g class="legendsymbols"><g class="legendpoints"/></g></g><rect class="legendtoggle" pointer-events="all" x="0" y="-9.5" width="127.171875" height="19" style="cursor: pointer; fill: rgb(0, 0, 0); fill-opacity: 0;"/></g><g class="traces" transform="translate(0, 33.5)" style="opacity: 1;"><text class="legendtext user-select-none" text-anchor="start" x="40" y="4.680000000000001" style="font-family: 'Open Sans', verdana, arial, sans-serif; font-size: 12px; fill: rgb(242, 245, 250); fill-opacity: 1; white-space: pre;">Middlesex, MA</text><g class="layers" style="opacity: 1;"><g class="legendfill"/><g class="legendlines"><path class="js-line" d="M5,0h30" style="fill: none; stroke: rgb(60, 180, 75); stroke-opacity: 1; stroke-width: 2px;"/></g><g class="legendsymbols"><g class="legendpoints"/></g></g><rect class="legendtoggle" pointer-events="all" x="0" y="-9.5" width="127.171875" height="19" style="cursor: pointer; fill: rgb(0, 0, 0); fill-opacity: 0;"/></g><g class="traces" transform="translate(0, 52.5)" style="opacity: 1;"><text class="legendtext user-select-none" text-anchor="start" x="40" y="4.680000000000001" style="font-family: 'Open Sans', verdana, arial, sans-serif; font-size: 12px; fill: rgb(242, 245, 250); fill-opacity: 1; white-space: pre;">Shasta, CA</text><g class="layers" style="opacity: 1;"><g class="legendfill"/><g class="legendlines"><path class="js-line" d="M5,0h30" style="fill: none; stroke: rgb(255, 225, 25); stroke-opacity: 1; stroke-width: 2px;"/></g><g class="legendsymbols"><g class="legendpoints"/></g></g><rect class="legendtoggle" pointer-events="all" x="0" y="-9.5" width="127.171875" height="19" style="cursor: pointer; fill: rgb(0, 0, 0); fill-opacity: 0;"/></g><g class="traces" transform="translate(0, 71.5)" style="opacity: 1;"><text class="legendtext user-select-none" text-anchor="start" x="40" y="4.680000000000001" style="font-family: 'Open Sans', verdana, arial, sans-serif; font-size: 12px; fill: rgb(242, 245, 250); fill-opacity: 1; white-space: pre;">Philadelphia, PA</text><g class="layers" style="opacity: 1;"><g class="legendfill"/><g class="legendlines"><path class="js-line" d="M5,0h30" style="fill: none; stroke: rgb(67, 99, 216); stroke-opacity: 1; stroke-width: 2px;"/></g><g class="legendsymbols"><g class="legendpoints"/></g></g><rect class="legendtoggle" pointer-events="all" x="0" y="-9.5" width="127.171875" height="19" style="cursor: pointer; fill: rgb(0, 0, 0); fill-opacity: 0;"/></g><g class="traces" transform="translate(0, 90.5)" style="opacity: 1;"><text class="legendtext user-select-none" text-anchor="start" x="40" y="4.680000000000001" style="font-family: 'Open Sans', verdana, arial, sans-serif; font-size: 12px; fill: rgb(242, 245, 250); fill-opacity: 1; white-space: pre;">Ventura, CA</text><g class="layers" style="opacity: 1;"><g class="legendfill"/><g class="legendlines"><path class="js-line" d="M5,0h30" style="fill: none; stroke: rgb(245, 130, 49); stroke-opacity: 1; stroke-width: 2px;"/></g><g class="legendsymbols"><g class="legendpoints"/></g></g><rect class="legendtoggle" pointer-events="all" x="0" y="-9.5" width="127.171875" height="19" style="cursor: pointer; fill: rgb(0, 0, 0); fill-opacity: 0;"/></g><g class="traces" transform="translate(0, 109.5)" style="opacity: 1;"><text class="legendtext user-select-none" text-anchor="start" x="40" y="4.680000000000001" style="font-family: 'Open Sans', verdana, arial, sans-serif; font-size: 12px; fill: rgb(242, 245, 250); fill-opacity: 1; white-space: pre;">Pinellas, FL</text><g class="layers" style="opacity: 1;"><g class="legendfill"/><g class="legendlines"><path class="js-line" d="M5,0h30" style="fill: none; stroke: rgb(145, 30, 180); stroke-opacity: 1; stroke-width: 2px;"/></g><g class="legendsymbols"><g class="legendpoints"/></g></g><rect class="legendtoggle" pointer-events="all" x="0" y="-9.5" width="127.171875" height="19" style="cursor: pointer; fill: rgb(0, 0, 0); fill-opacity: 0;"/></g></g></g><rect class="scrollbar" rx="20" ry="3" width="0" height="0" x="0" y="0" style="fill: rgb(128, 139, 164); fill-opacity: 1;"/></g><g class="g-gtitle"/><g class="g-xtitle"><text class="xtitle" x="228.95000000000002" y="410.8" text-anchor="middle" style="font-family: 'Open Sans', verdana, arial, sans-serif; font-size: 14px; fill: rgb(242, 245, 250); opacity: 1; font-weight: normal; white-space: pre;">Date</text></g><g class="g-x2title"><text class="x2title" x="593.05" y="410.8" text-anchor="middle" style="font-family: 'Open Sans', verdana, arial, sans-serif; font-size: 14px; fill: rgb(242, 245, 250); opacity: 1; font-weight: normal; white-space: pre;">Date</text></g><g class="g-ytitle"><text class="ytitle" transform="rotate(-90,28.168750000000003,235)" x="28.168750000000003" y="235" text-anchor="middle" style="font-family: 'Open Sans', verdana, arial, sans-serif; font-size: 14px; fill: rgb(242, 245, 250); opacity: 1; font-weight: normal; white-space: pre;">Cases</text></g><g class="g-y2title"><text class="y2title" transform="rotate(-90,391.590625,235)" x="391.590625" y="235" text-anchor="middle" style="font-family: 'Open Sans', verdana, arial, sans-serif; font-size: 14px; fill: rgb(242, 245, 250); opacity: 1; font-weight: normal; white-space: pre;">Deaths</text></g><g class="annotation" data-index="0" style="opacity: 1;"><g class="annotation-text-g" transform="rotate(0,228.95000000000002,89.5)"><g class="cursor-pointer" transform="translate(204, 79)"><rect class="bg" x="0.5" y="0.5" width="48" height="20" style="stroke-width: 1px; stroke: rgb(0, 0, 0); stroke-opacity: 0; fill: rgb(0, 0, 0); fill-opacity: 0;"/><text class="annotation-text" text-anchor="middle" x="24.6875" y="16" style="font-family: 'Open Sans', verdana, arial, sans-serif; font-size: 16px; fill: rgb(242, 245, 250); fill-opacity: 1; white-space: pre;">Cases</text></g></g></g><g class="annotation" data-index="1" style="opacity: 1;"><g class="annotation-text-g" transform="rotate(0,593.0500000000001,89.5)"><g class="cursor-pointer" transform="translate(566, 79)"><rect class="bg" x="0.5" y="0.5" width="54" height="20" style="stroke-width: 1px; stroke: rgb(0, 0, 0); stroke-opacity: 0; fill: rgb(0, 0, 0); fill-opacity: 0;"/><text class="annotation-text" text-anchor="middle" x="27.359375" y="16" style="font-family: 'Open Sans', verdana, arial, sans-serif; font-size: 16px; fill: rgb(242, 245, 250); fill-opacity: 1; white-space: pre;">Deaths</text></g></g></g></g></svg>