<svg class="main-svg" xmlns="http://www.w3.org/2000/svg" xmlns:xlink="http://www.w3.org/1999/xlink" width="900" height="450" style="" viewBox="0 0 900 450"><rect x="0" y="0" width="900" height="450" style="fill: rgb(17, 17, 17); fill-opacity: 1;"/><defs id="defs-4ae59c"><g class="clips"><clipPath id="clip4ae59cxyplot" class="plotclip"><rect width="300.6" height="270"/></clipPath><clipPath id="clip4ae59cx2y2plot" class="plotclip"><rect width="300.59999999999997" height="270"/></clipPath><clipPath class="axesclip" id="clip4ae59cx"><rect x="80" y="0" width="300.6" height="450"/></clipPath><clipPath class="axesclip" id="clip4ae59cy"><rect x="0" y="100" width="900" height="270"/></clipPath><clipPath class="axesclip" id="clip4ae59cxy"><rect x="80" y="100" width="300.6" height="270"/></clipPath><clipPath class="axesclip" id="clip4ae59cy2"><rect x="0" y="100" width="900" height="270"/></clipPath><clipPath class="axesclip" id="clip4ae59cxy2"><rect x="80" y="100" width="300.6" height="270"/></clipPath><clipPath class="axesclip" id="clip4ae59cx2"><rect x="447.40000000000003" y="0" width="300.59999999999997" height="450"/></clipPath><clipPath class="axesclip" id="clip4ae59cx2y"><rect x="447.40000000000003" y="100" width="300.59999999999997" height="270"/></clipPath><clipPath class="axesclip" id="clip4ae59cx2y2"><rect x="447.40000000000003" y="100" width="300.59999999999997" height="270"/></clipPath></g><g class="gradients"/></defs><g class="bglayer"/><g class="layer-below"><g class="imagelayer"/><g class="shapelayer"/></g><g class="cartesianlayer"><g class="subplot xy"><g class="layer-subplot"><g class="shapelayer"/><g class="imagelayer"/></g><g class="gridlayer"><g class="x"><path class="xgrid crisp" transform="translate(130.1,0)" d="M0,100v270" style="stroke: rgb(40, 52, 66); stroke-opacity: 1; stroke-width: 1px;"/><path class="xgrid crisp" transform="translate(195.23000000000002,0)" d="M0,100v270" style="stroke: rgb(40, 52, 66); stroke-opacity: 1; stroke-width: 1px;"/><path class="xgrid crisp" transform="translate(261.08000000000004,0)" d="M0,100v270" style="stroke: rgb(40, 52, 66); stroke-opacity: 1; stroke-width: 1px;"/><path class="xgrid crisp" transform="translate(326.91999999999996,0)" d="M0,100v270" style="stroke: rgb(40, 52, 66); stroke-opacity: 1; stroke-width: 1px;"/></g><g class="y"><path class="ygrid crisp" transform="translate(0,297.01)" d="M80,0h300.6" style="stroke: rgb(40, 52, 66); stroke-opacity: 1; stroke-width: 1px;"/><path class="ygrid crisp" transform="translate(0,237.53)" d="M80,0h300.6" style="stroke: rgb(40, 52, 66); stroke-opacity: 1; stroke-width: 1px;"/><path class="ygrid crisp" transform="translate(0,178.04000000000002)" d="M80,0h300.6" style="stroke: rgb(40, 52, 66); stroke-opacity: 1; stroke-width: 1px;"/><path class="ygrid crisp" transform="translate(0,118.56)" d="M80,0h300.6" style="stroke: rgb(40, 52, 66); stroke-opacity: 1; stroke-width: 1px;"/></g></g><g class="zerolinelayer"><path class="yzl zl crisp" transform="translate(0,356.5)" d="M80,0h300.6" style="stroke: rgb(40, 52, 66); stroke-opacity: 1; stroke-width: 2px;"/></g><path class="xlines-below"/><path class="ylines-below"/><g class="overlines-below"/><g class="xaxislayer-below"/><g class="yaxislayer-below"/><g class="overaxes-below"/><g class="plot" transform="translate(80, 100)" clip-path="url('#clip4ae59cxyplot')"><g class="scatterlayer mlayer"><g class="trace scatter tracec9142c" style="stroke-miterlimit: 2; opacity: 1;"><g class="fills"/><g class="errorbars"/><g class="lines"><path class="js-line" d="M0,256.5L46.52,255.85L47.24,255.74L54.39,254.61L55.11,254.5L85.89,248.74L86.6,248.45L103.78,243.49L104.49,243.17L108.79,241.61L109.5,241.21L117.38,237L118.09,236.11L119.52,236.02L120.24,234.95L125.97,230.84L126.68,230.15L128.83,228.97L129.54,228.59L133.12,225.66L133.84,225.45L140.28,220.4L141,220.4L142.43,220.4L143.14,217.24L143.86,217.19L144.57,215.86L146.72,213.2L147.44,213.2L148.87,211.5L149.58,210.59L152.45,206.85L153.16,206.76L153.88,206.73L154.59,205.12L158.89,202.41L159.6,201.64L162.47,199.6L163.18,199.6L166.05,197.88L166.76,197.55L171.06,196.53L171.77,195.93L176.78,193.96L177.5,193.96L180.36,192.9L181.08,192.68L192.53,189.7L193.24,189.17L208.27,182.59L208.99,182.14L213.28,179.55L214,179.03L216.86,175.53L217.58,174.9L219.01,174.34L219.72,173.65L224.02,168.26L224.73,167.67L229.03,159.46L229.74,156.16L233.32,148.88L234.04,142.83L236.19,136.75L236.9,136.68L239.05,125.62L239.76,123.38L244.06,108.49L244.77,106.58L246.92,100.43L247.64,97.32L249.78,90.24L250.5,88.66L251.93,84.23L252.65,80.51L259.8,54.43L260.52,52.96L263.38,48.06L264.1,45.85L271.97,32.18L272.69,31.3L275.55,27.43L276.27,26.46L283.42,20.06L284.14,19.6L293.44,14.66L294.16,14.36L297.02,13.5L297.74,13.5L300.6,13.5" style="vector-effect: non-scaling-stroke; fill: none; stroke: rgb(230, 25, 75); stroke-opacity: 1; stroke-width: 2px; opacity: 1;"/></g><g class="points"/><g class="text"/></g><g class="trace scatter trace75b01a" style="stroke-miterlimit: 2; opacity: 1;"><g class="fills"/><g class="errorbars"/><g class="lines"><path class="js-line" d="M0,256.5L206.13,255.9L206.84,255.63L226.88,255.25L227.6,255.25L300.6,254.62" style="vector-effect: non-scaling-stroke; fill: none; stroke: rgb(60, 180, 75); stroke-opacity: 1; stroke-width: 2px; opacity: 1;"/></g><g class="points"/><g class="text"/></g><g class="trace scatter trace90e9cc" style="stroke-miterlimit: 2; opacity: 1;"><g class="fills"/><g class="errorbars"/><g class="lines"><path class="js-line" d="M0,256.5L169.62,255.76L170.34,255.74L208.27,255.03L208.99,254.96L264.81,251.68L265.53,251.67L300.6,251.09" style="vector-effect: non-scaling-stroke; fill: none; stroke: rgb(255, 225, 25); stroke-opacity: 1; stroke-width: 2px; opacity: 1;"/></g><g class="points"/><g class="text"/></g><g class="trace scatter traceb5a031" style="stroke-miterlimit: 2; opacity: 1;"><g class="fills"/><g class="errorbars"/><g class="lines"><path class="js-line" d="M0,256.5L140.28,255.75L141,255.74L160.32,254.99L161.04,254.91L208.99,251.38L209.7,251.26L213.28,250.19L214,250.05L220.44,248.82L221.16,248.57L227.6,247.44L228.31,247.3L239.76,246.23L240.48,246.2L300.6,243.86" style="vector-effect: non-scaling-stroke; fill: none; stroke: rgb(67, 99, 216); stroke-opacity: 1; stroke-width: 2px; opacity: 1;"/></g><g class="points"/><g class="text"/></g><g class="trace scatter trace34b240" style="stroke-miterlimit: 2; opacity: 1;"><g class="fills"/><g class="errorbars"/><g class="lines"><path class="js-line" d="M0,256.5L211.85,255.82L212.57,255.74L255.51,254.67L256.23,254.66L300.6,254.43" style="vector-effect: non-scaling-stroke; fill: none; stroke: rgb(245, 130, 49); stroke-opacity: 1; stroke-width: 2px; opacity: 1;"/></g><g class="points"/><g class="text"/></g><g class="trace scatter trace60ce34" style="stroke-miterlimit: 2; opacity: 1;"><g class="fills"/><g class="errorbars"/><g class="lines"><path class="js-line" d="M0,256.5L121.67,255.77L122.39,255.71L174.63,254.98L175.35,254.97L218.29,254.24L219.01,254.19L253.36,253.39L254.08,253.38L300.6,252.96" style="vector-effect: non-scaling-stroke; fill: none; stroke: rgb(145, 30, 180); stroke-opacity: 1; stroke-width: 2px; opacity: 1;"/></g><g class="points"/><g class="text"/></g></g></g><g class="overplot"/><path class="xlines-above crisp" d="M0,0" style="fill: none;"/><path class="ylines-above crisp" d="M0,0" style="fill: none;"/><g class="overlines-above"/><g class="xaxislayer-above"><g class="xtick"><text text-anchor="middle" x="0" y="383" transform="translate(130.1,0)" style="font-family: 'Open Sans', verdana, arial, sans-serif; font-size: 12px; fill: rgb(242, 245, 250); fill-opacity: 1; white-space: pre;">Apr 2020</text></g><g class="xtick"><text text-anchor="middle" x="0" y="383" transform="translate(195.23000000000002,0)" style="font-family: 'Open Sans', verdana, arial, sans-serif; font-size: 12px; fill: rgb(242, 245, 250); fill-opacity: 1; white-space: pre;">Jul 2020</text></g><g class="xtick"><text text-anchor="middle" x="0" y="383" transform="translate(261.08000000000004,0)" style="font-family: 'Open Sans', verdana, arial, sans-serif; font-size: 12px; fill: rgb(242, 245, 250); fill-opacity: 1; white-space: pre;">Oct 2020</text></g><g class="xtick"><text text-anchor="middle" x="0" y="383" transform="translate(326.91999999999996,0)" style="font-family: 'Open Sans', verdana, arial, sans-serif; font-size: 12px; fill: rgb(242, 245, 250); fill-opacity: 1; white-space: pre;">Jan 2021</text></g></g><g class="yaxislayer-above"><g class="ytick"><text text-anchor="end" x="79" y="4.199999999999999" transform="translate(0,356.5)" style="font-family: 'Open Sans', verdana, arial, sans-serif; font-size: 12px; fill: rgb(242, 245, 250); fill-opacity: 1; white-space: pre;">0</text></g><g class="ytick"><text text-anchor="end" x="79" y="4.199999999999999" transform="translate(0,297.01)" style="font-family: 'Open Sans', verdana, arial, sans-serif; font-size: 12px; fill: rgb(242, 245, 250); fill-opacity: 1; white-space: pre;">20k</text></g><g class="ytick"><text text-anchor="end" x="79" y="4.199999999999999" transform="translate(0,237.53)" style="font-family: 'Open Sans', verdana, arial, sans-serif; font-size: 12px; fill: rgb(242, 245, 250); fill-opacity: 1; white-space: pre;">40k</text></g><g class="ytick"><text text-anchor="end" x="79" y="4.199999999999999" transform="translate(0,178.04000000000002)" style="font-family: 'Open Sans', verdana, arial, sans-serif; font-size: 12px; fill: rgb(242, 245, 250); fill-opacity: 1; white-space: pre;">60k</text></g><g class="ytick"><text text-anchor="end" x="79" y="4.199999999999999" transform="translate(0,118.56)" style="font-family: 'Open Sans', verdana, arial, sans-serif; font-size: 12px; fill: rgb(242, 245, 250); fill-opacity: 1; white-space: pre;">80k</text></g></g><g class="overaxes-above"/></g><g class="subplot x2y2"><g class="layer-subplot"><g class="shapelayer"/><g class="imagelayer"/></g><g class="gridlayer"><g class="x2"><path class="x2grid crisp" transform="translate(497.50000000000006,0)" d="M0,100v270" style="stroke: rgb(40, 52, 66); stroke-opacity: 1; stroke-width: 1px;"/><path class="x2grid crisp" transform="translate(562.63,0)" d="M0,100v270" style="stroke: rgb(40, 52, 66); stroke-opacity: 1; stroke-width: 1px;"/><path class="x2grid crisp" transform="translate(628.48,0)" d="M0,100v270" style="stroke: rgb(40, 52, 66); stroke-opacity: 1; stroke-width: 1px;"/><path class="x2grid crisp" transform="translate(694.32,0)" d="M0,100v270" style="stroke: rgb(40, 52, 66); stroke-opacity: 1; stroke-width: 1px;"/></g><g class="y2"><path class="y2grid crisp" transform="translate(0,319.43)" d="M447.40000000000003,0h300.59999999999997" style="stroke: rgb(40, 52, 66); stroke-opacity: 1; stroke-width: 1px;"/><path class="y2grid crisp" transform="translate(0,282.36)" d="M447.40000000000003,0h300.59999999999997" style="stroke: rgb(40, 52, 66); stroke-opacity: 1; stroke-width: 1px;"/><path class="y2grid crisp" transform="translate(0,245.29)" d="M447.40000000000003,0h300.59999999999997" style="stroke: rgb(40, 52, 66); stroke-opacity: 1; stroke-width: 1px;"/><path class="y2grid crisp" transform="translate(0,208.22)" d="M447.40000000000003,0h300.59999999999997" style="stroke: rgb(40, 52, 66); stroke-opacity: 1; stroke-width: 1px;"/><path class="y2grid crisp" transform="translate(0,171.15)" d="M447.40000000000003,0h300.59999999999997" style="stroke: rgb(40, 52, 66); stroke-opacity: 1; stroke-width: 1px;"/><path class="y2grid crisp" transform="translate(0,134.07)" d="M447.40000000000003,0h300.59999999999997" style="stroke: rgb(40, 52, 66); stroke-opacity: 1; stroke-width: 1px;"/></g></g><g class="zerolinelayer"><path class="y2zl zl crisp" transform="translate(0,356.5)" d="M447.40000000000003,0h300.59999999999997" style="stroke: rgb(40, 52, 66); stroke-opacity: 1; stroke-width: 2px;"/></g><path class="xlines-below"/><path class="ylines-below"/><g class="overlines-below"/><g class="xaxislayer-below"/><g class="yaxislayer-below"/><g class="overaxes-below"/><g class="plot" transform="translate(447.40000000000003, 100)" clip-path="url('#clip4ae59cx2y2plot')"><g class="scatterlayer mlayer"><g class="trace scatter trace89c820" style="stroke-miterlimit: 2; opacity: 1;"><g class="fills"/><g class="errorbars"/><g class="lines"><path class="js-line" d="M0,256.5L46.52,255.76L47.24,255.39L59.4,252.24L60.12,249.83L62.27,248.9L62.98,248.72L65.85,247.97L66.56,247.6L67.99,246.86L68.71,246.86L72.29,244.82L73,244.82L75.87,244.08L76.58,243.53L80.16,242.41L80.88,241.86L83.02,241.12L83.74,241.12L85.89,239.82L86.6,239.82L88.75,239.26L89.46,239.26L95.91,238.52L96.62,237.78L100.2,237.04L100.92,236.48L110.22,233.89L110.94,232.77L116.66,230.55L117.38,230.55L120.24,230.18L120.96,229.44L125.97,227.96L126.68,226.66L129.54,225.55L130.26,224.8L133.12,223.51L133.84,223.51L135.27,222.95L135.99,222.77L136.7,222.77L137.42,221.47L142.43,220.73L143.14,218.5L144.57,218.5L145.29,217.2L147.44,215.91L148.15,215.54L149.58,214.98L150.3,214.24L152.45,213.31L153.16,213.13L153.88,213.13L154.59,212.01L157.46,210.72L158.17,208.68L159.6,208.86L160.32,205.71L161.75,201.64L162.47,201.08L166.05,200.34L166.76,197.19L167.48,197.19L168.19,194.96L168.91,194.78L169.62,190.51L170.34,190.51L171.06,188.85L173.2,187.18L173.92,187.18L175.35,183.28L176.07,182.91L177.5,181.62L178.21,181.25L179.64,180.88L180.36,180.13L181.79,178.65L182.51,177.54L184.65,177.35L185.37,174.94L187.52,174.76L188.23,175.69L188.95,175.69L189.66,176.61L190.38,174.57L191.1,176.24L192.53,174.57L193.24,176.24L195.39,175.87L196.11,171.98L197.54,171.24L198.25,171.05L206.13,170.31L206.84,169.2L208.27,168.64L208.99,168.64L209.7,168.64L210.42,166.97L213.28,165.68L214,165.68L216.86,164.01L217.58,164.01L221.16,163.45L221.87,162.9L223.3,161.6L224.02,161.6L226.88,160.12L227.6,160.12L229.03,160.12L229.74,159.19L230.46,159L231.18,157.71L233.32,156.04L234.04,155.3L236.19,150.11L236.9,150.11L238.33,147.7L239.05,147.7L239.76,147.51L240.48,143.62L241.91,141.77L242.63,141.77L244.06,140.65L244.77,140.65L246.21,140.65L246.92,134.91L250.5,134.91L251.22,127.31L251.93,127.31L252.65,121.38L254.79,120.08L255.51,116.56L259.09,116.19L259.8,114.89L261.24,114.52L261.95,100.43L263.38,97.84L264.1,90.79L264.81,90.42L265.53,88.57L268.39,75.96L269.11,74.85L269.82,74.48L270.54,72.81L271.26,71.33L271.97,67.25L274.12,63.55L274.83,63.55L276.98,59.28L277.7,54.83L279.13,48.9L279.84,48.72L281.99,47.79L282.71,39.45L283.42,39.45L284.14,34.07L285.57,34.07L286.29,30.74L287,29.63L287.72,26.47L291.3,25.92L292.01,19.06L295.59,15.35L296.31,13.5L300.6,13.5" style="vector-effect: non-scaling-stroke; fill: none; stroke: rgb(230, 25, 75); stroke-opacity: 1; stroke-width: 2px; opacity: 1;"/></g><g class="points"/><g class="text"/></g><g class="trace scatter trace28c0e7" style="stroke-miterlimit: 2; opacity: 1;"><g class="fills"/><g class="errorbars"/><g class="lines"><path class="js-line" d="M0,256.5L269.11,255.76L269.82,255.57L300.6,255.57" style="vector-effect: non-scaling-stroke; fill: none; stroke: rgb(60, 180, 75); stroke-opacity: 1; stroke-width: 2px; opacity: 1;"/></g><g class="points"/><g class="text"/></g><g class="trace scatter tracefd1d2e" style="stroke-miterlimit: 2; opacity: 1;"><g class="fills"/><g class="errorbars"/><g class="lines"><path class="js-line" d="M0,256.5L231.18,255.76L231.89,255.57L239.76,254.83L240.48,254.65L244.77,254.46L245.49,253.72L259.8,252.98L260.52,252.79L269.82,252.05L270.54,251.87L289.86,251.12L290.58,250.94L300.6,250.75" style="vector-effect: non-scaling-stroke; fill: none; stroke: rgb(255, 225, 25); stroke-opacity: 1; stroke-width: 2px; opacity: 1;"/></g><g class="points"/><g class="text"/></g><g class="trace scatter traceb6ae4c" style="stroke-miterlimit: 2; opacity: 1;"><g class="fills"/><g class="errorbars"/><g class="lines"><path class="js-line" d="M0,256.5L55.11,255.76L55.83,255.57L62.27,255.02L62.98,254.65L70.14,253.91L70.86,253.72L204.69,252.98L205.41,252.79L215.43,252.42L216.15,251.87L221.16,251.12L221.87,250.94L230.46,250.2L231.18,249.83L233.32,249.27L234.04,249.27L246.92,248.53L247.64,248.34L251.22,248.16L251.93,248.16L300.6,247.42" style="vector-effect: non-scaling-stroke; fill: none; stroke: rgb(67, 99, 216); stroke-opacity: 1; stroke-width: 2px; opacity: 1;"/></g><g class="points"/><g class="text"/></g><g class="trace scatter trace81351a" style="stroke-miterlimit: 2; opacity: 1;"><g class="fills"/><g class="errorbars"/><g class="lines"><path class="js-line" d="M0,256.5L215.43,255.76L216.15,255.57L263.38,254.83L264.1,254.65L300.6,254.46" style="vector-effect: non-scaling-stroke; fill: none; stroke: rgb(245, 130, 49); stroke-opacity: 1; stroke-width: 2px; opacity: 1;"/></g><g class="points"/><g class="text"/></g><g class="trace scatter traceb6ce42" style="stroke-miterlimit: 2; opacity: 1;"><g class="fills"/><g class="errorbars"/><g class="lines"><path class="js-line" d="M0,256.5L232.61,255.76L233.32,255.57L300.6,255.02" style="vector-effect: non-scaling-stroke; fill: none; stroke: rgb(145, 30, 180); stroke-opacity: 1; stroke-width: 2px; opacity: 1;"/></g><g class="points"/><g class="text"/></g></g></g><g class="overplot"/><path class="xlines-above crisp" d="M0,0" style="fill: none;"/><path class="ylines-above crisp" d="M0,0" style="fill: none;"/><g class="overlines-above"/><g class="xaxislayer-above"><g class="x2tick"><text text-anchor="middle" x="0" y="383" transform="translate(497.50000000000006,0)" style="font-family: 'Open Sans', verdana, arial, sans-serif; font-size: 12px; fill: rgb(242, 245, 250); fill-opacity: 1; white-space: pre;">Apr 2020</text></g><g class="x2tick"><text text-anchor="middle" x="0" y="383" transform="translate(562.63,0)" style="font-family: 'Open Sans', verdana, arial, sans-serif; font-size: 12px; fill: rgb(242, 245, 250); fill-opacity: 1; white-space: pre;">Jul 2020</text></g><g class="x2tick"><text text-anchor="middle" x="0" y="383" transform="translate(628.48,0)" style="font-family: 'Open Sans', verdana, arial, sans-serif; font-size: 12px; fill: rgb(242, 245, 250); fill-opacity: 1; white-space: pre;">Oct 2020</text></g><g class="x2tick"><text text-anchor="middle" x="0" y="383" transform="translate(694.32,0)" style="font-family: 'Open Sans', verdana, arial, sans-serif; font-size: 12px; fill: rgb(242, 245, 250); fill-opacity: 1; white-space: pre;">Jan 2021</text></g></g><g class="yaxislayer-above"><g class="y2tick"><text text-anchor="end" x="446.40000000000003" y="4.199999999999999" transform="translate(0,356.5)" style="font-family: 'Open Sans', verdana, arial, sans-serif; font-size: 12px; fill: rgb(242, 245, 250); fill-opacity: 1; white-space: pre;">0</text></g><g class="y2tick"><text text-anchor="end" x="446.40000000000003" y="4.199999999999999" transform="translate(0,319.43)" style="font-family: 'Open Sans', verdana, arial, sans-serif; font-size: 12px; fill: rgb(242, 245, 250); fill-opacity: 1; white-space: pre;">200</text></g><g class="y2tick"><text text-anchor="end" x="446.40000000000003" y="4.199999999999999" transform="translate(0,282.36)" style="font-family: 'Open Sans', verdana, arial, sans-serif; font-size: 12px; fill: rgb(242, 245, 250); fill-opacity: 1; white-space: pre;">400</text></g><g class="y2tick"><text text-anchor="end" x="446.40000000000003" y="4.199999999999999" transform="translate(0,245.29)" style="font-family: 'Open Sans', verdana, arial, sans-serif; font-size: 12px; fill: rgb(242, 245, 250); fill-opacity: 1; white-space: pre;">600</text></g><g class="y2tick"><text text-anchor="end" x="446.40000000000003" y="4.199999999999999" transform="translate(0,208.22)" style="font-family: 'Open Sans', verdana, arial, sans-serif; font-size: 12px; fill: rgb(242, 245, 250); fill-opacity: 1; white-space: pre;">800</text></g><g class="y2tick"><text text-anchor="end" x="446.40000000000003" y="4.199999999999999" transform="translate(0,171.15)" style="font-family: 'Open Sans', verdana, arial, sans-serif; font-size: 12px; fill: rgb(242, 245, 250); fill-opacity: 1; white-space: pre;">1000</text></g><g class="y2tick"><text text-anchor="end" x="446.40000000000003" y="4.199999999999999" transform="translate(0,134.07)" style="font-family: 'Open Sans', verdana, arial, sans-serif; font-size: 12px; fill: rgb(242, 245, 250); fill-opacity: 1; white-space: pre;">1200</text></g></g><g class="overaxes-above"/></g></g><g class="polarlayer"/><g class="ternarylayer"/><g class="geolayer"/><g class="funnelarealayer"/><g class="pielayer"/><g class="treemaplayer"/><g class="sunburstlayer"/><g class="glimages"/><defs id="topdefs-4ae59c"><g class="clips"/><clipPath id="legend4ae59c"><rect width="127" height="124" x="0" y="0"/></clipPath></defs><g class="layer-above"><g class="imagelayer"/><g class="shapelayer"/></g><g class="infolayer"><g class="legend" pointer-events="all" transform="translate(761.36, 100)"><rect class="bg" shape-rendering="crispEdges" width="127" height="124" x="0" y="0" style="stroke: rgb(68, 68, 68); stroke-opacity: 1; fill: rgb(17, 17, 17); fill-opacity: 1; stroke-width: 0px;"/><g class="scrollbox" transform="translate(0, 0)" clip-path="url('#legend4ae59c')"><g class="groups"><g class="traces" transform="translate(0, 14.5)" style="opacity: 1;"><text class="legendtext user-select-none" text-anchor="start" x="40" y="4.680000000000001" style="font-family: 'Open Sans', verdana, arial, sans-serif; font-size: 12px; fill: rgb(242, 245, 250); fill-opacity: 1; white-space: pre;">Alameda, CA</text><g class="layers" style="opacity: 1;"><g class="legendfill"/><g class="legendlines"><path class="js-line" d="M5,0h30" style="fill: none; stroke: rgb(230, 25, 75); stroke-opacity: 1; stroke-width: 2px;"/></g><g class="legendsymbols"><g class="legendpoints"/></g></g><rect class="legendtoggle" pointer-events="all" x="0" y="-9.5" width="121.59375" height="19" style="cursor: pointer; fill: rgb(0, 0, 0); fill-opacity: 0;"/></g><g class="traces" transform="translate(0, 33.5)" style="opacity: 1;"><text class="legendtext user-select-none" text-anchor="start" x="40" y="4.680000000000001" style="font-family: 'Open Sans', verdana, arial, sans-serif; font-size: 12px; fill: rgb(242, 245, 250); fill-opacity: 1; white-space: pre;">Weston, WY</text><g class="layers" style="opacity: 1;"><g class="legendfill"/><g class="legendlines"><path class="js-line" d="M5,0h30" style="fill: none; stroke: rgb(60, 180, 75); stroke-opacity: 1; stroke-width: 2px;"/></g><g class="legendsymbols"><g class="legendpoints"/></g></g><rect class="legendtoggle" pointer-events="all" x="0" y="-9.5" width="121.59375" height="19" style="cursor: pointer; fill: rgb(0, 0, 0); fill-opacity: 0;"/></g><g class="traces" transform="translate(0, 52.5)" style="opacity: 1;"><text class="legendtext user-select-none" text-anchor="start" x="40" y="4.680000000000001" style="font-family: 'Open Sans', verdana, arial, sans-serif; font-size: 12px; fill: rgb(242, 245, 250); fill-opacity: 1; white-space: pre;">Cannon, TN</text><g class="layers" style="opacity: 1;"><g class="legendfill"/><g class="legendlines"><path class="js-line" d="M5,0h30" style="fill: none; stroke: rgb(255, 225, 25); stroke-opacity: 1; stroke-width: 2px;"/></g><g class="legendsymbols"><g class="legendpoints"/></g></g><rect class="legendtoggle" pointer-events="all" x="0" y="-9.5" width="121.59375" height="19" style="cursor: pointer; fill: rgb(0, 0, 0); fill-opacity: 0;"/></g><g class="traces" transform="translate(0, 71.5)" style="opacity: 1;"><text class="legendtext user-select-none" text-anchor="start" x="40" y="4.680000000000001" style="font-family: 'Open Sans', verdana, arial, sans-serif; font-size: 12px; fill: rgb(242, 245, 250); fill-opacity: 1; white-space: pre;">Winona, MN</text><g class="layers" style="opacity: 1;"><g class="legendfill"/><g class="legendlines"><path class="js-line" d="M5,0h30" style="fill: none; stroke: rgb(67, 99, 216); stroke-opacity: 1; stroke-width: 2px;"/></g><g class="legendsymbols"><g class="legendpoints"/></g></g><rect class="legendtoggle" pointer-events="all" x="0" y="-9.5" width="121.59375" height="19" style="cursor: pointer; fill: rgb(0, 0, 0); fill-opacity: 0;"/></g><g class="traces" transform="translate(0, 90.5)" style="opacity: 1;"><text class="legendtext user-select-none" text-anchor="start" x="40" y="4.680000000000001" style="font-family: 'Open Sans', verdana, arial, sans-serif; font-size: 12px; fill: rgb(242, 245, 250); fill-opacity: 1; white-space: pre;">Wilkin, MN</text><g class="layers" style="opacity: 1;"><g class="legendfill"/><g class="legendlines"><path class="js-line" d="M5,0h30" style="fill: none; stroke: rgb(245, 130, 49); stroke-opacity: 1; stroke-width: 2px;"/></g><g class="legendsymbols"><g class="legendpoints"/></g></g><rect class="legendtoggle" pointer-events="all" x="0" y="-9.5" width="121.59375" height="19" style="cursor: pointer; fill: rgb(0, 0, 0); fill-opacity: 0;"/></g><g class="traces" transform="translate(0, 109.5)" style="opacity: 1;"><text class="legendtext user-select-none" text-anchor="start" x="40" y="4.680000000000001" style="font-family: 'Open Sans', verdana, arial, sans-serif; font-size: 12px; fill: rgb(242, 245, 250); fill-opacity: 1; white-space: pre;">Watonwan, MN</text><g class="layers" style="opacity: 1;"><g class="legendfill"/><g class="legendlines"><path class="js-line" d="M5,0h30" style="fill: none; stroke: rgb(145, 30, 180); stroke-opacity: 1; stroke-width: 2px;"/></g><g class="legendsymbols"><g class="legendpoints"/></g></g><rect class="legendtoggle" pointer-events="all" x="0" y="-9.5" width="121.59375" height="19" style="cursor: pointer; fill: rgb(0, 0, 0); fill-opacity: 0;"/></g></g></g><rect class="scrollbar" rx="20" ry="3" width="0" height="0" x="0" y="0" style="fill: rgb(128, 139, 164); fill-opacity: 1;"/></g><g class="g-gtitle"/><g class="g-xtitle"><text class="xtitle" x="230.3" y="410.8" text-anchor="middle" style="font-family: 'Open Sans', verdana, arial, sans-serif; font-size: 14px; fill: rgb(242, 245, 250); opacity: 1; font-weight: normal; white-space: pre;">Date</text></g><g class="g-x2title"><text class="x2title" x="597.7" y="410.8" text-anchor="middle" style="font-family: 'Open Sans', verdana, arial, sans-serif; font-size: 14px; fill: rgb(242, 245, 250); opacity: 1; font-weight: normal; white-space: pre;">Date</text></g><g class="g-ytitle"><text class="ytitle" transform="rotate(-90,34.840625,235)" x="34.840625" y="235" text-anchor="middle" style="font-family: 'Open Sans', verdana, arial, sans-serif; font-size: 14px; fill: rgb(242, 245, 250); opacity: 1; font-weight: normal; white-space: pre;">Cases</text></g><g class="g-y2title"><text class="y2title" transform="rotate(-90,394.903125,235)" x="394.903125" y="235" text-anchor="middle" style="font-family: 'Open Sans', verdana, arial, sans-serif; font-size: 14px; fill: rgb(242, 245, 250); opacity: 1; font-weight: normal; white-space: pre;">Deaths</text></g><g class="annotation" data-index="0" style="opacity: 1;"><g class="annotation-text-g" transform="rotate(0,230.3,89.5)"><g class="cursor-pointer" transform="translate(206, 79)"><rect class="bg" x="0.5" y="0.5" width="48" height="20" style="stroke-width: 1px; stroke: rgb(0, 0, 0); stroke-opacity: 0; fill: rgb(0, 0, 0); fill-opacity: 0;"/><text class="annotation-text" text-anchor="middle" x="24.6875" y="16" style="font-family: 'Open Sans', verdana, arial, sans-serif; font-size: 16px; fill: rgb(242, 245, 250); fill-opacity: 1; white-space: pre;">Cases</text></g></g></g><g class="annotation" data-index="1" style="opacity: 1;"><g class="annotation-text-g" transform="rotate(0,597.7,89.5)"><g class="cursor-pointer" transform="translate(570, 79)"><rect class="bg" x="0.5" y="0.5" width="54" height="20" style="stroke-width: 1px; stroke: rgb(0, 0, 0); stroke-opacity: 0; fill: rgb(0, 0, 0); fill-opacity: 0;"/><text class="annotation-text" text-anchor="middle" x="27.359375" y="16" style="font-family: 'Open Sans', verdana, arial, sans-serif; font-size: 16px; fill: rgb(242, 245, 250); fill-opacity: 1; white-space: pre;">Deaths</text></g></g></g></g></svg>