<svg class="main-svg" xmlns="http://www.w3.org/2000/svg" xmlns:xlink="http://www.w3.org/1999/xlink" width="900" height="450" style="" viewBox="0 0 900 450"><rect x="0" y="0" width="900" height="450" style="fill: rgb(17, 17, 17); fill-opacity: 1;"/><defs id="defs-25cd32"><g class="clips"><clipPath id="clip25cd32xyplot" class="plotclip"><rect width="297" height="270"/></clipPath><clipPath id="clip25cd32x2y2plot" class="plotclip"><rect width="296.99999999999994" height="270"/></clipPath><clipPath class="axesclip" id="clip25cd32x"><rect x="80" y="0" width="297" height="450"/></clipPath><clipPath class="axesclip" id="clip25cd32y"><rect x="0" y="100" width="900" height="270"/></clipPath><clipPath class="axesclip" id="clip25cd32xy"><rect x="80" y="100" width="297" height="270"/></clipPath><clipPath class="axesclip" id="clip25cd32y2"><rect x="0" y="100" width="900" height="270"/></clipPath><clipPath class="axesclip" id="clip25cd32xy2"><rect x="80" y="100" width="297" height="270"/></clipPath><clipPath class="axesclip" id="clip25cd32x2"><rect x="443.00000000000006" y="0" width="296.99999999999994" height="450"/></clipPath><clipPath class="axesclip" id="clip25cd32x2y"><rect x="443.00000000000006" y="100" width="296.99999999999994" height="270"/></clipPath><clipPath class="axesclip" id="clip25cd32x2y2"><rect x="443.00000000000006" y="100" width="296.99999999999994" height="270"/></clipPath></g><g class="gradients"/></defs><g class="bglayer"/><g class="layer-below"><g class="imagelayer"/><g class="shapelayer"/></g><g class="cartesianlayer"><g class="subplot xy"><g class="layer-subplot"><g class="shapelayer"/><g class="imagelayer"/></g><g class="gridlayer"><g class="x"><path class="xgrid crisp" transform="translate(128.46,0)" d="M0,100v270" style="stroke: rgb(40, 52, 66); stroke-opacity: 1; stroke-width: 1px;"/><path class="xgrid crisp" transform="translate(191.45999999999998,0)" d="M0,100v270" style="stroke: rgb(40, 52, 66); stroke-opacity: 1; stroke-width: 1px;"/><path class="xgrid crisp" transform="translate(255.15,0)" d="M0,100v270" style="stroke: rgb(40, 52, 66); stroke-opacity: 1; stroke-width: 1px;"/><path class="xgrid crisp" transform="translate(318.85,0)" d="M0,100v270" style="stroke: rgb(40, 52, 66); stroke-opacity: 1; stroke-width: 1px;"/></g><g class="y"><path class="ygrid crisp" transform="translate(0,315.14)" d="M80,0h297" style="stroke: rgb(40, 52, 66); stroke-opacity: 1; stroke-width: 1px;"/><path class="ygrid crisp" transform="translate(0,273.78)" d="M80,0h297" style="stroke: rgb(40, 52, 66); stroke-opacity: 1; stroke-width: 1px;"/><path class="ygrid crisp" transform="translate(0,232.42)" d="M80,0h297" style="stroke: rgb(40, 52, 66); stroke-opacity: 1; stroke-width: 1px;"/><path class="ygrid crisp" transform="translate(0,191.07)" d="M80,0h297" style="stroke: rgb(40, 52, 66); stroke-opacity: 1; stroke-width: 1px;"/><path class="ygrid crisp" transform="translate(0,149.71)" d="M80,0h297" style="stroke: rgb(40, 52, 66); stroke-opacity: 1; stroke-width: 1px;"/><path class="ygrid crisp" transform="translate(0,108.35)" d="M80,0h297" style="stroke: rgb(40, 52, 66); stroke-opacity: 1; stroke-width: 1px;"/></g></g><g class="zerolinelayer"><path class="yzl zl crisp" transform="translate(0,356.5)" d="M80,0h297" style="stroke: rgb(40, 52, 66); stroke-opacity: 1; stroke-width: 2px;"/></g><path class="xlines-below"/><path class="ylines-below"/><g class="overlines-below"/><g class="xaxislayer-below"/><g class="yaxislayer-below"/><g class="overaxes-below"/><g class="plot" transform="translate(80, 100)" clip-path="url('#clip25cd32xyplot')"><g class="scatterlayer mlayer"><g class="trace scatter trace6a6883" style="stroke-miterlimit: 2; opacity: 1;"><g class="fills"/><g class="errorbars"/><g class="lines"><path class="js-line" d="M0,256.5L48.46,255.76L49.15,255.68L90,249.49L90.69,249.32L101.08,247.23L101.77,247.13L111.46,243.77L112.15,243.3L116.31,241.52L117,241.18L119.77,240.01L120.46,239.29L133.62,232.67L134.31,232L137.77,231.4L138.46,229.21L139.15,229.17L139.85,228.24L141.92,226.4L142.62,226.4L144,225.21L144.69,224.58L147.46,221.98L148.15,221.92L148.85,221.9L149.54,220.78L153.69,218.89L154.38,218.36L157.15,216.94L157.85,216.94L161.31,215.52L162,215.48L164.77,214.94L165.46,214.81L168.23,213.82L168.92,213.59L184.15,210.33L184.85,210.24L189.69,208.94L190.38,208.66L200.08,206.01L200.77,205.5L209.08,200.82L209.77,200.2L214.62,196.83L215.31,196.29L220.15,190.86L220.85,189.2L221.54,189.03L222.23,186.74L225.69,181.67L226.38,177.47L228.46,173.24L229.15,173.2L231.23,165.5L231.92,163.95L236.08,153.59L236.77,152.27L238.85,147.99L239.54,145.83L242.31,139.8L243,138.46L249.23,121.22L249.92,118.81L252,114.98L252.69,114.26L260.31,103.52L261,102.7L264.46,98.99L265.15,98.3L274.85,91.79L275.54,91.49L283.85,88.36L284.54,88.14L285.92,87.72L286.62,86.62L290.08,85.91L290.77,85.74L297,85.13" style="vector-effect: non-scaling-stroke; fill: none; stroke: rgb(230, 25, 75); stroke-opacity: 1; stroke-width: 2px; opacity: 1;"/></g><g class="points"/><g class="text"/></g><g class="trace scatter tracedb8ddd" style="stroke-miterlimit: 2; opacity: 1;"><g class="fills"/><g class="errorbars"/><g class="lines"><path class="js-line" d="M0,256.5L37.38,256.05L38.08,255.71L40.85,253.64L41.54,252.63L47.08,237.21L47.77,235.89L54,221.34L54.69,219.12L65.08,200.19L65.77,199.29L71.31,194.26L72,193.97L80.31,189.86L81,189.66L100.38,185.51L101.08,185.45L150.23,180.44L150.92,180.35L182.08,176.07L182.77,175.85L192.46,173.37L193.15,173.12L200.77,169.74L201.46,169.28L208.38,162.75L209.08,162.05L215.31,153.84L216,152.88L237.46,114.43L238.15,112.45L241.62,104.75L242.31,103.15L247.15,90.76L247.85,89.27L250.62,81.93L251.31,80.68L261.69,58.72L262.38,58L263.77,57.02L264.46,54.03L270.69,45.16L271.38,44.33L286.62,25.49L287.31,25.49L288.69,23.13L289.38,22.4L297,13.5" style="vector-effect: non-scaling-stroke; fill: none; stroke: rgb(60, 180, 75); stroke-opacity: 1; stroke-width: 2px; opacity: 1;"/></g><g class="points"/><g class="text"/></g><g class="trace scatter trace82eddd" style="stroke-miterlimit: 2; opacity: 1;"><g class="fills"/><g class="errorbars"/><g class="lines"><path class="js-line" d="M0,256.5L47.77,255.77L48.46,255.52L55.38,253.31L56.08,253.09L60.23,251.84L60.92,251.67L81.69,245.47L82.38,245.3L93.46,243.48L94.15,243.4L180,238.08L180.69,237.95L191.77,236.16L192.46,235.8L199.38,233.55L200.08,233.14L209.08,227.57L209.77,227.1L218.77,220.41L219.46,219.61L223.62,215.36L224.31,214.69L230.54,208.81L231.23,206.72L232.62,206.09L233.31,206.09L235.38,206.09L236.08,208.33L238.85,205.88L239.54,204.63L240.92,203.56L241.62,198.92L243.69,195.77L244.38,194.72L254.08,184.19L254.77,183.77L261,178.66L261.69,178.66L266.54,175.64L267.23,175.3L274.85,172.01L275.54,171.72L297,163.42" style="vector-effect: non-scaling-stroke; fill: none; stroke: rgb(255, 225, 25); stroke-opacity: 1; stroke-width: 2px; opacity: 1;"/></g><g class="points"/><g class="text"/></g><g class="trace scatter trace6c3893" style="stroke-miterlimit: 2; opacity: 1;"><g class="fills"/><g class="errorbars"/><g class="lines"><path class="js-line" d="M0,256.5L47.77,255.87L48.46,255.69L53.31,254.78L54,254.53L56.77,253.86L57.46,252.45L58.85,251.53L59.54,250.91L66.46,245.28L67.15,245.09L69.92,242.39L70.62,241.97L73.38,241.74L74.08,241.74L75.46,241.74L76.15,238.56L79.62,237.66L80.31,237.66L81.69,237.66L82.38,235.87L85.85,234.57L86.54,234.57L88.62,233.65L89.31,233.65L94.85,233.65L95.54,231.77L99.69,231.77L100.38,230.93L109.38,230.21L110.08,229.75L123.92,229.32L124.62,228.22L130.15,227.48L130.85,226.41L135,226.41L135.69,225.38L139.85,225.38L140.54,224.15L144.69,224.15L145.38,223.12L149.54,223.12L150.23,222.03L154.38,222.03L155.08,221.12L159.23,221.12L159.92,220.31L164.08,220.31L164.77,219.4L168.92,219.4L169.62,218.37L173.77,218.37L174.46,217.36L178.62,217.36L179.31,215.89L183.46,215.89L184.15,214.23L188.31,214.23L189,211.95L193.15,211.95L193.85,208.28L198,208.28L198.69,204.16L202.85,204.16L203.54,199L207.69,199L208.38,191.34L212.54,191.34L213.23,182.1L217.38,182.1L218.08,173.36L222.23,173.36L222.92,160.93L227.08,160.93L227.77,149.23L231.92,149.23L232.62,140.86L236.77,140.86L237.46,134.6L241.62,134.6L242.31,126.54L246.46,126.54L247.15,116.86L251.31,116.86L252,109.32L256.15,109.32L256.85,102.98L261,102.98L261.69,97.83L265.85,97.83L266.54,93.82L270.69,93.82L271.38,90.52L275.54,90.52L276.23,87.79L280.38,87.79L281.08,84.64L285.23,84.64L285.92,81.7L290.08,81.7L290.77,78.48L294.92,78.48L295.62,75.52L297,75.52" style="vector-effect: non-scaling-stroke; fill: none; stroke: rgb(67, 99, 216); stroke-opacity: 1; stroke-width: 2px; opacity: 1;"/></g><g class="points"/><g class="text"/></g><g class="trace scatter tracea8ea47" style="stroke-miterlimit: 2; opacity: 1;"><g class="fills"/><g class="errorbars"/><g class="lines"><path class="js-line" d="M0,256.5L45,255.78L45.69,255.72L53.31,253.89L54,253.74L69.23,250.53L69.92,250.45L105.23,244.5L105.92,244.24L112.85,239.92L113.54,239.04L119.77,234.24L120.46,233.02L132.23,220.01L132.92,219.57L136.38,216.73L137.08,215.87L140.54,212.78L141.23,212.3L151.62,205.66L152.31,205.33L156.46,203.89L157.15,203.69L181.38,196.65L182.08,196.38L190.38,193.35L191.08,193.03L207,186.23L207.69,184.89L218.08,177.71L218.77,176.9L222.23,172.72L222.92,172.07L232.62,159.24L233.31,157.46L235.38,155.12L236.08,154.55L241.62,145.5L242.31,145.02L245.77,136.33L246.46,135.14L248.54,131.64L249.23,129.98L254.77,121.4L255.46,120.47L258.92,115.98L259.62,115.42L271.38,107L272.08,106.66L286.62,99.45L287.31,99.19L297,95.46" style="vector-effect: non-scaling-stroke; fill: none; stroke: rgb(245, 130, 49); stroke-opacity: 1; stroke-width: 2px; opacity: 1;"/></g><g class="points"/><g class="text"/></g><g class="trace scatter tracece068a" style="stroke-miterlimit: 2; opacity: 1;"><g class="fills"/><g class="errorbars"/><g class="lines"><path class="js-line" d="M0,256.5L67.15,255.75L67.85,255.7L95.54,254.17L96.23,254.09L102.46,252.6L103.15,252.1L105.23,251.41L105.92,250.91L110.77,249.11L111.46,248.69L117.69,245.47L118.38,245.1L121.85,243.59L122.54,243.22L135.69,239.34L136.38,239.29L143.31,238.49L144,238.35L146.77,237.67L147.46,237.58L177.23,234.28L177.92,234.28L202.15,229.89L202.85,229.56L207.69,227.68L208.38,227.23L210.46,225.46L211.15,225.13L217.38,221.09L218.08,220.58L225.69,212.48L226.38,210.82L231.23,207.4L231.92,207.4L235.38,207.4L236.08,201.93L242.31,192.95L243,191.37L247.15,184.04L247.85,182.99L249.92,180.53L250.62,180.22L252,178.41L252.69,176.93L254.77,174.3L255.46,174.11L258.23,169.54L258.92,169.06L260.31,168.7L261,167.72L266.54,164.95L267.23,164.6L272.08,163.2L272.77,162.89L274.85,162.54L275.54,162.54L277.62,162.54L278.31,161.07L280.38,160.71L281.08,160.28L290.08,157.48L290.77,155.99L294.92,155.31L295.62,155.16L297,154.89" style="vector-effect: non-scaling-stroke; fill: none; stroke: rgb(145, 30, 180); stroke-opacity: 1; stroke-width: 2px; opacity: 1;"/></g><g class="points"/><g class="text"/></g></g></g><g class="overplot"/><path class="xlines-above crisp" d="M0,0" style="fill: none;"/><path class="ylines-above crisp" d="M0,0" style="fill: none;"/><g class="overlines-above"/><g class="xaxislayer-above"><g class="xtick"><text text-anchor="middle" x="0" y="383" transform="translate(128.46,0)" style="font-family: 'Open Sans', verdana, arial, sans-serif; font-size: 12px; fill: rgb(242, 245, 250); fill-opacity: 1; white-space: pre;">Apr 2020</text></g><g class="xtick"><text text-anchor="middle" x="0" y="383" transform="translate(191.45999999999998,0)" style="font-family: 'Open Sans', verdana, arial, sans-serif; font-size: 12px; fill: rgb(242, 245, 250); fill-opacity: 1; white-space: pre;">Jul 2020</text></g><g class="xtick"><text text-anchor="middle" x="0" y="383" transform="translate(255.15,0)" style="font-family: 'Open Sans', verdana, arial, sans-serif; font-size: 12px; fill: rgb(242, 245, 250); fill-opacity: 1; white-space: pre;">Oct 2020</text></g><g class="xtick"><text text-anchor="middle" x="0" y="383" transform="translate(318.85,0)" style="font-family: 'Open Sans', verdana, arial, sans-serif; font-size: 12px; fill: rgb(242, 245, 250); fill-opacity: 1; white-space: pre;">Jan 2021</text></g></g><g class="yaxislayer-above"><g class="ytick"><text text-anchor="end" x="79" y="4.199999999999999" transform="translate(0,356.5)" style="font-family: 'Open Sans', verdana, arial, sans-serif; font-size: 12px; fill: rgb(242, 245, 250); fill-opacity: 1; white-space: pre;">0</text></g><g class="ytick"><text text-anchor="end" x="79" y="4.199999999999999" transform="translate(0,315.14)" style="font-family: 'Open Sans', verdana, arial, sans-serif; font-size: 12px; fill: rgb(242, 245, 250); fill-opacity: 1; white-space: pre;">20k</text></g><g class="ytick"><text text-anchor="end" x="79" y="4.199999999999999" transform="translate(0,273.78)" style="font-family: 'Open Sans', verdana, arial, sans-serif; font-size: 12px; fill: rgb(242, 245, 250); fill-opacity: 1; white-space: pre;">40k</text></g><g class="ytick"><text text-anchor="end" x="79" y="4.199999999999999" transform="translate(0,232.42)" style="font-family: 'Open Sans', verdana, arial, sans-serif; font-size: 12px; fill: rgb(242, 245, 250); fill-opacity: 1; white-space: pre;">60k</text></g><g class="ytick"><text text-anchor="end" x="79" y="4.199999999999999" transform="translate(0,191.07)" style="font-family: 'Open Sans', verdana, arial, sans-serif; font-size: 12px; fill: rgb(242, 245, 250); fill-opacity: 1; white-space: pre;">80k</text></g><g class="ytick"><text text-anchor="end" x="79" y="4.199999999999999" transform="translate(0,149.71)" style="font-family: 'Open Sans', verdana, arial, sans-serif; font-size: 12px; fill: rgb(242, 245, 250); fill-opacity: 1; white-space: pre;">100k</text></g><g class="ytick"><text text-anchor="end" x="79" y="4.199999999999999" transform="translate(0,108.35)" style="font-family: 'Open Sans', verdana, arial, sans-serif; font-size: 12px; fill: rgb(242, 245, 250); fill-opacity: 1; white-space: pre;">120k</text></g></g><g class="overaxes-above"/></g><g class="subplot x2y2"><g class="layer-subplot"><g class="shapelayer"/><g class="imagelayer"/></g><g class="gridlayer"><g class="x2"><path class="x2grid crisp" transform="translate(491.46000000000004,0)" d="M0,100v270" style="stroke: rgb(40, 52, 66); stroke-opacity: 1; stroke-width: 1px;"/><path class="x2grid crisp" transform="translate(554.46,0)" d="M0,100v270" style="stroke: rgb(40, 52, 66); stroke-opacity: 1; stroke-width: 1px;"/><path class="x2grid crisp" transform="translate(618.1500000000001,0)" d="M0,100v270" style="stroke: rgb(40, 52, 66); stroke-opacity: 1; stroke-width: 1px;"/><path class="x2grid crisp" transform="translate(681.85,0)" d="M0,100v270" style="stroke: rgb(40, 52, 66); stroke-opacity: 1; stroke-width: 1px;"/></g><g class="y2"><path class="y2grid crisp" transform="translate(0,300.84000000000003)" d="M443.00000000000006,0h296.99999999999994" style="stroke: rgb(40, 52, 66); stroke-opacity: 1; stroke-width: 1px;"/><path class="y2grid crisp" transform="translate(0,245.19)" d="M443.00000000000006,0h296.99999999999994" style="stroke: rgb(40, 52, 66); stroke-opacity: 1; stroke-width: 1px;"/><path class="y2grid crisp" transform="translate(0,189.53)" d="M443.00000000000006,0h296.99999999999994" style="stroke: rgb(40, 52, 66); stroke-opacity: 1; stroke-width: 1px;"/><path class="y2grid crisp" transform="translate(0,133.87)" d="M443.00000000000006,0h296.99999999999994" style="stroke: rgb(40, 52, 66); stroke-opacity: 1; stroke-width: 1px;"/></g></g><g class="zerolinelayer"><path class="y2zl zl crisp" transform="translate(0,356.5)" d="M443.00000000000006,0h296.99999999999994" style="stroke: rgb(40, 52, 66); stroke-opacity: 1; stroke-width: 2px;"/></g><path class="xlines-below"/><path class="ylines-below"/><g class="overlines-below"/><g class="xaxislayer-below"/><g class="yaxislayer-below"/><g class="overaxes-below"/><g class="plot" transform="translate(443.00000000000006, 100)" clip-path="url('#clip25cd32x2y2plot')"><g class="scatterlayer mlayer"><g class="trace scatter traced37ec6" style="stroke-miterlimit: 2; opacity: 1;"><g class="fills"/><g class="errorbars"/><g class="lines"><path class="js-line" d="M0,256.5L45.69,255.83L46.38,255.72L51.92,255.05L52.62,254.83L57.46,253.94L58.15,252.49L60.92,251.82L61.62,251.82L67.85,250.16L68.54,249.82L74.77,248.6L75.46,248.6L77.54,248.04L78.23,247.71L80.31,247.26L81,247.26L84.46,246.26L85.15,246.15L92.77,245.7L93.46,245.26L96.92,244.81L97.62,244.48L106.62,242.92L107.31,242.25L113.54,240.92L114.23,240.92L117,240.25L117.69,240.14L121.85,239.36L122.54,238.58L125.31,237.91L126,237.47L130.15,236.35L130.85,236.35L137.77,235.02L138.46,233.68L139.85,233.68L140.54,232.9L143.31,231.9L144,231.9L148.15,230.45L148.85,230.45L150.92,229.34L151.62,229.01L152.31,229.01L153,227.78L154.38,227.89L155.08,226L156.46,223.55L157.15,223.22L160.62,222.77L161.31,220.88L162,220.88L162.69,219.54L163.38,219.43L164.08,216.87L164.77,216.87L165.46,215.87L167.54,214.87L168.23,214.87L169.62,212.53L170.31,212.31L171.69,211.53L172.38,211.31L174.46,210.64L175.15,209.75L177.92,209.19L178.62,208.97L180,207.52L180.69,207.52L182.08,207.97L182.77,207.97L183.46,208.52L184.15,207.3L184.85,208.3L185.54,207.63L186.23,207.3L186.92,208.3L189,208.08L189.69,205.74L193.85,205.07L194.54,204.96L199.38,204.74L200.08,204.07L202.15,203.74L202.85,203.74L204.23,202.4L204.92,202.4L208.38,201.51L209.08,201.4L210.46,200.95L211.15,200.95L214.62,200.29L215.31,199.62L222.92,197.95L223.62,197.17L227.77,193.83L228.46,192.61L229.15,192.61L229.85,191.38L231.92,191.05L232.62,188.71L234,187.6L234.69,187.6L236.08,186.93L236.77,186.93L238.15,186.93L238.85,183.48L242.31,183.48L243,178.91L243.69,178.91L244.38,175.35L246.46,174.57L247.15,172.46L250.62,172.23L251.31,171.46L252.69,171.23L253.38,162.77L254.77,161.21L255.46,156.98L256.15,156.76L256.85,155.65L259.62,148.08L260.31,147.41L261.69,146.19L262.38,145.3L263.77,141.85L264.46,141.07L266.54,139.51L267.23,138.17L267.92,138.06L268.62,135.39L270,131.83L270.69,131.72L272.77,131.16L273.46,126.15L274.15,126.15L274.85,122.92L276.23,122.92L276.92,120.92L277.62,120.25L278.31,118.36L281.77,118.02L282.46,113.91L285.92,111.68L286.62,125.37L295.62,125.37L296.31,123.03L297,123.03" style="vector-effect: non-scaling-stroke; fill: none; stroke: rgb(230, 25, 75); stroke-opacity: 1; stroke-width: 2px; opacity: 1;"/></g><g class="points"/><g class="text"/></g><g class="trace scatter trace58626d" style="stroke-miterlimit: 2; opacity: 1;"><g class="fills"/><g class="errorbars"/><g class="lines"><path class="js-line" d="M0,256.5L42.92,256.39L43.62,255.61L47.08,254.39L47.77,253.72L49.15,249.04L49.85,248.6L51.23,233.01L51.92,230.56L58.15,185.26L58.85,182.14L60.23,182.14L60.92,173.79L65.77,151.2L66.46,149.42L67.15,149.3L67.85,144.52L70.62,135.61L71.31,133.94L72,132.27L72.69,126.6L75.46,120.92L76.15,119.92L81,112.35L81.69,112.01L87.92,105.45L88.62,105.22L90,105.22L90.69,103.55L95.54,101.22L96.23,101.1L99.69,100.21L100.38,100.1L103.15,99.55L103.85,99.21L128.08,95.87L128.77,95.87L150.23,95.2L150.92,95.09L176.54,94.43L177.23,94.31L184.85,93.65L185.54,93.42L193.15,92.76L193.85,92.76L201.46,92.2L202.15,91.87L209.08,90.2L209.77,89.75L212.54,89.31L213.23,88.86L215.31,87.97L216,87.97L218.08,87.3L218.77,86.75L222.23,85.19L222.92,84.52L229.85,78.4L230.54,77.73L232.62,77.73L233.31,74.5L235.38,74.5L236.08,72.61L238.15,71.27L238.85,70.05L240.92,69.16L241.62,68.16L242.31,67.6L243,66.04L244.38,64.93L245.08,63.93L247.85,60.25L248.54,59.03L251.31,55.47L252,54.02L255.46,50.46L256.15,49.68L258.23,46.78L258.92,45.67L263.77,37.66L264.46,37.1L265.85,35.65L266.54,34.32L273.46,28.19L274.15,27.86L276.92,24.85L277.62,24.19L279,23.07L279.69,22.63L288,17.62L288.69,17.62L297,13.5" style="vector-effect: non-scaling-stroke; fill: none; stroke: rgb(60, 180, 75); stroke-opacity: 1; stroke-width: 2px; opacity: 1;"/></g><g class="points"/><g class="text"/></g><g class="trace scatter trace7c1a19" style="stroke-miterlimit: 2; opacity: 1;"><g class="fills"/><g class="errorbars"/><g class="lines"><path class="js-line" d="M0,256.5L47.08,256.05L47.77,255.28L51.92,252.16L52.62,250.27L56.77,243.7L57.46,241.58L60.92,232.79L61.62,231.57L65.08,221.44L65.77,220.1L74.08,207.41L74.77,206.96L76.85,204.85L77.54,203.63L80.31,199.06L81,198.95L87.23,194.83L87.92,193.94L90,191.94L90.69,189.6L94.15,187.71L94.85,187.48L104.54,184.48L105.23,184.48L110.08,182.59L110.77,183.59L113.54,182.59L114.23,182.36L116.31,181.7L117,181.81L123.92,180.58L124.62,181.03L131.54,179.47L132.23,179.02L144,177.58L144.69,177.58L146.08,175.02L146.77,175.02L153,173.46L153.69,173.46L157.15,172.35L157.85,172.01L160.62,171.68L161.31,171.12L169.62,170.45L170.31,170.34L173.77,169.79L174.46,169.56L176.54,168.67L177.23,168.67L191.08,166.45L191.77,166.22L198.69,164.67L199.38,164.11L202.85,162.77L203.54,162.77L207.69,160.88L208.38,160.1L210.46,158.54L211.15,158.21L213.92,157.21L214.62,156.65L216,155.2L216.69,155.09L220.15,153.42L220.85,152.87L222.92,150.64L223.62,149.97L226.38,148.86L227.08,148.86L229.15,146.19L229.85,145.85L231.23,144.85L231.92,144.85L232.62,144.85L233.31,142.51L234.69,144.85L235.38,144.85L236.08,144.63L236.77,141.07L238.15,140.06L238.85,140.06L240.92,137.84L241.62,137.62L243.69,135.39L244.38,134.83L247.15,132.5L247.85,132.05L250.62,130.16L251.31,129.82L256.85,124.48L257.54,124.15L263.77,121.25L264.46,119.36L270.69,113.79L271.38,113.35L274.85,110.9L275.54,110.57L279,108.67L279.69,108.23L282.46,105.45L283.15,105.11L283.85,105.11L284.54,103.78L285.23,103.78L285.92,103L287.31,102L288,102L288.69,102L289.38,101.1L290.08,100.99L290.77,100.1L294.92,98.21L295.62,97.65L297,96.87" style="vector-effect: non-scaling-stroke; fill: none; stroke: rgb(255, 225, 25); stroke-opacity: 1; stroke-width: 2px; opacity: 1;"/></g><g class="points"/><g class="text"/></g><g class="trace scatter traceba8919" style="stroke-miterlimit: 2; opacity: 1;"><g class="fills"/><g class="errorbars"/><g class="lines"><path class="js-line" d="M0,256.5L50.54,255.83L51.23,255.05L57.46,254.94L58.15,254.16L64.38,254.16L65.08,244.59L67.15,244.59L67.85,241.81L72,241.81L72.69,234.24L78.92,233.9L79.62,228.67L83.08,228.67L83.77,221.88L87.92,221.88L88.62,213.09L94.85,213.09L95.54,211.53L101.77,211.53L102.46,204.52L103.85,200.73L104.54,200.73L109.38,200.73L110.08,196.72L114.92,196.72L115.62,170.45L120.46,170.45L121.15,167.89L130.15,167.45L130.85,166.67L131.54,166.67L132.23,167.45L133.62,166.67L134.31,166.67L139.85,166.11L140.54,165.44L144.69,165.44L145.38,164.67L149.54,164.67L150.23,163.55L154.38,163.55L155.08,162.44L159.23,162.44L159.92,161.55L164.08,161.55L164.77,160.21L168.92,160.21L169.62,158.43L173.77,158.43L174.46,157.1L178.62,157.1L179.31,156.21L183.46,156.21L184.15,155.43L188.31,155.43L189,153.09L193.15,153.09L193.85,150.75L198,150.75L198.69,148.64L202.85,148.64L203.54,146.74L207.69,146.74L208.38,144.63L212.54,144.63L213.23,142.51L217.38,142.51L218.08,138.95L222.23,138.95L222.92,132.94L227.08,132.94L227.77,124.48L231.92,124.48L232.62,114.8L236.77,114.8L237.46,106.89L241.62,106.89L242.31,97.1L246.46,97.1L247.15,92.2L251.31,92.2L252,86.19L256.15,86.19L256.85,80.73L261,80.73L261.69,75.17L265.85,75.17L266.54,70.49L270.69,70.49L271.38,64.15L275.54,64.15L276.23,54.58L280.38,54.58L281.08,51.12L285.23,51.12L285.92,49.34L290.08,49.34L290.77,47.12L294.92,47.12L295.62,44.78L297,44.78" style="vector-effect: non-scaling-stroke; fill: none; stroke: rgb(67, 99, 216); stroke-opacity: 1; stroke-width: 2px; opacity: 1;"/></g><g class="points"/><g class="text"/></g><g class="trace scatter traceace8b5" style="stroke-miterlimit: 2; opacity: 1;"><g class="fills"/><g class="errorbars"/><g class="lines"><path class="js-line" d="M0,256.5L44.31,256.05L45,255.16L47.77,254.5L48.46,254.27L53.31,251.82L54,251.16L56.77,250.93L57.46,249.82L66.46,245.03L67.15,244.48L69.92,242.92L70.62,242.92L72.69,241.47L73.38,241.25L74.77,240.47L75.46,240.47L82.38,237.02L83.08,235.02L85.85,234.35L86.54,233.01L89.31,230.79L90,230.34L92.77,228.67L93.46,228.67L94.85,228.45L95.54,226.33L97.62,225.78L98.31,225.33L103.15,222.99L103.85,222.99L106.62,222.77L107.31,221.99L116.31,221.1L117,221.21L118.38,220.55L119.08,220.55L121.85,219.43L122.54,219.21L126.69,216.87L127.38,215.87L128.77,215.09L129.46,215.2L131.54,213.87L132.23,213.2L133.62,212.2L134.31,212.2L135.69,211.19L136.38,210.86L138.46,208.63L139.15,208.3L141.23,205.07L141.92,204.96L143.31,203.74L144,203.51L146.77,202.4L147.46,202.07L150.92,201.07L151.62,200.51L153,199.17L153.69,198.84L155.77,197.39L156.46,196.95L158.54,195.83L159.23,195.5L162,194.83L162.69,194.72L165.46,194.16L166.15,193.83L180.69,191.05L181.38,190.82L183.46,190.38L184.15,192.05L185.54,189.38L186.23,189.15L193.85,187.48L194.54,186.82L202.15,185.48L202.85,185.04L207,184.03L207.69,183.92L214.62,182.92L215.31,182.25L217.38,181.92L218.08,181.81L225,177.8L225.69,177.8L227.77,177.58L228.46,177.02L230.54,176.58L231.23,176.58L232.62,175.91L233.31,175.8L235.38,175.13L236.08,175.13L241.62,173.68L242.31,173.24L247.15,169.67L247.85,168.56L249.23,165.89L249.92,165.89L251.31,164.78L252,164.11L254.08,161.66L254.77,161.66L256.85,160.1L257.54,158.99L259.62,156.87L260.31,156.76L264.46,151.42L265.15,151.42L268.62,146.86L269.31,146.86L270,146.63L270.69,145.52L272.08,144.41L272.77,143.4L274.85,142.4L275.54,142.4L277.62,139.84L278.31,139.62L280.38,138.62L281.08,137.17L283.15,135.5L283.85,135.39L285.23,134.94L285.92,133.5L288,131.49L288.69,131.49L290.77,129.94L291.46,129.6L294.23,128.15L294.92,128.15L296.31,126.37L297,126.04" style="vector-effect: non-scaling-stroke; fill: none; stroke: rgb(245, 130, 49); stroke-opacity: 1; stroke-width: 2px; opacity: 1;"/></g><g class="points"/><g class="text"/></g><g class="trace scatter trace5f7800" style="stroke-miterlimit: 2; opacity: 1;"><g class="fills"/><g class="errorbars"/><g class="lines"><path class="js-line" d="M0,256.5L60.23,255.83L60.92,255.72L71.31,255.05L72,254.83L77.54,254.27L78.23,253.38L81.69,252.94L82.38,252.38L98.31,251.71L99,251.6L105.23,250.93L105.92,250.82L109.38,249.49L110.08,249.49L112.85,248.15L113.54,248.15L116.31,247.48L117,247.37L122.54,245.81L123.23,244.92L125.31,244.37L126,243.92L127.38,243.81L128.08,242.92L130.85,242.7L131.54,241.81L134.31,240.8L135,240.69L138.46,239.13L139.15,239.13L139.85,239.13L140.54,238.24L144,237.69L144.69,237.47L148.85,236.8L149.54,236.69L154.38,235.8L155.08,235.8L172.38,233.46L173.08,233.46L179.31,232.9L180,232.68L182.77,232.9L183.46,232.9L191.08,232.34L191.77,232.34L193.15,232.34L193.85,231.57L203.54,230.45L204.23,230.45L212.54,228.45L213.23,228.45L215.31,227.67L216,227.67L218.77,227.11L219.46,226.56L220.85,226.11L221.54,226.11L224.31,224L225,223.11L227.08,222.66L227.77,222.33L229.85,219.65L230.54,219.65L235.38,219.65L236.08,217.99L239.54,215.2L240.23,215.2L240.92,215.2L241.62,213.64L242.31,213.2L243,211.19L245.08,209.97L245.77,209.97L247.85,203.51L248.54,203.29L249.92,201.96L250.62,201.96L251.31,201.96L252,199.84L254.77,195.72L255.46,195.72L256.85,192.05L257.54,190.82L258.92,188.38L259.62,188.38L260.31,188.38L261,186.71L263.77,182.81L264.46,182.81L265.15,182.81L265.85,181.25L267.23,179.02L267.92,178.47L269.31,177.58L270,177.58L271.38,177.02L272.08,175.13L273.46,173.9L274.15,173.9L274.85,173.9L275.54,172.9L279,171.12L279.69,171.12L281.77,169.12L282.46,168.78L285.23,168.23L285.92,167.78L287.31,166.67L288,166.67L288.69,166.67L289.38,165.89L294.92,163L295.62,162.88L296.31,162.88L297,161.99" style="vector-effect: non-scaling-stroke; fill: none; stroke: rgb(145, 30, 180); stroke-opacity: 1; stroke-width: 2px; opacity: 1;"/></g><g class="points"/><g class="text"/></g></g></g><g class="overplot"/><path class="xlines-above crisp" d="M0,0" style="fill: none;"/><path class="ylines-above crisp" d="M0,0" style="fill: none;"/><g class="overlines-above"/><g class="xaxislayer-above"><g class="x2tick"><text text-anchor="middle" x="0" y="383" transform="translate(491.46000000000004,0)" style="font-family: 'Open Sans', verdana, arial, sans-serif; font-size: 12px; fill: rgb(242, 245, 250); fill-opacity: 1; white-space: pre;">Apr 2020</text></g><g class="x2tick"><text text-anchor="middle" x="0" y="383" transform="translate(554.46,0)" style="font-family: 'Open Sans', verdana, arial, sans-serif; font-size: 12px; fill: rgb(242, 245, 250); fill-opacity: 1; white-space: pre;">Jul 2020</text></g><g class="x2tick"><text text-anchor="middle" x="0" y="383" transform="translate(618.1500000000001,0)" style="font-family: 'Open Sans', verdana, arial, sans-serif; font-size: 12px; fill: rgb(242, 245, 250); fill-opacity: 1; white-space: pre;">Oct 2020</text></g><g class="x2tick"><text text-anchor="middle" x="0" y="383" transform="translate(681.85,0)" style="font-family: 'Open Sans', verdana, arial, sans-serif; font-size: 12px; fill: rgb(242, 245, 250); fill-opacity: 1; white-space: pre;">Jan 2021</text></g></g><g class="yaxislayer-above"><g class="y2tick"><text text-anchor="end" x="442.00000000000006" y="4.199999999999999" transform="translate(0,356.5)" style="font-family: 'Open Sans', verdana, arial, sans-serif; font-size: 12px; fill: rgb(242, 245, 250); fill-opacity: 1; white-space: pre;">0</text></g><g class="y2tick"><text text-anchor="end" x="442.00000000000006" y="4.199999999999999" transform="translate(0,300.84000000000003)" style="font-family: 'Open Sans', verdana, arial, sans-serif; font-size: 12px; fill: rgb(242, 245, 250); fill-opacity: 1; white-space: pre;">500</text></g><g class="y2tick"><text text-anchor="end" x="442.00000000000006" y="4.199999999999999" transform="translate(0,245.19)" style="font-family: 'Open Sans', verdana, arial, sans-serif; font-size: 12px; fill: rgb(242, 245, 250); fill-opacity: 1; white-space: pre;">1000</text></g><g class="y2tick"><text text-anchor="end" x="442.00000000000006" y="4.199999999999999" transform="translate(0,189.53)" style="font-family: 'Open Sans', verdana, arial, sans-serif; font-size: 12px; fill: rgb(242, 245, 250); fill-opacity: 1; white-space: pre;">1500</text></g><g class="y2tick"><text text-anchor="end" x="442.00000000000006" y="4.199999999999999" transform="translate(0,133.87)" style="font-family: 'Open Sans', verdana, arial, sans-serif; font-size: 12px; fill: rgb(242, 245, 250); fill-opacity: 1; white-space: pre;">2000</text></g></g><g class="overaxes-above"/></g></g><g class="polarlayer"/><g class="ternarylayer"/><g class="geolayer"/><g class="funnelarealayer"/><g class="pielayer"/><g class="treemaplayer"/><g class="sunburstlayer"/><g class="glimages"/><defs id="topdefs-25cd32"><g class="clips"/><clipPath id="legend25cd32"><rect width="135" height="124" x="0" y="0"/></clipPath></defs><g class="layer-above"><g class="imagelayer"/><g class="shapelayer"/></g><g class="infolayer"><g class="legend" pointer-events="all" transform="translate(753.2, 100)"><rect class="bg" shape-rendering="crispEdges" width="135" height="124" x="0" y="0" style="stroke: rgb(68, 68, 68); stroke-opacity: 1; fill: rgb(17, 17, 17); fill-opacity: 1; stroke-width: 0px;"/><g class="scrollbox" transform="translate(0, 0)" clip-path="url('#legend25cd32')"><g class="groups"><g class="traces" transform="translate(0, 14.5)" style="opacity: 1;"><text class="legendtext user-select-none" text-anchor="start" x="40" y="4.680000000000001" style="font-family: 'Open Sans', verdana, arial, sans-serif; font-size: 12px; fill: rgb(242, 245, 250); fill-opacity: 1; white-space: pre;">Alameda, CA</text><g class="layers" style="opacity: 1;"><g class="legendfill"/><g class="legendlines"><path class="js-line" d="M5,0h30" style="fill: none; stroke: rgb(230, 25, 75); stroke-opacity: 1; stroke-width: 2px;"/></g><g class="legendsymbols"><g class="legendpoints"/></g></g><rect class="legendtoggle" pointer-events="all" x="0" y="-9.5" width="129.15625" height="19" style="cursor: pointer; fill: rgb(0, 0, 0); fill-opacity: 0;"/></g><g class="traces" transform="translate(0, 33.5)" style="opacity: 1;"><text class="legendtext user-select-none" text-anchor="start" x="40" y="4.680000000000001" style="font-family: 'Open Sans', verdana, arial, sans-serif; font-size: 12px; fill: rgb(242, 245, 250); fill-opacity: 1; white-space: pre;">Westchester, NY</text><g class="layers" style="opacity: 1;"><g class="legendfill"/><g class="legendlines"><path class="js-line" d="M5,0h30" style="fill: none; stroke: rgb(60, 180, 75); stroke-opacity: 1; stroke-width: 2px;"/></g><g class="legendsymbols"><g class="legendpoints"/></g></g><rect class="legendtoggle" pointer-events="all" x="0" y="-9.5" width="129.15625" height="19" style="cursor: pointer; fill: rgb(0, 0, 0); fill-opacity: 0;"/></g><g class="traces" transform="translate(0, 52.5)" style="opacity: 1;"><text class="legendtext user-select-none" text-anchor="start" x="40" y="4.680000000000001" style="font-family: 'Open Sans', verdana, arial, sans-serif; font-size: 12px; fill: rgb(242, 245, 250); fill-opacity: 1; white-space: pre;">Hampden, MA</text><g class="layers" style="opacity: 1;"><g class="legendfill"/><g class="legendlines"><path class="js-line" d="M5,0h30" style="fill: none; stroke: rgb(255, 225, 25); stroke-opacity: 1; stroke-width: 2px;"/></g><g class="legendsymbols"><g class="legendpoints"/></g></g><rect class="legendtoggle" pointer-events="all" x="0" y="-9.5" width="129.15625" height="19" style="cursor: pointer; fill: rgb(0, 0, 0); fill-opacity: 0;"/></g><g class="traces" transform="translate(0, 71.5)" style="opacity: 1;"><text class="legendtext user-select-none" text-anchor="start" x="40" y="4.680000000000001" style="font-family: 'Open Sans', verdana, arial, sans-serif; font-size: 12px; fill: rgb(242, 245, 250); fill-opacity: 1; white-space: pre;">Providence, RI</text><g class="layers" style="opacity: 1;"><g class="legendfill"/><g class="legendlines"><path class="js-line" d="M5,0h30" style="fill: none; stroke: rgb(67, 99, 216); stroke-opacity: 1; stroke-width: 2px;"/></g><g class="legendsymbols"><g class="legendpoints"/></g></g><rect class="legendtoggle" pointer-events="all" x="0" y="-9.5" width="129.15625" height="19" style="cursor: pointer; fill: rgb(0, 0, 0); fill-opacity: 0;"/></g><g class="traces" transform="translate(0, 90.5)" style="opacity: 1;"><text class="legendtext user-select-none" text-anchor="start" x="40" y="4.680000000000001" style="font-family: 'Open Sans', verdana, arial, sans-serif; font-size: 12px; fill: rgb(242, 245, 250); fill-opacity: 1; white-space: pre;">Fulton, GA</text><g class="layers" style="opacity: 1;"><g class="legendfill"/><g class="legendlines"><path class="js-line" d="M5,0h30" style="fill: none; stroke: rgb(245, 130, 49); stroke-opacity: 1; stroke-width: 2px;"/></g><g class="legendsymbols"><g class="legendpoints"/></g></g><rect class="legendtoggle" pointer-events="all" x="0" y="-9.5" width="129.15625" height="19" style="cursor: pointer; fill: rgb(0, 0, 0); fill-opacity: 0;"/></g><g class="traces" transform="translate(0, 109.5)" style="opacity: 1;"><text class="legendtext user-select-none" text-anchor="start" x="40" y="4.680000000000001" style="font-family: 'Open Sans', verdana, arial, sans-serif; font-size: 12px; fill: rgb(242, 245, 250); fill-opacity: 1; white-space: pre;">Pinal, AZ</text><g class="layers" style="opacity: 1;"><g class="legendfill"/><g class="legendlines"><path class="js-line" d="M5,0h30" style="fill: none; stroke: rgb(145, 30, 180); stroke-opacity: 1; stroke-width: 2px;"/></g><g class="legendsymbols"><g class="legendpoints"/></g></g><rect class="legendtoggle" pointer-events="all" x="0" y="-9.5" width="129.15625" height="19" style="cursor: pointer; fill: rgb(0, 0, 0); fill-opacity: 0;"/></g></g></g><rect class="scrollbar" rx="20" ry="3" width="0" height="0" x="0" y="0" style="fill: rgb(128, 139, 164); fill-opacity: 1;"/></g><g class="g-gtitle"/><g class="g-xtitle"><text class="xtitle" x="228.5" y="410.8" text-anchor="middle" style="font-family: 'Open Sans', verdana, arial, sans-serif; font-size: 14px; fill: rgb(242, 245, 250); opacity: 1; font-weight: normal; white-space: pre;">Date</text></g><g class="g-x2title"><text class="x2title" x="591.5" y="410.8" text-anchor="middle" style="font-family: 'Open Sans', verdana, arial, sans-serif; font-size: 14px; fill: rgb(242, 245, 250); opacity: 1; font-weight: normal; white-space: pre;">Date</text></g><g class="g-ytitle"><text class="ytitle" transform="rotate(-90,28.168750000000003,235)" x="28.168750000000003" y="235" text-anchor="middle" style="font-family: 'Open Sans', verdana, arial, sans-serif; font-size: 14px; fill: rgb(242, 245, 250); opacity: 1; font-weight: normal; white-space: pre;">Cases</text></g><g class="g-y2title"><text class="y2title" transform="rotate(-90,390.496875,235)" x="390.496875" y="235" text-anchor="middle" style="font-family: 'Open Sans', verdana, arial, sans-serif; font-size: 14px; fill: rgb(242, 245, 250); opacity: 1; font-weight: normal; white-space: pre;">Deaths</text></g><g class="annotation" data-index="0" style="opacity: 1;"><g class="annotation-text-g" transform="rotate(0,228.5,89.5)"><g class="cursor-pointer" transform="translate(204, 79)"><rect class="bg" x="0.5" y="0.5" width="48" height="20" style="stroke-width: 1px; stroke: rgb(0, 0, 0); stroke-opacity: 0; fill: rgb(0, 0, 0); fill-opacity: 0;"/><text class="annotation-text" text-anchor="middle" x="24.6875" y="16" style="font-family: 'Open Sans', verdana, arial, sans-serif; font-size: 16px; fill: rgb(242, 245, 250); fill-opacity: 1; white-space: pre;">Cases</text></g></g></g><g class="annotation" data-index="1" style="opacity: 1;"><g class="annotation-text-g" transform="rotate(0,591.5,89.5)"><g class="cursor-pointer" transform="translate(564, 79)"><rect class="bg" x="0.5" y="0.5" width="54" height="20" style="stroke-width: 1px; stroke: rgb(0, 0, 0); stroke-opacity: 0; fill: rgb(0, 0, 0); fill-opacity: 0;"/><text class="annotation-text" text-anchor="middle" x="27.359375" y="16" style="font-family: 'Open Sans', verdana, arial, sans-serif; font-size: 16px; fill: rgb(242, 245, 250); fill-opacity: 1; white-space: pre;">Deaths</text></g></g></g></g></svg>