<svg class="main-svg" xmlns="http://www.w3.org/2000/svg" xmlns:xlink="http://www.w3.org/1999/xlink" width="900" height="450" style="" viewBox="0 0 900 450"><rect x="0" y="0" width="900" height="450" style="fill: rgb(17, 17, 17); fill-opacity: 1;"/><defs id="defs-bf9965"><g class="clips"><clipPath id="clipbf9965xyplot" class="plotclip"><rect width="297" height="270"/></clipPath><clipPath id="clipbf9965x2y2plot" class="plotclip"><rect width="296.99999999999994" height="270"/></clipPath><clipPath class="axesclip" id="clipbf9965x"><rect x="80" y="0" width="297" height="450"/></clipPath><clipPath class="axesclip" id="clipbf9965y"><rect x="0" y="100" width="900" height="270"/></clipPath><clipPath class="axesclip" id="clipbf9965xy"><rect x="80" y="100" width="297" height="270"/></clipPath><clipPath class="axesclip" id="clipbf9965y2"><rect x="0" y="100" width="900" height="270"/></clipPath><clipPath class="axesclip" id="clipbf9965xy2"><rect x="80" y="100" width="297" height="270"/></clipPath><clipPath class="axesclip" id="clipbf9965x2"><rect x="443.00000000000006" y="0" width="296.99999999999994" height="450"/></clipPath><clipPath class="axesclip" id="clipbf9965x2y"><rect x="443.00000000000006" y="100" width="296.99999999999994" height="270"/></clipPath><clipPath class="axesclip" id="clipbf9965x2y2"><rect x="443.00000000000006" y="100" width="296.99999999999994" height="270"/></clipPath></g><g class="gradients"/></defs><g class="bglayer"/><g class="layer-below"><g class="imagelayer"/><g class="shapelayer"/></g><g class="cartesianlayer"><g class="subplot xy"><g class="layer-subplot"><g class="shapelayer"/><g class="imagelayer"/></g><g class="gridlayer"><g class="x"><path class="xgrid crisp" transform="translate(123.38,0)" d="M0,100v270" style="stroke: rgb(40, 52, 66); stroke-opacity: 1; stroke-width: 1px;"/><path class="xgrid crisp" transform="translate(191.24,0)" d="M0,100v270" style="stroke: rgb(40, 52, 66); stroke-opacity: 1; stroke-width: 1px;"/><path class="xgrid crisp" transform="translate(259.09000000000003,0)" d="M0,100v270" style="stroke: rgb(40, 52, 66); stroke-opacity: 1; stroke-width: 1px;"/><path class="xgrid crisp" transform="translate(328.06,0)" d="M0,100v270" style="stroke: rgb(40, 52, 66); stroke-opacity: 1; stroke-width: 1px;"/></g><g class="y"><path class="ygrid crisp" transform="translate(0,302.19)" d="M80,0h297" style="stroke: rgb(40, 52, 66); stroke-opacity: 1; stroke-width: 1px;"/><path class="ygrid crisp" transform="translate(0,247.87)" d="M80,0h297" style="stroke: rgb(40, 52, 66); stroke-opacity: 1; stroke-width: 1px;"/><path class="ygrid crisp" transform="translate(0,193.56)" d="M80,0h297" style="stroke: rgb(40, 52, 66); stroke-opacity: 1; stroke-width: 1px;"/><path class="ygrid crisp" transform="translate(0,139.24)" d="M80,0h297" style="stroke: rgb(40, 52, 66); stroke-opacity: 1; stroke-width: 1px;"/></g></g><g class="zerolinelayer"><path class="yzl zl crisp" transform="translate(0,356.5)" d="M80,0h297" style="stroke: rgb(40, 52, 66); stroke-opacity: 1; stroke-width: 2px;"/></g><path class="xlines-below"/><path class="ylines-below"/><g class="overlines-below"/><g class="xaxislayer-below"/><g class="yaxislayer-below"/><g class="overaxes-below"/><g class="plot" transform="translate(80, 100)" clip-path="url('#clipbf9965xyplot')"><g class="scatterlayer mlayer"><g class="trace scatter traced17e8a" style="stroke-miterlimit: 2; opacity: 1;"><g class="fills"/><g class="errorbars"/><g class="lines"><path class="js-line" d="M0,256.5L65.63,255.79L66.74,255.35L72.3,254.11L73.42,253.72L77.87,252.6L78.98,252.2L90.1,247.34L91.21,246.9L92.33,246.9L93.44,246.05L110.12,239.09L111.24,238.73L114.57,237.21L115.69,236.85L137.93,225.28L139.04,224.06L143.49,220.77L144.61,219.68L153.51,213.65L154.62,213.21L156.84,211.76L157.96,210.7L163.52,207.26L164.63,206.12L167.97,204.3L169.08,202.11L174.64,195.58L175.75,194.91L176.87,193.91L177.98,191.71L181.31,186.2L182.43,185.28L183.54,182.04L184.65,181.69L185.76,181.69L186.88,177.8L190.21,172.59L191.33,172.59L194.66,164.41L195.78,162.79L199.11,156.16L200.22,155.95L201.34,154.57L202.45,151.75L205.79,144.29L206.9,143.85L208.01,143.11L209.12,141L210.24,139.48L211.35,135.59L212.46,135.59L213.57,131.75L214.69,131.32L215.8,127.82L216.91,127.14L218.02,124.67L221.36,124.67L222.47,113.12L223.58,112.92L224.7,108.07L225.81,103.35L226.92,101.93L228.03,98.36L229.15,98.36L230.26,92.22L231.37,92.15L236.93,75.17L238.04,74.84L239.16,74.73L240.27,68.85L241.38,67.65L242.49,65.09L243.61,62.63L244.72,62.63L252.51,48.68L253.62,48.68L254.73,46.31L255.84,46.31L258.07,42.39L259.18,41.21L260.29,41.02L261.4,39.34L265.85,37.48L266.97,35.29L269.19,33.18L270.3,32.28L276.98,26.33L278.09,25.77L285.88,20.28L286.99,19.59L290.33,18.15L291.44,16.74L295.89,13.99L297,13.5" style="vector-effect: non-scaling-stroke; fill: none; stroke: rgb(230, 25, 75); stroke-opacity: 1; stroke-width: 2px; opacity: 1;"/></g><g class="points"/><g class="text"/></g><g class="trace scatter tracee554bf" style="stroke-miterlimit: 2; opacity: 1;"><g class="fills"/><g class="errorbars"/><g class="lines"><path class="js-line" d="M0,256.5L90.1,255.75L91.21,255.72L94.55,255.38L95.66,253.9L97.89,251.47L99,250.29L129.03,247.46L130.15,247.08L136.82,245.64L137.93,245.32L142.38,244.68L143.49,244.42L146.83,243.69L147.94,243.6L172.42,237.9L173.53,237.77L239.16,227.38L240.27,227.04L244.72,226.1L245.83,225.95L256.96,224.5L258.07,224.24L268.08,222.45L269.19,222.18L273.64,221.2L274.75,220.26L290.33,215.75L291.44,215.22L297,213.09" style="vector-effect: non-scaling-stroke; fill: none; stroke: rgb(60, 180, 75); stroke-opacity: 1; stroke-width: 2px; opacity: 1;"/></g><g class="points"/><g class="text"/></g><g class="trace scatter traced4e1a3" style="stroke-miterlimit: 2; opacity: 1;"><g class="fills"/><g class="errorbars"/><g class="lines"><path class="js-line" d="M0,256.5L241.38,255.79L242.49,255.74L261.4,255.19L262.52,255.16L297,254.58" style="vector-effect: non-scaling-stroke; fill: none; stroke: rgb(255, 225, 25); stroke-opacity: 1; stroke-width: 2px; opacity: 1;"/></g><g class="points"/><g class="text"/></g><g class="trace scatter trace18ba70" style="stroke-miterlimit: 2; opacity: 1;"><g class="fills"/><g class="errorbars"/><g class="lines"><path class="js-line" d="M0,256.5L145.72,256.05L146.83,255.73L164.63,254.45L165.74,254.33L171.3,252.56L172.42,252.32L183.54,250.61L184.65,250.41L230.26,246.78L231.37,246.77L250.28,245.03L251.39,244.81L297,240.49" style="vector-effect: non-scaling-stroke; fill: none; stroke: rgb(67, 99, 216); stroke-opacity: 1; stroke-width: 2px; opacity: 1;"/></g><g class="points"/><g class="text"/></g><g class="trace scatter trace0cb252" style="stroke-miterlimit: 2; opacity: 1;"><g class="fills"/><g class="errorbars"/><g class="lines"><path class="js-line" d="M0,256.5L180.2,255.78L181.31,255.73L194.66,255.14L195.78,254.91L216.91,253.97L218.02,253.87L270.3,251.8L271.42,251.59L297,249.63" style="vector-effect: non-scaling-stroke; fill: none; stroke: rgb(245, 130, 49); stroke-opacity: 1; stroke-width: 2px; opacity: 1;"/></g><g class="points"/><g class="text"/></g><g class="trace scatter trace4420fd" style="stroke-miterlimit: 2; opacity: 1;"><g class="fills"/><g class="errorbars"/><g class="lines"><path class="js-line" d="M0,256.5L211.35,255.79L212.46,255.74L260.29,253.45L261.4,253.45L294.78,252.42L295.89,252.37L297,252.25" style="vector-effect: non-scaling-stroke; fill: none; stroke: rgb(145, 30, 180); stroke-opacity: 1; stroke-width: 2px; opacity: 1;"/></g><g class="points"/><g class="text"/></g></g></g><g class="overplot"/><path class="xlines-above crisp" d="M0,0" style="fill: none;"/><path class="ylines-above crisp" d="M0,0" style="fill: none;"/><g class="overlines-above"/><g class="xaxislayer-above"><g class="xtick"><text text-anchor="middle" x="0" y="383" transform="translate(123.38,0)" style="font-family: 'Open Sans', verdana, arial, sans-serif; font-size: 12px; fill: rgb(242, 245, 250); fill-opacity: 1; white-space: pre;">Mar 2020</text></g><g class="xtick"><text text-anchor="middle" x="0" y="383" transform="translate(191.24,0)" style="font-family: 'Open Sans', verdana, arial, sans-serif; font-size: 12px; fill: rgb(242, 245, 250); fill-opacity: 1; white-space: pre;">May 2020</text></g><g class="xtick"><text text-anchor="middle" x="0" y="383" transform="translate(259.09000000000003,0)" style="font-family: 'Open Sans', verdana, arial, sans-serif; font-size: 12px; fill: rgb(242, 245, 250); fill-opacity: 1; white-space: pre;">Jul 2020</text></g><g class="xtick"><text text-anchor="middle" x="0" y="383" transform="translate(328.06,0)" style="font-family: 'Open Sans', verdana, arial, sans-serif; font-size: 12px; fill: rgb(242, 245, 250); fill-opacity: 1; white-space: pre;">Sep 2020</text></g></g><g class="yaxislayer-above"><g class="ytick"><text text-anchor="end" x="79" y="4.199999999999999" transform="translate(0,356.5)" style="font-family: 'Open Sans', verdana, arial, sans-serif; font-size: 12px; fill: rgb(242, 245, 250); fill-opacity: 1; white-space: pre;">0</text></g><g class="ytick"><text text-anchor="end" x="79" y="4.199999999999999" transform="translate(0,302.19)" style="font-family: 'Open Sans', verdana, arial, sans-serif; font-size: 12px; fill: rgb(242, 245, 250); fill-opacity: 1; white-space: pre;">5k</text></g><g class="ytick"><text text-anchor="end" x="79" y="4.199999999999999" transform="translate(0,247.87)" style="font-family: 'Open Sans', verdana, arial, sans-serif; font-size: 12px; fill: rgb(242, 245, 250); fill-opacity: 1; white-space: pre;">10k</text></g><g class="ytick"><text text-anchor="end" x="79" y="4.199999999999999" transform="translate(0,193.56)" style="font-family: 'Open Sans', verdana, arial, sans-serif; font-size: 12px; fill: rgb(242, 245, 250); fill-opacity: 1; white-space: pre;">15k</text></g><g class="ytick"><text text-anchor="end" x="79" y="4.199999999999999" transform="translate(0,139.24)" style="font-family: 'Open Sans', verdana, arial, sans-serif; font-size: 12px; fill: rgb(242, 245, 250); fill-opacity: 1; white-space: pre;">20k</text></g></g><g class="overaxes-above"/></g><g class="subplot x2y2"><g class="layer-subplot"><g class="shapelayer"/><g class="imagelayer"/></g><g class="gridlayer"><g class="x2"><path class="x2grid crisp" transform="translate(486.38000000000005,0)" d="M0,100v270" style="stroke: rgb(40, 52, 66); stroke-opacity: 1; stroke-width: 1px;"/><path class="x2grid crisp" transform="translate(554.24,0)" d="M0,100v270" style="stroke: rgb(40, 52, 66); stroke-opacity: 1; stroke-width: 1px;"/><path class="x2grid crisp" transform="translate(622.09,0)" d="M0,100v270" style="stroke: rgb(40, 52, 66); stroke-opacity: 1; stroke-width: 1px;"/><path class="x2grid crisp" transform="translate(691.0600000000001,0)" d="M0,100v270" style="stroke: rgb(40, 52, 66); stroke-opacity: 1; stroke-width: 1px;"/></g><g class="y2"><path class="y2grid crisp" transform="translate(0,300.38)" d="M443.00000000000006,0h296.99999999999994" style="stroke: rgb(40, 52, 66); stroke-opacity: 1; stroke-width: 1px;"/><path class="y2grid crisp" transform="translate(0,244.26)" d="M443.00000000000006,0h296.99999999999994" style="stroke: rgb(40, 52, 66); stroke-opacity: 1; stroke-width: 1px;"/><path class="y2grid crisp" transform="translate(0,188.14)" d="M443.00000000000006,0h296.99999999999994" style="stroke: rgb(40, 52, 66); stroke-opacity: 1; stroke-width: 1px;"/><path class="y2grid crisp" transform="translate(0,132.02)" d="M443.00000000000006,0h296.99999999999994" style="stroke: rgb(40, 52, 66); stroke-opacity: 1; stroke-width: 1px;"/></g></g><g class="zerolinelayer"><path class="y2zl zl crisp" transform="translate(0,356.5)" d="M443.00000000000006,0h296.99999999999994" style="stroke: rgb(40, 52, 66); stroke-opacity: 1; stroke-width: 2px;"/></g><path class="xlines-below"/><path class="ylines-below"/><g class="overlines-below"/><g class="xaxislayer-below"/><g class="yaxislayer-below"/><g class="overaxes-below"/><g class="plot" transform="translate(443.00000000000006, 100)" clip-path="url('#clipbf9965x2y2plot')"><g class="scatterlayer mlayer"><g class="trace scatter tracef6a1f5" style="stroke-miterlimit: 2; opacity: 1;"><g class="fills"/><g class="errorbars"/><g class="lines"><path class="js-line" d="M0,256.5L67.85,255.94L68.97,255.38L70.08,255.38L71.19,254.26L72.3,254.26L73.42,253.13L75.64,252.57L76.75,252.57L78.98,251.45L80.09,249.77L83.43,249.2L84.54,248.08L86.76,246.96L87.88,245.28L91.21,243.59L92.33,243.59L93.44,236.3L94.55,234.61L95.66,234.61L96.78,233.49L102.34,230.68L103.45,229.56L104.56,227.32L105.67,227.32L106.79,227.32L107.9,225.63L112.35,221.14L113.46,221.14L114.57,221.14L115.69,219.46L117.91,218.9L119.02,217.22L121.25,216.65L122.36,216.65L126.81,210.48L127.92,209.92L130.15,209.92L131.26,208.24L133.48,205.99L134.6,205.99L136.82,204.31L137.93,204.31L141.27,203.75L142.38,203.19L145.72,202.62L146.83,202.06L149.06,202.06L150.17,199.82L154.62,199.26L155.73,197.57L157.96,195.33L159.07,195.33L160.18,193.65L161.29,193.65L162.4,193.65L163.52,191.4L166.85,190.28L167.97,190.28L169.08,189.16L170.19,189.16L171.3,188.03L172.42,184.67L173.53,183.54L174.64,183.54L175.75,181.86L176.87,181.86L181.31,177.93L182.43,177.93L185.76,177.93L186.88,176.81L189.1,174L190.21,173.44L192.44,173.44L193.55,171.2L194.66,170.08L195.78,170.08L196.89,166.15L198,165.59L200.22,165.59L201.34,162.78L204.67,156.61L205.79,156.61L208.01,156.61L209.12,154.92L212.46,154.36L213.57,150.43L215.8,150.43L216.91,148.75L219.13,148.19L220.25,148.19L221.36,148.19L222.47,141.45L224.7,141.45L225.81,137.53L228.03,133.6L229.15,133.6L230.26,132.47L231.37,132.47L235.82,125.74L236.93,125.74L239.16,125.18L240.27,121.81L243.61,117.88L244.72,117.88L245.83,112.27L246.94,112.27L248.06,112.27L249.17,102.73L250.28,90.95L251.39,90.38L252.51,88.7L253.62,88.7L255.84,88.14L256.96,86.46L258.07,86.46L259.18,76.92L260.29,76.92L261.4,70.18L262.52,69.62L263.63,56.71L264.74,56.71L265.85,51.66L268.08,46.61L269.19,46.61L270.3,46.61L271.42,37.63L274.75,29.77L275.87,28.65L278.09,28.65L279.2,27.53L280.31,25.29L281.43,20.8L282.54,20.8L283.65,17.99L285.88,17.99L286.99,16.87L288.1,14.62L289.21,14.62L294.78,14.62L295.89,13.5L297,13.5" style="vector-effect: non-scaling-stroke; fill: none; stroke: rgb(230, 25, 75); stroke-opacity: 1; stroke-width: 2px; opacity: 1;"/></g><g class="points"/><g class="text"/></g><g class="trace scatter trace516edd" style="stroke-miterlimit: 2; opacity: 1;"><g class="fills"/><g class="errorbars"/><g class="lines"><path class="js-line" d="M0,256.5L91.21,256.5L92.33,255.38L93.44,255.38L94.55,254.26L101.22,253.69L102.34,253.13L103.45,253.13L104.56,252.01L106.79,252.01L107.9,250.89L114.57,250.33L115.69,249.77L124.58,249.2L125.7,248.64L127.92,248.08L129.03,248.08L132.37,247.52L133.48,246.96L135.71,246.4L136.82,246.4L139.04,246.4L140.16,245.28L165.74,244.71L166.85,244.15L169.08,243.59L170.19,243.59L172.42,243.03L173.53,243.03L175.75,242.47L176.87,242.47L180.2,240.79L181.31,240.79L185.76,240.23L186.88,239.66L192.44,239.66L193.55,238.54L194.66,237.42L195.78,237.42L203.56,236.86L204.67,236.3L216.91,235.74L218.02,234.05L220.25,234.05L221.36,232.93L232.48,232.37L233.6,231.81L235.82,231.81L236.93,230.68L239.16,230.68L240.27,228.44L242.49,227.88L243.61,227.88L246.94,227.88L248.06,226.76L250.28,225.07L251.39,225.07L253.62,224.51L254.73,224.51L255.84,224.51L256.96,222.83L260.29,221.71L261.4,221.71L264.74,221.71L265.85,220.58L270.3,220.58L271.42,219.46L278.09,218.9L279.2,217.78L281.43,217.78L282.54,216.65L285.88,216.65L286.99,215.53L294.78,214.97L295.89,214.41L297,213.85" style="vector-effect: non-scaling-stroke; fill: none; stroke: rgb(60, 180, 75); stroke-opacity: 1; stroke-width: 2px; opacity: 1;"/></g><g class="points"/><g class="text"/></g><g class="trace scatter trace755577" style="stroke-miterlimit: 2; opacity: 1;"><g class="fills"/><g class="errorbars"/><g class="lines"><path class="js-line" d="M0,256.5L233.6,255.94L234.71,255.38L249.17,254.82L250.28,254.26L279.2,253.69L280.31,253.13L294.78,252.57L295.89,252.01L297,252.01" style="vector-effect: non-scaling-stroke; fill: none; stroke: rgb(255, 225, 25); stroke-opacity: 1; stroke-width: 2px; opacity: 1;"/></g><g class="points"/><g class="text"/></g><g class="trace scatter trace56210a" style="stroke-miterlimit: 2; opacity: 1;"><g class="fills"/><g class="errorbars"/><g class="lines"><path class="js-line" d="M0,256.5L155.73,255.94L156.84,255.38L173.53,254.82L174.64,254.26L179.09,254.26L180.2,252.57L184.65,252.01L185.76,251.45L189.1,250.89L190.21,250.33L194.66,249.77L195.78,249.2L201.34,248.64L202.45,246.96L203.56,245.84L204.67,245.84L206.9,245.28L208.01,245.28L209.12,245.28L210.24,243.59L211.35,242.47L212.46,242.47L216.91,241.91L218.02,240.79L246.94,240.23L248.06,239.66L259.18,239.1L260.29,238.54L270.3,237.98L271.42,237.42L293.66,236.86L294.78,236.3L297,235.74" style="vector-effect: non-scaling-stroke; fill: none; stroke: rgb(67, 99, 216); stroke-opacity: 1; stroke-width: 2px; opacity: 1;"/></g><g class="points"/><g class="text"/></g><g class="trace scatter tracebb1074" style="stroke-miterlimit: 2; opacity: 1;"><g class="fills"/><g class="errorbars"/><g class="lines"><path class="js-line" d="M0,256.5L215.8,256.5L216.91,255.38L219.13,255.38L220.25,254.26L263.63,253.69L264.74,253.13L290.33,252.57L291.44,252.01L297,252.01" style="vector-effect: non-scaling-stroke; fill: none; stroke: rgb(245, 130, 49); stroke-opacity: 1; stroke-width: 2px; opacity: 1;"/></g><g class="points"/><g class="text"/></g><g class="trace scatter traced3befb" style="stroke-miterlimit: 2; opacity: 1;"><g class="fills"/><g class="errorbars"/><g class="lines"><path class="js-line" d="M0,256.5L244.72,255.94L245.83,255.38L280.31,254.82L281.43,254.26L293.66,253.69L294.78,253.13L297,253.13" style="vector-effect: non-scaling-stroke; fill: none; stroke: rgb(145, 30, 180); stroke-opacity: 1; stroke-width: 2px; opacity: 1;"/></g><g class="points"/><g class="text"/></g></g></g><g class="overplot"/><path class="xlines-above crisp" d="M0,0" style="fill: none;"/><path class="ylines-above crisp" d="M0,0" style="fill: none;"/><g class="overlines-above"/><g class="xaxislayer-above"><g class="x2tick"><text text-anchor="middle" x="0" y="383" transform="translate(486.38000000000005,0)" style="font-family: 'Open Sans', verdana, arial, sans-serif; font-size: 12px; fill: rgb(242, 245, 250); fill-opacity: 1; white-space: pre;">Mar 2020</text></g><g class="x2tick"><text text-anchor="middle" x="0" y="383" transform="translate(554.24,0)" style="font-family: 'Open Sans', verdana, arial, sans-serif; font-size: 12px; fill: rgb(242, 245, 250); fill-opacity: 1; white-space: pre;">May 2020</text></g><g class="x2tick"><text text-anchor="middle" x="0" y="383" transform="translate(622.09,0)" style="font-family: 'Open Sans', verdana, arial, sans-serif; font-size: 12px; fill: rgb(242, 245, 250); fill-opacity: 1; white-space: pre;">Jul 2020</text></g><g class="x2tick"><text text-anchor="middle" x="0" y="383" transform="translate(691.0600000000001,0)" style="font-family: 'Open Sans', verdana, arial, sans-serif; font-size: 12px; fill: rgb(242, 245, 250); fill-opacity: 1; white-space: pre;">Sep 2020</text></g></g><g class="yaxislayer-above"><g class="y2tick"><text text-anchor="end" x="442.00000000000006" y="4.199999999999999" transform="translate(0,356.5)" style="font-family: 'Open Sans', verdana, arial, sans-serif; font-size: 12px; fill: rgb(242, 245, 250); fill-opacity: 1; white-space: pre;">0</text></g><g class="y2tick"><text text-anchor="end" x="442.00000000000006" y="4.199999999999999" transform="translate(0,300.38)" style="font-family: 'Open Sans', verdana, arial, sans-serif; font-size: 12px; fill: rgb(242, 245, 250); fill-opacity: 1; white-space: pre;">100</text></g><g class="y2tick"><text text-anchor="end" x="442.00000000000006" y="4.199999999999999" transform="translate(0,244.26)" style="font-family: 'Open Sans', verdana, arial, sans-serif; font-size: 12px; fill: rgb(242, 245, 250); fill-opacity: 1; white-space: pre;">200</text></g><g class="y2tick"><text text-anchor="end" x="442.00000000000006" y="4.199999999999999" transform="translate(0,188.14)" style="font-family: 'Open Sans', verdana, arial, sans-serif; font-size: 12px; fill: rgb(242, 245, 250); fill-opacity: 1; white-space: pre;">300</text></g><g class="y2tick"><text text-anchor="end" x="442.00000000000006" y="4.199999999999999" transform="translate(0,132.02)" style="font-family: 'Open Sans', verdana, arial, sans-serif; font-size: 12px; fill: rgb(242, 245, 250); fill-opacity: 1; white-space: pre;">400</text></g></g><g class="overaxes-above"/></g></g><g class="polarlayer"/><g class="ternarylayer"/><g class="geolayer"/><g class="funnelarealayer"/><g class="pielayer"/><g class="treemaplayer"/><g class="sunburstlayer"/><g class="glimages"/><defs id="topdefs-bf9965"><g class="clips"/><clipPath id="legendbf9965"><rect width="135" height="124" x="0" y="0"/></clipPath></defs><g class="layer-above"><g class="imagelayer"/><g class="shapelayer"/></g><g class="infolayer"><g class="legend" pointer-events="all" transform="translate(753.2, 100)"><rect class="bg" shape-rendering="crispEdges" width="135" height="124" x="0" y="0" style="stroke: rgb(68, 68, 68); stroke-opacity: 1; fill: rgb(17, 17, 17); fill-opacity: 1; stroke-width: 0px;"/><g class="scrollbox" transform="translate(0, 0)" clip-path="url('#legendbf9965')"><g class="groups"><g class="traces" transform="translate(0, 14.5)" style="opacity: 1;"><text class="legendtext user-select-none" text-anchor="start" x="40" y="4.680000000000001" style="font-family: 'Open Sans', verdana, arial, sans-serif; font-size: 12px; fill: rgb(242, 245, 250); fill-opacity: 1; white-space: pre;">Alameda, CA</text><g class="layers" style="opacity: 1;"><g class="legendfill"/><g class="legendlines"><path class="js-line" d="M5,0h30" style="fill: none; stroke: rgb(230, 25, 75); stroke-opacity: 1; stroke-width: 2px;"/></g><g class="legendsymbols"><g class="legendpoints"/></g></g><rect class="legendtoggle" pointer-events="all" x="0" y="-9.5" width="129.484375" height="19" style="cursor: pointer; fill: rgb(0, 0, 0); fill-opacity: 0;"/></g><g class="traces" transform="translate(0, 33.5)" style="opacity: 1;"><text class="legendtext user-select-none" text-anchor="start" x="40" y="4.680000000000001" style="font-family: 'Open Sans', verdana, arial, sans-serif; font-size: 12px; fill: rgb(242, 245, 250); fill-opacity: 1; white-space: pre;">Wayne, NC</text><g class="layers" style="opacity: 1;"><g class="legendfill"/><g class="legendlines"><path class="js-line" d="M5,0h30" style="fill: none; stroke: rgb(60, 180, 75); stroke-opacity: 1; stroke-width: 2px;"/></g><g class="legendsymbols"><g class="legendpoints"/></g></g><rect class="legendtoggle" pointer-events="all" x="0" y="-9.5" width="129.484375" height="19" style="cursor: pointer; fill: rgb(0, 0, 0); fill-opacity: 0;"/></g><g class="traces" transform="translate(0, 52.5)" style="opacity: 1;"><text class="legendtext user-select-none" text-anchor="start" x="40" y="4.680000000000001" style="font-family: 'Open Sans', verdana, arial, sans-serif; font-size: 12px; fill: rgb(242, 245, 250); fill-opacity: 1; white-space: pre;">Montgomery, AR</text><g class="layers" style="opacity: 1;"><g class="legendfill"/><g class="legendlines"><path class="js-line" d="M5,0h30" style="fill: none; stroke: rgb(255, 225, 25); stroke-opacity: 1; stroke-width: 2px;"/></g><g class="legendsymbols"><g class="legendpoints"/></g></g><rect class="legendtoggle" pointer-events="all" x="0" y="-9.5" width="129.484375" height="19" style="cursor: pointer; fill: rgb(0, 0, 0); fill-opacity: 0;"/></g><g class="traces" transform="translate(0, 71.5)" style="opacity: 1;"><text class="legendtext user-select-none" text-anchor="start" x="40" y="4.680000000000001" style="font-family: 'Open Sans', verdana, arial, sans-serif; font-size: 12px; fill: rgb(242, 245, 250); fill-opacity: 1; white-space: pre;">McCurtain, OK</text><g class="layers" style="opacity: 1;"><g class="legendfill"/><g class="legendlines"><path class="js-line" d="M5,0h30" style="fill: none; stroke: rgb(67, 99, 216); stroke-opacity: 1; stroke-width: 2px;"/></g><g class="legendsymbols"><g class="legendpoints"/></g></g><rect class="legendtoggle" pointer-events="all" x="0" y="-9.5" width="129.484375" height="19" style="cursor: pointer; fill: rgb(0, 0, 0); fill-opacity: 0;"/></g><g class="traces" transform="translate(0, 90.5)" style="opacity: 1;"><text class="legendtext user-select-none" text-anchor="start" x="40" y="4.680000000000001" style="font-family: 'Open Sans', verdana, arial, sans-serif; font-size: 12px; fill: rgb(242, 245, 250); fill-opacity: 1; white-space: pre;">Barry, MO</text><g class="layers" style="opacity: 1;"><g class="legendfill"/><g class="legendlines"><path class="js-line" d="M5,0h30" style="fill: none; stroke: rgb(245, 130, 49); stroke-opacity: 1; stroke-width: 2px;"/></g><g class="legendsymbols"><g class="legendpoints"/></g></g><rect class="legendtoggle" pointer-events="all" x="0" y="-9.5" width="129.484375" height="19" style="cursor: pointer; fill: rgb(0, 0, 0); fill-opacity: 0;"/></g><g class="traces" transform="translate(0, 109.5)" style="opacity: 1;"><text class="legendtext user-select-none" text-anchor="start" x="40" y="4.680000000000001" style="font-family: 'Open Sans', verdana, arial, sans-serif; font-size: 12px; fill: rgb(242, 245, 250); fill-opacity: 1; white-space: pre;">Morgan, TN</text><g class="layers" style="opacity: 1;"><g class="legendfill"/><g class="legendlines"><path class="js-line" d="M5,0h30" style="fill: none; stroke: rgb(145, 30, 180); stroke-opacity: 1; stroke-width: 2px;"/></g><g class="legendsymbols"><g class="legendpoints"/></g></g><rect class="legendtoggle" pointer-events="all" x="0" y="-9.5" width="129.484375" height="19" style="cursor: pointer; fill: rgb(0, 0, 0); fill-opacity: 0;"/></g></g></g><rect class="scrollbar" rx="20" ry="3" width="0" height="0" x="0" y="0" style="fill: rgb(128, 139, 164); fill-opacity: 1;"/></g><g class="g-gtitle"/><g class="g-xtitle"><text class="xtitle" x="228.5" y="410.8" text-anchor="middle" style="font-family: 'Open Sans', verdana, arial, sans-serif; font-size: 14px; fill: rgb(242, 245, 250); opacity: 1; font-weight: normal; white-space: pre;">Date</text></g><g class="g-x2title"><text class="x2title" x="591.5" y="410.8" text-anchor="middle" style="font-family: 'Open Sans', verdana, arial, sans-serif; font-size: 14px; fill: rgb(242, 245, 250); opacity: 1; font-weight: normal; white-space: pre;">Date</text></g><g class="g-ytitle"><text class="ytitle" transform="rotate(-90,34.840625,235)" x="34.840625" y="235" text-anchor="middle" style="font-family: 'Open Sans', verdana, arial, sans-serif; font-size: 14px; fill: rgb(242, 245, 250); opacity: 1; font-weight: normal; white-space: pre;">Cases</text></g><g class="g-y2title"><text class="y2title" transform="rotate(-90,397.16875,235)" x="397.16875" y="235" text-anchor="middle" style="font-family: 'Open Sans', verdana, arial, sans-serif; font-size: 14px; fill: rgb(242, 245, 250); opacity: 1; font-weight: normal; white-space: pre;">Deaths</text></g><g class="annotation" data-index="0" style="opacity: 1;"><g class="annotation-text-g" transform="rotate(0,228.5,89.5)"><g class="cursor-pointer" transform="translate(204, 79)"><rect class="bg" x="0.5" y="0.5" width="48" height="20" style="stroke-width: 1px; stroke: rgb(0, 0, 0); stroke-opacity: 0; fill: rgb(0, 0, 0); fill-opacity: 0;"/><text class="annotation-text" text-anchor="middle" x="24.6875" y="16" style="font-family: 'Open Sans', verdana, arial, sans-serif; font-size: 16px; fill: rgb(242, 245, 250); fill-opacity: 1; white-space: pre;">Cases</text></g></g></g><g class="annotation" data-index="1" style="opacity: 1;"><g class="annotation-text-g" transform="rotate(0,591.5,89.5)"><g class="cursor-pointer" transform="translate(564, 79)"><rect class="bg" x="0.5" y="0.5" width="54" height="20" style="stroke-width: 1px; stroke: rgb(0, 0, 0); stroke-opacity: 0; fill: rgb(0, 0, 0); fill-opacity: 0;"/><text class="annotation-text" text-anchor="middle" x="27.359375" y="16" style="font-family: 'Open Sans', verdana, arial, sans-serif; font-size: 16px; fill: rgb(242, 245, 250); fill-opacity: 1; white-space: pre;">Deaths</text></g></g></g></g></svg>