<svg class="main-svg" xmlns="http://www.w3.org/2000/svg" xmlns:xlink="http://www.w3.org/1999/xlink" width="900" height="450" style="" viewBox="0 0 900 450"><rect x="0" y="0" width="900" height="450" style="fill: rgb(17, 17, 17); fill-opacity: 1;"/><defs id="defs-1c5848"><g class="clips"><clipPath id="clip1c5848xyplot" class="plotclip"><rect width="301.95" height="270"/></clipPath><clipPath id="clip1c5848x2y2plot" class="plotclip"><rect width="301.95" height="270"/></clipPath><clipPath class="axesclip" id="clip1c5848x"><rect x="80" y="0" width="301.95" height="450"/></clipPath><clipPath class="axesclip" id="clip1c5848y"><rect x="0" y="100" width="900" height="270"/></clipPath><clipPath class="axesclip" id="clip1c5848xy"><rect x="80" y="100" width="301.95" height="270"/></clipPath><clipPath class="axesclip" id="clip1c5848y2"><rect x="0" y="100" width="900" height="270"/></clipPath><clipPath class="axesclip" id="clip1c5848xy2"><rect x="80" y="100" width="301.95" height="270"/></clipPath><clipPath class="axesclip" id="clip1c5848x2"><rect x="449.05" y="0" width="301.95" height="450"/></clipPath><clipPath class="axesclip" id="clip1c5848x2y"><rect x="449.05" y="100" width="301.95" height="270"/></clipPath><clipPath class="axesclip" id="clip1c5848x2y2"><rect x="449.05" y="100" width="301.95" height="270"/></clipPath></g><g class="gradients"/></defs><g class="bglayer"/><g class="layer-below"><g class="imagelayer"/><g class="shapelayer"/></g><g class="cartesianlayer"><g class="subplot xy"><g class="layer-subplot"><g class="shapelayer"/><g class="imagelayer"/></g><g class="gridlayer"><g class="x"><path class="xgrid crisp" transform="translate(122.21000000000001,0)" d="M0,100v270" style="stroke: rgb(40, 52, 66); stroke-opacity: 1; stroke-width: 1px;"/><path class="xgrid crisp" transform="translate(188.23000000000002,0)" d="M0,100v270" style="stroke: rgb(40, 52, 66); stroke-opacity: 1; stroke-width: 1px;"/><path class="xgrid crisp" transform="translate(254.24,0)" d="M0,100v270" style="stroke: rgb(40, 52, 66); stroke-opacity: 1; stroke-width: 1px;"/><path class="xgrid crisp" transform="translate(321.34000000000003,0)" d="M0,100v270" style="stroke: rgb(40, 52, 66); stroke-opacity: 1; stroke-width: 1px;"/></g><g class="y"><path class="ygrid crisp" transform="translate(0,304.76)" d="M80,0h301.95" style="stroke: rgb(40, 52, 66); stroke-opacity: 1; stroke-width: 1px;"/><path class="ygrid crisp" transform="translate(0,253.03)" d="M80,0h301.95" style="stroke: rgb(40, 52, 66); stroke-opacity: 1; stroke-width: 1px;"/><path class="ygrid crisp" transform="translate(0,201.29000000000002)" d="M80,0h301.95" style="stroke: rgb(40, 52, 66); stroke-opacity: 1; stroke-width: 1px;"/><path class="ygrid crisp" transform="translate(0,149.56)" d="M80,0h301.95" style="stroke: rgb(40, 52, 66); stroke-opacity: 1; stroke-width: 1px;"/></g></g><g class="zerolinelayer"><path class="yzl zl crisp" transform="translate(0,356.5)" d="M80,0h301.95" style="stroke: rgb(40, 52, 66); stroke-opacity: 1; stroke-width: 2px;"/></g><path class="xlines-below"/><path class="ylines-below"/><g class="overlines-below"/><g class="xaxislayer-below"/><g class="yaxislayer-below"/><g class="overaxes-below"/><g class="plot" transform="translate(80, 100)" clip-path="url('#clip1c5848xyplot')"><g class="scatterlayer mlayer"><g class="trace scatter trace24f046" style="stroke-miterlimit: 2; opacity: 1;"><g class="fills"/><g class="errorbars"/><g class="lines"><path class="js-line" d="M0,256.5L73.59,255.77L74.68,255.69L138.53,248.24L139.61,247.99L149.35,246.3L150.43,246.19L161.26,244.34L162.34,244.07L164.5,243.55L165.59,243.2L183.98,237.14L185.07,236.52L187.23,235.87L188.31,234.98L198.05,230.97L199.14,230.08L204.55,228.63L205.63,227.71L206.71,227.71L207.79,226.79L209.96,225.86L211.04,225.69L213.2,225.11L214.29,225.11L215.37,225.11L216.45,222.36L217.53,222.31L218.62,221.15L221.86,218.84L222.95,218.84L224.03,217.38L225.11,217.36L230.52,213.32L231.6,213.24L232.69,213.22L233.77,211.81L240.26,209.45L241.34,208.79L245.67,207.01L246.75,207.01L251.08,205.51L252.17,205.23L258.66,204.35L259.74,203.82L268.4,201.83L269.48,201.69L291.13,198.4L292.21,197.95L301.95,195.99" style="vector-effect: non-scaling-stroke; fill: none; stroke: rgb(230, 25, 75); stroke-opacity: 1; stroke-width: 2px; opacity: 1;"/></g><g class="points"/><g class="text"/></g><g class="trace scatter trace33a305" style="stroke-miterlimit: 2; opacity: 1;"><g class="fills"/><g class="errorbars"/><g class="lines"><path class="js-line" d="M0,256.5L73.59,255.75L74.68,255.54L82.25,253.87L83.33,253.45L90.91,251.05L91.99,250.64L97.4,248.84L98.49,248.52L109.31,245.73L110.39,245.69L116.88,243.59L117.97,243.47L123.38,241.97L124.46,241.97L125.54,241.97L126.62,241.1L133.12,239.78L134.2,238.38L145.02,235.02L146.1,233.8L151.52,230.86L152.6,230.01L159.09,225.59L160.17,224.25L162.34,223.45L163.42,223.45L165.59,219.17L166.67,217.94L171,214.83L172.08,213.47L176.41,206.19L177.49,206.19L178.57,206.19L179.65,203.33L181.82,199.7L182.9,196.14L183.98,192.44L185.07,192.44L186.15,192.44L187.23,189.9L191.56,182.27L192.64,182.27L193.72,182.27L194.81,178.94L199.14,169.93L200.22,169.93L201.3,169.93L202.38,165.48L204.55,162.96L205.63,161.75L212.12,155.67L213.2,153.7L214.29,151.86L215.37,151.86L216.45,151.86L217.53,147.9L219.7,142.73L220.78,140.93L221.86,138.38L222.95,138.38L224.03,138.38L225.11,133.65L227.27,130.7L228.36,129.86L229.44,128.5L230.52,128.5L231.6,128.5L232.69,125.24L235.93,122.68L237.01,122.35L239.18,122.35L240.26,119.64L245.67,116.85L246.75,116.85L247.84,116.85L248.92,115.33L253.25,114.04L254.33,114.04L256.5,111.68L257.58,111.12L260.82,109.88L261.91,109.88L262.99,107.97L264.07,107.81L268.4,106.01L269.48,106.01L271.65,103.43L272.73,102.83L273.81,102.62L274.89,101.46L277.06,101.46L278.14,99.38L281.39,97.63L282.47,96.57L285.72,96.57L286.8,94.69L290.05,92.8L291.13,92.8L292.21,92.8L293.29,90.75L296.54,87.36L297.62,86.4L299.79,86.4L300.87,83.88L301.95,83.2" style="vector-effect: non-scaling-stroke; fill: none; stroke: rgb(60, 180, 75); stroke-opacity: 1; stroke-width: 2px; opacity: 1;"/></g><g class="points"/><g class="text"/></g><g class="trace scatter trace8b37dd" style="stroke-miterlimit: 2; opacity: 1;"><g class="fills"/><g class="errorbars"/><g class="lines"><path class="js-line" d="M0,256.5L66.02,255.9L67.1,255.71L75.76,252.41L76.84,251.66L86.58,243.9L87.66,241.86L91.99,237.86L93.07,236.47L99.57,228.76L100.65,226.28L103.9,222.99L104.98,221.79L115.8,212.49L116.88,211.73L123.38,208.17L124.46,207.65L130.95,204.54L132.04,204.16L135.28,203.21L136.36,202.94L140.69,201.44L141.78,199.01L169.91,194.78L171,194.64L191.56,192.51L192.64,192.32L221.86,187.78L222.95,187.78L228.36,187.78L229.44,186.58L237.01,185.46L238.1,185.2L250,183.62L251.08,183.4L274.89,178.33L275.98,177.97L300.87,169.43L301.95,168.93" style="vector-effect: non-scaling-stroke; fill: none; stroke: rgb(255, 225, 25); stroke-opacity: 1; stroke-width: 2px; opacity: 1;"/></g><g class="points"/><g class="text"/></g><g class="trace scatter trace3addc5" style="stroke-miterlimit: 2; opacity: 1;"><g class="fills"/><g class="errorbars"/><g class="lines"><path class="js-line" d="M0,256.5L75.76,255.76L76.84,255.66L101.73,252.09L102.81,251.75L117.97,248.2L119.05,246.94L122.3,245.96L123.38,245.61L138.53,242.81L139.61,242.59L151.52,239.86L152.6,239.43L158.01,237.1L159.09,236.73L163.42,234.48L164.5,233.34L166.67,232.22L167.75,231.03L172.08,226.81L173.16,226.13L176.41,221.78L177.49,221.78L178.57,221.78L179.65,220.26L183.98,213.3L185.07,211.66L189.4,207.31L190.48,205.1L193.72,201.67L194.81,200.58L196.97,197.87L198.05,195.62L204.55,188.43L205.63,186.27L207.79,183.01L208.88,183.01L212.12,178.48L213.2,178.31L216.45,174.53L217.53,173.27L222.95,168.88L224.03,165.16L226.19,162.76L227.27,161.59L230.52,159.74L231.6,159.18L243.51,153.91L244.59,153.5L247.84,152.45L248.92,152.45L257.58,147.32L258.66,146.34L265.15,141.99L266.24,141.16L268.4,138.98L269.48,138.36L272.73,136.14L273.81,135.31L277.06,132.87L278.14,131.62L281.39,129.37L282.47,128.1L284.63,126.51L285.72,124.75L288.96,121.7L290.05,120.35L298.7,110.14L299.79,108.44L301.95,105.81" style="vector-effect: non-scaling-stroke; fill: none; stroke: rgb(67, 99, 216); stroke-opacity: 1; stroke-width: 2px; opacity: 1;"/></g><g class="points"/><g class="text"/></g><g class="trace scatter traceaaba26" style="stroke-miterlimit: 2; opacity: 1;"><g class="fills"/><g class="errorbars"/><g class="lines"><path class="js-line" d="M0,256.5L81.17,255.78L82.25,255.7L104.98,253.98L106.06,252.28L112.55,249.98L113.64,249.35L126.62,242.51L127.71,241.88L132.04,239.3L133.12,238.6L140.69,234.79L141.78,234.48L146.1,232.96L147.19,232.56L176.41,225.07L177.49,225.07L199.14,215.6L200.22,214.94L209.96,209.91L211.04,209.43L225.11,203.15L226.19,202.9L231.6,200.44L232.69,199.99L235.93,198.8L237.01,198.25L245.67,194.35L246.75,194.02L250,193.41L251.08,193.41L253.25,192.84L254.33,192.38L267.32,187.42L268.4,186.76L287.88,177.09L288.96,175.09L290.05,175.09L291.13,173.75L292.21,173.75L293.29,172.32L295.46,172.32L296.54,170.33L297.62,169.28L298.7,169.28L301.95,165.99" style="vector-effect: non-scaling-stroke; fill: none; stroke: rgb(245, 130, 49); stroke-opacity: 1; stroke-width: 2px; opacity: 1;"/></g><g class="points"/><g class="text"/></g><g class="trace scatter tracea9b182" style="stroke-miterlimit: 2; opacity: 1;"><g class="fills"/><g class="errorbars"/><g class="lines"><path class="js-line" d="M0,256.5L68.18,255.86L69.26,255.72L85.5,252.52L86.58,252.25L107.14,247.83L108.23,247.37L115.8,243.26L116.88,242.61L128.79,236.05L129.87,236.05L133.12,234.13L134.2,233.67L142.86,229.44L143.94,228.77L152.6,223.01L153.68,222.21L164.5,212.93L165.59,211.75L173.16,202.86L174.24,201.3L176.41,198.06L177.49,195.26L196.97,145.2L198.05,144.13L200.22,140.75L201.3,137.47L205.63,130.44L206.71,129.05L207.79,127.22L208.88,127.22L211.04,123.31L212.12,121.65L219.7,112.8L220.78,112.19L224.03,106.29L225.11,92.43L227.27,85.6L228.36,84.57L229.44,83.78L230.52,81.93L232.69,78.26L233.77,77.79L234.85,77.23L235.93,75.73L239.18,73.33L240.26,72.4L244.59,68.03L245.67,67.52L248.92,65.18L250,64.82L253.25,62.78L254.33,62.36L256.5,60.81L257.58,60.32L261.91,57.01L262.99,55.02L266.24,52.86L267.32,51.04L269.48,47.03L270.56,46.52L271.65,46.01L272.73,43.97L277.06,41.34L278.14,39.74L281.39,37.05L282.47,36.54L290.05,27.9L291.13,26.71L295.46,21.65L296.54,20.29L298.7,18.01L299.79,16.33L301.95,13.5" style="vector-effect: non-scaling-stroke; fill: none; stroke: rgb(145, 30, 180); stroke-opacity: 1; stroke-width: 2px; opacity: 1;"/></g><g class="points"/><g class="text"/></g></g></g><g class="overplot"/><path class="xlines-above crisp" d="M0,0" style="fill: none;"/><path class="ylines-above crisp" d="M0,0" style="fill: none;"/><g class="overlines-above"/><g class="xaxislayer-above"><g class="xtick"><text text-anchor="middle" x="0" y="383" transform="translate(122.21000000000001,0)" style="font-family: 'Open Sans', verdana, arial, sans-serif; font-size: 12px; fill: rgb(242, 245, 250); fill-opacity: 1; white-space: pre;">Mar 2020</text></g><g class="xtick"><text text-anchor="middle" x="0" y="383" transform="translate(188.23000000000002,0)" style="font-family: 'Open Sans', verdana, arial, sans-serif; font-size: 12px; fill: rgb(242, 245, 250); fill-opacity: 1; white-space: pre;">May 2020</text></g><g class="xtick"><text text-anchor="middle" x="0" y="383" transform="translate(254.24,0)" style="font-family: 'Open Sans', verdana, arial, sans-serif; font-size: 12px; fill: rgb(242, 245, 250); fill-opacity: 1; white-space: pre;">Jul 2020</text></g><g class="xtick"><text text-anchor="middle" x="0" y="383" transform="translate(321.34000000000003,0)" style="font-family: 'Open Sans', verdana, arial, sans-serif; font-size: 12px; fill: rgb(242, 245, 250); fill-opacity: 1; white-space: pre;">Sep 2020</text></g></g><g class="yaxislayer-above"><g class="ytick"><text text-anchor="end" x="79" y="4.199999999999999" transform="translate(0,356.5)" style="font-family: 'Open Sans', verdana, arial, sans-serif; font-size: 12px; fill: rgb(242, 245, 250); fill-opacity: 1; white-space: pre;">0</text></g><g class="ytick"><text text-anchor="end" x="79" y="4.199999999999999" transform="translate(0,304.76)" style="font-family: 'Open Sans', verdana, arial, sans-serif; font-size: 12px; fill: rgb(242, 245, 250); fill-opacity: 1; white-space: pre;">20k</text></g><g class="ytick"><text text-anchor="end" x="79" y="4.199999999999999" transform="translate(0,253.03)" style="font-family: 'Open Sans', verdana, arial, sans-serif; font-size: 12px; fill: rgb(242, 245, 250); fill-opacity: 1; white-space: pre;">40k</text></g><g class="ytick"><text text-anchor="end" x="79" y="4.199999999999999" transform="translate(0,201.29000000000002)" style="font-family: 'Open Sans', verdana, arial, sans-serif; font-size: 12px; fill: rgb(242, 245, 250); fill-opacity: 1; white-space: pre;">60k</text></g><g class="ytick"><text text-anchor="end" x="79" y="4.199999999999999" transform="translate(0,149.56)" style="font-family: 'Open Sans', verdana, arial, sans-serif; font-size: 12px; fill: rgb(242, 245, 250); fill-opacity: 1; white-space: pre;">80k</text></g></g><g class="overaxes-above"/></g><g class="subplot x2y2"><g class="layer-subplot"><g class="shapelayer"/><g class="imagelayer"/></g><g class="gridlayer"><g class="x2"><path class="x2grid crisp" transform="translate(491.26,0)" d="M0,100v270" style="stroke: rgb(40, 52, 66); stroke-opacity: 1; stroke-width: 1px;"/><path class="x2grid crisp" transform="translate(557.28,0)" d="M0,100v270" style="stroke: rgb(40, 52, 66); stroke-opacity: 1; stroke-width: 1px;"/><path class="x2grid crisp" transform="translate(623.29,0)" d="M0,100v270" style="stroke: rgb(40, 52, 66); stroke-opacity: 1; stroke-width: 1px;"/><path class="x2grid crisp" transform="translate(690.39,0)" d="M0,100v270" style="stroke: rgb(40, 52, 66); stroke-opacity: 1; stroke-width: 1px;"/></g><g class="y2"><path class="y2grid crisp" transform="translate(0,302.66999999999996)" d="M449.05,0h301.95" style="stroke: rgb(40, 52, 66); stroke-opacity: 1; stroke-width: 1px;"/><path class="y2grid crisp" transform="translate(0,248.83)" d="M449.05,0h301.95" style="stroke: rgb(40, 52, 66); stroke-opacity: 1; stroke-width: 1px;"/><path class="y2grid crisp" transform="translate(0,195)" d="M449.05,0h301.95" style="stroke: rgb(40, 52, 66); stroke-opacity: 1; stroke-width: 1px;"/><path class="y2grid crisp" transform="translate(0,141.17000000000002)" d="M449.05,0h301.95" style="stroke: rgb(40, 52, 66); stroke-opacity: 1; stroke-width: 1px;"/></g></g><g class="zerolinelayer"><path class="y2zl zl crisp" transform="translate(0,356.5)" d="M449.05,0h301.95" style="stroke: rgb(40, 52, 66); stroke-opacity: 1; stroke-width: 2px;"/></g><path class="xlines-below"/><path class="ylines-below"/><g class="overlines-below"/><g class="xaxislayer-below"/><g class="yaxislayer-below"/><g class="overaxes-below"/><g class="plot" transform="translate(449.05, 100)" clip-path="url('#clip1c5848x2y2plot')"><g class="scatterlayer mlayer"><g class="trace scatter trace997a0c" style="stroke-miterlimit: 2; opacity: 1;"><g class="fills"/><g class="errorbars"/><g class="lines"><path class="js-line" d="M0,256.5L74.68,255.75L75.76,255.64L89.83,254.02L90.91,252.62L95.24,251.98L96.32,251.98L106.06,250.36L107.14,250.04L113.64,249.39L114.72,249.29L117.97,248.86L119.05,248.86L125.54,247.56L126.62,247.56L132.04,246.59L133.12,246.49L145.02,246.06L146.1,245.63L151.52,245.2L152.6,244.87L167.75,242.72L168.83,242.5L174.24,241.86L175.33,241.64L179.65,241.43L180.74,241.43L198.05,237.87L199.14,237.34L206.71,236.9L207.79,236.15L215.37,235.72L216.45,234.43L219.7,233.68L220.78,233.24L229.44,231.41L230.52,231.41L233.77,230.66L234.85,230.34L238.1,229.91L239.18,228.83L241.34,228.83L242.43,227L243.51,224.74L244.59,224.63L247.84,224.2L248.92,224.2L251.08,223.88L252.17,222.05L253.25,222.05L254.33,220.76L255.41,220.65L256.5,218.17L257.58,218.17L258.66,217.2L261.91,216.23L262.99,216.23L265.15,213.97L266.24,213.76L268.4,212.79L269.48,212.79L272.73,212.14L273.81,211.28L279.22,210.53L280.3,210.1L295.46,209.67L296.54,207.4L301.95,206.76" style="vector-effect: non-scaling-stroke; fill: none; stroke: rgb(230, 25, 75); stroke-opacity: 1; stroke-width: 2px; opacity: 1;"/></g><g class="points"/><g class="text"/></g><g class="trace scatter tracea4bda8" style="stroke-miterlimit: 2; opacity: 1;"><g class="fills"/><g class="errorbars"/><g class="lines"><path class="js-line" d="M0,256.5L67.1,255.85L68.18,255.64L77.92,254.89L79,254.56L82.25,253.49L83.33,253.05L87.66,252.09L88.75,251.12L90.91,250.69L91.99,250.15L93.07,250.15L94.16,248.53L95.24,248.43L96.32,247.35L98.49,245.84L99.57,245.73L101.73,243.9L102.81,243.8L103.9,241.32L104.98,241.32L107.14,240.46L108.23,239.7L110.39,239.17L111.47,237.01L114.72,235.83L115.8,234.54L117.97,234.43L119.05,233.14L123.38,230.45L124.46,230.45L125.54,230.45L126.62,228.4L130.95,225.28L132.04,225.28L134.2,225.06L135.28,223.88L137.45,222.8L138.53,221.72L141.78,221.72L142.86,219.68L148.27,218.28L149.35,218.17L153.68,215.26L154.76,215.26L156.93,215.16L158.01,213.97L162.34,212.36L163.42,212.36L165.59,210.1L166.67,209.99L172.08,209.13L173.16,207.3L177.49,204.93L178.57,204.93L179.65,204.17L180.74,202.02L183.98,198.68L185.07,198.68L186.15,198.68L187.23,197.28L188.31,196.96L189.4,194.38L191.56,193.3L192.64,193.3L195.89,193.09L196.97,190.07L198.05,187.92L199.14,187.92L201.3,187.92L202.38,184.26L203.46,184.15L204.55,183.07L207.79,181.67L208.88,181.67L209.96,177.15L211.04,177.04L213.2,173.6L214.29,170.48L216.45,170.48L217.53,168.21L218.62,167.78L219.7,164.66L220.78,161.86L221.86,161.65L224.03,161.65L225.11,158.31L228.36,157.23L229.44,156.69L231.6,156.69L232.69,151.85L235.93,149.16L237.01,148.08L239.18,148.08L240.26,146.79L242.43,145.28L243.51,143.13L244.59,141.62L245.67,141.62L247.84,141.62L248.92,140.76L252.17,137.75L253.25,137.75L254.33,137.75L255.41,136.13L260.82,132.36L261.91,132.36L265.15,130.21L266.24,129.56L267.32,128.49L268.4,128.49L269.48,128.49L270.56,126.66L272.73,124.5L273.81,124.5L275.98,123.96L277.06,123.96L280.3,122.24L281.39,122.13L283.55,121.27L284.63,121.27L286.8,121.06L287.88,120.41L290.05,119.87L291.13,119.87L295.46,119.23L296.54,118.8L299.79,118.8L300.87,117.07L301.95,116.21" style="vector-effect: non-scaling-stroke; fill: none; stroke: rgb(60, 180, 75); stroke-opacity: 1; stroke-width: 2px; opacity: 1;"/></g><g class="points"/><g class="text"/></g><g class="trace scatter trace2d6e59" style="stroke-miterlimit: 2; opacity: 1;"><g class="fills"/><g class="errorbars"/><g class="lines"><path class="js-line" d="M0,256.5L72.51,255.75L73.59,255.53L77.92,252.3L79,252.3L81.17,251.33L82.25,249.07L85.5,244.76L86.58,241.75L88.75,238.95L89.83,236.26L97.4,210.42L98.49,203.31L102.81,184.36L103.9,181.13L104.98,177.8L106.06,170.15L111.47,149.16L112.55,145.82L116.88,130.64L117.97,126.55L121.21,118.47L122.3,113.63L132.04,93.71L133.12,93.06L136.36,89.73L137.45,88.11L140.69,82.62L141.78,78.85L146.1,74.01L147.19,73.36L150.43,71.32L151.52,70.78L156.93,66.69L158.01,66.47L160.17,63.99L161.26,63.67L163.42,61.95L164.5,61.73L167.75,60.01L168.83,58.5L171,57.21L172.08,57.21L174.24,56.46L175.33,55.49L180.74,53.23L181.82,52.26L187.23,49.68L188.31,49.46L193.72,46.98L194.81,46.98L198.05,46.45L199.14,46.01L203.46,45.37L204.55,44.29L218.62,40.52L219.7,40.52L226.19,40.52L227.27,37.51L231.6,36.54L232.69,35.46L238.1,34.28L239.18,33.85L250,31.59L251.08,31.05L256.5,29.43L257.58,28.79L260.82,28.25L261.91,28.03L265.15,27.5L266.24,26.31L271.65,25.13L272.73,24.59L277.06,23.3L278.14,22.65L281.39,22.01L282.47,21.57L295.46,16.19L296.54,15.33L301.95,13.5" style="vector-effect: non-scaling-stroke; fill: none; stroke: rgb(255, 225, 25); stroke-opacity: 1; stroke-width: 2px; opacity: 1;"/></g><g class="points"/><g class="text"/></g><g class="trace scatter trace0a5fef" style="stroke-miterlimit: 2; opacity: 1;"><g class="fills"/><g class="errorbars"/><g class="lines"><path class="js-line" d="M0,256.5L79,255.75L80.09,255.53L107.14,249.93L108.23,249.18L112.55,248.21L113.64,247.56L119.05,245.41L120.13,245.3L124.46,243.58L125.54,243.47L129.87,242.29L130.95,241.53L136.36,241L137.45,239.81L143.94,238.52L145.02,238.41L148.27,237.55L149.35,237.34L151.52,236.69L152.6,236.15L160.17,235.07L161.26,234.43L180.74,230.88L181.82,229.8L187.23,227.22L188.31,227.22L190.48,226.68L191.56,226.03L199.14,222.15L200.22,221.08L202.38,220.11L203.46,220.11L205.63,217.85L206.71,217.2L207.79,215.8L208.88,215.8L212.12,212.36L213.2,211.07L215.37,208.59L216.45,208.37L218.62,207.3L219.7,206.01L224.03,202.24L225.11,202.24L231.6,195.78L232.69,195.78L233.77,195.13L234.85,193.41L237.01,192.01L238.1,191.25L247.84,187.81L248.92,187.7L254.33,185.33L255.41,185.23L262.99,181.89L264.07,181.89L269.48,179.95L270.56,179.95L272.73,178.87L273.81,178.44L280.3,176.07L281.39,175.64L284.63,174.35L285.72,174.35L288.96,173.38L290.05,172.74L293.29,172.09L294.37,171.88L297.62,169.51L298.7,168.97L301.95,168.75" style="vector-effect: non-scaling-stroke; fill: none; stroke: rgb(67, 99, 216); stroke-opacity: 1; stroke-width: 2px; opacity: 1;"/></g><g class="points"/><g class="text"/></g><g class="trace scatter trace5a80b1" style="stroke-miterlimit: 2; opacity: 1;"><g class="fills"/><g class="errorbars"/><g class="lines"><path class="js-line" d="M0,256.5L76.84,255.75L77.92,255.21L83.33,254.56L84.42,253.81L89.83,252.19L90.91,251.55L96.32,247.89L97.4,246.27L102.81,237.44L103.9,236.26L104.98,235.72L106.06,234L114.72,219.68L115.8,217.53L123.38,208.16L124.46,207.62L128.79,204.28L129.87,202.45L132.04,200.08L133.12,199.01L135.28,197.39L136.36,195.67L139.61,191.25L140.69,190.5L141.78,190.18L142.86,188.99L145.02,187.49L146.1,185.76L149.35,183.18L150.43,182.64L155.85,179.41L156.93,178.98L165.59,175.64L166.67,175.54L169.91,174.24L171,173.92L173.16,172.95L174.24,172.95L176.41,171.98L177.49,171.98L200.22,170.26L201.3,170.26L204.55,170.26L205.63,169.29L216.45,166.6L217.53,166.6L221.86,165.52L222.95,165.42L234.85,162.51L235.93,162.08L251.08,160.03L252.17,159.49L270.56,156.16L271.65,156.16L275.98,155.08L277.06,154.86L283.55,154.11L284.63,153.9L292.21,153.68L293.29,152.5L295.46,152.5L296.54,150.88L301.95,149.37" style="vector-effect: non-scaling-stroke; fill: none; stroke: rgb(245, 130, 49); stroke-opacity: 1; stroke-width: 2px; opacity: 1;"/></g><g class="points"/><g class="text"/></g><g class="trace scatter trace5cf03b" style="stroke-miterlimit: 2; opacity: 1;"><g class="fills"/><g class="errorbars"/><g class="lines"><path class="js-line" d="M0,256.5L70.35,255.75L71.43,255.53L89.83,253.05L90.91,251.98L93.07,251.12L94.16,250.58L96.32,250.04L97.4,250.04L107.14,245.84L108.23,245.3L112.55,244.23L113.64,243.47L115.8,243.04L116.88,241.97L119.05,241.1L120.13,240.89L124.46,238.84L125.54,238.2L133.12,233.89L134.2,233.78L136.36,233.57L137.45,232.71L142.86,231.84L143.94,230.12L149.35,228.08L150.43,228.08L153.68,226.68L154.76,226.35L159.09,224.95L160.17,223.99L163.42,222.8L164.5,222.69L167.75,221.19L168.83,220.54L171,218.71L172.08,218.6L173.16,218.49L174.24,216.34L178.57,213.97L179.65,213.97L181.82,212.36L182.9,210.63L186.15,208.16L187.23,207.94L188.31,207.3L189.4,205.14L191.56,202.56L192.64,201.16L194.81,199.98L195.89,199.87L196.97,198.68L198.05,195.45L200.22,193.95L201.3,193.95L203.46,193.95L204.55,190.93L205.63,190.93L206.71,188.67L207.79,187.49L208.88,187.49L209.96,186.52L211.04,184.15L215.37,178.34L216.45,177.47L217.53,177.04L218.62,175.54L221.86,170.15L222.95,168.65L225.11,167.57L226.19,167.03L231.6,161.65L232.69,161.43L237.01,155.51L238.1,154.97L240.26,154.54L241.34,153.25L244.59,149.8L245.67,148.62L247.84,147.76L248.92,147.65L253.25,144.21L254.33,143.99L256.5,143.45L257.58,142.81L258.66,142.48L259.74,140.98L261.91,139.68L262.99,139.68L264.07,139.04L265.15,137.42L267.32,136.13L268.4,135.92L277.06,132.9L278.14,132.9L282.47,131.07L283.55,130.85L287.88,129.46L288.96,129.02L295.46,126.76L296.54,126.12L301.95,124.18" style="vector-effect: non-scaling-stroke; fill: none; stroke: rgb(145, 30, 180); stroke-opacity: 1; stroke-width: 2px; opacity: 1;"/></g><g class="points"/><g class="text"/></g></g></g><g class="overplot"/><path class="xlines-above crisp" d="M0,0" style="fill: none;"/><path class="ylines-above crisp" d="M0,0" style="fill: none;"/><g class="overlines-above"/><g class="xaxislayer-above"><g class="x2tick"><text text-anchor="middle" x="0" y="383" transform="translate(491.26,0)" style="font-family: 'Open Sans', verdana, arial, sans-serif; font-size: 12px; fill: rgb(242, 245, 250); fill-opacity: 1; white-space: pre;">Mar 2020</text></g><g class="x2tick"><text text-anchor="middle" x="0" y="383" transform="translate(557.28,0)" style="font-family: 'Open Sans', verdana, arial, sans-serif; font-size: 12px; fill: rgb(242, 245, 250); fill-opacity: 1; white-space: pre;">May 2020</text></g><g class="x2tick"><text text-anchor="middle" x="0" y="383" transform="translate(623.29,0)" style="font-family: 'Open Sans', verdana, arial, sans-serif; font-size: 12px; fill: rgb(242, 245, 250); fill-opacity: 1; white-space: pre;">Jul 2020</text></g><g class="x2tick"><text text-anchor="middle" x="0" y="383" transform="translate(690.39,0)" style="font-family: 'Open Sans', verdana, arial, sans-serif; font-size: 12px; fill: rgb(242, 245, 250); fill-opacity: 1; white-space: pre;">Sep 2020</text></g></g><g class="yaxislayer-above"><g class="y2tick"><text text-anchor="end" x="448.05" y="4.199999999999999" transform="translate(0,356.5)" style="font-family: 'Open Sans', verdana, arial, sans-serif; font-size: 12px; fill: rgb(242, 245, 250); fill-opacity: 1; white-space: pre;">0</text></g><g class="y2tick"><text text-anchor="end" x="448.05" y="4.199999999999999" transform="translate(0,302.66999999999996)" style="font-family: 'Open Sans', verdana, arial, sans-serif; font-size: 12px; fill: rgb(242, 245, 250); fill-opacity: 1; white-space: pre;">500</text></g><g class="y2tick"><text text-anchor="end" x="448.05" y="4.199999999999999" transform="translate(0,248.83)" style="font-family: 'Open Sans', verdana, arial, sans-serif; font-size: 12px; fill: rgb(242, 245, 250); fill-opacity: 1; white-space: pre;">1000</text></g><g class="y2tick"><text text-anchor="end" x="448.05" y="4.199999999999999" transform="translate(0,195)" style="font-family: 'Open Sans', verdana, arial, sans-serif; font-size: 12px; fill: rgb(242, 245, 250); fill-opacity: 1; white-space: pre;">1500</text></g><g class="y2tick"><text text-anchor="end" x="448.05" y="4.199999999999999" transform="translate(0,141.17000000000002)" style="font-family: 'Open Sans', verdana, arial, sans-serif; font-size: 12px; fill: rgb(242, 245, 250); fill-opacity: 1; white-space: pre;">2000</text></g></g><g class="overaxes-above"/></g></g><g class="polarlayer"/><g class="ternarylayer"/><g class="geolayer"/><g class="funnelarealayer"/><g class="pielayer"/><g class="treemaplayer"/><g class="sunburstlayer"/><g class="glimages"/><defs id="topdefs-1c5848"><g class="clips"/><clipPath id="legend1c5848"><rect width="124" height="124" x="0" y="0"/></clipPath></defs><g class="layer-above"><g class="imagelayer"/><g class="shapelayer"/></g><g class="infolayer"><g class="legend" pointer-events="all" transform="translate(764.42, 100)"><rect class="bg" shape-rendering="crispEdges" width="124" height="124" x="0" y="0" style="stroke: rgb(68, 68, 68); stroke-opacity: 1; fill: rgb(17, 17, 17); fill-opacity: 1; stroke-width: 0px;"/><g class="scrollbox" transform="translate(0, 0)" clip-path="url('#legend1c5848')"><g class="groups"><g class="traces" transform="translate(0, 14.5)" style="opacity: 1;"><text class="legendtext user-select-none" text-anchor="start" x="40" y="4.680000000000001" style="font-family: 'Open Sans', verdana, arial, sans-serif; font-size: 12px; fill: rgb(242, 245, 250); fill-opacity: 1; white-space: pre;">Alameda, CA</text><g class="layers" style="opacity: 1;"><g class="legendfill"/><g class="legendlines"><path class="js-line" d="M5,0h30" style="fill: none; stroke: rgb(230, 25, 75); stroke-opacity: 1; stroke-width: 2px;"/></g><g class="legendsymbols"><g class="legendpoints"/></g></g><rect class="legendtoggle" pointer-events="all" x="0" y="-9.5" width="118.703125" height="19" style="cursor: pointer; fill: rgb(0, 0, 0); fill-opacity: 0;"/></g><g class="traces" transform="translate(0, 33.5)" style="opacity: 1;"><text class="legendtext user-select-none" text-anchor="start" x="40" y="4.680000000000001" style="font-family: 'Open Sans', verdana, arial, sans-serif; font-size: 12px; fill: rgb(242, 245, 250); fill-opacity: 1; white-space: pre;">Riverside, CA</text><g class="layers" style="opacity: 1;"><g class="legendfill"/><g class="legendlines"><path class="js-line" d="M5,0h30" style="fill: none; stroke: rgb(60, 180, 75); stroke-opacity: 1; stroke-width: 2px;"/></g><g class="legendsymbols"><g class="legendpoints"/></g></g><rect class="legendtoggle" pointer-events="all" x="0" y="-9.5" width="118.703125" height="19" style="cursor: pointer; fill: rgb(0, 0, 0); fill-opacity: 0;"/></g><g class="traces" transform="translate(0, 52.5)" style="opacity: 1;"><text class="legendtext user-select-none" text-anchor="start" x="40" y="4.680000000000001" style="font-family: 'Open Sans', verdana, arial, sans-serif; font-size: 12px; fill: rgb(242, 245, 250); fill-opacity: 1; white-space: pre;">Middlesex, MA</text><g class="layers" style="opacity: 1;"><g class="legendfill"/><g class="legendlines"><path class="js-line" d="M5,0h30" style="fill: none; stroke: rgb(255, 225, 25); stroke-opacity: 1; stroke-width: 2px;"/></g><g class="legendsymbols"><g class="legendpoints"/></g></g><rect class="legendtoggle" pointer-events="all" x="0" y="-9.5" width="118.703125" height="19" style="cursor: pointer; fill: rgb(0, 0, 0); fill-opacity: 0;"/></g><g class="traces" transform="translate(0, 71.5)" style="opacity: 1;"><text class="legendtext user-select-none" text-anchor="start" x="40" y="4.680000000000001" style="font-family: 'Open Sans', verdana, arial, sans-serif; font-size: 12px; fill: rgb(242, 245, 250); fill-opacity: 1; white-space: pre;">Tarrant, TX</text><g class="layers" style="opacity: 1;"><g class="legendfill"/><g class="legendlines"><path class="js-line" d="M5,0h30" style="fill: none; stroke: rgb(67, 99, 216); stroke-opacity: 1; stroke-width: 2px;"/></g><g class="legendsymbols"><g class="legendpoints"/></g></g><rect class="legendtoggle" pointer-events="all" x="0" y="-9.5" width="118.703125" height="19" style="cursor: pointer; fill: rgb(0, 0, 0); fill-opacity: 0;"/></g><g class="traces" transform="translate(0, 90.5)" style="opacity: 1;"><text class="legendtext user-select-none" text-anchor="start" x="40" y="4.680000000000001" style="font-family: 'Open Sans', verdana, arial, sans-serif; font-size: 12px; fill: rgb(242, 245, 250); fill-opacity: 1; white-space: pre;">Hennepin, MN</text><g class="layers" style="opacity: 1;"><g class="legendfill"/><g class="legendlines"><path class="js-line" d="M5,0h30" style="fill: none; stroke: rgb(245, 130, 49); stroke-opacity: 1; stroke-width: 2px;"/></g><g class="legendsymbols"><g class="legendpoints"/></g></g><rect class="legendtoggle" pointer-events="all" x="0" y="-9.5" width="118.703125" height="19" style="cursor: pointer; fill: rgb(0, 0, 0); fill-opacity: 0;"/></g><g class="traces" transform="translate(0, 109.5)" style="opacity: 1;"><text class="legendtext user-select-none" text-anchor="start" x="40" y="4.680000000000001" style="font-family: 'Open Sans', verdana, arial, sans-serif; font-size: 12px; fill: rgb(242, 245, 250); fill-opacity: 1; white-space: pre;">Dallas, TX</text><g class="layers" style="opacity: 1;"><g class="legendfill"/><g class="legendlines"><path class="js-line" d="M5,0h30" style="fill: none; stroke: rgb(145, 30, 180); stroke-opacity: 1; stroke-width: 2px;"/></g><g class="legendsymbols"><g class="legendpoints"/></g></g><rect class="legendtoggle" pointer-events="all" x="0" y="-9.5" width="118.703125" height="19" style="cursor: pointer; fill: rgb(0, 0, 0); fill-opacity: 0;"/></g></g></g><rect class="scrollbar" rx="20" ry="3" width="0" height="0" x="0" y="0" style="fill: rgb(128, 139, 164); fill-opacity: 1;"/></g><g class="g-gtitle"/><g class="g-xtitle"><text class="xtitle" x="230.975" y="410.8" text-anchor="middle" style="font-family: 'Open Sans', verdana, arial, sans-serif; font-size: 14px; fill: rgb(242, 245, 250); opacity: 1; font-weight: normal; white-space: pre;">Date</text></g><g class="g-x2title"><text class="x2title" x="600.025" y="410.8" text-anchor="middle" style="font-family: 'Open Sans', verdana, arial, sans-serif; font-size: 14px; fill: rgb(242, 245, 250); opacity: 1; font-weight: normal; white-space: pre;">Date</text></g><g class="g-ytitle"><text class="ytitle" transform="rotate(-90,34.840625,235)" x="34.840625" y="235" text-anchor="middle" style="font-family: 'Open Sans', verdana, arial, sans-serif; font-size: 14px; fill: rgb(242, 245, 250); opacity: 1; font-weight: normal; white-space: pre;">Cases</text></g><g class="g-y2title"><text class="y2title" transform="rotate(-90,396.54375,235)" x="396.54375" y="235" text-anchor="middle" style="font-family: 'Open Sans', verdana, arial, sans-serif; font-size: 14px; fill: rgb(242, 245, 250); opacity: 1; font-weight: normal; white-space: pre;">Deaths</text></g><g class="annotation" data-index="0" style="opacity: 1;"><g class="annotation-text-g" transform="rotate(0,230.975,89.5)"><g class="cursor-pointer" transform="translate(206, 79)"><rect class="bg" x="0.5" y="0.5" width="48" height="20" style="stroke-width: 1px; stroke: rgb(0, 0, 0); stroke-opacity: 0; fill: rgb(0, 0, 0); fill-opacity: 0;"/><text class="annotation-text" text-anchor="middle" x="24.6875" y="16" style="font-family: 'Open Sans', verdana, arial, sans-serif; font-size: 16px; fill: rgb(242, 245, 250); fill-opacity: 1; white-space: pre;">Cases</text></g></g></g><g class="annotation" data-index="1" style="opacity: 1;"><g class="annotation-text-g" transform="rotate(0,600.025,89.5)"><g class="cursor-pointer" transform="translate(573, 79)"><rect class="bg" x="0.5" y="0.5" width="54" height="20" style="stroke-width: 1px; stroke: rgb(0, 0, 0); stroke-opacity: 0; fill: rgb(0, 0, 0); fill-opacity: 0;"/><text class="annotation-text" text-anchor="middle" x="27.359375" y="16" style="font-family: 'Open Sans', verdana, arial, sans-serif; font-size: 16px; fill: rgb(242, 245, 250); fill-opacity: 1; white-space: pre;">Deaths</text></g></g></g></g></svg>