<svg class="main-svg" xmlns="http://www.w3.org/2000/svg" xmlns:xlink="http://www.w3.org/1999/xlink" width="900" height="450" style="" viewBox="0 0 900 450"><rect x="0" y="0" width="900" height="450" style="fill: rgb(17, 17, 17); fill-opacity: 1;"/><defs id="defs-ec12c2"><g class="clips"><clipPath id="clipec12c2xyplot" class="plotclip"><rect width="302.85" height="270"/></clipPath><clipPath id="clipec12c2x2y2plot" class="plotclip"><rect width="302.84999999999997" height="270"/></clipPath><clipPath class="axesclip" id="clipec12c2x"><rect x="80" y="0" width="302.85" height="450"/></clipPath><clipPath class="axesclip" id="clipec12c2y"><rect x="0" y="100" width="900" height="270"/></clipPath><clipPath class="axesclip" id="clipec12c2xy"><rect x="80" y="100" width="302.85" height="270"/></clipPath><clipPath class="axesclip" id="clipec12c2y2"><rect x="0" y="100" width="900" height="270"/></clipPath><clipPath class="axesclip" id="clipec12c2xy2"><rect x="80" y="100" width="302.85" height="270"/></clipPath><clipPath class="axesclip" id="clipec12c2x2"><rect x="450.15000000000003" y="0" width="302.84999999999997" height="450"/></clipPath><clipPath class="axesclip" id="clipec12c2x2y"><rect x="450.15000000000003" y="100" width="302.84999999999997" height="270"/></clipPath><clipPath class="axesclip" id="clipec12c2x2y2"><rect x="450.15000000000003" y="100" width="302.84999999999997" height="270"/></clipPath></g><g class="gradients"/></defs><g class="bglayer"/><g class="layer-below"><g class="imagelayer"/><g class="shapelayer"/></g><g class="cartesianlayer"><g class="subplot xy"><g class="layer-subplot"><g class="shapelayer"/><g class="imagelayer"/></g><g class="gridlayer"><g class="x"><path class="xgrid crisp" transform="translate(121.88,0)" d="M0,100v270" style="stroke: rgb(40, 52, 66); stroke-opacity: 1; stroke-width: 1px;"/><path class="xgrid crisp" transform="translate(187.39,0)" d="M0,100v270" style="stroke: rgb(40, 52, 66); stroke-opacity: 1; stroke-width: 1px;"/><path class="xgrid crisp" transform="translate(252.9,0)" d="M0,100v270" style="stroke: rgb(40, 52, 66); stroke-opacity: 1; stroke-width: 1px;"/><path class="xgrid crisp" transform="translate(319.49,0)" d="M0,100v270" style="stroke: rgb(40, 52, 66); stroke-opacity: 1; stroke-width: 1px;"/></g><g class="y"><path class="ygrid crisp" transform="translate(0,305.4)" d="M80,0h302.85" style="stroke: rgb(40, 52, 66); stroke-opacity: 1; stroke-width: 1px;"/><path class="ygrid crisp" transform="translate(0,254.29)" d="M80,0h302.85" style="stroke: rgb(40, 52, 66); stroke-opacity: 1; stroke-width: 1px;"/><path class="ygrid crisp" transform="translate(0,203.19)" d="M80,0h302.85" style="stroke: rgb(40, 52, 66); stroke-opacity: 1; stroke-width: 1px;"/><path class="ygrid crisp" transform="translate(0,152.07999999999998)" d="M80,0h302.85" style="stroke: rgb(40, 52, 66); stroke-opacity: 1; stroke-width: 1px;"/></g></g><g class="zerolinelayer"><path class="yzl zl crisp" transform="translate(0,356.5)" d="M80,0h302.85" style="stroke: rgb(40, 52, 66); stroke-opacity: 1; stroke-width: 2px;"/></g><path class="xlines-below"/><path class="ylines-below"/><g class="overlines-below"/><g class="xaxislayer-below"/><g class="yaxislayer-below"/><g class="overaxes-below"/><g class="plot" transform="translate(80, 100)" clip-path="url('#clipec12c2xyplot')"><g class="scatterlayer mlayer"><g class="trace scatter tracea89343" style="stroke-miterlimit: 2; opacity: 1;"><g class="fills"/><g class="errorbars"/><g class="lines"><path class="js-line" d="M0,256.5L63.36,255.84L64.44,255.42L73.03,253.61L74.1,253.3L88.06,247.46L89.14,247.46L93.43,245.11L94.51,244.6L97.73,243.42L98.8,242.7L104.17,240.83L105.25,240.47L113.84,236.91L114.91,236.46L119.21,234.7L120.28,234.24L133.17,227.13L134.24,225.98L138.54,222.88L139.61,221.85L148.2,216.18L149.28,215.77L151.42,214.4L152.5,213.41L157.87,210.17L158.94,209.1L162.16,207.39L163.24,205.32L168.61,199.18L169.68,198.55L170.76,197.61L171.83,195.54L175.05,190.35L176.13,189.49L177.2,186.44L178.27,186.11L179.35,186.11L180.42,182.45L183.64,177.54L184.72,177.54L187.94,169.85L189.01,168.32L192.23,162.09L193.31,161.9L194.38,160.6L195.46,157.94L198.68,150.92L199.75,150.51L200.83,149.82L201.9,147.82L202.97,146.39L204.05,142.73L205.12,142.73L206.2,139.12L207.27,138.72L208.34,135.42L209.42,134.78L210.49,132.46L213.71,132.46L214.79,121.6L215.86,121.4L216.94,116.84L219.08,111.07L220.16,107.71L221.23,107.71L222.3,101.93L223.38,101.86L224.45,98.72L227.67,88.17L228.75,85.88L230.9,85.48L231.97,79.94L233.04,78.81L234.12,76.4L235.19,74.09L236.27,74.09L243.78,60.97L244.86,60.97L245.93,58.73L247.01,58.73L249.15,55.05L250.23,53.93L251.3,53.75L252.38,52.18L256.67,50.43L257.74,48.36L260.97,45.53L262.04,44.44L269.56,38.56L270.63,37.95L279.22,32.28L280.3,32.23L282.45,30.12L283.52,30.12L285.67,28.32L286.74,27.86L288.89,26.95L289.96,25.14L298.55,17.42L299.63,17.42L301.78,14.92L302.85,13.5" style="vector-effect: non-scaling-stroke; fill: none; stroke: rgb(230, 25, 75); stroke-opacity: 1; stroke-width: 2px; opacity: 1;"/></g><g class="points"/><g class="text"/></g><g class="trace scatter trace1457dc" style="stroke-miterlimit: 2; opacity: 1;"><g class="fills"/><g class="errorbars"/><g class="lines"><path class="js-line" d="M0,256.5L71.95,255.82L73.03,255.51L78.4,253.53L79.47,252.71L81.62,251.49L82.69,250.77L86.99,248.61L88.06,248.04L92.36,245.97L93.43,245.12L97.73,242.95L98.8,242.61L103.1,239.81L104.17,239.35L107.39,237.9L108.47,237.04L121.35,232.34L122.43,231.68L131.02,227.98L132.09,227.33L156.79,217.64L157.87,217.35L165.39,214.06L166.46,213.45L170.76,211.39L171.83,211.1L181.5,208.35L182.57,207.61L202.97,201.16L204.05,200.41L218.01,194.89L219.08,194.16L224.45,192.52L225.53,192.24L258.82,179.7L259.89,179.34L262.04,178.75L263.11,177.8L270.63,174.8L271.71,174.2L287.81,166.43L288.89,165.62L300.7,158.66L301.78,157.9L302.85,156.7" style="vector-effect: non-scaling-stroke; fill: none; stroke: rgb(60, 180, 75); stroke-opacity: 1; stroke-width: 2px; opacity: 1;"/></g><g class="points"/><g class="text"/></g><g class="trace scatter trace2d9614" style="stroke-miterlimit: 2; opacity: 1;"><g class="fills"/><g class="errorbars"/><g class="lines"><path class="js-line" d="M0,256.5L76.25,255.92L77.32,255.73L97.73,254.24L98.8,254.17L117.06,253.69L118.13,253.68L152.5,252.98L153.57,252.92L171.83,251.34L172.9,251.05L190.09,247.3L191.16,246.1L194.38,244.41L195.46,242.52L196.53,242.35L197.6,241.36L199.75,240.33L200.83,240.19L201.9,239.76L202.97,238.39L209.42,235.41L210.49,234.46L214.79,233.24L215.86,233.11L224.45,230.76L225.53,229.99L229.82,228.36L230.9,228.14L235.19,226.53L236.27,226.39L241.64,224.87L242.71,224.55L259.89,221.87L260.97,221.76L271.71,219.27L272.78,218.59L278.15,216.82L279.22,216.47L293.18,211.02L294.26,210.48L296.41,209.71L297.48,209.26L302.85,206.01" style="vector-effect: non-scaling-stroke; fill: none; stroke: rgb(255, 225, 25); stroke-opacity: 1; stroke-width: 2px; opacity: 1;"/></g><g class="points"/><g class="text"/></g><g class="trace scatter trace4b3dc9" style="stroke-miterlimit: 2; opacity: 1;"><g class="fills"/><g class="errorbars"/><g class="lines"><path class="js-line" d="M0,256.5L66.58,255.79L67.66,255.6L75.18,252.61L76.25,251.99L86.99,246.3L88.06,246.3L90.21,246.3L91.28,242.78L98.8,237.86L99.88,235.75L104.17,232.87L105.25,232.08L117.06,223.06L118.13,222.64L132.09,215.22L133.17,214.85L146.06,209.22L147.13,209.11L180.42,200.7L181.5,200.18L184.72,198.78L185.79,198.43L196.53,192.35L197.6,191.36L201.9,188.11L202.97,187.52L216.94,181.1L218.01,180.81L223.38,178.72L224.45,178.35L230.9,176.24L231.97,175.68L238.41,173.75L239.49,173.29L247.01,171.34L248.08,171.04L262.04,165.13L263.11,164.52L272.78,158.67L273.85,158.67L277.08,155.81L278.15,155.22L283.52,149.94L284.59,148.45L288.89,143.77L289.96,142.62L295.33,136.24L296.41,134.47L302.85,120.43" style="vector-effect: non-scaling-stroke; fill: none; stroke: rgb(67, 99, 216); stroke-opacity: 1; stroke-width: 2px; opacity: 1;"/></g><g class="points"/><g class="text"/></g><g class="trace scatter tracec4d71f" style="stroke-miterlimit: 2; opacity: 1;"><g class="fills"/><g class="errorbars"/><g class="lines"><path class="js-line" d="M0,256.5L93.43,255.78L94.51,255.69L138.54,254.34L139.61,254.33L170.76,253.6L171.83,253.51L192.23,251.89L193.31,251.69L210.49,249.53L211.57,249.36L242.71,244.29L243.78,244.17L259.89,242.53L260.97,242.42L278.15,240.08L279.22,239.73L287.81,237.17L288.89,236.67L293.18,235.24L294.26,234.73L299.63,232.82L300.7,232.31L302.85,230.84" style="vector-effect: non-scaling-stroke; fill: none; stroke: rgb(245, 130, 49); stroke-opacity: 1; stroke-width: 2px; opacity: 1;"/></g><g class="points"/><g class="text"/></g><g class="trace scatter traceba2930" style="stroke-miterlimit: 2; opacity: 1;"><g class="fills"/><g class="errorbars"/><g class="lines"><path class="js-line" d="M0,256.5L75.18,255.9L76.25,255.74L84.84,254.43L85.91,254.18L89.14,253.47L90.21,252.9L106.32,249.96L107.39,249.55L111.69,247.73L112.76,247.14L124.58,241.88L125.65,241.82L127.8,240.64L128.87,240.12L132.09,239.73L133.17,239.73L135.32,238.14L136.39,237.74L140.69,237.11L141.76,236.02L147.13,234.87L148.2,233.81L150.35,231.64L151.42,231.2L153.57,230.29L154.65,230.29L160.02,225.37L161.09,225.37L162.16,225.37L163.24,224.03L165.39,220.39L166.46,219.23L168.61,218.63L169.68,218.63L172.9,212.32L173.98,210.29L175.05,209.21L176.13,209.21L177.2,209.21L178.27,205.3L182.57,198.47L183.64,198.47L184.72,198.47L185.79,195.77L187.94,191.78L189.01,190.27L190.09,188.19L191.16,188.19L192.23,188.19L193.31,186.02L194.38,183.73L195.46,178.79L197.6,172.59L198.68,172.59L199.75,172.59L200.83,169.28L202.97,163.74L204.05,162.05L205.12,159.87L206.2,159.87L207.27,159.87L208.34,156.9L211.57,150.88L212.64,149.44L214.79,149.44L215.86,145.48L216.94,138.46L218.01,137.5L220.16,132.78L221.23,132.78L222.3,132.78L223.38,129.24L225.53,125.31L226.6,123.4L228.75,122.43L229.82,122.43L231.97,117.4L233.04,116.75L236.27,114.59L237.34,114.59L242.71,106.49L243.78,106.49L245.93,106.49L247.01,105.07L249.15,102.75L250.23,102.02L252.38,102.02L253.45,100.43L257.74,97.07L258.82,97.07L259.89,97.07L260.97,96.17L264.19,94.02L265.26,94.02L272.78,88.89L273.85,88.89L274.93,88.89L276,87.96L278.15,86.49L279.22,85.63L281.37,84.85L282.45,84.85L285.67,82.59L286.74,82.01L288.89,81.52L289.96,81.52L295.33,77.69L296.41,77.69L297.48,77.69L298.55,76.72L299.63,75.28L300.7,75.28L302.85,74.04" style="vector-effect: non-scaling-stroke; fill: none; stroke: rgb(145, 30, 180); stroke-opacity: 1; stroke-width: 2px; opacity: 1;"/></g><g class="points"/><g class="text"/></g></g></g><g class="overplot"/><path class="xlines-above crisp" d="M0,0" style="fill: none;"/><path class="ylines-above crisp" d="M0,0" style="fill: none;"/><g class="overlines-above"/><g class="xaxislayer-above"><g class="xtick"><text text-anchor="middle" x="0" y="383" transform="translate(121.88,0)" style="font-family: 'Open Sans', verdana, arial, sans-serif; font-size: 12px; fill: rgb(242, 245, 250); fill-opacity: 1; white-space: pre;">Mar 2020</text></g><g class="xtick"><text text-anchor="middle" x="0" y="383" transform="translate(187.39,0)" style="font-family: 'Open Sans', verdana, arial, sans-serif; font-size: 12px; fill: rgb(242, 245, 250); fill-opacity: 1; white-space: pre;">May 2020</text></g><g class="xtick"><text text-anchor="middle" x="0" y="383" transform="translate(252.9,0)" style="font-family: 'Open Sans', verdana, arial, sans-serif; font-size: 12px; fill: rgb(242, 245, 250); fill-opacity: 1; white-space: pre;">Jul 2020</text></g><g class="xtick"><text text-anchor="middle" x="0" y="383" transform="translate(319.49,0)" style="font-family: 'Open Sans', verdana, arial, sans-serif; font-size: 12px; fill: rgb(242, 245, 250); fill-opacity: 1; white-space: pre;">Sep 2020</text></g></g><g class="yaxislayer-above"><g class="ytick"><text text-anchor="end" x="79" y="4.199999999999999" transform="translate(0,356.5)" style="font-family: 'Open Sans', verdana, arial, sans-serif; font-size: 12px; fill: rgb(242, 245, 250); fill-opacity: 1; white-space: pre;">0</text></g><g class="ytick"><text text-anchor="end" x="79" y="4.199999999999999" transform="translate(0,305.4)" style="font-family: 'Open Sans', verdana, arial, sans-serif; font-size: 12px; fill: rgb(242, 245, 250); fill-opacity: 1; white-space: pre;">5k</text></g><g class="ytick"><text text-anchor="end" x="79" y="4.199999999999999" transform="translate(0,254.29)" style="font-family: 'Open Sans', verdana, arial, sans-serif; font-size: 12px; fill: rgb(242, 245, 250); fill-opacity: 1; white-space: pre;">10k</text></g><g class="ytick"><text text-anchor="end" x="79" y="4.199999999999999" transform="translate(0,203.19)" style="font-family: 'Open Sans', verdana, arial, sans-serif; font-size: 12px; fill: rgb(242, 245, 250); fill-opacity: 1; white-space: pre;">15k</text></g><g class="ytick"><text text-anchor="end" x="79" y="4.199999999999999" transform="translate(0,152.07999999999998)" style="font-family: 'Open Sans', verdana, arial, sans-serif; font-size: 12px; fill: rgb(242, 245, 250); fill-opacity: 1; white-space: pre;">20k</text></g><g class="ytick"><text text-anchor="end" x="79" y="4.199999999999999" transform="translate(0,100.98)" style="font-family: 'Open Sans', verdana, arial, sans-serif; font-size: 12px; fill: rgb(242, 245, 250); fill-opacity: 1; white-space: pre;">25k</text></g></g><g class="overaxes-above"/></g><g class="subplot x2y2"><g class="layer-subplot"><g class="shapelayer"/><g class="imagelayer"/></g><g class="gridlayer"><g class="x2"><path class="x2grid crisp" transform="translate(492.03000000000003,0)" d="M0,100v270" style="stroke: rgb(40, 52, 66); stroke-opacity: 1; stroke-width: 1px;"/><path class="x2grid crisp" transform="translate(557.5400000000001,0)" d="M0,100v270" style="stroke: rgb(40, 52, 66); stroke-opacity: 1; stroke-width: 1px;"/><path class="x2grid crisp" transform="translate(623.0500000000001,0)" d="M0,100v270" style="stroke: rgb(40, 52, 66); stroke-opacity: 1; stroke-width: 1px;"/><path class="x2grid crisp" transform="translate(689.6400000000001,0)" d="M0,100v270" style="stroke: rgb(40, 52, 66); stroke-opacity: 1; stroke-width: 1px;"/></g><g class="y2"><path class="y2grid crisp" transform="translate(0,305.77)" d="M450.15000000000003,0h302.84999999999997" style="stroke: rgb(40, 52, 66); stroke-opacity: 1; stroke-width: 1px;"/><path class="y2grid crisp" transform="translate(0,255.04)" d="M450.15000000000003,0h302.84999999999997" style="stroke: rgb(40, 52, 66); stroke-opacity: 1; stroke-width: 1px;"/><path class="y2grid crisp" transform="translate(0,204.31)" d="M450.15000000000003,0h302.84999999999997" style="stroke: rgb(40, 52, 66); stroke-opacity: 1; stroke-width: 1px;"/><path class="y2grid crisp" transform="translate(0,153.57999999999998)" d="M450.15000000000003,0h302.84999999999997" style="stroke: rgb(40, 52, 66); stroke-opacity: 1; stroke-width: 1px;"/><path class="y2grid crisp" transform="translate(0,102.85)" d="M450.15000000000003,0h302.84999999999997" style="stroke: rgb(40, 52, 66); stroke-opacity: 1; stroke-width: 1px;"/></g></g><g class="zerolinelayer"><path class="y2zl zl crisp" transform="translate(0,356.5)" d="M450.15000000000003,0h302.84999999999997" style="stroke: rgb(40, 52, 66); stroke-opacity: 1; stroke-width: 2px;"/></g><path class="xlines-below"/><path class="ylines-below"/><g class="overlines-below"/><g class="xaxislayer-below"/><g class="yaxislayer-below"/><g class="overaxes-below"/><g class="plot" transform="translate(450.15000000000003, 100)" clip-path="url('#clipec12c2x2y2plot')"><g class="scatterlayer mlayer"><g class="trace scatter trace96971e" style="stroke-miterlimit: 2; opacity: 1;"><g class="fills"/><g class="errorbars"/><g class="lines"><path class="js-line" d="M0,256.5L65.51,255.99L66.58,255.49L67.66,255.49L68.73,254.47L69.81,254.47L70.88,253.46L73.03,252.95L74.1,252.95L76.25,251.93L77.32,250.41L80.55,249.91L81.62,248.89L83.77,247.88L84.84,246.35L88.06,244.83L89.14,244.83L90.21,238.24L91.28,236.72L92.36,236.72L93.43,235.7L98.8,233.16L99.88,232.15L100.95,230.12L102.02,230.12L103.1,230.12L104.17,228.6L108.47,224.54L109.54,224.54L110.62,224.54L111.69,223.02L113.84,222.51L114.91,220.99L117.06,220.48L118.13,220.48L122.43,214.9L123.5,214.39L125.65,214.39L126.72,212.87L131.02,209.83L132.09,209.32L136.39,208.81L137.46,208.31L140.69,207.8L141.76,207.29L143.91,207.29L144.98,205.26L149.28,204.75L150.35,203.23L152.5,201.2L153.57,201.2L154.65,199.68L155.72,199.68L156.79,199.68L157.87,197.65L161.09,196.64L162.16,196.64L165.39,194.61L166.46,191.56L169.68,189.03L170.76,189.03L175.05,185.48L176.13,185.48L179.35,185.48L180.42,184.46L182.57,181.93L183.64,181.42L185.79,181.42L186.86,179.39L189.01,178.37L190.09,174.82L192.23,174.32L193.31,174.32L195.46,169.75L196.53,168.74L197.6,166.2L198.68,166.2L200.83,166.2L201.9,164.68L205.12,164.17L206.2,160.62L208.34,160.62L209.42,159.1L211.57,158.59L212.64,158.59L213.71,158.59L214.79,152.5L216.94,152.5L218.01,148.95L220.16,145.4L221.23,145.4L224.45,142.86L225.53,140.83L227.67,138.3L228.75,138.3L230.9,137.79L231.97,134.75L235.19,131.2L236.27,131.2L237.34,126.12L238.41,126.12L239.49,126.12L240.56,117.5L241.64,106.84L242.71,106.34L243.78,104.82L244.86,104.82L247.01,104.31L248.08,102.79L249.15,102.79L250.23,94.16L251.3,94.16L252.38,88.07L253.45,87.57L254.52,75.9L255.6,75.9L256.67,71.33L258.82,66.77L259.89,66.77L260.97,66.77L262.04,58.65L265.26,51.55L266.34,50.53L268.48,50.53L269.56,49.52L270.63,47.49L271.71,43.43L272.78,43.43L273.85,40.89L276,40.89L277.08,39.88L278.15,37.85L279.22,37.85L292.11,37.34L293.18,35.82L294.26,25.17L295.33,25.17L297.48,22.63L298.55,22.63L301.78,21.62L302.85,21.62" style="vector-effect: non-scaling-stroke; fill: none; stroke: rgb(230, 25, 75); stroke-opacity: 1; stroke-width: 2px; opacity: 1;"/></g><g class="points"/><g class="text"/></g><g class="trace scatter trace5fcd9d" style="stroke-miterlimit: 2; opacity: 1;"><g class="fills"/><g class="errorbars"/><g class="lines"><path class="js-line" d="M0,256.5L70.88,255.99L71.95,255.49L75.18,254.98L76.25,254.47L78.4,253.96L79.47,252.44L82.69,248.38L83.77,247.88L85.91,244.83L86.99,244.32L88.06,244.32L89.14,243.31L90.21,241.79L91.28,241.79L92.36,238.74L93.43,238.24L94.51,226.06L95.58,223.02L96.65,219.97L97.73,219.97L98.8,219.97L99.88,218.96L103.1,218.45L104.17,216.93L105.25,204.25L106.32,203.74L107.39,202.73L108.47,199.68L110.62,199.17L111.69,183.45L112.76,182.94L113.84,174.82L115.99,172.29L117.06,172.29L120.28,169.24L121.35,163.66L122.43,162.14L123.5,162.14L124.58,161.63L125.65,128.66L128.87,120.03L129.95,118.51L131.02,114.96L132.09,114.96L135.32,113.44L136.39,111.41L138.54,106.84L139.61,106.84L140.69,106.84L141.76,101.26L144.98,95.68L146.06,95.68L149.28,94.16L150.35,93.15L151.42,93.15L152.5,91.63L153.57,89.6L154.65,89.6L157.87,86.04L158.94,83.51L161.09,80.97L162.16,80.97L163.24,80.46L164.31,78.94L167.53,76.91L168.61,76.41L171.83,75.39L172.9,71.84L177.2,70.32L178.27,70.32L179.35,67.78L180.42,67.78L182.57,62.71L183.64,62.2L185.79,62.2L186.86,60.68L191.16,57.64L192.23,57.64L195.46,57.13L196.53,56.11L197.6,53.58L198.68,53.07L201.9,53.07L202.97,50.53L208.34,50.03L209.42,49.52L210.49,49.52L211.57,48.5L215.86,48L216.94,46.47L219.08,44.45L220.16,43.43L222.3,42.92L223.38,42.92L224.45,42.42L225.53,40.89L226.6,40.89L227.67,39.88L229.82,39.37L230.9,39.37L235.19,38.87L236.27,37.34L239.49,37.34L240.56,36.33L241.64,35.82L242.71,34.3L251.3,30.75L252.38,30.75L254.52,29.73L255.6,28.72L256.67,28.72L257.74,27.7L262.04,24.66L263.11,24.15L276,23.65L277.08,22.63L284.59,22.12L285.67,20.09L288.89,19.08L289.96,19.08L292.11,18.57L293.18,18.07L296.41,16.04L297.48,16.04L299.63,15.53L300.7,15.02L302.85,13.5" style="vector-effect: non-scaling-stroke; fill: none; stroke: rgb(60, 180, 75); stroke-opacity: 1; stroke-width: 2px; opacity: 1;"/></g><g class="points"/><g class="text"/></g><g class="trace scatter trace2d6822" style="stroke-miterlimit: 2; opacity: 1;"><g class="fills"/><g class="errorbars"/><g class="lines"><path class="js-line" d="M0,256.5L78.4,255.99L79.47,254.98L81.62,253.96L82.69,253.96L107.39,253.46L108.47,252.95L110.62,252.95L111.69,251.93L114.91,250.92L115.99,250.92L118.13,250.92L119.21,249.91L142.83,249.4L143.91,248.89L178.27,248.38L179.35,247.88L182.57,247.37L183.64,246.86L191.16,246.35L192.23,245.85L196.53,244.32L197.6,244.32L199.75,242.8L200.83,242.8L210.49,242.8L211.57,235.19L215.86,234.69L216.94,234.18L220.16,232.66L221.23,232.66L224.45,232.15L225.53,231.13L228.75,229.11L229.82,229.11L230.9,229.11L231.97,227.58L234.12,226.57L235.19,226.57L247.01,226.06L248.08,224.03L251.3,223.02L252.38,223.02L260.97,222.51L262.04,221.5L276,220.99L277.08,220.48L280.3,218.96L281.37,218.96L285.67,218.45L286.74,217.94L289.96,216.93L291.04,215.41L293.18,213.89L294.26,213.89L297.48,213.38L298.55,212.36L302.85,210.34" style="vector-effect: non-scaling-stroke; fill: none; stroke: rgb(255, 225, 25); stroke-opacity: 1; stroke-width: 2px; opacity: 1;"/></g><g class="points"/><g class="text"/></g><g class="trace scatter trace2e757a" style="stroke-miterlimit: 2; opacity: 1;"><g class="fills"/><g class="errorbars"/><g class="lines"><path class="js-line" d="M0,256.5L69.81,255.99L70.88,254.98L73.03,254.98L74.1,253.46L75.18,252.95L76.25,251.43L78.4,251.43L79.47,249.91L82.69,246.86L83.77,244.32L85.91,237.73L86.99,237.22L88.06,237.22L89.14,234.69L91.28,228.6L92.36,227.08L95.58,219.97L96.65,215.92L97.73,212.36L98.8,205.26L99.88,193.09L100.95,192.07L102.02,192.07L103.1,190.55L105.25,185.48L106.32,184.97L107.39,179.39L108.47,178.88L110.62,176.85L111.69,172.79L114.91,167.21L115.99,167.21L117.06,167.21L118.13,165.69L119.21,163.66L120.28,155.04L124.58,128.15L125.65,128.15L126.72,125.61L127.8,118.51L128.87,118.01L129.95,116.48L134.24,112.42L135.32,105.32L138.54,101.77L139.61,101.77L141.76,99.74L142.83,94.16L143.91,91.63L144.98,91.12L148.2,91.12L149.28,89.6L152.5,86.55L153.57,86.55L155.72,86.55L156.79,85.03L158.94,84.52L160.02,84.52L163.24,84.52L164.31,83L170.76,82.49L171.83,81.99L177.2,81.48L178.27,80.97L180.42,80.46L181.5,79.45L185.79,79.45L186.86,78.44L195.46,77.93L196.53,73.87L201.9,73.87L202.97,72.85L220.16,72.35L221.23,71.84L235.19,71.33L236.27,70.32L244.86,69.81L245.93,69.3L265.26,68.8L266.34,68.29L271.71,67.78L272.78,67.27L278.15,67.27L279.22,66.26L287.81,65.75L288.89,65.25L296.41,64.74L297.48,64.23L300.7,62.71L301.78,61.69L302.85,61.19" style="vector-effect: non-scaling-stroke; fill: none; stroke: rgb(67, 99, 216); stroke-opacity: 1; stroke-width: 2px; opacity: 1;"/></g><g class="points"/><g class="text"/></g><g class="trace scatter trace7caa71" style="stroke-miterlimit: 2; opacity: 1;"><g class="fills"/><g class="errorbars"/><g class="lines"><path class="js-line" d="M0,256.5L85.91,255.99L86.99,255.49L88.06,255.49L89.14,254.47L90.21,254.47L91.28,253.46L93.43,250.92L94.51,250.92L97.73,250.41L98.8,249.4L104.17,246.86L105.25,245.34L107.39,244.83L108.47,244.83L110.62,244.83L111.69,243.82L112.76,242.3L113.84,242.3L115.99,241.79L117.06,241.79L127.8,241.28L128.87,240.77L139.61,240.27L140.69,239.76L152.5,239.25L153.57,238.74L158.94,238.24L160.02,237.73L171.83,237.22L172.9,236.21L202.97,235.7L204.05,235.19L211.57,235.19L212.64,234.18L215.86,234.18L216.94,233.16L227.67,232.66L228.75,231.64L231.97,231.64L233.04,230.63L235.19,230.63L236.27,229.61L239.49,229.11L240.56,228.6L241.64,225.55L242.71,225.55L253.45,225.55L254.52,224.54L256.67,222.51L257.74,222.51L260.97,222L262.04,221.5L268.48,221.5L269.56,219.97L296.41,219.47L297.48,218.96L299.63,218.96L300.7,215.92L302.85,215.92" style="vector-effect: non-scaling-stroke; fill: none; stroke: rgb(245, 130, 49); stroke-opacity: 1; stroke-width: 2px; opacity: 1;"/></g><g class="points"/><g class="text"/></g><g class="trace scatter trace430947" style="stroke-miterlimit: 2; opacity: 1;"><g class="fills"/><g class="errorbars"/><g class="lines"><path class="js-line" d="M0,256.5L74.1,255.99L75.18,255.49L77.32,254.98L78.4,253.96L81.62,253.46L82.69,252.95L84.84,250.92L85.91,250.92L86.99,250.92L88.06,249.91L89.14,249.91L90.21,248.89L92.36,247.88L93.43,247.88L95.58,247.37L96.65,245.34L97.73,243.82L98.8,243.82L100.95,240.27L102.02,240.27L103.1,240.27L104.17,238.74L105.25,238.24L106.32,236.21L112.76,235.7L113.84,234.69L115.99,233.16L117.06,232.15L120.28,229.11L121.35,229.11L123.5,222.51L124.58,222.51L125.65,222.51L126.72,220.48L129.95,218.45L131.02,218.45L133.17,218.45L134.24,216.42L136.39,215.92L137.46,213.89L140.69,213.89L141.76,211.35L144.98,209.83L146.06,209.83L147.13,209.83L148.2,208.81L149.28,208.81L150.35,207.8L152.5,206.78L153.57,206.78L156.79,206.78L157.87,202.73L158.94,202.22L160.02,200.19L162.16,200.19L163.24,199.17L165.39,196.64L166.46,196.13L167.53,194.61L168.61,194.61L169.68,194.61L170.76,193.59L172.9,191.56L173.98,189.03L175.05,187.51L176.13,187.51L178.27,187.51L179.35,185.98L180.42,181.42L181.5,181.42L182.57,179.39L183.64,179.39L187.94,178.88L189.01,174.82L190.09,172.79L191.16,172.79L192.23,172.79L193.31,171.78L195.46,171.27L196.53,171.27L199.75,171.27L200.83,169.24L202.97,168.74L204.05,168.74L205.12,166.2L206.2,166.2L207.27,166.2L208.34,160.62L209.42,158.59L210.49,158.59L211.57,157.07L212.64,157.07L215.86,157.07L216.94,156.05L218.01,152.5L219.08,152.5L224.45,151.99L225.53,150.98L226.6,150.98L227.67,149.97L229.82,149.97L230.9,146.92L231.97,146.92L233.04,142.86L235.19,138.8L236.27,138.8L238.41,138.8L239.49,137.79L241.64,133.22L242.71,133.22L245.93,133.22L247.01,131.7L252.38,131.2L253.45,129.17L256.67,126.63L257.74,126.63L262.04,126.12L263.11,125.11L265.26,125.11L266.34,123.08L271.71,123.08L272.78,122.06L277.08,122.06L278.15,121.05L280.3,120.03L281.37,120.03L284.59,120.03L285.67,118.01L288.89,116.99L289.96,116.99L291.04,116.48L292.11,114.96L295.33,111.41L296.41,111.41L297.48,111.41L298.55,110.4L299.63,108.87L300.7,108.87L302.85,107.86" style="vector-effect: non-scaling-stroke; fill: none; stroke: rgb(145, 30, 180); stroke-opacity: 1; stroke-width: 2px; opacity: 1;"/></g><g class="points"/><g class="text"/></g></g></g><g class="overplot"/><path class="xlines-above crisp" d="M0,0" style="fill: none;"/><path class="ylines-above crisp" d="M0,0" style="fill: none;"/><g class="overlines-above"/><g class="xaxislayer-above"><g class="x2tick"><text text-anchor="middle" x="0" y="383" transform="translate(492.03000000000003,0)" style="font-family: 'Open Sans', verdana, arial, sans-serif; font-size: 12px; fill: rgb(242, 245, 250); fill-opacity: 1; white-space: pre;">Mar 2020</text></g><g class="x2tick"><text text-anchor="middle" x="0" y="383" transform="translate(557.5400000000001,0)" style="font-family: 'Open Sans', verdana, arial, sans-serif; font-size: 12px; fill: rgb(242, 245, 250); fill-opacity: 1; white-space: pre;">May 2020</text></g><g class="x2tick"><text text-anchor="middle" x="0" y="383" transform="translate(623.0500000000001,0)" style="font-family: 'Open Sans', verdana, arial, sans-serif; font-size: 12px; fill: rgb(242, 245, 250); fill-opacity: 1; white-space: pre;">Jul 2020</text></g><g class="x2tick"><text text-anchor="middle" x="0" y="383" transform="translate(689.6400000000001,0)" style="font-family: 'Open Sans', verdana, arial, sans-serif; font-size: 12px; fill: rgb(242, 245, 250); fill-opacity: 1; white-space: pre;">Sep 2020</text></g></g><g class="yaxislayer-above"><g class="y2tick"><text text-anchor="end" x="449.15000000000003" y="4.199999999999999" transform="translate(0,356.5)" style="font-family: 'Open Sans', verdana, arial, sans-serif; font-size: 12px; fill: rgb(242, 245, 250); fill-opacity: 1; white-space: pre;">0</text></g><g class="y2tick"><text text-anchor="end" x="449.15000000000003" y="4.199999999999999" transform="translate(0,305.77)" style="font-family: 'Open Sans', verdana, arial, sans-serif; font-size: 12px; fill: rgb(242, 245, 250); fill-opacity: 1; white-space: pre;">100</text></g><g class="y2tick"><text text-anchor="end" x="449.15000000000003" y="4.199999999999999" transform="translate(0,255.04)" style="font-family: 'Open Sans', verdana, arial, sans-serif; font-size: 12px; fill: rgb(242, 245, 250); fill-opacity: 1; white-space: pre;">200</text></g><g class="y2tick"><text text-anchor="end" x="449.15000000000003" y="4.199999999999999" transform="translate(0,204.31)" style="font-family: 'Open Sans', verdana, arial, sans-serif; font-size: 12px; fill: rgb(242, 245, 250); fill-opacity: 1; white-space: pre;">300</text></g><g class="y2tick"><text text-anchor="end" x="449.15000000000003" y="4.199999999999999" transform="translate(0,153.57999999999998)" style="font-family: 'Open Sans', verdana, arial, sans-serif; font-size: 12px; fill: rgb(242, 245, 250); fill-opacity: 1; white-space: pre;">400</text></g><g class="y2tick"><text text-anchor="end" x="449.15000000000003" y="4.199999999999999" transform="translate(0,102.85)" style="font-family: 'Open Sans', verdana, arial, sans-serif; font-size: 12px; fill: rgb(242, 245, 250); fill-opacity: 1; white-space: pre;">500</text></g></g><g class="overaxes-above"/></g></g><g class="polarlayer"/><g class="ternarylayer"/><g class="geolayer"/><g class="funnelarealayer"/><g class="pielayer"/><g class="treemaplayer"/><g class="sunburstlayer"/><g class="glimages"/><defs id="topdefs-ec12c2"><g class="clips"/><clipPath id="legendec12c2"><rect width="122" height="124" x="0" y="0"/></clipPath></defs><g class="layer-above"><g class="imagelayer"/><g class="shapelayer"/></g><g class="infolayer"><g class="legend" pointer-events="all" transform="translate(766.46, 100)"><rect class="bg" shape-rendering="crispEdges" width="122" height="124" x="0" y="0" style="stroke: rgb(68, 68, 68); stroke-opacity: 1; fill: rgb(17, 17, 17); fill-opacity: 1; stroke-width: 0px;"/><g class="scrollbox" transform="translate(0, 0)" clip-path="url('#legendec12c2')"><g class="groups"><g class="traces" transform="translate(0, 14.5)" style="opacity: 1;"><text class="legendtext user-select-none" text-anchor="start" x="40" y="4.680000000000001" style="font-family: 'Open Sans', verdana, arial, sans-serif; font-size: 12px; fill: rgb(242, 245, 250); fill-opacity: 1; white-space: pre;">Alameda, CA</text><g class="layers" style="opacity: 1;"><g class="legendfill"/><g class="legendlines"><path class="js-line" d="M5,0h30" style="fill: none; stroke: rgb(230, 25, 75); stroke-opacity: 1; stroke-width: 2px;"/></g><g class="legendsymbols"><g class="legendpoints"/></g></g><rect class="legendtoggle" pointer-events="all" x="0" y="-9.5" width="116.71875" height="19" style="cursor: pointer; fill: rgb(0, 0, 0); fill-opacity: 0;"/></g><g class="traces" transform="translate(0, 33.5)" style="opacity: 1;"><text class="legendtext user-select-none" text-anchor="start" x="40" y="4.680000000000001" style="font-family: 'Open Sans', verdana, arial, sans-serif; font-size: 12px; fill: rgb(242, 245, 250); fill-opacity: 1; white-space: pre;">Lancaster, PA</text><g class="layers" style="opacity: 1;"><g class="legendfill"/><g class="legendlines"><path class="js-line" d="M5,0h30" style="fill: none; stroke: rgb(60, 180, 75); stroke-opacity: 1; stroke-width: 2px;"/></g><g class="legendsymbols"><g class="legendpoints"/></g></g><rect class="legendtoggle" pointer-events="all" x="0" y="-9.5" width="116.71875" height="19" style="cursor: pointer; fill: rgb(0, 0, 0); fill-opacity: 0;"/></g><g class="traces" transform="translate(0, 52.5)" style="opacity: 1;"><text class="legendtext user-select-none" text-anchor="start" x="40" y="4.680000000000001" style="font-family: 'Open Sans', verdana, arial, sans-serif; font-size: 12px; fill: rgb(242, 245, 250); fill-opacity: 1; white-space: pre;">Jackson, MS</text><g class="layers" style="opacity: 1;"><g class="legendfill"/><g class="legendlines"><path class="js-line" d="M5,0h30" style="fill: none; stroke: rgb(255, 225, 25); stroke-opacity: 1; stroke-width: 2px;"/></g><g class="legendsymbols"><g class="legendpoints"/></g></g><rect class="legendtoggle" pointer-events="all" x="0" y="-9.5" width="116.71875" height="19" style="cursor: pointer; fill: rgb(0, 0, 0); fill-opacity: 0;"/></g><g class="traces" transform="translate(0, 71.5)" style="opacity: 1;"><text class="legendtext user-select-none" text-anchor="start" x="40" y="4.680000000000001" style="font-family: 'Open Sans', verdana, arial, sans-serif; font-size: 12px; fill: rgb(242, 245, 250); fill-opacity: 1; white-space: pre;">Arapahoe, CO</text><g class="layers" style="opacity: 1;"><g class="legendfill"/><g class="legendlines"><path class="js-line" d="M5,0h30" style="fill: none; stroke: rgb(67, 99, 216); stroke-opacity: 1; stroke-width: 2px;"/></g><g class="legendsymbols"><g class="legendpoints"/></g></g><rect class="legendtoggle" pointer-events="all" x="0" y="-9.5" width="116.71875" height="19" style="cursor: pointer; fill: rgb(0, 0, 0); fill-opacity: 0;"/></g><g class="traces" transform="translate(0, 90.5)" style="opacity: 1;"><text class="legendtext user-select-none" text-anchor="start" x="40" y="4.680000000000001" style="font-family: 'Open Sans', verdana, arial, sans-serif; font-size: 12px; fill: rgb(242, 245, 250); fill-opacity: 1; white-space: pre;">Allen, OH</text><g class="layers" style="opacity: 1;"><g class="legendfill"/><g class="legendlines"><path class="js-line" d="M5,0h30" style="fill: none; stroke: rgb(245, 130, 49); stroke-opacity: 1; stroke-width: 2px;"/></g><g class="legendsymbols"><g class="legendpoints"/></g></g><rect class="legendtoggle" pointer-events="all" x="0" y="-9.5" width="116.71875" height="19" style="cursor: pointer; fill: rgb(0, 0, 0); fill-opacity: 0;"/></g><g class="traces" transform="translate(0, 109.5)" style="opacity: 1;"><text class="legendtext user-select-none" text-anchor="start" x="40" y="4.680000000000001" style="font-family: 'Open Sans', verdana, arial, sans-serif; font-size: 12px; fill: rgb(242, 245, 250); fill-opacity: 1; white-space: pre;">Tulare, CA</text><g class="layers" style="opacity: 1;"><g class="legendfill"/><g class="legendlines"><path class="js-line" d="M5,0h30" style="fill: none; stroke: rgb(145, 30, 180); stroke-opacity: 1; stroke-width: 2px;"/></g><g class="legendsymbols"><g class="legendpoints"/></g></g><rect class="legendtoggle" pointer-events="all" x="0" y="-9.5" width="116.71875" height="19" style="cursor: pointer; fill: rgb(0, 0, 0); fill-opacity: 0;"/></g></g></g><rect class="scrollbar" rx="20" ry="3" width="0" height="0" x="0" y="0" style="fill: rgb(128, 139, 164); fill-opacity: 1;"/></g><g class="g-gtitle"/><g class="g-xtitle"><text class="xtitle" x="231.425" y="410.8" text-anchor="middle" style="font-family: 'Open Sans', verdana, arial, sans-serif; font-size: 14px; fill: rgb(242, 245, 250); opacity: 1; font-weight: normal; white-space: pre;">Date</text></g><g class="g-x2title"><text class="x2title" x="601.575" y="410.8" text-anchor="middle" style="font-family: 'Open Sans', verdana, arial, sans-serif; font-size: 14px; fill: rgb(242, 245, 250); opacity: 1; font-weight: normal; white-space: pre;">Date</text></g><g class="g-ytitle"><text class="ytitle" transform="rotate(-90,34.840625,235)" x="34.840625" y="235" text-anchor="middle" style="font-family: 'Open Sans', verdana, arial, sans-serif; font-size: 14px; fill: rgb(242, 245, 250); opacity: 1; font-weight: normal; white-space: pre;">Cases</text></g><g class="g-y2title"><text class="y2title" transform="rotate(-90,404.325,235)" x="404.325" y="235" text-anchor="middle" style="font-family: 'Open Sans', verdana, arial, sans-serif; font-size: 14px; fill: rgb(242, 245, 250); opacity: 1; font-weight: normal; white-space: pre;">Deaths</text></g><g class="annotation" data-index="0" style="opacity: 1;"><g class="annotation-text-g" transform="rotate(0,231.425,89.5)"><g class="cursor-pointer" transform="translate(207, 79)"><rect class="bg" x="0.5" y="0.5" width="48" height="20" style="stroke-width: 1px; stroke: rgb(0, 0, 0); stroke-opacity: 0; fill: rgb(0, 0, 0); fill-opacity: 0;"/><text class="annotation-text" text-anchor="middle" x="24.6875" y="16" style="font-family: 'Open Sans', verdana, arial, sans-serif; font-size: 16px; fill: rgb(242, 245, 250); fill-opacity: 1; white-space: pre;">Cases</text></g></g></g><g class="annotation" data-index="1" style="opacity: 1;"><g class="annotation-text-g" transform="rotate(0,601.575,89.5)"><g class="cursor-pointer" transform="translate(574, 79)"><rect class="bg" x="0.5" y="0.5" width="54" height="20" style="stroke-width: 1px; stroke: rgb(0, 0, 0); stroke-opacity: 0; fill: rgb(0, 0, 0); fill-opacity: 0;"/><text class="annotation-text" text-anchor="middle" x="27.359375" y="16" style="font-family: 'Open Sans', verdana, arial, sans-serif; font-size: 16px; fill: rgb(242, 245, 250); fill-opacity: 1; white-space: pre;">Deaths</text></g></g></g></g></svg>