<svg class="main-svg" xmlns="http://www.w3.org/2000/svg" xmlns:xlink="http://www.w3.org/1999/xlink" width="900" height="450" style="" viewBox="0 0 900 450"><rect x="0" y="0" width="900" height="450" style="fill: rgb(17, 17, 17); fill-opacity: 1;"/><defs id="defs-47efb8"><g class="clips"><clipPath id="clip47efb8xyplot" class="plotclip"><rect width="301.5" height="270"/></clipPath><clipPath id="clip47efb8x2y2plot" class="plotclip"><rect width="301.49999999999994" height="270"/></clipPath><clipPath class="axesclip" id="clip47efb8x"><rect x="80" y="0" width="301.5" height="450"/></clipPath><clipPath class="axesclip" id="clip47efb8y"><rect x="0" y="100" width="900" height="270"/></clipPath><clipPath class="axesclip" id="clip47efb8xy"><rect x="80" y="100" width="301.5" height="270"/></clipPath><clipPath class="axesclip" id="clip47efb8y2"><rect x="0" y="100" width="900" height="270"/></clipPath><clipPath class="axesclip" id="clip47efb8xy2"><rect x="80" y="100" width="301.5" height="270"/></clipPath><clipPath class="axesclip" id="clip47efb8x2"><rect x="448.50000000000006" y="0" width="301.49999999999994" height="450"/></clipPath><clipPath class="axesclip" id="clip47efb8x2y"><rect x="448.50000000000006" y="100" width="301.49999999999994" height="270"/></clipPath><clipPath class="axesclip" id="clip47efb8x2y2"><rect x="448.50000000000006" y="100" width="301.49999999999994" height="270"/></clipPath></g><g class="gradients"/></defs><g class="bglayer"/><g class="layer-below"><g class="imagelayer"/><g class="shapelayer"/></g><g class="cartesianlayer"><g class="subplot xy"><g class="layer-subplot"><g class="shapelayer"/><g class="imagelayer"/></g><g class="gridlayer"><g class="x"><path class="xgrid crisp" transform="translate(126.66,0)" d="M0,100v270" style="stroke: rgb(40, 52, 66); stroke-opacity: 1; stroke-width: 1px;"/><path class="xgrid crisp" transform="translate(199.64,0)" d="M0,100v270" style="stroke: rgb(40, 52, 66); stroke-opacity: 1; stroke-width: 1px;"/><path class="xgrid crisp" transform="translate(272.63,0)" d="M0,100v270" style="stroke: rgb(40, 52, 66); stroke-opacity: 1; stroke-width: 1px;"/><path class="xgrid crisp" transform="translate(346.8,0)" d="M0,100v270" style="stroke: rgb(40, 52, 66); stroke-opacity: 1; stroke-width: 1px;"/></g><g class="y"><path class="ygrid crisp" transform="translate(0,305)" d="M80,0h301.5" style="stroke: rgb(40, 52, 66); stroke-opacity: 1; stroke-width: 1px;"/><path class="ygrid crisp" transform="translate(0,253.49)" d="M80,0h301.5" style="stroke: rgb(40, 52, 66); stroke-opacity: 1; stroke-width: 1px;"/><path class="ygrid crisp" transform="translate(0,201.99)" d="M80,0h301.5" style="stroke: rgb(40, 52, 66); stroke-opacity: 1; stroke-width: 1px;"/><path class="ygrid crisp" transform="translate(0,150.48)" d="M80,0h301.5" style="stroke: rgb(40, 52, 66); stroke-opacity: 1; stroke-width: 1px;"/></g></g><g class="zerolinelayer"><path class="yzl zl crisp" transform="translate(0,356.5)" d="M80,0h301.5" style="stroke: rgb(40, 52, 66); stroke-opacity: 1; stroke-width: 2px;"/></g><path class="xlines-below"/><path class="ylines-below"/><g class="overlines-below"/><g class="xaxislayer-below"/><g class="yaxislayer-below"/><g class="overaxes-below"/><g class="plot" transform="translate(80, 100)" clip-path="url('#clip47efb8xyplot')"><g class="scatterlayer mlayer"><g class="trace scatter tracef94b4a" style="stroke-miterlimit: 2; opacity: 1;"><g class="fills"/><g class="errorbars"/><g class="lines"><path class="js-line" d="M0,256.5L75.38,255.8L76.57,255.66L83.75,254.65L84.95,254.46L117.25,248.42L118.45,248.24L134,245.28L135.2,244.99L175.88,233.15L177.07,232.61L181.86,230.71L183.05,230.03L189.04,227.3L190.23,226.82L195.02,223.17L196.21,222.73L197.41,221.19L198.61,221.03L199.8,221.03L201,219.18L206.98,215.42L208.18,213.64L215.36,208.83L216.55,208.17L221.34,203.3L222.54,203.09L224.93,201.73L226.13,201.01L227.32,199.17L228.52,199.17L229.71,197.35L230.91,197.15L232.11,195.49L233.3,195.16L234.5,193.99L235.7,193.99L238.09,193.99L239.29,188.52L240.48,188.42L241.68,186.12L244.07,183.21L245.27,181.52L246.46,181.52L247.66,178.61L248.86,178.57L250.05,176.99L253.64,171.68L254.84,170.52L257.23,170.32L258.43,167.53L260.82,165.74L262.02,164.58L263.21,164.58L264.41,163.59L266.8,161.5L268,160.21L271.59,157.97L272.79,157.97L273.98,156.84L275.18,156.84L277.57,154.98L278.77,154.42L281.16,153.54L282.36,153.38L287.14,151.62L288.34,150.95L295.52,148.2L296.71,147.64L301.5,146.37" style="vector-effect: non-scaling-stroke; fill: none; stroke: rgb(230, 25, 75); stroke-opacity: 1; stroke-width: 2px; opacity: 1;"/></g><g class="points"/><g class="text"/></g><g class="trace scatter trace62b74a" style="stroke-miterlimit: 2; opacity: 1;"><g class="fills"/><g class="errorbars"/><g class="lines"><path class="js-line" d="M0,256.5L87.34,255.77L88.54,255.69L104.09,254.85L105.29,254.82L139.98,252.66L141.18,252.55L168.7,249.68L169.89,249.43L177.07,247.73L178.27,246.94L186.64,242.18L187.84,240.11L190.23,237.54L191.43,236.74L195.02,232.5L196.21,231.23L205.79,219.18L206.98,217.2L212.96,209.99L214.16,207.45L216.55,204.62L217.75,203.4L222.54,197.67L223.73,196.15L229.71,190.91L230.91,189.59L235.7,186.18L236.89,185.22L240.48,181.95L241.68,181.07L248.86,176.64L250.05,176.12L259.63,171.53L260.82,171.16L276.38,163.66L277.57,163.17L297.91,154.27L299.11,154.07L301.5,153.33" style="vector-effect: non-scaling-stroke; fill: none; stroke: rgb(60, 180, 75); stroke-opacity: 1; stroke-width: 2px; opacity: 1;"/></g><g class="points"/><g class="text"/></g><g class="trace scatter tracef4ef22" style="stroke-miterlimit: 2; opacity: 1;"><g class="fills"/><g class="errorbars"/><g class="lines"><path class="js-line" d="M0,256.5L81.36,255.84L82.55,255.64L88.54,254.65L89.73,254.58L144.77,250.75L145.96,250.56L162.71,248.61L163.91,248.34L169.89,246.5L171.09,245.67L177.07,241.63L178.27,240.26L181.86,236.65L183.05,235.73L186.64,230.24L187.84,227.08L193.82,219.16L195.02,216.86L198.61,211.39L199.8,209.98L214.16,187.06L215.36,185.91L226.13,175.12L227.32,173.51L232.11,169.53L233.3,168.7L244.07,162.1L245.27,161.39L247.66,160.03L248.86,159.8L259.63,155.52L260.82,155.13L270.39,152.16L271.59,151.66L287.14,146.49L288.34,146.07L301.5,142.26" style="vector-effect: non-scaling-stroke; fill: none; stroke: rgb(255, 225, 25); stroke-opacity: 1; stroke-width: 2px; opacity: 1;"/></g><g class="points"/><g class="text"/></g><g class="trace scatter trace1a6c72" style="stroke-miterlimit: 2; opacity: 1;"><g class="fills"/><g class="errorbars"/><g class="lines"><path class="js-line" d="M0,256.5L87.34,255.81L88.54,255.72L104.09,255L105.29,254.78L169.89,251.95L171.09,251.79L178.27,250.75L179.46,250.48L185.45,248.96L186.64,248.23L196.21,243.09L197.41,242.67L202.2,239.84L203.39,238.71L221.34,224.91L222.54,224.36L235.7,217.93L236.89,217.08L242.88,214.63L244.07,214.24L248.86,212.81L250.05,212.5L264.41,208.89L265.61,208.69L269.2,207.11L270.39,206.81L275.18,205.71L276.38,205.62L301.5,200.13" style="vector-effect: non-scaling-stroke; fill: none; stroke: rgb(67, 99, 216); stroke-opacity: 1; stroke-width: 2px; opacity: 1;"/></g><g class="points"/><g class="text"/></g><g class="trace scatter trace882f6e" style="stroke-miterlimit: 2; opacity: 1;"><g class="fills"/><g class="errorbars"/><g class="lines"><path class="js-line" d="M0,256.5L90.93,255.86L92.13,255.71L122.04,251.42L123.23,251.36L134,249.22L135.2,249L137.59,247.98L138.79,247.61L143.57,245.96L144.77,245.37L148.36,244.26L149.55,244.17L160.32,240.69L161.52,239.95L172.29,236.75L173.48,236.36L178.27,234.98L179.46,234.15L187.84,229.05L189.04,227.59L192.63,224.96L193.82,223.59L196.21,220.69L197.41,220.69L199.8,217.14L201,215.12L209.38,203.46L210.57,201.71L212.96,199.16L214.16,196.89L218.95,192.11L220.14,190.83L222.54,188.31L223.73,188.31L228.52,182.97L229.71,182.28L230.91,182.28L232.11,179.69L240.48,172.05L241.68,169.27L250.05,160.28L251.25,159.08L265.61,151.12L266.8,150.71L272.79,148.65L273.98,147.86L284.75,144.09L285.95,142.79L289.54,140.74L290.73,139.83L293.13,138.96L294.32,136.97L301.5,130.59" style="vector-effect: non-scaling-stroke; fill: none; stroke: rgb(245, 130, 49); stroke-opacity: 1; stroke-width: 2px; opacity: 1;"/></g><g class="points"/><g class="text"/></g><g class="trace scatter trace349dca" style="stroke-miterlimit: 2; opacity: 1;"><g class="fills"/><g class="errorbars"/><g class="lines"><path class="js-line" d="M0,256.5L69.39,255.88L70.59,255.74L81.36,253.39L82.55,252.72L92.13,248.62L93.32,248.12L110.07,242.89L111.27,241.94L126.82,233.69L128.02,232.49L144.77,223.36L145.96,222.72L151.95,219.93L153.14,219.93L155.54,217.97L156.73,217.59L161.52,214.37L162.71,213.52L175.88,205.75L177.07,204.52L181.86,199.35L183.05,199.35L186.64,192.63L187.84,190.38L195.02,175.66L196.21,175.66L197.41,170.35L198.61,168.94L202.2,161.72L203.39,159.35L224.93,112.26L226.13,110.81L234.5,97.54L235.7,96.18L239.29,87.84L240.48,86.66L244.07,83.14L245.27,81.05L258.43,65.96L259.63,64.79L260.82,63.36L262.02,63.36L264.41,59.24L265.61,57.67L269.2,53.33L270.39,51L272.79,47.13L273.98,47.13L275.18,47.13L276.38,43.66L278.77,40.34L279.96,38.05L289.54,26.91L290.73,25.11L295.52,19.57L296.71,17.87L300.3,14.5L301.5,13.5" style="vector-effect: non-scaling-stroke; fill: none; stroke: rgb(145, 30, 180); stroke-opacity: 1; stroke-width: 2px; opacity: 1;"/></g><g class="points"/><g class="text"/></g></g></g><g class="overplot"/><path class="xlines-above crisp" d="M0,0" style="fill: none;"/><path class="ylines-above crisp" d="M0,0" style="fill: none;"/><g class="overlines-above"/><g class="xaxislayer-above"><g class="xtick"><text text-anchor="middle" x="0" y="383" transform="translate(126.66,0)" style="font-family: 'Open Sans', verdana, arial, sans-serif; font-size: 12px; fill: rgb(242, 245, 250); fill-opacity: 1; white-space: pre;">Mar 2020</text></g><g class="xtick"><text text-anchor="middle" x="0" y="383" transform="translate(199.64,0)" style="font-family: 'Open Sans', verdana, arial, sans-serif; font-size: 12px; fill: rgb(242, 245, 250); fill-opacity: 1; white-space: pre;">May 2020</text></g><g class="xtick"><text text-anchor="middle" x="0" y="383" transform="translate(272.63,0)" style="font-family: 'Open Sans', verdana, arial, sans-serif; font-size: 12px; fill: rgb(242, 245, 250); fill-opacity: 1; white-space: pre;">Jul 2020</text></g><g class="xtick"><text text-anchor="middle" x="0" y="383" transform="translate(346.8,0)" style="font-family: 'Open Sans', verdana, arial, sans-serif; font-size: 12px; fill: rgb(242, 245, 250); fill-opacity: 1; white-space: pre;">Sep 2020</text></g></g><g class="yaxislayer-above"><g class="ytick"><text text-anchor="end" x="79" y="4.199999999999999" transform="translate(0,356.5)" style="font-family: 'Open Sans', verdana, arial, sans-serif; font-size: 12px; fill: rgb(242, 245, 250); fill-opacity: 1; white-space: pre;">0</text></g><g class="ytick"><text text-anchor="end" x="79" y="4.199999999999999" transform="translate(0,305)" style="font-family: 'Open Sans', verdana, arial, sans-serif; font-size: 12px; fill: rgb(242, 245, 250); fill-opacity: 1; white-space: pre;">10k</text></g><g class="ytick"><text text-anchor="end" x="79" y="4.199999999999999" transform="translate(0,253.49)" style="font-family: 'Open Sans', verdana, arial, sans-serif; font-size: 12px; fill: rgb(242, 245, 250); fill-opacity: 1; white-space: pre;">20k</text></g><g class="ytick"><text text-anchor="end" x="79" y="4.199999999999999" transform="translate(0,201.99)" style="font-family: 'Open Sans', verdana, arial, sans-serif; font-size: 12px; fill: rgb(242, 245, 250); fill-opacity: 1; white-space: pre;">30k</text></g><g class="ytick"><text text-anchor="end" x="79" y="4.199999999999999" transform="translate(0,150.48)" style="font-family: 'Open Sans', verdana, arial, sans-serif; font-size: 12px; fill: rgb(242, 245, 250); fill-opacity: 1; white-space: pre;">40k</text></g></g><g class="overaxes-above"/></g><g class="subplot x2y2"><g class="layer-subplot"><g class="shapelayer"/><g class="imagelayer"/></g><g class="gridlayer"><g class="x2"><path class="x2grid crisp" transform="translate(495.1600000000001,0)" d="M0,100v270" style="stroke: rgb(40, 52, 66); stroke-opacity: 1; stroke-width: 1px;"/><path class="x2grid crisp" transform="translate(568.1400000000001,0)" d="M0,100v270" style="stroke: rgb(40, 52, 66); stroke-opacity: 1; stroke-width: 1px;"/><path class="x2grid crisp" transform="translate(641.1300000000001,0)" d="M0,100v270" style="stroke: rgb(40, 52, 66); stroke-opacity: 1; stroke-width: 1px;"/><path class="x2grid crisp" transform="translate(715.3000000000001,0)" d="M0,100v270" style="stroke: rgb(40, 52, 66); stroke-opacity: 1; stroke-width: 1px;"/></g><g class="y2"><path class="y2grid crisp" transform="translate(0,294.43)" d="M448.50000000000006,0h301.49999999999994" style="stroke: rgb(40, 52, 66); stroke-opacity: 1; stroke-width: 1px;"/><path class="y2grid crisp" transform="translate(0,232.36)" d="M448.50000000000006,0h301.49999999999994" style="stroke: rgb(40, 52, 66); stroke-opacity: 1; stroke-width: 1px;"/><path class="y2grid crisp" transform="translate(0,170.29000000000002)" d="M448.50000000000006,0h301.49999999999994" style="stroke: rgb(40, 52, 66); stroke-opacity: 1; stroke-width: 1px;"/><path class="y2grid crisp" transform="translate(0,108.22)" d="M448.50000000000006,0h301.49999999999994" style="stroke: rgb(40, 52, 66); stroke-opacity: 1; stroke-width: 1px;"/></g></g><g class="zerolinelayer"><path class="y2zl zl crisp" transform="translate(0,356.5)" d="M448.50000000000006,0h301.49999999999994" style="stroke: rgb(40, 52, 66); stroke-opacity: 1; stroke-width: 2px;"/></g><path class="xlines-below"/><path class="ylines-below"/><g class="overlines-below"/><g class="xaxislayer-below"/><g class="yaxislayer-below"/><g class="overaxes-below"/><g class="plot" transform="translate(448.50000000000006, 100)" clip-path="url('#clip47efb8x2y2plot')"><g class="scatterlayer mlayer"><g class="trace scatter trace925db5" style="stroke-miterlimit: 2; opacity: 1;"><g class="fills"/><g class="errorbars"/><g class="lines"><path class="js-line" d="M0,256.5L75.38,255.88L76.57,255.26L78.96,254.64L80.16,254.33L84.95,253.71L86.14,252.78L89.73,252.47L90.93,251.84L95.71,249.98L96.91,249.36L99.3,249.36L100.5,245.33L102.89,244.4L104.09,243.78L111.27,241.6L112.46,240.36L114.86,240.36L116.05,239.43L120.84,236.95L122.04,236.95L123.23,236.95L124.43,236.02L126.82,235.71L128.02,234.78L132.8,233.53L134,232.91L137.59,230.74L138.79,230.74L139.98,230.74L141.18,229.81L145.96,227.95L147.16,227.64L154.34,227.02L155.54,226.71L160.32,226.4L161.52,225.16L166.3,224.84L167.5,223.91L169.89,222.67L171.09,222.67L173.48,221.74L174.68,221.74L177.07,220.19L178.27,219.88L183.05,219.26L184.25,218.64L186.64,216.16L187.84,216.16L190.23,215.22L191.43,214.6L197.41,213.05L198.61,213.05L201,212.43L202.2,211.19L206.98,210.57L208.18,209.33L210.57,208.71L211.77,206.53L215.36,206.22L216.55,204.67L220.14,201.26L221.34,201.26L223.73,201.26L224.93,200.33L228.52,200.02L229.71,197.84L232.11,197.84L233.3,196.91L236.89,196.6L238.09,196.6L239.29,192.88L240.48,192.88L241.68,192.88L242.88,190.71L245.27,188.53L246.46,188.53L250.05,186.98L251.25,185.74L253.64,184.19L254.84,184.19L257.23,183.88L258.43,182.02L262.02,179.84L263.21,179.84L264.41,176.74L265.61,176.74L266.8,176.74L268,171.47L269.2,164.95L270.39,164.64L272.79,163.71L273.98,163.4L275.18,163.4L276.38,162.47L277.57,162.47L278.77,157.19L279.96,157.19L281.16,153.47L282.36,153.16L283.55,146.02L284.75,146.02L285.95,143.22L288.34,140.43L289.54,140.43L290.73,140.43L291.93,135.47L295.52,131.12L296.71,130.5L300.3,129.88L301.5,128.64" style="vector-effect: non-scaling-stroke; fill: none; stroke: rgb(230, 25, 75); stroke-opacity: 1; stroke-width: 2px; opacity: 1;"/></g><g class="points"/><g class="text"/></g><g class="trace scatter tracee20c36" style="stroke-miterlimit: 2; opacity: 1;"><g class="fills"/><g class="errorbars"/><g class="lines"><path class="js-line" d="M0,256.5L84.95,255.88L86.14,255.57L94.52,254.02L95.71,254.02L100.5,253.4L101.7,253.09L112.46,250.91L113.66,250.91L116.05,250.29L117.25,249.67L135.2,245.02L136.39,244.09L147.16,241.29L148.36,241.29L149.55,240.98L150.75,239.74L155.54,239.43L156.73,238.81L159.13,237.88L160.32,236.95L167.5,234.47L168.7,233.84L173.48,233.22L174.68,233.22L178.27,232.6L179.46,232.29L184.25,231.67L185.45,230.43L189.04,227.64L190.23,227.64L192.63,224.84L193.82,224.84L196.21,223.91L197.41,223.91L198.61,221.12L199.8,220.81L202.2,217.09L203.39,216.47L204.59,213.67L205.79,213.05L206.98,212.74L208.18,209.64L211.77,206.22L212.96,202.5L215.36,201.88L216.55,198.78L217.75,194.43L218.95,193.5L220.14,189.78L221.34,189.47L224.93,188.22L226.13,178.6L228.52,173.33L229.71,173.02L232.11,172.4L233.3,167.74L235.7,162.16L236.89,162.16L238.09,159.67L239.29,159.67L240.48,159.05L241.68,155.33L246.46,145.4L247.66,145.4L248.86,144.78L250.05,136.4L251.25,135.78L252.45,133.6L257.23,130.19L258.43,126.47L262.02,123.36L263.21,119.33L265.61,119.02L266.8,117.78L269.2,113.43L270.39,112.5L271.59,111.26L272.79,111.26L275.18,110.95L276.38,107.53L279.96,105.05L281.16,105.05L282.36,105.05L283.55,103.19L288.34,99.16L289.54,99.16L290.73,99.16L291.93,97.6L293.13,96.98L294.32,95.12L296.71,92.33L297.91,92.33L300.3,92.33L301.5,91.71" style="vector-effect: non-scaling-stroke; fill: none; stroke: rgb(60, 180, 75); stroke-opacity: 1; stroke-width: 2px; opacity: 1;"/></g><g class="points"/><g class="text"/></g><g class="trace scatter traceb17544" style="stroke-miterlimit: 2; opacity: 1;"><g class="fills"/><g class="errorbars"/><g class="lines"><path class="js-line" d="M0,256.5L77.77,256.19L78.96,255.26L82.55,254.95L83.75,254.95L92.13,253.4L93.32,253.4L95.71,252.78L96.91,252.47L101.7,252.16L102.89,251.53L107.68,250.91L108.88,249.98L111.27,249.05L112.46,249.05L114.86,248.74L116.05,246.88L120.84,243.78L122.04,243.78L124.43,242.84L125.63,240.98L128.02,238.19L129.21,238.19L148.36,233.22L149.55,233.22L151.95,231.67L153.14,231.05L156.73,230.74L157.93,228.57L160.32,228.26L161.52,227.02L165.11,227.02L166.3,225.78L172.29,224.84L173.48,224.84L175.88,222.36L177.07,221.74L181.86,220.19L183.05,216.47L186.64,212.74L187.84,210.26L189.04,208.71L190.23,208.71L192.63,203.12L193.82,200.64L196.21,199.4L197.41,195.05L198.61,194.74L199.8,192.57L201,191.64L202.2,187.91L203.39,187.29L204.59,185.43L205.79,185.43L206.98,183.26L209.38,170.22L210.57,164.95L211.77,163.4L212.96,160.29L214.16,159.05L215.36,156.26L217.75,150.36L218.95,143.53L224.93,139.19L226.13,132.36L228.52,122.43L229.71,120.88L232.11,119.33L233.3,113.74L234.5,111.57L235.7,110.95L238.09,102.26L239.29,101.33L240.48,101.33L241.68,97.29L245.27,88.6L246.46,87.67L247.66,86.43L248.86,83.33L252.45,74.33L253.64,73.09L256.04,70.6L257.23,66.57L258.43,60.98L259.63,59.43L263.21,54.78L264.41,54.78L266.8,50.74L268,50.12L269.2,48.88L270.39,48.88L273.98,47.64L275.18,46.09L276.38,41.43L277.57,40.19L282.36,38.95L283.55,36.16L287.14,33.05L288.34,32.74L289.54,32.74L290.73,30.57L291.93,30.26L293.13,28.09L296.71,25.6L297.91,25.6L299.11,25.6L300.3,23.12L301.5,22.81" style="vector-effect: non-scaling-stroke; fill: none; stroke: rgb(255, 225, 25); stroke-opacity: 1; stroke-width: 2px; opacity: 1;"/></g><g class="points"/><g class="text"/></g><g class="trace scatter trace9cc8e3" style="stroke-miterlimit: 2; opacity: 1;"><g class="fills"/><g class="errorbars"/><g class="lines"><path class="js-line" d="M0,256.5L88.54,255.88L89.73,255.57L93.32,254.95L94.52,254.64L98.11,254.33L99.3,254.33L105.29,253.4L106.48,253.4L108.88,252.47L110.07,252.16L119.64,249.98L120.84,248.74L125.63,248.12L126.82,248.12L132.8,247.19L134,247.19L141.18,247.19L142.38,246.26L144.77,245.33L145.96,245.33L149.55,245.02L150.75,245.02L157.93,244.4L159.13,243.78L160.32,243.78L161.52,242.84L169.89,242.22L171.09,241.91L174.68,241.29L175.88,240.98L180.66,240.05L181.86,240.05L189.04,239.74L190.23,239.12L195.02,238.5L196.21,238.5L199.8,238.19L201,237.26L204.59,232.6L205.79,232.6L210.57,231.98L211.77,231.98L214.16,231.05L215.36,230.12L217.75,228.88L218.95,227.95L221.34,226.4L222.54,225.78L224.93,225.47L226.13,223.29L236.89,217.4L238.09,215.84L239.29,214.6L240.48,214.6L244.07,209.64L245.27,209.64L247.66,204.05L248.86,204.05L254.84,201.57L256.04,201.57L257.23,201.57L258.43,200.02L260.82,198.78L262.02,198.47L264.41,197.84L265.61,197.84L268,196.6L269.2,195.67L275.18,195.36L276.38,194.74L278.77,192.88L279.96,192.57L282.36,192.57L283.55,191.64L288.34,188.84L289.54,188.22L290.73,188.22L291.93,186.36L294.32,182.64L295.52,182.33L299.11,182.33L300.3,180.78L301.5,179.22" style="vector-effect: non-scaling-stroke; fill: none; stroke: rgb(67, 99, 216); stroke-opacity: 1; stroke-width: 2px; opacity: 1;"/></g><g class="points"/><g class="text"/></g><g class="trace scatter trace03ef77" style="stroke-miterlimit: 2; opacity: 1;"><g class="fills"/><g class="errorbars"/><g class="lines"><path class="js-line" d="M0,256.5L99.3,255.88L100.5,255.26L102.89,254.33L104.09,254.33L110.07,253.4L111.27,253.4L116.05,252.78L117.25,252.16L119.64,249.98L120.84,249.67L126.82,249.36L128.02,247.19L130.41,246.57L131.61,246.26L134,246.26L135.2,243.78L139.98,241.91L141.18,240.36L144.77,238.5L145.96,238.5L149.55,237.88L150.75,235.4L154.34,232.29L155.54,232.29L157.93,230.74L159.13,229.19L163.91,228.57L165.11,228.57L168.7,226.4L169.89,226.09L173.48,224.84L174.68,222.67L177.07,219.57L178.27,219.57L193.82,215.53L195.02,214.6L198.61,214.6L199.8,213.36L201,211.81L202.2,211.5L203.39,209.95L204.59,209.95L208.18,209.33L209.38,207.16L210.57,202.81L211.77,201.57L214.16,200.95L215.36,199.4L216.55,198.47L217.75,195.67L218.95,191.02L220.14,189.47L224.93,189.47L226.13,184.5L227.32,184.5L228.52,182.95L229.71,179.53L230.91,179.53L234.5,175.81L235.7,173.95L238.09,170.53L239.29,168.98L240.48,168.05L241.68,163.71L244.07,159.98L245.27,154.71L247.66,150.05L248.86,149.74L250.05,149.12L251.25,141.98L253.64,136.4L254.84,134.84L257.23,134.84L258.43,133.91L259.63,133.91L260.82,130.5L262.02,125.22L263.21,123.67L265.61,123.67L266.8,122.12L272.79,112.5L273.98,112.5L277.57,111.88L278.77,110.64L279.96,107.84L281.16,107.22L283.55,106.29L284.75,105.05L287.14,104.12L288.34,102.26L289.54,100.09L290.73,99.78L293.13,98.22L294.32,95.74L301.5,93.26" style="vector-effect: non-scaling-stroke; fill: none; stroke: rgb(245, 130, 49); stroke-opacity: 1; stroke-width: 2px; opacity: 1;"/></g><g class="points"/><g class="text"/></g><g class="trace scatter traceda5612" style="stroke-miterlimit: 2; opacity: 1;"><g class="fills"/><g class="errorbars"/><g class="lines"><path class="js-line" d="M0,256.5L75.38,255.88L76.57,255.57L80.16,254.33L81.36,254.33L82.55,253.71L83.75,251.84L89.73,250.6L90.93,246.88L94.52,242.84L95.71,242.53L98.11,241.91L99.3,240.05L101.7,236.95L102.89,236.95L104.09,234.47L105.29,234.47L106.48,234.16L107.68,229.5L110.07,225.47L111.27,224.84L112.46,222.05L113.66,222.05L114.86,221.43L116.05,219.88L118.45,218.02L119.64,214.91L124.43,209.95L125.63,207.47L129.21,202.19L130.41,202.19L131.61,202.19L132.8,197.53L135.2,194.43L136.39,191.95L139.98,191.02L141.18,187.6L143.57,181.71L144.77,181.4L145.96,179.22L147.16,179.22L149.55,179.22L150.75,177.36L151.95,175.81L153.14,175.81L154.34,173.02L155.54,173.02L156.73,173.02L157.93,170.84L161.52,165.26L162.71,164.64L165.11,164.64L166.3,163.09L171.09,157.5L172.29,157.5L174.68,156.26L175.88,155.02L179.46,151.6L180.66,151.6L183.05,151.6L184.25,148.81L187.84,144.78L189.04,144.47L190.23,144.47L191.43,143.22L195.02,136.4L196.21,136.4L198.61,136.4L199.8,132.67L203.39,126.16L204.59,125.53L206.98,125.53L208.18,121.19L211.77,110.02L212.96,108.16L215.36,108.16L216.55,105.36L218.95,97.6L220.14,93.88L221.34,91.09L222.54,91.09L223.73,91.09L224.93,86.74L229.71,81.16L230.91,81.16L232.11,81.16L233.3,80.22L235.7,75.57L236.89,74.64L238.09,72.47L239.29,72.16L240.48,72.16L241.68,69.67L246.46,62.22L247.66,62.22L248.86,62.22L250.05,60.05L252.45,56.64L253.64,54.16L254.84,51.67L256.04,51.67L257.23,51.67L258.43,50.12L265.61,44.84L266.8,42.98L269.2,39.26L270.39,38.95L273.98,37.09L275.18,37.09L276.38,32.74L277.57,31.5L279.96,28.71L281.16,28.71L282.36,28.71L283.55,26.22L287.14,21.57L288.34,20.64L290.73,20.64L291.93,19.09L293.13,18.47L294.32,16.6L296.71,15.98L297.91,15.67L299.11,15.67L300.3,14.12L301.5,13.5" style="vector-effect: non-scaling-stroke; fill: none; stroke: rgb(145, 30, 180); stroke-opacity: 1; stroke-width: 2px; opacity: 1;"/></g><g class="points"/><g class="text"/></g></g></g><g class="overplot"/><path class="xlines-above crisp" d="M0,0" style="fill: none;"/><path class="ylines-above crisp" d="M0,0" style="fill: none;"/><g class="overlines-above"/><g class="xaxislayer-above"><g class="x2tick"><text text-anchor="middle" x="0" y="383" transform="translate(495.1600000000001,0)" style="font-family: 'Open Sans', verdana, arial, sans-serif; font-size: 12px; fill: rgb(242, 245, 250); fill-opacity: 1; white-space: pre;">Mar 2020</text></g><g class="x2tick"><text text-anchor="middle" x="0" y="383" transform="translate(568.1400000000001,0)" style="font-family: 'Open Sans', verdana, arial, sans-serif; font-size: 12px; fill: rgb(242, 245, 250); fill-opacity: 1; white-space: pre;">May 2020</text></g><g class="x2tick"><text text-anchor="middle" x="0" y="383" transform="translate(641.1300000000001,0)" style="font-family: 'Open Sans', verdana, arial, sans-serif; font-size: 12px; fill: rgb(242, 245, 250); fill-opacity: 1; white-space: pre;">Jul 2020</text></g><g class="x2tick"><text text-anchor="middle" x="0" y="383" transform="translate(715.3000000000001,0)" style="font-family: 'Open Sans', verdana, arial, sans-serif; font-size: 12px; fill: rgb(242, 245, 250); fill-opacity: 1; white-space: pre;">Sep 2020</text></g></g><g class="yaxislayer-above"><g class="y2tick"><text text-anchor="end" x="447.50000000000006" y="4.199999999999999" transform="translate(0,356.5)" style="font-family: 'Open Sans', verdana, arial, sans-serif; font-size: 12px; fill: rgb(242, 245, 250); fill-opacity: 1; white-space: pre;">0</text></g><g class="y2tick"><text text-anchor="end" x="447.50000000000006" y="4.199999999999999" transform="translate(0,294.43)" style="font-family: 'Open Sans', verdana, arial, sans-serif; font-size: 12px; fill: rgb(242, 245, 250); fill-opacity: 1; white-space: pre;">200</text></g><g class="y2tick"><text text-anchor="end" x="447.50000000000006" y="4.199999999999999" transform="translate(0,232.36)" style="font-family: 'Open Sans', verdana, arial, sans-serif; font-size: 12px; fill: rgb(242, 245, 250); fill-opacity: 1; white-space: pre;">400</text></g><g class="y2tick"><text text-anchor="end" x="447.50000000000006" y="4.199999999999999" transform="translate(0,170.29000000000002)" style="font-family: 'Open Sans', verdana, arial, sans-serif; font-size: 12px; fill: rgb(242, 245, 250); fill-opacity: 1; white-space: pre;">600</text></g><g class="y2tick"><text text-anchor="end" x="447.50000000000006" y="4.199999999999999" transform="translate(0,108.22)" style="font-family: 'Open Sans', verdana, arial, sans-serif; font-size: 12px; fill: rgb(242, 245, 250); fill-opacity: 1; white-space: pre;">800</text></g></g><g class="overaxes-above"/></g></g><g class="polarlayer"/><g class="ternarylayer"/><g class="geolayer"/><g class="funnelarealayer"/><g class="pielayer"/><g class="treemaplayer"/><g class="sunburstlayer"/><g class="glimages"/><defs id="topdefs-47efb8"><g class="clips"/><clipPath id="legend47efb8"><rect width="125" height="124" x="0" y="0"/></clipPath></defs><g class="layer-above"><g class="imagelayer"/><g class="shapelayer"/></g><g class="infolayer"><g class="legend" pointer-events="all" transform="translate(763.4, 100)"><rect class="bg" shape-rendering="crispEdges" width="125" height="124" x="0" y="0" style="stroke: rgb(68, 68, 68); stroke-opacity: 1; fill: rgb(17, 17, 17); fill-opacity: 1; stroke-width: 0px;"/><g class="scrollbox" transform="translate(0, 0)" clip-path="url('#legend47efb8')"><g class="groups"><g class="traces" transform="translate(0, 14.5)" style="opacity: 1;"><text class="legendtext user-select-none" text-anchor="start" x="40" y="4.680000000000001" style="font-family: 'Open Sans', verdana, arial, sans-serif; font-size: 12px; fill: rgb(242, 245, 250); fill-opacity: 1; white-space: pre;">Alameda, CA</text><g class="layers" style="opacity: 1;"><g class="legendfill"/><g class="legendlines"><path class="js-line" d="M5,0h30" style="fill: none; stroke: rgb(230, 25, 75); stroke-opacity: 1; stroke-width: 2px;"/></g><g class="legendsymbols"><g class="legendpoints"/></g></g><rect class="legendtoggle" pointer-events="all" x="0" y="-9.5" width="119.390625" height="19" style="cursor: pointer; fill: rgb(0, 0, 0); fill-opacity: 0;"/></g><g class="traces" transform="translate(0, 33.5)" style="opacity: 1;"><text class="legendtext user-select-none" text-anchor="start" x="40" y="4.680000000000001" style="font-family: 'Open Sans', verdana, arial, sans-serif; font-size: 12px; fill: rgb(242, 245, 250); fill-opacity: 1; white-space: pre;">Polk, FL</text><g class="layers" style="opacity: 1;"><g class="legendfill"/><g class="legendlines"><path class="js-line" d="M5,0h30" style="fill: none; stroke: rgb(60, 180, 75); stroke-opacity: 1; stroke-width: 2px;"/></g><g class="legendsymbols"><g class="legendpoints"/></g></g><rect class="legendtoggle" pointer-events="all" x="0" y="-9.5" width="119.390625" height="19" style="cursor: pointer; fill: rgb(0, 0, 0); fill-opacity: 0;"/></g><g class="traces" transform="translate(0, 52.5)" style="opacity: 1;"><text class="legendtext user-select-none" text-anchor="start" x="40" y="4.680000000000001" style="font-family: 'Open Sans', verdana, arial, sans-serif; font-size: 12px; fill: rgb(242, 245, 250); fill-opacity: 1; white-space: pre;">Pinellas, FL</text><g class="layers" style="opacity: 1;"><g class="legendfill"/><g class="legendlines"><path class="js-line" d="M5,0h30" style="fill: none; stroke: rgb(255, 225, 25); stroke-opacity: 1; stroke-width: 2px;"/></g><g class="legendsymbols"><g class="legendpoints"/></g></g><rect class="legendtoggle" pointer-events="all" x="0" y="-9.5" width="119.390625" height="19" style="cursor: pointer; fill: rgb(0, 0, 0); fill-opacity: 0;"/></g><g class="traces" transform="translate(0, 71.5)" style="opacity: 1;"><text class="legendtext user-select-none" text-anchor="start" x="40" y="4.680000000000001" style="font-family: 'Open Sans', verdana, arial, sans-serif; font-size: 12px; fill: rgb(242, 245, 250); fill-opacity: 1; white-space: pre;">Volusia, FL</text><g class="layers" style="opacity: 1;"><g class="legendfill"/><g class="legendlines"><path class="js-line" d="M5,0h30" style="fill: none; stroke: rgb(67, 99, 216); stroke-opacity: 1; stroke-width: 2px;"/></g><g class="legendsymbols"><g class="legendpoints"/></g></g><rect class="legendtoggle" pointer-events="all" x="0" y="-9.5" width="119.390625" height="19" style="cursor: pointer; fill: rgb(0, 0, 0); fill-opacity: 0;"/></g><g class="traces" transform="translate(0, 90.5)" style="opacity: 1;"><text class="legendtext user-select-none" text-anchor="start" x="40" y="4.680000000000001" style="font-family: 'Open Sans', verdana, arial, sans-serif; font-size: 12px; fill: rgb(242, 245, 250); fill-opacity: 1; white-space: pre;">El Paso, TX</text><g class="layers" style="opacity: 1;"><g class="legendfill"/><g class="legendlines"><path class="js-line" d="M5,0h30" style="fill: none; stroke: rgb(245, 130, 49); stroke-opacity: 1; stroke-width: 2px;"/></g><g class="legendsymbols"><g class="legendpoints"/></g></g><rect class="legendtoggle" pointer-events="all" x="0" y="-9.5" width="119.390625" height="19" style="cursor: pointer; fill: rgb(0, 0, 0); fill-opacity: 0;"/></g><g class="traces" transform="translate(0, 109.5)" style="opacity: 1;"><text class="legendtext user-select-none" text-anchor="start" x="40" y="4.680000000000001" style="font-family: 'Open Sans', verdana, arial, sans-serif; font-size: 12px; fill: rgb(242, 245, 250); fill-opacity: 1; white-space: pre;">San Diego, CA</text><g class="layers" style="opacity: 1;"><g class="legendfill"/><g class="legendlines"><path class="js-line" d="M5,0h30" style="fill: none; stroke: rgb(145, 30, 180); stroke-opacity: 1; stroke-width: 2px;"/></g><g class="legendsymbols"><g class="legendpoints"/></g></g><rect class="legendtoggle" pointer-events="all" x="0" y="-9.5" width="119.390625" height="19" style="cursor: pointer; fill: rgb(0, 0, 0); fill-opacity: 0;"/></g></g></g><rect class="scrollbar" rx="20" ry="3" width="0" height="0" x="0" y="0" style="fill: rgb(128, 139, 164); fill-opacity: 1;"/></g><g class="g-gtitle"/><g class="g-xtitle"><text class="xtitle" x="230.75" y="410.8" text-anchor="middle" style="font-family: 'Open Sans', verdana, arial, sans-serif; font-size: 14px; fill: rgb(242, 245, 250); opacity: 1; font-weight: normal; white-space: pre;">Date</text></g><g class="g-x2title"><text class="x2title" x="599.25" y="410.8" text-anchor="middle" style="font-family: 'Open Sans', verdana, arial, sans-serif; font-size: 14px; fill: rgb(242, 245, 250); opacity: 1; font-weight: normal; white-space: pre;">Date</text></g><g class="g-ytitle"><text class="ytitle" transform="rotate(-90,34.840625,235)" x="34.840625" y="235" text-anchor="middle" style="font-family: 'Open Sans', verdana, arial, sans-serif; font-size: 14px; fill: rgb(242, 245, 250); opacity: 1; font-weight: normal; white-space: pre;">Cases</text></g><g class="g-y2title"><text class="y2title" transform="rotate(-90,402.66875,235)" x="402.66875" y="235" text-anchor="middle" style="font-family: 'Open Sans', verdana, arial, sans-serif; font-size: 14px; fill: rgb(242, 245, 250); opacity: 1; font-weight: normal; white-space: pre;">Deaths</text></g><g class="annotation" data-index="0" style="opacity: 1;"><g class="annotation-text-g" transform="rotate(0,230.75,89.5)"><g class="cursor-pointer" transform="translate(206, 79)"><rect class="bg" x="0.5" y="0.5" width="48" height="20" style="stroke-width: 1px; stroke: rgb(0, 0, 0); stroke-opacity: 0; fill: rgb(0, 0, 0); fill-opacity: 0;"/><text class="annotation-text" text-anchor="middle" x="24.6875" y="16" style="font-family: 'Open Sans', verdana, arial, sans-serif; font-size: 16px; fill: rgb(242, 245, 250); fill-opacity: 1; white-space: pre;">Cases</text></g></g></g><g class="annotation" data-index="1" style="opacity: 1;"><g class="annotation-text-g" transform="rotate(0,599.25,89.5)"><g class="cursor-pointer" transform="translate(572, 79)"><rect class="bg" x="0.5" y="0.5" width="54" height="20" style="stroke-width: 1px; stroke: rgb(0, 0, 0); stroke-opacity: 0; fill: rgb(0, 0, 0); fill-opacity: 0;"/><text class="annotation-text" text-anchor="middle" x="27.359375" y="16" style="font-family: 'Open Sans', verdana, arial, sans-serif; font-size: 16px; fill: rgb(242, 245, 250); fill-opacity: 1; white-space: pre;">Deaths</text></g></g></g></g></svg>