<svg class="main-svg" xmlns="http://www.w3.org/2000/svg" xmlns:xlink="http://www.w3.org/1999/xlink" width="900" height="450" style="" viewBox="0 0 900 450"><rect x="0" y="0" width="900" height="450" style="fill: rgb(17, 17, 17); fill-opacity: 1;"/><defs id="defs-f1ebe1"><g class="clips"><clipPath id="clipf1ebe1xyplot" class="plotclip"><rect width="297.45" height="270"/></clipPath><clipPath id="clipf1ebe1x2y2plot" class="plotclip"><rect width="297.45" height="270"/></clipPath><clipPath class="axesclip" id="clipf1ebe1x"><rect x="80" y="0" width="297.45" height="450"/></clipPath><clipPath class="axesclip" id="clipf1ebe1y"><rect x="0" y="100" width="900" height="270"/></clipPath><clipPath class="axesclip" id="clipf1ebe1xy"><rect x="80" y="100" width="297.45" height="270"/></clipPath><clipPath class="axesclip" id="clipf1ebe1y2"><rect x="0" y="100" width="900" height="270"/></clipPath><clipPath class="axesclip" id="clipf1ebe1xy2"><rect x="80" y="100" width="297.45" height="270"/></clipPath><clipPath class="axesclip" id="clipf1ebe1x2"><rect x="443.55" y="0" width="297.45" height="450"/></clipPath><clipPath class="axesclip" id="clipf1ebe1x2y"><rect x="443.55" y="100" width="297.45" height="270"/></clipPath><clipPath class="axesclip" id="clipf1ebe1x2y2"><rect x="443.55" y="100" width="297.45" height="270"/></clipPath></g><g class="gradients"/></defs><g class="bglayer"/><g class="layer-below"><g class="imagelayer"/><g class="shapelayer"/></g><g class="cartesianlayer"><g class="subplot xy"><g class="layer-subplot"><g class="shapelayer"/><g class="imagelayer"/></g><g class="gridlayer"><g class="x"><path class="xgrid crisp" transform="translate(118.93,0)" d="M0,100v270" style="stroke: rgb(40, 52, 66); stroke-opacity: 1; stroke-width: 1px;"/><path class="xgrid crisp" transform="translate(179.82,0)" d="M0,100v270" style="stroke: rgb(40, 52, 66); stroke-opacity: 1; stroke-width: 1px;"/><path class="xgrid crisp" transform="translate(240.7,0)" d="M0,100v270" style="stroke: rgb(40, 52, 66); stroke-opacity: 1; stroke-width: 1px;"/><path class="xgrid crisp" transform="translate(302.59000000000003,0)" d="M0,100v270" style="stroke: rgb(40, 52, 66); stroke-opacity: 1; stroke-width: 1px;"/><path class="xgrid crisp" transform="translate(363.48,0)" d="M0,100v270" style="stroke: rgb(40, 52, 66); stroke-opacity: 1; stroke-width: 1px;"/></g><g class="y"><path class="ygrid crisp" transform="translate(0,291.97)" d="M80,0h297.45" style="stroke: rgb(40, 52, 66); stroke-opacity: 1; stroke-width: 1px;"/><path class="ygrid crisp" transform="translate(0,227.44)" d="M80,0h297.45" style="stroke: rgb(40, 52, 66); stroke-opacity: 1; stroke-width: 1px;"/><path class="ygrid crisp" transform="translate(0,162.92000000000002)" d="M80,0h297.45" style="stroke: rgb(40, 52, 66); stroke-opacity: 1; stroke-width: 1px;"/></g></g><g class="zerolinelayer"><path class="yzl zl crisp" transform="translate(0,356.5)" d="M80,0h297.45" style="stroke: rgb(40, 52, 66); stroke-opacity: 1; stroke-width: 2px;"/></g><path class="xlines-below"/><path class="ylines-below"/><g class="overlines-below"/><g class="xaxislayer-below"/><g class="yaxislayer-below"/><g class="overaxes-below"/><g class="plot" transform="translate(80, 100)" clip-path="url('#clipf1ebe1xyplot')"><g class="scatterlayer mlayer"><g class="trace scatter tracee9f5a2" style="stroke-miterlimit: 2; opacity: 1;"><g class="fills"/><g class="errorbars"/><g class="lines"><path class="js-line" d="M0,256.5L59.89,255.82L60.89,255.71L64.88,255.08L65.88,254.85L71.87,253.64L72.87,253.03L82.85,250.8L83.84,250.29L119.78,239.66L120.78,239.03L128.76,235.28L129.76,234.62L138.74,230.79L139.74,230.48L149.72,225.49L150.72,225.49L153.72,222.46L154.71,221.77L159.7,218.02L160.7,216.78L162.7,214.74L163.7,214.2L164.7,212.27L165.69,212.06L166.69,212.06L167.69,209.75L170.68,206.65L171.68,206.65L177.67,197.71L178.67,196.9L180.67,195.95L181.66,194.28L184.66,189.84L185.66,189.58L186.65,189.15L187.65,187.89L188.65,186.98L189.65,184.67L190.65,184.67L191.65,182.4L192.64,182.14L193.64,180.06L194.64,179.65L195.64,178.19L198.63,178.19L199.63,171.33L200.63,171.21L201.63,168.33L203.62,164.68L204.62,162.56L205.62,162.56L206.62,158.91L207.62,158.87L208.61,156.89L211.61,150.23L212.61,148.78L214.6,148.53L215.6,145.03L217.6,142.79L218.6,141.34L219.59,141.34L220.59,140.09L222.59,137.48L223.59,135.86L226.58,133.05L227.58,133.05L228.58,131.64L229.58,131.64L231.57,129.32L232.57,128.61L233.57,128.5L234.57,127.5L238.56,126.4L239.56,125.09L243.55,122.62L244.55,122.03L248.54,119.77L249.54,119.44L257.52,115.77L258.52,115.54L262.51,113.58L263.51,113.58L265.51,112.44L266.51,112.15L268.5,111.58L269.5,110.43L277.49,105.56L278.49,105.56L281.48,103.08L282.48,102.43L287.47,99.24L288.47,98.94L291.46,95.17L292.46,94.47L297.45,89.55" style="vector-effect: non-scaling-stroke; fill: none; stroke: rgb(230, 25, 75); stroke-opacity: 1; stroke-width: 2px; opacity: 1;"/></g><g class="points"/><g class="text"/></g><g class="trace scatter tracea346f6" style="stroke-miterlimit: 2; opacity: 1;"><g class="fills"/><g class="errorbars"/><g class="lines"><path class="js-line" d="M0,256.5L77.86,255.82L78.85,255.73L96.82,253.25L97.82,253.09L128.76,247.14L129.76,246.06L148.72,241.46L149.72,241.22L156.71,239.88L157.71,239.74L186.65,234.72L187.65,234.46L196.64,232.46L197.63,232.05L216.6,225.64L217.6,225.19L223.59,223.67L224.58,223.24L236.56,219.52L237.56,219.26L254.53,213.92L255.53,213.59L260.52,211.52L261.52,210.95L273.49,203.82L274.49,202.86L281.48,196.42L282.48,195.05L286.47,190.51L287.47,188.89L295.45,171.38L296.45,167.37L297.45,164.45" style="vector-effect: non-scaling-stroke; fill: none; stroke: rgb(60, 180, 75); stroke-opacity: 1; stroke-width: 2px; opacity: 1;"/></g><g class="points"/><g class="text"/></g><g class="trace scatter trace7aa90c" style="stroke-miterlimit: 2; opacity: 1;"><g class="fills"/><g class="errorbars"/><g class="lines"><path class="js-line" d="M0,256.5L103.81,255.77L104.81,255.69L141.74,254.13L142.74,254.02L168.69,252.57L169.69,252.45L185.66,249.93L186.65,249.81L193.64,247.85L194.64,247.47L215.6,242.17L216.6,241.95L224.58,240.59L225.58,240.08L239.56,236.3L240.56,236.02L272.5,228.52L273.49,228.19L280.48,225.33L281.48,224.93L282.48,224.93L283.48,223.7L287.47,221.47L288.47,220.38L295.45,213.72L296.45,212.49L297.45,211.79" style="vector-effect: non-scaling-stroke; fill: none; stroke: rgb(255, 225, 25); stroke-opacity: 1; stroke-width: 2px; opacity: 1;"/></g><g class="points"/><g class="text"/></g><g class="trace scatter traceff24e9" style="stroke-miterlimit: 2; opacity: 1;"><g class="fills"/><g class="errorbars"/><g class="lines"><path class="js-line" d="M0,256.5L96.82,255.75L97.82,255.73L122.77,253.23L123.77,253.1L134.75,251.98L135.75,251.91L161.7,249.74L162.7,249.6L167.69,249L168.69,248.82L178.67,247.09L179.67,247.05L186.65,245.53L187.65,245.38L223.59,236.68L224.58,236.34L231.57,235.1L232.57,234.98L247.54,231.99L248.54,231.71L262.51,227.33L263.51,226.43L265.51,226.02L266.51,224.61L267.51,224.61L268.5,223.16L269.5,223.16L270.5,222.27L272.5,222.27L273.49,221.21L274.49,218.88L275.49,218.88L280.48,214.62L281.48,212.23L283.48,210.74L284.47,209.14L285.47,209.14L286.47,207.98L289.46,204.14L290.46,202.22L292.46,199.02L293.46,195.88L294.46,195.88L295.45,193.84L297.45,187.53" style="vector-effect: non-scaling-stroke; fill: none; stroke: rgb(67, 99, 216); stroke-opacity: 1; stroke-width: 2px; opacity: 1;"/></g><g class="points"/><g class="text"/></g><g class="trace scatter trace59be6c" style="stroke-miterlimit: 2; opacity: 1;"><g class="fills"/><g class="errorbars"/><g class="lines"><path class="js-line" d="M0,256.5L58.89,255.87L59.89,255.69L65.88,254.13L66.88,253.87L76.86,250.52L77.86,250.52L83.84,250.52L84.84,246.5L91.83,242.48L92.83,241.11L110.8,229.48L111.79,229.05L118.78,225.15L119.78,224.57L122.77,223.12L123.77,222.84L126.77,221.44L127.76,220.56L130.76,219.06L131.76,218.73L138.74,216.65L139.74,216.47L148.72,214.14L149.72,213.89L154.71,212.4L155.71,211.97L167.69,207.7L168.69,207.13L172.68,205.19L173.68,204.81L182.66,199.66L183.66,198.82L185.66,197.1L186.65,196.77L189.65,195.01L190.65,194.4L203.62,189.22L204.62,188.93L214.6,185.96L215.6,185.38L217.6,185.02L218.6,184.57L225.58,182.83L226.58,182.83L239.56,177.55L240.56,177.05L250.54,170.69L251.53,170.3L259.52,164.24L260.52,163.13L271.5,151.71L272.5,150.76L276.49,144.18L277.49,141.72L281.48,134.3L282.48,134.3L284.47,125.43L285.47,123.44L287.47,117.47L288.47,113.87L294.46,91.67L295.45,86.17L297.45,77.63" style="vector-effect: non-scaling-stroke; fill: none; stroke: rgb(245, 130, 49); stroke-opacity: 1; stroke-width: 2px; opacity: 1;"/></g><g class="points"/><g class="text"/></g><g class="trace scatter trace8bae1e" style="stroke-miterlimit: 2; opacity: 1;"><g class="fills"/><g class="errorbars"/><g class="lines"><path class="js-line" d="M0,256.5L61.89,255.85L62.88,255.67L68.87,253.33L69.87,252.6L72.87,250.92L73.86,250.8L78.85,246.83L79.85,246.38L83.84,243.99L84.84,243.43L92.83,239.56L93.83,238.96L108.8,231.95L109.8,231.8L120.78,228.32L121.77,227.89L138.74,223.44L139.74,223.2L152.72,219.89L153.72,219.58L156.71,217.58L157.71,217.58L160.7,215.54L161.7,215.18L166.69,212.33L167.69,211.53L168.69,211.53L169.69,209.27L173.68,205.84L174.68,204.35L180.67,197.75L181.66,195.99L186.65,184.54L187.65,183.58L190.65,175.16L191.65,173.71L193.64,171.37L194.64,169.53L197.63,164.98L198.63,164.98L205.62,154L206.62,153.25L210.61,148.36L211.61,147.2L230.57,126.36L231.57,125.84L236.56,120.67L237.56,119.95L242.55,115.39L243.55,114.72L246.54,111.94L247.54,110.45L250.54,108.83L251.53,106.45L255.53,103.25L256.53,102.6L260.52,99.14L261.52,95.67L264.51,95.67L265.51,94.03L267.51,92.98L268.5,89.82L269.5,88.21L270.5,88.21L272.5,83.44L273.49,82.48L275.49,77.45L276.49,76.18L278.49,73.51L279.48,73.51L282.48,64.9L283.48,62.69L287.47,53.5L288.47,49.49L292.46,34.39L293.46,13.5L294.46,21.82L295.45,21.82L297.45,14.42" style="vector-effect: non-scaling-stroke; fill: none; stroke: rgb(145, 30, 180); stroke-opacity: 1; stroke-width: 2px; opacity: 1;"/></g><g class="points"/><g class="text"/></g></g></g><g class="overplot"/><path class="xlines-above crisp" d="M0,0" style="fill: none;"/><path class="ylines-above crisp" d="M0,0" style="fill: none;"/><g class="overlines-above"/><g class="xaxislayer-above"><g class="xtick"><text text-anchor="middle" x="0" y="383" transform="translate(118.93,0)" style="font-family: 'Open Sans', verdana, arial, sans-serif; font-size: 12px; fill: rgb(242, 245, 250); fill-opacity: 1; white-space: pre;">Mar 2020</text></g><g class="xtick"><text text-anchor="middle" x="0" y="383" transform="translate(179.82,0)" style="font-family: 'Open Sans', verdana, arial, sans-serif; font-size: 12px; fill: rgb(242, 245, 250); fill-opacity: 1; white-space: pre;">May 2020</text></g><g class="xtick"><text text-anchor="middle" x="0" y="383" transform="translate(240.7,0)" style="font-family: 'Open Sans', verdana, arial, sans-serif; font-size: 12px; fill: rgb(242, 245, 250); fill-opacity: 1; white-space: pre;">Jul 2020</text></g><g class="xtick"><text text-anchor="middle" x="0" y="383" transform="translate(302.59000000000003,0)" style="font-family: 'Open Sans', verdana, arial, sans-serif; font-size: 12px; fill: rgb(242, 245, 250); fill-opacity: 1; white-space: pre;">Sep 2020</text></g><g class="xtick"><text text-anchor="middle" x="0" y="383" transform="translate(363.48,0)" style="font-family: 'Open Sans', verdana, arial, sans-serif; font-size: 12px; fill: rgb(242, 245, 250); fill-opacity: 1; white-space: pre;">Nov 2020</text></g></g><g class="yaxislayer-above"><g class="ytick"><text text-anchor="end" x="79" y="4.199999999999999" transform="translate(0,356.5)" style="font-family: 'Open Sans', verdana, arial, sans-serif; font-size: 12px; fill: rgb(242, 245, 250); fill-opacity: 1; white-space: pre;">0</text></g><g class="ytick"><text text-anchor="end" x="79" y="4.199999999999999" transform="translate(0,291.97)" style="font-family: 'Open Sans', verdana, arial, sans-serif; font-size: 12px; fill: rgb(242, 245, 250); fill-opacity: 1; white-space: pre;">10k</text></g><g class="ytick"><text text-anchor="end" x="79" y="4.199999999999999" transform="translate(0,227.44)" style="font-family: 'Open Sans', verdana, arial, sans-serif; font-size: 12px; fill: rgb(242, 245, 250); fill-opacity: 1; white-space: pre;">20k</text></g><g class="ytick"><text text-anchor="end" x="79" y="4.199999999999999" transform="translate(0,162.92000000000002)" style="font-family: 'Open Sans', verdana, arial, sans-serif; font-size: 12px; fill: rgb(242, 245, 250); fill-opacity: 1; white-space: pre;">30k</text></g></g><g class="overaxes-above"/></g><g class="subplot x2y2"><g class="layer-subplot"><g class="shapelayer"/><g class="imagelayer"/></g><g class="gridlayer"><g class="x2"><path class="x2grid crisp" transform="translate(482.48,0)" d="M0,100v270" style="stroke: rgb(40, 52, 66); stroke-opacity: 1; stroke-width: 1px;"/><path class="x2grid crisp" transform="translate(543.37,0)" d="M0,100v270" style="stroke: rgb(40, 52, 66); stroke-opacity: 1; stroke-width: 1px;"/><path class="x2grid crisp" transform="translate(604.25,0)" d="M0,100v270" style="stroke: rgb(40, 52, 66); stroke-opacity: 1; stroke-width: 1px;"/><path class="x2grid crisp" transform="translate(666.14,0)" d="M0,100v270" style="stroke: rgb(40, 52, 66); stroke-opacity: 1; stroke-width: 1px;"/><path class="x2grid crisp" transform="translate(727.03,0)" d="M0,100v270" style="stroke: rgb(40, 52, 66); stroke-opacity: 1; stroke-width: 1px;"/></g><g class="y2"><path class="y2grid crisp" transform="translate(0,302.56)" d="M443.55,0h297.45" style="stroke: rgb(40, 52, 66); stroke-opacity: 1; stroke-width: 1px;"/><path class="y2grid crisp" transform="translate(0,248.62)" d="M443.55,0h297.45" style="stroke: rgb(40, 52, 66); stroke-opacity: 1; stroke-width: 1px;"/><path class="y2grid crisp" transform="translate(0,194.68)" d="M443.55,0h297.45" style="stroke: rgb(40, 52, 66); stroke-opacity: 1; stroke-width: 1px;"/><path class="y2grid crisp" transform="translate(0,140.74)" d="M443.55,0h297.45" style="stroke: rgb(40, 52, 66); stroke-opacity: 1; stroke-width: 1px;"/></g></g><g class="zerolinelayer"><path class="y2zl zl crisp" transform="translate(0,356.5)" d="M443.55,0h297.45" style="stroke: rgb(40, 52, 66); stroke-opacity: 1; stroke-width: 2px;"/></g><path class="xlines-below"/><path class="ylines-below"/><g class="overlines-below"/><g class="xaxislayer-below"/><g class="yaxislayer-below"/><g class="overaxes-below"/><g class="plot" transform="translate(443.55, 100)" clip-path="url('#clipf1ebe1x2y2plot')"><g class="scatterlayer mlayer"><g class="trace scatter trace40a2eb" style="stroke-miterlimit: 2; opacity: 1;"><g class="fills"/><g class="errorbars"/><g class="lines"><path class="js-line" d="M0,256.5L62.88,255.96L63.88,255.42L65.88,254.88L66.88,254.61L70.87,254.07L71.87,253.26L74.86,252.99L75.86,252.45L79.85,250.84L80.85,250.3L82.85,250.3L83.84,246.79L85.84,245.98L86.84,245.44L92.83,243.55L93.83,242.48L95.82,242.48L96.82,241.67L101.81,239.51L102.81,239.51L104.81,238.7L105.8,238.43L107.8,237.35L108.8,237.35L109.8,237.35L110.8,236.54L115.79,234.11L116.78,234.11L119.78,232.23L120.78,232.23L123.77,231.42L124.77,231.42L128.76,230.88L129.76,230.61L133.75,230.34L134.75,229.26L138.74,228.99L139.74,228.18L141.74,227.1L142.74,227.1L144.73,226.29L145.73,226.29L147.73,224.95L148.72,224.68L152.72,224.14L153.72,223.6L155.71,221.44L156.71,221.44L158.71,220.63L159.7,220.09L164.7,218.74L165.69,218.74L167.69,218.2L168.69,217.12L172.68,216.58L173.68,215.51L175.68,214.97L176.67,213.08L179.67,212.81L180.67,211.46L183.66,208.49L184.66,208.49L186.65,208.49L187.65,207.68L190.65,207.41L191.65,205.53L193.64,205.53L194.64,204.72L197.63,204.45L198.63,204.45L199.63,201.21L200.63,201.21L201.63,201.21L202.63,199.32L204.62,197.44L205.62,197.44L209.61,195.01L210.61,194.2L213.61,193.39L214.6,193.39L216.6,190.96L217.6,190.69L219.59,189.88L220.59,187.19L222.59,187.19L223.59,182.6L224.58,176.94L225.58,176.67L227.58,175.86L228.58,175.59L229.58,175.59L230.57,174.78L231.57,174.78L232.57,170.2L233.57,170.2L234.57,166.96L235.56,166.69L236.56,160.49L237.56,160.49L238.56,158.06L240.56,155.63L241.55,155.63L242.55,155.63L243.55,151.32L247.54,147L248.54,147L250.54,146.46L251.53,145.38L252.53,143.23L253.53,143.23L254.53,141.88L255.53,141.88L257.52,141.34L258.52,140.26L271.5,139.99L272.5,139.18L273.49,133.52L274.49,133.52L276.49,132.17L277.49,132.17L281.48,131.63L282.48,131.63L287.47,131.09L288.47,129.47L290.46,128.66L291.46,128.66L292.46,128.66L293.46,126.23L296.45,124.62L297.45,124.35" style="vector-effect: non-scaling-stroke; fill: none; stroke: rgb(230, 25, 75); stroke-opacity: 1; stroke-width: 2px; opacity: 1;"/></g><g class="points"/><g class="text"/></g><g class="trace scatter traceeaee21" style="stroke-miterlimit: 2; opacity: 1;"><g class="fills"/><g class="errorbars"/><g class="lines"><path class="js-line" d="M0,256.5L73.86,255.96L74.86,255.42L78.85,254.07L79.85,253.8L81.85,253.8L82.85,252.99L85.84,252.18L86.84,252.18L89.83,250.57L90.83,250.57L96.82,250.57L97.82,244.9L98.82,243.01L99.82,242.75L107.8,240.86L108.8,240.86L112.79,240.32L113.79,240.32L116.78,240.05L117.78,238.97L126.77,238.7L127.76,238.16L131.76,237.62L132.75,237.35L135.75,237.08L136.75,236.54L138.74,235.73L139.74,235.73L143.73,234.92L144.73,233.58L148.72,231.96L149.72,231.96L150.72,231.96L151.72,230.88L153.72,230.34L154.71,230.34L157.71,228.45L158.71,227.91L161.7,224.95L162.7,221.98L168.69,220.63L169.69,220.63L180.67,217.66L181.66,216.58L186.65,215.51L187.65,215.51L189.65,214.7L190.65,214.16L194.64,213.89L195.64,213.35L197.63,213.08L198.63,212.54L204.62,212.27L205.62,211.73L207.62,211.73L208.61,210.92L211.61,210.11L212.61,210.11L215.6,209.57L216.6,206.34L219.59,206.07L220.59,206.07L227.58,204.72L228.58,204.72L230.57,203.37L231.57,203.37L234.57,201.75L235.56,201.75L237.56,200.67L238.56,200.4L244.55,199.86L245.55,199.59L255.53,197.44L256.53,197.44L262.51,196.9L263.51,196.63L265.51,196.36L266.51,195.28L268.5,194.2L269.5,193.93L272.5,193.66L273.49,192.04L275.49,191.5L276.49,191.5L289.46,187.73L290.46,186.11L294.46,183.68L295.45,182.6L297.45,181.79" style="vector-effect: non-scaling-stroke; fill: none; stroke: rgb(60, 180, 75); stroke-opacity: 1; stroke-width: 2px; opacity: 1;"/></g><g class="points"/><g class="text"/></g><g class="trace scatter tracecce1f2" style="stroke-miterlimit: 2; opacity: 1;"><g class="fills"/><g class="errorbars"/><g class="lines"><path class="js-line" d="M0,256.5L97.82,255.96L98.82,255.69L109.8,255.15L110.8,254.88L128.76,254.34L129.76,254.07L137.75,253.53L138.74,252.99L140.74,251.92L141.74,251.65L143.73,251.11L144.73,251.11L148.72,250.57L149.72,250.3L151.72,249.76L152.72,249.76L157.71,248.95L158.71,248.95L176.67,248.41L177.67,248.14L187.65,247.6L188.65,247.33L202.63,246.79L203.62,246.52L215.6,245.98L216.6,245.71L231.57,245.17L232.57,244.9L239.56,243.55L240.56,243.55L249.54,243.01L250.54,242.75L256.53,241.67L257.52,241.67L264.51,241.4L265.51,240.86L271.5,239.24L272.5,238.43L278.49,236.81L279.48,235.73L284.47,235.19L285.47,233.58L289.46,231.96L290.46,231.96L292.46,231.42L293.46,230.61L295.45,230.07L296.45,228.18L297.45,227.64" style="vector-effect: non-scaling-stroke; fill: none; stroke: rgb(255, 225, 25); stroke-opacity: 1; stroke-width: 2px; opacity: 1;"/></g><g class="points"/><g class="text"/></g><g class="trace scatter traceee2339" style="stroke-miterlimit: 2; opacity: 1;"><g class="fills"/><g class="errorbars"/><g class="lines"><path class="js-line" d="M0,256.5L79.85,255.96L80.85,255.69L90.83,255.15L91.83,254.61L97.82,254.07L98.82,253.8L102.81,253.26L103.81,253.26L107.8,252.72L108.8,252.45L111.79,251.92L112.79,251.65L117.78,251.38L118.78,250.84L123.77,248.68L124.77,248.68L129.76,247.87L130.76,247.87L133.75,247.33L134.75,247.06L137.75,246.79L138.74,246.79L152.72,246.25L153.72,245.98L189.65,245.71L190.65,244.9L201.63,244.36L202.63,243.82L205.62,243.55L206.62,243.55L208.61,243.55L209.61,242.75L216.6,242.21L217.6,241.94L253.53,241.4L254.53,241.13L261.52,239.78L262.51,239.78L269.5,239.78L270.5,238.43L272.5,238.43L273.49,237.62L277.49,237.08L278.49,237.08L283.48,236.27L284.47,236.27L288.47,235.73L289.46,235.46L294.46,233.85L295.45,232.5L296.45,230.88L297.45,230.88" style="vector-effect: non-scaling-stroke; fill: none; stroke: rgb(67, 99, 216); stroke-opacity: 1; stroke-width: 2px; opacity: 1;"/></g><g class="points"/><g class="text"/></g><g class="trace scatter trace43b8e7" style="stroke-miterlimit: 2; opacity: 1;"><g class="fills"/><g class="errorbars"/><g class="lines"><path class="js-line" d="M0,256.5L61.89,256.5L62.88,255.69L66.88,255.15L67.87,254.88L70.87,253.53L71.87,252.72L74.86,252.45L75.86,248.14L77.86,246.25L78.85,245.17L80.85,244.09L81.85,244.09L83.84,240.05L84.84,239.51L85.84,238.7L86.84,236.54L87.84,236.27L88.84,234.11L90.83,230.61L91.83,230.07L92.83,221.98L93.83,220.9L94.82,220.9L95.82,220.09L97.82,216.04L98.82,214.97L99.82,212.54L100.81,212.27L102.81,211.73L103.81,205.8L105.8,202.83L106.8,202.02L110.8,198.78L111.79,193.66L112.79,192.58L113.79,189.61L115.79,185.03L116.78,183.14L118.78,177.21L119.78,176.67L121.77,176.13L122.77,176.13L123.77,176.13L124.77,175.32L126.77,169.12L127.76,168.58L130.76,167.77L131.76,166.96L136.75,165.07L137.75,162.64L138.74,162.37L139.74,160.22L150.72,157.52L151.72,157.52L153.72,156.98L154.71,156.98L155.71,155.63L156.71,155.63L158.71,155.09L159.7,153.74L166.69,153.2L167.69,152.13L168.69,152.4L169.69,150.24L173.68,149.97L174.68,149.43L177.67,149.16L178.67,149.16L180.67,148.89L181.66,148.08L186.65,147.27L187.65,147.27L189.65,146.46L190.65,145.92L192.64,145.38L193.64,145.38L199.63,144.84L200.63,144.57L202.63,144.03L203.62,144.03L209.61,142.96L210.61,142.96L213.61,142.69L214.6,142.69L216.6,142.15L217.6,141.88L218.6,141.88L219.59,141.07L242.55,140.53L243.55,139.72L256.53,139.45L257.52,138.91L260.52,138.64L261.52,138.1L271.5,137.56L272.5,136.75L275.49,136.21L276.49,135.67L281.48,134.87L282.48,134.87L285.47,134.6L286.47,134.6L289.46,132.98L290.46,132.98L294.46,131.9L295.45,130.55L297.45,128.66" style="vector-effect: non-scaling-stroke; fill: none; stroke: rgb(245, 130, 49); stroke-opacity: 1; stroke-width: 2px; opacity: 1;"/></g><g class="points"/><g class="text"/></g><g class="trace scatter traceaceb66" style="stroke-miterlimit: 2; opacity: 1;"><g class="fills"/><g class="errorbars"/><g class="lines"><path class="js-line" d="M0,256.5L67.87,255.96L68.87,255.69L72.87,255.15L73.86,253.26L76.86,252.45L77.86,248.95L78.85,247.87L79.85,245.17L81.85,245.17L82.85,242.21L84.84,238.7L85.84,237.08L86.84,234.92L87.84,234.65L88.84,234.38L89.83,231.96L91.83,228.18L92.83,223.87L93.83,222.25L94.82,222.25L95.82,219.55L96.82,213.62L97.82,213.62L98.82,212.81L100.81,208.76L101.81,208.76L102.81,208.76L103.81,205.53L105.8,197.17L106.8,190.15L110.8,181.52L111.79,177.48L115.79,166.69L116.78,165.88L118.78,161.57L119.78,155.09L123.77,152.4L124.77,152.4L126.77,149.97L127.76,144.57L128.76,137.83L129.76,137.56L131.76,137.02L132.75,136.75L133.75,136.21L134.75,134.6L135.75,133.25L136.75,133.25L137.75,131.36L138.74,127.58L139.74,126.5L140.74,123.54L142.74,122.19L143.73,122.19L145.73,121.65L146.73,116.8L147.73,110.59L148.72,110.05L150.72,108.97L151.72,108.7L154.71,106.28L155.71,104.39L158.71,104.39L159.7,101.42L162.7,100.34L163.7,100.34L165.69,100.07L166.69,97.65L168.69,97.65L169.69,96.84L171.68,96.57L172.68,94.95L174.68,94.41L175.68,94.41L176.67,93.06L177.67,93.06L180.67,92.79L181.66,89.56L183.66,88.21L184.66,88.21L185.66,86.05L186.65,86.05L187.65,86.05L188.65,83.35L191.65,82.27L192.64,82.27L196.64,80.93L197.63,78.77L198.63,78.77L199.63,77.69L200.63,77.69L201.63,76.88L205.62,75.26L206.62,72.29L207.62,68.79L208.61,68.79L213.61,66.9L214.6,66.9L216.6,65.01L217.6,65.01L220.59,62.32L221.59,59.08L223.59,57.73L224.58,57.73L225.58,57.73L226.58,56.65L229.58,56.38L230.57,55.84L232.57,52.61L233.57,52.61L235.56,52.61L236.56,50.72L238.56,50.18L239.56,49.1L242.55,49.1L243.55,44.79L245.55,43.98L246.54,43.44L247.54,40.74L248.54,40.74L250.54,40.74L251.53,38.85L253.53,38.58L254.53,37.77L256.53,37.5L257.52,35.35L259.52,35.08L260.52,31.3L262.51,30.22L263.51,30.22L264.51,30.22L265.51,26.99L271.5,26.99L272.5,25.37L273.49,25.1L274.49,23.48L276.49,23.48L277.49,22.4L279.48,21.32L280.48,20.78L281.48,19.43L282.48,19.43L283.48,19.43L284.47,18.35L288.47,17.82L289.46,17.82L290.46,17.82L291.46,15.93L293.46,14.04L294.46,13.5L297.45,13.5" style="vector-effect: non-scaling-stroke; fill: none; stroke: rgb(145, 30, 180); stroke-opacity: 1; stroke-width: 2px; opacity: 1;"/></g><g class="points"/><g class="text"/></g></g></g><g class="overplot"/><path class="xlines-above crisp" d="M0,0" style="fill: none;"/><path class="ylines-above crisp" d="M0,0" style="fill: none;"/><g class="overlines-above"/><g class="xaxislayer-above"><g class="x2tick"><text text-anchor="middle" x="0" y="383" transform="translate(482.48,0)" style="font-family: 'Open Sans', verdana, arial, sans-serif; font-size: 12px; fill: rgb(242, 245, 250); fill-opacity: 1; white-space: pre;">Mar 2020</text></g><g class="x2tick"><text text-anchor="middle" x="0" y="383" transform="translate(543.37,0)" style="font-family: 'Open Sans', verdana, arial, sans-serif; font-size: 12px; fill: rgb(242, 245, 250); fill-opacity: 1; white-space: pre;">May 2020</text></g><g class="x2tick"><text text-anchor="middle" x="0" y="383" transform="translate(604.25,0)" style="font-family: 'Open Sans', verdana, arial, sans-serif; font-size: 12px; fill: rgb(242, 245, 250); fill-opacity: 1; white-space: pre;">Jul 2020</text></g><g class="x2tick"><text text-anchor="middle" x="0" y="383" transform="translate(666.14,0)" style="font-family: 'Open Sans', verdana, arial, sans-serif; font-size: 12px; fill: rgb(242, 245, 250); fill-opacity: 1; white-space: pre;">Sep 2020</text></g><g class="x2tick"><text text-anchor="middle" x="0" y="383" transform="translate(727.03,0)" style="font-family: 'Open Sans', verdana, arial, sans-serif; font-size: 12px; fill: rgb(242, 245, 250); fill-opacity: 1; white-space: pre;">Nov 2020</text></g></g><g class="yaxislayer-above"><g class="y2tick"><text text-anchor="end" x="442.55" y="4.199999999999999" transform="translate(0,356.5)" style="font-family: 'Open Sans', verdana, arial, sans-serif; font-size: 12px; fill: rgb(242, 245, 250); fill-opacity: 1; white-space: pre;">0</text></g><g class="y2tick"><text text-anchor="end" x="442.55" y="4.199999999999999" transform="translate(0,302.56)" style="font-family: 'Open Sans', verdana, arial, sans-serif; font-size: 12px; fill: rgb(242, 245, 250); fill-opacity: 1; white-space: pre;">200</text></g><g class="y2tick"><text text-anchor="end" x="442.55" y="4.199999999999999" transform="translate(0,248.62)" style="font-family: 'Open Sans', verdana, arial, sans-serif; font-size: 12px; fill: rgb(242, 245, 250); fill-opacity: 1; white-space: pre;">400</text></g><g class="y2tick"><text text-anchor="end" x="442.55" y="4.199999999999999" transform="translate(0,194.68)" style="font-family: 'Open Sans', verdana, arial, sans-serif; font-size: 12px; fill: rgb(242, 245, 250); fill-opacity: 1; white-space: pre;">600</text></g><g class="y2tick"><text text-anchor="end" x="442.55" y="4.199999999999999" transform="translate(0,140.74)" style="font-family: 'Open Sans', verdana, arial, sans-serif; font-size: 12px; fill: rgb(242, 245, 250); fill-opacity: 1; white-space: pre;">800</text></g></g><g class="overaxes-above"/></g></g><g class="polarlayer"/><g class="ternarylayer"/><g class="geolayer"/><g class="funnelarealayer"/><g class="pielayer"/><g class="treemaplayer"/><g class="sunburstlayer"/><g class="glimages"/><defs id="topdefs-f1ebe1"><g class="clips"/><clipPath id="legendf1ebe1"><rect width="134" height="124" x="0" y="0"/></clipPath></defs><g class="layer-above"><g class="imagelayer"/><g class="shapelayer"/></g><g class="infolayer"><g class="legend" pointer-events="all" transform="translate(754.22, 100)"><rect class="bg" shape-rendering="crispEdges" width="134" height="124" x="0" y="0" style="stroke: rgb(68, 68, 68); stroke-opacity: 1; fill: rgb(17, 17, 17); fill-opacity: 1; stroke-width: 0px;"/><g class="scrollbox" transform="translate(0, 0)" clip-path="url('#legendf1ebe1')"><g class="groups"><g class="traces" transform="translate(0, 14.5)" style="opacity: 1;"><text class="legendtext user-select-none" text-anchor="start" x="40" y="4.680000000000001" style="font-family: 'Open Sans', verdana, arial, sans-serif; font-size: 12px; fill: rgb(242, 245, 250); fill-opacity: 1; white-space: pre;">Alameda, CA</text><g class="layers" style="opacity: 1;"><g class="legendfill"/><g class="legendlines"><path class="js-line" d="M5,0h30" style="fill: none; stroke: rgb(230, 25, 75); stroke-opacity: 1; stroke-width: 2px;"/></g><g class="legendsymbols"><g class="legendpoints"/></g></g><rect class="legendtoggle" pointer-events="all" x="0" y="-9.5" width="128.265625" height="19" style="cursor: pointer; fill: rgb(0, 0, 0); fill-opacity: 0;"/></g><g class="traces" transform="translate(0, 33.5)" style="opacity: 1;"><text class="legendtext user-select-none" text-anchor="start" x="40" y="4.680000000000001" style="font-family: 'Open Sans', verdana, arial, sans-serif; font-size: 12px; fill: rgb(242, 245, 250); fill-opacity: 1; white-space: pre;">Allen, IN</text><g class="layers" style="opacity: 1;"><g class="legendfill"/><g class="legendlines"><path class="js-line" d="M5,0h30" style="fill: none; stroke: rgb(60, 180, 75); stroke-opacity: 1; stroke-width: 2px;"/></g><g class="legendsymbols"><g class="legendpoints"/></g></g><rect class="legendtoggle" pointer-events="all" x="0" y="-9.5" width="128.265625" height="19" style="cursor: pointer; fill: rgb(0, 0, 0); fill-opacity: 0;"/></g><g class="traces" transform="translate(0, 52.5)" style="opacity: 1;"><text class="legendtext user-select-none" text-anchor="start" x="40" y="4.680000000000001" style="font-family: 'Open Sans', verdana, arial, sans-serif; font-size: 12px; fill: rgb(242, 245, 250); fill-opacity: 1; white-space: pre;">Peoria, IL</text><g class="layers" style="opacity: 1;"><g class="legendfill"/><g class="legendlines"><path class="js-line" d="M5,0h30" style="fill: none; stroke: rgb(255, 225, 25); stroke-opacity: 1; stroke-width: 2px;"/></g><g class="legendsymbols"><g class="legendpoints"/></g></g><rect class="legendtoggle" pointer-events="all" x="0" y="-9.5" width="128.265625" height="19" style="cursor: pointer; fill: rgb(0, 0, 0); fill-opacity: 0;"/></g><g class="traces" transform="translate(0, 71.5)" style="opacity: 1;"><text class="legendtext user-select-none" text-anchor="start" x="40" y="4.680000000000001" style="font-family: 'Open Sans', verdana, arial, sans-serif; font-size: 12px; fill: rgb(242, 245, 250); fill-opacity: 1; white-space: pre;">Washington, MN</text><g class="layers" style="opacity: 1;"><g class="legendfill"/><g class="legendlines"><path class="js-line" d="M5,0h30" style="fill: none; stroke: rgb(67, 99, 216); stroke-opacity: 1; stroke-width: 2px;"/></g><g class="legendsymbols"><g class="legendpoints"/></g></g><rect class="legendtoggle" pointer-events="all" x="0" y="-9.5" width="128.265625" height="19" style="cursor: pointer; fill: rgb(0, 0, 0); fill-opacity: 0;"/></g><g class="traces" transform="translate(0, 90.5)" style="opacity: 1;"><text class="legendtext user-select-none" text-anchor="start" x="40" y="4.680000000000001" style="font-family: 'Open Sans', verdana, arial, sans-serif; font-size: 12px; fill: rgb(242, 245, 250); fill-opacity: 1; white-space: pre;">Denver, CO</text><g class="layers" style="opacity: 1;"><g class="legendfill"/><g class="legendlines"><path class="js-line" d="M5,0h30" style="fill: none; stroke: rgb(245, 130, 49); stroke-opacity: 1; stroke-width: 2px;"/></g><g class="legendsymbols"><g class="legendpoints"/></g></g><rect class="legendtoggle" pointer-events="all" x="0" y="-9.5" width="128.265625" height="19" style="cursor: pointer; fill: rgb(0, 0, 0); fill-opacity: 0;"/></g><g class="traces" transform="translate(0, 109.5)" style="opacity: 1;"><text class="legendtext user-select-none" text-anchor="start" x="40" y="4.680000000000001" style="font-family: 'Open Sans', verdana, arial, sans-serif; font-size: 12px; fill: rgb(242, 245, 250); fill-opacity: 1; white-space: pre;">St Louis, MO</text><g class="layers" style="opacity: 1;"><g class="legendfill"/><g class="legendlines"><path class="js-line" d="M5,0h30" style="fill: none; stroke: rgb(145, 30, 180); stroke-opacity: 1; stroke-width: 2px;"/></g><g class="legendsymbols"><g class="legendpoints"/></g></g><rect class="legendtoggle" pointer-events="all" x="0" y="-9.5" width="128.265625" height="19" style="cursor: pointer; fill: rgb(0, 0, 0); fill-opacity: 0;"/></g></g></g><rect class="scrollbar" rx="20" ry="3" width="0" height="0" x="0" y="0" style="fill: rgb(128, 139, 164); fill-opacity: 1;"/></g><g class="g-gtitle"/><g class="g-xtitle"><text class="xtitle" x="228.725" y="410.8" text-anchor="middle" style="font-family: 'Open Sans', verdana, arial, sans-serif; font-size: 14px; fill: rgb(242, 245, 250); opacity: 1; font-weight: normal; white-space: pre;">Date</text></g><g class="g-x2title"><text class="x2title" x="592.275" y="410.8" text-anchor="middle" style="font-family: 'Open Sans', verdana, arial, sans-serif; font-size: 14px; fill: rgb(242, 245, 250); opacity: 1; font-weight: normal; white-space: pre;">Date</text></g><g class="g-ytitle"><text class="ytitle" transform="rotate(-90,34.840625,235)" x="34.840625" y="235" text-anchor="middle" style="font-family: 'Open Sans', verdana, arial, sans-serif; font-size: 14px; fill: rgb(242, 245, 250); opacity: 1; font-weight: normal; white-space: pre;">Cases</text></g><g class="g-y2title"><text class="y2title" transform="rotate(-90,397.715625,235)" x="397.715625" y="235" text-anchor="middle" style="font-family: 'Open Sans', verdana, arial, sans-serif; font-size: 14px; fill: rgb(242, 245, 250); opacity: 1; font-weight: normal; white-space: pre;">Deaths</text></g><g class="annotation" data-index="0" style="opacity: 1;"><g class="annotation-text-g" transform="rotate(0,228.725,89.5)"><g class="cursor-pointer" transform="translate(204, 79)"><rect class="bg" x="0.5" y="0.5" width="48" height="20" style="stroke-width: 1px; stroke: rgb(0, 0, 0); stroke-opacity: 0; fill: rgb(0, 0, 0); fill-opacity: 0;"/><text class="annotation-text" text-anchor="middle" x="24.6875" y="16" style="font-family: 'Open Sans', verdana, arial, sans-serif; font-size: 16px; fill: rgb(242, 245, 250); fill-opacity: 1; white-space: pre;">Cases</text></g></g></g><g class="annotation" data-index="1" style="opacity: 1;"><g class="annotation-text-g" transform="rotate(0,592.275,89.5)"><g class="cursor-pointer" transform="translate(565, 79)"><rect class="bg" x="0.5" y="0.5" width="54" height="20" style="stroke-width: 1px; stroke: rgb(0, 0, 0); stroke-opacity: 0; fill: rgb(0, 0, 0); fill-opacity: 0;"/><text class="annotation-text" text-anchor="middle" x="27.359375" y="16" style="font-family: 'Open Sans', verdana, arial, sans-serif; font-size: 16px; fill: rgb(242, 245, 250); fill-opacity: 1; white-space: pre;">Deaths</text></g></g></g></g></svg>