<svg class="main-svg" xmlns="http://www.w3.org/2000/svg" xmlns:xlink="http://www.w3.org/1999/xlink" width="900" height="450" style="" viewBox="0 0 900 450"><rect x="0" y="0" width="900" height="450" style="fill: rgb(17, 17, 17); fill-opacity: 1;"/><defs id="defs-4dd678"><g class="clips"><clipPath id="clip4dd678xyplot" class="plotclip"><rect width="301.05" height="270"/></clipPath><clipPath id="clip4dd678x2y2plot" class="plotclip"><rect width="301.04999999999995" height="270"/></clipPath><clipPath class="axesclip" id="clip4dd678x"><rect x="80" y="0" width="301.05" height="450"/></clipPath><clipPath class="axesclip" id="clip4dd678y"><rect x="0" y="100" width="900" height="270"/></clipPath><clipPath class="axesclip" id="clip4dd678xy"><rect x="80" y="100" width="301.05" height="270"/></clipPath><clipPath class="axesclip" id="clip4dd678y2"><rect x="0" y="100" width="900" height="270"/></clipPath><clipPath class="axesclip" id="clip4dd678xy2"><rect x="80" y="100" width="301.05" height="270"/></clipPath><clipPath class="axesclip" id="clip4dd678x2"><rect x="447.95000000000005" y="0" width="301.04999999999995" height="450"/></clipPath><clipPath class="axesclip" id="clip4dd678x2y"><rect x="447.95000000000005" y="100" width="301.04999999999995" height="270"/></clipPath><clipPath class="axesclip" id="clip4dd678x2y2"><rect x="447.95000000000005" y="100" width="301.04999999999995" height="270"/></clipPath></g><g class="gradients"/></defs><g class="bglayer"/><g class="layer-below"><g class="imagelayer"/><g class="shapelayer"/></g><g class="cartesianlayer"><g class="subplot xy"><g class="layer-subplot"><g class="shapelayer"/><g class="imagelayer"/></g><g class="gridlayer"><g class="x"><path class="xgrid crisp" transform="translate(181.82999999999998,0)" d="M0,100v270" style="stroke: rgb(40, 52, 66); stroke-opacity: 1; stroke-width: 1px;"/><path class="xgrid crisp" transform="translate(298.2,0)" d="M0,100v270" style="stroke: rgb(40, 52, 66); stroke-opacity: 1; stroke-width: 1px;"/></g><g class="y"><path class="ygrid crisp" transform="translate(0,303.56)" d="M80,0h301.05" style="stroke: rgb(40, 52, 66); stroke-opacity: 1; stroke-width: 1px;"/><path class="ygrid crisp" transform="translate(0,250.63)" d="M80,0h301.05" style="stroke: rgb(40, 52, 66); stroke-opacity: 1; stroke-width: 1px;"/><path class="ygrid crisp" transform="translate(0,197.69)" d="M80,0h301.05" style="stroke: rgb(40, 52, 66); stroke-opacity: 1; stroke-width: 1px;"/><path class="ygrid crisp" transform="translate(0,144.76)" d="M80,0h301.05" style="stroke: rgb(40, 52, 66); stroke-opacity: 1; stroke-width: 1px;"/></g></g><g class="zerolinelayer"><path class="yzl zl crisp" transform="translate(0,356.5)" d="M80,0h301.05" style="stroke: rgb(40, 52, 66); stroke-opacity: 1; stroke-width: 2px;"/></g><path class="xlines-below"/><path class="ylines-below"/><g class="overlines-below"/><g class="xaxislayer-below"/><g class="yaxislayer-below"/><g class="overaxes-below"/><g class="plot" transform="translate(80, 100)" clip-path="url('#clip4dd678xyplot')"><g class="scatterlayer mlayer"><g class="trace scatter tracec803e3" style="stroke-miterlimit: 2; opacity: 1;"><g class="fills"/><g class="errorbars"/><g class="lines"><path class="js-line" d="M0,256.5L43.01,255.75L43.64,255.67L80.32,248.3L80.95,248.04L89.81,245.34L90.44,245.2L95.5,243.78L96.13,243.25L106.25,237.32L106.89,236.9L109.42,235.39L110.05,234.48L115.74,230.38L116.37,229.47L119.53,227.99L120.17,227.04L120.8,227.04L121.43,226.1L122.7,225.15L123.33,224.98L124.59,224.38L125.23,224.38L125.86,224.38L126.49,221.57L127.12,221.51L127.76,220.33L129.65,217.97L130.29,217.97L131.55,216.45L132.18,215.64L134.71,212.32L135.35,212.24L135.98,212.21L136.61,210.78L140.41,208.36L141.04,207.68L143.57,205.86L144.2,205.86L146.73,204.33L147.36,204.04L151.16,203.14L151.79,202.6L156.22,200.84L156.85,200.84L159.38,199.9L160.01,199.71L170.76,196.59L171.4,196.32L178.35,193.57L178.99,193.31L186.58,189.27L187.21,188.75L190.37,185.95L191,185.23L192.9,183.75L193.53,183.39L196.06,180.12L196.69,179.44L201.12,172.49L201.75,170.36L202.39,170.15L203.02,167.21L206.18,160.73L206.81,155.35L209.34,149.88L209.98,145.26L211.24,140.03L211.87,138.04L215.67,124.79L216.3,123.09L218.2,117.61L218.83,114.85L221.36,107.14L221.99,105.42L227.68,83.36L228.32,80.27L230.85,74.44L231.48,73.04L234.01,67.9L234.64,66.33L239.7,58.08L240.33,56.88L247.92,48.05L248.56,47.68L252.98,44.57L253.62,44.28L254.88,43.26L255.51,41.49L263.1,38.42L263.73,38.28L271.96,36.19L272.59,36.19L275.12,35.56L275.75,35.3L277.65,34.3L278.28,34.15L289.67,29.05L290.3,28.84L294.09,27.28L294.73,27.01L301.05,25.14" style="vector-effect: non-scaling-stroke; fill: none; stroke: rgb(230, 25, 75); stroke-opacity: 1; stroke-width: 2px; opacity: 1;"/></g><g class="points"/><g class="text"/></g><g class="trace scatter traceb267f7" style="stroke-miterlimit: 2; opacity: 1;"><g class="fills"/><g class="errorbars"/><g class="lines"><path class="js-line" d="M0,256.5L42.37,255.78L43.01,255.72L63.88,250.82L64.51,250.73L70.84,249.53L71.47,249.45L75.89,248.43L76.53,248.35L86.01,245.89L86.65,245.82L96.13,243.62L96.77,243.11L101.83,240.53L102.46,239.94L130.92,216.72L131.55,216.53L134.71,214.52L135.35,214.26L141.04,212.43L141.67,212.26L145.47,211.06L146.1,210.88L177.72,200.03L178.35,199.75L191,192.02L191.63,191.42L196.06,188.44L196.69,188.07L199.22,186.49L199.86,185.74L202.39,182.81L203.02,182.07L208.08,176.06L208.71,175.2L217.57,162.76L218.2,161.28L224.52,150.87L225.16,149.69L232.11,138.65L232.74,137.85L235.27,134.43L235.91,133.73L239.07,130.7L239.7,130.1L246.66,124.63L247.29,124.42L254.25,119.91L254.88,119.62L268.79,113.37L269.43,113.02L289.67,105.13L290.3,104.95L301.05,102.56" style="vector-effect: non-scaling-stroke; fill: none; stroke: rgb(60, 180, 75); stroke-opacity: 1; stroke-width: 2px; opacity: 1;"/></g><g class="points"/><g class="text"/></g><g class="trace scatter trace97ac44" style="stroke-miterlimit: 2; opacity: 1;"><g class="fills"/><g class="errorbars"/><g class="lines"><path class="js-line" d="M0,256.5L168.87,255.76L169.5,255.71L191,254.06L191.63,253.44L195.43,252.65L196.06,252.64L203.02,251.75L203.65,251.72L268.16,249.05L268.79,249.05L287.77,248.6L288.4,248.59L301.05,248.37" style="vector-effect: non-scaling-stroke; fill: none; stroke: rgb(255, 225, 25); stroke-opacity: 1; stroke-width: 2px; opacity: 1;"/></g><g class="points"/><g class="text"/></g><g class="trace scatter trace6240d7" style="stroke-miterlimit: 2; opacity: 1;"><g class="fills"/><g class="errorbars"/><g class="lines"><path class="js-line" d="M0,256.5L57.55,255.79L58.19,255.72L68.31,254.84L68.94,254.8L118.9,252.73L119.53,252.72L184.05,250.27L184.68,250.17L199.22,245.54L199.86,245.13L207.45,240.24L208.08,239.94L217.57,234.15L218.2,233.35L222.63,229.77L223.26,229.07L227.68,225.63L228.32,225.21L234.64,221.58L235.27,221.17L240.33,219.16L240.97,219.16L242.86,218.41L243.5,218.21L248.56,217.08L249.19,217.01L275.75,212.26L276.38,212.03L290.93,206.7L291.56,206.56L301.05,204.64" style="vector-effect: non-scaling-stroke; fill: none; stroke: rgb(67, 99, 216); stroke-opacity: 1; stroke-width: 2px; opacity: 1;"/></g><g class="points"/><g class="text"/></g><g class="trace scatter trace67ec88" style="stroke-miterlimit: 2; opacity: 1;"><g class="fills"/><g class="errorbars"/><g class="lines"><path class="js-line" d="M0,256.5L39.21,255.77L39.84,255.66L45.54,250.88L46.17,249.68L58.19,231.28L58.82,230.59L67.04,221L67.67,220.46L74,217.45L74.63,217.24L80.95,214.86L81.59,214.62L85.38,213.79L86.01,213.63L92.34,212.9L92.97,212.79L106.25,211.62L106.89,211.63L112.58,211.04L113.21,211.09L116.37,210.25L117,210.14L146.1,207.14L146.73,207L170.13,201.39L170.76,201.1L180.25,196.14L180.88,195.66L189.1,187.81L189.74,186.75L192.27,183.26L192.9,182.42L197.96,175.61L198.59,174.17L215.67,141.45L216.3,133.3L221.99,120.55L222.63,117.24L223.26,117.24L223.89,115.64L228.95,103.77L229.58,102.74L237.8,86.18L238.44,85.05L240.97,81.58L241.6,80.51L261.84,55.93L262.47,54.81L265.63,51.41L266.26,51.41L269.43,51.41L270.06,42.38L270.69,42.38L271.32,39.82L271.96,39.82L272.59,37.75L273.85,37.75L274.49,35.94L277.02,31.69L277.65,31.69L280.18,26.33L280.81,24.69L282.08,24.03L282.71,23.08L289.67,13.5L290.3,13.5L290.93,18.05L291.56,17.5L292.2,17L295.36,15.05L295.99,14.97L301.05,14.31" style="vector-effect: non-scaling-stroke; fill: none; stroke: rgb(245, 130, 49); stroke-opacity: 1; stroke-width: 2px; opacity: 1;"/></g><g class="points"/><g class="text"/></g><g class="trace scatter trace242035" style="stroke-miterlimit: 2; opacity: 1;"><g class="fills"/><g class="errorbars"/><g class="lines"><path class="js-line" d="M0,256.5L59.45,255.76L60.08,255.73L75.26,254.51L75.89,254.48L101.19,253.63L101.83,253.62L119.53,252.61L120.17,252.56L129.02,252L129.65,251.99L154.95,249.34L155.58,249.19L165.7,246.84L166.34,246.84L184.05,240.78L184.68,239.62L187.84,237.5L188.47,237.5L190.37,236.05L191,235.39L194.16,233.53L194.8,233.18L195.43,233.18L196.06,232.32L201.12,229.4L201.75,229.4L205.55,227.67L206.18,227.67L211.87,225.43L212.51,225.34L215.04,224.75L215.67,224.49L221.36,222.52L221.99,222.2L227.05,220.78L227.68,220.6L231.48,219.88L232.11,219.74L235.27,219.01L235.91,218.9L248.56,217.65L249.19,217.52L256.78,216.48L257.41,216.36L269.43,213.04L270.06,212.64L275.75,210.07L276.38,209.08L278.28,208.34L278.91,207.82L285.87,203.51L286.5,203.14L287.14,203.14L287.77,202.03L301.05,197.13" style="vector-effect: non-scaling-stroke; fill: none; stroke: rgb(145, 30, 180); stroke-opacity: 1; stroke-width: 2px; opacity: 1;"/></g><g class="points"/><g class="text"/></g></g></g><g class="overplot"/><path class="xlines-above crisp" d="M0,0" style="fill: none;"/><path class="ylines-above crisp" d="M0,0" style="fill: none;"/><g class="overlines-above"/><g class="xaxislayer-above"><g class="xtick"><text text-anchor="middle" x="0" y="383" transform="translate(181.82999999999998,0)" style="font-family: 'Open Sans', verdana, arial, sans-serif; font-size: 12px; fill: rgb(242, 245, 250); fill-opacity: 1; white-space: pre;">Jul 2020</text></g><g class="xtick"><text text-anchor="middle" x="0" y="383" transform="translate(298.2,0)" style="font-family: 'Open Sans', verdana, arial, sans-serif; font-size: 12px; fill: rgb(242, 245, 250); fill-opacity: 1; white-space: pre;">Jan 2021</text></g></g><g class="yaxislayer-above"><g class="ytick"><text text-anchor="end" x="79" y="4.199999999999999" transform="translate(0,356.5)" style="font-family: 'Open Sans', verdana, arial, sans-serif; font-size: 12px; fill: rgb(242, 245, 250); fill-opacity: 1; white-space: pre;">0</text></g><g class="ytick"><text text-anchor="end" x="79" y="4.199999999999999" transform="translate(0,303.56)" style="font-family: 'Open Sans', verdana, arial, sans-serif; font-size: 12px; fill: rgb(242, 245, 250); fill-opacity: 1; white-space: pre;">20k</text></g><g class="ytick"><text text-anchor="end" x="79" y="4.199999999999999" transform="translate(0,250.63)" style="font-family: 'Open Sans', verdana, arial, sans-serif; font-size: 12px; fill: rgb(242, 245, 250); fill-opacity: 1; white-space: pre;">40k</text></g><g class="ytick"><text text-anchor="end" x="79" y="4.199999999999999" transform="translate(0,197.69)" style="font-family: 'Open Sans', verdana, arial, sans-serif; font-size: 12px; fill: rgb(242, 245, 250); fill-opacity: 1; white-space: pre;">60k</text></g><g class="ytick"><text text-anchor="end" x="79" y="4.199999999999999" transform="translate(0,144.76)" style="font-family: 'Open Sans', verdana, arial, sans-serif; font-size: 12px; fill: rgb(242, 245, 250); fill-opacity: 1; white-space: pre;">80k</text></g></g><g class="overaxes-above"/></g><g class="subplot x2y2"><g class="layer-subplot"><g class="shapelayer"/><g class="imagelayer"/></g><g class="gridlayer"><g class="x2"><path class="x2grid crisp" transform="translate(549.7800000000001,0)" d="M0,100v270" style="stroke: rgb(40, 52, 66); stroke-opacity: 1; stroke-width: 1px;"/><path class="x2grid crisp" transform="translate(666.1500000000001,0)" d="M0,100v270" style="stroke: rgb(40, 52, 66); stroke-opacity: 1; stroke-width: 1px;"/></g><g class="y2"><path class="y2grid crisp" transform="translate(0,304.26)" d="M447.95000000000005,0h301.04999999999995" style="stroke: rgb(40, 52, 66); stroke-opacity: 1; stroke-width: 1px;"/><path class="y2grid crisp" transform="translate(0,252.03)" d="M447.95000000000005,0h301.04999999999995" style="stroke: rgb(40, 52, 66); stroke-opacity: 1; stroke-width: 1px;"/><path class="y2grid crisp" transform="translate(0,199.79000000000002)" d="M447.95000000000005,0h301.04999999999995" style="stroke: rgb(40, 52, 66); stroke-opacity: 1; stroke-width: 1px;"/><path class="y2grid crisp" transform="translate(0,147.56)" d="M447.95000000000005,0h301.04999999999995" style="stroke: rgb(40, 52, 66); stroke-opacity: 1; stroke-width: 1px;"/></g></g><g class="zerolinelayer"><path class="y2zl zl crisp" transform="translate(0,356.5)" d="M447.95000000000005,0h301.04999999999995" style="stroke: rgb(40, 52, 66); stroke-opacity: 1; stroke-width: 2px;"/></g><path class="xlines-below"/><path class="ylines-below"/><g class="overlines-below"/><g class="xaxislayer-below"/><g class="yaxislayer-below"/><g class="overaxes-below"/><g class="plot" transform="translate(447.95000000000005, 100)" clip-path="url('#clip4dd678x2y2plot')"><g class="scatterlayer mlayer"><g class="trace scatter trace3749ac" style="stroke-miterlimit: 2; opacity: 1;"><g class="fills"/><g class="errorbars"/><g class="lines"><path class="js-line" d="M0,256.5L43.64,255.77L44.27,255.66L52.49,254.1L53.13,252.74L55.66,252.11L56.29,252.11L61.98,250.55L62.61,250.23L68.31,249.08L68.94,249.08L70.84,248.56L71.47,248.25L73.37,247.83L74,247.83L77.79,246.78L78.42,246.78L84.75,246.37L85.38,245.95L89.18,245.22L89.81,245.11L92.97,244.38L93.6,244.28L99.3,242.92L99.93,242.61L105.62,241.87L106.25,241.67L108.15,241.04L108.78,241.04L111.31,240.41L111.95,239.68L115.11,238.64L115.74,238.43L117,237.9L117.64,237.9L120.8,237.49L121.43,236.75L125.86,236.34L126.49,235.08L128.39,234.35L129.02,233.93L134.08,232.05L134.71,232.16L137.88,231.01L138.51,230.7L139.14,230.7L139.77,229.55L141.04,229.65L141.67,227.87L142.94,225.58L143.57,225.26L146.73,224.85L147.36,223.07L148,223.07L148.63,221.82L149.26,221.71L149.89,219.31L150.52,219.31L151.16,218.37L153.05,217.43L153.69,217.43L154.95,215.23L155.58,215.02L156.85,214.29L157.48,214.08L159.38,213.46L160.01,212.62L163.17,211.89L163.81,210.53L166.97,210.95L167.6,211.47L168.23,210.32L168.87,211.26L170.13,210.32L170.76,211.26L172.66,211.06L173.29,208.86L181.52,208.13L182.15,207.92L184.05,206.98L184.68,206.98L185.31,206.98L185.94,206.04L189.74,205L190.37,204.89L196.06,203.74L196.69,203.12L203.65,201.55L204.28,200.82L208.08,197.68L208.71,196.53L209.34,196.53L209.98,195.38L211.87,195.07L212.51,192.88L214.4,191.83L215.04,191.21L217.57,191.21L218.2,187.97L221.36,187.97L221.99,183.68L222.63,183.68L223.26,180.34L225.16,179.61L225.79,177.62L228.95,177.42L229.58,176.68L230.85,176.48L231.48,168.54L232.74,167.07L233.38,163.1L234.01,162.89L234.64,161.85L237.17,154.75L237.8,154.12L239.07,152.97L239.7,152.13L240.97,148.89L241.6,148.16L243.5,146.7L244.13,145.45L244.76,145.34L245.39,142.84L246.66,139.49L247.29,139.39L249.19,138.87L249.82,134.16L250.45,134.16L251.09,131.13L252.35,131.13L252.98,129.25L253.62,128.63L254.25,126.85L254.88,126.85L255.51,141.06L258.04,137.3L258.68,137.09L260.57,136.25L261.21,135.31L263.73,134.48L264.37,134.58L266.26,132.28L266.9,132.49L267.53,133.43L268.16,132.49L270.06,131.24L270.69,130.51L275.75,129.46L276.38,129.36L279.55,128.63L280.18,127.79L282.08,127.16L282.71,127.16L289.03,125.6L289.67,125.28L293.46,124.55L294.09,124.03L301.05,121.73" style="vector-effect: non-scaling-stroke; fill: none; stroke: rgb(230, 25, 75); stroke-opacity: 1; stroke-width: 2px; opacity: 1;"/></g><g class="points"/><g class="text"/></g><g class="trace scatter trace1ffca9" style="stroke-miterlimit: 2; opacity: 1;"><g class="fills"/><g class="errorbars"/><g class="lines"><path class="js-line" d="M0,256.5L44.27,255.98L44.9,255.66L52.49,254.93L53.13,254.83L55.02,253.99L55.66,253.99L67.04,250.02L67.67,249.29L71.47,248.66L72.1,248.14L75.26,247.2L75.89,246.37L80.32,244.8L80.95,244.8L81.59,244.8L82.22,243.96L87.28,242.71L87.91,242.5L95.5,239.26L96.13,239.26L104.36,238.43L104.99,238.43L106.89,238.11L107.52,237.59L110.05,237.49L110.68,237.07L114.47,236.65L115.11,236.02L119.53,234.25L120.17,234.25L121.43,232.99L122.06,232.99L123.96,232.37L124.59,232.05L129.65,229.96L130.29,229.13L135.98,227.25L136.61,226.52L137.88,225.89L138.51,225.58L141.04,224.74L141.67,224.22L146.1,222.65L146.73,221.71L151.79,220.35L152.42,220.04L154.95,219.62L155.58,219.2L167.6,216.59L168.23,217.74L169.5,216.07L170.13,216.17L172.03,215.76L172.66,215.65L176.46,214.92L177.09,214.92L179.62,214.4L180.25,214.29L185.31,213.56L185.94,212.83L189.1,212.1L189.74,212.1L192.27,211.68L192.9,211.68L197.96,210.95L198.59,210.74L208.71,207.82L209.34,207.71L213.14,206.46L213.77,206.04L215.67,205.52L216.3,205.31L224.52,203.43L225.16,203.01L228.95,200.19L229.58,199.77L232.11,197.26L232.74,197.26L234.01,196.43L234.64,195.7L236.54,192.88L237.17,192.88L237.8,192.88L238.44,191.83L245.39,185.04L246.03,185.04L247.29,183.58L247.92,182.64L250.45,180.03L251.09,179.61L254.25,176.16L254.88,176.16L257.41,173.76L258.04,172.92L262.47,170.94L263.1,170.83L263.73,170.83L264.37,170L265.63,169.58L266.26,169.16L270.69,167.8L271.32,167.18L273.22,165.92L273.85,165.92L274.49,165.51L275.12,158.4L277.65,157.88L278.28,157.88L282.08,156.1L282.71,156.1L284.61,155.58L285.24,155.58L287.77,155.06L288.4,154.75L294.73,152.24L295.36,152.03L300.42,151.3L301.05,150.36" style="vector-effect: non-scaling-stroke; fill: none; stroke: rgb(60, 180, 75); stroke-opacity: 1; stroke-width: 2px; opacity: 1;"/></g><g class="points"/><g class="text"/></g><g class="trace scatter trace02af25" style="stroke-miterlimit: 2; opacity: 1;"><g class="fills"/><g class="errorbars"/><g class="lines"><path class="js-line" d="M0,256.5L189.1,255.98L189.74,255.56L208.08,254.83L208.71,254.72L211.24,254.72L211.87,253.89L297.26,253.16L297.89,251.9L301.05,251.9" style="vector-effect: non-scaling-stroke; fill: none; stroke: rgb(255, 225, 25); stroke-opacity: 1; stroke-width: 2px; opacity: 1;"/></g><g class="points"/><g class="text"/></g><g class="trace scatter trace512169" style="stroke-miterlimit: 2; opacity: 1;"><g class="fills"/><g class="errorbars"/><g class="lines"><path class="js-line" d="M0,256.5L52.49,255.87L53.13,255.46L58.82,254.31L59.45,254.31L65.78,253.68L66.41,252.63L70.2,251.38L70.84,251.28L74,250.86L74.63,250.86L79.06,250.34L79.69,249.92L83.48,249.4L84.12,249.29L88.54,248.56L89.18,248.25L113.21,247.52L113.84,247.41L187.21,246.68L187.84,246.47L194.16,245.84L194.8,245.63L201.12,244.07L201.75,243.86L208.08,241.46L208.71,240.83L212.51,240.2L213.14,239.16L216.93,238.53L217.57,238.11L230.21,230.59L230.85,230.28L232.74,229.55L233.38,228.82L244.76,225.79L245.39,225.79L251.09,224.64L251.72,224.64L253.62,224.01L254.25,223.9L261.21,223.17L261.84,223.07L271.32,222.34L271.96,222.23L288.4,221.5L289.03,221.4L295.36,220.67L295.99,220.56L301.05,219.1" style="vector-effect: non-scaling-stroke; fill: none; stroke: rgb(67, 99, 216); stroke-opacity: 1; stroke-width: 2px; opacity: 1;"/></g><g class="points"/><g class="text"/></g><g class="trace scatter tracefc406a" style="stroke-miterlimit: 2; opacity: 1;"><g class="fills"/><g class="errorbars"/><g class="lines"><path class="js-line" d="M0,256.5L40.48,256.08L41.11,255.25L43.64,254.62L44.27,253.68L46.17,248.56L46.8,248.14L48.07,246.05L48.7,241.98L52.49,233.93L53.13,230.59L55.02,223.8L55.66,222.13L57.55,218.89L58.19,218.89L59.45,211.47L60.08,210.32L60.72,208.97L61.35,202.7L61.98,201.03L62.61,196.85L66.41,182.74L67.04,179.5L68.31,177.21L68.94,173.65L70.2,172.82L70.84,170.94L73.37,164.15L74,163.73L76.53,158.82L77.16,158.09L78.42,156.73L79.06,156.31L80.95,154.95L81.59,153.18L84.75,150.46L85.38,149.42L89.81,144.72L90.44,144.3L92.34,143.15L92.97,142.21L96.13,141.48L96.77,141.16L98.66,140.54L99.3,118.91L104.36,117.45L104.99,117.24L106.25,115.67L106.89,114.31L109.42,112.64L110.05,112.43L111.31,110.55L111.95,110.55L114.47,110.24L115.11,111.08L118.9,109.4L119.53,109.93L127.12,109.93L127.76,109.4L136.61,108.05L137.24,108.57L142.3,108.36L142.94,108.36L151.79,107.63L152.42,107.63L165.07,107L165.7,106.79L172.03,106.17L172.66,105.96L175.82,105.64L176.46,105.64L192.27,102.51L192.9,102.3L194.16,101.99L194.8,101.46L198.59,100.21L199.22,99.79L200.49,98.75L201.12,98.64L202.39,98.44L203.02,97.49L205.55,95.2L206.18,94.99L206.81,94.88L207.45,93.84L208.71,91.12L209.34,90.7L211.87,88.61L212.51,87.57L215.04,86L215.67,86L218.2,80.67L218.83,80.47L220.1,79.53L220.73,77.96L223.26,72.94L223.89,72.94L224.52,72.94L225.16,70.96L227.05,68.56L227.68,67.51L229.58,66.36L230.21,64.8L232.74,61.66L233.38,61.35L236.54,55.81L237.17,55.6L239.7,52.36L240.33,50.9L242.86,48.18L243.5,48.08L244.76,45.15L245.39,44.95L247.29,44.32L247.92,43.27L249.82,41.29L250.45,41.18L251.09,41.18L251.72,39.83L253.62,38.26L254.25,37.84L256.15,37.11L256.78,35.65L258.68,34.5L259.31,34.39L260.57,33.77L261.21,32.93L263.1,31.68L263.73,31.68L265,30.95L265.63,30.11L270.06,27.92L270.69,27.92L273.85,27.5L274.49,26.25L276.38,25.83L277.02,25.83L277.65,25.83L278.28,24.99L284.61,20.6L285.24,20.4L287.14,19.77L287.77,19.14L290.93,17.89L291.56,17.05L294.09,15.9L294.73,15.48L297.26,14.75L297.89,14.44L301.05,13.5" style="vector-effect: non-scaling-stroke; fill: none; stroke: rgb(245, 130, 49); stroke-opacity: 1; stroke-width: 2px; opacity: 1;"/></g><g class="points"/><g class="text"/></g><g class="trace scatter tracee81642" style="stroke-miterlimit: 2; opacity: 1;"><g class="fills"/><g class="errorbars"/><g class="lines"><path class="js-line" d="M0,256.5L51.86,255.77L52.49,255.66L62.61,255.14L63.25,254.62L67.67,253.89L68.31,253.68L75.26,251.8L75.89,251.8L80.95,250.86L81.59,250.86L90.44,249.92L91.07,249.92L109.42,249.19L110.05,249.08L120.17,248.35L120.8,248.14L127.12,247.83L127.76,247.83L146.1,247.1L146.73,246.99L168.23,246.26L168.87,246.16L171.4,246.05L172.03,245.84L177.09,245.43L177.72,245.01L196.06,239.47L196.69,239.47L199.22,238.74L199.86,238.53L204.92,236.44L205.55,235.5L207.45,234.77L208.08,234.67L209.98,233.41L210.61,233.41L212.51,232.68L213.14,232.68L215.67,232.05L216.3,231.43L219.46,230.7L220.1,230.38L221.36,228.5L221.99,227.98L227.05,227.46L227.68,226.83L230.21,226.52L230.85,225.99L231.48,225.89L232.11,224.95L237.8,224.22L238.44,223.8L241.6,223.59L242.23,223.59L257.41,222.86L258.04,222.65L279.55,221.92L280.18,221.71L283.34,221.19L283.97,220.88L287.77,220.35L288.4,220.35L292.2,219.62L292.83,219.41L301.05,217.11" style="vector-effect: non-scaling-stroke; fill: none; stroke: rgb(145, 30, 180); stroke-opacity: 1; stroke-width: 2px; opacity: 1;"/></g><g class="points"/><g class="text"/></g></g></g><g class="overplot"/><path class="xlines-above crisp" d="M0,0" style="fill: none;"/><path class="ylines-above crisp" d="M0,0" style="fill: none;"/><g class="overlines-above"/><g class="xaxislayer-above"><g class="x2tick"><text text-anchor="middle" x="0" y="383" transform="translate(549.7800000000001,0)" style="font-family: 'Open Sans', verdana, arial, sans-serif; font-size: 12px; fill: rgb(242, 245, 250); fill-opacity: 1; white-space: pre;">Jul 2020</text></g><g class="x2tick"><text text-anchor="middle" x="0" y="383" transform="translate(666.1500000000001,0)" style="font-family: 'Open Sans', verdana, arial, sans-serif; font-size: 12px; fill: rgb(242, 245, 250); fill-opacity: 1; white-space: pre;">Jan 2021</text></g></g><g class="yaxislayer-above"><g class="y2tick"><text text-anchor="end" x="446.95000000000005" y="4.199999999999999" transform="translate(0,356.5)" style="font-family: 'Open Sans', verdana, arial, sans-serif; font-size: 12px; fill: rgb(242, 245, 250); fill-opacity: 1; white-space: pre;">0</text></g><g class="y2tick"><text text-anchor="end" x="446.95000000000005" y="4.199999999999999" transform="translate(0,304.26)" style="font-family: 'Open Sans', verdana, arial, sans-serif; font-size: 12px; fill: rgb(242, 245, 250); fill-opacity: 1; white-space: pre;">500</text></g><g class="y2tick"><text text-anchor="end" x="446.95000000000005" y="4.199999999999999" transform="translate(0,252.03)" style="font-family: 'Open Sans', verdana, arial, sans-serif; font-size: 12px; fill: rgb(242, 245, 250); fill-opacity: 1; white-space: pre;">1000</text></g><g class="y2tick"><text text-anchor="end" x="446.95000000000005" y="4.199999999999999" transform="translate(0,199.79000000000002)" style="font-family: 'Open Sans', verdana, arial, sans-serif; font-size: 12px; fill: rgb(242, 245, 250); fill-opacity: 1; white-space: pre;">1500</text></g><g class="y2tick"><text text-anchor="end" x="446.95000000000005" y="4.199999999999999" transform="translate(0,147.56)" style="font-family: 'Open Sans', verdana, arial, sans-serif; font-size: 12px; fill: rgb(242, 245, 250); fill-opacity: 1; white-space: pre;">2000</text></g></g><g class="overaxes-above"/></g></g><g class="polarlayer"/><g class="ternarylayer"/><g class="geolayer"/><g class="funnelarealayer"/><g class="pielayer"/><g class="treemaplayer"/><g class="sunburstlayer"/><g class="glimages"/><defs id="topdefs-4dd678"><g class="clips"/><clipPath id="legend4dd678"><rect width="126" height="124" x="0" y="0"/></clipPath></defs><g class="layer-above"><g class="imagelayer"/><g class="shapelayer"/></g><g class="infolayer"><g class="legend" pointer-events="all" transform="translate(762.38, 100)"><rect class="bg" shape-rendering="crispEdges" width="126" height="124" x="0" y="0" style="stroke: rgb(68, 68, 68); stroke-opacity: 1; fill: rgb(17, 17, 17); fill-opacity: 1; stroke-width: 0px;"/><g class="scrollbox" transform="translate(0, 0)" clip-path="url('#legend4dd678')"><g class="groups"><g class="traces" transform="translate(0, 14.5)" style="opacity: 1;"><text class="legendtext user-select-none" text-anchor="start" x="40" y="4.680000000000001" style="font-family: 'Open Sans', verdana, arial, sans-serif; font-size: 12px; fill: rgb(242, 245, 250); fill-opacity: 1; white-space: pre;">Alameda, CA</text><g class="layers" style="opacity: 1;"><g class="legendfill"/><g class="legendlines"><path class="js-line" d="M5,0h30" style="fill: none; stroke: rgb(230, 25, 75); stroke-opacity: 1; stroke-width: 2px;"/></g><g class="legendsymbols"><g class="legendpoints"/></g></g><rect class="legendtoggle" pointer-events="all" x="0" y="-9.5" width="120.046875" height="19" style="cursor: pointer; fill: rgb(0, 0, 0); fill-opacity: 0;"/></g><g class="traces" transform="translate(0, 33.5)" style="opacity: 1;"><text class="legendtext user-select-none" text-anchor="start" x="40" y="4.680000000000001" style="font-family: 'Open Sans', verdana, arial, sans-serif; font-size: 12px; fill: rgb(242, 245, 250); fill-opacity: 1; white-space: pre;">De Kalb, GA</text><g class="layers" style="opacity: 1;"><g class="legendfill"/><g class="legendlines"><path class="js-line" d="M5,0h30" style="fill: none; stroke: rgb(60, 180, 75); stroke-opacity: 1; stroke-width: 2px;"/></g><g class="legendsymbols"><g class="legendpoints"/></g></g><rect class="legendtoggle" pointer-events="all" x="0" y="-9.5" width="120.046875" height="19" style="cursor: pointer; fill: rgb(0, 0, 0); fill-opacity: 0;"/></g><g class="traces" transform="translate(0, 52.5)" style="opacity: 1;"><text class="legendtext user-select-none" text-anchor="start" x="40" y="4.680000000000001" style="font-family: 'Open Sans', verdana, arial, sans-serif; font-size: 12px; fill: rgb(242, 245, 250); fill-opacity: 1; white-space: pre;">Ravalli, MT</text><g class="layers" style="opacity: 1;"><g class="legendfill"/><g class="legendlines"><path class="js-line" d="M5,0h30" style="fill: none; stroke: rgb(255, 225, 25); stroke-opacity: 1; stroke-width: 2px;"/></g><g class="legendsymbols"><g class="legendpoints"/></g></g><rect class="legendtoggle" pointer-events="all" x="0" y="-9.5" width="120.046875" height="19" style="cursor: pointer; fill: rgb(0, 0, 0); fill-opacity: 0;"/></g><g class="traces" transform="translate(0, 71.5)" style="opacity: 1;"><text class="legendtext user-select-none" text-anchor="start" x="40" y="4.680000000000001" style="font-family: 'Open Sans', verdana, arial, sans-serif; font-size: 12px; fill: rgb(242, 245, 250); fill-opacity: 1; white-space: pre;">Niagara, NY</text><g class="layers" style="opacity: 1;"><g class="legendfill"/><g class="legendlines"><path class="js-line" d="M5,0h30" style="fill: none; stroke: rgb(67, 99, 216); stroke-opacity: 1; stroke-width: 2px;"/></g><g class="legendsymbols"><g class="legendpoints"/></g></g><rect class="legendtoggle" pointer-events="all" x="0" y="-9.5" width="120.046875" height="19" style="cursor: pointer; fill: rgb(0, 0, 0); fill-opacity: 0;"/></g><g class="traces" transform="translate(0, 90.5)" style="opacity: 1;"><text class="legendtext user-select-none" text-anchor="start" x="40" y="4.680000000000001" style="font-family: 'Open Sans', verdana, arial, sans-serif; font-size: 12px; fill: rgb(242, 245, 250); fill-opacity: 1; white-space: pre;">Middlesex, NJ</text><g class="layers" style="opacity: 1;"><g class="legendfill"/><g class="legendlines"><path class="js-line" d="M5,0h30" style="fill: none; stroke: rgb(245, 130, 49); stroke-opacity: 1; stroke-width: 2px;"/></g><g class="legendsymbols"><g class="legendpoints"/></g></g><rect class="legendtoggle" pointer-events="all" x="0" y="-9.5" width="120.046875" height="19" style="cursor: pointer; fill: rgb(0, 0, 0); fill-opacity: 0;"/></g><g class="traces" transform="translate(0, 109.5)" style="opacity: 1;"><text class="legendtext user-select-none" text-anchor="start" x="40" y="4.680000000000001" style="font-family: 'Open Sans', verdana, arial, sans-serif; font-size: 12px; fill: rgb(242, 245, 250); fill-opacity: 1; white-space: pre;">Kalamazoo, MI</text><g class="layers" style="opacity: 1;"><g class="legendfill"/><g class="legendlines"><path class="js-line" d="M5,0h30" style="fill: none; stroke: rgb(145, 30, 180); stroke-opacity: 1; stroke-width: 2px;"/></g><g class="legendsymbols"><g class="legendpoints"/></g></g><rect class="legendtoggle" pointer-events="all" x="0" y="-9.5" width="120.046875" height="19" style="cursor: pointer; fill: rgb(0, 0, 0); fill-opacity: 0;"/></g></g></g><rect class="scrollbar" rx="20" ry="3" width="0" height="0" x="0" y="0" style="fill: rgb(128, 139, 164); fill-opacity: 1;"/></g><g class="g-gtitle"/><g class="g-xtitle"><text class="xtitle" x="230.525" y="410.8" text-anchor="middle" style="font-family: 'Open Sans', verdana, arial, sans-serif; font-size: 14px; fill: rgb(242, 245, 250); opacity: 1; font-weight: normal; white-space: pre;">Date</text></g><g class="g-x2title"><text class="x2title" x="598.475" y="410.8" text-anchor="middle" style="font-family: 'Open Sans', verdana, arial, sans-serif; font-size: 14px; fill: rgb(242, 245, 250); opacity: 1; font-weight: normal; white-space: pre;">Date</text></g><g class="g-ytitle"><text class="ytitle" transform="rotate(-90,34.840625,235)" x="34.840625" y="235" text-anchor="middle" style="font-family: 'Open Sans', verdana, arial, sans-serif; font-size: 14px; fill: rgb(242, 245, 250); opacity: 1; font-weight: normal; white-space: pre;">Cases</text></g><g class="g-y2title"><text class="y2title" transform="rotate(-90,395.45,235)" x="395.45" y="235" text-anchor="middle" style="font-family: 'Open Sans', verdana, arial, sans-serif; font-size: 14px; fill: rgb(242, 245, 250); opacity: 1; font-weight: normal; white-space: pre;">Deaths</text></g><g class="annotation" data-index="0" style="opacity: 1;"><g class="annotation-text-g" transform="rotate(0,230.525,89.5)"><g class="cursor-pointer" transform="translate(206, 79)"><rect class="bg" x="0.5" y="0.5" width="48" height="20" style="stroke-width: 1px; stroke: rgb(0, 0, 0); stroke-opacity: 0; fill: rgb(0, 0, 0); fill-opacity: 0;"/><text class="annotation-text" text-anchor="middle" x="24.6875" y="16" style="font-family: 'Open Sans', verdana, arial, sans-serif; font-size: 16px; fill: rgb(242, 245, 250); fill-opacity: 1; white-space: pre;">Cases</text></g></g></g><g class="annotation" data-index="1" style="opacity: 1;"><g class="annotation-text-g" transform="rotate(0,598.475,89.5)"><g class="cursor-pointer" transform="translate(571, 79)"><rect class="bg" x="0.5" y="0.5" width="54" height="20" style="stroke-width: 1px; stroke: rgb(0, 0, 0); stroke-opacity: 0; fill: rgb(0, 0, 0); fill-opacity: 0;"/><text class="annotation-text" text-anchor="middle" x="27.359375" y="16" style="font-family: 'Open Sans', verdana, arial, sans-serif; font-size: 16px; fill: rgb(242, 245, 250); fill-opacity: 1; white-space: pre;">Deaths</text></g></g></g></g></svg>