<svg class="main-svg" xmlns="http://www.w3.org/2000/svg" xmlns:xlink="http://www.w3.org/1999/xlink" width="900" height="450" style="" viewBox="0 0 900 450"><rect x="0" y="0" width="900" height="450" style="fill: rgb(17, 17, 17); fill-opacity: 1;"/><defs id="defs-e7ab0a"><g class="clips"><clipPath id="clipe7ab0axyplot" class="plotclip"><rect width="295.2" height="270"/></clipPath><clipPath id="clipe7ab0ax2y2plot" class="plotclip"><rect width="295.2" height="270"/></clipPath><clipPath class="axesclip" id="clipe7ab0ax"><rect x="80" y="0" width="295.2" height="450"/></clipPath><clipPath class="axesclip" id="clipe7ab0ay"><rect x="0" y="100" width="900" height="270"/></clipPath><clipPath class="axesclip" id="clipe7ab0axy"><rect x="80" y="100" width="295.2" height="270"/></clipPath><clipPath class="axesclip" id="clipe7ab0ay2"><rect x="0" y="100" width="900" height="270"/></clipPath><clipPath class="axesclip" id="clipe7ab0axy2"><rect x="80" y="100" width="295.2" height="270"/></clipPath><clipPath class="axesclip" id="clipe7ab0ax2"><rect x="440.8" y="0" width="295.2" height="450"/></clipPath><clipPath class="axesclip" id="clipe7ab0ax2y"><rect x="440.8" y="100" width="295.2" height="270"/></clipPath><clipPath class="axesclip" id="clipe7ab0ax2y2"><rect x="440.8" y="100" width="295.2" height="270"/></clipPath></g><g class="gradients"/></defs><g class="bglayer"/><g class="layer-below"><g class="imagelayer"/><g class="shapelayer"/></g><g class="cartesianlayer"><g class="subplot xy"><g class="layer-subplot"><g class="shapelayer"/><g class="imagelayer"/></g><g class="gridlayer"><g class="x"><path class="xgrid crisp" transform="translate(183.55,0)" d="M0,100v270" style="stroke: rgb(40, 52, 66); stroke-opacity: 1; stroke-width: 1px;"/><path class="xgrid crisp" transform="translate(301.88,0)" d="M0,100v270" style="stroke: rgb(40, 52, 66); stroke-opacity: 1; stroke-width: 1px;"/></g><g class="y"><path class="ygrid crisp" transform="translate(0,311.7)" d="M80,0h295.2" style="stroke: rgb(40, 52, 66); stroke-opacity: 1; stroke-width: 1px;"/><path class="ygrid crisp" transform="translate(0,266.9)" d="M80,0h295.2" style="stroke: rgb(40, 52, 66); stroke-opacity: 1; stroke-width: 1px;"/><path class="ygrid crisp" transform="translate(0,222.1)" d="M80,0h295.2" style="stroke: rgb(40, 52, 66); stroke-opacity: 1; stroke-width: 1px;"/><path class="ygrid crisp" transform="translate(0,177.3)" d="M80,0h295.2" style="stroke: rgb(40, 52, 66); stroke-opacity: 1; stroke-width: 1px;"/><path class="ygrid crisp" transform="translate(0,132.51)" d="M80,0h295.2" style="stroke: rgb(40, 52, 66); stroke-opacity: 1; stroke-width: 1px;"/></g></g><g class="zerolinelayer"><path class="yzl zl crisp" transform="translate(0,356.5)" d="M80,0h295.2" style="stroke: rgb(40, 52, 66); stroke-opacity: 1; stroke-width: 2px;"/></g><path class="xlines-below"/><path class="ylines-below"/><g class="overlines-below"/><g class="xaxislayer-below"/><g class="yaxislayer-below"/><g class="overaxes-below"/><g class="plot" transform="translate(80, 100)" clip-path="url('#clipe7ab0axyplot')"><g class="scatterlayer mlayer"><g class="trace scatter trace10090d" style="stroke-miterlimit: 2; opacity: 1;"><g class="fills"/><g class="errorbars"/><g class="lines"><path class="js-line" d="M0,256.5L44.38,255.8L45.02,255.7L78.46,250.3L79.11,250.12L82.96,249.13L83.61,248.91L102.26,243.59L102.9,243.14L106.76,241.07L107.4,241.07L109.33,239.73L109.98,239.2L111.26,238.63L111.91,237.86L124.13,230.69L124.77,229.97L127.98,229.32L128.63,226.94L129.27,226.89L129.91,225.89L131.84,223.89L132.49,223.89L133.77,222.61L134.42,221.92L136.99,219.11L137.63,219.04L138.27,219.02L138.92,217.81L142.78,215.76L143.42,215.18L145.99,213.65L146.64,213.65L149.85,212.11L150.49,212.07L153.07,211.48L153.71,211.34L156.28,210.27L156.93,210.03L167.22,207.36L167.86,207.35L171.72,206.39L172.36,206.31L176.22,204.98L176.86,204.68L185.87,201.81L186.51,201.25L194.23,196.19L194.87,195.52L198.73,193.28L199.37,191.86L202.59,188.56L203.23,187.11L204.52,185.4L205.16,183.6L205.8,183.42L206.45,180.93L209.66,175.45L210.31,170.89L212.24,166.32L212.88,166.27L214.81,157.93L215.45,156.25L219.31,145.03L219.95,143.6L221.88,138.96L222.53,136.62L225.1,130.1L225.74,128.64L231.53,109.97L232.17,107.36L234.75,102.43L235.39,101.24L237.96,96.89L238.6,95.56L243.75,88.58L244.39,87.56L252.11,80.09L252.75,79.78L257.9,76.9L258.54,76.44L259.18,76.04L259.83,74.54L267.55,71.94L268.19,71.82L277.19,70.05L277.84,70.05L280.41,69.3L281.05,68.85L282.98,68.33L283.62,68.05L286.2,67.44L286.84,66.65L292.63,64.64L293.27,64.4L295.2,63.83" style="vector-effect: non-scaling-stroke; fill: none; stroke: rgb(230, 25, 75); stroke-opacity: 1; stroke-width: 2px; opacity: 1;"/></g><g class="points"/><g class="text"/></g><g class="trace scatter trace8f68d7" style="stroke-miterlimit: 2; opacity: 1;"><g class="fills"/><g class="errorbars"/><g class="lines"><path class="js-line" d="M0,256.5L76.53,255.75L77.18,255.72L93.9,254.3L94.54,254.18L100.97,252.97L101.62,252.8L106.76,251.43L107.4,251.22L114.48,248.66L115.12,248.38L120.27,246.32L120.91,245.94L123.48,245.06L124.13,244.83L131.2,242.97L131.84,242.78L146.64,240.13L147.28,240.06L180.08,236.29L180.72,236.2L196.16,233.55L196.8,233.39L208.38,229.91L209.02,229.65L214.16,227.62L214.81,227.29L224.45,222.52L225.1,222.02L228.31,219.56L228.96,219.08L237.96,214.17L238.6,213.91L246.32,210.89L246.96,210.68L269.47,204.54L270.12,204.43L295.2,198.92" style="vector-effect: non-scaling-stroke; fill: none; stroke: rgb(60, 180, 75); stroke-opacity: 1; stroke-width: 2px; opacity: 1;"/></g><g class="points"/><g class="text"/></g><g class="trace scatter trace8013c8" style="stroke-miterlimit: 2; opacity: 1;"><g class="fills"/><g class="errorbars"/><g class="lines"><path class="js-line" d="M0,256.5L44.38,255.82L45.02,255.62L49.52,254.64L50.16,254.36L52.74,253.64L53.38,252.12L54.67,251.12L55.31,250.45L61.74,244.34L62.38,244.14L64.96,241.22L65.6,240.76L68.17,240.51L68.82,240.51L70.1,240.51L70.75,237.07L73.32,236.09L73.96,236.09L75.89,236.09L76.53,234.15L79.75,232.74L80.39,232.74L82.32,231.74L82.96,231.74L88.11,231.74L88.75,229.71L92.61,229.71L93.25,228.81L97.11,228.81L97.76,228.03L104.19,227.52L104.83,227.06L115.12,227.06L115.76,225.87L116.41,225.87L117.05,225.07L120.91,225.07L121.55,223.91L125.41,223.91L126.05,222.8L129.91,222.8L130.56,221.46L134.42,221.46L135.06,220.34L138.92,220.34L139.56,219.16L143.42,219.16L144.06,218.18L147.92,218.18L148.56,217.3L152.42,217.3L153.07,216.31L156.93,216.31L157.57,215.2L161.43,215.2L162.07,214.1L165.93,214.1L166.57,212.52L170.43,212.52L171.07,210.72L174.93,210.72L175.58,208.24L179.44,208.24L180.08,204.26L183.94,204.26L184.58,199.81L188.44,199.81L189.08,194.21L192.94,194.21L193.58,185.91L197.44,185.91L198.09,175.91L201.95,175.91L202.59,166.44L206.45,166.44L207.09,152.99L210.95,152.99L211.59,140.31L215.45,140.31L216.09,131.24L219.95,131.24L220.6,124.46L224.45,124.46L225.1,115.73L228.96,115.73L229.6,105.25L233.46,105.25L234.1,97.08L237.96,97.08L238.6,90.21L242.46,90.21L243.11,84.64L246.96,84.64L247.61,80.29L251.47,80.29L252.11,76.71L255.97,76.71L256.61,73.76L260.47,73.76L261.11,70.34L264.97,70.34L265.62,67.16L269.47,67.16L270.12,63.67L273.98,63.67L274.62,60.46L278.48,60.46L279.12,57.62L282.98,57.62L283.62,53.52L288.13,53.52L288.77,49.33L291.98,49.33L292.63,45.44L295.2,45.44" style="vector-effect: non-scaling-stroke; fill: none; stroke: rgb(255, 225, 25); stroke-opacity: 1; stroke-width: 2px; opacity: 1;"/></g><g class="points"/><g class="text"/></g><g class="trace scatter trace6b73eb" style="stroke-miterlimit: 2; opacity: 1;"><g class="fills"/><g class="errorbars"/><g class="lines"><path class="js-line" d="M0,256.5L41.16,255.95L41.8,255.72L49.52,251.79L50.16,251.27L56.6,244.96L57.24,244.64L59.17,242.57L59.81,241.18L64.96,235.53L65.6,235.13L71.39,230.58L72.03,230.29L75.25,228.31L75.89,227.95L81.04,225.64L81.68,225.37L83.61,224.64L84.25,223.53L94.54,221.33L95.18,221.25L129.27,216.44L129.91,216.34L135.7,216.34L136.35,215.27L147.28,213.92L147.92,213.37L154.35,212.38L155,212.05L160.78,210.52L161.43,210.29L176.86,203.98L177.51,203.53L183.29,199.79L183.94,199.54L195.51,185.2L196.16,183.85L198.73,181.23L199.37,179.51L202.59,174.04L203.23,170.97L205.8,163.83L206.45,162.72L210.31,151.01L210.95,150.06L214.81,137.52L215.45,136.71L218.67,136.71L219.31,138.94L220.6,135.36L221.24,132.95L221.88,132.95L222.53,130.77L223.81,128.03L224.45,119.5L227.67,107.93L228.31,107.93L230.89,100.03L231.53,98.4L233.46,95.6L234.1,94.35L237.32,88.14L237.96,87.75L241.82,82.56L242.46,82.2L243.11,82.2L243.75,81.01L246.96,77.71L247.61,77.18L250.82,74.4L251.47,74.19L260.47,68.54L261.11,68.16L269.47,63.65L270.12,63.13L276.55,58.83L277.19,57.24L278.48,57.1L279.12,56.46L284.91,51.44L285.55,51.44L287.48,49.59L288.13,49.04L294.56,44.63L295.2,44.32" style="vector-effect: non-scaling-stroke; fill: none; stroke: rgb(67, 99, 216); stroke-opacity: 1; stroke-width: 2px; opacity: 1;"/></g><g class="points"/><g class="text"/></g><g class="trace scatter traceb66bac" style="stroke-miterlimit: 2; opacity: 1;"><g class="fills"/><g class="errorbars"/><g class="lines"><path class="js-line" d="M0,256.5L43.09,255.75L43.73,255.64L60.45,253.96L61.1,253.96L63.67,253.96L64.31,252.8L76.53,250.27L77.18,250.02L81.68,248.43L82.32,247.91L91.33,241.86L91.97,241.13L97.76,236.44L98.4,236.15L103.55,230.66L104.19,230.06L106.76,227.13L107.4,226.67L109.33,224.79L109.98,223.78L115.12,217.57L115.76,217.14L121.55,211.87L122.2,211.12L128.63,206.65L129.27,206.52L148.56,197.19L149.21,197L156.93,194.48L157.57,194.3L158.21,194.04L158.85,192.85L164,190.61L164.64,190.52L174.29,185.23L174.93,184.74L175.58,184.74L176.22,183.8L176.86,183.14L177.51,184.32L178.79,181.96L179.44,181.96L183.29,179.51L183.94,177.93L187.15,175.35L187.8,174.82L198.73,162.18L199.37,161.2L203.87,154.48L204.52,153.02L207.73,146.22L208.38,144.6L214.16,131.19L214.81,129.81L216.09,128.42L216.74,128.42L218.67,128.42L219.31,120.72L221.88,116.61L222.53,112.15L226.38,101.72L227.03,99.42L228.96,93.06L229.6,91.92L232.17,84.26L232.82,84.26L238.6,68.76L239.25,67.35L246.96,53.19L247.61,52.37L251.47,47.46L252.11,46.8L255.33,43.46L255.97,42.98L261.11,38.31L261.76,37.88L267.55,35.04L268.19,35.04L270.12,33.22L270.76,32.74L277.19,28.92L277.84,27.31L281.05,25.82L281.69,25.82L282.98,23.28L283.62,22.97L285.55,21.61L286.2,21.61L287.48,19.49L288.13,18.82L290.05,17.42L290.7,17.42L291.98,15.26L292.63,14.68L294.56,13.5L295.2,13.5" style="vector-effect: non-scaling-stroke; fill: none; stroke: rgb(245, 130, 49); stroke-opacity: 1; stroke-width: 2px; opacity: 1;"/></g><g class="points"/><g class="text"/></g><g class="trace scatter trace2ddbcd" style="stroke-miterlimit: 2; opacity: 1;"><g class="fills"/><g class="errorbars"/><g class="lines"><path class="js-line" d="M0,256.5L46.31,255.82L46.95,255.72L91.33,250.76L91.97,250.6L95.83,248.72L96.47,248.53L99.69,247.4L100.33,245.84L104.19,242.56L104.83,241.56L106.76,239.34L107.4,238.9L109.98,236.68L110.62,233.83L112.55,232.2L113.19,230.25L118.98,224.49L119.62,224.21L122.2,222.59L122.84,221.97L134.42,217.31L135.06,217.09L141.49,214.87L142.13,214.76L153.07,212.56L153.71,212.3L176.86,206.15L177.51,205.83L180.72,204.23L181.36,203.82L184.58,202.4L185.22,202.01L192.94,196.69L193.58,196.05L203.87,185.78L204.52,185.05L220.6,166.52L221.24,165.48L221.88,165.48L222.53,163.96L227.03,156.11L227.67,155.07L240.53,139.08L241.18,138.56L245.04,135.5L245.68,135.02L251.47,131.44L252.11,131.05L257.25,128.21L257.9,127.77L276.55,117.7L277.19,117.3L284.27,112.68L284.91,112.19L291.98,106.52L292.63,106.08L295.2,103.77" style="vector-effect: non-scaling-stroke; fill: none; stroke: rgb(145, 30, 180); stroke-opacity: 1; stroke-width: 2px; opacity: 1;"/></g><g class="points"/><g class="text"/></g></g></g><g class="overplot"/><path class="xlines-above crisp" d="M0,0" style="fill: none;"/><path class="ylines-above crisp" d="M0,0" style="fill: none;"/><g class="overlines-above"/><g class="xaxislayer-above"><g class="xtick"><text text-anchor="middle" x="0" y="383" transform="translate(183.55,0)" style="font-family: 'Open Sans', verdana, arial, sans-serif; font-size: 12px; fill: rgb(242, 245, 250); fill-opacity: 1; white-space: pre;">Jul 2020</text></g><g class="xtick"><text text-anchor="middle" x="0" y="383" transform="translate(301.88,0)" style="font-family: 'Open Sans', verdana, arial, sans-serif; font-size: 12px; fill: rgb(242, 245, 250); fill-opacity: 1; white-space: pre;">Jan 2021</text></g></g><g class="yaxislayer-above"><g class="ytick"><text text-anchor="end" x="79" y="4.199999999999999" transform="translate(0,356.5)" style="font-family: 'Open Sans', verdana, arial, sans-serif; font-size: 12px; fill: rgb(242, 245, 250); fill-opacity: 1; white-space: pre;">0</text></g><g class="ytick"><text text-anchor="end" x="79" y="4.199999999999999" transform="translate(0,311.7)" style="font-family: 'Open Sans', verdana, arial, sans-serif; font-size: 12px; fill: rgb(242, 245, 250); fill-opacity: 1; white-space: pre;">20k</text></g><g class="ytick"><text text-anchor="end" x="79" y="4.199999999999999" transform="translate(0,266.9)" style="font-family: 'Open Sans', verdana, arial, sans-serif; font-size: 12px; fill: rgb(242, 245, 250); fill-opacity: 1; white-space: pre;">40k</text></g><g class="ytick"><text text-anchor="end" x="79" y="4.199999999999999" transform="translate(0,222.1)" style="font-family: 'Open Sans', verdana, arial, sans-serif; font-size: 12px; fill: rgb(242, 245, 250); fill-opacity: 1; white-space: pre;">60k</text></g><g class="ytick"><text text-anchor="end" x="79" y="4.199999999999999" transform="translate(0,177.3)" style="font-family: 'Open Sans', verdana, arial, sans-serif; font-size: 12px; fill: rgb(242, 245, 250); fill-opacity: 1; white-space: pre;">80k</text></g><g class="ytick"><text text-anchor="end" x="79" y="4.199999999999999" transform="translate(0,132.51)" style="font-family: 'Open Sans', verdana, arial, sans-serif; font-size: 12px; fill: rgb(242, 245, 250); fill-opacity: 1; white-space: pre;">100k</text></g></g><g class="overaxes-above"/></g><g class="subplot x2y2"><g class="layer-subplot"><g class="shapelayer"/><g class="imagelayer"/></g><g class="gridlayer"><g class="x2"><path class="x2grid crisp" transform="translate(544.35,0)" d="M0,100v270" style="stroke: rgb(40, 52, 66); stroke-opacity: 1; stroke-width: 1px;"/><path class="x2grid crisp" transform="translate(662.6800000000001,0)" d="M0,100v270" style="stroke: rgb(40, 52, 66); stroke-opacity: 1; stroke-width: 1px;"/></g><g class="y2"><path class="y2grid crisp" transform="translate(0,304.6)" d="M440.8,0h295.2" style="stroke: rgb(40, 52, 66); stroke-opacity: 1; stroke-width: 1px;"/><path class="y2grid crisp" transform="translate(0,252.7)" d="M440.8,0h295.2" style="stroke: rgb(40, 52, 66); stroke-opacity: 1; stroke-width: 1px;"/><path class="y2grid crisp" transform="translate(0,200.8)" d="M440.8,0h295.2" style="stroke: rgb(40, 52, 66); stroke-opacity: 1; stroke-width: 1px;"/><path class="y2grid crisp" transform="translate(0,148.9)" d="M440.8,0h295.2" style="stroke: rgb(40, 52, 66); stroke-opacity: 1; stroke-width: 1px;"/></g></g><g class="zerolinelayer"><path class="y2zl zl crisp" transform="translate(0,356.5)" d="M440.8,0h295.2" style="stroke: rgb(40, 52, 66); stroke-opacity: 1; stroke-width: 2px;"/></g><path class="xlines-below"/><path class="ylines-below"/><g class="overlines-below"/><g class="xaxislayer-below"/><g class="yaxislayer-below"/><g class="overaxes-below"/><g class="plot" transform="translate(440.8, 100)" clip-path="url('#clipe7ab0ax2y2plot')"><g class="scatterlayer mlayer"><g class="trace scatter tracee1a11a" style="stroke-miterlimit: 2; opacity: 1;"><g class="fills"/><g class="errorbars"/><g class="lines"><path class="js-line" d="M0,256.5L44.38,255.77L45.02,255.67L53.38,254.11L54.02,252.76L56.6,252.14L57.24,252.14L63.03,250.58L63.67,250.27L69.46,249.13L70.1,249.13L72.03,248.61L72.67,248.3L75.89,247.57L76.53,247.37L80.39,246.85L81.04,246.85L99.04,243.84L99.69,243.21L106.12,241.97L106.76,241.97L109.33,241.24L109.98,241.14L113.19,240.51L113.84,239.79L117.05,238.75L117.69,238.54L118.98,238.02L119.62,238.02L122.84,237.61L123.48,236.88L127.98,236.47L128.63,235.22L130.56,234.49L131.2,234.08L136.35,232.21L136.99,232.31L140.2,231.17L140.85,230.86L141.49,230.86L142.13,229.72L143.42,229.82L144.06,228.06L145.35,225.77L145.99,225.46L149.21,225.05L149.85,223.28L150.49,223.28L151.14,222.04L151.78,221.93L152.42,219.55L153.07,219.55L153.71,218.61L155.64,217.68L156.28,217.68L157.57,215.5L158.21,215.29L159.5,214.56L160.14,214.36L162.07,213.73L162.71,212.9L165.93,212.18L166.57,210.83L169.79,211.24L170.43,211.76L171.07,210.62L171.72,211.55L173,210.62L173.65,211.55L175.58,211.35L176.22,209.17L184.58,208.44L185.22,208.23L187.15,207.3L187.8,207.3L188.44,207.3L189.08,206.36L192.94,205.33L193.58,205.22L199.37,204.08L200.02,203.46L207.09,201.9L207.73,201.17L211.59,198.06L212.24,196.92L212.88,196.92L213.52,195.78L215.45,195.46L216.09,193.28L218.02,192.25L218.67,191.62L221.24,191.62L221.88,188.41L225.1,188.41L225.74,184.15L226.38,184.15L227.03,180.83L228.96,180.1L229.6,178.13L232.82,177.92L233.46,177.2L234.75,176.99L235.39,169.1L236.67,167.65L237.32,163.7L237.96,163.49L238.6,162.46L241.18,155.4L241.82,154.77L243.11,153.63L243.75,152.8L245.04,149.58L245.68,148.86L247.61,147.4L248.25,146.16L248.89,146.05L249.54,143.56L250.82,140.24L251.47,140.14L253.4,139.62L254.04,134.95L254.68,134.95L255.33,131.94L256.61,131.94L257.25,130.07L257.9,129.45L258.54,127.68L259.18,127.68L259.83,141.8L262.4,138.06L263.04,137.85L264.97,137.02L265.62,136.09L268.19,135.26L268.83,135.36L270.76,133.08L271.4,133.29L272.05,134.22L272.69,133.29L274.62,132.04L275.26,131.32L280.41,130.28L281.05,130.17L284.27,129.45L284.91,128.62L286.84,127.99L287.48,127.99L293.91,126.44L294.56,126.12L295.2,126.02" style="vector-effect: non-scaling-stroke; fill: none; stroke: rgb(230, 25, 75); stroke-opacity: 1; stroke-width: 2px; opacity: 1;"/></g><g class="points"/><g class="text"/></g><g class="trace scatter trace533f85" style="stroke-miterlimit: 2; opacity: 1;"><g class="fills"/><g class="errorbars"/><g class="lines"><path class="js-line" d="M0,256.5L52.74,255.88L53.38,255.67L57.24,254.94L57.88,254.84L64.31,254.11L64.96,254.01L90.04,253.28L90.68,253.07L95.83,252.35L96.47,252.24L103.55,251.52L104.19,251.41L111.91,249.86L112.55,249.23L117.05,247.47L117.69,246.74L120.27,245.81L120.91,245.19L122.2,244.25L122.84,244.04L124.13,243.63L124.77,243.52L126.7,241.14L127.34,239.89L129.27,239.27L129.91,237.82L136.99,234.29L137.63,234.29L141.49,232.11L142.13,232.11L144.06,231.9L144.71,231.28L147.92,230.96L148.56,230.34L151.14,229.93L151.78,229.93L155.64,229.2L156.28,228.99L158.85,227.95L159.5,227.95L161.43,227.44L162.07,227.12L163.36,226.19L164,226.19L167.86,225.57L168.5,225.05L171.07,224.32L171.72,224.22L173.65,223.59L174.29,223.49L180.08,221.93L180.72,221.83L195.51,219.24L196.16,219.13L213.52,216.95L214.16,216.95L217.38,216.33L218.02,215.71L219.95,215.29L220.6,214.67L225.1,213.21L225.74,212.49L227.67,211.87L228.31,211.87L229.6,211.03L230.24,210.72L232.17,209.37L232.82,209.37L236.03,207.71L236.67,207.71L239.25,206.57L239.89,206.36L242.46,205.64L243.11,204.91L245.68,203.77L246.32,203.77L248.25,202.42L248.89,202.32L255.33,201.69L255.97,201.28L259.18,199.72L259.83,199.72L261.76,199.31L262.4,199.31L268.83,198.79L269.47,198.37L285.55,193.49L286.2,193.8L291.98,193.08L292.63,192.25L295.2,192.04" style="vector-effect: non-scaling-stroke; fill: none; stroke: rgb(60, 180, 75); stroke-opacity: 1; stroke-width: 2px; opacity: 1;"/></g><g class="points"/><g class="text"/></g><g class="trace scatter tracecd7c13" style="stroke-miterlimit: 2; opacity: 1;"><g class="fills"/><g class="errorbars"/><g class="lines"><path class="js-line" d="M0,256.5L46.95,255.88L47.59,255.15L53.38,255.05L54.02,254.32L59.81,254.32L60.45,245.39L62.38,245.39L63.03,242.8L66.89,242.8L67.53,235.74L73.32,235.43L73.96,230.55L77.18,230.55L77.82,224.22L81.68,224.22L82.32,216.02L88.11,216.02L88.75,214.56L94.54,214.56L95.18,208.02L96.47,204.5L97.11,204.5L101.62,204.5L102.26,200.76L106.76,200.76L107.4,176.26L111.91,176.26L112.55,173.87L120.91,173.46L121.55,172.73L125.41,172.73L126.05,172.21L134.42,171.59L135.06,170.86L138.92,170.86L139.56,169.83L143.42,169.83L144.06,168.79L147.92,168.79L148.56,167.96L152.42,167.96L153.07,166.71L156.93,166.71L157.57,165.05L161.43,165.05L162.07,163.8L165.93,163.8L166.57,162.97L174.93,162.25L175.58,160.07L179.44,160.07L180.08,157.89L183.94,157.89L184.58,155.92L188.44,155.92L189.08,154.15L192.94,154.15L193.58,152.18L197.44,152.18L198.09,150.21L201.95,150.21L202.59,146.89L206.45,146.89L207.09,141.28L210.95,141.28L211.59,133.39L215.45,133.39L216.09,124.36L219.95,124.36L220.6,116.99L224.45,116.99L225.1,107.86L228.96,107.86L229.6,103.29L233.46,103.29L234.1,97.68L237.96,97.68L238.6,92.6L242.46,92.6L243.11,87.41L246.96,87.41L247.61,83.05L251.47,83.05L252.11,77.13L255.97,77.13L256.61,68.2L260.47,68.2L261.11,64.99L264.97,64.99L265.62,63.32L269.47,63.32L270.12,61.25L273.98,61.25L274.62,59.07L282.98,58.34L283.62,57.2L291.98,56.79L292.63,55.75L295.2,55.75" style="vector-effect: non-scaling-stroke; fill: none; stroke: rgb(255, 225, 25); stroke-opacity: 1; stroke-width: 2px; opacity: 1;"/></g><g class="points"/><g class="text"/></g><g class="trace scatter tracefbd05f" style="stroke-miterlimit: 2; opacity: 1;"><g class="fills"/><g class="errorbars"/><g class="lines"><path class="js-line" d="M0,256.5L43.73,255.88L44.38,255.25L46.95,253.9L47.59,253.7L48.88,252.76L49.52,251.21L51.45,247.05L52.09,246.02L54.67,240L55.31,238.02L58.53,228.37L59.17,226.19L61.1,220.17L61.74,219.24L65.6,204.7L66.24,203.35L66.89,201.8L67.53,198.27L70.1,189.65L70.75,187.06L71.39,186.12L72.03,183.42L75.25,174.5L75.89,173.77L77.82,169.1L78.46,168.48L82.32,162.46L82.96,162.14L83.61,160.48L84.25,156.02L85.54,154.88L86.18,154.15L88.75,152.08L89.4,151.04L92.61,147.92L93.25,147.4L94.54,146.78L95.18,146.16L97.76,144.71L98.4,144.29L100.97,142.73L101.62,142.42L102.9,141.9L103.55,141.9L105.47,140.35L106.12,140.35L110.62,138.48L111.26,138.58L115.76,137.85L116.41,137.54L119.62,135.36L120.27,135.16L122.84,134.33L123.48,133.81L133.13,132.56L133.77,132.56L134.42,132.56L135.06,131.42L138.92,129.65L139.56,129.24L151.14,125.71L151.78,125.71L155,125.09L155.64,124.88L161.43,123.32L162.07,122.6L165.29,121.56L165.93,121.56L169.79,120.42L170.43,120.21L188.44,113.88L189.08,113.05L193.58,110.87L194.23,110.45L196.16,108.69L196.8,108.69L209.02,98.62L209.66,97.48L210.95,96.96L211.59,94.57L214.81,91.87L215.45,91.87L216.09,91.87L216.74,87.82L218.02,91.87L218.67,91.87L219.31,90.94L219.95,83.57L222.53,78.69L223.17,77.65L231.53,64.16L232.17,63.53L234.1,62.29L234.75,61.56L242.46,50.97L243.11,50.97L244.39,48.59L245.04,48.59L246.32,45.47L246.96,45.06L248.89,41.94L249.54,41.11L251.47,39.87L252.11,38.93L255.33,35.61L255.97,35.4L257.9,33.43L258.54,33.12L259.18,33.12L259.83,31.67L263.69,29.17L264.33,27.51L265.62,26.99L266.26,26.58L268.19,26.37L268.83,25.33L273.98,22.43L274.62,21.39L277.84,19.21L278.48,18.79L282.34,16.41L282.98,16.3L290.05,14.85L290.7,14.75L295.2,13.5" style="vector-effect: non-scaling-stroke; fill: none; stroke: rgb(67, 99, 216); stroke-opacity: 1; stroke-width: 2px; opacity: 1;"/></g><g class="points"/><g class="text"/></g><g class="trace scatter tracecab42a" style="stroke-miterlimit: 2; opacity: 1;"><g class="fills"/><g class="errorbars"/><g class="lines"><path class="js-line" d="M0,256.5L49.52,255.77L50.16,255.57L55.31,254.32L55.95,254.01L57.88,253.28L58.53,253.07L59.81,252.87L60.45,252.24L63.67,251.62L64.31,251.41L66.89,251L67.53,250.58L80.39,248.92L81.04,248.2L81.68,248.2L82.32,247.37L84.89,246.64L85.54,246.54L88.11,245.19L88.75,245.08L93.25,243.63L93.9,243.11L104.83,240.83L105.47,240.51L110.62,240L111.26,239.58L115.12,238.85L115.76,238.44L118.98,237.5L119.62,237.5L121.55,236.57L122.2,236.26L126.05,233.87L126.7,233.77L128.63,232.83L129.27,232.42L130.56,232.31L131.2,230.96L133.13,229.82L133.77,229.72L136.35,228.58L136.99,228.37L138.92,228.06L139.56,227.12L143.42,226.29L144.06,225.57L149.21,222.66L149.85,222.14L153.71,221.52L154.35,221.31L158.21,220.69L158.85,220.48L160.14,219.96L160.78,219.96L166.57,218.72L167.22,218.72L176.86,217.06L177.51,217.47L178.15,217.47L178.79,216.64L183.29,216.64L183.94,215.19L190.37,213.73L191.01,213.73L192.94,213.73L193.58,212.38L197.44,211.87L198.09,211.14L200.66,211.14L201.3,209.37L203.87,208.96L204.52,208.02L209.66,206.26L210.31,206.16L212.24,205.43L212.88,204.7L214.81,203.87L215.45,203.87L218.67,203.87L219.31,200.14L221.88,198.99L222.53,197.54L223.17,197.54L223.81,196.61L224.45,196.4L225.1,195.15L227.67,192.35L228.31,192.35L230.24,189.03L230.89,187.99L232.17,186.64L232.82,186.64L237.32,181.66L237.96,181.35L239.25,179.38L239.89,178.96L241.82,177.61L242.46,176.99L243.75,175.22L244.39,175.12L250.18,171.9L250.82,171.9L251.47,171.8L252.11,170.76L255.33,169.51L255.97,169.41L257.25,167.85L257.9,167.75L260.47,166.82L261.11,166.5L264.33,165.05L264.97,165.05L266.9,164.01L267.55,164.01L271.4,163.39L272.05,163.18L278.48,162.46L279.12,162.14L284.27,161.42L284.91,161.21L291.34,160.59L291.98,160.28L293.27,159.65L293.91,159.55L295.2,159.55" style="vector-effect: non-scaling-stroke; fill: none; stroke: rgb(245, 130, 49); stroke-opacity: 1; stroke-width: 2px; opacity: 1;"/></g><g class="points"/><g class="text"/></g><g class="trace scatter trace50bbc7" style="stroke-miterlimit: 2; opacity: 1;"><g class="fills"/><g class="errorbars"/><g class="lines"><path class="js-line" d="M0,256.5L43.73,255.88L44.38,255.67L48.24,255.05L48.88,255.05L53.38,254.53L54.02,254.11L66.24,251.73L66.89,251.41L70.1,249.75L70.75,249.44L74.6,248.4L75.25,247.37L80.39,246.85L81.04,246.22L86.82,244.67L87.47,244.36L89.4,243.63L90.04,243.42L100.33,240.72L100.97,240.72L102.9,240.1L103.55,240L109.33,237.92L109.98,237.19L111.26,236.99L111.91,235.43L113.19,235.12L113.84,232.42L115.76,232.42L116.41,231.17L118.34,230.34L118.98,229.72L120.27,229.62L120.91,228.27L122.2,226.81L122.84,225.88L124.13,225.36L124.77,225.36L126.7,222.97L127.34,222.35L128.63,221.83L129.27,221.83L131.2,218.3L131.84,217.99L137.63,214.77L138.27,214.77L145.35,211.14L145.99,211.03L149.21,210.41L149.85,210.1L157.57,208.54L158.21,208.13L162.71,207.51L163.36,207.09L164.64,207.3L165.29,207.3L166.57,206.99L167.22,206.78L178.15,203.98L178.79,203.98L182.65,202.73L183.29,202.73L185.87,201.38L186.51,201.38L189.73,200.65L190.37,200.24L193.58,199.51L194.23,199.1L199.37,196.92L200.02,196.92L200.66,196.92L201.3,195.88L209.02,192.87L209.66,192.87L213.52,190.9L214.16,190.38L215.45,189.76L216.09,189.55L219.95,188.72L220.6,186.64L223.17,186.43L223.81,185.91L225.1,184.77L225.74,184.36L227.03,182.8L227.67,182.39L230.24,181.56L230.89,181.14L233.46,180.72L234.1,179.48L235.39,178.65L236.03,176.47L239.25,175.43L239.89,175.02L241.18,174.08L241.82,174.08L243.11,172.63L243.75,172.11L245.04,170.45L245.68,170.45L247.61,169.83L248.25,168.48L250.82,167.75L251.47,167.13L255.33,166.71L255.97,166.19L261.11,165.47L261.76,164.84L267.55,162.66L268.19,162.66L277.84,162.04L278.48,161.73L285.55,159.65L286.2,159.65L289.41,158.93L290.05,158.61L295.2,157.47" style="vector-effect: non-scaling-stroke; fill: none; stroke: rgb(145, 30, 180); stroke-opacity: 1; stroke-width: 2px; opacity: 1;"/></g><g class="points"/><g class="text"/></g></g></g><g class="overplot"/><path class="xlines-above crisp" d="M0,0" style="fill: none;"/><path class="ylines-above crisp" d="M0,0" style="fill: none;"/><g class="overlines-above"/><g class="xaxislayer-above"><g class="x2tick"><text text-anchor="middle" x="0" y="383" transform="translate(544.35,0)" style="font-family: 'Open Sans', verdana, arial, sans-serif; font-size: 12px; fill: rgb(242, 245, 250); fill-opacity: 1; white-space: pre;">Jul 2020</text></g><g class="x2tick"><text text-anchor="middle" x="0" y="383" transform="translate(662.6800000000001,0)" style="font-family: 'Open Sans', verdana, arial, sans-serif; font-size: 12px; fill: rgb(242, 245, 250); fill-opacity: 1; white-space: pre;">Jan 2021</text></g></g><g class="yaxislayer-above"><g class="y2tick"><text text-anchor="end" x="439.8" y="4.199999999999999" transform="translate(0,356.5)" style="font-family: 'Open Sans', verdana, arial, sans-serif; font-size: 12px; fill: rgb(242, 245, 250); fill-opacity: 1; white-space: pre;">0</text></g><g class="y2tick"><text text-anchor="end" x="439.8" y="4.199999999999999" transform="translate(0,304.6)" style="font-family: 'Open Sans', verdana, arial, sans-serif; font-size: 12px; fill: rgb(242, 245, 250); fill-opacity: 1; white-space: pre;">500</text></g><g class="y2tick"><text text-anchor="end" x="439.8" y="4.199999999999999" transform="translate(0,252.7)" style="font-family: 'Open Sans', verdana, arial, sans-serif; font-size: 12px; fill: rgb(242, 245, 250); fill-opacity: 1; white-space: pre;">1000</text></g><g class="y2tick"><text text-anchor="end" x="439.8" y="4.199999999999999" transform="translate(0,200.8)" style="font-family: 'Open Sans', verdana, arial, sans-serif; font-size: 12px; fill: rgb(242, 245, 250); fill-opacity: 1; white-space: pre;">1500</text></g><g class="y2tick"><text text-anchor="end" x="439.8" y="4.199999999999999" transform="translate(0,148.9)" style="font-family: 'Open Sans', verdana, arial, sans-serif; font-size: 12px; fill: rgb(242, 245, 250); fill-opacity: 1; white-space: pre;">2000</text></g></g><g class="overaxes-above"/></g></g><g class="polarlayer"/><g class="ternarylayer"/><g class="geolayer"/><g class="funnelarealayer"/><g class="pielayer"/><g class="treemaplayer"/><g class="sunburstlayer"/><g class="glimages"/><defs id="topdefs-e7ab0a"><g class="clips"/><clipPath id="legende7ab0a"><rect width="139" height="124" x="0" y="0"/></clipPath></defs><g class="layer-above"><g class="imagelayer"/><g class="shapelayer"/></g><g class="infolayer"><g class="legend" pointer-events="all" transform="translate(749.12, 100)"><rect class="bg" shape-rendering="crispEdges" width="139" height="124" x="0" y="0" style="stroke: rgb(68, 68, 68); stroke-opacity: 1; fill: rgb(17, 17, 17); fill-opacity: 1; stroke-width: 0px;"/><g class="scrollbox" transform="translate(0, 0)" clip-path="url('#legende7ab0a')"><g class="groups"><g class="traces" transform="translate(0, 14.5)" style="opacity: 1;"><text class="legendtext user-select-none" text-anchor="start" x="40" y="4.680000000000001" style="font-family: 'Open Sans', verdana, arial, sans-serif; font-size: 12px; fill: rgb(242, 245, 250); fill-opacity: 1; white-space: pre;">Alameda, CA</text><g class="layers" style="opacity: 1;"><g class="legendfill"/><g class="legendlines"><path class="js-line" d="M5,0h30" style="fill: none; stroke: rgb(230, 25, 75); stroke-opacity: 1; stroke-width: 2px;"/></g><g class="legendsymbols"><g class="legendpoints"/></g></g><rect class="legendtoggle" pointer-events="all" x="0" y="-9.5" width="133.046875" height="19" style="cursor: pointer; fill: rgb(0, 0, 0); fill-opacity: 0;"/></g><g class="traces" transform="translate(0, 33.5)" style="opacity: 1;"><text class="legendtext user-select-none" text-anchor="start" x="40" y="4.680000000000001" style="font-family: 'Open Sans', verdana, arial, sans-serif; font-size: 12px; fill: rgb(242, 245, 250); fill-opacity: 1; white-space: pre;">St Lucie, FL</text><g class="layers" style="opacity: 1;"><g class="legendfill"/><g class="legendlines"><path class="js-line" d="M5,0h30" style="fill: none; stroke: rgb(60, 180, 75); stroke-opacity: 1; stroke-width: 2px;"/></g><g class="legendsymbols"><g class="legendpoints"/></g></g><rect class="legendtoggle" pointer-events="all" x="0" y="-9.5" width="133.046875" height="19" style="cursor: pointer; fill: rgb(0, 0, 0); fill-opacity: 0;"/></g><g class="traces" transform="translate(0, 52.5)" style="opacity: 1;"><text class="legendtext user-select-none" text-anchor="start" x="40" y="4.680000000000001" style="font-family: 'Open Sans', verdana, arial, sans-serif; font-size: 12px; fill: rgb(242, 245, 250); fill-opacity: 1; white-space: pre;">Providence, RI</text><g class="layers" style="opacity: 1;"><g class="legendfill"/><g class="legendlines"><path class="js-line" d="M5,0h30" style="fill: none; stroke: rgb(255, 225, 25); stroke-opacity: 1; stroke-width: 2px;"/></g><g class="legendsymbols"><g class="legendpoints"/></g></g><rect class="legendtoggle" pointer-events="all" x="0" y="-9.5" width="133.046875" height="19" style="cursor: pointer; fill: rgb(0, 0, 0); fill-opacity: 0;"/></g><g class="traces" transform="translate(0, 71.5)" style="opacity: 1;"><text class="legendtext user-select-none" text-anchor="start" x="40" y="4.680000000000001" style="font-family: 'Open Sans', verdana, arial, sans-serif; font-size: 12px; fill: rgb(242, 245, 250); fill-opacity: 1; white-space: pre;">Essex, MA</text><g class="layers" style="opacity: 1;"><g class="legendfill"/><g class="legendlines"><path class="js-line" d="M5,0h30" style="fill: none; stroke: rgb(67, 99, 216); stroke-opacity: 1; stroke-width: 2px;"/></g><g class="legendsymbols"><g class="legendpoints"/></g></g><rect class="legendtoggle" pointer-events="all" x="0" y="-9.5" width="133.046875" height="19" style="cursor: pointer; fill: rgb(0, 0, 0); fill-opacity: 0;"/></g><g class="traces" transform="translate(0, 90.5)" style="opacity: 1;"><text class="legendtext user-select-none" text-anchor="start" x="40" y="4.680000000000001" style="font-family: 'Open Sans', verdana, arial, sans-serif; font-size: 12px; fill: rgb(242, 245, 250); fill-opacity: 1; white-space: pre;">Mecklenburg, NC</text><g class="layers" style="opacity: 1;"><g class="legendfill"/><g class="legendlines"><path class="js-line" d="M5,0h30" style="fill: none; stroke: rgb(245, 130, 49); stroke-opacity: 1; stroke-width: 2px;"/></g><g class="legendsymbols"><g class="legendpoints"/></g></g><rect class="legendtoggle" pointer-events="all" x="0" y="-9.5" width="133.046875" height="19" style="cursor: pointer; fill: rgb(0, 0, 0); fill-opacity: 0;"/></g><g class="traces" transform="translate(0, 109.5)" style="opacity: 1;"><text class="legendtext user-select-none" text-anchor="start" x="40" y="4.680000000000001" style="font-family: 'Open Sans', verdana, arial, sans-serif; font-size: 12px; fill: rgb(242, 245, 250); fill-opacity: 1; white-space: pre;">Lee, FL</text><g class="layers" style="opacity: 1;"><g class="legendfill"/><g class="legendlines"><path class="js-line" d="M5,0h30" style="fill: none; stroke: rgb(145, 30, 180); stroke-opacity: 1; stroke-width: 2px;"/></g><g class="legendsymbols"><g class="legendpoints"/></g></g><rect class="legendtoggle" pointer-events="all" x="0" y="-9.5" width="133.046875" height="19" style="cursor: pointer; fill: rgb(0, 0, 0); fill-opacity: 0;"/></g></g></g><rect class="scrollbar" rx="20" ry="3" width="0" height="0" x="0" y="0" style="fill: rgb(128, 139, 164); fill-opacity: 1;"/></g><g class="g-gtitle"/><g class="g-xtitle"><text class="xtitle" x="227.6" y="410.8" text-anchor="middle" style="font-family: 'Open Sans', verdana, arial, sans-serif; font-size: 14px; fill: rgb(242, 245, 250); opacity: 1; font-weight: normal; white-space: pre;">Date</text></g><g class="g-x2title"><text class="x2title" x="588.4" y="410.8" text-anchor="middle" style="font-family: 'Open Sans', verdana, arial, sans-serif; font-size: 14px; fill: rgb(242, 245, 250); opacity: 1; font-weight: normal; white-space: pre;">Date</text></g><g class="g-ytitle"><text class="ytitle" transform="rotate(-90,28.168750000000003,235)" x="28.168750000000003" y="235" text-anchor="middle" style="font-family: 'Open Sans', verdana, arial, sans-serif; font-size: 14px; fill: rgb(242, 245, 250); opacity: 1; font-weight: normal; white-space: pre;">Cases</text></g><g class="g-y2title"><text class="y2title" transform="rotate(-90,388.29375,235)" x="388.29375" y="235" text-anchor="middle" style="font-family: 'Open Sans', verdana, arial, sans-serif; font-size: 14px; fill: rgb(242, 245, 250); opacity: 1; font-weight: normal; white-space: pre;">Deaths</text></g><g class="annotation" data-index="0" style="opacity: 1;"><g class="annotation-text-g" transform="rotate(0,227.6,89.5)"><g class="cursor-pointer" transform="translate(203, 79)"><rect class="bg" x="0.5" y="0.5" width="48" height="20" style="stroke-width: 1px; stroke: rgb(0, 0, 0); stroke-opacity: 0; fill: rgb(0, 0, 0); fill-opacity: 0;"/><text class="annotation-text" text-anchor="middle" x="24.6875" y="16" style="font-family: 'Open Sans', verdana, arial, sans-serif; font-size: 16px; fill: rgb(242, 245, 250); fill-opacity: 1; white-space: pre;">Cases</text></g></g></g><g class="annotation" data-index="1" style="opacity: 1;"><g class="annotation-text-g" transform="rotate(0,588.4000000000001,89.5)"><g class="cursor-pointer" transform="translate(561, 79)"><rect class="bg" x="0.5" y="0.5" width="54" height="20" style="stroke-width: 1px; stroke: rgb(0, 0, 0); stroke-opacity: 0; fill: rgb(0, 0, 0); fill-opacity: 0;"/><text class="annotation-text" text-anchor="middle" x="27.359375" y="16" style="font-family: 'Open Sans', verdana, arial, sans-serif; font-size: 16px; fill: rgb(242, 245, 250); fill-opacity: 1; white-space: pre;">Deaths</text></g></g></g></g></svg>