<svg class="main-svg" xmlns="http://www.w3.org/2000/svg" xmlns:xlink="http://www.w3.org/1999/xlink" width="900" height="450" style="" viewBox="0 0 900 450"><rect x="0" y="0" width="900" height="450" style="fill: rgb(17, 17, 17); fill-opacity: 1;"/><defs id="defs-2c4062"><g class="clips"><clipPath id="clip2c4062xyplot" class="plotclip"><rect width="300.6" height="270"/></clipPath><clipPath id="clip2c4062x2y2plot" class="plotclip"><rect width="300.59999999999997" height="270"/></clipPath><clipPath class="axesclip" id="clip2c4062x"><rect x="80" y="0" width="300.6" height="450"/></clipPath><clipPath class="axesclip" id="clip2c4062y"><rect x="0" y="100" width="900" height="270"/></clipPath><clipPath class="axesclip" id="clip2c4062xy"><rect x="80" y="100" width="300.6" height="270"/></clipPath><clipPath class="axesclip" id="clip2c4062y2"><rect x="0" y="100" width="900" height="270"/></clipPath><clipPath class="axesclip" id="clip2c4062xy2"><rect x="80" y="100" width="300.6" height="270"/></clipPath><clipPath class="axesclip" id="clip2c4062x2"><rect x="447.40000000000003" y="0" width="300.59999999999997" height="450"/></clipPath><clipPath class="axesclip" id="clip2c4062x2y"><rect x="447.40000000000003" y="100" width="300.59999999999997" height="270"/></clipPath><clipPath class="axesclip" id="clip2c4062x2y2"><rect x="447.40000000000003" y="100" width="300.59999999999997" height="270"/></clipPath></g><g class="gradients"/></defs><g class="bglayer"/><g class="layer-below"><g class="imagelayer"/><g class="shapelayer"/></g><g class="cartesianlayer"><g class="subplot xy"><g class="layer-subplot"><g class="shapelayer"/><g class="imagelayer"/></g><g class="gridlayer"><g class="x"><path class="xgrid crisp" transform="translate(123.42,0)" d="M0,100v270" style="stroke: rgb(40, 52, 66); stroke-opacity: 1; stroke-width: 1px;"/><path class="xgrid crisp" transform="translate(191.32999999999998,0)" d="M0,100v270" style="stroke: rgb(40, 52, 66); stroke-opacity: 1; stroke-width: 1px;"/><path class="xgrid crisp" transform="translate(259.25,0)" d="M0,100v270" style="stroke: rgb(40, 52, 66); stroke-opacity: 1; stroke-width: 1px;"/><path class="xgrid crisp" transform="translate(328.27,0)" d="M0,100v270" style="stroke: rgb(40, 52, 66); stroke-opacity: 1; stroke-width: 1px;"/></g><g class="y"><path class="ygrid crisp" transform="translate(0,302.82)" d="M80,0h300.6" style="stroke: rgb(40, 52, 66); stroke-opacity: 1; stroke-width: 1px;"/><path class="ygrid crisp" transform="translate(0,249.15)" d="M80,0h300.6" style="stroke: rgb(40, 52, 66); stroke-opacity: 1; stroke-width: 1px;"/><path class="ygrid crisp" transform="translate(0,195.47)" d="M80,0h300.6" style="stroke: rgb(40, 52, 66); stroke-opacity: 1; stroke-width: 1px;"/><path class="ygrid crisp" transform="translate(0,141.8)" d="M80,0h300.6" style="stroke: rgb(40, 52, 66); stroke-opacity: 1; stroke-width: 1px;"/></g></g><g class="zerolinelayer"><path class="yzl zl crisp" transform="translate(0,356.5)" d="M80,0h300.6" style="stroke: rgb(40, 52, 66); stroke-opacity: 1; stroke-width: 2px;"/></g><path class="xlines-below"/><path class="ylines-below"/><g class="overlines-below"/><g class="xaxislayer-below"/><g class="yaxislayer-below"/><g class="overaxes-below"/><g class="plot" transform="translate(80, 100)" clip-path="url('#clip2c4062xyplot')"><g class="scatterlayer mlayer"><g class="trace scatter tracec6ca27" style="stroke-miterlimit: 2; opacity: 1;"><g class="fills"/><g class="errorbars"/><g class="lines"><path class="js-line" d="M0,256.5L65.69,255.8L66.8,255.36L72.37,254.14L73.48,253.75L77.93,252.65L79.05,252.25L90.18,247.45L91.29,247.01L92.41,247.01L93.52,246.17L110.22,239.29L111.33,238.94L114.67,237.43L115.79,237.08L138.05,225.65L139.17,224.44L143.62,221.19L144.73,220.11L153.64,214.15L154.75,213.72L156.98,212.28L158.09,211.24L163.66,207.84L164.77,206.71L168.11,204.92L169.23,202.75L174.79,196.3L175.91,195.63L177.02,194.64L178.13,192.48L181.47,187.02L182.59,186.12L183.7,182.91L184.81,182.57L185.93,182.57L187.04,178.72L190.38,173.57L191.49,173.57L194.83,165.49L195.95,163.89L199.29,157.34L200.4,157.14L201.51,155.77L202.63,152.98L205.97,145.61L207.08,145.18L208.19,144.45L209.31,142.35L210.42,140.85L211.53,137.01L212.65,137.01L213.76,133.22L214.87,132.79L215.99,129.33L217.1,128.66L218.21,126.22L221.55,126.22L222.67,114.81L223.78,114.6L224.89,109.82L226.01,105.15L227.12,103.75L228.23,100.22L229.35,100.22L230.46,94.15L231.57,94.08L237.14,77.3L238.25,76.98L239.37,76.87L240.48,71.05L241.59,69.87L242.71,67.34L243.82,64.91L244.93,64.91L252.73,51.13L253.84,51.13L254.95,48.78L256.07,48.78L258.29,44.91L259.41,43.74L260.52,43.55L261.63,41.89L266.09,40.06L267.2,37.89L269.43,35.81L270.54,34.92L277.22,29.03L278.33,28.49L286.13,23.05L287.24,22.38L290.58,20.95L291.69,19.55L297.26,16.36L298.37,15.95L299.49,15.4L300.6,13.5" style="vector-effect: non-scaling-stroke; fill: none; stroke: rgb(230, 25, 75); stroke-opacity: 1; stroke-width: 2px; opacity: 1;"/></g><g class="points"/><g class="text"/></g><g class="trace scatter trace7bb959" style="stroke-miterlimit: 2; opacity: 1;"><g class="fills"/><g class="errorbars"/><g class="lines"><path class="js-line" d="M0,256.5L170.34,255.75L171.45,255.72L199.29,254.71L200.4,254.7L214.87,254.47L215.99,254.47L231.57,253.77L232.69,253.71L257.18,252.68L258.29,252.67L300.6,250.91" style="vector-effect: non-scaling-stroke; fill: none; stroke: rgb(60, 180, 75); stroke-opacity: 1; stroke-width: 2px; opacity: 1;"/></g><g class="points"/><g class="text"/></g><g class="trace scatter trace08e1a8" style="stroke-miterlimit: 2; opacity: 1;"><g class="fills"/><g class="errorbars"/><g class="lines"><path class="js-line" d="M0,256.5L142.51,255.76L143.62,255.72L146.96,255.43L148.07,254.89L150.3,254.04L151.41,253.93L158.09,253.22L159.21,252.89L175.91,252.7L177.02,252.7L201.51,252.32L202.63,252.31L227.12,250.76L228.23,250.39L237.14,249.88L238.25,249.45L257.18,248.7L258.29,248.66L297.26,247.46L298.37,247.17L300.6,247" style="vector-effect: non-scaling-stroke; fill: none; stroke: rgb(255, 225, 25); stroke-opacity: 1; stroke-width: 2px; opacity: 1;"/></g><g class="points"/><g class="text"/></g><g class="trace scatter trace3bf84d" style="stroke-miterlimit: 2; opacity: 1;"><g class="fills"/><g class="errorbars"/><g class="lines"><path class="js-line" d="M0,256.5L168.11,255.8L169.23,255.73L195.95,254.03L197.06,253.96L203.74,253.43L204.85,253.33L210.42,252.49L211.53,252.35L220.44,251.47L221.55,251.12L290.58,244.42L291.69,244.38L300.6,244.02" style="vector-effect: non-scaling-stroke; fill: none; stroke: rgb(67, 99, 216); stroke-opacity: 1; stroke-width: 2px; opacity: 1;"/></g><g class="points"/><g class="text"/></g><g class="trace scatter traceda1316" style="stroke-miterlimit: 2; opacity: 1;"><g class="fills"/><g class="errorbars"/><g class="lines"><path class="js-line" d="M0,256.5L84.61,255.89L85.73,255.63L123.58,254.57L124.69,254.46L140.28,251.91L141.39,251.55L156.98,250.36L158.09,250.19L167,249.47L168.11,249.38L180.36,247.76L181.47,247.34L190.38,245.65L191.49,245.56L193.72,244.79L194.83,244.61L205.97,242.02L207.08,241.89L209.31,240.85L210.42,240.77L214.87,239.92L215.99,239.92L220.44,238.07L221.55,237.82L231.57,235.47L232.69,235.47L238.25,233.47L239.37,233.43L242.71,232.08L243.82,231.66L248.27,230.91L249.39,230.91L252.73,230.16L253.84,229.79L257.18,229.47L258.29,228.63L264.97,225.77L266.09,225.1L279.45,220.38L280.56,220.18L300.6,212.71" style="vector-effect: non-scaling-stroke; fill: none; stroke: rgb(245, 130, 49); stroke-opacity: 1; stroke-width: 2px; opacity: 1;"/></g><g class="points"/><g class="text"/></g><g class="trace scatter tracede5f7a" style="stroke-miterlimit: 2; opacity: 1;"><g class="fills"/><g class="errorbars"/><g class="lines"><path class="js-line" d="M0,256.5L165.89,255.75L167,255.72L191.49,254.99L192.61,254.9L238.25,251.62L239.37,251.54L257.18,250.32L258.29,250.31L272.77,248.26L273.88,247.97L277.22,247.47L278.33,247.39L296.15,243.78L297.26,243.3L300.6,242.81" style="vector-effect: non-scaling-stroke; fill: none; stroke: rgb(145, 30, 180); stroke-opacity: 1; stroke-width: 2px; opacity: 1;"/></g><g class="points"/><g class="text"/></g></g></g><g class="overplot"/><path class="xlines-above crisp" d="M0,0" style="fill: none;"/><path class="ylines-above crisp" d="M0,0" style="fill: none;"/><g class="overlines-above"/><g class="xaxislayer-above"><g class="xtick"><text text-anchor="middle" x="0" y="383" transform="translate(123.42,0)" style="font-family: 'Open Sans', verdana, arial, sans-serif; font-size: 12px; fill: rgb(242, 245, 250); fill-opacity: 1; white-space: pre;">Mar 2020</text></g><g class="xtick"><text text-anchor="middle" x="0" y="383" transform="translate(191.32999999999998,0)" style="font-family: 'Open Sans', verdana, arial, sans-serif; font-size: 12px; fill: rgb(242, 245, 250); fill-opacity: 1; white-space: pre;">May 2020</text></g><g class="xtick"><text text-anchor="middle" x="0" y="383" transform="translate(259.25,0)" style="font-family: 'Open Sans', verdana, arial, sans-serif; font-size: 12px; fill: rgb(242, 245, 250); fill-opacity: 1; white-space: pre;">Jul 2020</text></g><g class="xtick"><text text-anchor="middle" x="0" y="383" transform="translate(328.27,0)" style="font-family: 'Open Sans', verdana, arial, sans-serif; font-size: 12px; fill: rgb(242, 245, 250); fill-opacity: 1; white-space: pre;">Sep 2020</text></g></g><g class="yaxislayer-above"><g class="ytick"><text text-anchor="end" x="79" y="4.199999999999999" transform="translate(0,356.5)" style="font-family: 'Open Sans', verdana, arial, sans-serif; font-size: 12px; fill: rgb(242, 245, 250); fill-opacity: 1; white-space: pre;">0</text></g><g class="ytick"><text text-anchor="end" x="79" y="4.199999999999999" transform="translate(0,302.82)" style="font-family: 'Open Sans', verdana, arial, sans-serif; font-size: 12px; fill: rgb(242, 245, 250); fill-opacity: 1; white-space: pre;">5k</text></g><g class="ytick"><text text-anchor="end" x="79" y="4.199999999999999" transform="translate(0,249.15)" style="font-family: 'Open Sans', verdana, arial, sans-serif; font-size: 12px; fill: rgb(242, 245, 250); fill-opacity: 1; white-space: pre;">10k</text></g><g class="ytick"><text text-anchor="end" x="79" y="4.199999999999999" transform="translate(0,195.47)" style="font-family: 'Open Sans', verdana, arial, sans-serif; font-size: 12px; fill: rgb(242, 245, 250); fill-opacity: 1; white-space: pre;">15k</text></g><g class="ytick"><text text-anchor="end" x="79" y="4.199999999999999" transform="translate(0,141.8)" style="font-family: 'Open Sans', verdana, arial, sans-serif; font-size: 12px; fill: rgb(242, 245, 250); fill-opacity: 1; white-space: pre;">20k</text></g></g><g class="overaxes-above"/></g><g class="subplot x2y2"><g class="layer-subplot"><g class="shapelayer"/><g class="imagelayer"/></g><g class="gridlayer"><g class="x2"><path class="x2grid crisp" transform="translate(490.82000000000005,0)" d="M0,100v270" style="stroke: rgb(40, 52, 66); stroke-opacity: 1; stroke-width: 1px;"/><path class="x2grid crisp" transform="translate(558.73,0)" d="M0,100v270" style="stroke: rgb(40, 52, 66); stroke-opacity: 1; stroke-width: 1px;"/><path class="x2grid crisp" transform="translate(626.6500000000001,0)" d="M0,100v270" style="stroke: rgb(40, 52, 66); stroke-opacity: 1; stroke-width: 1px;"/><path class="x2grid crisp" transform="translate(695.6700000000001,0)" d="M0,100v270" style="stroke: rgb(40, 52, 66); stroke-opacity: 1; stroke-width: 1px;"/></g><g class="y2"><path class="y2grid crisp" transform="translate(0,300.38)" d="M447.40000000000003,0h300.59999999999997" style="stroke: rgb(40, 52, 66); stroke-opacity: 1; stroke-width: 1px;"/><path class="y2grid crisp" transform="translate(0,244.26)" d="M447.40000000000003,0h300.59999999999997" style="stroke: rgb(40, 52, 66); stroke-opacity: 1; stroke-width: 1px;"/><path class="y2grid crisp" transform="translate(0,188.14)" d="M447.40000000000003,0h300.59999999999997" style="stroke: rgb(40, 52, 66); stroke-opacity: 1; stroke-width: 1px;"/><path class="y2grid crisp" transform="translate(0,132.02)" d="M447.40000000000003,0h300.59999999999997" style="stroke: rgb(40, 52, 66); stroke-opacity: 1; stroke-width: 1px;"/></g></g><g class="zerolinelayer"><path class="y2zl zl crisp" transform="translate(0,356.5)" d="M447.40000000000003,0h300.59999999999997" style="stroke: rgb(40, 52, 66); stroke-opacity: 1; stroke-width: 2px;"/></g><path class="xlines-below"/><path class="ylines-below"/><g class="overlines-below"/><g class="xaxislayer-below"/><g class="yaxislayer-below"/><g class="overaxes-below"/><g class="plot" transform="translate(447.40000000000003, 100)" clip-path="url('#clip2c4062x2y2plot')"><g class="scatterlayer mlayer"><g class="trace scatter trace0a4abf" style="stroke-miterlimit: 2; opacity: 1;"><g class="fills"/><g class="errorbars"/><g class="lines"><path class="js-line" d="M0,256.5L67.91,255.94L69.03,255.38L70.14,255.38L71.25,254.26L72.37,254.26L73.48,253.13L75.71,252.57L76.82,252.57L79.05,251.45L80.16,249.77L83.5,249.2L84.61,248.08L86.84,246.96L87.95,245.28L91.29,243.59L92.41,243.59L93.52,236.3L94.63,234.61L95.75,234.61L96.86,233.49L102.43,230.68L103.54,229.56L104.65,227.32L105.77,227.32L106.88,227.32L107.99,225.63L112.45,221.14L113.56,221.14L114.67,221.14L115.79,219.46L118.01,218.9L119.13,217.22L121.35,216.65L122.47,216.65L126.92,210.48L128.03,209.92L130.26,209.92L131.37,208.24L133.6,205.99L134.71,205.99L136.94,204.31L138.05,204.31L141.39,203.75L142.51,203.19L145.85,202.62L146.96,202.06L149.19,202.06L150.3,199.82L154.75,199.26L155.87,197.57L158.09,195.33L159.21,195.33L160.32,193.65L161.43,193.65L162.55,193.65L163.66,191.4L167,190.28L168.11,190.28L169.23,189.16L170.34,189.16L171.45,188.03L172.57,184.67L173.68,183.54L174.79,183.54L175.91,181.86L177.02,181.86L181.47,177.93L182.59,177.93L185.93,177.93L187.04,176.81L188.15,174.56L189.27,174L191.49,173.44L192.61,173.44L194.83,170.08L195.95,170.08L197.06,166.15L198.17,165.59L200.4,165.59L201.51,162.78L204.85,156.61L205.97,156.61L208.19,156.61L209.31,154.92L212.65,154.36L213.76,150.43L215.99,150.43L217.1,148.75L219.33,148.19L220.44,148.19L221.55,148.19L222.67,141.45L224.89,141.45L226.01,137.53L228.23,133.6L229.35,133.6L230.46,132.47L231.57,132.47L236.03,125.74L237.14,125.74L239.37,125.18L240.48,121.81L243.82,117.88L244.93,117.88L246.05,112.27L247.16,112.27L248.27,112.27L249.39,102.73L250.5,90.95L251.61,90.38L252.73,88.7L253.84,88.7L256.07,88.14L257.18,86.46L258.29,86.46L259.41,76.92L260.52,76.92L261.63,70.18L262.75,69.62L263.86,56.71L264.97,56.71L266.09,51.66L268.31,46.61L269.43,46.61L270.54,46.61L271.65,37.63L274.99,29.77L276.11,28.65L278.33,28.65L279.45,27.53L280.56,25.29L281.67,20.8L282.79,20.8L283.9,17.99L286.13,17.99L287.24,16.87L288.35,14.62L289.47,14.62L295.03,14.62L296.15,13.5L300.6,13.5" style="vector-effect: non-scaling-stroke; fill: none; stroke: rgb(230, 25, 75); stroke-opacity: 1; stroke-width: 2px; opacity: 1;"/></g><g class="points"/><g class="text"/></g><g class="trace scatter traceac9cce" style="stroke-miterlimit: 2; opacity: 1;"><g class="fills"/><g class="errorbars"/><g class="lines"><path class="js-line" d="M0,256.5L125.81,255.94L126.92,255.38L231.57,254.82L232.69,254.26L242.71,253.69L243.82,253.13L251.61,252.57L252.73,252.01L264.97,251.45L266.09,250.89L268.31,250.33L269.43,250.33L293.92,249.77L295.03,249.2L296.15,249.77L297.26,249.2L300.6,248.64" style="vector-effect: non-scaling-stroke; fill: none; stroke: rgb(60, 180, 75); stroke-opacity: 1; stroke-width: 2px; opacity: 1;"/></g><g class="points"/><g class="text"/></g><g class="trace scatter traceb6ba5a" style="stroke-miterlimit: 2; opacity: 1;"><g class="fills"/><g class="errorbars"/><g class="lines"><path class="js-line" d="M0,256.5L89.07,256.5L90.18,254.82L105.77,254.26L106.88,253.13L184.81,252.57L185.93,252.01L214.87,251.45L215.99,250.89L297.26,250.33L298.37,249.77L300.6,249.2" style="vector-effect: non-scaling-stroke; fill: none; stroke: rgb(255, 225, 25); stroke-opacity: 1; stroke-width: 2px; opacity: 1;"/></g><g class="points"/><g class="text"/></g><g class="trace scatter trace25ea96" style="stroke-miterlimit: 2; opacity: 1;"><g class="fills"/><g class="errorbars"/><g class="lines"><path class="js-line" d="M0,256.5L130.26,255.94L131.37,255.38L200.4,254.82L201.51,254.26L209.31,253.69L210.42,253.13L212.65,252.57L213.76,252.57L218.21,252.01L219.33,251.45L223.78,250.89L224.89,250.33L229.35,250.33L230.46,248.64L236.03,248.08L237.14,247.52L239.37,245.28L240.48,244.71L252.73,244.15L253.84,243.59L257.18,243.03L258.29,241.91L260.52,241.35L261.63,241.35L267.2,240.79L268.31,240.23L277.22,239.66L278.33,239.1L289.47,238.54L290.58,237.42L295.03,237.42L296.15,238.54L298.37,236.3L299.49,236.3L300.6,236.3" style="vector-effect: non-scaling-stroke; fill: none; stroke: rgb(67, 99, 216); stroke-opacity: 1; stroke-width: 2px; opacity: 1;"/></g><g class="points"/><g class="text"/></g><g class="trace scatter trace6aff7b" style="stroke-miterlimit: 2; opacity: 1;"><g class="fills"/><g class="errorbars"/><g class="lines"><path class="js-line" d="M0,256.5L93.52,256.5L94.63,255.38L100.2,254.82L101.31,254.26L146.96,253.69L148.07,253.13L200.4,252.57L201.51,252.01L204.85,251.45L205.97,250.33L209.31,250.33L210.42,249.2L218.21,249.2L219.33,247.52L222.67,246.4L223.78,246.4L226.01,246.4L227.12,245.28L232.69,244.71L233.8,244.15L239.37,243.59L240.48,243.03L242.71,241.35L243.82,240.79L246.05,240.23L247.16,240.23L251.61,240.23L252.73,239.1L256.07,238.54L257.18,237.98L261.63,236.3L262.75,236.3L270.54,235.74L271.65,235.17L273.88,234.61L274.99,234.05L279.45,233.49L280.56,231.81L282.79,229.56L283.9,229.56L288.35,229L289.47,228.44L298.37,227.88L299.49,227.32L300.6,227.32" style="vector-effect: non-scaling-stroke; fill: none; stroke: rgb(245, 130, 49); stroke-opacity: 1; stroke-width: 2px; opacity: 1;"/></g><g class="points"/><g class="text"/></g><g class="trace scatter trace3b155b" style="stroke-miterlimit: 2; opacity: 1;"><g class="fills"/><g class="errorbars"/><g class="lines"><path class="js-line" d="M0,256.5L181.47,255.94L182.59,255.38L231.57,254.82L232.69,254.26L238.25,252.01L239.37,252.01L242.71,250.89L243.82,250.89L246.05,250.33L247.16,250.33L256.07,249.77L257.18,248.64L263.86,248.64L264.97,245.84L271.65,245.28L272.77,244.71L274.99,244.71L276.11,243.59L277.22,243.59L278.33,241.91L281.67,240.23L282.79,240.23L292.81,239.66L293.92,238.54L300.6,238.54" style="vector-effect: non-scaling-stroke; fill: none; stroke: rgb(145, 30, 180); stroke-opacity: 1; stroke-width: 2px; opacity: 1;"/></g><g class="points"/><g class="text"/></g></g></g><g class="overplot"/><path class="xlines-above crisp" d="M0,0" style="fill: none;"/><path class="ylines-above crisp" d="M0,0" style="fill: none;"/><g class="overlines-above"/><g class="xaxislayer-above"><g class="x2tick"><text text-anchor="middle" x="0" y="383" transform="translate(490.82000000000005,0)" style="font-family: 'Open Sans', verdana, arial, sans-serif; font-size: 12px; fill: rgb(242, 245, 250); fill-opacity: 1; white-space: pre;">Mar 2020</text></g><g class="x2tick"><text text-anchor="middle" x="0" y="383" transform="translate(558.73,0)" style="font-family: 'Open Sans', verdana, arial, sans-serif; font-size: 12px; fill: rgb(242, 245, 250); fill-opacity: 1; white-space: pre;">May 2020</text></g><g class="x2tick"><text text-anchor="middle" x="0" y="383" transform="translate(626.6500000000001,0)" style="font-family: 'Open Sans', verdana, arial, sans-serif; font-size: 12px; fill: rgb(242, 245, 250); fill-opacity: 1; white-space: pre;">Jul 2020</text></g><g class="x2tick"><text text-anchor="middle" x="0" y="383" transform="translate(695.6700000000001,0)" style="font-family: 'Open Sans', verdana, arial, sans-serif; font-size: 12px; fill: rgb(242, 245, 250); fill-opacity: 1; white-space: pre;">Sep 2020</text></g></g><g class="yaxislayer-above"><g class="y2tick"><text text-anchor="end" x="446.40000000000003" y="4.199999999999999" transform="translate(0,356.5)" style="font-family: 'Open Sans', verdana, arial, sans-serif; font-size: 12px; fill: rgb(242, 245, 250); fill-opacity: 1; white-space: pre;">0</text></g><g class="y2tick"><text text-anchor="end" x="446.40000000000003" y="4.199999999999999" transform="translate(0,300.38)" style="font-family: 'Open Sans', verdana, arial, sans-serif; font-size: 12px; fill: rgb(242, 245, 250); fill-opacity: 1; white-space: pre;">100</text></g><g class="y2tick"><text text-anchor="end" x="446.40000000000003" y="4.199999999999999" transform="translate(0,244.26)" style="font-family: 'Open Sans', verdana, arial, sans-serif; font-size: 12px; fill: rgb(242, 245, 250); fill-opacity: 1; white-space: pre;">200</text></g><g class="y2tick"><text text-anchor="end" x="446.40000000000003" y="4.199999999999999" transform="translate(0,188.14)" style="font-family: 'Open Sans', verdana, arial, sans-serif; font-size: 12px; fill: rgb(242, 245, 250); fill-opacity: 1; white-space: pre;">300</text></g><g class="y2tick"><text text-anchor="end" x="446.40000000000003" y="4.199999999999999" transform="translate(0,132.02)" style="font-family: 'Open Sans', verdana, arial, sans-serif; font-size: 12px; fill: rgb(242, 245, 250); fill-opacity: 1; white-space: pre;">400</text></g></g><g class="overaxes-above"/></g></g><g class="polarlayer"/><g class="ternarylayer"/><g class="geolayer"/><g class="funnelarealayer"/><g class="pielayer"/><g class="treemaplayer"/><g class="sunburstlayer"/><g class="glimages"/><defs id="topdefs-2c4062"><g class="clips"/><clipPath id="legend2c4062"><rect width="127" height="124" x="0" y="0"/></clipPath></defs><g class="layer-above"><g class="imagelayer"/><g class="shapelayer"/></g><g class="infolayer"><g class="legend" pointer-events="all" transform="translate(761.36, 100)"><rect class="bg" shape-rendering="crispEdges" width="127" height="124" x="0" y="0" style="stroke: rgb(68, 68, 68); stroke-opacity: 1; fill: rgb(17, 17, 17); fill-opacity: 1; stroke-width: 0px;"/><g class="scrollbox" transform="translate(0, 0)" clip-path="url('#legend2c4062')"><g class="groups"><g class="traces" transform="translate(0, 14.5)" style="opacity: 1;"><text class="legendtext user-select-none" text-anchor="start" x="40" y="4.680000000000001" style="font-family: 'Open Sans', verdana, arial, sans-serif; font-size: 12px; fill: rgb(242, 245, 250); fill-opacity: 1; white-space: pre;">Alameda, CA</text><g class="layers" style="opacity: 1;"><g class="legendfill"/><g class="legendlines"><path class="js-line" d="M5,0h30" style="fill: none; stroke: rgb(230, 25, 75); stroke-opacity: 1; stroke-width: 2px;"/></g><g class="legendsymbols"><g class="legendpoints"/></g></g><rect class="legendtoggle" pointer-events="all" x="0" y="-9.5" width="121.8125" height="19" style="cursor: pointer; fill: rgb(0, 0, 0); fill-opacity: 0;"/></g><g class="traces" transform="translate(0, 33.5)" style="opacity: 1;"><text class="legendtext user-select-none" text-anchor="start" x="40" y="4.680000000000001" style="font-family: 'Open Sans', verdana, arial, sans-serif; font-size: 12px; fill: rgb(242, 245, 250); fill-opacity: 1; white-space: pre;">Dodge, GA</text><g class="layers" style="opacity: 1;"><g class="legendfill"/><g class="legendlines"><path class="js-line" d="M5,0h30" style="fill: none; stroke: rgb(60, 180, 75); stroke-opacity: 1; stroke-width: 2px;"/></g><g class="legendsymbols"><g class="legendpoints"/></g></g><rect class="legendtoggle" pointer-events="all" x="0" y="-9.5" width="121.8125" height="19" style="cursor: pointer; fill: rgb(0, 0, 0); fill-opacity: 0;"/></g><g class="traces" transform="translate(0, 52.5)" style="opacity: 1;"><text class="legendtext user-select-none" text-anchor="start" x="40" y="4.680000000000001" style="font-family: 'Open Sans', verdana, arial, sans-serif; font-size: 12px; fill: rgb(242, 245, 250); fill-opacity: 1; white-space: pre;">Greensville, VA</text><g class="layers" style="opacity: 1;"><g class="legendfill"/><g class="legendlines"><path class="js-line" d="M5,0h30" style="fill: none; stroke: rgb(255, 225, 25); stroke-opacity: 1; stroke-width: 2px;"/></g><g class="legendsymbols"><g class="legendpoints"/></g></g><rect class="legendtoggle" pointer-events="all" x="0" y="-9.5" width="121.8125" height="19" style="cursor: pointer; fill: rgb(0, 0, 0); fill-opacity: 0;"/></g><g class="traces" transform="translate(0, 71.5)" style="opacity: 1;"><text class="legendtext user-select-none" text-anchor="start" x="40" y="4.680000000000001" style="font-family: 'Open Sans', verdana, arial, sans-serif; font-size: 12px; fill: rgb(242, 245, 250); fill-opacity: 1; white-space: pre;">Emanuel, GA</text><g class="layers" style="opacity: 1;"><g class="legendfill"/><g class="legendlines"><path class="js-line" d="M5,0h30" style="fill: none; stroke: rgb(67, 99, 216); stroke-opacity: 1; stroke-width: 2px;"/></g><g class="legendsymbols"><g class="legendpoints"/></g></g><rect class="legendtoggle" pointer-events="all" x="0" y="-9.5" width="121.8125" height="19" style="cursor: pointer; fill: rgb(0, 0, 0); fill-opacity: 0;"/></g><g class="traces" transform="translate(0, 90.5)" style="opacity: 1;"><text class="legendtext user-select-none" text-anchor="start" x="40" y="4.680000000000001" style="font-family: 'Open Sans', verdana, arial, sans-serif; font-size: 12px; fill: rgb(242, 245, 250); fill-opacity: 1; white-space: pre;">Putnam, TN</text><g class="layers" style="opacity: 1;"><g class="legendfill"/><g class="legendlines"><path class="js-line" d="M5,0h30" style="fill: none; stroke: rgb(245, 130, 49); stroke-opacity: 1; stroke-width: 2px;"/></g><g class="legendsymbols"><g class="legendpoints"/></g></g><rect class="legendtoggle" pointer-events="all" x="0" y="-9.5" width="121.8125" height="19" style="cursor: pointer; fill: rgb(0, 0, 0); fill-opacity: 0;"/></g><g class="traces" transform="translate(0, 109.5)" style="opacity: 1;"><text class="legendtext user-select-none" text-anchor="start" x="40" y="4.680000000000001" style="font-family: 'Open Sans', verdana, arial, sans-serif; font-size: 12px; fill: rgb(242, 245, 250); fill-opacity: 1; white-space: pre;">White, AR</text><g class="layers" style="opacity: 1;"><g class="legendfill"/><g class="legendlines"><path class="js-line" d="M5,0h30" style="fill: none; stroke: rgb(145, 30, 180); stroke-opacity: 1; stroke-width: 2px;"/></g><g class="legendsymbols"><g class="legendpoints"/></g></g><rect class="legendtoggle" pointer-events="all" x="0" y="-9.5" width="121.8125" height="19" style="cursor: pointer; fill: rgb(0, 0, 0); fill-opacity: 0;"/></g></g></g><rect class="scrollbar" rx="20" ry="3" width="0" height="0" x="0" y="0" style="fill: rgb(128, 139, 164); fill-opacity: 1;"/></g><g class="g-gtitle"/><g class="g-xtitle"><text class="xtitle" x="230.3" y="410.8" text-anchor="middle" style="font-family: 'Open Sans', verdana, arial, sans-serif; font-size: 14px; fill: rgb(242, 245, 250); opacity: 1; font-weight: normal; white-space: pre;">Date</text></g><g class="g-x2title"><text class="x2title" x="597.7" y="410.8" text-anchor="middle" style="font-family: 'Open Sans', verdana, arial, sans-serif; font-size: 14px; fill: rgb(242, 245, 250); opacity: 1; font-weight: normal; white-space: pre;">Date</text></g><g class="g-ytitle"><text class="ytitle" transform="rotate(-90,34.840625,235)" x="34.840625" y="235" text-anchor="middle" style="font-family: 'Open Sans', verdana, arial, sans-serif; font-size: 14px; fill: rgb(242, 245, 250); opacity: 1; font-weight: normal; white-space: pre;">Cases</text></g><g class="g-y2title"><text class="y2title" transform="rotate(-90,401.575,235)" x="401.575" y="235" text-anchor="middle" style="font-family: 'Open Sans', verdana, arial, sans-serif; font-size: 14px; fill: rgb(242, 245, 250); opacity: 1; font-weight: normal; white-space: pre;">Deaths</text></g><g class="annotation" data-index="0" style="opacity: 1;"><g class="annotation-text-g" transform="rotate(0,230.3,89.5)"><g class="cursor-pointer" transform="translate(206, 79)"><rect class="bg" x="0.5" y="0.5" width="48" height="20" style="stroke-width: 1px; stroke: rgb(0, 0, 0); stroke-opacity: 0; fill: rgb(0, 0, 0); fill-opacity: 0;"/><text class="annotation-text" text-anchor="middle" x="24.6875" y="16" style="font-family: 'Open Sans', verdana, arial, sans-serif; font-size: 16px; fill: rgb(242, 245, 250); fill-opacity: 1; white-space: pre;">Cases</text></g></g></g><g class="annotation" data-index="1" style="opacity: 1;"><g class="annotation-text-g" transform="rotate(0,597.7,89.5)"><g class="cursor-pointer" transform="translate(570, 79)"><rect class="bg" x="0.5" y="0.5" width="54" height="20" style="stroke-width: 1px; stroke: rgb(0, 0, 0); stroke-opacity: 0; fill: rgb(0, 0, 0); fill-opacity: 0;"/><text class="annotation-text" text-anchor="middle" x="27.359375" y="16" style="font-family: 'Open Sans', verdana, arial, sans-serif; font-size: 16px; fill: rgb(242, 245, 250); fill-opacity: 1; white-space: pre;">Deaths</text></g></g></g></g></svg>