<svg class="main-svg" xmlns="http://www.w3.org/2000/svg" xmlns:xlink="http://www.w3.org/1999/xlink" width="900" height="450" style="" viewBox="0 0 900 450"><rect x="0" y="0" width="900" height="450" style="fill: rgb(17, 17, 17); fill-opacity: 1;"/><defs id="defs-0b9f4e"><g class="clips"><clipPath id="clip0b9f4exyplot" class="plotclip"><rect width="297.90000000000003" height="270"/></clipPath><clipPath id="clip0b9f4ex2y2plot" class="plotclip"><rect width="297.9" height="270"/></clipPath><clipPath class="axesclip" id="clip0b9f4ex"><rect x="80" y="0" width="297.90000000000003" height="450"/></clipPath><clipPath class="axesclip" id="clip0b9f4ey"><rect x="0" y="100" width="900" height="270"/></clipPath><clipPath class="axesclip" id="clip0b9f4exy"><rect x="80" y="100" width="297.90000000000003" height="270"/></clipPath><clipPath class="axesclip" id="clip0b9f4ey2"><rect x="0" y="100" width="900" height="270"/></clipPath><clipPath class="axesclip" id="clip0b9f4exy2"><rect x="80" y="100" width="297.90000000000003" height="270"/></clipPath><clipPath class="axesclip" id="clip0b9f4ex2"><rect x="444.1" y="0" width="297.9" height="450"/></clipPath><clipPath class="axesclip" id="clip0b9f4ex2y"><rect x="444.1" y="100" width="297.9" height="270"/></clipPath><clipPath class="axesclip" id="clip0b9f4ex2y2"><rect x="444.1" y="100" width="297.9" height="270"/></clipPath></g><g class="gradients"/></defs><g class="bglayer"/><g class="layer-below"><g class="imagelayer"/><g class="shapelayer"/></g><g class="cartesianlayer"><g class="subplot xy"><g class="layer-subplot"><g class="shapelayer"/><g class="imagelayer"/></g><g class="gridlayer"><g class="x"><path class="xgrid crisp" transform="translate(132.79,0)" d="M0,100v270" style="stroke: rgb(40, 52, 66); stroke-opacity: 1; stroke-width: 1px;"/><path class="xgrid crisp" transform="translate(201.42000000000002,0)" d="M0,100v270" style="stroke: rgb(40, 52, 66); stroke-opacity: 1; stroke-width: 1px;"/><path class="xgrid crisp" transform="translate(270.81,0)" d="M0,100v270" style="stroke: rgb(40, 52, 66); stroke-opacity: 1; stroke-width: 1px;"/><path class="xgrid crisp" transform="translate(340.19,0)" d="M0,100v270" style="stroke: rgb(40, 52, 66); stroke-opacity: 1; stroke-width: 1px;"/></g><g class="y"><path class="ygrid crisp" transform="translate(0,271.58000000000004)" d="M80,0h297.90000000000003" style="stroke: rgb(40, 52, 66); stroke-opacity: 1; stroke-width: 1px;"/><path class="ygrid crisp" transform="translate(0,186.65)" d="M80,0h297.90000000000003" style="stroke: rgb(40, 52, 66); stroke-opacity: 1; stroke-width: 1px;"/><path class="ygrid crisp" transform="translate(0,101.73)" d="M80,0h297.90000000000003" style="stroke: rgb(40, 52, 66); stroke-opacity: 1; stroke-width: 1px;"/></g></g><g class="zerolinelayer"><path class="yzl zl crisp" transform="translate(0,356.5)" d="M80,0h297.90000000000003" style="stroke: rgb(40, 52, 66); stroke-opacity: 1; stroke-width: 2px;"/></g><path class="xlines-below"/><path class="ylines-below"/><g class="overlines-below"/><g class="xaxislayer-below"/><g class="yaxislayer-below"/><g class="overaxes-below"/><g class="plot" transform="translate(80, 100)" clip-path="url('#clip0b9f4exyplot')"><g class="scatterlayer mlayer"><g class="trace scatter trace29dbd6" style="stroke-miterlimit: 2; opacity: 1;"><g class="fills"/><g class="errorbars"/><g class="lines"><path class="js-line" d="M0,256.5L54.3,255.75L55.05,255.59L80.7,253.17L81.45,253.06L97.29,250.91L98.04,250.74L119.91,246.71L120.67,246.37L128.96,243.38L129.72,243.38L135,240.81L135.75,240.78L142.54,238.2L143.29,237.59L145.56,236.93L146.31,236.38L150.08,235.89L150.84,234.08L152.34,233.29L153.1,232.55L155.36,231.77L156.11,230.81L157.62,230.28L158.38,229.6L161.39,228.1L162.15,228.08L163.66,226.97L164.41,226.57L170.44,224.27L171.2,224.01L173.46,223.63L174.21,223.22L186.28,220.78L187.04,220.78L190.81,220.05L191.56,219.97L198.35,218.88L199.1,218.88L207.4,217.21L208.15,217.07L220.97,213.85L221.73,213.62L227.76,210.76L228.52,210.26L234.55,207.05L235.3,206.44L237.57,204.99L238.32,203.88L239.83,202.59L240.58,201.22L241.34,201.09L242.09,199.2L245.86,195.04L246.62,191.59L248.88,188.12L249.63,188.08L251.9,181.76L252.65,180.48L257.17,171.98L257.93,170.89L260.19,167.37L260.95,165.6L263.21,161.56L263.96,160.65L265.47,158.12L266.22,156L273.77,141.11L274.52,140.27L277.54,137.47L278.29,136.21L288.85,126.57L289.6,126.17L296.39,122.5L297.15,122.13L297.9,121.78" style="vector-effect: non-scaling-stroke; fill: none; stroke: rgb(230, 25, 75); stroke-opacity: 1; stroke-width: 2px; opacity: 1;"/></g><g class="points"/><g class="text"/></g><g class="trace scatter trace961278" style="stroke-miterlimit: 2; opacity: 1;"><g class="fills"/><g class="errorbars"/><g class="lines"><path class="js-line" d="M0,256.5L72.4,255.75L73.16,255.72L101.81,254.59L102.57,254.56L113.88,253.03L114.63,252.72L117.65,251.78L118.41,251.1L124.44,247.67L125.19,247.21L128.21,245.27L128.96,244.64L135,240.32L135.75,239.72L140.28,237.1L141.03,236.6L160.64,229.06L161.39,228.9L169.69,226.92L170.44,226.66L184.77,223.46L185.53,223.29L220.22,215.35L220.97,214.99L226.25,213.14L227.01,212.86L232.29,210.92L233.04,210.92L236.06,209.6L236.81,209.24L251.14,199.8L251.9,199.19L258.68,194.05L259.44,192.97L260.19,192.97L260.95,191.25L264.72,186.89L265.47,185.81L277.54,174.77L278.29,174.34L285.83,168.81L286.59,168.13L297.9,161.9" style="vector-effect: non-scaling-stroke; fill: none; stroke: rgb(60, 180, 75); stroke-opacity: 1; stroke-width: 2px; opacity: 1;"/></g><g class="points"/><g class="text"/></g><g class="trace scatter trace22dfdd" style="stroke-miterlimit: 2; opacity: 1;"><g class="fills"/><g class="errorbars"/><g class="lines"><path class="js-line" d="M0,256.5L53.55,255.81L54.3,255.71L102.57,252.01L103.32,251.83L110.11,249.66L110.86,249.24L116.9,244.05L117.65,242.88L119.91,238.97L120.67,238.24L131.98,220.8L132.74,219.89L135,216.24L135.75,215.51L141.79,209.24L142.54,207.68L144.05,207.05L144.8,206.24L148.57,202.89L149.33,202.38L152.34,200.46L153.1,200.11L166.67,193.63L167.43,193.43L171.2,191.51L171.95,191.23L180.25,188.35L181,187.97L185.53,186.27L186.28,186L192.32,183.86L193.07,183.65L201.37,180.39L202.12,180.07L208.15,177.03L208.91,176.83L213.43,174.49L214.19,173.84L221.73,168.8L222.48,168.16L228.52,163.44L229.27,162.65L233.04,160.54L233.79,159.06L239.07,154.18L239.83,153.3L243.6,148.92L244.35,147.32L252.65,135.25L253.4,134.28L255.67,130.85L256.42,130.19L258.68,127.04L259.44,125.52L260.19,125.52L260.95,121.52L263.96,116.79L264.72,114.55L268.49,106.67L269.24,105.26L273.01,98.73L273.77,97.71L276.03,94.33L276.78,92.87L281.31,87.64L282.06,86.08L294.13,75.34L294.88,74.77L297.9,71.96" style="vector-effect: non-scaling-stroke; fill: none; stroke: rgb(255, 225, 25); stroke-opacity: 1; stroke-width: 2px; opacity: 1;"/></g><g class="points"/><g class="text"/></g><g class="trace scatter trace3faf89" style="stroke-miterlimit: 2; opacity: 1;"><g class="fills"/><g class="errorbars"/><g class="lines"><path class="js-line" d="M0,256.5L55.81,255.8L56.56,255.73L65.61,254.7L66.37,254.59L99.55,249.84L100.31,249.5L104.08,248.6L104.83,248.43L116.9,244.15L117.65,243.71L121.42,242L122.18,241.62L124.44,240.12L125.19,239.73L128.96,237.62L129.72,237.26L131.98,235.75L132.74,235.29L135.75,233.38L136.51,232.93L141.79,229.47L142.54,228.89L146.31,226.05L147.06,225.59L154.61,220.53L155.36,220.13L159.13,218.36L159.89,217.8L166.67,215.43L167.43,215.31L171.95,213.86L172.71,213.82L185.53,210.55L186.28,210.32L217.2,202.51L217.96,202.26L223.24,200.3L223.99,199.88L230.78,196.71L231.53,196.29L238.32,192.17L239.07,191.22L242.85,188.01L243.6,186.95L248.88,181.42L249.63,180.57L253.4,176.48L254.16,175.12L257.93,171.47L258.68,170.5L261.7,165.55L262.45,164.98L272.26,147.45L273.01,146.49L275.27,141.91L276.03,139.98L277.54,137.15L278.29,136.49L281.31,132.77L282.06,131.71L285.08,129.41L285.83,128.66L296.39,122.93L297.15,122.7L297.9,122.31" style="vector-effect: non-scaling-stroke; fill: none; stroke: rgb(67, 99, 216); stroke-opacity: 1; stroke-width: 2px; opacity: 1;"/></g><g class="points"/><g class="text"/></g><g class="trace scatter trace9563c9" style="stroke-miterlimit: 2; opacity: 1;"><g class="fills"/><g class="errorbars"/><g class="lines"><path class="js-line" d="M0,256.5L42.99,255.87L43.74,255.22L49.02,248.59L49.78,247.1L54.3,236.08L55.05,233.83L58.07,225L58.83,222.29L61.84,215.13L62.6,213.61L64.86,208.03L65.61,206.94L67.88,203.71L68.63,202.9L73.16,196.91L73.91,196.2L78.43,193.4L79.19,193.06L84.47,190.96L85.22,190.7L97.29,188.04L98.04,187.89L110.11,186.37L110.86,186.32L137.26,183.86L138.01,183.78L175.72,179.13L176.48,178.99L207.4,173.2L208.15,172.93L217.2,170.02L217.96,169.6L223.24,166.02L223.99,165.31L230.78,159.47L231.53,158.86L237.57,151.21L238.32,149.93L242.09,143.56L242.85,142.36L253.4,122.35L254.16,120.62L260.19,104.55L260.95,102.16L264.72,90.48L265.47,87.6L269.24,74.84L270,72.85L273.01,63.19L273.77,61.23L284.32,35.04L285.08,34.11L287.34,31.79L288.1,28.52L297.9,13.5" style="vector-effect: non-scaling-stroke; fill: none; stroke: rgb(245, 130, 49); stroke-opacity: 1; stroke-width: 2px; opacity: 1;"/></g><g class="points"/><g class="text"/></g><g class="trace scatter tracebcb8a6" style="stroke-miterlimit: 2; opacity: 1;"><g class="fills"/><g class="errorbars"/><g class="lines"><path class="js-line" d="M0,256.5L70.89,255.79L71.65,255.72L89.75,254.05L90.5,254.05L94.27,253.77L95.03,253.73L141.79,252.98L142.54,252.96L177.23,252.28L177.99,252.2L193.07,251.5L193.82,251.43L210.42,250.77L211.17,250.64L219.47,250.08L220.22,249.85L227.76,249.14L228.52,248.99L245.86,248.24L246.62,248.15L270,247.4L270.75,247.36L297.9,247.09" style="vector-effect: non-scaling-stroke; fill: none; stroke: rgb(145, 30, 180); stroke-opacity: 1; stroke-width: 2px; opacity: 1;"/></g><g class="points"/><g class="text"/></g></g></g><g class="overplot"/><path class="xlines-above crisp" d="M0,0" style="fill: none;"/><path class="ylines-above crisp" d="M0,0" style="fill: none;"/><g class="overlines-above"/><g class="xaxislayer-above"><g class="xtick"><text text-anchor="middle" x="0" y="383" transform="translate(132.79,0)" style="font-family: 'Open Sans', verdana, arial, sans-serif; font-size: 12px; fill: rgb(242, 245, 250); fill-opacity: 1; white-space: pre;">Apr 2020</text></g><g class="xtick"><text text-anchor="middle" x="0" y="383" transform="translate(201.42000000000002,0)" style="font-family: 'Open Sans', verdana, arial, sans-serif; font-size: 12px; fill: rgb(242, 245, 250); fill-opacity: 1; white-space: pre;">Jul 2020</text></g><g class="xtick"><text text-anchor="middle" x="0" y="383" transform="translate(270.81,0)" style="font-family: 'Open Sans', verdana, arial, sans-serif; font-size: 12px; fill: rgb(242, 245, 250); fill-opacity: 1; white-space: pre;">Oct 2020</text></g><g class="xtick"><text text-anchor="middle" x="0" y="383" transform="translate(340.19,0)" style="font-family: 'Open Sans', verdana, arial, sans-serif; font-size: 12px; fill: rgb(242, 245, 250); fill-opacity: 1; white-space: pre;">Jan 2021</text></g></g><g class="yaxislayer-above"><g class="ytick"><text text-anchor="end" x="79" y="4.199999999999999" transform="translate(0,356.5)" style="font-family: 'Open Sans', verdana, arial, sans-serif; font-size: 12px; fill: rgb(242, 245, 250); fill-opacity: 1; white-space: pre;">0</text></g><g class="ytick"><text text-anchor="end" x="79" y="4.199999999999999" transform="translate(0,271.58000000000004)" style="font-family: 'Open Sans', verdana, arial, sans-serif; font-size: 12px; fill: rgb(242, 245, 250); fill-opacity: 1; white-space: pre;">50k</text></g><g class="ytick"><text text-anchor="end" x="79" y="4.199999999999999" transform="translate(0,186.65)" style="font-family: 'Open Sans', verdana, arial, sans-serif; font-size: 12px; fill: rgb(242, 245, 250); fill-opacity: 1; white-space: pre;">100k</text></g><g class="ytick"><text text-anchor="end" x="79" y="4.199999999999999" transform="translate(0,101.73)" style="font-family: 'Open Sans', verdana, arial, sans-serif; font-size: 12px; fill: rgb(242, 245, 250); fill-opacity: 1; white-space: pre;">150k</text></g></g><g class="overaxes-above"/></g><g class="subplot x2y2"><g class="layer-subplot"><g class="shapelayer"/><g class="imagelayer"/></g><g class="gridlayer"><g class="x2"><path class="x2grid crisp" transform="translate(496.89000000000004,0)" d="M0,100v270" style="stroke: rgb(40, 52, 66); stroke-opacity: 1; stroke-width: 1px;"/><path class="x2grid crisp" transform="translate(565.52,0)" d="M0,100v270" style="stroke: rgb(40, 52, 66); stroke-opacity: 1; stroke-width: 1px;"/><path class="x2grid crisp" transform="translate(634.9100000000001,0)" d="M0,100v270" style="stroke: rgb(40, 52, 66); stroke-opacity: 1; stroke-width: 1px;"/><path class="x2grid crisp" transform="translate(704.29,0)" d="M0,100v270" style="stroke: rgb(40, 52, 66); stroke-opacity: 1; stroke-width: 1px;"/></g><g class="y2"><path class="y2grid crisp" transform="translate(0,314.06)" d="M444.1,0h297.9" style="stroke: rgb(40, 52, 66); stroke-opacity: 1; stroke-width: 1px;"/><path class="y2grid crisp" transform="translate(0,271.62)" d="M444.1,0h297.9" style="stroke: rgb(40, 52, 66); stroke-opacity: 1; stroke-width: 1px;"/><path class="y2grid crisp" transform="translate(0,229.19)" d="M444.1,0h297.9" style="stroke: rgb(40, 52, 66); stroke-opacity: 1; stroke-width: 1px;"/><path class="y2grid crisp" transform="translate(0,186.75)" d="M444.1,0h297.9" style="stroke: rgb(40, 52, 66); stroke-opacity: 1; stroke-width: 1px;"/><path class="y2grid crisp" transform="translate(0,144.31)" d="M444.1,0h297.9" style="stroke: rgb(40, 52, 66); stroke-opacity: 1; stroke-width: 1px;"/><path class="y2grid crisp" transform="translate(0,101.87)" d="M444.1,0h297.9" style="stroke: rgb(40, 52, 66); stroke-opacity: 1; stroke-width: 1px;"/></g></g><g class="zerolinelayer"><path class="y2zl zl crisp" transform="translate(0,356.5)" d="M444.1,0h297.9" style="stroke: rgb(40, 52, 66); stroke-opacity: 1; stroke-width: 2px;"/></g><path class="xlines-below"/><path class="ylines-below"/><g class="overlines-below"/><g class="xaxislayer-below"/><g class="yaxislayer-below"/><g class="overaxes-below"/><g class="plot" transform="translate(444.1, 100)" clip-path="url('#clip0b9f4ex2y2plot')"><g class="scatterlayer mlayer"><g class="trace scatter trace94364a" style="stroke-miterlimit: 2; opacity: 1;"><g class="fills"/><g class="errorbars"/><g class="lines"><path class="js-line" d="M0,256.5L52.79,255.82L53.55,255.74L56.56,255.4L57.32,255.23L62.6,254.55L63.35,253.44L67.12,252.94L67.88,252.85L79.19,250.9L79.94,250.81L85.98,249.54L86.73,249.46L91.26,248.86L92.01,248.69L116.14,246.15L116.9,245.64L124.44,244.62L125.19,244.62L130.47,243.94L131.23,243.6L143.29,241.05L144.05,241.05L145.56,240.46L146.31,240.46L149.33,240.12L150.08,240.12L151.59,239.1L152.34,239.1L154.61,237.91L155.36,237.91L165.92,235.54L166.67,234.6L168.18,234.69L168.94,233.24L170.44,231.38L171.2,231.12L174.97,230.78L175.72,229.34L176.48,229.34L177.23,228.32L177.99,228.24L178.74,226.28L179.49,226.28L180.25,225.52L182.51,224.76L183.27,224.76L184.77,222.97L185.53,222.8L187.04,222.21L187.79,222.04L190.05,221.53L190.81,220.85L194.58,220.26L195.33,219.15L199.1,219.49L199.86,219.92L200.61,218.98L201.37,219.75L202.87,218.98L203.63,219.75L205.89,219.58L206.64,217.8L216.45,217.2L217.2,217.03L219.47,216.27L220.22,216.27L220.97,216.27L221.73,215.5L226.25,214.66L227.01,214.57L236.81,212.87L237.57,212.36L242.85,211.86L243.6,211.26L248.12,208.71L248.88,207.78L249.63,207.78L250.39,206.85L252.65,206.59L253.4,204.81L255.67,203.96L256.42,203.45L259.44,203.45L260.19,200.82L263.96,200.82L264.72,197.34L265.47,197.34L266.22,194.63L268.49,194.03L269.24,192.42L273.01,192.25L273.77,191.65L275.27,191.48L276.03,185.03L277.54,183.85L278.29,180.62L279.8,179.6L280.55,177.65L281.31,176.97L282.06,175.1L283.57,173.32L284.32,173.15L285.83,171.71L286.59,169.84L288.85,168.14L289.6,168.14L291.87,166.19L292.62,164.15L294.13,161.44L294.88,161.35L297.15,160.93L297.9,157.11" style="vector-effect: non-scaling-stroke; fill: none; stroke: rgb(230, 25, 75); stroke-opacity: 1; stroke-width: 2px; opacity: 1;"/></g><g class="points"/><g class="text"/></g><g class="trace scatter tracedad472" style="stroke-miterlimit: 2; opacity: 1;"><g class="fills"/><g class="errorbars"/><g class="lines"><path class="js-line" d="M0,256.5L61.84,255.82L62.6,255.65L72.4,254.97L73.16,254.8L79.94,253.95L80.7,253.87L88.99,252.68L89.75,252.68L117.65,249.12L118.41,248.69L124.44,247.59L125.19,246.82L126.7,246.15L127.46,245.72L130.47,244.53L131.23,243.68L136.51,240.71L137.26,239.52L141.03,237.83L141.79,236.47L143.29,234.26L144.05,233.75L146.31,233.5L147.06,232.23L148.57,230.7L149.33,230.7L150.84,230.02L151.59,229.85L154.61,226.54L155.36,226.11L156.87,225.94L157.62,223.65L162.15,221.96L162.9,220.94L172.71,216.69L173.46,216.69L174.97,215.5L175.72,215.5L178.74,214.57L179.49,214.32L181.76,213.47L182.51,213.47L184.77,212.87L185.53,212.36L187.79,211.6L188.54,211.69L194.58,211.35L195.33,210.5L197.59,209.22L198.35,209.22L200.61,208.71L201.37,208.21L203.63,206.76L204.38,206.51L207.4,205.4L208.15,204.3L212.68,203.88L213.43,203.62L214.94,203.45L215.69,202.77L220.22,202.35L220.97,202.01L230.02,200.23L230.78,199.72L235.3,199.29L236.06,198.95L237.57,197.94L238.32,197.85L240.58,197L241.34,196.92L245.86,195.13L246.62,195.13L249.63,193.27L250.39,193.18L251.9,192.76L252.65,192.08L257.17,191.4L257.93,190.3L260.95,189.36L261.7,189.36L262.45,189.36L263.21,187.84L267.73,185.63L268.49,183.25L275.27,178.92L276.03,178.41L277.54,177.65L278.29,177.65L280.55,175.02L281.31,174.68L285.08,173.41L285.83,172.39L287.34,170.94L288.1,170.94L288.85,170.94L289.6,169.16L290.36,169.08L291.11,167.38L294.13,166.79L294.88,165.09L297.9,162.54" style="vector-effect: non-scaling-stroke; fill: none; stroke: rgb(60, 180, 75); stroke-opacity: 1; stroke-width: 2px; opacity: 1;"/></g><g class="points"/><g class="text"/></g><g class="trace scatter trace4a0fff" style="stroke-miterlimit: 2; opacity: 1;"><g class="fills"/><g class="errorbars"/><g class="lines"><path class="js-line" d="M0,256.5L58.07,255.91L58.83,255.74L62.6,254.97L63.35,254.97L76.17,254.46L76.93,254.21L90.5,251.07L91.26,250.56L98.04,249.63L98.8,249.63L101.81,249.03L102.57,248.86L106.34,248.35L107.09,248.1L111.62,247.59L112.37,247.25L115.39,246.4L116.14,246.23L118.41,245.3L119.16,245.3L126.7,242.67L127.46,241.05L129.72,240.54L130.47,240.54L131.98,240.2L132.74,236.81L136.51,235.79L137.26,234.43L138.77,232.73L139.52,232.73L142.54,228.41L143.29,228.41L146.31,226.96L147.06,225.18L149.33,223.74L150.08,223.57L152.34,222.97L153.1,220.34L153.85,220.26L154.61,217.63L155.36,217.46L156.11,215.5L157.62,214.91L158.38,213.38L167.43,209.73L168.18,209.73L174.97,207.36L175.72,206.93L178.74,206.34L179.49,205.91L181.76,205.23L182.51,205.23L184.02,205.15L184.77,204.39L187.79,203.2L188.54,203.2L193.07,199.55L193.82,199.38L194.58,199.72L195.33,199.21L198.35,196.58L199.1,196.32L202.12,193.86L202.87,193.27L205.89,192.42L206.64,192.42L210.42,191.82L211.17,190.13L213.43,187.24L214.19,187.24L216.45,186.31L217.2,186.22L219.47,185.03L220.22,184.61L222.48,183.93L223.24,183.76L224.74,183.76L225.5,183L226.25,183L227.01,182.06L228.52,181.47L229.27,181.47L231.53,180.79L232.29,179.77L233.04,179.77L233.79,178.41L237.57,176.89L238.32,176.12L240.58,175.02L241.34,174.42L243.6,173.58L244.35,172.98L245.86,172.81L246.62,171.96L247.37,171.96L248.12,170.69L253.4,167.72L254.16,166.87L257.93,166.19L258.68,165.85L260.19,165.6L260.95,164.49L266.98,161.35L267.73,159.57L268.49,159.57L269.24,158.64L271.5,156.77L272.26,156.77L273.77,154.9L274.52,154.82L276.78,151.85L277.54,151.42L281.31,146.76L282.06,146.76L282.82,146.76L283.57,144.55L284.32,144.72L285.08,143.11L287.34,141.75L288.1,141.66L290.36,139.63L291.11,138.78L292.62,138.1L293.37,137.93L294.13,137.5L294.88,136.15L297.9,133.6" style="vector-effect: non-scaling-stroke; fill: none; stroke: rgb(255, 225, 25); stroke-opacity: 1; stroke-width: 2px; opacity: 1;"/></g><g class="points"/><g class="text"/></g><g class="trace scatter trace9c8286" style="stroke-miterlimit: 2; opacity: 1;"><g class="fills"/><g class="errorbars"/><g class="lines"><path class="js-line" d="M0,256.5L55.81,255.91L56.56,255.65L60.33,254.97L61.09,254.89L61.84,254.89L62.6,254.04L68.63,252.6L69.38,252.6L73.16,251.92L73.91,251.83L77.68,250.98L78.43,249.96L84.47,247.93L85.22,247.93L88.24,247.59L88.99,246.82L92.01,246.23L92.76,246.23L98.04,245.64L98.8,245.3L113.13,242.75L113.88,242.75L120.67,242.07L121.42,241.82L127.46,241.39L128.21,241.05L133.49,239.95L134.24,239.78L138.01,238.76L138.77,238.42L143.29,237.15L144.05,236.3L149.33,234.94L150.08,234.43L151.59,234.26L152.34,233.41L165.16,229L165.92,228.49L181.76,223.31L182.51,223.31L185.53,222.72L186.28,222.46L199.86,220.43L200.61,221.36L202.12,220.09L202.87,219.92L213.43,218.31L214.19,218.31L227.76,215.93L228.52,215.84L230.78,215.42L231.53,215.34L244.35,212.11L245.11,211.77L249.63,211.09L250.39,210.92L254.16,209.9L254.91,209.65L267.73,206.76L268.49,206.42L272.26,204.39L273.01,204.22L274.52,202.86L275.27,202.6L277.54,201.08L278.29,200.82L279.8,198.78L280.55,198.02L281.31,197.68L282.06,195.56L284.32,194.88L285.08,193.69L287.34,191.32L288.1,191.32L291.11,189.96L291.87,188.43L293.37,187.5L294.13,187.33L297.15,183.76L297.9,183.17" style="vector-effect: non-scaling-stroke; fill: none; stroke: rgb(67, 99, 216); stroke-opacity: 1; stroke-width: 2px; opacity: 1;"/></g><g class="points"/><g class="text"/></g><g class="trace scatter trace4c4e36" style="stroke-miterlimit: 2; opacity: 1;"><g class="fills"/><g class="errorbars"/><g class="lines"><path class="js-line" d="M0,256.5L46.76,255.91L47.51,255.06L49.02,254.21L49.78,253.53L50.53,253.53L51.28,252.43L53.55,248.44L54.3,244.36L55.05,243.85L55.81,224.16L58.07,208.46L58.83,189.62L61.09,169.08L61.84,166.79L63.35,166.79L64.11,162.37L65.61,162.37L66.37,147.77L71.65,121.8L72.4,119L78.43,102.2L79.19,96L81.45,91.84L82.21,89.89L85.22,85.39L85.98,84.46L95.78,77.07L96.53,76.73L98.8,76.14L99.55,75.97L106.34,73.93L107.09,72.91L111.62,72.23L112.37,71.89L121.42,71.22L122.18,71.13L135.75,70.37L136.51,70.37L190.05,69.69L190.81,69.6L209.66,69.01L210.42,68.67L234.55,65.44L235.3,65.02L241.34,63.58L242.09,63.15L244.35,61.88L245.11,61.79L253.4,59.16L254.16,56.53L256.42,56.53L257.17,55.68L260.95,52.03L261.7,51.1L271.5,41.85L272.26,40.91L280.55,31.15L281.31,30.48L282.82,29.29L283.57,28.44L285.83,26.4L286.59,25.21L290.36,20.46L291.11,19.7L297.9,13.5" style="vector-effect: non-scaling-stroke; fill: none; stroke: rgb(245, 130, 49); stroke-opacity: 1; stroke-width: 2px; opacity: 1;"/></g><g class="points"/><g class="text"/></g><g class="trace scatter traceef3ea5" style="stroke-miterlimit: 2; opacity: 1;"><g class="fills"/><g class="errorbars"/><g class="lines"><path class="js-line" d="M0,256.5L101.06,255.82L101.81,255.65L296.39,255.65L297.15,251.24L297.9,251.24" style="vector-effect: non-scaling-stroke; fill: none; stroke: rgb(145, 30, 180); stroke-opacity: 1; stroke-width: 2px; opacity: 1;"/></g><g class="points"/><g class="text"/></g></g></g><g class="overplot"/><path class="xlines-above crisp" d="M0,0" style="fill: none;"/><path class="ylines-above crisp" d="M0,0" style="fill: none;"/><g class="overlines-above"/><g class="xaxislayer-above"><g class="x2tick"><text text-anchor="middle" x="0" y="383" transform="translate(496.89000000000004,0)" style="font-family: 'Open Sans', verdana, arial, sans-serif; font-size: 12px; fill: rgb(242, 245, 250); fill-opacity: 1; white-space: pre;">Apr 2020</text></g><g class="x2tick"><text text-anchor="middle" x="0" y="383" transform="translate(565.52,0)" style="font-family: 'Open Sans', verdana, arial, sans-serif; font-size: 12px; fill: rgb(242, 245, 250); fill-opacity: 1; white-space: pre;">Jul 2020</text></g><g class="x2tick"><text text-anchor="middle" x="0" y="383" transform="translate(634.9100000000001,0)" style="font-family: 'Open Sans', verdana, arial, sans-serif; font-size: 12px; fill: rgb(242, 245, 250); fill-opacity: 1; white-space: pre;">Oct 2020</text></g><g class="x2tick"><text text-anchor="middle" x="0" y="383" transform="translate(704.29,0)" style="font-family: 'Open Sans', verdana, arial, sans-serif; font-size: 12px; fill: rgb(242, 245, 250); fill-opacity: 1; white-space: pre;">Jan 2021</text></g></g><g class="yaxislayer-above"><g class="y2tick"><text text-anchor="end" x="443.1" y="4.199999999999999" transform="translate(0,356.5)" style="font-family: 'Open Sans', verdana, arial, sans-serif; font-size: 12px; fill: rgb(242, 245, 250); fill-opacity: 1; white-space: pre;">0</text></g><g class="y2tick"><text text-anchor="end" x="443.1" y="4.199999999999999" transform="translate(0,314.06)" style="font-family: 'Open Sans', verdana, arial, sans-serif; font-size: 12px; fill: rgb(242, 245, 250); fill-opacity: 1; white-space: pre;">500</text></g><g class="y2tick"><text text-anchor="end" x="443.1" y="4.199999999999999" transform="translate(0,271.62)" style="font-family: 'Open Sans', verdana, arial, sans-serif; font-size: 12px; fill: rgb(242, 245, 250); fill-opacity: 1; white-space: pre;">1000</text></g><g class="y2tick"><text text-anchor="end" x="443.1" y="4.199999999999999" transform="translate(0,229.19)" style="font-family: 'Open Sans', verdana, arial, sans-serif; font-size: 12px; fill: rgb(242, 245, 250); fill-opacity: 1; white-space: pre;">1500</text></g><g class="y2tick"><text text-anchor="end" x="443.1" y="4.199999999999999" transform="translate(0,186.75)" style="font-family: 'Open Sans', verdana, arial, sans-serif; font-size: 12px; fill: rgb(242, 245, 250); fill-opacity: 1; white-space: pre;">2000</text></g><g class="y2tick"><text text-anchor="end" x="443.1" y="4.199999999999999" transform="translate(0,144.31)" style="font-family: 'Open Sans', verdana, arial, sans-serif; font-size: 12px; fill: rgb(242, 245, 250); fill-opacity: 1; white-space: pre;">2500</text></g><g class="y2tick"><text text-anchor="end" x="443.1" y="4.199999999999999" transform="translate(0,101.87)" style="font-family: 'Open Sans', verdana, arial, sans-serif; font-size: 12px; fill: rgb(242, 245, 250); fill-opacity: 1; white-space: pre;">3000</text></g></g><g class="overaxes-above"/></g></g><g class="polarlayer"/><g class="ternarylayer"/><g class="geolayer"/><g class="funnelarealayer"/><g class="pielayer"/><g class="treemaplayer"/><g class="sunburstlayer"/><g class="glimages"/><defs id="topdefs-0b9f4e"><g class="clips"/><clipPath id="legend0b9f4e"><rect width="133" height="124" x="0" y="0"/></clipPath></defs><g class="layer-above"><g class="imagelayer"/><g class="shapelayer"/></g><g class="infolayer"><g class="legend" pointer-events="all" transform="translate(755.24, 100)"><rect class="bg" shape-rendering="crispEdges" width="133" height="124" x="0" y="0" style="stroke: rgb(68, 68, 68); stroke-opacity: 1; fill: rgb(17, 17, 17); fill-opacity: 1; stroke-width: 0px;"/><g class="scrollbox" transform="translate(0, 0)" clip-path="url('#legend0b9f4e')"><g class="groups"><g class="traces" transform="translate(0, 14.5)" style="opacity: 1;"><text class="legendtext user-select-none" text-anchor="start" x="40" y="4.680000000000001" style="font-family: 'Open Sans', verdana, arial, sans-serif; font-size: 12px; fill: rgb(242, 245, 250); fill-opacity: 1; white-space: pre;">Alameda, CA</text><g class="layers" style="opacity: 1;"><g class="legendfill"/><g class="legendlines"><path class="js-line" d="M5,0h30" style="fill: none; stroke: rgb(230, 25, 75); stroke-opacity: 1; stroke-width: 2px;"/></g><g class="legendsymbols"><g class="legendpoints"/></g></g><rect class="legendtoggle" pointer-events="all" x="0" y="-9.5" width="127.703125" height="19" style="cursor: pointer; fill: rgb(0, 0, 0); fill-opacity: 0;"/></g><g class="traces" transform="translate(0, 33.5)" style="opacity: 1;"><text class="legendtext user-select-none" text-anchor="start" x="40" y="4.680000000000001" style="font-family: 'Open Sans', verdana, arial, sans-serif; font-size: 12px; fill: rgb(242, 245, 250); fill-opacity: 1; white-space: pre;">Polk, FL</text><g class="layers" style="opacity: 1;"><g class="legendfill"/><g class="legendlines"><path class="js-line" d="M5,0h30" style="fill: none; stroke: rgb(60, 180, 75); stroke-opacity: 1; stroke-width: 2px;"/></g><g class="legendsymbols"><g class="legendpoints"/></g></g><rect class="legendtoggle" pointer-events="all" x="0" y="-9.5" width="127.703125" height="19" style="cursor: pointer; fill: rgb(0, 0, 0); fill-opacity: 0;"/></g><g class="traces" transform="translate(0, 52.5)" style="opacity: 1;"><text class="legendtext user-select-none" text-anchor="start" x="40" y="4.680000000000001" style="font-family: 'Open Sans', verdana, arial, sans-serif; font-size: 12px; fill: rgb(242, 245, 250); fill-opacity: 1; white-space: pre;">Hillsborough, FL</text><g class="layers" style="opacity: 1;"><g class="legendfill"/><g class="legendlines"><path class="js-line" d="M5,0h30" style="fill: none; stroke: rgb(255, 225, 25); stroke-opacity: 1; stroke-width: 2px;"/></g><g class="legendsymbols"><g class="legendpoints"/></g></g><rect class="legendtoggle" pointer-events="all" x="0" y="-9.5" width="127.703125" height="19" style="cursor: pointer; fill: rgb(0, 0, 0); fill-opacity: 0;"/></g><g class="traces" transform="translate(0, 71.5)" style="opacity: 1;"><text class="legendtext user-select-none" text-anchor="start" x="40" y="4.680000000000001" style="font-family: 'Open Sans', verdana, arial, sans-serif; font-size: 12px; fill: rgb(242, 245, 250); fill-opacity: 1; white-space: pre;">Gwinnett, GA</text><g class="layers" style="opacity: 1;"><g class="legendfill"/><g class="legendlines"><path class="js-line" d="M5,0h30" style="fill: none; stroke: rgb(67, 99, 216); stroke-opacity: 1; stroke-width: 2px;"/></g><g class="legendsymbols"><g class="legendpoints"/></g></g><rect class="legendtoggle" pointer-events="all" x="0" y="-9.5" width="127.703125" height="19" style="cursor: pointer; fill: rgb(0, 0, 0); fill-opacity: 0;"/></g><g class="traces" transform="translate(0, 90.5)" style="opacity: 1;"><text class="legendtext user-select-none" text-anchor="start" x="40" y="4.680000000000001" style="font-family: 'Open Sans', verdana, arial, sans-serif; font-size: 12px; fill: rgb(242, 245, 250); fill-opacity: 1; white-space: pre;">Nassau, NY</text><g class="layers" style="opacity: 1;"><g class="legendfill"/><g class="legendlines"><path class="js-line" d="M5,0h30" style="fill: none; stroke: rgb(245, 130, 49); stroke-opacity: 1; stroke-width: 2px;"/></g><g class="legendsymbols"><g class="legendpoints"/></g></g><rect class="legendtoggle" pointer-events="all" x="0" y="-9.5" width="127.703125" height="19" style="cursor: pointer; fill: rgb(0, 0, 0); fill-opacity: 0;"/></g><g class="traces" transform="translate(0, 109.5)" style="opacity: 1;"><text class="legendtext user-select-none" text-anchor="start" x="40" y="4.680000000000001" style="font-family: 'Open Sans', verdana, arial, sans-serif; font-size: 12px; fill: rgb(242, 245, 250); fill-opacity: 1; white-space: pre;">Ford, KS</text><g class="layers" style="opacity: 1;"><g class="legendfill"/><g class="legendlines"><path class="js-line" d="M5,0h30" style="fill: none; stroke: rgb(145, 30, 180); stroke-opacity: 1; stroke-width: 2px;"/></g><g class="legendsymbols"><g class="legendpoints"/></g></g><rect class="legendtoggle" pointer-events="all" x="0" y="-9.5" width="127.703125" height="19" style="cursor: pointer; fill: rgb(0, 0, 0); fill-opacity: 0;"/></g></g></g><rect class="scrollbar" rx="20" ry="3" width="0" height="0" x="0" y="0" style="fill: rgb(128, 139, 164); fill-opacity: 1;"/></g><g class="g-gtitle"/><g class="g-xtitle"><text class="xtitle" x="228.95000000000002" y="410.8" text-anchor="middle" style="font-family: 'Open Sans', verdana, arial, sans-serif; font-size: 14px; fill: rgb(242, 245, 250); opacity: 1; font-weight: normal; white-space: pre;">Date</text></g><g class="g-x2title"><text class="x2title" x="593.05" y="410.8" text-anchor="middle" style="font-family: 'Open Sans', verdana, arial, sans-serif; font-size: 14px; fill: rgb(242, 245, 250); opacity: 1; font-weight: normal; white-space: pre;">Date</text></g><g class="g-ytitle"><text class="ytitle" transform="rotate(-90,28.168750000000003,235)" x="28.168750000000003" y="235" text-anchor="middle" style="font-family: 'Open Sans', verdana, arial, sans-serif; font-size: 14px; fill: rgb(242, 245, 250); opacity: 1; font-weight: normal; white-space: pre;">Cases</text></g><g class="g-y2title"><text class="y2title" transform="rotate(-90,391.590625,235)" x="391.590625" y="235" text-anchor="middle" style="font-family: 'Open Sans', verdana, arial, sans-serif; font-size: 14px; fill: rgb(242, 245, 250); opacity: 1; font-weight: normal; white-space: pre;">Deaths</text></g><g class="annotation" data-index="0" style="opacity: 1;"><g class="annotation-text-g" transform="rotate(0,228.95000000000002,89.5)"><g class="cursor-pointer" transform="translate(204, 79)"><rect class="bg" x="0.5" y="0.5" width="48" height="20" style="stroke-width: 1px; stroke: rgb(0, 0, 0); stroke-opacity: 0; fill: rgb(0, 0, 0); fill-opacity: 0;"/><text class="annotation-text" text-anchor="middle" x="24.6875" y="16" style="font-family: 'Open Sans', verdana, arial, sans-serif; font-size: 16px; fill: rgb(242, 245, 250); fill-opacity: 1; white-space: pre;">Cases</text></g></g></g><g class="annotation" data-index="1" style="opacity: 1;"><g class="annotation-text-g" transform="rotate(0,593.0500000000001,89.5)"><g class="cursor-pointer" transform="translate(566, 79)"><rect class="bg" x="0.5" y="0.5" width="54" height="20" style="stroke-width: 1px; stroke: rgb(0, 0, 0); stroke-opacity: 0; fill: rgb(0, 0, 0); fill-opacity: 0;"/><text class="annotation-text" text-anchor="middle" x="27.359375" y="16" style="font-family: 'Open Sans', verdana, arial, sans-serif; font-size: 16px; fill: rgb(242, 245, 250); fill-opacity: 1; white-space: pre;">Deaths</text></g></g></g></g></svg>