<svg class="main-svg" xmlns="http://www.w3.org/2000/svg" xmlns:xlink="http://www.w3.org/1999/xlink" width="900" height="450" style="" viewBox="0 0 900 450"><rect x="0" y="0" width="900" height="450" style="fill: rgb(17, 17, 17); fill-opacity: 1;"/><defs id="defs-94a879"><g class="clips"><clipPath id="clip94a879xyplot" class="plotclip"><rect width="297.90000000000003" height="270"/></clipPath><clipPath id="clip94a879x2y2plot" class="plotclip"><rect width="297.9" height="270"/></clipPath><clipPath class="axesclip" id="clip94a879x"><rect x="80" y="0" width="297.90000000000003" height="450"/></clipPath><clipPath class="axesclip" id="clip94a879y"><rect x="0" y="100" width="900" height="270"/></clipPath><clipPath class="axesclip" id="clip94a879xy"><rect x="80" y="100" width="297.90000000000003" height="270"/></clipPath><clipPath class="axesclip" id="clip94a879y2"><rect x="0" y="100" width="900" height="270"/></clipPath><clipPath class="axesclip" id="clip94a879xy2"><rect x="80" y="100" width="297.90000000000003" height="270"/></clipPath><clipPath class="axesclip" id="clip94a879x2"><rect x="444.1" y="0" width="297.9" height="450"/></clipPath><clipPath class="axesclip" id="clip94a879x2y"><rect x="444.1" y="100" width="297.9" height="270"/></clipPath><clipPath class="axesclip" id="clip94a879x2y2"><rect x="444.1" y="100" width="297.9" height="270"/></clipPath></g><g class="gradients"/></defs><g class="bglayer"/><g class="layer-below"><g class="imagelayer"/><g class="shapelayer"/></g><g class="cartesianlayer"><g class="subplot xy"><g class="layer-subplot"><g class="shapelayer"/><g class="imagelayer"/></g><g class="gridlayer"><g class="x"><path class="xgrid crisp" transform="translate(121.49000000000001,0)" d="M0,100v270" style="stroke: rgb(40, 52, 66); stroke-opacity: 1; stroke-width: 1px;"/><path class="xgrid crisp" transform="translate(186.39,0)" d="M0,100v270" style="stroke: rgb(40, 52, 66); stroke-opacity: 1; stroke-width: 1px;"/><path class="xgrid crisp" transform="translate(251.29,0)" d="M0,100v270" style="stroke: rgb(40, 52, 66); stroke-opacity: 1; stroke-width: 1px;"/><path class="xgrid crisp" transform="translate(317.26,0)" d="M0,100v270" style="stroke: rgb(40, 52, 66); stroke-opacity: 1; stroke-width: 1px;"/></g><g class="y"><path class="ygrid crisp" transform="translate(0,278.59000000000003)" d="M80,0h297.90000000000003" style="stroke: rgb(40, 52, 66); stroke-opacity: 1; stroke-width: 1px;"/><path class="ygrid crisp" transform="translate(0,200.68)" d="M80,0h297.90000000000003" style="stroke: rgb(40, 52, 66); stroke-opacity: 1; stroke-width: 1px;"/><path class="ygrid crisp" transform="translate(0,122.77)" d="M80,0h297.90000000000003" style="stroke: rgb(40, 52, 66); stroke-opacity: 1; stroke-width: 1px;"/></g></g><g class="zerolinelayer"><path class="yzl zl crisp" transform="translate(0,356.5)" d="M80,0h297.90000000000003" style="stroke: rgb(40, 52, 66); stroke-opacity: 1; stroke-width: 2px;"/></g><path class="xlines-below"/><path class="ylines-below"/><g class="overlines-below"/><g class="xaxislayer-below"/><g class="yaxislayer-below"/><g class="overaxes-below"/><g class="plot" transform="translate(80, 100)" clip-path="url('#clip94a879xyplot')"><g class="scatterlayer mlayer"><g class="trace scatter trace4dfed4" style="stroke-miterlimit: 2; opacity: 1;"><g class="fills"/><g class="errorbars"/><g class="lines"><path class="js-line" d="M0,256.5L76.6,255.81L77.67,255.66L110.65,253.68L111.71,253.6L160.65,249.01L161.72,248.7L184.06,244.07L185.12,243.53L211.72,237.59L212.79,235.93L214.91,235.21L215.98,234.53L219.17,233.82L220.23,232.94L222.36,232.45L223.42,231.82L227.68,230.44L228.74,230.43L230.87,229.41L231.94,229.04L240.45,226.93L241.51,226.69L245.77,225.97L246.83,225.79L267.05,223.27L268.11,223.18L297.9,219.76" style="vector-effect: non-scaling-stroke; fill: none; stroke: rgb(230, 25, 75); stroke-opacity: 1; stroke-width: 2px; opacity: 1;"/></g><g class="points"/><g class="text"/></g><g class="trace scatter trace8694d4" style="stroke-miterlimit: 2; opacity: 1;"><g class="fills"/><g class="errorbars"/><g class="lines"><path class="js-line" d="M0,256.5L76.6,255.78L77.67,255.73L102.14,254.85L103.2,254.82L142.57,252.64L143.63,252.52L155.33,250.22L156.4,249.84L164.91,245.08L165.97,244.01L168.1,241.05L169.16,240.41L171.29,238.64L172.36,237.22L192.57,218.25L193.63,217.72L202.15,211.71L203.21,211.13L209.59,207.32L210.66,206.85L214.91,205.09L215.98,204.77L235.13,198.83L236.19,198.64L241.51,196.88L242.58,196.63L255.34,193.63L256.41,193.26L291.52,184.36L292.58,184.02L297.9,182.34" style="vector-effect: non-scaling-stroke; fill: none; stroke: rgb(60, 180, 75); stroke-opacity: 1; stroke-width: 2px; opacity: 1;"/></g><g class="points"/><g class="text"/></g><g class="trace scatter traceb4da52" style="stroke-miterlimit: 2; opacity: 1;"><g class="fills"/><g class="errorbars"/><g class="lines"><path class="js-line" d="M0,256.5L70.22,255.79L71.28,255.65L82.99,253.87L84.05,253.79L92.56,252.62L93.63,252.47L102.14,251.11L103.2,250.92L112.78,248.4L113.84,247.89L122.35,245.44L123.42,245.22L134.05,243.06L135.12,242.64L139.37,241.02L140.44,240.08L144.69,236.62L145.76,235.47L148.95,232.69L150.01,231.54L155.33,224.13L156.4,221.8L159.59,212.4L160.65,209.54L164.91,198.64L165.97,194.76L168.1,186.44L169.16,186.1L173.42,166.24L174.48,163.28L183,131.62L184.06,129.95L188.32,113.36L189.38,110.23L194.7,97.18L195.76,93.49L197.89,87.16L198.95,85.12L202.15,77.54L203.21,73.74L205.34,69.08L206.4,68.02L212.79,60.09L213.85,59.59L227.68,51.15L228.74,50.88L236.19,48.13L237.26,47.7L242.58,44.64L243.64,44.58L246.83,43.7L247.9,43.21L251.09,42.11L252.15,41.67L253.22,41.24L254.28,39.83L268.11,35.46L269.17,34.79L275.56,31.59L276.62,30.77L286.2,24.02L287.26,23.21L295.77,15.42L296.84,14.27L297.9,13.5" style="vector-effect: non-scaling-stroke; fill: none; stroke: rgb(255, 225, 25); stroke-opacity: 1; stroke-width: 2px; opacity: 1;"/></g><g class="points"/><g class="text"/></g><g class="trace scatter trace46501f" style="stroke-miterlimit: 2; opacity: 1;"><g class="fills"/><g class="errorbars"/><g class="lines"><path class="js-line" d="M0,256.5L130.86,255.75L131.93,255.73L156.4,254.54L157.46,254.4L163.84,253.18L164.91,252.6L171.29,250.3L172.36,249.87L180.87,247.06L181.93,245.07L185.12,243.97L186.19,243.73L188.32,242.1L189.38,240.15L190.44,239.45L191.51,237.39L197.89,232.89L198.95,232.89L202.15,230.98L203.21,230.56L214.91,225.11L215.98,224.66L221.3,222.2L222.36,222.2L224.49,220.48L225.55,219.86L230.87,216.06L231.94,215.04L234.06,214.04L235.13,214.04L259.6,208.6L260.66,208.6L263.85,207.32L264.92,207.32L269.17,206.66L270.24,206.33L278.75,204.53L279.81,204.53L284.07,203.85L285.13,203.47L290.45,202.99L291.52,202.99L293.64,202.01L294.71,202.01L297.9,201.53" style="vector-effect: non-scaling-stroke; fill: none; stroke: rgb(67, 99, 216); stroke-opacity: 1; stroke-width: 2px; opacity: 1;"/></g><g class="points"/><g class="text"/></g><g class="trace scatter tracee81d1c" style="stroke-miterlimit: 2; opacity: 1;"><g class="fills"/><g class="errorbars"/><g class="lines"><path class="js-line" d="M0,256.5L85.11,255.78L86.18,255.63L103.2,254.98L104.26,253.96L112.78,251.88L113.84,251.59L140.44,243.11L141.5,242.88L162.78,239.38L163.84,239.27L186.19,234.77L187.25,234.49L217.04,225.53L218.11,225.24L244.7,218.5L245.77,218.5L250.02,217.88L251.09,217.63L256.41,216.57L257.47,216.21L283,208.67L284.07,207.46L285.13,207.46L286.2,206.65L287.26,206.65L288.32,205.79L290.45,205.79L291.52,204.6L297.9,201.21" style="vector-effect: non-scaling-stroke; fill: none; stroke: rgb(245, 130, 49); stroke-opacity: 1; stroke-width: 2px; opacity: 1;"/></g><g class="points"/><g class="text"/></g><g class="trace scatter trace96f9ce" style="stroke-miterlimit: 2; opacity: 1;"><g class="fills"/><g class="errorbars"/><g class="lines"><path class="js-line" d="M0,256.5L107.46,255.79L108.52,255.73L122.35,254.29L123.42,254.12L153.21,250.37L154.27,250.28L193.63,247.32L194.7,247.17L251.09,240.75L252.15,240.69L262.79,239.71L263.85,239.5L283,236.97L284.07,236.37L287.26,236.04L288.32,235.57L293.64,234.83L294.71,234.42L297.9,233.55" style="vector-effect: non-scaling-stroke; fill: none; stroke: rgb(145, 30, 180); stroke-opacity: 1; stroke-width: 2px; opacity: 1;"/></g><g class="points"/><g class="text"/></g></g></g><g class="overplot"/><path class="xlines-above crisp" d="M0,0" style="fill: none;"/><path class="ylines-above crisp" d="M0,0" style="fill: none;"/><g class="overlines-above"/><g class="xaxislayer-above"><g class="xtick"><text text-anchor="middle" x="0" y="383" transform="translate(121.49000000000001,0)" style="font-family: 'Open Sans', verdana, arial, sans-serif; font-size: 12px; fill: rgb(242, 245, 250); fill-opacity: 1; white-space: pre;">Mar 2020</text></g><g class="xtick"><text text-anchor="middle" x="0" y="383" transform="translate(186.39,0)" style="font-family: 'Open Sans', verdana, arial, sans-serif; font-size: 12px; fill: rgb(242, 245, 250); fill-opacity: 1; white-space: pre;">May 2020</text></g><g class="xtick"><text text-anchor="middle" x="0" y="383" transform="translate(251.29,0)" style="font-family: 'Open Sans', verdana, arial, sans-serif; font-size: 12px; fill: rgb(242, 245, 250); fill-opacity: 1; white-space: pre;">Jul 2020</text></g><g class="xtick"><text text-anchor="middle" x="0" y="383" transform="translate(317.26,0)" style="font-family: 'Open Sans', verdana, arial, sans-serif; font-size: 12px; fill: rgb(242, 245, 250); fill-opacity: 1; white-space: pre;">Sep 2020</text></g></g><g class="yaxislayer-above"><g class="ytick"><text text-anchor="end" x="79" y="4.199999999999999" transform="translate(0,356.5)" style="font-family: 'Open Sans', verdana, arial, sans-serif; font-size: 12px; fill: rgb(242, 245, 250); fill-opacity: 1; white-space: pre;">0</text></g><g class="ytick"><text text-anchor="end" x="79" y="4.199999999999999" transform="translate(0,278.59000000000003)" style="font-family: 'Open Sans', verdana, arial, sans-serif; font-size: 12px; fill: rgb(242, 245, 250); fill-opacity: 1; white-space: pre;">50k</text></g><g class="ytick"><text text-anchor="end" x="79" y="4.199999999999999" transform="translate(0,200.68)" style="font-family: 'Open Sans', verdana, arial, sans-serif; font-size: 12px; fill: rgb(242, 245, 250); fill-opacity: 1; white-space: pre;">100k</text></g><g class="ytick"><text text-anchor="end" x="79" y="4.199999999999999" transform="translate(0,122.77)" style="font-family: 'Open Sans', verdana, arial, sans-serif; font-size: 12px; fill: rgb(242, 245, 250); fill-opacity: 1; white-space: pre;">150k</text></g></g><g class="overaxes-above"/></g><g class="subplot x2y2"><g class="layer-subplot"><g class="shapelayer"/><g class="imagelayer"/></g><g class="gridlayer"><g class="x2"><path class="x2grid crisp" transform="translate(485.59000000000003,0)" d="M0,100v270" style="stroke: rgb(40, 52, 66); stroke-opacity: 1; stroke-width: 1px;"/><path class="x2grid crisp" transform="translate(550.49,0)" d="M0,100v270" style="stroke: rgb(40, 52, 66); stroke-opacity: 1; stroke-width: 1px;"/><path class="x2grid crisp" transform="translate(615.39,0)" d="M0,100v270" style="stroke: rgb(40, 52, 66); stroke-opacity: 1; stroke-width: 1px;"/><path class="x2grid crisp" transform="translate(681.36,0)" d="M0,100v270" style="stroke: rgb(40, 52, 66); stroke-opacity: 1; stroke-width: 1px;"/></g><g class="y2"><path class="y2grid crisp" transform="translate(0,288.22)" d="M444.1,0h297.9" style="stroke: rgb(40, 52, 66); stroke-opacity: 1; stroke-width: 1px;"/><path class="y2grid crisp" transform="translate(0,219.94)" d="M444.1,0h297.9" style="stroke: rgb(40, 52, 66); stroke-opacity: 1; stroke-width: 1px;"/><path class="y2grid crisp" transform="translate(0,151.67000000000002)" d="M444.1,0h297.9" style="stroke: rgb(40, 52, 66); stroke-opacity: 1; stroke-width: 1px;"/></g></g><g class="zerolinelayer"><path class="y2zl zl crisp" transform="translate(0,356.5)" d="M444.1,0h297.9" style="stroke: rgb(40, 52, 66); stroke-opacity: 1; stroke-width: 2px;"/></g><path class="xlines-below"/><path class="ylines-below"/><g class="overlines-below"/><g class="xaxislayer-below"/><g class="yaxislayer-below"/><g class="overaxes-below"/><g class="plot" transform="translate(444.1, 100)" clip-path="url('#clip94a879x2y2plot')"><g class="scatterlayer mlayer"><g class="trace scatter trace21e318" style="stroke-miterlimit: 2; opacity: 1;"><g class="fills"/><g class="errorbars"/><g class="lines"><path class="js-line" d="M0,256.5L75.54,255.89L76.6,255.68L88.31,254.93L89.37,254.04L95.75,253.56L96.82,253.43L119.16,251.31L120.22,251.11L127.67,250.36L128.74,250.36L136.18,250.01L137.25,250.01L163.85,248.17L164.91,247.76L176.61,246.94L177.68,246.94L208.53,243.32L209.59,243.32L211.72,243.32L212.79,242.5L217.04,241.75L218.11,241.55L223.42,240.93L224.49,240.73L237.26,238.95L238.32,237.79L239.38,236.36L240.45,236.29L245.77,235.81L246.83,235.81L247.9,234.65L248.96,234.65L253.22,232.19L254.28,231.58L264.92,228.78L265.98,228.78L279.81,227.07L280.88,227.07L290.45,226.8L291.52,225.37L297.9,224.96" style="vector-effect: non-scaling-stroke; fill: none; stroke: rgb(230, 25, 75); stroke-opacity: 1; stroke-width: 2px; opacity: 1;"/></g><g class="points"/><g class="text"/></g><g class="trace scatter tracebd380c" style="stroke-miterlimit: 2; opacity: 1;"><g class="fills"/><g class="errorbars"/><g class="lines"><path class="js-line" d="M0,256.5L82.99,255.89L84.05,255.68L89.37,255.27L90.43,255.27L121.29,253.29L122.35,253.02L139.37,250.97L140.44,250.97L147.89,250.15L148.95,250.08L164.91,247.83L165.97,247.49L171.29,246.94L172.36,246.6L178.74,245.37L179.8,244.07L184.06,243.66L185.12,243.6L186.19,243.39L187.25,240.66L192.57,239.84L193.63,238.75L195.76,237.38L196.83,237.38L198.95,236.15L200.02,236.15L202.15,233.9L203.21,233.63L206.4,232.74L207.47,231.31L210.66,230.14L211.72,230.01L214.91,229.53L215.98,227.41L217.04,227.35L218.11,225.23L219.17,225.09L220.23,223.52L222.36,223.04L223.42,221.81L236.19,218.88L237.26,218.88L258.53,215.26L259.6,215.19L262.79,213.83L263.85,213.62L267.05,213.08L268.11,212.39L272.37,210.82L273.43,210.82L275.56,210.41L276.62,209.73L283.01,207.34L284.07,206.38L291.52,204.95L292.58,204.81L296.84,204.47L297.9,203.11" style="vector-effect: non-scaling-stroke; fill: none; stroke: rgb(60, 180, 75); stroke-opacity: 1; stroke-width: 2px; opacity: 1;"/></g><g class="points"/><g class="text"/></g><g class="trace scatter trace70a05c" style="stroke-miterlimit: 2; opacity: 1;"><g class="fills"/><g class="errorbars"/><g class="lines"><path class="js-line" d="M0,256.5L74.47,255.75L75.54,255.68L81.92,253.97L82.99,253.84L90.43,252.13L91.5,251.79L95.75,250.83L96.82,249.88L98.95,248.31L100.01,248.24L102.14,248.17L103.2,247.15L107.46,245.99L108.52,245.03L110.65,244.55L111.71,243.8L114.9,239.77L115.97,239.64L118.1,238.82L119.16,237.31L123.42,234.72L124.48,234.38L127.67,231.85L128.74,231.37L130.86,230.28L131.93,230.28L132.99,230.28L134.06,229.39L136.18,227.89L137.25,227.14L139.37,226.94L140.44,225.91L142.57,224.34L143.63,223.8L145.76,222.98L146.82,222.98L152.14,219.02L153.21,218.88L156.4,216.97L157.46,215.67L159.59,213.35L160.65,213.35L161.72,213.21L162.78,211.23L163.85,209.39L164.91,209.12L168.1,205.56L169.16,205.56L170.23,203.86L171.29,200.72L172.36,200.72L173.42,197.44L175.55,196.35L176.61,196.35L179.8,187.4L180.87,184.88L183,179.14L184.06,178.66L190.44,155.93L191.51,155.11L194.7,143.77L195.76,134.08L196.83,134.08L197.89,133.12L198.95,133.12L200.02,128L201.08,125.75L202.15,119.19L204.27,113.87L205.34,113.05L206.4,112.57L207.47,109.5L211.72,96.25L212.79,95.84L213.85,95.64L214.91,93.86L215.98,86.28L217.04,84.65L218.11,83.35L219.17,80L222.36,78.16L223.42,72.36L224.49,69.49L225.55,69.21L227.68,66.01L228.74,66.01L229.81,65.05L230.87,60.61L235.13,54.33L236.19,54.33L238.32,52.01L239.38,49.62L241.51,45.66L242.58,45.45L244.7,45.32L245.77,43.75L248.96,41.15L250.02,41.15L251.09,41.15L252.15,39.92L256.41,33.98L257.47,33.85L258.53,33.78L259.6,32.89L262.79,28.25L263.85,26.88L267.05,26.27L268.11,24.9L271.3,22.72L272.37,22.58L274.49,22.24L275.56,20.94L283.01,19.24L284.07,18.28L287.26,16.85L288.32,16.71L292.58,15.07L293.64,14.93L295.77,14.73L296.84,13.64L297.9,13.5" style="vector-effect: non-scaling-stroke; fill: none; stroke: rgb(255, 225, 25); stroke-opacity: 1; stroke-width: 2px; opacity: 1;"/></g><g class="points"/><g class="text"/></g><g class="trace scatter tracee80db3" style="stroke-miterlimit: 2; opacity: 1;"><g class="fills"/><g class="errorbars"/><g class="lines"><path class="js-line" d="M0,256.5L144.69,255.75L145.76,255.68L162.78,254.93L163.85,254.79L168.1,254.38L169.16,254.32L170.23,254.32L171.29,253.36L177.68,252.47L178.74,251.38L184.06,246.26L185.12,246.26L186.19,246.12L187.25,244.01L189.38,240.11L190.44,239.84L200.02,239.84L201.08,235.88L202.15,235.2L203.21,232.94L204.27,228.37L205.34,228.37L207.47,223.52L208.53,221.68L210.66,216.42L211.72,214.92L212.79,212.94L213.85,212.8L215.98,210.62L217.04,208.64L219.17,204.34L220.23,202.49L222.36,199.56L223.42,196.89L227.68,189.38L228.74,189.18L229.81,188.56L230.87,186.38L234.06,180.71L235.13,179.55L236.19,179.41L237.26,178.39L241.51,171.56L242.58,171.36L244.7,169.86L245.77,168.97L250.02,164.8L251.09,164.73L255.34,160.71L256.41,159.14L259.6,157.43L260.66,156.54L263.85,153.88L264.92,153.88L267.05,153.47L268.11,152.38L270.24,150.81L271.3,150.19L275.56,149.3L276.62,148.28L279.81,146.5L280.88,146.5L290.45,143.5L291.52,143.23L294.71,142.07L295.77,142.07L297.9,141.59" style="vector-effect: non-scaling-stroke; fill: none; stroke: rgb(67, 99, 216); stroke-opacity: 1; stroke-width: 2px; opacity: 1;"/></g><g class="points"/><g class="text"/></g><g class="trace scatter trace2499aa" style="stroke-miterlimit: 2; opacity: 1;"><g class="fills"/><g class="errorbars"/><g class="lines"><path class="js-line" d="M0,256.5L75.54,256.02L76.6,255.68L81.92,255.27L82.99,254.79L89.37,253.36L90.43,252.95L95.75,250.01L96.82,248.78L100.01,245.92L101.07,244.41L105.33,241.14L106.39,239.91L119.16,227.41L120.22,226.39L127.67,222.22L128.74,221.13L132.99,219.02L134.06,217.92L137.25,215.12L138.31,214.65L141.5,213.28L142.57,212.73L145.76,210.34L146.82,210L162.78,205.22L163.85,205.16L169.16,203.72L170.23,203.52L177.68,202.77L178.74,202.63L188.32,202.01L189.38,201.81L202.15,201.2L203.21,200.99L265.98,192.87L267.05,192.87L272.37,192.05L273.43,192.05L280.88,191.36L281.94,191.29L290.45,190.54L291.52,189.52L297.9,188.56" style="vector-effect: non-scaling-stroke; fill: none; stroke: rgb(245, 130, 49); stroke-opacity: 1; stroke-width: 2px; opacity: 1;"/></g><g class="points"/><g class="text"/></g><g class="trace scatter tracea20b60" style="stroke-miterlimit: 2; opacity: 1;"><g class="fills"/><g class="errorbars"/><g class="lines"><path class="js-line" d="M0,256.5L96.82,255.75L97.88,255.54L102.14,255L103.2,255L122.35,251.93L123.42,251.65L127.67,250.63L128.74,250.15L135.12,248.99L136.18,248.65L140.44,247.42L141.5,247.35L147.89,245.3L148.95,245.1L152.14,244.07L153.21,243.53L156.4,242.91L157.46,242.5L170.23,241.68L171.29,241.62L176.61,240.93L177.68,240.86L222.36,237.72L223.42,237.45L281.94,233.63L283.01,233.63L287.26,233.63L288.32,232.81L293.64,232.06L294.71,231.85L297.9,231.1" style="vector-effect: non-scaling-stroke; fill: none; stroke: rgb(145, 30, 180); stroke-opacity: 1; stroke-width: 2px; opacity: 1;"/></g><g class="points"/><g class="text"/></g></g></g><g class="overplot"/><path class="xlines-above crisp" d="M0,0" style="fill: none;"/><path class="ylines-above crisp" d="M0,0" style="fill: none;"/><g class="overlines-above"/><g class="xaxislayer-above"><g class="x2tick"><text text-anchor="middle" x="0" y="383" transform="translate(485.59000000000003,0)" style="font-family: 'Open Sans', verdana, arial, sans-serif; font-size: 12px; fill: rgb(242, 245, 250); fill-opacity: 1; white-space: pre;">Mar 2020</text></g><g class="x2tick"><text text-anchor="middle" x="0" y="383" transform="translate(550.49,0)" style="font-family: 'Open Sans', verdana, arial, sans-serif; font-size: 12px; fill: rgb(242, 245, 250); fill-opacity: 1; white-space: pre;">May 2020</text></g><g class="x2tick"><text text-anchor="middle" x="0" y="383" transform="translate(615.39,0)" style="font-family: 'Open Sans', verdana, arial, sans-serif; font-size: 12px; fill: rgb(242, 245, 250); fill-opacity: 1; white-space: pre;">Jul 2020</text></g><g class="x2tick"><text text-anchor="middle" x="0" y="383" transform="translate(681.36,0)" style="font-family: 'Open Sans', verdana, arial, sans-serif; font-size: 12px; fill: rgb(242, 245, 250); fill-opacity: 1; white-space: pre;">Sep 2020</text></g></g><g class="yaxislayer-above"><g class="y2tick"><text text-anchor="end" x="443.1" y="4.199999999999999" transform="translate(0,356.5)" style="font-family: 'Open Sans', verdana, arial, sans-serif; font-size: 12px; fill: rgb(242, 245, 250); fill-opacity: 1; white-space: pre;">0</text></g><g class="y2tick"><text text-anchor="end" x="443.1" y="4.199999999999999" transform="translate(0,288.22)" style="font-family: 'Open Sans', verdana, arial, sans-serif; font-size: 12px; fill: rgb(242, 245, 250); fill-opacity: 1; white-space: pre;">1000</text></g><g class="y2tick"><text text-anchor="end" x="443.1" y="4.199999999999999" transform="translate(0,219.94)" style="font-family: 'Open Sans', verdana, arial, sans-serif; font-size: 12px; fill: rgb(242, 245, 250); fill-opacity: 1; white-space: pre;">2000</text></g><g class="y2tick"><text text-anchor="end" x="443.1" y="4.199999999999999" transform="translate(0,151.67000000000002)" style="font-family: 'Open Sans', verdana, arial, sans-serif; font-size: 12px; fill: rgb(242, 245, 250); fill-opacity: 1; white-space: pre;">3000</text></g></g><g class="overaxes-above"/></g></g><g class="polarlayer"/><g class="ternarylayer"/><g class="geolayer"/><g class="funnelarealayer"/><g class="pielayer"/><g class="treemaplayer"/><g class="sunburstlayer"/><g class="glimages"/><defs id="topdefs-94a879"><g class="clips"/><clipPath id="legend94a879"><rect width="133" height="124" x="0" y="0"/></clipPath></defs><g class="layer-above"><g class="imagelayer"/><g class="shapelayer"/></g><g class="infolayer"><g class="legend" pointer-events="all" transform="translate(755.24, 100)"><rect class="bg" shape-rendering="crispEdges" width="133" height="124" x="0" y="0" style="stroke: rgb(68, 68, 68); stroke-opacity: 1; fill: rgb(17, 17, 17); fill-opacity: 1; stroke-width: 0px;"/><g class="scrollbox" transform="translate(0, 0)" clip-path="url('#legend94a879')"><g class="groups"><g class="traces" transform="translate(0, 14.5)" style="opacity: 1;"><text class="legendtext user-select-none" text-anchor="start" x="40" y="4.680000000000001" style="font-family: 'Open Sans', verdana, arial, sans-serif; font-size: 12px; fill: rgb(242, 245, 250); fill-opacity: 1; white-space: pre;">Alameda, CA</text><g class="layers" style="opacity: 1;"><g class="legendfill"/><g class="legendlines"><path class="js-line" d="M5,0h30" style="fill: none; stroke: rgb(230, 25, 75); stroke-opacity: 1; stroke-width: 2px;"/></g><g class="legendsymbols"><g class="legendpoints"/></g></g><rect class="legendtoggle" pointer-events="all" x="0" y="-9.5" width="127.703125" height="19" style="cursor: pointer; fill: rgb(0, 0, 0); fill-opacity: 0;"/></g><g class="traces" transform="translate(0, 33.5)" style="opacity: 1;"><text class="legendtext user-select-none" text-anchor="start" x="40" y="4.680000000000001" style="font-family: 'Open Sans', verdana, arial, sans-serif; font-size: 12px; fill: rgb(242, 245, 250); fill-opacity: 1; white-space: pre;">Hillsborough, FL</text><g class="layers" style="opacity: 1;"><g class="legendfill"/><g class="legendlines"><path class="js-line" d="M5,0h30" style="fill: none; stroke: rgb(60, 180, 75); stroke-opacity: 1; stroke-width: 2px;"/></g><g class="legendsymbols"><g class="legendpoints"/></g></g><rect class="legendtoggle" pointer-events="all" x="0" y="-9.5" width="127.703125" height="19" style="cursor: pointer; fill: rgb(0, 0, 0); fill-opacity: 0;"/></g><g class="traces" transform="translate(0, 52.5)" style="opacity: 1;"><text class="legendtext user-select-none" text-anchor="start" x="40" y="4.680000000000001" style="font-family: 'Open Sans', verdana, arial, sans-serif; font-size: 12px; fill: rgb(242, 245, 250); fill-opacity: 1; white-space: pre;">Maricopa, AZ</text><g class="layers" style="opacity: 1;"><g class="legendfill"/><g class="legendlines"><path class="js-line" d="M5,0h30" style="fill: none; stroke: rgb(255, 225, 25); stroke-opacity: 1; stroke-width: 2px;"/></g><g class="legendsymbols"><g class="legendpoints"/></g></g><rect class="legendtoggle" pointer-events="all" x="0" y="-9.5" width="127.703125" height="19" style="cursor: pointer; fill: rgb(0, 0, 0); fill-opacity: 0;"/></g><g class="traces" transform="translate(0, 71.5)" style="opacity: 1;"><text class="legendtext user-select-none" text-anchor="start" x="40" y="4.680000000000001" style="font-family: 'Open Sans', verdana, arial, sans-serif; font-size: 12px; fill: rgb(242, 245, 250); fill-opacity: 1; white-space: pre;">Hidalgo, TX</text><g class="layers" style="opacity: 1;"><g class="legendfill"/><g class="legendlines"><path class="js-line" d="M5,0h30" style="fill: none; stroke: rgb(67, 99, 216); stroke-opacity: 1; stroke-width: 2px;"/></g><g class="legendsymbols"><g class="legendpoints"/></g></g><rect class="legendtoggle" pointer-events="all" x="0" y="-9.5" width="127.703125" height="19" style="cursor: pointer; fill: rgb(0, 0, 0); fill-opacity: 0;"/></g><g class="traces" transform="translate(0, 90.5)" style="opacity: 1;"><text class="legendtext user-select-none" text-anchor="start" x="40" y="4.680000000000001" style="font-family: 'Open Sans', verdana, arial, sans-serif; font-size: 12px; fill: rgb(242, 245, 250); fill-opacity: 1; white-space: pre;">Hennepin, MN</text><g class="layers" style="opacity: 1;"><g class="legendfill"/><g class="legendlines"><path class="js-line" d="M5,0h30" style="fill: none; stroke: rgb(245, 130, 49); stroke-opacity: 1; stroke-width: 2px;"/></g><g class="legendsymbols"><g class="legendpoints"/></g></g><rect class="legendtoggle" pointer-events="all" x="0" y="-9.5" width="127.703125" height="19" style="cursor: pointer; fill: rgb(0, 0, 0); fill-opacity: 0;"/></g><g class="traces" transform="translate(0, 109.5)" style="opacity: 1;"><text class="legendtext user-select-none" text-anchor="start" x="40" y="4.680000000000001" style="font-family: 'Open Sans', verdana, arial, sans-serif; font-size: 12px; fill: rgb(242, 245, 250); fill-opacity: 1; white-space: pre;">Ramsey, MN</text><g class="layers" style="opacity: 1;"><g class="legendfill"/><g class="legendlines"><path class="js-line" d="M5,0h30" style="fill: none; stroke: rgb(145, 30, 180); stroke-opacity: 1; stroke-width: 2px;"/></g><g class="legendsymbols"><g class="legendpoints"/></g></g><rect class="legendtoggle" pointer-events="all" x="0" y="-9.5" width="127.703125" height="19" style="cursor: pointer; fill: rgb(0, 0, 0); fill-opacity: 0;"/></g></g></g><rect class="scrollbar" rx="20" ry="3" width="0" height="0" x="0" y="0" style="fill: rgb(128, 139, 164); fill-opacity: 1;"/></g><g class="g-gtitle"/><g class="g-xtitle"><text class="xtitle" x="228.95000000000002" y="410.8" text-anchor="middle" style="font-family: 'Open Sans', verdana, arial, sans-serif; font-size: 14px; fill: rgb(242, 245, 250); opacity: 1; font-weight: normal; white-space: pre;">Date</text></g><g class="g-x2title"><text class="x2title" x="593.05" y="410.8" text-anchor="middle" style="font-family: 'Open Sans', verdana, arial, sans-serif; font-size: 14px; fill: rgb(242, 245, 250); opacity: 1; font-weight: normal; white-space: pre;">Date</text></g><g class="g-ytitle"><text class="ytitle" transform="rotate(-90,28.168750000000003,235)" x="28.168750000000003" y="235" text-anchor="middle" style="font-family: 'Open Sans', verdana, arial, sans-serif; font-size: 14px; fill: rgb(242, 245, 250); opacity: 1; font-weight: normal; white-space: pre;">Cases</text></g><g class="g-y2title"><text class="y2title" transform="rotate(-90,391.590625,235)" x="391.590625" y="235" text-anchor="middle" style="font-family: 'Open Sans', verdana, arial, sans-serif; font-size: 14px; fill: rgb(242, 245, 250); opacity: 1; font-weight: normal; white-space: pre;">Deaths</text></g><g class="annotation" data-index="0" style="opacity: 1;"><g class="annotation-text-g" transform="rotate(0,228.95000000000002,89.5)"><g class="cursor-pointer" transform="translate(204, 79)"><rect class="bg" x="0.5" y="0.5" width="48" height="20" style="stroke-width: 1px; stroke: rgb(0, 0, 0); stroke-opacity: 0; fill: rgb(0, 0, 0); fill-opacity: 0;"/><text class="annotation-text" text-anchor="middle" x="24.6875" y="16" style="font-family: 'Open Sans', verdana, arial, sans-serif; font-size: 16px; fill: rgb(242, 245, 250); fill-opacity: 1; white-space: pre;">Cases</text></g></g></g><g class="annotation" data-index="1" style="opacity: 1;"><g class="annotation-text-g" transform="rotate(0,593.0500000000001,89.5)"><g class="cursor-pointer" transform="translate(566, 79)"><rect class="bg" x="0.5" y="0.5" width="54" height="20" style="stroke-width: 1px; stroke: rgb(0, 0, 0); stroke-opacity: 0; fill: rgb(0, 0, 0); fill-opacity: 0;"/><text class="annotation-text" text-anchor="middle" x="27.359375" y="16" style="font-family: 'Open Sans', verdana, arial, sans-serif; font-size: 16px; fill: rgb(242, 245, 250); fill-opacity: 1; white-space: pre;">Deaths</text></g></g></g></g></svg>