<svg class="main-svg" xmlns="http://www.w3.org/2000/svg" xmlns:xlink="http://www.w3.org/1999/xlink" width="900" height="450" style="" viewBox="0 0 900 450"><rect x="0" y="0" width="900" height="450" style="fill: rgb(17, 17, 17); fill-opacity: 1;"/><defs id="defs-e7abba"><g class="clips"><clipPath id="clipe7abbaxyplot" class="plotclip"><rect width="292.05" height="270"/></clipPath><clipPath id="clipe7abbax2y2plot" class="plotclip"><rect width="292.04999999999995" height="270"/></clipPath><clipPath class="axesclip" id="clipe7abbax"><rect x="80" y="0" width="292.05" height="450"/></clipPath><clipPath class="axesclip" id="clipe7abbay"><rect x="0" y="100" width="900" height="270"/></clipPath><clipPath class="axesclip" id="clipe7abbaxy"><rect x="80" y="100" width="292.05" height="270"/></clipPath><clipPath class="axesclip" id="clipe7abbay2"><rect x="0" y="100" width="900" height="270"/></clipPath><clipPath class="axesclip" id="clipe7abbaxy2"><rect x="80" y="100" width="292.05" height="270"/></clipPath><clipPath class="axesclip" id="clipe7abbax2"><rect x="436.95000000000005" y="0" width="292.04999999999995" height="450"/></clipPath><clipPath class="axesclip" id="clipe7abbax2y"><rect x="436.95000000000005" y="100" width="292.04999999999995" height="270"/></clipPath><clipPath class="axesclip" id="clipe7abbax2y2"><rect x="436.95000000000005" y="100" width="292.04999999999995" height="270"/></clipPath></g><g class="gradients"/></defs><g class="bglayer"/><g class="layer-below"><g class="imagelayer"/><g class="shapelayer"/></g><g class="cartesianlayer"><g class="subplot xy"><g class="layer-subplot"><g class="shapelayer"/><g class="imagelayer"/></g><g class="gridlayer"><g class="x"><path class="xgrid crisp" transform="translate(127.21000000000001,0)" d="M0,100v270" style="stroke: rgb(40, 52, 66); stroke-opacity: 1; stroke-width: 1px;"/><path class="xgrid crisp" transform="translate(188.59,0)" d="M0,100v270" style="stroke: rgb(40, 52, 66); stroke-opacity: 1; stroke-width: 1px;"/><path class="xgrid crisp" transform="translate(250.64,0)" d="M0,100v270" style="stroke: rgb(40, 52, 66); stroke-opacity: 1; stroke-width: 1px;"/><path class="xgrid crisp" transform="translate(312.7,0)" d="M0,100v270" style="stroke: rgb(40, 52, 66); stroke-opacity: 1; stroke-width: 1px;"/></g><g class="y"><path class="ygrid crisp" transform="translate(0,298.11)" d="M80,0h292.05" style="stroke: rgb(40, 52, 66); stroke-opacity: 1; stroke-width: 1px;"/><path class="ygrid crisp" transform="translate(0,239.73)" d="M80,0h292.05" style="stroke: rgb(40, 52, 66); stroke-opacity: 1; stroke-width: 1px;"/><path class="ygrid crisp" transform="translate(0,181.34)" d="M80,0h292.05" style="stroke: rgb(40, 52, 66); stroke-opacity: 1; stroke-width: 1px;"/><path class="ygrid crisp" transform="translate(0,122.96000000000001)" d="M80,0h292.05" style="stroke: rgb(40, 52, 66); stroke-opacity: 1; stroke-width: 1px;"/></g></g><g class="zerolinelayer"><path class="yzl zl crisp" transform="translate(0,356.5)" d="M80,0h292.05" style="stroke: rgb(40, 52, 66); stroke-opacity: 1; stroke-width: 2px;"/></g><path class="xlines-below"/><path class="ylines-below"/><g class="overlines-below"/><g class="xaxislayer-below"/><g class="yaxislayer-below"/><g class="overaxes-below"/><g class="plot" transform="translate(80, 100)" clip-path="url('#clipe7abbaxyplot')"><g class="scatterlayer mlayer"><g class="trace scatter trace434f0d" style="stroke-miterlimit: 2; opacity: 1;"><g class="fills"/><g class="errorbars"/><g class="lines"><path class="js-line" d="M0,256.5L44.52,255.75L45.19,255.71L51.26,254.65L51.93,254.53L76.89,249.79L77.57,249.64L85.66,247.46L86.33,247.17L93.75,244.87L94.43,244.73L107.24,239.68L107.92,239.09L111.96,236.39L112.64,236.39L113.99,234.88L114.66,234.65L120.06,229.91L120.73,229.53L122.08,229.11L122.76,228.35L125.45,226.23L126.13,226.03L132.2,221.07L132.87,221.07L134.22,221.07L134.9,217.97L135.57,217.91L136.25,216.61L138.27,214L138.94,214L140.29,212.33L140.97,211.43L143.66,207.77L144.34,207.68L145.01,207.65L145.69,206.07L149.73,203.41L150.41,202.65L153.11,200.65L153.78,200.65L156.48,198.96L157.15,198.64L161.2,197.64L161.88,197.05L166.6,195.11L167.27,195.11L169.97,194.08L170.64,193.86L181.44,190.94L182.11,190.42L197.62,183.2L198.3,182.79L202.34,179.26L203.02,178.69L205.72,176.26L206.39,175.86L208.41,174.1L209.09,172.26L212.46,167.96L213.14,166.06L214.48,163.84L215.16,161.49L215.83,161.26L216.51,158.01L219.88,150.86L220.56,144.93L222.58,138.96L223.25,138.9L225.28,128.04L225.95,125.84L230,111.22L230.67,109.35L232.7,103.31L233.37,100.26L236.07,91.76L236.74,89.86L242.81,65.53L243.49,62.12L245.51,56.72L246.19,55.7L252.93,41.57L253.6,40.53L259.67,31.66L260.35,30.71L267.09,24.43L267.77,23.98L271.82,21.31L272.49,19.36L279.23,16.41L279.91,16.17L290.7,13.5L291.38,13.5L292.05,13.5" style="vector-effect: non-scaling-stroke; fill: none; stroke: rgb(230, 25, 75); stroke-opacity: 1; stroke-width: 2px; opacity: 1;"/></g><g class="points"/><g class="text"/></g><g class="trace scatter tracee26e87" style="stroke-miterlimit: 2; opacity: 1;"><g class="fills"/><g class="errorbars"/><g class="lines"><path class="js-line" d="M0,256.5L42.49,255.85L43.17,255.65L51.93,251.31L52.61,250.64L59.35,245.44L60.03,244.94L62.05,243.24L62.73,241.96L67.45,238.79L68.12,238.44L79.59,234.42L80.26,234.29L84.31,233.55L84.98,233.5L87.68,232.91L88.36,231.43L113.31,229.24L113.99,229.11L126.8,227.21L127.48,227.01L136.25,225.32L136.92,225.32L146.36,224.62L147.04,224.56L177.39,220.66L178.06,220.5L194.25,216.08L194.92,215.66L211.79,204.53L212.46,203.55L215.83,198.62L216.51,198.45L217.86,198.45L218.53,197.38L224.6,187.59L225.28,184.26L226.63,183.18L227.3,183.18L229.32,183.18L230,186.54L234.04,179.47L234.72,178.43L236.07,170.04L236.74,168.46L238.77,163.49L239.44,163.49L241.46,158.01L242.14,156.64L244.84,152.16L245.51,151.03L250.91,141.24L251.58,140.57L254.28,137.18L254.95,137.18L257.65,133.36L258.33,133.05L270.47,124.62L271.14,124.13L271.82,124.13L272.49,123.37L274.51,122.46L275.19,122.01L280.58,119.42L281.26,119.42L282.61,117.84L283.28,117.38L289.35,113.19L290.03,113.19L292.05,111.24" style="vector-effect: non-scaling-stroke; fill: none; stroke: rgb(60, 180, 75); stroke-opacity: 1; stroke-width: 2px; opacity: 1;"/></g><g class="points"/><g class="text"/></g><g class="trace scatter tracebb0e4d" style="stroke-miterlimit: 2; opacity: 1;"><g class="fills"/><g class="errorbars"/><g class="lines"><path class="js-line" d="M0,256.5L57.33,255.76L58.01,255.71L91.73,253.98L92.4,253.9L97.8,253.18L98.47,253.06L105.22,250.74L105.89,250.41L115.34,246.29L116.01,245.25L116.69,245.25L117.36,244.31L120.73,239.3L121.41,239.3L125.45,233.65L126.13,233.65L128.15,228.99L128.83,226.85L130.17,224.47L130.85,217.04L132.2,212.37L132.87,211.06L136.92,206.67L137.59,205.95L139.62,204.49L140.29,203.94L145.01,200.38L145.69,198.52L146.36,198.52L147.04,196.31L153.78,193.55L154.46,193.55L155.8,192.85L156.48,192.76L158.5,192.32L159.18,192.32L161.2,191.47L161.88,191.29L167.95,190.24L168.62,190.24L172.67,189.51L173.34,189.51L181.44,187.42L182.11,187.29L185.48,186.62L186.16,186.51L190.2,185.79L190.88,185.62L194.25,185.04L194.92,184.8L201.67,183.54L202.34,183.05L210.44,181.02L211.11,181.02L213.14,179.6L213.81,179.24L221.9,175.51L222.58,174.98L224.6,174.98L225.28,174.02L226.63,172.97L227.3,172.6L229.32,172.21L230,172.21L231.35,170.64L232.02,170.31L234.72,169.88L235.39,168.07L238.77,165.44L239.44,165.44L240.79,164.62L241.46,162.57L243.49,161.04L244.16,161.04L244.84,161.04L245.51,160L248.21,157.98L248.88,157.98L250.23,155.84L250.91,155.84L251.58,155.84L252.26,154.44L253.6,154.79L254.28,153.45L256.98,152.18L257.65,152.18L258.33,152.18L259,151.18L263.72,149.9L264.4,149.9L265.75,149.9L266.42,148.77L269.79,148.09L270.47,148L276.54,146.83L277.21,146.83L279.23,146.07L279.91,145.92L286.65,145.21L287.33,144.91L292.05,143.98" style="vector-effect: non-scaling-stroke; fill: none; stroke: rgb(255, 225, 25); stroke-opacity: 1; stroke-width: 2px; opacity: 1;"/></g><g class="points"/><g class="text"/></g><g class="trace scatter trace4fdd74" style="stroke-miterlimit: 2; opacity: 1;"><g class="fills"/><g class="errorbars"/><g class="lines"><path class="js-line" d="M0,256.5L43.17,255.85L43.84,255.69L69.47,251.76L70.15,251.46L105.22,246.57L105.89,246.38L113.99,244.4L114.66,243.9L143.66,230.84L144.34,230.6L170.64,223.42L171.32,223.34L178.06,222.44L178.74,222.37L187.51,221.02L188.18,220.76L191.55,220.14L192.23,219.99L197.62,218.14L198.3,217.94L207.74,213.7L208.41,212.71L211.79,210.84L212.46,209.79L214.48,208.39L215.16,206.67L216.51,206.3L217.18,205.2L217.86,205.2L218.53,204.31L225.95,194.94L226.63,194.52L236.74,182.28L237.42,180.93L239.44,177.52L240.12,176.91L246.19,169.9L246.86,169.5L251.58,165.44L252.26,165.14L263.72,158.84L264.4,158.73L277.21,155.02L277.89,154.95L292.05,153.49" style="vector-effect: non-scaling-stroke; fill: none; stroke: rgb(67, 99, 216); stroke-opacity: 1; stroke-width: 2px; opacity: 1;"/></g><g class="points"/><g class="text"/></g><g class="trace scatter trace673da5" style="stroke-miterlimit: 2; opacity: 1;"><g class="fills"/><g class="errorbars"/><g class="lines"><path class="js-line" d="M0,256.5L52.61,255.76L53.28,255.6L64.08,254.85L64.75,254.61L82.29,252.91L82.96,252.75L87.68,251.77L88.36,251.57L95.1,249.23L95.78,248.84L100.5,246.54L101.17,246.18L108.59,241.59L109.27,240.85L114.66,237.1L115.34,236.3L121.41,231.48L122.08,231.06L137.59,224.07L138.27,223.84L151.76,220.51L152.43,220.16L157.83,218.21L158.5,217.87L169.29,214.06L169.97,214.02L171.99,213.09L172.67,212.83L179.41,210.24L180.09,209.81L182.78,208.42L183.46,208.16L188.85,205.1L189.53,204.71L198.97,198.15L199.65,197.42L201.67,195.9L202.34,195.9L203.02,195.9L203.69,193.47L205.72,193.47L206.39,190.71L207.74,189.5L208.41,189.5L209.76,187.06L210.44,187.06L213.14,184.31L213.81,183.05L221.9,168.47L222.58,167.54L225.28,161.49L225.95,160.61L227.3,157.43L227.97,157.43L231.35,148.96L232.02,147.53L232.7,147.53L233.37,144.87L234.72,138.67L235.39,137.46L239.44,124.88L240.12,124.4L243.49,113.65L244.16,112.5L244.84,111.63L245.51,108.65L248.88,101.09L249.56,100.23L258.33,84.33L259,83.82L263.72,77.64L264.4,77.19L269.79,71.88L270.47,71.23L281.93,62.86L282.61,62.54L292.05,54.36" style="vector-effect: non-scaling-stroke; fill: none; stroke: rgb(245, 130, 49); stroke-opacity: 1; stroke-width: 2px; opacity: 1;"/></g><g class="points"/><g class="text"/></g><g class="trace scatter traceb37489" style="stroke-miterlimit: 2; opacity: 1;"><g class="fills"/><g class="errorbars"/><g class="lines"><path class="js-line" d="M0,256.5L51.26,255.79L51.93,255.73L83.64,253.84L84.31,253.53L92.4,252.82L93.08,252.59L102.52,250.57L103.2,250.19L105.89,249.68L106.57,249.68L108.59,247.46L109.27,247.04L111.29,247.04L111.96,245.44L116.69,244.1L117.36,243.02L118.03,243.02L118.71,242L121.41,241.34L122.08,239.12L125.45,237.84L126.13,236.56L130.17,235.06L130.85,233.5L132.87,233.28L133.55,232.72L134.9,232.72L135.57,231.29L143.66,228.2L144.34,228.2L145.69,226.98L146.36,226.7L151.08,224.95L151.76,224.71L156.48,223.3L157.15,222.98L159.85,222.36L160.53,221.93L167.27,220.04L167.95,220.04L170.64,218.94L171.32,218.72L174.69,218.12L175.36,217.9L184.81,215.78L185.48,215.57L188.85,214.91L189.53,214.68L196.27,212.57L196.95,211.58L198.97,210.48L199.65,209.71L201,209.71L201.67,208.44L203.69,206.4L204.37,205.19L205.72,205.19L206.39,203.41L208.41,202.8L209.09,202.8L210.44,202.8L211.11,197.92L211.79,197.55L212.46,195.23L214.48,192.64L215.16,192.64L216.51,187.98L217.18,187.48L219.21,185.63L219.88,185.63L221.23,176.47L221.9,175.02L223.93,170.8L224.6,170.8L225.95,163.79L226.63,161.66L230,149.48L230.67,148.04L234.04,129.81L234.72,128.79L244.16,77.67L244.84,75.91L250.91,57.14L251.58,55.37L256.3,44.57L256.98,43.53L259.67,39.5L260.35,38.57L263.72,34.96L264.4,34.51L269.12,31.44L269.79,31.02L273.84,29L274.51,28.78L281.26,26.89L281.93,26.77L292.05,25.23" style="vector-effect: non-scaling-stroke; fill: none; stroke: rgb(145, 30, 180); stroke-opacity: 1; stroke-width: 2px; opacity: 1;"/></g><g class="points"/><g class="text"/></g></g></g><g class="overplot"/><path class="xlines-above crisp" d="M0,0" style="fill: none;"/><path class="ylines-above crisp" d="M0,0" style="fill: none;"/><g class="overlines-above"/><g class="xaxislayer-above"><g class="xtick"><text text-anchor="middle" x="0" y="383" transform="translate(127.21000000000001,0)" style="font-family: 'Open Sans', verdana, arial, sans-serif; font-size: 12px; fill: rgb(242, 245, 250); fill-opacity: 1; white-space: pre;">Apr 2020</text></g><g class="xtick"><text text-anchor="middle" x="0" y="383" transform="translate(188.59,0)" style="font-family: 'Open Sans', verdana, arial, sans-serif; font-size: 12px; fill: rgb(242, 245, 250); fill-opacity: 1; white-space: pre;">Jul 2020</text></g><g class="xtick"><text text-anchor="middle" x="0" y="383" transform="translate(250.64,0)" style="font-family: 'Open Sans', verdana, arial, sans-serif; font-size: 12px; fill: rgb(242, 245, 250); fill-opacity: 1; white-space: pre;">Oct 2020</text></g><g class="xtick"><text text-anchor="middle" x="0" y="383" transform="translate(312.7,0)" style="font-family: 'Open Sans', verdana, arial, sans-serif; font-size: 12px; fill: rgb(242, 245, 250); fill-opacity: 1; white-space: pre;">Jan 2021</text></g></g><g class="yaxislayer-above"><g class="ytick"><text text-anchor="end" x="79" y="4.199999999999999" transform="translate(0,356.5)" style="font-family: 'Open Sans', verdana, arial, sans-serif; font-size: 12px; fill: rgb(242, 245, 250); fill-opacity: 1; white-space: pre;">0</text></g><g class="ytick"><text text-anchor="end" x="79" y="4.199999999999999" transform="translate(0,298.11)" style="font-family: 'Open Sans', verdana, arial, sans-serif; font-size: 12px; fill: rgb(242, 245, 250); fill-opacity: 1; white-space: pre;">20k</text></g><g class="ytick"><text text-anchor="end" x="79" y="4.199999999999999" transform="translate(0,239.73)" style="font-family: 'Open Sans', verdana, arial, sans-serif; font-size: 12px; fill: rgb(242, 245, 250); fill-opacity: 1; white-space: pre;">40k</text></g><g class="ytick"><text text-anchor="end" x="79" y="4.199999999999999" transform="translate(0,181.34)" style="font-family: 'Open Sans', verdana, arial, sans-serif; font-size: 12px; fill: rgb(242, 245, 250); fill-opacity: 1; white-space: pre;">60k</text></g><g class="ytick"><text text-anchor="end" x="79" y="4.199999999999999" transform="translate(0,122.96000000000001)" style="font-family: 'Open Sans', verdana, arial, sans-serif; font-size: 12px; fill: rgb(242, 245, 250); fill-opacity: 1; white-space: pre;">80k</text></g></g><g class="overaxes-above"/></g><g class="subplot x2y2"><g class="layer-subplot"><g class="shapelayer"/><g class="imagelayer"/></g><g class="gridlayer"><g class="x2"><path class="x2grid crisp" transform="translate(484.16,0)" d="M0,100v270" style="stroke: rgb(40, 52, 66); stroke-opacity: 1; stroke-width: 1px;"/><path class="x2grid crisp" transform="translate(545.5400000000001,0)" d="M0,100v270" style="stroke: rgb(40, 52, 66); stroke-opacity: 1; stroke-width: 1px;"/><path class="x2grid crisp" transform="translate(607.59,0)" d="M0,100v270" style="stroke: rgb(40, 52, 66); stroke-opacity: 1; stroke-width: 1px;"/><path class="x2grid crisp" transform="translate(669.6500000000001,0)" d="M0,100v270" style="stroke: rgb(40, 52, 66); stroke-opacity: 1; stroke-width: 1px;"/></g><g class="y2"><path class="y2grid crisp" transform="translate(0,285.82)" d="M436.95000000000005,0h292.04999999999995" style="stroke: rgb(40, 52, 66); stroke-opacity: 1; stroke-width: 1px;"/><path class="y2grid crisp" transform="translate(0,215.14)" d="M436.95000000000005,0h292.04999999999995" style="stroke: rgb(40, 52, 66); stroke-opacity: 1; stroke-width: 1px;"/><path class="y2grid crisp" transform="translate(0,144.46)" d="M436.95000000000005,0h292.04999999999995" style="stroke: rgb(40, 52, 66); stroke-opacity: 1; stroke-width: 1px;"/></g></g><g class="zerolinelayer"><path class="y2zl zl crisp" transform="translate(0,356.5)" d="M436.95000000000005,0h292.04999999999995" style="stroke: rgb(40, 52, 66); stroke-opacity: 1; stroke-width: 2px;"/></g><path class="xlines-below"/><path class="ylines-below"/><g class="overlines-below"/><g class="xaxislayer-below"/><g class="yaxislayer-below"/><g class="overaxes-below"/><g class="plot" transform="translate(436.95000000000005, 100)" clip-path="url('#clipe7abbax2y2plot')"><g class="scatterlayer mlayer"><g class="trace scatter tracef90338" style="stroke-miterlimit: 2; opacity: 1;"><g class="fills"/><g class="errorbars"/><g class="lines"><path class="js-line" d="M0,256.5L43.84,255.93L44.52,255.65L55.98,253.25L56.66,251.41L59.35,250.56L60.03,250.56L65.42,248.73L66.1,248.44L68.8,247.59L69.47,247.59L72.17,246.6L72.84,246.46L75.54,245.76L76.22,245.33L78.24,244.77L78.91,244.77L82.29,243.49L82.96,243.35L90.38,242.79L91.05,242.22L94.43,241.66L95.1,241.23L103.87,239.25L104.54,238.41L109.94,236.71L110.61,236.71L113.31,236.43L113.99,235.86L118.71,234.73L119.38,233.74L122.08,232.89L122.76,232.33L125.45,231.34L126.13,231.34L128.15,230.77L128.83,230.77L130.17,229.78L130.85,229.78L132.87,229.22L133.55,229.22L134.22,229.22L134.9,227.52L136.25,227.52L136.92,226.53L138.94,225.54L139.62,225.26L140.97,224.84L141.64,224.27L144.34,223.42L145.01,223.42L147.04,222.01L147.71,221.58L148.39,221.58L149.06,220.03L150.41,220.17L151.08,217.77L152.43,214.66L153.11,214.23L156.48,213.67L157.15,211.26L157.83,211.26L158.5,209.57L159.18,209.43L159.85,206.18L160.53,206.18L161.2,204.9L163.22,203.63L163.9,203.63L165.25,200.66L165.92,200.38L167.27,199.39L167.95,199.11L169.29,198.82L169.97,198.26L171.99,196.28L172.67,196.42L174.02,196.14L174.69,194.3L178.06,194.87L178.74,195.57L179.41,194.02L180.09,195.29L181.44,194.02L182.11,195.29L184.13,195.01L184.81,192.04L187.51,191.33L188.18,191.19L194.25,190.77L194.92,189.92L196.95,189.49L197.62,189.49L198.97,187.8L199.65,187.8L202.34,186.81L203.02,186.67L209.09,185.11L209.76,184.26L211.79,183.84L212.46,182.99L216.51,182.29L217.18,182.14L219.21,179.88L219.88,179.88L220.56,179.32L221.23,177.62L224.6,173.52L225.28,173.52L225.95,173.38L226.63,170.41L227.97,169L228.65,169L230,168.15L230.67,168.15L232.02,168.15L232.7,163.77L236.07,163.77L236.74,157.97L237.42,157.97L238.09,153.45L240.12,152.46L240.79,149.77L244.16,149.49L244.84,148.5L246.19,148.22L246.86,137.47L248.21,135.49L248.88,130.12L249.56,129.84L250.23,128.43L252.93,118.81L253.6,117.97L254.28,117.68L254.95,116.41L255.63,115.28L256.3,112.17L258.33,109.34L259,109.34L261.02,106.09L261.7,102.7L263.05,98.18L263.72,98.03L265.75,97.33L266.42,90.97L267.09,90.97L267.77,86.87L269.12,86.87L269.79,84.32L270.47,83.47L271.14,81.07L271.82,81.07L272.49,100.3L275.19,95.21L275.86,94.92L277.21,95.07L277.89,93.79L279.23,91.96L279.91,91.96L281.26,91.39L281.93,91.53L283.96,88.42L284.63,88.7L285.31,89.98L285.98,88.7L287.33,88.28L288,87.01L290.03,85.31L290.7,85.17L292.05,85.17" style="vector-effect: non-scaling-stroke; fill: none; stroke: rgb(230, 25, 75); stroke-opacity: 1; stroke-width: 2px; opacity: 1;"/></g><g class="points"/><g class="text"/></g><g class="trace scatter tracee71560" style="stroke-miterlimit: 2; opacity: 1;"><g class="fills"/><g class="errorbars"/><g class="lines"><path class="js-line" d="M0,256.5L43.17,256.22L43.84,255.65L47.89,253.53L48.56,253.11L50.59,252.4L51.26,251.55L52.61,249.29L53.28,247.31L56.66,235.58L57.33,231.9L62.73,204.48L63.4,199.96L66.77,185.96L67.45,182.71L71.49,170.55L72.17,168.43L78.24,154.01L78.91,153.59L80.26,150.62L80.94,149.21L82.96,145.96L83.64,145.67L87.68,140.44L88.36,137.62L95.78,131.82L96.45,131.82L97.8,130.69L98.47,130.55L99.82,128.57L100.5,128.29L102.52,127.3L103.2,126.59L105.22,125.46L105.89,125.46L107.24,125.03L107.92,126.02L109.27,124.61L109.94,124.47L112.64,123.48L113.31,123.2L115.34,121.22L116.01,121.08L119.38,120.37L120.06,119.95L129.5,117.12L130.17,116.84L132.2,116.41L132.87,115.99L135.57,115.56L136.25,115.56L140.97,115.56L141.64,114.57L146.36,114.01L147.04,113.58L149.73,112.59L150.41,112.59L154.46,112.03L155.13,111.46L157.83,110.9L158.5,110.47L160.53,109.77L161.2,109.2L164.57,108.35L165.25,108.35L170.64,105.53L171.32,105.53L174.69,104.25L175.36,104.25L184.13,101.85L184.81,101.43L190.88,99.45L191.55,99.31L197.62,96.76L198.3,95.91L199.65,95.49L200.32,94.36L210.44,89.98L211.11,89.41L218.53,85.74L219.21,85.17L221.23,84.32L221.9,82.63L225.95,80.22L226.63,80.22L227.3,78.1L227.97,80.22L230,79.94L230.67,74.57L232.7,72.45L233.37,71.74L235.39,68.77L236.07,67.78L240.12,62.98L240.79,62.55L245.51,58.17L246.19,56.33L248.88,52.23L249.56,51.95L252.93,47.43L253.6,47.29L254.95,46.86L255.63,45.16L256.98,45.16L257.65,41.91L258.33,41.35L259,39.79L262.37,35.41L263.05,35.27L264.4,34.14L265.07,33.01L265.75,32.73L266.42,31.31L270.47,28.63L271.14,28.48L271.82,28.48L272.49,27.35L275.19,24.53L275.86,24.53L276.54,24.53L277.21,22.83L279.91,21.27L280.58,21.27L281.26,21.27L281.93,20.29L283.96,18.73L284.63,17.88L285.31,17.74L285.98,16.75L287.33,16.33L288,15.34L288.68,15.34L289.35,14.49L291.38,13.78L292.05,13.5" style="vector-effect: non-scaling-stroke; fill: none; stroke: rgb(60, 180, 75); stroke-opacity: 1; stroke-width: 2px; opacity: 1;"/></g><g class="points"/><g class="text"/></g><g class="trace scatter trace253400" style="stroke-miterlimit: 2; opacity: 1;"><g class="fills"/><g class="errorbars"/><g class="lines"><path class="js-line" d="M0,256.5L58.68,255.79L59.35,255.65L62.05,255.23L62.73,254.8L64.75,254.52L65.42,254.52L68.12,253.96L68.8,253.96L74.87,253.25L75.54,252.97L80.26,252.26L80.94,251.98L89.71,251.41L90.38,250.99L98.47,250.28L99.15,250.14L101.85,249.71L102.52,249.71L110.61,247.59L111.29,247.03L114.66,246.46L115.34,245.62L117.36,245.33L118.03,245.33L118.71,245.33L119.38,243.92L121.41,242.93L122.08,240.81L125.45,231.48L126.13,218.05L126.8,217.48L127.48,214.94L128.83,210.56L129.5,207.59L130.17,207.59L130.85,204.48L133.55,197.84L134.22,196.42L135.57,195.71L136.25,192.32L138.94,179.18L139.62,177.34L140.29,176.63L140.97,173.24L144.34,164.19L145.01,163.63L146.36,159.24L147.04,155.85L149.06,150.2L149.73,149.49L153.78,141.43L154.46,141.29L156.48,138.75L157.15,137.9L159.85,136.63L160.53,135.78L161.2,135.49L161.88,134.22L164.57,132.81L165.25,131.25L167.95,128.99L168.62,128.99L169.97,127.58L170.64,127.15L172.67,125.18L173.34,125.03L175.36,123.48L176.04,122.91L178.74,121.92L179.41,121.78L182.78,120.37L183.46,120.09L186.83,118.81L187.51,118.81L190.2,117.68L190.88,117.68L194.25,116.98L194.92,116.55L211.79,113.02L212.46,112.59L215.16,110.47L215.83,110.33L217.86,109.77L218.53,109.34L223.25,107.93L223.93,107.93L225.28,107.93L225.95,105.67L227.3,105.1L227.97,104.82L231.35,104.25L232.02,103.55L233.37,102.84L234.04,102.84L236.07,102.27L236.74,101.85L237.42,101.85L238.09,101L240.79,100.01L241.46,99.73L243.49,97.33L244.16,97.33L245.51,96.9L246.19,95.63L248.21,93.09L248.88,93.09L250.23,91.25L250.91,89.41L253.6,86.3L254.28,85.88L260.35,75.84L261.02,75.27L262.37,73.86L263.05,73.72L268.44,69.76L269.12,68.77L271.82,65.95L272.49,65.95L273.16,65.95L273.84,65.1L277.21,61.28L277.89,60.43L281.26,57.46L281.93,57.46L283.28,57.04L283.96,55.91L287.33,55.2L288,55.06L292.05,53.22" style="vector-effect: non-scaling-stroke; fill: none; stroke: rgb(255, 225, 25); stroke-opacity: 1; stroke-width: 2px; opacity: 1;"/></g><g class="points"/><g class="text"/></g><g class="trace scatter tracea2e1e5" style="stroke-miterlimit: 2; opacity: 1;"><g class="fills"/><g class="errorbars"/><g class="lines"><path class="js-line" d="M0,256.5L45.19,255.79L45.86,255.65L52.61,255.09L53.28,254.66L58.01,254.1L58.68,253.67L66.77,252.97L67.45,252.54L75.54,251.55L76.22,251.55L82.96,250.85L83.64,250.85L97.8,250.14L98.47,250L103.2,249.71L103.87,249.71L122.76,249.01L123.43,248.73L130.17,247.88L130.85,247.88L133.55,247.45L134.22,247.03L142.99,246.32L143.66,246.04L146.36,245.19L147.04,244.91L151.76,244.63L152.43,244.63L154.46,244.34L155.13,244.34L158.5,243.64L159.18,243.64L161.88,242.93L162.55,242.79L164.57,242.51L165.25,242.51L169.97,241.8L170.64,241.52L175.36,240.24L176.04,239.11L180.09,238.69L180.76,237.7L184.81,236.99L185.48,236.71L189.53,236L190.2,235.72L196.27,235.15L196.95,235.15L204.37,234.45L205.04,234.16L213.81,233.6L214.48,233.32L221.23,232.89L221.9,232.19L226.63,231.62L227.3,231.34L231.35,230.77L232.02,230.49L237.42,227.52L238.09,225.68L239.44,223.56L240.12,223.42L242.81,222.43L243.49,220.59L244.16,220.59L244.84,219.46L246.19,218.9L246.86,217.77L248.21,217.2L248.88,215.08L250.91,214.52L251.58,212.96L253.6,210.7L254.28,210.7L256.3,210.13L256.98,207.73L259.67,207.59L260.35,206.88L261.02,206.88L261.7,205.75L263.05,204.76L263.72,204.76L267.77,200.8L268.44,200.8L270.47,200.24L271.14,198.54L271.82,198.26L272.49,196.56L274.51,196.28L275.19,195.71L277.89,192.89L278.56,192.89L281.93,192.04L282.61,192.04L284.63,191.33L285.31,192.46L286.65,191.19L287.33,191.19L288,191.19L288.68,190.34L290.7,189.49L291.38,189.49L292.05,189.49" style="vector-effect: non-scaling-stroke; fill: none; stroke: rgb(67, 99, 216); stroke-opacity: 1; stroke-width: 2px; opacity: 1;"/></g><g class="points"/><g class="text"/></g><g class="trace scatter trace92b9a2" style="stroke-miterlimit: 2; opacity: 1;"><g class="fills"/><g class="errorbars"/><g class="lines"><path class="js-line" d="M0,256.5L52.61,256.08L53.28,255.65L60.03,254.95L60.7,254.8L65.42,253.39L66.1,251.69L68.8,250.85L69.47,250.56L78.91,250L79.59,249.43L84.98,248.73L85.66,248.58L91.05,248.16L91.73,248.16L93.75,247.74L94.43,247.31L97.13,246.75L97.8,246.75L102.52,246.04L103.2,245.9L106.57,245.19L107.24,245.19L112.64,243.92L113.31,243.07L114.66,242.08L115.34,242.08L118.03,241.52L118.71,239.25L123.43,236.57L124.1,235.44L127.48,233.6L128.15,232.89L129.5,231.2L130.17,231.05L130.85,231.05L131.52,229.92L134.22,229.78L134.9,227.1L136.25,226.39L136.92,225.12L139.62,224.41L140.29,224.13L142.32,222.57L142.99,222.15L146.36,221.44L147.04,220.74L153.11,218.76L153.78,218.76L157.83,217.06L158.5,216.78L162.55,215.79L163.22,215.65L166.6,214.09L167.27,214.23L168.62,214.09L169.29,213.38L174.02,212.25L174.69,211.41L176.04,210.84L176.71,210.42L182.11,209.71L182.78,209.57L194.25,205.61L194.92,205.47L196.95,204.34L197.62,203.91L203.02,203.35L203.69,202.78L205.72,202.78L206.39,200.52L207.74,199.81L208.41,199.81L211.11,198.97L211.79,198.26L215.83,196.42L216.51,196.42L230,187.94L230.67,186.67L232.02,185.54L232.7,185.54L234.72,182.43L235.39,182.43L237.42,178.19L238.09,177.05L239.44,175.22L240.12,175.22L241.46,174.09L242.14,171.68L244.16,168.15L244.84,168.15L248.88,164.05L249.56,163.91L250.23,162.78L250.91,157.97L252.93,155.99L253.6,153.59L254.28,153.59L254.95,152.03L258.33,148.22L259,148.22L263.05,141.57L263.72,141.57L265.07,140.3L265.75,139.17L269.79,136.06L270.47,135.35L274.51,131.96L275.19,130.55L277.89,129.7L278.56,129.56L281.26,127.3L281.93,127.3L282.61,127.3L283.28,126.16L285.31,125.74L285.98,125.18L288.68,124.33L289.35,124.04L292.05,123.05" style="vector-effect: non-scaling-stroke; fill: none; stroke: rgb(245, 130, 49); stroke-opacity: 1; stroke-width: 2px; opacity: 1;"/></g><g class="points"/><g class="text"/></g><g class="trace scatter trace830863" style="stroke-miterlimit: 2; opacity: 1;"><g class="fills"/><g class="errorbars"/><g class="lines"><path class="js-line" d="M0,256.5L47.21,255.79L47.89,255.65L55.31,255.09L55.98,254.66L67.45,253.96L68.12,253.81L75.54,253.11L76.22,252.97L83.64,252.26L84.31,251.98L93.75,251.55L94.43,251.13L103.2,250.42L103.87,250.28L111.29,249.86L111.96,249.43L118.03,249.01L118.71,248.58L121.41,248.44L122.08,247.74L134.22,245.33L134.9,243.92L136.92,243.35L137.59,243.21L147.04,240.95L147.71,240.24L154.46,239.82L155.13,239.11L157.83,238.26L158.5,238.26L160.53,236.57L161.2,236.43L171.99,234.87L172.67,234.87L178.74,234.16L179.41,234.16L187.51,233.18L188.18,233.18L192.9,232.89L193.58,232.89L195.6,232.61L196.27,232.61L198.3,232.33L198.97,232.33L204.37,231.9L205.04,231.9L210.44,231.76L211.11,230.63L214.48,229.92L215.16,229.92L216.51,228.93L217.18,228.65L221.23,228.09L221.9,227.66L224.6,226.81L225.28,226.81L225.95,226.81L226.63,225.97L228.65,223.56L229.32,223.56L230,223.56L230.67,222.01L232.02,219.75L232.7,219.32L234.72,219.32L235.39,215.65L237.42,212.25L238.09,209.29L239.44,209.29L240.12,206.88L240.79,206.88L241.46,201.65L243.49,198.26L244.16,198.26L244.84,198.26L245.51,194.87L247.53,184.83L248.21,184.83L248.88,184.83L249.56,182.29L252.26,171.97L252.93,171.97L253.6,171.97L254.28,169.14L257.65,162.64L258.33,162.64L262.37,153.02L263.05,153.02L263.72,153.02L264.4,150.34L266.42,145.96L267.09,145.96L267.77,145.96L268.44,144.26L271.82,137.19L272.49,146.95L273.16,146.24L273.84,140.3L276.54,136.2L277.21,136.06L281.26,127.86L281.93,127.86L283.28,127.01L283.96,126.73L287.33,124.75L288,123.05L289.35,121.78L290.03,121.36L292.05,121.36" style="vector-effect: non-scaling-stroke; fill: none; stroke: rgb(145, 30, 180); stroke-opacity: 1; stroke-width: 2px; opacity: 1;"/></g><g class="points"/><g class="text"/></g></g></g><g class="overplot"/><path class="xlines-above crisp" d="M0,0" style="fill: none;"/><path class="ylines-above crisp" d="M0,0" style="fill: none;"/><g class="overlines-above"/><g class="xaxislayer-above"><g class="x2tick"><text text-anchor="middle" x="0" y="383" transform="translate(484.16,0)" style="font-family: 'Open Sans', verdana, arial, sans-serif; font-size: 12px; fill: rgb(242, 245, 250); fill-opacity: 1; white-space: pre;">Apr 2020</text></g><g class="x2tick"><text text-anchor="middle" x="0" y="383" transform="translate(545.5400000000001,0)" style="font-family: 'Open Sans', verdana, arial, sans-serif; font-size: 12px; fill: rgb(242, 245, 250); fill-opacity: 1; white-space: pre;">Jul 2020</text></g><g class="x2tick"><text text-anchor="middle" x="0" y="383" transform="translate(607.59,0)" style="font-family: 'Open Sans', verdana, arial, sans-serif; font-size: 12px; fill: rgb(242, 245, 250); fill-opacity: 1; white-space: pre;">Oct 2020</text></g><g class="x2tick"><text text-anchor="middle" x="0" y="383" transform="translate(669.6500000000001,0)" style="font-family: 'Open Sans', verdana, arial, sans-serif; font-size: 12px; fill: rgb(242, 245, 250); fill-opacity: 1; white-space: pre;">Jan 2021</text></g></g><g class="yaxislayer-above"><g class="y2tick"><text text-anchor="end" x="435.95000000000005" y="4.199999999999999" transform="translate(0,356.5)" style="font-family: 'Open Sans', verdana, arial, sans-serif; font-size: 12px; fill: rgb(242, 245, 250); fill-opacity: 1; white-space: pre;">0</text></g><g class="y2tick"><text text-anchor="end" x="435.95000000000005" y="4.199999999999999" transform="translate(0,285.82)" style="font-family: 'Open Sans', verdana, arial, sans-serif; font-size: 12px; fill: rgb(242, 245, 250); fill-opacity: 1; white-space: pre;">500</text></g><g class="y2tick"><text text-anchor="end" x="435.95000000000005" y="4.199999999999999" transform="translate(0,215.14)" style="font-family: 'Open Sans', verdana, arial, sans-serif; font-size: 12px; fill: rgb(242, 245, 250); fill-opacity: 1; white-space: pre;">1000</text></g><g class="y2tick"><text text-anchor="end" x="435.95000000000005" y="4.199999999999999" transform="translate(0,144.46)" style="font-family: 'Open Sans', verdana, arial, sans-serif; font-size: 12px; fill: rgb(242, 245, 250); fill-opacity: 1; white-space: pre;">1500</text></g></g><g class="overaxes-above"/></g></g><g class="polarlayer"/><g class="ternarylayer"/><g class="geolayer"/><g class="funnelarealayer"/><g class="pielayer"/><g class="treemaplayer"/><g class="sunburstlayer"/><g class="glimages"/><defs id="topdefs-e7abba"><g class="clips"/><clipPath id="legende7abba"><rect width="146" height="124" x="0" y="0"/></clipPath></defs><g class="layer-above"><g class="imagelayer"/><g class="shapelayer"/></g><g class="infolayer"><g class="legend" pointer-events="all" transform="translate(741.98, 100)"><rect class="bg" shape-rendering="crispEdges" width="146" height="124" x="0" y="0" style="stroke: rgb(68, 68, 68); stroke-opacity: 1; fill: rgb(17, 17, 17); fill-opacity: 1; stroke-width: 0px;"/><g class="scrollbox" transform="translate(0, 0)" clip-path="url('#legende7abba')"><g class="groups"><g class="traces" transform="translate(0, 14.5)" style="opacity: 1;"><text class="legendtext user-select-none" text-anchor="start" x="40" y="4.680000000000001" style="font-family: 'Open Sans', verdana, arial, sans-serif; font-size: 12px; fill: rgb(242, 245, 250); fill-opacity: 1; white-space: pre;">Alameda, CA</text><g class="layers" style="opacity: 1;"><g class="legendfill"/><g class="legendlines"><path class="js-line" d="M5,0h30" style="fill: none; stroke: rgb(230, 25, 75); stroke-opacity: 1; stroke-width: 2px;"/></g><g class="legendsymbols"><g class="legendpoints"/></g></g><rect class="legendtoggle" pointer-events="all" x="0" y="-9.5" width="140.046875" height="19" style="cursor: pointer; fill: rgb(0, 0, 0); fill-opacity: 0;"/></g><g class="traces" transform="translate(0, 33.5)" style="opacity: 1;"><text class="legendtext user-select-none" text-anchor="start" x="40" y="4.680000000000001" style="font-family: 'Open Sans', verdana, arial, sans-serif; font-size: 12px; fill: rgb(242, 245, 250); fill-opacity: 1; white-space: pre;">Norfolk, MA</text><g class="layers" style="opacity: 1;"><g class="legendfill"/><g class="legendlines"><path class="js-line" d="M5,0h30" style="fill: none; stroke: rgb(60, 180, 75); stroke-opacity: 1; stroke-width: 2px;"/></g><g class="legendsymbols"><g class="legendpoints"/></g></g><rect class="legendtoggle" pointer-events="all" x="0" y="-9.5" width="140.046875" height="19" style="cursor: pointer; fill: rgb(0, 0, 0); fill-opacity: 0;"/></g><g class="traces" transform="translate(0, 52.5)" style="opacity: 1;"><text class="legendtext user-select-none" text-anchor="start" x="40" y="4.680000000000001" style="font-family: 'Open Sans', verdana, arial, sans-serif; font-size: 12px; fill: rgb(242, 245, 250); fill-opacity: 1; white-space: pre;">Cameron, TX</text><g class="layers" style="opacity: 1;"><g class="legendfill"/><g class="legendlines"><path class="js-line" d="M5,0h30" style="fill: none; stroke: rgb(255, 225, 25); stroke-opacity: 1; stroke-width: 2px;"/></g><g class="legendsymbols"><g class="legendpoints"/></g></g><rect class="legendtoggle" pointer-events="all" x="0" y="-9.5" width="140.046875" height="19" style="cursor: pointer; fill: rgb(0, 0, 0); fill-opacity: 0;"/></g><g class="traces" transform="translate(0, 71.5)" style="opacity: 1;"><text class="legendtext user-select-none" text-anchor="start" x="40" y="4.680000000000001" style="font-family: 'Open Sans', verdana, arial, sans-serif; font-size: 12px; fill: rgb(242, 245, 250); fill-opacity: 1; white-space: pre;">San Francisco, CA</text><g class="layers" style="opacity: 1;"><g class="legendfill"/><g class="legendlines"><path class="js-line" d="M5,0h30" style="fill: none; stroke: rgb(67, 99, 216); stroke-opacity: 1; stroke-width: 2px;"/></g><g class="legendsymbols"><g class="legendpoints"/></g></g><rect class="legendtoggle" pointer-events="all" x="0" y="-9.5" width="140.046875" height="19" style="cursor: pointer; fill: rgb(0, 0, 0); fill-opacity: 0;"/></g><g class="traces" transform="translate(0, 90.5)" style="opacity: 1;"><text class="legendtext user-select-none" text-anchor="start" x="40" y="4.680000000000001" style="font-family: 'Open Sans', verdana, arial, sans-serif; font-size: 12px; fill: rgb(242, 245, 250); fill-opacity: 1; white-space: pre;">Greenville, SC</text><g class="layers" style="opacity: 1;"><g class="legendfill"/><g class="legendlines"><path class="js-line" d="M5,0h30" style="fill: none; stroke: rgb(245, 130, 49); stroke-opacity: 1; stroke-width: 2px;"/></g><g class="legendsymbols"><g class="legendpoints"/></g></g><rect class="legendtoggle" pointer-events="all" x="0" y="-9.5" width="140.046875" height="19" style="cursor: pointer; fill: rgb(0, 0, 0); fill-opacity: 0;"/></g><g class="traces" transform="translate(0, 109.5)" style="opacity: 1;"><text class="legendtext user-select-none" text-anchor="start" x="40" y="4.680000000000001" style="font-family: 'Open Sans', verdana, arial, sans-serif; font-size: 12px; fill: rgb(242, 245, 250); fill-opacity: 1; white-space: pre;">Ventura, CA</text><g class="layers" style="opacity: 1;"><g class="legendfill"/><g class="legendlines"><path class="js-line" d="M5,0h30" style="fill: none; stroke: rgb(145, 30, 180); stroke-opacity: 1; stroke-width: 2px;"/></g><g class="legendsymbols"><g class="legendpoints"/></g></g><rect class="legendtoggle" pointer-events="all" x="0" y="-9.5" width="140.046875" height="19" style="cursor: pointer; fill: rgb(0, 0, 0); fill-opacity: 0;"/></g></g></g><rect class="scrollbar" rx="20" ry="3" width="0" height="0" x="0" y="0" style="fill: rgb(128, 139, 164); fill-opacity: 1;"/></g><g class="g-gtitle"/><g class="g-xtitle"><text class="xtitle" x="226.025" y="410.8" text-anchor="middle" style="font-family: 'Open Sans', verdana, arial, sans-serif; font-size: 14px; fill: rgb(242, 245, 250); opacity: 1; font-weight: normal; white-space: pre;">Date</text></g><g class="g-x2title"><text class="x2title" x="582.975" y="410.8" text-anchor="middle" style="font-family: 'Open Sans', verdana, arial, sans-serif; font-size: 14px; fill: rgb(242, 245, 250); opacity: 1; font-weight: normal; white-space: pre;">Date</text></g><g class="g-ytitle"><text class="ytitle" transform="rotate(-90,34.840625,235)" x="34.840625" y="235" text-anchor="middle" style="font-family: 'Open Sans', verdana, arial, sans-serif; font-size: 14px; fill: rgb(242, 245, 250); opacity: 1; font-weight: normal; white-space: pre;">Cases</text></g><g class="g-y2title"><text class="y2title" transform="rotate(-90,384.45,235)" x="384.45" y="235" text-anchor="middle" style="font-family: 'Open Sans', verdana, arial, sans-serif; font-size: 14px; fill: rgb(242, 245, 250); opacity: 1; font-weight: normal; white-space: pre;">Deaths</text></g><g class="annotation" data-index="0" style="opacity: 1;"><g class="annotation-text-g" transform="rotate(0,226.025,89.5)"><g class="cursor-pointer" transform="translate(202, 79)"><rect class="bg" x="0.5" y="0.5" width="48" height="20" style="stroke-width: 1px; stroke: rgb(0, 0, 0); stroke-opacity: 0; fill: rgb(0, 0, 0); fill-opacity: 0;"/><text class="annotation-text" text-anchor="middle" x="24.6875" y="16" style="font-family: 'Open Sans', verdana, arial, sans-serif; font-size: 16px; fill: rgb(242, 245, 250); fill-opacity: 1; white-space: pre;">Cases</text></g></g></g><g class="annotation" data-index="1" style="opacity: 1;"><g class="annotation-text-g" transform="rotate(0,582.975,89.5)"><g class="cursor-pointer" transform="translate(555, 79)"><rect class="bg" x="0.5" y="0.5" width="54" height="20" style="stroke-width: 1px; stroke: rgb(0, 0, 0); stroke-opacity: 0; fill: rgb(0, 0, 0); fill-opacity: 0;"/><text class="annotation-text" text-anchor="middle" x="27.359375" y="16" style="font-family: 'Open Sans', verdana, arial, sans-serif; font-size: 16px; fill: rgb(242, 245, 250); fill-opacity: 1; white-space: pre;">Deaths</text></g></g></g></g></svg>