<svg class="main-svg" xmlns="http://www.w3.org/2000/svg" xmlns:xlink="http://www.w3.org/1999/xlink" width="900" height="450" style="" viewBox="0 0 900 450"><rect x="0" y="0" width="900" height="450" style="fill: rgb(17, 17, 17); fill-opacity: 1;"/><defs id="defs-e441ab"><g class="clips"><clipPath id="clipe441abxyplot" class="plotclip"><rect width="301.5" height="270"/></clipPath><clipPath id="clipe441abx2y2plot" class="plotclip"><rect width="301.49999999999994" height="270"/></clipPath><clipPath class="axesclip" id="clipe441abx"><rect x="80" y="0" width="301.5" height="450"/></clipPath><clipPath class="axesclip" id="clipe441aby"><rect x="0" y="100" width="900" height="270"/></clipPath><clipPath class="axesclip" id="clipe441abxy"><rect x="80" y="100" width="301.5" height="270"/></clipPath><clipPath class="axesclip" id="clipe441aby2"><rect x="0" y="100" width="900" height="270"/></clipPath><clipPath class="axesclip" id="clipe441abxy2"><rect x="80" y="100" width="301.5" height="270"/></clipPath><clipPath class="axesclip" id="clipe441abx2"><rect x="448.50000000000006" y="0" width="301.49999999999994" height="450"/></clipPath><clipPath class="axesclip" id="clipe441abx2y"><rect x="448.50000000000006" y="100" width="301.49999999999994" height="270"/></clipPath><clipPath class="axesclip" id="clipe441abx2y2"><rect x="448.50000000000006" y="100" width="301.49999999999994" height="270"/></clipPath></g><g class="gradients"/></defs><g class="bglayer"/><g class="layer-below"><g class="imagelayer"/><g class="shapelayer"/></g><g class="cartesianlayer"><g class="subplot xy"><g class="layer-subplot"><g class="shapelayer"/><g class="imagelayer"/></g><g class="gridlayer"><g class="x"><path class="xgrid crisp" transform="translate(118.68,0)" d="M0,100v270" style="stroke: rgb(40, 52, 66); stroke-opacity: 1; stroke-width: 1px;"/><path class="xgrid crisp" transform="translate(179.18,0)" d="M0,100v270" style="stroke: rgb(40, 52, 66); stroke-opacity: 1; stroke-width: 1px;"/><path class="xgrid crisp" transform="translate(239.68,0)" d="M0,100v270" style="stroke: rgb(40, 52, 66); stroke-opacity: 1; stroke-width: 1px;"/><path class="xgrid crisp" transform="translate(301.16999999999996,0)" d="M0,100v270" style="stroke: rgb(40, 52, 66); stroke-opacity: 1; stroke-width: 1px;"/><path class="xgrid crisp" transform="translate(361.66,0)" d="M0,100v270" style="stroke: rgb(40, 52, 66); stroke-opacity: 1; stroke-width: 1px;"/></g><g class="y"><path class="ygrid crisp" transform="translate(0,312.21000000000004)" d="M80,0h301.5" style="stroke: rgb(40, 52, 66); stroke-opacity: 1; stroke-width: 1px;"/><path class="ygrid crisp" transform="translate(0,267.93)" d="M80,0h301.5" style="stroke: rgb(40, 52, 66); stroke-opacity: 1; stroke-width: 1px;"/><path class="ygrid crisp" transform="translate(0,223.64)" d="M80,0h301.5" style="stroke: rgb(40, 52, 66); stroke-opacity: 1; stroke-width: 1px;"/><path class="ygrid crisp" transform="translate(0,179.35)" d="M80,0h301.5" style="stroke: rgb(40, 52, 66); stroke-opacity: 1; stroke-width: 1px;"/><path class="ygrid crisp" transform="translate(0,135.07)" d="M80,0h301.5" style="stroke: rgb(40, 52, 66); stroke-opacity: 1; stroke-width: 1px;"/></g></g><g class="zerolinelayer"><path class="yzl zl crisp" transform="translate(0,356.5)" d="M80,0h301.5" style="stroke: rgb(40, 52, 66); stroke-opacity: 1; stroke-width: 2px;"/></g><path class="xlines-below"/><path class="ylines-below"/><g class="overlines-below"/><g class="xaxislayer-below"/><g class="yaxislayer-below"/><g class="overaxes-below"/><g class="plot" transform="translate(80, 100)" clip-path="url('#clipe441abxyplot')"><g class="scatterlayer mlayer"><g class="trace scatter trace6b66b4" style="stroke-miterlimit: 2; opacity: 1;"><g class="fills"/><g class="errorbars"/><g class="lines"><path class="js-line" d="M0,256.5L58.51,255.92L59.51,255.56L68.43,253.73L69.42,253.32L83.31,247.98L84.3,247.58L94.22,243.5L95.21,243.23L106.12,239.13L107.11,238.58L116.04,234.74L117.03,234.16L120,232.51L121,231.99L135.87,222.19L136.87,221.56L139.84,220.02L140.83,219.16L145.79,216.35L146.78,215.42L149.76,213.94L150.75,212.15L155.71,206.83L156.7,206.28L158.68,203.68L159.68,201.97L161.66,199.18L162.65,198.43L163.64,195.78L164.63,195.5L165.63,195.5L166.62,192.33L169.59,188.08L170.59,188.08L174.55,180.09L175.54,178.04L177.53,174.69L178.52,174.52L179.51,173.39L180.5,171.09L183.48,165L184.47,164.65L185.46,164.05L186.45,162.32L187.45,161.08L188.44,157.91L189.43,157.91L190.42,154.78L191.41,154.43L192.4,151.58L193.4,151.02L194.39,149.01L197.36,149.01L198.36,139.59L199.35,139.42L200.34,135.47L202.32,130.47L203.31,127.56L204.31,127.56L205.3,122.55L206.29,122.49L207.28,119.77L210.26,110.63L211.25,108.65L213.23,108.29L214.22,103.49L215.22,102.52L216.21,100.43L217.2,98.42L218.19,98.42L225.13,87.05L226.13,87.05L227.12,85.11L228.11,85.11L230.09,81.92L231.08,80.96L232.08,80.8L233.07,79.43L237.03,77.92L238.03,76.13L241,73.68L241.99,72.73L248.94,67.64L249.93,67.1L257.86,62.19L258.85,62.15L260.84,60.32L261.83,60.32L263.81,58.76L264.8,58.36L266.79,57.57L267.78,56.01L275.71,49.32L276.71,49.32L278.69,47.15L279.68,45.92L286.62,40.22L287.62,38.04L291.58,32.86L292.57,31.52L296.54,25.79L297.53,22.14L299.52,18L300.51,15.38L301.5,13.5" style="vector-effect: non-scaling-stroke; fill: none; stroke: rgb(230, 25, 75); stroke-opacity: 1; stroke-width: 2px; opacity: 1;"/></g><g class="points"/><g class="text"/></g><g class="trace scatter trace77105a" style="stroke-miterlimit: 2; opacity: 1;"><g class="fills"/><g class="errorbars"/><g class="lines"><path class="js-line" d="M0,256.5L68.43,255.8L69.42,255.68L78.35,253.88L79.34,253.71L97.19,251.02L98.19,250.5L111.08,246.69L112.07,246.63L118.02,245.72L119.01,245.72L121,245.26L121.99,245.26L125.96,244.85L126.95,244.33L132.9,243.59L133.89,243.14L137.86,242.68L138.85,242.27L142.82,241.76L143.81,241.12L146.78,240.71L147.77,239.92L151.74,239.37L152.73,238.52L155.71,237.83L156.7,237.09L159.68,235.3L160.67,235.3L163.64,235.3L164.63,232.98L165.63,232.98L166.62,232.05L167.61,231.79L168.6,230.55L169.59,230.47L170.59,229.49L173.56,226.46L174.55,226.46L175.54,226.09L176.54,224.59L177.53,224.13L178.52,222.62L180.5,221.63L181.5,221.63L182.49,220.12L183.48,220.12L186.45,218.47L187.45,217.18L188.44,217.18L189.43,215.87L191.41,215.79L192.4,214.77L194.39,213.89L195.38,213.6L197.36,212.49L198.36,212.49L200.34,211.62L201.33,210.98L202.32,210.98L203.31,209.3L205.3,208.74L206.29,208.22L207.28,208.2L208.27,207.32L209.26,207.29L210.26,206.36L212.24,206.36L213.23,205.47L214.22,205.47L215.22,204.06L216.21,204.06L217.2,203.26L219.18,203.16L220.17,202.4L223.15,201.76L224.14,200.88L228.11,200.18L229.1,199.67L233.07,199L234.06,198.24L237.03,197.58L238.03,196.81L241.99,196.08L242.99,195.33L246.95,194.6L247.94,193.66L250.92,193.06L251.91,192.1L255.88,191.37L256.87,190.27L257.86,190.27L258.85,189.24L260.84,189.24L261.83,188.11L262.82,188.11L263.81,187.32L264.8,187.32L265.8,186.38L267.78,186.38L268.77,185.3L269.76,185.3L270.75,184.34L274.72,183.73L275.71,182.31L276.71,182.31L277.7,181.35L278.69,181.35L279.68,179.57L281.66,179.57L282.66,178.15L283.65,178.15L284.64,177.29L285.63,177.29L286.62,175.67L288.61,175.67L289.6,174.29L290.59,174.29L291.58,172.37L292.57,172.37L293.57,170.67L295.55,170.67L296.54,168.25L297.53,168.25L298.52,165.85L299.52,165.85L300.51,163.19L301.5,163.19" style="vector-effect: non-scaling-stroke; fill: none; stroke: rgb(60, 180, 75); stroke-opacity: 1; stroke-width: 2px; opacity: 1;"/></g><g class="points"/><g class="text"/></g><g class="trace scatter trace63f7bf" style="stroke-miterlimit: 2; opacity: 1;"><g class="fills"/><g class="errorbars"/><g class="lines"><path class="js-line" d="M0,256.5L94.22,255.78L95.21,255.73L118.02,255.32L119.01,255.3L183.48,253.73L184.47,253.37L216.21,252.66L217.2,252.59L228.11,250.42L229.1,248.79L231.08,247.09L232.08,246.45L233.07,246.45L234.06,245.54L236.04,243.14L237.03,242.33L239.02,241.2L240.01,240.57L241,240.24L241.99,238.51L244.97,236.74L245.96,235.3L251.91,231.22L252.9,231.22L254.89,229.54L255.88,228.41L258.85,227.08L259.85,226.36L263.81,224.93L264.8,224.49L272.74,221.89L273.73,221.17L281.66,218.48L282.66,218.26L286.62,216.64L287.62,215.71L290.59,214.76L291.58,214.27L298.52,209.3L299.52,208.57L301.5,207.06" style="vector-effect: non-scaling-stroke; fill: none; stroke: rgb(255, 225, 25); stroke-opacity: 1; stroke-width: 2px; opacity: 1;"/></g><g class="points"/><g class="text"/></g><g class="trace scatter traced34bf9" style="stroke-miterlimit: 2; opacity: 1;"><g class="fills"/><g class="errorbars"/><g class="lines"><path class="js-line" d="M0,256.5L78.35,255.76L79.34,255.73L119.01,254.44L120,254.44L143.81,253.71L144.8,253.62L151.74,252.74L152.73,252.36L159.68,250.06L160.67,249.51L164.63,247.77L165.63,247.26L168.6,244.92L169.59,244.07L171.58,241.96L172.57,240.79L175.54,237.4L176.54,236.49L180.5,231.47L181.5,230.57L185.46,224.78L186.45,221.71L189.43,213.17L190.42,211.6L194.39,207.4L195.38,205.95L198.36,198.83L199.35,198.28L203.31,194.23L204.31,193.07L207.28,190.53L208.27,189.06L219.18,181.49L220.17,181.25L224.14,179.1L225.13,178.61L227.12,177.85L228.11,177.84L246.95,170.51L247.94,170.47L255.88,167.86L256.87,167.71L260.84,166.58L261.83,166.45L265.8,164.87L266.79,164.24L278.69,160.67L279.68,159.94L284.64,158.28L285.63,157.65L293.57,153.76L294.56,152.96L298.52,150.64L299.52,149.67L301.5,147.19" style="vector-effect: non-scaling-stroke; fill: none; stroke: rgb(67, 99, 216); stroke-opacity: 1; stroke-width: 2px; opacity: 1;"/></g><g class="points"/><g class="text"/></g><g class="trace scatter trace332683" style="stroke-miterlimit: 2; opacity: 1;"><g class="fills"/><g class="errorbars"/><g class="lines"><path class="js-line" d="M0,256.5L77.36,255.76L78.35,255.72L87.28,255.15L88.27,254.32L93.23,253.34L94.22,252.98L108.1,249.37L109.1,249.23L118.02,245.19L119.01,244.37L122.98,242.65L123.97,242.51L133.89,240.26L134.88,239.85L141.82,238.46L142.82,238.4L174.55,233.94L175.54,233.61L190.42,230.66L191.41,230.62L207.28,228.62L208.27,228.32L219.18,225.77L220.17,225.27L223.15,224.07L224.14,223.37L227.12,222.12L228.11,222.01L248.94,210L249.93,209.26L256.87,203.83L257.86,202.64L262.82,197.13L263.81,195.23L264.8,194.4L265.8,192.45L274.72,179.81L275.71,178.61L277.7,176.29L278.69,173.83L280.67,170.16L281.66,170.16L283.65,162.52L284.64,160.22L286.62,155.47L287.62,155.47L288.61,152.04L289.6,152.04L290.59,147.6L291.58,147.6L293.57,139.26L294.56,139.26L297.53,131.5L298.52,131.5L300.51,123.38L301.5,121.8" style="vector-effect: non-scaling-stroke; fill: none; stroke: rgb(245, 130, 49); stroke-opacity: 1; stroke-width: 2px; opacity: 1;"/></g><g class="points"/><g class="text"/></g><g class="trace scatter trace8e02b0" style="stroke-miterlimit: 2; opacity: 1;"><g class="fills"/><g class="errorbars"/><g class="lines"><path class="js-line" d="M0,256.5L119.01,255.77L120,255.71L163.64,253.98L164.63,253.93L225.13,248.48L226.13,248.17L236.04,244.49L237.03,243.94L241,242L241.99,241.7L249.93,238.59L250.92,238.45L262.82,234.58L263.81,234.43L268.77,232.6L269.76,232.04L272.74,230.19L273.73,229.12L275.71,226.78L276.71,225.71L281.66,221.06L282.66,219.86L285.63,215.69L286.62,214.23L289.6,210.62L290.59,209.73L291.58,209.11L292.57,207.28L294.56,205.83L295.55,203.76L299.52,195.66L300.51,194.34L301.5,192.87" style="vector-effect: non-scaling-stroke; fill: none; stroke: rgb(145, 30, 180); stroke-opacity: 1; stroke-width: 2px; opacity: 1;"/></g><g class="points"/><g class="text"/></g></g></g><g class="overplot"/><path class="xlines-above crisp" d="M0,0" style="fill: none;"/><path class="ylines-above crisp" d="M0,0" style="fill: none;"/><g class="overlines-above"/><g class="xaxislayer-above"><g class="xtick"><text text-anchor="middle" x="0" y="383" transform="translate(118.68,0)" style="font-family: 'Open Sans', verdana, arial, sans-serif; font-size: 12px; fill: rgb(242, 245, 250); fill-opacity: 1; white-space: pre;">Mar 2020</text></g><g class="xtick"><text text-anchor="middle" x="0" y="383" transform="translate(179.18,0)" style="font-family: 'Open Sans', verdana, arial, sans-serif; font-size: 12px; fill: rgb(242, 245, 250); fill-opacity: 1; white-space: pre;">May 2020</text></g><g class="xtick"><text text-anchor="middle" x="0" y="383" transform="translate(239.68,0)" style="font-family: 'Open Sans', verdana, arial, sans-serif; font-size: 12px; fill: rgb(242, 245, 250); fill-opacity: 1; white-space: pre;">Jul 2020</text></g><g class="xtick"><text text-anchor="middle" x="0" y="383" transform="translate(301.16999999999996,0)" style="font-family: 'Open Sans', verdana, arial, sans-serif; font-size: 12px; fill: rgb(242, 245, 250); fill-opacity: 1; white-space: pre;">Sep 2020</text></g><g class="xtick"><text text-anchor="middle" x="0" y="383" transform="translate(361.66,0)" style="font-family: 'Open Sans', verdana, arial, sans-serif; font-size: 12px; fill: rgb(242, 245, 250); fill-opacity: 1; white-space: pre;">Nov 2020</text></g></g><g class="yaxislayer-above"><g class="ytick"><text text-anchor="end" x="79" y="4.199999999999999" transform="translate(0,356.5)" style="font-family: 'Open Sans', verdana, arial, sans-serif; font-size: 12px; fill: rgb(242, 245, 250); fill-opacity: 1; white-space: pre;">0</text></g><g class="ytick"><text text-anchor="end" x="79" y="4.199999999999999" transform="translate(0,312.21000000000004)" style="font-family: 'Open Sans', verdana, arial, sans-serif; font-size: 12px; fill: rgb(242, 245, 250); fill-opacity: 1; white-space: pre;">5k</text></g><g class="ytick"><text text-anchor="end" x="79" y="4.199999999999999" transform="translate(0,267.93)" style="font-family: 'Open Sans', verdana, arial, sans-serif; font-size: 12px; fill: rgb(242, 245, 250); fill-opacity: 1; white-space: pre;">10k</text></g><g class="ytick"><text text-anchor="end" x="79" y="4.199999999999999" transform="translate(0,223.64)" style="font-family: 'Open Sans', verdana, arial, sans-serif; font-size: 12px; fill: rgb(242, 245, 250); fill-opacity: 1; white-space: pre;">15k</text></g><g class="ytick"><text text-anchor="end" x="79" y="4.199999999999999" transform="translate(0,179.35)" style="font-family: 'Open Sans', verdana, arial, sans-serif; font-size: 12px; fill: rgb(242, 245, 250); fill-opacity: 1; white-space: pre;">20k</text></g><g class="ytick"><text text-anchor="end" x="79" y="4.199999999999999" transform="translate(0,135.07)" style="font-family: 'Open Sans', verdana, arial, sans-serif; font-size: 12px; fill: rgb(242, 245, 250); fill-opacity: 1; white-space: pre;">25k</text></g></g><g class="overaxes-above"/></g><g class="subplot x2y2"><g class="layer-subplot"><g class="shapelayer"/><g class="imagelayer"/></g><g class="gridlayer"><g class="x2"><path class="x2grid crisp" transform="translate(487.18000000000006,0)" d="M0,100v270" style="stroke: rgb(40, 52, 66); stroke-opacity: 1; stroke-width: 1px;"/><path class="x2grid crisp" transform="translate(547.6800000000001,0)" d="M0,100v270" style="stroke: rgb(40, 52, 66); stroke-opacity: 1; stroke-width: 1px;"/><path class="x2grid crisp" transform="translate(608.1800000000001,0)" d="M0,100v270" style="stroke: rgb(40, 52, 66); stroke-opacity: 1; stroke-width: 1px;"/><path class="x2grid crisp" transform="translate(669.6700000000001,0)" d="M0,100v270" style="stroke: rgb(40, 52, 66); stroke-opacity: 1; stroke-width: 1px;"/><path class="x2grid crisp" transform="translate(730.1600000000001,0)" d="M0,100v270" style="stroke: rgb(40, 52, 66); stroke-opacity: 1; stroke-width: 1px;"/></g><g class="y2"><path class="y2grid crisp" transform="translate(0,307.8)" d="M448.50000000000006,0h301.49999999999994" style="stroke: rgb(40, 52, 66); stroke-opacity: 1; stroke-width: 1px;"/><path class="y2grid crisp" transform="translate(0,259.11)" d="M448.50000000000006,0h301.49999999999994" style="stroke: rgb(40, 52, 66); stroke-opacity: 1; stroke-width: 1px;"/><path class="y2grid crisp" transform="translate(0,210.41)" d="M448.50000000000006,0h301.49999999999994" style="stroke: rgb(40, 52, 66); stroke-opacity: 1; stroke-width: 1px;"/><path class="y2grid crisp" transform="translate(0,161.71)" d="M448.50000000000006,0h301.49999999999994" style="stroke: rgb(40, 52, 66); stroke-opacity: 1; stroke-width: 1px;"/><path class="y2grid crisp" transform="translate(0,113.01)" d="M448.50000000000006,0h301.49999999999994" style="stroke: rgb(40, 52, 66); stroke-opacity: 1; stroke-width: 1px;"/></g></g><g class="zerolinelayer"><path class="y2zl zl crisp" transform="translate(0,356.5)" d="M448.50000000000006,0h301.49999999999994" style="stroke: rgb(40, 52, 66); stroke-opacity: 1; stroke-width: 2px;"/></g><path class="xlines-below"/><path class="ylines-below"/><g class="overlines-below"/><g class="xaxislayer-below"/><g class="yaxislayer-below"/><g class="overaxes-below"/><g class="plot" transform="translate(448.50000000000006, 100)" clip-path="url('#clipe441abx2y2plot')"><g class="scatterlayer mlayer"><g class="trace scatter traced572b2" style="stroke-miterlimit: 2; opacity: 1;"><g class="fills"/><g class="errorbars"/><g class="lines"><path class="js-line" d="M0,256.5L60.5,256.01L61.49,255.53L62.48,255.53L63.47,254.55L64.47,254.55L65.46,253.58L67.44,253.09L68.43,253.09L70.42,252.12L71.41,250.66L74.38,250.17L75.38,249.2L77.36,248.22L78.35,246.76L81.33,245.3L82.32,245.3L83.31,238.97L84.3,237.51L85.29,237.51L86.28,236.53L91.24,234.1L92.24,233.13L93.23,231.18L94.22,231.18L95.21,231.18L96.2,229.72L100.17,225.82L101.16,225.82L102.15,225.82L103.14,224.36L105.13,223.87L106.12,222.41L108.1,221.92L109.1,221.92L113.06,216.57L114.05,216.08L116.04,216.08L117.03,214.62L121,211.7L121.99,211.21L125.96,210.72L126.95,210.24L129.92,209.75L130.91,209.26L132.9,209.26L133.89,207.32L137.86,206.83L138.85,205.37L140.83,203.42L141.82,203.42L142.82,201.96L143.81,201.96L144.8,201.96L145.79,200.01L148.77,199.04L149.76,199.04L152.73,197.09L153.73,194.17L156.7,191.73L157.69,191.73L161.66,188.32L162.65,188.32L165.63,188.32L166.62,187.35L168.6,184.91L169.59,184.43L171.58,184.43L172.57,182.48L174.55,181.51L175.54,178.1L177.53,177.61L178.52,177.61L182.49,169.82L183.48,169.82L185.46,169.82L186.45,168.36L189.43,167.87L190.42,164.46L192.4,164.46L193.4,163L195.38,162.51L196.37,162.51L197.36,162.51L198.36,156.67L200.34,156.67L201.33,153.26L203.31,149.85L204.31,149.85L207.28,147.42L208.27,145.47L210.26,143.04L211.25,143.04L213.23,142.55L214.22,139.63L217.2,136.22L218.19,136.22L219.18,131.35L220.17,131.35L221.17,131.35L222.16,123.07L223.15,112.84L224.14,112.36L225.13,110.89L226.13,110.89L228.11,110.41L229.1,108.95L230.09,108.95L231.08,100.67L232.08,100.67L233.07,94.82L234.06,94.34L235.05,83.14L236.04,83.14L237.03,78.75L239.02,74.37L240.01,74.37L241,74.37L241.99,66.58L245.96,58.79L246.95,58.79L247.94,58.79L248.94,57.81L249.93,55.87L250.92,51.97L251.91,51.97L252.9,49.54L254.89,49.54L255.88,48.56L256.87,46.61L257.86,46.61L269.76,46.13L270.75,44.67L271.75,34.44L272.74,34.44L274.72,32.01L275.71,32.01L278.69,31.03L279.68,31.03L284.64,31.03L285.63,30.06L287.62,25.67L288.61,25.67L290.59,25.67L291.58,21.29L292.57,19.83L293.57,19.83L295.55,17.88L296.54,17.88L298.52,15.93L299.52,15.45L300.51,13.5L301.5,13.5" style="vector-effect: non-scaling-stroke; fill: none; stroke: rgb(230, 25, 75); stroke-opacity: 1; stroke-width: 2px; opacity: 1;"/></g><g class="points"/><g class="text"/></g><g class="trace scatter trace78df69" style="stroke-miterlimit: 2; opacity: 1;"><g class="fills"/><g class="errorbars"/><g class="lines"><path class="js-line" d="M0,256.5L61.49,256.01L62.48,255.53L66.45,255.53L67.44,254.55L71.41,254.07L72.4,253.58L74.38,253.58L75.38,251.63L79.34,244.81L80.33,244.81L82.32,241.89L83.31,241.4L85.29,239.46L86.28,239.46L87.28,238.48L88.27,235.07L89.26,235.07L90.25,233.61L92.24,233.61L93.23,232.15L98.19,229.72L99.18,229.72L101.16,229.72L102.15,226.79L103.14,225.33L104.14,225.33L110.09,224.85L111.08,224.36L115.05,222.41L116.04,222.41L121.99,221.92L122.98,221.44L128.93,220.95L129.92,220.46L137.86,219.98L138.85,219.49L147.77,219L148.77,218.52L154.72,218.03L155.71,217.54L156.7,217.54L157.69,216.57L163.64,216.08L164.63,215.11L166.62,215.11L167.61,214.13L176.54,213.65L177.53,213.16L181.5,212.67L182.49,212.19L186.45,211.7L187.45,211.21L189.43,210.24L190.42,210.24L193.4,209.75L194.39,208.78L199.35,208.29L200.34,207.32L201.33,206.83L202.32,204.39L207.28,204.39L208.27,203.42L209.26,203.42L210.26,202.45L214.22,202.45L215.22,201.47L221.17,200.98L222.16,200.5L224.14,199.52L225.13,199.52L228.11,199.04L229.1,198.55L231.08,198.06L232.08,197.09L233.07,197.09L234.06,195.14L235.05,195.14L236.04,191.73L260.84,191.25L261.83,189.3L263.81,186.86L264.8,185.89L268.77,185.89L269.76,179.56L270.75,179.56L271.75,178.1L274.72,176.64L275.71,176.64L284.64,176.15L285.63,175.66L298.52,175.18L299.52,173.23L300.51,170.31L301.5,170.31" style="vector-effect: non-scaling-stroke; fill: none; stroke: rgb(60, 180, 75); stroke-opacity: 1; stroke-width: 2px; opacity: 1;"/></g><g class="points"/><g class="text"/></g><g class="trace scatter traceee6ae6" style="stroke-miterlimit: 2; opacity: 1;"><g class="fills"/><g class="errorbars"/><g class="lines"><path class="js-line" d="M0,256.5L106.12,256.01L107.11,255.53L110.09,255.53L111.08,254.55L113.06,254.07L114.05,254.07L155.71,253.58L156.7,253.09L173.56,252.6L174.55,252.12L202.32,251.63L203.31,251.14L259.85,251.14L260.84,250.17L264.8,249.68L265.8,249.2L278.69,248.71L279.68,248.22L282.66,247.25L283.65,247.25L287.62,245.79L288.61,245.79L294.56,245.3L295.55,244.81L298.52,244.33L299.52,242.86L300.51,240.43L301.5,240.43" style="vector-effect: non-scaling-stroke; fill: none; stroke: rgb(255, 225, 25); stroke-opacity: 1; stroke-width: 2px; opacity: 1;"/></g><g class="points"/><g class="text"/></g><g class="trace scatter tracef347c3" style="stroke-miterlimit: 2; opacity: 1;"><g class="fills"/><g class="errorbars"/><g class="lines"><path class="js-line" d="M0,256.5L72.4,256.5L73.39,255.53L91.24,255.04L92.24,254.55L125.96,254.07L126.95,253.58L128.93,253.09L129.92,253.09L146.78,252.6L147.77,251.63L160.67,251.63L161.66,250.66L167.61,250.66L168.6,249.2L172.57,249.2L173.56,248.22L175.54,247.25L176.54,243.35L181.5,237.99L182.49,235.56L184.47,232.64L185.46,232.15L186.45,232.15L187.45,229.72L188.44,229.23L189.43,227.28L191.41,226.79L192.4,225.33L193.4,219.49L194.39,219.49L196.37,214.62L197.36,213.16L199.35,213.16L200.34,206.83L202.32,203.91L203.31,202.45L209.26,197.58L210.26,197.58L212.24,187.84L213.23,186.86L215.22,180.53L216.21,176.15L221.17,165.44L222.16,163L225.13,153.26L226.13,150.34L228.11,146.93L229.1,144.5L230.09,142.06L231.08,142.06L232.08,141.09L233.07,138.17L236.04,131.35L237.03,130.86L240.01,129.89L241,129.89L242.99,128.43L243.98,126.96L246.95,116.25L247.94,116.25L249.93,115.28L250.92,112.84L255.88,107L256.87,105.05L259.85,102.13L260.84,99.69L263.81,95.8L264.8,93.85L268.77,93.36L269.76,91.42L270.75,91.42L271.75,90.44L273.73,90.93L274.72,88.49L276.71,87.52L277.7,87.52L280.67,87.03L281.66,86.06L284.64,86.06L285.63,85.09L286.62,83.62L287.62,80.7L289.6,80.22L290.59,80.22L293.57,80.22L294.56,79.24L296.54,79.24L297.53,77.29L299.52,75.35L300.51,74.37L301.5,74.37" style="vector-effect: non-scaling-stroke; fill: none; stroke: rgb(67, 99, 216); stroke-opacity: 1; stroke-width: 2px; opacity: 1;"/></g><g class="points"/><g class="text"/></g><g class="trace scatter tracee6aab9" style="stroke-miterlimit: 2; opacity: 1;"><g class="fills"/><g class="errorbars"/><g class="lines"><path class="js-line" d="M0,256.5L77.36,256.01L78.35,255.53L87.28,255.04L88.27,253.58L90.25,253.09L91.24,252.6L93.23,252.12L94.22,251.63L96.2,250.66L97.19,250.66L98.19,250.66L99.18,248.71L102.15,247.73L103.14,247.73L104.14,245.3L105.13,245.3L110.09,242.38L111.08,241.4L114.05,240.92L115.05,240.43L117.03,239.94L118.02,237.99L120,236.53L121,236.53L125.96,234.1L126.95,233.13L128.93,233.13L129.92,232.15L131.91,229.72L132.9,229.72L134.88,227.28L135.87,227.28L138.85,226.79L139.84,226.31L146.78,225.82L147.77,225.33L155.71,224.85L156.7,224.36L164.63,224.36L165.63,222.9L167.61,222.41L168.6,222.41L170.59,221.44L171.58,221.44L173.56,220.95L174.55,220.95L179.51,220.46L180.5,219.98L231.08,219.49L232.08,219L264.8,218.52L265.8,218.03L268.77,218.03L269.76,217.06L271.75,216.57L272.74,216.08L277.7,215.59L278.69,215.11L280.67,215.11L281.66,214.13L282.66,214.13L283.65,213.16L285.63,212.19L286.62,210.72L287.62,210.24L288.61,208.29L289.6,208.29L290.59,207.32L294.56,205.37L295.55,205.37L296.54,205.37L297.53,203.42L298.52,201.96L299.52,201.96L301.5,200.5" style="vector-effect: non-scaling-stroke; fill: none; stroke: rgb(245, 130, 49); stroke-opacity: 1; stroke-width: 2px; opacity: 1;"/></g><g class="points"/><g class="text"/></g><g class="trace scatter traceee4c26" style="stroke-miterlimit: 2; opacity: 1;"><g class="fills"/><g class="errorbars"/><g class="lines"><path class="js-line" d="M0,256.5L175.54,256.01L176.54,255.53L193.4,255.04L194.39,254.55L210.26,254.55L211.25,253.58L255.88,253.09L256.87,252.6L268.77,252.12L269.76,251.14L271.75,250.66L272.74,250.66L277.7,250.66L278.69,248.71L280.67,248.22L281.66,246.27L282.66,246.27L283.65,244.33L284.64,242.86L285.63,242.86L287.62,241.4L288.61,241.4L289.6,241.4L290.59,239.46L293.57,239.46L294.56,237.02L295.55,237.02L296.54,236.05L298.52,234.1L299.52,233.13L301.5,232.15" style="vector-effect: non-scaling-stroke; fill: none; stroke: rgb(145, 30, 180); stroke-opacity: 1; stroke-width: 2px; opacity: 1;"/></g><g class="points"/><g class="text"/></g></g></g><g class="overplot"/><path class="xlines-above crisp" d="M0,0" style="fill: none;"/><path class="ylines-above crisp" d="M0,0" style="fill: none;"/><g class="overlines-above"/><g class="xaxislayer-above"><g class="x2tick"><text text-anchor="middle" x="0" y="383" transform="translate(487.18000000000006,0)" style="font-family: 'Open Sans', verdana, arial, sans-serif; font-size: 12px; fill: rgb(242, 245, 250); fill-opacity: 1; white-space: pre;">Mar 2020</text></g><g class="x2tick"><text text-anchor="middle" x="0" y="383" transform="translate(547.6800000000001,0)" style="font-family: 'Open Sans', verdana, arial, sans-serif; font-size: 12px; fill: rgb(242, 245, 250); fill-opacity: 1; white-space: pre;">May 2020</text></g><g class="x2tick"><text text-anchor="middle" x="0" y="383" transform="translate(608.1800000000001,0)" style="font-family: 'Open Sans', verdana, arial, sans-serif; font-size: 12px; fill: rgb(242, 245, 250); fill-opacity: 1; white-space: pre;">Jul 2020</text></g><g class="x2tick"><text text-anchor="middle" x="0" y="383" transform="translate(669.6700000000001,0)" style="font-family: 'Open Sans', verdana, arial, sans-serif; font-size: 12px; fill: rgb(242, 245, 250); fill-opacity: 1; white-space: pre;">Sep 2020</text></g><g class="x2tick"><text text-anchor="middle" x="0" y="383" transform="translate(730.1600000000001,0)" style="font-family: 'Open Sans', verdana, arial, sans-serif; font-size: 12px; fill: rgb(242, 245, 250); fill-opacity: 1; white-space: pre;">Nov 2020</text></g></g><g class="yaxislayer-above"><g class="y2tick"><text text-anchor="end" x="447.50000000000006" y="4.199999999999999" transform="translate(0,356.5)" style="font-family: 'Open Sans', verdana, arial, sans-serif; font-size: 12px; fill: rgb(242, 245, 250); fill-opacity: 1; white-space: pre;">0</text></g><g class="y2tick"><text text-anchor="end" x="447.50000000000006" y="4.199999999999999" transform="translate(0,307.8)" style="font-family: 'Open Sans', verdana, arial, sans-serif; font-size: 12px; fill: rgb(242, 245, 250); fill-opacity: 1; white-space: pre;">100</text></g><g class="y2tick"><text text-anchor="end" x="447.50000000000006" y="4.199999999999999" transform="translate(0,259.11)" style="font-family: 'Open Sans', verdana, arial, sans-serif; font-size: 12px; fill: rgb(242, 245, 250); fill-opacity: 1; white-space: pre;">200</text></g><g class="y2tick"><text text-anchor="end" x="447.50000000000006" y="4.199999999999999" transform="translate(0,210.41)" style="font-family: 'Open Sans', verdana, arial, sans-serif; font-size: 12px; fill: rgb(242, 245, 250); fill-opacity: 1; white-space: pre;">300</text></g><g class="y2tick"><text text-anchor="end" x="447.50000000000006" y="4.199999999999999" transform="translate(0,161.71)" style="font-family: 'Open Sans', verdana, arial, sans-serif; font-size: 12px; fill: rgb(242, 245, 250); fill-opacity: 1; white-space: pre;">400</text></g><g class="y2tick"><text text-anchor="end" x="447.50000000000006" y="4.199999999999999" transform="translate(0,113.01)" style="font-family: 'Open Sans', verdana, arial, sans-serif; font-size: 12px; fill: rgb(242, 245, 250); fill-opacity: 1; white-space: pre;">500</text></g></g><g class="overaxes-above"/></g></g><g class="polarlayer"/><g class="ternarylayer"/><g class="geolayer"/><g class="funnelarealayer"/><g class="pielayer"/><g class="treemaplayer"/><g class="sunburstlayer"/><g class="glimages"/><defs id="topdefs-e441ab"><g class="clips"/><clipPath id="legende441ab"><rect width="125" height="124" x="0" y="0"/></clipPath></defs><g class="layer-above"><g class="imagelayer"/><g class="shapelayer"/></g><g class="infolayer"><g class="legend" pointer-events="all" transform="translate(763.4, 100)"><rect class="bg" shape-rendering="crispEdges" width="125" height="124" x="0" y="0" style="stroke: rgb(68, 68, 68); stroke-opacity: 1; fill: rgb(17, 17, 17); fill-opacity: 1; stroke-width: 0px;"/><g class="scrollbox" transform="translate(0, 0)" clip-path="url('#legende441ab')"><g class="groups"><g class="traces" transform="translate(0, 14.5)" style="opacity: 1;"><text class="legendtext user-select-none" text-anchor="start" x="40" y="4.680000000000001" style="font-family: 'Open Sans', verdana, arial, sans-serif; font-size: 12px; fill: rgb(242, 245, 250); fill-opacity: 1; white-space: pre;">Alameda, CA</text><g class="layers" style="opacity: 1;"><g class="legendfill"/><g class="legendlines"><path class="js-line" d="M5,0h30" style="fill: none; stroke: rgb(230, 25, 75); stroke-opacity: 1; stroke-width: 2px;"/></g><g class="legendsymbols"><g class="legendpoints"/></g></g><rect class="legendtoggle" pointer-events="all" x="0" y="-9.5" width="119.9375" height="19" style="cursor: pointer; fill: rgb(0, 0, 0); fill-opacity: 0;"/></g><g class="traces" transform="translate(0, 33.5)" style="opacity: 1;"><text class="legendtext user-select-none" text-anchor="start" x="40" y="4.680000000000001" style="font-family: 'Open Sans', verdana, arial, sans-serif; font-size: 12px; fill: rgb(242, 245, 250); fill-opacity: 1; white-space: pre;">Wyandotte, KS</text><g class="layers" style="opacity: 1;"><g class="legendfill"/><g class="legendlines"><path class="js-line" d="M5,0h30" style="fill: none; stroke: rgb(60, 180, 75); stroke-opacity: 1; stroke-width: 2px;"/></g><g class="legendsymbols"><g class="legendpoints"/></g></g><rect class="legendtoggle" pointer-events="all" x="0" y="-9.5" width="119.9375" height="19" style="cursor: pointer; fill: rgb(0, 0, 0); fill-opacity: 0;"/></g><g class="traces" transform="translate(0, 52.5)" style="opacity: 1;"><text class="legendtext user-select-none" text-anchor="start" x="40" y="4.680000000000001" style="font-family: 'Open Sans', verdana, arial, sans-serif; font-size: 12px; fill: rgb(242, 245, 250); fill-opacity: 1; white-space: pre;">Centre, PA</text><g class="layers" style="opacity: 1;"><g class="legendfill"/><g class="legendlines"><path class="js-line" d="M5,0h30" style="fill: none; stroke: rgb(255, 225, 25); stroke-opacity: 1; stroke-width: 2px;"/></g><g class="legendsymbols"><g class="legendpoints"/></g></g><rect class="legendtoggle" pointer-events="all" x="0" y="-9.5" width="119.9375" height="19" style="cursor: pointer; fill: rgb(0, 0, 0); fill-opacity: 0;"/></g><g class="traces" transform="translate(0, 71.5)" style="opacity: 1;"><text class="legendtext user-select-none" text-anchor="start" x="40" y="4.680000000000001" style="font-family: 'Open Sans', verdana, arial, sans-serif; font-size: 12px; fill: rgb(242, 245, 250); fill-opacity: 1; white-space: pre;">Marion, FL</text><g class="layers" style="opacity: 1;"><g class="legendfill"/><g class="legendlines"><path class="js-line" d="M5,0h30" style="fill: none; stroke: rgb(67, 99, 216); stroke-opacity: 1; stroke-width: 2px;"/></g><g class="legendsymbols"><g class="legendpoints"/></g></g><rect class="legendtoggle" pointer-events="all" x="0" y="-9.5" width="119.9375" height="19" style="cursor: pointer; fill: rgb(0, 0, 0); fill-opacity: 0;"/></g><g class="traces" transform="translate(0, 90.5)" style="opacity: 1;"><text class="legendtext user-select-none" text-anchor="start" x="40" y="4.680000000000001" style="font-family: 'Open Sans', verdana, arial, sans-serif; font-size: 12px; fill: rgb(242, 245, 250); fill-opacity: 1; white-space: pre;">Cass, ND</text><g class="layers" style="opacity: 1;"><g class="legendfill"/><g class="legendlines"><path class="js-line" d="M5,0h30" style="fill: none; stroke: rgb(245, 130, 49); stroke-opacity: 1; stroke-width: 2px;"/></g><g class="legendsymbols"><g class="legendpoints"/></g></g><rect class="legendtoggle" pointer-events="all" x="0" y="-9.5" width="119.9375" height="19" style="cursor: pointer; fill: rgb(0, 0, 0); fill-opacity: 0;"/></g><g class="traces" transform="translate(0, 109.5)" style="opacity: 1;"><text class="legendtext user-select-none" text-anchor="start" x="40" y="4.680000000000001" style="font-family: 'Open Sans', verdana, arial, sans-serif; font-size: 12px; fill: rgb(242, 245, 250); fill-opacity: 1; white-space: pre;">Eau Claire, WI</text><g class="layers" style="opacity: 1;"><g class="legendfill"/><g class="legendlines"><path class="js-line" d="M5,0h30" style="fill: none; stroke: rgb(145, 30, 180); stroke-opacity: 1; stroke-width: 2px;"/></g><g class="legendsymbols"><g class="legendpoints"/></g></g><rect class="legendtoggle" pointer-events="all" x="0" y="-9.5" width="119.9375" height="19" style="cursor: pointer; fill: rgb(0, 0, 0); fill-opacity: 0;"/></g></g></g><rect class="scrollbar" rx="20" ry="3" width="0" height="0" x="0" y="0" style="fill: rgb(128, 139, 164); fill-opacity: 1;"/></g><g class="g-gtitle"/><g class="g-xtitle"><text class="xtitle" x="230.75" y="410.8" text-anchor="middle" style="font-family: 'Open Sans', verdana, arial, sans-serif; font-size: 14px; fill: rgb(242, 245, 250); opacity: 1; font-weight: normal; white-space: pre;">Date</text></g><g class="g-x2title"><text class="x2title" x="599.25" y="410.8" text-anchor="middle" style="font-family: 'Open Sans', verdana, arial, sans-serif; font-size: 14px; fill: rgb(242, 245, 250); opacity: 1; font-weight: normal; white-space: pre;">Date</text></g><g class="g-ytitle"><text class="ytitle" transform="rotate(-90,34.840625,235)" x="34.840625" y="235" text-anchor="middle" style="font-family: 'Open Sans', verdana, arial, sans-serif; font-size: 14px; fill: rgb(242, 245, 250); opacity: 1; font-weight: normal; white-space: pre;">Cases</text></g><g class="g-y2title"><text class="y2title" transform="rotate(-90,402.66875,235)" x="402.66875" y="235" text-anchor="middle" style="font-family: 'Open Sans', verdana, arial, sans-serif; font-size: 14px; fill: rgb(242, 245, 250); opacity: 1; font-weight: normal; white-space: pre;">Deaths</text></g><g class="annotation" data-index="0" style="opacity: 1;"><g class="annotation-text-g" transform="rotate(0,230.75,89.5)"><g class="cursor-pointer" transform="translate(206, 79)"><rect class="bg" x="0.5" y="0.5" width="48" height="20" style="stroke-width: 1px; stroke: rgb(0, 0, 0); stroke-opacity: 0; fill: rgb(0, 0, 0); fill-opacity: 0;"/><text class="annotation-text" text-anchor="middle" x="24.6875" y="16" style="font-family: 'Open Sans', verdana, arial, sans-serif; font-size: 16px; fill: rgb(242, 245, 250); fill-opacity: 1; white-space: pre;">Cases</text></g></g></g><g class="annotation" data-index="1" style="opacity: 1;"><g class="annotation-text-g" transform="rotate(0,599.25,89.5)"><g class="cursor-pointer" transform="translate(572, 79)"><rect class="bg" x="0.5" y="0.5" width="54" height="20" style="stroke-width: 1px; stroke: rgb(0, 0, 0); stroke-opacity: 0; fill: rgb(0, 0, 0); fill-opacity: 0;"/><text class="annotation-text" text-anchor="middle" x="27.359375" y="16" style="font-family: 'Open Sans', verdana, arial, sans-serif; font-size: 16px; fill: rgb(242, 245, 250); fill-opacity: 1; white-space: pre;">Deaths</text></g></g></g></g></svg>