<svg class="main-svg" xmlns="http://www.w3.org/2000/svg" xmlns:xlink="http://www.w3.org/1999/xlink" width="900" height="450" style="" viewBox="0 0 900 450"><rect x="0" y="0" width="900" height="450" style="fill: rgb(17, 17, 17); fill-opacity: 1;"/><defs id="defs-6d4329"><g class="clips"><clipPath id="clip6d4329xyplot" class="plotclip"><rect width="294.75" height="270"/></clipPath><clipPath id="clip6d4329x2y2plot" class="plotclip"><rect width="294.74999999999994" height="270"/></clipPath><clipPath class="axesclip" id="clip6d4329x"><rect x="80" y="0" width="294.75" height="450"/></clipPath><clipPath class="axesclip" id="clip6d4329y"><rect x="0" y="100" width="900" height="270"/></clipPath><clipPath class="axesclip" id="clip6d4329xy"><rect x="80" y="100" width="294.75" height="270"/></clipPath><clipPath class="axesclip" id="clip6d4329y2"><rect x="0" y="100" width="900" height="270"/></clipPath><clipPath class="axesclip" id="clip6d4329xy2"><rect x="80" y="100" width="294.75" height="270"/></clipPath><clipPath class="axesclip" id="clip6d4329x2"><rect x="440.25000000000006" y="0" width="294.74999999999994" height="450"/></clipPath><clipPath class="axesclip" id="clip6d4329x2y"><rect x="440.25000000000006" y="100" width="294.74999999999994" height="270"/></clipPath><clipPath class="axesclip" id="clip6d4329x2y2"><rect x="440.25000000000006" y="100" width="294.74999999999994" height="270"/></clipPath></g><g class="gradients"/></defs><g class="bglayer"/><g class="layer-below"><g class="imagelayer"/><g class="shapelayer"/></g><g class="cartesianlayer"><g class="subplot xy"><g class="layer-subplot"><g class="shapelayer"/><g class="imagelayer"/></g><g class="gridlayer"><g class="x"><path class="xgrid crisp" transform="translate(182.05,0)" d="M0,100v270" style="stroke: rgb(40, 52, 66); stroke-opacity: 1; stroke-width: 1px;"/><path class="xgrid crisp" transform="translate(298.69,0)" d="M0,100v270" style="stroke: rgb(40, 52, 66); stroke-opacity: 1; stroke-width: 1px;"/></g><g class="y"><path class="ygrid crisp" transform="translate(0,300.38)" d="M80,0h294.75" style="stroke: rgb(40, 52, 66); stroke-opacity: 1; stroke-width: 1px;"/><path class="ygrid crisp" transform="translate(0,244.26)" d="M80,0h294.75" style="stroke: rgb(40, 52, 66); stroke-opacity: 1; stroke-width: 1px;"/><path class="ygrid crisp" transform="translate(0,188.14)" d="M80,0h294.75" style="stroke: rgb(40, 52, 66); stroke-opacity: 1; stroke-width: 1px;"/><path class="ygrid crisp" transform="translate(0,132.02)" d="M80,0h294.75" style="stroke: rgb(40, 52, 66); stroke-opacity: 1; stroke-width: 1px;"/></g></g><g class="zerolinelayer"><path class="yzl zl crisp" transform="translate(0,356.5)" d="M80,0h294.75" style="stroke: rgb(40, 52, 66); stroke-opacity: 1; stroke-width: 2px;"/></g><path class="xlines-below"/><path class="ylines-below"/><g class="overlines-below"/><g class="xaxislayer-below"/><g class="yaxislayer-below"/><g class="overaxes-below"/><g class="plot" transform="translate(80, 100)" clip-path="url('#clip6d4329xyplot')"><g class="scatterlayer mlayer"><g class="trace scatter trace3f7b62" style="stroke-miterlimit: 2; opacity: 1;"><g class="fills"/><g class="errorbars"/><g class="lines"><path class="js-line" d="M0,256.5L41.84,255.78L42.47,255.74L48.17,254.72L48.81,254.61L76.06,249.18L76.7,248.9L89.38,244.94L90.01,244.67L96.35,242.45L96.98,242.08L107.76,235.5L108.39,234.82L109.66,234.12L110.29,233.15L116,228.81L116.63,227.84L119.8,226.27L120.44,225.27L121.07,225.27L121.7,224.28L122.34,224.16L122.97,223.26L126.14,222.45L126.77,219.46L127.41,219.41L128.04,218.16L129.94,215.65L130.58,215.65L131.85,214.05L132.48,213.18L135.01,209.66L135.65,209.58L136.28,209.55L136.92,208.03L140.72,205.47L141.35,204.74L143.89,202.82L144.52,202.82L147.06,201.19L147.69,200.89L151.5,199.93L152.13,199.36L156.57,197.5L157.2,197.5L159.74,196.5L160.37,196.29L170.51,193.48L171.15,192.98L184.46,186.77L185.09,186.35L189.53,183.41L190.16,182.25L195.87,177.3L196.5,175.53L199.67,171.4L200.3,169.57L201.57,167.44L202.2,165.18L202.84,164.96L203.47,161.84L206.64,154.97L207.28,149.26L209.18,143.53L209.81,143.47L211.71,133.03L212.35,130.92L216.15,116.87L216.78,115.07L218.69,109.26L219.32,106.33L221.85,98.16L222.49,96.33L228.19,72.95L228.83,69.67L231.36,63.49L232,62.01L234.53,56.56L235.17,54.89L240.24,46.14L240.87,44.87L248.48,35.52L249.11,35.13L253.55,31.83L254.18,31.52L255.45,30.44L256.08,28.57L263.06,25.5L263.69,25.3L276.37,22L277,21.43L278.9,20.78L279.54,20.44L280.8,20.2L281.44,19.67L282.07,19.67L282.71,18.68L286.51,16.97L287.14,16.65L294.75,13.5" style="vector-effect: non-scaling-stroke; fill: none; stroke: rgb(230, 25, 75); stroke-opacity: 1; stroke-width: 2px; opacity: 1;"/></g><g class="points"/><g class="text"/></g><g class="trace scatter trace7cc197" style="stroke-miterlimit: 2; opacity: 1;"><g class="fills"/><g class="errorbars"/><g class="lines"><path class="js-line" d="M0,256.5L44.37,255.82L45,255.64L47.54,255.09L48.17,254.95L83.04,247.32L83.67,247.07L90.64,244.4L91.28,243.98L94.45,242.5L95.08,241.67L98.25,237.1L98.88,236.59L99.52,236.59L100.15,234.54L103.95,225.61L104.59,225.27L109.03,215.47L109.66,215.01L112.2,208.85L112.83,208.2L115.36,204.89L116,204.04L128.68,191.26L129.31,190.78L131.21,189.13L131.85,188.75L135.65,184.56L136.28,184.29L139.45,182.68L140.09,182.66L145.16,180.83L145.79,180.63L150.86,178.04L151.5,177.64L162.27,173.02L162.9,172.89L169.88,170.39L170.51,170.09L177.48,167.34L178.12,167.13L184.46,163.86L185.09,163.43L193.33,155L193.96,154.26L195.87,152.01L196.5,152.01L198.4,149.75L199.04,148.82L202.84,143.68L203.47,142.91L209.81,133.5L210.45,133.5L211.08,133.5L211.71,128.85L213.61,124.41L214.25,124.41L214.88,124.41L215.52,121.23L216.78,119.15L217.42,117.19L223.12,105.16L223.76,101.03L226.29,97.05L226.93,92.95L228.83,87.08L229.46,85.95L233.9,74.22L234.53,72.69L237.7,64.88L238.34,63.64L241.5,56.08L242.14,55.53L243.41,53.69L244.04,52.72L245.94,50.16L246.58,50.16L251.01,50.16L251.65,49.4L254.82,45.04L255.45,44.32L256.72,43.53L257.35,43L259.89,41.83L260.52,41.46L285.88,29.21L286.51,28.83L292.21,26.68L292.85,26.25L294.75,25.46" style="vector-effect: non-scaling-stroke; fill: none; stroke: rgb(60, 180, 75); stroke-opacity: 1; stroke-width: 2px; opacity: 1;"/></g><g class="points"/><g class="text"/></g><g class="trace scatter trace451557" style="stroke-miterlimit: 2; opacity: 1;"><g class="fills"/><g class="errorbars"/><g class="lines"><path class="js-line" d="M0,256.5L53.88,255.78L54.51,255.68L86.21,253.38L86.84,253.36L119.8,252.61L120.44,252.58L157.83,251.33L158.47,251L166.71,249.29L167.34,248.54L178.75,245.83L179.39,245.83L181.92,245.09L182.55,244.88L191.43,241.75L192.06,241.48L193.96,240.81L194.6,240.65L199.67,238.96L200.3,238.1L202.2,237.85L202.84,236.68L206.64,234.94L207.28,233.46L214.25,229.44L214.88,229.44L215.52,229.44L216.15,227.61L218.69,226.71L219.32,225.69L219.95,225.69L220.59,224.4L223.76,221.61L224.39,221.61L226.29,217.53L226.93,217.22L228.19,216.75L228.83,216.75L230.1,214.17L230.73,213.57L232.63,212.49L233.26,212.49L234.53,210.7L235.17,210.15L238.34,208.44L238.97,207.87L242.14,207.15L242.77,206.14L261.79,201.44L262.42,201.37L266.86,200.5L267.49,200.35L270.03,199.85L270.66,199.56L285.88,196.36L286.51,196.36L290.31,195.74L290.95,195.74L293.48,195.16L294.12,195.03L294.75,195.03" style="vector-effect: non-scaling-stroke; fill: none; stroke: rgb(255, 225, 25); stroke-opacity: 1; stroke-width: 2px; opacity: 1;"/></g><g class="points"/><g class="text"/></g><g class="trace scatter trace4d1426" style="stroke-miterlimit: 2; opacity: 1;"><g class="fills"/><g class="errorbars"/><g class="lines"><path class="js-line" d="M0,256.5L44.37,255.8L45,255.73L60.85,254.2L61.49,254.14L92.55,250.82L93.18,250.69L99.52,248.96L100.15,248.64L107.12,244.27L107.76,243.99L117.27,237.5L117.9,237.05L119.17,236.01L119.8,234.85L121.07,234.98L121.7,234.6L127.41,230.11L128.04,229.04L132.48,223.76L133.11,223.15L141.99,216.91L142.62,216.62L145.16,215.22L145.79,215.22L148.96,213.43L149.59,213.22L155.93,210.69L156.57,210.29L158.47,209.64L159.1,209.38L165.44,207.27L166.07,207.05L169.88,206L170.51,205.84L176.22,203.85L176.85,203.85L186.99,198.78L187.63,197.95L194.6,191.55L195.23,190.89L198.4,187.82L199.04,186.59L202.2,181.57L202.84,179.46L204.11,176.84L204.74,176.57L207.91,168.07L208.54,165.23L212.35,157.71L212.98,156.38L218.69,142.83L219.32,140.3L224.39,126.29L225.02,124.31L231.36,107.48L232,106.12L237.07,98.48L237.7,97.23L242.77,91.41L243.41,90.84L247.21,87.38L247.84,86.9L254.18,82.78L254.82,82.21L255.45,81.84L256.08,79.7L264.96,76.25L265.59,76.09L273.83,74.46L274.47,74.46L275.73,73.81L276.37,73.62L278.9,72.83L279.54,72.83L283.97,70.45L284.61,70.19L294.75,66.58" style="vector-effect: non-scaling-stroke; fill: none; stroke: rgb(67, 99, 216); stroke-opacity: 1; stroke-width: 2px; opacity: 1;"/></g><g class="points"/><g class="text"/></g><g class="trace scatter trace913fdb" style="stroke-miterlimit: 2; opacity: 1;"><g class="fills"/><g class="errorbars"/><g class="lines"><path class="js-line" d="M0,256.5L116.63,255.77L117.27,255.74L127.41,254.84L128.04,254.79L131.21,254.54L131.85,254.47L141.99,253.3L142.62,253.25L148.33,252.66L148.96,252.62L164.17,250.95L164.81,250.85L182.55,247.18L183.19,246.74L190.16,242.48L190.8,241.89L200.3,235.69L200.94,235.33L206.01,232.68L206.64,232.47L210.45,230.57L211.08,230.36L232.63,222.13L233.26,222L247.84,219.46L248.48,219.37L275.73,215.61L276.37,215.4L283.34,212.99L283.97,212.68L290.95,210.68L291.58,210.64L294.75,210.01" style="vector-effect: non-scaling-stroke; fill: none; stroke: rgb(245, 130, 49); stroke-opacity: 1; stroke-width: 2px; opacity: 1;"/></g><g class="points"/><g class="text"/></g><g class="trace scatter tracec715c9" style="stroke-miterlimit: 2; opacity: 1;"><g class="fills"/><g class="errorbars"/><g class="lines"><path class="js-line" d="M0,256.5L47.54,255.8L48.17,255.73L90.01,252.45L90.64,252.22L93.81,251.04L94.45,250.69L104.59,245.18L105.22,244.98L108.39,242.46L109.03,242.19L117.9,235.3L118.53,234.3L121.7,231.29L122.34,231.1L123.6,230.07L124.24,229.16L128.04,226.34L128.68,225.92L133.75,223.19L134.38,222.56L139.45,219.73L140.09,219.53L141.99,218.46L142.62,217.94L147.69,214.72L148.33,214.28L155.93,210.24L156.57,209.69L163.54,205.48L164.17,205.14L182.55,190.12L183.19,189.21L183.82,189.21L184.46,188.14L188.26,182.34L188.89,180.61L195.23,168.58L195.87,168.58L196.5,167.38L197.13,164.01L200.3,159.64L200.94,157.61L203.47,152.26L204.11,151.39L210.45,137.07L211.08,133.96L218.05,121.47L218.69,121.47L221.85,112.5L222.49,110.81L228.83,93.4L229.46,92.43L235.17,81.7L235.8,80.46L242.14,68.36L242.77,67.8L251.65,59.7L252.28,59.57L261.15,55.48L261.79,55.24L267.49,54.46L268.13,54.46L269.4,54.46L270.03,53.41L274.47,53.41L275.1,52.55L278.27,52.55L278.9,51.63L283.34,51.63L283.97,50.7L287.78,50.7L288.41,49.5L292.21,49.5L292.85,48.72L294.75,48.72" style="vector-effect: non-scaling-stroke; fill: none; stroke: rgb(145, 30, 180); stroke-opacity: 1; stroke-width: 2px; opacity: 1;"/></g><g class="points"/><g class="text"/></g></g></g><g class="overplot"/><path class="xlines-above crisp" d="M0,0" style="fill: none;"/><path class="ylines-above crisp" d="M0,0" style="fill: none;"/><g class="overlines-above"/><g class="xaxislayer-above"><g class="xtick"><text text-anchor="middle" x="0" y="383" transform="translate(182.05,0)" style="font-family: 'Open Sans', verdana, arial, sans-serif; font-size: 12px; fill: rgb(242, 245, 250); fill-opacity: 1; white-space: pre;">Jul 2020</text></g><g class="xtick"><text text-anchor="middle" x="0" y="383" transform="translate(298.69,0)" style="font-family: 'Open Sans', verdana, arial, sans-serif; font-size: 12px; fill: rgb(242, 245, 250); fill-opacity: 1; white-space: pre;">Jan 2021</text></g></g><g class="yaxislayer-above"><g class="ytick"><text text-anchor="end" x="79" y="4.199999999999999" transform="translate(0,356.5)" style="font-family: 'Open Sans', verdana, arial, sans-serif; font-size: 12px; fill: rgb(242, 245, 250); fill-opacity: 1; white-space: pre;">0</text></g><g class="ytick"><text text-anchor="end" x="79" y="4.199999999999999" transform="translate(0,300.38)" style="font-family: 'Open Sans', verdana, arial, sans-serif; font-size: 12px; fill: rgb(242, 245, 250); fill-opacity: 1; white-space: pre;">20k</text></g><g class="ytick"><text text-anchor="end" x="79" y="4.199999999999999" transform="translate(0,244.26)" style="font-family: 'Open Sans', verdana, arial, sans-serif; font-size: 12px; fill: rgb(242, 245, 250); fill-opacity: 1; white-space: pre;">40k</text></g><g class="ytick"><text text-anchor="end" x="79" y="4.199999999999999" transform="translate(0,188.14)" style="font-family: 'Open Sans', verdana, arial, sans-serif; font-size: 12px; fill: rgb(242, 245, 250); fill-opacity: 1; white-space: pre;">60k</text></g><g class="ytick"><text text-anchor="end" x="79" y="4.199999999999999" transform="translate(0,132.02)" style="font-family: 'Open Sans', verdana, arial, sans-serif; font-size: 12px; fill: rgb(242, 245, 250); fill-opacity: 1; white-space: pre;">80k</text></g></g><g class="overaxes-above"/></g><g class="subplot x2y2"><g class="layer-subplot"><g class="shapelayer"/><g class="imagelayer"/></g><g class="gridlayer"><g class="x2"><path class="x2grid crisp" transform="translate(542.3000000000001,0)" d="M0,100v270" style="stroke: rgb(40, 52, 66); stroke-opacity: 1; stroke-width: 1px;"/><path class="x2grid crisp" transform="translate(658.94,0)" d="M0,100v270" style="stroke: rgb(40, 52, 66); stroke-opacity: 1; stroke-width: 1px;"/></g><g class="y2"><path class="y2grid crisp" transform="translate(0,318.16999999999996)" d="M440.25000000000006,0h294.74999999999994" style="stroke: rgb(40, 52, 66); stroke-opacity: 1; stroke-width: 1px;"/><path class="y2grid crisp" transform="translate(0,279.84000000000003)" d="M440.25000000000006,0h294.74999999999994" style="stroke: rgb(40, 52, 66); stroke-opacity: 1; stroke-width: 1px;"/><path class="y2grid crisp" transform="translate(0,241.52)" d="M440.25000000000006,0h294.74999999999994" style="stroke: rgb(40, 52, 66); stroke-opacity: 1; stroke-width: 1px;"/><path class="y2grid crisp" transform="translate(0,203.19)" d="M440.25000000000006,0h294.74999999999994" style="stroke: rgb(40, 52, 66); stroke-opacity: 1; stroke-width: 1px;"/><path class="y2grid crisp" transform="translate(0,164.86)" d="M440.25000000000006,0h294.74999999999994" style="stroke: rgb(40, 52, 66); stroke-opacity: 1; stroke-width: 1px;"/><path class="y2grid crisp" transform="translate(0,126.53)" d="M440.25000000000006,0h294.74999999999994" style="stroke: rgb(40, 52, 66); stroke-opacity: 1; stroke-width: 1px;"/></g></g><g class="zerolinelayer"><path class="y2zl zl crisp" transform="translate(0,356.5)" d="M440.25000000000006,0h294.74999999999994" style="stroke: rgb(40, 52, 66); stroke-opacity: 1; stroke-width: 2px;"/></g><path class="xlines-below"/><path class="ylines-below"/><g class="overlines-below"/><g class="xaxislayer-below"/><g class="yaxislayer-below"/><g class="overaxes-below"/><g class="plot" transform="translate(440.25000000000006, 100)" clip-path="url('#clip6d4329x2y2plot')"><g class="scatterlayer mlayer"><g class="trace scatter trace608a65" style="stroke-miterlimit: 2; opacity: 1;"><g class="fills"/><g class="errorbars"/><g class="lines"><path class="js-line" d="M0,256.5L39.93,256.12L40.57,255.73L43.74,255.16L44.37,254.97L52.61,252.09L53.25,249.6L55.15,248.64L55.78,248.45L57.68,247.88L58.32,247.68L64.02,244.43L64.65,244.43L66.56,243.85L67.19,243.66L69.09,242.89L69.73,242.89L72.9,240.59L73.53,240.59L74.8,240.02L75.43,239.64L77.97,238.68L78.6,238.68L83.04,238.1L83.67,237.91L84.94,237.91L85.57,237.14L88.11,236.95L88.74,236.38L91.28,235.04L91.91,235.04L92.55,235.04L93.18,234.27L97.62,233.12L98.25,231.97L103.32,229.67L103.95,229.67L106.49,229.29L107.12,228.52L111.56,226.99L112.2,225.65L114.73,224.5L115.36,223.73L117.9,222.39L118.53,222.39L120.44,221.62L121.07,221.62L122.34,220.28L122.97,220.28L124.87,219.51L125.51,219.51L126.14,219.51L126.77,217.21L128.04,217.21L128.68,215.87L130.58,214.53L131.21,214.15L132.48,213.57L133.11,212.81L135.01,211.85L135.65,211.66L136.28,211.66L136.92,210.51L139.45,209.16L140.09,207.06L141.35,207.25L141.99,203.99L143.25,199.77L143.89,199.2L145.79,199.01L146.42,198.43L147.06,198.43L147.69,195.18L148.33,195.18L148.96,192.88L149.59,192.68L150.23,188.28L150.86,188.28L151.5,186.55L153.4,184.83L154.03,184.83L155.3,180.8L155.93,180.42L157.2,179.08L157.83,178.69L159.1,178.31L159.74,177.54L161.64,174.86L162.27,175.05L163.54,174.67L164.17,172.18L166.07,171.99L166.71,172.94L167.34,172.94L167.98,173.9L168.61,171.79L169.24,173.52L170.51,171.79L171.15,173.52L173.05,173.14L173.68,169.11L174.31,169.11L174.95,168.35L178.75,167.77L179.39,167.77L182.55,167.39L183.19,166.24L184.46,165.66L185.09,165.66L185.72,165.66L186.36,163.94L188.89,162.6L189.53,162.6L192.06,160.87L192.7,160.87L195.87,160.3L196.5,159.72L197.77,158.38L198.4,158.38L200.94,156.85L201.57,156.85L202.84,156.85L203.47,155.89L204.11,155.7L204.74,154.36L206.64,152.63L207.28,151.86L209.18,146.5L209.81,146.5L211.08,144.01L211.71,144.01L212.35,143.82L212.98,139.79L214.25,137.87L214.88,137.87L216.15,136.72L216.78,136.72L218.05,136.72L218.69,130.78L221.85,130.78L222.49,122.93L223.12,122.93L223.76,116.79L225.66,115.45L226.29,111.81L229.46,111.43L230.1,110.09L231.36,109.7L232,95.14L233.26,92.46L233.9,85.17L234.53,84.79L235.17,82.87L237.7,69.84L238.34,68.69L238.97,68.31L239.6,66.58L240.24,65.05L240.87,60.84L242.77,57L243.41,57L245.31,52.59L245.94,48L247.21,41.86L247.84,41.67L249.75,40.71L250.38,32.09L251.01,32.09L251.65,26.53L252.91,26.53L253.55,23.08L254.18,21.93L254.82,18.67L255.45,18.67L256.08,44.74L258.62,37.84L259.25,37.46L259.89,37.07L260.52,37.65L262.42,33.43L263.06,33.43L264.32,32.66L264.96,32.86L266.86,28.64L267.49,29.02L268.13,30.75L268.76,29.02L270.03,28.45L270.66,26.72L272.56,24.42L273.2,24.23L275.73,23.66L276.37,23.47L280.17,21.93L280.8,20.4L282.07,19.44L282.71,19.25L283.97,19.06L284.61,17.52L286.51,17.52L287.14,17.52L289.05,17.14L289.68,16.37L290.95,15.61L291.58,15.8L292.21,15.8L292.85,15.03L294.12,14.46L294.75,13.5" style="vector-effect: non-scaling-stroke; fill: none; stroke: rgb(230, 25, 75); stroke-opacity: 1; stroke-width: 2px; opacity: 1;"/></g><g class="points"/><g class="text"/></g><g class="trace scatter trace4a3c46" style="stroke-miterlimit: 2; opacity: 1;"><g class="fills"/><g class="errorbars"/><g class="lines"><path class="js-line" d="M0,256.5L45.64,255.93L46.27,255.73L48.17,255.35L48.81,255.16L51.98,254.78L52.61,254.39L56.41,251.71L57.05,251.52L59.58,250.37L60.22,249.6L64.02,246.73L64.65,246.73L69.73,245L70.36,244.04L71.63,242.7L72.26,242.32L73.53,241.74L74.16,241.74L77.33,240.59L77.97,240.59L86.84,237.91L87.47,237.91L101.42,233.31L102.05,232.74L104.59,230.44L105.22,230.25L108.39,224.69L109.03,224.3L110.29,223.54L110.93,222.2L112.83,218.94L113.46,217.6L114.1,217.6L114.73,216.45L117.27,210.31L117.9,210.31L118.53,217.41L119.17,216.45L119.8,215.49L122.34,211.66L122.97,211.27L128.68,203.42L129.31,201.88L131.21,198.62L131.85,198.43L132.48,197.86L133.11,195.56L135.01,193.45L135.65,193.07L138.18,190L138.82,188.85L142.62,185.4L143.25,184.06L147.06,182.34L147.69,182.34L150.23,180.61L150.86,180.61L152.13,180.23L152.76,180.04L154.66,178.89L155.3,178.69L156.57,177.16L157.2,176.97L158.47,176.39L159.1,176.39L164.17,174.29L164.81,173.9L166.71,173.52L167.34,173.52L169.24,172.94L169.88,172.75L175.58,171.79L176.22,171.79L178.75,170.84L179.39,170.84L188.26,168.73L188.89,168.73L192.06,167.39L192.7,167.39L194.6,166.81L195.23,166.81L199.04,166.43L199.67,166.43L203.47,165.09L204.11,163.75L208.54,160.3L209.18,160.3L211.71,160.3L212.35,158.19L212.98,158.19L213.61,157.42L215.52,156.46L216.15,156.27L216.78,155.89L217.42,154.16L220.59,150.91L221.22,150.71L222.49,148.41L223.12,148.41L224.39,145.16L225.02,145.16L226.29,143.62L226.93,141.9L228.83,138.83L229.46,138.07L232,130.4L232.63,126.95L235.17,123.12L235.8,121.59L237.7,117.18L238.34,116.6L242.14,108.75L242.77,108.55L244.04,107.6L244.67,105.87L246.58,102.42L247.21,102.23L249.11,101.85L249.75,101.46L252.91,97.82L253.55,95.14L255.45,93.22L256.08,93.22L257.35,91.11L257.99,90.16L259.89,87.47L260.52,87.28L263.69,82.49L264.32,82.3L264.96,82.3L265.59,81.34L268.13,78.08L268.76,77.7L270.66,77.51L271.3,76.55L273.2,75.4L273.83,74.82L275.73,73.48L276.37,73.29L281.44,71.76L282.07,71.18L283.97,70.61L284.61,70.03L286.51,69.46L287.14,69.46L290.31,67.54L290.95,67.54L292.85,66.97L293.48,66.58L294.75,65.43" style="vector-effect: non-scaling-stroke; fill: none; stroke: rgb(60, 180, 75); stroke-opacity: 1; stroke-width: 2px; opacity: 1;"/></g><g class="points"/><g class="text"/></g><g class="trace scatter trace303e29" style="stroke-miterlimit: 2; opacity: 1;"><g class="fills"/><g class="errorbars"/><g class="lines"><path class="js-line" d="M0,256.5L46.27,255.93L46.91,255.73L53.25,255.16L53.88,254.78L58.32,253.24L58.95,252.09L60.85,249.98L61.49,249.98L62.75,249.6L63.39,248.45L67.82,246.92L68.46,246.15L69.73,245.77L70.36,245.38L74.16,243.85L74.8,243.85L79.23,241.55L79.87,241.36L82.4,239.44L83.04,239.44L91.91,237.14L92.55,237.14L131.21,236.57L131.85,236.38L146.42,235.8L147.06,235.61L150.86,235.23L151.5,235.23L152.76,234.65L153.4,234.65L159.74,234.08L160.37,233.89L166.71,232.35L167.34,232.35L179.39,229.29L180.02,229.29L181.92,228.9L182.55,228.52L183.82,227.95L184.46,227.95L188.89,226.8L189.53,226.8L190.8,226.41L191.43,225.45L197.77,224.3L198.4,222.96L202.84,221.05L203.47,220.66L209.18,216.83L209.81,216.06L211.08,216.06L211.71,214.34L212.98,213.57L213.61,212.61L215.52,212.61L216.15,210.89L218.05,209.55L218.69,209.55L220.59,206.1L221.22,205.91L223.76,203.61L224.39,203.61L225.66,202.07L226.29,198.82L228.19,196.9L228.83,196.9L230.1,194.22L230.73,193.64L232.63,190.77L233.26,190.77L234.53,188.47L235.17,188.47L236.43,186.74L237.07,186.74L237.7,186.74L238.34,185.98L239.6,185.4L240.24,184.83L244.04,183.1L244.67,181.57L246.58,181.57L247.21,180.04L249.11,179.46L249.75,179.27L252.91,178.69L253.55,178.5L255.45,178.5L256.08,177.74L259.89,177.35L260.52,176.78L270.66,176.2L271.3,176.01L275.1,175.44L275.73,175.24L286.51,174.67L287.14,174.48L291.58,173.71L292.21,172.56L294.12,171.99L294.75,171.99" style="vector-effect: non-scaling-stroke; fill: none; stroke: rgb(255, 225, 25); stroke-opacity: 1; stroke-width: 2px; opacity: 1;"/></g><g class="points"/><g class="text"/></g><g class="trace scatter trace351163" style="stroke-miterlimit: 2; opacity: 1;"><g class="fills"/><g class="errorbars"/><g class="lines"><path class="js-line" d="M0,256.5L45,255.93L45.64,255.54L49.44,254.97L50.08,254.78L51.98,254.39L52.61,254.2L57.05,252.28L57.68,252.28L64.02,251.13L64.65,251.13L69.09,250.56L69.73,250.37L75.43,250.18L76.06,249.6L86.84,249.03L87.47,248.83L89.38,248.07L90.01,248.07L91.91,248.07L92.55,247.11L95.08,245.77L95.71,244.62L96.98,244.62L97.62,243.66L98.88,242.51L99.52,242.51L114.1,237.53L114.73,236.95L118.53,236.57L119.17,235.8L119.8,235.61L120.44,234.27L125.51,230.44L126.14,230.05L127.41,229.86L128.04,228.52L131.21,226.41L131.85,226.41L133.11,226.22L133.75,225.65L136.28,224.11L136.92,223.73L141.35,222.2L141.99,221.43L144.52,220.85L145.16,220.66L147.69,220.28L148.33,219.9L163.54,214.72L164.17,213.57L166.07,212.42L166.71,212.42L168.61,211.85L169.24,211.66L171.78,211.27L172.41,210.89L174.31,210.31L174.95,210.31L185.09,208.01L185.72,208.01L190.8,207.63L191.43,207.44L197.13,206.48L197.77,206.48L200.94,206.29L201.57,205.33L204.11,204.76L204.74,204.18L206.01,203.03L206.64,203.03L207.91,203.03L208.54,200.92L209.18,200.92L209.81,199.58L212.98,199.39L213.61,197.47L214.25,197.47L214.88,194.98L217.42,194.6L218.05,193.07L218.69,192.3L219.32,190L221.85,189.81L222.49,188.47L224.39,181.95L225.02,181.38L226.93,180.8L227.56,177.93L229.46,170.45L230.1,170.26L230.73,170.26L231.36,168.35L232.63,163.75L233.26,163.17L235.17,162.21L235.8,159.34L237.07,155.31L237.7,155.12L240.24,154.55L240.87,152.63L242.14,149.37L242.77,149.37L243.41,149.18L244.04,146.5L244.67,145.35L245.31,142.47L247.21,137.3L247.84,137.3L248.48,137.3L249.11,136.53L250.38,133.28L251.01,131.17L253.55,130.98L254.18,127.33L254.82,127.33L255.45,125.99L257.35,120.82L257.99,120.82L259.89,118.71L260.52,118.71L262.42,116.99L263.06,116.99L265.59,115.45L266.23,115.26L267.49,115.26L268.13,119.86L269.4,114.69L270.03,112.77L272.56,109.51L273.2,109.51L275.73,109.13L276.37,108.75L277.64,108.17L278.27,108.17L283.34,107.6L283.97,107.4L285.88,106.64L286.51,106.64L290.31,106.06L290.95,105.3L292.85,104.91L293.48,104.15L294.12,104.15L294.75,103.19" style="vector-effect: non-scaling-stroke; fill: none; stroke: rgb(67, 99, 216); stroke-opacity: 1; stroke-width: 2px; opacity: 1;"/></g><g class="points"/><g class="text"/></g><g class="trace scatter trace999301" style="stroke-miterlimit: 2; opacity: 1;"><g class="fills"/><g class="errorbars"/><g class="lines"><path class="js-line" d="M0,256.5L79.87,255.93L80.5,255.73L100.79,255.16L101.42,254.97L147.06,254.39L147.69,254.2L152.13,253.63L152.76,253.05L155.93,252.48L156.57,252.28L164.81,249.22L165.44,248.45L171.15,247.49L171.78,247.49L175.58,245.77L176.22,245.77L180.65,245.19L181.29,245L184.46,244.43L185.09,244.24L187.63,243.66L188.26,243.09L190.8,242.51L191.43,241.55L193.33,240.02L193.96,240.02L197.13,238.1L197.77,238.1L201.57,235.23L202.2,234.27L207.91,231.01L208.54,230.82L211.08,228.9L211.71,228.71L218.05,223.54L218.69,223.54L221.85,221.24L222.49,219.71L224.39,217.79L225.02,217.79L226.29,217.6L226.93,216.83L228.19,216.06L228.83,216.06L232,214.91L232.63,214.72L234.53,214.34L235.17,213.96L236.43,213.57L237.07,213.19L244.04,212.61L244.67,211.85L249.11,211.27L249.75,211.08L251.65,210.7L252.28,210.7L269.4,210.12L270.03,209.93L275.1,209.74L275.73,201.88L280.8,201.31L281.44,200.92L283.34,200.54L283.97,200.35L290.95,198.82L291.58,198.82L294.75,196.71" style="vector-effect: non-scaling-stroke; fill: none; stroke: rgb(245, 130, 49); stroke-opacity: 1; stroke-width: 2px; opacity: 1;"/></g><g class="points"/><g class="text"/></g><g class="trace scatter trace7f2062" style="stroke-miterlimit: 2; opacity: 1;"><g class="fills"/><g class="errorbars"/><g class="lines"><path class="js-line" d="M0,256.5L44.37,255.93L45,255.54L46.27,254.97L46.91,254.97L47.54,254.97L48.17,253.82L50.08,253.43L50.71,253.43L53.25,252.48L53.88,252.48L56.41,252.48L57.05,251.71L60.85,251.13L61.49,250.37L66.56,249.6L67.19,249.6L75.43,249.03L76.06,248.83L81.14,246.73L81.77,246.15L84.3,245.58L84.94,245.19L91.91,244.62L92.55,244.24L101.42,243.66L102.05,243.28L105.22,242.7L105.86,242.89L119.8,238.49L120.44,237.72L123.6,237.14L124.24,236.76L126.77,235.99L127.41,235.99L131.85,234.27L132.48,233.5L135.01,232.54L135.65,232.54L159.1,225.45L159.74,224.69L162.9,224.11L163.54,223.73L171.78,220.85L172.41,220.09L175.58,218.17L176.22,218.17L178.12,217.02L178.75,216.06L180.02,215.49L180.65,215.49L183.19,213.38L183.82,213.38L187.63,211.85L188.26,211.46L189.53,210.89L190.16,210.51L195.23,206.67L195.87,206.67L197.77,205.14L198.4,204.95L199.04,204.76L199.67,203.03L202.84,201.12L203.47,200.92L204.74,199.97L205.37,198.43L207.28,195.75L207.91,195.37L209.81,191.73L210.45,190.77L211.71,189.43L212.35,189.23L213.61,186.17L214.25,186.17L215.52,184.63L216.15,184.44L216.78,183.87L217.42,180.8L218.69,180.04L219.32,177.74L220.59,176.97L221.22,176.78L223.12,171.41L223.76,170.26L225.02,168.92L225.66,168.92L226.93,164.7L227.56,163.36L231.36,157.23L232,155.7L235.17,149.76L235.8,148.41L238.34,143.62L238.97,142.86L242.14,136.72L242.77,136.72L244.04,134.43L244.67,133.08L247.21,131.74L247.84,131.17L249.75,128.48L250.38,127.91L252.28,126.95L252.91,125.99L256.08,120.44L256.72,117.94L260.52,117.94L261.15,113.54L264.96,113.54L265.59,110.66L269.4,110.66L270.03,108.17L274.47,108.17L275.1,104.34L278.27,104.34L278.9,62.18L283.34,62.18L283.97,60.64L292.21,60.64L292.85,58.54L294.75,58.54" style="vector-effect: non-scaling-stroke; fill: none; stroke: rgb(145, 30, 180); stroke-opacity: 1; stroke-width: 2px; opacity: 1;"/></g><g class="points"/><g class="text"/></g></g></g><g class="overplot"/><path class="xlines-above crisp" d="M0,0" style="fill: none;"/><path class="ylines-above crisp" d="M0,0" style="fill: none;"/><g class="overlines-above"/><g class="xaxislayer-above"><g class="x2tick"><text text-anchor="middle" x="0" y="383" transform="translate(542.3000000000001,0)" style="font-family: 'Open Sans', verdana, arial, sans-serif; font-size: 12px; fill: rgb(242, 245, 250); fill-opacity: 1; white-space: pre;">Jul 2020</text></g><g class="x2tick"><text text-anchor="middle" x="0" y="383" transform="translate(658.94,0)" style="font-family: 'Open Sans', verdana, arial, sans-serif; font-size: 12px; fill: rgb(242, 245, 250); fill-opacity: 1; white-space: pre;">Jan 2021</text></g></g><g class="yaxislayer-above"><g class="y2tick"><text text-anchor="end" x="439.25000000000006" y="4.199999999999999" transform="translate(0,356.5)" style="font-family: 'Open Sans', verdana, arial, sans-serif; font-size: 12px; fill: rgb(242, 245, 250); fill-opacity: 1; white-space: pre;">0</text></g><g class="y2tick"><text text-anchor="end" x="439.25000000000006" y="4.199999999999999" transform="translate(0,318.16999999999996)" style="font-family: 'Open Sans', verdana, arial, sans-serif; font-size: 12px; fill: rgb(242, 245, 250); fill-opacity: 1; white-space: pre;">200</text></g><g class="y2tick"><text text-anchor="end" x="439.25000000000006" y="4.199999999999999" transform="translate(0,279.84000000000003)" style="font-family: 'Open Sans', verdana, arial, sans-serif; font-size: 12px; fill: rgb(242, 245, 250); fill-opacity: 1; white-space: pre;">400</text></g><g class="y2tick"><text text-anchor="end" x="439.25000000000006" y="4.199999999999999" transform="translate(0,241.52)" style="font-family: 'Open Sans', verdana, arial, sans-serif; font-size: 12px; fill: rgb(242, 245, 250); fill-opacity: 1; white-space: pre;">600</text></g><g class="y2tick"><text text-anchor="end" x="439.25000000000006" y="4.199999999999999" transform="translate(0,203.19)" style="font-family: 'Open Sans', verdana, arial, sans-serif; font-size: 12px; fill: rgb(242, 245, 250); fill-opacity: 1; white-space: pre;">800</text></g><g class="y2tick"><text text-anchor="end" x="439.25000000000006" y="4.199999999999999" transform="translate(0,164.86)" style="font-family: 'Open Sans', verdana, arial, sans-serif; font-size: 12px; fill: rgb(242, 245, 250); fill-opacity: 1; white-space: pre;">1000</text></g><g class="y2tick"><text text-anchor="end" x="439.25000000000006" y="4.199999999999999" transform="translate(0,126.53)" style="font-family: 'Open Sans', verdana, arial, sans-serif; font-size: 12px; fill: rgb(242, 245, 250); fill-opacity: 1; white-space: pre;">1200</text></g></g><g class="overaxes-above"/></g></g><g class="polarlayer"/><g class="ternarylayer"/><g class="geolayer"/><g class="funnelarealayer"/><g class="pielayer"/><g class="treemaplayer"/><g class="sunburstlayer"/><g class="glimages"/><defs id="topdefs-6d4329"><g class="clips"/><clipPath id="legend6d4329"><rect width="140" height="124" x="0" y="0"/></clipPath></defs><g class="layer-above"><g class="imagelayer"/><g class="shapelayer"/></g><g class="infolayer"><g class="legend" pointer-events="all" transform="translate(748.1, 100)"><rect class="bg" shape-rendering="crispEdges" width="140" height="124" x="0" y="0" style="stroke: rgb(68, 68, 68); stroke-opacity: 1; fill: rgb(17, 17, 17); fill-opacity: 1; stroke-width: 0px;"/><g class="scrollbox" transform="translate(0, 0)" clip-path="url('#legend6d4329')"><g class="groups"><g class="traces" transform="translate(0, 14.5)" style="opacity: 1;"><text class="legendtext user-select-none" text-anchor="start" x="40" y="4.680000000000001" style="font-family: 'Open Sans', verdana, arial, sans-serif; font-size: 12px; fill: rgb(242, 245, 250); fill-opacity: 1; white-space: pre;">Alameda, CA</text><g class="layers" style="opacity: 1;"><g class="legendfill"/><g class="legendlines"><path class="js-line" d="M5,0h30" style="fill: none; stroke: rgb(230, 25, 75); stroke-opacity: 1; stroke-width: 2px;"/></g><g class="legendsymbols"><g class="legendpoints"/></g></g><rect class="legendtoggle" pointer-events="all" x="0" y="-9.5" width="134.046875" height="19" style="cursor: pointer; fill: rgb(0, 0, 0); fill-opacity: 0;"/></g><g class="traces" transform="translate(0, 33.5)" style="opacity: 1;"><text class="legendtext user-select-none" text-anchor="start" x="40" y="4.680000000000001" style="font-family: 'Open Sans', verdana, arial, sans-serif; font-size: 12px; fill: rgb(242, 245, 250); fill-opacity: 1; white-space: pre;">Travis, TX</text><g class="layers" style="opacity: 1;"><g class="legendfill"/><g class="legendlines"><path class="js-line" d="M5,0h30" style="fill: none; stroke: rgb(60, 180, 75); stroke-opacity: 1; stroke-width: 2px;"/></g><g class="legendsymbols"><g class="legendpoints"/></g></g><rect class="legendtoggle" pointer-events="all" x="0" y="-9.5" width="134.046875" height="19" style="cursor: pointer; fill: rgb(0, 0, 0); fill-opacity: 0;"/></g><g class="traces" transform="translate(0, 52.5)" style="opacity: 1;"><text class="legendtext user-select-none" text-anchor="start" x="40" y="4.680000000000001" style="font-family: 'Open Sans', verdana, arial, sans-serif; font-size: 12px; fill: rgb(242, 245, 250); fill-opacity: 1; white-space: pre;">New London, CT</text><g class="layers" style="opacity: 1;"><g class="legendfill"/><g class="legendlines"><path class="js-line" d="M5,0h30" style="fill: none; stroke: rgb(255, 225, 25); stroke-opacity: 1; stroke-width: 2px;"/></g><g class="legendsymbols"><g class="legendpoints"/></g></g><rect class="legendtoggle" pointer-events="all" x="0" y="-9.5" width="134.046875" height="19" style="cursor: pointer; fill: rgb(0, 0, 0); fill-opacity: 0;"/></g><g class="traces" transform="translate(0, 71.5)" style="opacity: 1;"><text class="legendtext user-select-none" text-anchor="start" x="40" y="4.680000000000001" style="font-family: 'Open Sans', verdana, arial, sans-serif; font-size: 12px; fill: rgb(242, 245, 250); fill-opacity: 1; white-space: pre;">Contra Costa, CA</text><g class="layers" style="opacity: 1;"><g class="legendfill"/><g class="legendlines"><path class="js-line" d="M5,0h30" style="fill: none; stroke: rgb(67, 99, 216); stroke-opacity: 1; stroke-width: 2px;"/></g><g class="legendsymbols"><g class="legendpoints"/></g></g><rect class="legendtoggle" pointer-events="all" x="0" y="-9.5" width="134.046875" height="19" style="cursor: pointer; fill: rgb(0, 0, 0); fill-opacity: 0;"/></g><g class="traces" transform="translate(0, 90.5)" style="opacity: 1;"><text class="legendtext user-select-none" text-anchor="start" x="40" y="4.680000000000001" style="font-family: 'Open Sans', verdana, arial, sans-serif; font-size: 12px; fill: rgb(242, 245, 250); fill-opacity: 1; white-space: pre;">Tazewell, IL</text><g class="layers" style="opacity: 1;"><g class="legendfill"/><g class="legendlines"><path class="js-line" d="M5,0h30" style="fill: none; stroke: rgb(245, 130, 49); stroke-opacity: 1; stroke-width: 2px;"/></g><g class="legendsymbols"><g class="legendpoints"/></g></g><rect class="legendtoggle" pointer-events="all" x="0" y="-9.5" width="134.046875" height="19" style="cursor: pointer; fill: rgb(0, 0, 0); fill-opacity: 0;"/></g><g class="traces" transform="translate(0, 109.5)" style="opacity: 1;"><text class="legendtext user-select-none" text-anchor="start" x="40" y="4.680000000000001" style="font-family: 'Open Sans', verdana, arial, sans-serif; font-size: 12px; fill: rgb(242, 245, 250); fill-opacity: 1; white-space: pre;">Tulsa, OK</text><g class="layers" style="opacity: 1;"><g class="legendfill"/><g class="legendlines"><path class="js-line" d="M5,0h30" style="fill: none; stroke: rgb(145, 30, 180); stroke-opacity: 1; stroke-width: 2px;"/></g><g class="legendsymbols"><g class="legendpoints"/></g></g><rect class="legendtoggle" pointer-events="all" x="0" y="-9.5" width="134.046875" height="19" style="cursor: pointer; fill: rgb(0, 0, 0); fill-opacity: 0;"/></g></g></g><rect class="scrollbar" rx="20" ry="3" width="0" height="0" x="0" y="0" style="fill: rgb(128, 139, 164); fill-opacity: 1;"/></g><g class="g-gtitle"/><g class="g-xtitle"><text class="xtitle" x="227.375" y="410.8" text-anchor="middle" style="font-family: 'Open Sans', verdana, arial, sans-serif; font-size: 14px; fill: rgb(242, 245, 250); opacity: 1; font-weight: normal; white-space: pre;">Date</text></g><g class="g-x2title"><text class="x2title" x="587.625" y="410.8" text-anchor="middle" style="font-family: 'Open Sans', verdana, arial, sans-serif; font-size: 14px; fill: rgb(242, 245, 250); opacity: 1; font-weight: normal; white-space: pre;">Date</text></g><g class="g-ytitle"><text class="ytitle" transform="rotate(-90,34.840625,235)" x="34.840625" y="235" text-anchor="middle" style="font-family: 'Open Sans', verdana, arial, sans-serif; font-size: 14px; fill: rgb(242, 245, 250); opacity: 1; font-weight: normal; white-space: pre;">Cases</text></g><g class="g-y2title"><text class="y2title" transform="rotate(-90,387.746875,235)" x="387.746875" y="235" text-anchor="middle" style="font-family: 'Open Sans', verdana, arial, sans-serif; font-size: 14px; fill: rgb(242, 245, 250); opacity: 1; font-weight: normal; white-space: pre;">Deaths</text></g><g class="annotation" data-index="0" style="opacity: 1;"><g class="annotation-text-g" transform="rotate(0,227.375,89.5)"><g class="cursor-pointer" transform="translate(203, 79)"><rect class="bg" x="0.5" y="0.5" width="48" height="20" style="stroke-width: 1px; stroke: rgb(0, 0, 0); stroke-opacity: 0; fill: rgb(0, 0, 0); fill-opacity: 0;"/><text class="annotation-text" text-anchor="middle" x="24.6875" y="16" style="font-family: 'Open Sans', verdana, arial, sans-serif; font-size: 16px; fill: rgb(242, 245, 250); fill-opacity: 1; white-space: pre;">Cases</text></g></g></g><g class="annotation" data-index="1" style="opacity: 1;"><g class="annotation-text-g" transform="rotate(0,587.625,89.5)"><g class="cursor-pointer" transform="translate(560, 79)"><rect class="bg" x="0.5" y="0.5" width="54" height="20" style="stroke-width: 1px; stroke: rgb(0, 0, 0); stroke-opacity: 0; fill: rgb(0, 0, 0); fill-opacity: 0;"/><text class="annotation-text" text-anchor="middle" x="27.359375" y="16" style="font-family: 'Open Sans', verdana, arial, sans-serif; font-size: 16px; fill: rgb(242, 245, 250); fill-opacity: 1; white-space: pre;">Deaths</text></g></g></g></g></svg>