<svg class="main-svg" xmlns="http://www.w3.org/2000/svg" xmlns:xlink="http://www.w3.org/1999/xlink" width="900" height="450" style="" viewBox="0 0 900 450"><rect x="0" y="0" width="900" height="450" style="fill: rgb(17, 17, 17); fill-opacity: 1;"/><defs id="defs-517631"><g class="clips"><clipPath id="clip517631xyplot" class="plotclip"><rect width="304.2" height="270"/></clipPath><clipPath id="clip517631x2y2plot" class="plotclip"><rect width="304.2" height="270"/></clipPath><clipPath class="axesclip" id="clip517631x"><rect x="80" y="0" width="304.2" height="450"/></clipPath><clipPath class="axesclip" id="clip517631y"><rect x="0" y="100" width="900" height="270"/></clipPath><clipPath class="axesclip" id="clip517631xy"><rect x="80" y="100" width="304.2" height="270"/></clipPath><clipPath class="axesclip" id="clip517631y2"><rect x="0" y="100" width="900" height="270"/></clipPath><clipPath class="axesclip" id="clip517631xy2"><rect x="80" y="100" width="304.2" height="270"/></clipPath><clipPath class="axesclip" id="clip517631x2"><rect x="451.8" y="0" width="304.2" height="450"/></clipPath><clipPath class="axesclip" id="clip517631x2y"><rect x="451.8" y="100" width="304.2" height="270"/></clipPath><clipPath class="axesclip" id="clip517631x2y2"><rect x="451.8" y="100" width="304.2" height="270"/></clipPath></g><g class="gradients"/></defs><g class="bglayer"/><g class="layer-below"><g class="imagelayer"/><g class="shapelayer"/></g><g class="cartesianlayer"><g class="subplot xy"><g class="layer-subplot"><g class="shapelayer"/><g class="imagelayer"/></g><g class="gridlayer"><g class="x"><path class="xgrid crisp" transform="translate(127.27000000000001,0)" d="M0,100v270" style="stroke: rgb(40, 52, 66); stroke-opacity: 1; stroke-width: 1px;"/><path class="xgrid crisp" transform="translate(201.2,0)" d="M0,100v270" style="stroke: rgb(40, 52, 66); stroke-opacity: 1; stroke-width: 1px;"/><path class="xgrid crisp" transform="translate(275.12,0)" d="M0,100v270" style="stroke: rgb(40, 52, 66); stroke-opacity: 1; stroke-width: 1px;"/><path class="xgrid crisp" transform="translate(350.27,0)" d="M0,100v270" style="stroke: rgb(40, 52, 66); stroke-opacity: 1; stroke-width: 1px;"/></g><g class="y"><path class="ygrid crisp" transform="translate(0,287.65)" d="M80,0h304.2" style="stroke: rgb(40, 52, 66); stroke-opacity: 1; stroke-width: 1px;"/><path class="ygrid crisp" transform="translate(0,218.8)" d="M80,0h304.2" style="stroke: rgb(40, 52, 66); stroke-opacity: 1; stroke-width: 1px;"/><path class="ygrid crisp" transform="translate(0,149.96)" d="M80,0h304.2" style="stroke: rgb(40, 52, 66); stroke-opacity: 1; stroke-width: 1px;"/></g></g><g class="zerolinelayer"><path class="yzl zl crisp" transform="translate(0,356.5)" d="M80,0h304.2" style="stroke: rgb(40, 52, 66); stroke-opacity: 1; stroke-width: 2px;"/></g><path class="xlines-below"/><path class="ylines-below"/><g class="overlines-below"/><g class="xaxislayer-below"/><g class="yaxislayer-below"/><g class="overaxes-below"/><g class="plot" transform="translate(80, 100)" clip-path="url('#clip517631xyplot')"><g class="scatterlayer mlayer"><g class="trace scatter trace6ef7e4" style="stroke-miterlimit: 2; opacity: 1;"><g class="fills"/><g class="errorbars"/><g class="lines"><path class="js-line" d="M0,256.5L72.72,255.77L73.93,255.66L78.78,254.99L79.99,254.74L87.26,253.45L88.47,252.8L100.59,250.41L101.8,249.88L145.43,238.54L146.65,237.86L155.13,234.5L156.34,233.86L159.98,232.3L161.19,232.07L168.46,229.06L169.67,228.73L181.79,223.42L183,223.42L186.64,220.18L187.85,219.45L193.91,215.44L195.12,214.12L197.55,211.94L198.76,211.36L199.97,209.3L201.18,209.08L202.4,209.08L203.61,206.62L207.24,203.31L208.46,203.31L212.09,198.13L213.3,197.1L216.94,192.9L218.15,192.77L220.58,190.11L221.79,188.55L224.21,185.38L225.42,185.1L226.64,184.64L227.85,183.29L229.06,182.33L230.27,179.86L231.48,179.86L232.69,177.43L233.91,177.16L235.12,174.94L236.33,174.51L237.54,172.95L241.18,172.95L242.39,165.63L243.6,165.5L244.81,162.43L246.03,159.43L247.24,158.54L248.45,156.27L249.66,156.27L250.87,152.38L252.09,152.33L258.15,141.57L259.36,141.37L260.57,141.3L261.78,137.56L264.21,135.18L265.42,133.63L266.63,133.63L267.84,132.3L270.27,129.51L271.48,127.79L275.11,124.79L276.33,124.79L277.54,123.28L278.75,123.28L281.17,120.8L282.38,120.05L283.6,119.93L284.81,118.87L289.66,117.69L290.87,116.3L294.5,114.39L295.72,113.65L304.2,109.69" style="vector-effect: non-scaling-stroke; fill: none; stroke: rgb(230, 25, 75); stroke-opacity: 1; stroke-width: 2px; opacity: 1;"/></g><g class="points"/><g class="text"/></g><g class="trace scatter tracec57f7a" style="stroke-miterlimit: 2; opacity: 1;"><g class="fills"/><g class="errorbars"/><g class="lines"><path class="js-line" d="M0,256.5L86.05,255.8L87.26,255.64L110.29,253.91L111.5,253.61L175.73,249.99L176.95,249.83L181.79,248.46L183,248.11L187.85,246.42L189.06,245.45L197.55,239.32L198.76,238.57L202.4,236.18L203.61,235.36L212.09,226.52L213.3,225.02L220.58,217.55L221.79,216.55L226.64,212.84L227.85,211.93L232.69,208.59L233.91,207.64L250.87,198.31L252.09,198.1L267.84,192.86L269.05,192.59L272.69,190.48L273.9,190.08L277.54,188.92L278.75,188.6L281.17,188.13L282.38,187.47L288.44,185.54L289.66,185.15L304.2,181.47" style="vector-effect: non-scaling-stroke; fill: none; stroke: rgb(60, 180, 75); stroke-opacity: 1; stroke-width: 2px; opacity: 1;"/></g><g class="points"/><g class="text"/></g><g class="trace scatter trace7d770d" style="stroke-miterlimit: 2; opacity: 1;"><g class="fills"/><g class="errorbars"/><g class="lines"><path class="js-line" d="M0,256.5L90.9,255.76L92.11,255.66L104.23,255.14L105.44,255.1L174.52,253.31L175.73,253.18L180.58,252.05L181.79,251.88L190.28,248.94L191.49,248.29L196.34,246.12L197.55,245.46L208.46,239.17L209.67,238.29L216.94,233.48L218.15,233.15L220.58,231.76L221.79,230.63L226.64,227.8L227.85,227.18L241.18,221.57L242.39,220.97L246.03,220.07L247.24,219.38L250.87,217.81L252.09,217.6L256.93,215.56L258.15,215.16L269.05,212.46L270.27,211.49L292.08,206.5L293.29,206.29L304.2,204.75" style="vector-effect: non-scaling-stroke; fill: none; stroke: rgb(255, 225, 25); stroke-opacity: 1; stroke-width: 2px; opacity: 1;"/></g><g class="points"/><g class="text"/></g><g class="trace scatter tracee532e4" style="stroke-miterlimit: 2; opacity: 1;"><g class="fills"/><g class="errorbars"/><g class="lines"><path class="js-line" d="M0,256.5L86.05,255.79L87.26,255.63L140.59,251.43L141.8,251.36L168.46,247.94L169.67,247.64L178.16,245.25L179.37,244.78L184.22,241.18L185.43,240.81L189.06,237.36L190.28,234.59L192.7,231.15L193.91,230.09L196.34,226.71L197.55,224.42L204.82,213.77L206.03,210.98L210.88,202.24L212.09,200L216.94,190.93L218.15,188.5L221.79,183.9L223,181.39L227.85,174.62L229.06,173.48L235.12,166.05L236.33,165.41L249.66,151.08L250.87,150.27L254.51,148.25L255.72,147.12L260.57,144.13L261.78,143.67L273.9,135.56L275.11,134.69L286.02,128.97L287.23,128.36L289.66,127.18L290.87,126.27L300.56,120.42L301.78,119.84L304.2,118.98" style="vector-effect: non-scaling-stroke; fill: none; stroke: rgb(67, 99, 216); stroke-opacity: 1; stroke-width: 2px; opacity: 1;"/></g><g class="points"/><g class="text"/></g><g class="trace scatter trace2763f3" style="stroke-miterlimit: 2; opacity: 1;"><g class="fills"/><g class="errorbars"/><g class="lines"><path class="js-line" d="M0,256.5L67.87,256.34L69.08,255.68L72.72,253.22L73.93,252.11L77.56,246.94L78.78,244.04L84.84,225.72L86.05,221.6L89.68,204.74L90.9,199.56L93.32,190.23L94.53,187.01L103.02,166.98L104.23,165.39L110.29,156.25L111.5,153.27L113.92,149.45L115.14,148.08L116.35,147.22L117.56,145.15L121.2,139.66L122.41,138.73L123.62,137.41L124.83,137.3L127.25,135.53L128.47,134.87L133.31,131.24L134.53,130.69L135.74,129.89L136.95,127.27L147.86,120.89L149.07,120.38L153.92,118.4L155.13,117.24L156.34,117.05L157.55,115.95L162.4,114.74L163.61,111.63L168.46,108.25L169.67,107.99L186.64,102.8L187.85,101.91L192.7,100.48L193.91,99.75L202.4,95.15L203.61,94.04L210.88,89.41L212.09,87.65L214.52,84.96L215.73,84.03L219.36,81.56L220.58,80.8L227.85,75.22L229.06,72.75L231.48,70.15L232.69,69.35L235.12,68.01L236.33,66.73L244.81,61.03L246.03,61.03L248.45,57.69L249.66,56.41L252.09,55.35L253.3,54.13L255.72,52.56L256.93,52.56L260.57,48.81L261.78,47.66L265.42,43.38L266.63,43.38L269.05,41.48L270.27,40.61L276.33,36.47L277.54,34.27L278.75,33.6L279.96,31.91L283.6,27.57L284.81,27.57L287.23,24.8L288.44,23.86L290.87,22.18L292.08,21.85L293.29,21.85L294.5,20.34L304.2,13.5" style="vector-effect: non-scaling-stroke; fill: none; stroke: rgb(245, 130, 49); stroke-opacity: 1; stroke-width: 2px; opacity: 1;"/></g><g class="points"/><g class="text"/></g><g class="trace scatter trace8cb318" style="stroke-miterlimit: 2; opacity: 1;"><g class="fills"/><g class="errorbars"/><g class="lines"><path class="js-line" d="M0,256.5L70.29,255.8L71.51,255.54L84.84,253.59L86.05,252.25L95.74,249.28L96.96,248.85L101.8,247.67L103.02,247.5L106.65,245.22L107.86,244.97L111.5,243.29L112.71,242.65L117.56,240.09L118.77,239.6L121.2,238.24L122.41,237.41L126.04,235.62L127.25,234.96L128.47,234.76L129.68,233.78L138.16,230.37L139.37,229.84L140.59,229.7L141.8,228.51L146.65,226.23L147.86,225.76L151.49,224.03L152.71,223.27L159.98,219.85L161.19,219.12L167.25,215.56L168.46,214.33L173.31,212.2L174.52,210.5L179.37,206.56L180.58,204.85L185.43,202.34L186.64,200.99L190.28,196.77L191.49,196.77L199.97,180.15L201.18,179.36L207.24,165.88L208.46,164.87L209.67,160.28L210.88,158.7L219.36,142.59L220.58,141.56L229.06,128.82L230.27,127.92L232.69,124.48L233.91,123.49L236.33,121.81L237.54,120.1L253.3,103.73L254.51,102.79L259.36,99.76L260.57,99.42L264.21,96.9L265.42,95.94L273.9,92.43L275.11,91.26L277.54,88.7L278.75,88.39L279.96,87.73L281.17,85.04L283.6,83.71L284.81,83.11L288.44,80.4L289.66,79.89L293.29,77.69L294.5,77.38L300.56,74.23L301.78,73.16L304.2,72.01" style="vector-effect: non-scaling-stroke; fill: none; stroke: rgb(145, 30, 180); stroke-opacity: 1; stroke-width: 2px; opacity: 1;"/></g><g class="points"/><g class="text"/></g></g></g><g class="overplot"/><path class="xlines-above crisp" d="M0,0" style="fill: none;"/><path class="ylines-above crisp" d="M0,0" style="fill: none;"/><g class="overlines-above"/><g class="xaxislayer-above"><g class="xtick"><text text-anchor="middle" x="0" y="383" transform="translate(127.27000000000001,0)" style="font-family: 'Open Sans', verdana, arial, sans-serif; font-size: 12px; fill: rgb(242, 245, 250); fill-opacity: 1; white-space: pre;">Mar 2020</text></g><g class="xtick"><text text-anchor="middle" x="0" y="383" transform="translate(201.2,0)" style="font-family: 'Open Sans', verdana, arial, sans-serif; font-size: 12px; fill: rgb(242, 245, 250); fill-opacity: 1; white-space: pre;">May 2020</text></g><g class="xtick"><text text-anchor="middle" x="0" y="383" transform="translate(275.12,0)" style="font-family: 'Open Sans', verdana, arial, sans-serif; font-size: 12px; fill: rgb(242, 245, 250); fill-opacity: 1; white-space: pre;">Jul 2020</text></g><g class="xtick"><text text-anchor="middle" x="0" y="383" transform="translate(350.27,0)" style="font-family: 'Open Sans', verdana, arial, sans-serif; font-size: 12px; fill: rgb(242, 245, 250); fill-opacity: 1; white-space: pre;">Sep 2020</text></g></g><g class="yaxislayer-above"><g class="ytick"><text text-anchor="end" x="79" y="4.199999999999999" transform="translate(0,356.5)" style="font-family: 'Open Sans', verdana, arial, sans-serif; font-size: 12px; fill: rgb(242, 245, 250); fill-opacity: 1; white-space: pre;">0</text></g><g class="ytick"><text text-anchor="end" x="79" y="4.199999999999999" transform="translate(0,287.65)" style="font-family: 'Open Sans', verdana, arial, sans-serif; font-size: 12px; fill: rgb(242, 245, 250); fill-opacity: 1; white-space: pre;">10k</text></g><g class="ytick"><text text-anchor="end" x="79" y="4.199999999999999" transform="translate(0,218.8)" style="font-family: 'Open Sans', verdana, arial, sans-serif; font-size: 12px; fill: rgb(242, 245, 250); fill-opacity: 1; white-space: pre;">20k</text></g><g class="ytick"><text text-anchor="end" x="79" y="4.199999999999999" transform="translate(0,149.96)" style="font-family: 'Open Sans', verdana, arial, sans-serif; font-size: 12px; fill: rgb(242, 245, 250); fill-opacity: 1; white-space: pre;">30k</text></g></g><g class="overaxes-above"/></g><g class="subplot x2y2"><g class="layer-subplot"><g class="shapelayer"/><g class="imagelayer"/></g><g class="gridlayer"><g class="x2"><path class="x2grid crisp" transform="translate(499.07,0)" d="M0,100v270" style="stroke: rgb(40, 52, 66); stroke-opacity: 1; stroke-width: 1px;"/><path class="x2grid crisp" transform="translate(573,0)" d="M0,100v270" style="stroke: rgb(40, 52, 66); stroke-opacity: 1; stroke-width: 1px;"/><path class="x2grid crisp" transform="translate(646.9200000000001,0)" d="M0,100v270" style="stroke: rgb(40, 52, 66); stroke-opacity: 1; stroke-width: 1px;"/><path class="x2grid crisp" transform="translate(722.0699999999999,0)" d="M0,100v270" style="stroke: rgb(40, 52, 66); stroke-opacity: 1; stroke-width: 1px;"/></g><g class="y2"><path class="y2grid crisp" transform="translate(0,315.76)" d="M451.8,0h304.2" style="stroke: rgb(40, 52, 66); stroke-opacity: 1; stroke-width: 1px;"/><path class="y2grid crisp" transform="translate(0,275.01)" d="M451.8,0h304.2" style="stroke: rgb(40, 52, 66); stroke-opacity: 1; stroke-width: 1px;"/><path class="y2grid crisp" transform="translate(0,234.27)" d="M451.8,0h304.2" style="stroke: rgb(40, 52, 66); stroke-opacity: 1; stroke-width: 1px;"/><path class="y2grid crisp" transform="translate(0,193.51999999999998)" d="M451.8,0h304.2" style="stroke: rgb(40, 52, 66); stroke-opacity: 1; stroke-width: 1px;"/><path class="y2grid crisp" transform="translate(0,152.78)" d="M451.8,0h304.2" style="stroke: rgb(40, 52, 66); stroke-opacity: 1; stroke-width: 1px;"/><path class="y2grid crisp" transform="translate(0,112.03)" d="M451.8,0h304.2" style="stroke: rgb(40, 52, 66); stroke-opacity: 1; stroke-width: 1px;"/></g></g><g class="zerolinelayer"><path class="y2zl zl crisp" transform="translate(0,356.5)" d="M451.8,0h304.2" style="stroke: rgb(40, 52, 66); stroke-opacity: 1; stroke-width: 2px;"/></g><path class="xlines-below"/><path class="ylines-below"/><g class="overlines-below"/><g class="xaxislayer-below"/><g class="yaxislayer-below"/><g class="overaxes-below"/><g class="plot" transform="translate(451.8, 100)" clip-path="url('#clip517631x2y2plot')"><g class="scatterlayer mlayer"><g class="trace scatter tracec05315" style="stroke-miterlimit: 2; opacity: 1;"><g class="fills"/><g class="errorbars"/><g class="lines"><path class="js-line" d="M0,256.5L86.05,255.77L87.26,255.52L96.96,254.79L98.17,254.63L100.59,254.63L101.8,253.57L107.86,253.08L109.08,253L127.25,251.12L128.47,251.04L138.16,249.82L139.37,249.74L147.86,249L149.07,248.92L168.46,248.19L169.67,247.94L175.73,247.37L176.95,247.37L180.58,246.88L181.79,246.88L186.64,246.56L187.85,246.07L199.97,245.09L201.18,245.09L209.67,244.44L210.88,244.11L230.27,241.67L231.48,241.67L233.91,241.1L235.12,241.1L239.97,240.77L241.18,240.77L242.39,239.79L243.6,239.79L246.03,239.22L247.24,238.9L256.93,237.51L258.15,237.51L266.63,236.37L267.84,235.56L270.27,235.56L271.48,234.17L272.69,232.46L273.9,232.38L279.96,231.81L281.17,231.81L282.38,230.42L283.6,230.42L287.23,227.49L288.44,227.49L292.08,226.02L293.29,226.02L294.5,226.02L295.72,224.72L301.78,223.42L302.99,223.42L304.2,223.25" style="vector-effect: non-scaling-stroke; fill: none; stroke: rgb(230, 25, 75); stroke-opacity: 1; stroke-width: 2px; opacity: 1;"/></g><g class="points"/><g class="text"/></g><g class="trace scatter tracec22075" style="stroke-miterlimit: 2; opacity: 1;"><g class="fills"/><g class="errorbars"/><g class="lines"><path class="js-line" d="M0,256.5L104.23,255.77L105.44,255.69L117.56,255.03L118.77,254.87L139.37,254.06L140.59,254.06L159.98,253.32L161.19,253.16L178.16,252.43L179.37,252.34L185.43,252.18L186.64,252.18L203.61,251.45L204.82,251.04L209.67,250.14L210.88,250.14L221.79,249L223,248.68L232.69,247.29L233.91,247.13L239.97,246.23L241.18,245.82L249.66,243.22L250.87,242.73L260.57,242.08L261.78,241.67L267.84,241.1L269.05,241.1L289.66,239.06L290.87,238.9L296.93,237.59L298.14,237.11L304.2,236.62" style="vector-effect: non-scaling-stroke; fill: none; stroke: rgb(60, 180, 75); stroke-opacity: 1; stroke-width: 2px; opacity: 1;"/></g><g class="points"/><g class="text"/></g><g class="trace scatter trace824f93" style="stroke-miterlimit: 2; opacity: 1;"><g class="fills"/><g class="errorbars"/><g class="lines"><path class="js-line" d="M0,256.5L111.5,255.77L112.71,255.69L183,254.95L184.22,254.87L198.76,254.63L199.97,254.63L212.09,254.22L213.3,253.73L214.52,254.46L215.73,253.65L225.42,253.32L226.64,252.59L236.33,252.26L237.54,251.69L247.24,250.39L248.45,250.06L256.93,249.08L258.15,248.92L264.21,248.43L265.42,248.11L266.63,247.05L267.84,247.05L281.17,245.42L282.38,245.09L284.81,244.52L286.02,244.52L288.44,243.62L289.66,243.22L292.08,242.73L293.29,242.73L296.93,242.4L298.14,241.51L301.78,241.1L302.99,241.02L304.2,241.02" style="vector-effect: non-scaling-stroke; fill: none; stroke: rgb(255, 225, 25); stroke-opacity: 1; stroke-width: 2px; opacity: 1;"/></g><g class="points"/><g class="text"/></g><g class="trace scatter trace636abd" style="stroke-miterlimit: 2; opacity: 1;"><g class="fills"/><g class="errorbars"/><g class="lines"><path class="js-line" d="M0,256.5L99.38,255.85L100.59,255.69L116.35,255.03L117.56,254.87L130.89,253.81L132.1,253.81L140.59,253.08L141.8,253L150.28,252.51L151.49,252.43L155.13,252.02L156.34,252.02L163.61,251.28L164.83,251.12L189.06,249.41L190.28,249L199.97,247.94L201.18,247.21L203.61,246.56L204.82,246.15L209.67,245.01L210.88,244.2L219.36,241.34L220.58,240.2L227.85,238.57L229.06,236.05L231.48,234.66L232.69,234.58L235.12,234.42L236.33,233.19L238.75,231.73L239.97,231.73L242.39,231.08L243.6,230.91L248.45,227.73L249.66,227.33L252.09,227.16L253.3,224.96L260.57,223.33L261.78,222.36L277.54,218.28L278.75,218.28L281.17,217.14L282.38,217.14L284.81,216.73L286.02,216.73L290.87,215.35L292.08,215.19L296.93,214.61L298.14,214.13L301.78,213.39L302.99,213.47L304.2,213.39" style="vector-effect: non-scaling-stroke; fill: none; stroke: rgb(67, 99, 216); stroke-opacity: 1; stroke-width: 2px; opacity: 1;"/></g><g class="points"/><g class="text"/></g><g class="trace scatter trace375a13" style="stroke-miterlimit: 2; opacity: 1;"><g class="fills"/><g class="errorbars"/><g class="lines"><path class="js-line" d="M0,256.5L73.93,255.85L75.14,255.44L81.2,251.94L82.41,249.74L90.9,228.3L92.11,223.74L94.53,215.43L95.74,206.87L98.17,199.13L99.38,199.13L103.02,176.56L104.23,171.43L105.44,169.31L106.65,165.31L107.86,162.95L109.08,152.36L110.29,149.02L111.5,142.74L112.71,138.91L113.92,129.38L115.14,127.75L116.35,124.32L119.98,111.29L121.2,109.66L122.41,102.97L123.62,102.24L129.68,91.24L130.89,86.84L133.31,84.97L134.53,82.11L139.37,76.25L140.59,76.16L141.8,75.11L143.01,71.11L144.22,70.38L145.43,68.02L146.65,67.2L147.86,64.27L151.49,63.53L152.71,60.44L153.92,60.11L155.13,58.89L157.55,55.96L158.77,55.79L162.4,53.43L163.61,43.57L164.83,42.43L166.04,42.35L167.25,41.94L168.46,40.47L172.1,39.41L173.31,39.01L180.58,38.03L181.79,37.54L186.64,37.05L187.85,36.4L191.49,35.66L192.7,35.58L196.34,34.2L197.55,34.2L201.18,34.04L202.4,33.14L206.03,32.57L207.24,31.75L213.3,30.78L214.52,30.45L216.94,29.88L218.15,29.88L229.06,28.98L230.27,28.49L236.33,27.6L237.54,27.6L239.97,26.38L241.18,26.38L247.24,25.64L248.45,25.48L262.99,23.12L264.21,22.46L278.75,20.43L279.96,17.82L282.38,16.92L283.6,16.84L288.44,16.19L289.66,16.03L294.5,15.37L295.72,15.05L300.56,13.91L301.78,13.91L304.2,13.5" style="vector-effect: non-scaling-stroke; fill: none; stroke: rgb(245, 130, 49); stroke-opacity: 1; stroke-width: 2px; opacity: 1;"/></g><g class="points"/><g class="text"/></g><g class="trace scatter tracef72c68" style="stroke-miterlimit: 2; opacity: 1;"><g class="fills"/><g class="errorbars"/><g class="lines"><path class="js-line" d="M0,256.5L92.11,255.77L93.32,255.44L113.92,254.71L115.14,254.63L122.41,254.22L123.62,254.22L146.65,252.59L147.86,252.1L152.71,251.69L153.92,251.69L162.4,251.12L163.61,250.88L169.67,249.98L170.89,249.9L178.16,249.08L179.37,248.92L186.64,248.19L187.85,248.11L203.61,245.74L204.82,245.25L215.73,242.97L216.94,242.97L220.58,242.4L221.79,241.91L227.85,241.18L229.06,240.69L242.39,239.14L243.6,238.82L254.51,237.35L255.72,236.78L261.78,236.21L262.99,236.13L279.96,234.58L281.17,234.17L287.23,233.44L288.44,233.36L294.5,232.62L295.72,232.54L304.2,231.16" style="vector-effect: non-scaling-stroke; fill: none; stroke: rgb(145, 30, 180); stroke-opacity: 1; stroke-width: 2px; opacity: 1;"/></g><g class="points"/><g class="text"/></g></g></g><g class="overplot"/><path class="xlines-above crisp" d="M0,0" style="fill: none;"/><path class="ylines-above crisp" d="M0,0" style="fill: none;"/><g class="overlines-above"/><g class="xaxislayer-above"><g class="x2tick"><text text-anchor="middle" x="0" y="383" transform="translate(499.07,0)" style="font-family: 'Open Sans', verdana, arial, sans-serif; font-size: 12px; fill: rgb(242, 245, 250); fill-opacity: 1; white-space: pre;">Mar 2020</text></g><g class="x2tick"><text text-anchor="middle" x="0" y="383" transform="translate(573,0)" style="font-family: 'Open Sans', verdana, arial, sans-serif; font-size: 12px; fill: rgb(242, 245, 250); fill-opacity: 1; white-space: pre;">May 2020</text></g><g class="x2tick"><text text-anchor="middle" x="0" y="383" transform="translate(646.9200000000001,0)" style="font-family: 'Open Sans', verdana, arial, sans-serif; font-size: 12px; fill: rgb(242, 245, 250); fill-opacity: 1; white-space: pre;">Jul 2020</text></g><g class="x2tick"><text text-anchor="middle" x="0" y="383" transform="translate(722.0699999999999,0)" style="font-family: 'Open Sans', verdana, arial, sans-serif; font-size: 12px; fill: rgb(242, 245, 250); fill-opacity: 1; white-space: pre;">Sep 2020</text></g></g><g class="yaxislayer-above"><g class="y2tick"><text text-anchor="end" x="450.8" y="4.199999999999999" transform="translate(0,356.5)" style="font-family: 'Open Sans', verdana, arial, sans-serif; font-size: 12px; fill: rgb(242, 245, 250); fill-opacity: 1; white-space: pre;">0</text></g><g class="y2tick"><text text-anchor="end" x="450.8" y="4.199999999999999" transform="translate(0,315.76)" style="font-family: 'Open Sans', verdana, arial, sans-serif; font-size: 12px; fill: rgb(242, 245, 250); fill-opacity: 1; white-space: pre;">500</text></g><g class="y2tick"><text text-anchor="end" x="450.8" y="4.199999999999999" transform="translate(0,275.01)" style="font-family: 'Open Sans', verdana, arial, sans-serif; font-size: 12px; fill: rgb(242, 245, 250); fill-opacity: 1; white-space: pre;">1000</text></g><g class="y2tick"><text text-anchor="end" x="450.8" y="4.199999999999999" transform="translate(0,234.27)" style="font-family: 'Open Sans', verdana, arial, sans-serif; font-size: 12px; fill: rgb(242, 245, 250); fill-opacity: 1; white-space: pre;">1500</text></g><g class="y2tick"><text text-anchor="end" x="450.8" y="4.199999999999999" transform="translate(0,193.51999999999998)" style="font-family: 'Open Sans', verdana, arial, sans-serif; font-size: 12px; fill: rgb(242, 245, 250); fill-opacity: 1; white-space: pre;">2000</text></g><g class="y2tick"><text text-anchor="end" x="450.8" y="4.199999999999999" transform="translate(0,152.78)" style="font-family: 'Open Sans', verdana, arial, sans-serif; font-size: 12px; fill: rgb(242, 245, 250); fill-opacity: 1; white-space: pre;">2500</text></g><g class="y2tick"><text text-anchor="end" x="450.8" y="4.199999999999999" transform="translate(0,112.03)" style="font-family: 'Open Sans', verdana, arial, sans-serif; font-size: 12px; fill: rgb(242, 245, 250); fill-opacity: 1; white-space: pre;">3000</text></g></g><g class="overaxes-above"/></g></g><g class="polarlayer"/><g class="ternarylayer"/><g class="geolayer"/><g class="funnelarealayer"/><g class="pielayer"/><g class="treemaplayer"/><g class="sunburstlayer"/><g class="glimages"/><defs id="topdefs-517631"><g class="clips"/><clipPath id="legend517631"><rect width="118" height="124" x="0" y="0"/></clipPath></defs><g class="layer-above"><g class="imagelayer"/><g class="shapelayer"/></g><g class="infolayer"><g class="legend" pointer-events="all" transform="translate(769.52, 100)"><rect class="bg" shape-rendering="crispEdges" width="118" height="124" x="0" y="0" style="stroke: rgb(68, 68, 68); stroke-opacity: 1; fill: rgb(17, 17, 17); fill-opacity: 1; stroke-width: 0px;"/><g class="scrollbox" transform="translate(0, 0)" clip-path="url('#legend517631')"><g class="groups"><g class="traces" transform="translate(0, 14.5)" style="opacity: 1;"><text class="legendtext user-select-none" text-anchor="start" x="40" y="4.680000000000001" style="font-family: 'Open Sans', verdana, arial, sans-serif; font-size: 12px; fill: rgb(242, 245, 250); fill-opacity: 1; white-space: pre;">Alameda, CA</text><g class="layers" style="opacity: 1;"><g class="legendfill"/><g class="legendlines"><path class="js-line" d="M5,0h30" style="fill: none; stroke: rgb(230, 25, 75); stroke-opacity: 1; stroke-width: 2px;"/></g><g class="legendsymbols"><g class="legendpoints"/></g></g><rect class="legendtoggle" pointer-events="all" x="0" y="-9.5" width="112.703125" height="19" style="cursor: pointer; fill: rgb(0, 0, 0); fill-opacity: 0;"/></g><g class="traces" transform="translate(0, 33.5)" style="opacity: 1;"><text class="legendtext user-select-none" text-anchor="start" x="40" y="4.680000000000001" style="font-family: 'Open Sans', verdana, arial, sans-serif; font-size: 12px; fill: rgb(242, 245, 250); fill-opacity: 1; white-space: pre;">Volusia, FL</text><g class="layers" style="opacity: 1;"><g class="legendfill"/><g class="legendlines"><path class="js-line" d="M5,0h30" style="fill: none; stroke: rgb(60, 180, 75); stroke-opacity: 1; stroke-width: 2px;"/></g><g class="legendsymbols"><g class="legendpoints"/></g></g><rect class="legendtoggle" pointer-events="all" x="0" y="-9.5" width="112.703125" height="19" style="cursor: pointer; fill: rgb(0, 0, 0); fill-opacity: 0;"/></g><g class="traces" transform="translate(0, 52.5)" style="opacity: 1;"><text class="legendtext user-select-none" text-anchor="start" x="40" y="4.680000000000001" style="font-family: 'Open Sans', verdana, arial, sans-serif; font-size: 12px; fill: rgb(242, 245, 250); fill-opacity: 1; white-space: pre;">Lake, FL</text><g class="layers" style="opacity: 1;"><g class="legendfill"/><g class="legendlines"><path class="js-line" d="M5,0h30" style="fill: none; stroke: rgb(255, 225, 25); stroke-opacity: 1; stroke-width: 2px;"/></g><g class="legendsymbols"><g class="legendpoints"/></g></g><rect class="legendtoggle" pointer-events="all" x="0" y="-9.5" width="112.703125" height="19" style="cursor: pointer; fill: rgb(0, 0, 0); fill-opacity: 0;"/></g><g class="traces" transform="translate(0, 71.5)" style="opacity: 1;"><text class="legendtext user-select-none" text-anchor="start" x="40" y="4.680000000000001" style="font-family: 'Open Sans', verdana, arial, sans-serif; font-size: 12px; fill: rgb(242, 245, 250); fill-opacity: 1; white-space: pre;">Polk, FL</text><g class="layers" style="opacity: 1;"><g class="legendfill"/><g class="legendlines"><path class="js-line" d="M5,0h30" style="fill: none; stroke: rgb(67, 99, 216); stroke-opacity: 1; stroke-width: 2px;"/></g><g class="legendsymbols"><g class="legendpoints"/></g></g><rect class="legendtoggle" pointer-events="all" x="0" y="-9.5" width="112.703125" height="19" style="cursor: pointer; fill: rgb(0, 0, 0); fill-opacity: 0;"/></g><g class="traces" transform="translate(0, 90.5)" style="opacity: 1;"><text class="legendtext user-select-none" text-anchor="start" x="40" y="4.680000000000001" style="font-family: 'Open Sans', verdana, arial, sans-serif; font-size: 12px; fill: rgb(242, 245, 250); fill-opacity: 1; white-space: pre;">Wayne, MI</text><g class="layers" style="opacity: 1;"><g class="legendfill"/><g class="legendlines"><path class="js-line" d="M5,0h30" style="fill: none; stroke: rgb(245, 130, 49); stroke-opacity: 1; stroke-width: 2px;"/></g><g class="legendsymbols"><g class="legendpoints"/></g></g><rect class="legendtoggle" pointer-events="all" x="0" y="-9.5" width="112.703125" height="19" style="cursor: pointer; fill: rgb(0, 0, 0); fill-opacity: 0;"/></g><g class="traces" transform="translate(0, 109.5)" style="opacity: 1;"><text class="legendtext user-select-none" text-anchor="start" x="40" y="4.680000000000001" style="font-family: 'Open Sans', verdana, arial, sans-serif; font-size: 12px; fill: rgb(242, 245, 250); fill-opacity: 1; white-space: pre;">Davidson, TN</text><g class="layers" style="opacity: 1;"><g class="legendfill"/><g class="legendlines"><path class="js-line" d="M5,0h30" style="fill: none; stroke: rgb(145, 30, 180); stroke-opacity: 1; stroke-width: 2px;"/></g><g class="legendsymbols"><g class="legendpoints"/></g></g><rect class="legendtoggle" pointer-events="all" x="0" y="-9.5" width="112.703125" height="19" style="cursor: pointer; fill: rgb(0, 0, 0); fill-opacity: 0;"/></g></g></g><rect class="scrollbar" rx="20" ry="3" width="0" height="0" x="0" y="0" style="fill: rgb(128, 139, 164); fill-opacity: 1;"/></g><g class="g-gtitle"/><g class="g-xtitle"><text class="xtitle" x="232.1" y="410.8" text-anchor="middle" style="font-family: 'Open Sans', verdana, arial, sans-serif; font-size: 14px; fill: rgb(242, 245, 250); opacity: 1; font-weight: normal; white-space: pre;">Date</text></g><g class="g-x2title"><text class="x2title" x="603.9" y="410.8" text-anchor="middle" style="font-family: 'Open Sans', verdana, arial, sans-serif; font-size: 14px; fill: rgb(242, 245, 250); opacity: 1; font-weight: normal; white-space: pre;">Date</text></g><g class="g-ytitle"><text class="ytitle" transform="rotate(-90,34.840625,235)" x="34.840625" y="235" text-anchor="middle" style="font-family: 'Open Sans', verdana, arial, sans-serif; font-size: 14px; fill: rgb(242, 245, 250); opacity: 1; font-weight: normal; white-space: pre;">Cases</text></g><g class="g-y2title"><text class="y2title" transform="rotate(-90,399.29375,235)" x="399.29375" y="235" text-anchor="middle" style="font-family: 'Open Sans', verdana, arial, sans-serif; font-size: 14px; fill: rgb(242, 245, 250); opacity: 1; font-weight: normal; white-space: pre;">Deaths</text></g><g class="annotation" data-index="0" style="opacity: 1;"><g class="annotation-text-g" transform="rotate(0,232.1,89.5)"><g class="cursor-pointer" transform="translate(208, 79)"><rect class="bg" x="0.5" y="0.5" width="48" height="20" style="stroke-width: 1px; stroke: rgb(0, 0, 0); stroke-opacity: 0; fill: rgb(0, 0, 0); fill-opacity: 0;"/><text class="annotation-text" text-anchor="middle" x="24.6875" y="16" style="font-family: 'Open Sans', verdana, arial, sans-serif; font-size: 16px; fill: rgb(242, 245, 250); fill-opacity: 1; white-space: pre;">Cases</text></g></g></g><g class="annotation" data-index="1" style="opacity: 1;"><g class="annotation-text-g" transform="rotate(0,603.9,89.5)"><g class="cursor-pointer" transform="translate(576, 79)"><rect class="bg" x="0.5" y="0.5" width="54" height="20" style="stroke-width: 1px; stroke: rgb(0, 0, 0); stroke-opacity: 0; fill: rgb(0, 0, 0); fill-opacity: 0;"/><text class="annotation-text" text-anchor="middle" x="27.359375" y="16" style="font-family: 'Open Sans', verdana, arial, sans-serif; font-size: 16px; fill: rgb(242, 245, 250); fill-opacity: 1; white-space: pre;">Deaths</text></g></g></g></g></svg>