<svg class="main-svg" xmlns="http://www.w3.org/2000/svg" xmlns:xlink="http://www.w3.org/1999/xlink" width="900" height="450" style="" viewBox="0 0 900 450"><rect x="0" y="0" width="900" height="450" style="fill: rgb(17, 17, 17); fill-opacity: 1;"/><defs id="defs-8b3ca1"><g class="clips"><clipPath id="clip8b3ca1xyplot" class="plotclip"><rect width="297.90000000000003" height="270"/></clipPath><clipPath id="clip8b3ca1x2y2plot" class="plotclip"><rect width="297.9" height="270"/></clipPath><clipPath class="axesclip" id="clip8b3ca1x"><rect x="80" y="0" width="297.90000000000003" height="450"/></clipPath><clipPath class="axesclip" id="clip8b3ca1y"><rect x="0" y="100" width="900" height="270"/></clipPath><clipPath class="axesclip" id="clip8b3ca1xy"><rect x="80" y="100" width="297.90000000000003" height="270"/></clipPath><clipPath class="axesclip" id="clip8b3ca1y2"><rect x="0" y="100" width="900" height="270"/></clipPath><clipPath class="axesclip" id="clip8b3ca1xy2"><rect x="80" y="100" width="297.90000000000003" height="270"/></clipPath><clipPath class="axesclip" id="clip8b3ca1x2"><rect x="444.1" y="0" width="297.9" height="450"/></clipPath><clipPath class="axesclip" id="clip8b3ca1x2y"><rect x="444.1" y="100" width="297.9" height="270"/></clipPath><clipPath class="axesclip" id="clip8b3ca1x2y2"><rect x="444.1" y="100" width="297.9" height="270"/></clipPath></g><g class="gradients"/></defs><g class="bglayer"/><g class="layer-below"><g class="imagelayer"/><g class="shapelayer"/></g><g class="cartesianlayer"><g class="subplot xy"><g class="layer-subplot"><g class="shapelayer"/><g class="imagelayer"/></g><g class="gridlayer"><g class="x"><path class="xgrid crisp" transform="translate(123.35,0)" d="M0,100v270" style="stroke: rgb(40, 52, 66); stroke-opacity: 1; stroke-width: 1px;"/><path class="xgrid crisp" transform="translate(191.16,0)" d="M0,100v270" style="stroke: rgb(40, 52, 66); stroke-opacity: 1; stroke-width: 1px;"/><path class="xgrid crisp" transform="translate(258.96000000000004,0)" d="M0,100v270" style="stroke: rgb(40, 52, 66); stroke-opacity: 1; stroke-width: 1px;"/><path class="xgrid crisp" transform="translate(327.88,0)" d="M0,100v270" style="stroke: rgb(40, 52, 66); stroke-opacity: 1; stroke-width: 1px;"/></g><g class="y"><path class="ygrid crisp" transform="translate(0,307.45)" d="M80,0h297.90000000000003" style="stroke: rgb(40, 52, 66); stroke-opacity: 1; stroke-width: 1px;"/><path class="ygrid crisp" transform="translate(0,258.39)" d="M80,0h297.90000000000003" style="stroke: rgb(40, 52, 66); stroke-opacity: 1; stroke-width: 1px;"/><path class="ygrid crisp" transform="translate(0,209.34)" d="M80,0h297.90000000000003" style="stroke: rgb(40, 52, 66); stroke-opacity: 1; stroke-width: 1px;"/><path class="ygrid crisp" transform="translate(0,160.29)" d="M80,0h297.90000000000003" style="stroke: rgb(40, 52, 66); stroke-opacity: 1; stroke-width: 1px;"/><path class="ygrid crisp" transform="translate(0,111.23)" d="M80,0h297.90000000000003" style="stroke: rgb(40, 52, 66); stroke-opacity: 1; stroke-width: 1px;"/></g></g><g class="zerolinelayer"><path class="yzl zl crisp" transform="translate(0,356.5)" d="M80,0h297.90000000000003" style="stroke: rgb(40, 52, 66); stroke-opacity: 1; stroke-width: 2px;"/></g><path class="xlines-below"/><path class="ylines-below"/><g class="overlines-below"/><g class="xaxislayer-below"/><g class="yaxislayer-below"/><g class="overaxes-below"/><g class="plot" transform="translate(80, 100)" clip-path="url('#clip8b3ca1xyplot')"><g class="scatterlayer mlayer"><g class="trace scatter tracead04a3" style="stroke-miterlimit: 2; opacity: 1;"><g class="fills"/><g class="errorbars"/><g class="lines"><path class="js-line" d="M0,256.5L65.58,255.86L66.69,255.46L75.59,253.72L76.7,253.43L91.15,247.83L92.26,247.83L96.71,245.57L97.82,245.08L101.15,243.94L102.26,243.26L107.82,241.46L108.93,241.12L118.94,237.26L120.05,236.65L130.05,232.4L131.16,231.76L134.5,229.93L135.61,229.35L146.73,222.02L147.84,221.69L153.4,217.8L154.51,217.4L156.73,216.09L157.84,215.14L163.4,212.03L164.51,211L167.85,209.36L168.96,207.38L174.52,201.48L175.63,200.87L176.74,199.97L177.85,197.99L181.19,193.01L182.3,192.18L183.41,189.25L184.52,188.93L185.63,188.93L186.74,185.42L190.08,180.71L191.19,180.71L194.52,173.33L195.64,171.86L198.97,165.88L200.08,165.69L201.19,164.45L202.31,161.9L205.64,155.16L206.75,154.76L207.86,154.1L208.97,152.18L210.09,150.81L211.2,147.3L212.31,147.3L213.42,143.83L214.53,143.44L215.64,140.28L216.76,139.66L217.87,137.44L221.2,137.44L222.31,127.01L223.42,126.82L224.54,122.45L225.65,118.18L226.76,116.9L227.87,113.68L228.98,113.68L230.09,108.13L231.21,108.06L236.76,92.73L237.88,92.44L238.99,92.34L240.1,87.02L241.21,85.94L242.32,83.63L243.43,81.41L244.54,81.41L252.33,68.81L253.44,68.81L254.55,66.66L255.66,66.66L257.88,63.13L259,62.06L260.11,61.89L261.22,60.38L265.66,58.7L266.78,56.72L270.11,54L271.22,52.95L279,47.31L280.11,46.72L289.01,41.27L290.12,41.23L292.34,39.2L293.45,39.2L295.68,37.48L296.79,37.04L297.9,36.66" style="vector-effect: non-scaling-stroke; fill: none; stroke: rgb(230, 25, 75); stroke-opacity: 1; stroke-width: 2px; opacity: 1;"/></g><g class="points"/><g class="text"/></g><g class="trace scatter trace592b28" style="stroke-miterlimit: 2; opacity: 1;"><g class="fills"/><g class="errorbars"/><g class="lines"><path class="js-line" d="M0,256.5L84.48,255.77L85.59,255.71L111.16,253.02L112.27,252.78L131.16,247.6L132.28,246.75L140.06,242.31L141.17,241.38L153.4,235.62L154.51,234.71L156.73,232.6L157.84,231.55L162.29,227.45L163.4,227.11L166.74,224.89L167.85,224.54L171.18,222.74L172.29,222.03L175.63,220.89L176.74,219.45L196.75,208.3L197.86,207.01L203.42,202.55L204.53,201.57L208.97,198.42L210.09,198.41L213.42,195.78L214.53,194.75L218.98,192.1L220.09,191.22L221.2,190.36L222.31,188.12L224.54,188.13L225.65,186.85L234.54,183.41L235.65,183.41L237.88,182.17L238.99,181.53L241.21,180.99L242.32,180.11L244.54,179.18L245.66,178.25L251.21,176.73L252.33,176.34L261.22,173.64L262.33,173.24L274.56,170.06L275.67,169.83L286.78,167.61L287.9,167.39L292.34,165.81L293.45,165.33L297.9,163.13" style="vector-effect: non-scaling-stroke; fill: none; stroke: rgb(60, 180, 75); stroke-opacity: 1; stroke-width: 2px; opacity: 1;"/></g><g class="points"/><g class="text"/></g><g class="trace scatter tracef23e64" style="stroke-miterlimit: 2; opacity: 1;"><g class="fills"/><g class="errorbars"/><g class="lines"><path class="js-line" d="M0,256.5L112.27,255.83L113.38,255.6L156.73,254.76L157.84,254.76L173.4,254.05L174.52,253.94L188.97,252.25L190.08,251.97L191.19,251.84L192.3,250.72L193.41,250.38L194.52,247.39L196.75,245.22L197.86,244.91L201.19,242.22L202.31,241.56L204.53,236.79L205.64,236.15L210.09,233.71L211.2,232.59L226.76,227.48L227.87,227.22L231.21,226.63L232.32,226.37L248.99,223.33L250.1,223.27L297.9,216.44" style="vector-effect: non-scaling-stroke; fill: none; stroke: rgb(255, 225, 25); stroke-opacity: 1; stroke-width: 2px; opacity: 1;"/></g><g class="points"/><g class="text"/></g><g class="trace scatter trace364edc" style="stroke-miterlimit: 2; opacity: 1;"><g class="fills"/><g class="errorbars"/><g class="lines"><path class="js-line" d="M0,256.49L50.02,255.8L51.13,255.69L56.69,253.28L57.8,252.7L62.25,250.99L63.36,249.7L70.03,243.17L71.14,241.03L74.48,235.3L75.59,233.64L76.7,233.64L77.81,232.01L84.48,222.56L85.59,220.51L90.04,213.12L91.15,212.19L97.82,206.12L98.93,204.91L110.05,195.61L111.16,194.95L125.61,184.98L126.72,184.64L128.94,183.19L130.05,182.77L138.95,179.63L140.06,179.36L152.28,173.53L153.4,173.15L160.07,170.93L161.18,170.31L168.96,165.72L170.07,164.61L175.63,159.42L176.74,158.21L184.52,147.55L185.63,146.8L190.08,143.01L191.19,140.49L193.41,136.68L194.52,135.58L200.08,125.83L201.19,124.55L211.2,109.09L212.31,109.09L214.53,104.43L215.64,103.42L218.98,98.76L220.09,97.35L221.2,97.35L222.31,93.94L227.87,86.7L228.98,84.9L233.43,79.38L234.54,76.99L235.65,76.63L236.76,74.55L242.32,68.58L243.43,66.94L246.77,63.79L247.88,63.25L254.55,57.09L255.66,57.09L259,54.01L260.11,52.69L269,46.03L270.11,46.03L281.23,35.48L282.34,33.32L285.67,29.73L286.78,28.72L291.23,22.96L292.34,22.96L293.45,22.96L294.57,18.13L297.9,13.5" style="vector-effect: non-scaling-stroke; fill: none; stroke: rgb(67, 99, 216); stroke-opacity: 1; stroke-width: 2px; opacity: 1;"/></g><g class="points"/><g class="text"/></g><g class="trace scatter tracef15790" style="stroke-miterlimit: 2; opacity: 1;"><g class="fills"/><g class="errorbars"/><g class="lines"><path class="js-line" d="M0,256.5L82.26,255.8L83.37,255.71L108.93,253.17L110.05,252.83L124.5,251.34L125.61,251.23L143.39,249.46L144.5,249.2L150.06,248.26L151.17,248.01L163.4,243.53L164.51,242.73L180.07,233.04L181.19,231.67L184.52,229.42L185.63,228.16L186.74,227.03L187.85,227.03L188.97,211.05L190.08,210.08L193.41,203.95L194.52,202.37L195.64,199.82L196.75,199.82L197.86,195.48L198.97,194.26L200.08,192.65L201.19,189.44L202.31,187.98L203.42,183.89L207.86,175.78L208.97,175.19L214.53,166.04L215.64,165.49L218.98,164.2L220.09,162.65L221.2,161.68L222.31,158.76L223.42,155.8L224.54,150.01L225.65,142.77L226.76,141.89L230.09,133.46L231.21,132.22L232.32,131.46L233.43,129.6L236.76,126.19L237.88,125.23L240.1,123.85L241.21,120.27L242.32,118.16L243.43,118.16L245.66,113.81L246.77,112.19L250.1,109.13L251.21,107.75L256.77,102.62L257.88,101.99L262.33,99.29L263.44,99.02L265.66,98.06L266.78,97.28L271.22,95.62L272.33,95.36L281.23,93.91L282.34,93.37L284.56,92.3L285.67,92.08L287.9,91.64L289.01,90.84L290.12,90.84L291.23,89.7L297.9,87.78" style="vector-effect: non-scaling-stroke; fill: none; stroke: rgb(245, 130, 49); stroke-opacity: 1; stroke-width: 2px; opacity: 1;"/></g><g class="points"/><g class="text"/></g><g class="trace scatter trace81073d" style="stroke-miterlimit: 2; opacity: 1;"><g class="fills"/><g class="errorbars"/><g class="lines"><path class="js-line" d="M0,256.5L70.03,256L71.14,255.71L77.81,253.66L78.92,253.04L84.48,250.1L85.59,248L91.15,243.15L92.26,242.99L94.48,241.63L95.59,241.11L104.49,233.08L105.6,231.89L107.82,230.69L108.93,229.62L111.16,226.94L112.27,225.27L114.49,222.85L115.6,222.85L118.94,219.84L120.05,219.84L127.83,211.87L128.94,211.14L133.39,206.12L134.5,205.78L137.83,202.56L138.95,202.56L141.17,200.8L142.28,199.41L147.84,193.15L148.95,192.97L152.28,190.25L153.4,189.65L156.73,187.97L157.84,187.33L165.62,184.26L166.74,184.26L173.4,184.26L174.52,179.98L180.07,176.98L181.19,176.22L188.97,172.31L190.08,171.39L195.64,165.64L196.75,166.82L198.97,161.11L200.08,160.08L204.53,153.29L205.64,150.61L210.09,144.43L211.2,142.55L216.76,133.62L217.87,132.24L221.2,128.37L222.31,126.44L223.42,125.29L224.54,125.29L227.87,122.1L228.98,120.65L234.54,115.94L235.65,114.53L240.1,111.08L241.21,110.2L247.88,103.52L248.99,102.82L253.44,97.73L254.55,96.57L259,94.43L260.11,93.17L263.44,90.65L264.55,88.1L280.11,79.97L281.23,78.46L289.01,73.35L290.12,72.14L297.9,66.14" style="vector-effect: non-scaling-stroke; fill: none; stroke: rgb(145, 30, 180); stroke-opacity: 1; stroke-width: 2px; opacity: 1;"/></g><g class="points"/><g class="text"/></g></g></g><g class="overplot"/><path class="xlines-above crisp" d="M0,0" style="fill: none;"/><path class="ylines-above crisp" d="M0,0" style="fill: none;"/><g class="overlines-above"/><g class="xaxislayer-above"><g class="xtick"><text text-anchor="middle" x="0" y="383" transform="translate(123.35,0)" style="font-family: 'Open Sans', verdana, arial, sans-serif; font-size: 12px; fill: rgb(242, 245, 250); fill-opacity: 1; white-space: pre;">Mar 2020</text></g><g class="xtick"><text text-anchor="middle" x="0" y="383" transform="translate(191.16,0)" style="font-family: 'Open Sans', verdana, arial, sans-serif; font-size: 12px; fill: rgb(242, 245, 250); fill-opacity: 1; white-space: pre;">May 2020</text></g><g class="xtick"><text text-anchor="middle" x="0" y="383" transform="translate(258.96000000000004,0)" style="font-family: 'Open Sans', verdana, arial, sans-serif; font-size: 12px; fill: rgb(242, 245, 250); fill-opacity: 1; white-space: pre;">Jul 2020</text></g><g class="xtick"><text text-anchor="middle" x="0" y="383" transform="translate(327.88,0)" style="font-family: 'Open Sans', verdana, arial, sans-serif; font-size: 12px; fill: rgb(242, 245, 250); fill-opacity: 1; white-space: pre;">Sep 2020</text></g></g><g class="yaxislayer-above"><g class="ytick"><text text-anchor="end" x="79" y="4.199999999999999" transform="translate(0,356.5)" style="font-family: 'Open Sans', verdana, arial, sans-serif; font-size: 12px; fill: rgb(242, 245, 250); fill-opacity: 1; white-space: pre;">0</text></g><g class="ytick"><text text-anchor="end" x="79" y="4.199999999999999" transform="translate(0,307.45)" style="font-family: 'Open Sans', verdana, arial, sans-serif; font-size: 12px; fill: rgb(242, 245, 250); fill-opacity: 1; white-space: pre;">5k</text></g><g class="ytick"><text text-anchor="end" x="79" y="4.199999999999999" transform="translate(0,258.39)" style="font-family: 'Open Sans', verdana, arial, sans-serif; font-size: 12px; fill: rgb(242, 245, 250); fill-opacity: 1; white-space: pre;">10k</text></g><g class="ytick"><text text-anchor="end" x="79" y="4.199999999999999" transform="translate(0,209.34)" style="font-family: 'Open Sans', verdana, arial, sans-serif; font-size: 12px; fill: rgb(242, 245, 250); fill-opacity: 1; white-space: pre;">15k</text></g><g class="ytick"><text text-anchor="end" x="79" y="4.199999999999999" transform="translate(0,160.29)" style="font-family: 'Open Sans', verdana, arial, sans-serif; font-size: 12px; fill: rgb(242, 245, 250); fill-opacity: 1; white-space: pre;">20k</text></g><g class="ytick"><text text-anchor="end" x="79" y="4.199999999999999" transform="translate(0,111.23)" style="font-family: 'Open Sans', verdana, arial, sans-serif; font-size: 12px; fill: rgb(242, 245, 250); fill-opacity: 1; white-space: pre;">25k</text></g></g><g class="overaxes-above"/></g><g class="subplot x2y2"><g class="layer-subplot"><g class="shapelayer"/><g class="imagelayer"/></g><g class="gridlayer"><g class="x2"><path class="x2grid crisp" transform="translate(487.45000000000005,0)" d="M0,100v270" style="stroke: rgb(40, 52, 66); stroke-opacity: 1; stroke-width: 1px;"/><path class="x2grid crisp" transform="translate(555.26,0)" d="M0,100v270" style="stroke: rgb(40, 52, 66); stroke-opacity: 1; stroke-width: 1px;"/><path class="x2grid crisp" transform="translate(623.0600000000001,0)" d="M0,100v270" style="stroke: rgb(40, 52, 66); stroke-opacity: 1; stroke-width: 1px;"/><path class="x2grid crisp" transform="translate(691.98,0)" d="M0,100v270" style="stroke: rgb(40, 52, 66); stroke-opacity: 1; stroke-width: 1px;"/></g><g class="y2"><path class="y2grid crisp" transform="translate(0,295.14)" d="M444.1,0h297.9" style="stroke: rgb(40, 52, 66); stroke-opacity: 1; stroke-width: 1px;"/><path class="y2grid crisp" transform="translate(0,233.77)" d="M444.1,0h297.9" style="stroke: rgb(40, 52, 66); stroke-opacity: 1; stroke-width: 1px;"/><path class="y2grid crisp" transform="translate(0,172.41)" d="M444.1,0h297.9" style="stroke: rgb(40, 52, 66); stroke-opacity: 1; stroke-width: 1px;"/><path class="y2grid crisp" transform="translate(0,111.05)" d="M444.1,0h297.9" style="stroke: rgb(40, 52, 66); stroke-opacity: 1; stroke-width: 1px;"/></g></g><g class="zerolinelayer"><path class="y2zl zl crisp" transform="translate(0,356.5)" d="M444.1,0h297.9" style="stroke: rgb(40, 52, 66); stroke-opacity: 1; stroke-width: 2px;"/></g><path class="xlines-below"/><path class="ylines-below"/><g class="overlines-below"/><g class="xaxislayer-below"/><g class="yaxislayer-below"/><g class="overaxes-below"/><g class="plot" transform="translate(444.1, 100)" clip-path="url('#clip8b3ca1x2y2plot')"><g class="scatterlayer mlayer"><g class="trace scatter trace5caae2" style="stroke-miterlimit: 2; opacity: 1;"><g class="fills"/><g class="errorbars"/><g class="lines"><path class="js-line" d="M0,256.5L70.03,255.89L71.14,255.27L73.36,254.66L74.47,254.35L78.92,253.74L80.03,252.82L83.37,252.51L84.48,251.9L88.93,250.06L90.04,249.44L92.26,249.44L93.37,245.45L95.59,244.53L96.71,243.92L103.38,241.77L104.49,240.55L106.71,240.55L107.82,239.63L112.27,237.17L113.38,237.17L114.49,237.17L115.6,236.25L117.83,235.94L118.94,235.02L123.38,233.8L124.5,233.18L127.83,231.03L128.94,231.03L130.05,231.03L131.16,230.11L135.61,228.27L136.72,227.97L143.39,227.35L144.5,227.05L148.95,226.74L150.06,225.51L154.51,225.2L155.62,224.28L157.84,223.06L158.95,223.06L161.18,222.14L162.29,222.14L164.51,220.6L165.62,220.3L170.07,219.68L171.18,219.07L173.4,216.61L174.52,216.61L176.74,215.69L177.85,215.08L183.41,213.55L184.52,213.55L186.74,212.93L187.85,211.7L192.3,211.09L193.41,209.86L195.64,209.25L196.75,207.1L200.08,206.8L201.19,205.26L204.53,201.89L205.64,201.89L207.86,201.89L208.97,200.97L212.31,200.66L213.42,198.51L215.64,198.51L216.76,197.59L220.09,197.28L221.2,197.28L222.31,193.6L223.42,193.6L224.54,193.6L225.65,191.45L227.87,189.31L228.98,189.31L232.32,187.77L233.43,186.55L235.65,185.01L236.76,185.01L238.99,184.7L240.1,182.86L243.43,180.72L244.54,180.72L245.66,177.65L246.77,177.65L247.88,177.65L248.99,172.43L250.1,165.99L251.21,165.68L253.44,164.76L254.55,164.45L255.66,164.45L256.77,163.53L257.88,163.53L259,158.32L260.11,158.32L261.22,154.64L262.33,154.33L263.44,147.27L264.55,147.27L265.66,144.51L267.89,141.75L269,141.75L270.11,141.75L271.22,136.84L275.67,131.93L276.78,131.93L279,131.32L280.11,130.09L281.23,127.64L282.34,127.64L283.45,126.1L284.56,126.1L286.78,125.49L287.9,124.26L296.79,123.65L297.9,121.81" style="vector-effect: non-scaling-stroke; fill: none; stroke: rgb(230, 25, 75); stroke-opacity: 1; stroke-width: 2px; opacity: 1;"/></g><g class="points"/><g class="text"/></g><g class="trace scatter trace312b70" style="stroke-miterlimit: 2; opacity: 1;"><g class="fills"/><g class="errorbars"/><g class="lines"><path class="js-line" d="M0,256.5L98.93,256.19L100.04,255.58L107.82,254.97L108.93,254.66L115.6,254.05L116.71,252.82L121.16,251.9L122.27,251.9L124.5,250.67L125.61,250.36L130.05,250.36L131.16,249.14L133.39,247.91L134.5,247.6L140.06,246.07L141.17,244.84L144.5,244.23L145.62,243.31L150.06,243L151.17,242.08L152.28,241.77L153.4,239.93L154.51,239.32L155.62,237.78L157.84,235.64L158.95,235.64L161.18,235.33L162.29,234.72L164.51,233.49L165.62,232.88L166.74,231.65L167.85,231.65L168.96,231.65L170.07,229.81L173.4,227.66L174.52,227.35L177.85,226.74L178.96,225.2L181.19,224.28L182.3,224.28L185.63,223.67L186.74,222.44L188.97,221.83L190.08,221.52L193.41,220.91L194.52,219.68L196.75,218.45L197.86,217.84L202.31,216.61L203.42,215.69L205.64,214.16L206.75,213.55L215.64,211.7L216.76,210.48L220.09,210.17L221.2,210.17L223.42,209.86L224.54,209.25L226.76,208.64L227.87,208.64L240.1,208.02L241.21,207.72L247.88,206.18L248.99,206.18L256.77,205.57L257.88,204.65L261.22,204.34L262.33,204.34L265.66,204.34L266.78,203.42L271.22,202.81L272.33,202.19L273.45,200.35L274.56,200.05L285.67,199.43L286.78,198.82L294.57,198.51L295.68,196.98L297.9,196.36" style="vector-effect: non-scaling-stroke; fill: none; stroke: rgb(60, 180, 75); stroke-opacity: 1; stroke-width: 2px; opacity: 1;"/></g><g class="points"/><g class="text"/></g><g class="trace scatter trace95fd8d" style="stroke-miterlimit: 2; opacity: 1;"><g class="fills"/><g class="errorbars"/><g class="lines"><path class="js-line" d="M0,256.5L162.29,255.89L163.4,255.58L201.19,254.97L202.31,254.66L206.75,253.43L207.86,253.43L215.64,253.13L216.76,252.51L223.42,251.9L224.54,251.59L226.76,250.06L227.87,249.14L230.09,248.52L231.21,248.52L232.32,248.52L233.43,247.6L235.65,246.99L236.76,246.99L246.77,246.38L247.88,244.84L256.77,244.53L257.88,243.31L261.22,243L262.33,243L263.44,242.69L264.55,241.16L271.22,241.16L272.33,239.93L279,239.32L280.11,238.7L284.56,238.09L285.67,238.09L290.12,237.48L291.23,237.48L295.68,235.64L296.79,235.02L297.9,235.02" style="vector-effect: non-scaling-stroke; fill: none; stroke: rgb(255, 225, 25); stroke-opacity: 1; stroke-width: 2px; opacity: 1;"/></g><g class="points"/><g class="text"/></g><g class="trace scatter trace949364" style="stroke-miterlimit: 2; opacity: 1;"><g class="fills"/><g class="errorbars"/><g class="lines"><path class="js-line" d="M0,256.5L43.35,256.19L44.46,254.97L47.8,253.43L48.91,252.82L58.91,245.15L60.02,243.31L61.14,243.31L62.25,239.32L64.47,235.94L65.58,233.8L66.69,233.49L67.81,229.81L71.14,223.06L72.25,218.15L74.47,212.32L75.59,210.48L76.7,210.48L77.81,205.88L85.59,182.25L86.7,177.65L88.93,169.98L90.04,166.91L91.15,166.91L92.26,163.53L98.93,146.66L100.04,142.06L104.49,133.77L105.6,131.32L107.82,124.88L108.93,122.11L111.16,117.82L112.27,116.28L114.49,114.44L115.6,112.6L120.05,105.85L121.16,103.09L124.5,97.57L125.61,97.26L126.72,96.65L127.83,95.11L130.05,94.5L131.16,92.66L132.28,92.35L133.39,91.13L138.95,87.14L140.06,84.99L143.39,82.53L144.5,82.53L150.06,79.77L151.17,79.77L155.62,77.93L156.73,77.63L160.07,75.17L161.18,75.17L163.4,75.17L164.51,73.33L166.74,72.41L167.85,72.41L172.29,70.57L173.4,70.26L175.63,69.34L176.74,69.34L178.96,68.73L180.07,67.81L182.3,66.58L183.41,66.27L186.74,63.82L187.85,62.59L190.08,62.28L191.19,61.06L192.3,65.05L193.41,65.05L194.52,63.2L195.64,62.9L196.75,62.9L197.86,61.06L198.97,61.67L200.08,61.36L202.31,60.75L203.42,60.75L205.64,58.91L206.75,58.91L212.31,57.38L213.42,54.92L217.87,54.31L218.98,52.77L220.09,50.93L221.2,50.93L224.54,46.64L225.65,46.64L228.98,45.41L230.09,43.57L231.21,43.57L232.32,42.34L237.88,37.74L238.99,37.13L240.1,37.13L241.21,35.9L243.43,34.67L244.54,34.67L246.77,34.67L247.88,33.14L251.21,30.99L252.33,30.68L255.66,30.68L256.77,28.53L260.11,28.23L261.22,28.23L263.44,27L264.55,26.69L269,26.08L270.11,26.08L272.33,23.63L273.45,23.63L281.23,23.63L282.34,21.17L285.67,21.17L286.78,18.72L289.01,16.57L290.12,15.95L293.45,15.95L294.57,14.73L297.9,13.5" style="vector-effect: non-scaling-stroke; fill: none; stroke: rgb(67, 99, 216); stroke-opacity: 1; stroke-width: 2px; opacity: 1;"/></g><g class="points"/><g class="text"/></g><g class="trace scatter trace127cfe" style="stroke-miterlimit: 2; opacity: 1;"><g class="fills"/><g class="errorbars"/><g class="lines"><path class="js-line" d="M0,256.5L91.15,255.89L92.26,255.27L105.6,254.97L106.71,254.35L110.05,252.51L111.16,252.51L124.5,249.44L125.61,249.44L131.16,248.52L132.28,248.52L134.5,247.91L135.61,247.91L147.84,247.3L148.95,246.99L156.73,246.38L157.84,246.07L167.85,245.76L168.96,245.15L173.4,244.84L174.52,243.92L176.74,243.61L177.85,243L185.63,242.69L186.74,241.16L192.3,240.85L193.41,239.01L194.52,237.78L195.64,237.78L198.97,237.17L200.08,234.72L203.42,232.26L204.53,230.11L206.75,228.89L207.86,227.35L211.2,224.59L212.31,224.59L214.53,222.14L215.64,217.84L220.09,207.1L221.2,206.8L222.31,206.49L223.42,204.65L225.65,200.66L226.76,199.13L228.98,195.75L230.09,195.75L232.32,194.22L233.43,191.45L234.54,188.08L235.65,187.16L238.99,185.32L240.1,183.78L243.43,181.33L244.54,178.88L246.77,177.34L247.88,176.11L250.1,172.74L251.21,169.98L252.33,169.98L253.44,167.83L254.55,167.52L255.66,165.99L259,161.39L260.11,161.39L261.22,161.39L262.33,160.47L269,153.72L270.11,153.1L273.45,150.65L274.56,149.73L284.56,142.36L285.67,141.75L289.01,139.6L290.12,139.6L292.34,138.38L293.45,138.07L297.9,137.15" style="vector-effect: non-scaling-stroke; fill: none; stroke: rgb(245, 130, 49); stroke-opacity: 1; stroke-width: 2px; opacity: 1;"/></g><g class="points"/><g class="text"/></g><g class="trace scatter tracefb8c0e" style="stroke-miterlimit: 2; opacity: 1;"><g class="fills"/><g class="errorbars"/><g class="lines"><path class="js-line" d="M0,256.5L77.81,255.89L78.92,255.58L81.14,255.27L82.26,254.66L83.37,253.13L84.48,253.13L86.7,251.59L87.81,250.06L90.04,247.3L91.15,247.3L93.37,245.76L94.48,245.15L96.71,243.92L97.82,243L98.93,243L100.04,240.85L102.26,237.48L103.38,237.48L105.6,234.72L106.71,229.81L116.71,210.78L117.83,208.94L123.38,198.82L124.5,194.22L125.61,192.99L126.72,189.92L130.05,183.78L131.16,180.72L133.39,173.35L134.5,171.51L136.72,166.91L137.83,160.77L138.95,160.77L140.06,158.32L142.28,158.32L143.39,156.78L145.62,154.33L146.73,146.66L148.95,142.67L150.06,141.14L151.17,138.68L152.28,138.07L153.4,137.45L154.51,134.39L158.95,128.86L160.07,127.02L162.29,125.49L163.4,123.95L168.96,116.9L170.07,115.98L172.29,115.36L173.4,115.06L176.74,112.3L177.85,111.38L180.07,111.07L181.19,109.84L185.63,107.39L186.74,106.16L190.08,104.32L191.19,104.32L193.41,103.7L194.52,102.48L200.08,99.41L201.19,97.88L203.42,96.65L204.53,96.65L206.75,95.73L207.86,95.42L208.97,95.42L210.09,89.28L212.31,88.67L213.42,88.06L222.31,83.76L223.42,83.76L227.87,80.39L228.98,80.39L232.32,79.77L233.43,78.24L236.76,76.7L237.88,76.09L238.99,76.09L240.1,74.86L242.32,73.02L243.43,73.02L247.88,71.18L248.99,70.88L251.21,69.95L252.33,69.95L260.11,69.34L261.22,69.03L274.56,65.66L275.67,65.66L277.89,64.43L279,63.2L281.23,62.59L282.34,62.59L285.67,61.98L286.78,61.06L290.12,59.52L291.23,59.52L293.45,58.6L294.57,57.99L296.79,57.38L297.9,57.07" style="vector-effect: non-scaling-stroke; fill: none; stroke: rgb(145, 30, 180); stroke-opacity: 1; stroke-width: 2px; opacity: 1;"/></g><g class="points"/><g class="text"/></g></g></g><g class="overplot"/><path class="xlines-above crisp" d="M0,0" style="fill: none;"/><path class="ylines-above crisp" d="M0,0" style="fill: none;"/><g class="overlines-above"/><g class="xaxislayer-above"><g class="x2tick"><text text-anchor="middle" x="0" y="383" transform="translate(487.45000000000005,0)" style="font-family: 'Open Sans', verdana, arial, sans-serif; font-size: 12px; fill: rgb(242, 245, 250); fill-opacity: 1; white-space: pre;">Mar 2020</text></g><g class="x2tick"><text text-anchor="middle" x="0" y="383" transform="translate(555.26,0)" style="font-family: 'Open Sans', verdana, arial, sans-serif; font-size: 12px; fill: rgb(242, 245, 250); fill-opacity: 1; white-space: pre;">May 2020</text></g><g class="x2tick"><text text-anchor="middle" x="0" y="383" transform="translate(623.0600000000001,0)" style="font-family: 'Open Sans', verdana, arial, sans-serif; font-size: 12px; fill: rgb(242, 245, 250); fill-opacity: 1; white-space: pre;">Jul 2020</text></g><g class="x2tick"><text text-anchor="middle" x="0" y="383" transform="translate(691.98,0)" style="font-family: 'Open Sans', verdana, arial, sans-serif; font-size: 12px; fill: rgb(242, 245, 250); fill-opacity: 1; white-space: pre;">Sep 2020</text></g></g><g class="yaxislayer-above"><g class="y2tick"><text text-anchor="end" x="443.1" y="4.199999999999999" transform="translate(0,356.5)" style="font-family: 'Open Sans', verdana, arial, sans-serif; font-size: 12px; fill: rgb(242, 245, 250); fill-opacity: 1; white-space: pre;">0</text></g><g class="y2tick"><text text-anchor="end" x="443.1" y="4.199999999999999" transform="translate(0,295.14)" style="font-family: 'Open Sans', verdana, arial, sans-serif; font-size: 12px; fill: rgb(242, 245, 250); fill-opacity: 1; white-space: pre;">200</text></g><g class="y2tick"><text text-anchor="end" x="443.1" y="4.199999999999999" transform="translate(0,233.77)" style="font-family: 'Open Sans', verdana, arial, sans-serif; font-size: 12px; fill: rgb(242, 245, 250); fill-opacity: 1; white-space: pre;">400</text></g><g class="y2tick"><text text-anchor="end" x="443.1" y="4.199999999999999" transform="translate(0,172.41)" style="font-family: 'Open Sans', verdana, arial, sans-serif; font-size: 12px; fill: rgb(242, 245, 250); fill-opacity: 1; white-space: pre;">600</text></g><g class="y2tick"><text text-anchor="end" x="443.1" y="4.199999999999999" transform="translate(0,111.05)" style="font-family: 'Open Sans', verdana, arial, sans-serif; font-size: 12px; fill: rgb(242, 245, 250); fill-opacity: 1; white-space: pre;">800</text></g></g><g class="overaxes-above"/></g></g><g class="polarlayer"/><g class="ternarylayer"/><g class="geolayer"/><g class="funnelarealayer"/><g class="pielayer"/><g class="treemaplayer"/><g class="sunburstlayer"/><g class="glimages"/><defs id="topdefs-8b3ca1"><g class="clips"/><clipPath id="legend8b3ca1"><rect width="133" height="124" x="0" y="0"/></clipPath></defs><g class="layer-above"><g class="imagelayer"/><g class="shapelayer"/></g><g class="infolayer"><g class="legend" pointer-events="all" transform="translate(755.24, 100)"><rect class="bg" shape-rendering="crispEdges" width="133" height="124" x="0" y="0" style="stroke: rgb(68, 68, 68); stroke-opacity: 1; fill: rgb(17, 17, 17); fill-opacity: 1; stroke-width: 0px;"/><g class="scrollbox" transform="translate(0, 0)" clip-path="url('#legend8b3ca1')"><g class="groups"><g class="traces" transform="translate(0, 14.5)" style="opacity: 1;"><text class="legendtext user-select-none" text-anchor="start" x="40" y="4.680000000000001" style="font-family: 'Open Sans', verdana, arial, sans-serif; font-size: 12px; fill: rgb(242, 245, 250); fill-opacity: 1; white-space: pre;">Alameda, CA</text><g class="layers" style="opacity: 1;"><g class="legendfill"/><g class="legendlines"><path class="js-line" d="M5,0h30" style="fill: none; stroke: rgb(230, 25, 75); stroke-opacity: 1; stroke-width: 2px;"/></g><g class="legendsymbols"><g class="legendpoints"/></g></g><rect class="legendtoggle" pointer-events="all" x="0" y="-9.5" width="127.484375" height="19" style="cursor: pointer; fill: rgb(0, 0, 0); fill-opacity: 0;"/></g><g class="traces" transform="translate(0, 33.5)" style="opacity: 1;"><text class="legendtext user-select-none" text-anchor="start" x="40" y="4.680000000000001" style="font-family: 'Open Sans', verdana, arial, sans-serif; font-size: 12px; fill: rgb(242, 245, 250); fill-opacity: 1; white-space: pre;">Montgomery, AL</text><g class="layers" style="opacity: 1;"><g class="legendfill"/><g class="legendlines"><path class="js-line" d="M5,0h30" style="fill: none; stroke: rgb(60, 180, 75); stroke-opacity: 1; stroke-width: 2px;"/></g><g class="legendsymbols"><g class="legendpoints"/></g></g><rect class="legendtoggle" pointer-events="all" x="0" y="-9.5" width="127.484375" height="19" style="cursor: pointer; fill: rgb(0, 0, 0); fill-opacity: 0;"/></g><g class="traces" transform="translate(0, 52.5)" style="opacity: 1;"><text class="legendtext user-select-none" text-anchor="start" x="40" y="4.680000000000001" style="font-family: 'Open Sans', verdana, arial, sans-serif; font-size: 12px; fill: rgb(242, 245, 250); fill-opacity: 1; white-space: pre;">Columbia, FL</text><g class="layers" style="opacity: 1;"><g class="legendfill"/><g class="legendlines"><path class="js-line" d="M5,0h30" style="fill: none; stroke: rgb(255, 225, 25); stroke-opacity: 1; stroke-width: 2px;"/></g><g class="legendsymbols"><g class="legendpoints"/></g></g><rect class="legendtoggle" pointer-events="all" x="0" y="-9.5" width="127.484375" height="19" style="cursor: pointer; fill: rgb(0, 0, 0); fill-opacity: 0;"/></g><g class="traces" transform="translate(0, 71.5)" style="opacity: 1;"><text class="legendtext user-select-none" text-anchor="start" x="40" y="4.680000000000001" style="font-family: 'Open Sans', verdana, arial, sans-serif; font-size: 12px; fill: rgb(242, 245, 250); fill-opacity: 1; white-space: pre;">King, WA</text><g class="layers" style="opacity: 1;"><g class="legendfill"/><g class="legendlines"><path class="js-line" d="M5,0h30" style="fill: none; stroke: rgb(67, 99, 216); stroke-opacity: 1; stroke-width: 2px;"/></g><g class="legendsymbols"><g class="legendpoints"/></g></g><rect class="legendtoggle" pointer-events="all" x="0" y="-9.5" width="127.484375" height="19" style="cursor: pointer; fill: rgb(0, 0, 0); fill-opacity: 0;"/></g><g class="traces" transform="translate(0, 90.5)" style="opacity: 1;"><text class="legendtext user-select-none" text-anchor="start" x="40" y="4.680000000000001" style="font-family: 'Open Sans', verdana, arial, sans-serif; font-size: 12px; fill: rgb(242, 245, 250); fill-opacity: 1; white-space: pre;">Stanislaus, CA</text><g class="layers" style="opacity: 1;"><g class="legendfill"/><g class="legendlines"><path class="js-line" d="M5,0h30" style="fill: none; stroke: rgb(245, 130, 49); stroke-opacity: 1; stroke-width: 2px;"/></g><g class="legendsymbols"><g class="legendpoints"/></g></g><rect class="legendtoggle" pointer-events="all" x="0" y="-9.5" width="127.484375" height="19" style="cursor: pointer; fill: rgb(0, 0, 0); fill-opacity: 0;"/></g><g class="traces" transform="translate(0, 109.5)" style="opacity: 1;"><text class="legendtext user-select-none" text-anchor="start" x="40" y="4.680000000000001" style="font-family: 'Open Sans', verdana, arial, sans-serif; font-size: 12px; fill: rgb(242, 245, 250); fill-opacity: 1; white-space: pre;">Baltimore, MD</text><g class="layers" style="opacity: 1;"><g class="legendfill"/><g class="legendlines"><path class="js-line" d="M5,0h30" style="fill: none; stroke: rgb(145, 30, 180); stroke-opacity: 1; stroke-width: 2px;"/></g><g class="legendsymbols"><g class="legendpoints"/></g></g><rect class="legendtoggle" pointer-events="all" x="0" y="-9.5" width="127.484375" height="19" style="cursor: pointer; fill: rgb(0, 0, 0); fill-opacity: 0;"/></g></g></g><rect class="scrollbar" rx="20" ry="3" width="0" height="0" x="0" y="0" style="fill: rgb(128, 139, 164); fill-opacity: 1;"/></g><g class="g-gtitle"/><g class="g-xtitle"><text class="xtitle" x="228.95000000000002" y="410.8" text-anchor="middle" style="font-family: 'Open Sans', verdana, arial, sans-serif; font-size: 14px; fill: rgb(242, 245, 250); opacity: 1; font-weight: normal; white-space: pre;">Date</text></g><g class="g-x2title"><text class="x2title" x="593.05" y="410.8" text-anchor="middle" style="font-family: 'Open Sans', verdana, arial, sans-serif; font-size: 14px; fill: rgb(242, 245, 250); opacity: 1; font-weight: normal; white-space: pre;">Date</text></g><g class="g-ytitle"><text class="ytitle" transform="rotate(-90,34.840625,235)" x="34.840625" y="235" text-anchor="middle" style="font-family: 'Open Sans', verdana, arial, sans-serif; font-size: 14px; fill: rgb(242, 245, 250); opacity: 1; font-weight: normal; white-space: pre;">Cases</text></g><g class="g-y2title"><text class="y2title" transform="rotate(-90,398.278125,235)" x="398.278125" y="235" text-anchor="middle" style="font-family: 'Open Sans', verdana, arial, sans-serif; font-size: 14px; fill: rgb(242, 245, 250); opacity: 1; font-weight: normal; white-space: pre;">Deaths</text></g><g class="annotation" data-index="0" style="opacity: 1;"><g class="annotation-text-g" transform="rotate(0,228.95000000000002,89.5)"><g class="cursor-pointer" transform="translate(204, 79)"><rect class="bg" x="0.5" y="0.5" width="48" height="20" style="stroke-width: 1px; stroke: rgb(0, 0, 0); stroke-opacity: 0; fill: rgb(0, 0, 0); fill-opacity: 0;"/><text class="annotation-text" text-anchor="middle" x="24.6875" y="16" style="font-family: 'Open Sans', verdana, arial, sans-serif; font-size: 16px; fill: rgb(242, 245, 250); fill-opacity: 1; white-space: pre;">Cases</text></g></g></g><g class="annotation" data-index="1" style="opacity: 1;"><g class="annotation-text-g" transform="rotate(0,593.0500000000001,89.5)"><g class="cursor-pointer" transform="translate(566, 79)"><rect class="bg" x="0.5" y="0.5" width="54" height="20" style="stroke-width: 1px; stroke: rgb(0, 0, 0); stroke-opacity: 0; fill: rgb(0, 0, 0); fill-opacity: 0;"/><text class="annotation-text" text-anchor="middle" x="27.359375" y="16" style="font-family: 'Open Sans', verdana, arial, sans-serif; font-size: 16px; fill: rgb(242, 245, 250); fill-opacity: 1; white-space: pre;">Deaths</text></g></g></g></g></svg>