<svg class="main-svg" xmlns="http://www.w3.org/2000/svg" xmlns:xlink="http://www.w3.org/1999/xlink" width="900" height="450" style="" viewBox="0 0 900 450"><rect x="0" y="0" width="900" height="450" style="fill: rgb(17, 17, 17); fill-opacity: 1;"/><defs id="defs-3c78b1"><g class="clips"><clipPath id="clip3c78b1xyplot" class="plotclip"><rect width="297.90000000000003" height="270"/></clipPath><clipPath id="clip3c78b1x2y2plot" class="plotclip"><rect width="297.9" height="270"/></clipPath><clipPath class="axesclip" id="clip3c78b1x"><rect x="80" y="0" width="297.90000000000003" height="450"/></clipPath><clipPath class="axesclip" id="clip3c78b1y"><rect x="0" y="100" width="900" height="270"/></clipPath><clipPath class="axesclip" id="clip3c78b1xy"><rect x="80" y="100" width="297.90000000000003" height="270"/></clipPath><clipPath class="axesclip" id="clip3c78b1y2"><rect x="0" y="100" width="900" height="270"/></clipPath><clipPath class="axesclip" id="clip3c78b1xy2"><rect x="80" y="100" width="297.90000000000003" height="270"/></clipPath><clipPath class="axesclip" id="clip3c78b1x2"><rect x="444.1" y="0" width="297.9" height="450"/></clipPath><clipPath class="axesclip" id="clip3c78b1x2y"><rect x="444.1" y="100" width="297.9" height="270"/></clipPath><clipPath class="axesclip" id="clip3c78b1x2y2"><rect x="444.1" y="100" width="297.9" height="270"/></clipPath></g><g class="gradients"/></defs><g class="bglayer"/><g class="layer-below"><g class="imagelayer"/><g class="shapelayer"/></g><g class="cartesianlayer"><g class="subplot xy"><g class="layer-subplot"><g class="shapelayer"/><g class="imagelayer"/></g><g class="gridlayer"><g class="x"><path class="xgrid crisp" transform="translate(125.21000000000001,0)" d="M0,100v270" style="stroke: rgb(40, 52, 66); stroke-opacity: 1; stroke-width: 1px;"/><path class="xgrid crisp" transform="translate(195.91,0)" d="M0,100v270" style="stroke: rgb(40, 52, 66); stroke-opacity: 1; stroke-width: 1px;"/><path class="xgrid crisp" transform="translate(266.62,0)" d="M0,100v270" style="stroke: rgb(40, 52, 66); stroke-opacity: 1; stroke-width: 1px;"/><path class="xgrid crisp" transform="translate(338.49,0)" d="M0,100v270" style="stroke: rgb(40, 52, 66); stroke-opacity: 1; stroke-width: 1px;"/></g><g class="y"><path class="ygrid crisp" transform="translate(0,319.63)" d="M80,0h297.90000000000003" style="stroke: rgb(40, 52, 66); stroke-opacity: 1; stroke-width: 1px;"/><path class="ygrid crisp" transform="translate(0,282.76)" d="M80,0h297.90000000000003" style="stroke: rgb(40, 52, 66); stroke-opacity: 1; stroke-width: 1px;"/><path class="ygrid crisp" transform="translate(0,245.88)" d="M80,0h297.90000000000003" style="stroke: rgb(40, 52, 66); stroke-opacity: 1; stroke-width: 1px;"/><path class="ygrid crisp" transform="translate(0,209.01)" d="M80,0h297.90000000000003" style="stroke: rgb(40, 52, 66); stroke-opacity: 1; stroke-width: 1px;"/><path class="ygrid crisp" transform="translate(0,172.14)" d="M80,0h297.90000000000003" style="stroke: rgb(40, 52, 66); stroke-opacity: 1; stroke-width: 1px;"/><path class="ygrid crisp" transform="translate(0,135.27)" d="M80,0h297.90000000000003" style="stroke: rgb(40, 52, 66); stroke-opacity: 1; stroke-width: 1px;"/></g></g><g class="zerolinelayer"><path class="yzl zl crisp" transform="translate(0,356.5)" d="M80,0h297.90000000000003" style="stroke: rgb(40, 52, 66); stroke-opacity: 1; stroke-width: 2px;"/></g><path class="xlines-below"/><path class="ylines-below"/><g class="overlines-below"/><g class="xaxislayer-below"/><g class="yaxislayer-below"/><g class="overaxes-below"/><g class="plot" transform="translate(80, 100)" clip-path="url('#clip3c78b1xyplot')"><g class="scatterlayer mlayer"><g class="trace scatter trace3cbd35" style="stroke-miterlimit: 2; opacity: 1;"><g class="fills"/><g class="errorbars"/><g class="lines"><path class="js-line" d="M0,256.5L68.39,256.02L69.55,255.72L79.98,254.19L81.14,253.85L98.53,249.07L99.69,248.68L111.28,245.45L112.44,245.2L124.03,242.04L125.19,241.58L137.94,237.62L139.1,237.26L142.57,235.51L143.73,235.31L147.21,233.66L148.37,232.94L153.01,230.58L154.17,230.34L159.96,227.41L161.12,227.11L168.08,224.25L169.24,223.46L172.71,221.83L173.87,221.07L175.03,221.07L176.19,219.58L181.99,215.14L183.14,214.69L185.46,212.52L186.62,211.1L188.94,208.77L190.1,208.15L191.26,205.95L192.42,205.71L193.58,205.71L194.74,203.07L198.21,199.53L199.37,199.53L202.85,193.98L204.01,192.88L207.49,188.38L208.65,188.24L209.81,187.31L210.96,185.39L214.44,180.32L215.6,180.03L216.76,179.53L217.92,178.09L219.08,177.06L220.24,174.42L221.4,174.42L222.56,171.81L223.71,171.52L224.87,169.14L226.03,168.68L227.19,167L230.67,167L231.83,159.17L232.99,159.03L234.15,155.74L235.31,152.53L236.47,151.57L237.62,149.14L238.78,149.14L239.94,144.98L241.1,144.93L246.9,133.4L248.06,133.18L249.22,133.1L250.38,129.11L251.53,128.3L252.69,126.56L253.85,124.89L255.01,124.89L263.13,115.42L264.28,115.42L265.44,113.81L266.6,113.81L268.92,111.15L270.08,110.35L271.24,110.21L272.4,109.08L277.04,107.82L278.19,106.33L281.67,104.29L282.83,103.5L292.1,98.81L293.26,98.26L297.9,96.14" style="vector-effect: non-scaling-stroke; fill: none; stroke: rgb(230, 25, 75); stroke-opacity: 1; stroke-width: 2px; opacity: 1;"/></g><g class="points"/><g class="text"/></g><g class="trace scatter tracec6b5f1" style="stroke-miterlimit: 2; opacity: 1;"><g class="fills"/><g class="errorbars"/><g class="lines"><path class="js-line" d="M0,256.5L71.87,255.96L73.03,255.55L79.98,253.31L81.14,252.35L90.41,245.73L91.57,244.13L99.69,236.11L100.85,234.73L105.48,231.01L106.64,228.49L108.96,223.61L110.12,222.78L112.44,219.64L113.6,217.42L119.39,208.78L120.55,207.85L122.87,203.43L124.03,201.86L126.35,199.4L127.51,198.85L128.66,197.81L129.82,195.73L133.3,189.64L134.46,188.27L142.57,179.58L143.73,179.03L148.37,176.74L149.53,176.11L150.69,175.25L151.85,172.79L157.64,170.25L158.8,169.98L215.6,159.95L216.76,159.6L221.4,158.26L222.56,157.86L234.15,155.57L235.31,155.57L244.58,155.57L245.74,153.69L257.33,152.09L258.49,151.78L266.6,150.36L267.76,150.27L282.83,147.24L283.99,147.24L297.9,143.1" style="vector-effect: non-scaling-stroke; fill: none; stroke: rgb(60, 180, 75); stroke-opacity: 1; stroke-width: 2px; opacity: 1;"/></g><g class="points"/><g class="text"/></g><g class="trace scatter trace83f6f6" style="stroke-miterlimit: 2; opacity: 1;"><g class="fills"/><g class="errorbars"/><g class="lines"><path class="js-line" d="M0,256.5L78.82,255.85L79.98,255.74L90.41,254.81L91.57,254.74L143.73,253.1L144.89,253.07L163.44,251.92L164.6,251.61L171.55,249.3L172.71,248.38L178.51,244.52L179.67,243.46L184.3,238.23L185.46,237.58L188.94,234.47L190.1,232.87L199.37,225.31L200.53,223.57L202.85,222.1L204.01,220.79L207.49,217.2L208.65,216.6L220.24,209.16L221.4,208.66L231.83,204.01L232.99,203.76L239.94,201.41L241.1,201.25L257.33,197.29L258.49,196.23L275.88,192.82L277.04,192.39L283.99,190.8L285.15,190.8L297.9,188.29" style="vector-effect: non-scaling-stroke; fill: none; stroke: rgb(255, 225, 25); stroke-opacity: 1; stroke-width: 2px; opacity: 1;"/></g><g class="points"/><g class="text"/></g><g class="trace scatter tracea14dcd" style="stroke-miterlimit: 2; opacity: 1;"><g class="fills"/><g class="errorbars"/><g class="lines"><path class="js-line" d="M0,256.5L129.82,255.76L130.98,255.73L177.35,254.98L178.51,254.89L184.3,253.84L185.46,253.75L199.37,250.15L200.53,249.8L246.9,238.63L248.06,238.5L255.01,237.62L256.17,237.32L277.04,234.81L278.19,234.57L288.63,233.45L289.79,233.44L297.9,232.6" style="vector-effect: non-scaling-stroke; fill: none; stroke: rgb(67, 99, 216); stroke-opacity: 1; stroke-width: 2px; opacity: 1;"/></g><g class="points"/><g class="text"/></g><g class="trace scatter trace259691" style="stroke-miterlimit: 2; opacity: 1;"><g class="fills"/><g class="errorbars"/><g class="lines"><path class="js-line" d="M0,256.5L85.78,255.9L86.94,255.71L102,255.01L103.16,255L142.57,253.62L143.73,253.52L157.64,252.02L158.8,251.88L168.08,249.67L169.24,249.27L176.19,247.46L177.35,247.29L186.62,243.14L187.78,242.67L194.74,238.56L195.9,238.19L198.21,236.3L199.37,235.39L201.69,233.39L202.85,232.84L213.28,225.87L214.44,224.67L216.76,222.98L217.92,221.74L234.15,212.84L235.31,212.49L245.74,208.23L246.9,207.94L257.33,204.94L258.49,203.99L295.58,196.11L296.74,195.99L297.9,195.82" style="vector-effect: non-scaling-stroke; fill: none; stroke: rgb(245, 130, 49); stroke-opacity: 1; stroke-width: 2px; opacity: 1;"/></g><g class="points"/><g class="text"/></g><g class="trace scatter traceb6224a" style="stroke-miterlimit: 2; opacity: 1;"><g class="fills"/><g class="errorbars"/><g class="lines"><path class="js-line" d="M0,256.5L69.55,255.83L70.71,255.56L73.03,254.6L74.19,253.54L78.82,249.07L79.98,247.67L82.3,242.84L83.46,239.66L85.78,233.38L86.94,229.87L90.41,219.41L91.57,215.79L95.05,206.28L96.21,203.99L98.53,199.84L99.69,196.49L104.32,187.25L105.48,185L110.12,174.26L111.28,172.72L113.6,168.86L114.76,165.82L120.55,156.48L121.71,155.16L127.51,145.83L128.66,144.28L132.14,139.73L133.3,138.27L135.62,136L136.78,134.92L150.69,120.62L151.85,119.95L154.17,117.97L155.33,117.21L163.44,112.17L164.6,110.89L170.39,107.66L171.55,106.98L181.99,99.23L183.14,98.58L190.1,94.15L191.26,94.15L192.42,94.16L193.58,92.04L195.9,90.19L197.05,88.84L202.85,84.95L204.01,83.98L209.81,78.84L210.96,78.84L214.44,73.56L215.6,72.47L222.56,66.01L223.71,65.46L227.19,63.32L228.35,62.5L236.47,56.09L237.62,55L239.94,53.18L241.1,53.17L243.42,51.04L244.58,50.24L252.69,45.34L253.85,44.45L259.65,40.66L260.81,38.76L265.44,35.98L266.6,35.43L273.56,32.67L274.72,31.21L278.19,29.49L279.35,27.99L281.67,27.99L282.83,27.1L286.31,24.81L287.47,24.3L290.95,22.48L292.1,19.52L294.42,16.17L295.58,16.17L297.9,13.5" style="vector-effect: non-scaling-stroke; fill: none; stroke: rgb(145, 30, 180); stroke-opacity: 1; stroke-width: 2px; opacity: 1;"/></g><g class="points"/><g class="text"/></g></g></g><g class="overplot"/><path class="xlines-above crisp" d="M0,0" style="fill: none;"/><path class="ylines-above crisp" d="M0,0" style="fill: none;"/><g class="overlines-above"/><g class="xaxislayer-above"><g class="xtick"><text text-anchor="middle" x="0" y="383" transform="translate(125.21000000000001,0)" style="font-family: 'Open Sans', verdana, arial, sans-serif; font-size: 12px; fill: rgb(242, 245, 250); fill-opacity: 1; white-space: pre;">Mar 2020</text></g><g class="xtick"><text text-anchor="middle" x="0" y="383" transform="translate(195.91,0)" style="font-family: 'Open Sans', verdana, arial, sans-serif; font-size: 12px; fill: rgb(242, 245, 250); fill-opacity: 1; white-space: pre;">May 2020</text></g><g class="xtick"><text text-anchor="middle" x="0" y="383" transform="translate(266.62,0)" style="font-family: 'Open Sans', verdana, arial, sans-serif; font-size: 12px; fill: rgb(242, 245, 250); fill-opacity: 1; white-space: pre;">Jul 2020</text></g><g class="xtick"><text text-anchor="middle" x="0" y="383" transform="translate(338.49,0)" style="font-family: 'Open Sans', verdana, arial, sans-serif; font-size: 12px; fill: rgb(242, 245, 250); fill-opacity: 1; white-space: pre;">Sep 2020</text></g></g><g class="yaxislayer-above"><g class="ytick"><text text-anchor="end" x="79" y="4.199999999999999" transform="translate(0,356.5)" style="font-family: 'Open Sans', verdana, arial, sans-serif; font-size: 12px; fill: rgb(242, 245, 250); fill-opacity: 1; white-space: pre;">0</text></g><g class="ytick"><text text-anchor="end" x="79" y="4.199999999999999" transform="translate(0,319.63)" style="font-family: 'Open Sans', verdana, arial, sans-serif; font-size: 12px; fill: rgb(242, 245, 250); fill-opacity: 1; white-space: pre;">5k</text></g><g class="ytick"><text text-anchor="end" x="79" y="4.199999999999999" transform="translate(0,282.76)" style="font-family: 'Open Sans', verdana, arial, sans-serif; font-size: 12px; fill: rgb(242, 245, 250); fill-opacity: 1; white-space: pre;">10k</text></g><g class="ytick"><text text-anchor="end" x="79" y="4.199999999999999" transform="translate(0,245.88)" style="font-family: 'Open Sans', verdana, arial, sans-serif; font-size: 12px; fill: rgb(242, 245, 250); fill-opacity: 1; white-space: pre;">15k</text></g><g class="ytick"><text text-anchor="end" x="79" y="4.199999999999999" transform="translate(0,209.01)" style="font-family: 'Open Sans', verdana, arial, sans-serif; font-size: 12px; fill: rgb(242, 245, 250); fill-opacity: 1; white-space: pre;">20k</text></g><g class="ytick"><text text-anchor="end" x="79" y="4.199999999999999" transform="translate(0,172.14)" style="font-family: 'Open Sans', verdana, arial, sans-serif; font-size: 12px; fill: rgb(242, 245, 250); fill-opacity: 1; white-space: pre;">25k</text></g><g class="ytick"><text text-anchor="end" x="79" y="4.199999999999999" transform="translate(0,135.27)" style="font-family: 'Open Sans', verdana, arial, sans-serif; font-size: 12px; fill: rgb(242, 245, 250); fill-opacity: 1; white-space: pre;">30k</text></g></g><g class="overaxes-above"/></g><g class="subplot x2y2"><g class="layer-subplot"><g class="shapelayer"/><g class="imagelayer"/></g><g class="gridlayer"><g class="x2"><path class="x2grid crisp" transform="translate(489.31,0)" d="M0,100v270" style="stroke: rgb(40, 52, 66); stroke-opacity: 1; stroke-width: 1px;"/><path class="x2grid crisp" transform="translate(560.01,0)" d="M0,100v270" style="stroke: rgb(40, 52, 66); stroke-opacity: 1; stroke-width: 1px;"/><path class="x2grid crisp" transform="translate(630.72,0)" d="M0,100v270" style="stroke: rgb(40, 52, 66); stroke-opacity: 1; stroke-width: 1px;"/><path class="x2grid crisp" transform="translate(702.59,0)" d="M0,100v270" style="stroke: rgb(40, 52, 66); stroke-opacity: 1; stroke-width: 1px;"/></g><g class="y2"><path class="y2grid crisp" transform="translate(0,290.43)" d="M444.1,0h297.9" style="stroke: rgb(40, 52, 66); stroke-opacity: 1; stroke-width: 1px;"/><path class="y2grid crisp" transform="translate(0,224.36)" d="M444.1,0h297.9" style="stroke: rgb(40, 52, 66); stroke-opacity: 1; stroke-width: 1px;"/><path class="y2grid crisp" transform="translate(0,158.29)" d="M444.1,0h297.9" style="stroke: rgb(40, 52, 66); stroke-opacity: 1; stroke-width: 1px;"/></g></g><g class="zerolinelayer"><path class="y2zl zl crisp" transform="translate(0,356.5)" d="M444.1,0h297.9" style="stroke: rgb(40, 52, 66); stroke-opacity: 1; stroke-width: 2px;"/></g><path class="xlines-below"/><path class="ylines-below"/><g class="overlines-below"/><g class="xaxislayer-below"/><g class="yaxislayer-below"/><g class="overaxes-below"/><g class="plot" transform="translate(444.1, 100)" clip-path="url('#clip3c78b1x2y2plot')"><g class="scatterlayer mlayer"><g class="trace scatter trace2f37d1" style="stroke-miterlimit: 2; opacity: 1;"><g class="fills"/><g class="errorbars"/><g class="lines"><path class="js-line" d="M0,256.5L75.34,255.97L76.5,255.71L96.21,253.46L97.37,251.74L102,250.95L103.16,250.95L112.44,249.23L113.6,248.97L117.07,248.18L118.23,248.18L122.87,247.65L124.03,247.25L130.98,246.06L132.14,245.66L153.01,243.68L154.17,243.68L161.12,243.02L162.28,242.63L166.92,241.7L168.08,241.7L171.55,241.04L172.71,240.91L178.51,240.38L179.67,239.59L188.94,238L190.1,238L194.74,237.74L195.9,237.21L204.01,236.15L205.17,235.23L209.81,234.43L210.96,233.9L215.6,232.98L216.76,232.98L220.24,232.45L221.4,232.45L223.71,231.53L224.87,231.53L228.35,231L229.51,231L230.67,231L231.83,229.41L234.15,229.41L235.31,228.49L238.78,227.56L239.94,227.3L242.26,226.9L243.42,226.37L248.06,225.58L249.22,225.58L251.53,224.39L252.69,224.26L255.01,223.86L256.17,222.54L258.49,222.54L259.65,220.29L260.81,217.52L261.97,217.39L265.44,216.86L266.6,216.86L268.92,216.46L270.08,214.22L271.24,214.22L272.4,212.63L273.56,212.5L274.72,209.46L275.88,209.46L277.04,208.27L280.51,207.08L281.67,207.08L283.99,204.31L285.15,204.04L287.47,202.85L288.63,202.85L290.95,202.59L292.1,202.06L293.26,201L294.42,201L296.74,200.34L297.9,200.34" style="vector-effect: non-scaling-stroke; fill: none; stroke: rgb(230, 25, 75); stroke-opacity: 1; stroke-width: 2px; opacity: 1;"/></g><g class="points"/><g class="text"/></g><g class="trace scatter traceba149c" style="stroke-miterlimit: 2; opacity: 1;"><g class="fills"/><g class="errorbars"/><g class="lines"><path class="js-line" d="M0,256.5L78.82,255.84L79.98,255.58L88.09,253.46L89.25,252.67L90.41,252.54L91.57,251.61L96.21,249.1L97.37,246.85L106.64,236.02L107.8,234.57L114.76,221.48L115.91,219.77L120.55,212.76L121.71,208.27L127.51,196.11L128.66,195.85L132.14,185.41L133.3,183.3L136.78,177.61L137.94,173.91L143.73,165.06L144.89,164L148.37,157.93L149.53,157L154.17,150.26L155.33,150L159.96,147.22L161.12,146.3L164.6,143.39L165.76,142.47L170.39,139.16L171.55,139.03L181.99,134.93L183.14,134.93L186.62,134.41L187.78,133.08L193.58,131.89L194.74,131.1L198.21,129.91L199.37,129.91L201.69,129.52L202.85,128.72L217.92,126.74L219.08,126.21L226.03,125.29L227.19,125.29L229.51,124.5L230.67,124.36L232.99,123.57L234.15,123.44L242.26,123.44L243.42,120.13L258.49,117.1L259.65,117.1L270.08,115.25L271.24,114.72L275.88,114.19L277.04,113.4L279.35,113L280.51,112.47L283.99,111.94L285.15,111.68L289.79,110.75L290.95,110.22L293.26,108.9L294.42,108.64L297.9,108.24" style="vector-effect: non-scaling-stroke; fill: none; stroke: rgb(60, 180, 75); stroke-opacity: 1; stroke-width: 2px; opacity: 1;"/></g><g class="points"/><g class="text"/></g><g class="trace scatter tracea4fa52" style="stroke-miterlimit: 2; opacity: 1;"><g class="fills"/><g class="errorbars"/><g class="lines"><path class="js-line" d="M0,256.5L103.16,255.84L104.32,255.71L112.44,255.44L113.6,255.44L170.39,254.78L171.55,254.65L187.78,254.25L188.94,253.86L201.69,253.2L202.85,252.8L213.28,248.57L214.44,247.91L220.24,246.99L221.4,245.66L226.03,244.74L227.19,242.63L231.83,240.78L232.99,240.78L235.31,238.4L236.47,238.27L238.78,237.34L239.94,237.34L241.1,237.34L242.26,236.55L244.58,236.42L245.74,235.36L263.13,232.85L264.28,232.45L267.76,232.19L268.92,231.53L271.24,231L272.4,231L277.04,230.47L278.19,230.2L282.83,230.07L283.99,229.15L290.95,228.62L292.1,228.22L294.42,227.17L295.58,226.64L297.9,226.37" style="vector-effect: non-scaling-stroke; fill: none; stroke: rgb(255, 225, 25); stroke-opacity: 1; stroke-width: 2px; opacity: 1;"/></g><g class="points"/><g class="text"/></g><g class="trace scatter tracecb9cd6" style="stroke-miterlimit: 2; opacity: 1;"><g class="fills"/><g class="errorbars"/><g class="lines"><path class="js-line" d="M0,256.5L191.26,255.84L192.42,255.71L202.85,255.18L204.01,254.78L210.96,254.39L212.12,253.99L220.24,252.67L221.4,252.27L227.19,251.48L228.35,250.95L236.47,249.5L237.62,249.1L239.94,248.57L241.1,248.57L243.42,247.65L244.58,247.38L249.22,247.25L250.38,246.33L256.17,245.53L257.33,245.53L260.81,244.21L261.97,243.55L290.95,239.98L292.1,239.72L294.42,239.06L295.58,238.79L297.9,238.4" style="vector-effect: non-scaling-stroke; fill: none; stroke: rgb(67, 99, 216); stroke-opacity: 1; stroke-width: 2px; opacity: 1;"/></g><g class="points"/><g class="text"/></g><g class="trace scatter trace221961" style="stroke-miterlimit: 2; opacity: 1;"><g class="fills"/><g class="errorbars"/><g class="lines"><path class="js-line" d="M0,256.5L86.94,255.84L88.09,255.71L99.69,255.05L100.85,254.78L105.48,254.39L106.64,254.25L112.44,253.59L113.6,253.59L135.62,252.93L136.78,252.8L164.6,252.14L165.76,251.88L181.99,250.55L183.14,250.55L191.26,249.89L192.42,249.5L201.69,248.04L202.85,247.25L210.96,245L212.12,244.08L217.92,242.89L219.08,241.44L223.71,240.12L224.87,239.98L227.19,237.87L228.35,236.94L230.67,234.96L231.83,234.57L232.99,234.57L234.15,232.72L236.47,231.66L237.62,230.73L241.1,230.47L242.26,229.28L249.22,227.69L250.38,226.9L252.69,225.71L253.85,225.45L259.65,225.18L260.81,224.39L266.6,223.99L267.76,223.2L271.24,222.67L272.4,222.67L278.19,222.28L279.35,221.75L281.67,221.48L282.83,220.96L292.1,219.11L293.26,218.05L297.9,217.65" style="vector-effect: non-scaling-stroke; fill: none; stroke: rgb(245, 130, 49); stroke-opacity: 1; stroke-width: 2px; opacity: 1;"/></g><g class="points"/><g class="text"/></g><g class="trace scatter tracef2de00" style="stroke-miterlimit: 2; opacity: 1;"><g class="fills"/><g class="errorbars"/><g class="lines"><path class="js-line" d="M0,256.5L77.66,255.84L78.82,255.58L83.46,254.65L84.62,253.33L86.94,252.8L88.09,248.84L89.25,245.14L90.41,245.14L92.73,239.59L93.89,239.59L98.53,239.06L99.69,238.53L100.85,238.53L102,224.79L104.32,220.69L105.48,220.69L112.44,220.03L113.6,200.74L119.39,200.47L120.55,173.91L121.71,173.91L122.87,164.27L124.03,146.43L125.19,143.39L127.51,143.26L128.66,141.41L129.82,137.05L130.98,124.36L132.14,123.83L133.3,121.59L134.46,121.46L135.62,113.79L141.42,95.69L142.57,95.16L144.89,93.71L146.05,89.74L149.53,83.66L150.69,83.66L151.85,83.66L153.01,78.64L155.33,74.28L156.48,71.64L158.8,68.87L159.96,68.73L165.76,58.03L166.92,57.63L169.24,55.92L170.39,54.59L172.71,51.69L173.87,51.42L176.19,51.29L177.35,49.84L179.67,47.33L180.83,46.8L184.3,45.74L185.46,44.29L188.94,42.57L190.1,42.57L193.58,42.31L194.74,41.38L197.05,40.46L198.21,40.32L200.53,39.8L201.69,39L204.01,38.08L205.17,38.08L207.49,37.42L208.65,37.42L209.81,37.42L210.96,36.62L217.92,35.57L219.08,35.04L226.03,34.38L227.19,33.45L229.51,31.6L230.67,31.47L232.99,31.34L234.15,30.55L238.78,27.64L239.94,27.51L241.1,27.51L242.26,26.19L244.58,24.73L245.74,24.2L251.53,23.67L252.69,23.28L268.92,21.16L270.08,20.77L272.4,20.77L273.56,19.97L279.35,17.99L280.51,17.46L282.83,17.07L283.99,16.41L292.1,15.22L293.26,14.42L297.9,13.5" style="vector-effect: non-scaling-stroke; fill: none; stroke: rgb(145, 30, 180); stroke-opacity: 1; stroke-width: 2px; opacity: 1;"/></g><g class="points"/><g class="text"/></g></g></g><g class="overplot"/><path class="xlines-above crisp" d="M0,0" style="fill: none;"/><path class="ylines-above crisp" d="M0,0" style="fill: none;"/><g class="overlines-above"/><g class="xaxislayer-above"><g class="x2tick"><text text-anchor="middle" x="0" y="383" transform="translate(489.31,0)" style="font-family: 'Open Sans', verdana, arial, sans-serif; font-size: 12px; fill: rgb(242, 245, 250); fill-opacity: 1; white-space: pre;">Mar 2020</text></g><g class="x2tick"><text text-anchor="middle" x="0" y="383" transform="translate(560.01,0)" style="font-family: 'Open Sans', verdana, arial, sans-serif; font-size: 12px; fill: rgb(242, 245, 250); fill-opacity: 1; white-space: pre;">May 2020</text></g><g class="x2tick"><text text-anchor="middle" x="0" y="383" transform="translate(630.72,0)" style="font-family: 'Open Sans', verdana, arial, sans-serif; font-size: 12px; fill: rgb(242, 245, 250); fill-opacity: 1; white-space: pre;">Jul 2020</text></g><g class="x2tick"><text text-anchor="middle" x="0" y="383" transform="translate(702.59,0)" style="font-family: 'Open Sans', verdana, arial, sans-serif; font-size: 12px; fill: rgb(242, 245, 250); fill-opacity: 1; white-space: pre;">Sep 2020</text></g></g><g class="yaxislayer-above"><g class="y2tick"><text text-anchor="end" x="443.1" y="4.199999999999999" transform="translate(0,356.5)" style="font-family: 'Open Sans', verdana, arial, sans-serif; font-size: 12px; fill: rgb(242, 245, 250); fill-opacity: 1; white-space: pre;">0</text></g><g class="y2tick"><text text-anchor="end" x="443.1" y="4.199999999999999" transform="translate(0,290.43)" style="font-family: 'Open Sans', verdana, arial, sans-serif; font-size: 12px; fill: rgb(242, 245, 250); fill-opacity: 1; white-space: pre;">500</text></g><g class="y2tick"><text text-anchor="end" x="443.1" y="4.199999999999999" transform="translate(0,224.36)" style="font-family: 'Open Sans', verdana, arial, sans-serif; font-size: 12px; fill: rgb(242, 245, 250); fill-opacity: 1; white-space: pre;">1000</text></g><g class="y2tick"><text text-anchor="end" x="443.1" y="4.199999999999999" transform="translate(0,158.29)" style="font-family: 'Open Sans', verdana, arial, sans-serif; font-size: 12px; fill: rgb(242, 245, 250); fill-opacity: 1; white-space: pre;">1500</text></g></g><g class="overaxes-above"/></g></g><g class="polarlayer"/><g class="ternarylayer"/><g class="geolayer"/><g class="funnelarealayer"/><g class="pielayer"/><g class="treemaplayer"/><g class="sunburstlayer"/><g class="glimages"/><defs id="topdefs-3c78b1"><g class="clips"/><clipPath id="legend3c78b1"><rect width="133" height="124" x="0" y="0"/></clipPath></defs><g class="layer-above"><g class="imagelayer"/><g class="shapelayer"/></g><g class="infolayer"><g class="legend" pointer-events="all" transform="translate(755.24, 100)"><rect class="bg" shape-rendering="crispEdges" width="133" height="124" x="0" y="0" style="stroke: rgb(68, 68, 68); stroke-opacity: 1; fill: rgb(17, 17, 17); fill-opacity: 1; stroke-width: 0px;"/><g class="scrollbox" transform="translate(0, 0)" clip-path="url('#legend3c78b1')"><g class="groups"><g class="traces" transform="translate(0, 14.5)" style="opacity: 1;"><text class="legendtext user-select-none" text-anchor="start" x="40" y="4.680000000000001" style="font-family: 'Open Sans', verdana, arial, sans-serif; font-size: 12px; fill: rgb(242, 245, 250); fill-opacity: 1; white-space: pre;">Alameda, CA</text><g class="layers" style="opacity: 1;"><g class="legendfill"/><g class="legendlines"><path class="js-line" d="M5,0h30" style="fill: none; stroke: rgb(230, 25, 75); stroke-opacity: 1; stroke-width: 2px;"/></g><g class="legendsymbols"><g class="legendpoints"/></g></g><rect class="legendtoggle" pointer-events="all" x="0" y="-9.5" width="127.171875" height="19" style="cursor: pointer; fill: rgb(0, 0, 0); fill-opacity: 0;"/></g><g class="traces" transform="translate(0, 33.5)" style="opacity: 1;"><text class="legendtext user-select-none" text-anchor="start" x="40" y="4.680000000000001" style="font-family: 'Open Sans', verdana, arial, sans-serif; font-size: 12px; fill: rgb(242, 245, 250); fill-opacity: 1; white-space: pre;">Worcester, MA</text><g class="layers" style="opacity: 1;"><g class="legendfill"/><g class="legendlines"><path class="js-line" d="M5,0h30" style="fill: none; stroke: rgb(60, 180, 75); stroke-opacity: 1; stroke-width: 2px;"/></g><g class="legendsymbols"><g class="legendpoints"/></g></g><rect class="legendtoggle" pointer-events="all" x="0" y="-9.5" width="127.171875" height="19" style="cursor: pointer; fill: rgb(0, 0, 0); fill-opacity: 0;"/></g><g class="traces" transform="translate(0, 52.5)" style="opacity: 1;"><text class="legendtext user-select-none" text-anchor="start" x="40" y="4.680000000000001" style="font-family: 'Open Sans', verdana, arial, sans-serif; font-size: 12px; fill: rgb(242, 245, 250); fill-opacity: 1; white-space: pre;">Seminole, FL</text><g class="layers" style="opacity: 1;"><g class="legendfill"/><g class="legendlines"><path class="js-line" d="M5,0h30" style="fill: none; stroke: rgb(255, 225, 25); stroke-opacity: 1; stroke-width: 2px;"/></g><g class="legendsymbols"><g class="legendpoints"/></g></g><rect class="legendtoggle" pointer-events="all" x="0" y="-9.5" width="127.171875" height="19" style="cursor: pointer; fill: rgb(0, 0, 0); fill-opacity: 0;"/></g><g class="traces" transform="translate(0, 71.5)" style="opacity: 1;"><text class="legendtext user-select-none" text-anchor="start" x="40" y="4.680000000000001" style="font-family: 'Open Sans', verdana, arial, sans-serif; font-size: 12px; fill: rgb(242, 245, 250); fill-opacity: 1; white-space: pre;">Hernando, FL</text><g class="layers" style="opacity: 1;"><g class="legendfill"/><g class="legendlines"><path class="js-line" d="M5,0h30" style="fill: none; stroke: rgb(67, 99, 216); stroke-opacity: 1; stroke-width: 2px;"/></g><g class="legendsymbols"><g class="legendpoints"/></g></g><rect class="legendtoggle" pointer-events="all" x="0" y="-9.5" width="127.171875" height="19" style="cursor: pointer; fill: rgb(0, 0, 0); fill-opacity: 0;"/></g><g class="traces" transform="translate(0, 90.5)" style="opacity: 1;"><text class="legendtext user-select-none" text-anchor="start" x="40" y="4.680000000000001" style="font-family: 'Open Sans', verdana, arial, sans-serif; font-size: 12px; fill: rgb(242, 245, 250); fill-opacity: 1; white-space: pre;">St Lucie, FL</text><g class="layers" style="opacity: 1;"><g class="legendfill"/><g class="legendlines"><path class="js-line" d="M5,0h30" style="fill: none; stroke: rgb(245, 130, 49); stroke-opacity: 1; stroke-width: 2px;"/></g><g class="legendsymbols"><g class="legendpoints"/></g></g><rect class="legendtoggle" pointer-events="all" x="0" y="-9.5" width="127.171875" height="19" style="cursor: pointer; fill: rgb(0, 0, 0); fill-opacity: 0;"/></g><g class="traces" transform="translate(0, 109.5)" style="opacity: 1;"><text class="legendtext user-select-none" text-anchor="start" x="40" y="4.680000000000001" style="font-family: 'Open Sans', verdana, arial, sans-serif; font-size: 12px; fill: rgb(242, 245, 250); fill-opacity: 1; white-space: pre;">Philadelphia, PA</text><g class="layers" style="opacity: 1;"><g class="legendfill"/><g class="legendlines"><path class="js-line" d="M5,0h30" style="fill: none; stroke: rgb(145, 30, 180); stroke-opacity: 1; stroke-width: 2px;"/></g><g class="legendsymbols"><g class="legendpoints"/></g></g><rect class="legendtoggle" pointer-events="all" x="0" y="-9.5" width="127.171875" height="19" style="cursor: pointer; fill: rgb(0, 0, 0); fill-opacity: 0;"/></g></g></g><rect class="scrollbar" rx="20" ry="3" width="0" height="0" x="0" y="0" style="fill: rgb(128, 139, 164); fill-opacity: 1;"/></g><g class="g-gtitle"/><g class="g-xtitle"><text class="xtitle" x="228.95000000000002" y="410.8" text-anchor="middle" style="font-family: 'Open Sans', verdana, arial, sans-serif; font-size: 14px; fill: rgb(242, 245, 250); opacity: 1; font-weight: normal; white-space: pre;">Date</text></g><g class="g-x2title"><text class="x2title" x="593.05" y="410.8" text-anchor="middle" style="font-family: 'Open Sans', verdana, arial, sans-serif; font-size: 14px; fill: rgb(242, 245, 250); opacity: 1; font-weight: normal; white-space: pre;">Date</text></g><g class="g-ytitle"><text class="ytitle" transform="rotate(-90,34.840625,235)" x="34.840625" y="235" text-anchor="middle" style="font-family: 'Open Sans', verdana, arial, sans-serif; font-size: 14px; fill: rgb(242, 245, 250); opacity: 1; font-weight: normal; white-space: pre;">Cases</text></g><g class="g-y2title"><text class="y2title" transform="rotate(-90,391.590625,235)" x="391.590625" y="235" text-anchor="middle" style="font-family: 'Open Sans', verdana, arial, sans-serif; font-size: 14px; fill: rgb(242, 245, 250); opacity: 1; font-weight: normal; white-space: pre;">Deaths</text></g><g class="annotation" data-index="0" style="opacity: 1;"><g class="annotation-text-g" transform="rotate(0,228.95000000000002,89.5)"><g class="cursor-pointer" transform="translate(204, 79)"><rect class="bg" x="0.5" y="0.5" width="48" height="20" style="stroke-width: 1px; stroke: rgb(0, 0, 0); stroke-opacity: 0; fill: rgb(0, 0, 0); fill-opacity: 0;"/><text class="annotation-text" text-anchor="middle" x="24.6875" y="16" style="font-family: 'Open Sans', verdana, arial, sans-serif; font-size: 16px; fill: rgb(242, 245, 250); fill-opacity: 1; white-space: pre;">Cases</text></g></g></g><g class="annotation" data-index="1" style="opacity: 1;"><g class="annotation-text-g" transform="rotate(0,593.0500000000001,89.5)"><g class="cursor-pointer" transform="translate(566, 79)"><rect class="bg" x="0.5" y="0.5" width="54" height="20" style="stroke-width: 1px; stroke: rgb(0, 0, 0); stroke-opacity: 0; fill: rgb(0, 0, 0); fill-opacity: 0;"/><text class="annotation-text" text-anchor="middle" x="27.359375" y="16" style="font-family: 'Open Sans', verdana, arial, sans-serif; font-size: 16px; fill: rgb(242, 245, 250); fill-opacity: 1; white-space: pre;">Deaths</text></g></g></g></g></svg>