<svg class="main-svg" xmlns="http://www.w3.org/2000/svg" xmlns:xlink="http://www.w3.org/1999/xlink" width="900" height="450" style="" viewBox="0 0 900 450"><rect x="0" y="0" width="900" height="450" style="fill: rgb(17, 17, 17); fill-opacity: 1;"/><defs id="defs-33b917"><g class="clips"><clipPath id="clip33b917xyplot" class="plotclip"><rect width="297.45" height="270"/></clipPath><clipPath id="clip33b917x2y2plot" class="plotclip"><rect width="297.45" height="270"/></clipPath><clipPath class="axesclip" id="clip33b917x"><rect x="80" y="0" width="297.45" height="450"/></clipPath><clipPath class="axesclip" id="clip33b917y"><rect x="0" y="100" width="900" height="270"/></clipPath><clipPath class="axesclip" id="clip33b917xy"><rect x="80" y="100" width="297.45" height="270"/></clipPath><clipPath class="axesclip" id="clip33b917y2"><rect x="0" y="100" width="900" height="270"/></clipPath><clipPath class="axesclip" id="clip33b917xy2"><rect x="80" y="100" width="297.45" height="270"/></clipPath><clipPath class="axesclip" id="clip33b917x2"><rect x="443.55" y="0" width="297.45" height="450"/></clipPath><clipPath class="axesclip" id="clip33b917x2y"><rect x="443.55" y="100" width="297.45" height="270"/></clipPath><clipPath class="axesclip" id="clip33b917x2y2"><rect x="443.55" y="100" width="297.45" height="270"/></clipPath></g><g class="gradients"/></defs><g class="bglayer"/><g class="layer-below"><g class="imagelayer"/><g class="shapelayer"/></g><g class="cartesianlayer"><g class="subplot xy"><g class="layer-subplot"><g class="shapelayer"/><g class="imagelayer"/></g><g class="gridlayer"><g class="x"><path class="xgrid crisp" transform="translate(126.4,0)" d="M0,100v270" style="stroke: rgb(40, 52, 66); stroke-opacity: 1; stroke-width: 1px;"/><path class="xgrid crisp" transform="translate(198.98000000000002,0)" d="M0,100v270" style="stroke: rgb(40, 52, 66); stroke-opacity: 1; stroke-width: 1px;"/><path class="xgrid crisp" transform="translate(271.56,0)" d="M0,100v270" style="stroke: rgb(40, 52, 66); stroke-opacity: 1; stroke-width: 1px;"/><path class="xgrid crisp" transform="translate(345.33,0)" d="M0,100v270" style="stroke: rgb(40, 52, 66); stroke-opacity: 1; stroke-width: 1px;"/></g><g class="y"><path class="ygrid crisp" transform="translate(0,303.40999999999997)" d="M80,0h297.45" style="stroke: rgb(40, 52, 66); stroke-opacity: 1; stroke-width: 1px;"/><path class="ygrid crisp" transform="translate(0,250.31)" d="M80,0h297.45" style="stroke: rgb(40, 52, 66); stroke-opacity: 1; stroke-width: 1px;"/><path class="ygrid crisp" transform="translate(0,197.22)" d="M80,0h297.45" style="stroke: rgb(40, 52, 66); stroke-opacity: 1; stroke-width: 1px;"/><path class="ygrid crisp" transform="translate(0,144.12)" d="M80,0h297.45" style="stroke: rgb(40, 52, 66); stroke-opacity: 1; stroke-width: 1px;"/></g></g><g class="zerolinelayer"><path class="yzl zl crisp" transform="translate(0,356.5)" d="M80,0h297.45" style="stroke: rgb(40, 52, 66); stroke-opacity: 1; stroke-width: 2px;"/></g><path class="xlines-below"/><path class="ylines-below"/><g class="overlines-below"/><g class="xaxislayer-below"/><g class="yaxislayer-below"/><g class="overaxes-below"/><g class="plot" transform="translate(80, 100)" clip-path="url('#clip33b917xyplot')"><g class="scatterlayer mlayer"><g class="trace scatter traceb7cfaf" style="stroke-miterlimit: 2; opacity: 1;"><g class="fills"/><g class="errorbars"/><g class="lines"><path class="js-line" d="M0,256.5L70.2,255.81L71.39,255.37L77.34,254.16L78.53,253.78L84.48,252.29L85.67,251.8L88.05,250.49L89.24,250.26L114.22,240.59L115.41,240.22L126.12,236.14L127.31,235.68L132.07,233.85L133.26,233.37L147.54,225.98L148.73,224.79L153.48,221.57L154.67,220.5L164.19,214.61L165.38,214.18L167.76,212.76L168.95,211.73L174.9,208.37L176.09,207.25L179.66,205.48L180.85,203.33L186.8,196.95L187.99,196.29L189.18,195.31L190.37,193.17L193.94,187.78L195.13,186.88L196.32,183.71L197.51,183.37L198.7,183.37L199.89,179.57L203.46,174.47L204.65,174.47L208.22,166.47L209.4,164.89L212.97,158.41L214.16,158.21L215.35,156.86L216.54,154.1L220.11,146.81L221.3,146.38L222.49,145.66L223.68,143.59L224.87,142.1L226.06,138.3L227.25,138.3L228.44,134.55L229.63,134.13L230.82,130.71L232.01,130.04L233.2,127.63L236.77,127.63L237.96,116.34L239.15,116.14L240.34,111.41L241.53,106.79L242.72,105.41L243.91,101.91L245.1,101.91L246.29,95.91L247.48,95.84L253.43,79.24L254.62,78.92L255.81,78.82L257,73.06L258.19,71.89L259.38,69.39L260.57,66.99L261.76,66.99L268.89,54.99L270.08,53.35L271.27,53.35L272.46,51.03L273.65,51.03L274.84,48.41L277.22,46.05L278.41,45.86L279.6,44.22L280.79,43.89L283.17,43.09L284.36,42.4L286.74,38.88L287.93,38.2L297.45,30.96" style="vector-effect: non-scaling-stroke; fill: none; stroke: rgb(230, 25, 75); stroke-opacity: 1; stroke-width: 2px; opacity: 1;"/></g><g class="points"/><g class="text"/></g><g class="trace scatter tracebcda43" style="stroke-miterlimit: 2; opacity: 1;"><g class="fills"/><g class="errorbars"/><g class="lines"><path class="js-line" d="M0,256.5L72.58,255.77L73.77,255.44L77.34,253.88L78.53,253.18L80.91,252.61L82.1,251.28L86.86,247.33L88.05,247.12L92.8,241.71L93.99,240.59L98.75,236.84L99.94,235.92L105.89,232.19L107.08,231.73L114.22,225.74L115.41,225.09L118.98,223.04L120.17,222.05L127.31,217.56L128.5,216.92L130.88,215.85L132.07,215.43L143.97,210.13L145.16,209.42L160.62,203.35L161.81,203.1L171.33,200.68L172.52,199.55L180.85,196.97L182.04,196.26L184.42,194.52L185.61,193.49L186.8,192.46L187.99,192.46L190.37,189.75L191.56,189.09L197.51,185.9L198.7,183.81L199.89,182.5L201.08,182.5L202.27,178.77L203.46,177.64L205.84,175.44L207.03,173.13L210.59,166.96L211.78,165.52L214.16,163.07L215.35,159.83L217.73,153.06L218.92,148.74L222.49,138.08L223.68,136.5L227.25,122.64L228.44,120.26L230.82,116.41L232.01,113.38L234.39,107.49L235.58,105.89L236.77,105.89L237.96,103.15L240.34,98.61L241.53,95.64L252.24,76.63L253.43,74.78L259.38,65.72L260.57,63.34L270.08,48.41L271.27,46.87L274.84,42.34L276.03,41.49L280.79,34.58L281.98,32.99L287.93,26.02L289.12,24.29L292.69,21.02L293.88,18.61L296.26,14.91L297.45,13.5" style="vector-effect: non-scaling-stroke; fill: none; stroke: rgb(60, 180, 75); stroke-opacity: 1; stroke-width: 2px; opacity: 1;"/></g><g class="points"/><g class="text"/></g><g class="trace scatter trace839291" style="stroke-miterlimit: 2; opacity: 1;"><g class="fills"/><g class="errorbars"/><g class="lines"><path class="js-line" d="M0,256.5L74.96,255.86L76.15,255.49L97.56,250.64L98.75,250.31L104.7,249.22L105.89,249.16L114.22,247.91L115.41,247.82L121.36,246.4L122.55,245.78L135.64,242.98L136.83,242.75L140.4,242.07L141.59,241.75L143.97,241.08L145.16,240.72L149.91,239.23L151.1,238.88L154.67,237.62L155.86,237.05L159.43,234.06L160.62,233.63L173.71,228.35L174.9,227.64L182.04,223.92L183.23,223.23L186.8,220.74L187.99,220.74L190.37,218.44L191.56,217.32L192.75,216.74L193.94,215.19L195.13,215.19L196.32,213.76L199.89,210.75L201.08,209.28L203.46,207.19L204.65,206.6L208.22,203.67L209.4,202.66L211.78,199.43L212.97,196.75L215.35,193.72L216.54,190.48L220.11,180.57L221.3,179.07L222.49,176.43L223.68,170.93L227.25,159.68L228.44,158.16L230.82,154.94L232.01,152.69L235.58,146.22L236.77,146.22L243.91,130.23L245.1,128.46L251.05,119.51L252.24,117.59L254.62,113.57L255.81,112.3L257,111.51L258.19,109.22L262.95,100.99L264.14,99.17L265.33,98.05L266.52,95.83L272.46,88.23L273.65,87.4L276.03,84.86L277.22,83L281.98,77.48L283.17,76.76L286.74,71.13L287.93,69.51L290.31,66.55L291.5,64.93L297.45,56.19" style="vector-effect: non-scaling-stroke; fill: none; stroke: rgb(255, 225, 25); stroke-opacity: 1; stroke-width: 2px; opacity: 1;"/></g><g class="points"/><g class="text"/></g><g class="trace scatter trace372ef1" style="stroke-miterlimit: 2; opacity: 1;"><g class="fills"/><g class="errorbars"/><g class="lines"><path class="js-line" d="M0,256.5L86.86,255.84L88.05,255.68L99.94,253.96L101.13,253.8L115.41,252.51L116.6,252.39L148.73,249.09L149.91,248.95L168.95,245.55L170.14,245.02L178.47,241.06L179.66,240.08L180.85,240.08L182.04,239.01L187.99,233.32L189.18,233.32L196.32,226.99L197.51,226.99L202.27,222.03L203.46,219.38L204.65,215.58L205.84,215.58L212.97,193.94L214.16,193.94L218.92,180.45L220.11,173.39L222.49,173.39L223.68,169.42L227.25,148.67L228.44,140L229.63,140L230.82,112.98L232.01,99.54L233.2,95.97L236.77,83.52L237.96,83.52L243.91,69.42L245.1,67.32L246.29,67.32L247.48,65.31L252.24,57.14L253.43,54.73L254.62,52.35L255.81,52.35L257,45.59L258.19,45.59L259.38,37.57L260.57,36.28L261.76,35.07L262.95,35.07L264.14,35.07L265.33,33L268.89,28.62L270.08,27.53L273.65,27.53L274.84,24.99L276.03,24.66L277.22,23.49L279.6,23.07L280.79,23.07L283.17,20.53L284.36,19.96L287.93,18.59L289.12,18.59L290.31,17.59L291.5,17.59L295.07,15.48L296.26,15.48L297.45,15.48" style="vector-effect: non-scaling-stroke; fill: none; stroke: rgb(67, 99, 216); stroke-opacity: 1; stroke-width: 2px; opacity: 1;"/></g><g class="points"/><g class="text"/></g><g class="trace scatter tracede05ba" style="stroke-miterlimit: 2; opacity: 1;"><g class="fills"/><g class="errorbars"/><g class="lines"><path class="js-line" d="M0,256.5L71.39,255.94L72.58,255.57L76.15,255.3L77.34,254.76L82.1,254.12L83.29,253.17L90.42,250.93L91.61,250.34L104.7,246.68L105.89,246.52L128.5,244.13L129.69,244.11L151.1,242.18L152.29,241.92L161.81,240.37L163,240.37L165.38,239.26L166.57,239.06L174.9,236.41L176.09,235.9L179.66,235.52L180.85,232.68L183.23,230.59L184.42,229.83L185.61,228.19L186.8,228.19L187.99,228.19L189.18,224.6L192.75,218.71L193.94,218.71L196.32,218.71L197.51,209.83L205.84,195.82L207.03,193.45L210.59,187.36L211.78,185.43L214.16,178.71L215.35,174.88L218.92,165.67L220.11,164.8L223.68,156.49L224.87,155.47L229.63,149.6L230.82,149.02L233.2,147.72L234.39,144.54L235.58,141.87L236.77,141.87L237.96,141.87L239.15,128.65L241.53,124L242.72,116.16L243.91,111.93L245.1,111.93L246.29,111.93L247.48,104.38L252.24,94.61L253.43,94.61L254.62,94.61L255.81,83.08L258.19,78.72L259.38,76.95L260.57,74.39L261.76,74.39L262.95,74.39L264.14,64.81L267.71,58.92L268.89,56.73L271.27,56.73L272.46,51.07L276.03,47.64L277.22,43.46L279.6,43.46L280.79,39.51L283.17,37.12L284.36,33.92L285.55,31.69L286.74,31.69L287.93,31.69L289.12,26.84L292.69,22.61L293.88,20.94L296.26,20.94L297.45,18.24" style="vector-effect: non-scaling-stroke; fill: none; stroke: rgb(245, 130, 49); stroke-opacity: 1; stroke-width: 2px; opacity: 1;"/></g><g class="points"/><g class="text"/></g><g class="trace scatter trace379ddb" style="stroke-miterlimit: 2; opacity: 1;"><g class="fills"/><g class="errorbars"/><g class="lines"><path class="js-line" d="M0,256.5L91.61,255.78L92.8,255.7L120.17,254.57L121.36,254.55L155.86,253.85L157.05,253.79L176.09,252.84L177.28,252.62L185.61,250.94L186.8,250.15L195.13,247.28L196.32,246.66L201.08,244.16L202.27,242.62L205.84,239.06L207.03,237.66L210.59,233.61L211.78,232.51L216.54,226.49L217.73,225.42L222.49,218.47L223.68,214.79L227.25,204.55L228.44,202.67L233.2,197.64L234.39,195.9L237.96,187.36L239.15,186.7L243.91,181.85L245.1,180.46L248.67,177.41L249.86,175.65L262.95,166.57L264.14,166.28L267.71,164.38L268.89,163.71L272.46,162.21L273.65,162.19L296.26,153.41L297.45,153.36" style="vector-effect: non-scaling-stroke; fill: none; stroke: rgb(145, 30, 180); stroke-opacity: 1; stroke-width: 2px; opacity: 1;"/></g><g class="points"/><g class="text"/></g></g></g><g class="overplot"/><path class="xlines-above crisp" d="M0,0" style="fill: none;"/><path class="ylines-above crisp" d="M0,0" style="fill: none;"/><g class="overlines-above"/><g class="xaxislayer-above"><g class="xtick"><text text-anchor="middle" x="0" y="383" transform="translate(126.4,0)" style="font-family: 'Open Sans', verdana, arial, sans-serif; font-size: 12px; fill: rgb(242, 245, 250); fill-opacity: 1; white-space: pre;">Mar 2020</text></g><g class="xtick"><text text-anchor="middle" x="0" y="383" transform="translate(198.98000000000002,0)" style="font-family: 'Open Sans', verdana, arial, sans-serif; font-size: 12px; fill: rgb(242, 245, 250); fill-opacity: 1; white-space: pre;">May 2020</text></g><g class="xtick"><text text-anchor="middle" x="0" y="383" transform="translate(271.56,0)" style="font-family: 'Open Sans', verdana, arial, sans-serif; font-size: 12px; fill: rgb(242, 245, 250); fill-opacity: 1; white-space: pre;">Jul 2020</text></g><g class="xtick"><text text-anchor="middle" x="0" y="383" transform="translate(345.33,0)" style="font-family: 'Open Sans', verdana, arial, sans-serif; font-size: 12px; fill: rgb(242, 245, 250); fill-opacity: 1; white-space: pre;">Sep 2020</text></g></g><g class="yaxislayer-above"><g class="ytick"><text text-anchor="end" x="79" y="4.199999999999999" transform="translate(0,356.5)" style="font-family: 'Open Sans', verdana, arial, sans-serif; font-size: 12px; fill: rgb(242, 245, 250); fill-opacity: 1; white-space: pre;">0</text></g><g class="ytick"><text text-anchor="end" x="79" y="4.199999999999999" transform="translate(0,303.40999999999997)" style="font-family: 'Open Sans', verdana, arial, sans-serif; font-size: 12px; fill: rgb(242, 245, 250); fill-opacity: 1; white-space: pre;">5k</text></g><g class="ytick"><text text-anchor="end" x="79" y="4.199999999999999" transform="translate(0,250.31)" style="font-family: 'Open Sans', verdana, arial, sans-serif; font-size: 12px; fill: rgb(242, 245, 250); fill-opacity: 1; white-space: pre;">10k</text></g><g class="ytick"><text text-anchor="end" x="79" y="4.199999999999999" transform="translate(0,197.22)" style="font-family: 'Open Sans', verdana, arial, sans-serif; font-size: 12px; fill: rgb(242, 245, 250); fill-opacity: 1; white-space: pre;">15k</text></g><g class="ytick"><text text-anchor="end" x="79" y="4.199999999999999" transform="translate(0,144.12)" style="font-family: 'Open Sans', verdana, arial, sans-serif; font-size: 12px; fill: rgb(242, 245, 250); fill-opacity: 1; white-space: pre;">20k</text></g></g><g class="overaxes-above"/></g><g class="subplot x2y2"><g class="layer-subplot"><g class="shapelayer"/><g class="imagelayer"/></g><g class="gridlayer"><g class="x2"><path class="x2grid crisp" transform="translate(489.95,0)" d="M0,100v270" style="stroke: rgb(40, 52, 66); stroke-opacity: 1; stroke-width: 1px;"/><path class="x2grid crisp" transform="translate(562.53,0)" d="M0,100v270" style="stroke: rgb(40, 52, 66); stroke-opacity: 1; stroke-width: 1px;"/><path class="x2grid crisp" transform="translate(635.11,0)" d="M0,100v270" style="stroke: rgb(40, 52, 66); stroke-opacity: 1; stroke-width: 1px;"/><path class="x2grid crisp" transform="translate(708.88,0)" d="M0,100v270" style="stroke: rgb(40, 52, 66); stroke-opacity: 1; stroke-width: 1px;"/></g><g class="y2"><path class="y2grid crisp" transform="translate(0,302.62)" d="M443.55,0h297.45" style="stroke: rgb(40, 52, 66); stroke-opacity: 1; stroke-width: 1px;"/><path class="y2grid crisp" transform="translate(0,248.74)" d="M443.55,0h297.45" style="stroke: rgb(40, 52, 66); stroke-opacity: 1; stroke-width: 1px;"/><path class="y2grid crisp" transform="translate(0,194.86)" d="M443.55,0h297.45" style="stroke: rgb(40, 52, 66); stroke-opacity: 1; stroke-width: 1px;"/><path class="y2grid crisp" transform="translate(0,140.98)" d="M443.55,0h297.45" style="stroke: rgb(40, 52, 66); stroke-opacity: 1; stroke-width: 1px;"/></g></g><g class="zerolinelayer"><path class="y2zl zl crisp" transform="translate(0,356.5)" d="M443.55,0h297.45" style="stroke: rgb(40, 52, 66); stroke-opacity: 1; stroke-width: 2px;"/></g><path class="xlines-below"/><path class="ylines-below"/><g class="overlines-below"/><g class="xaxislayer-below"/><g class="yaxislayer-below"/><g class="overaxes-below"/><g class="plot" transform="translate(443.55, 100)" clip-path="url('#clip33b917x2y2plot')"><g class="scatterlayer mlayer"><g class="trace scatter traceff2d01" style="stroke-miterlimit: 2; opacity: 1;"><g class="fills"/><g class="errorbars"/><g class="lines"><path class="js-line" d="M0,256.5L74.96,255.96L76.15,255.42L78.53,254.88L79.72,254.61L84.48,254.08L85.67,253.27L89.24,253L90.42,252.46L95.18,250.84L96.37,250.3L98.75,250.3L99.94,246.8L102.32,245.99L103.51,245.45L110.65,243.57L111.84,242.49L114.22,242.49L115.41,241.68L121.36,239.53L122.55,239.53L124.93,238.72L126.12,238.45L128.5,237.37L129.69,237.37L130.88,237.37L132.07,236.56L138.02,234.14L139.21,234.14L142.78,232.25L143.97,232.25L147.54,231.45L148.73,231.45L153.48,230.91L154.67,230.64L159.43,230.37L160.62,229.29L165.38,229.02L166.57,228.21L168.95,227.14L170.14,227.14L172.52,226.33L173.71,226.33L176.09,224.98L177.28,224.71L182.04,224.17L183.23,223.63L185.61,221.48L186.8,221.48L189.18,220.67L190.37,220.13L196.32,218.78L197.51,218.78L199.89,218.25L201.08,217.17L205.84,216.63L207.03,215.55L209.4,215.01L210.59,213.13L214.16,212.86L215.35,211.51L218.92,208.55L220.11,208.55L222.49,208.55L223.68,207.74L227.25,207.47L228.44,205.58L230.82,205.58L232.01,204.77L235.58,204.51L236.77,204.51L237.96,201.27L239.15,201.27L240.34,201.27L241.53,199.39L243.91,197.5L245.1,197.5L249.86,195.08L251.05,194.27L254.62,193.46L255.81,193.46L258.19,191.04L259.38,190.77L261.76,189.96L262.95,187.26L265.33,187.26L266.52,182.68L267.71,177.03L268.89,176.76L271.27,175.95L272.46,175.68L273.65,175.68L274.84,174.87L276.03,174.87L277.22,170.29L278.41,170.29L279.6,167.06L280.79,166.79L281.98,160.59L283.17,160.59L284.36,158.17L286.74,155.74L287.93,155.74L289.12,155.74L290.31,151.43L295.07,147.12L296.26,147.12L297.45,147.12" style="vector-effect: non-scaling-stroke; fill: none; stroke: rgb(230, 25, 75); stroke-opacity: 1; stroke-width: 2px; opacity: 1;"/></g><g class="points"/><g class="text"/></g><g class="trace scatter trace75190e" style="stroke-miterlimit: 2; opacity: 1;"><g class="fills"/><g class="errorbars"/><g class="lines"><path class="js-line" d="M0,256.5L80.91,255.96L82.1,255.69L86.86,255.15L88.05,253.27L91.61,252.46L92.8,248.96L93.99,247.88L95.18,245.19L97.56,245.19L98.75,242.22L99.94,239.53L101.13,238.72L103.51,234.95L104.7,234.68L105.89,234.41L107.08,231.98L109.46,228.21L110.65,223.9L111.84,222.29L113.03,222.29L114.22,219.59L115.41,213.67L116.6,213.67L117.79,212.86L120.17,208.82L121.36,208.82L122.55,208.82L123.74,205.58L126.12,197.23L127.31,190.23L132.07,181.61L133.26,177.57L136.83,167.87L138.02,166.79L139.21,165.98L140.4,163.56L141.59,161.67L142.78,155.21L147.54,152.51L148.73,152.51L151.1,150.09L152.29,144.7L153.48,137.96L154.67,137.69L157.05,137.16L158.24,136.89L159.43,136.35L160.62,134.73L161.81,133.38L163,133.38L164.19,131.5L165.38,127.73L166.57,126.65L167.76,123.69L170.14,122.34L171.33,122.34L173.71,121.8L174.9,116.95L176.09,110.75L177.28,110.22L179.66,109.14L180.85,108.87L184.42,106.44L185.61,104.56L189.18,104.56L190.37,101.59L193.94,100.52L195.13,100.52L197.51,100.25L198.7,97.82L201.08,97.82L202.27,97.01L204.65,96.75L205.84,95.13L208.22,94.59L209.4,94.59L210.59,93.24L211.78,93.24L215.35,92.97L216.54,89.74L218.92,88.39L220.11,88.39L221.3,86.24L222.49,86.24L223.68,86.24L224.87,83.54L228.44,82.47L229.63,82.47L234.39,81.12L235.58,78.96L236.77,78.96L237.96,77.89L239.15,77.89L240.34,77.08L245.1,75.46L246.29,72.5L247.48,69L248.67,69L254.62,67.11L255.81,67.11L257,65.49L258.19,65.23L259.38,65.23L260.57,64.42L262.95,62.53L264.14,59.3L266.52,57.95L267.71,57.95L268.89,57.95L270.08,56.87L273.65,56.6L274.84,56.07L277.22,52.83L278.41,52.83L280.79,52.83L281.98,50.95L284.36,50.41L285.55,49.33L289.12,49.33L290.31,45.02L292.69,44.21L293.88,43.67L295.07,40.98L296.26,40.98L297.45,40.98" style="vector-effect: non-scaling-stroke; fill: none; stroke: rgb(60, 180, 75); stroke-opacity: 1; stroke-width: 2px; opacity: 1;"/></g><g class="points"/><g class="text"/></g><g class="trace scatter traceaeb7d1" style="stroke-miterlimit: 2; opacity: 1;"><g class="fills"/><g class="errorbars"/><g class="lines"><path class="js-line" d="M0,256.5L89.24,256.23L90.42,254.88L93.99,253.54L95.18,253L97.56,253L98.75,251.92L104.7,250.84L105.89,250.84L110.65,250.3L111.84,250.03L115.41,249.76L116.6,249.23L121.36,248.69L122.55,248.69L133.26,248.15L134.45,247.88L145.16,245.99L146.35,245.99L155.86,244.38L157.05,243.3L173.71,242.76L174.9,242.49L184.42,241.95L185.61,241.68L202.27,241.14L203.46,240.61L205.84,240.07L207.03,238.72L208.22,237.37L209.4,234.68L212.97,234.14L214.16,233.87L217.73,232.25L218.92,232.25L228.44,228.48L229.63,228.48L234.39,226.87L235.58,225.79L240.34,225.25L241.53,224.71L249.86,224.17L251.05,223.9L255.81,223.36L257,222.82L265.33,220.67L266.52,220.13L268.89,219.32L270.08,213.4L271.27,211.24L272.46,211.24L278.41,210.43L279.6,210.43L284.36,208.01L285.55,208.01L290.31,205.58L291.5,199.12L296.26,197.23L297.45,197.23" style="vector-effect: non-scaling-stroke; fill: none; stroke: rgb(255, 225, 25); stroke-opacity: 1; stroke-width: 2px; opacity: 1;"/></g><g class="points"/><g class="text"/></g><g class="trace scatter tracedfee53" style="stroke-miterlimit: 2; opacity: 1;"><g class="fills"/><g class="errorbars"/><g class="lines"><path class="js-line" d="M0,256.5L92.8,256.23L93.99,255.69L103.51,255.15L104.7,254.88L108.27,254.61L109.46,254.08L111.84,252.73L113.03,252.73L116.6,252.19L117.79,251.92L121.36,251.65L122.55,251.65L127.31,251.11L128.5,250.57L132.07,250.3L133.26,249.76L139.21,249.23L140.4,248.69L146.35,247.61L147.54,247.61L152.29,247.07L153.48,246.8L158.24,246.8L159.43,245.99L166.57,245.72L167.76,245.19L170.14,244.65L171.33,244.65L174.9,244.38L176.09,243.84L179.66,243.57L180.85,243.57L190.37,241.68L191.56,241.68L192.75,241.41L193.94,240.34L197.51,238.45L198.7,238.45L201.08,237.37L202.27,237.37L204.65,235.22L205.84,235.22L209.4,235.22L210.59,232.52L214.16,230.64L215.35,226.6L221.3,208.82L222.49,183.22L223.68,183.22L224.87,177.3L226.06,174.6L227.25,168.94L228.44,163.29L229.63,163.29L232.01,153.32L233.2,150.36L236.77,142L237.96,140.66L239.15,140.66L240.34,134.19L243.91,114.26L245.1,109.14L247.48,104.29L248.67,97.82L252.24,87.05L253.43,81.93L255.81,79.5L257,76.54L261.76,55.53L262.95,53.91L264.14,52.56L265.33,49.87L266.52,47.71L267.71,42.86L270.08,37.75L271.27,37.21L272.46,36.94L273.65,35.86L276.03,32.09L277.22,30.47L281.98,28.05L283.17,26.43L284.36,25.89L285.55,23.47L287.93,21.58L289.12,21.58L290.31,20.77L291.5,17.81L293.88,14.85L295.07,13.5L297.45,13.5" style="vector-effect: non-scaling-stroke; fill: none; stroke: rgb(67, 99, 216); stroke-opacity: 1; stroke-width: 2px; opacity: 1;"/></g><g class="points"/><g class="text"/></g><g class="trace scatter trace622b47" style="stroke-miterlimit: 2; opacity: 1;"><g class="fills"/><g class="errorbars"/><g class="lines"><path class="js-line" d="M0,256.5L66.63,255.96L67.82,255.69L76.15,255.15L77.34,254.88L82.1,254.61L83.29,254.08L86.86,253.81L88.05,252.19L95.18,249.5L96.37,249.5L98.75,248.96L99.94,247.88L105.89,247.34L107.08,247.07L108.27,246.8L109.46,245.45L121.36,245.19L122.55,243.84L126.12,243.3L127.31,243.03L133.26,242.76L134.45,241.95L155.86,241.41L157.05,240.87L163,240.61L164.19,240.07L173.71,239.53L174.9,238.72L191.56,238.18L192.75,237.91L196.32,237.91L197.51,236.56L204.65,234.14L205.84,234.14L207.03,231.98L208.22,231.72L211.78,230.64L212.97,230.64L217.73,230.1L218.92,228.75L220.11,227.4L221.3,227.4L224.87,222.56L226.06,222.29L228.44,218.25L229.63,218.25L234.39,214.74L235.58,213.13L237.96,213.13L239.15,208.82L240.34,208.28L241.53,206.39L243.91,202.89L245.1,202.89L246.29,202.89L247.48,197.77L248.67,197.5L249.86,194.54L251.05,194.54L252.24,193.46L254.62,193.46L255.81,190.23L260.57,182.68L261.76,182.68L262.95,182.68L264.14,177.57L265.33,176.76L266.52,174.6L268.89,168.41L270.08,168.41L271.27,168.41L272.46,167.06L274.84,165.17L276.03,163.29L277.22,162.21L278.41,162.21L279.6,162.21L280.79,160.59L281.98,160.05L283.17,158.44L285.55,155.47L286.74,155.47L287.93,155.47L289.12,153.32L291.5,149.01L292.69,148.2L293.88,147.12L295.07,147.12L296.26,147.12L297.45,145.51" style="vector-effect: non-scaling-stroke; fill: none; stroke: rgb(245, 130, 49); stroke-opacity: 1; stroke-width: 2px; opacity: 1;"/></g><g class="points"/><g class="text"/></g><g class="trace scatter tracee36ceb" style="stroke-miterlimit: 2; opacity: 1;"><g class="fills"/><g class="errorbars"/><g class="lines"><path class="js-line" d="M0,256.5L95.18,255.96L96.37,255.69L151.1,255.15L152.29,254.88L155.86,254.61L157.05,254.61L176.09,254.34L177.28,253.81L201.08,253.27L202.27,252.46L208.22,251.92L209.4,251.65L210.59,251.38L211.78,249.23L217.73,246.26L218.92,244.92L221.3,243.3L222.49,243.03L223.68,243.03L224.87,241.68L226.06,241.41L227.25,240.34L230.82,239.26L232.01,236.03L233.2,236.03L234.39,234.14L237.96,232.52L239.15,232.52L240.34,229.02L241.53,228.48L245.1,226.06L246.29,226.06L251.05,223.9L252.24,223.9L254.62,218.51L255.81,217.98L258.19,214.47L259.38,212.05L265.33,206.12L266.52,204.77L270.08,199.39L271.27,197.77L274.84,194.54L276.03,193.19L278.41,192.65L279.6,191.04L283.17,187.26L284.36,186.99L291.5,185.65L292.69,184.84L296.26,178.91L297.45,178.91" style="vector-effect: non-scaling-stroke; fill: none; stroke: rgb(145, 30, 180); stroke-opacity: 1; stroke-width: 2px; opacity: 1;"/></g><g class="points"/><g class="text"/></g></g></g><g class="overplot"/><path class="xlines-above crisp" d="M0,0" style="fill: none;"/><path class="ylines-above crisp" d="M0,0" style="fill: none;"/><g class="overlines-above"/><g class="xaxislayer-above"><g class="x2tick"><text text-anchor="middle" x="0" y="383" transform="translate(489.95,0)" style="font-family: 'Open Sans', verdana, arial, sans-serif; font-size: 12px; fill: rgb(242, 245, 250); fill-opacity: 1; white-space: pre;">Mar 2020</text></g><g class="x2tick"><text text-anchor="middle" x="0" y="383" transform="translate(562.53,0)" style="font-family: 'Open Sans', verdana, arial, sans-serif; font-size: 12px; fill: rgb(242, 245, 250); fill-opacity: 1; white-space: pre;">May 2020</text></g><g class="x2tick"><text text-anchor="middle" x="0" y="383" transform="translate(635.11,0)" style="font-family: 'Open Sans', verdana, arial, sans-serif; font-size: 12px; fill: rgb(242, 245, 250); fill-opacity: 1; white-space: pre;">Jul 2020</text></g><g class="x2tick"><text text-anchor="middle" x="0" y="383" transform="translate(708.88,0)" style="font-family: 'Open Sans', verdana, arial, sans-serif; font-size: 12px; fill: rgb(242, 245, 250); fill-opacity: 1; white-space: pre;">Sep 2020</text></g></g><g class="yaxislayer-above"><g class="y2tick"><text text-anchor="end" x="442.55" y="4.199999999999999" transform="translate(0,356.5)" style="font-family: 'Open Sans', verdana, arial, sans-serif; font-size: 12px; fill: rgb(242, 245, 250); fill-opacity: 1; white-space: pre;">0</text></g><g class="y2tick"><text text-anchor="end" x="442.55" y="4.199999999999999" transform="translate(0,302.62)" style="font-family: 'Open Sans', verdana, arial, sans-serif; font-size: 12px; fill: rgb(242, 245, 250); fill-opacity: 1; white-space: pre;">200</text></g><g class="y2tick"><text text-anchor="end" x="442.55" y="4.199999999999999" transform="translate(0,248.74)" style="font-family: 'Open Sans', verdana, arial, sans-serif; font-size: 12px; fill: rgb(242, 245, 250); fill-opacity: 1; white-space: pre;">400</text></g><g class="y2tick"><text text-anchor="end" x="442.55" y="4.199999999999999" transform="translate(0,194.86)" style="font-family: 'Open Sans', verdana, arial, sans-serif; font-size: 12px; fill: rgb(242, 245, 250); fill-opacity: 1; white-space: pre;">600</text></g><g class="y2tick"><text text-anchor="end" x="442.55" y="4.199999999999999" transform="translate(0,140.98)" style="font-family: 'Open Sans', verdana, arial, sans-serif; font-size: 12px; fill: rgb(242, 245, 250); fill-opacity: 1; white-space: pre;">800</text></g></g><g class="overaxes-above"/></g></g><g class="polarlayer"/><g class="ternarylayer"/><g class="geolayer"/><g class="funnelarealayer"/><g class="pielayer"/><g class="treemaplayer"/><g class="sunburstlayer"/><g class="glimages"/><defs id="topdefs-33b917"><g class="clips"/><clipPath id="legend33b917"><rect width="134" height="124" x="0" y="0"/></clipPath></defs><g class="layer-above"><g class="imagelayer"/><g class="shapelayer"/></g><g class="infolayer"><g class="legend" pointer-events="all" transform="translate(754.22, 100)"><rect class="bg" shape-rendering="crispEdges" width="134" height="124" x="0" y="0" style="stroke: rgb(68, 68, 68); stroke-opacity: 1; fill: rgb(17, 17, 17); fill-opacity: 1; stroke-width: 0px;"/><g class="scrollbox" transform="translate(0, 0)" clip-path="url('#legend33b917')"><g class="groups"><g class="traces" transform="translate(0, 14.5)" style="opacity: 1;"><text class="legendtext user-select-none" text-anchor="start" x="40" y="4.680000000000001" style="font-family: 'Open Sans', verdana, arial, sans-serif; font-size: 12px; fill: rgb(242, 245, 250); fill-opacity: 1; white-space: pre;">Alameda, CA</text><g class="layers" style="opacity: 1;"><g class="legendfill"/><g class="legendlines"><path class="js-line" d="M5,0h30" style="fill: none; stroke: rgb(230, 25, 75); stroke-opacity: 1; stroke-width: 2px;"/></g><g class="legendsymbols"><g class="legendpoints"/></g></g><rect class="legendtoggle" pointer-events="all" x="0" y="-9.5" width="128.046875" height="19" style="cursor: pointer; fill: rgb(0, 0, 0); fill-opacity: 0;"/></g><g class="traces" transform="translate(0, 33.5)" style="opacity: 1;"><text class="legendtext user-select-none" text-anchor="start" x="40" y="4.680000000000001" style="font-family: 'Open Sans', verdana, arial, sans-serif; font-size: 12px; fill: rgb(242, 245, 250); fill-opacity: 1; white-space: pre;">St Louis, MO</text><g class="layers" style="opacity: 1;"><g class="legendfill"/><g class="legendlines"><path class="js-line" d="M5,0h30" style="fill: none; stroke: rgb(60, 180, 75); stroke-opacity: 1; stroke-width: 2px;"/></g><g class="legendsymbols"><g class="legendpoints"/></g></g><rect class="legendtoggle" pointer-events="all" x="0" y="-9.5" width="128.046875" height="19" style="cursor: pointer; fill: rgb(0, 0, 0); fill-opacity: 0;"/></g><g class="traces" transform="translate(0, 52.5)" style="opacity: 1;"><text class="legendtext user-select-none" text-anchor="start" x="40" y="4.680000000000001" style="font-family: 'Open Sans', verdana, arial, sans-serif; font-size: 12px; fill: rgb(242, 245, 250); fill-opacity: 1; white-space: pre;">Jackson, MO</text><g class="layers" style="opacity: 1;"><g class="legendfill"/><g class="legendlines"><path class="js-line" d="M5,0h30" style="fill: none; stroke: rgb(255, 225, 25); stroke-opacity: 1; stroke-width: 2px;"/></g><g class="legendsymbols"><g class="legendpoints"/></g></g><rect class="legendtoggle" pointer-events="all" x="0" y="-9.5" width="128.046875" height="19" style="cursor: pointer; fill: rgb(0, 0, 0); fill-opacity: 0;"/></g><g class="traces" transform="translate(0, 71.5)" style="opacity: 1;"><text class="legendtext user-select-none" text-anchor="start" x="40" y="4.680000000000001" style="font-family: 'Open Sans', verdana, arial, sans-serif; font-size: 12px; fill: rgb(242, 245, 250); fill-opacity: 1; white-space: pre;">Cameron, TX</text><g class="layers" style="opacity: 1;"><g class="legendfill"/><g class="legendlines"><path class="js-line" d="M5,0h30" style="fill: none; stroke: rgb(67, 99, 216); stroke-opacity: 1; stroke-width: 2px;"/></g><g class="legendsymbols"><g class="legendpoints"/></g></g><rect class="legendtoggle" pointer-events="all" x="0" y="-9.5" width="128.046875" height="19" style="cursor: pointer; fill: rgb(0, 0, 0); fill-opacity: 0;"/></g><g class="traces" transform="translate(0, 90.5)" style="opacity: 1;"><text class="legendtext user-select-none" text-anchor="start" x="40" y="4.680000000000001" style="font-family: 'Open Sans', verdana, arial, sans-serif; font-size: 12px; fill: rgb(242, 245, 250); fill-opacity: 1; white-space: pre;">Sacramento, CA</text><g class="layers" style="opacity: 1;"><g class="legendfill"/><g class="legendlines"><path class="js-line" d="M5,0h30" style="fill: none; stroke: rgb(245, 130, 49); stroke-opacity: 1; stroke-width: 2px;"/></g><g class="legendsymbols"><g class="legendpoints"/></g></g><rect class="legendtoggle" pointer-events="all" x="0" y="-9.5" width="128.046875" height="19" style="cursor: pointer; fill: rgb(0, 0, 0); fill-opacity: 0;"/></g><g class="traces" transform="translate(0, 109.5)" style="opacity: 1;"><text class="legendtext user-select-none" text-anchor="start" x="40" y="4.680000000000001" style="font-family: 'Open Sans', verdana, arial, sans-serif; font-size: 12px; fill: rgb(242, 245, 250); fill-opacity: 1; white-space: pre;">Marion, FL</text><g class="layers" style="opacity: 1;"><g class="legendfill"/><g class="legendlines"><path class="js-line" d="M5,0h30" style="fill: none; stroke: rgb(145, 30, 180); stroke-opacity: 1; stroke-width: 2px;"/></g><g class="legendsymbols"><g class="legendpoints"/></g></g><rect class="legendtoggle" pointer-events="all" x="0" y="-9.5" width="128.046875" height="19" style="cursor: pointer; fill: rgb(0, 0, 0); fill-opacity: 0;"/></g></g></g><rect class="scrollbar" rx="20" ry="3" width="0" height="0" x="0" y="0" style="fill: rgb(128, 139, 164); fill-opacity: 1;"/></g><g class="g-gtitle"/><g class="g-xtitle"><text class="xtitle" x="228.725" y="410.8" text-anchor="middle" style="font-family: 'Open Sans', verdana, arial, sans-serif; font-size: 14px; fill: rgb(242, 245, 250); opacity: 1; font-weight: normal; white-space: pre;">Date</text></g><g class="g-x2title"><text class="x2title" x="592.275" y="410.8" text-anchor="middle" style="font-family: 'Open Sans', verdana, arial, sans-serif; font-size: 14px; fill: rgb(242, 245, 250); opacity: 1; font-weight: normal; white-space: pre;">Date</text></g><g class="g-ytitle"><text class="ytitle" transform="rotate(-90,34.840625,235)" x="34.840625" y="235" text-anchor="middle" style="font-family: 'Open Sans', verdana, arial, sans-serif; font-size: 14px; fill: rgb(242, 245, 250); opacity: 1; font-weight: normal; white-space: pre;">Cases</text></g><g class="g-y2title"><text class="y2title" transform="rotate(-90,397.715625,235)" x="397.715625" y="235" text-anchor="middle" style="font-family: 'Open Sans', verdana, arial, sans-serif; font-size: 14px; fill: rgb(242, 245, 250); opacity: 1; font-weight: normal; white-space: pre;">Deaths</text></g><g class="annotation" data-index="0" style="opacity: 1;"><g class="annotation-text-g" transform="rotate(0,228.725,89.5)"><g class="cursor-pointer" transform="translate(204, 79)"><rect class="bg" x="0.5" y="0.5" width="48" height="20" style="stroke-width: 1px; stroke: rgb(0, 0, 0); stroke-opacity: 0; fill: rgb(0, 0, 0); fill-opacity: 0;"/><text class="annotation-text" text-anchor="middle" x="24.6875" y="16" style="font-family: 'Open Sans', verdana, arial, sans-serif; font-size: 16px; fill: rgb(242, 245, 250); fill-opacity: 1; white-space: pre;">Cases</text></g></g></g><g class="annotation" data-index="1" style="opacity: 1;"><g class="annotation-text-g" transform="rotate(0,592.275,89.5)"><g class="cursor-pointer" transform="translate(565, 79)"><rect class="bg" x="0.5" y="0.5" width="54" height="20" style="stroke-width: 1px; stroke: rgb(0, 0, 0); stroke-opacity: 0; fill: rgb(0, 0, 0); fill-opacity: 0;"/><text class="annotation-text" text-anchor="middle" x="27.359375" y="16" style="font-family: 'Open Sans', verdana, arial, sans-serif; font-size: 16px; fill: rgb(242, 245, 250); fill-opacity: 1; white-space: pre;">Deaths</text></g></g></g></g></svg>