<svg class="main-svg" xmlns="http://www.w3.org/2000/svg" xmlns:xlink="http://www.w3.org/1999/xlink" width="900" height="450" style="" viewBox="0 0 900 450"><rect x="0" y="0" width="900" height="450" style="fill: rgb(17, 17, 17); fill-opacity: 1;"/><defs id="defs-585430"><g class="clips"><clipPath id="clip585430xyplot" class="plotclip"><rect width="292.05" height="270"/></clipPath><clipPath id="clip585430x2y2plot" class="plotclip"><rect width="292.04999999999995" height="270"/></clipPath><clipPath class="axesclip" id="clip585430x"><rect x="80" y="0" width="292.05" height="450"/></clipPath><clipPath class="axesclip" id="clip585430y"><rect x="0" y="100" width="900" height="270"/></clipPath><clipPath class="axesclip" id="clip585430xy"><rect x="80" y="100" width="292.05" height="270"/></clipPath><clipPath class="axesclip" id="clip585430y2"><rect x="0" y="100" width="900" height="270"/></clipPath><clipPath class="axesclip" id="clip585430xy2"><rect x="80" y="100" width="292.05" height="270"/></clipPath><clipPath class="axesclip" id="clip585430x2"><rect x="436.95000000000005" y="0" width="292.04999999999995" height="450"/></clipPath><clipPath class="axesclip" id="clip585430x2y"><rect x="436.95000000000005" y="100" width="292.04999999999995" height="270"/></clipPath><clipPath class="axesclip" id="clip585430x2y2"><rect x="436.95000000000005" y="100" width="292.04999999999995" height="270"/></clipPath></g><g class="gradients"/></defs><g class="bglayer"/><g class="layer-below"><g class="imagelayer"/><g class="shapelayer"/></g><g class="cartesianlayer"><g class="subplot xy"><g class="layer-subplot"><g class="shapelayer"/><g class="imagelayer"/></g><g class="gridlayer"><g class="x"><path class="xgrid crisp" transform="translate(123.47,0)" d="M0,100v270" style="stroke: rgb(40, 52, 66); stroke-opacity: 1; stroke-width: 1px;"/><path class="xgrid crisp" transform="translate(191.47,0)" d="M0,100v270" style="stroke: rgb(40, 52, 66); stroke-opacity: 1; stroke-width: 1px;"/><path class="xgrid crisp" transform="translate(259.47,0)" d="M0,100v270" style="stroke: rgb(40, 52, 66); stroke-opacity: 1; stroke-width: 1px;"/><path class="xgrid crisp" transform="translate(328.58000000000004,0)" d="M0,100v270" style="stroke: rgb(40, 52, 66); stroke-opacity: 1; stroke-width: 1px;"/></g><g class="y"><path class="ygrid crisp" transform="translate(0,301.45)" d="M80,0h292.05" style="stroke: rgb(40, 52, 66); stroke-opacity: 1; stroke-width: 1px;"/><path class="ygrid crisp" transform="translate(0,246.41)" d="M80,0h292.05" style="stroke: rgb(40, 52, 66); stroke-opacity: 1; stroke-width: 1px;"/><path class="ygrid crisp" transform="translate(0,191.36)" d="M80,0h292.05" style="stroke: rgb(40, 52, 66); stroke-opacity: 1; stroke-width: 1px;"/><path class="ygrid crisp" transform="translate(0,136.31)" d="M80,0h292.05" style="stroke: rgb(40, 52, 66); stroke-opacity: 1; stroke-width: 1px;"/></g></g><g class="zerolinelayer"><path class="yzl zl crisp" transform="translate(0,356.5)" d="M80,0h292.05" style="stroke: rgb(40, 52, 66); stroke-opacity: 1; stroke-width: 2px;"/></g><path class="xlines-below"/><path class="ylines-below"/><g class="overlines-below"/><g class="xaxislayer-below"/><g class="yaxislayer-below"/><g class="overaxes-below"/><g class="plot" transform="translate(80, 100)" clip-path="url('#clip585430xyplot')"><g class="scatterlayer mlayer"><g class="trace scatter tracec8c98c" style="stroke-miterlimit: 2; opacity: 1;"><g class="fills"/><g class="errorbars"/><g class="lines"><path class="js-line" d="M0,256.5L65.77,255.78L66.88,255.33L72.46,254.08L73.57,253.68L78.03,252.55L79.14,252.14L90.29,247.22L91.4,246.77L92.52,246.77L93.63,245.91L110.35,238.85L111.47,238.49L114.81,236.95L115.93,236.58L135.99,226.04L137.11,225.16L138.22,224.86L139.34,223.63L143.8,220.29L144.91,219.18L152.71,213.85L153.83,213.07L157.17,211.15L158.29,210.08L163.86,206.59L164.97,205.44L168.32,203.6L169.43,201.38L175.01,194.76L176.12,194.08L177.24,193.06L178.35,190.84L181.7,185.25L182.81,184.32L183.92,181.03L185.04,180.68L186.15,180.68L187.27,176.74L190.61,171.45L191.73,171.45L195.07,163.16L196.19,161.52L199.53,154.81L200.65,154.6L201.76,153.2L202.87,150.34L206.22,142.77L207.33,142.33L208.45,141.58L209.56,139.44L210.68,137.9L211.79,133.95L212.91,133.95L214.02,130.07L215.14,129.63L216.25,126.08L217.37,125.39L218.48,122.89L221.82,122.89L222.94,111.19L224.05,110.98L225.17,106.07L226.28,101.28L227.4,99.85L228.51,96.22L229.63,96.22L230.74,90L231.86,89.93L237.43,72.72L238.54,72.39L239.66,72.28L240.77,66.31L241.89,65.1L243,62.5L244.12,60.01L245.23,60.01L253.04,45.88L254.15,45.88L255.27,43.47L256.38,43.47L258.61,39.5L259.72,38.3L260.84,38.11L261.95,36.41L266.41,34.53L267.53,32.3L269.76,30.17L270.87,29.25L277.56,23.22L278.67,22.66L286.48,17.09L287.59,16.4L290.94,14.93L292.05,13.5" style="vector-effect: non-scaling-stroke; fill: none; stroke: rgb(230, 25, 75); stroke-opacity: 1; stroke-width: 2px; opacity: 1;"/></g><g class="points"/><g class="text"/></g><g class="trace scatter trace6733d5" style="stroke-miterlimit: 2; opacity: 1;"><g class="fills"/><g class="errorbars"/><g class="lines"><path class="js-line" d="M0,256.5L73.57,255.87L74.68,255.72L93.63,252.1L94.75,251.7L105.9,250.29L107.01,249.35L118.16,247.31L119.27,246.93L123.73,245.81L124.85,245.7L130.42,244.21L131.53,243.89L135.99,242.95L137.11,242.34L141.57,241.28L142.68,240.42L143.8,238.68L144.91,238.68L154.94,232.04L156.06,230.4L162.75,222.68L163.86,221.9L167.2,217.57L168.32,216.1L170.55,214.42L171.66,211.74L175.01,206.54L176.12,204.39L182.81,193.89L183.92,192.04L189.5,183.34L190.61,180.3L196.19,170.12L197.3,168.25L202.87,159.4L203.99,157.94L207.33,153.64L208.45,152.32L214.02,145.13L215.14,144.34L219.59,139.69L220.71,137.65L221.82,137.65L222.94,136.32L226.28,134.2L227.4,134.2L229.63,132.78L230.74,132.62L235.2,131.12L236.32,130.09L239.66,128.57L240.77,126.54L243,126.03L244.12,124.81L247.46,122.88L248.58,122.46L249.69,122.05L250.81,120.78L254.15,117.9L255.27,117.23L258.61,116.38L259.72,113.2L267.53,106.4L268.64,105.56L271.99,103.92L273.1,102.84L277.56,98.45L278.67,97.71L280.9,96.31L282.02,96.02L286.48,91.06L287.59,90.38L289.82,88.66L290.94,87.01L292.05,85.8" style="vector-effect: non-scaling-stroke; fill: none; stroke: rgb(60, 180, 75); stroke-opacity: 1; stroke-width: 2px; opacity: 1;"/></g><g class="points"/><g class="text"/></g><g class="trace scatter tracefec85c" style="stroke-miterlimit: 2; opacity: 1;"><g class="fills"/><g class="errorbars"/><g class="lines"><path class="js-line" d="M0,256.5L70.23,255.76L71.34,255.51L79.14,251.83L80.26,250.81L84.72,248.04L85.83,247.31L89.18,243.39L90.29,241.89L98.09,237.44L99.21,236.91L101.44,235.49L102.55,232.49L103.67,226.81L104.78,225.35L107.01,222.72L108.13,220.5L113.7,212.25L114.81,211.33L122.62,201.46L123.73,200.08L127.08,194.96L128.19,193.22L133.76,187.29L134.88,186.46L135.99,185.75L137.11,183.88L141.57,181.06L142.68,180.2L146.02,175.6L147.14,175.25L152.71,171.91L153.83,171.75L163.86,168.91L164.97,168.66L183.92,164.89L185.04,164.78L193.96,162.62L195.07,162.28L207.33,158.71L208.45,158.44L216.25,155.73L217.37,154.95L226.28,152.92L227.4,152.92L235.2,152.92L236.32,151.21L241.89,150.35L243,150.03L268.64,142.16L269.76,141.69L277.56,139.57L278.67,139.22L282.02,137.99L283.13,137.28L292.05,133.77" style="vector-effect: non-scaling-stroke; fill: none; stroke: rgb(255, 225, 25); stroke-opacity: 1; stroke-width: 2px; opacity: 1;"/></g><g class="points"/><g class="text"/></g><g class="trace scatter tracebe3e11" style="stroke-miterlimit: 2; opacity: 1;"><g class="fills"/><g class="errorbars"/><g class="lines"><path class="js-line" d="M0,256.5L149.37,255.82L150.48,255.74L172.78,252.93L173.89,252.57L187.27,249.35L188.38,248.74L211.79,238.87L212.91,237.91L216.25,236.07L217.37,235.37L224.05,231.96L225.17,231.73L230.74,229.69L231.86,229.46L238.54,227.01L239.66,226.93L247.46,224.83L248.58,224.57L253.04,223.66L254.15,223.24L260.84,222.06L261.95,221.55L265.3,220.42L266.41,219.67L282.02,214.05L283.13,213.54L289.82,211.28L290.94,210.39L292.05,209.67" style="vector-effect: non-scaling-stroke; fill: none; stroke: rgb(67, 99, 216); stroke-opacity: 1; stroke-width: 2px; opacity: 1;"/></g><g class="points"/><g class="text"/></g><g class="trace scatter trace5c6a15" style="stroke-miterlimit: 2; opacity: 1;"><g class="fills"/><g class="errorbars"/><g class="lines"><path class="js-line" d="M0,256.5L72.46,255.88L73.57,255.69L100.32,251.91L101.44,251.8L107.01,251.33L108.13,251.28L125.96,249.96L127.08,249.81L162.75,246.97L163.86,246.68L170.55,243.87L171.66,243.05L173.89,240.15L175.01,238.35L177.24,235.37L178.35,234.19L181.7,228.69L182.81,225.88L185.04,222.72L186.15,221.38L188.38,218.34L189.5,216.23L191.73,210.62L192.84,207.6L195.07,204.19L196.19,198.48L200.65,187.49L201.76,185.17L210.68,166.99L211.79,165.33L216.25,158.58L217.37,157.22L224.05,148.95L225.17,147.97L235.2,140.34L236.32,139.59L240.77,137.55L241.89,137.11L247.46,133.92L248.58,132.53L266.41,125.28L267.53,124.66L271.99,122.09L273.1,121.65L282.02,117.73L283.13,116.79L289.82,113.85L290.94,113.12L292.05,112.14" style="vector-effect: non-scaling-stroke; fill: none; stroke: rgb(245, 130, 49); stroke-opacity: 1; stroke-width: 2px; opacity: 1;"/></g><g class="points"/><g class="text"/></g><g class="trace scatter tracebb4e4a" style="stroke-miterlimit: 2; opacity: 1;"><g class="fills"/><g class="errorbars"/><g class="lines"><path class="js-line" d="M0,256.5L62.42,255.94L63.54,255.73L70.23,254.54L71.34,254.04L75.8,252.38L76.91,252.13L88.06,247.73L89.18,247.06L90.29,246.9L91.4,245.96L98.09,243.76L99.21,243.11L102.55,242.17L103.67,241.75L107.01,240.82L108.13,240.34L114.81,238.62L115.93,237.48L120.39,235.68L121.5,235.11L129.3,233.89L130.42,233.04L132.65,232.44L133.76,232.3L135.99,230.63L137.11,230.44L143.8,228.62L144.91,228.34L149.37,227.39L150.48,226.8L157.17,225.23L158.29,224.83L167.2,222.83L168.32,222.83L170.55,221.06L171.66,220.73L179.47,216.34L180.58,215.56L182.81,214.93L183.92,214.93L185.04,212.55L186.15,212.24L188.38,210.87L189.5,208.98L192.84,205.97L193.96,205.42L195.07,204.8L196.19,202.99L201.76,197.46L202.87,196.4L210.68,188.27L211.79,185.79L216.25,179.56L217.37,179.56L221.82,174.68L222.94,173.4L226.28,170.25L227.4,169.04L234.09,162.61L235.2,161.7L240.77,157.62L241.89,156.75L249.69,150.62L250.81,149.75L275.33,134.98L276.44,133.82L278.67,133.25L279.79,132.78L290.94,128.69L292.05,128.69" style="vector-effect: non-scaling-stroke; fill: none; stroke: rgb(145, 30, 180); stroke-opacity: 1; stroke-width: 2px; opacity: 1;"/></g><g class="points"/><g class="text"/></g></g></g><g class="overplot"/><path class="xlines-above crisp" d="M0,0" style="fill: none;"/><path class="ylines-above crisp" d="M0,0" style="fill: none;"/><g class="overlines-above"/><g class="xaxislayer-above"><g class="xtick"><text text-anchor="middle" x="0" y="383" transform="translate(123.47,0)" style="font-family: 'Open Sans', verdana, arial, sans-serif; font-size: 12px; fill: rgb(242, 245, 250); fill-opacity: 1; white-space: pre;">Mar 2020</text></g><g class="xtick"><text text-anchor="middle" x="0" y="383" transform="translate(191.47,0)" style="font-family: 'Open Sans', verdana, arial, sans-serif; font-size: 12px; fill: rgb(242, 245, 250); fill-opacity: 1; white-space: pre;">May 2020</text></g><g class="xtick"><text text-anchor="middle" x="0" y="383" transform="translate(259.47,0)" style="font-family: 'Open Sans', verdana, arial, sans-serif; font-size: 12px; fill: rgb(242, 245, 250); fill-opacity: 1; white-space: pre;">Jul 2020</text></g><g class="xtick"><text text-anchor="middle" x="0" y="383" transform="translate(328.58000000000004,0)" style="font-family: 'Open Sans', verdana, arial, sans-serif; font-size: 12px; fill: rgb(242, 245, 250); fill-opacity: 1; white-space: pre;">Sep 2020</text></g></g><g class="yaxislayer-above"><g class="ytick"><text text-anchor="end" x="79" y="4.199999999999999" transform="translate(0,356.5)" style="font-family: 'Open Sans', verdana, arial, sans-serif; font-size: 12px; fill: rgb(242, 245, 250); fill-opacity: 1; white-space: pre;">0</text></g><g class="ytick"><text text-anchor="end" x="79" y="4.199999999999999" transform="translate(0,301.45)" style="font-family: 'Open Sans', verdana, arial, sans-serif; font-size: 12px; fill: rgb(242, 245, 250); fill-opacity: 1; white-space: pre;">5k</text></g><g class="ytick"><text text-anchor="end" x="79" y="4.199999999999999" transform="translate(0,246.41)" style="font-family: 'Open Sans', verdana, arial, sans-serif; font-size: 12px; fill: rgb(242, 245, 250); fill-opacity: 1; white-space: pre;">10k</text></g><g class="ytick"><text text-anchor="end" x="79" y="4.199999999999999" transform="translate(0,191.36)" style="font-family: 'Open Sans', verdana, arial, sans-serif; font-size: 12px; fill: rgb(242, 245, 250); fill-opacity: 1; white-space: pre;">15k</text></g><g class="ytick"><text text-anchor="end" x="79" y="4.199999999999999" transform="translate(0,136.31)" style="font-family: 'Open Sans', verdana, arial, sans-serif; font-size: 12px; fill: rgb(242, 245, 250); fill-opacity: 1; white-space: pre;">20k</text></g></g><g class="overaxes-above"/></g><g class="subplot x2y2"><g class="layer-subplot"><g class="shapelayer"/><g class="imagelayer"/></g><g class="gridlayer"><g class="x2"><path class="x2grid crisp" transform="translate(480.4200000000001,0)" d="M0,100v270" style="stroke: rgb(40, 52, 66); stroke-opacity: 1; stroke-width: 1px;"/><path class="x2grid crisp" transform="translate(548.4200000000001,0)" d="M0,100v270" style="stroke: rgb(40, 52, 66); stroke-opacity: 1; stroke-width: 1px;"/><path class="x2grid crisp" transform="translate(616.4200000000001,0)" d="M0,100v270" style="stroke: rgb(40, 52, 66); stroke-opacity: 1; stroke-width: 1px;"/><path class="x2grid crisp" transform="translate(685.5300000000001,0)" d="M0,100v270" style="stroke: rgb(40, 52, 66); stroke-opacity: 1; stroke-width: 1px;"/></g><g class="y2"><path class="y2grid crisp" transform="translate(0,288.81)" d="M436.95000000000005,0h292.04999999999995" style="stroke: rgb(40, 52, 66); stroke-opacity: 1; stroke-width: 1px;"/><path class="y2grid crisp" transform="translate(0,221.12)" d="M436.95000000000005,0h292.04999999999995" style="stroke: rgb(40, 52, 66); stroke-opacity: 1; stroke-width: 1px;"/><path class="y2grid crisp" transform="translate(0,153.44)" d="M436.95000000000005,0h292.04999999999995" style="stroke: rgb(40, 52, 66); stroke-opacity: 1; stroke-width: 1px;"/></g></g><g class="zerolinelayer"><path class="y2zl zl crisp" transform="translate(0,356.5)" d="M436.95000000000005,0h292.04999999999995" style="stroke: rgb(40, 52, 66); stroke-opacity: 1; stroke-width: 2px;"/></g><path class="xlines-below"/><path class="ylines-below"/><g class="overlines-below"/><g class="xaxislayer-below"/><g class="yaxislayer-below"/><g class="overaxes-below"/><g class="plot" transform="translate(436.95000000000005, 100)" clip-path="url('#clip585430x2y2plot')"><g class="scatterlayer mlayer"><g class="trace scatter tracef82c11" style="stroke-miterlimit: 2; opacity: 1;"><g class="fills"/><g class="errorbars"/><g class="lines"><path class="js-line" d="M0,256.5L70.23,255.82L71.34,255.15L73.57,254.47L74.68,254.13L79.14,253.45L80.26,252.44L83.6,252.1L84.72,251.42L89.18,249.39L90.29,248.72L92.52,248.72L93.63,244.32L95.86,243.3L96.98,242.62L103.67,240.25L104.78,238.9L107.01,238.9L108.13,237.89L112.58,235.18L113.7,235.18L114.81,235.18L115.93,234.16L118.16,233.82L119.27,232.81L123.73,231.46L124.85,230.78L128.19,228.41L129.3,228.41L130.42,228.41L131.53,227.39L135.99,225.36L137.11,225.03L143.8,224.35L144.91,224.01L149.37,223.67L150.48,222.32L154.94,221.98L156.06,220.96L158.29,219.61L159.4,219.61L161.63,218.59L162.75,218.59L164.97,216.9L166.09,216.56L170.55,215.89L171.66,215.21L173.89,212.5L175.01,212.5L176.12,211.49L177.24,211.49L181.7,209.12L182.81,209.12L187.27,208.44L188.38,207.09L192.84,206.41L193.96,205.06L196.19,204.38L197.3,202.01L200.65,201.67L201.76,199.98L205.1,196.26L206.22,196.26L208.45,196.26L209.56,195.24L212.91,194.9L214.02,192.53L216.25,192.53L217.37,191.52L220.71,191.18L221.82,191.18L222.94,187.12L224.05,187.12L225.17,187.12L226.28,184.75L228.51,182.38L229.63,182.38L232.97,180.69L234.09,179.34L236.32,177.64L237.43,177.64L239.66,177.31L240.77,175.27L244.12,172.91L245.23,172.91L246.35,169.52L247.46,169.52L248.58,169.52L249.69,163.77L250.81,156.66L251.92,156.32L254.15,155.31L255.27,154.97L256.38,154.97L257.49,153.95L258.61,153.95L259.72,148.2L260.84,148.2L261.95,144.14L263.07,143.8L264.18,136.02L265.3,136.02L266.41,132.97L268.64,129.92L269.76,129.92L270.87,129.92L271.99,124.51L276.44,119.09L277.56,119.09L279.79,118.42L280.9,117.06L282.02,114.36L283.13,114.36L284.25,112.66L285.36,112.66L287.59,111.99L288.71,107.59L292.05,107.25" style="vector-effect: non-scaling-stroke; fill: none; stroke: rgb(230, 25, 75); stroke-opacity: 1; stroke-width: 2px; opacity: 1;"/></g><g class="points"/><g class="text"/></g><g class="trace scatter trace68111b" style="stroke-miterlimit: 2; opacity: 1;"><g class="fills"/><g class="errorbars"/><g class="lines"><path class="js-line" d="M0,256.5L83.6,255.82L84.72,255.48L86.95,255.48L88.06,254.47L91.4,253.79L92.52,253.12L95.86,252.78L96.98,252.78L102.55,252.1L103.67,251.42L105.9,251.08L107.01,249.73L108.13,249.05L109.24,244.99L111.47,243.64L112.58,243.3L117.04,242.29L118.16,242.29L120.39,241.27L121.5,241.27L130.42,240.93L131.53,239.58L135.99,239.58L137.11,238.56L140.45,237.89L141.57,237.55L144.91,237.21L146.03,237.21L152.71,236.53L153.83,236.19L159.4,233.15L160.52,233.15L164.97,232.81L166.09,231.79L170.55,231.12L171.66,230.44L173.89,230.1L175.01,229.42L180.58,228.75L181.7,227.73L185.04,227.39L186.15,226.38L188.38,222.66L189.5,221.98L191.73,221.3L192.84,220.96L195.07,220.63L196.19,215.21L197.3,214.53L198.42,212.84L202.87,210.47L203.99,208.78L205.1,206.07L206.22,205.4L208.45,204.72L209.56,204.72L212.91,196.93L214.02,195.92L216.25,195.58L217.37,192.87L220.71,192.53L221.82,192.53L222.94,186.1L224.05,186.1L225.17,184.41L226.28,181.37L228.51,181.37L229.63,179.67L231.86,179L232.97,176.97L237.43,174.26L238.54,174.26L241.89,172.57L243,170.87L245.23,169.86L246.35,169.86L247.46,169.86L248.58,168.84L250.81,166.47L251.92,166.47L256.38,165.12L257.49,163.43L261.95,161.4L263.07,160.72L265.3,160.04L266.41,160.04L271.99,156.66L273.1,155.64L276.44,155.31L277.56,155.31L278.67,154.97L279.79,153.28L284.25,151.58L285.36,150.57L287.59,150.57L288.71,148.54L289.82,148.54L290.94,147.18L292.05,146.17" style="vector-effect: non-scaling-stroke; fill: none; stroke: rgb(60, 180, 75); stroke-opacity: 1; stroke-width: 2px; opacity: 1;"/></g><g class="points"/><g class="text"/></g><g class="trace scatter trace83229a" style="stroke-miterlimit: 2; opacity: 1;"><g class="fills"/><g class="errorbars"/><g class="lines"><path class="js-line" d="M0,256.5L76.91,255.82L78.03,255.48L81.37,254.81L82.49,253.79L83.6,253.79L84.72,251.08L89.18,243.3L90.29,241.95L91.4,240.93L92.52,238.56L93.63,237.55L94.75,235.18L96.98,228.41L98.09,227.06L99.21,226.72L100.32,224.01L102.55,219.61L103.67,213.86L107.01,210.13L108.13,204.04L111.47,194.9L112.58,193.21L114.81,187.12L115.93,185.43L120.39,168.51L121.5,166.47L130.42,146.85L131.53,144.81L142.68,119.77L143.8,117.74L144.91,116.05L146.03,111.31L148.25,107.25L149.37,103.53L150.48,102.51L151.6,98.45L153.83,96.42L154.94,93.71L158.29,88.63L159.4,84.91L160.52,81.86L161.63,81.19L162.75,80.51L163.86,77.8L166.09,74.76L167.2,74.08L170.55,71.03L171.66,68.67L172.78,67.65L173.89,65.28L176.12,64.27L177.24,61.9L179.47,61.9L180.58,57.84L181.7,57.84L182.81,56.82L187.27,56.14L188.38,55.47L192.84,53.1L193.96,53.1L199.53,50.39L200.65,50.05L202.87,48.36L203.99,48.36L208.45,47.68L209.56,46.33L217.37,44.64L218.48,44.64L220.71,42.61L221.82,42.61L225.17,40.91L226.28,40.91L232.97,40.91L234.09,38.54L236.32,38.21L237.43,36.51L240.77,35.84L241.89,35.5L246.35,33.47L247.46,33.47L251.92,32.79L253.04,32.45L256.38,30.42L257.49,30.42L260.84,28.73L261.95,28.73L266.41,27.38L267.53,26.36L269.76,24.67L270.87,24.67L273.1,24.33L274.21,22.3L276.44,20.95L277.56,20.95L279.79,20.61L280.9,19.25L286.48,17.56L287.59,16.55L288.71,14.52L289.82,14.18L292.05,13.5" style="vector-effect: non-scaling-stroke; fill: none; stroke: rgb(255, 225, 25); stroke-opacity: 1; stroke-width: 2px; opacity: 1;"/></g><g class="points"/><g class="text"/></g><g class="trace scatter trace480326" style="stroke-miterlimit: 2; opacity: 1;"><g class="fills"/><g class="errorbars"/><g class="lines"><path class="js-line" d="M0,256.5L173.89,255.82L175.01,255.15L178.35,254.81L179.47,254.81L192.84,254.13L193.96,253.79L201.76,253.12L202.87,252.78L205.1,252.1L206.22,252.1L217.37,251.42L218.48,250.75L220.71,250.07L221.82,249.73L231.86,249.05L232.97,248.72L234.09,247.36L235.2,247.36L239.66,246.69L240.77,246.35L243,245.67L244.12,245.67L248.58,244.99L249.69,244.65L255.27,244.32L256.38,243.64L261.95,242.96L263.07,242.62L264.18,241.61L265.3,237.55L273.1,236.87L274.21,236.53L284.25,235.86L285.36,235.52L287.59,234.84L288.71,234.5L289.82,233.82L290.94,232.13L292.05,230.44" style="vector-effect: non-scaling-stroke; fill: none; stroke: rgb(67, 99, 216); stroke-opacity: 1; stroke-width: 2px; opacity: 1;"/></g><g class="points"/><g class="text"/></g><g class="trace scatter trace6ffb42" style="stroke-miterlimit: 2; opacity: 1;"><g class="fills"/><g class="errorbars"/><g class="lines"><path class="js-line" d="M0,256.5L78.03,256.16L79.14,255.15L101.44,254.47L102.55,254.13L115.93,253.45L117.04,252.78L122.62,252.1L123.73,251.42L128.19,250.75L129.3,250.75L146.03,250.07L147.14,249.73L164.97,249.05L166.09,248.72L179.47,248.04L180.58,247.7L182.81,247.7L183.92,247.36L186.15,246.69L187.27,246.35L190.61,246.01L191.73,246.01L192.84,246.01L193.96,243.98L200.65,243.64L201.76,241.95L202.87,241.95L203.99,239.92L206.22,239.24L207.33,239.24L209.56,238.56L210.68,235.86L211.79,234.84L212.91,232.47L214.02,229.76L215.14,229.42L216.25,229.09L217.37,226.72L219.59,224.01L220.71,222.66L221.82,221.3L222.94,221.3L225.17,220.63L226.28,220.29L228.51,219.61L229.63,216.56L236.32,214.19L237.43,213.52L248.58,212.84L249.69,212.16L254.15,211.49L255.27,211.49L258.61,211.15L259.72,210.47L271.99,209.8L273.1,209.12L275.33,207.43L276.44,207.43L278.67,207.43L279.79,206.41L282.02,203.7L283.13,203.7L285.36,203.03L286.48,203.03L288.71,199.64L289.82,198.97L292.05,197.61" style="vector-effect: non-scaling-stroke; fill: none; stroke: rgb(245, 130, 49); stroke-opacity: 1; stroke-width: 2px; opacity: 1;"/></g><g class="points"/><g class="text"/></g><g class="trace scatter trace45effa" style="stroke-miterlimit: 2; opacity: 1;"><g class="fills"/><g class="errorbars"/><g class="lines"><path class="js-line" d="M0,256.5L71.34,255.82L72.46,255.48L79.14,254.13L80.26,254.13L85.83,253.12L86.95,253.12L88.06,252.1L89.18,252.1L99.21,249.73L100.32,249.73L104.78,249.05L105.9,249.05L110.35,248.04L111.47,247.02L119.27,245.33L120.39,245.33L124.85,244.65L125.96,244.65L129.3,244.32L130.42,244.32L133.76,243.98L134.88,242.96L146.03,242.29L147.14,241.95L161.63,241.27L162.75,240.93L166.09,240.59L167.2,240.59L175.01,239.92L176.12,239.58L200.65,238.9L201.76,238.56L203.99,237.89L205.1,237.55L211.79,236.87L212.91,236.53L215.14,235.86L216.25,235.86L219.59,235.18L220.71,234.84L221.82,233.82L222.94,233.82L231.86,233.15L232.97,232.81L235.2,232.13L236.32,232.13L239.66,230.44L240.77,230.44L243,228.75L244.12,228.41L251.92,228.07L253.04,227.39L258.61,226.72L259.72,226.38L264.18,225.7L265.3,225.7L266.41,225.7L267.53,224.01L271.99,222.99L273.1,222.99L279.79,222.32L280.9,221.3L283.13,220.29L284.25,220.29L287.59,218.93L288.71,217.92L289.82,217.58L290.94,214.87L292.05,214.87" style="vector-effect: non-scaling-stroke; fill: none; stroke: rgb(145, 30, 180); stroke-opacity: 1; stroke-width: 2px; opacity: 1;"/></g><g class="points"/><g class="text"/></g></g></g><g class="overplot"/><path class="xlines-above crisp" d="M0,0" style="fill: none;"/><path class="ylines-above crisp" d="M0,0" style="fill: none;"/><g class="overlines-above"/><g class="xaxislayer-above"><g class="x2tick"><text text-anchor="middle" x="0" y="383" transform="translate(480.4200000000001,0)" style="font-family: 'Open Sans', verdana, arial, sans-serif; font-size: 12px; fill: rgb(242, 245, 250); fill-opacity: 1; white-space: pre;">Mar 2020</text></g><g class="x2tick"><text text-anchor="middle" x="0" y="383" transform="translate(548.4200000000001,0)" style="font-family: 'Open Sans', verdana, arial, sans-serif; font-size: 12px; fill: rgb(242, 245, 250); fill-opacity: 1; white-space: pre;">May 2020</text></g><g class="x2tick"><text text-anchor="middle" x="0" y="383" transform="translate(616.4200000000001,0)" style="font-family: 'Open Sans', verdana, arial, sans-serif; font-size: 12px; fill: rgb(242, 245, 250); fill-opacity: 1; white-space: pre;">Jul 2020</text></g><g class="x2tick"><text text-anchor="middle" x="0" y="383" transform="translate(685.5300000000001,0)" style="font-family: 'Open Sans', verdana, arial, sans-serif; font-size: 12px; fill: rgb(242, 245, 250); fill-opacity: 1; white-space: pre;">Sep 2020</text></g></g><g class="yaxislayer-above"><g class="y2tick"><text text-anchor="end" x="435.95000000000005" y="4.199999999999999" transform="translate(0,356.5)" style="font-family: 'Open Sans', verdana, arial, sans-serif; font-size: 12px; fill: rgb(242, 245, 250); fill-opacity: 1; white-space: pre;">0</text></g><g class="y2tick"><text text-anchor="end" x="435.95000000000005" y="4.199999999999999" transform="translate(0,288.81)" style="font-family: 'Open Sans', verdana, arial, sans-serif; font-size: 12px; fill: rgb(242, 245, 250); fill-opacity: 1; white-space: pre;">200</text></g><g class="y2tick"><text text-anchor="end" x="435.95000000000005" y="4.199999999999999" transform="translate(0,221.12)" style="font-family: 'Open Sans', verdana, arial, sans-serif; font-size: 12px; fill: rgb(242, 245, 250); fill-opacity: 1; white-space: pre;">400</text></g><g class="y2tick"><text text-anchor="end" x="435.95000000000005" y="4.199999999999999" transform="translate(0,153.44)" style="font-family: 'Open Sans', verdana, arial, sans-serif; font-size: 12px; fill: rgb(242, 245, 250); fill-opacity: 1; white-space: pre;">600</text></g></g><g class="overaxes-above"/></g></g><g class="polarlayer"/><g class="ternarylayer"/><g class="geolayer"/><g class="funnelarealayer"/><g class="pielayer"/><g class="treemaplayer"/><g class="sunburstlayer"/><g class="glimages"/><defs id="topdefs-585430"><g class="clips"/><clipPath id="legend585430"><rect width="146" height="124" x="0" y="0"/></clipPath></defs><g class="layer-above"><g class="imagelayer"/><g class="shapelayer"/></g><g class="infolayer"><g class="legend" pointer-events="all" transform="translate(741.98, 100)"><rect class="bg" shape-rendering="crispEdges" width="146" height="124" x="0" y="0" style="stroke: rgb(68, 68, 68); stroke-opacity: 1; fill: rgb(17, 17, 17); fill-opacity: 1; stroke-width: 0px;"/><g class="scrollbox" transform="translate(0, 0)" clip-path="url('#legend585430')"><g class="groups"><g class="traces" transform="translate(0, 14.5)" style="opacity: 1;"><text class="legendtext user-select-none" text-anchor="start" x="40" y="4.680000000000001" style="font-family: 'Open Sans', verdana, arial, sans-serif; font-size: 12px; fill: rgb(242, 245, 250); fill-opacity: 1; white-space: pre;">Alameda, CA</text><g class="layers" style="opacity: 1;"><g class="legendfill"/><g class="legendlines"><path class="js-line" d="M5,0h30" style="fill: none; stroke: rgb(230, 25, 75); stroke-opacity: 1; stroke-width: 2px;"/></g><g class="legendsymbols"><g class="legendpoints"/></g></g><rect class="legendtoggle" pointer-events="all" x="0" y="-9.5" width="140.046875" height="19" style="cursor: pointer; fill: rgb(0, 0, 0); fill-opacity: 0;"/></g><g class="traces" transform="translate(0, 33.5)" style="opacity: 1;"><text class="legendtext user-select-none" text-anchor="start" x="40" y="4.680000000000001" style="font-family: 'Open Sans', verdana, arial, sans-serif; font-size: 12px; fill: rgb(242, 245, 250); fill-opacity: 1; white-space: pre;">Greenville, SC</text><g class="layers" style="opacity: 1;"><g class="legendfill"/><g class="legendlines"><path class="js-line" d="M5,0h30" style="fill: none; stroke: rgb(60, 180, 75); stroke-opacity: 1; stroke-width: 2px;"/></g><g class="legendsymbols"><g class="legendpoints"/></g></g><rect class="legendtoggle" pointer-events="all" x="0" y="-9.5" width="140.046875" height="19" style="cursor: pointer; fill: rgb(0, 0, 0); fill-opacity: 0;"/></g><g class="traces" transform="translate(0, 52.5)" style="opacity: 1;"><text class="legendtext user-select-none" text-anchor="start" x="40" y="4.680000000000001" style="font-family: 'Open Sans', verdana, arial, sans-serif; font-size: 12px; fill: rgb(242, 245, 250); fill-opacity: 1; white-space: pre;">Bristol, MA</text><g class="layers" style="opacity: 1;"><g class="legendfill"/><g class="legendlines"><path class="js-line" d="M5,0h30" style="fill: none; stroke: rgb(255, 225, 25); stroke-opacity: 1; stroke-width: 2px;"/></g><g class="legendsymbols"><g class="legendpoints"/></g></g><rect class="legendtoggle" pointer-events="all" x="0" y="-9.5" width="140.046875" height="19" style="cursor: pointer; fill: rgb(0, 0, 0); fill-opacity: 0;"/></g><g class="traces" transform="translate(0, 71.5)" style="opacity: 1;"><text class="legendtext user-select-none" text-anchor="start" x="40" y="4.680000000000001" style="font-family: 'Open Sans', verdana, arial, sans-serif; font-size: 12px; fill: rgb(242, 245, 250); fill-opacity: 1; white-space: pre;">Sebastian, AR</text><g class="layers" style="opacity: 1;"><g class="legendfill"/><g class="legendlines"><path class="js-line" d="M5,0h30" style="fill: none; stroke: rgb(67, 99, 216); stroke-opacity: 1; stroke-width: 2px;"/></g><g class="legendsymbols"><g class="legendpoints"/></g></g><rect class="legendtoggle" pointer-events="all" x="0" y="-9.5" width="140.046875" height="19" style="cursor: pointer; fill: rgb(0, 0, 0); fill-opacity: 0;"/></g><g class="traces" transform="translate(0, 90.5)" style="opacity: 1;"><text class="legendtext user-select-none" text-anchor="start" x="40" y="4.680000000000001" style="font-family: 'Open Sans', verdana, arial, sans-serif; font-size: 12px; fill: rgb(242, 245, 250); fill-opacity: 1; white-space: pre;">Osceola, FL</text><g class="layers" style="opacity: 1;"><g class="legendfill"/><g class="legendlines"><path class="js-line" d="M5,0h30" style="fill: none; stroke: rgb(245, 130, 49); stroke-opacity: 1; stroke-width: 2px;"/></g><g class="legendsymbols"><g class="legendpoints"/></g></g><rect class="legendtoggle" pointer-events="all" x="0" y="-9.5" width="140.046875" height="19" style="cursor: pointer; fill: rgb(0, 0, 0); fill-opacity: 0;"/></g><g class="traces" transform="translate(0, 109.5)" style="opacity: 1;"><text class="legendtext user-select-none" text-anchor="start" x="40" y="4.680000000000001" style="font-family: 'Open Sans', verdana, arial, sans-serif; font-size: 12px; fill: rgb(242, 245, 250); fill-opacity: 1; white-space: pre;">San Francisco, CA</text><g class="layers" style="opacity: 1;"><g class="legendfill"/><g class="legendlines"><path class="js-line" d="M5,0h30" style="fill: none; stroke: rgb(145, 30, 180); stroke-opacity: 1; stroke-width: 2px;"/></g><g class="legendsymbols"><g class="legendpoints"/></g></g><rect class="legendtoggle" pointer-events="all" x="0" y="-9.5" width="140.046875" height="19" style="cursor: pointer; fill: rgb(0, 0, 0); fill-opacity: 0;"/></g></g></g><rect class="scrollbar" rx="20" ry="3" width="0" height="0" x="0" y="0" style="fill: rgb(128, 139, 164); fill-opacity: 1;"/></g><g class="g-gtitle"/><g class="g-xtitle"><text class="xtitle" x="226.025" y="410.8" text-anchor="middle" style="font-family: 'Open Sans', verdana, arial, sans-serif; font-size: 14px; fill: rgb(242, 245, 250); opacity: 1; font-weight: normal; white-space: pre;">Date</text></g><g class="g-x2title"><text class="x2title" x="582.975" y="410.8" text-anchor="middle" style="font-family: 'Open Sans', verdana, arial, sans-serif; font-size: 14px; fill: rgb(242, 245, 250); opacity: 1; font-weight: normal; white-space: pre;">Date</text></g><g class="g-ytitle"><text class="ytitle" transform="rotate(-90,34.840625,235)" x="34.840625" y="235" text-anchor="middle" style="font-family: 'Open Sans', verdana, arial, sans-serif; font-size: 14px; fill: rgb(242, 245, 250); opacity: 1; font-weight: normal; white-space: pre;">Cases</text></g><g class="g-y2title"><text class="y2title" transform="rotate(-90,391.121875,235)" x="391.121875" y="235" text-anchor="middle" style="font-family: 'Open Sans', verdana, arial, sans-serif; font-size: 14px; fill: rgb(242, 245, 250); opacity: 1; font-weight: normal; white-space: pre;">Deaths</text></g><g class="annotation" data-index="0" style="opacity: 1;"><g class="annotation-text-g" transform="rotate(0,226.025,89.5)"><g class="cursor-pointer" transform="translate(202, 79)"><rect class="bg" x="0.5" y="0.5" width="48" height="20" style="stroke-width: 1px; stroke: rgb(0, 0, 0); stroke-opacity: 0; fill: rgb(0, 0, 0); fill-opacity: 0;"/><text class="annotation-text" text-anchor="middle" x="24.6875" y="16" style="font-family: 'Open Sans', verdana, arial, sans-serif; font-size: 16px; fill: rgb(242, 245, 250); fill-opacity: 1; white-space: pre;">Cases</text></g></g></g><g class="annotation" data-index="1" style="opacity: 1;"><g class="annotation-text-g" transform="rotate(0,582.975,89.5)"><g class="cursor-pointer" transform="translate(555, 79)"><rect class="bg" x="0.5" y="0.5" width="54" height="20" style="stroke-width: 1px; stroke: rgb(0, 0, 0); stroke-opacity: 0; fill: rgb(0, 0, 0); fill-opacity: 0;"/><text class="annotation-text" text-anchor="middle" x="27.359375" y="16" style="font-family: 'Open Sans', verdana, arial, sans-serif; font-size: 16px; fill: rgb(242, 245, 250); fill-opacity: 1; white-space: pre;">Deaths</text></g></g></g></g></svg>