<svg class="main-svg" xmlns="http://www.w3.org/2000/svg" xmlns:xlink="http://www.w3.org/1999/xlink" width="900" height="450" style="" viewBox="0 0 900 450"><rect x="0" y="0" width="900" height="450" style="fill: rgb(17, 17, 17); fill-opacity: 1;"/><defs id="defs-331990"><g class="clips"><clipPath id="clip331990xyplot" class="plotclip"><rect width="297.45" height="270"/></clipPath><clipPath id="clip331990x2y2plot" class="plotclip"><rect width="297.45" height="270"/></clipPath><clipPath class="axesclip" id="clip331990x"><rect x="80" y="0" width="297.45" height="450"/></clipPath><clipPath class="axesclip" id="clip331990y"><rect x="0" y="100" width="900" height="270"/></clipPath><clipPath class="axesclip" id="clip331990xy"><rect x="80" y="100" width="297.45" height="270"/></clipPath><clipPath class="axesclip" id="clip331990y2"><rect x="0" y="100" width="900" height="270"/></clipPath><clipPath class="axesclip" id="clip331990xy2"><rect x="80" y="100" width="297.45" height="270"/></clipPath><clipPath class="axesclip" id="clip331990x2"><rect x="443.55" y="0" width="297.45" height="450"/></clipPath><clipPath class="axesclip" id="clip331990x2y"><rect x="443.55" y="100" width="297.45" height="270"/></clipPath><clipPath class="axesclip" id="clip331990x2y2"><rect x="443.55" y="100" width="297.45" height="270"/></clipPath></g><g class="gradients"/></defs><g class="bglayer"/><g class="layer-below"><g class="imagelayer"/><g class="shapelayer"/></g><g class="cartesianlayer"><g class="subplot xy"><g class="layer-subplot"><g class="shapelayer"/><g class="imagelayer"/></g><g class="gridlayer"><g class="x"><path class="xgrid crisp" transform="translate(124.45,0)" d="M0,100v270" style="stroke: rgb(40, 52, 66); stroke-opacity: 1; stroke-width: 1px;"/><path class="xgrid crisp" transform="translate(193.97,0)" d="M0,100v270" style="stroke: rgb(40, 52, 66); stroke-opacity: 1; stroke-width: 1px;"/><path class="xgrid crisp" transform="translate(263.48,0)" d="M0,100v270" style="stroke: rgb(40, 52, 66); stroke-opacity: 1; stroke-width: 1px;"/><path class="xgrid crisp" transform="translate(334.14,0)" d="M0,100v270" style="stroke: rgb(40, 52, 66); stroke-opacity: 1; stroke-width: 1px;"/></g><g class="y"><path class="ygrid crisp" transform="translate(0,305.12)" d="M80,0h297.45" style="stroke: rgb(40, 52, 66); stroke-opacity: 1; stroke-width: 1px;"/><path class="ygrid crisp" transform="translate(0,253.75)" d="M80,0h297.45" style="stroke: rgb(40, 52, 66); stroke-opacity: 1; stroke-width: 1px;"/><path class="ygrid crisp" transform="translate(0,202.37)" d="M80,0h297.45" style="stroke: rgb(40, 52, 66); stroke-opacity: 1; stroke-width: 1px;"/><path class="ygrid crisp" transform="translate(0,150.99)" d="M80,0h297.45" style="stroke: rgb(40, 52, 66); stroke-opacity: 1; stroke-width: 1px;"/></g></g><g class="zerolinelayer"><path class="yzl zl crisp" transform="translate(0,356.5)" d="M80,0h297.45" style="stroke: rgb(40, 52, 66); stroke-opacity: 1; stroke-width: 2px;"/></g><path class="xlines-below"/><path class="ylines-below"/><g class="overlines-below"/><g class="xaxislayer-below"/><g class="yaxislayer-below"/><g class="overaxes-below"/><g class="plot" transform="translate(80, 100)" clip-path="url('#clip331990xyplot')"><g class="scatterlayer mlayer"><g class="trace scatter tracec15e07" style="stroke-miterlimit: 2; opacity: 1;"><g class="fills"/><g class="errorbars"/><g class="lines"><path class="js-line" d="M0,256.5L67.24,255.83L68.38,255.41L74.08,254.24L75.22,253.87L80.92,252.43L82.06,251.95L84.33,250.68L85.47,250.46L111.69,240.39L112.83,240.03L119.66,237.36L120.8,236.8L133.34,231.25L134.48,230.59L137.9,228.67L139.04,228.07L150.43,220.38L151.57,220.04L157.27,215.96L158.41,215.55L160.69,214.18L161.83,213.18L167.53,209.92L168.67,208.84L172.09,207.13L173.23,205.05L178.93,198.88L180.07,198.24L181.21,197.29L182.34,195.22L185.76,190L186.9,189.14L188.04,186.06L189.18,185.73L190.32,185.73L191.46,182.06L194.88,177.12L196.02,177.12L199.44,169.39L200.58,167.86L204,161.59L205.14,161.39L206.28,160.09L207.42,157.42L210.84,150.36L211.98,149.95L213.12,149.25L214.26,147.24L215.39,145.8L216.53,142.13L217.67,142.13L218.81,138.5L219.95,138.09L221.09,134.78L222.23,134.13L223.37,131.8L226.79,131.8L227.93,120.88L229.07,120.68L230.21,116.1L231.35,111.63L232.49,110.29L233.63,106.91L234.77,106.91L235.91,101.11L237.05,101.04L242.75,84.97L243.89,84.67L245.03,84.56L246.17,78.99L247.31,77.86L248.44,75.44L249.58,73.12L250.72,73.12L258.7,59.92L259.84,59.92L260.98,57.67L262.12,57.67L264.4,53.97L265.54,52.85L266.68,52.67L267.82,51.09L272.38,49.33L273.52,47.25L276.94,44.41L278.08,43.31L286.05,37.4L287.19,36.78L294.03,32.41L295.17,32.04L297.45,31.04" style="vector-effect: non-scaling-stroke; fill: none; stroke: rgb(230, 25, 75); stroke-opacity: 1; stroke-width: 2px; opacity: 1;"/></g><g class="points"/><g class="text"/></g><g class="trace scatter trace2165c2" style="stroke-miterlimit: 2; opacity: 1;"><g class="fills"/><g class="errorbars"/><g class="lines"><path class="js-line" d="M0,256.5L68.38,255.96L69.52,255.6L72.94,255.34L74.08,254.81L78.64,254.2L79.78,253.27L86.61,251.11L87.75,250.54L100.29,247L101.43,246.84L124.22,244.51L125.36,244.45L148.16,242.11L149.29,241.82L156.13,240.89L157.27,240.18L170.95,236.2L172.09,236.2L174.37,232.11L175.51,231.43L178.93,229.11L180.07,229.11L182.34,223.38L183.48,221.59L184.62,219.93L185.76,219.93L188.04,219.93L189.18,211.34L197.16,197.79L198.3,195.49L201.72,189.6L202.86,187.73L205.14,181.22L206.28,177.52L209.7,168.61L210.84,167.76L215.39,158.74L216.53,157.2L219.95,153.06L221.09,152.49L223.37,151.24L224.51,148.16L225.65,145.58L226.79,145.58L227.93,145.58L229.07,132.79L231.35,128.29L232.49,120.7L233.63,116.6L234.77,116.6L235.91,116.6L237.05,109.3L241.61,99.84L242.75,99.84L243.89,99.84L245.03,88.69L247.31,84.47L248.44,82.76L249.58,80.28L250.72,80.28L251.86,80.28L253,71.01L256.42,65.31L257.56,63.19L259.84,63.19L260.98,57.71L264.4,54.4L265.54,50.35L267.82,50.35L268.96,46.52L271.24,44.21L272.38,41.12L273.52,38.96L274.66,38.96L275.8,38.96L276.94,34.27L281.49,28.56L282.63,28.56L283.77,28.56L284.91,25.94L287.19,23.72L288.33,22.69L289.47,21.66L290.61,21.66L291.75,21.66L292.89,17.65L297.45,13.5" style="vector-effect: non-scaling-stroke; fill: none; stroke: rgb(60, 180, 75); stroke-opacity: 1; stroke-width: 2px; opacity: 1;"/></g><g class="points"/><g class="text"/></g><g class="trace scatter trace54be5c" style="stroke-miterlimit: 2; opacity: 1;"><g class="fills"/><g class="errorbars"/><g class="lines"><path class="js-line" d="M0,256.5L87.75,255.8L88.89,255.73L115.11,254.63L116.24,254.61L151.57,253.86L152.71,253.82L175.51,251.7L176.65,251.43L183.48,249.03L184.62,248.39L188.04,246.97L189.18,246.37L192.6,244.56L193.74,243.07L198.3,238.27L199.44,236.59L208.56,226.42L209.7,224.6L211.98,221.3L213.12,219.7L217.67,206.23L218.81,204.41L223.37,199.54L224.51,197.86L227.93,189.6L229.07,188.96L233.63,184.26L234.77,182.92L238.19,179.97L239.33,178.26L251.86,169.48L253,169.2L256.42,167.36L257.56,166.71L260.98,165.26L262.12,165.25L283.77,156.75L284.91,156.7L292.89,154.07L294.03,153.67L297.45,152.7" style="vector-effect: non-scaling-stroke; fill: none; stroke: rgb(255, 225, 25); stroke-opacity: 1; stroke-width: 2px; opacity: 1;"/></g><g class="points"/><g class="text"/></g><g class="trace scatter trace261f41" style="stroke-miterlimit: 2; opacity: 1;"><g class="fills"/><g class="errorbars"/><g class="lines"><path class="js-line" d="M0,256.5L82.06,255.76L83.19,255.59L96.87,253.36L98.01,252.82L103.71,251.84L104.85,251.84L108.27,250.58L109.41,250.48L129.92,247.04L131.06,246.77L150.43,243.05L151.57,242.94L191.46,235.94L192.6,235.69L196.02,234.43L197.16,233.78L200.58,232.65L201.72,231.95L224.51,222.58L225.65,221.84L243.89,213.05L245.03,209.87L248.44,205.75L249.58,205.27L259.84,200.5L260.98,200.27L264.4,199.23L265.54,198.76L273.52,195.33L274.66,194.59L279.22,192.34L280.36,191.46L289.47,184.73L290.61,183.35L297.45,178" style="vector-effect: non-scaling-stroke; fill: none; stroke: rgb(67, 99, 216); stroke-opacity: 1; stroke-width: 2px; opacity: 1;"/></g><g class="points"/><g class="text"/></g><g class="trace scatter trace16d73a" style="stroke-miterlimit: 2; opacity: 1;"><g class="fills"/><g class="errorbars"/><g class="lines"><path class="js-line" d="M0,256.5L71.8,255.8L72.94,255.71L80.92,254.38L82.06,254.06L88.89,253.07L90.03,252.98L115.11,252.39L116.24,252.39L161.83,251.65L162.97,251.48L178.93,250.2L180.07,249.96L186.9,249.1L188.04,248.86L192.6,247.85L193.74,247.59L199.44,246.37L200.58,246.2L209.7,243.91L210.84,243.23L215.39,240.92L216.53,239.68L222.23,233.68L223.37,231.9L224.51,231.38L225.65,228.34L229.07,223.12L230.21,221.96L232.49,216.43L233.63,214.2L237.05,207.65L238.19,206.38L251.86,178.57L253,177.47L254.14,175.86L255.28,172.77L259.84,164.94L260.98,164.02L263.26,162.52L264.4,160.9L267.82,157.3L268.96,156.59L271.24,154.99L272.38,153.59L276.94,150.27L278.08,149.71L280.36,147.3L281.49,146.31L284.91,143.2L286.05,142.38L291.75,138.28L292.89,137.86L297.45,134.27" style="vector-effect: non-scaling-stroke; fill: none; stroke: rgb(245, 130, 49); stroke-opacity: 1; stroke-width: 2px; opacity: 1;"/></g><g class="points"/><g class="text"/></g><g class="trace scatter trace227845" style="stroke-miterlimit: 2; opacity: 1;"><g class="fills"/><g class="errorbars"/><g class="lines"><path class="js-line" d="M0,256.5L78.64,255.75L79.78,255.56L119.66,250.7L120.8,250.4L133.34,248.83L134.48,248.63L158.41,243.73L159.55,243.28L166.39,240.41L167.53,239.71L169.81,237.43L170.95,236.26L172.09,235.52L173.23,233.64L174.37,233.08L175.51,231.28L177.79,227.93L178.93,223.8L181.21,218.67L182.34,217.08L184.62,212.04L185.76,208.62L192.6,192.73L193.74,188.57L198.3,175.52L199.44,172.18L204,158.64L205.14,155.01L208.56,148.15L209.7,144.41L214.26,134.3L215.39,132.59L221.09,121.51L222.23,120.55L234.77,99.16L235.91,97.96L239.33,94.94L240.47,93.26L245.03,88.79L246.17,88.11L256.42,77.53L257.56,76L260.98,72.95L262.12,72.24L275.8,59.98L276.94,58.77L286.05,51.26L287.19,50.67L296.31,42.63L297.45,41.45" style="vector-effect: non-scaling-stroke; fill: none; stroke: rgb(145, 30, 180); stroke-opacity: 1; stroke-width: 2px; opacity: 1;"/></g><g class="points"/><g class="text"/></g></g></g><g class="overplot"/><path class="xlines-above crisp" d="M0,0" style="fill: none;"/><path class="ylines-above crisp" d="M0,0" style="fill: none;"/><g class="overlines-above"/><g class="xaxislayer-above"><g class="xtick"><text text-anchor="middle" x="0" y="383" transform="translate(124.45,0)" style="font-family: 'Open Sans', verdana, arial, sans-serif; font-size: 12px; fill: rgb(242, 245, 250); fill-opacity: 1; white-space: pre;">Mar 2020</text></g><g class="xtick"><text text-anchor="middle" x="0" y="383" transform="translate(193.97,0)" style="font-family: 'Open Sans', verdana, arial, sans-serif; font-size: 12px; fill: rgb(242, 245, 250); fill-opacity: 1; white-space: pre;">May 2020</text></g><g class="xtick"><text text-anchor="middle" x="0" y="383" transform="translate(263.48,0)" style="font-family: 'Open Sans', verdana, arial, sans-serif; font-size: 12px; fill: rgb(242, 245, 250); fill-opacity: 1; white-space: pre;">Jul 2020</text></g><g class="xtick"><text text-anchor="middle" x="0" y="383" transform="translate(334.14,0)" style="font-family: 'Open Sans', verdana, arial, sans-serif; font-size: 12px; fill: rgb(242, 245, 250); fill-opacity: 1; white-space: pre;">Sep 2020</text></g></g><g class="yaxislayer-above"><g class="ytick"><text text-anchor="end" x="79" y="4.199999999999999" transform="translate(0,356.5)" style="font-family: 'Open Sans', verdana, arial, sans-serif; font-size: 12px; fill: rgb(242, 245, 250); fill-opacity: 1; white-space: pre;">0</text></g><g class="ytick"><text text-anchor="end" x="79" y="4.199999999999999" transform="translate(0,305.12)" style="font-family: 'Open Sans', verdana, arial, sans-serif; font-size: 12px; fill: rgb(242, 245, 250); fill-opacity: 1; white-space: pre;">5k</text></g><g class="ytick"><text text-anchor="end" x="79" y="4.199999999999999" transform="translate(0,253.75)" style="font-family: 'Open Sans', verdana, arial, sans-serif; font-size: 12px; fill: rgb(242, 245, 250); fill-opacity: 1; white-space: pre;">10k</text></g><g class="ytick"><text text-anchor="end" x="79" y="4.199999999999999" transform="translate(0,202.37)" style="font-family: 'Open Sans', verdana, arial, sans-serif; font-size: 12px; fill: rgb(242, 245, 250); fill-opacity: 1; white-space: pre;">15k</text></g><g class="ytick"><text text-anchor="end" x="79" y="4.199999999999999" transform="translate(0,150.99)" style="font-family: 'Open Sans', verdana, arial, sans-serif; font-size: 12px; fill: rgb(242, 245, 250); fill-opacity: 1; white-space: pre;">20k</text></g></g><g class="overaxes-above"/></g><g class="subplot x2y2"><g class="layer-subplot"><g class="shapelayer"/><g class="imagelayer"/></g><g class="gridlayer"><g class="x2"><path class="x2grid crisp" transform="translate(488,0)" d="M0,100v270" style="stroke: rgb(40, 52, 66); stroke-opacity: 1; stroke-width: 1px;"/><path class="x2grid crisp" transform="translate(557.52,0)" d="M0,100v270" style="stroke: rgb(40, 52, 66); stroke-opacity: 1; stroke-width: 1px;"/><path class="x2grid crisp" transform="translate(627.03,0)" d="M0,100v270" style="stroke: rgb(40, 52, 66); stroke-opacity: 1; stroke-width: 1px;"/><path class="x2grid crisp" transform="translate(697.69,0)" d="M0,100v270" style="stroke: rgb(40, 52, 66); stroke-opacity: 1; stroke-width: 1px;"/></g><g class="y2"><path class="y2grid crisp" transform="translate(0,312.48)" d="M443.55,0h297.45" style="stroke: rgb(40, 52, 66); stroke-opacity: 1; stroke-width: 1px;"/><path class="y2grid crisp" transform="translate(0,268.46000000000004)" d="M443.55,0h297.45" style="stroke: rgb(40, 52, 66); stroke-opacity: 1; stroke-width: 1px;"/><path class="y2grid crisp" transform="translate(0,224.43)" d="M443.55,0h297.45" style="stroke: rgb(40, 52, 66); stroke-opacity: 1; stroke-width: 1px;"/><path class="y2grid crisp" transform="translate(0,180.41)" d="M443.55,0h297.45" style="stroke: rgb(40, 52, 66); stroke-opacity: 1; stroke-width: 1px;"/><path class="y2grid crisp" transform="translate(0,136.39)" d="M443.55,0h297.45" style="stroke: rgb(40, 52, 66); stroke-opacity: 1; stroke-width: 1px;"/></g></g><g class="zerolinelayer"><path class="y2zl zl crisp" transform="translate(0,356.5)" d="M443.55,0h297.45" style="stroke: rgb(40, 52, 66); stroke-opacity: 1; stroke-width: 2px;"/></g><path class="xlines-below"/><path class="ylines-below"/><g class="overlines-below"/><g class="xaxislayer-below"/><g class="yaxislayer-below"/><g class="overaxes-below"/><g class="plot" transform="translate(443.55, 100)" clip-path="url('#clip331990x2y2plot')"><g class="scatterlayer mlayer"><g class="trace scatter tracecd035a" style="stroke-miterlimit: 2; opacity: 1;"><g class="fills"/><g class="errorbars"/><g class="lines"><path class="js-line" d="M0,256.5L69.52,256.06L70.66,255.62L71.8,255.62L72.94,254.74L74.08,254.74L75.22,253.86L77.5,253.42L78.64,253.42L80.92,252.54L82.06,251.22L85.47,250.78L86.61,249.9L88.89,249.02L90.03,247.7L93.45,246.38L94.59,246.38L95.73,240.65L96.87,239.33L98.01,239.33L99.15,238.45L104.85,236.25L105.99,235.37L107.13,233.61L108.27,233.61L109.41,233.61L110.55,232.29L115.11,228.77L116.24,228.77L117.38,228.77L118.52,227.45L120.8,227.01L121.94,225.68L124.22,225.24L125.36,225.24L129.92,220.4L131.06,219.96L133.34,219.96L134.48,218.64L139.04,216L140.18,215.56L144.74,215.12L145.88,214.68L149.29,214.24L150.43,213.8L152.71,213.8L153.85,212.04L158.41,211.6L159.55,210.28L161.83,208.52L162.97,208.52L164.11,207.2L165.25,207.2L166.39,207.2L167.53,205.43L170.95,204.55L172.09,204.55L175.51,202.79L176.65,200.15L180.07,197.95L181.21,197.95L185.76,194.87L186.9,194.87L190.32,194.87L191.46,193.99L193.74,191.79L194.88,191.35L197.16,191.35L198.3,189.59L200.58,188.71L201.72,185.63L204,185.18L205.14,185.18L207.42,181.22L208.56,180.34L209.7,178.14L210.84,178.14L213.12,178.14L214.26,176.82L217.67,176.38L218.81,173.3L221.09,173.3L222.23,171.98L224.51,171.54L225.65,171.54L226.79,171.54L227.93,166.26L230.21,166.26L231.35,163.17L233.63,160.09L234.77,160.09L238.19,157.89L239.33,156.13L241.61,153.93L242.75,153.93L245.03,153.49L246.17,150.85L249.58,147.77L250.72,147.77L251.86,143.36L253,143.36L254.14,143.36L255.28,135.88L256.42,126.64L257.56,126.2L258.7,124.87L259.84,124.87L262.12,124.43L263.26,123.11L264.4,123.11L265.54,115.63L266.68,115.63L267.82,110.35L268.96,109.91L270.1,99.78L271.24,99.78L272.38,95.82L274.66,91.86L275.8,91.86L276.94,91.86L278.08,84.82L281.49,78.65L282.63,77.77L284.91,77.77L286.05,76.89L287.19,75.13L288.33,71.61L289.47,71.61L290.61,69.41L292.89,69.41L294.03,68.53L295.17,62.8L296.31,62.8L297.45,62.8" style="vector-effect: non-scaling-stroke; fill: none; stroke: rgb(230, 25, 75); stroke-opacity: 1; stroke-width: 2px; opacity: 1;"/></g><g class="points"/><g class="text"/></g><g class="trace scatter tracea29337" style="stroke-miterlimit: 2; opacity: 1;"><g class="fills"/><g class="errorbars"/><g class="lines"><path class="js-line" d="M0,256.5L60.4,256.06L61.54,255.62L68.38,255.18L69.52,254.74L72.94,254.3L74.08,253.86L78.64,253.42L79.78,252.54L83.19,252.1L84.33,249.46L87.75,246.82L88.89,246.82L92.31,245.05L93.45,244.61L94.59,244.17L95.73,242.41L99.15,241.97L100.29,241.53L102.57,241.09L103.71,240.65L104.85,238.45L105.99,238.45L116.24,238.01L117.38,235.81L119.66,235.81L120.8,234.93L123.08,234.49L124.22,234.49L127.64,234.05L128.78,232.73L132.2,232.29L133.34,231.85L149.29,231.85L150.43,230.97L156.13,230.53L157.27,229.65L159.55,229.21L160.69,228.77L166.39,228.77L167.53,227.45L180.07,227.45L181.21,226.57L188.04,226.13L189.18,223.92L192.6,222.16L193.74,221.72L197.16,219.96L198.3,216.44L204,214.24L205.14,214.24L207.42,214.24L208.56,213.36L210.84,208.96L211.98,208.96L215.39,201.03L216.53,200.59L218.81,193.99L219.95,193.99L224.51,188.27L225.65,185.63L227.93,185.63L229.07,178.58L230.21,177.7L231.35,174.62L233.63,168.9L234.77,168.9L235.91,168.9L237.05,160.53L238.19,160.09L239.33,155.25L240.47,155.25L241.61,153.49L243.89,153.49L245.03,148.21L249.58,135.88L250.72,135.88L251.86,135.88L253,127.52L254.14,126.2L255.28,122.67L257.56,112.55L258.7,112.55L259.84,112.55L260.98,110.35L262.12,109.47L263.26,107.27L265.54,102.42L266.68,102.42L267.82,102.42L268.96,99.78L270.1,98.9L271.24,96.26L273.52,91.42L274.66,91.42L275.8,91.42L276.94,87.9L279.22,80.85L280.36,79.53L281.49,77.77L282.63,77.77L283.77,77.77L284.91,75.13L289.47,67.21L290.61,67.21L291.75,67.21L292.89,66.33L296.31,59.72L297.45,58.4" style="vector-effect: non-scaling-stroke; fill: none; stroke: rgb(60, 180, 75); stroke-opacity: 1; stroke-width: 2px; opacity: 1;"/></g><g class="points"/><g class="text"/></g><g class="trace scatter trace2725c7" style="stroke-miterlimit: 2; opacity: 1;"><g class="fills"/><g class="errorbars"/><g class="lines"><path class="js-line" d="M0,256.5L83.19,256.5L84.33,255.62L104.85,255.18L105.99,254.74L144.74,254.3L145.88,253.86L148.16,253.42L149.29,253.42L168.67,252.98L169.81,252.1L184.62,252.1L185.76,251.22L192.6,251.22L193.74,249.9L198.3,249.9L199.44,249.02L201.72,248.14L202.86,244.61L208.56,239.77L209.7,237.57L210.84,235.37L211.98,234.93L214.26,234.49L215.39,232.29L216.53,231.85L217.67,230.09L219.95,229.65L221.09,228.33L222.23,223.04L223.37,223.04L225.65,218.64L226.79,217.32L229.07,217.32L230.21,211.6L232.49,208.96L233.63,207.64L240.47,203.23L241.61,203.23L243.89,194.43L245.03,193.55L247.31,187.83L248.44,183.86L254.14,174.18L255.28,171.98L258.7,163.17L259.84,160.53L262.12,157.45L263.26,155.25L264.4,153.05L265.54,153.05L266.68,152.17L267.82,149.53L271.24,143.36L272.38,142.92L275.8,142.04L276.94,142.04L279.22,140.72L280.36,139.4L283.77,129.72L284.91,129.72L287.19,128.84L288.33,126.64L294.03,121.35L295.17,119.59L297.45,116.95" style="vector-effect: non-scaling-stroke; fill: none; stroke: rgb(255, 225, 25); stroke-opacity: 1; stroke-width: 2px; opacity: 1;"/></g><g class="points"/><g class="text"/></g><g class="trace scatter trace10bfc4" style="stroke-miterlimit: 2; opacity: 1;"><g class="fills"/><g class="errorbars"/><g class="lines"><path class="js-line" d="M0,256.5L88.89,256.06L90.03,255.62L92.31,255.18L93.45,255.18L99.15,252.98L100.29,252.98L103.71,252.1L104.85,252.1L110.55,252.1L111.69,249.02L112.83,249.02L113.97,248.14L116.24,247.7L117.38,247.7L118.52,247.26L119.66,245.93L124.22,245.49L125.36,245.05L128.78,244.17L129.92,244.17L133.34,244.17L134.48,243.29L140.18,241.53L141.32,241.53L151.57,241.09L152.71,240.65L154.99,239.33L156.13,239.33L158.41,237.57L159.55,237.13L160.69,236.69L161.83,234.49L166.39,234.05L167.53,233.17L169.81,233.17L170.95,231.85L173.23,231.41L174.37,230.97L178.93,229.21L180.07,228.33L182.34,227.89L183.48,227.89L185.76,227.45L186.9,227.45L189.18,227.45L190.32,226.57L192.6,226.13L193.74,226.13L199.44,225.68L200.58,225.24L205.14,223.92L206.28,223.92L210.84,223.48L211.98,223.04L215.39,222.6L216.53,222.16L218.81,221.72L219.95,221.72L224.51,221.72L225.65,220.84L229.07,220.4L230.21,219.96L235.91,219.96L237.05,219.08L239.33,218.2L240.47,218.2L245.03,217.76L246.17,216.88L247.31,214.68L248.44,214.68L250.72,213.8L251.86,213.8L253,213.8L254.14,212.92L257.56,212.48L258.7,212.04L273.52,211.6L274.66,211.16L275.8,211.16L276.94,209.84L287.19,202.79L288.33,202.35L289.47,202.35L290.61,199.71L295.17,196.63L296.31,194.87L297.45,193.55" style="vector-effect: non-scaling-stroke; fill: none; stroke: rgb(67, 99, 216); stroke-opacity: 1; stroke-width: 2px; opacity: 1;"/></g><g class="points"/><g class="text"/></g><g class="trace scatter tracee7fb23" style="stroke-miterlimit: 2; opacity: 1;"><g class="fills"/><g class="errorbars"/><g class="lines"><path class="js-line" d="M0,256.5L78.64,256.06L79.78,255.62L83.19,255.18L84.33,254.74L91.17,254.3L92.31,253.86L110.55,253.86L111.69,251.66L184.62,251.22L185.76,250.78L196.02,250.78L197.16,249.9L201.72,249.46L202.86,249.02L207.42,248.58L208.56,248.14L223.37,247.7L224.51,246.82L226.79,245.93L227.93,245.93L229.07,244.61L230.21,244.61L232.49,241.97L233.63,241.97L238.19,241.53L239.33,241.09L242.75,239.33L243.89,239.33L248.44,235.81L249.58,234.49L258.7,224.8L259.84,224.36L262.12,223.48L263.26,222.16L265.54,219.96L266.68,219.52L268.96,218.64L270.1,218.2L273.52,214.68L274.66,214.68L278.08,214.68L279.22,213.8L281.49,211.6L282.63,209.84L286.05,208.52L287.19,207.64L289.47,204.99L290.61,200.15L292.89,200.15L294.03,198.39L296.31,196.63L297.45,195.75" style="vector-effect: non-scaling-stroke; fill: none; stroke: rgb(245, 130, 49); stroke-opacity: 1; stroke-width: 2px; opacity: 1;"/></g><g class="points"/><g class="text"/></g><g class="trace scatter trace8654b4" style="stroke-miterlimit: 2; opacity: 1;"><g class="fills"/><g class="errorbars"/><g class="lines"><path class="js-line" d="M0,256.5L79.78,256.06L80.92,255.62L85.47,254.3L86.61,254.3L91.17,252.98L92.31,252.98L93.45,252.98L94.59,252.1L96.87,251.66L98.01,251.22L100.29,251.22L101.43,250.34L107.13,248.58L108.27,248.58L109.41,248.58L110.55,247.7L115.11,245.05L116.24,245.05L117.38,245.05L118.52,244.17L120.8,243.29L121.94,242.85L124.22,241.97L125.36,241.97L131.06,238.45L132.2,238.01L136.76,236.25L137.9,234.93L142.46,234.49L143.6,232.73L148.16,232.29L149.29,231.41L151.57,230.09L152.71,228.77L157.27,227.01L158.41,225.68L164.11,223.48L165.25,223.48L168.67,223.04L169.81,222.6L172.09,222.16L173.23,222.16L174.37,222.16L175.51,221.28L180.07,215.56L181.21,215.56L183.48,211.6L184.62,211.6L185.76,210.28L186.9,210.28L188.04,210.28L189.18,206.32L190.32,205.88L191.46,202.79L193.74,199.71L194.88,195.75L197.16,194.43L198.3,190.03L201.72,185.18L202.86,179.9L204,179.9L205.14,179.02L207.42,168.46L208.56,167.14L209.7,161.85L210.84,161.41L211.98,160.97L213.12,159.65L214.26,159.65L215.39,146.01L217.67,138.52L218.81,138.08L221.09,137.2L222.23,130.6L224.51,122.67L225.65,122.67L226.79,119.15L227.93,119.15L229.07,118.27L230.21,112.99L234.77,98.9L235.91,98.9L237.05,98.02L238.19,86.14L239.33,85.26L240.47,82.17L242.75,78.65L243.89,78.65L245.03,77.33L246.17,72.05L249.58,67.65L250.72,61.92L253,61.48L254.14,59.72L256.42,53.56L257.56,52.24L258.7,50.48L259.84,50.48L262.12,50.04L263.26,45.2L264.4,43.87L265.54,43.87L266.68,41.67L267.82,41.67L268.96,41.67L270.1,39.03L271.24,37.71L272.38,35.07L275.8,33.31L276.94,33.31L282.63,23.62L283.77,23.62L284.91,24.07L286.05,23.62L288.33,22.74L289.47,22.74L294.03,22.3L295.17,17.9L297.45,13.5" style="vector-effect: non-scaling-stroke; fill: none; stroke: rgb(145, 30, 180); stroke-opacity: 1; stroke-width: 2px; opacity: 1;"/></g><g class="points"/><g class="text"/></g></g></g><g class="overplot"/><path class="xlines-above crisp" d="M0,0" style="fill: none;"/><path class="ylines-above crisp" d="M0,0" style="fill: none;"/><g class="overlines-above"/><g class="xaxislayer-above"><g class="x2tick"><text text-anchor="middle" x="0" y="383" transform="translate(488,0)" style="font-family: 'Open Sans', verdana, arial, sans-serif; font-size: 12px; fill: rgb(242, 245, 250); fill-opacity: 1; white-space: pre;">Mar 2020</text></g><g class="x2tick"><text text-anchor="middle" x="0" y="383" transform="translate(557.52,0)" style="font-family: 'Open Sans', verdana, arial, sans-serif; font-size: 12px; fill: rgb(242, 245, 250); fill-opacity: 1; white-space: pre;">May 2020</text></g><g class="x2tick"><text text-anchor="middle" x="0" y="383" transform="translate(627.03,0)" style="font-family: 'Open Sans', verdana, arial, sans-serif; font-size: 12px; fill: rgb(242, 245, 250); fill-opacity: 1; white-space: pre;">Jul 2020</text></g><g class="x2tick"><text text-anchor="middle" x="0" y="383" transform="translate(697.69,0)" style="font-family: 'Open Sans', verdana, arial, sans-serif; font-size: 12px; fill: rgb(242, 245, 250); fill-opacity: 1; white-space: pre;">Sep 2020</text></g></g><g class="yaxislayer-above"><g class="y2tick"><text text-anchor="end" x="442.55" y="4.199999999999999" transform="translate(0,356.5)" style="font-family: 'Open Sans', verdana, arial, sans-serif; font-size: 12px; fill: rgb(242, 245, 250); fill-opacity: 1; white-space: pre;">0</text></g><g class="y2tick"><text text-anchor="end" x="442.55" y="4.199999999999999" transform="translate(0,312.48)" style="font-family: 'Open Sans', verdana, arial, sans-serif; font-size: 12px; fill: rgb(242, 245, 250); fill-opacity: 1; white-space: pre;">100</text></g><g class="y2tick"><text text-anchor="end" x="442.55" y="4.199999999999999" transform="translate(0,268.46000000000004)" style="font-family: 'Open Sans', verdana, arial, sans-serif; font-size: 12px; fill: rgb(242, 245, 250); fill-opacity: 1; white-space: pre;">200</text></g><g class="y2tick"><text text-anchor="end" x="442.55" y="4.199999999999999" transform="translate(0,224.43)" style="font-family: 'Open Sans', verdana, arial, sans-serif; font-size: 12px; fill: rgb(242, 245, 250); fill-opacity: 1; white-space: pre;">300</text></g><g class="y2tick"><text text-anchor="end" x="442.55" y="4.199999999999999" transform="translate(0,180.41)" style="font-family: 'Open Sans', verdana, arial, sans-serif; font-size: 12px; fill: rgb(242, 245, 250); fill-opacity: 1; white-space: pre;">400</text></g><g class="y2tick"><text text-anchor="end" x="442.55" y="4.199999999999999" transform="translate(0,136.39)" style="font-family: 'Open Sans', verdana, arial, sans-serif; font-size: 12px; fill: rgb(242, 245, 250); fill-opacity: 1; white-space: pre;">500</text></g></g><g class="overaxes-above"/></g></g><g class="polarlayer"/><g class="ternarylayer"/><g class="geolayer"/><g class="funnelarealayer"/><g class="pielayer"/><g class="treemaplayer"/><g class="sunburstlayer"/><g class="glimages"/><defs id="topdefs-331990"><g class="clips"/><clipPath id="legend331990"><rect width="134" height="124" x="0" y="0"/></clipPath></defs><g class="layer-above"><g class="imagelayer"/><g class="shapelayer"/></g><g class="infolayer"><g class="legend" pointer-events="all" transform="translate(754.22, 100)"><rect class="bg" shape-rendering="crispEdges" width="134" height="124" x="0" y="0" style="stroke: rgb(68, 68, 68); stroke-opacity: 1; fill: rgb(17, 17, 17); fill-opacity: 1; stroke-width: 0px;"/><g class="scrollbox" transform="translate(0, 0)" clip-path="url('#legend331990')"><g class="groups"><g class="traces" transform="translate(0, 14.5)" style="opacity: 1;"><text class="legendtext user-select-none" text-anchor="start" x="40" y="4.680000000000001" style="font-family: 'Open Sans', verdana, arial, sans-serif; font-size: 12px; fill: rgb(242, 245, 250); fill-opacity: 1; white-space: pre;">Alameda, CA</text><g class="layers" style="opacity: 1;"><g class="legendfill"/><g class="legendlines"><path class="js-line" d="M5,0h30" style="fill: none; stroke: rgb(230, 25, 75); stroke-opacity: 1; stroke-width: 2px;"/></g><g class="legendsymbols"><g class="legendpoints"/></g></g><rect class="legendtoggle" pointer-events="all" x="0" y="-9.5" width="128.046875" height="19" style="cursor: pointer; fill: rgb(0, 0, 0); fill-opacity: 0;"/></g><g class="traces" transform="translate(0, 33.5)" style="opacity: 1;"><text class="legendtext user-select-none" text-anchor="start" x="40" y="4.680000000000001" style="font-family: 'Open Sans', verdana, arial, sans-serif; font-size: 12px; fill: rgb(242, 245, 250); fill-opacity: 1; white-space: pre;">Sacramento, CA</text><g class="layers" style="opacity: 1;"><g class="legendfill"/><g class="legendlines"><path class="js-line" d="M5,0h30" style="fill: none; stroke: rgb(60, 180, 75); stroke-opacity: 1; stroke-width: 2px;"/></g><g class="legendsymbols"><g class="legendpoints"/></g></g><rect class="legendtoggle" pointer-events="all" x="0" y="-9.5" width="128.046875" height="19" style="cursor: pointer; fill: rgb(0, 0, 0); fill-opacity: 0;"/></g><g class="traces" transform="translate(0, 52.5)" style="opacity: 1;"><text class="legendtext user-select-none" text-anchor="start" x="40" y="4.680000000000001" style="font-family: 'Open Sans', verdana, arial, sans-serif; font-size: 12px; fill: rgb(242, 245, 250); fill-opacity: 1; white-space: pre;">Marion, FL</text><g class="layers" style="opacity: 1;"><g class="legendfill"/><g class="legendlines"><path class="js-line" d="M5,0h30" style="fill: none; stroke: rgb(255, 225, 25); stroke-opacity: 1; stroke-width: 2px;"/></g><g class="legendsymbols"><g class="legendpoints"/></g></g><rect class="legendtoggle" pointer-events="all" x="0" y="-9.5" width="128.046875" height="19" style="cursor: pointer; fill: rgb(0, 0, 0); fill-opacity: 0;"/></g><g class="traces" transform="translate(0, 71.5)" style="opacity: 1;"><text class="legendtext user-select-none" text-anchor="start" x="40" y="4.680000000000001" style="font-family: 'Open Sans', verdana, arial, sans-serif; font-size: 12px; fill: rgb(242, 245, 250); fill-opacity: 1; white-space: pre;">St Joseph, IN</text><g class="layers" style="opacity: 1;"><g class="legendfill"/><g class="legendlines"><path class="js-line" d="M5,0h30" style="fill: none; stroke: rgb(67, 99, 216); stroke-opacity: 1; stroke-width: 2px;"/></g><g class="legendsymbols"><g class="legendpoints"/></g></g><rect class="legendtoggle" pointer-events="all" x="0" y="-9.5" width="128.046875" height="19" style="cursor: pointer; fill: rgb(0, 0, 0); fill-opacity: 0;"/></g><g class="traces" transform="translate(0, 90.5)" style="opacity: 1;"><text class="legendtext user-select-none" text-anchor="start" x="40" y="4.680000000000001" style="font-family: 'Open Sans', verdana, arial, sans-serif; font-size: 12px; fill: rgb(242, 245, 250); fill-opacity: 1; white-space: pre;">Honolulu, HI</text><g class="layers" style="opacity: 1;"><g class="legendfill"/><g class="legendlines"><path class="js-line" d="M5,0h30" style="fill: none; stroke: rgb(245, 130, 49); stroke-opacity: 1; stroke-width: 2px;"/></g><g class="legendsymbols"><g class="legendpoints"/></g></g><rect class="legendtoggle" pointer-events="all" x="0" y="-9.5" width="128.046875" height="19" style="cursor: pointer; fill: rgb(0, 0, 0); fill-opacity: 0;"/></g><g class="traces" transform="translate(0, 109.5)" style="opacity: 1;"><text class="legendtext user-select-none" text-anchor="start" x="40" y="4.680000000000001" style="font-family: 'Open Sans', verdana, arial, sans-serif; font-size: 12px; fill: rgb(242, 245, 250); fill-opacity: 1; white-space: pre;">Polk, FL</text><g class="layers" style="opacity: 1;"><g class="legendfill"/><g class="legendlines"><path class="js-line" d="M5,0h30" style="fill: none; stroke: rgb(145, 30, 180); stroke-opacity: 1; stroke-width: 2px;"/></g><g class="legendsymbols"><g class="legendpoints"/></g></g><rect class="legendtoggle" pointer-events="all" x="0" y="-9.5" width="128.046875" height="19" style="cursor: pointer; fill: rgb(0, 0, 0); fill-opacity: 0;"/></g></g></g><rect class="scrollbar" rx="20" ry="3" width="0" height="0" x="0" y="0" style="fill: rgb(128, 139, 164); fill-opacity: 1;"/></g><g class="g-gtitle"/><g class="g-xtitle"><text class="xtitle" x="228.725" y="410.8" text-anchor="middle" style="font-family: 'Open Sans', verdana, arial, sans-serif; font-size: 14px; fill: rgb(242, 245, 250); opacity: 1; font-weight: normal; white-space: pre;">Date</text></g><g class="g-x2title"><text class="x2title" x="592.275" y="410.8" text-anchor="middle" style="font-family: 'Open Sans', verdana, arial, sans-serif; font-size: 14px; fill: rgb(242, 245, 250); opacity: 1; font-weight: normal; white-space: pre;">Date</text></g><g class="g-ytitle"><text class="ytitle" transform="rotate(-90,34.840625,235)" x="34.840625" y="235" text-anchor="middle" style="font-family: 'Open Sans', verdana, arial, sans-serif; font-size: 14px; fill: rgb(242, 245, 250); opacity: 1; font-weight: normal; white-space: pre;">Cases</text></g><g class="g-y2title"><text class="y2title" transform="rotate(-90,397.715625,235)" x="397.715625" y="235" text-anchor="middle" style="font-family: 'Open Sans', verdana, arial, sans-serif; font-size: 14px; fill: rgb(242, 245, 250); opacity: 1; font-weight: normal; white-space: pre;">Deaths</text></g><g class="annotation" data-index="0" style="opacity: 1;"><g class="annotation-text-g" transform="rotate(0,228.725,89.5)"><g class="cursor-pointer" transform="translate(204, 79)"><rect class="bg" x="0.5" y="0.5" width="48" height="20" style="stroke-width: 1px; stroke: rgb(0, 0, 0); stroke-opacity: 0; fill: rgb(0, 0, 0); fill-opacity: 0;"/><text class="annotation-text" text-anchor="middle" x="24.6875" y="16" style="font-family: 'Open Sans', verdana, arial, sans-serif; font-size: 16px; fill: rgb(242, 245, 250); fill-opacity: 1; white-space: pre;">Cases</text></g></g></g><g class="annotation" data-index="1" style="opacity: 1;"><g class="annotation-text-g" transform="rotate(0,592.275,89.5)"><g class="cursor-pointer" transform="translate(565, 79)"><rect class="bg" x="0.5" y="0.5" width="54" height="20" style="stroke-width: 1px; stroke: rgb(0, 0, 0); stroke-opacity: 0; fill: rgb(0, 0, 0); fill-opacity: 0;"/><text class="annotation-text" text-anchor="middle" x="27.359375" y="16" style="font-family: 'Open Sans', verdana, arial, sans-serif; font-size: 16px; fill: rgb(242, 245, 250); fill-opacity: 1; white-space: pre;">Deaths</text></g></g></g></g></svg>