<svg class="main-svg" xmlns="http://www.w3.org/2000/svg" xmlns:xlink="http://www.w3.org/1999/xlink" width="900" height="450" style="" viewBox="0 0 900 450"><rect x="0" y="0" width="900" height="450" style="fill: rgb(17, 17, 17); fill-opacity: 1;"/><defs id="defs-8b0dbb"><g class="clips"><clipPath id="clip8b0dbbxyplot" class="plotclip"><rect width="305.1" height="270"/></clipPath><clipPath id="clip8b0dbbx2y2plot" class="plotclip"><rect width="305.09999999999997" height="270"/></clipPath><clipPath class="axesclip" id="clip8b0dbbx"><rect x="80" y="0" width="305.1" height="450"/></clipPath><clipPath class="axesclip" id="clip8b0dbby"><rect x="0" y="100" width="900" height="270"/></clipPath><clipPath class="axesclip" id="clip8b0dbbxy"><rect x="80" y="100" width="305.1" height="270"/></clipPath><clipPath class="axesclip" id="clip8b0dbby2"><rect x="0" y="100" width="900" height="270"/></clipPath><clipPath class="axesclip" id="clip8b0dbbxy2"><rect x="80" y="100" width="305.1" height="270"/></clipPath><clipPath class="axesclip" id="clip8b0dbbx2"><rect x="452.90000000000003" y="0" width="305.09999999999997" height="450"/></clipPath><clipPath class="axesclip" id="clip8b0dbbx2y"><rect x="452.90000000000003" y="100" width="305.09999999999997" height="270"/></clipPath><clipPath class="axesclip" id="clip8b0dbbx2y2"><rect x="452.90000000000003" y="100" width="305.09999999999997" height="270"/></clipPath></g><g class="gradients"/></defs><g class="bglayer"/><g class="layer-below"><g class="imagelayer"/><g class="shapelayer"/></g><g class="cartesianlayer"><g class="subplot xy"><g class="layer-subplot"><g class="shapelayer"/><g class="imagelayer"/></g><g class="gridlayer"><g class="x"><path class="xgrid crisp" transform="translate(133.93,0)" d="M0,100v270" style="stroke: rgb(40, 52, 66); stroke-opacity: 1; stroke-width: 1px;"/><path class="xgrid crisp" transform="translate(204.04000000000002,0)" d="M0,100v270" style="stroke: rgb(40, 52, 66); stroke-opacity: 1; stroke-width: 1px;"/><path class="xgrid crisp" transform="translate(274.91999999999996,0)" d="M0,100v270" style="stroke: rgb(40, 52, 66); stroke-opacity: 1; stroke-width: 1px;"/><path class="xgrid crisp" transform="translate(345.81,0)" d="M0,100v270" style="stroke: rgb(40, 52, 66); stroke-opacity: 1; stroke-width: 1px;"/></g><g class="y"><path class="ygrid crisp" transform="translate(0,316.5)" d="M80,0h305.1" style="stroke: rgb(40, 52, 66); stroke-opacity: 1; stroke-width: 1px;"/><path class="ygrid crisp" transform="translate(0,276.5)" d="M80,0h305.1" style="stroke: rgb(40, 52, 66); stroke-opacity: 1; stroke-width: 1px;"/><path class="ygrid crisp" transform="translate(0,236.5)" d="M80,0h305.1" style="stroke: rgb(40, 52, 66); stroke-opacity: 1; stroke-width: 1px;"/><path class="ygrid crisp" transform="translate(0,196.5)" d="M80,0h305.1" style="stroke: rgb(40, 52, 66); stroke-opacity: 1; stroke-width: 1px;"/><path class="ygrid crisp" transform="translate(0,156.5)" d="M80,0h305.1" style="stroke: rgb(40, 52, 66); stroke-opacity: 1; stroke-width: 1px;"/><path class="ygrid crisp" transform="translate(0,116.51)" d="M80,0h305.1" style="stroke: rgb(40, 52, 66); stroke-opacity: 1; stroke-width: 1px;"/></g></g><g class="zerolinelayer"><path class="yzl zl crisp" transform="translate(0,356.5)" d="M80,0h305.1" style="stroke: rgb(40, 52, 66); stroke-opacity: 1; stroke-width: 2px;"/></g><path class="xlines-below"/><path class="ylines-below"/><g class="overlines-below"/><g class="xaxislayer-below"/><g class="yaxislayer-below"/><g class="overaxes-below"/><g class="plot" transform="translate(80, 100)" clip-path="url('#clip8b0dbbxyplot')"><g class="scatterlayer mlayer"><g class="trace scatter trace588a0d" style="stroke-miterlimit: 2; opacity: 1;"><g class="fills"/><g class="errorbars"/><g class="lines"><path class="js-line" d="M0,256.5L53.93,255.78L54.7,255.71L103.24,249.22L104.01,249.05L122.5,244.98L123.27,244.57L127.9,242.73L128.67,242.73L130.98,241.53L131.75,241.05L133.29,240.55L134.06,239.86L152.55,232.23L153.32,232.23L154.86,230.06L155.63,229.17L157.94,227.38L158.71,227.38L160.25,226.24L161.02,225.63L164.11,223.11L164.88,223.05L165.65,223.03L166.42,221.95L171.04,220.13L171.81,219.61L174.89,218.24L175.66,218.24L179.52,216.86L180.29,216.83L183.37,216.31L184.14,216.18L187.22,215.22L187.99,215.01L200.32,212.63L201.09,212.62L205.71,211.76L206.48,211.69L212.65,210.07L213.42,209.88L222.66,207.67L223.43,207.17L232.68,202.65L233.45,202.06L238.84,198.79L239.61,198.27L245,193.02L245.77,191.41L246.55,191.25L247.32,189.03L251.17,184.13L251.94,180.07L254.25,175.98L255.02,175.93L257.33,168.49L258.1,166.99L262.73,156.97L263.5,155.69L265.81,151.55L266.58,149.47L268.89,144.7L269.66,143.64L271.2,140.66L271.97,138.16L279.67,120.63L280.45,119.64L283.53,116.34L284.3,114.86L294.31,104.16L295.08,103.5L305.1,97.51" style="vector-effect: non-scaling-stroke; fill: none; stroke: rgb(230, 25, 75); stroke-opacity: 1; stroke-width: 2px; opacity: 1;"/></g><g class="points"/><g class="text"/></g><g class="trace scatter trace3363ab" style="stroke-miterlimit: 2; opacity: 1;"><g class="fills"/><g class="errorbars"/><g class="lines"><path class="js-line" d="M0,256.5L64.72,255.81L65.49,255.71L78.59,254.53L79.36,254.5L90.14,252.96L90.91,252.8L119.42,246.53L120.19,246.07L124.04,244.25L124.81,243.72L130.98,239.01L131.75,238.3L135.6,235.22L136.37,234.81L143.3,230.02L144.08,230.02L147.93,227.68L148.7,227.68L151.01,225.65L151.78,225.31L157.17,221.74L157.94,221.24L160.25,219.53L161.02,219.14L164.11,217.87L164.88,217.71L172.58,215.28L173.35,215.13L175.66,214.62L176.43,214.32L187.22,211.2L187.99,210.86L188.76,210.86L189.53,210.09L196.47,206.09L197.24,205.36L199.55,203.64L200.32,202.56L205.71,196.73L206.48,193.55L210.33,186.98L211.1,184.45L216.5,166.42L217.27,162.4L221.12,143.79L221.89,139.64L232.68,100.55L233.45,98.18L236.53,90.89L237.3,89.6L242.69,80.91L243.46,79.52L245.77,76.98L246.55,76.06L251.17,70.88L251.94,70.06L255.02,68.02L255.79,68.02L256.56,68.02L257.33,65.42L260.41,63.06L261.18,62.4L262.73,62.15L263.5,61.08L268.12,56.73L268.89,55.66L271.2,53.6L271.97,50.73L274.28,48.34L275.05,47.08L278.9,42.12L279.67,41.4L284.3,36.26L285.07,34.38L288.92,29.23L289.69,29.23L292.77,24.81L293.54,23.98L302.79,15.39L303.56,14.97L305.1,13.5" style="vector-effect: non-scaling-stroke; fill: none; stroke: rgb(60, 180, 75); stroke-opacity: 1; stroke-width: 2px; opacity: 1;"/></g><g class="points"/><g class="text"/></g><g class="trace scatter traced98199" style="stroke-miterlimit: 2; opacity: 1;"><g class="fills"/><g class="errorbars"/><g class="lines"><path class="js-line" d="M0,256.5L48.54,256.06L49.31,255.72L54.7,253.76L55.47,253.13L59.33,250.79L60.1,250.31L76.27,243.75L77.05,243.49L81.67,242.08L82.44,241.95L94.77,239.76L95.54,239.64L137.91,236.61L138.68,236.59L186.45,232.02L187.22,231.87L191.07,230.69L191.84,230.18L194.92,229.06L195.7,228.7L201.09,226.65L201.86,226.39L213.42,223.55L214.19,223.43L226.51,220.63L227.28,220.34L234.22,216.74L234.99,216.33L244.23,210.02L245,209.39L248.86,206.21L249.63,205.67L251.94,203.49L252.71,203.04L257.33,198.63L258.1,197.95L262.73,194.04L263.5,187.17L270.43,178.71L271.2,176.26L271.97,176.26L272.74,175.41L281.22,164.88L281.99,164.13L285.07,160.46L285.84,159.69L289.69,155.5L290.46,154.92L292.77,152.9L293.54,152.13L298.94,147.15L299.71,146.88L301.25,145.93L302.02,145.26L305.1,143.24" style="vector-effect: non-scaling-stroke; fill: none; stroke: rgb(255, 225, 25); stroke-opacity: 1; stroke-width: 2px; opacity: 1;"/></g><g class="points"/><g class="text"/></g><g class="trace scatter tracef4946c" style="stroke-miterlimit: 2; opacity: 1;"><g class="fills"/><g class="errorbars"/><g class="lines"><path class="js-line" d="M0,256.5L71.65,255.8L72.42,255.66L104.78,252.85L105.55,252.85L122.5,252.49L123.27,252.49L187.99,251.12L188.76,250.99L202.63,250.31L203.4,250.15L220.35,249.4L221.12,249.23L225.74,248.67L226.51,248.46L232.68,247.83L233.45,247.66L245.77,247.01L246.55,246.89L267.35,246.14L268.12,246.09L305.1,245.41" style="vector-effect: non-scaling-stroke; fill: none; stroke: rgb(67, 99, 216); stroke-opacity: 1; stroke-width: 2px; opacity: 1;"/></g><g class="points"/><g class="text"/></g><g class="trace scatter trace8fc9ea" style="stroke-miterlimit: 2; opacity: 1;"><g class="fills"/><g class="errorbars"/><g class="lines"><path class="js-line" d="M0,256.5L64.72,255.77L65.49,255.73L105.55,253.98L106.32,253.82L121.73,251.83L122.5,251.02L124.04,250.31L124.81,250.02L127.13,250.02L127.9,248.92L134.83,247.26L135.6,246.56L138.68,246.12L139.45,244.59L146.39,242.29L147.16,241.81L148.7,241.81L149.47,240.75L154.09,240.21L154.86,239.23L169.5,235.81L170.27,235.81L172.58,234.89L173.35,234.72L182.6,233.11L183.37,232.82L195.7,230.61L196.47,230.61L202.63,229.97L203.4,229.65L211.1,228.6L211.88,228.46L216.5,227.85L217.27,227.68L221.12,227.01L221.89,226.7L231.14,223.2L231.91,222.47L234.99,221.35L235.76,220.13L238.84,219.71L239.61,219.71L240.38,219.71L241.15,216.37L241.92,216.11L242.69,214.53L245,212.75L245.77,212.75L247.32,209.56L248.09,209.22L250.4,207.95L251.17,207.95L252.71,201.67L253.48,200.68L255.79,197.79L256.56,197.79L258.1,192.98L258.87,191.53L262.73,183.18L263.5,182.2L267.35,169.71L268.12,169.01L278.9,133.99L279.67,132.79L286.61,119.92L287.38,118.71L292.77,111.31L293.54,110.6L296.63,107.84L297.4,107.2L302.02,104.42L302.79,104.04L305.1,102.99" style="vector-effect: non-scaling-stroke; fill: none; stroke: rgb(245, 130, 49); stroke-opacity: 1; stroke-width: 2px; opacity: 1;"/></g><g class="points"/><g class="text"/></g><g class="trace scatter traceba30ba" style="stroke-miterlimit: 2; opacity: 1;"><g class="fills"/><g class="errorbars"/><g class="lines"><path class="js-line" d="M0,256.5L70.11,255.77L70.88,255.74L111.72,253.48L112.49,253.37L119.42,251.36L120.19,250.94L122.5,249.14L123.27,248.83L129.44,244.71L130.21,244.09L135.6,239.5L136.37,238.96L149.47,230.23L150.24,230.04L160.25,225.49L161.02,225.29L181.83,219.45L182.6,219.28L189.53,217.4L190.3,217.21L198.78,215.33L199.55,215.13L208.02,212.94L208.79,212.83L217.27,210.33L218.04,210.17L238.07,202.84L238.84,202.2L243.46,199.7L244.23,199.22L255.02,190.88L255.79,190.22L258.87,187.8L259.64,186.81L260.41,186.81L261.18,185.72L264.27,182.97L265.04,181.7L265.81,181.7L266.58,179.67L270.43,174.54L271.2,173.26L281.22,162.79L281.99,161.99L284.3,159.76L285.07,159.19L298.94,148.03L299.71,147.63L303.56,145.56L304.33,145.11L305.1,144.78" style="vector-effect: non-scaling-stroke; fill: none; stroke: rgb(145, 30, 180); stroke-opacity: 1; stroke-width: 2px; opacity: 1;"/></g><g class="points"/><g class="text"/></g></g></g><g class="overplot"/><path class="xlines-above crisp" d="M0,0" style="fill: none;"/><path class="ylines-above crisp" d="M0,0" style="fill: none;"/><g class="overlines-above"/><g class="xaxislayer-above"><g class="xtick"><text text-anchor="middle" x="0" y="383" transform="translate(133.93,0)" style="font-family: 'Open Sans', verdana, arial, sans-serif; font-size: 12px; fill: rgb(242, 245, 250); fill-opacity: 1; white-space: pre;">Apr 2020</text></g><g class="xtick"><text text-anchor="middle" x="0" y="383" transform="translate(204.04000000000002,0)" style="font-family: 'Open Sans', verdana, arial, sans-serif; font-size: 12px; fill: rgb(242, 245, 250); fill-opacity: 1; white-space: pre;">Jul 2020</text></g><g class="xtick"><text text-anchor="middle" x="0" y="383" transform="translate(274.91999999999996,0)" style="font-family: 'Open Sans', verdana, arial, sans-serif; font-size: 12px; fill: rgb(242, 245, 250); fill-opacity: 1; white-space: pre;">Oct 2020</text></g><g class="xtick"><text text-anchor="middle" x="0" y="383" transform="translate(345.81,0)" style="font-family: 'Open Sans', verdana, arial, sans-serif; font-size: 12px; fill: rgb(242, 245, 250); fill-opacity: 1; white-space: pre;">Jan 2021</text></g></g><g class="yaxislayer-above"><g class="ytick"><text text-anchor="end" x="79" y="4.199999999999999" transform="translate(0,356.5)" style="font-family: 'Open Sans', verdana, arial, sans-serif; font-size: 12px; fill: rgb(242, 245, 250); fill-opacity: 1; white-space: pre;">0</text></g><g class="ytick"><text text-anchor="end" x="79" y="4.199999999999999" transform="translate(0,316.5)" style="font-family: 'Open Sans', verdana, arial, sans-serif; font-size: 12px; fill: rgb(242, 245, 250); fill-opacity: 1; white-space: pre;">20k</text></g><g class="ytick"><text text-anchor="end" x="79" y="4.199999999999999" transform="translate(0,276.5)" style="font-family: 'Open Sans', verdana, arial, sans-serif; font-size: 12px; fill: rgb(242, 245, 250); fill-opacity: 1; white-space: pre;">40k</text></g><g class="ytick"><text text-anchor="end" x="79" y="4.199999999999999" transform="translate(0,236.5)" style="font-family: 'Open Sans', verdana, arial, sans-serif; font-size: 12px; fill: rgb(242, 245, 250); fill-opacity: 1; white-space: pre;">60k</text></g><g class="ytick"><text text-anchor="end" x="79" y="4.199999999999999" transform="translate(0,196.5)" style="font-family: 'Open Sans', verdana, arial, sans-serif; font-size: 12px; fill: rgb(242, 245, 250); fill-opacity: 1; white-space: pre;">80k</text></g><g class="ytick"><text text-anchor="end" x="79" y="4.199999999999999" transform="translate(0,156.5)" style="font-family: 'Open Sans', verdana, arial, sans-serif; font-size: 12px; fill: rgb(242, 245, 250); fill-opacity: 1; white-space: pre;">100k</text></g><g class="ytick"><text text-anchor="end" x="79" y="4.199999999999999" transform="translate(0,116.51)" style="font-family: 'Open Sans', verdana, arial, sans-serif; font-size: 12px; fill: rgb(242, 245, 250); fill-opacity: 1; white-space: pre;">120k</text></g></g><g class="overaxes-above"/></g><g class="subplot x2y2"><g class="layer-subplot"><g class="shapelayer"/><g class="imagelayer"/></g><g class="gridlayer"><g class="x2"><path class="x2grid crisp" transform="translate(506.83000000000004,0)" d="M0,100v270" style="stroke: rgb(40, 52, 66); stroke-opacity: 1; stroke-width: 1px;"/><path class="x2grid crisp" transform="translate(576.94,0)" d="M0,100v270" style="stroke: rgb(40, 52, 66); stroke-opacity: 1; stroke-width: 1px;"/><path class="x2grid crisp" transform="translate(647.83,0)" d="M0,100v270" style="stroke: rgb(40, 52, 66); stroke-opacity: 1; stroke-width: 1px;"/><path class="x2grid crisp" transform="translate(718.71,0)" d="M0,100v270" style="stroke: rgb(40, 52, 66); stroke-opacity: 1; stroke-width: 1px;"/></g><g class="y2"><path class="y2grid crisp" transform="translate(0,303.7)" d="M452.90000000000003,0h305.09999999999997" style="stroke: rgb(40, 52, 66); stroke-opacity: 1; stroke-width: 1px;"/><path class="y2grid crisp" transform="translate(0,250.89)" d="M452.90000000000003,0h305.09999999999997" style="stroke: rgb(40, 52, 66); stroke-opacity: 1; stroke-width: 1px;"/><path class="y2grid crisp" transform="translate(0,198.09)" d="M452.90000000000003,0h305.09999999999997" style="stroke: rgb(40, 52, 66); stroke-opacity: 1; stroke-width: 1px;"/><path class="y2grid crisp" transform="translate(0,145.29)" d="M452.90000000000003,0h305.09999999999997" style="stroke: rgb(40, 52, 66); stroke-opacity: 1; stroke-width: 1px;"/></g></g><g class="zerolinelayer"><path class="y2zl zl crisp" transform="translate(0,356.5)" d="M452.90000000000003,0h305.09999999999997" style="stroke: rgb(40, 52, 66); stroke-opacity: 1; stroke-width: 2px;"/></g><path class="xlines-below"/><path class="ylines-below"/><g class="overlines-below"/><g class="xaxislayer-below"/><g class="yaxislayer-below"/><g class="overaxes-below"/><g class="plot" transform="translate(452.90000000000003, 100)" clip-path="url('#clip8b0dbbx2y2plot')"><g class="scatterlayer mlayer"><g class="trace scatter trace406610" style="stroke-miterlimit: 2; opacity: 1;"><g class="fills"/><g class="errorbars"/><g class="lines"><path class="js-line" d="M0,256.5L53.16,255.76L53.93,255.66L63.95,254.07L64.72,252.7L67.8,252.06L68.57,252.06L75.5,250.48L76.28,250.16L83.21,249L83.98,249L86.29,248.47L87.06,248.16L89.37,247.73L90.14,247.73L94,246.78L94.77,246.68L103.24,246.26L104.01,245.83L108.63,245.09L109.4,244.99L113.26,244.25L114.03,244.14L119.42,242.98L120.19,242.77L124.04,242.14L124.81,241.93L127.9,241.72L128.67,241.72L140.99,238.23L141.76,237.7L147.16,237.28L147.93,236.54L153.32,236.12L154.09,234.85L156.4,234.11L157.17,233.69L163.34,231.79L164.11,231.89L167.19,230.84L167.96,230.73L169.5,230.42L170.27,229.25L171.81,229.36L172.58,227.56L174.12,225.24L174.89,224.92L178.75,224.5L179.52,222.71L180.29,222.71L181.06,221.44L181.83,221.33L182.6,218.9L183.37,218.9L184.14,217.95L186.45,217L187.22,217L188.76,214.79L189.53,214.57L191.07,213.84L191.84,213.62L194.15,212.99L194.93,212.15L198.78,211.41L199.55,210.03L203.4,210.46L204.17,210.98L204.94,209.82L205.71,210.77L207.25,209.82L208.02,210.77L210.33,210.56L211.1,208.34L221.12,207.6L221.89,207.39L224.2,206.44L224.97,206.44L225.74,206.44L226.51,205.49L229.6,204.75L230.37,204.75L234.22,203.8L234.99,203.8L238.84,203.17L239.61,202.54L248.09,200.95L248.86,200.21L253.48,197.04L254.25,195.88L255.02,195.88L255.79,194.72L258.1,194.4L258.87,192.19L260.41,191.13L261.18,191.13L262.73,190.5L263.5,190.5L265.04,190.5L265.81,187.22L269.66,187.22L270.43,182.89L271.2,182.89L271.97,179.51L274.28,178.77L275.05,176.77L278.9,176.56L279.68,175.82L281.22,175.61L281.99,167.58L283.53,166.1L284.3,162.09L285.07,161.88L285.84,160.82L288.15,155.22L288.92,153.64L292,151L292.77,148.68L295.08,146.56L295.85,146.56L298.17,144.13L298.94,141.6L299.71,138.22L300.48,138.22L303.56,137.59L304.33,132.84L305.1,132.84" style="vector-effect: non-scaling-stroke; fill: none; stroke: rgb(230, 25, 75); stroke-opacity: 1; stroke-width: 2px; opacity: 1;"/></g><g class="points"/><g class="text"/></g><g class="trace scatter tracec2cc60" style="stroke-miterlimit: 2; opacity: 1;"><g class="fills"/><g class="errorbars"/><g class="lines"><path class="js-line" d="M0,256.5L67.03,255.76L67.8,255.66L75.5,255.02L76.28,254.6L78.59,254.18L79.36,254.18L81.67,254.07L82.44,253.33L91.68,250.8L92.45,250.48L96.31,250.16L97.08,249.32L100.16,248.26L100.93,248.05L104.78,247L105.55,247L108.63,246.26L109.4,246.15L113.26,244.57L114.03,243.93L120.19,243.19L120.96,243.09L124.81,242.56L125.58,242.24L128.67,241.82L129.44,241.29L134.06,240.45L134.83,239.71L136.37,237.81L137.14,237.6L138.68,237.07L139.45,236.75L142.53,233.16L143.3,232.84L144.08,233.69L144.85,233.27L146.39,232L147.16,231.47L148.7,230.31L149.47,229.99L151.78,228.41L152.55,227.56L154.86,226.4L155.63,224.92L160.25,220.17L161.03,219.96L162.57,216.26L163.34,215.63L164.88,215.1L165.65,215.1L167.19,214.79L167.96,213.62L169.5,211.3L170.27,211.3L171.81,210.77L172.58,210.14L175.66,207.5L176.43,207.5L179.52,206.87L180.29,205.91L185.68,204.01L186.45,203.27L188.76,202.64L189.53,201.8L198.01,199.9L198.78,199.68L202.63,197.78L203.4,197.78L206.48,196.2L207.25,195.78L211.1,195.14L211.88,194.83L213.42,193.66L214.19,193.66L215.73,193.03L216.5,191.87L219.58,188.49L220.35,187.96L221.89,185.11L222.66,184.37L226.51,179.51L227.28,177.19L228.83,172.86L229.6,171.7L231.14,170.11L231.91,167.9L233.45,160.4L234.22,160.4L235.76,153.01L236.53,151.42L239.61,143.71L240.38,143.08L241.15,142.66L241.92,141.28L242.69,139.59L243.46,135.9L245.78,126.29L246.55,125.44L247.32,124.6L248.09,121.11L254.25,104.74L255.02,104.74L257.33,104.74L258.1,91.01L258.87,91.01L259.64,87.74L261.18,86.47L261.95,86.37L263.5,85.21L264.27,82.78L266.58,76.76L267.35,76.65L268.89,75.49L269.66,73.7L271.2,70.63L271.97,64.4L277.36,52.79L278.13,52.15L279.68,51.62L280.45,49.09L283.53,40.22L284.3,38.53L285.84,37.79L286.61,36.21L292,29.24L292.77,27.33L294.31,26.07L295.08,26.07L299.71,18.89L300.48,18.89L303.56,15.61L304.33,14.13L305.1,13.5" style="vector-effect: non-scaling-stroke; fill: none; stroke: rgb(60, 180, 75); stroke-opacity: 1; stroke-width: 2px; opacity: 1;"/></g><g class="points"/><g class="text"/></g><g class="trace scatter tracee84e4a" style="stroke-miterlimit: 2; opacity: 1;"><g class="fills"/><g class="errorbars"/><g class="lines"><path class="js-line" d="M0,256.5L50.08,255.97L50.85,255.44L53.16,254.81L53.93,254.07L56.24,250.59L57.01,249.95L58.55,247.52L59.33,245.83L60.87,243.72L61.64,242.56L63.95,240.76L64.72,238.97L67.03,234.11L67.8,233.58L68.57,233.06L69.34,229.78L70.88,229.78L71.65,224.71L73.19,222.49L73.96,221.65L75.5,217.74L76.28,214.57L77.82,211.51L78.59,210.03L79.36,209.29L80.13,206.97L88.6,191.34L89.37,190.39L92.45,186.69L93.23,184.9L94.77,184.05L95.54,183.63L96.31,183.42L97.08,182.15L100.93,178.35L101.7,178.03L103.24,175.92L104.01,175.71L105.55,174.76L106.32,174.02L112.49,169.27L113.26,169.06L116.34,167.05L117.11,166.73L119.42,164.83L120.19,164.41L121.73,156.81L122.5,156.6L124.04,155.22L124.81,155.01L127.13,153.85L127.9,153.64L130.21,151.74L130.98,151.42L139.45,149.52L140.22,149.73L144.85,149.63L145.62,149.84L147.93,149.31L148.7,149.2L161.8,148.46L162.57,148.36L166.42,148.25L167.19,148.78L173.35,148.04L174.12,147.73L181.83,146.99L182.6,146.88L197.24,145.61L198.01,145.61L201.09,145.4L201.86,145.4L210.33,144.66L211.1,144.45L231.14,141.49L231.91,141.18L236.53,140.02L237.3,139.59L240.38,137.69L241.15,137.59L246.55,134.21L247.32,132.94L249.63,129.77L250.4,128.82L251.94,128.4L252.71,127.34L258.1,122.7L258.87,120.06L263.5,116.57L264.27,114.25L265.04,113.3L265.81,110.66L268.12,110.02L268.89,107.7L271.97,102.21L272.74,102.21L273.51,102.21L274.28,99.78L277.36,94.5L278.13,94.08L279.68,93.44L280.45,91.97L282.76,87.53L283.53,87.42L284.3,87.21L285.07,85.21L288.15,82.36L288.92,82.14L289.69,81.93L290.46,80.14L293.54,75.39L294.31,75.28L295.85,73.91L296.63,73.17L298.94,70.74L299.71,70.53L301.25,70.32L302.02,67.78L304.33,65.35L305.1,65.14" style="vector-effect: non-scaling-stroke; fill: none; stroke: rgb(255, 225, 25); stroke-opacity: 1; stroke-width: 2px; opacity: 1;"/></g><g class="points"/><g class="text"/></g><g class="trace scatter trace5ef493" style="stroke-miterlimit: 2; opacity: 1;"><g class="fills"/><g class="errorbars"/><g class="lines"><path class="js-line" d="M0,256.5L86.29,255.76L87.06,255.66L302.79,255.44L303.56,249.95L305.1,249.95" style="vector-effect: non-scaling-stroke; fill: none; stroke: rgb(67, 99, 216); stroke-opacity: 1; stroke-width: 2px; opacity: 1;"/></g><g class="points"/><g class="text"/></g><g class="trace scatter traced7df30" style="stroke-miterlimit: 2; opacity: 1;"><g class="fills"/><g class="errorbars"/><g class="lines"><path class="js-line" d="M0,256.5L60.1,255.76L60.87,255.44L75.5,254.7L76.28,254.6L90.14,253.86L90.91,253.54L100.16,253.01L100.93,253.01L112.49,252.17L113.26,252.17L120.19,251.85L120.96,251.85L129.44,251.22L130.21,250.9L138.68,250.48L139.45,249.95L153.32,248.16L154.09,247.1L157.17,246.57L157.94,246.47L164.88,245.73L165.65,245.62L171.81,244.25L172.58,244.25L177.2,243.51L177.98,243.19L180.29,242.88L181.06,242.88L183.37,241.61L184.14,241.5L202.63,239.81L203.4,239.81L214.96,239.07L215.73,238.97L231.91,238.23L232.68,238.12L240.38,238.02L241.15,237.17L245.78,236.65L246.55,236.54L248.09,235.7L248.86,235.7L258.1,234.32L258.87,233.69L261.18,231.89L261.95,231.89L262.73,231.89L263.5,230.73L265.04,229.04L265.81,228.73L268.12,228.73L268.89,225.98L271.2,223.45L271.97,221.23L273.51,221.23L274.28,219.43L275.05,219.43L275.82,215.52L277.36,214.15L278.13,212.99L279.68,212.99L280.45,210.46L282.76,202.96L283.53,202.96L284.3,202.96L285.07,201.06L288.15,193.35L288.92,193.35L289.69,193.35L290.46,191.24L294.31,186.38L295.08,186.38L298.94,179.2L299.71,179.2L301.25,179.2L302.02,177.19L304.33,173.92L305.1,173.92" style="vector-effect: non-scaling-stroke; fill: none; stroke: rgb(245, 130, 49); stroke-opacity: 1; stroke-width: 2px; opacity: 1;"/></g><g class="points"/><g class="text"/></g><g class="trace scatter tracebe58c9" style="stroke-miterlimit: 2; opacity: 1;"><g class="fills"/><g class="errorbars"/><g class="lines"><path class="js-line" d="M0,256.5L60.1,255.76L60.87,255.66L69.34,254.92L70.11,254.81L107.86,249L108.63,248.79L120.19,247.31L120.96,246.78L124.81,245.73L125.58,245.41L127.13,245.41L127.9,244.46L129.44,243.62L130.21,243.09L133.29,241.61L134.06,240.55L139.45,236.86L140.22,235.38L140.99,235.06L141.76,233.79L144.08,233.27L144.85,231.58L146.39,228.83L147.16,228.2L149.47,227.88L150.24,226.3L151.78,224.4L152.55,224.4L154.09,223.55L154.86,223.34L157.94,219.22L158.71,218.69L160.25,218.48L161.03,215.63L163.34,214.36L164.11,213.84L165.65,213.52L166.42,212.25L168.73,211.19L169.5,209.82L171.81,209.29L172.58,208.45L174.89,207.08L175.66,207.08L177.2,206.97L177.98,205.81L186.45,202.96L187.22,202.96L191.84,200.63L192.61,200.74L198.78,200.32L199.55,199.26L201.86,197.68L202.63,197.68L204.94,197.04L205.71,196.41L208.02,194.61L208.79,194.3L211.88,192.93L212.65,191.55L217.27,191.02L218.04,190.71L219.58,190.5L220.35,189.65L224.97,189.12L225.74,188.7L233.45,187.12L234.22,186.8L238.07,185.64L238.84,185.64L241.15,184.9L241.92,183.84L248.09,181.73L248.86,180.78L251.17,180.15L251.94,180.15L255.02,177.82L255.79,177.72L257.33,177.19L258.1,176.34L262.73,175.5L263.5,174.13L266.58,172.97L267.35,172.97L268.12,172.97L268.89,171.06L272.74,168.42L273.51,168.32L275.05,164.83L275.82,164.2L277.36,162.83L278.13,162.4L279.68,161.98L280.45,160.5L283.53,158.39L284.3,158.39L286.61,155.12L287.38,154.7L291.23,153.11L292,151.84L293.54,150.05L294.31,150.05L295.08,150.05L295.85,147.83L296.63,147.73L297.4,145.61L300.48,144.87L301.25,142.76L304.33,139.59L305.1,139.59" style="vector-effect: non-scaling-stroke; fill: none; stroke: rgb(145, 30, 180); stroke-opacity: 1; stroke-width: 2px; opacity: 1;"/></g><g class="points"/><g class="text"/></g></g></g><g class="overplot"/><path class="xlines-above crisp" d="M0,0" style="fill: none;"/><path class="ylines-above crisp" d="M0,0" style="fill: none;"/><g class="overlines-above"/><g class="xaxislayer-above"><g class="x2tick"><text text-anchor="middle" x="0" y="383" transform="translate(506.83000000000004,0)" style="font-family: 'Open Sans', verdana, arial, sans-serif; font-size: 12px; fill: rgb(242, 245, 250); fill-opacity: 1; white-space: pre;">Apr 2020</text></g><g class="x2tick"><text text-anchor="middle" x="0" y="383" transform="translate(576.94,0)" style="font-family: 'Open Sans', verdana, arial, sans-serif; font-size: 12px; fill: rgb(242, 245, 250); fill-opacity: 1; white-space: pre;">Jul 2020</text></g><g class="x2tick"><text text-anchor="middle" x="0" y="383" transform="translate(647.83,0)" style="font-family: 'Open Sans', verdana, arial, sans-serif; font-size: 12px; fill: rgb(242, 245, 250); fill-opacity: 1; white-space: pre;">Oct 2020</text></g><g class="x2tick"><text text-anchor="middle" x="0" y="383" transform="translate(718.71,0)" style="font-family: 'Open Sans', verdana, arial, sans-serif; font-size: 12px; fill: rgb(242, 245, 250); fill-opacity: 1; white-space: pre;">Jan 2021</text></g></g><g class="yaxislayer-above"><g class="y2tick"><text text-anchor="end" x="451.90000000000003" y="4.199999999999999" transform="translate(0,356.5)" style="font-family: 'Open Sans', verdana, arial, sans-serif; font-size: 12px; fill: rgb(242, 245, 250); fill-opacity: 1; white-space: pre;">0</text></g><g class="y2tick"><text text-anchor="end" x="451.90000000000003" y="4.199999999999999" transform="translate(0,303.7)" style="font-family: 'Open Sans', verdana, arial, sans-serif; font-size: 12px; fill: rgb(242, 245, 250); fill-opacity: 1; white-space: pre;">500</text></g><g class="y2tick"><text text-anchor="end" x="451.90000000000003" y="4.199999999999999" transform="translate(0,250.89)" style="font-family: 'Open Sans', verdana, arial, sans-serif; font-size: 12px; fill: rgb(242, 245, 250); fill-opacity: 1; white-space: pre;">1000</text></g><g class="y2tick"><text text-anchor="end" x="451.90000000000003" y="4.199999999999999" transform="translate(0,198.09)" style="font-family: 'Open Sans', verdana, arial, sans-serif; font-size: 12px; fill: rgb(242, 245, 250); fill-opacity: 1; white-space: pre;">1500</text></g><g class="y2tick"><text text-anchor="end" x="451.90000000000003" y="4.199999999999999" transform="translate(0,145.29)" style="font-family: 'Open Sans', verdana, arial, sans-serif; font-size: 12px; fill: rgb(242, 245, 250); fill-opacity: 1; white-space: pre;">2000</text></g></g><g class="overaxes-above"/></g></g><g class="polarlayer"/><g class="ternarylayer"/><g class="geolayer"/><g class="funnelarealayer"/><g class="pielayer"/><g class="treemaplayer"/><g class="sunburstlayer"/><g class="glimages"/><defs id="topdefs-8b0dbb"><g class="clips"/><clipPath id="legend8b0dbb"><rect width="116" height="124" x="0" y="0"/></clipPath></defs><g class="layer-above"><g class="imagelayer"/><g class="shapelayer"/></g><g class="infolayer"><g class="legend" pointer-events="all" transform="translate(771.5600000000001, 100)"><rect class="bg" shape-rendering="crispEdges" width="116" height="124" x="0" y="0" style="stroke: rgb(68, 68, 68); stroke-opacity: 1; fill: rgb(17, 17, 17); fill-opacity: 1; stroke-width: 0px;"/><g class="scrollbox" transform="translate(0, 0)" clip-path="url('#legend8b0dbb')"><g class="groups"><g class="traces" transform="translate(0, 14.5)" style="opacity: 1;"><text class="legendtext user-select-none" text-anchor="start" x="40" y="4.680000000000001" style="font-family: 'Open Sans', verdana, arial, sans-serif; font-size: 12px; fill: rgb(242, 245, 250); fill-opacity: 1; white-space: pre;">Alameda, CA</text><g class="layers" style="opacity: 1;"><g class="legendfill"/><g class="legendlines"><path class="js-line" d="M5,0h30" style="fill: none; stroke: rgb(230, 25, 75); stroke-opacity: 1; stroke-width: 2px;"/></g><g class="legendsymbols"><g class="legendpoints"/></g></g><rect class="legendtoggle" pointer-events="all" x="0" y="-9.5" width="110.703125" height="19" style="cursor: pointer; fill: rgb(0, 0, 0); fill-opacity: 0;"/></g><g class="traces" transform="translate(0, 33.5)" style="opacity: 1;"><text class="legendtext user-select-none" text-anchor="start" x="40" y="4.680000000000001" style="font-family: 'Open Sans', verdana, arial, sans-serif; font-size: 12px; fill: rgb(242, 245, 250); fill-opacity: 1; white-space: pre;">El Paso, TX</text><g class="layers" style="opacity: 1;"><g class="legendfill"/><g class="legendlines"><path class="js-line" d="M5,0h30" style="fill: none; stroke: rgb(60, 180, 75); stroke-opacity: 1; stroke-width: 2px;"/></g><g class="legendsymbols"><g class="legendpoints"/></g></g><rect class="legendtoggle" pointer-events="all" x="0" y="-9.5" width="110.703125" height="19" style="cursor: pointer; fill: rgb(0, 0, 0); fill-opacity: 0;"/></g><g class="traces" transform="translate(0, 52.5)" style="opacity: 1;"><text class="legendtext user-select-none" text-anchor="start" x="40" y="4.680000000000001" style="font-family: 'Open Sans', verdana, arial, sans-serif; font-size: 12px; fill: rgb(242, 245, 250); fill-opacity: 1; white-space: pre;">Ocean, NJ</text><g class="layers" style="opacity: 1;"><g class="legendfill"/><g class="legendlines"><path class="js-line" d="M5,0h30" style="fill: none; stroke: rgb(255, 225, 25); stroke-opacity: 1; stroke-width: 2px;"/></g><g class="legendsymbols"><g class="legendpoints"/></g></g><rect class="legendtoggle" pointer-events="all" x="0" y="-9.5" width="110.703125" height="19" style="cursor: pointer; fill: rgb(0, 0, 0); fill-opacity: 0;"/></g><g class="traces" transform="translate(0, 71.5)" style="opacity: 1;"><text class="legendtext user-select-none" text-anchor="start" x="40" y="4.680000000000001" style="font-family: 'Open Sans', verdana, arial, sans-serif; font-size: 12px; fill: rgb(242, 245, 250); fill-opacity: 1; white-space: pre;">Ford, KS</text><g class="layers" style="opacity: 1;"><g class="legendfill"/><g class="legendlines"><path class="js-line" d="M5,0h30" style="fill: none; stroke: rgb(67, 99, 216); stroke-opacity: 1; stroke-width: 2px;"/></g><g class="legendsymbols"><g class="legendpoints"/></g></g><rect class="legendtoggle" pointer-events="all" x="0" y="-9.5" width="110.703125" height="19" style="cursor: pointer; fill: rgb(0, 0, 0); fill-opacity: 0;"/></g><g class="traces" transform="translate(0, 90.5)" style="opacity: 1;"><text class="legendtext user-select-none" text-anchor="start" x="40" y="4.680000000000001" style="font-family: 'Open Sans', verdana, arial, sans-serif; font-size: 12px; fill: rgb(242, 245, 250); fill-opacity: 1; white-space: pre;">Ventura, CA</text><g class="layers" style="opacity: 1;"><g class="legendfill"/><g class="legendlines"><path class="js-line" d="M5,0h30" style="fill: none; stroke: rgb(245, 130, 49); stroke-opacity: 1; stroke-width: 2px;"/></g><g class="legendsymbols"><g class="legendpoints"/></g></g><rect class="legendtoggle" pointer-events="all" x="0" y="-9.5" width="110.703125" height="19" style="cursor: pointer; fill: rgb(0, 0, 0); fill-opacity: 0;"/></g><g class="traces" transform="translate(0, 109.5)" style="opacity: 1;"><text class="legendtext user-select-none" text-anchor="start" x="40" y="4.680000000000001" style="font-family: 'Open Sans', verdana, arial, sans-serif; font-size: 12px; fill: rgb(242, 245, 250); fill-opacity: 1; white-space: pre;">Polk, FL</text><g class="layers" style="opacity: 1;"><g class="legendfill"/><g class="legendlines"><path class="js-line" d="M5,0h30" style="fill: none; stroke: rgb(145, 30, 180); stroke-opacity: 1; stroke-width: 2px;"/></g><g class="legendsymbols"><g class="legendpoints"/></g></g><rect class="legendtoggle" pointer-events="all" x="0" y="-9.5" width="110.703125" height="19" style="cursor: pointer; fill: rgb(0, 0, 0); fill-opacity: 0;"/></g></g></g><rect class="scrollbar" rx="20" ry="3" width="0" height="0" x="0" y="0" style="fill: rgb(128, 139, 164); fill-opacity: 1;"/></g><g class="g-gtitle"/><g class="g-xtitle"><text class="xtitle" x="232.55" y="410.8" text-anchor="middle" style="font-family: 'Open Sans', verdana, arial, sans-serif; font-size: 14px; fill: rgb(242, 245, 250); opacity: 1; font-weight: normal; white-space: pre;">Date</text></g><g class="g-x2title"><text class="x2title" x="605.45" y="410.8" text-anchor="middle" style="font-family: 'Open Sans', verdana, arial, sans-serif; font-size: 14px; fill: rgb(242, 245, 250); opacity: 1; font-weight: normal; white-space: pre;">Date</text></g><g class="g-ytitle"><text class="ytitle" transform="rotate(-90,28.168750000000003,235)" x="28.168750000000003" y="235" text-anchor="middle" style="font-family: 'Open Sans', verdana, arial, sans-serif; font-size: 14px; fill: rgb(242, 245, 250); opacity: 1; font-weight: normal; white-space: pre;">Cases</text></g><g class="g-y2title"><text class="y2title" transform="rotate(-90,400.403125,235)" x="400.403125" y="235" text-anchor="middle" style="font-family: 'Open Sans', verdana, arial, sans-serif; font-size: 14px; fill: rgb(242, 245, 250); opacity: 1; font-weight: normal; white-space: pre;">Deaths</text></g><g class="annotation" data-index="0" style="opacity: 1;"><g class="annotation-text-g" transform="rotate(0,232.55,89.5)"><g class="cursor-pointer" transform="translate(208, 79)"><rect class="bg" x="0.5" y="0.5" width="48" height="20" style="stroke-width: 1px; stroke: rgb(0, 0, 0); stroke-opacity: 0; fill: rgb(0, 0, 0); fill-opacity: 0;"/><text class="annotation-text" text-anchor="middle" x="24.6875" y="16" style="font-family: 'Open Sans', verdana, arial, sans-serif; font-size: 16px; fill: rgb(242, 245, 250); fill-opacity: 1; white-space: pre;">Cases</text></g></g></g><g class="annotation" data-index="1" style="opacity: 1;"><g class="annotation-text-g" transform="rotate(0,605.45,89.5)"><g class="cursor-pointer" transform="translate(578, 79)"><rect class="bg" x="0.5" y="0.5" width="54" height="20" style="stroke-width: 1px; stroke: rgb(0, 0, 0); stroke-opacity: 0; fill: rgb(0, 0, 0); fill-opacity: 0;"/><text class="annotation-text" text-anchor="middle" x="27.359375" y="16" style="font-family: 'Open Sans', verdana, arial, sans-serif; font-size: 16px; fill: rgb(242, 245, 250); fill-opacity: 1; white-space: pre;">Deaths</text></g></g></g></g></svg>