<svg class="main-svg" xmlns="http://www.w3.org/2000/svg" xmlns:xlink="http://www.w3.org/1999/xlink" width="900" height="450" style="" viewBox="0 0 900 450"><rect x="0" y="0" width="900" height="450" style="fill: rgb(17, 17, 17); fill-opacity: 1;"/><defs id="defs-aedfb7"><g class="clips"><clipPath id="clipaedfb7xyplot" class="plotclip"><rect width="305.1" height="270"/></clipPath><clipPath id="clipaedfb7x2y2plot" class="plotclip"><rect width="305.09999999999997" height="270"/></clipPath><clipPath class="axesclip" id="clipaedfb7x"><rect x="80" y="0" width="305.1" height="450"/></clipPath><clipPath class="axesclip" id="clipaedfb7y"><rect x="0" y="100" width="900" height="270"/></clipPath><clipPath class="axesclip" id="clipaedfb7xy"><rect x="80" y="100" width="305.1" height="270"/></clipPath><clipPath class="axesclip" id="clipaedfb7y2"><rect x="0" y="100" width="900" height="270"/></clipPath><clipPath class="axesclip" id="clipaedfb7xy2"><rect x="80" y="100" width="305.1" height="270"/></clipPath><clipPath class="axesclip" id="clipaedfb7x2"><rect x="452.90000000000003" y="0" width="305.09999999999997" height="450"/></clipPath><clipPath class="axesclip" id="clipaedfb7x2y"><rect x="452.90000000000003" y="100" width="305.09999999999997" height="270"/></clipPath><clipPath class="axesclip" id="clipaedfb7x2y2"><rect x="452.90000000000003" y="100" width="305.09999999999997" height="270"/></clipPath></g><g class="gradients"/></defs><g class="bglayer"/><g class="layer-below"><g class="imagelayer"/><g class="shapelayer"/></g><g class="cartesianlayer"><g class="subplot xy"><g class="layer-subplot"><g class="shapelayer"/><g class="imagelayer"/></g><g class="gridlayer"><g class="x"><path class="xgrid crisp" transform="translate(121.75,0)" d="M0,100v270" style="stroke: rgb(40, 52, 66); stroke-opacity: 1; stroke-width: 1px;"/><path class="xgrid crisp" transform="translate(187.05,0)" d="M0,100v270" style="stroke: rgb(40, 52, 66); stroke-opacity: 1; stroke-width: 1px;"/><path class="xgrid crisp" transform="translate(252.35,0)" d="M0,100v270" style="stroke: rgb(40, 52, 66); stroke-opacity: 1; stroke-width: 1px;"/><path class="xgrid crisp" transform="translate(318.73,0)" d="M0,100v270" style="stroke: rgb(40, 52, 66); stroke-opacity: 1; stroke-width: 1px;"/><path class="xgrid crisp" transform="translate(384.03,0)" d="M0,100v270" style="stroke: rgb(40, 52, 66); stroke-opacity: 1; stroke-width: 1px;"/></g><g class="y"><path class="ygrid crisp" transform="translate(0,306.07)" d="M80,0h305.1" style="stroke: rgb(40, 52, 66); stroke-opacity: 1; stroke-width: 1px;"/><path class="ygrid crisp" transform="translate(0,255.65)" d="M80,0h305.1" style="stroke: rgb(40, 52, 66); stroke-opacity: 1; stroke-width: 1px;"/><path class="ygrid crisp" transform="translate(0,205.22)" d="M80,0h305.1" style="stroke: rgb(40, 52, 66); stroke-opacity: 1; stroke-width: 1px;"/><path class="ygrid crisp" transform="translate(0,154.8)" d="M80,0h305.1" style="stroke: rgb(40, 52, 66); stroke-opacity: 1; stroke-width: 1px;"/><path class="ygrid crisp" transform="translate(0,104.37)" d="M80,0h305.1" style="stroke: rgb(40, 52, 66); stroke-opacity: 1; stroke-width: 1px;"/></g></g><g class="zerolinelayer"><path class="yzl zl crisp" transform="translate(0,356.5)" d="M80,0h305.1" style="stroke: rgb(40, 52, 66); stroke-opacity: 1; stroke-width: 2px;"/></g><path class="xlines-below"/><path class="ylines-below"/><g class="overlines-below"/><g class="xaxislayer-below"/><g class="yaxislayer-below"/><g class="overaxes-below"/><g class="plot" transform="translate(80, 100)" clip-path="url('#clipaedfb7xyplot')"><g class="scatterlayer mlayer"><g class="trace scatter trace92a4be" style="stroke-miterlimit: 2; opacity: 1;"><g class="fills"/><g class="errorbars"/><g class="lines"><path class="js-line" d="M0,256.5L63.16,255.84L64.23,255.43L72.8,253.65L73.87,253.34L87.78,247.58L88.85,247.58L93.14,245.27L94.21,244.76L97.42,243.59L98.49,242.89L103.84,241.04L104.91,240.69L114.55,236.72L115.62,236.1L125.25,231.72L126.32,231.07L129.53,229.19L130.6,228.59L141.31,221.05L142.38,220.72L147.73,216.71L148.8,216.31L150.94,214.96L152.01,213.98L157.37,210.78L158.44,209.73L161.65,208.04L162.72,206L168.07,199.94L169.14,199.32L170.21,198.39L171.28,196.35L174.5,191.23L175.57,190.38L176.64,187.37L177.71,187.04L178.78,187.04L179.85,183.43L183.06,178.59L184.13,178.59L187.34,171L188.41,169.5L191.62,163.34L192.69,163.15L193.77,161.87L194.84,159.25L198.05,152.32L199.12,151.92L200.19,151.23L201.26,149.27L202.33,147.85L203.4,144.24L204.47,144.24L205.54,140.68L206.61,140.28L207.68,137.03L208.75,136.4L209.82,134.11L213.03,134.11L214.11,123.39L215.18,123.2L216.25,118.7L218.39,113L219.46,109.68L220.53,109.68L221.6,103.98L222.67,103.91L223.74,100.82L226.95,90.41L228.02,88.15L230.16,87.75L231.23,82.28L232.3,81.17L233.37,78.79L234.45,76.51L235.52,76.51L243.01,63.56L244.08,63.56L245.15,61.35L246.22,61.35L248.36,57.72L249.43,56.62L250.5,56.44L251.57,54.89L255.86,53.16L256.93,51.13L260.14,48.33L261.21,47.25L268.7,41.46L269.77,40.85L278.34,35.25L279.41,35.21L281.55,33.13L282.62,33.13L284.76,31.35L285.83,30.9L287.97,30L289.04,28.21L297.61,20.6L298.68,20.6L300.82,18.13L301.89,16.73L305.1,13.5" style="vector-effect: non-scaling-stroke; fill: none; stroke: rgb(230, 25, 75); stroke-opacity: 1; stroke-width: 2px; opacity: 1;"/></g><g class="points"/><g class="text"/></g><g class="trace scatter trace3133c5" style="stroke-miterlimit: 2; opacity: 1;"><g class="fills"/><g class="errorbars"/><g class="lines"><path class="js-line" d="M0,256.5L90.99,255.78L92.07,255.72L111.33,254.85L112.41,254.79L159.51,253.7L160.58,253.3L190.55,252.36L191.62,252.33L204.47,251.03L205.54,250.84L239.8,247.07L240.87,246.9L252.64,245.54L253.71,245.33L259.07,244.36L260.14,244.28L265.49,243.08L266.56,242.83L269.77,242.3L270.84,241.63L277.27,240.52L278.34,239.44L294.39,231.92L295.47,231.03L300.82,227.96L301.89,226.72L304.03,224.3L305.1,223.97" style="vector-effect: non-scaling-stroke; fill: none; stroke: rgb(60, 180, 75); stroke-opacity: 1; stroke-width: 2px; opacity: 1;"/></g><g class="points"/><g class="text"/></g><g class="trace scatter trace4c84cb" style="stroke-miterlimit: 2; opacity: 1;"><g class="fills"/><g class="errorbars"/><g class="lines"><path class="js-line" d="M0,256.5L68.51,255.83L69.58,255.73L87.78,253.64L88.85,253.55L98.49,252.2L99.56,251.76L110.26,249.65L111.33,249.59L133.82,247.01L134.89,246.95L158.44,244.67L159.51,244.29L178.78,241.84L179.85,241.72L195.91,239.32L196.98,239.14L205.54,237.44L206.61,237.22L234.45,233.59L235.52,233.54L244.08,232.33L245.15,231.61L247.29,230.94L248.36,230.57L250.5,229.4L251.57,228.49L255.86,225.38L256.93,223.99L259.07,221.45L260.14,219.46L264.42,214.23L265.49,213.62L268.7,212.17L269.77,211.77L278.34,209.05L279.41,208.83L294.39,203.51L295.47,202.66L298.68,201.02L299.75,199.51L300.82,199.42L301.89,198.45L302.96,198.45L304.03,196.11L305.1,195.38" style="vector-effect: non-scaling-stroke; fill: none; stroke: rgb(255, 225, 25); stroke-opacity: 1; stroke-width: 2px; opacity: 1;"/></g><g class="points"/><g class="text"/></g><g class="trace scatter trace728546" style="stroke-miterlimit: 2; opacity: 1;"><g class="fills"/><g class="errorbars"/><g class="lines"><path class="js-line" d="M0,256.5L193.77,255.76L194.84,255.68L251.57,254.02L252.64,254.02L294.39,251.25L295.47,251.1L301.89,250.4L302.96,250.25L305.1,250.25" style="vector-effect: non-scaling-stroke; fill: none; stroke: rgb(67, 99, 216); stroke-opacity: 1; stroke-width: 2px; opacity: 1;"/></g><g class="points"/><g class="text"/></g><g class="trace scatter trace79fef7" style="stroke-miterlimit: 2; opacity: 1;"><g class="fills"/><g class="errorbars"/><g class="lines"><path class="js-line" d="M0,256.5L56.74,255.75L57.81,255.55L62.09,253.21L63.16,252.28L64.23,251.95L65.3,250.78L68.51,246.45L69.58,244.7L72.8,241.57L73.87,238L74.94,233.61L76.01,224.75L82.43,205.37L83.5,203.63L85.64,200.68L86.71,200.02L94.21,195.99L95.28,194.5L103.84,192.16L104.91,191.75L115.62,189.19L116.69,189.11L125.25,187.7L126.32,187.23L135.96,185.23L137.03,184.82L142.38,184.15L143.45,183.97L153.09,182.13L154.16,181.94L164.86,179.75L165.93,179.47L173.43,176.22L174.5,175.51L175.57,175.51L176.64,174.74L179.85,172.92L180.92,172.35L184.13,169.11L185.2,168.31L192.69,161.91L193.77,161.19L196.98,158.15L198.05,158.15L201.26,154.93L202.33,154.44L204.47,153.08L205.54,153.08L207.68,151.35L208.75,150.74L225.88,144.52L226.95,144.21L229.09,143.64L230.16,143.41L235.52,142.28L236.59,140.58L238.73,139.79L239.8,138.64L254.79,132.86L255.86,132.78L262.28,131.08L263.35,130.3L268.7,129.44L269.77,128.7L271.91,128.04L272.98,127.7L276.2,127.04L277.27,126.74L281.55,125.79L282.62,125.79L286.9,123.88L287.97,123.88L291.18,122.66L292.25,122.48L301.89,119.99L302.96,119.99L305.1,119.45" style="vector-effect: non-scaling-stroke; fill: none; stroke: rgb(245, 130, 49); stroke-opacity: 1; stroke-width: 2px; opacity: 1;"/></g><g class="points"/><g class="text"/></g><g class="trace scatter trace650fcf" style="stroke-miterlimit: 2; opacity: 1;"><g class="fills"/><g class="errorbars"/><g class="lines"><path class="js-line" d="M0,256.5L247.29,255.75L248.36,255.69L300.82,254.35L301.89,254.15L305.1,254.05" style="vector-effect: non-scaling-stroke; fill: none; stroke: rgb(145, 30, 180); stroke-opacity: 1; stroke-width: 2px; opacity: 1;"/></g><g class="points"/><g class="text"/></g></g></g><g class="overplot"/><path class="xlines-above crisp" d="M0,0" style="fill: none;"/><path class="ylines-above crisp" d="M0,0" style="fill: none;"/><g class="overlines-above"/><g class="xaxislayer-above"><g class="xtick"><text text-anchor="middle" x="0" y="383" transform="translate(121.75,0)" style="font-family: 'Open Sans', verdana, arial, sans-serif; font-size: 12px; fill: rgb(242, 245, 250); fill-opacity: 1; white-space: pre;">Mar 2020</text></g><g class="xtick"><text text-anchor="middle" x="0" y="383" transform="translate(187.05,0)" style="font-family: 'Open Sans', verdana, arial, sans-serif; font-size: 12px; fill: rgb(242, 245, 250); fill-opacity: 1; white-space: pre;">May 2020</text></g><g class="xtick"><text text-anchor="middle" x="0" y="383" transform="translate(252.35,0)" style="font-family: 'Open Sans', verdana, arial, sans-serif; font-size: 12px; fill: rgb(242, 245, 250); fill-opacity: 1; white-space: pre;">Jul 2020</text></g><g class="xtick"><text text-anchor="middle" x="0" y="383" transform="translate(318.73,0)" style="font-family: 'Open Sans', verdana, arial, sans-serif; font-size: 12px; fill: rgb(242, 245, 250); fill-opacity: 1; white-space: pre;">Sep 2020</text></g><g class="xtick"><text text-anchor="middle" x="0" y="383" transform="translate(384.03,0)" style="font-family: 'Open Sans', verdana, arial, sans-serif; font-size: 12px; fill: rgb(242, 245, 250); fill-opacity: 1; white-space: pre;">Nov 2020</text></g></g><g class="yaxislayer-above"><g class="ytick"><text text-anchor="end" x="79" y="4.199999999999999" transform="translate(0,356.5)" style="font-family: 'Open Sans', verdana, arial, sans-serif; font-size: 12px; fill: rgb(242, 245, 250); fill-opacity: 1; white-space: pre;">0</text></g><g class="ytick"><text text-anchor="end" x="79" y="4.199999999999999" transform="translate(0,306.07)" style="font-family: 'Open Sans', verdana, arial, sans-serif; font-size: 12px; fill: rgb(242, 245, 250); fill-opacity: 1; white-space: pre;">5k</text></g><g class="ytick"><text text-anchor="end" x="79" y="4.199999999999999" transform="translate(0,255.65)" style="font-family: 'Open Sans', verdana, arial, sans-serif; font-size: 12px; fill: rgb(242, 245, 250); fill-opacity: 1; white-space: pre;">10k</text></g><g class="ytick"><text text-anchor="end" x="79" y="4.199999999999999" transform="translate(0,205.22)" style="font-family: 'Open Sans', verdana, arial, sans-serif; font-size: 12px; fill: rgb(242, 245, 250); fill-opacity: 1; white-space: pre;">15k</text></g><g class="ytick"><text text-anchor="end" x="79" y="4.199999999999999" transform="translate(0,154.8)" style="font-family: 'Open Sans', verdana, arial, sans-serif; font-size: 12px; fill: rgb(242, 245, 250); fill-opacity: 1; white-space: pre;">20k</text></g><g class="ytick"><text text-anchor="end" x="79" y="4.199999999999999" transform="translate(0,104.37)" style="font-family: 'Open Sans', verdana, arial, sans-serif; font-size: 12px; fill: rgb(242, 245, 250); fill-opacity: 1; white-space: pre;">25k</text></g></g><g class="overaxes-above"/></g><g class="subplot x2y2"><g class="layer-subplot"><g class="shapelayer"/><g class="imagelayer"/></g><g class="gridlayer"><g class="x2"><path class="x2grid crisp" transform="translate(494.65000000000003,0)" d="M0,100v270" style="stroke: rgb(40, 52, 66); stroke-opacity: 1; stroke-width: 1px;"/><path class="x2grid crisp" transform="translate(559.95,0)" d="M0,100v270" style="stroke: rgb(40, 52, 66); stroke-opacity: 1; stroke-width: 1px;"/><path class="x2grid crisp" transform="translate(625.25,0)" d="M0,100v270" style="stroke: rgb(40, 52, 66); stroke-opacity: 1; stroke-width: 1px;"/><path class="x2grid crisp" transform="translate(691.63,0)" d="M0,100v270" style="stroke: rgb(40, 52, 66); stroke-opacity: 1; stroke-width: 1px;"/><path class="x2grid crisp" transform="translate(756.9300000000001,0)" d="M0,100v270" style="stroke: rgb(40, 52, 66); stroke-opacity: 1; stroke-width: 1px;"/></g><g class="y2"><path class="y2grid crisp" transform="translate(0,315.65999999999997)" d="M452.90000000000003,0h305.09999999999997" style="stroke: rgb(40, 52, 66); stroke-opacity: 1; stroke-width: 1px;"/><path class="y2grid crisp" transform="translate(0,274.82)" d="M452.90000000000003,0h305.09999999999997" style="stroke: rgb(40, 52, 66); stroke-opacity: 1; stroke-width: 1px;"/><path class="y2grid crisp" transform="translate(0,233.98)" d="M452.90000000000003,0h305.09999999999997" style="stroke: rgb(40, 52, 66); stroke-opacity: 1; stroke-width: 1px;"/><path class="y2grid crisp" transform="translate(0,193.14)" d="M452.90000000000003,0h305.09999999999997" style="stroke: rgb(40, 52, 66); stroke-opacity: 1; stroke-width: 1px;"/><path class="y2grid crisp" transform="translate(0,152.3)" d="M452.90000000000003,0h305.09999999999997" style="stroke: rgb(40, 52, 66); stroke-opacity: 1; stroke-width: 1px;"/><path class="y2grid crisp" transform="translate(0,111.46000000000001)" d="M452.90000000000003,0h305.09999999999997" style="stroke: rgb(40, 52, 66); stroke-opacity: 1; stroke-width: 1px;"/></g></g><g class="zerolinelayer"><path class="y2zl zl crisp" transform="translate(0,356.5)" d="M452.90000000000003,0h305.09999999999997" style="stroke: rgb(40, 52, 66); stroke-opacity: 1; stroke-width: 2px;"/></g><path class="xlines-below"/><path class="ylines-below"/><g class="overlines-below"/><g class="xaxislayer-below"/><g class="yaxislayer-below"/><g class="overaxes-below"/><g class="plot" transform="translate(452.90000000000003, 100)" clip-path="url('#clipaedfb7x2y2plot')"><g class="scatterlayer mlayer"><g class="trace scatter trace31c8f3" style="stroke-miterlimit: 2; opacity: 1;"><g class="fills"/><g class="errorbars"/><g class="lines"><path class="js-line" d="M0,256.5L65.3,256.09L66.37,255.68L67.44,255.68L68.51,254.87L69.58,254.87L70.65,254.05L72.8,253.64L73.87,253.64L76.01,252.82L77.08,251.6L80.29,251.19L81.36,250.37L83.5,249.56L84.57,248.33L87.78,247.11L88.85,247.11L89.92,241.8L90.99,240.57L92.07,240.57L93.14,239.76L98.49,237.71L99.56,236.9L100.63,235.26L101.7,235.26L102.77,235.26L103.84,234.04L108.12,230.77L109.19,230.77L110.26,230.77L111.33,229.55L113.48,229.14L114.55,227.91L116.69,227.5L117.76,227.5L122.04,223.01L123.11,222.6L125.25,222.6L126.32,221.38L130.6,218.93L131.67,218.52L135.96,218.11L137.03,217.7L140.24,217.29L141.31,216.88L143.45,216.88L144.52,215.25L148.8,214.84L149.87,213.62L152.01,211.98L153.09,211.98L154.16,210.76L155.23,210.76L156.3,210.76L157.37,209.13L160.58,208.31L161.65,208.31L164.86,206.67L165.93,204.22L169.14,202.18L170.21,202.18L174.5,199.32L175.57,199.32L178.78,199.32L179.85,198.51L181.99,196.46L183.06,196.06L185.2,196.06L186.27,194.42L188.41,193.61L189.48,190.75L191.62,190.34L192.69,190.34L196.98,183.8L198.05,183.8L200.19,183.8L201.26,182.58L204.47,182.17L205.54,179.31L207.68,179.31L208.75,178.09L210.89,177.68L211.96,177.68L213.03,177.68L214.11,172.78L216.25,172.78L217.32,169.92L219.46,167.06L220.53,167.06L223.74,165.02L224.81,163.38L226.95,161.34L228.02,161.34L230.16,160.93L231.23,158.48L234.45,155.62L235.52,155.62L236.59,151.54L237.66,151.54L238.73,151.54L239.8,144.6L240.87,136.02L241.94,135.61L243.01,134.39L244.08,134.39L246.22,133.98L247.29,132.75L248.36,132.75L249.43,125.81L250.5,125.81L251.57,120.91L252.64,120.5L253.71,111.11L254.79,111.11L255.86,107.43L258,103.76L259.07,103.76L260.14,103.76L261.21,97.22L264.42,91.51L265.49,90.69L267.63,90.69L268.7,89.87L269.77,88.24L270.84,84.97L271.91,84.97L272.98,82.93L275.13,82.93L276.2,82.11L277.27,80.48L278.34,80.48L291.18,80.07L292.25,78.84L293.32,70.27L294.39,70.27L296.54,68.23L297.61,68.23L300.82,67.41L301.89,67.41L304.03,67L305.1,67" style="vector-effect: non-scaling-stroke; fill: none; stroke: rgb(230, 25, 75); stroke-opacity: 1; stroke-width: 2px; opacity: 1;"/></g><g class="points"/><g class="text"/></g><g class="trace scatter tracee1efc0" style="stroke-miterlimit: 2; opacity: 1;"><g class="fills"/><g class="errorbars"/><g class="lines"><path class="js-line" d="M0,256.5L201.26,256.09L202.33,255.68L277.27,255.27L278.34,254.05L281.55,252.42L282.62,252.42L286.9,252.01L287.97,250.78L290.11,250.78L291.18,249.97L294.39,249.56L295.47,249.15L299.75,249.15L300.82,248.33L305.1,247.92" style="vector-effect: non-scaling-stroke; fill: none; stroke: rgb(60, 180, 75); stroke-opacity: 1; stroke-width: 2px; opacity: 1;"/></g><g class="points"/><g class="text"/></g><g class="trace scatter trace0c5f75" style="stroke-miterlimit: 2; opacity: 1;"><g class="fills"/><g class="errorbars"/><g class="lines"><path class="js-line" d="M0,256.5L72.8,256.09L73.87,255.68L82.43,255.27L83.5,253.64L85.64,253.23L86.71,252.01L87.78,252.01L88.85,250.78L90.99,250.37L92.07,250.37L94.21,249.56L95.28,249.56L97.42,248.33L98.49,246.29L100.63,244.66L101.7,244.25L102.77,243.02L103.84,243.02L104.91,240.57L105.98,240.16L107.05,240.16L108.12,239.35L111.33,237.71L112.41,237.71L114.55,236.08L115.62,236.08L117.76,234.04L118.83,233.63L124.18,232L125.25,232L132.75,231.59L133.82,230.77L138.1,230.36L139.17,229.95L143.45,229.14L144.52,229.14L152.01,228.73L153.09,228.32L155.23,227.91L156.3,227.91L170.21,227.5L171.28,227.09L185.2,226.69L186.27,226.28L215.18,226.28L216.25,225.46L223.74,225.05L224.81,224.64L272.98,224.24L274.05,223.42L285.83,223.01L286.9,222.19L300.82,221.79L301.89,221.38L302.96,221.38L304.03,220.56L305.1,220.56" style="vector-effect: non-scaling-stroke; fill: none; stroke: rgb(255, 225, 25); stroke-opacity: 1; stroke-width: 2px; opacity: 1;"/></g><g class="points"/><g class="text"/></g><g class="trace scatter trace9e71d6" style="stroke-miterlimit: 2; opacity: 1;"><g class="fills"/><g class="errorbars"/><g class="lines"><path class="js-line" d="M0,256.5L199.12,256.09L200.19,255.27L213.03,254.87L214.11,254.46L293.32,254.05L294.39,253.64L299.75,253.23L300.82,252.42L305.1,252.01" style="vector-effect: non-scaling-stroke; fill: none; stroke: rgb(67, 99, 216); stroke-opacity: 1; stroke-width: 2px; opacity: 1;"/></g><g class="points"/><g class="text"/></g><g class="trace scatter traceffa70c" style="stroke-miterlimit: 2; opacity: 1;"><g class="fills"/><g class="errorbars"/><g class="lines"><path class="js-line" d="M0,256.5L55.67,256.09L56.74,255.68L59.95,254.05L61.02,253.23L62.09,252.42L63.16,250.37L64.23,250.37L65.3,248.33L66.37,245.88L67.44,241.39L72.8,221.38L73.87,215.25L78.15,194.01L79.22,190.75L81.36,180.95L82.43,171.55L83.5,165.02L84.57,164.61L86.71,160.53L87.78,160.53L88.85,143.78L89.92,139.29L93.14,124.18L94.21,122.14L96.35,116.01L97.42,106.62L98.49,98.45L99.56,96.41L101.7,90.69L102.77,90.69L104.91,86.6L105.98,79.25L109.19,76.39L110.26,73.94L112.41,67.41L113.48,67.41L114.55,67.41L115.62,65.37L116.69,65.37L117.76,64.55L119.9,60.06L120.97,59.65L123.11,54.75L124.18,54.75L126.32,54.75L127.39,52.3L131.67,52.3L132.75,51.48L135.96,49.85L137.03,49.44L141.31,49.44L142.38,48.62L144.52,47.81L145.59,47.4L149.87,46.99L150.94,46.17L155.23,44.54L156.3,43.31L158.44,42.91L159.51,41.68L160.58,40.45L161.65,40.45L168.07,40.05L169.14,39.64L172.35,38.41L173.43,38.41L177.71,38.41L178.78,37.6L179.85,37.6L180.92,36.37L181.99,35.55L183.06,35.96L185.2,35.96L186.27,35.15L189.48,34.33L190.55,34.33L193.77,33.51L194.84,33.51L195.91,33.51L196.98,32.69L198.05,32.69L199.12,31.06L201.26,31.06L202.33,28.2L204.47,27.79L205.54,27.79L210.89,27.39L211.96,26.98L216.25,26.98L217.32,26.16L222.67,24.53L223.74,24.53L228.02,24.12L229.09,23.71L230.16,23.71L231.23,22.89L236.59,20.85L237.66,20.85L243.01,20.44L244.08,20.03L247.29,18.4L248.36,17.99L258,17.58L259.07,16.77L284.76,16.36L285.83,15.95L291.18,15.95L292.25,14.73L299.75,14.32L300.82,13.91L302.96,13.5L304.03,13.5L305.1,13.5" style="vector-effect: non-scaling-stroke; fill: none; stroke: rgb(245, 130, 49); stroke-opacity: 1; stroke-width: 2px; opacity: 1;"/></g><g class="points"/><g class="text"/></g><g class="trace scatter traced961ea" style="stroke-miterlimit: 2; opacity: 1;"><g class="fills"/><g class="errorbars"/><g class="lines"><path class="js-line" d="M0,256.5L299.75,256.09L300.82,255.68L302.96,255.27L304.03,255.27L305.1,254.87" style="vector-effect: non-scaling-stroke; fill: none; stroke: rgb(145, 30, 180); stroke-opacity: 1; stroke-width: 2px; opacity: 1;"/></g><g class="points"/><g class="text"/></g></g></g><g class="overplot"/><path class="xlines-above crisp" d="M0,0" style="fill: none;"/><path class="ylines-above crisp" d="M0,0" style="fill: none;"/><g class="overlines-above"/><g class="xaxislayer-above"><g class="x2tick"><text text-anchor="middle" x="0" y="383" transform="translate(494.65000000000003,0)" style="font-family: 'Open Sans', verdana, arial, sans-serif; font-size: 12px; fill: rgb(242, 245, 250); fill-opacity: 1; white-space: pre;">Mar 2020</text></g><g class="x2tick"><text text-anchor="middle" x="0" y="383" transform="translate(559.95,0)" style="font-family: 'Open Sans', verdana, arial, sans-serif; font-size: 12px; fill: rgb(242, 245, 250); fill-opacity: 1; white-space: pre;">May 2020</text></g><g class="x2tick"><text text-anchor="middle" x="0" y="383" transform="translate(625.25,0)" style="font-family: 'Open Sans', verdana, arial, sans-serif; font-size: 12px; fill: rgb(242, 245, 250); fill-opacity: 1; white-space: pre;">Jul 2020</text></g><g class="x2tick"><text text-anchor="middle" x="0" y="383" transform="translate(691.63,0)" style="font-family: 'Open Sans', verdana, arial, sans-serif; font-size: 12px; fill: rgb(242, 245, 250); fill-opacity: 1; white-space: pre;">Sep 2020</text></g><g class="x2tick"><text text-anchor="middle" x="0" y="383" transform="translate(756.9300000000001,0)" style="font-family: 'Open Sans', verdana, arial, sans-serif; font-size: 12px; fill: rgb(242, 245, 250); fill-opacity: 1; white-space: pre;">Nov 2020</text></g></g><g class="yaxislayer-above"><g class="y2tick"><text text-anchor="end" x="451.90000000000003" y="4.199999999999999" transform="translate(0,356.5)" style="font-family: 'Open Sans', verdana, arial, sans-serif; font-size: 12px; fill: rgb(242, 245, 250); fill-opacity: 1; white-space: pre;">0</text></g><g class="y2tick"><text text-anchor="end" x="451.90000000000003" y="4.199999999999999" transform="translate(0,315.65999999999997)" style="font-family: 'Open Sans', verdana, arial, sans-serif; font-size: 12px; fill: rgb(242, 245, 250); fill-opacity: 1; white-space: pre;">100</text></g><g class="y2tick"><text text-anchor="end" x="451.90000000000003" y="4.199999999999999" transform="translate(0,274.82)" style="font-family: 'Open Sans', verdana, arial, sans-serif; font-size: 12px; fill: rgb(242, 245, 250); fill-opacity: 1; white-space: pre;">200</text></g><g class="y2tick"><text text-anchor="end" x="451.90000000000003" y="4.199999999999999" transform="translate(0,233.98)" style="font-family: 'Open Sans', verdana, arial, sans-serif; font-size: 12px; fill: rgb(242, 245, 250); fill-opacity: 1; white-space: pre;">300</text></g><g class="y2tick"><text text-anchor="end" x="451.90000000000003" y="4.199999999999999" transform="translate(0,193.14)" style="font-family: 'Open Sans', verdana, arial, sans-serif; font-size: 12px; fill: rgb(242, 245, 250); fill-opacity: 1; white-space: pre;">400</text></g><g class="y2tick"><text text-anchor="end" x="451.90000000000003" y="4.199999999999999" transform="translate(0,152.3)" style="font-family: 'Open Sans', verdana, arial, sans-serif; font-size: 12px; fill: rgb(242, 245, 250); fill-opacity: 1; white-space: pre;">500</text></g><g class="y2tick"><text text-anchor="end" x="451.90000000000003" y="4.199999999999999" transform="translate(0,111.46000000000001)" style="font-family: 'Open Sans', verdana, arial, sans-serif; font-size: 12px; fill: rgb(242, 245, 250); fill-opacity: 1; white-space: pre;">600</text></g></g><g class="overaxes-above"/></g></g><g class="polarlayer"/><g class="ternarylayer"/><g class="geolayer"/><g class="funnelarealayer"/><g class="pielayer"/><g class="treemaplayer"/><g class="sunburstlayer"/><g class="glimages"/><defs id="topdefs-aedfb7"><g class="clips"/><clipPath id="legendaedfb7"><rect width="116" height="124" x="0" y="0"/></clipPath></defs><g class="layer-above"><g class="imagelayer"/><g class="shapelayer"/></g><g class="infolayer"><g class="legend" pointer-events="all" transform="translate(771.5600000000001, 100)"><rect class="bg" shape-rendering="crispEdges" width="116" height="124" x="0" y="0" style="stroke: rgb(68, 68, 68); stroke-opacity: 1; fill: rgb(17, 17, 17); fill-opacity: 1; stroke-width: 0px;"/><g class="scrollbox" transform="translate(0, 0)" clip-path="url('#legendaedfb7')"><g class="groups"><g class="traces" transform="translate(0, 14.5)" style="opacity: 1;"><text class="legendtext user-select-none" text-anchor="start" x="40" y="4.680000000000001" style="font-family: 'Open Sans', verdana, arial, sans-serif; font-size: 12px; fill: rgb(242, 245, 250); fill-opacity: 1; white-space: pre;">Alameda, CA</text><g class="layers" style="opacity: 1;"><g class="legendfill"/><g class="legendlines"><path class="js-line" d="M5,0h30" style="fill: none; stroke: rgb(230, 25, 75); stroke-opacity: 1; stroke-width: 2px;"/></g><g class="legendsymbols"><g class="legendpoints"/></g></g><rect class="legendtoggle" pointer-events="all" x="0" y="-9.5" width="110.703125" height="19" style="cursor: pointer; fill: rgb(0, 0, 0); fill-opacity: 0;"/></g><g class="traces" transform="translate(0, 33.5)" style="opacity: 1;"><text class="legendtext user-select-none" text-anchor="start" x="40" y="4.680000000000001" style="font-family: 'Open Sans', verdana, arial, sans-serif; font-size: 12px; fill: rgb(242, 245, 250); fill-opacity: 1; white-space: pre;">Lincoln, SD</text><g class="layers" style="opacity: 1;"><g class="legendfill"/><g class="legendlines"><path class="js-line" d="M5,0h30" style="fill: none; stroke: rgb(60, 180, 75); stroke-opacity: 1; stroke-width: 2px;"/></g><g class="legendsymbols"><g class="legendpoints"/></g></g><rect class="legendtoggle" pointer-events="all" x="0" y="-9.5" width="110.703125" height="19" style="cursor: pointer; fill: rgb(0, 0, 0); fill-opacity: 0;"/></g><g class="traces" transform="translate(0, 52.5)" style="opacity: 1;"><text class="legendtext user-select-none" text-anchor="start" x="40" y="4.680000000000001" style="font-family: 'Open Sans', verdana, arial, sans-serif; font-size: 12px; fill: rgb(242, 245, 250); fill-opacity: 1; white-space: pre;">Boulder, CO</text><g class="layers" style="opacity: 1;"><g class="legendfill"/><g class="legendlines"><path class="js-line" d="M5,0h30" style="fill: none; stroke: rgb(255, 225, 25); stroke-opacity: 1; stroke-width: 2px;"/></g><g class="legendsymbols"><g class="legendpoints"/></g></g><rect class="legendtoggle" pointer-events="all" x="0" y="-9.5" width="110.703125" height="19" style="cursor: pointer; fill: rgb(0, 0, 0); fill-opacity: 0;"/></g><g class="traces" transform="translate(0, 71.5)" style="opacity: 1;"><text class="legendtext user-select-none" text-anchor="start" x="40" y="4.680000000000001" style="font-family: 'Open Sans', verdana, arial, sans-serif; font-size: 12px; fill: rgb(242, 245, 250); fill-opacity: 1; white-space: pre;">Young, TX</text><g class="layers" style="opacity: 1;"><g class="legendfill"/><g class="legendlines"><path class="js-line" d="M5,0h30" style="fill: none; stroke: rgb(67, 99, 216); stroke-opacity: 1; stroke-width: 2px;"/></g><g class="legendsymbols"><g class="legendpoints"/></g></g><rect class="legendtoggle" pointer-events="all" x="0" y="-9.5" width="110.703125" height="19" style="cursor: pointer; fill: rgb(0, 0, 0); fill-opacity: 0;"/></g><g class="traces" transform="translate(0, 90.5)" style="opacity: 1;"><text class="legendtext user-select-none" text-anchor="start" x="40" y="4.680000000000001" style="font-family: 'Open Sans', verdana, arial, sans-serif; font-size: 12px; fill: rgb(242, 245, 250); fill-opacity: 1; white-space: pre;">Orleans, LA</text><g class="layers" style="opacity: 1;"><g class="legendfill"/><g class="legendlines"><path class="js-line" d="M5,0h30" style="fill: none; stroke: rgb(245, 130, 49); stroke-opacity: 1; stroke-width: 2px;"/></g><g class="legendsymbols"><g class="legendpoints"/></g></g><rect class="legendtoggle" pointer-events="all" x="0" y="-9.5" width="110.703125" height="19" style="cursor: pointer; fill: rgb(0, 0, 0); fill-opacity: 0;"/></g><g class="traces" transform="translate(0, 109.5)" style="opacity: 1;"><text class="legendtext user-select-none" text-anchor="start" x="40" y="4.680000000000001" style="font-family: 'Open Sans', verdana, arial, sans-serif; font-size: 12px; fill: rgb(242, 245, 250); fill-opacity: 1; white-space: pre;">Lincoln, ID</text><g class="layers" style="opacity: 1;"><g class="legendfill"/><g class="legendlines"><path class="js-line" d="M5,0h30" style="fill: none; stroke: rgb(145, 30, 180); stroke-opacity: 1; stroke-width: 2px;"/></g><g class="legendsymbols"><g class="legendpoints"/></g></g><rect class="legendtoggle" pointer-events="all" x="0" y="-9.5" width="110.703125" height="19" style="cursor: pointer; fill: rgb(0, 0, 0); fill-opacity: 0;"/></g></g></g><rect class="scrollbar" rx="20" ry="3" width="0" height="0" x="0" y="0" style="fill: rgb(128, 139, 164); fill-opacity: 1;"/></g><g class="g-gtitle"/><g class="g-xtitle"><text class="xtitle" x="232.55" y="410.8" text-anchor="middle" style="font-family: 'Open Sans', verdana, arial, sans-serif; font-size: 14px; fill: rgb(242, 245, 250); opacity: 1; font-weight: normal; white-space: pre;">Date</text></g><g class="g-x2title"><text class="x2title" x="605.45" y="410.8" text-anchor="middle" style="font-family: 'Open Sans', verdana, arial, sans-serif; font-size: 14px; fill: rgb(242, 245, 250); opacity: 1; font-weight: normal; white-space: pre;">Date</text></g><g class="g-ytitle"><text class="ytitle" transform="rotate(-90,34.840625,235)" x="34.840625" y="235" text-anchor="middle" style="font-family: 'Open Sans', verdana, arial, sans-serif; font-size: 14px; fill: rgb(242, 245, 250); opacity: 1; font-weight: normal; white-space: pre;">Cases</text></g><g class="g-y2title"><text class="y2title" transform="rotate(-90,407.075,235)" x="407.075" y="235" text-anchor="middle" style="font-family: 'Open Sans', verdana, arial, sans-serif; font-size: 14px; fill: rgb(242, 245, 250); opacity: 1; font-weight: normal; white-space: pre;">Deaths</text></g><g class="annotation" data-index="0" style="opacity: 1;"><g class="annotation-text-g" transform="rotate(0,232.55,89.5)"><g class="cursor-pointer" transform="translate(208, 79)"><rect class="bg" x="0.5" y="0.5" width="48" height="20" style="stroke-width: 1px; stroke: rgb(0, 0, 0); stroke-opacity: 0; fill: rgb(0, 0, 0); fill-opacity: 0;"/><text class="annotation-text" text-anchor="middle" x="24.6875" y="16" style="font-family: 'Open Sans', verdana, arial, sans-serif; font-size: 16px; fill: rgb(242, 245, 250); fill-opacity: 1; white-space: pre;">Cases</text></g></g></g><g class="annotation" data-index="1" style="opacity: 1;"><g class="annotation-text-g" transform="rotate(0,605.45,89.5)"><g class="cursor-pointer" transform="translate(578, 79)"><rect class="bg" x="0.5" y="0.5" width="54" height="20" style="stroke-width: 1px; stroke: rgb(0, 0, 0); stroke-opacity: 0; fill: rgb(0, 0, 0); fill-opacity: 0;"/><text class="annotation-text" text-anchor="middle" x="27.359375" y="16" style="font-family: 'Open Sans', verdana, arial, sans-serif; font-size: 16px; fill: rgb(242, 245, 250); fill-opacity: 1; white-space: pre;">Deaths</text></g></g></g></g></svg>