<svg class="main-svg" xmlns="http://www.w3.org/2000/svg" xmlns:xlink="http://www.w3.org/1999/xlink" width="900" height="450" style="" viewBox="0 0 900 450"><rect x="0" y="0" width="900" height="450" style="fill: rgb(17, 17, 17); fill-opacity: 1;"/><defs id="defs-6645e1"><g class="clips"><clipPath id="clip6645e1xyplot" class="plotclip"><rect width="305.1" height="270"/></clipPath><clipPath id="clip6645e1x2y2plot" class="plotclip"><rect width="305.09999999999997" height="270"/></clipPath><clipPath class="axesclip" id="clip6645e1x"><rect x="80" y="0" width="305.1" height="450"/></clipPath><clipPath class="axesclip" id="clip6645e1y"><rect x="0" y="100" width="900" height="270"/></clipPath><clipPath class="axesclip" id="clip6645e1xy"><rect x="80" y="100" width="305.1" height="270"/></clipPath><clipPath class="axesclip" id="clip6645e1y2"><rect x="0" y="100" width="900" height="270"/></clipPath><clipPath class="axesclip" id="clip6645e1xy2"><rect x="80" y="100" width="305.1" height="270"/></clipPath><clipPath class="axesclip" id="clip6645e1x2"><rect x="452.90000000000003" y="0" width="305.09999999999997" height="450"/></clipPath><clipPath class="axesclip" id="clip6645e1x2y"><rect x="452.90000000000003" y="100" width="305.09999999999997" height="270"/></clipPath><clipPath class="axesclip" id="clip6645e1x2y2"><rect x="452.90000000000003" y="100" width="305.09999999999997" height="270"/></clipPath></g><g class="gradients"/></defs><g class="bglayer"/><g class="layer-below"><g class="imagelayer"/><g class="shapelayer"/></g><g class="cartesianlayer"><g class="subplot xy"><g class="layer-subplot"><g class="shapelayer"/><g class="imagelayer"/></g><g class="gridlayer"><g class="x"><path class="xgrid crisp" transform="translate(123.27000000000001,0)" d="M0,100v270" style="stroke: rgb(40, 52, 66); stroke-opacity: 1; stroke-width: 1px;"/><path class="xgrid crisp" transform="translate(190.95,0)" d="M0,100v270" style="stroke: rgb(40, 52, 66); stroke-opacity: 1; stroke-width: 1px;"/><path class="xgrid crisp" transform="translate(258.62,0)" d="M0,100v270" style="stroke: rgb(40, 52, 66); stroke-opacity: 1; stroke-width: 1px;"/><path class="xgrid crisp" transform="translate(327.40999999999997,0)" d="M0,100v270" style="stroke: rgb(40, 52, 66); stroke-opacity: 1; stroke-width: 1px;"/></g><g class="y"><path class="ygrid crisp" transform="translate(0,294.71000000000004)" d="M80,0h305.1" style="stroke: rgb(40, 52, 66); stroke-opacity: 1; stroke-width: 1px;"/><path class="ygrid crisp" transform="translate(0,232.91)" d="M80,0h305.1" style="stroke: rgb(40, 52, 66); stroke-opacity: 1; stroke-width: 1px;"/><path class="ygrid crisp" transform="translate(0,171.12)" d="M80,0h305.1" style="stroke: rgb(40, 52, 66); stroke-opacity: 1; stroke-width: 1px;"/><path class="ygrid crisp" transform="translate(0,109.32)" d="M80,0h305.1" style="stroke: rgb(40, 52, 66); stroke-opacity: 1; stroke-width: 1px;"/></g></g><g class="zerolinelayer"><path class="yzl zl crisp" transform="translate(0,356.5)" d="M80,0h305.1" style="stroke: rgb(40, 52, 66); stroke-opacity: 1; stroke-width: 2px;"/></g><path class="xlines-below"/><path class="ylines-below"/><g class="overlines-below"/><g class="xaxislayer-below"/><g class="yaxislayer-below"/><g class="overaxes-below"/><g class="plot" transform="translate(80, 100)" clip-path="url('#clip6645e1xyplot')"><g class="scatterlayer mlayer"><g class="trace scatter traceeb86e2" style="stroke-miterlimit: 2; opacity: 1;"><g class="fills"/><g class="errorbars"/><g class="lines"><path class="js-line" d="M0,256.5L67.68,255.75L68.79,255.73L76.55,254.57L77.66,254.28L96.52,249.62L97.63,249.31L107.62,247.03L108.73,246.81L124.26,243.04L125.37,242.7L144.23,235.55L145.34,235.06L150.89,232.99L152,232.56L167.53,226.81L168.64,225.56L175.29,221.46L176.4,220.89L180.84,216.51L181.95,215.99L183.06,214.14L184.17,213.94L185.28,213.94L186.39,211.73L189.72,208.76L190.83,208.76L195.26,203.19L196.37,201.76L198.59,199.42L199.7,199.3L201.92,196.91L203.03,195.52L205.25,192.67L206.36,192.42L208.58,190.79L209.69,189.93L210.8,187.72L211.91,187.72L213.02,185.54L214.12,185.29L215.23,183.3L216.34,182.91L217.45,181.51L218.56,181.51L220.78,181.51L221.89,174.94L223,174.82L224.11,172.06L226.33,168.57L227.44,166.54L228.55,166.54L229.66,163.05L230.77,163.01L231.88,161.11L235.2,154.73L236.31,153.35L238.53,153.1L239.64,149.75L241.86,147.61L242.97,146.22L244.08,146.22L245.19,145.02L247.41,142.52L248.52,140.98L251.85,138.28L252.96,138.28L254.07,136.93L255.17,136.93L257.39,134.7L258.5,134.03L259.61,133.92L260.72,132.97L265.16,131.91L266.27,130.66L270.71,128.29L271.82,127.73L276.25,125.56L277.36,125.25L286.24,121.73L287.35,121.51L291.79,119.63L292.9,119.63L295.11,118.54L296.22,118.27L298.44,117.72L299.55,116.62L305.1,113.55" style="vector-effect: non-scaling-stroke; fill: none; stroke: rgb(230, 25, 75); stroke-opacity: 1; stroke-width: 2px; opacity: 1;"/></g><g class="points"/><g class="text"/></g><g class="trace scatter trace4cb7ea" style="stroke-miterlimit: 2; opacity: 1;"><g class="fills"/><g class="errorbars"/><g class="lines"><path class="js-line" d="M0,256.5L78.77,255.86L79.88,255.72L153.1,249.05L154.21,248.82L164.2,245.98L165.31,245.03L171.97,240.61L173.07,239.32L175.29,234.9L176.4,233.75L178.62,231.49L179.73,229.76L184.17,222.69L185.28,221.49L187.5,218.15L188.61,215.65L194.15,205.79L195.26,203.99L198.59,197.65L199.7,195.47L203.03,191.34L204.14,189.09L208.58,183.01L209.69,181.98L215.23,175.32L216.34,174.74L228.55,161.88L229.66,161.16L232.99,159.34L234.09,158.33L238.53,155.64L239.64,155.23L260.72,142.35L261.83,142.04L270.71,137L271.82,136.3L279.58,132.71L280.69,132.17L302.88,120.18L303.99,118.97L305.1,118.5" style="vector-effect: non-scaling-stroke; fill: none; stroke: rgb(60, 180, 75); stroke-opacity: 1; stroke-width: 2px; opacity: 1;"/></g><g class="points"/><g class="text"/></g><g class="trace scatter trace2c2947" style="stroke-miterlimit: 2; opacity: 1;"><g class="fills"/><g class="errorbars"/><g class="lines"><path class="js-line" d="M0,256.5L87.65,255.75L88.76,255.74L126.48,254.3L127.59,254.28L161.98,252.74L163.09,252.48L170.86,250.18L171.97,249.4L176.4,245.9L177.51,245.42L181.95,241.34L183.06,240.92L186.39,239.12L187.5,238.05L208.58,224.65L209.69,224.03L218.56,220.7L219.67,220.34L224.11,218.25L225.22,217.89L238.53,213.58L239.64,213.42L245.19,212L246.3,211.8L248.52,210.63L249.63,210.38L256.28,208.66L257.39,208.38L262.94,206.76L264.05,206.47L268.49,204.62L269.6,204.41L302.88,191.02L303.99,190.09L305.1,189.46" style="vector-effect: non-scaling-stroke; fill: none; stroke: rgb(255, 225, 25); stroke-opacity: 1; stroke-width: 2px; opacity: 1;"/></g><g class="points"/><g class="text"/></g><g class="trace scatter tracec6dc67" style="stroke-miterlimit: 2; opacity: 1;"><g class="fills"/><g class="errorbars"/><g class="lines"><path class="js-line" d="M0,256.5L72.11,255.76L73.22,255.65L84.32,254.2L85.43,253.93L113.16,250.62L114.27,250.26L132.03,247.92L133.13,247.87L140.9,246.25L142.01,246.14L146.45,244.44L147.56,244.01L150.89,242.92L152,242.73L170.86,237.14L171.97,236.5L184.17,231.12L185.28,230.48L197.48,223.29L198.59,221.73L200.81,219.97L201.92,218.08L205.25,212.31L206.36,211.44L207.47,209.91L208.58,206.71L211.91,200.16L213.02,199.27L215.23,197.4L216.34,196.09L219.67,192.33L220.78,192.33L227.44,183.02L228.55,181.99L235.2,175.66L236.31,174.09L240.75,170.79L241.86,169.43L246.3,164.95L247.41,164.29L251.85,160.18L252.96,159.35L266.27,149.68L267.38,148.63L277.36,139.93L278.47,139.93L280.69,135.69L281.8,134.69L285.13,131.61L286.24,130.82L288.46,129.23L289.57,127.89L290.68,124.28L291.79,124.28L294.01,124.28L295.11,121.57L296.22,120.07L297.33,120.07L299.55,115.68L300.66,115.68L302.88,111.62L303.99,110.35L305.1,108.92" style="vector-effect: non-scaling-stroke; fill: none; stroke: rgb(67, 99, 216); stroke-opacity: 1; stroke-width: 2px; opacity: 1;"/></g><g class="points"/><g class="text"/></g><g class="trace scatter trace72123f" style="stroke-miterlimit: 2; opacity: 1;"><g class="fills"/><g class="errorbars"/><g class="lines"><path class="js-line" d="M0,256.5L87.65,255.75L88.76,255.68L99.85,255.17L100.96,255.15L113.16,253.45L114.27,253.19L122.04,250.41L123.15,250L127.59,247.75L128.7,247.05L136.46,242.19L137.57,241.44L144.23,237.84L145.34,237.5L155.32,233.76L156.43,233.39L164.2,230.99L165.31,230.67L173.07,228.64L174.18,228.3L197.48,221.99L198.59,221.36L201.92,220.1L203.03,219.52L230.77,206.25L231.88,206.01L237.42,203.39L238.53,202.87L242.97,201.19L244.08,200.45L274.04,189.92L275.14,189.08L288.46,182.87L289.57,182.18L294.01,179.06L295.11,179.06L296.22,176.65L297.33,176.65L298.44,175.36L299.55,175.36L300.66,173.51L301.77,173.51L302.88,173.51L303.99,171.34L305.1,170.55" style="vector-effect: non-scaling-stroke; fill: none; stroke: rgb(245, 130, 49); stroke-opacity: 1; stroke-width: 2px; opacity: 1;"/></g><g class="points"/><g class="text"/></g><g class="trace scatter trace98c743" style="stroke-miterlimit: 2; opacity: 1;"><g class="fills"/><g class="errorbars"/><g class="lines"><path class="js-line" d="M0,256.5L63.24,255.76L64.35,255.17L68.79,251.11L69.9,249.57L72.11,245.32L73.22,242.19L76.55,233.42L77.66,228.88L78.77,225.18L79.88,218.83L86.54,194.13L87.65,191.37L95.41,174.73L96.52,173.26L99.85,168.41L100.96,166.52L104.29,160.42L105.4,159.19L106.51,158.42L107.62,156.56L110.95,151.64L112.05,150.79L114.27,149.51L115.38,149.03L119.82,145.52L120.93,144.81L124.26,142.87L125.37,140.51L136.46,134.33L137.57,134.05L146.45,130.02L147.56,129.57L148.67,129.27L149.78,126.47L154.21,123.44L155.32,123.21L173.07,117.59L174.18,116.97L178.62,115.27L179.73,114.43L185.28,111.69L186.39,110.68L193.05,106.53L194.15,104.95L197.48,101.7L198.59,101.17L201.92,98.8L203.03,98L208.58,93.79L209.69,91.58L211.91,89.24L213.02,88.52L215.23,87.33L216.34,86.17L224.11,81.06L225.22,81.06L228.55,76.91L229.66,76.61L236.31,72.02L237.42,71.04L240.75,67.44L241.86,66.05L248.52,61.95L249.63,61.19L251.85,59.02L252.96,59.02L255.17,56.43L256.28,54.92L259.61,51.03L260.72,51.03L262.94,48.54L264.05,47.7L266.27,46.19L267.38,45.89L268.49,45.89L269.6,44.53L285.13,33.71L286.24,32.58L295.11,25.23L296.22,23.52L298.44,20.78L299.55,20.78L303.99,14.88L305.1,13.5" style="vector-effect: non-scaling-stroke; fill: none; stroke: rgb(145, 30, 180); stroke-opacity: 1; stroke-width: 2px; opacity: 1;"/></g><g class="points"/><g class="text"/></g></g></g><g class="overplot"/><path class="xlines-above crisp" d="M0,0" style="fill: none;"/><path class="ylines-above crisp" d="M0,0" style="fill: none;"/><g class="overlines-above"/><g class="xaxislayer-above"><g class="xtick"><text text-anchor="middle" x="0" y="383" transform="translate(123.27000000000001,0)" style="font-family: 'Open Sans', verdana, arial, sans-serif; font-size: 12px; fill: rgb(242, 245, 250); fill-opacity: 1; white-space: pre;">Mar 2020</text></g><g class="xtick"><text text-anchor="middle" x="0" y="383" transform="translate(190.95,0)" style="font-family: 'Open Sans', verdana, arial, sans-serif; font-size: 12px; fill: rgb(242, 245, 250); fill-opacity: 1; white-space: pre;">May 2020</text></g><g class="xtick"><text text-anchor="middle" x="0" y="383" transform="translate(258.62,0)" style="font-family: 'Open Sans', verdana, arial, sans-serif; font-size: 12px; fill: rgb(242, 245, 250); fill-opacity: 1; white-space: pre;">Jul 2020</text></g><g class="xtick"><text text-anchor="middle" x="0" y="383" transform="translate(327.40999999999997,0)" style="font-family: 'Open Sans', verdana, arial, sans-serif; font-size: 12px; fill: rgb(242, 245, 250); fill-opacity: 1; white-space: pre;">Sep 2020</text></g></g><g class="yaxislayer-above"><g class="ytick"><text text-anchor="end" x="79" y="4.199999999999999" transform="translate(0,356.5)" style="font-family: 'Open Sans', verdana, arial, sans-serif; font-size: 12px; fill: rgb(242, 245, 250); fill-opacity: 1; white-space: pre;">0</text></g><g class="ytick"><text text-anchor="end" x="79" y="4.199999999999999" transform="translate(0,294.71000000000004)" style="font-family: 'Open Sans', verdana, arial, sans-serif; font-size: 12px; fill: rgb(242, 245, 250); fill-opacity: 1; white-space: pre;">10k</text></g><g class="ytick"><text text-anchor="end" x="79" y="4.199999999999999" transform="translate(0,232.91)" style="font-family: 'Open Sans', verdana, arial, sans-serif; font-size: 12px; fill: rgb(242, 245, 250); fill-opacity: 1; white-space: pre;">20k</text></g><g class="ytick"><text text-anchor="end" x="79" y="4.199999999999999" transform="translate(0,171.12)" style="font-family: 'Open Sans', verdana, arial, sans-serif; font-size: 12px; fill: rgb(242, 245, 250); fill-opacity: 1; white-space: pre;">30k</text></g><g class="ytick"><text text-anchor="end" x="79" y="4.199999999999999" transform="translate(0,109.32)" style="font-family: 'Open Sans', verdana, arial, sans-serif; font-size: 12px; fill: rgb(242, 245, 250); fill-opacity: 1; white-space: pre;">40k</text></g></g><g class="overaxes-above"/></g><g class="subplot x2y2"><g class="layer-subplot"><g class="shapelayer"/><g class="imagelayer"/></g><g class="gridlayer"><g class="x2"><path class="x2grid crisp" transform="translate(496.17,0)" d="M0,100v270" style="stroke: rgb(40, 52, 66); stroke-opacity: 1; stroke-width: 1px;"/><path class="x2grid crisp" transform="translate(563.85,0)" d="M0,100v270" style="stroke: rgb(40, 52, 66); stroke-opacity: 1; stroke-width: 1px;"/><path class="x2grid crisp" transform="translate(631.52,0)" d="M0,100v270" style="stroke: rgb(40, 52, 66); stroke-opacity: 1; stroke-width: 1px;"/><path class="x2grid crisp" transform="translate(700.3100000000001,0)" d="M0,100v270" style="stroke: rgb(40, 52, 66); stroke-opacity: 1; stroke-width: 1px;"/></g><g class="y2"><path class="y2grid crisp" transform="translate(0,316.53)" d="M452.90000000000003,0h305.09999999999997" style="stroke: rgb(40, 52, 66); stroke-opacity: 1; stroke-width: 1px;"/><path class="y2grid crisp" transform="translate(0,276.57)" d="M452.90000000000003,0h305.09999999999997" style="stroke: rgb(40, 52, 66); stroke-opacity: 1; stroke-width: 1px;"/><path class="y2grid crisp" transform="translate(0,236.6)" d="M452.90000000000003,0h305.09999999999997" style="stroke: rgb(40, 52, 66); stroke-opacity: 1; stroke-width: 1px;"/><path class="y2grid crisp" transform="translate(0,196.63)" d="M452.90000000000003,0h305.09999999999997" style="stroke: rgb(40, 52, 66); stroke-opacity: 1; stroke-width: 1px;"/><path class="y2grid crisp" transform="translate(0,156.66)" d="M452.90000000000003,0h305.09999999999997" style="stroke: rgb(40, 52, 66); stroke-opacity: 1; stroke-width: 1px;"/><path class="y2grid crisp" transform="translate(0,116.7)" d="M452.90000000000003,0h305.09999999999997" style="stroke: rgb(40, 52, 66); stroke-opacity: 1; stroke-width: 1px;"/></g></g><g class="zerolinelayer"><path class="y2zl zl crisp" transform="translate(0,356.5)" d="M452.90000000000003,0h305.09999999999997" style="stroke: rgb(40, 52, 66); stroke-opacity: 1; stroke-width: 2px;"/></g><path class="xlines-below"/><path class="ylines-below"/><g class="overlines-below"/><g class="xaxislayer-below"/><g class="yaxislayer-below"/><g class="overaxes-below"/><g class="plot" transform="translate(452.90000000000003, 100)" clip-path="url('#clip6645e1x2y2plot')"><g class="scatterlayer mlayer"><g class="trace scatter trace963a59" style="stroke-miterlimit: 2; opacity: 1;"><g class="fills"/><g class="errorbars"/><g class="lines"><path class="js-line" d="M0,256.5L78.77,255.78L79.88,255.54L88.76,254.82L89.87,254.66L92.08,254.66L93.19,253.62L98.74,253.14L99.85,253.06L119.82,250.82L120.93,250.82L125.37,250.19L126.48,249.95L170.86,246.75L171.97,246.27L183.06,245.31L184.17,245.31L191.94,244.67L193.05,244.35L210.8,241.95L211.91,241.95L214.12,241.39L215.23,241.39L219.67,241.07L220.78,241.07L223,240.11L224.11,240.11L227.44,238.99L228.55,238.99L244.08,236.76L245.19,235.96L247.41,235.96L248.52,234.6L249.63,232.92L250.74,232.84L256.28,232.28L257.39,232.28L258.5,230.92L259.61,230.92L264.05,228.04L265.16,227.32L268.49,226.6L269.6,226.6L271.82,224.93L272.93,224.77L275.14,224.05L276.25,224.05L279.58,223.57L280.69,222.93L286.24,222.37L287.35,222.05L302.88,221.73L303.99,220.05L305.1,220.05" style="vector-effect: non-scaling-stroke; fill: none; stroke: rgb(230, 25, 75); stroke-opacity: 1; stroke-width: 2px; opacity: 1;"/></g><g class="points"/><g class="text"/></g><g class="trace scatter tracef89896" style="stroke-miterlimit: 2; opacity: 1;"><g class="fills"/><g class="errorbars"/><g class="lines"><path class="js-line" d="M0,256.5L90.98,255.86L92.08,255.7L106.51,255.06L107.62,254.9L119.82,253.86L120.93,253.86L128.7,253.14L129.81,253.06L140.9,252.18L142.01,252.1L149.78,251.38L150.89,251.22L173.07,249.55L174.18,249.15L183.06,248.11L184.17,247.39L186.39,246.75L187.5,246.35L191.94,245.23L193.05,244.43L200.81,241.63L201.92,240.51L208.58,238.91L209.69,236.44L211.91,235.08L213.02,235L215.23,234.84L216.34,233.64L218.56,232.2L219.67,232.2L221.89,231.56L223,231.4L227.44,228.28L228.55,227.88L230.77,227.72L231.88,225.57L238.53,223.97L239.64,223.01L254.07,219.01L255.17,219.01L257.39,217.89L258.5,217.89L260.72,217.49L261.83,217.49L266.27,216.13L267.38,215.97L271.82,215.41L272.93,214.93L276.25,214.21L277.36,214.29L287.35,213.18L288.46,212.62L297.33,210.3L298.44,209.98L305.1,208.38" style="vector-effect: non-scaling-stroke; fill: none; stroke: rgb(60, 180, 75); stroke-opacity: 1; stroke-width: 2px; opacity: 1;"/></g><g class="points"/><g class="text"/></g><g class="trace scatter trace168578" style="stroke-miterlimit: 2; opacity: 1;"><g class="fills"/><g class="errorbars"/><g class="lines"><path class="js-line" d="M0,256.5L126.48,255.78L127.59,255.7L184.17,254.98L185.28,254.9L191.94,254.18L193.05,253.78L197.48,252.58L198.59,252.5L201.92,251.86L203.03,251.7L206.36,251.38L207.47,251.3L208.58,251.3L209.69,248.91L211.91,247.39L213.02,247.31L216.34,246.67L217.45,245.95L220.78,245.15L221.89,244.43L225.22,243.71L226.33,243.47L235.2,240.99L236.31,240.91L240.75,240.51L241.86,240.11L249.63,238.67L250.74,238.28L252.96,237.72L254.07,237.72L256.28,237.56L257.39,236.92L259.61,236.2L260.72,236.2L265.16,234.92L266.27,234.6L295.11,230.04L296.22,229.56L299.55,228.92L300.66,228.76L303.99,228.36L305.1,227.16" style="vector-effect: non-scaling-stroke; fill: none; stroke: rgb(255, 225, 25); stroke-opacity: 1; stroke-width: 2px; opacity: 1;"/></g><g class="points"/><g class="text"/></g><g class="trace scatter trace426b7d" style="stroke-miterlimit: 2; opacity: 1;"><g class="fills"/><g class="errorbars"/><g class="lines"><path class="js-line" d="M0,256.5L85.43,255.94L86.54,255.7L114.27,254.18L115.38,254.18L133.13,253.46L134.24,253.38L145.34,252.9L146.45,252.58L188.61,251.94L189.72,251.78L193.05,251.22L194.15,250.82L196.37,250.03L197.48,249.87L206.36,249.15L207.47,248.91L214.12,248.19L215.23,248.11L250.74,245.47L251.85,243.71L254.07,243.07L255.17,242.99L270.71,241.39L271.82,239.47L278.47,238.91L279.58,237.64L285.13,237.08L286.24,236.52L288.46,235.96L289.57,234.2L291.79,233.8L292.9,233.8L301.77,233.16L302.88,232.92L305.1,231.16" style="vector-effect: non-scaling-stroke; fill: none; stroke: rgb(67, 99, 216); stroke-opacity: 1; stroke-width: 2px; opacity: 1;"/></g><g class="points"/><g class="text"/></g><g class="trace scatter trace10bd55" style="stroke-miterlimit: 2; opacity: 1;"><g class="fills"/><g class="errorbars"/><g class="lines"><path class="js-line" d="M0,256.5L97.63,255.78L98.74,255.7L110.95,254.18L112.05,254.02L119.82,253.06L120.93,252.9L126.48,251.62L127.59,251.14L137.57,248.75L138.68,248.67L155.32,243.15L156.43,242.99L158.65,241.95L159.76,241.31L163.09,240.59L164.2,240.11L175.29,239.15L176.4,239.15L181.95,238.43L183.06,238.35L194.15,237.48L195.26,236.84L209.69,236.2L210.8,235.88L239.64,233.56L240.75,233.24L244.08,232.68L245.19,232.68L257.39,232.12L258.5,231.88L268.49,231.08L269.6,231.08L285.13,230.44L286.24,230.28L295.11,229.72L296.22,229.72L299.55,229.72L300.66,228.76L302.88,228.76L303.99,227.96L305.1,227.88" style="vector-effect: non-scaling-stroke; fill: none; stroke: rgb(245, 130, 49); stroke-opacity: 1; stroke-width: 2px; opacity: 1;"/></g><g class="points"/><g class="text"/></g><g class="trace scatter tracea6fcb9" style="stroke-miterlimit: 2; opacity: 1;"><g class="fills"/><g class="errorbars"/><g class="lines"><path class="js-line" d="M0,256.5L67.68,255.86L68.79,255.46L74.33,252.02L75.44,249.87L83.21,228.84L84.32,224.37L86.54,216.21L87.65,207.82L89.87,200.23L90.98,200.23L94.3,178.08L95.41,173.05L96.52,170.97L97.63,167.05L98.74,164.74L99.85,154.34L100.96,151.07L102.07,144.91L103.18,141.15L104.29,131.8L105.4,130.2L106.51,126.85L109.84,114.06L110.95,112.46L112.05,105.9L113.16,105.18L118.71,94.39L119.82,90.08L122.04,88.24L123.15,85.44L127.59,79.69L128.7,79.61L129.81,78.57L130.92,74.65L132.03,73.93L133.13,71.61L134.24,70.81L135.35,67.94L138.68,67.22L139.79,64.18L140.9,63.86L142.01,62.66L144.23,59.78L145.34,59.62L148.67,57.3L149.78,47.63L152,46.43L153.1,46.03L154.21,44.59L155.32,44.43L157.54,43.56L158.65,43.16L165.31,42.2L166.42,41.72L170.86,41.24L171.97,40.6L175.29,39.88L176.4,39.8L179.73,38.44L180.84,38.44L184.17,38.28L185.28,37.4L188.61,36.84L189.72,36.04L195.26,35.08L196.37,34.76L198.59,34.2L199.7,34.2L209.69,33.32L210.8,32.84L216.34,31.96L217.45,31.96L219.67,30.77L220.78,30.77L226.33,30.05L227.44,29.89L240.75,27.57L241.86,26.93L255.17,24.93L256.28,22.37L258.5,21.49L259.61,21.41L264.05,20.77L265.16,20.61L269.6,19.97L270.71,19.65L275.14,18.54L276.25,18.54L281.8,17.42L282.91,17.1L289.57,16.38L290.68,16.22L295.11,15.82L296.22,15.34L301.77,14.7L302.88,14.22L305.1,13.5" style="vector-effect: non-scaling-stroke; fill: none; stroke: rgb(145, 30, 180); stroke-opacity: 1; stroke-width: 2px; opacity: 1;"/></g><g class="points"/><g class="text"/></g></g></g><g class="overplot"/><path class="xlines-above crisp" d="M0,0" style="fill: none;"/><path class="ylines-above crisp" d="M0,0" style="fill: none;"/><g class="overlines-above"/><g class="xaxislayer-above"><g class="x2tick"><text text-anchor="middle" x="0" y="383" transform="translate(496.17,0)" style="font-family: 'Open Sans', verdana, arial, sans-serif; font-size: 12px; fill: rgb(242, 245, 250); fill-opacity: 1; white-space: pre;">Mar 2020</text></g><g class="x2tick"><text text-anchor="middle" x="0" y="383" transform="translate(563.85,0)" style="font-family: 'Open Sans', verdana, arial, sans-serif; font-size: 12px; fill: rgb(242, 245, 250); fill-opacity: 1; white-space: pre;">May 2020</text></g><g class="x2tick"><text text-anchor="middle" x="0" y="383" transform="translate(631.52,0)" style="font-family: 'Open Sans', verdana, arial, sans-serif; font-size: 12px; fill: rgb(242, 245, 250); fill-opacity: 1; white-space: pre;">Jul 2020</text></g><g class="x2tick"><text text-anchor="middle" x="0" y="383" transform="translate(700.3100000000001,0)" style="font-family: 'Open Sans', verdana, arial, sans-serif; font-size: 12px; fill: rgb(242, 245, 250); fill-opacity: 1; white-space: pre;">Sep 2020</text></g></g><g class="yaxislayer-above"><g class="y2tick"><text text-anchor="end" x="451.90000000000003" y="4.199999999999999" transform="translate(0,356.5)" style="font-family: 'Open Sans', verdana, arial, sans-serif; font-size: 12px; fill: rgb(242, 245, 250); fill-opacity: 1; white-space: pre;">0</text></g><g class="y2tick"><text text-anchor="end" x="451.90000000000003" y="4.199999999999999" transform="translate(0,316.53)" style="font-family: 'Open Sans', verdana, arial, sans-serif; font-size: 12px; fill: rgb(242, 245, 250); fill-opacity: 1; white-space: pre;">500</text></g><g class="y2tick"><text text-anchor="end" x="451.90000000000003" y="4.199999999999999" transform="translate(0,276.57)" style="font-family: 'Open Sans', verdana, arial, sans-serif; font-size: 12px; fill: rgb(242, 245, 250); fill-opacity: 1; white-space: pre;">1000</text></g><g class="y2tick"><text text-anchor="end" x="451.90000000000003" y="4.199999999999999" transform="translate(0,236.6)" style="font-family: 'Open Sans', verdana, arial, sans-serif; font-size: 12px; fill: rgb(242, 245, 250); fill-opacity: 1; white-space: pre;">1500</text></g><g class="y2tick"><text text-anchor="end" x="451.90000000000003" y="4.199999999999999" transform="translate(0,196.63)" style="font-family: 'Open Sans', verdana, arial, sans-serif; font-size: 12px; fill: rgb(242, 245, 250); fill-opacity: 1; white-space: pre;">2000</text></g><g class="y2tick"><text text-anchor="end" x="451.90000000000003" y="4.199999999999999" transform="translate(0,156.66)" style="font-family: 'Open Sans', verdana, arial, sans-serif; font-size: 12px; fill: rgb(242, 245, 250); fill-opacity: 1; white-space: pre;">2500</text></g><g class="y2tick"><text text-anchor="end" x="451.90000000000003" y="4.199999999999999" transform="translate(0,116.7)" style="font-family: 'Open Sans', verdana, arial, sans-serif; font-size: 12px; fill: rgb(242, 245, 250); fill-opacity: 1; white-space: pre;">3000</text></g></g><g class="overaxes-above"/></g></g><g class="polarlayer"/><g class="ternarylayer"/><g class="geolayer"/><g class="funnelarealayer"/><g class="pielayer"/><g class="treemaplayer"/><g class="sunburstlayer"/><g class="glimages"/><defs id="topdefs-6645e1"><g class="clips"/><clipPath id="legend6645e1"><rect width="116" height="124" x="0" y="0"/></clipPath></defs><g class="layer-above"><g class="imagelayer"/><g class="shapelayer"/></g><g class="infolayer"><g class="legend" pointer-events="all" transform="translate(771.5600000000001, 100)"><rect class="bg" shape-rendering="crispEdges" width="116" height="124" x="0" y="0" style="stroke: rgb(68, 68, 68); stroke-opacity: 1; fill: rgb(17, 17, 17); fill-opacity: 1; stroke-width: 0px;"/><g class="scrollbox" transform="translate(0, 0)" clip-path="url('#legend6645e1')"><g class="groups"><g class="traces" transform="translate(0, 14.5)" style="opacity: 1;"><text class="legendtext user-select-none" text-anchor="start" x="40" y="4.680000000000001" style="font-family: 'Open Sans', verdana, arial, sans-serif; font-size: 12px; fill: rgb(242, 245, 250); fill-opacity: 1; white-space: pre;">Alameda, CA</text><g class="layers" style="opacity: 1;"><g class="legendfill"/><g class="legendlines"><path class="js-line" d="M5,0h30" style="fill: none; stroke: rgb(230, 25, 75); stroke-opacity: 1; stroke-width: 2px;"/></g><g class="legendsymbols"><g class="legendpoints"/></g></g><rect class="legendtoggle" pointer-events="all" x="0" y="-9.5" width="110.703125" height="19" style="cursor: pointer; fill: rgb(0, 0, 0); fill-opacity: 0;"/></g><g class="traces" transform="translate(0, 33.5)" style="opacity: 1;"><text class="legendtext user-select-none" text-anchor="start" x="40" y="4.680000000000001" style="font-family: 'Open Sans', verdana, arial, sans-serif; font-size: 12px; fill: rgb(242, 245, 250); fill-opacity: 1; white-space: pre;">Polk, FL</text><g class="layers" style="opacity: 1;"><g class="legendfill"/><g class="legendlines"><path class="js-line" d="M5,0h30" style="fill: none; stroke: rgb(60, 180, 75); stroke-opacity: 1; stroke-width: 2px;"/></g><g class="legendsymbols"><g class="legendpoints"/></g></g><rect class="legendtoggle" pointer-events="all" x="0" y="-9.5" width="110.703125" height="19" style="cursor: pointer; fill: rgb(0, 0, 0); fill-opacity: 0;"/></g><g class="traces" transform="translate(0, 52.5)" style="opacity: 1;"><text class="legendtext user-select-none" text-anchor="start" x="40" y="4.680000000000001" style="font-family: 'Open Sans', verdana, arial, sans-serif; font-size: 12px; fill: rgb(242, 245, 250); fill-opacity: 1; white-space: pre;">Brevard, FL</text><g class="layers" style="opacity: 1;"><g class="legendfill"/><g class="legendlines"><path class="js-line" d="M5,0h30" style="fill: none; stroke: rgb(255, 225, 25); stroke-opacity: 1; stroke-width: 2px;"/></g><g class="legendsymbols"><g class="legendpoints"/></g></g><rect class="legendtoggle" pointer-events="all" x="0" y="-9.5" width="110.703125" height="19" style="cursor: pointer; fill: rgb(0, 0, 0); fill-opacity: 0;"/></g><g class="traces" transform="translate(0, 71.5)" style="opacity: 1;"><text class="legendtext user-select-none" text-anchor="start" x="40" y="4.680000000000001" style="font-family: 'Open Sans', verdana, arial, sans-serif; font-size: 12px; fill: rgb(242, 245, 250); fill-opacity: 1; white-space: pre;">Jackson, MO</text><g class="layers" style="opacity: 1;"><g class="legendfill"/><g class="legendlines"><path class="js-line" d="M5,0h30" style="fill: none; stroke: rgb(67, 99, 216); stroke-opacity: 1; stroke-width: 2px;"/></g><g class="legendsymbols"><g class="legendpoints"/></g></g><rect class="legendtoggle" pointer-events="all" x="0" y="-9.5" width="110.703125" height="19" style="cursor: pointer; fill: rgb(0, 0, 0); fill-opacity: 0;"/></g><g class="traces" transform="translate(0, 90.5)" style="opacity: 1;"><text class="legendtext user-select-none" text-anchor="start" x="40" y="4.680000000000001" style="font-family: 'Open Sans', verdana, arial, sans-serif; font-size: 12px; fill: rgb(242, 245, 250); fill-opacity: 1; white-space: pre;">Ramsey, MN</text><g class="layers" style="opacity: 1;"><g class="legendfill"/><g class="legendlines"><path class="js-line" d="M5,0h30" style="fill: none; stroke: rgb(245, 130, 49); stroke-opacity: 1; stroke-width: 2px;"/></g><g class="legendsymbols"><g class="legendpoints"/></g></g><rect class="legendtoggle" pointer-events="all" x="0" y="-9.5" width="110.703125" height="19" style="cursor: pointer; fill: rgb(0, 0, 0); fill-opacity: 0;"/></g><g class="traces" transform="translate(0, 109.5)" style="opacity: 1;"><text class="legendtext user-select-none" text-anchor="start" x="40" y="4.680000000000001" style="font-family: 'Open Sans', verdana, arial, sans-serif; font-size: 12px; fill: rgb(242, 245, 250); fill-opacity: 1; white-space: pre;">Wayne, MI</text><g class="layers" style="opacity: 1;"><g class="legendfill"/><g class="legendlines"><path class="js-line" d="M5,0h30" style="fill: none; stroke: rgb(145, 30, 180); stroke-opacity: 1; stroke-width: 2px;"/></g><g class="legendsymbols"><g class="legendpoints"/></g></g><rect class="legendtoggle" pointer-events="all" x="0" y="-9.5" width="110.703125" height="19" style="cursor: pointer; fill: rgb(0, 0, 0); fill-opacity: 0;"/></g></g></g><rect class="scrollbar" rx="20" ry="3" width="0" height="0" x="0" y="0" style="fill: rgb(128, 139, 164); fill-opacity: 1;"/></g><g class="g-gtitle"/><g class="g-xtitle"><text class="xtitle" x="232.55" y="410.8" text-anchor="middle" style="font-family: 'Open Sans', verdana, arial, sans-serif; font-size: 14px; fill: rgb(242, 245, 250); opacity: 1; font-weight: normal; white-space: pre;">Date</text></g><g class="g-x2title"><text class="x2title" x="605.45" y="410.8" text-anchor="middle" style="font-family: 'Open Sans', verdana, arial, sans-serif; font-size: 14px; fill: rgb(242, 245, 250); opacity: 1; font-weight: normal; white-space: pre;">Date</text></g><g class="g-ytitle"><text class="ytitle" transform="rotate(-90,34.840625,235)" x="34.840625" y="235" text-anchor="middle" style="font-family: 'Open Sans', verdana, arial, sans-serif; font-size: 14px; fill: rgb(242, 245, 250); opacity: 1; font-weight: normal; white-space: pre;">Cases</text></g><g class="g-y2title"><text class="y2title" transform="rotate(-90,400.403125,235)" x="400.403125" y="235" text-anchor="middle" style="font-family: 'Open Sans', verdana, arial, sans-serif; font-size: 14px; fill: rgb(242, 245, 250); opacity: 1; font-weight: normal; white-space: pre;">Deaths</text></g><g class="annotation" data-index="0" style="opacity: 1;"><g class="annotation-text-g" transform="rotate(0,232.55,89.5)"><g class="cursor-pointer" transform="translate(208, 79)"><rect class="bg" x="0.5" y="0.5" width="48" height="20" style="stroke-width: 1px; stroke: rgb(0, 0, 0); stroke-opacity: 0; fill: rgb(0, 0, 0); fill-opacity: 0;"/><text class="annotation-text" text-anchor="middle" x="24.6875" y="16" style="font-family: 'Open Sans', verdana, arial, sans-serif; font-size: 16px; fill: rgb(242, 245, 250); fill-opacity: 1; white-space: pre;">Cases</text></g></g></g><g class="annotation" data-index="1" style="opacity: 1;"><g class="annotation-text-g" transform="rotate(0,605.45,89.5)"><g class="cursor-pointer" transform="translate(578, 79)"><rect class="bg" x="0.5" y="0.5" width="54" height="20" style="stroke-width: 1px; stroke: rgb(0, 0, 0); stroke-opacity: 0; fill: rgb(0, 0, 0); fill-opacity: 0;"/><text class="annotation-text" text-anchor="middle" x="27.359375" y="16" style="font-family: 'Open Sans', verdana, arial, sans-serif; font-size: 16px; fill: rgb(242, 245, 250); fill-opacity: 1; white-space: pre;">Deaths</text></g></g></g></g></svg>