<svg class="main-svg" xmlns="http://www.w3.org/2000/svg" xmlns:xlink="http://www.w3.org/1999/xlink" width="900" height="450" style="" viewBox="0 0 900 450"><rect x="0" y="0" width="900" height="450" style="fill: rgb(17, 17, 17); fill-opacity: 1;"/><defs id="defs-e47f3f"><g class="clips"><clipPath id="clipe47f3fxyplot" class="plotclip"><rect width="296.1" height="270"/></clipPath><clipPath id="clipe47f3fx2y2plot" class="plotclip"><rect width="296.09999999999997" height="270"/></clipPath><clipPath class="axesclip" id="clipe47f3fx"><rect x="80" y="0" width="296.1" height="450"/></clipPath><clipPath class="axesclip" id="clipe47f3fy"><rect x="0" y="100" width="900" height="270"/></clipPath><clipPath class="axesclip" id="clipe47f3fxy"><rect x="80" y="100" width="296.1" height="270"/></clipPath><clipPath class="axesclip" id="clipe47f3fy2"><rect x="0" y="100" width="900" height="270"/></clipPath><clipPath class="axesclip" id="clipe47f3fxy2"><rect x="80" y="100" width="296.1" height="270"/></clipPath><clipPath class="axesclip" id="clipe47f3fx2"><rect x="441.90000000000003" y="0" width="296.09999999999997" height="450"/></clipPath><clipPath class="axesclip" id="clipe47f3fx2y"><rect x="441.90000000000003" y="100" width="296.09999999999997" height="270"/></clipPath><clipPath class="axesclip" id="clipe47f3fx2y2"><rect x="441.90000000000003" y="100" width="296.09999999999997" height="270"/></clipPath></g><g class="gradients"/></defs><g class="bglayer"/><g class="layer-below"><g class="imagelayer"/><g class="shapelayer"/></g><g class="cartesianlayer"><g class="subplot xy"><g class="layer-subplot"><g class="shapelayer"/><g class="imagelayer"/></g><g class="gridlayer"><g class="x"><path class="xgrid crisp" transform="translate(127.53999999999999,0)" d="M0,100v270" style="stroke: rgb(40, 52, 66); stroke-opacity: 1; stroke-width: 1px;"/><path class="xgrid crisp" transform="translate(189.34,0)" d="M0,100v270" style="stroke: rgb(40, 52, 66); stroke-opacity: 1; stroke-width: 1px;"/><path class="xgrid crisp" transform="translate(251.82,0)" d="M0,100v270" style="stroke: rgb(40, 52, 66); stroke-opacity: 1; stroke-width: 1px;"/><path class="xgrid crisp" transform="translate(314.3,0)" d="M0,100v270" style="stroke: rgb(40, 52, 66); stroke-opacity: 1; stroke-width: 1px;"/></g><g class="y"><path class="ygrid crisp" transform="translate(0,298.35)" d="M80,0h296.1" style="stroke: rgb(40, 52, 66); stroke-opacity: 1; stroke-width: 1px;"/><path class="ygrid crisp" transform="translate(0,240.2)" d="M80,0h296.1" style="stroke: rgb(40, 52, 66); stroke-opacity: 1; stroke-width: 1px;"/><path class="ygrid crisp" transform="translate(0,182.04000000000002)" d="M80,0h296.1" style="stroke: rgb(40, 52, 66); stroke-opacity: 1; stroke-width: 1px;"/><path class="ygrid crisp" transform="translate(0,123.89)" d="M80,0h296.1" style="stroke: rgb(40, 52, 66); stroke-opacity: 1; stroke-width: 1px;"/></g></g><g class="zerolinelayer"><path class="yzl zl crisp" transform="translate(0,356.5)" d="M80,0h296.1" style="stroke: rgb(40, 52, 66); stroke-opacity: 1; stroke-width: 2px;"/></g><path class="xlines-below"/><path class="ylines-below"/><g class="overlines-below"/><g class="xaxislayer-below"/><g class="yaxislayer-below"/><g class="overaxes-below"/><g class="plot" transform="translate(80, 100)" clip-path="url('#clipe47f3fxyplot')"><g class="scatterlayer mlayer"><g class="trace scatter trace91b71d" style="stroke-miterlimit: 2; opacity: 1;"><g class="fills"/><g class="errorbars"/><g class="lines"><path class="js-line" d="M0,256.5L44.82,255.76L45.5,255.71L50.93,254.79L51.61,254.66L82.17,248.63L82.85,248.45L105.26,240.85L105.94,240.53L107.3,240.01L107.98,239.75L112.74,236.48L113.41,236.48L114.77,234.96L115.45,234.74L120.88,230.01L121.56,229.64L122.92,229.22L123.6,228.46L126.32,226.35L127,226.15L133.11,221.21L133.79,221.21L135.15,221.21L135.83,218.12L136.5,218.07L137.18,216.77L139.22,214.17L139.9,214.17L141.26,212.51L141.94,211.62L144.65,207.96L145.33,207.88L146.01,207.85L146.69,206.27L150.77,203.62L151.45,202.87L154.16,200.87L154.84,200.87L157.56,199.19L158.24,198.87L162.31,197.88L162.99,197.29L167.74,195.36L168.42,195.36L171.14,194.33L171.82,194.11L182.69,191.2L183.36,190.68L197.63,184.24L198.31,183.81L203.06,180.77L203.74,179.56L209.85,174.43L210.53,172.6L213.93,168.31L214.6,166.42L215.96,164.21L216.64,161.87L217.32,161.64L218,158.41L221.4,151.29L222.07,145.38L224.11,139.43L224.79,139.37L226.83,128.55L227.51,126.37L231.58,111.81L232.26,109.94L234.3,103.92L234.98,100.89L237.69,92.42L238.37,90.53L244.49,66.3L245.17,62.9L247.2,57.52L247.88,56.5L255.35,41.4L256.03,40.25L258.75,36.35L259.43,35.03L264.86,28.42L265.54,27.83L268.26,25.87L268.93,25.36L273.69,22.25L274.37,20.31L281.16,17.37L281.84,17.13L293.38,14.47L294.06,14.47L295.42,13.79L296.1,13.5" style="vector-effect: non-scaling-stroke; fill: none; stroke: rgb(230, 25, 75); stroke-opacity: 1; stroke-width: 2px; opacity: 1;"/></g><g class="points"/><g class="text"/></g><g class="trace scatter tracedfc6c2" style="stroke-miterlimit: 2; opacity: 1;"><g class="fills"/><g class="errorbars"/><g class="lines"><path class="js-line" d="M0,256.5L119.53,255.77L120.21,255.73L195.59,250.8L196.27,250.69L204.42,249.2L205.1,249.13L220.72,245.25L221.4,244.66L227.51,241.71L228.19,241.53L247.2,236.54L247.88,236.43L258.75,235.1L259.43,235.05L264.86,234.09L265.54,233.98L277.76,232.94L278.44,232.91L296.1,231.88" style="vector-effect: non-scaling-stroke; fill: none; stroke: rgb(60, 180, 75); stroke-opacity: 1; stroke-width: 2px; opacity: 1;"/></g><g class="points"/><g class="text"/></g><g class="trace scatter trace42f106" style="stroke-miterlimit: 2; opacity: 1;"><g class="fills"/><g class="errorbars"/><g class="lines"><path class="js-line" d="M0,256.5L63.16,255.78L63.84,255.74L71.99,254.42L72.67,254.17L81.5,250.9L82.17,250.63L86.93,248.39L87.61,248.18L90.32,247.23L91,247.04L97.12,245.21L97.79,245.06L110.7,242.53L111.38,242.53L124.96,238.85L125.64,238.58L146.01,231.27L146.69,231.15L174.54,222.64L175.22,222.39L180.65,220.06L181.33,218.93L183.36,218.32L184.04,217.45L185.4,217.45L186.08,216.43L186.76,216.06L187.44,217.45L188.8,214.8L189.48,214.42L193.55,210.41L194.23,210.41L198.98,202.28L199.66,199.7L200.34,199.7L201.02,198.32L203.06,192.07L203.74,191.09L204.42,191.09L205.1,189.42L209.17,181.18L209.85,180.21L211.89,175.77L212.57,174.34L213.93,172.33L214.6,170.84L221.4,158.52L222.07,157.59L227.51,152.13L228.19,151.63L235.66,147.26L236.34,146.45L249.92,138.38L250.6,138.17L257.39,135.88L258.07,135.61L263.5,134.09L264.18,133.9L289.31,127.34L289.99,127.04L296.1,124.4" style="vector-effect: non-scaling-stroke; fill: none; stroke: rgb(255, 225, 25); stroke-opacity: 1; stroke-width: 2px; opacity: 1;"/></g><g class="points"/><g class="text"/></g><g class="trace scatter traceef181f" style="stroke-miterlimit: 2; opacity: 1;"><g class="fills"/><g class="errorbars"/><g class="lines"><path class="js-line" d="M0,256.5L61.12,255.77L61.8,255.73L76.74,254.94L77.42,254.91L114.77,253.1L115.45,253.02L150.77,249.74L151.45,249.66L172.5,247.67L173.18,247.58L180.65,246.46L181.33,246.34L190.84,244.09L191.51,243.87L200.34,239.41L201.02,238.62L203.74,236.86L204.42,236.86L205.78,236.86L206.46,233.65L209.85,229.77L210.53,229.77L211.89,226.31L212.57,225.71L217.32,218.6L218,216.06L228.87,201.03L229.55,201.03L231.58,199.11L232.26,198.64L236.34,194.69L237.02,193.94L239.05,191.17L239.73,190.12L247.88,182.52L248.56,182.07L254.67,178.08L255.35,177.78L263.5,174.18L264.18,174L282.52,169.67L283.2,169.67L289.99,168.41L290.67,168.28L296.1,167.15" style="vector-effect: non-scaling-stroke; fill: none; stroke: rgb(67, 99, 216); stroke-opacity: 1; stroke-width: 2px; opacity: 1;"/></g><g class="points"/><g class="text"/></g><g class="trace scatter trace9808ad" style="stroke-miterlimit: 2; opacity: 1;"><g class="fills"/><g class="errorbars"/><g class="lines"><path class="js-line" d="M0,256.5L98.47,255.77L99.15,255.74L120.88,254.37L121.56,254.32L139.9,252.87L140.58,252.85L155.52,252.11L156.2,252.09L183.36,250.56L184.04,250.5L192.19,249.33L192.87,248.52L201.7,247.02L202.38,246.91L227.51,239.86L228.19,239.46L230.9,238.71L231.58,238.58L250.6,233.4L251.28,233.28L257.39,232.37L258.07,232.27L281.16,231.31L281.84,231.29L284.55,230.41L285.23,230.35L296.1,229.9" style="vector-effect: non-scaling-stroke; fill: none; stroke: rgb(245, 130, 49); stroke-opacity: 1; stroke-width: 2px; opacity: 1;"/></g><g class="points"/><g class="text"/></g><g class="trace scatter trace45a996" style="stroke-miterlimit: 2; opacity: 1;"><g class="fills"/><g class="errorbars"/><g class="lines"><path class="js-line" d="M0,256.5L46.86,255.79L47.54,255.59L64.52,251.23L65.2,251.17L67.91,250.39L68.59,250.16L92.36,247.36L93.04,247.34L131.07,245.28L131.75,245.27L152.12,244.49L152.8,244.48L174.54,243.11L175.22,243.01L186.08,241.51L186.76,241.43L198.98,238.45L199.66,238.11L209.85,231.85L210.53,231.3L212.57,230.03L213.25,229.75L223.43,218.26L224.11,217.37L228.19,213.25L228.87,212.23L239.05,202.26L239.73,201.28L249.92,192.74L250.6,192.46L255.35,187.92L256.03,187.54L260.11,185.77L260.79,184.94L278.44,176.7L279.12,176.59L286.59,173.23L287.27,172.7L289.99,171.19L290.67,170.6L291.35,170.6L292.03,169.6L294.74,167.93L295.42,167.52L296.1,167.04" style="vector-effect: non-scaling-stroke; fill: none; stroke: rgb(145, 30, 180); stroke-opacity: 1; stroke-width: 2px; opacity: 1;"/></g><g class="points"/><g class="text"/></g></g></g><g class="overplot"/><path class="xlines-above crisp" d="M0,0" style="fill: none;"/><path class="ylines-above crisp" d="M0,0" style="fill: none;"/><g class="overlines-above"/><g class="xaxislayer-above"><g class="xtick"><text text-anchor="middle" x="0" y="383" transform="translate(127.53999999999999,0)" style="font-family: 'Open Sans', verdana, arial, sans-serif; font-size: 12px; fill: rgb(242, 245, 250); fill-opacity: 1; white-space: pre;">Apr 2020</text></g><g class="xtick"><text text-anchor="middle" x="0" y="383" transform="translate(189.34,0)" style="font-family: 'Open Sans', verdana, arial, sans-serif; font-size: 12px; fill: rgb(242, 245, 250); fill-opacity: 1; white-space: pre;">Jul 2020</text></g><g class="xtick"><text text-anchor="middle" x="0" y="383" transform="translate(251.82,0)" style="font-family: 'Open Sans', verdana, arial, sans-serif; font-size: 12px; fill: rgb(242, 245, 250); fill-opacity: 1; white-space: pre;">Oct 2020</text></g><g class="xtick"><text text-anchor="middle" x="0" y="383" transform="translate(314.3,0)" style="font-family: 'Open Sans', verdana, arial, sans-serif; font-size: 12px; fill: rgb(242, 245, 250); fill-opacity: 1; white-space: pre;">Jan 2021</text></g><g class="xtick"><text text-anchor="middle" x="0" y="383" transform="translate(375.42,0)" style="font-family: 'Open Sans', verdana, arial, sans-serif; font-size: 12px; fill: rgb(242, 245, 250); fill-opacity: 1; white-space: pre;">Apr 2021</text></g></g><g class="yaxislayer-above"><g class="ytick"><text text-anchor="end" x="79" y="4.199999999999999" transform="translate(0,356.5)" style="font-family: 'Open Sans', verdana, arial, sans-serif; font-size: 12px; fill: rgb(242, 245, 250); fill-opacity: 1; white-space: pre;">0</text></g><g class="ytick"><text text-anchor="end" x="79" y="4.199999999999999" transform="translate(0,298.35)" style="font-family: 'Open Sans', verdana, arial, sans-serif; font-size: 12px; fill: rgb(242, 245, 250); fill-opacity: 1; white-space: pre;">20k</text></g><g class="ytick"><text text-anchor="end" x="79" y="4.199999999999999" transform="translate(0,240.2)" style="font-family: 'Open Sans', verdana, arial, sans-serif; font-size: 12px; fill: rgb(242, 245, 250); fill-opacity: 1; white-space: pre;">40k</text></g><g class="ytick"><text text-anchor="end" x="79" y="4.199999999999999" transform="translate(0,182.04000000000002)" style="font-family: 'Open Sans', verdana, arial, sans-serif; font-size: 12px; fill: rgb(242, 245, 250); fill-opacity: 1; white-space: pre;">60k</text></g><g class="ytick"><text text-anchor="end" x="79" y="4.199999999999999" transform="translate(0,123.89)" style="font-family: 'Open Sans', verdana, arial, sans-serif; font-size: 12px; fill: rgb(242, 245, 250); fill-opacity: 1; white-space: pre;">80k</text></g></g><g class="overaxes-above"/></g><g class="subplot x2y2"><g class="layer-subplot"><g class="shapelayer"/><g class="imagelayer"/></g><g class="gridlayer"><g class="x2"><path class="x2grid crisp" transform="translate(489.44000000000005,0)" d="M0,100v270" style="stroke: rgb(40, 52, 66); stroke-opacity: 1; stroke-width: 1px;"/><path class="x2grid crisp" transform="translate(551.24,0)" d="M0,100v270" style="stroke: rgb(40, 52, 66); stroke-opacity: 1; stroke-width: 1px;"/><path class="x2grid crisp" transform="translate(613.72,0)" d="M0,100v270" style="stroke: rgb(40, 52, 66); stroke-opacity: 1; stroke-width: 1px;"/><path class="x2grid crisp" transform="translate(676.2,0)" d="M0,100v270" style="stroke: rgb(40, 52, 66); stroke-opacity: 1; stroke-width: 1px;"/></g><g class="y2"><path class="y2grid crisp" transform="translate(0,317.34000000000003)" d="M441.90000000000003,0h296.09999999999997" style="stroke: rgb(40, 52, 66); stroke-opacity: 1; stroke-width: 1px;"/><path class="y2grid crisp" transform="translate(0,278.18)" d="M441.90000000000003,0h296.09999999999997" style="stroke: rgb(40, 52, 66); stroke-opacity: 1; stroke-width: 1px;"/><path class="y2grid crisp" transform="translate(0,239.01)" d="M441.90000000000003,0h296.09999999999997" style="stroke: rgb(40, 52, 66); stroke-opacity: 1; stroke-width: 1px;"/><path class="y2grid crisp" transform="translate(0,199.85)" d="M441.90000000000003,0h296.09999999999997" style="stroke: rgb(40, 52, 66); stroke-opacity: 1; stroke-width: 1px;"/><path class="y2grid crisp" transform="translate(0,160.69)" d="M441.90000000000003,0h296.09999999999997" style="stroke: rgb(40, 52, 66); stroke-opacity: 1; stroke-width: 1px;"/><path class="y2grid crisp" transform="translate(0,121.53)" d="M441.90000000000003,0h296.09999999999997" style="stroke: rgb(40, 52, 66); stroke-opacity: 1; stroke-width: 1px;"/></g></g><g class="zerolinelayer"><path class="y2zl zl crisp" transform="translate(0,356.5)" d="M441.90000000000003,0h296.09999999999997" style="stroke: rgb(40, 52, 66); stroke-opacity: 1; stroke-width: 2px;"/></g><path class="xlines-below"/><path class="ylines-below"/><g class="overlines-below"/><g class="xaxislayer-below"/><g class="yaxislayer-below"/><g class="overaxes-below"/><g class="plot" transform="translate(441.90000000000003, 100)" clip-path="url('#clipe47f3fx2y2plot')"><g class="scatterlayer mlayer"><g class="trace scatter trace6e8a1f" style="stroke-miterlimit: 2; opacity: 1;"><g class="fills"/><g class="errorbars"/><g class="lines"><path class="js-line" d="M0,256.5L42.79,256.11L43.46,255.72L46.86,255.13L47.54,254.93L54.33,252.39L55.01,252L56.37,252L57.05,249.45L59.08,248.47L59.76,248.28L61.8,247.69L62.48,247.49L68.59,244.16L69.27,244.16L71.31,243.58L71.99,243.38L74.02,242.6L74.7,242.6L78.1,240.25L78.78,240.25L80.14,239.66L80.82,239.27L83.53,238.29L84.21,238.29L88.97,237.7L89.64,237.51L91,237.51L91.68,236.72L94.4,236.53L95.08,235.94L97.79,234.57L98.47,234.57L99.15,234.57L99.83,233.79L104.59,232.61L105.26,231.44L110.7,229.09L111.38,229.09L114.09,228.7L114.77,227.91L118.17,226.74L118.85,226.35L119.53,226.35L120.21,224.97L122.24,224.78L122.92,223.8L125.64,221.65L126.32,221.65L128.36,221.06L129.03,220.86L129.71,220.86L130.39,219.49L132.43,218.9L133.11,218.71L135.15,218.71L135.83,216.36L137.18,216.36L137.86,214.99L139.9,213.62L140.58,213.23L141.94,212.64L142.62,211.86L144.65,210.88L145.33,210.68L146.01,210.68L146.69,209.51L149.41,208.13L150.09,205.98L151.45,206.18L152.12,202.85L153.48,198.54L154.16,197.95L156.2,197.76L156.88,197.17L157.56,197.17L158.24,193.84L158.92,193.84L159.6,191.49L160.27,191.3L160.95,186.79L161.63,186.79L162.31,185.03L164.35,183.27L165.03,183.27L166.39,179.16L167.07,178.76L168.42,177.39L169.1,177L170.46,176.61L171.14,175.83L172.5,174.26L173.18,173.09L175.22,172.89L175.89,170.34L177.93,170.15L178.61,171.13L179.29,171.13L179.97,172.11L180.65,169.95L181.33,171.71L182.69,169.95L183.36,171.71L185.4,171.32L186.08,167.21L186.76,167.21L187.44,166.43L191.51,165.84L192.19,165.84L195.59,165.45L196.27,164.27L197.63,163.69L198.31,163.69L198.98,163.69L199.66,161.92L202.38,160.55L203.06,160.55L205.78,158.79L206.46,158.79L209.85,158.2L210.53,157.62L211.89,156.25L212.57,156.25L215.28,154.68L215.96,154.68L217.32,154.68L218,153.7L218.68,153.5L219.36,152.13L221.4,150.37L222.08,149.59L224.11,144.11L224.79,144.11L226.15,141.56L226.83,141.56L227.51,141.36L228.19,137.25L229.55,135.29L230.22,135.29L231.58,134.12L232.26,134.12L233.62,134.12L234.3,128.05L237.69,128.05L238.37,120.02L239.05,120.02L239.73,113.75L241.77,112.38L242.45,108.66L245.84,108.27L246.52,106.9L247.88,106.51L248.56,91.63L249.92,88.89L250.6,81.45L251.28,81.05L251.96,79.1L254.67,65.78L255.35,64.61L256.03,64.21L256.71,62.45L257.39,60.89L258.07,56.58L260.11,52.66L260.79,52.66L262.82,48.16L263.5,43.46L264.86,37.19L265.54,37L267.58,36.02L268.26,27.21L268.93,27.21L269.61,21.53L270.97,21.53L271.65,18L272.33,16.83L273.01,13.5L273.69,13.5L274.37,40.13L277.08,33.08L277.76,32.69L278.44,32.3L279.12,32.89L281.16,28.58L281.84,28.58L283.2,27.79L283.88,27.99L285.91,23.68L286.59,24.07L287.27,25.84L287.95,24.07L289.31,23.49L289.99,21.72L291.35,19.96L292.03,19.37L296.1,18.4" style="vector-effect: non-scaling-stroke; fill: none; stroke: rgb(230, 25, 75); stroke-opacity: 1; stroke-width: 2px; opacity: 1;"/></g><g class="points"/><g class="text"/></g><g class="trace scatter trace50b9d0" style="stroke-miterlimit: 2; opacity: 1;"><g class="fills"/><g class="errorbars"/><g class="lines"><path class="js-line" d="M0,256.5L124.96,255.91L125.64,255.72L143.98,255.13L144.65,254.93L166.39,254.35L167.07,254.15L169.78,253.95L170.46,253.95L194.23,253.37L194.91,252.98L201.02,252.39L201.7,252.19L206.46,251.6L207.13,251.6L210.53,251.02L211.21,250.82L216.64,250.23L217.32,249.84L226.15,247.1L226.83,246.51L232.26,244.75L232.94,243.58L234.3,242.4L234.98,242.4L237.02,241.81L237.69,240.84L239.05,239.66L239.73,239.27L244.49,236.53L245.17,236.53L247.2,235.55L247.88,234.57L250.6,233.79L251.28,233.79L253.99,231.63L254.67,231.44L256.03,230.26L256.71,229.48L261.46,227.52L262.14,227.52L268.26,227.13L268.93,226.74L273.01,225.95L273.69,225.95L285.23,225.37L285.91,225.17L293.38,224.58L294.06,224.39L296.1,224" style="vector-effect: non-scaling-stroke; fill: none; stroke: rgb(60, 180, 75); stroke-opacity: 1; stroke-width: 2px; opacity: 1;"/></g><g class="points"/><g class="text"/></g><g class="trace scatter tracef6312c" style="stroke-miterlimit: 2; opacity: 1;"><g class="fills"/><g class="errorbars"/><g class="lines"><path class="js-line" d="M0,256.5L52.29,255.91L52.97,255.52L57.05,255.13L57.73,254.74L61.8,254.35L62.48,253.76L63.84,252.58L64.52,252.58L76.74,245.53L77.42,244.56L79.46,242.4L80.14,242.01L82.85,238.09L83.53,237.51L84.89,237.31L85.57,236.33L88.29,232.22L88.97,231.44L94.4,224.39L95.08,223.8L95.76,223.41L96.44,221.25L97.12,220.86L97.79,219.3L99.15,218.9L99.83,217.53L101.19,215.97L101.87,215.58L107.3,214.01L107.98,214.01L109.34,213.81L110.02,213.03L111.38,212.25L112.06,212.05L118.85,209.9L119.53,208.33L122.24,208.13L122.92,207.55L124.28,208.13L124.96,208.13L127,208.13L127.68,206.76L128.36,208.13L129.03,205.98L141.94,202.65L142.62,201.87L146.69,200.3L147.37,199.52L148.73,198.15L149.41,198.15L153.48,197.56L154.16,197.37L157.56,196.78L158.24,196.19L160.95,195.21L161.63,195.02L162.99,194.62L163.67,194.23L169.1,193.84L169.78,193.45L179.97,190.9L180.65,190.9L183.36,190.9L184.04,188.55L185.4,188.55L186.08,186.6L186.76,186.4L187.44,188.55L188.8,185.62L189.48,185.23L191.51,182.09L192.19,181.5L194.91,180.53L195.59,180.13L196.27,179.74L196.95,178.37L199.66,173.67L200.34,173.67L201.02,173.48L201.7,172.3L204.42,170.15L205.1,168.39L207.13,164.47L207.81,164.08L209.85,159.97L210.53,158.2L212.57,157.62L213.25,157.22L215.28,153.5L215.96,151.74L218.68,148.02L219.36,145.67L221.4,140.97L222.08,140.58L222.75,140.38L223.43,137.64L230.22,127.07L230.9,126.68L231.58,126.29L232.26,124.92L234.3,121.78L234.98,120.61L236.34,119.82L237.02,119.82L238.37,117.48L239.05,116.89L241.09,115.13L241.77,114.93L246.52,111.8L247.2,111.4L248.56,110.43L249.24,110.03L251.28,109.64L251.96,109.06L256.03,106.31L256.71,105.73L260.11,103.77L260.79,103.77L262.14,103.18L262.82,102.99L264.18,102.4L264.86,102.4L277.08,98.29L277.76,97.89L279.12,97.5L279.8,94.96L283.2,94.37L283.88,94.17L286.59,93.59L287.27,93.39L292.03,92.8L292.7,92.61L294.74,92.02L295.42,91.82L296.1,91.82" style="vector-effect: non-scaling-stroke; fill: none; stroke: rgb(255, 225, 25); stroke-opacity: 1; stroke-width: 2px; opacity: 1;"/></g><g class="points"/><g class="text"/></g><g class="trace scatter trace45907a" style="stroke-miterlimit: 2; opacity: 1;"><g class="fills"/><g class="errorbars"/><g class="lines"><path class="js-line" d="M0,256.5L48.22,255.91L48.9,255.72L55.69,254.35L56.37,253.17L57.05,253.17L57.73,252.39L62.48,250.63L63.16,249.84L65.88,249.45L66.55,248.86L67.91,246.51L68.59,246.32L71.99,244.75L72.67,244.36L74.02,243.38L74.7,243.38L79.46,241.42L80.14,241.03L82.17,240.84L82.85,239.07L88.97,238.49L89.64,237.31L95.76,235.94L96.44,235.94L105.26,235.55L105.94,234.77L116.13,234.18L116.81,233.79L120.88,233.39L121.56,233L126.32,232.42L127,232.22L131.07,230.65L131.75,230.65L133.11,229.67L133.79,229.67L135.83,229.28L136.5,229.28L145.33,227.32L146.01,227.32L150.09,226.93L150.77,226.93L156.2,225.95L156.88,225.95L160.95,224.78L161.63,223.6L167.07,223.21L167.74,222.23L177.25,221.65L177.93,221.45L186.08,221.06L186.76,220.86L190.84,220.28L191.51,220.08L198.31,219.49L198.98,219.3L203.74,218.51L204.42,218.51L208.49,217.93L209.17,216.16L210.53,216.16L211.21,213.23L212.57,213.03L213.25,211.66L224.11,205.98L224.79,205.98L227.51,205.59L228.19,203.63L229.55,202.06L230.22,202.26L230.9,201.87L231.58,200.11L232.94,197.56L233.62,192.67L234.3,192.67L234.98,189.14L237.69,185.62L238.37,182.68L241.09,182.09L241.77,181.7L243.13,180.53L243.81,179.16L245.17,178.18L245.84,175.63L247.88,172.5L248.56,172.3L251.96,168.39L252.64,168.19L253.99,167.99L254.67,165.25L260.11,165.06L260.79,163.69L261.46,161.14L262.14,151.15L263.5,101.61L264.18,101.42L265.54,99.46L266.22,97.89L270.29,94.76L270.97,93L276.41,91.43L277.08,91.43L285.91,91.24L286.59,86.93L290.67,86.54L291.35,83.99L293.38,83.99L294.06,83.21L296.1,83.01" style="vector-effect: non-scaling-stroke; fill: none; stroke: rgb(67, 99, 216); stroke-opacity: 1; stroke-width: 2px; opacity: 1;"/></g><g class="points"/><g class="text"/></g><g class="trace scatter trace1b88f6" style="stroke-miterlimit: 2; opacity: 1;"><g class="fills"/><g class="errorbars"/><g class="lines"><path class="js-line" d="M0,256.5L98.47,255.91L99.15,255.72L119.53,255.13L120.21,254.93L129.71,254.54L130.39,254.15L133.79,253.56L134.47,253.17L136.5,252.78L137.18,252.58L150.09,252L150.77,251.8L154.16,251.41L154.84,251.41L157.56,251.21L158.24,250.63L160.95,250.43L161.63,250.43L171.82,249.84L172.5,249.26L185.4,248.67L186.08,248.47L190.16,248.08L190.84,248.08L196.27,247.69L196.95,247.3L200.34,246.91L201.02,246.51L213.93,245.93L214.6,245.34L221.4,244.75L222.08,244.56L226.83,243.97L227.51,243.77L228.87,243.18L229.55,243.18L239.05,242.6L239.73,242.4L241.77,242.21L242.45,240.64L245.84,240.25L246.52,240.25L247.88,237.11L248.56,236.33L249.92,235.55L250.6,235.55L252.64,231.63L253.31,226.93L253.99,226.93L254.67,225.95L255.35,225.95L256.03,225.17L257.39,222.04L258.07,221.45L260.79,220.86L261.46,218.71L263.5,217.14L264.18,217.14L265.54,217.14L266.22,216.36L269.61,215.77L270.29,215.58L273.69,215.18L274.37,215.18L279.12,214.6L279.8,214.6L283.2,214.21L283.88,214.21L295.42,213.62L296.1,212.83" style="vector-effect: non-scaling-stroke; fill: none; stroke: rgb(245, 130, 49); stroke-opacity: 1; stroke-width: 2px; opacity: 1;"/></g><g class="points"/><g class="text"/></g><g class="trace scatter tracec22327" style="stroke-miterlimit: 2; opacity: 1;"><g class="fills"/><g class="errorbars"/><g class="lines"><path class="js-line" d="M0,256.5L44.14,255.91L44.82,255.72L47.54,255.52L48.22,254.74L52.29,253.17L52.97,252.58L59.08,250.82L59.76,249.45L60.44,249.45L61.12,248.08L65.2,246.91L65.88,245.73L67.23,238.09L67.91,238.09L69.95,238.09L70.63,233.59L71.31,232.61L71.99,226.74L76.06,224.78L76.74,223.02L79.46,223.02L80.14,222.04L82.85,217.93L83.53,217.73L85.57,216.75L86.25,216.16L89.64,214.79L90.32,213.42L92.36,211.27L93.04,211.07L93.72,211.07L94.4,210.29L97.12,209.31L97.79,209.31L102.55,207.16L103.23,207.16L106.62,204.61L107.3,204.61L121.56,200.69L122.24,200.69L124.96,199.91L125.64,199.91L137.18,199.32L137.86,199.13L141.94,198.54L142.62,198.54L148.05,197.95L148.73,197.76L159.6,197.37L160.27,196.97L177.93,196.58L178.61,195.99L190.84,195.41L191.51,195.21L193.55,194.82L194.23,194.82L196.27,194.43L196.95,194.04L202.38,193.45L203.06,193.25L206.46,192.67L207.13,192.47L213.93,190.51L214.6,189.92L216.64,188.95L217.32,188.75L219.36,187.57L220.04,186.6L221.4,186.01L222.08,186.01L224.79,183.07L225.47,181.9L228.19,179.16L228.87,177.59L232.26,175.04L232.94,172.89L234.98,170.74L235.66,170.74L236.34,170.54L237.02,168.39L239.73,162.51L240.41,162.32L241.09,162.32L241.77,161.53L243.81,158.01L244.49,157.42L245.84,156.44L246.52,156.44L248.56,150.37L249.24,149.98L250.6,149.59L251.28,149L251.96,148.41L252.64,146.65L256.03,144.3L256.71,144.11L258.07,142.54L258.75,141.36L260.11,140.97L260.79,139.21L264.18,136.86L264.86,136.86L265.54,136.86L266.22,135.49L268.26,132.94L268.93,132.94L270.97,132.36L271.65,131.38L273.01,130.59L273.69,130.4L274.37,130.4L275.05,129.62L285.91,126.09L286.59,125.7L289.31,125.11L289.99,124.72L293.38,124.13L294.06,123.94L296.1,123.55" style="vector-effect: non-scaling-stroke; fill: none; stroke: rgb(145, 30, 180); stroke-opacity: 1; stroke-width: 2px; opacity: 1;"/></g><g class="points"/><g class="text"/></g></g></g><g class="overplot"/><path class="xlines-above crisp" d="M0,0" style="fill: none;"/><path class="ylines-above crisp" d="M0,0" style="fill: none;"/><g class="overlines-above"/><g class="xaxislayer-above"><g class="x2tick"><text text-anchor="middle" x="0" y="383" transform="translate(489.44000000000005,0)" style="font-family: 'Open Sans', verdana, arial, sans-serif; font-size: 12px; fill: rgb(242, 245, 250); fill-opacity: 1; white-space: pre;">Apr 2020</text></g><g class="x2tick"><text text-anchor="middle" x="0" y="383" transform="translate(551.24,0)" style="font-family: 'Open Sans', verdana, arial, sans-serif; font-size: 12px; fill: rgb(242, 245, 250); fill-opacity: 1; white-space: pre;">Jul 2020</text></g><g class="x2tick"><text text-anchor="middle" x="0" y="383" transform="translate(613.72,0)" style="font-family: 'Open Sans', verdana, arial, sans-serif; font-size: 12px; fill: rgb(242, 245, 250); fill-opacity: 1; white-space: pre;">Oct 2020</text></g><g class="x2tick"><text text-anchor="middle" x="0" y="383" transform="translate(676.2,0)" style="font-family: 'Open Sans', verdana, arial, sans-serif; font-size: 12px; fill: rgb(242, 245, 250); fill-opacity: 1; white-space: pre;">Jan 2021</text></g><g class="x2tick"><text text-anchor="middle" x="0" y="383" transform="translate(737.32,0)" style="font-family: 'Open Sans', verdana, arial, sans-serif; font-size: 12px; fill: rgb(242, 245, 250); fill-opacity: 1; white-space: pre;">Apr 2021</text></g></g><g class="yaxislayer-above"><g class="y2tick"><text text-anchor="end" x="440.90000000000003" y="4.199999999999999" transform="translate(0,356.5)" style="font-family: 'Open Sans', verdana, arial, sans-serif; font-size: 12px; fill: rgb(242, 245, 250); fill-opacity: 1; white-space: pre;">0</text></g><g class="y2tick"><text text-anchor="end" x="440.90000000000003" y="4.199999999999999" transform="translate(0,317.34000000000003)" style="font-family: 'Open Sans', verdana, arial, sans-serif; font-size: 12px; fill: rgb(242, 245, 250); fill-opacity: 1; white-space: pre;">200</text></g><g class="y2tick"><text text-anchor="end" x="440.90000000000003" y="4.199999999999999" transform="translate(0,278.18)" style="font-family: 'Open Sans', verdana, arial, sans-serif; font-size: 12px; fill: rgb(242, 245, 250); fill-opacity: 1; white-space: pre;">400</text></g><g class="y2tick"><text text-anchor="end" x="440.90000000000003" y="4.199999999999999" transform="translate(0,239.01)" style="font-family: 'Open Sans', verdana, arial, sans-serif; font-size: 12px; fill: rgb(242, 245, 250); fill-opacity: 1; white-space: pre;">600</text></g><g class="y2tick"><text text-anchor="end" x="440.90000000000003" y="4.199999999999999" transform="translate(0,199.85)" style="font-family: 'Open Sans', verdana, arial, sans-serif; font-size: 12px; fill: rgb(242, 245, 250); fill-opacity: 1; white-space: pre;">800</text></g><g class="y2tick"><text text-anchor="end" x="440.90000000000003" y="4.199999999999999" transform="translate(0,160.69)" style="font-family: 'Open Sans', verdana, arial, sans-serif; font-size: 12px; fill: rgb(242, 245, 250); fill-opacity: 1; white-space: pre;">1000</text></g><g class="y2tick"><text text-anchor="end" x="440.90000000000003" y="4.199999999999999" transform="translate(0,121.53)" style="font-family: 'Open Sans', verdana, arial, sans-serif; font-size: 12px; fill: rgb(242, 245, 250); fill-opacity: 1; white-space: pre;">1200</text></g></g><g class="overaxes-above"/></g></g><g class="polarlayer"/><g class="ternarylayer"/><g class="geolayer"/><g class="funnelarealayer"/><g class="pielayer"/><g class="treemaplayer"/><g class="sunburstlayer"/><g class="glimages"/><defs id="topdefs-e47f3f"><g class="clips"/><clipPath id="legende47f3f"><rect width="137" height="124" x="0" y="0"/></clipPath></defs><g class="layer-above"><g class="imagelayer"/><g class="shapelayer"/></g><g class="infolayer"><g class="legend" pointer-events="all" transform="translate(751.16, 100)"><rect class="bg" shape-rendering="crispEdges" width="137" height="124" x="0" y="0" style="stroke: rgb(68, 68, 68); stroke-opacity: 1; fill: rgb(17, 17, 17); fill-opacity: 1; stroke-width: 0px;"/><g class="scrollbox" transform="translate(0, 0)" clip-path="url('#legende47f3f')"><g class="groups"><g class="traces" transform="translate(0, 14.5)" style="opacity: 1;"><text class="legendtext user-select-none" text-anchor="start" x="40" y="4.680000000000001" style="font-family: 'Open Sans', verdana, arial, sans-serif; font-size: 12px; fill: rgb(242, 245, 250); fill-opacity: 1; white-space: pre;">Alameda, CA</text><g class="layers" style="opacity: 1;"><g class="legendfill"/><g class="legendlines"><path class="js-line" d="M5,0h30" style="fill: none; stroke: rgb(230, 25, 75); stroke-opacity: 1; stroke-width: 2px;"/></g><g class="legendsymbols"><g class="legendpoints"/></g></g><rect class="legendtoggle" pointer-events="all" x="0" y="-9.5" width="131.15625" height="19" style="cursor: pointer; fill: rgb(0, 0, 0); fill-opacity: 0;"/></g><g class="traces" transform="translate(0, 33.5)" style="opacity: 1;"><text class="legendtext user-select-none" text-anchor="start" x="40" y="4.680000000000001" style="font-family: 'Open Sans', verdana, arial, sans-serif; font-size: 12px; fill: rgb(242, 245, 250); fill-opacity: 1; white-space: pre;">Anderson, TN</text><g class="layers" style="opacity: 1;"><g class="legendfill"/><g class="legendlines"><path class="js-line" d="M5,0h30" style="fill: none; stroke: rgb(60, 180, 75); stroke-opacity: 1; stroke-width: 2px;"/></g><g class="legendsymbols"><g class="legendpoints"/></g></g><rect class="legendtoggle" pointer-events="all" x="0" y="-9.5" width="131.15625" height="19" style="cursor: pointer; fill: rgb(0, 0, 0); fill-opacity: 0;"/></g><g class="traces" transform="translate(0, 52.5)" style="opacity: 1;"><text class="legendtext user-select-none" text-anchor="start" x="40" y="4.680000000000001" style="font-family: 'Open Sans', verdana, arial, sans-serif; font-size: 12px; fill: rgb(242, 245, 250); fill-opacity: 1; white-space: pre;">Ramsey, MN</text><g class="layers" style="opacity: 1;"><g class="legendfill"/><g class="legendlines"><path class="js-line" d="M5,0h30" style="fill: none; stroke: rgb(255, 225, 25); stroke-opacity: 1; stroke-width: 2px;"/></g><g class="legendsymbols"><g class="legendpoints"/></g></g><rect class="legendtoggle" pointer-events="all" x="0" y="-9.5" width="131.15625" height="19" style="cursor: pointer; fill: rgb(0, 0, 0); fill-opacity: 0;"/></g><g class="traces" transform="translate(0, 71.5)" style="opacity: 1;"><text class="legendtext user-select-none" text-anchor="start" x="40" y="4.680000000000001" style="font-family: 'Open Sans', verdana, arial, sans-serif; font-size: 12px; fill: rgb(242, 245, 250); fill-opacity: 1; white-space: pre;">Stark, OH</text><g class="layers" style="opacity: 1;"><g class="legendfill"/><g class="legendlines"><path class="js-line" d="M5,0h30" style="fill: none; stroke: rgb(67, 99, 216); stroke-opacity: 1; stroke-width: 2px;"/></g><g class="legendsymbols"><g class="legendpoints"/></g></g><rect class="legendtoggle" pointer-events="all" x="0" y="-9.5" width="131.15625" height="19" style="cursor: pointer; fill: rgb(0, 0, 0); fill-opacity: 0;"/></g><g class="traces" transform="translate(0, 90.5)" style="opacity: 1;"><text class="legendtext user-select-none" text-anchor="start" x="40" y="4.680000000000001" style="font-family: 'Open Sans', verdana, arial, sans-serif; font-size: 12px; fill: rgb(242, 245, 250); fill-opacity: 1; white-space: pre;">Lauderdale, AL</text><g class="layers" style="opacity: 1;"><g class="legendfill"/><g class="legendlines"><path class="js-line" d="M5,0h30" style="fill: none; stroke: rgb(245, 130, 49); stroke-opacity: 1; stroke-width: 2px;"/></g><g class="legendsymbols"><g class="legendpoints"/></g></g><rect class="legendtoggle" pointer-events="all" x="0" y="-9.5" width="131.15625" height="19" style="cursor: pointer; fill: rgb(0, 0, 0); fill-opacity: 0;"/></g><g class="traces" transform="translate(0, 109.5)" style="opacity: 1;"><text class="legendtext user-select-none" text-anchor="start" x="40" y="4.680000000000001" style="font-family: 'Open Sans', verdana, arial, sans-serif; font-size: 12px; fill: rgb(242, 245, 250); fill-opacity: 1; white-space: pre;">Northampton, PA</text><g class="layers" style="opacity: 1;"><g class="legendfill"/><g class="legendlines"><path class="js-line" d="M5,0h30" style="fill: none; stroke: rgb(145, 30, 180); stroke-opacity: 1; stroke-width: 2px;"/></g><g class="legendsymbols"><g class="legendpoints"/></g></g><rect class="legendtoggle" pointer-events="all" x="0" y="-9.5" width="131.15625" height="19" style="cursor: pointer; fill: rgb(0, 0, 0); fill-opacity: 0;"/></g></g></g><rect class="scrollbar" rx="20" ry="3" width="0" height="0" x="0" y="0" style="fill: rgb(128, 139, 164); fill-opacity: 1;"/></g><g class="g-gtitle"/><g class="g-xtitle"><text class="xtitle" x="228.05" y="410.8" text-anchor="middle" style="font-family: 'Open Sans', verdana, arial, sans-serif; font-size: 14px; fill: rgb(242, 245, 250); opacity: 1; font-weight: normal; white-space: pre;">Date</text></g><g class="g-x2title"><text class="x2title" x="589.95" y="410.8" text-anchor="middle" style="font-family: 'Open Sans', verdana, arial, sans-serif; font-size: 14px; fill: rgb(242, 245, 250); opacity: 1; font-weight: normal; white-space: pre;">Date</text></g><g class="g-ytitle"><text class="ytitle" transform="rotate(-90,34.840625,235)" x="34.840625" y="235" text-anchor="middle" style="font-family: 'Open Sans', verdana, arial, sans-serif; font-size: 14px; fill: rgb(242, 245, 250); opacity: 1; font-weight: normal; white-space: pre;">Cases</text></g><g class="g-y2title"><text class="y2title" transform="rotate(-90,389.403125,235)" x="389.403125" y="235" text-anchor="middle" style="font-family: 'Open Sans', verdana, arial, sans-serif; font-size: 14px; fill: rgb(242, 245, 250); opacity: 1; font-weight: normal; white-space: pre;">Deaths</text></g><g class="annotation" data-index="0" style="opacity: 1;"><g class="annotation-text-g" transform="rotate(0,228.05,89.5)"><g class="cursor-pointer" transform="translate(204, 79)"><rect class="bg" x="0.5" y="0.5" width="48" height="20" style="stroke-width: 1px; stroke: rgb(0, 0, 0); stroke-opacity: 0; fill: rgb(0, 0, 0); fill-opacity: 0;"/><text class="annotation-text" text-anchor="middle" x="24.6875" y="16" style="font-family: 'Open Sans', verdana, arial, sans-serif; font-size: 16px; fill: rgb(242, 245, 250); fill-opacity: 1; white-space: pre;">Cases</text></g></g></g><g class="annotation" data-index="1" style="opacity: 1;"><g class="annotation-text-g" transform="rotate(0,589.95,89.5)"><g class="cursor-pointer" transform="translate(562, 79)"><rect class="bg" x="0.5" y="0.5" width="54" height="20" style="stroke-width: 1px; stroke: rgb(0, 0, 0); stroke-opacity: 0; fill: rgb(0, 0, 0); fill-opacity: 0;"/><text class="annotation-text" text-anchor="middle" x="27.359375" y="16" style="font-family: 'Open Sans', verdana, arial, sans-serif; font-size: 16px; fill: rgb(242, 245, 250); fill-opacity: 1; white-space: pre;">Deaths</text></g></g></g></g></svg>