<svg class="main-svg" xmlns="http://www.w3.org/2000/svg" xmlns:xlink="http://www.w3.org/1999/xlink" width="900" height="450" style="" viewBox="0 0 900 450"><rect x="0" y="0" width="900" height="450" style="fill: rgb(17, 17, 17); fill-opacity: 1;"/><defs id="defs-0c1928"><g class="clips"><clipPath id="clip0c1928xyplot" class="plotclip"><rect width="299.7" height="270"/></clipPath><clipPath id="clip0c1928x2y2plot" class="plotclip"><rect width="299.7" height="270"/></clipPath><clipPath class="axesclip" id="clip0c1928x"><rect x="80" y="0" width="299.7" height="450"/></clipPath><clipPath class="axesclip" id="clip0c1928y"><rect x="0" y="100" width="900" height="270"/></clipPath><clipPath class="axesclip" id="clip0c1928xy"><rect x="80" y="100" width="299.7" height="270"/></clipPath><clipPath class="axesclip" id="clip0c1928y2"><rect x="0" y="100" width="900" height="270"/></clipPath><clipPath class="axesclip" id="clip0c1928xy2"><rect x="80" y="100" width="299.7" height="270"/></clipPath><clipPath class="axesclip" id="clip0c1928x2"><rect x="446.3" y="0" width="299.7" height="450"/></clipPath><clipPath class="axesclip" id="clip0c1928x2y"><rect x="446.3" y="100" width="299.7" height="270"/></clipPath><clipPath class="axesclip" id="clip0c1928x2y2"><rect x="446.3" y="100" width="299.7" height="270"/></clipPath></g><g class="gradients"/></defs><g class="bglayer"/><g class="layer-below"><g class="imagelayer"/><g class="shapelayer"/></g><g class="cartesianlayer"><g class="subplot xy"><g class="layer-subplot"><g class="shapelayer"/><g class="imagelayer"/></g><g class="gridlayer"><g class="x"><path class="xgrid crisp" transform="translate(123.78,0)" d="M0,100v270" style="stroke: rgb(40, 52, 66); stroke-opacity: 1; stroke-width: 1px;"/><path class="xgrid crisp" transform="translate(192.25,0)" d="M0,100v270" style="stroke: rgb(40, 52, 66); stroke-opacity: 1; stroke-width: 1px;"/><path class="xgrid crisp" transform="translate(260.72,0)" d="M0,100v270" style="stroke: rgb(40, 52, 66); stroke-opacity: 1; stroke-width: 1px;"/><path class="xgrid crisp" transform="translate(330.31,0)" d="M0,100v270" style="stroke: rgb(40, 52, 66); stroke-opacity: 1; stroke-width: 1px;"/></g><g class="y"><path class="ygrid crisp" transform="translate(0,302.19)" d="M80,0h299.7" style="stroke: rgb(40, 52, 66); stroke-opacity: 1; stroke-width: 1px;"/><path class="ygrid crisp" transform="translate(0,247.87)" d="M80,0h299.7" style="stroke: rgb(40, 52, 66); stroke-opacity: 1; stroke-width: 1px;"/><path class="ygrid crisp" transform="translate(0,193.56)" d="M80,0h299.7" style="stroke: rgb(40, 52, 66); stroke-opacity: 1; stroke-width: 1px;"/><path class="ygrid crisp" transform="translate(0,139.24)" d="M80,0h299.7" style="stroke: rgb(40, 52, 66); stroke-opacity: 1; stroke-width: 1px;"/></g></g><g class="zerolinelayer"><path class="yzl zl crisp" transform="translate(0,356.5)" d="M80,0h299.7" style="stroke: rgb(40, 52, 66); stroke-opacity: 1; stroke-width: 2px;"/></g><path class="xlines-below"/><path class="ylines-below"/><g class="overlines-below"/><g class="xaxislayer-below"/><g class="yaxislayer-below"/><g class="overaxes-below"/><g class="plot" transform="translate(80, 100)" clip-path="url('#clip0c1928xyplot')"><g class="scatterlayer mlayer"><g class="trace scatter tracec1af28" style="stroke-miterlimit: 2; opacity: 1;"><g class="fills"/><g class="errorbars"/><g class="lines"><path class="js-line" d="M0,256.5L66.23,255.79L67.35,255.35L72.96,254.11L74.08,253.72L78.57,252.6L79.7,252.2L90.92,247.34L92.04,246.9L93.17,246.9L94.29,246.05L111.12,239.09L112.25,238.73L115.61,237.21L116.74,236.85L139.19,225.28L140.31,224.06L144.8,220.77L145.92,219.68L154.9,213.65L156.02,213.21L158.27,211.76L159.39,210.7L165,207.26L166.13,206.12L169.49,204.3L170.62,202.11L176.23,195.58L177.35,194.91L178.47,193.91L179.6,191.71L182.96,186.2L184.09,185.28L185.21,182.04L186.33,181.69L187.45,181.69L188.58,177.8L191.94,172.59L193.07,172.59L196.43,164.41L197.56,162.79L200.92,156.16L202.04,155.95L203.17,154.57L204.29,151.75L207.66,144.29L208.78,143.85L209.9,143.11L211.02,141L212.15,139.48L213.27,135.59L214.39,135.59L215.51,131.75L216.64,131.32L217.76,127.82L218.88,127.14L220,124.67L223.37,124.67L224.49,113.12L225.62,112.92L226.74,108.07L227.86,103.35L228.98,101.93L230.11,98.36L231.23,98.36L232.35,92.22L233.47,92.15L239.09,75.17L240.21,74.84L241.33,74.73L242.45,68.85L243.58,67.65L244.7,65.09L245.82,62.63L246.94,62.63L254.8,48.68L255.92,48.68L257.05,46.31L258.17,46.31L260.41,42.39L261.54,41.21L262.66,41.02L263.78,39.34L268.27,37.48L269.39,35.29L272.76,32.28L273.88,31.12L281.74,24.87L282.86,24.22L289.6,19.59L290.72,19.2L295.21,15.9L296.33,15.9L298.58,13.99L299.7,13.5" style="vector-effect: non-scaling-stroke; fill: none; stroke: rgb(230, 25, 75); stroke-opacity: 1; stroke-width: 2px; opacity: 1;"/></g><g class="points"/><g class="text"/></g><g class="trace scatter trace791bcb" style="stroke-miterlimit: 2; opacity: 1;"><g class="fills"/><g class="errorbars"/><g class="lines"><path class="js-line" d="M0,256.5L246.94,255.8L248.07,255.72L255.92,255.19L257.05,254.77L269.39,253.44L270.52,253.24L273.88,252.76L275.01,252.29L294.09,247.87L295.21,247.87L299.7,247.46" style="vector-effect: non-scaling-stroke; fill: none; stroke: rgb(60, 180, 75); stroke-opacity: 1; stroke-width: 2px; opacity: 1;"/></g><g class="points"/><g class="text"/></g><g class="trace scatter trace7ee956" style="stroke-miterlimit: 2; opacity: 1;"><g class="fills"/><g class="errorbars"/><g class="lines"><path class="js-line" d="M0,256.5L114.49,255.75L115.61,255.74L142.55,255.52L143.68,255.52L206.53,254.4L207.66,254.26L224.49,253.02L225.62,253L261.54,251.01L262.66,250.82L267.15,250.33L268.27,250.03L299.7,246.66" style="vector-effect: non-scaling-stroke; fill: none; stroke: rgb(255, 225, 25); stroke-opacity: 1; stroke-width: 2px; opacity: 1;"/></g><g class="points"/><g class="text"/></g><g class="trace scatter trace48c17e" style="stroke-miterlimit: 2; opacity: 1;"><g class="fills"/><g class="errorbars"/><g class="lines"><path class="js-line" d="M0,256.5L117.86,255.85L118.98,255.32L138.06,254.02L139.19,254.02L221.13,253.28L222.25,253.24L260.41,252.27L261.54,252.24L289.6,251.62L290.72,251.13L296.33,250.28L297.46,249.99L299.7,249.73" style="vector-effect: non-scaling-stroke; fill: none; stroke: rgb(67, 99, 216); stroke-opacity: 1; stroke-width: 2px; opacity: 1;"/></g><g class="points"/><g class="text"/></g><g class="trace scatter trace06ecdb" style="stroke-miterlimit: 2; opacity: 1;"><g class="fills"/><g class="errorbars"/><g class="lines"><path class="js-line" d="M0,256.5L68.47,255.84L69.59,255.67L175.11,249.41L176.23,249.21L181.84,248.47L182.96,248.37L194.19,245.89L195.31,245.5L199.8,244.21L200.92,244.14L204.29,243.31L205.41,242.9L218.88,238.3L220,237.65L228.98,235.12L230.11,234.79L240.21,232.17L241.33,231.99L248.07,230.15L249.19,230.09L286.23,223.91L287.35,223.84L292.97,222.75L294.09,222.5L299.7,221.12" style="vector-effect: non-scaling-stroke; fill: none; stroke: rgb(245, 130, 49); stroke-opacity: 1; stroke-width: 2px; opacity: 1;"/></g><g class="points"/><g class="text"/></g><g class="trace scatter trace43998b" style="stroke-miterlimit: 2; opacity: 1;"><g class="fills"/><g class="errorbars"/><g class="lines"><path class="js-line" d="M0,256.5L101.02,255.75L102.14,255.74L190.82,254.57L191.94,254.39L203.17,253.47L204.29,253.37L220,251.82L221.13,251.45L226.74,250.4L227.86,250.18L240.21,249.35L241.33,249.32L277.25,247.94L278.37,247.87L299.7,246.73" style="vector-effect: non-scaling-stroke; fill: none; stroke: rgb(145, 30, 180); stroke-opacity: 1; stroke-width: 2px; opacity: 1;"/></g><g class="points"/><g class="text"/></g></g></g><g class="overplot"/><path class="xlines-above crisp" d="M0,0" style="fill: none;"/><path class="ylines-above crisp" d="M0,0" style="fill: none;"/><g class="overlines-above"/><g class="xaxislayer-above"><g class="xtick"><text text-anchor="middle" x="0" y="383" transform="translate(123.78,0)" style="font-family: 'Open Sans', verdana, arial, sans-serif; font-size: 12px; fill: rgb(242, 245, 250); fill-opacity: 1; white-space: pre;">Mar 2020</text></g><g class="xtick"><text text-anchor="middle" x="0" y="383" transform="translate(192.25,0)" style="font-family: 'Open Sans', verdana, arial, sans-serif; font-size: 12px; fill: rgb(242, 245, 250); fill-opacity: 1; white-space: pre;">May 2020</text></g><g class="xtick"><text text-anchor="middle" x="0" y="383" transform="translate(260.72,0)" style="font-family: 'Open Sans', verdana, arial, sans-serif; font-size: 12px; fill: rgb(242, 245, 250); fill-opacity: 1; white-space: pre;">Jul 2020</text></g><g class="xtick"><text text-anchor="middle" x="0" y="383" transform="translate(330.31,0)" style="font-family: 'Open Sans', verdana, arial, sans-serif; font-size: 12px; fill: rgb(242, 245, 250); fill-opacity: 1; white-space: pre;">Sep 2020</text></g></g><g class="yaxislayer-above"><g class="ytick"><text text-anchor="end" x="79" y="4.199999999999999" transform="translate(0,356.5)" style="font-family: 'Open Sans', verdana, arial, sans-serif; font-size: 12px; fill: rgb(242, 245, 250); fill-opacity: 1; white-space: pre;">0</text></g><g class="ytick"><text text-anchor="end" x="79" y="4.199999999999999" transform="translate(0,302.19)" style="font-family: 'Open Sans', verdana, arial, sans-serif; font-size: 12px; fill: rgb(242, 245, 250); fill-opacity: 1; white-space: pre;">5k</text></g><g class="ytick"><text text-anchor="end" x="79" y="4.199999999999999" transform="translate(0,247.87)" style="font-family: 'Open Sans', verdana, arial, sans-serif; font-size: 12px; fill: rgb(242, 245, 250); fill-opacity: 1; white-space: pre;">10k</text></g><g class="ytick"><text text-anchor="end" x="79" y="4.199999999999999" transform="translate(0,193.56)" style="font-family: 'Open Sans', verdana, arial, sans-serif; font-size: 12px; fill: rgb(242, 245, 250); fill-opacity: 1; white-space: pre;">15k</text></g><g class="ytick"><text text-anchor="end" x="79" y="4.199999999999999" transform="translate(0,139.24)" style="font-family: 'Open Sans', verdana, arial, sans-serif; font-size: 12px; fill: rgb(242, 245, 250); fill-opacity: 1; white-space: pre;">20k</text></g></g><g class="overaxes-above"/></g><g class="subplot x2y2"><g class="layer-subplot"><g class="shapelayer"/><g class="imagelayer"/></g><g class="gridlayer"><g class="x2"><path class="x2grid crisp" transform="translate(490.08000000000004,0)" d="M0,100v270" style="stroke: rgb(40, 52, 66); stroke-opacity: 1; stroke-width: 1px;"/><path class="x2grid crisp" transform="translate(558.55,0)" d="M0,100v270" style="stroke: rgb(40, 52, 66); stroke-opacity: 1; stroke-width: 1px;"/><path class="x2grid crisp" transform="translate(627.02,0)" d="M0,100v270" style="stroke: rgb(40, 52, 66); stroke-opacity: 1; stroke-width: 1px;"/><path class="x2grid crisp" transform="translate(696.61,0)" d="M0,100v270" style="stroke: rgb(40, 52, 66); stroke-opacity: 1; stroke-width: 1px;"/></g><g class="y2"><path class="y2grid crisp" transform="translate(0,300.38)" d="M446.3,0h299.7" style="stroke: rgb(40, 52, 66); stroke-opacity: 1; stroke-width: 1px;"/><path class="y2grid crisp" transform="translate(0,244.26)" d="M446.3,0h299.7" style="stroke: rgb(40, 52, 66); stroke-opacity: 1; stroke-width: 1px;"/><path class="y2grid crisp" transform="translate(0,188.14)" d="M446.3,0h299.7" style="stroke: rgb(40, 52, 66); stroke-opacity: 1; stroke-width: 1px;"/><path class="y2grid crisp" transform="translate(0,132.02)" d="M446.3,0h299.7" style="stroke: rgb(40, 52, 66); stroke-opacity: 1; stroke-width: 1px;"/></g></g><g class="zerolinelayer"><path class="y2zl zl crisp" transform="translate(0,356.5)" d="M446.3,0h299.7" style="stroke: rgb(40, 52, 66); stroke-opacity: 1; stroke-width: 2px;"/></g><path class="xlines-below"/><path class="ylines-below"/><g class="overlines-below"/><g class="xaxislayer-below"/><g class="yaxislayer-below"/><g class="overaxes-below"/><g class="plot" transform="translate(446.3, 100)" clip-path="url('#clip0c1928x2y2plot')"><g class="scatterlayer mlayer"><g class="trace scatter tracef3ede2" style="stroke-miterlimit: 2; opacity: 1;"><g class="fills"/><g class="errorbars"/><g class="lines"><path class="js-line" d="M0,256.5L68.47,255.94L69.59,255.38L70.72,255.38L71.84,254.26L72.96,254.26L74.08,253.13L76.33,252.57L77.45,252.57L79.7,251.45L80.82,249.77L84.19,249.2L85.31,248.08L87.55,246.96L88.68,245.28L92.04,243.59L93.17,243.59L94.29,236.3L95.41,234.61L96.53,234.61L97.66,233.49L103.27,230.68L104.39,229.56L105.51,227.32L106.63,227.32L107.76,227.32L108.88,225.63L113.37,221.14L114.49,221.14L115.61,221.14L116.74,219.46L118.98,218.9L120.1,217.22L122.35,216.65L123.47,216.65L127.96,210.48L129.08,209.92L131.33,209.92L132.45,208.24L134.7,205.99L135.82,205.99L138.06,204.31L139.19,204.31L142.55,203.75L143.68,203.19L147.04,202.62L148.17,202.06L150.41,202.06L151.53,199.82L156.02,199.26L157.15,197.57L159.39,195.33L160.51,195.33L161.64,193.65L162.76,193.65L163.88,193.65L165,191.4L168.37,190.28L169.49,190.28L170.62,189.16L171.74,189.16L172.86,188.03L173.98,184.67L175.11,183.54L176.23,183.54L177.35,181.86L178.47,181.86L182.96,177.93L184.09,177.93L187.45,177.93L188.58,176.81L189.7,174.56L190.82,174L193.07,173.44L194.19,173.44L196.43,170.08L197.56,170.08L198.68,166.15L199.8,165.59L202.04,165.59L203.17,162.78L206.53,156.61L207.66,156.61L209.9,156.61L211.02,154.92L214.39,154.36L215.51,150.43L217.76,150.43L218.88,148.75L221.13,148.19L222.25,148.19L223.37,148.19L224.49,141.45L226.74,141.45L227.86,137.53L230.11,133.6L231.23,133.6L232.35,132.47L233.47,132.47L237.96,125.74L239.09,125.74L241.33,125.18L242.45,121.81L245.82,117.88L246.94,117.88L248.07,112.27L249.19,112.27L250.31,112.27L251.43,102.73L252.56,90.95L253.68,90.38L254.8,88.7L255.92,88.7L258.17,88.14L259.29,86.46L260.41,86.46L261.54,76.92L262.66,76.92L263.78,70.18L264.9,69.62L266.03,56.71L267.15,56.71L268.27,51.66L270.52,46.61L271.64,46.61L272.76,46.61L273.88,37.63L277.25,29.77L278.37,28.65L280.62,28.65L281.74,27.53L282.86,25.29L283.99,20.8L285.11,20.8L286.23,17.99L288.48,17.99L289.6,16.87L290.72,14.62L291.84,14.62L297.46,14.62L298.58,13.5L299.7,13.5" style="vector-effect: non-scaling-stroke; fill: none; stroke: rgb(230, 25, 75); stroke-opacity: 1; stroke-width: 2px; opacity: 1;"/></g><g class="points"/><g class="text"/></g><g class="trace scatter trace1b3f45" style="stroke-miterlimit: 2; opacity: 1;"><g class="fills"/><g class="errorbars"/><g class="lines"><path class="js-line" d="M0,256.5L281.74,255.94L282.86,255.38L285.11,254.82L286.23,254.82L292.97,254.26L294.09,253.69L299.7,253.13" style="vector-effect: non-scaling-stroke; fill: none; stroke: rgb(60, 180, 75); stroke-opacity: 1; stroke-width: 2px; opacity: 1;"/></g><g class="points"/><g class="text"/></g><g class="trace scatter traceb70685" style="stroke-miterlimit: 2; opacity: 1;"><g class="fills"/><g class="errorbars"/><g class="lines"><path class="js-line" d="M0,256.5L95.41,255.94L96.53,254.82L98.78,254.26L99.9,254.26L171.74,253.69L172.86,253.13L230.11,252.57L231.23,252.01L242.45,251.45L243.58,250.89L266.03,250.33L267.15,249.77L294.09,249.77L295.21,248.64L299.7,248.64" style="vector-effect: non-scaling-stroke; fill: none; stroke: rgb(255, 225, 25); stroke-opacity: 1; stroke-width: 2px; opacity: 1;"/></g><g class="points"/><g class="text"/></g><g class="trace scatter trace508fac" style="stroke-miterlimit: 2; opacity: 1;"><g class="fills"/><g class="errorbars"/><g class="lines"><path class="js-line" d="M0,256.5L140.31,255.94L141.43,255.38L150.41,254.82L151.53,254.26L259.29,253.69L260.41,253.13L294.09,253.13L295.21,252.01L299.7,252.01" style="vector-effect: non-scaling-stroke; fill: none; stroke: rgb(67, 99, 216); stroke-opacity: 1; stroke-width: 2px; opacity: 1;"/></g><g class="points"/><g class="text"/></g><g class="trace scatter tracee201a0" style="stroke-miterlimit: 2; opacity: 1;"><g class="fills"/><g class="errorbars"/><g class="lines"><path class="js-line" d="M0,256.5L76.33,255.94L77.45,254.82L83.06,252.57L84.19,250.33L86.43,249.77L87.55,248.08L92.04,247.52L93.17,246.96L95.41,244.15L96.53,244.15L98.78,244.15L99.9,243.03L101.02,241.35L102.14,241.35L106.63,240.79L107.76,240.23L110,239.66L111.12,239.66L113.37,239.1L114.49,239.1L122.35,239.1L123.47,237.98L126.84,236.86L127.96,236.86L139.19,236.3L140.31,235.17L171.74,234.61L172.86,234.05L173.98,234.05L175.11,232.93L190.82,232.93L191.94,231.81L196.43,231.25L197.56,230.68L202.04,230.68L203.17,229L206.53,227.88L207.66,227.88L208.78,227.88L209.9,225.63L214.39,225.63L215.51,223.39L218.88,222.27L220,222.27L224.49,221.71L225.62,221.14L227.86,220.58L228.98,220.58L236.84,220.02L237.96,219.46L243.58,218.9L244.7,218.34L248.07,217.22L249.19,217.22L250.31,216.09L251.43,216.09L254.8,214.97L255.92,214.97L259.29,214.41L260.41,213.85L266.03,213.29L267.15,211.04L273.88,210.48L275.01,209.36L281.74,208.8L282.86,207.68L290.72,207.11L291.84,206.55L295.21,205.43L296.33,205.43L297.46,205.43L298.58,207.11L299.7,205.43" style="vector-effect: non-scaling-stroke; fill: none; stroke: rgb(245, 130, 49); stroke-opacity: 1; stroke-width: 2px; opacity: 1;"/></g><g class="points"/><g class="text"/></g><g class="trace scatter trace936c52" style="stroke-miterlimit: 2; opacity: 1;"><g class="fills"/><g class="errorbars"/><g class="lines"><path class="js-line" d="M0,256.5L88.68,255.94L89.8,254.82L220,254.26L221.13,253.69L258.17,253.13L259.29,252.57L294.09,252.01L295.21,251.45L299.7,250.89" style="vector-effect: non-scaling-stroke; fill: none; stroke: rgb(145, 30, 180); stroke-opacity: 1; stroke-width: 2px; opacity: 1;"/></g><g class="points"/><g class="text"/></g></g></g><g class="overplot"/><path class="xlines-above crisp" d="M0,0" style="fill: none;"/><path class="ylines-above crisp" d="M0,0" style="fill: none;"/><g class="overlines-above"/><g class="xaxislayer-above"><g class="x2tick"><text text-anchor="middle" x="0" y="383" transform="translate(490.08000000000004,0)" style="font-family: 'Open Sans', verdana, arial, sans-serif; font-size: 12px; fill: rgb(242, 245, 250); fill-opacity: 1; white-space: pre;">Mar 2020</text></g><g class="x2tick"><text text-anchor="middle" x="0" y="383" transform="translate(558.55,0)" style="font-family: 'Open Sans', verdana, arial, sans-serif; font-size: 12px; fill: rgb(242, 245, 250); fill-opacity: 1; white-space: pre;">May 2020</text></g><g class="x2tick"><text text-anchor="middle" x="0" y="383" transform="translate(627.02,0)" style="font-family: 'Open Sans', verdana, arial, sans-serif; font-size: 12px; fill: rgb(242, 245, 250); fill-opacity: 1; white-space: pre;">Jul 2020</text></g><g class="x2tick"><text text-anchor="middle" x="0" y="383" transform="translate(696.61,0)" style="font-family: 'Open Sans', verdana, arial, sans-serif; font-size: 12px; fill: rgb(242, 245, 250); fill-opacity: 1; white-space: pre;">Sep 2020</text></g></g><g class="yaxislayer-above"><g class="y2tick"><text text-anchor="end" x="445.3" y="4.199999999999999" transform="translate(0,356.5)" style="font-family: 'Open Sans', verdana, arial, sans-serif; font-size: 12px; fill: rgb(242, 245, 250); fill-opacity: 1; white-space: pre;">0</text></g><g class="y2tick"><text text-anchor="end" x="445.3" y="4.199999999999999" transform="translate(0,300.38)" style="font-family: 'Open Sans', verdana, arial, sans-serif; font-size: 12px; fill: rgb(242, 245, 250); fill-opacity: 1; white-space: pre;">100</text></g><g class="y2tick"><text text-anchor="end" x="445.3" y="4.199999999999999" transform="translate(0,244.26)" style="font-family: 'Open Sans', verdana, arial, sans-serif; font-size: 12px; fill: rgb(242, 245, 250); fill-opacity: 1; white-space: pre;">200</text></g><g class="y2tick"><text text-anchor="end" x="445.3" y="4.199999999999999" transform="translate(0,188.14)" style="font-family: 'Open Sans', verdana, arial, sans-serif; font-size: 12px; fill: rgb(242, 245, 250); fill-opacity: 1; white-space: pre;">300</text></g><g class="y2tick"><text text-anchor="end" x="445.3" y="4.199999999999999" transform="translate(0,132.02)" style="font-family: 'Open Sans', verdana, arial, sans-serif; font-size: 12px; fill: rgb(242, 245, 250); fill-opacity: 1; white-space: pre;">400</text></g></g><g class="overaxes-above"/></g></g><g class="polarlayer"/><g class="ternarylayer"/><g class="geolayer"/><g class="funnelarealayer"/><g class="pielayer"/><g class="treemaplayer"/><g class="sunburstlayer"/><g class="glimages"/><defs id="topdefs-0c1928"><g class="clips"/><clipPath id="legend0c1928"><rect width="129" height="124" x="0" y="0"/></clipPath></defs><g class="layer-above"><g class="imagelayer"/><g class="shapelayer"/></g><g class="infolayer"><g class="legend" pointer-events="all" transform="translate(759.32, 100)"><rect class="bg" shape-rendering="crispEdges" width="129" height="124" x="0" y="0" style="stroke: rgb(68, 68, 68); stroke-opacity: 1; fill: rgb(17, 17, 17); fill-opacity: 1; stroke-width: 0px;"/><g class="scrollbox" transform="translate(0, 0)" clip-path="url('#legend0c1928')"><g class="groups"><g class="traces" transform="translate(0, 14.5)" style="opacity: 1;"><text class="legendtext user-select-none" text-anchor="start" x="40" y="4.680000000000001" style="font-family: 'Open Sans', verdana, arial, sans-serif; font-size: 12px; fill: rgb(242, 245, 250); fill-opacity: 1; white-space: pre;">Alameda, CA</text><g class="layers" style="opacity: 1;"><g class="legendfill"/><g class="legendlines"><path class="js-line" d="M5,0h30" style="fill: none; stroke: rgb(230, 25, 75); stroke-opacity: 1; stroke-width: 2px;"/></g><g class="legendsymbols"><g class="legendpoints"/></g></g><rect class="legendtoggle" pointer-events="all" x="0" y="-9.5" width="123.171875" height="19" style="cursor: pointer; fill: rgb(0, 0, 0); fill-opacity: 0;"/></g><g class="traces" transform="translate(0, 33.5)" style="opacity: 1;"><text class="legendtext user-select-none" text-anchor="start" x="40" y="4.680000000000001" style="font-family: 'Open Sans', verdana, arial, sans-serif; font-size: 12px; fill: rgb(242, 245, 250); fill-opacity: 1; white-space: pre;">Houghton, MI</text><g class="layers" style="opacity: 1;"><g class="legendfill"/><g class="legendlines"><path class="js-line" d="M5,0h30" style="fill: none; stroke: rgb(60, 180, 75); stroke-opacity: 1; stroke-width: 2px;"/></g><g class="legendsymbols"><g class="legendpoints"/></g></g><rect class="legendtoggle" pointer-events="all" x="0" y="-9.5" width="123.171875" height="19" style="cursor: pointer; fill: rgb(0, 0, 0); fill-opacity: 0;"/></g><g class="traces" transform="translate(0, 52.5)" style="opacity: 1;"><text class="legendtext user-select-none" text-anchor="start" x="40" y="4.680000000000001" style="font-family: 'Open Sans', verdana, arial, sans-serif; font-size: 12px; fill: rgb(242, 245, 250); fill-opacity: 1; white-space: pre;">Indiana, PA</text><g class="layers" style="opacity: 1;"><g class="legendfill"/><g class="legendlines"><path class="js-line" d="M5,0h30" style="fill: none; stroke: rgb(255, 225, 25); stroke-opacity: 1; stroke-width: 2px;"/></g><g class="legendsymbols"><g class="legendpoints"/></g></g><rect class="legendtoggle" pointer-events="all" x="0" y="-9.5" width="123.171875" height="19" style="cursor: pointer; fill: rgb(0, 0, 0); fill-opacity: 0;"/></g><g class="traces" transform="translate(0, 71.5)" style="opacity: 1;"><text class="legendtext user-select-none" text-anchor="start" x="40" y="4.680000000000001" style="font-family: 'Open Sans', verdana, arial, sans-serif; font-size: 12px; fill: rgb(242, 245, 250); fill-opacity: 1; white-space: pre;">Huntingdon, PA</text><g class="layers" style="opacity: 1;"><g class="legendfill"/><g class="legendlines"><path class="js-line" d="M5,0h30" style="fill: none; stroke: rgb(67, 99, 216); stroke-opacity: 1; stroke-width: 2px;"/></g><g class="legendsymbols"><g class="legendpoints"/></g></g><rect class="legendtoggle" pointer-events="all" x="0" y="-9.5" width="123.171875" height="19" style="cursor: pointer; fill: rgb(0, 0, 0); fill-opacity: 0;"/></g><g class="traces" transform="translate(0, 90.5)" style="opacity: 1;"><text class="legendtext user-select-none" text-anchor="start" x="40" y="4.680000000000001" style="font-family: 'Open Sans', verdana, arial, sans-serif; font-size: 12px; fill: rgb(242, 245, 250); fill-opacity: 1; white-space: pre;">Bartow, GA</text><g class="layers" style="opacity: 1;"><g class="legendfill"/><g class="legendlines"><path class="js-line" d="M5,0h30" style="fill: none; stroke: rgb(245, 130, 49); stroke-opacity: 1; stroke-width: 2px;"/></g><g class="legendsymbols"><g class="legendpoints"/></g></g><rect class="legendtoggle" pointer-events="all" x="0" y="-9.5" width="123.171875" height="19" style="cursor: pointer; fill: rgb(0, 0, 0); fill-opacity: 0;"/></g><g class="traces" transform="translate(0, 109.5)" style="opacity: 1;"><text class="legendtext user-select-none" text-anchor="start" x="40" y="4.680000000000001" style="font-family: 'Open Sans', verdana, arial, sans-serif; font-size: 12px; fill: rgb(242, 245, 250); fill-opacity: 1; white-space: pre;">Fayette, PA</text><g class="layers" style="opacity: 1;"><g class="legendfill"/><g class="legendlines"><path class="js-line" d="M5,0h30" style="fill: none; stroke: rgb(145, 30, 180); stroke-opacity: 1; stroke-width: 2px;"/></g><g class="legendsymbols"><g class="legendpoints"/></g></g><rect class="legendtoggle" pointer-events="all" x="0" y="-9.5" width="123.171875" height="19" style="cursor: pointer; fill: rgb(0, 0, 0); fill-opacity: 0;"/></g></g></g><rect class="scrollbar" rx="20" ry="3" width="0" height="0" x="0" y="0" style="fill: rgb(128, 139, 164); fill-opacity: 1;"/></g><g class="g-gtitle"/><g class="g-xtitle"><text class="xtitle" x="229.85" y="410.8" text-anchor="middle" style="font-family: 'Open Sans', verdana, arial, sans-serif; font-size: 14px; fill: rgb(242, 245, 250); opacity: 1; font-weight: normal; white-space: pre;">Date</text></g><g class="g-x2title"><text class="x2title" x="596.15" y="410.8" text-anchor="middle" style="font-family: 'Open Sans', verdana, arial, sans-serif; font-size: 14px; fill: rgb(242, 245, 250); opacity: 1; font-weight: normal; white-space: pre;">Date</text></g><g class="g-ytitle"><text class="ytitle" transform="rotate(-90,34.840625,235)" x="34.840625" y="235" text-anchor="middle" style="font-family: 'Open Sans', verdana, arial, sans-serif; font-size: 14px; fill: rgb(242, 245, 250); opacity: 1; font-weight: normal; white-space: pre;">Cases</text></g><g class="g-y2title"><text class="y2title" transform="rotate(-90,400.465625,235)" x="400.465625" y="235" text-anchor="middle" style="font-family: 'Open Sans', verdana, arial, sans-serif; font-size: 14px; fill: rgb(242, 245, 250); opacity: 1; font-weight: normal; white-space: pre;">Deaths</text></g><g class="annotation" data-index="0" style="opacity: 1;"><g class="annotation-text-g" transform="rotate(0,229.85,89.5)"><g class="cursor-pointer" transform="translate(205, 79)"><rect class="bg" x="0.5" y="0.5" width="48" height="20" style="stroke-width: 1px; stroke: rgb(0, 0, 0); stroke-opacity: 0; fill: rgb(0, 0, 0); fill-opacity: 0;"/><text class="annotation-text" text-anchor="middle" x="24.6875" y="16" style="font-family: 'Open Sans', verdana, arial, sans-serif; font-size: 16px; fill: rgb(242, 245, 250); fill-opacity: 1; white-space: pre;">Cases</text></g></g></g><g class="annotation" data-index="1" style="opacity: 1;"><g class="annotation-text-g" transform="rotate(0,596.15,89.5)"><g class="cursor-pointer" transform="translate(569, 79)"><rect class="bg" x="0.5" y="0.5" width="54" height="20" style="stroke-width: 1px; stroke: rgb(0, 0, 0); stroke-opacity: 0; fill: rgb(0, 0, 0); fill-opacity: 0;"/><text class="annotation-text" text-anchor="middle" x="27.359375" y="16" style="font-family: 'Open Sans', verdana, arial, sans-serif; font-size: 16px; fill: rgb(242, 245, 250); fill-opacity: 1; white-space: pre;">Deaths</text></g></g></g></g></svg>