<svg class="main-svg" xmlns="http://www.w3.org/2000/svg" xmlns:xlink="http://www.w3.org/1999/xlink" width="900" height="450" style="" viewBox="0 0 900 450"><rect x="0" y="0" width="900" height="450" style="fill: rgb(17, 17, 17); fill-opacity: 1;"/><defs id="defs-25c66a"><g class="clips"><clipPath id="clip25c66axyplot" class="plotclip"><rect width="305.1" height="270"/></clipPath><clipPath id="clip25c66ax2y2plot" class="plotclip"><rect width="305.09999999999997" height="270"/></clipPath><clipPath class="axesclip" id="clip25c66ax"><rect x="80" y="0" width="305.1" height="450"/></clipPath><clipPath class="axesclip" id="clip25c66ay"><rect x="0" y="100" width="900" height="270"/></clipPath><clipPath class="axesclip" id="clip25c66axy"><rect x="80" y="100" width="305.1" height="270"/></clipPath><clipPath class="axesclip" id="clip25c66ay2"><rect x="0" y="100" width="900" height="270"/></clipPath><clipPath class="axesclip" id="clip25c66axy2"><rect x="80" y="100" width="305.1" height="270"/></clipPath><clipPath class="axesclip" id="clip25c66ax2"><rect x="452.90000000000003" y="0" width="305.09999999999997" height="450"/></clipPath><clipPath class="axesclip" id="clip25c66ax2y"><rect x="452.90000000000003" y="100" width="305.09999999999997" height="270"/></clipPath><clipPath class="axesclip" id="clip25c66ax2y2"><rect x="452.90000000000003" y="100" width="305.09999999999997" height="270"/></clipPath></g><g class="gradients"/></defs><g class="bglayer"/><g class="layer-below"><g class="imagelayer"/><g class="shapelayer"/></g><g class="cartesianlayer"><g class="subplot xy"><g class="layer-subplot"><g class="shapelayer"/><g class="imagelayer"/></g><g class="gridlayer"><g class="x"><path class="xgrid crisp" transform="translate(183.85,0)" d="M0,100v270" style="stroke: rgb(40, 52, 66); stroke-opacity: 1; stroke-width: 1px;"/><path class="xgrid crisp" transform="translate(302.53999999999996,0)" d="M0,100v270" style="stroke: rgb(40, 52, 66); stroke-opacity: 1; stroke-width: 1px;"/></g><g class="y"><path class="ygrid crisp" transform="translate(0,300.77)" d="M80,0h305.1" style="stroke: rgb(40, 52, 66); stroke-opacity: 1; stroke-width: 1px;"/><path class="ygrid crisp" transform="translate(0,245.05)" d="M80,0h305.1" style="stroke: rgb(40, 52, 66); stroke-opacity: 1; stroke-width: 1px;"/><path class="ygrid crisp" transform="translate(0,189.32)" d="M80,0h305.1" style="stroke: rgb(40, 52, 66); stroke-opacity: 1; stroke-width: 1px;"/><path class="ygrid crisp" transform="translate(0,133.6)" d="M80,0h305.1" style="stroke: rgb(40, 52, 66); stroke-opacity: 1; stroke-width: 1px;"/></g></g><g class="zerolinelayer"><path class="yzl zl crisp" transform="translate(0,356.5)" d="M80,0h305.1" style="stroke: rgb(40, 52, 66); stroke-opacity: 1; stroke-width: 2px;"/></g><path class="xlines-below"/><path class="ylines-below"/><g class="overlines-below"/><g class="xaxislayer-below"/><g class="yaxislayer-below"/><g class="overaxes-below"/><g class="plot" transform="translate(80, 100)" clip-path="url('#clip25c66axyplot')"><g class="scatterlayer mlayer"><g class="trace scatter trace4d791e" style="stroke-miterlimit: 2; opacity: 1;"><g class="fills"/><g class="errorbars"/><g class="lines"><path class="js-line" d="M0,256.5L43.22,255.75L43.86,255.71L55.47,253.54L56.12,253.4L83.21,247.34L83.85,247.05L99.98,241.5L100.62,241.19L102.56,240.45L103.21,239.88L107.08,237.31L107.72,237.31L109.66,235.64L110.3,234.98L111.59,234.28L112.24,233.32L118.04,229L118.69,228.04L121.91,226.48L122.56,225.49L123.2,225.49L123.85,224.5L124.49,224.39L125.14,223.49L128.36,222.69L129.01,219.72L129.65,219.67L130.3,218.43L132.23,215.94L132.88,215.94L134.17,214.34L134.81,213.49L137.39,209.99L138.04,209.91L138.68,209.88L139.33,208.37L143.2,205.83L143.84,205.11L146.42,203.2L147.07,203.2L149.65,201.58L150.29,201.28L154.16,200.32L154.81,199.76L159.32,197.91L159.97,197.91L162.55,196.92L163.19,196.71L173.51,193.92L174.16,193.43L187.7,187.26L188.35,186.84L192.86,183.93L193.51,182.77L199.31,177.86L199.96,176.1L203.18,171.99L203.83,170.18L205.12,168.06L205.77,165.82L206.41,165.6L207.06,162.5L210.28,155.68L210.93,150.01L212.86,144.32L213.51,144.26L215.44,133.89L216.09,131.8L219.96,117.84L220.6,116.06L222.54,110.29L223.18,107.38L225.76,99.26L226.41,97.46L232.21,74.23L232.86,70.98L234.79,65.82L235.44,64.85L241.89,51.37L242.53,50.37L248.34,41.91L248.98,41L256.08,34.58L256.72,34.17L259.95,32.02L260.59,30.16L267.69,27.12L268.33,26.92L281.23,23.64L281.88,23.08L283.81,22.43L284.46,22.09L285.75,21.86L286.39,21.33L287.04,21.33L287.68,20.35L291.55,18.64L292.2,18.33L302.52,14.39L303.16,14.23L305.1,13.5" style="vector-effect: non-scaling-stroke; fill: none; stroke: rgb(230, 25, 75); stroke-opacity: 1; stroke-width: 2px; opacity: 1;"/></g><g class="points"/><g class="text"/></g><g class="trace scatter trace675667" style="stroke-miterlimit: 2; opacity: 1;"><g class="fills"/><g class="errorbars"/><g class="lines"><path class="js-line" d="M0,256.5L47.73,255.75L48.38,255.64L59.34,253.74L59.99,253.54L67.08,252.04L67.73,251.94L90.95,247.61L91.59,247.45L114.82,244.67L115.46,244.45L119.33,243.72L119.98,243.66L129.01,242.29L129.65,242.26L167.71,236.31L168.35,236.18L172.87,235.5L173.51,235.39L178.03,234.68L178.67,234.56L188.99,231.34L189.64,230.95L195.44,227.04L196.09,226.51L203.83,220.23L204.48,219.09L223.18,198.16L223.83,197.76L224.47,197.61L225.12,196.51L232.21,187.83L232.86,187.83L235.44,184.69L236.08,184.69L246.4,177.37L247.05,177.37L249.63,175.81L250.27,175.39L268.98,167.84L269.62,167.68L276.72,164.3L277.36,163.2L281.88,159.65L282.52,159.12L289.62,153.71L290.26,153.22L298,148.33L298.65,147.99L301.87,146.51L302.52,146.22L305.1,145.56" style="vector-effect: non-scaling-stroke; fill: none; stroke: rgb(60, 180, 75); stroke-opacity: 1; stroke-width: 2px; opacity: 1;"/></g><g class="points"/><g class="text"/></g><g class="trace scatter tracedf8b38" style="stroke-miterlimit: 2; opacity: 1;"><g class="fills"/><g class="errorbars"/><g class="lines"><path class="js-line" d="M0,256.5L171.58,255.77L172.22,255.73L194.8,253.94L195.44,253.28L198.67,252.54L199.31,252.45L205.12,251.7L205.77,251.59L251.56,249.31L252.21,249.31L289.62,248.28L290.26,248.27L305.1,247.96" style="vector-effect: non-scaling-stroke; fill: none; stroke: rgb(255, 225, 25); stroke-opacity: 1; stroke-width: 2px; opacity: 1;"/></g><g class="points"/><g class="text"/></g><g class="trace scatter tracefda2e5" style="stroke-miterlimit: 2; opacity: 1;"><g class="fills"/><g class="errorbars"/><g class="lines"><path class="js-line" d="M0,256.5L40.64,255.88L41.28,255.42L45.15,253.13L45.8,252.68L49.67,248.54L50.31,247.88L63.21,239.08L63.86,238.74L69.66,235.98L70.31,235.71L74.18,234.55L74.82,234.45L83.85,232.13L84.5,232.06L96.75,230.27L97.4,230.24L119.33,228.16L119.98,228.06L153.52,223.35L154.16,223.05L159.97,220.55L160.61,219.84L162.55,218.43L163.19,218.28L169,214.56L169.64,214.23L189.64,206.53L190.28,206.12L194.8,202.47L195.44,201.76L203.83,192.64L204.48,191.75L216.73,174.06L217.38,172.7L219.96,169.48L220.6,159.91L226.41,148.12L227.05,144.71L227.7,144.71L228.34,143.52L235.44,128.85L236.08,127.81L238.66,122.7L239.31,121.63L242.53,115.79L243.18,114.98L245.11,112.17L245.76,111.09L250.27,104.15L250.92,103.78L252.21,102.46L252.85,101.52L255.43,98.71L256.08,97.97L261.24,91.7L261.88,90.72L270.91,79.97L271.56,79.97L274.78,79.97L275.43,71.79L276.07,71.79L276.72,69.51L277.36,69.51L278.01,67.59L279.3,67.59L279.94,65.99L282.52,62.05L283.17,62.05L286.39,56.53L287.04,56.53L292.84,51.73L293.49,51.18L296.07,49.66L296.71,49.94L305.1,46.95" style="vector-effect: non-scaling-stroke; fill: none; stroke: rgb(67, 99, 216); stroke-opacity: 1; stroke-width: 2px; opacity: 1;"/></g><g class="points"/><g class="text"/></g><g class="trace scatter trace7b7d91" style="stroke-miterlimit: 2; opacity: 1;"><g class="fills"/><g class="errorbars"/><g class="lines"><path class="js-line" d="M0,256.5L67.73,255.76L68.37,255.74L88.37,254.75L89.01,254.68L95.46,253.55L96.11,253.35L104.5,251.27L105.14,250.97L113.53,247.3L114.17,247L120.62,243.83L121.27,243.37L123.2,242.56L123.85,242.27L130.94,239.87L131.59,239.67L138.04,238.03L138.68,237.97L147.71,236.05L148.36,235.98L155.45,234.8L156.1,234.74L166.42,233.53L167.06,233.46L184.48,230.69L185.12,230.52L193.51,228.84L194.15,228.68L207.7,224.11L208.35,223.79L221.89,216.72L222.54,216.72L223.83,214.93L224.47,214.61L226.41,212.75L227.05,212.03L236.73,204.88L237.37,204.61L246.4,199.91L247.05,199.77L261.24,194.49L261.88,194.27L267.04,192.63L267.69,192.44L273.49,191.16L274.14,191.11L305.1,182.45" style="vector-effect: non-scaling-stroke; fill: none; stroke: rgb(245, 130, 49); stroke-opacity: 1; stroke-width: 2px; opacity: 1;"/></g><g class="points"/><g class="text"/></g><g class="trace scatter trace4da84a" style="stroke-miterlimit: 2; opacity: 1;"><g class="fills"/><g class="errorbars"/><g class="lines"><path class="js-line" d="M0,256.5L43.86,255.81L44.51,255.7L49.67,254.39L50.31,254.07L63.21,248.89L63.86,248.5L66.44,247.15L67.08,246.9L74.82,244.13L75.47,243.92L84.5,242.29L85.14,242.25L116.11,238.7L116.75,238.48L133.52,235.83L134.17,235.77L148.36,233.95L149,233.85L158.03,232.47L158.68,232.34L177.38,229.06L178.03,228.8L186.41,225.71L187.06,225.31L190.28,222.43L190.93,221.62L195.44,216.2L196.09,215.28L203.83,203.77L204.48,201.74L214.15,182.98L214.8,182.09L221.25,172.63L221.89,171.42L226.41,164.59L227.05,163.26L232.21,156.02L232.86,156.02L235.44,151.99L236.08,151.99L243.82,143.1L244.47,142.63L254.79,134.17L255.43,133.91L258.01,132.36L258.66,131.83L268.98,125.03L269.62,124.76L276.72,119.02L277.36,117.38L285.75,107.47L286.39,106.58L288.97,103.59L289.62,102.84L293.49,98.54L294.13,97.95L299.94,93.23L300.58,92.95L305.1,90.99" style="vector-effect: non-scaling-stroke; fill: none; stroke: rgb(145, 30, 180); stroke-opacity: 1; stroke-width: 2px; opacity: 1;"/></g><g class="points"/><g class="text"/></g></g></g><g class="overplot"/><path class="xlines-above crisp" d="M0,0" style="fill: none;"/><path class="ylines-above crisp" d="M0,0" style="fill: none;"/><g class="overlines-above"/><g class="xaxislayer-above"><g class="xtick"><text text-anchor="middle" x="0" y="383" transform="translate(183.85,0)" style="font-family: 'Open Sans', verdana, arial, sans-serif; font-size: 12px; fill: rgb(242, 245, 250); fill-opacity: 1; white-space: pre;">Jul 2020</text></g><g class="xtick"><text text-anchor="middle" x="0" y="383" transform="translate(302.53999999999996,0)" style="font-family: 'Open Sans', verdana, arial, sans-serif; font-size: 12px; fill: rgb(242, 245, 250); fill-opacity: 1; white-space: pre;">Jan 2021</text></g></g><g class="yaxislayer-above"><g class="ytick"><text text-anchor="end" x="79" y="4.199999999999999" transform="translate(0,356.5)" style="font-family: 'Open Sans', verdana, arial, sans-serif; font-size: 12px; fill: rgb(242, 245, 250); fill-opacity: 1; white-space: pre;">0</text></g><g class="ytick"><text text-anchor="end" x="79" y="4.199999999999999" transform="translate(0,300.77)" style="font-family: 'Open Sans', verdana, arial, sans-serif; font-size: 12px; fill: rgb(242, 245, 250); fill-opacity: 1; white-space: pre;">20k</text></g><g class="ytick"><text text-anchor="end" x="79" y="4.199999999999999" transform="translate(0,245.05)" style="font-family: 'Open Sans', verdana, arial, sans-serif; font-size: 12px; fill: rgb(242, 245, 250); fill-opacity: 1; white-space: pre;">40k</text></g><g class="ytick"><text text-anchor="end" x="79" y="4.199999999999999" transform="translate(0,189.32)" style="font-family: 'Open Sans', verdana, arial, sans-serif; font-size: 12px; fill: rgb(242, 245, 250); fill-opacity: 1; white-space: pre;">60k</text></g><g class="ytick"><text text-anchor="end" x="79" y="4.199999999999999" transform="translate(0,133.6)" style="font-family: 'Open Sans', verdana, arial, sans-serif; font-size: 12px; fill: rgb(242, 245, 250); fill-opacity: 1; white-space: pre;">80k</text></g></g><g class="overaxes-above"/></g><g class="subplot x2y2"><g class="layer-subplot"><g class="shapelayer"/><g class="imagelayer"/></g><g class="gridlayer"><g class="x2"><path class="x2grid crisp" transform="translate(556.75,0)" d="M0,100v270" style="stroke: rgb(40, 52, 66); stroke-opacity: 1; stroke-width: 1px;"/><path class="x2grid crisp" transform="translate(675.44,0)" d="M0,100v270" style="stroke: rgb(40, 52, 66); stroke-opacity: 1; stroke-width: 1px;"/></g><g class="y2"><path class="y2grid crisp" transform="translate(0,299.4)" d="M452.90000000000003,0h305.09999999999997" style="stroke: rgb(40, 52, 66); stroke-opacity: 1; stroke-width: 1px;"/><path class="y2grid crisp" transform="translate(0,242.31)" d="M452.90000000000003,0h305.09999999999997" style="stroke: rgb(40, 52, 66); stroke-opacity: 1; stroke-width: 1px;"/><path class="y2grid crisp" transform="translate(0,185.20999999999998)" d="M452.90000000000003,0h305.09999999999997" style="stroke: rgb(40, 52, 66); stroke-opacity: 1; stroke-width: 1px;"/><path class="y2grid crisp" transform="translate(0,128.12)" d="M452.90000000000003,0h305.09999999999997" style="stroke: rgb(40, 52, 66); stroke-opacity: 1; stroke-width: 1px;"/></g></g><g class="zerolinelayer"><path class="y2zl zl crisp" transform="translate(0,356.5)" d="M452.90000000000003,0h305.09999999999997" style="stroke: rgb(40, 52, 66); stroke-opacity: 1; stroke-width: 2px;"/></g><path class="xlines-below"/><path class="ylines-below"/><g class="overlines-below"/><g class="xaxislayer-below"/><g class="yaxislayer-below"/><g class="overaxes-below"/><g class="plot" transform="translate(452.90000000000003, 100)" clip-path="url('#clip25c66ax2y2plot')"><g class="scatterlayer mlayer"><g class="trace scatter trace371b1b" style="stroke-miterlimit: 2; opacity: 1;"><g class="fills"/><g class="errorbars"/><g class="lines"><path class="js-line" d="M0,256.5L42.57,255.81L43.22,255.7L48.38,255.02L49.02,254.79L53.54,253.87L54.18,252.39L56.76,251.7L57.41,251.7L63.21,249.99L63.86,249.65L67.73,248.96L68.37,248.85L70.31,248.39L70.95,248.39L74.82,247.02L75.47,247.02L78.69,245.99L79.34,245.88L86.43,245.42L87.08,244.97L90.3,244.51L90.95,244.17L99.98,241.88L100.62,241.66L103.85,240.97L104.5,240.74L107.08,240.51L107.72,240.51L118.04,236.74L118.69,236.17L123.2,235.72L123.85,234.92L128.36,234.46L129.01,233.09L130.3,233.09L130.94,232.29L133.52,231.26L134.17,231.26L138.04,229.78L138.68,229.78L140.62,228.64L141.26,228.29L141.91,228.29L142.55,227.04L143.84,227.15L144.49,225.21L145.78,222.7L146.42,222.36L149.65,221.9L150.29,219.96L150.94,219.96L151.58,218.59L152.23,218.47L152.87,215.85L153.52,215.85L154.16,214.82L156.1,213.79L156.74,213.79L158.03,211.39L158.68,211.17L159.97,210.37L160.61,210.14L162.55,209.45L163.19,208.54L165.77,207.97L166.42,207.74L167.71,206.26L168.35,206.26L169.64,206.71L170.29,206.71L170.93,207.28L171.58,206.03L172.22,207.05L172.87,206.37L173.51,206.03L174.16,207.05L176.09,206.83L176.74,204.43L180.61,203.74L181.25,203.63L185.77,203.4L186.41,202.72L188.35,202.37L188.99,202.37L190.28,201L190.93,201L194.15,200.09L194.8,199.98L196.09,199.52L196.73,199.52L199.96,198.83L200.6,198.15L207.7,196.44L208.35,195.64L212.22,192.21L212.86,190.95L213.51,190.95L214.15,189.7L216.09,189.36L216.73,186.96L218.02,185.82L218.67,185.82L219.96,185.13L220.6,185.13L221.89,185.13L222.54,181.59L225.76,181.59L226.41,176.91L227.05,176.91L227.7,173.25L229.63,172.45L230.28,170.29L233.5,170.06L234.15,169.26L235.44,169.03L236.08,160.35L237.37,158.75L238.02,154.41L238.66,154.18L239.31,153.04L241.89,145.28L242.53,144.59L243.82,143.34L244.47,142.42L245.76,138.88L246.4,138.08L248.34,136.48L248.98,135.11L249.63,135L250.27,132.26L251.56,128.61L252.21,128.49L254.14,127.92L254.79,122.78L255.43,122.78L256.08,119.47L257.37,119.47L258.01,117.41L258.66,116.73L259.3,114.79L259.95,114.79L260.59,130.32L263.17,126.21L263.82,125.98L265.75,125.07L266.4,124.04L268.33,123.12L268.98,123.12L269.62,123.24L270.27,122.1L271.56,120.73L272.2,120.95L272.85,121.98L273.49,120.95L274.78,120.61L275.43,119.58L277.36,118.21L278.01,118.1L282.52,117.53L283.17,117.3L285.1,116.73L285.75,115.82L287.04,115.24L287.68,115.13L288.97,115.02L289.62,114.1L292.84,114.1L293.49,113.99L299.29,112.28L299.94,111.7L305.1,109.88" style="vector-effect: non-scaling-stroke; fill: none; stroke: rgb(230, 25, 75); stroke-opacity: 1; stroke-width: 2px; opacity: 1;"/></g><g class="points"/><g class="text"/></g><g class="trace scatter trace28b685" style="stroke-miterlimit: 2; opacity: 1;"><g class="fills"/><g class="errorbars"/><g class="lines"><path class="js-line" d="M0,256.5L49.67,255.81L50.31,255.7L54.83,253.65L55.47,253.07L57.41,251.48L58.05,249.19L59.34,249.19L59.99,247.71L61.28,247.25L61.92,247.25L62.57,246.79L63.21,244.97L64.5,243.82L65.15,243.14L66.44,243.03L67.08,239.49L70.95,235.15L71.6,234.92L74.18,231.38L74.82,231.38L77.4,229.32L78.05,228.87L81.27,226.81L81.92,225.67L83.21,224.53L83.85,224.53L85.14,224.07L85.79,223.73L87.08,222.7L87.72,222.59L89.66,221.9L90.3,221.79L94.17,221.21L94.82,220.99L110.95,218.47L111.59,218.47L119.98,217.79L120.62,217.67L129.01,216.88L129.65,216.88L135.46,216.53L136.1,216.53L152.87,215.85L153.52,215.73L164.48,214.59L165.13,214.59L175.45,213.91L176.09,213.68L194.15,212.99L194.8,212.65L199.96,211.39L200.6,211.39L204.48,209.57L205.12,209.22L207.7,208.08L208.35,207.51L210.28,206.83L210.93,206.71L216.73,203.29L217.38,201.8L218.67,201.12L219.31,200.55L219.96,200.43L220.6,199.52L223.18,197.01L223.83,197.01L224.47,196.89L225.12,195.86L227.7,190.84L228.34,190.61L229.63,189.47L230.28,188.44L232.86,185.47L233.5,185.36L234.15,185.24L234.79,184.33L236.73,183.07L237.37,183.07L238.66,182.62L239.31,181.93L241.89,181.13L242.53,181.13L251.56,176.79L252.21,176.79L253.5,175.31L254.14,175.31L263.17,172.91L263.82,172.91L266.4,172.23L267.04,172L270.91,171.31L271.56,171.31L277.36,170.63L278.01,170.51L287.68,169.83L288.33,169.71L303.16,166.75L303.81,166.52L305.1,166.4" style="vector-effect: non-scaling-stroke; fill: none; stroke: rgb(60, 180, 75); stroke-opacity: 1; stroke-width: 2px; opacity: 1;"/></g><g class="points"/><g class="text"/></g><g class="trace scatter trace19a79f" style="stroke-miterlimit: 2; opacity: 1;"><g class="fills"/><g class="errorbars"/><g class="lines"><path class="js-line" d="M0,256.5L192.86,255.93L193.51,255.47L211.57,254.79L212.22,254.67L215.44,254.56L216.09,253.65L298,252.96L298.65,252.85L303.16,252.85L303.81,251.48L305.1,251.48" style="vector-effect: non-scaling-stroke; fill: none; stroke: rgb(255, 225, 25); stroke-opacity: 1; stroke-width: 2px; opacity: 1;"/></g><g class="points"/><g class="text"/></g><g class="trace scatter trace080863" style="stroke-miterlimit: 2; opacity: 1;"><g class="fills"/><g class="errorbars"/><g class="lines"><path class="js-line" d="M0,256.5L41.93,255.93L42.57,255.36L44.51,254.67L45.15,253.87L47.09,250.11L47.73,249.42L49.67,244.97L50.31,242.91L50.96,242.68L51.6,241.43L53.54,239.49L54.18,237.54L56.12,232.29L56.76,231.72L57.41,231.15L58.05,227.61L59.34,227.61L59.99,222.13L61.92,218.82L62.57,217.45L65.15,207.85L65.79,206.26L66.44,205.46L67.08,202.94L74.82,185.02L75.47,184.22L79.34,178.16L79.98,177.71L80.63,177.48L81.27,176.11L87.08,169.14L87.72,168.91L92.88,163.21L93.53,162.86L97.4,159.78L98.04,159.44L99.98,157.38L100.62,156.92L101.92,148.7L102.56,148.47L104.5,146.76L105.14,146.08L107.08,145.28L107.72,144.36L110.95,142.65L111.59,142.65L116.11,141.17L116.75,140.82L118.04,140.94L118.69,140.71L120.62,140.94L121.27,140.94L122.56,140.71L123.2,140.71L131.59,140.02L132.23,140.02L144.49,139.34L145.13,139.23L147.07,138.88L147.71,138.88L151.58,138.2L152.23,138.08L164.48,136.6L165.13,136.6L175.45,135.91L176.09,135.57L180.61,134.66L181.25,134.66L185.12,133.97L185.77,133.86L191.57,132.37L192.22,132.37L197.38,131L198.02,130.55L206.41,124.27L207.06,122.9L208.99,119.47L209.64,118.44L210.93,117.99L211.57,116.84L216.09,111.82L216.73,108.96L220.6,105.2L221.25,102.68L221.89,101.66L222.54,98.8L224.47,98.12L225.12,95.6L227.7,89.67L228.34,89.67L228.99,89.67L229.63,87.04L232.21,81.33L232.86,80.87L234.15,80.19L234.79,78.59L236.73,73.79L237.37,73.68L238.02,73.45L238.66,71.28L241.24,68.2L241.89,67.97L242.53,67.74L243.18,65.8L245.76,60.66L246.4,60.55L247.69,59.06L248.34,58.26L250.27,55.64L250.92,55.41L252.21,55.18L252.85,52.44L254.79,49.81L255.43,49.58L256.08,49.47L256.72,48.33L259.3,44.45L259.95,44.45L260.59,44.33L261.24,43.42L262.53,41.02L263.17,41.02L265.75,39.99L266.4,37.82L268.33,36.8L268.98,36.57L270.27,35.42L270.91,34.51L274.78,32.11L275.43,30.29L279.3,29.83L279.94,28L283.17,27.09L283.81,26.97L286.39,24.23L287.04,24.23L288.97,22.64L289.62,21.72L292.84,19.21L293.49,18.41L299.94,15.1L300.58,14.98L303.16,13.84L303.81,13.61L305.1,13.5" style="vector-effect: non-scaling-stroke; fill: none; stroke: rgb(67, 99, 216); stroke-opacity: 1; stroke-width: 2px; opacity: 1;"/></g><g class="points"/><g class="text"/></g><g class="trace scatter trace4a94b9" style="stroke-miterlimit: 2; opacity: 1;"><g class="fills"/><g class="errorbars"/><g class="lines"><path class="js-line" d="M0,256.5L52.89,255.81L53.54,255.59L56.12,255.02L56.76,254.79L61.92,254.22L62.57,253.99L79.34,253.3L79.98,253.19L92.24,252.5L92.88,252.39L98.69,251.7L99.33,251.59L101.92,251.36L102.56,251.36L105.79,250.79L106.43,250.79L110.3,249.53L110.95,249.42L113.53,248.28L114.17,247.59L117.4,246.57L118.04,245.77L120.62,244.74L121.27,244.05L122.56,243.03L123.2,242.8L124.49,242.34L125.14,242.23L127.07,239.6L127.72,238.23L129.65,237.54L130.3,235.95L137.39,232.06L138.04,232.06L141.91,229.66L142.55,229.66L144.49,229.44L145.13,228.75L148.36,228.41L149,227.72L150.94,227.27L151.58,227.27L154.81,226.92L155.45,226.47L157.39,225.78L158.03,225.55L162.55,224.18L163.19,223.27L170.29,221.79L170.93,221.21L176.74,219.62L177.38,218.82L179.96,218.7L180.61,218.47L195.44,216.08L196.09,215.51L212.22,213.11L212.86,213.11L215.44,212.99L216.09,212.31L219.96,211.62L220.6,211.17L221.89,210.25L222.54,210.25L225.12,209.22L225.76,208.88L227.7,207.4L228.34,207.4L228.99,207.4L229.63,206.48L230.92,206.14L231.57,205.34L233.5,204.66L234.15,204.09L243.18,200.55L243.82,199.75L246.4,198.49L247.05,198.49L248.98,197.01L249.63,196.89L256.08,196.21L256.72,195.75L259.3,194.04L259.95,194.04L267.04,193.35L267.69,193.12L271.56,192.21L272.2,191.75L282.52,188.67L283.17,188.67L285.1,187.87L285.75,187.76L287.04,187.53L287.68,187.53L291.55,186.73L292.2,186.73L292.84,186.73L293.49,185.82L301.23,185.02L301.87,185.02L304.45,183.65L305.1,183.65" style="vector-effect: non-scaling-stroke; fill: none; stroke: rgb(245, 130, 49); stroke-opacity: 1; stroke-width: 2px; opacity: 1;"/></g><g class="points"/><g class="text"/></g><g class="trace scatter trace870c54" style="stroke-miterlimit: 2; opacity: 1;"><g class="fills"/><g class="errorbars"/><g class="lines"><path class="js-line" d="M0,256.5L45.8,255.81L46.44,255.59L53.54,251.93L54.18,250.68L54.83,250.68L55.47,249.19L57.41,246.22L58.05,243.25L59.34,243.25L59.99,241.88L62.57,237.77L63.21,235.37L65.15,229.44L65.79,229.09L66.44,229.09L67.08,224.18L69.02,218.7L69.66,218.13L70.95,216.65L71.6,214.93L72.24,213.91L72.89,211.39L74.18,208.88L74.82,208.88L75.47,208.88L76.11,207.85L77.4,206.03L78.05,204.66L79.34,203.86L79.98,203.86L80.63,203.86L81.27,202.49L83.21,199.29L83.85,199.29L84.5,199.29L85.14,197.69L88.37,196.09L89.01,196.09L92.88,194.61L93.53,194.61L101.92,192.1L102.56,192.21L112.88,191.18L113.53,191.18L118.69,190.95L119.33,190.95L126.43,190.27L127.07,190.15L132.23,189.93L132.88,189.93L147.07,189.24L147.71,189.13L153.52,188.44L154.16,188.33L161.9,187.19L162.55,187.19L165.77,186.04L166.42,185.93L173.51,185.47L174.16,185.47L180.61,185.02L181.25,185.02L188.99,184.33L189.64,183.99L194.15,183.3L194.8,182.73L201.25,179.08L201.89,178.96L203.83,175.31L204.48,174.74L207.06,173.48L207.7,171.77L210.28,167.77L210.93,167.2L214.15,161.38L214.8,161.04L216.09,159.89L216.73,158.98L218.02,158.07L218.67,157.84L220.6,154.98L221.25,153.96L223.18,152.81L223.83,152.7L225.12,152.24L225.76,151.56L227.7,149.16L228.34,149.16L230.28,147.79L230.92,147.1L232.86,145.73L233.5,145.51L234.15,145.39L234.79,143.79L237.37,141.17L238.02,140.82L239.95,138.65L240.6,138.43L243.82,137.51L244.47,136.83L248.98,133.74L249.63,133.29L252.21,132.6L252.85,131.12L255.43,129.4L256.08,129.29L256.72,129.29L257.37,127.69L264.46,125.75L265.11,125.75L272.2,124.04L272.85,123.58L279.3,121.98L279.94,121.64L288.33,120.04L288.97,119.36L290.91,118.33L291.55,118.1L292.84,117.41L293.49,116.96L294.78,116.27L295.42,116.27L296.71,116.04L297.36,114.9L299.29,113.99L299.94,113.65L303.81,112.62L304.45,112.16L305.1,112.16" style="vector-effect: non-scaling-stroke; fill: none; stroke: rgb(145, 30, 180); stroke-opacity: 1; stroke-width: 2px; opacity: 1;"/></g><g class="points"/><g class="text"/></g></g></g><g class="overplot"/><path class="xlines-above crisp" d="M0,0" style="fill: none;"/><path class="ylines-above crisp" d="M0,0" style="fill: none;"/><g class="overlines-above"/><g class="xaxislayer-above"><g class="x2tick"><text text-anchor="middle" x="0" y="383" transform="translate(556.75,0)" style="font-family: 'Open Sans', verdana, arial, sans-serif; font-size: 12px; fill: rgb(242, 245, 250); fill-opacity: 1; white-space: pre;">Jul 2020</text></g><g class="x2tick"><text text-anchor="middle" x="0" y="383" transform="translate(675.44,0)" style="font-family: 'Open Sans', verdana, arial, sans-serif; font-size: 12px; fill: rgb(242, 245, 250); fill-opacity: 1; white-space: pre;">Jan 2021</text></g></g><g class="yaxislayer-above"><g class="y2tick"><text text-anchor="end" x="451.90000000000003" y="4.199999999999999" transform="translate(0,356.5)" style="font-family: 'Open Sans', verdana, arial, sans-serif; font-size: 12px; fill: rgb(242, 245, 250); fill-opacity: 1; white-space: pre;">0</text></g><g class="y2tick"><text text-anchor="end" x="451.90000000000003" y="4.199999999999999" transform="translate(0,299.4)" style="font-family: 'Open Sans', verdana, arial, sans-serif; font-size: 12px; fill: rgb(242, 245, 250); fill-opacity: 1; white-space: pre;">500</text></g><g class="y2tick"><text text-anchor="end" x="451.90000000000003" y="4.199999999999999" transform="translate(0,242.31)" style="font-family: 'Open Sans', verdana, arial, sans-serif; font-size: 12px; fill: rgb(242, 245, 250); fill-opacity: 1; white-space: pre;">1000</text></g><g class="y2tick"><text text-anchor="end" x="451.90000000000003" y="4.199999999999999" transform="translate(0,185.20999999999998)" style="font-family: 'Open Sans', verdana, arial, sans-serif; font-size: 12px; fill: rgb(242, 245, 250); fill-opacity: 1; white-space: pre;">1500</text></g><g class="y2tick"><text text-anchor="end" x="451.90000000000003" y="4.199999999999999" transform="translate(0,128.12)" style="font-family: 'Open Sans', verdana, arial, sans-serif; font-size: 12px; fill: rgb(242, 245, 250); fill-opacity: 1; white-space: pre;">2000</text></g></g><g class="overaxes-above"/></g></g><g class="polarlayer"/><g class="ternarylayer"/><g class="geolayer"/><g class="funnelarealayer"/><g class="pielayer"/><g class="treemaplayer"/><g class="sunburstlayer"/><g class="glimages"/><defs id="topdefs-25c66a"><g class="clips"/><clipPath id="legend25c66a"><rect width="116" height="124" x="0" y="0"/></clipPath></defs><g class="layer-above"><g class="imagelayer"/><g class="shapelayer"/></g><g class="infolayer"><g class="legend" pointer-events="all" transform="translate(771.5600000000001, 100)"><rect class="bg" shape-rendering="crispEdges" width="116" height="124" x="0" y="0" style="stroke: rgb(68, 68, 68); stroke-opacity: 1; fill: rgb(17, 17, 17); fill-opacity: 1; stroke-width: 0px;"/><g class="scrollbox" transform="translate(0, 0)" clip-path="url('#legend25c66a')"><g class="groups"><g class="traces" transform="translate(0, 14.5)" style="opacity: 1;"><text class="legendtext user-select-none" text-anchor="start" x="40" y="4.680000000000001" style="font-family: 'Open Sans', verdana, arial, sans-serif; font-size: 12px; fill: rgb(242, 245, 250); fill-opacity: 1; white-space: pre;">Alameda, CA</text><g class="layers" style="opacity: 1;"><g class="legendfill"/><g class="legendlines"><path class="js-line" d="M5,0h30" style="fill: none; stroke: rgb(230, 25, 75); stroke-opacity: 1; stroke-width: 2px;"/></g><g class="legendsymbols"><g class="legendpoints"/></g></g><rect class="legendtoggle" pointer-events="all" x="0" y="-9.5" width="110.703125" height="19" style="cursor: pointer; fill: rgb(0, 0, 0); fill-opacity: 0;"/></g><g class="traces" transform="translate(0, 33.5)" style="opacity: 1;"><text class="legendtext user-select-none" text-anchor="start" x="40" y="4.680000000000001" style="font-family: 'Open Sans', verdana, arial, sans-serif; font-size: 12px; fill: rgb(242, 245, 250); fill-opacity: 1; white-space: pre;">Chester, PA</text><g class="layers" style="opacity: 1;"><g class="legendfill"/><g class="legendlines"><path class="js-line" d="M5,0h30" style="fill: none; stroke: rgb(60, 180, 75); stroke-opacity: 1; stroke-width: 2px;"/></g><g class="legendsymbols"><g class="legendpoints"/></g></g><rect class="legendtoggle" pointer-events="all" x="0" y="-9.5" width="110.703125" height="19" style="cursor: pointer; fill: rgb(0, 0, 0); fill-opacity: 0;"/></g><g class="traces" transform="translate(0, 52.5)" style="opacity: 1;"><text class="legendtext user-select-none" text-anchor="start" x="40" y="4.680000000000001" style="font-family: 'Open Sans', verdana, arial, sans-serif; font-size: 12px; fill: rgb(242, 245, 250); fill-opacity: 1; white-space: pre;">Ravalli, MT</text><g class="layers" style="opacity: 1;"><g class="legendfill"/><g class="legendlines"><path class="js-line" d="M5,0h30" style="fill: none; stroke: rgb(255, 225, 25); stroke-opacity: 1; stroke-width: 2px;"/></g><g class="legendsymbols"><g class="legendpoints"/></g></g><rect class="legendtoggle" pointer-events="all" x="0" y="-9.5" width="110.703125" height="19" style="cursor: pointer; fill: rgb(0, 0, 0); fill-opacity: 0;"/></g><g class="traces" transform="translate(0, 71.5)" style="opacity: 1;"><text class="legendtext user-select-none" text-anchor="start" x="40" y="4.680000000000001" style="font-family: 'Open Sans', verdana, arial, sans-serif; font-size: 12px; fill: rgb(242, 245, 250); fill-opacity: 1; white-space: pre;">Ocean, NJ</text><g class="layers" style="opacity: 1;"><g class="legendfill"/><g class="legendlines"><path class="js-line" d="M5,0h30" style="fill: none; stroke: rgb(67, 99, 216); stroke-opacity: 1; stroke-width: 2px;"/></g><g class="legendsymbols"><g class="legendpoints"/></g></g><rect class="legendtoggle" pointer-events="all" x="0" y="-9.5" width="110.703125" height="19" style="cursor: pointer; fill: rgb(0, 0, 0); fill-opacity: 0;"/></g><g class="traces" transform="translate(0, 90.5)" style="opacity: 1;"><text class="legendtext user-select-none" text-anchor="start" x="40" y="4.680000000000001" style="font-family: 'Open Sans', verdana, arial, sans-serif; font-size: 12px; fill: rgb(242, 245, 250); fill-opacity: 1; white-space: pre;">St Lucie, FL</text><g class="layers" style="opacity: 1;"><g class="legendfill"/><g class="legendlines"><path class="js-line" d="M5,0h30" style="fill: none; stroke: rgb(245, 130, 49); stroke-opacity: 1; stroke-width: 2px;"/></g><g class="legendsymbols"><g class="legendpoints"/></g></g><rect class="legendtoggle" pointer-events="all" x="0" y="-9.5" width="110.703125" height="19" style="cursor: pointer; fill: rgb(0, 0, 0); fill-opacity: 0;"/></g><g class="traces" transform="translate(0, 109.5)" style="opacity: 1;"><text class="legendtext user-select-none" text-anchor="start" x="40" y="4.680000000000001" style="font-family: 'Open Sans', verdana, arial, sans-serif; font-size: 12px; fill: rgb(242, 245, 250); fill-opacity: 1; white-space: pre;">Bucks, PA</text><g class="layers" style="opacity: 1;"><g class="legendfill"/><g class="legendlines"><path class="js-line" d="M5,0h30" style="fill: none; stroke: rgb(145, 30, 180); stroke-opacity: 1; stroke-width: 2px;"/></g><g class="legendsymbols"><g class="legendpoints"/></g></g><rect class="legendtoggle" pointer-events="all" x="0" y="-9.5" width="110.703125" height="19" style="cursor: pointer; fill: rgb(0, 0, 0); fill-opacity: 0;"/></g></g></g><rect class="scrollbar" rx="20" ry="3" width="0" height="0" x="0" y="0" style="fill: rgb(128, 139, 164); fill-opacity: 1;"/></g><g class="g-gtitle"/><g class="g-xtitle"><text class="xtitle" x="232.55" y="410.8" text-anchor="middle" style="font-family: 'Open Sans', verdana, arial, sans-serif; font-size: 14px; fill: rgb(242, 245, 250); opacity: 1; font-weight: normal; white-space: pre;">Date</text></g><g class="g-x2title"><text class="x2title" x="605.45" y="410.8" text-anchor="middle" style="font-family: 'Open Sans', verdana, arial, sans-serif; font-size: 14px; fill: rgb(242, 245, 250); opacity: 1; font-weight: normal; white-space: pre;">Date</text></g><g class="g-ytitle"><text class="ytitle" transform="rotate(-90,34.840625,235)" x="34.840625" y="235" text-anchor="middle" style="font-family: 'Open Sans', verdana, arial, sans-serif; font-size: 14px; fill: rgb(242, 245, 250); opacity: 1; font-weight: normal; white-space: pre;">Cases</text></g><g class="g-y2title"><text class="y2title" transform="rotate(-90,400.403125,235)" x="400.403125" y="235" text-anchor="middle" style="font-family: 'Open Sans', verdana, arial, sans-serif; font-size: 14px; fill: rgb(242, 245, 250); opacity: 1; font-weight: normal; white-space: pre;">Deaths</text></g><g class="annotation" data-index="0" style="opacity: 1;"><g class="annotation-text-g" transform="rotate(0,232.55,89.5)"><g class="cursor-pointer" transform="translate(208, 79)"><rect class="bg" x="0.5" y="0.5" width="48" height="20" style="stroke-width: 1px; stroke: rgb(0, 0, 0); stroke-opacity: 0; fill: rgb(0, 0, 0); fill-opacity: 0;"/><text class="annotation-text" text-anchor="middle" x="24.6875" y="16" style="font-family: 'Open Sans', verdana, arial, sans-serif; font-size: 16px; fill: rgb(242, 245, 250); fill-opacity: 1; white-space: pre;">Cases</text></g></g></g><g class="annotation" data-index="1" style="opacity: 1;"><g class="annotation-text-g" transform="rotate(0,605.45,89.5)"><g class="cursor-pointer" transform="translate(578, 79)"><rect class="bg" x="0.5" y="0.5" width="54" height="20" style="stroke-width: 1px; stroke: rgb(0, 0, 0); stroke-opacity: 0; fill: rgb(0, 0, 0); fill-opacity: 0;"/><text class="annotation-text" text-anchor="middle" x="27.359375" y="16" style="font-family: 'Open Sans', verdana, arial, sans-serif; font-size: 16px; fill: rgb(242, 245, 250); fill-opacity: 1; white-space: pre;">Deaths</text></g></g></g></g></svg>