<svg class="main-svg" xmlns="http://www.w3.org/2000/svg" xmlns:xlink="http://www.w3.org/1999/xlink" width="900" height="450" style="" viewBox="0 0 900 450"><rect x="0" y="0" width="900" height="450" style="fill: rgb(17, 17, 17); fill-opacity: 1;"/><defs id="defs-0538a2"><g class="clips"><clipPath id="clip0538a2xyplot" class="plotclip"><rect width="305.1" height="270"/></clipPath><clipPath id="clip0538a2x2y2plot" class="plotclip"><rect width="305.09999999999997" height="270"/></clipPath><clipPath class="axesclip" id="clip0538a2x"><rect x="80" y="0" width="305.1" height="450"/></clipPath><clipPath class="axesclip" id="clip0538a2y"><rect x="0" y="100" width="900" height="270"/></clipPath><clipPath class="axesclip" id="clip0538a2xy"><rect x="80" y="100" width="305.1" height="270"/></clipPath><clipPath class="axesclip" id="clip0538a2y2"><rect x="0" y="100" width="900" height="270"/></clipPath><clipPath class="axesclip" id="clip0538a2xy2"><rect x="80" y="100" width="305.1" height="270"/></clipPath><clipPath class="axesclip" id="clip0538a2x2"><rect x="452.90000000000003" y="0" width="305.09999999999997" height="450"/></clipPath><clipPath class="axesclip" id="clip0538a2x2y"><rect x="452.90000000000003" y="100" width="305.09999999999997" height="270"/></clipPath><clipPath class="axesclip" id="clip0538a2x2y2"><rect x="452.90000000000003" y="100" width="305.09999999999997" height="270"/></clipPath></g><g class="gradients"/></defs><g class="bglayer"/><g class="layer-below"><g class="imagelayer"/><g class="shapelayer"/></g><g class="cartesianlayer"><g class="subplot xy"><g class="layer-subplot"><g class="shapelayer"/><g class="imagelayer"/></g><g class="gridlayer"><g class="x"><path class="xgrid crisp" transform="translate(149.57,0)" d="M0,100v270" style="stroke: rgb(40, 52, 66); stroke-opacity: 1; stroke-width: 1px;"/><path class="xgrid crisp" transform="translate(240,0)" d="M0,100v270" style="stroke: rgb(40, 52, 66); stroke-opacity: 1; stroke-width: 1px;"/><path class="xgrid crisp" transform="translate(331.43,0)" d="M0,100v270" style="stroke: rgb(40, 52, 66); stroke-opacity: 1; stroke-width: 1px;"/></g><g class="y"><path class="ygrid crisp" transform="translate(0,312.88)" d="M80,0h305.1" style="stroke: rgb(40, 52, 66); stroke-opacity: 1; stroke-width: 1px;"/><path class="ygrid crisp" transform="translate(0,269.27)" d="M80,0h305.1" style="stroke: rgb(40, 52, 66); stroke-opacity: 1; stroke-width: 1px;"/><path class="ygrid crisp" transform="translate(0,225.65)" d="M80,0h305.1" style="stroke: rgb(40, 52, 66); stroke-opacity: 1; stroke-width: 1px;"/><path class="ygrid crisp" transform="translate(0,182.04000000000002)" d="M80,0h305.1" style="stroke: rgb(40, 52, 66); stroke-opacity: 1; stroke-width: 1px;"/><path class="ygrid crisp" transform="translate(0,138.42000000000002)" d="M80,0h305.1" style="stroke: rgb(40, 52, 66); stroke-opacity: 1; stroke-width: 1px;"/></g></g><g class="zerolinelayer"><path class="yzl zl crisp" transform="translate(0,356.5)" d="M80,0h305.1" style="stroke: rgb(40, 52, 66); stroke-opacity: 1; stroke-width: 2px;"/></g><path class="xlines-below"/><path class="ylines-below"/><g class="overlines-below"/><g class="xaxislayer-below"/><g class="yaxislayer-below"/><g class="overaxes-below"/><g class="plot" transform="translate(80, 100)" clip-path="url('#clip0538a2xyplot')"><g class="scatterlayer mlayer"><g class="trace scatter tracedc1c40" style="stroke-miterlimit: 2; opacity: 1;"><g class="fills"/><g class="errorbars"/><g class="lines"><path class="js-line" d="M0,256.5L58.63,255.93L59.63,255.58L68.57,253.77L69.57,253.37L83.48,248.11L84.47,247.72L94.41,243.69L95.41,243.43L106.34,239.39L107.33,238.85L116.28,235.07L117.27,234.5L120.25,232.88L121.24,232.36L137.15,222.09L138.14,221.74L143.11,218.82L144.1,218.35L149.07,214.59L150.07,214.59L153.05,210.49L154.04,209.55L159.01,204.48L160,202.8L161.99,200.04L162.99,199.31L163.98,196.7L164.97,196.42L165.97,196.42L166.96,193.3L169.94,189.11L170.94,189.11L174.91,181.25L175.9,179.23L177.89,175.92L178.89,175.76L179.88,174.65L180.87,172.38L183.86,166.39L184.85,166.04L185.84,165.45L186.84,163.75L187.83,162.53L188.82,159.4L189.82,159.4L190.81,156.32L191.81,155.97L192.8,153.17L193.79,152.62L194.79,150.64L197.77,150.64L198.76,141.36L199.76,141.2L200.75,137.31L202.74,132.38L203.73,129.51L204.73,129.51L205.72,124.58L206.71,124.52L207.71,121.84L210.69,112.84L211.68,110.88L213.67,110.54L214.66,105.81L215.66,104.85L216.65,102.79L217.64,100.82L218.64,100.82L225.6,89.62L226.59,89.62L227.58,87.71L228.58,87.71L230.56,84.57L231.56,83.62L232.55,83.46L233.55,82.12L237.52,80.62L238.51,78.86L241.5,76.45L242.49,75.51L249.45,70.5L250.44,69.97L258.39,65.13L259.38,65.1L261.37,63.29L262.37,63.29L264.35,61.76L265.35,61.36L267.34,60.59L268.33,59.04L276.28,52.46L277.27,52.46L279.26,50.32L280.25,49.11L287.21,43.5L288.21,41.35L292.18,36.25L293.17,34.93L297.15,29.29L298.14,25.69L300.13,21.61L301.12,19.03L303.11,16.75L304.11,15.55L305.1,13.5" style="vector-effect: non-scaling-stroke; fill: none; stroke: rgb(230, 25, 75); stroke-opacity: 1; stroke-width: 2px; opacity: 1;"/></g><g class="points"/><g class="text"/></g><g class="trace scatter traceae097d" style="stroke-miterlimit: 2; opacity: 1;"><g class="fills"/><g class="errorbars"/><g class="lines"><path class="js-line" d="M0,256.5L79.5,255.76L80.5,255.74L107.33,255.05L108.33,254.97L116.28,254.41L117.27,254.01L129.2,252.22L130.19,252.17L161.99,249.06L162.99,248.81L166.96,248.42L167.95,247.87L175.9,246.51L176.9,246L181.87,245.05L182.86,244.85L188.82,243.4L189.82,243.26L202.74,240.12L203.73,239.66L208.7,238.98L209.69,238.51L227.58,234.7L228.58,234.67L230.56,233.85L231.56,233.51L234.54,232.59L235.53,232.38L238.51,230.64L239.51,230.16L249.45,227.15L250.44,226.99L270.32,220.25L271.31,219.6L273.3,218.74L274.29,218.09L283.24,215.67L284.23,215.59L291.19,213.27L292.18,212.09L296.16,209.96L297.15,209.01L300.13,208.54L301.12,207.94L304.11,206.46L305.1,206.46" style="vector-effect: non-scaling-stroke; fill: none; stroke: rgb(60, 180, 75); stroke-opacity: 1; stroke-width: 2px; opacity: 1;"/></g><g class="points"/><g class="text"/></g><g class="trace scatter tracea2d2fb" style="stroke-miterlimit: 2; opacity: 1;"><g class="fills"/><g class="errorbars"/><g class="lines"><path class="js-line" d="M0,256.5L152.05,255.95L153.05,255.73L168.95,254.98L169.94,254.89L182.86,254.18L183.86,254.13L193.79,253.63L194.79,253.32L225.6,250.66L226.59,250.66L241.5,250.29L242.49,249.9L279.26,248.27L280.25,248.13L290.19,247.5L291.19,246.64L297.15,245.96L298.14,245.6L304.11,244.13L305.1,242.55" style="vector-effect: non-scaling-stroke; fill: none; stroke: rgb(255, 225, 25); stroke-opacity: 1; stroke-width: 2px; opacity: 1;"/></g><g class="points"/><g class="text"/></g><g class="trace scatter trace6f04aa" style="stroke-miterlimit: 2; opacity: 1;"><g class="fills"/><g class="errorbars"/><g class="lines"><path class="js-line" d="M0,256.5L100.37,255.99L101.37,255.7L113.29,254L114.29,252.97L122.24,252.37L123.23,252.33L155.03,251.58L156.03,251.55L193.79,250.04L194.79,250.01L208.7,248.36L209.69,248.26L228.58,247.05L229.57,247.04L252.43,245.23L253.42,245.08L265.35,243.32L266.34,243.13L279.26,241.5L280.25,241.12L286.22,239.3L287.21,238.84L297.15,236.7L298.14,236.29L305.1,234.29" style="vector-effect: non-scaling-stroke; fill: none; stroke: rgb(67, 99, 216); stroke-opacity: 1; stroke-width: 2px; opacity: 1;"/></g><g class="points"/><g class="text"/></g><g class="trace scatter traceaf25fb" style="stroke-miterlimit: 2; opacity: 1;"><g class="fills"/><g class="errorbars"/><g class="lines"><path class="js-line" d="M0,256.5L151.06,255.77L152.05,255.71L179.88,254.54L180.87,254.32L191.81,253.64L192.8,253.55L212.68,252.25L213.67,252.23L231.56,251.09L232.55,250.86L251.43,249.02L252.43,248.86L264.35,247.2L265.35,246.97L271.31,245.71L272.3,245.46L287.21,241.58L288.21,240.95L291.19,240.25L292.18,240.25L297.15,237.38L298.14,237.06L304.11,234.04L305.1,233.47" style="vector-effect: non-scaling-stroke; fill: none; stroke: rgb(245, 130, 49); stroke-opacity: 1; stroke-width: 2px; opacity: 1;"/></g><g class="points"/><g class="text"/></g><g class="trace scatter trace143498" style="stroke-miterlimit: 2; opacity: 1;"><g class="fills"/><g class="errorbars"/><g class="lines"><path class="js-line" d="M0,256.5L99.38,255.78L100.37,255.74L109.32,254.93L110.31,254.7L117.27,254.15L118.26,254.12L140.13,253.37L141.12,253.3L153.05,251.96L154.04,251.58L184.85,242.83L185.84,242.55L207.71,237.48L208.7,237.39L231.56,235.49L232.55,235.41L255.41,233.67L256.4,233.51L276.28,231.26L277.27,231.04L287.21,229.13L288.21,227.92L291.19,227.67L292.18,226.78L293.17,226.76L294.17,225.96L299.14,222.79L300.13,221.7L304.11,216.99L305.1,216.04" style="vector-effect: non-scaling-stroke; fill: none; stroke: rgb(145, 30, 180); stroke-opacity: 1; stroke-width: 2px; opacity: 1;"/></g><g class="points"/><g class="text"/></g></g></g><g class="overplot"/><path class="xlines-above crisp" d="M0,0" style="fill: none;"/><path class="ylines-above crisp" d="M0,0" style="fill: none;"/><g class="overlines-above"/><g class="xaxislayer-above"><g class="xtick"><text text-anchor="middle" x="0" y="383" transform="translate(149.57,0)" style="font-family: 'Open Sans', verdana, arial, sans-serif; font-size: 12px; fill: rgb(242, 245, 250); fill-opacity: 1; white-space: pre;">Apr 2020</text></g><g class="xtick"><text text-anchor="middle" x="0" y="383" transform="translate(240,0)" style="font-family: 'Open Sans', verdana, arial, sans-serif; font-size: 12px; fill: rgb(242, 245, 250); fill-opacity: 1; white-space: pre;">Jul 2020</text></g><g class="xtick"><text text-anchor="middle" x="0" y="383" transform="translate(331.43,0)" style="font-family: 'Open Sans', verdana, arial, sans-serif; font-size: 12px; fill: rgb(242, 245, 250); fill-opacity: 1; white-space: pre;">Oct 2020</text></g></g><g class="yaxislayer-above"><g class="ytick"><text text-anchor="end" x="79" y="4.199999999999999" transform="translate(0,356.5)" style="font-family: 'Open Sans', verdana, arial, sans-serif; font-size: 12px; fill: rgb(242, 245, 250); fill-opacity: 1; white-space: pre;">0</text></g><g class="ytick"><text text-anchor="end" x="79" y="4.199999999999999" transform="translate(0,312.88)" style="font-family: 'Open Sans', verdana, arial, sans-serif; font-size: 12px; fill: rgb(242, 245, 250); fill-opacity: 1; white-space: pre;">5k</text></g><g class="ytick"><text text-anchor="end" x="79" y="4.199999999999999" transform="translate(0,269.27)" style="font-family: 'Open Sans', verdana, arial, sans-serif; font-size: 12px; fill: rgb(242, 245, 250); fill-opacity: 1; white-space: pre;">10k</text></g><g class="ytick"><text text-anchor="end" x="79" y="4.199999999999999" transform="translate(0,225.65)" style="font-family: 'Open Sans', verdana, arial, sans-serif; font-size: 12px; fill: rgb(242, 245, 250); fill-opacity: 1; white-space: pre;">15k</text></g><g class="ytick"><text text-anchor="end" x="79" y="4.199999999999999" transform="translate(0,182.04000000000002)" style="font-family: 'Open Sans', verdana, arial, sans-serif; font-size: 12px; fill: rgb(242, 245, 250); fill-opacity: 1; white-space: pre;">20k</text></g><g class="ytick"><text text-anchor="end" x="79" y="4.199999999999999" transform="translate(0,138.42000000000002)" style="font-family: 'Open Sans', verdana, arial, sans-serif; font-size: 12px; fill: rgb(242, 245, 250); fill-opacity: 1; white-space: pre;">25k</text></g></g><g class="overaxes-above"/></g><g class="subplot x2y2"><g class="layer-subplot"><g class="shapelayer"/><g class="imagelayer"/></g><g class="gridlayer"><g class="x2"><path class="x2grid crisp" transform="translate(522.47,0)" d="M0,100v270" style="stroke: rgb(40, 52, 66); stroke-opacity: 1; stroke-width: 1px;"/><path class="x2grid crisp" transform="translate(612.9000000000001,0)" d="M0,100v270" style="stroke: rgb(40, 52, 66); stroke-opacity: 1; stroke-width: 1px;"/><path class="x2grid crisp" transform="translate(704.33,0)" d="M0,100v270" style="stroke: rgb(40, 52, 66); stroke-opacity: 1; stroke-width: 1px;"/></g><g class="y2"><path class="y2grid crisp" transform="translate(0,307.8)" d="M452.90000000000003,0h305.09999999999997" style="stroke: rgb(40, 52, 66); stroke-opacity: 1; stroke-width: 1px;"/><path class="y2grid crisp" transform="translate(0,259.11)" d="M452.90000000000003,0h305.09999999999997" style="stroke: rgb(40, 52, 66); stroke-opacity: 1; stroke-width: 1px;"/><path class="y2grid crisp" transform="translate(0,210.41)" d="M452.90000000000003,0h305.09999999999997" style="stroke: rgb(40, 52, 66); stroke-opacity: 1; stroke-width: 1px;"/><path class="y2grid crisp" transform="translate(0,161.71)" d="M452.90000000000003,0h305.09999999999997" style="stroke: rgb(40, 52, 66); stroke-opacity: 1; stroke-width: 1px;"/><path class="y2grid crisp" transform="translate(0,113.01)" d="M452.90000000000003,0h305.09999999999997" style="stroke: rgb(40, 52, 66); stroke-opacity: 1; stroke-width: 1px;"/></g></g><g class="zerolinelayer"><path class="y2zl zl crisp" transform="translate(0,356.5)" d="M452.90000000000003,0h305.09999999999997" style="stroke: rgb(40, 52, 66); stroke-opacity: 1; stroke-width: 2px;"/></g><path class="xlines-below"/><path class="ylines-below"/><g class="overlines-below"/><g class="xaxislayer-below"/><g class="yaxislayer-below"/><g class="overaxes-below"/><g class="plot" transform="translate(452.90000000000003, 100)" clip-path="url('#clip0538a2x2y2plot')"><g class="scatterlayer mlayer"><g class="trace scatter tracec83ff2" style="stroke-miterlimit: 2; opacity: 1;"><g class="fills"/><g class="errorbars"/><g class="lines"><path class="js-line" d="M0,256.5L60.62,256.01L61.62,255.53L62.61,255.53L63.6,254.55L64.6,254.55L65.59,253.58L67.58,253.09L68.57,253.09L70.56,252.12L71.55,250.66L74.54,250.17L75.53,249.2L77.52,248.22L78.51,246.76L81.49,245.3L82.49,245.3L83.48,238.97L84.47,237.51L85.47,237.51L86.46,236.53L91.43,234.1L92.42,233.13L93.42,231.18L94.41,231.18L95.41,231.18L96.4,229.72L100.37,225.82L101.37,225.82L102.36,225.82L103.36,224.36L105.34,223.87L106.34,222.41L108.33,221.92L109.32,221.92L113.29,216.57L114.29,216.08L116.28,216.08L117.27,214.62L121.24,211.7L122.24,211.21L126.21,210.72L127.21,210.24L130.19,209.75L131.18,209.26L133.17,209.26L134.16,207.32L138.14,206.83L139.13,205.37L141.12,203.42L142.11,203.42L143.11,201.96L144.1,201.96L145.1,201.96L146.09,200.01L149.07,199.04L150.07,199.04L153.05,197.09L154.04,194.17L157.02,191.73L158.02,191.73L161.99,188.32L162.99,188.32L165.97,188.32L166.96,187.35L168.95,184.91L169.94,184.43L171.93,184.43L172.92,182.48L174.91,181.51L175.9,178.1L177.89,177.61L178.89,177.61L182.86,169.82L183.86,169.82L185.84,169.82L186.84,168.36L189.82,167.87L190.81,164.46L192.8,164.46L193.79,163L195.78,162.51L196.77,162.51L197.77,162.51L198.76,156.67L200.75,156.67L201.74,153.26L203.73,149.85L204.73,149.85L207.71,147.42L208.7,145.47L210.69,143.04L211.68,143.04L213.67,142.55L214.66,139.63L217.64,136.22L218.64,136.22L219.63,131.35L220.63,131.35L221.62,131.35L222.61,123.07L223.61,112.84L224.6,112.36L225.6,110.89L226.59,110.89L228.58,110.41L229.57,108.95L230.56,108.95L231.56,100.67L232.55,100.67L233.55,94.82L234.54,94.34L235.53,83.14L236.53,83.14L237.52,78.75L239.51,74.37L240.5,74.37L241.5,74.37L242.49,66.58L246.47,58.79L247.46,58.79L248.45,58.79L249.45,57.81L250.44,55.87L251.43,51.97L252.43,51.97L253.42,49.54L255.41,49.54L256.4,48.56L257.4,46.61L258.39,46.61L270.32,46.13L271.31,44.67L272.3,34.44L273.3,34.44L275.29,32.01L276.28,32.01L279.26,31.03L280.25,31.03L285.22,31.03L286.22,30.06L288.21,25.67L289.2,25.67L291.19,25.67L292.18,21.29L293.17,19.83L294.17,19.83L296.16,17.88L297.15,17.88L299.14,15.93L300.13,15.45L301.12,13.5L302.12,13.5L305.1,13.5" style="vector-effect: non-scaling-stroke; fill: none; stroke: rgb(230, 25, 75); stroke-opacity: 1; stroke-width: 2px; opacity: 1;"/></g><g class="points"/><g class="text"/></g><g class="trace scatter trace137858" style="stroke-miterlimit: 2; opacity: 1;"><g class="fills"/><g class="errorbars"/><g class="lines"><path class="js-line" d="M0,256.5L83.48,256.5L84.47,255.53L89.44,255.04L90.44,254.55L131.18,254.07L132.18,253.58L178.89,253.09L179.88,252.6L182.86,252.12L183.86,251.14L186.84,251.14L187.83,250.17L194.79,250.17L195.78,248.71L198.76,247.73L199.76,247.73L201.74,247.73L202.74,246.76L207.71,246.27L208.7,245.79L213.67,245.3L214.66,244.81L217.64,242.86L218.64,242.38L224.6,242.38L225.6,241.4L228.58,240.92L229.57,240.43L233.55,238.97L234.54,238.97L241.5,238.48L242.49,237.99L244.48,237.51L245.47,237.02L249.45,236.53L250.44,235.07L252.43,233.13L253.42,233.13L257.4,232.64L258.39,232.15L266.34,231.66L267.34,231.18L270.32,230.69L271.31,230.2L273.3,229.72L274.29,229.23L278.27,228.74L279.26,227.77L282.24,227.77L283.24,226.79L285.22,225.82L286.22,225.82L291.19,225.33L292.18,223.39L293.17,223.39L294.17,222.41L297.15,221.92L298.14,220.95L301.12,219.98L302.12,219.98L303.11,218.03L304.11,218.03L305.1,218.03" style="vector-effect: non-scaling-stroke; fill: none; stroke: rgb(60, 180, 75); stroke-opacity: 1; stroke-width: 2px; opacity: 1;"/></g><g class="points"/><g class="text"/></g><g class="trace scatter tracea6478b" style="stroke-miterlimit: 2; opacity: 1;"><g class="fills"/><g class="errorbars"/><g class="lines"><path class="js-line" d="M0,256.5L84.47,256.01L85.47,255.53L133.17,255.04L134.16,254.55L193.79,254.07L194.79,253.58L199.76,253.09L200.75,252.6L201.74,252.6L202.74,251.63L214.66,251.14L215.66,250.66L243.48,250.17L244.48,249.68L279.26,249.2L280.25,248.71L290.19,248.71L291.19,247.73L296.16,243.84L297.15,243.84L299.14,243.35L300.13,242.86L302.12,242.86L303.11,241.89L304.11,241.89L305.1,240.92" style="vector-effect: non-scaling-stroke; fill: none; stroke: rgb(255, 225, 25); stroke-opacity: 1; stroke-width: 2px; opacity: 1;"/></g><g class="points"/><g class="text"/></g><g class="trace scatter trace2820ab" style="stroke-miterlimit: 2; opacity: 1;"><g class="fills"/><g class="errorbars"/><g class="lines"><path class="js-line" d="M0,256.5L119.26,256.01L120.25,255.04L126.21,255.04L127.21,254.07L169.94,253.58L170.94,253.09L182.86,253.09L183.86,252.12L195.78,251.63L196.77,251.14L203.73,250.66L204.73,247.73L210.69,247.25L211.68,246.76L218.64,246.76L219.63,245.79L222.61,245.3L223.61,244.33L228.58,243.84L229.57,243.35L231.56,242.86L232.55,242.86L234.54,242.86L235.53,241.4L242.49,240.92L243.48,240.43L251.43,239.94L252.43,239.46L269.32,238.97L270.32,238.48L283.24,238.48L284.23,236.53L291.19,236.05L292.18,235.56L301.12,235.07L302.12,233.61L303.11,233.61L304.11,232.64L305.1,232.64" style="vector-effect: non-scaling-stroke; fill: none; stroke: rgb(67, 99, 216); stroke-opacity: 1; stroke-width: 2px; opacity: 1;"/></g><g class="points"/><g class="text"/></g><g class="trace scatter trace4977c6" style="stroke-miterlimit: 2; opacity: 1;"><g class="fills"/><g class="errorbars"/><g class="lines"><path class="js-line" d="M0,256.5L178.89,256.01L179.88,255.53L207.71,255.04L208.7,254.55L213.67,254.07L214.66,253.58L217.64,253.09L218.64,252.6L238.51,252.12L239.51,251.63L255.41,251.63L256.4,250.66L262.37,250.17L263.36,249.68L266.34,249.2L267.34,248.71L269.32,248.71L270.32,247.73L272.3,246.76L273.3,246.76L279.26,246.27L280.25,245.3L282.24,244.33L283.24,244.33L285.22,240.92L286.22,239.94L289.2,238.48L290.19,238.48L291.19,238.48L292.18,237.02L296.16,235.07L297.15,235.07L299.14,234.59L300.13,234.1L302.12,234.1L303.11,232.64L305.1,232.15" style="vector-effect: non-scaling-stroke; fill: none; stroke: rgb(245, 130, 49); stroke-opacity: 1; stroke-width: 2px; opacity: 1;"/></g><g class="points"/><g class="text"/></g><g class="trace scatter trace080434" style="stroke-miterlimit: 2; opacity: 1;"><g class="fills"/><g class="errorbars"/><g class="lines"><path class="js-line" d="M0,256.5L96.4,256.01L97.39,255.53L105.34,255.04L106.34,254.55L117.27,254.07L118.26,253.58L155.03,253.09L156.03,252.6L159.01,252.12L160,251.63L169.94,251.14L170.94,249.2L171.93,249.2L172.92,246.27L175.9,243.84L176.9,238.48L177.89,238.48L178.89,235.07L179.88,232.64L180.87,232.64L181.87,232.15L182.86,230.2L187.83,230.2L188.82,227.77L197.77,223.87L198.76,223.87L200.75,223.39L201.74,221.92L203.73,221.44L204.73,220.95L208.7,220.46L209.69,219.49L222.61,219L223.61,218.52L225.6,218.03L226.59,218.03L244.48,217.54L245.47,216.57L250.44,216.57L251.43,215.59L262.37,215.11L263.36,214.62L274.29,214.13L275.29,213.65L279.26,213.16L280.25,212.19L287.21,211.7L288.21,208.29L290.19,207.32L291.19,207.32L294.17,206.83L295.16,206.34L297.15,205.85L298.14,205.85L301.12,205.37L302.12,204.39L304.11,204.39L305.1,202.93" style="vector-effect: non-scaling-stroke; fill: none; stroke: rgb(145, 30, 180); stroke-opacity: 1; stroke-width: 2px; opacity: 1;"/></g><g class="points"/><g class="text"/></g></g></g><g class="overplot"/><path class="xlines-above crisp" d="M0,0" style="fill: none;"/><path class="ylines-above crisp" d="M0,0" style="fill: none;"/><g class="overlines-above"/><g class="xaxislayer-above"><g class="x2tick"><text text-anchor="middle" x="0" y="383" transform="translate(522.47,0)" style="font-family: 'Open Sans', verdana, arial, sans-serif; font-size: 12px; fill: rgb(242, 245, 250); fill-opacity: 1; white-space: pre;">Apr 2020</text></g><g class="x2tick"><text text-anchor="middle" x="0" y="383" transform="translate(612.9000000000001,0)" style="font-family: 'Open Sans', verdana, arial, sans-serif; font-size: 12px; fill: rgb(242, 245, 250); fill-opacity: 1; white-space: pre;">Jul 2020</text></g><g class="x2tick"><text text-anchor="middle" x="0" y="383" transform="translate(704.33,0)" style="font-family: 'Open Sans', verdana, arial, sans-serif; font-size: 12px; fill: rgb(242, 245, 250); fill-opacity: 1; white-space: pre;">Oct 2020</text></g></g><g class="yaxislayer-above"><g class="y2tick"><text text-anchor="end" x="451.90000000000003" y="4.199999999999999" transform="translate(0,356.5)" style="font-family: 'Open Sans', verdana, arial, sans-serif; font-size: 12px; fill: rgb(242, 245, 250); fill-opacity: 1; white-space: pre;">0</text></g><g class="y2tick"><text text-anchor="end" x="451.90000000000003" y="4.199999999999999" transform="translate(0,307.8)" style="font-family: 'Open Sans', verdana, arial, sans-serif; font-size: 12px; fill: rgb(242, 245, 250); fill-opacity: 1; white-space: pre;">100</text></g><g class="y2tick"><text text-anchor="end" x="451.90000000000003" y="4.199999999999999" transform="translate(0,259.11)" style="font-family: 'Open Sans', verdana, arial, sans-serif; font-size: 12px; fill: rgb(242, 245, 250); fill-opacity: 1; white-space: pre;">200</text></g><g class="y2tick"><text text-anchor="end" x="451.90000000000003" y="4.199999999999999" transform="translate(0,210.41)" style="font-family: 'Open Sans', verdana, arial, sans-serif; font-size: 12px; fill: rgb(242, 245, 250); fill-opacity: 1; white-space: pre;">300</text></g><g class="y2tick"><text text-anchor="end" x="451.90000000000003" y="4.199999999999999" transform="translate(0,161.71)" style="font-family: 'Open Sans', verdana, arial, sans-serif; font-size: 12px; fill: rgb(242, 245, 250); fill-opacity: 1; white-space: pre;">400</text></g><g class="y2tick"><text text-anchor="end" x="451.90000000000003" y="4.199999999999999" transform="translate(0,113.01)" style="font-family: 'Open Sans', verdana, arial, sans-serif; font-size: 12px; fill: rgb(242, 245, 250); fill-opacity: 1; white-space: pre;">500</text></g></g><g class="overaxes-above"/></g></g><g class="polarlayer"/><g class="ternarylayer"/><g class="geolayer"/><g class="funnelarealayer"/><g class="pielayer"/><g class="treemaplayer"/><g class="sunburstlayer"/><g class="glimages"/><defs id="topdefs-0538a2"><g class="clips"/><clipPath id="legend0538a2"><rect width="116" height="124" x="0" y="0"/></clipPath></defs><g class="layer-above"><g class="imagelayer"/><g class="shapelayer"/></g><g class="infolayer"><g class="legend" pointer-events="all" transform="translate(771.5600000000001, 100)"><rect class="bg" shape-rendering="crispEdges" width="116" height="124" x="0" y="0" style="stroke: rgb(68, 68, 68); stroke-opacity: 1; fill: rgb(17, 17, 17); fill-opacity: 1; stroke-width: 0px;"/><g class="scrollbox" transform="translate(0, 0)" clip-path="url('#legend0538a2')"><g class="groups"><g class="traces" transform="translate(0, 14.5)" style="opacity: 1;"><text class="legendtext user-select-none" text-anchor="start" x="40" y="4.680000000000001" style="font-family: 'Open Sans', verdana, arial, sans-serif; font-size: 12px; fill: rgb(242, 245, 250); fill-opacity: 1; white-space: pre;">Alameda, CA</text><g class="layers" style="opacity: 1;"><g class="legendfill"/><g class="legendlines"><path class="js-line" d="M5,0h30" style="fill: none; stroke: rgb(230, 25, 75); stroke-opacity: 1; stroke-width: 2px;"/></g><g class="legendsymbols"><g class="legendpoints"/></g></g><rect class="legendtoggle" pointer-events="all" x="0" y="-9.5" width="110.703125" height="19" style="cursor: pointer; fill: rgb(0, 0, 0); fill-opacity: 0;"/></g><g class="traces" transform="translate(0, 33.5)" style="opacity: 1;"><text class="legendtext user-select-none" text-anchor="start" x="40" y="4.680000000000001" style="font-family: 'Open Sans', verdana, arial, sans-serif; font-size: 12px; fill: rgb(242, 245, 250); fill-opacity: 1; white-space: pre;">Putnam, TN</text><g class="layers" style="opacity: 1;"><g class="legendfill"/><g class="legendlines"><path class="js-line" d="M5,0h30" style="fill: none; stroke: rgb(60, 180, 75); stroke-opacity: 1; stroke-width: 2px;"/></g><g class="legendsymbols"><g class="legendpoints"/></g></g><rect class="legendtoggle" pointer-events="all" x="0" y="-9.5" width="110.703125" height="19" style="cursor: pointer; fill: rgb(0, 0, 0); fill-opacity: 0;"/></g><g class="traces" transform="translate(0, 52.5)" style="opacity: 1;"><text class="legendtext user-select-none" text-anchor="start" x="40" y="4.680000000000001" style="font-family: 'Open Sans', verdana, arial, sans-serif; font-size: 12px; fill: rgb(242, 245, 250); fill-opacity: 1; white-space: pre;">Wise, TX</text><g class="layers" style="opacity: 1;"><g class="legendfill"/><g class="legendlines"><path class="js-line" d="M5,0h30" style="fill: none; stroke: rgb(255, 225, 25); stroke-opacity: 1; stroke-width: 2px;"/></g><g class="legendsymbols"><g class="legendpoints"/></g></g><rect class="legendtoggle" pointer-events="all" x="0" y="-9.5" width="110.703125" height="19" style="cursor: pointer; fill: rgb(0, 0, 0); fill-opacity: 0;"/></g><g class="traces" transform="translate(0, 71.5)" style="opacity: 1;"><text class="legendtext user-select-none" text-anchor="start" x="40" y="4.680000000000001" style="font-family: 'Open Sans', verdana, arial, sans-serif; font-size: 12px; fill: rgb(242, 245, 250); fill-opacity: 1; white-space: pre;">Wilkes, NC</text><g class="layers" style="opacity: 1;"><g class="legendfill"/><g class="legendlines"><path class="js-line" d="M5,0h30" style="fill: none; stroke: rgb(67, 99, 216); stroke-opacity: 1; stroke-width: 2px;"/></g><g class="legendsymbols"><g class="legendpoints"/></g></g><rect class="legendtoggle" pointer-events="all" x="0" y="-9.5" width="110.703125" height="19" style="cursor: pointer; fill: rgb(0, 0, 0); fill-opacity: 0;"/></g><g class="traces" transform="translate(0, 90.5)" style="opacity: 1;"><text class="legendtext user-select-none" text-anchor="start" x="40" y="4.680000000000001" style="font-family: 'Open Sans', verdana, arial, sans-serif; font-size: 12px; fill: rgb(242, 245, 250); fill-opacity: 1; white-space: pre;">Cabell, WV</text><g class="layers" style="opacity: 1;"><g class="legendfill"/><g class="legendlines"><path class="js-line" d="M5,0h30" style="fill: none; stroke: rgb(245, 130, 49); stroke-opacity: 1; stroke-width: 2px;"/></g><g class="legendsymbols"><g class="legendpoints"/></g></g><rect class="legendtoggle" pointer-events="all" x="0" y="-9.5" width="110.703125" height="19" style="cursor: pointer; fill: rgb(0, 0, 0); fill-opacity: 0;"/></g><g class="traces" transform="translate(0, 109.5)" style="opacity: 1;"><text class="legendtext user-select-none" text-anchor="start" x="40" y="4.680000000000001" style="font-family: 'Open Sans', verdana, arial, sans-serif; font-size: 12px; fill: rgb(242, 245, 250); fill-opacity: 1; white-space: pre;">Yavapai, AZ</text><g class="layers" style="opacity: 1;"><g class="legendfill"/><g class="legendlines"><path class="js-line" d="M5,0h30" style="fill: none; stroke: rgb(145, 30, 180); stroke-opacity: 1; stroke-width: 2px;"/></g><g class="legendsymbols"><g class="legendpoints"/></g></g><rect class="legendtoggle" pointer-events="all" x="0" y="-9.5" width="110.703125" height="19" style="cursor: pointer; fill: rgb(0, 0, 0); fill-opacity: 0;"/></g></g></g><rect class="scrollbar" rx="20" ry="3" width="0" height="0" x="0" y="0" style="fill: rgb(128, 139, 164); fill-opacity: 1;"/></g><g class="g-gtitle"/><g class="g-xtitle"><text class="xtitle" x="232.55" y="410.8" text-anchor="middle" style="font-family: 'Open Sans', verdana, arial, sans-serif; font-size: 14px; fill: rgb(242, 245, 250); opacity: 1; font-weight: normal; white-space: pre;">Date</text></g><g class="g-x2title"><text class="x2title" x="605.45" y="410.8" text-anchor="middle" style="font-family: 'Open Sans', verdana, arial, sans-serif; font-size: 14px; fill: rgb(242, 245, 250); opacity: 1; font-weight: normal; white-space: pre;">Date</text></g><g class="g-ytitle"><text class="ytitle" transform="rotate(-90,34.840625,235)" x="34.840625" y="235" text-anchor="middle" style="font-family: 'Open Sans', verdana, arial, sans-serif; font-size: 14px; fill: rgb(242, 245, 250); opacity: 1; font-weight: normal; white-space: pre;">Cases</text></g><g class="g-y2title"><text class="y2title" transform="rotate(-90,407.075,235)" x="407.075" y="235" text-anchor="middle" style="font-family: 'Open Sans', verdana, arial, sans-serif; font-size: 14px; fill: rgb(242, 245, 250); opacity: 1; font-weight: normal; white-space: pre;">Deaths</text></g><g class="annotation" data-index="0" style="opacity: 1;"><g class="annotation-text-g" transform="rotate(0,232.55,89.5)"><g class="cursor-pointer" transform="translate(208, 79)"><rect class="bg" x="0.5" y="0.5" width="48" height="20" style="stroke-width: 1px; stroke: rgb(0, 0, 0); stroke-opacity: 0; fill: rgb(0, 0, 0); fill-opacity: 0;"/><text class="annotation-text" text-anchor="middle" x="24.6875" y="16" style="font-family: 'Open Sans', verdana, arial, sans-serif; font-size: 16px; fill: rgb(242, 245, 250); fill-opacity: 1; white-space: pre;">Cases</text></g></g></g><g class="annotation" data-index="1" style="opacity: 1;"><g class="annotation-text-g" transform="rotate(0,605.45,89.5)"><g class="cursor-pointer" transform="translate(578, 79)"><rect class="bg" x="0.5" y="0.5" width="54" height="20" style="stroke-width: 1px; stroke: rgb(0, 0, 0); stroke-opacity: 0; fill: rgb(0, 0, 0); fill-opacity: 0;"/><text class="annotation-text" text-anchor="middle" x="27.359375" y="16" style="font-family: 'Open Sans', verdana, arial, sans-serif; font-size: 16px; fill: rgb(242, 245, 250); fill-opacity: 1; white-space: pre;">Deaths</text></g></g></g></g></svg>