<svg class="main-svg" xmlns="http://www.w3.org/2000/svg" xmlns:xlink="http://www.w3.org/1999/xlink" width="900" height="450" style="" viewBox="0 0 900 450"><rect x="0" y="0" width="900" height="450" style="fill: rgb(17, 17, 17); fill-opacity: 1;"/><defs id="defs-134727"><g class="clips"><clipPath id="clip134727xyplot" class="plotclip"><rect width="301.95" height="270"/></clipPath><clipPath id="clip134727x2y2plot" class="plotclip"><rect width="301.95" height="270"/></clipPath><clipPath class="axesclip" id="clip134727x"><rect x="80" y="0" width="301.95" height="450"/></clipPath><clipPath class="axesclip" id="clip134727y"><rect x="0" y="100" width="900" height="270"/></clipPath><clipPath class="axesclip" id="clip134727xy"><rect x="80" y="100" width="301.95" height="270"/></clipPath><clipPath class="axesclip" id="clip134727y2"><rect x="0" y="100" width="900" height="270"/></clipPath><clipPath class="axesclip" id="clip134727xy2"><rect x="80" y="100" width="301.95" height="270"/></clipPath><clipPath class="axesclip" id="clip134727x2"><rect x="449.05" y="0" width="301.95" height="450"/></clipPath><clipPath class="axesclip" id="clip134727x2y"><rect x="449.05" y="100" width="301.95" height="270"/></clipPath><clipPath class="axesclip" id="clip134727x2y2"><rect x="449.05" y="100" width="301.95" height="270"/></clipPath></g><g class="gradients"/></defs><g class="bglayer"/><g class="layer-below"><g class="imagelayer"/><g class="shapelayer"/></g><g class="cartesianlayer"><g class="subplot xy"><g class="layer-subplot"><g class="shapelayer"/><g class="imagelayer"/></g><g class="gridlayer"><g class="x"><path class="xgrid crisp" transform="translate(132.84,0)" d="M0,100v270" style="stroke: rgb(40, 52, 66); stroke-opacity: 1; stroke-width: 1px;"/><path class="xgrid crisp" transform="translate(201.53,0)" d="M0,100v270" style="stroke: rgb(40, 52, 66); stroke-opacity: 1; stroke-width: 1px;"/><path class="xgrid crisp" transform="translate(270.98,0)" d="M0,100v270" style="stroke: rgb(40, 52, 66); stroke-opacity: 1; stroke-width: 1px;"/><path class="xgrid crisp" transform="translate(340.43,0)" d="M0,100v270" style="stroke: rgb(40, 52, 66); stroke-opacity: 1; stroke-width: 1px;"/></g><g class="y"><path class="ygrid crisp" transform="translate(0,305.03999999999996)" d="M80,0h301.95" style="stroke: rgb(40, 52, 66); stroke-opacity: 1; stroke-width: 1px;"/><path class="ygrid crisp" transform="translate(0,253.58)" d="M80,0h301.95" style="stroke: rgb(40, 52, 66); stroke-opacity: 1; stroke-width: 1px;"/><path class="ygrid crisp" transform="translate(0,202.12)" d="M80,0h301.95" style="stroke: rgb(40, 52, 66); stroke-opacity: 1; stroke-width: 1px;"/><path class="ygrid crisp" transform="translate(0,150.66)" d="M80,0h301.95" style="stroke: rgb(40, 52, 66); stroke-opacity: 1; stroke-width: 1px;"/></g></g><g class="zerolinelayer"><path class="yzl zl crisp" transform="translate(0,356.5)" d="M80,0h301.95" style="stroke: rgb(40, 52, 66); stroke-opacity: 1; stroke-width: 2px;"/></g><path class="xlines-below"/><path class="ylines-below"/><g class="overlines-below"/><g class="xaxislayer-below"/><g class="yaxislayer-below"/><g class="overaxes-below"/><g class="plot" transform="translate(80, 100)" clip-path="url('#clip134727xyplot')"><g class="scatterlayer mlayer"><g class="trace scatter tracedd38e4" style="stroke-miterlimit: 2; opacity: 1;"><g class="fills"/><g class="errorbars"/><g class="lines"><path class="js-line" d="M0,256.5L70.96,255.76L71.71,255.74L101.15,254.63L101.91,254.58L130.59,252.4L131.35,252.22L153.99,249.18L154.75,249.01L158.52,248.35L159.28,248.17L169.85,246.8L170.6,246.73L194,245.31L194.76,245.28L218.16,243.93L218.91,243.81L237.79,240.89L238.54,240.56L241.56,239.71L242.31,239.14L246.84,236.83L247.6,236.45L251.37,234.55L252.13,233.86L271,223.38L271.76,222.84L274.77,221.28L275.53,221.1L287.61,217.54L288.36,217.3L299.69,215.51L300.44,215.44L301.95,215.3" style="vector-effect: non-scaling-stroke; fill: none; stroke: rgb(230, 25, 75); stroke-opacity: 1; stroke-width: 2px; opacity: 1;"/></g><g class="points"/><g class="text"/></g><g class="trace scatter trace7fb8b8" style="stroke-miterlimit: 2; opacity: 1;"><g class="fills"/><g class="errorbars"/><g class="lines"><path class="js-line" d="M0,256.5L86.06,255.77L86.81,255.74L120.03,254.16L120.78,254.1L134.37,252.52L135.12,252.15L147.2,245.58L147.96,245.47L150.98,244.36L151.73,243.92L157.01,242.71L157.77,242.62L174.38,240.87L175.13,240.84L195.51,239.69L196.27,239.65L227.22,237.29L227.97,237.13L240.05,233.69L240.81,233.3L242.31,232.62L243.07,232.1L252.88,224.94L253.64,224.37L254.39,224.06L255.15,225.83L276.28,214.65L277.04,214.25L286.1,211.85L286.85,211.65L299.69,209.6L300.44,209.57L301.95,209.4" style="vector-effect: non-scaling-stroke; fill: none; stroke: rgb(60, 180, 75); stroke-opacity: 1; stroke-width: 2px; opacity: 1;"/></g><g class="points"/><g class="text"/></g><g class="trace scatter tracec89090" style="stroke-miterlimit: 2; opacity: 1;"><g class="fills"/><g class="errorbars"/><g class="lines"><path class="js-line" d="M0,256.5L47.56,255.77L48.31,255.52L53.6,253.63L54.35,253.17L69.45,243.22L70.2,242.29L79.26,232.47L80.02,231.62L82.28,229.4L83.04,229.03L86.06,225.67L86.81,225L91.34,221.02L92.09,220.26L94.36,218.51L95.11,218.15L104.17,213.88L104.93,213.65L127.57,208.12L128.33,207.82L150.22,199.45L150.98,199.15L158.52,195.77L159.28,195.39L165.32,192.39L166.07,192.11L172.87,188.77L173.62,188.53L178.91,186.67L179.66,186.39L194,179.76L194.76,179.52L200.8,175.41L201.55,174.66L211.37,163.3L212.12,161.99L213.63,160.57L214.38,157.13L217.4,151.02L218.16,148.3L230.24,111.95L230.99,110.24L236.28,98.84L237.03,96.6L249.11,69.56L249.86,68.14L254.39,60.9L255.15,59.81L258.17,56.63L258.92,55.33L261.94,50.86L262.7,49.91L271.76,34.51L272.51,33.63L275.53,30.53L276.28,29.22L279.3,26.32L280.06,25.68L283.83,22.62L284.59,22.28L291.38,17.94L292.14,17.94L293.65,16.74L294.4,16.48L301.95,13.5" style="vector-effect: non-scaling-stroke; fill: none; stroke: rgb(255, 225, 25); stroke-opacity: 1; stroke-width: 2px; opacity: 1;"/></g><g class="points"/><g class="text"/></g><g class="trace scatter traced15304" style="stroke-miterlimit: 2; opacity: 1;"><g class="fills"/><g class="errorbars"/><g class="lines"><path class="js-line" d="M0,256.5L231.75,255.79L232.5,255.73L269.49,254.98L270.25,254.95L290.63,254.61L291.38,254.61L301.95,254.55" style="vector-effect: non-scaling-stroke; fill: none; stroke: rgb(67, 99, 216); stroke-opacity: 1; stroke-width: 2px; opacity: 1;"/></g><g class="points"/><g class="text"/></g><g class="trace scatter tracec75b83" style="stroke-miterlimit: 2; opacity: 1;"><g class="fills"/><g class="errorbars"/><g class="lines"><path class="js-line" d="M0,256.5L61.9,255.84L62.65,255.49L69.45,254.26L70.2,254.13L79.26,252.83L80.02,252.83L82.28,252.83L83.04,252.04L102.66,250.81L103.42,250.81L104.93,250.35L105.68,250.35L135.12,249.74L135.88,249.46L152.48,248.76L153.24,248.45L173.62,247.7L174.38,247.49L194.76,246.76L195.51,246.4L205.33,245.98L206.08,245.41L210.61,245.41L211.37,244.5L215.89,244.5L216.65,243.48L221.18,243.48L221.93,242.19L226.46,242.19L227.22,240.28L231.75,240.28L232.5,237.98L237.03,237.98L237.79,235.81L242.31,235.81L243.07,232.72L247.6,232.72L248.35,229.81L252.88,229.81L253.64,227.72L258.17,227.72L258.92,226.17L263.45,226.17L264.21,224.16L268.74,224.16L269.49,221.75L274.02,221.75L274.77,219.87L279.3,219.87L280.06,218.3L284.59,218.3L285.34,217.02L289.87,217.02L290.63,216.02L295.16,216.02L295.91,215.2L301.95,214.52" style="vector-effect: non-scaling-stroke; fill: none; stroke: rgb(245, 130, 49); stroke-opacity: 1; stroke-width: 2px; opacity: 1;"/></g><g class="points"/><g class="text"/></g><g class="trace scatter trace6ce6cd" style="stroke-miterlimit: 2; opacity: 1;"><g class="fills"/><g class="errorbars"/><g class="lines"><path class="js-line" d="M0,256.5L69.45,255.76L70.2,255.7L93.6,253.94L94.36,253.94L110.97,252.57L111.72,252.47L122.29,249.84L123.04,249.59L126.06,248.87L126.82,248.48L140.41,243.56L141.16,243.38L144.18,242.18L144.94,241.88L147.2,241.39L147.96,240.98L150.98,240.19L151.73,239.94L156.26,238.33L157.01,237.98L172.87,235.8L173.62,235.8L189.47,232.79L190.23,232.56L206.08,228.34L206.84,228.07L223.44,220.68L224.2,220.07L227.22,218.32L227.97,217.32L232.5,213.34L233.26,212.75L236.28,212.22L237.03,210.58L249.86,200.27L250.62,200.27L251.37,200.27L252.13,189.04L255.15,186.62L255.9,186.62L256.66,186.62L257.41,185.48L258.92,181.74L259.68,180.91L263.45,174.2L264.21,173.2L268.74,164.4L269.49,163.46L278.55,149.94L279.3,149.29L285.34,142.2L286.1,141.36L289.87,138.1L290.63,137.64L294.4,135.07L295.16,135.07L297.42,134.58L298.18,133.98L301.2,133.41L301.95,133.17" style="vector-effect: non-scaling-stroke; fill: none; stroke: rgb(145, 30, 180); stroke-opacity: 1; stroke-width: 2px; opacity: 1;"/></g><g class="points"/><g class="text"/></g></g></g><g class="overplot"/><path class="xlines-above crisp" d="M0,0" style="fill: none;"/><path class="ylines-above crisp" d="M0,0" style="fill: none;"/><g class="overlines-above"/><g class="xaxislayer-above"><g class="xtick"><text text-anchor="middle" x="0" y="383" transform="translate(132.84,0)" style="font-family: 'Open Sans', verdana, arial, sans-serif; font-size: 12px; fill: rgb(242, 245, 250); fill-opacity: 1; white-space: pre;">Apr 2020</text></g><g class="xtick"><text text-anchor="middle" x="0" y="383" transform="translate(201.53,0)" style="font-family: 'Open Sans', verdana, arial, sans-serif; font-size: 12px; fill: rgb(242, 245, 250); fill-opacity: 1; white-space: pre;">Jul 2020</text></g><g class="xtick"><text text-anchor="middle" x="0" y="383" transform="translate(270.98,0)" style="font-family: 'Open Sans', verdana, arial, sans-serif; font-size: 12px; fill: rgb(242, 245, 250); fill-opacity: 1; white-space: pre;">Oct 2020</text></g><g class="xtick"><text text-anchor="middle" x="0" y="383" transform="translate(340.43,0)" style="font-family: 'Open Sans', verdana, arial, sans-serif; font-size: 12px; fill: rgb(242, 245, 250); fill-opacity: 1; white-space: pre;">Jan 2021</text></g></g><g class="yaxislayer-above"><g class="ytick"><text text-anchor="end" x="79" y="4.199999999999999" transform="translate(0,356.5)" style="font-family: 'Open Sans', verdana, arial, sans-serif; font-size: 12px; fill: rgb(242, 245, 250); fill-opacity: 1; white-space: pre;">0</text></g><g class="ytick"><text text-anchor="end" x="79" y="4.199999999999999" transform="translate(0,305.03999999999996)" style="font-family: 'Open Sans', verdana, arial, sans-serif; font-size: 12px; fill: rgb(242, 245, 250); fill-opacity: 1; white-space: pre;">100k</text></g><g class="ytick"><text text-anchor="end" x="79" y="4.199999999999999" transform="translate(0,253.58)" style="font-family: 'Open Sans', verdana, arial, sans-serif; font-size: 12px; fill: rgb(242, 245, 250); fill-opacity: 1; white-space: pre;">200k</text></g><g class="ytick"><text text-anchor="end" x="79" y="4.199999999999999" transform="translate(0,202.12)" style="font-family: 'Open Sans', verdana, arial, sans-serif; font-size: 12px; fill: rgb(242, 245, 250); fill-opacity: 1; white-space: pre;">300k</text></g><g class="ytick"><text text-anchor="end" x="79" y="4.199999999999999" transform="translate(0,150.66)" style="font-family: 'Open Sans', verdana, arial, sans-serif; font-size: 12px; fill: rgb(242, 245, 250); fill-opacity: 1; white-space: pre;">400k</text></g></g><g class="overaxes-above"/></g><g class="subplot x2y2"><g class="layer-subplot"><g class="shapelayer"/><g class="imagelayer"/></g><g class="gridlayer"><g class="x2"><path class="x2grid crisp" transform="translate(501.89,0)" d="M0,100v270" style="stroke: rgb(40, 52, 66); stroke-opacity: 1; stroke-width: 1px;"/><path class="x2grid crisp" transform="translate(570.58,0)" d="M0,100v270" style="stroke: rgb(40, 52, 66); stroke-opacity: 1; stroke-width: 1px;"/><path class="x2grid crisp" transform="translate(640.03,0)" d="M0,100v270" style="stroke: rgb(40, 52, 66); stroke-opacity: 1; stroke-width: 1px;"/><path class="x2grid crisp" transform="translate(709.48,0)" d="M0,100v270" style="stroke: rgb(40, 52, 66); stroke-opacity: 1; stroke-width: 1px;"/></g><g class="y2"><path class="y2grid crisp" transform="translate(0,304.34000000000003)" d="M449.05,0h301.95" style="stroke: rgb(40, 52, 66); stroke-opacity: 1; stroke-width: 1px;"/><path class="y2grid crisp" transform="translate(0,252.17)" d="M449.05,0h301.95" style="stroke: rgb(40, 52, 66); stroke-opacity: 1; stroke-width: 1px;"/><path class="y2grid crisp" transform="translate(0,200.01)" d="M449.05,0h301.95" style="stroke: rgb(40, 52, 66); stroke-opacity: 1; stroke-width: 1px;"/><path class="y2grid crisp" transform="translate(0,147.85)" d="M449.05,0h301.95" style="stroke: rgb(40, 52, 66); stroke-opacity: 1; stroke-width: 1px;"/></g></g><g class="zerolinelayer"><path class="y2zl zl crisp" transform="translate(0,356.5)" d="M449.05,0h301.95" style="stroke: rgb(40, 52, 66); stroke-opacity: 1; stroke-width: 2px;"/></g><path class="xlines-below"/><path class="ylines-below"/><g class="overlines-below"/><g class="xaxislayer-below"/><g class="yaxislayer-below"/><g class="overaxes-below"/><g class="plot" transform="translate(449.05, 100)" clip-path="url('#clip134727x2y2plot')"><g class="scatterlayer mlayer"><g class="trace scatter traceb00306" style="stroke-miterlimit: 2; opacity: 1;"><g class="fills"/><g class="errorbars"/><g class="lines"><path class="js-line" d="M0,256.5L62.65,255.9L63.41,255.56L77,254.86L77.75,254.86L92.09,254.1L92.85,254.07L116.25,253.32L117.01,253.16L168.34,249.8L169.09,249.35L170.6,248.78L171.36,248.7L176.64,248.15L177.4,247.84L180.42,246.98L181.17,246.85L197.78,245L198.53,245.13L207.59,244.61L208.35,244.5L234.01,243.33L234.77,243.17L246.84,242.26L247.6,241.95L264.21,239.39L264.96,238.32L265.72,238.32L266.47,237.49L275.53,236.52L276.28,234.54L288.36,229.45L289.12,229.35L292.14,228.75L292.89,228.12L294.4,227.29L295.16,227.26L297.42,227.13L298.18,225.96L298.93,225.96L299.69,225.2L301.95,224.73" style="vector-effect: non-scaling-stroke; fill: none; stroke: rgb(230, 25, 75); stroke-opacity: 1; stroke-width: 2px; opacity: 1;"/></g><g class="points"/><g class="text"/></g><g class="trace scatter trace32fd09" style="stroke-miterlimit: 2; opacity: 1;"><g class="fills"/><g class="errorbars"/><g class="lines"><path class="js-line" d="M0,256.5L91.34,255.8L92.09,255.74L112.48,254.99L113.23,254.94L126.82,254.23L127.57,254.18L130.59,253.97L131.35,253.94L141.16,253.29L141.92,252.98L149.47,252.33L150.22,252.04L153.99,251.62L154.75,251.18L159.28,250.53L160.03,250.29L165.32,249.38L166.07,249.04L175.13,248.49L175.89,248.1L190.23,246.85L190.98,246.82L194,246.43L194.76,246.41L206.08,245.68L206.84,245.65L228.73,245.02L229.48,244.89L248.35,244.24L249.11,244.09L282.32,240.43L283.08,240.23L286.85,239.55L287.61,239.34L296.67,238.5L297.42,237.54L301.95,236" style="vector-effect: non-scaling-stroke; fill: none; stroke: rgb(60, 180, 75); stroke-opacity: 1; stroke-width: 2px; opacity: 1;"/></g><g class="points"/><g class="text"/></g><g class="trace scatter trace658f6b" style="stroke-miterlimit: 2; opacity: 1;"><g class="fills"/><g class="errorbars"/><g class="lines"><path class="js-line" d="M0,256.5L49.82,255.77L50.58,255.46L52.09,254.91L52.84,254.02L54.35,252.82L55.11,252.14L57.37,250.01L58.13,248.36L61.9,243.85L62.65,241.45L64.92,236.68L65.67,234.07L67.18,232.64L67.94,230.37L71.71,222.26L72.47,221.37L74.73,214.59L75.49,212.87L77,209.92L77.75,209.5L80.77,199.2L81.53,197.45L83.79,192.63L84.55,188.98L86.81,183.11L87.57,182.46L89.08,178.78L89.83,176.33L91.34,173.38L92.09,171.84L93.6,169.81L94.36,169.02L96.62,163.39L97.38,162.53L100.4,157.91L101.15,156.19L105.68,150.79L106.44,149.28L107.95,147.66L108.7,147.25L110.21,145.58L110.97,144.25L114.74,141.14L115.5,140.72L117.76,138.46L118.52,138.19L121.53,137.02L122.29,136.29L128.33,134.1L129.08,133.63L133.61,132.22L134.37,131.99L138.14,131.05L138.9,130.74L150.98,127.97L151.73,127.97L163.81,125.28L164.56,125.08L205.33,116.47L206.08,116.13L213.63,113.86L214.38,113.05L216.65,111.98L217.4,111.12L220.42,109.27L221.18,108.7L222.69,107.18L223.44,107.08L224.95,104.78L225.71,104.29L226.46,103.79L227.22,101.71L230.99,96.39L231.75,95.24L234.01,93.15L234.77,91.2L237.03,88.09L237.79,86.24L243.82,76.54L244.58,74.71L246.09,73.17L246.84,70.88L248.35,69.55L249.11,67.8L250.62,65.17L251.37,64.15L253.64,60L254.39,59.09L256.66,55.36L257.41,54.92L261.19,49.91L261.94,48.24L269.49,38.23L270.25,37.86L273.26,34.16L274.02,33.66L283.08,25.29L283.83,24.95L289.12,21.14L289.87,20.99L290.63,20.57L291.38,19.16L292.89,18.64L293.65,18.25L298.18,15.38L298.93,15.14L301.95,13.5" style="vector-effect: non-scaling-stroke; fill: none; stroke: rgb(255, 225, 25); stroke-opacity: 1; stroke-width: 2px; opacity: 1;"/></g><g class="points"/><g class="text"/></g><g class="trace scatter trace53a09c" style="stroke-miterlimit: 2; opacity: 1;"><g class="fills"/><g class="errorbars"/><g class="lines"><path class="js-line" d="M0,256.5L296.67,256.24L297.42,254.05L301.95,253.97" style="vector-effect: non-scaling-stroke; fill: none; stroke: rgb(67, 99, 216); stroke-opacity: 1; stroke-width: 2px; opacity: 1;"/></g><g class="points"/><g class="text"/></g><g class="trace scatter trace3caca6" style="stroke-miterlimit: 2; opacity: 1;"><g class="fills"/><g class="errorbars"/><g class="lines"><path class="js-line" d="M0,256.5L70.2,255.95L70.96,253.71L78.51,253.06L79.26,251.28L86.06,251.21L86.81,249.98L90.59,249.98L91.34,248.39L95.87,248.39L96.62,246.33L110.97,245.96L111.72,244.32L113.23,243.43L113.99,243.43L119.27,243.43L120.03,242.49L125.31,242.49L126.06,236.34L141.92,235.63L142.67,235.45L163.05,234.98L163.81,234.72L178.91,234.25L179.66,233.94L194.76,233.21L195.51,233L210.61,232.27L211.37,231.72L221.18,231.23L221.93,230.78L231.75,230.29L232.5,229.79L237.03,229.79L237.79,228.96L242.31,228.96L243.07,227.55L247.6,227.55L248.35,225.57L252.88,225.57L253.64,223.3L258.17,223.3L258.92,221.45L263.45,221.45L264.21,219.15L268.74,219.15L269.49,218L274.02,218L274.77,216.6L279.3,216.6L280.06,215.32L284.59,215.32L285.34,214.01L289.87,214.01L290.63,212.92L295.16,212.92L295.91,211.43L300.44,211.43L301.2,209.19L301.95,209.19" style="vector-effect: non-scaling-stroke; fill: none; stroke: rgb(245, 130, 49); stroke-opacity: 1; stroke-width: 2px; opacity: 1;"/></g><g class="points"/><g class="text"/></g><g class="trace scatter tracec42650" style="stroke-miterlimit: 2; opacity: 1;"><g class="fills"/><g class="errorbars"/><g class="lines"><path class="js-line" d="M0,256.5L62.65,255.85L63.41,255.74L77,254.65L77.75,254.54L90.59,253.06L91.34,252.87L127.57,249.88L128.33,249.74L138.9,248.18L139.65,247.92L141.92,247.55L142.67,247.35L169.85,240.23L170.6,240.07L178.15,239.23L178.91,239.1L187.96,237.96L188.72,237.96L193.25,237.36L194,237.36L203.06,236.1L203.82,236.08L211.37,235.09L212.12,234.96L221.93,233.24L222.69,233.08L224.95,232.3L225.71,232.27L230.24,230.78L230.99,230.76L235.52,229.74L236.28,229.74L240.81,227.84L241.56,227.84L244.58,226.3L245.33,225.85L252.13,224.65L252.88,221.84L254.39,221.29L255.15,221L258.17,220.4L258.92,219.93L261.19,218.63L261.94,218.55L263.45,217.85L264.21,217.3L267.23,214.87L267.98,214.87L277.79,205.88L278.55,205.69L280.06,204.26L280.81,202.75L285.34,200.14L286.1,198.96L288.36,196.9L289.12,196.85L292.89,193.3L293.65,193.07L299.69,191.69L300.44,191.43L301.95,189.91" style="vector-effect: non-scaling-stroke; fill: none; stroke: rgb(145, 30, 180); stroke-opacity: 1; stroke-width: 2px; opacity: 1;"/></g><g class="points"/><g class="text"/></g></g></g><g class="overplot"/><path class="xlines-above crisp" d="M0,0" style="fill: none;"/><path class="ylines-above crisp" d="M0,0" style="fill: none;"/><g class="overlines-above"/><g class="xaxislayer-above"><g class="x2tick"><text text-anchor="middle" x="0" y="383" transform="translate(501.89,0)" style="font-family: 'Open Sans', verdana, arial, sans-serif; font-size: 12px; fill: rgb(242, 245, 250); fill-opacity: 1; white-space: pre;">Apr 2020</text></g><g class="x2tick"><text text-anchor="middle" x="0" y="383" transform="translate(570.58,0)" style="font-family: 'Open Sans', verdana, arial, sans-serif; font-size: 12px; fill: rgb(242, 245, 250); fill-opacity: 1; white-space: pre;">Jul 2020</text></g><g class="x2tick"><text text-anchor="middle" x="0" y="383" transform="translate(640.03,0)" style="font-family: 'Open Sans', verdana, arial, sans-serif; font-size: 12px; fill: rgb(242, 245, 250); fill-opacity: 1; white-space: pre;">Oct 2020</text></g><g class="x2tick"><text text-anchor="middle" x="0" y="383" transform="translate(709.48,0)" style="font-family: 'Open Sans', verdana, arial, sans-serif; font-size: 12px; fill: rgb(242, 245, 250); fill-opacity: 1; white-space: pre;">Jan 2021</text></g></g><g class="yaxislayer-above"><g class="y2tick"><text text-anchor="end" x="448.05" y="4.199999999999999" transform="translate(0,356.5)" style="font-family: 'Open Sans', verdana, arial, sans-serif; font-size: 12px; fill: rgb(242, 245, 250); fill-opacity: 1; white-space: pre;">0</text></g><g class="y2tick"><text text-anchor="end" x="448.05" y="4.199999999999999" transform="translate(0,304.34000000000003)" style="font-family: 'Open Sans', verdana, arial, sans-serif; font-size: 12px; fill: rgb(242, 245, 250); fill-opacity: 1; white-space: pre;">2k</text></g><g class="y2tick"><text text-anchor="end" x="448.05" y="4.199999999999999" transform="translate(0,252.17)" style="font-family: 'Open Sans', verdana, arial, sans-serif; font-size: 12px; fill: rgb(242, 245, 250); fill-opacity: 1; white-space: pre;">4k</text></g><g class="y2tick"><text text-anchor="end" x="448.05" y="4.199999999999999" transform="translate(0,200.01)" style="font-family: 'Open Sans', verdana, arial, sans-serif; font-size: 12px; fill: rgb(242, 245, 250); fill-opacity: 1; white-space: pre;">6k</text></g><g class="y2tick"><text text-anchor="end" x="448.05" y="4.199999999999999" transform="translate(0,147.85)" style="font-family: 'Open Sans', verdana, arial, sans-serif; font-size: 12px; fill: rgb(242, 245, 250); fill-opacity: 1; white-space: pre;">8k</text></g></g><g class="overaxes-above"/></g></g><g class="polarlayer"/><g class="ternarylayer"/><g class="geolayer"/><g class="funnelarealayer"/><g class="pielayer"/><g class="treemaplayer"/><g class="sunburstlayer"/><g class="glimages"/><defs id="topdefs-134727"><g class="clips"/><clipPath id="legend134727"><rect width="124" height="124" x="0" y="0"/></clipPath></defs><g class="layer-above"><g class="imagelayer"/><g class="shapelayer"/></g><g class="infolayer"><g class="legend" pointer-events="all" transform="translate(764.42, 100)"><rect class="bg" shape-rendering="crispEdges" width="124" height="124" x="0" y="0" style="stroke: rgb(68, 68, 68); stroke-opacity: 1; fill: rgb(17, 17, 17); fill-opacity: 1; stroke-width: 0px;"/><g class="scrollbox" transform="translate(0, 0)" clip-path="url('#legend134727')"><g class="groups"><g class="traces" transform="translate(0, 14.5)" style="opacity: 1;"><text class="legendtext user-select-none" text-anchor="start" x="40" y="4.680000000000001" style="font-family: 'Open Sans', verdana, arial, sans-serif; font-size: 12px; fill: rgb(242, 245, 250); fill-opacity: 1; white-space: pre;">Alameda, CA</text><g class="layers" style="opacity: 1;"><g class="legendfill"/><g class="legendlines"><path class="js-line" d="M5,0h30" style="fill: none; stroke: rgb(230, 25, 75); stroke-opacity: 1; stroke-width: 2px;"/></g><g class="legendsymbols"><g class="legendpoints"/></g></g><rect class="legendtoggle" pointer-events="all" x="0" y="-9.5" width="118.703125" height="19" style="cursor: pointer; fill: rgb(0, 0, 0); fill-opacity: 0;"/></g><g class="traces" transform="translate(0, 33.5)" style="opacity: 1;"><text class="legendtext user-select-none" text-anchor="start" x="40" y="4.680000000000001" style="font-family: 'Open Sans', verdana, arial, sans-serif; font-size: 12px; fill: rgb(242, 245, 250); fill-opacity: 1; white-space: pre;">Kern, CA</text><g class="layers" style="opacity: 1;"><g class="legendfill"/><g class="legendlines"><path class="js-line" d="M5,0h30" style="fill: none; stroke: rgb(60, 180, 75); stroke-opacity: 1; stroke-width: 2px;"/></g><g class="legendsymbols"><g class="legendpoints"/></g></g><rect class="legendtoggle" pointer-events="all" x="0" y="-9.5" width="118.703125" height="19" style="cursor: pointer; fill: rgb(0, 0, 0); fill-opacity: 0;"/></g><g class="traces" transform="translate(0, 52.5)" style="opacity: 1;"><text class="legendtext user-select-none" text-anchor="start" x="40" y="4.680000000000001" style="font-family: 'Open Sans', verdana, arial, sans-serif; font-size: 12px; fill: rgb(242, 245, 250); fill-opacity: 1; white-space: pre;">Cook, IL</text><g class="layers" style="opacity: 1;"><g class="legendfill"/><g class="legendlines"><path class="js-line" d="M5,0h30" style="fill: none; stroke: rgb(255, 225, 25); stroke-opacity: 1; stroke-width: 2px;"/></g><g class="legendsymbols"><g class="legendpoints"/></g></g><rect class="legendtoggle" pointer-events="all" x="0" y="-9.5" width="118.703125" height="19" style="cursor: pointer; fill: rgb(0, 0, 0); fill-opacity: 0;"/></g><g class="traces" transform="translate(0, 71.5)" style="opacity: 1;"><text class="legendtext user-select-none" text-anchor="start" x="40" y="4.680000000000001" style="font-family: 'Open Sans', verdana, arial, sans-serif; font-size: 12px; fill: rgb(242, 245, 250); fill-opacity: 1; white-space: pre;">Cowley, KS</text><g class="layers" style="opacity: 1;"><g class="legendfill"/><g class="legendlines"><path class="js-line" d="M5,0h30" style="fill: none; stroke: rgb(67, 99, 216); stroke-opacity: 1; stroke-width: 2px;"/></g><g class="legendsymbols"><g class="legendpoints"/></g></g><rect class="legendtoggle" pointer-events="all" x="0" y="-9.5" width="118.703125" height="19" style="cursor: pointer; fill: rgb(0, 0, 0); fill-opacity: 0;"/></g><g class="traces" transform="translate(0, 90.5)" style="opacity: 1;"><text class="legendtext user-select-none" text-anchor="start" x="40" y="4.680000000000001" style="font-family: 'Open Sans', verdana, arial, sans-serif; font-size: 12px; fill: rgb(242, 245, 250); fill-opacity: 1; white-space: pre;">Providence, RI</text><g class="layers" style="opacity: 1;"><g class="legendfill"/><g class="legendlines"><path class="js-line" d="M5,0h30" style="fill: none; stroke: rgb(245, 130, 49); stroke-opacity: 1; stroke-width: 2px;"/></g><g class="legendsymbols"><g class="legendpoints"/></g></g><rect class="legendtoggle" pointer-events="all" x="0" y="-9.5" width="118.703125" height="19" style="cursor: pointer; fill: rgb(0, 0, 0); fill-opacity: 0;"/></g><g class="traces" transform="translate(0, 109.5)" style="opacity: 1;"><text class="legendtext user-select-none" text-anchor="start" x="40" y="4.680000000000001" style="font-family: 'Open Sans', verdana, arial, sans-serif; font-size: 12px; fill: rgb(242, 245, 250); fill-opacity: 1; white-space: pre;">Tarrant, TX</text><g class="layers" style="opacity: 1;"><g class="legendfill"/><g class="legendlines"><path class="js-line" d="M5,0h30" style="fill: none; stroke: rgb(145, 30, 180); stroke-opacity: 1; stroke-width: 2px;"/></g><g class="legendsymbols"><g class="legendpoints"/></g></g><rect class="legendtoggle" pointer-events="all" x="0" y="-9.5" width="118.703125" height="19" style="cursor: pointer; fill: rgb(0, 0, 0); fill-opacity: 0;"/></g></g></g><rect class="scrollbar" rx="20" ry="3" width="0" height="0" x="0" y="0" style="fill: rgb(128, 139, 164); fill-opacity: 1;"/></g><g class="g-gtitle"/><g class="g-xtitle"><text class="xtitle" x="230.975" y="410.8" text-anchor="middle" style="font-family: 'Open Sans', verdana, arial, sans-serif; font-size: 14px; fill: rgb(242, 245, 250); opacity: 1; font-weight: normal; white-space: pre;">Date</text></g><g class="g-x2title"><text class="x2title" x="600.025" y="410.8" text-anchor="middle" style="font-family: 'Open Sans', verdana, arial, sans-serif; font-size: 14px; fill: rgb(242, 245, 250); opacity: 1; font-weight: normal; white-space: pre;">Date</text></g><g class="g-ytitle"><text class="ytitle" transform="rotate(-90,28.168750000000003,235)" x="28.168750000000003" y="235" text-anchor="middle" style="font-family: 'Open Sans', verdana, arial, sans-serif; font-size: 14px; fill: rgb(242, 245, 250); opacity: 1; font-weight: normal; white-space: pre;">Cases</text></g><g class="g-y2title"><text class="y2title" transform="rotate(-90,410.575,235)" x="410.575" y="235" text-anchor="middle" style="font-family: 'Open Sans', verdana, arial, sans-serif; font-size: 14px; fill: rgb(242, 245, 250); opacity: 1; font-weight: normal; white-space: pre;">Deaths</text></g><g class="annotation" data-index="0" style="opacity: 1;"><g class="annotation-text-g" transform="rotate(0,230.975,89.5)"><g class="cursor-pointer" transform="translate(206, 79)"><rect class="bg" x="0.5" y="0.5" width="48" height="20" style="stroke-width: 1px; stroke: rgb(0, 0, 0); stroke-opacity: 0; fill: rgb(0, 0, 0); fill-opacity: 0;"/><text class="annotation-text" text-anchor="middle" x="24.6875" y="16" style="font-family: 'Open Sans', verdana, arial, sans-serif; font-size: 16px; fill: rgb(242, 245, 250); fill-opacity: 1; white-space: pre;">Cases</text></g></g></g><g class="annotation" data-index="1" style="opacity: 1;"><g class="annotation-text-g" transform="rotate(0,600.025,89.5)"><g class="cursor-pointer" transform="translate(573, 79)"><rect class="bg" x="0.5" y="0.5" width="54" height="20" style="stroke-width: 1px; stroke: rgb(0, 0, 0); stroke-opacity: 0; fill: rgb(0, 0, 0); fill-opacity: 0;"/><text class="annotation-text" text-anchor="middle" x="27.359375" y="16" style="font-family: 'Open Sans', verdana, arial, sans-serif; font-size: 16px; fill: rgb(242, 245, 250); fill-opacity: 1; white-space: pre;">Deaths</text></g></g></g></g></svg>