<svg class="main-svg" xmlns="http://www.w3.org/2000/svg" xmlns:xlink="http://www.w3.org/1999/xlink" width="900" height="450" style="" viewBox="0 0 900 450"><rect x="0" y="0" width="900" height="450" style="fill: rgb(17, 17, 17); fill-opacity: 1;"/><defs id="defs-74501e"><g class="clips"><clipPath id="clip74501exyplot" class="plotclip"><rect width="296.55" height="270"/></clipPath><clipPath id="clip74501ex2y2plot" class="plotclip"><rect width="296.54999999999995" height="270"/></clipPath><clipPath class="axesclip" id="clip74501ex"><rect x="80" y="0" width="296.55" height="450"/></clipPath><clipPath class="axesclip" id="clip74501ey"><rect x="0" y="100" width="900" height="270"/></clipPath><clipPath class="axesclip" id="clip74501exy"><rect x="80" y="100" width="296.55" height="270"/></clipPath><clipPath class="axesclip" id="clip74501ey2"><rect x="0" y="100" width="900" height="270"/></clipPath><clipPath class="axesclip" id="clip74501exy2"><rect x="80" y="100" width="296.55" height="270"/></clipPath><clipPath class="axesclip" id="clip74501ex2"><rect x="442.45000000000005" y="0" width="296.54999999999995" height="450"/></clipPath><clipPath class="axesclip" id="clip74501ex2y"><rect x="442.45000000000005" y="100" width="296.54999999999995" height="270"/></clipPath><clipPath class="axesclip" id="clip74501ex2y2"><rect x="442.45000000000005" y="100" width="296.54999999999995" height="270"/></clipPath></g><g class="gradients"/></defs><g class="bglayer"/><g class="layer-below"><g class="imagelayer"/><g class="shapelayer"/></g><g class="cartesianlayer"><g class="subplot xy"><g class="layer-subplot"><g class="shapelayer"/><g class="imagelayer"/></g><g class="gridlayer"><g class="x"><path class="xgrid crisp" transform="translate(130.14,0)" d="M0,100v270" style="stroke: rgb(40, 52, 66); stroke-opacity: 1; stroke-width: 1px;"/><path class="xgrid crisp" transform="translate(195.32999999999998,0)" d="M0,100v270" style="stroke: rgb(40, 52, 66); stroke-opacity: 1; stroke-width: 1px;"/><path class="xgrid crisp" transform="translate(261.23,0)" d="M0,100v270" style="stroke: rgb(40, 52, 66); stroke-opacity: 1; stroke-width: 1px;"/><path class="xgrid crisp" transform="translate(327.13,0)" d="M0,100v270" style="stroke: rgb(40, 52, 66); stroke-opacity: 1; stroke-width: 1px;"/></g><g class="y"><path class="ygrid crisp" transform="translate(0,284.51)" d="M80,0h296.55" style="stroke: rgb(40, 52, 66); stroke-opacity: 1; stroke-width: 1px;"/><path class="ygrid crisp" transform="translate(0,212.51)" d="M80,0h296.55" style="stroke: rgb(40, 52, 66); stroke-opacity: 1; stroke-width: 1px;"/><path class="ygrid crisp" transform="translate(0,140.52)" d="M80,0h296.55" style="stroke: rgb(40, 52, 66); stroke-opacity: 1; stroke-width: 1px;"/></g></g><g class="zerolinelayer"><path class="yzl zl crisp" transform="translate(0,356.5)" d="M80,0h296.55" style="stroke: rgb(40, 52, 66); stroke-opacity: 1; stroke-width: 2px;"/></g><path class="xlines-below"/><path class="ylines-below"/><g class="overlines-below"/><g class="xaxislayer-below"/><g class="yaxislayer-below"/><g class="overaxes-below"/><g class="plot" transform="translate(80, 100)" clip-path="url('#clip74501exyplot')"><g class="scatterlayer mlayer"><g class="trace scatter tracee6940c" style="stroke-miterlimit: 2; opacity: 1;"><g class="fills"/><g class="errorbars"/><g class="lines"><path class="js-line" d="M0,256.5L51.57,255.86L52.29,255.73L77.36,253.59L78.08,253.53L95.27,251.39L95.98,251.26L115.33,247.64L116.04,247.31L121.77,245.72L122.49,245.38L123.92,245.02L124.64,244.52L142.54,239.03L143.26,237.5L144.69,236.83L145.41,236.2L148.99,234.71L149.71,234.27L152.57,232.46L153.29,232.42L154.01,232.41L154.72,231.63L159.74,229.94L160.45,229.58L169.05,227.67L169.76,227.56L173.35,226.9L174.06,226.78L186.24,224.91L186.96,224.91L191.97,224.24L192.69,224.16L198.42,222.93L199.13,222.82L202.71,222.12L203.43,221.95L212.03,219.64L212.74,219.41L215.61,218.12L216.32,217.73L220.62,215.86L221.34,215.86L223.49,214.06L224.2,213.78L225.64,212.83L226.35,211.89L227.78,210.8L228.5,209.64L229.22,209.52L229.93,207.92L233.52,204.4L234.23,201.47L237.1,198.5L237.81,195.98L239.25,193.14L239.96,192.06L244.26,184.85L244.98,183.92L247.13,180.94L247.84,179.44L250.71,175.24L251.42,174.31L257.87,162.31L258.59,160.63L260.73,157.96L261.45,157.46L270.05,149.41L270.76,149.02L280.79,143.1L281.51,142.9L289.39,140.26L290.1,140.15L296.55,138.86" style="vector-effect: non-scaling-stroke; fill: none; stroke: rgb(230, 25, 75); stroke-opacity: 1; stroke-width: 2px; opacity: 1;"/></g><g class="points"/><g class="text"/></g><g class="trace scatter trace237f82" style="stroke-miterlimit: 2; opacity: 1;"><g class="fills"/><g class="errorbars"/><g class="lines"><path class="js-line" d="M0,256.5L113.89,255.75L114.61,255.74L193.4,255.39L194.12,255.39L222.05,254.05L222.77,253.84L230.65,253.17L231.37,253.04L281.51,249.55L282.22,249.55L296.55,249.18" style="vector-effect: non-scaling-stroke; fill: none; stroke: rgb(60, 180, 75); stroke-opacity: 1; stroke-width: 2px; opacity: 1;"/></g><g class="points"/><g class="text"/></g><g class="trace scatter traced1475c" style="stroke-miterlimit: 2; opacity: 1;"><g class="fills"/><g class="errorbars"/><g class="lines"><path class="js-line" d="M0,256.5L42.98,255.84L43.69,255.62L45.84,254.76L46.56,254.33L50.86,250.6L51.57,249.49L54.44,245.65L55.16,245.16L63.75,237.77L64.47,237.27L69.48,234.54L70.2,234.26L78.79,231.98L79.51,231.89L84.52,231.28L85.24,231.28L103.15,229.4L103.86,229.36L123.92,227.86L124.64,227.84L146.13,226.35L146.84,226.18L157.59,225.51L158.3,225.46L193.4,222.32L194.12,222.17L204.86,219.28L205.58,218.97L209.16,217.54L209.88,217.1L217.76,211.22L218.47,210.64L243.54,190.86L244.26,190.5L245.69,183.08L246.41,182.17L251.42,177.17L252.14,175.35L252.86,175.35L253.57,174.59L255.72,172.48L256.44,171.4L261.45,166.43L262.17,165.92L265.75,162.42L266.47,161.68L273.63,155.78L274.34,155.41L285.81,147.27L286.52,146.58L292.25,141.6L292.97,141.3L296.55,138.38" style="vector-effect: non-scaling-stroke; fill: none; stroke: rgb(255, 225, 25); stroke-opacity: 1; stroke-width: 2px; opacity: 1;"/></g><g class="points"/><g class="text"/></g><g class="trace scatter trace2c1a28" style="stroke-miterlimit: 2; opacity: 1;"><g class="fills"/><g class="errorbars"/><g class="lines"><path class="js-line" d="M0,256.5L68.05,255.75L68.77,255.74L96.7,254.99L97.42,254.89L107.45,253.37L108.16,253.25L115.33,250.86L116.04,250.31L118.91,250.06L119.62,248.44L129.65,243.83L130.37,242.68L137.53,239.97L138.25,239.97L140.4,239.17L141.11,239.05L143.98,237.98L144.69,236.53L154.01,233.27L154.72,232.68L158.3,232.15L159.02,231.31L167.62,229.59L168.33,229.59L169.76,228.33L170.48,228.25L181.94,227L182.66,227L189.1,226.51L189.82,226.17L201.28,224.83L202,224.67L206.3,224.02L207.01,223.91L210.59,223.39L211.31,223.06L213.46,222.64L214.18,222.33L216.32,221.29L217.04,221.01L219.19,220.79L219.91,220.16L221.34,219.53L222.05,219.53L224.92,218.97L225.64,217.93L229.93,215.42L230.65,212.47L231.37,212.13L232.08,210.83L234.23,210.73L234.95,209.5L236.38,206.62L237.1,204.05L238.53,204.05L239.25,201.4L240.68,199.74L241.39,197.9L257.15,177.22L257.87,176.03L260.02,173.84L260.73,173.48L262.88,172.75L263.6,172.75L265.75,170.27L266.47,169.92L268.61,168.49L269.33,168.12L273.63,166.02L274.34,165.71L279.36,164L280.08,163.8L296.55,160.77" style="vector-effect: non-scaling-stroke; fill: none; stroke: rgb(67, 99, 216); stroke-opacity: 1; stroke-width: 2px; opacity: 1;"/></g><g class="points"/><g class="text"/></g><g class="trace scatter tracee3f365" style="stroke-miterlimit: 2; opacity: 1;"><g class="fills"/><g class="errorbars"/><g class="lines"><path class="js-line" d="M0,256.5L48.71,255.78L49.43,255.64L58.74,254.15L59.45,253.89L72.35,252.29L73.06,252.21L83.81,251.1L84.52,251.04L90.25,250.29L90.97,250.21L95.98,249.63L96.7,249.6L108.16,248.48L108.88,248.14L115.33,245.78L116.04,245.5L121.77,241.9L122.49,241.55L125.35,239.59L126.07,238.96L136.81,231.09L137.53,230.79L141.83,228.21L142.54,227.63L157.59,220.87L158.3,220.79L191.25,214.13L191.97,213.93L205.58,210.23L206.3,209.95L212.74,207.84L213.46,207.64L214.18,207.57L214.89,206.64L226.35,201.07L227.07,200.34L234.23,195.01L234.95,194.16L240.68,188.78L241.39,187.54L243.54,185.91L244.26,185.51L249.99,179.21L250.71,178.88L254.29,172.83L255,172L257.15,169.56L257.87,168.41L264.32,161.79L265.03,161.02L277.93,153.34L278.64,153.07L286.52,150.24L287.24,149.88L296.55,147.15" style="vector-effect: non-scaling-stroke; fill: none; stroke: rgb(245, 130, 49); stroke-opacity: 1; stroke-width: 2px; opacity: 1;"/></g><g class="points"/><g class="text"/></g><g class="trace scatter trace0ed4b3" style="stroke-miterlimit: 2; opacity: 1;"><g class="fills"/><g class="errorbars"/><g class="lines"><path class="js-line" d="M0,256.5L41.55,255.97L42.26,255.55L46.56,251.62L47.28,250.54L51.57,241.88L52.29,240.13L56.59,229.59L57.3,227.87L64.47,215.96L65.18,214.95L69.48,209.38L70.2,208.6L76.64,204.34L77.36,204L84.52,201.31L85.24,201.19L97.42,198.5L98.13,198.43L146.13,193.16L146.84,193.08L196.98,186.81L197.7,186.58L207.73,183.83L208.44,183.46L215.61,178.05L216.32,177.43L220.62,173.12L221.34,172.18L226.35,164.7L227.07,163.01L244.98,123.47L245.69,121.09L253.57,92.44L254.29,90.21L262.17,65.36L262.88,63.47L270.76,46.79L271.48,45.86L272.91,44.75L273.63,41.93L282.94,29.7L283.66,28.96L287.95,23.77L288.67,22.89L296.55,13.5" style="vector-effect: non-scaling-stroke; fill: none; stroke: rgb(145, 30, 180); stroke-opacity: 1; stroke-width: 2px; opacity: 1;"/></g><g class="points"/><g class="text"/></g></g></g><g class="overplot"/><path class="xlines-above crisp" d="M0,0" style="fill: none;"/><path class="ylines-above crisp" d="M0,0" style="fill: none;"/><g class="overlines-above"/><g class="xaxislayer-above"><g class="xtick"><text text-anchor="middle" x="0" y="383" transform="translate(130.14,0)" style="font-family: 'Open Sans', verdana, arial, sans-serif; font-size: 12px; fill: rgb(242, 245, 250); fill-opacity: 1; white-space: pre;">Apr 2020</text></g><g class="xtick"><text text-anchor="middle" x="0" y="383" transform="translate(195.32999999999998,0)" style="font-family: 'Open Sans', verdana, arial, sans-serif; font-size: 12px; fill: rgb(242, 245, 250); fill-opacity: 1; white-space: pre;">Jul 2020</text></g><g class="xtick"><text text-anchor="middle" x="0" y="383" transform="translate(261.23,0)" style="font-family: 'Open Sans', verdana, arial, sans-serif; font-size: 12px; fill: rgb(242, 245, 250); fill-opacity: 1; white-space: pre;">Oct 2020</text></g><g class="xtick"><text text-anchor="middle" x="0" y="383" transform="translate(327.13,0)" style="font-family: 'Open Sans', verdana, arial, sans-serif; font-size: 12px; fill: rgb(242, 245, 250); fill-opacity: 1; white-space: pre;">Jan 2021</text></g></g><g class="yaxislayer-above"><g class="ytick"><text text-anchor="end" x="79" y="4.199999999999999" transform="translate(0,356.5)" style="font-family: 'Open Sans', verdana, arial, sans-serif; font-size: 12px; fill: rgb(242, 245, 250); fill-opacity: 1; white-space: pre;">0</text></g><g class="ytick"><text text-anchor="end" x="79" y="4.199999999999999" transform="translate(0,284.51)" style="font-family: 'Open Sans', verdana, arial, sans-serif; font-size: 12px; fill: rgb(242, 245, 250); fill-opacity: 1; white-space: pre;">50k</text></g><g class="ytick"><text text-anchor="end" x="79" y="4.199999999999999" transform="translate(0,212.51)" style="font-family: 'Open Sans', verdana, arial, sans-serif; font-size: 12px; fill: rgb(242, 245, 250); fill-opacity: 1; white-space: pre;">100k</text></g><g class="ytick"><text text-anchor="end" x="79" y="4.199999999999999" transform="translate(0,140.52)" style="font-family: 'Open Sans', verdana, arial, sans-serif; font-size: 12px; fill: rgb(242, 245, 250); fill-opacity: 1; white-space: pre;">150k</text></g></g><g class="overaxes-above"/></g><g class="subplot x2y2"><g class="layer-subplot"><g class="shapelayer"/><g class="imagelayer"/></g><g class="gridlayer"><g class="x2"><path class="x2grid crisp" transform="translate(492.59000000000003,0)" d="M0,100v270" style="stroke: rgb(40, 52, 66); stroke-opacity: 1; stroke-width: 1px;"/><path class="x2grid crisp" transform="translate(557.7800000000001,0)" d="M0,100v270" style="stroke: rgb(40, 52, 66); stroke-opacity: 1; stroke-width: 1px;"/><path class="x2grid crisp" transform="translate(623.6800000000001,0)" d="M0,100v270" style="stroke: rgb(40, 52, 66); stroke-opacity: 1; stroke-width: 1px;"/><path class="x2grid crisp" transform="translate(689.58,0)" d="M0,100v270" style="stroke: rgb(40, 52, 66); stroke-opacity: 1; stroke-width: 1px;"/></g><g class="y2"><path class="y2grid crisp" transform="translate(0,317.87)" d="M442.45000000000005,0h296.54999999999995" style="stroke: rgb(40, 52, 66); stroke-opacity: 1; stroke-width: 1px;"/><path class="y2grid crisp" transform="translate(0,279.23)" d="M442.45000000000005,0h296.54999999999995" style="stroke: rgb(40, 52, 66); stroke-opacity: 1; stroke-width: 1px;"/><path class="y2grid crisp" transform="translate(0,240.6)" d="M442.45000000000005,0h296.54999999999995" style="stroke: rgb(40, 52, 66); stroke-opacity: 1; stroke-width: 1px;"/><path class="y2grid crisp" transform="translate(0,201.97)" d="M442.45000000000005,0h296.54999999999995" style="stroke: rgb(40, 52, 66); stroke-opacity: 1; stroke-width: 1px;"/><path class="y2grid crisp" transform="translate(0,163.34)" d="M442.45000000000005,0h296.54999999999995" style="stroke: rgb(40, 52, 66); stroke-opacity: 1; stroke-width: 1px;"/><path class="y2grid crisp" transform="translate(0,124.7)" d="M442.45000000000005,0h296.54999999999995" style="stroke: rgb(40, 52, 66); stroke-opacity: 1; stroke-width: 1px;"/></g></g><g class="zerolinelayer"><path class="y2zl zl crisp" transform="translate(0,356.5)" d="M442.45000000000005,0h296.54999999999995" style="stroke: rgb(40, 52, 66); stroke-opacity: 1; stroke-width: 2px;"/></g><path class="xlines-below"/><path class="ylines-below"/><g class="overlines-below"/><g class="xaxislayer-below"/><g class="yaxislayer-below"/><g class="overaxes-below"/><g class="plot" transform="translate(442.45000000000005, 100)" clip-path="url('#clip74501ex2y2plot')"><g class="scatterlayer mlayer"><g class="trace scatter trace6d5ea5" style="stroke-miterlimit: 2; opacity: 1;"><g class="fills"/><g class="errorbars"/><g class="lines"><path class="js-line" d="M0,256.5L50.86,255.8L51.57,255.57L57.3,254.88L58.02,254.72L59.45,254.72L60.17,253.72L63.75,253.25L64.47,253.18L75.21,251.4L75.93,251.32L81.66,250.16L82.38,250.09L87.39,249.39L88.11,249.31L99.57,248.62L100.28,248.39L103.86,247.85L104.58,247.85L107.45,247.38L108.16,247.38L118.91,245.68L119.62,245.68L140.4,241.59L141.11,241.59L142.54,241.59L143.26,240.66L145.41,240.12L146.13,239.81L152.57,238.5L153.29,238.42L155.44,237.72L156.15,237.65L159.74,236.64L160.45,235.33L161.88,233.63L162.6,233.4L166.18,233.09L166.9,231.78L167.62,231.78L168.33,230.85L169.05,230.77L169.76,228.99L171.2,228.3L171.91,227.91L174.06,227.6L174.78,226.37L178.36,225.13L179.08,225.13L181.94,224.05L182.66,223.58L184.81,223.51L185.52,222.5L189.1,222.81L189.82,223.2L190.54,222.35L191.25,223.04L192.69,222.35L193.4,223.04L195.55,222.89L196.27,221.27L206.3,220.57L207.01,220.11L213.46,218.64L214.17,218.64L218.47,217.94L219.19,217.94L222.05,217.48L222.77,217.02L230.65,215.86L231.37,215.32L235.66,213L236.38,212.15L237.1,212.15L237.81,211.3L239.96,211.07L240.68,209.45L242.83,208.67L243.54,208.21L246.41,208.21L247.13,205.81L250.71,205.81L251.42,202.65L252.14,202.65L252.86,200.17L255,199.63L255.72,198.16L260.02,197.47L260.73,197.39L261.45,197.31L262.17,191.44L263.6,190.36L264.32,187.42L265.75,186.5L266.47,184.72L267.18,184.1L267.9,182.4L269.33,180.78L270.05,180.63L274.34,176.07L275.06,176.07L277.93,172.44L278.64,169.96L282.22,169.5L282.94,166.02L283.66,166.02L284.37,163.78L285.81,163.78L286.52,162.39L289.39,160.54L290.1,160.54L291.54,160.38L292.25,157.52L296.55,155.2" style="vector-effect: non-scaling-stroke; fill: none; stroke: rgb(230, 25, 75); stroke-opacity: 1; stroke-width: 2px; opacity: 1;"/></g><g class="points"/><g class="text"/></g><g class="trace scatter trace3b73a5" style="stroke-miterlimit: 2; opacity: 1;"><g class="fills"/><g class="errorbars"/><g class="lines"><path class="js-line" d="M0,256.5L84.52,255.8L85.24,255.65L103.86,254.95L104.58,254.88L231.37,254.18L232.08,254.1L240.68,253.95L241.39,253.95L263.6,253.41L264.32,253.02L267.18,252.79L267.9,252.79L276.49,252.33L277.21,251.17L278.64,250.09L279.36,250.09L289.39,249.62L290.1,249.16L295.83,245.45L296.55,245.45" style="vector-effect: non-scaling-stroke; fill: none; stroke: rgb(60, 180, 75); stroke-opacity: 1; stroke-width: 2px; opacity: 1;"/></g><g class="points"/><g class="text"/></g><g class="trace scatter trace884dfa" style="stroke-miterlimit: 2; opacity: 1;"><g class="fills"/><g class="errorbars"/><g class="lines"><path class="js-line" d="M0,256.5L43.69,255.8L44.41,255.42L45.84,255.19L46.56,254.65L47.99,254.03L48.71,254.03L50.14,250.71L50.86,247.23L51.57,246.3L52.29,242.67L53.72,241.05L54.44,236.18L57.3,222.89L58.02,221.5L58.74,221.5L59.45,214L62.32,199.25L63.03,197.24L63.75,195.69L64.47,191.98L65.9,191.98L66.62,184.33L68.05,182.71L68.77,182.33L70.2,174.83L70.91,168.73L72.35,163.63L73.06,163.01L73.78,162.62L74.5,159.07L77.36,152.35L78.08,151.81L78.79,151.57L79.51,149.26L82.38,144.47L83.09,144.08L84.52,142.61L85.24,140.6L88.11,138.67L88.82,138.67L89.54,138.44L90.25,136.97L101.72,129.09L102.43,128.08L103.86,127.93L104.58,127.23L107.45,125.69L108.16,125.46L111.74,123.76L112.46,103.28L114.61,102.82L115.33,102.28L116.76,101.97L117.47,101.74L120.34,101.2L121.06,100.42L124.64,99.5L125.35,99.73L131.8,98.8L132.52,98.57L144.69,99.03L145.41,99.19L156.15,99.57L156.87,99.5L167.62,98.8L168.33,98.72L189.1,98.03L189.82,97.95L193.4,98.11L194.12,98.03L201.28,97.18L202,97.18L214.89,95.25L215.61,94.94L218.47,94.17L219.19,94.09L222.77,92.62L223.49,92.54L224.2,92.39L224.92,91.23L228.5,89.22L229.22,89.22L238.53,82.96L239.25,82.81L242.11,80.64L242.83,80.57L244.26,80.18L244.98,78.79L247.84,76.24L248.56,76.09L253.57,72.92L254.29,72.92L257.87,70.37L258.59,70.37L260.73,69.44L261.45,68.98L264.32,68.36L265.03,67.2L269.33,64.8L270.05,64.65L273.63,62.8L274.34,62.56L277.93,59.24L278.64,59.24L280.79,58.55L281.51,57.77L282.94,56.54L283.66,56.38L285.81,55.38L286.52,54.76L295.12,51.9L295.83,51.28L296.55,50.82" style="vector-effect: non-scaling-stroke; fill: none; stroke: rgb(255, 225, 25); stroke-opacity: 1; stroke-width: 2px; opacity: 1;"/></g><g class="points"/><g class="text"/></g><g class="trace scatter trace8cf095" style="stroke-miterlimit: 2; opacity: 1;"><g class="fills"/><g class="errorbars"/><g class="lines"><path class="js-line" d="M0,256.5L50.14,255.88L50.86,255.73L62.32,255.19L63.03,255.19L75.93,254.34L76.64,254.34L98.85,253.64L99.57,253.49L113.89,252.48L114.61,252.48L128.22,250.09L128.93,249.24L130.37,248.93L131.08,248.23L133.95,247.38L134.67,246.22L136.81,243.52L137.53,243.52L138.25,243.52L138.96,242.59L140.4,242.05L141.11,241.67L142.54,240.2L143.26,240.2L146.84,236.33L147.56,236.33L148.99,235.72L149.71,234.87L151.86,233.78L152.57,233.78L155.44,233.55L156.15,233.01L158.3,232.78L159.02,231.16L159.74,231L160.45,229.92L161.88,228.07L162.6,228.07L164.75,227.37L165.47,226.98L169.76,226.21L170.48,225.67L172.63,224.51L173.35,224.51L174.78,223.97L175.49,222.97L180.51,221.27L181.23,220.49L183.37,220.19L184.09,220.11L204.86,218.33L205.58,218.33L223.49,217.71L224.2,217.17L225.64,216.4L226.35,216.17L229.93,215.55L230.65,215.39L234.95,215.01L235.66,214.08L237.81,213.15L238.53,213.15L239.25,213.15L239.96,211.07L241.39,209.91L242.11,208.75L244.98,208.21L245.69,207.98L246.41,207.98L247.13,206.2L249.27,206.2L249.99,204.96L251.42,203.73L252.14,202.72L253.57,201.49L254.29,201.49L256.44,199.63L257.15,199.48L258.59,198.71L259.3,198.71L260.02,198.71L260.73,195.77L261.45,195.61L262.17,194.22L264.32,194.07L265.03,191.98L267.18,190.82L267.9,190.59L269.33,190.59L270.05,189.28L272.2,188.66L272.91,187.5L274.34,187.5L275.06,185.18L276.49,183.64L277.21,181.94L278.64,179.85L279.36,179.85L280.08,179.85L280.79,177.84L284.37,177.23L285.09,176.22L285.81,175.99L286.52,174.52L288.67,171.43L289.39,171.43L292.25,165.56L292.97,165.17L295.12,164.63L295.83,163.86L296.55,163.16" style="vector-effect: non-scaling-stroke; fill: none; stroke: rgb(67, 99, 216); stroke-opacity: 1; stroke-width: 2px; opacity: 1;"/></g><g class="points"/><g class="text"/></g><g class="trace scatter trace3b012c" style="stroke-miterlimit: 2; opacity: 1;"><g class="fills"/><g class="errorbars"/><g class="lines"><path class="js-line" d="M0,256.5L45.84,256.19L46.56,255.57L50.14,254.95L50.86,254.72L60.89,251.4L61.6,250.78L64.47,250.09L65.18,249.93L70.2,247.77L70.91,247.46L73.78,246.53L74.5,246.46L77.36,245.37L78.08,245.37L85.24,242.98L85.96,241.59L89.54,240.2L90.25,239.66L95.27,237.18L95.98,237.18L98.13,237.03L98.85,235.56L101.72,234.87L102.43,234.56L104.58,233.71L105.3,233.32L126.79,230.62L127.5,230.31L129.65,229.61L130.37,229.46L133.23,227.76L133.95,227.83L136.1,226.91L136.81,226.44L138.25,225.75L138.96,225.75L142.54,223.28L143.26,223.28L144.69,222.12L145.41,221.34L148.27,219.88L148.99,219.72L154.01,218.64L154.72,218.1L156.87,217.64L157.59,216.86L161.17,215.47L161.88,215.16L164.75,214.16L165.47,213.93L169.05,213.62L169.76,213.54L189.82,210.6L190.54,211.76L191.97,209.91L192.69,209.75L200.57,208.6L201.28,208.13L210.59,206.74L211.31,206.35L220.62,205.66L221.34,205.43L224.92,204.73L225.64,204.65L233.52,201.87L234.23,201.87L236.38,201.33L237.1,201.1L245.69,199.63L246.41,199.4L250.71,198.71L251.42,198.4L253.57,197.55L254.29,197.47L258.59,193.61L259.3,193.45L262.88,190.67L263.6,190.67L265.75,189.59L266.47,188.82L270.76,185.88L271.48,184.87L273.63,183.56L274.34,183.56L278.64,180.39L279.36,180.24L282.22,178L282.94,177.53L285.09,177.3L285.81,176.61L287.24,175.53L287.95,175.37L290.1,174.68L290.82,173.67L293.68,172.44L294.4,172.13L295.12,172.13L295.83,171.12L296.55,170.43" style="vector-effect: non-scaling-stroke; fill: none; stroke: rgb(245, 130, 49); stroke-opacity: 1; stroke-width: 2px; opacity: 1;"/></g><g class="points"/><g class="text"/></g><g class="trace scatter tracead2760" style="stroke-miterlimit: 2; opacity: 1;"><g class="fills"/><g class="errorbars"/><g class="lines"><path class="js-line" d="M0,256.5L43.69,256.19L44.41,255.19L48.71,253.1L49.42,252.4L51.57,249.08L52.29,242.98L53.01,242.98L53.72,238.27L54.44,236.18L55.16,231.54L60.89,202.96L61.6,202.96L62.32,202.96L63.03,192.76L70.91,165.56L71.63,163.55L74.5,156.36L75.21,138.9L80.94,125.38L81.66,124.45L83.81,120.98L84.52,119.59L86.67,116.34L87.39,115.72L91.69,111.32L92.4,111.32L93.12,111.32L93.84,109.23L107.45,104.83L108.16,104.75L130.37,102.36L131.08,102.36L160.45,101.74L161.17,101.58L179.79,100.89L180.51,100.81L212.74,100.19L213.46,99.96L219.19,99.26L219.91,99.19L229.22,95.56L229.93,95.09L234.23,92.85L234.95,91.77L239.25,88.68L239.96,88.68L240.68,88.68L241.39,83.73L243.54,83.73L244.26,81.73L247.13,77.94L247.84,76.63L250.71,71.99L251.42,70.29L255.72,63.18L256.44,61.48L259.3,56.46L260.02,55.38L264.32,47.27L265.03,46.11L269.33,39.85L270.05,39L277.93,29.03L278.64,28.33L282.22,23.7L282.94,23L284.37,22L285.09,22L287.95,18.83L288.67,18.83L292.25,15.9L292.97,15.43L294.4,14.97L295.12,14.35L296.55,13.5" style="vector-effect: non-scaling-stroke; fill: none; stroke: rgb(145, 30, 180); stroke-opacity: 1; stroke-width: 2px; opacity: 1;"/></g><g class="points"/><g class="text"/></g></g></g><g class="overplot"/><path class="xlines-above crisp" d="M0,0" style="fill: none;"/><path class="ylines-above crisp" d="M0,0" style="fill: none;"/><g class="overlines-above"/><g class="xaxislayer-above"><g class="x2tick"><text text-anchor="middle" x="0" y="383" transform="translate(492.59000000000003,0)" style="font-family: 'Open Sans', verdana, arial, sans-serif; font-size: 12px; fill: rgb(242, 245, 250); fill-opacity: 1; white-space: pre;">Apr 2020</text></g><g class="x2tick"><text text-anchor="middle" x="0" y="383" transform="translate(557.7800000000001,0)" style="font-family: 'Open Sans', verdana, arial, sans-serif; font-size: 12px; fill: rgb(242, 245, 250); fill-opacity: 1; white-space: pre;">Jul 2020</text></g><g class="x2tick"><text text-anchor="middle" x="0" y="383" transform="translate(623.6800000000001,0)" style="font-family: 'Open Sans', verdana, arial, sans-serif; font-size: 12px; fill: rgb(242, 245, 250); fill-opacity: 1; white-space: pre;">Oct 2020</text></g><g class="x2tick"><text text-anchor="middle" x="0" y="383" transform="translate(689.58,0)" style="font-family: 'Open Sans', verdana, arial, sans-serif; font-size: 12px; fill: rgb(242, 245, 250); fill-opacity: 1; white-space: pre;">Jan 2021</text></g></g><g class="yaxislayer-above"><g class="y2tick"><text text-anchor="end" x="441.45000000000005" y="4.199999999999999" transform="translate(0,356.5)" style="font-family: 'Open Sans', verdana, arial, sans-serif; font-size: 12px; fill: rgb(242, 245, 250); fill-opacity: 1; white-space: pre;">0</text></g><g class="y2tick"><text text-anchor="end" x="441.45000000000005" y="4.199999999999999" transform="translate(0,317.87)" style="font-family: 'Open Sans', verdana, arial, sans-serif; font-size: 12px; fill: rgb(242, 245, 250); fill-opacity: 1; white-space: pre;">500</text></g><g class="y2tick"><text text-anchor="end" x="441.45000000000005" y="4.199999999999999" transform="translate(0,279.23)" style="font-family: 'Open Sans', verdana, arial, sans-serif; font-size: 12px; fill: rgb(242, 245, 250); fill-opacity: 1; white-space: pre;">1000</text></g><g class="y2tick"><text text-anchor="end" x="441.45000000000005" y="4.199999999999999" transform="translate(0,240.6)" style="font-family: 'Open Sans', verdana, arial, sans-serif; font-size: 12px; fill: rgb(242, 245, 250); fill-opacity: 1; white-space: pre;">1500</text></g><g class="y2tick"><text text-anchor="end" x="441.45000000000005" y="4.199999999999999" transform="translate(0,201.97)" style="font-family: 'Open Sans', verdana, arial, sans-serif; font-size: 12px; fill: rgb(242, 245, 250); fill-opacity: 1; white-space: pre;">2000</text></g><g class="y2tick"><text text-anchor="end" x="441.45000000000005" y="4.199999999999999" transform="translate(0,163.34)" style="font-family: 'Open Sans', verdana, arial, sans-serif; font-size: 12px; fill: rgb(242, 245, 250); fill-opacity: 1; white-space: pre;">2500</text></g><g class="y2tick"><text text-anchor="end" x="441.45000000000005" y="4.199999999999999" transform="translate(0,124.7)" style="font-family: 'Open Sans', verdana, arial, sans-serif; font-size: 12px; fill: rgb(242, 245, 250); fill-opacity: 1; white-space: pre;">3000</text></g></g><g class="overaxes-above"/></g></g><g class="polarlayer"/><g class="ternarylayer"/><g class="geolayer"/><g class="funnelarealayer"/><g class="pielayer"/><g class="treemaplayer"/><g class="sunburstlayer"/><g class="glimages"/><defs id="topdefs-74501e"><g class="clips"/><clipPath id="legend74501e"><rect width="136" height="124" x="0" y="0"/></clipPath></defs><g class="layer-above"><g class="imagelayer"/><g class="shapelayer"/></g><g class="infolayer"><g class="legend" pointer-events="all" transform="translate(752.1800000000001, 100)"><rect class="bg" shape-rendering="crispEdges" width="136" height="124" x="0" y="0" style="stroke: rgb(68, 68, 68); stroke-opacity: 1; fill: rgb(17, 17, 17); fill-opacity: 1; stroke-width: 0px;"/><g class="scrollbox" transform="translate(0, 0)" clip-path="url('#legend74501e')"><g class="groups"><g class="traces" transform="translate(0, 14.5)" style="opacity: 1;"><text class="legendtext user-select-none" text-anchor="start" x="40" y="4.680000000000001" style="font-family: 'Open Sans', verdana, arial, sans-serif; font-size: 12px; fill: rgb(242, 245, 250); fill-opacity: 1; white-space: pre;">Alameda, CA</text><g class="layers" style="opacity: 1;"><g class="legendfill"/><g class="legendlines"><path class="js-line" d="M5,0h30" style="fill: none; stroke: rgb(230, 25, 75); stroke-opacity: 1; stroke-width: 2px;"/></g><g class="legendsymbols"><g class="legendpoints"/></g></g><rect class="legendtoggle" pointer-events="all" x="0" y="-9.5" width="130.0625" height="19" style="cursor: pointer; fill: rgb(0, 0, 0); fill-opacity: 0;"/></g><g class="traces" transform="translate(0, 33.5)" style="opacity: 1;"><text class="legendtext user-select-none" text-anchor="start" x="40" y="4.680000000000001" style="font-family: 'Open Sans', verdana, arial, sans-serif; font-size: 12px; fill: rgb(242, 245, 250); fill-opacity: 1; white-space: pre;">Belmont, OH</text><g class="layers" style="opacity: 1;"><g class="legendfill"/><g class="legendlines"><path class="js-line" d="M5,0h30" style="fill: none; stroke: rgb(60, 180, 75); stroke-opacity: 1; stroke-width: 2px;"/></g><g class="legendsymbols"><g class="legendpoints"/></g></g><rect class="legendtoggle" pointer-events="all" x="0" y="-9.5" width="130.0625" height="19" style="cursor: pointer; fill: rgb(0, 0, 0); fill-opacity: 0;"/></g><g class="traces" transform="translate(0, 52.5)" style="opacity: 1;"><text class="legendtext user-select-none" text-anchor="start" x="40" y="4.680000000000001" style="font-family: 'Open Sans', verdana, arial, sans-serif; font-size: 12px; fill: rgb(242, 245, 250); fill-opacity: 1; white-space: pre;">Bergen, NJ</text><g class="layers" style="opacity: 1;"><g class="legendfill"/><g class="legendlines"><path class="js-line" d="M5,0h30" style="fill: none; stroke: rgb(255, 225, 25); stroke-opacity: 1; stroke-width: 2px;"/></g><g class="legendsymbols"><g class="legendpoints"/></g></g><rect class="legendtoggle" pointer-events="all" x="0" y="-9.5" width="130.0625" height="19" style="cursor: pointer; fill: rgb(0, 0, 0); fill-opacity: 0;"/></g><g class="traces" transform="translate(0, 71.5)" style="opacity: 1;"><text class="legendtext user-select-none" text-anchor="start" x="40" y="4.680000000000001" style="font-family: 'Open Sans', verdana, arial, sans-serif; font-size: 12px; fill: rgb(242, 245, 250); fill-opacity: 1; white-space: pre;">San Joaquin, CA</text><g class="layers" style="opacity: 1;"><g class="legendfill"/><g class="legendlines"><path class="js-line" d="M5,0h30" style="fill: none; stroke: rgb(67, 99, 216); stroke-opacity: 1; stroke-width: 2px;"/></g><g class="legendsymbols"><g class="legendpoints"/></g></g><rect class="legendtoggle" pointer-events="all" x="0" y="-9.5" width="130.0625" height="19" style="cursor: pointer; fill: rgb(0, 0, 0); fill-opacity: 0;"/></g><g class="traces" transform="translate(0, 90.5)" style="opacity: 1;"><text class="legendtext user-select-none" text-anchor="start" x="40" y="4.680000000000001" style="font-family: 'Open Sans', verdana, arial, sans-serif; font-size: 12px; fill: rgb(242, 245, 250); fill-opacity: 1; white-space: pre;">Fulton, GA</text><g class="layers" style="opacity: 1;"><g class="legendfill"/><g class="legendlines"><path class="js-line" d="M5,0h30" style="fill: none; stroke: rgb(245, 130, 49); stroke-opacity: 1; stroke-width: 2px;"/></g><g class="legendsymbols"><g class="legendpoints"/></g></g><rect class="legendtoggle" pointer-events="all" x="0" y="-9.5" width="130.0625" height="19" style="cursor: pointer; fill: rgb(0, 0, 0); fill-opacity: 0;"/></g><g class="traces" transform="translate(0, 109.5)" style="opacity: 1;"><text class="legendtext user-select-none" text-anchor="start" x="40" y="4.680000000000001" style="font-family: 'Open Sans', verdana, arial, sans-serif; font-size: 12px; fill: rgb(242, 245, 250); fill-opacity: 1; white-space: pre;">Suffolk, NY</text><g class="layers" style="opacity: 1;"><g class="legendfill"/><g class="legendlines"><path class="js-line" d="M5,0h30" style="fill: none; stroke: rgb(145, 30, 180); stroke-opacity: 1; stroke-width: 2px;"/></g><g class="legendsymbols"><g class="legendpoints"/></g></g><rect class="legendtoggle" pointer-events="all" x="0" y="-9.5" width="130.0625" height="19" style="cursor: pointer; fill: rgb(0, 0, 0); fill-opacity: 0;"/></g></g></g><rect class="scrollbar" rx="20" ry="3" width="0" height="0" x="0" y="0" style="fill: rgb(128, 139, 164); fill-opacity: 1;"/></g><g class="g-gtitle"/><g class="g-xtitle"><text class="xtitle" x="228.275" y="410.8" text-anchor="middle" style="font-family: 'Open Sans', verdana, arial, sans-serif; font-size: 14px; fill: rgb(242, 245, 250); opacity: 1; font-weight: normal; white-space: pre;">Date</text></g><g class="g-x2title"><text class="x2title" x="590.725" y="410.8" text-anchor="middle" style="font-family: 'Open Sans', verdana, arial, sans-serif; font-size: 14px; fill: rgb(242, 245, 250); opacity: 1; font-weight: normal; white-space: pre;">Date</text></g><g class="g-ytitle"><text class="ytitle" transform="rotate(-90,28.168750000000003,235)" x="28.168750000000003" y="235" text-anchor="middle" style="font-family: 'Open Sans', verdana, arial, sans-serif; font-size: 14px; fill: rgb(242, 245, 250); opacity: 1; font-weight: normal; white-space: pre;">Cases</text></g><g class="g-y2title"><text class="y2title" transform="rotate(-90,389.95,235)" x="389.95" y="235" text-anchor="middle" style="font-family: 'Open Sans', verdana, arial, sans-serif; font-size: 14px; fill: rgb(242, 245, 250); opacity: 1; font-weight: normal; white-space: pre;">Deaths</text></g><g class="annotation" data-index="0" style="opacity: 1;"><g class="annotation-text-g" transform="rotate(0,228.275,89.5)"><g class="cursor-pointer" transform="translate(204, 79)"><rect class="bg" x="0.5" y="0.5" width="48" height="20" style="stroke-width: 1px; stroke: rgb(0, 0, 0); stroke-opacity: 0; fill: rgb(0, 0, 0); fill-opacity: 0;"/><text class="annotation-text" text-anchor="middle" x="24.6875" y="16" style="font-family: 'Open Sans', verdana, arial, sans-serif; font-size: 16px; fill: rgb(242, 245, 250); fill-opacity: 1; white-space: pre;">Cases</text></g></g></g><g class="annotation" data-index="1" style="opacity: 1;"><g class="annotation-text-g" transform="rotate(0,590.725,89.5)"><g class="cursor-pointer" transform="translate(563, 79)"><rect class="bg" x="0.5" y="0.5" width="54" height="20" style="stroke-width: 1px; stroke: rgb(0, 0, 0); stroke-opacity: 0; fill: rgb(0, 0, 0); fill-opacity: 0;"/><text class="annotation-text" text-anchor="middle" x="27.359375" y="16" style="font-family: 'Open Sans', verdana, arial, sans-serif; font-size: 16px; fill: rgb(242, 245, 250); fill-opacity: 1; white-space: pre;">Deaths</text></g></g></g></g></svg>