<svg class="main-svg" xmlns="http://www.w3.org/2000/svg" xmlns:xlink="http://www.w3.org/1999/xlink" width="900" height="450" style="" viewBox="0 0 900 450"><rect x="0" y="0" width="900" height="450" style="fill: rgb(17, 17, 17); fill-opacity: 1;"/><defs id="defs-3d52aa"><g class="clips"><clipPath id="clip3d52aaxyplot" class="plotclip"><rect width="297" height="270"/></clipPath><clipPath id="clip3d52aax2y2plot" class="plotclip"><rect width="296.99999999999994" height="270"/></clipPath><clipPath class="axesclip" id="clip3d52aax"><rect x="80" y="0" width="297" height="450"/></clipPath><clipPath class="axesclip" id="clip3d52aay"><rect x="0" y="100" width="900" height="270"/></clipPath><clipPath class="axesclip" id="clip3d52aaxy"><rect x="80" y="100" width="297" height="270"/></clipPath><clipPath class="axesclip" id="clip3d52aay2"><rect x="0" y="100" width="900" height="270"/></clipPath><clipPath class="axesclip" id="clip3d52aaxy2"><rect x="80" y="100" width="297" height="270"/></clipPath><clipPath class="axesclip" id="clip3d52aax2"><rect x="443.00000000000006" y="0" width="296.99999999999994" height="450"/></clipPath><clipPath class="axesclip" id="clip3d52aax2y"><rect x="443.00000000000006" y="100" width="296.99999999999994" height="270"/></clipPath><clipPath class="axesclip" id="clip3d52aax2y2"><rect x="443.00000000000006" y="100" width="296.99999999999994" height="270"/></clipPath></g><g class="gradients"/></defs><g class="bglayer"/><g class="layer-below"><g class="imagelayer"/><g class="shapelayer"/></g><g class="cartesianlayer"><g class="subplot xy"><g class="layer-subplot"><g class="shapelayer"/><g class="imagelayer"/></g><g class="gridlayer"><g class="x"><path class="xgrid crisp" transform="translate(146.20999999999998,0)" d="M0,100v270" style="stroke: rgb(40, 52, 66); stroke-opacity: 1; stroke-width: 1px;"/><path class="xgrid crisp" transform="translate(232.28,0)" d="M0,100v270" style="stroke: rgb(40, 52, 66); stroke-opacity: 1; stroke-width: 1px;"/><path class="xgrid crisp" transform="translate(319.3,0)" d="M0,100v270" style="stroke: rgb(40, 52, 66); stroke-opacity: 1; stroke-width: 1px;"/></g><g class="y"><path class="ygrid crisp" transform="translate(0,309.06)" d="M80,0h297" style="stroke: rgb(40, 52, 66); stroke-opacity: 1; stroke-width: 1px;"/><path class="ygrid crisp" transform="translate(0,261.62)" d="M80,0h297" style="stroke: rgb(40, 52, 66); stroke-opacity: 1; stroke-width: 1px;"/><path class="ygrid crisp" transform="translate(0,214.17000000000002)" d="M80,0h297" style="stroke: rgb(40, 52, 66); stroke-opacity: 1; stroke-width: 1px;"/><path class="ygrid crisp" transform="translate(0,166.73000000000002)" d="M80,0h297" style="stroke: rgb(40, 52, 66); stroke-opacity: 1; stroke-width: 1px;"/><path class="ygrid crisp" transform="translate(0,119.28999999999999)" d="M80,0h297" style="stroke: rgb(40, 52, 66); stroke-opacity: 1; stroke-width: 1px;"/></g></g><g class="zerolinelayer"><path class="yzl zl crisp" transform="translate(0,356.5)" d="M80,0h297" style="stroke: rgb(40, 52, 66); stroke-opacity: 1; stroke-width: 2px;"/></g><path class="xlines-below"/><path class="ylines-below"/><g class="overlines-below"/><g class="xaxislayer-below"/><g class="yaxislayer-below"/><g class="overaxes-below"/><g class="plot" transform="translate(80, 100)" clip-path="url('#clip3d52aaxyplot')"><g class="scatterlayer mlayer"><g class="trace scatter trace79d7ba" style="stroke-miterlimit: 2; opacity: 1;"><g class="fills"/><g class="errorbars"/><g class="lines"><path class="js-line" d="M0,256.5L59.59,255.86L60.54,255.73L66.21,254.8L67.16,254.62L97.42,248.07L98.37,247.92L121.07,241.34L122.02,240.9L127.69,238.83L128.64,238.45L143.77,232.75L144.72,232.11L149.45,229.6L150.39,229.16L154.18,225.8L155.12,225.4L157.01,223.83L157.96,223.83L159.85,221.36L160.8,220.99L165.53,216.28L166.47,215.57L169.31,212.68L170.25,212.59L172.15,210.75L173.09,209.68L174.98,207.49L175.93,207.3L177.82,206.05L178.77,205.39L179.71,203.69L180.66,203.69L182.55,201.83L183.5,200.3L187.28,198.92L188.23,198.92L189.17,193.88L190.12,193.79L192.96,188.99L193.9,187.43L194.85,187.43L195.79,184.75L196.74,184.72L197.68,183.26L201.47,177.3L202.41,177.16L203.36,177.11L204.31,174.54L206.2,172.9L207.14,171.83L208.09,171.83L209.04,170.91L210.93,168.99L211.87,167.81L216.6,164.7L217.55,164.7L219.44,162.99L220.39,162.47L223.22,161.51L224.17,161.15L226.06,160.85L227.01,159.89L231.74,157.63L232.68,157.1L245.92,152.42L246.87,152.4L250.65,150.8L251.6,150.58L255.38,149.11L256.33,148.63L263.89,145.53L264.84,144.65L267.68,143.23L268.62,142.67L274.3,139.49L275.25,138.6L282.81,132.93L283.76,130.97L292.27,122.59L293.22,119.6L297,114.81" style="vector-effect: non-scaling-stroke; fill: none; stroke: rgb(230, 25, 75); stroke-opacity: 1; stroke-width: 2px; opacity: 1;"/></g><g class="points"/><g class="text"/></g><g class="trace scatter trace0fc5df" style="stroke-miterlimit: 2; opacity: 1;"><g class="fills"/><g class="errorbars"/><g class="lines"><path class="js-line" d="M0,256.5L66.21,255.78L67.16,255.72L140.93,250.5L141.88,250.36L151.34,249.32L152.28,249.2L168.36,246.57L169.31,246.35L193.9,241.84L194.85,241.48L228.9,235.4L229.84,235.31L264.84,228.21L265.79,227.92L270.52,226.26L271.46,225.86L280.92,221.75L281.87,220.92L292.27,215.46L293.22,213.72L296.05,212.05L297,211.36" style="vector-effect: non-scaling-stroke; fill: none; stroke: rgb(60, 180, 75); stroke-opacity: 1; stroke-width: 2px; opacity: 1;"/></g><g class="points"/><g class="text"/></g><g class="trace scatter trace7b13b6" style="stroke-miterlimit: 2; opacity: 1;"><g class="fills"/><g class="errorbars"/><g class="lines"><path class="js-line" d="M0,256.5L140.93,255.79L141.88,255.7L151.34,254.99L152.28,254.78L162.69,253.65L163.63,253.63L174.04,252.7L174.98,252.67L186.33,251.94L187.28,251.84L215.66,249.9L216.6,249.9L225.11,249.17L226.06,249.05L242.14,247.34L243.09,247.34L251.6,244.31L252.54,243.86L255.38,242.93L256.33,242.93L261.06,239.96L262,239.96L262.95,239.96L263.89,239.19L268.62,237.52L269.57,237.52L273.35,234.96L274.3,234.47L276.19,234.47L277.14,233.56L281.87,231.12L282.81,231.12L286.6,227.93L287.54,227.37L289.43,227.37L290.38,225.85L292.27,224.15L293.22,224.15L296.05,224.15L297,222.72" style="vector-effect: non-scaling-stroke; fill: none; stroke: rgb(255, 225, 25); stroke-opacity: 1; stroke-width: 2px; opacity: 1;"/></g><g class="points"/><g class="text"/></g><g class="trace scatter tracee2b290" style="stroke-miterlimit: 2; opacity: 1;"><g class="fills"/><g class="errorbars"/><g class="lines"><path class="js-line" d="M0,256.5L132.42,255.76L133.37,255.72L172.15,254.63L173.09,254.56L220.39,250.64L221.33,250.42L229.84,249.13L230.79,249.04L244.03,247.23L244.98,247.14L258.22,244.96L259.17,244.81L263.89,243.58L264.84,243.58L269.57,242.16L270.52,241.98L293.22,234.03L294.16,233.73L297,232.92" style="vector-effect: non-scaling-stroke; fill: none; stroke: rgb(67, 99, 216); stroke-opacity: 1; stroke-width: 2px; opacity: 1;"/></g><g class="points"/><g class="text"/></g><g class="trace scatter trace7876be" style="stroke-miterlimit: 2; opacity: 1;"><g class="fills"/><g class="errorbars"/><g class="lines"><path class="js-line" d="M0,256.5L107.83,255.78L108.77,255.74L192.96,255.02L193.9,254.95L214.71,254.59L215.66,254.58L263.89,253.37L264.84,253.28L272.41,252.12L273.35,251.89L279.97,249.86L280.92,249.29L286.6,246.47L287.54,245.67L293.22,242.45L294.16,242.13L297,240.53" style="vector-effect: non-scaling-stroke; fill: none; stroke: rgb(245, 130, 49); stroke-opacity: 1; stroke-width: 2px; opacity: 1;"/></g><g class="points"/><g class="text"/></g><g class="trace scatter traceab28f1" style="stroke-miterlimit: 2; opacity: 1;"><g class="fills"/><g class="errorbars"/><g class="lines"><path class="js-line" d="M0,256.5L48.24,255.75L49.18,255.66L52.02,254.7L52.97,253.95L55.81,249.93L56.75,247.61L63.37,216.08L64.32,212.24L68.1,197.9L69.05,194.44L72.83,181.13L73.78,175.83L75.67,167.65L76.61,164.87L79.45,157.12L80.4,152.94L88.91,127.31L89.86,125.26L96.48,114.72L97.42,113.71L100.26,110.81L101.21,109.88L104.99,107.19L105.94,106.53L110.67,103.15L111.61,102.78L119.18,99.06L120.12,98.55L139.04,93.37L139.99,93.26L156.07,90.25L157.01,90.05L166.47,88.45L167.42,88.25L195.79,83.56L196.74,83.4L203.36,82.34L204.31,82.19L240.25,74.58L241.19,74.17L248.76,71.98L249.71,71.47L259.17,67.73L260.11,67.25L264.84,64.65L265.79,64.1L273.35,58.57L274.3,57.46L279.03,51.11L279.97,49.39L281.87,46.11L282.81,45.02L293.22,23.55L294.16,20.97L297,13.5" style="vector-effect: non-scaling-stroke; fill: none; stroke: rgb(145, 30, 180); stroke-opacity: 1; stroke-width: 2px; opacity: 1;"/></g><g class="points"/><g class="text"/></g></g></g><g class="overplot"/><path class="xlines-above crisp" d="M0,0" style="fill: none;"/><path class="ylines-above crisp" d="M0,0" style="fill: none;"/><g class="overlines-above"/><g class="xaxislayer-above"><g class="xtick"><text text-anchor="middle" x="0" y="383" transform="translate(146.20999999999998,0)" style="font-family: 'Open Sans', verdana, arial, sans-serif; font-size: 12px; fill: rgb(242, 245, 250); fill-opacity: 1; white-space: pre;">Apr 2020</text></g><g class="xtick"><text text-anchor="middle" x="0" y="383" transform="translate(232.28,0)" style="font-family: 'Open Sans', verdana, arial, sans-serif; font-size: 12px; fill: rgb(242, 245, 250); fill-opacity: 1; white-space: pre;">Jul 2020</text></g><g class="xtick"><text text-anchor="middle" x="0" y="383" transform="translate(319.3,0)" style="font-family: 'Open Sans', verdana, arial, sans-serif; font-size: 12px; fill: rgb(242, 245, 250); fill-opacity: 1; white-space: pre;">Oct 2020</text></g></g><g class="yaxislayer-above"><g class="ytick"><text text-anchor="end" x="79" y="4.199999999999999" transform="translate(0,356.5)" style="font-family: 'Open Sans', verdana, arial, sans-serif; font-size: 12px; fill: rgb(242, 245, 250); fill-opacity: 1; white-space: pre;">0</text></g><g class="ytick"><text text-anchor="end" x="79" y="4.199999999999999" transform="translate(0,309.06)" style="font-family: 'Open Sans', verdana, arial, sans-serif; font-size: 12px; fill: rgb(242, 245, 250); fill-opacity: 1; white-space: pre;">10k</text></g><g class="ytick"><text text-anchor="end" x="79" y="4.199999999999999" transform="translate(0,261.62)" style="font-family: 'Open Sans', verdana, arial, sans-serif; font-size: 12px; fill: rgb(242, 245, 250); fill-opacity: 1; white-space: pre;">20k</text></g><g class="ytick"><text text-anchor="end" x="79" y="4.199999999999999" transform="translate(0,214.17000000000002)" style="font-family: 'Open Sans', verdana, arial, sans-serif; font-size: 12px; fill: rgb(242, 245, 250); fill-opacity: 1; white-space: pre;">30k</text></g><g class="ytick"><text text-anchor="end" x="79" y="4.199999999999999" transform="translate(0,166.73000000000002)" style="font-family: 'Open Sans', verdana, arial, sans-serif; font-size: 12px; fill: rgb(242, 245, 250); fill-opacity: 1; white-space: pre;">40k</text></g><g class="ytick"><text text-anchor="end" x="79" y="4.199999999999999" transform="translate(0,119.28999999999999)" style="font-family: 'Open Sans', verdana, arial, sans-serif; font-size: 12px; fill: rgb(242, 245, 250); fill-opacity: 1; white-space: pre;">50k</text></g></g><g class="overaxes-above"/></g><g class="subplot x2y2"><g class="layer-subplot"><g class="shapelayer"/><g class="imagelayer"/></g><g class="gridlayer"><g class="x2"><path class="x2grid crisp" transform="translate(509.21000000000004,0)" d="M0,100v270" style="stroke: rgb(40, 52, 66); stroke-opacity: 1; stroke-width: 1px;"/><path class="x2grid crisp" transform="translate(595.2800000000001,0)" d="M0,100v270" style="stroke: rgb(40, 52, 66); stroke-opacity: 1; stroke-width: 1px;"/><path class="x2grid crisp" transform="translate(682.3000000000001,0)" d="M0,100v270" style="stroke: rgb(40, 52, 66); stroke-opacity: 1; stroke-width: 1px;"/></g><g class="y2"><path class="y2grid crisp" transform="translate(0,276.40999999999997)" d="M443.00000000000006,0h296.99999999999994" style="stroke: rgb(40, 52, 66); stroke-opacity: 1; stroke-width: 1px;"/><path class="y2grid crisp" transform="translate(0,196.32)" d="M443.00000000000006,0h296.99999999999994" style="stroke: rgb(40, 52, 66); stroke-opacity: 1; stroke-width: 1px;"/><path class="y2grid crisp" transform="translate(0,116.22)" d="M443.00000000000006,0h296.99999999999994" style="stroke: rgb(40, 52, 66); stroke-opacity: 1; stroke-width: 1px;"/></g></g><g class="zerolinelayer"><path class="y2zl zl crisp" transform="translate(0,356.5)" d="M443.00000000000006,0h296.99999999999994" style="stroke: rgb(40, 52, 66); stroke-opacity: 1; stroke-width: 2px;"/></g><path class="xlines-below"/><path class="ylines-below"/><g class="overlines-below"/><g class="xaxislayer-below"/><g class="yaxislayer-below"/><g class="overaxes-below"/><g class="plot" transform="translate(443.00000000000006, 100)" clip-path="url('#clip3d52aax2y2plot')"><g class="scatterlayer mlayer"><g class="trace scatter trace8a462e" style="stroke-miterlimit: 2; opacity: 1;"><g class="fills"/><g class="errorbars"/><g class="lines"><path class="js-line" d="M0,256.5L61.48,255.86L62.43,255.54L78.51,252.82L79.45,250.73L82.29,249.93L83.24,249.77L87.02,249.13L87.96,248.81L89.86,248.17L90.8,248.17L95.53,246.41L96.48,246.41L100.26,245.77L101.21,245.29L105.94,244.33L106.88,243.85L109.72,243.2L110.67,243.2L114.45,242.08L115.39,241.76L122.96,241.12L123.91,241.12L135.26,239.04L136.2,238.56L139.04,237.92L139.99,237.76L145.66,236.96L146.61,236L154.18,234.07L155.12,234.07L158.9,233.75L159.85,233.11L166.47,231.83L167.42,230.71L171.2,229.75L172.15,229.11L175.93,227.99L176.88,227.99L179.71,227.35L180.66,227.35L182.55,226.23L183.5,226.23L186.33,225.58L187.28,225.58L188.23,225.58L189.17,223.66L191.06,223.66L192.01,222.54L194.85,221.42L195.79,221.1L197.68,220.62L198.63,219.98L201.47,219.18L202.41,219.02L203.36,219.02L204.31,218.06L208.09,216.93L209.04,215.33L210.93,215.33L211.87,212.61L212.82,209.25L213.76,209.09L216.6,208.44L217.55,208.44L219.44,207.96L220.39,205.24L221.33,205.24L222.28,203.32L223.22,203.16L224.17,199.47L225.11,199.47L226.06,198.03L228.9,196.59L229.84,196.59L231.74,193.23L232.68,192.91L234.57,191.47L235.52,191.47L237.41,191.14L238.36,190.5L239.3,189.22L240.25,189.22L242.14,188.42L243.09,188.42L246.87,187.46L247.82,187.46L258.22,186.82L259.17,183.46L261.06,182.82L262,182.65L272.41,182.01L273.35,181.05L275.25,180.57L276.19,180.57L277.14,180.57L278.08,179.13L281.87,178.01L282.81,178.01L286.6,176.57L287.54,176.57L292.27,176.09L293.22,175.61L295.11,174.49L296.05,174.49L297,174.17" style="vector-effect: non-scaling-stroke; fill: none; stroke: rgb(230, 25, 75); stroke-opacity: 1; stroke-width: 2px; opacity: 1;"/></g><g class="points"/><g class="text"/></g><g class="trace scatter tracec6b779" style="stroke-miterlimit: 2; opacity: 1;"><g class="fills"/><g class="errorbars"/><g class="lines"><path class="js-line" d="M0,256.5L68.1,255.86L69.05,255.7L78.51,255.06L79.45,254.9L87.02,254.26L87.96,254.26L94.59,253.62L95.53,253.46L109.72,252.82L110.67,252.66L130.53,252.18L131.47,251.69L142.82,251.05L143.77,250.89L146.61,250.41L147.55,249.93L150.39,249.61L151.34,249.13L161.74,248.01L162.69,248.01L176.88,246.09L177.82,246.09L180.66,245.77L181.61,245.77L190.12,245.29L191.06,244.81L206.2,244.17L207.14,244.01L216.6,243.53L217.55,242.88L227.95,242.24L228.9,242.08L236.46,241.44L237.41,241.28L246.87,240.32L247.82,240.32L256.33,239.68L257.27,239.52L266.73,239.04L267.68,238.56L273.35,237.92L274.3,237.76L278.08,237.12L279.03,236.96L281.87,236.64L282.81,236.64L284.7,236.16L285.65,236.16L290.38,235.52L291.32,234.88L294.16,234.23L295.11,234.07L297,233.11" style="vector-effect: non-scaling-stroke; fill: none; stroke: rgb(60, 180, 75); stroke-opacity: 1; stroke-width: 2px; opacity: 1;"/></g><g class="points"/><g class="text"/></g><g class="trace scatter trace21eb5d" style="stroke-miterlimit: 2; opacity: 1;"><g class="fills"/><g class="errorbars"/><g class="lines"><path class="js-line" d="M0,256.5L163.63,256.02L164.58,255.7L172.15,255.06L173.09,255.06L199.58,254.42L200.52,254.26L219.44,253.62L220.39,253.46L234.57,252.82L235.52,252.66L256.33,252.34L257.27,251.69L262.95,251.21L263.89,249.93L267.68,248.65L268.62,248.65L271.46,248.01L272.41,247.21L276.19,246.57L277.14,245.93L278.08,244.65L279.03,244.65L280.92,243.85L281.87,242.4L283.76,242.08L284.7,241.6L286.6,240.8L287.54,240.8L292.27,237.92L293.22,237.76L297,236.48" style="vector-effect: non-scaling-stroke; fill: none; stroke: rgb(255, 225, 25); stroke-opacity: 1; stroke-width: 2px; opacity: 1;"/></g><g class="points"/><g class="text"/></g><g class="trace scatter traced57617" style="stroke-miterlimit: 2; opacity: 1;"><g class="fills"/><g class="errorbars"/><g class="lines"><path class="js-line" d="M0,256.5L80.4,256.02L81.34,255.7L93.64,255.22L94.59,254.9L97.42,254.42L98.37,254.42L129.58,253.78L130.53,253.62L219.44,252.98L220.39,252.82L228.9,252.34L229.84,252.01L245.92,251.37L246.87,251.21L256.33,250.89L257.27,249.77L265.79,249.13L266.73,248.81L275.25,248.49L276.19,247.37L288.49,247.05L289.43,245.13L295.11,244.97L296.05,243.2L297,242.72" style="vector-effect: non-scaling-stroke; fill: none; stroke: rgb(67, 99, 216); stroke-opacity: 1; stroke-width: 2px; opacity: 1;"/></g><g class="points"/><g class="text"/></g><g class="trace scatter trace8224fe" style="stroke-miterlimit: 2; opacity: 1;"><g class="fills"/><g class="errorbars"/><g class="lines"><path class="js-line" d="M0,256.5L90.8,255.86L91.75,255.7L100.26,254.58L101.21,254.58L130.53,253.94L131.47,253.78L213.76,253.14L214.71,252.98L276.19,252.34L277.14,252.01L283.76,250.89L284.7,250.25L287.54,248.81L288.49,248.17L296.05,244.97L297,244.65" style="vector-effect: non-scaling-stroke; fill: none; stroke: rgb(245, 130, 49); stroke-opacity: 1; stroke-width: 2px; opacity: 1;"/></g><g class="points"/><g class="text"/></g><g class="trace scatter trace820953" style="stroke-miterlimit: 2; opacity: 1;"><g class="fills"/><g class="errorbars"/><g class="lines"><path class="js-line" d="M0,256.5L58.64,256.34L59.59,255.22L62.43,254.9L63.37,254.9L65.26,252.5L66.21,246.25L68.1,245.13L69.05,224.94L70.94,219.18L71.89,211.17L72.83,206.04L73.78,194.19L74.72,194.19L75.67,182.65L79.45,153.98L80.4,149.5L82.29,149.5L83.24,137.48L88.91,109.13L89.86,104.97L90.8,102.4L91.75,102.24L93.64,91.35L94.59,88.47L98.37,77.73L99.32,69.56L101.21,65.72L102.15,63.8L104.99,58.19L105.94,57.07L110.67,49.06L111.61,48.58L119.18,39.93L120.12,39.13L122.96,38.81L123.91,36.41L128.64,33.52L129.58,33.52L134.31,31.92L135.26,31.6L139.04,31.12L139.99,30.64L142.82,30L143.77,29.84L165.53,26.47L166.47,26.47L171.2,25.83L172.15,25.51L176.88,25.35L177.82,25.35L195.79,24.71L196.74,24.55L222.28,23.91L223.22,23.75L244.03,23.11L244.98,22.95L260.11,21.03L261.06,21.03L265.79,20.87L266.73,20.87L273.35,20.23L274.3,20.07L277.14,19.43L278.08,19.11L280.92,18.47L281.87,18.15L297,13.5" style="vector-effect: non-scaling-stroke; fill: none; stroke: rgb(145, 30, 180); stroke-opacity: 1; stroke-width: 2px; opacity: 1;"/></g><g class="points"/><g class="text"/></g></g></g><g class="overplot"/><path class="xlines-above crisp" d="M0,0" style="fill: none;"/><path class="ylines-above crisp" d="M0,0" style="fill: none;"/><g class="overlines-above"/><g class="xaxislayer-above"><g class="x2tick"><text text-anchor="middle" x="0" y="383" transform="translate(509.21000000000004,0)" style="font-family: 'Open Sans', verdana, arial, sans-serif; font-size: 12px; fill: rgb(242, 245, 250); fill-opacity: 1; white-space: pre;">Apr 2020</text></g><g class="x2tick"><text text-anchor="middle" x="0" y="383" transform="translate(595.2800000000001,0)" style="font-family: 'Open Sans', verdana, arial, sans-serif; font-size: 12px; fill: rgb(242, 245, 250); fill-opacity: 1; white-space: pre;">Jul 2020</text></g><g class="x2tick"><text text-anchor="middle" x="0" y="383" transform="translate(682.3000000000001,0)" style="font-family: 'Open Sans', verdana, arial, sans-serif; font-size: 12px; fill: rgb(242, 245, 250); fill-opacity: 1; white-space: pre;">Oct 2020</text></g></g><g class="yaxislayer-above"><g class="y2tick"><text text-anchor="end" x="442.00000000000006" y="4.199999999999999" transform="translate(0,356.5)" style="font-family: 'Open Sans', verdana, arial, sans-serif; font-size: 12px; fill: rgb(242, 245, 250); fill-opacity: 1; white-space: pre;">0</text></g><g class="y2tick"><text text-anchor="end" x="442.00000000000006" y="4.199999999999999" transform="translate(0,276.40999999999997)" style="font-family: 'Open Sans', verdana, arial, sans-serif; font-size: 12px; fill: rgb(242, 245, 250); fill-opacity: 1; white-space: pre;">500</text></g><g class="y2tick"><text text-anchor="end" x="442.00000000000006" y="4.199999999999999" transform="translate(0,196.32)" style="font-family: 'Open Sans', verdana, arial, sans-serif; font-size: 12px; fill: rgb(242, 245, 250); fill-opacity: 1; white-space: pre;">1000</text></g><g class="y2tick"><text text-anchor="end" x="442.00000000000006" y="4.199999999999999" transform="translate(0,116.22)" style="font-family: 'Open Sans', verdana, arial, sans-serif; font-size: 12px; fill: rgb(242, 245, 250); fill-opacity: 1; white-space: pre;">1500</text></g></g><g class="overaxes-above"/></g></g><g class="polarlayer"/><g class="ternarylayer"/><g class="geolayer"/><g class="funnelarealayer"/><g class="pielayer"/><g class="treemaplayer"/><g class="sunburstlayer"/><g class="glimages"/><defs id="topdefs-3d52aa"><g class="clips"/><clipPath id="legend3d52aa"><rect width="135" height="124" x="0" y="0"/></clipPath></defs><g class="layer-above"><g class="imagelayer"/><g class="shapelayer"/></g><g class="infolayer"><g class="legend" pointer-events="all" transform="translate(753.2, 100)"><rect class="bg" shape-rendering="crispEdges" width="135" height="124" x="0" y="0" style="stroke: rgb(68, 68, 68); stroke-opacity: 1; fill: rgb(17, 17, 17); fill-opacity: 1; stroke-width: 0px;"/><g class="scrollbox" transform="translate(0, 0)" clip-path="url('#legend3d52aa')"><g class="groups"><g class="traces" transform="translate(0, 14.5)" style="opacity: 1;"><text class="legendtext user-select-none" text-anchor="start" x="40" y="4.680000000000001" style="font-family: 'Open Sans', verdana, arial, sans-serif; font-size: 12px; fill: rgb(242, 245, 250); fill-opacity: 1; white-space: pre;">Alameda, CA</text><g class="layers" style="opacity: 1;"><g class="legendfill"/><g class="legendlines"><path class="js-line" d="M5,0h30" style="fill: none; stroke: rgb(230, 25, 75); stroke-opacity: 1; stroke-width: 2px;"/></g><g class="legendsymbols"><g class="legendpoints"/></g></g><rect class="legendtoggle" pointer-events="all" x="0" y="-9.5" width="129.15625" height="19" style="cursor: pointer; fill: rgb(0, 0, 0); fill-opacity: 0;"/></g><g class="traces" transform="translate(0, 33.5)" style="opacity: 1;"><text class="legendtext user-select-none" text-anchor="start" x="40" y="4.680000000000001" style="font-family: 'Open Sans', verdana, arial, sans-serif; font-size: 12px; fill: rgb(242, 245, 250); fill-opacity: 1; white-space: pre;">Marion, OR</text><g class="layers" style="opacity: 1;"><g class="legendfill"/><g class="legendlines"><path class="js-line" d="M5,0h30" style="fill: none; stroke: rgb(60, 180, 75); stroke-opacity: 1; stroke-width: 2px;"/></g><g class="legendsymbols"><g class="legendpoints"/></g></g><rect class="legendtoggle" pointer-events="all" x="0" y="-9.5" width="129.15625" height="19" style="cursor: pointer; fill: rgb(0, 0, 0); fill-opacity: 0;"/></g><g class="traces" transform="translate(0, 52.5)" style="opacity: 1;"><text class="legendtext user-select-none" text-anchor="start" x="40" y="4.680000000000001" style="font-family: 'Open Sans', verdana, arial, sans-serif; font-size: 12px; fill: rgb(242, 245, 250); fill-opacity: 1; white-space: pre;">Wichita, TX</text><g class="layers" style="opacity: 1;"><g class="legendfill"/><g class="legendlines"><path class="js-line" d="M5,0h30" style="fill: none; stroke: rgb(255, 225, 25); stroke-opacity: 1; stroke-width: 2px;"/></g><g class="legendsymbols"><g class="legendpoints"/></g></g><rect class="legendtoggle" pointer-events="all" x="0" y="-9.5" width="129.15625" height="19" style="cursor: pointer; fill: rgb(0, 0, 0); fill-opacity: 0;"/></g><g class="traces" transform="translate(0, 71.5)" style="opacity: 1;"><text class="legendtext user-select-none" text-anchor="start" x="40" y="4.680000000000001" style="font-family: 'Open Sans', verdana, arial, sans-serif; font-size: 12px; fill: rgb(242, 245, 250); fill-opacity: 1; white-space: pre;">Franklin, MO</text><g class="layers" style="opacity: 1;"><g class="legendfill"/><g class="legendlines"><path class="js-line" d="M5,0h30" style="fill: none; stroke: rgb(67, 99, 216); stroke-opacity: 1; stroke-width: 2px;"/></g><g class="legendsymbols"><g class="legendpoints"/></g></g><rect class="legendtoggle" pointer-events="all" x="0" y="-9.5" width="129.15625" height="19" style="cursor: pointer; fill: rgb(0, 0, 0); fill-opacity: 0;"/></g><g class="traces" transform="translate(0, 90.5)" style="opacity: 1;"><text class="legendtext user-select-none" text-anchor="start" x="40" y="4.680000000000001" style="font-family: 'Open Sans', verdana, arial, sans-serif; font-size: 12px; fill: rgb(242, 245, 250); fill-opacity: 1; white-space: pre;">Allegany, MD</text><g class="layers" style="opacity: 1;"><g class="legendfill"/><g class="legendlines"><path class="js-line" d="M5,0h30" style="fill: none; stroke: rgb(245, 130, 49); stroke-opacity: 1; stroke-width: 2px;"/></g><g class="legendsymbols"><g class="legendpoints"/></g></g><rect class="legendtoggle" pointer-events="all" x="0" y="-9.5" width="129.15625" height="19" style="cursor: pointer; fill: rgb(0, 0, 0); fill-opacity: 0;"/></g><g class="traces" transform="translate(0, 109.5)" style="opacity: 1;"><text class="legendtext user-select-none" text-anchor="start" x="40" y="4.680000000000001" style="font-family: 'Open Sans', verdana, arial, sans-serif; font-size: 12px; fill: rgb(242, 245, 250); fill-opacity: 1; white-space: pre;">Westchester, NY</text><g class="layers" style="opacity: 1;"><g class="legendfill"/><g class="legendlines"><path class="js-line" d="M5,0h30" style="fill: none; stroke: rgb(145, 30, 180); stroke-opacity: 1; stroke-width: 2px;"/></g><g class="legendsymbols"><g class="legendpoints"/></g></g><rect class="legendtoggle" pointer-events="all" x="0" y="-9.5" width="129.15625" height="19" style="cursor: pointer; fill: rgb(0, 0, 0); fill-opacity: 0;"/></g></g></g><rect class="scrollbar" rx="20" ry="3" width="0" height="0" x="0" y="0" style="fill: rgb(128, 139, 164); fill-opacity: 1;"/></g><g class="g-gtitle"/><g class="g-xtitle"><text class="xtitle" x="228.5" y="410.8" text-anchor="middle" style="font-family: 'Open Sans', verdana, arial, sans-serif; font-size: 14px; fill: rgb(242, 245, 250); opacity: 1; font-weight: normal; white-space: pre;">Date</text></g><g class="g-x2title"><text class="x2title" x="591.5" y="410.8" text-anchor="middle" style="font-family: 'Open Sans', verdana, arial, sans-serif; font-size: 14px; fill: rgb(242, 245, 250); opacity: 1; font-weight: normal; white-space: pre;">Date</text></g><g class="g-ytitle"><text class="ytitle" transform="rotate(-90,34.840625,235)" x="34.840625" y="235" text-anchor="middle" style="font-family: 'Open Sans', verdana, arial, sans-serif; font-size: 14px; fill: rgb(242, 245, 250); opacity: 1; font-weight: normal; white-space: pre;">Cases</text></g><g class="g-y2title"><text class="y2title" transform="rotate(-90,390.496875,235)" x="390.496875" y="235" text-anchor="middle" style="font-family: 'Open Sans', verdana, arial, sans-serif; font-size: 14px; fill: rgb(242, 245, 250); opacity: 1; font-weight: normal; white-space: pre;">Deaths</text></g><g class="annotation" data-index="0" style="opacity: 1;"><g class="annotation-text-g" transform="rotate(0,228.5,89.5)"><g class="cursor-pointer" transform="translate(204, 79)"><rect class="bg" x="0.5" y="0.5" width="48" height="20" style="stroke-width: 1px; stroke: rgb(0, 0, 0); stroke-opacity: 0; fill: rgb(0, 0, 0); fill-opacity: 0;"/><text class="annotation-text" text-anchor="middle" x="24.6875" y="16" style="font-family: 'Open Sans', verdana, arial, sans-serif; font-size: 16px; fill: rgb(242, 245, 250); fill-opacity: 1; white-space: pre;">Cases</text></g></g></g><g class="annotation" data-index="1" style="opacity: 1;"><g class="annotation-text-g" transform="rotate(0,591.5,89.5)"><g class="cursor-pointer" transform="translate(564, 79)"><rect class="bg" x="0.5" y="0.5" width="54" height="20" style="stroke-width: 1px; stroke: rgb(0, 0, 0); stroke-opacity: 0; fill: rgb(0, 0, 0); fill-opacity: 0;"/><text class="annotation-text" text-anchor="middle" x="27.359375" y="16" style="font-family: 'Open Sans', verdana, arial, sans-serif; font-size: 16px; fill: rgb(242, 245, 250); fill-opacity: 1; white-space: pre;">Deaths</text></g></g></g></g></svg>