<svg class="main-svg" xmlns="http://www.w3.org/2000/svg" xmlns:xlink="http://www.w3.org/1999/xlink" width="900" height="450" style="" viewBox="0 0 900 450"><rect x="0" y="0" width="900" height="450" style="fill: rgb(17, 17, 17); fill-opacity: 1;"/><defs id="defs-6d5d11"><g class="clips"><clipPath id="clip6d5d11xyplot" class="plotclip"><rect width="304.2" height="270"/></clipPath><clipPath id="clip6d5d11x2y2plot" class="plotclip"><rect width="304.2" height="270"/></clipPath><clipPath class="axesclip" id="clip6d5d11x"><rect x="80" y="0" width="304.2" height="450"/></clipPath><clipPath class="axesclip" id="clip6d5d11y"><rect x="0" y="100" width="900" height="270"/></clipPath><clipPath class="axesclip" id="clip6d5d11xy"><rect x="80" y="100" width="304.2" height="270"/></clipPath><clipPath class="axesclip" id="clip6d5d11y2"><rect x="0" y="100" width="900" height="270"/></clipPath><clipPath class="axesclip" id="clip6d5d11xy2"><rect x="80" y="100" width="304.2" height="270"/></clipPath><clipPath class="axesclip" id="clip6d5d11x2"><rect x="451.8" y="0" width="304.2" height="450"/></clipPath><clipPath class="axesclip" id="clip6d5d11x2y"><rect x="451.8" y="100" width="304.2" height="270"/></clipPath><clipPath class="axesclip" id="clip6d5d11x2y2"><rect x="451.8" y="100" width="304.2" height="270"/></clipPath></g><g class="gradients"/></defs><g class="bglayer"/><g class="layer-below"><g class="imagelayer"/><g class="shapelayer"/></g><g class="cartesianlayer"><g class="subplot xy"><g class="layer-subplot"><g class="shapelayer"/><g class="imagelayer"/></g><g class="gridlayer"><g class="x"><path class="xgrid crisp" transform="translate(128.73,0)" d="M0,100v270" style="stroke: rgb(40, 52, 66); stroke-opacity: 1; stroke-width: 1px;"/><path class="xgrid crisp" transform="translate(192.07,0)" d="M0,100v270" style="stroke: rgb(40, 52, 66); stroke-opacity: 1; stroke-width: 1px;"/><path class="xgrid crisp" transform="translate(256.12,0)" d="M0,100v270" style="stroke: rgb(40, 52, 66); stroke-opacity: 1; stroke-width: 1px;"/><path class="xgrid crisp" transform="translate(320.15999999999997,0)" d="M0,100v270" style="stroke: rgb(40, 52, 66); stroke-opacity: 1; stroke-width: 1px;"/><path class="xgrid crisp" transform="translate(382.81,0)" d="M0,100v270" style="stroke: rgb(40, 52, 66); stroke-opacity: 1; stroke-width: 1px;"/></g><g class="y"><path class="ygrid crisp" transform="translate(0,298.49)" d="M80,0h304.2" style="stroke: rgb(40, 52, 66); stroke-opacity: 1; stroke-width: 1px;"/><path class="ygrid crisp" transform="translate(0,240.48)" d="M80,0h304.2" style="stroke: rgb(40, 52, 66); stroke-opacity: 1; stroke-width: 1px;"/><path class="ygrid crisp" transform="translate(0,182.45999999999998)" d="M80,0h304.2" style="stroke: rgb(40, 52, 66); stroke-opacity: 1; stroke-width: 1px;"/><path class="ygrid crisp" transform="translate(0,124.45)" d="M80,0h304.2" style="stroke: rgb(40, 52, 66); stroke-opacity: 1; stroke-width: 1px;"/></g></g><g class="zerolinelayer"><path class="yzl zl crisp" transform="translate(0,356.5)" d="M80,0h304.2" style="stroke: rgb(40, 52, 66); stroke-opacity: 1; stroke-width: 2px;"/></g><path class="xlines-below"/><path class="ylines-below"/><g class="overlines-below"/><g class="xaxislayer-below"/><g class="yaxislayer-below"/><g class="overaxes-below"/><g class="plot" transform="translate(80, 100)" clip-path="url('#clip6d5d11xyplot')"><g class="scatterlayer mlayer"><g class="trace scatter trace1cdc38" style="stroke-miterlimit: 2; opacity: 1;"><g class="fills"/><g class="errorbars"/><g class="lines"><path class="js-line" d="M0,256.5L45.94,255.76L46.64,255.72L52.9,254.66L53.6,254.55L84.23,248.65L84.93,248.47L104.42,242.56L105.11,242.56L108.59,240.57L109.29,240.57L115.55,236.52L116.25,236.52L117.64,235.02L118.34,234.79L123.91,230.08L124.6,229.71L126,229.28L126.69,228.53L129.48,226.42L130.17,226.22L136.44,221.3L137.13,221.3L138.53,221.3L139.22,218.22L139.92,218.16L140.61,216.87L142.7,214.27L143.4,214.27L144.79,212.61L145.49,211.72L148.27,208.08L148.97,207.99L149.66,207.96L150.36,206.39L154.54,203.75L155.23,203L158.02,201.01L158.71,201.01L161.5,199.33L162.19,199.01L166.37,198.02L167.07,197.43L171.94,195.51L172.64,195.51L175.42,194.48L176.12,194.26L187.25,191.36L187.95,190.84L202.57,184.42L203.26,183.98L207.44,181.46L208.14,180.95L210.92,177.54L211.62,176.92L213.01,176.38L213.71,175.7L217.88,170.45L218.58,169.87L222.76,161.87L223.45,158.65L226.93,151.54L227.63,145.65L229.72,139.72L230.41,139.65L232.5,128.86L233.2,126.68L237.37,112.15L238.07,110.3L240.16,104.29L240.85,101.27L243.64,92.81L244.33,90.93L250.6,66.75L251.3,63.37L253.38,58L254.08,56.98L261.74,41.92L262.43,40.77L265.22,36.88L265.91,35.56L271.48,28.97L272.18,28.38L274.96,26.43L275.66,25.91L280.53,22.81L281.23,20.88L288.19,17.95L288.89,17.71L300.02,15.06L300.72,15.06L302.81,14.37L303.5,14.09L304.2,13.5" style="vector-effect: non-scaling-stroke; fill: none; stroke: rgb(230, 25, 75); stroke-opacity: 1; stroke-width: 2px; opacity: 1;"/></g><g class="points"/><g class="text"/></g><g class="trace scatter trace098ef7" style="stroke-miterlimit: 2; opacity: 1;"><g class="fills"/><g class="errorbars"/><g class="lines"><path class="js-line" d="M0,256.5L60.56,255.75L61.26,255.72L103.02,254.38L103.72,254.3L114.86,252.72L115.55,252.58L119.73,251.5L120.43,251.27L142.01,246.02L142.7,245.93L154.54,243.27L155.23,242.93L160.8,241.83L161.5,241.63L173.33,239.06L174.03,238.97L184.47,236.9L185.17,236.76L203.26,232.37L203.96,232.07L220.67,223.79L221.36,223.29L224.15,221.56L224.84,220.96L226.24,220.5L226.93,220.5L229.02,218.31L229.72,217.73L235.29,213.46L235.98,213.34L242.25,209.15L242.94,208.29L249.21,203.76L249.9,203.39L268,195.45L268.7,195.3L279.84,193L280.53,192.89L304.2,189.48" style="vector-effect: non-scaling-stroke; fill: none; stroke: rgb(60, 180, 75); stroke-opacity: 1; stroke-width: 2px; opacity: 1;"/></g><g class="points"/><g class="text"/></g><g class="trace scatter traceee8ca3" style="stroke-miterlimit: 2; opacity: 1;"><g class="fills"/><g class="errorbars"/><g class="lines"><path class="js-line" d="M0,256.5L72.4,255.78L73.09,255.66L99.54,253.73L100.24,253.7L112.07,252.97L112.77,252.83L124.6,250.87L125.3,250.82L178.2,242.61L178.9,242.41L206.05,237.27L206.74,237.22L214.4,235.72L215.1,235.53L223.45,233.65L224.15,233.48L233.89,230.52L234.59,230.52L236.68,230.52L237.37,229.14L240.16,227.96L240.85,226.95L244.33,225.64L245.03,224.98L251.3,221.65L251.99,221.65L263.83,216.84L264.52,216.75L273.57,215.25L274.27,215.16L275.66,213.23L276.36,213.2L280.53,212.51L281.23,212.33L304.2,210.92" style="vector-effect: non-scaling-stroke; fill: none; stroke: rgb(255, 225, 25); stroke-opacity: 1; stroke-width: 2px; opacity: 1;"/></g><g class="points"/><g class="text"/></g><g class="trace scatter trace8b10eb" style="stroke-miterlimit: 2; opacity: 1;"><g class="fills"/><g class="errorbars"/><g class="lines"><path class="js-line" d="M0,256.5L77.27,255.75L77.96,255.67L98.85,252.34L99.54,252.04L105.81,250.4L106.5,250.35L118.34,247.23L119.03,246.91L122.52,245.36L123.21,244.92L127.39,243.15L128.08,242.81L131.56,241L132.26,240.85L160.11,231.57L160.8,231.44L171.94,229.31L172.64,229.11L192.82,222.39L193.52,222.08L202.57,218.24L203.26,217.62L207.44,214.62L208.14,213.58L214.4,209.69L215.1,209.02L218.58,205.6L219.27,204.7L222.06,201.9L222.76,201.08L228.32,192.78L229.02,191.14L232.5,183.92L233.2,183.31L234.59,180.95L235.29,180.95L236.68,178.69L237.37,177.73L240.16,173.71L240.85,171.23L242.94,168.56L243.64,167.01L248.51,159.52L249.21,158.53L251.99,155.89L252.69,155.52L258.95,150.36L259.65,150.36L261.74,148.82L262.43,148.32L269.39,144.06L270.09,143.81L274.27,141.74L274.96,141.42L283.32,138.91L284.01,138.63L304.2,133.45" style="vector-effect: non-scaling-stroke; fill: none; stroke: rgb(67, 99, 216); stroke-opacity: 1; stroke-width: 2px; opacity: 1;"/></g><g class="points"/><g class="text"/></g><g class="trace scatter trace9d7b28" style="stroke-miterlimit: 2; opacity: 1;"><g class="fills"/><g class="errorbars"/><g class="lines"><path class="js-line" d="M0,256.5L48.03,255.8L48.73,255.64L53.6,254.17L54.3,253.87L66.83,252.24L67.52,252.16L82.84,250.88L83.53,249.91L111.38,246.9L112.07,246.59L123.21,242.58L123.91,242.58L127.39,240.96L128.08,240.64L129.48,240.11L130.17,239.84L142.7,236.52L143.4,236.52L155.23,234.88L155.93,234.8L162.19,233.75L162.89,233.75L171.94,231.97L172.64,231.97L178.2,230.83L178.9,230.73L184.47,229.44L185.17,229.39L187.95,228.51L188.65,228.45L209.53,223.45L210.23,221.9L211.62,220.74L212.31,219.95L213.01,219.95L213.71,219.14L215.1,219.14L215.79,218.26L217.88,218.06L218.58,216.11L219.97,215.63L220.67,215.11L222.76,214.42L223.45,214.01L229.72,210.76L230.41,210.35L231.8,209.63L232.5,209.39L235.29,207.79L235.98,207.79L239.46,204.81L240.16,204.81L240.85,204.81L241.55,203.58L242.94,202.52L243.64,201.87L247.12,198.8L247.82,198.26L249.9,196.5L250.6,196.5L252.69,195.25L253.38,194.82L254.78,193.65L255.47,193.65L258.95,191.12L259.65,190.82L261.04,190.13L261.74,190.01L263.13,189.42L263.83,187.46L281.92,184.62L282.62,184.62L304.2,183.53" style="vector-effect: non-scaling-stroke; fill: none; stroke: rgb(245, 130, 49); stroke-opacity: 1; stroke-width: 2px; opacity: 1;"/></g><g class="points"/><g class="text"/></g><g class="trace scatter trace035315" style="stroke-miterlimit: 2; opacity: 1;"><g class="fills"/><g class="errorbars"/><g class="lines"><path class="js-line" d="M0,256.5L77.96,255.8L78.66,255.67L88.41,254.12L89.1,253.81L92.58,252.48L93.28,252.12L97.46,249.43L98.15,249L100.94,247.03L101.63,246.7L103.72,245.31L104.42,244.68L106.5,242.24L107.2,242.24L118.34,233.31L119.03,232.88L126.69,228.33L127.39,228.09L135.05,224L135.74,223.96L140.61,222.76L141.31,222.73L148.27,221.57L148.97,221.55L174.72,219.6L175.42,219.58L197,216.09L197.7,215.91L203.26,214.34L203.96,213.88L211.62,209.2L212.31,208.06L215.79,205.81L216.49,205.03L217.88,204.66L218.58,203.27L221.36,200.71L222.06,199.52L222.76,199.2L223.45,197.07L226.24,193.03L226.93,189.19L229.02,188.49L229.72,188.19L231.8,185.17L232.5,185.17L236.68,185.17L237.37,178.34L239.46,177.12L240.16,175.83L242.25,172.07L242.94,171.9L244.33,170.31L245.03,168.41L247.12,165.13L247.82,164.67L249.9,162.67L250.6,161.55L257.56,156.3L258.26,156.03L264.52,153.57L265.22,153.33L267.31,152.47L268,152.41L293.76,150.19L294.45,150.19L300.02,149.94L300.72,149.9L304.2,149.8" style="vector-effect: non-scaling-stroke; fill: none; stroke: rgb(145, 30, 180); stroke-opacity: 1; stroke-width: 2px; opacity: 1;"/></g><g class="points"/><g class="text"/></g></g></g><g class="overplot"/><path class="xlines-above crisp" d="M0,0" style="fill: none;"/><path class="ylines-above crisp" d="M0,0" style="fill: none;"/><g class="overlines-above"/><g class="xaxislayer-above"><g class="xtick"><text text-anchor="middle" x="0" y="383" transform="translate(128.73,0)" style="font-family: 'Open Sans', verdana, arial, sans-serif; font-size: 12px; fill: rgb(242, 245, 250); fill-opacity: 1; white-space: pre;">Apr 2020</text></g><g class="xtick"><text text-anchor="middle" x="0" y="383" transform="translate(192.07,0)" style="font-family: 'Open Sans', verdana, arial, sans-serif; font-size: 12px; fill: rgb(242, 245, 250); fill-opacity: 1; white-space: pre;">Jul 2020</text></g><g class="xtick"><text text-anchor="middle" x="0" y="383" transform="translate(256.12,0)" style="font-family: 'Open Sans', verdana, arial, sans-serif; font-size: 12px; fill: rgb(242, 245, 250); fill-opacity: 1; white-space: pre;">Oct 2020</text></g><g class="xtick"><text text-anchor="middle" x="0" y="383" transform="translate(320.15999999999997,0)" style="font-family: 'Open Sans', verdana, arial, sans-serif; font-size: 12px; fill: rgb(242, 245, 250); fill-opacity: 1; white-space: pre;">Jan 2021</text></g><g class="xtick"><text text-anchor="middle" x="0" y="383" transform="translate(382.81,0)" style="font-family: 'Open Sans', verdana, arial, sans-serif; font-size: 12px; fill: rgb(242, 245, 250); fill-opacity: 1; white-space: pre;">Apr 2021</text></g></g><g class="yaxislayer-above"><g class="ytick"><text text-anchor="end" x="79" y="4.199999999999999" transform="translate(0,356.5)" style="font-family: 'Open Sans', verdana, arial, sans-serif; font-size: 12px; fill: rgb(242, 245, 250); fill-opacity: 1; white-space: pre;">0</text></g><g class="ytick"><text text-anchor="end" x="79" y="4.199999999999999" transform="translate(0,298.49)" style="font-family: 'Open Sans', verdana, arial, sans-serif; font-size: 12px; fill: rgb(242, 245, 250); fill-opacity: 1; white-space: pre;">20k</text></g><g class="ytick"><text text-anchor="end" x="79" y="4.199999999999999" transform="translate(0,240.48)" style="font-family: 'Open Sans', verdana, arial, sans-serif; font-size: 12px; fill: rgb(242, 245, 250); fill-opacity: 1; white-space: pre;">40k</text></g><g class="ytick"><text text-anchor="end" x="79" y="4.199999999999999" transform="translate(0,182.45999999999998)" style="font-family: 'Open Sans', verdana, arial, sans-serif; font-size: 12px; fill: rgb(242, 245, 250); fill-opacity: 1; white-space: pre;">60k</text></g><g class="ytick"><text text-anchor="end" x="79" y="4.199999999999999" transform="translate(0,124.45)" style="font-family: 'Open Sans', verdana, arial, sans-serif; font-size: 12px; fill: rgb(242, 245, 250); fill-opacity: 1; white-space: pre;">80k</text></g></g><g class="overaxes-above"/></g><g class="subplot x2y2"><g class="layer-subplot"><g class="shapelayer"/><g class="imagelayer"/></g><g class="gridlayer"><g class="x2"><path class="x2grid crisp" transform="translate(500.53000000000003,0)" d="M0,100v270" style="stroke: rgb(40, 52, 66); stroke-opacity: 1; stroke-width: 1px;"/><path class="x2grid crisp" transform="translate(563.87,0)" d="M0,100v270" style="stroke: rgb(40, 52, 66); stroke-opacity: 1; stroke-width: 1px;"/><path class="x2grid crisp" transform="translate(627.9200000000001,0)" d="M0,100v270" style="stroke: rgb(40, 52, 66); stroke-opacity: 1; stroke-width: 1px;"/><path class="x2grid crisp" transform="translate(691.96,0)" d="M0,100v270" style="stroke: rgb(40, 52, 66); stroke-opacity: 1; stroke-width: 1px;"/><path class="x2grid crisp" transform="translate(754.61,0)" d="M0,100v270" style="stroke: rgb(40, 52, 66); stroke-opacity: 1; stroke-width: 1px;"/></g><g class="y2"><path class="y2grid crisp" transform="translate(0,317.34000000000003)" d="M451.8,0h304.2" style="stroke: rgb(40, 52, 66); stroke-opacity: 1; stroke-width: 1px;"/><path class="y2grid crisp" transform="translate(0,278.18)" d="M451.8,0h304.2" style="stroke: rgb(40, 52, 66); stroke-opacity: 1; stroke-width: 1px;"/><path class="y2grid crisp" transform="translate(0,239.01)" d="M451.8,0h304.2" style="stroke: rgb(40, 52, 66); stroke-opacity: 1; stroke-width: 1px;"/><path class="y2grid crisp" transform="translate(0,199.85)" d="M451.8,0h304.2" style="stroke: rgb(40, 52, 66); stroke-opacity: 1; stroke-width: 1px;"/><path class="y2grid crisp" transform="translate(0,160.69)" d="M451.8,0h304.2" style="stroke: rgb(40, 52, 66); stroke-opacity: 1; stroke-width: 1px;"/><path class="y2grid crisp" transform="translate(0,121.53)" d="M451.8,0h304.2" style="stroke: rgb(40, 52, 66); stroke-opacity: 1; stroke-width: 1px;"/></g></g><g class="zerolinelayer"><path class="y2zl zl crisp" transform="translate(0,356.5)" d="M451.8,0h304.2" style="stroke: rgb(40, 52, 66); stroke-opacity: 1; stroke-width: 2px;"/></g><path class="xlines-below"/><path class="ylines-below"/><g class="overlines-below"/><g class="xaxislayer-below"/><g class="yaxislayer-below"/><g class="overaxes-below"/><g class="plot" transform="translate(451.8, 100)" clip-path="url('#clip6d5d11x2y2plot')"><g class="scatterlayer mlayer"><g class="trace scatter trace6c9e04" style="stroke-miterlimit: 2; opacity: 1;"><g class="fills"/><g class="errorbars"/><g class="lines"><path class="js-line" d="M0,256.5L43.85,256.11L44.55,255.72L48.03,255.13L48.73,254.93L55.69,252.39L56.38,252L57.78,252L58.47,249.45L60.56,248.47L61.26,248.28L63.35,247.69L64.04,247.49L70.31,244.16L71,244.16L73.09,243.58L73.79,243.38L75.18,242.6L75.88,242.6L77.27,242.01L77.96,241.62L80.05,240.25L80.75,240.25L82.14,239.66L82.84,239.27L85.62,238.29L86.32,238.29L91.19,237.7L91.89,237.51L93.28,237.51L93.97,236.72L96.76,236.53L97.46,235.94L98.85,235.16L99.54,235.16L100.94,234.57L101.63,234.57L103.02,233.59L103.72,233.39L106.5,233L107.2,232.61L108.59,231.04L109.29,231.04L111.38,230.07L112.07,229.87L114.86,229.09L115.55,229.09L116.95,228.7L117.64,227.91L121.12,226.74L121.82,226.35L122.52,226.35L123.21,224.97L125.3,224.78L126,223.8L128.78,221.65L129.48,221.65L131.56,221.06L132.26,220.86L132.96,220.86L133.65,219.49L135.74,218.9L136.44,218.71L138.53,218.71L139.22,216.36L140.61,216.36L141.31,214.99L143.4,213.62L144.09,213.23L145.49,212.64L146.18,211.86L148.27,210.88L148.97,210.68L149.66,210.68L150.36,209.51L153.14,208.13L153.84,205.98L155.23,206.18L155.93,202.85L157.32,198.54L158.02,197.95L160.11,197.76L160.8,197.17L161.5,197.17L162.19,193.84L162.89,193.84L163.59,191.49L164.28,191.3L164.98,186.79L165.67,186.79L166.37,185.03L168.46,183.27L169.15,183.27L170.55,179.16L171.24,178.76L172.64,177.39L173.33,177L174.72,176.61L175.42,175.83L176.81,174.26L177.51,173.09L179.6,172.89L180.29,170.34L182.38,170.15L183.08,171.13L183.77,171.13L184.47,172.11L185.17,169.95L185.86,171.71L187.25,169.95L187.95,171.71L190.04,171.32L190.73,167.21L191.43,167.21L192.13,166.43L196.3,165.84L197,165.84L200.48,165.45L201.18,164.27L202.57,163.69L203.26,163.69L203.96,163.69L204.66,161.92L207.44,160.55L208.14,160.55L210.92,158.79L211.62,158.79L215.1,158.2L215.79,157.62L217.19,156.25L217.88,156.25L220.67,154.68L221.36,154.68L222.76,154.68L223.45,153.7L224.15,153.5L224.84,152.13L226.93,150.37L227.63,149.59L229.72,144.11L230.41,144.11L231.8,141.56L232.5,141.56L233.2,141.36L233.89,137.25L235.29,135.29L235.98,135.29L237.37,134.12L238.07,134.12L239.46,134.12L240.16,128.05L243.64,128.05L244.33,120.02L245.03,120.02L245.73,113.75L247.82,112.38L248.51,108.66L251.99,108.27L252.69,106.9L254.08,106.51L254.78,91.63L256.17,88.89L256.86,81.45L257.56,81.05L258.26,79.1L261.04,65.78L261.74,64.61L262.43,64.21L263.13,62.45L263.83,60.89L264.52,56.58L266.61,52.66L267.31,52.66L269.39,48.16L270.09,43.46L271.48,37.19L272.18,37L274.27,36.02L274.96,27.21L275.66,27.21L276.36,21.53L277.75,21.53L278.44,18L279.14,16.83L279.84,13.5L280.53,13.5L281.23,40.13L284.01,33.08L284.71,32.69L285.41,32.3L286.1,32.89L288.19,28.58L288.89,28.58L290.28,27.79L290.97,27.99L293.06,23.68L293.76,24.07L294.45,25.84L295.15,24.07L296.54,23.49L297.24,21.72L298.63,19.96L299.33,19.37L304.2,18.2" style="vector-effect: non-scaling-stroke; fill: none; stroke: rgb(230, 25, 75); stroke-opacity: 1; stroke-width: 2px; opacity: 1;"/></g><g class="points"/><g class="text"/></g><g class="trace scatter trace727313" style="stroke-miterlimit: 2; opacity: 1;"><g class="fills"/><g class="errorbars"/><g class="lines"><path class="js-line" d="M0,256.5L50.12,255.91L50.82,255.72L53.6,255.52L54.3,255.52L65.43,254.93L66.13,254.74L68.91,254.15L69.61,253.95L73.79,253.37L74.48,253.17L103.02,252.58L103.72,252.39L107.2,252L107.9,252L121.12,251.41L121.82,251.21L130.87,250.63L131.56,250.43L135.74,249.84L136.44,249.84L139.22,249.26L139.92,249.06L142.7,248.86L143.4,248.86L151.06,248.28L151.75,247.69L164.28,247.1L164.98,246.91L178.9,246.51L179.6,245.93L182.38,245.14L183.08,245.14L190.04,244.56L190.73,244.36L194.91,243.77L195.61,243.77L198.39,242.79L199.09,242.79L208.14,242.21L208.83,242.01L212.31,241.62L213.01,241.62L223.45,241.23L224.15,239.86L227.63,239.46L228.32,239.46L232.5,237.51L233.2,237.31L235.29,236.33L235.98,236.33L247.82,235.74L248.51,234.96L251.3,234.18L251.99,234.18L252.69,234.18L253.38,233L255.47,230.65L256.17,230.65L256.86,230.65L257.56,229.48L258.95,228.89L259.65,227.13L260.35,227.13L261.04,225.17L261.74,225.17L262.43,223.6L264.52,220.28L265.22,219.88L268,219.69L268.7,218.9L270.79,218.51L271.48,218.51L272.88,217.93L273.57,217.14L274.96,216.55L275.66,216.55L276.36,216.55L277.05,215.58L279.84,214.4L280.53,214.4L284.01,213.81L284.71,213.62L287.49,213.23L288.19,212.25L295.85,211.66L296.54,211.46L302.81,211.07L303.5,210.48L304.2,210.09" style="vector-effect: non-scaling-stroke; fill: none; stroke: rgb(60, 180, 75); stroke-opacity: 1; stroke-width: 2px; opacity: 1;"/></g><g class="points"/><g class="text"/></g><g class="trace scatter trace95908c" style="stroke-miterlimit: 2; opacity: 1;"><g class="fills"/><g class="errorbars"/><g class="lines"><path class="js-line" d="M0,256.5L73.09,255.91L73.79,255.72L86.32,255.33L87.01,254.35L98.85,253.76L99.54,252.58L103.02,252L103.72,251.8L105.81,251.6L106.5,250.82L109.29,249.06L109.99,249.06L115.55,249.06L116.25,248.28L119.03,247.88L119.73,248.08L126.69,247.49L127.39,247.1L136.44,246.51L137.13,246.12L147.58,245.53L148.27,245.14L157.32,244.56L158.02,244.16L164.98,243.58L165.67,242.99L167.76,242.4L168.46,242.4L174.03,241.81L174.72,241.62L177.51,240.25L178.2,240.25L188.65,239.66L189.34,239.46L192.82,239.46L193.52,237.9L199.09,237.51L199.78,236.72L210.92,236.33L211.62,235.55L219.27,234.96L219.97,234.37L236.68,233.79L237.37,229.87L241.55,229.28L242.25,229.28L248.51,228.7L249.21,226.93L253.38,226.54L254.08,224.19L256.17,222.43L256.86,222.43L258.95,221.25L259.65,221.25L264.52,220.67L265.22,220.47L269.39,220.08L270.09,220.08L272.88,220.08L273.57,218.51L275.66,217.53L276.36,217.53L278.44,216.95L279.14,216.55L283.32,214.99L284.01,214.99L288.19,214.4L288.89,214.01L292.37,213.42L293.06,213.23L302.11,212.64L302.81,212.25L304.2,212.25" style="vector-effect: non-scaling-stroke; fill: none; stroke: rgb(255, 225, 25); stroke-opacity: 1; stroke-width: 2px; opacity: 1;"/></g><g class="points"/><g class="text"/></g><g class="trace scatter trace359db8" style="stroke-miterlimit: 2; opacity: 1;"><g class="fills"/><g class="errorbars"/><g class="lines"><path class="js-line" d="M0,256.5L50.12,255.91L50.82,255.72L51.51,255.72L52.21,254.74L62.65,254.15L63.35,253.95L92.58,253.37L93.28,252.78L103.02,252.19L103.72,251.8L109.29,250.82L109.99,250.82L119.03,249.06L119.73,249.06L128.08,248.47L128.78,248.08L132.26,247.69L132.96,247.3L137.13,246.91L137.83,246.32L146.18,244.56L146.88,244.56L148.97,244.56L149.66,243.77L151.06,242.99L151.75,242.79L153.14,242.21L153.84,242.21L158.02,241.42L158.71,241.42L174.03,237.9L174.72,237.9L178.9,237.7L179.6,237.11L188.65,236.53L189.34,236.33L197,234.77L197.7,234.77L201.18,234.18L201.87,233.59L205.35,233L206.05,232.42L208.83,232.02L209.53,231.24L210.92,230.26L211.62,230.26L213.71,229.28L214.4,227.32L215.79,226.74L216.49,226.74L218.58,226.35L219.27,225.76L222.76,221.06L223.45,219.1L224.15,218.71L224.84,216.55L226.93,214.99L227.63,214.01L229.72,211.66L230.41,211.46L231.11,211.46L231.8,210.48L232.5,210.09L233.2,208.13L234.59,207.16L235.29,207.16L237.37,205.98L238.07,204.81L238.77,204.81L239.46,203.04L241.55,202.46L242.25,202.26L245.73,197.76L246.42,196.78L249.21,193.45L249.9,193.06L256.17,190.32L256.86,188.55L258.95,186.4L259.65,186.4L261.74,184.83L262.43,182.88L265.22,176.22L265.91,176.22L270.09,172.69L270.79,172.5L276.36,169.76L277.05,168.39L279.84,166.04L280.53,166.04L290.28,165.64L290.97,165.25L298.63,163.88L299.33,163.88L301.42,163.29L302.11,163.1L304.2,162.9" style="vector-effect: non-scaling-stroke; fill: none; stroke: rgb(67, 99, 216); stroke-opacity: 1; stroke-width: 2px; opacity: 1;"/></g><g class="points"/><g class="text"/></g><g class="trace scatter trace5981f7" style="stroke-miterlimit: 2; opacity: 1;"><g class="fills"/><g class="errorbars"/><g class="lines"><path class="js-line" d="M0,256.5L45.94,256.11L46.64,255.52L48.73,255.13L49.42,254.54L50.82,254.54L51.51,252.78L54.3,251.41L54.99,248.86L57.08,248.86L57.78,245.73L59.87,245.53L60.56,243.18L61.95,242.4L62.65,240.25L64.74,239.86L65.43,238.49L66.83,238.29L67.52,236.92L69.61,234.37L70.31,234.37L71.7,234.18L72.4,232.42L76.57,230.65L77.27,230.07L80.75,226.15L81.44,226.15L83.53,225.95L84.23,223.02L85.62,222.43L86.32,222.43L88.41,221.25L89.1,219.69L91.89,219.3L92.58,217.73L93.28,217.73L93.97,216.75L95.37,216.16L96.06,216.16L97.46,215.38L98.15,215.38L100.24,214.79L100.94,214.6L102.33,214.01L103.02,214.01L105.81,212.83L106.5,212.83L108.59,211.07L109.29,211.07L112.77,210.48L113.47,208.92L117.64,208.92L118.34,208.13L121.82,207.74L122.52,207.16L124.6,206.18L125.3,205.98L127.39,205L128.08,204.81L130.87,204.22L131.56,202.85L139.92,198.74L140.61,198.54L144.09,197.95L144.79,197.76L146.18,196.97L146.88,196.97L151.06,195.41L151.75,195.21L153.84,194.23L154.54,193.84L160.11,191.49L160.8,191.3L164.28,191.1L164.98,190.51L165.67,190.51L166.37,189.73L171.24,187.97L171.94,187.38L174.72,186.79L175.42,185.81L177.51,184.44L178.2,184.44L179.6,183.85L180.29,183.85L180.99,184.05L181.68,183.46L182.38,183.46L183.08,182.48L185.86,181.9L186.56,181.7L187.95,181.11L188.65,180.72L197,178.96L197.7,178.96L198.39,178.96L199.09,177.78L200.48,177.39L201.18,177L202.57,177L203.26,176.02L206.74,174.85L207.44,174.85L209.53,174.85L210.23,172.69L212.31,170.34L213.01,170.34L214.4,169.56L215.1,169.56L220.67,168.58L221.36,168.58L223.45,165.25L224.15,164.86L231.11,163.29L231.8,162.32L233.2,159.57L233.89,158.4L235.29,157.03L235.98,157.03L238.77,155.46L239.46,155.27L240.85,155.27L241.55,154.48L244.33,153.31L245.03,151.94L246.42,151.35L247.12,148.41L248.51,146.85L249.21,146.65L250.6,146.65L251.3,145.67L254.08,141.56L254.78,141.17L256.86,140.58L257.56,139.01L258.95,138.82L259.65,137.84L261.04,137.45L261.74,136.47L262.43,136.27L263.13,133.53L268,130.59L268.7,129.81L270.09,129.22L270.79,129.03L272.18,127.66L272.88,126.68L276.36,126.29L277.05,125.5L280.53,124.33L281.23,124.33L291.67,118.85L292.37,117.67L295.15,117.67L295.85,116.89L303.5,115.13L304.2,115.13" style="vector-effect: non-scaling-stroke; fill: none; stroke: rgb(245, 130, 49); stroke-opacity: 1; stroke-width: 2px; opacity: 1;"/></g><g class="points"/><g class="text"/></g><g class="trace scatter trace9c6d8f" style="stroke-miterlimit: 2; opacity: 1;"><g class="fills"/><g class="errorbars"/><g class="lines"><path class="js-line" d="M0,256.5L77.96,255.91L78.66,255.72L84.23,255.13L84.93,254.93L88.41,254.35L89.1,253.95L93.28,252.58L93.97,252.19L94.67,251.8L95.37,250.43L98.85,250.04L99.54,248.47L103.02,248.08L103.72,246.32L105.81,245.53L106.5,243.18L107.9,243.18L108.59,241.62L109.99,240.84L110.68,240.84L111.38,240.64L112.07,238.29L114.16,237.31L114.86,237.31L115.55,237.31L116.25,233.59L116.95,233.39L117.64,232.22L119.03,229.87L119.73,226.35L120.43,226.35L121.12,225.37L122.52,225.17L123.21,224.19L124.6,221.06L125.3,220.67L126.69,216.16L127.39,215.38L128.08,215.58L128.78,213.42L130.17,213.23L130.87,212.25L131.56,211.46L132.26,208.13L133.65,206.76L134.35,205.79L139.22,200.11L139.92,199.91L140.61,200.69L141.31,199.72L147.58,197.95L148.27,196.97L150.36,196.97L151.06,194.82L151.75,194.82L152.45,194.04L155.93,193.84L156.62,192.86L160.8,191.88L161.5,191.88L164.98,190.51L165.67,190.51L167.07,189.53L167.76,189.53L169.85,189.14L170.55,189.14L176.81,188.55L177.51,188.36L185.86,188.16L186.56,187.77L190.04,187.38L190.73,187.38L193.52,187.18L194.21,187.18L196.3,187.18L197,186.4L201.18,185.81L201.87,185.42L208.83,185.03L209.53,184.44L210.92,183.85L211.62,183.07L214.4,182.48L215.1,182.09L215.79,182.09L216.49,180.53L217.88,179.74L218.58,179.74L219.97,178.96L220.67,176.81L222.76,176.41L223.45,176.22L225.54,174.26L226.24,173.67L227.63,173.67L228.32,172.89L231.8,165.45L232.5,165.45L236.68,165.45L237.37,158.99L240.85,153.11L241.55,153.11L242.25,153.11L242.94,150.18L243.64,149L244.33,145.87L245.73,144.3L246.42,143.32L247.12,143.32L247.82,140.78L251.3,132.55L251.99,132.55L252.69,132.55L253.38,129.62L256.17,124.72L256.86,124.72L259.65,120.02L260.35,120.02L261.74,120.02L262.43,116.5L263.13,115.71L263.83,113.75L265.22,112.78L265.91,112.78L266.61,112.78L267.31,111.4L270.79,108.08L271.48,108.08L272.18,108.08L272.88,107.29L274.27,105.92L274.96,105.73L277.75,104.94L278.44,103.57L284.01,100.44L284.71,100.44L288.19,99.07L288.89,99.07L291.67,98.09L292.37,98.09L304.2,95.15" style="vector-effect: non-scaling-stroke; fill: none; stroke: rgb(145, 30, 180); stroke-opacity: 1; stroke-width: 2px; opacity: 1;"/></g><g class="points"/><g class="text"/></g></g></g><g class="overplot"/><path class="xlines-above crisp" d="M0,0" style="fill: none;"/><path class="ylines-above crisp" d="M0,0" style="fill: none;"/><g class="overlines-above"/><g class="xaxislayer-above"><g class="x2tick"><text text-anchor="middle" x="0" y="383" transform="translate(500.53000000000003,0)" style="font-family: 'Open Sans', verdana, arial, sans-serif; font-size: 12px; fill: rgb(242, 245, 250); fill-opacity: 1; white-space: pre;">Apr 2020</text></g><g class="x2tick"><text text-anchor="middle" x="0" y="383" transform="translate(563.87,0)" style="font-family: 'Open Sans', verdana, arial, sans-serif; font-size: 12px; fill: rgb(242, 245, 250); fill-opacity: 1; white-space: pre;">Jul 2020</text></g><g class="x2tick"><text text-anchor="middle" x="0" y="383" transform="translate(627.9200000000001,0)" style="font-family: 'Open Sans', verdana, arial, sans-serif; font-size: 12px; fill: rgb(242, 245, 250); fill-opacity: 1; white-space: pre;">Oct 2020</text></g><g class="x2tick"><text text-anchor="middle" x="0" y="383" transform="translate(691.96,0)" style="font-family: 'Open Sans', verdana, arial, sans-serif; font-size: 12px; fill: rgb(242, 245, 250); fill-opacity: 1; white-space: pre;">Jan 2021</text></g><g class="x2tick"><text text-anchor="middle" x="0" y="383" transform="translate(754.61,0)" style="font-family: 'Open Sans', verdana, arial, sans-serif; font-size: 12px; fill: rgb(242, 245, 250); fill-opacity: 1; white-space: pre;">Apr 2021</text></g></g><g class="yaxislayer-above"><g class="y2tick"><text text-anchor="end" x="450.8" y="4.199999999999999" transform="translate(0,356.5)" style="font-family: 'Open Sans', verdana, arial, sans-serif; font-size: 12px; fill: rgb(242, 245, 250); fill-opacity: 1; white-space: pre;">0</text></g><g class="y2tick"><text text-anchor="end" x="450.8" y="4.199999999999999" transform="translate(0,317.34000000000003)" style="font-family: 'Open Sans', verdana, arial, sans-serif; font-size: 12px; fill: rgb(242, 245, 250); fill-opacity: 1; white-space: pre;">200</text></g><g class="y2tick"><text text-anchor="end" x="450.8" y="4.199999999999999" transform="translate(0,278.18)" style="font-family: 'Open Sans', verdana, arial, sans-serif; font-size: 12px; fill: rgb(242, 245, 250); fill-opacity: 1; white-space: pre;">400</text></g><g class="y2tick"><text text-anchor="end" x="450.8" y="4.199999999999999" transform="translate(0,239.01)" style="font-family: 'Open Sans', verdana, arial, sans-serif; font-size: 12px; fill: rgb(242, 245, 250); fill-opacity: 1; white-space: pre;">600</text></g><g class="y2tick"><text text-anchor="end" x="450.8" y="4.199999999999999" transform="translate(0,199.85)" style="font-family: 'Open Sans', verdana, arial, sans-serif; font-size: 12px; fill: rgb(242, 245, 250); fill-opacity: 1; white-space: pre;">800</text></g><g class="y2tick"><text text-anchor="end" x="450.8" y="4.199999999999999" transform="translate(0,160.69)" style="font-family: 'Open Sans', verdana, arial, sans-serif; font-size: 12px; fill: rgb(242, 245, 250); fill-opacity: 1; white-space: pre;">1000</text></g><g class="y2tick"><text text-anchor="end" x="450.8" y="4.199999999999999" transform="translate(0,121.53)" style="font-family: 'Open Sans', verdana, arial, sans-serif; font-size: 12px; fill: rgb(242, 245, 250); fill-opacity: 1; white-space: pre;">1200</text></g></g><g class="overaxes-above"/></g></g><g class="polarlayer"/><g class="ternarylayer"/><g class="geolayer"/><g class="funnelarealayer"/><g class="pielayer"/><g class="treemaplayer"/><g class="sunburstlayer"/><g class="glimages"/><defs id="topdefs-6d5d11"><g class="clips"/><clipPath id="legend6d5d11"><rect width="118" height="124" x="0" y="0"/></clipPath></defs><g class="layer-above"><g class="imagelayer"/><g class="shapelayer"/></g><g class="infolayer"><g class="legend" pointer-events="all" transform="translate(769.52, 100)"><rect class="bg" shape-rendering="crispEdges" width="118" height="124" x="0" y="0" style="stroke: rgb(68, 68, 68); stroke-opacity: 1; fill: rgb(17, 17, 17); fill-opacity: 1; stroke-width: 0px;"/><g class="scrollbox" transform="translate(0, 0)" clip-path="url('#legend6d5d11')"><g class="groups"><g class="traces" transform="translate(0, 14.5)" style="opacity: 1;"><text class="legendtext user-select-none" text-anchor="start" x="40" y="4.680000000000001" style="font-family: 'Open Sans', verdana, arial, sans-serif; font-size: 12px; fill: rgb(242, 245, 250); fill-opacity: 1; white-space: pre;">Alameda, CA</text><g class="layers" style="opacity: 1;"><g class="legendfill"/><g class="legendlines"><path class="js-line" d="M5,0h30" style="fill: none; stroke: rgb(230, 25, 75); stroke-opacity: 1; stroke-width: 2px;"/></g><g class="legendsymbols"><g class="legendpoints"/></g></g><rect class="legendtoggle" pointer-events="all" x="0" y="-9.5" width="112.375" height="19" style="cursor: pointer; fill: rgb(0, 0, 0); fill-opacity: 0;"/></g><g class="traces" transform="translate(0, 33.5)" style="opacity: 1;"><text class="legendtext user-select-none" text-anchor="start" x="40" y="4.680000000000001" style="font-family: 'Open Sans', verdana, arial, sans-serif; font-size: 12px; fill: rgb(242, 245, 250); fill-opacity: 1; white-space: pre;">Shelby, AL</text><g class="layers" style="opacity: 1;"><g class="legendfill"/><g class="legendlines"><path class="js-line" d="M5,0h30" style="fill: none; stroke: rgb(60, 180, 75); stroke-opacity: 1; stroke-width: 2px;"/></g><g class="legendsymbols"><g class="legendpoints"/></g></g><rect class="legendtoggle" pointer-events="all" x="0" y="-9.5" width="112.375" height="19" style="cursor: pointer; fill: rgb(0, 0, 0); fill-opacity: 0;"/></g><g class="traces" transform="translate(0, 52.5)" style="opacity: 1;"><text class="legendtext user-select-none" text-anchor="start" x="40" y="4.680000000000001" style="font-family: 'Open Sans', verdana, arial, sans-serif; font-size: 12px; fill: rgb(242, 245, 250); fill-opacity: 1; white-space: pre;">Robeson, NC</text><g class="layers" style="opacity: 1;"><g class="legendfill"/><g class="legendlines"><path class="js-line" d="M5,0h30" style="fill: none; stroke: rgb(255, 225, 25); stroke-opacity: 1; stroke-width: 2px;"/></g><g class="legendsymbols"><g class="legendpoints"/></g></g><rect class="legendtoggle" pointer-events="all" x="0" y="-9.5" width="112.375" height="19" style="cursor: pointer; fill: rgb(0, 0, 0); fill-opacity: 0;"/></g><g class="traces" transform="translate(0, 71.5)" style="opacity: 1;"><text class="legendtext user-select-none" text-anchor="start" x="40" y="4.680000000000001" style="font-family: 'Open Sans', verdana, arial, sans-serif; font-size: 12px; fill: rgb(242, 245, 250); fill-opacity: 1; white-space: pre;">Hamilton, TN</text><g class="layers" style="opacity: 1;"><g class="legendfill"/><g class="legendlines"><path class="js-line" d="M5,0h30" style="fill: none; stroke: rgb(67, 99, 216); stroke-opacity: 1; stroke-width: 2px;"/></g><g class="legendsymbols"><g class="legendpoints"/></g></g><rect class="legendtoggle" pointer-events="all" x="0" y="-9.5" width="112.375" height="19" style="cursor: pointer; fill: rgb(0, 0, 0); fill-opacity: 0;"/></g><g class="traces" transform="translate(0, 90.5)" style="opacity: 1;"><text class="legendtext user-select-none" text-anchor="start" x="40" y="4.680000000000001" style="font-family: 'Open Sans', verdana, arial, sans-serif; font-size: 12px; fill: rgb(242, 245, 250); fill-opacity: 1; white-space: pre;">Caddo, LA</text><g class="layers" style="opacity: 1;"><g class="legendfill"/><g class="legendlines"><path class="js-line" d="M5,0h30" style="fill: none; stroke: rgb(245, 130, 49); stroke-opacity: 1; stroke-width: 2px;"/></g><g class="legendsymbols"><g class="legendpoints"/></g></g><rect class="legendtoggle" pointer-events="all" x="0" y="-9.5" width="112.375" height="19" style="cursor: pointer; fill: rgb(0, 0, 0); fill-opacity: 0;"/></g><g class="traces" transform="translate(0, 109.5)" style="opacity: 1;"><text class="legendtext user-select-none" text-anchor="start" x="40" y="4.680000000000001" style="font-family: 'Open Sans', verdana, arial, sans-serif; font-size: 12px; fill: rgb(242, 245, 250); fill-opacity: 1; white-space: pre;">Yuma, AZ</text><g class="layers" style="opacity: 1;"><g class="legendfill"/><g class="legendlines"><path class="js-line" d="M5,0h30" style="fill: none; stroke: rgb(145, 30, 180); stroke-opacity: 1; stroke-width: 2px;"/></g><g class="legendsymbols"><g class="legendpoints"/></g></g><rect class="legendtoggle" pointer-events="all" x="0" y="-9.5" width="112.375" height="19" style="cursor: pointer; fill: rgb(0, 0, 0); fill-opacity: 0;"/></g></g></g><rect class="scrollbar" rx="20" ry="3" width="0" height="0" x="0" y="0" style="fill: rgb(128, 139, 164); fill-opacity: 1;"/></g><g class="g-gtitle"/><g class="g-xtitle"><text class="xtitle" x="232.1" y="410.8" text-anchor="middle" style="font-family: 'Open Sans', verdana, arial, sans-serif; font-size: 14px; fill: rgb(242, 245, 250); opacity: 1; font-weight: normal; white-space: pre;">Date</text></g><g class="g-x2title"><text class="x2title" x="603.9" y="410.8" text-anchor="middle" style="font-family: 'Open Sans', verdana, arial, sans-serif; font-size: 14px; fill: rgb(242, 245, 250); opacity: 1; font-weight: normal; white-space: pre;">Date</text></g><g class="g-ytitle"><text class="ytitle" transform="rotate(-90,34.840625,235)" x="34.840625" y="235" text-anchor="middle" style="font-family: 'Open Sans', verdana, arial, sans-serif; font-size: 14px; fill: rgb(242, 245, 250); opacity: 1; font-weight: normal; white-space: pre;">Cases</text></g><g class="g-y2title"><text class="y2title" transform="rotate(-90,399.29375,235)" x="399.29375" y="235" text-anchor="middle" style="font-family: 'Open Sans', verdana, arial, sans-serif; font-size: 14px; fill: rgb(242, 245, 250); opacity: 1; font-weight: normal; white-space: pre;">Deaths</text></g><g class="annotation" data-index="0" style="opacity: 1;"><g class="annotation-text-g" transform="rotate(0,232.1,89.5)"><g class="cursor-pointer" transform="translate(208, 79)"><rect class="bg" x="0.5" y="0.5" width="48" height="20" style="stroke-width: 1px; stroke: rgb(0, 0, 0); stroke-opacity: 0; fill: rgb(0, 0, 0); fill-opacity: 0;"/><text class="annotation-text" text-anchor="middle" x="24.6875" y="16" style="font-family: 'Open Sans', verdana, arial, sans-serif; font-size: 16px; fill: rgb(242, 245, 250); fill-opacity: 1; white-space: pre;">Cases</text></g></g></g><g class="annotation" data-index="1" style="opacity: 1;"><g class="annotation-text-g" transform="rotate(0,603.9,89.5)"><g class="cursor-pointer" transform="translate(576, 79)"><rect class="bg" x="0.5" y="0.5" width="54" height="20" style="stroke-width: 1px; stroke: rgb(0, 0, 0); stroke-opacity: 0; fill: rgb(0, 0, 0); fill-opacity: 0;"/><text class="annotation-text" text-anchor="middle" x="27.359375" y="16" style="font-family: 'Open Sans', verdana, arial, sans-serif; font-size: 16px; fill: rgb(242, 245, 250); fill-opacity: 1; white-space: pre;">Deaths</text></g></g></g></g></svg>