<svg class="main-svg" xmlns="http://www.w3.org/2000/svg" xmlns:xlink="http://www.w3.org/1999/xlink" width="900" height="450" style="" viewBox="0 0 900 450"><rect x="0" y="0" width="900" height="450" style="fill: rgb(17, 17, 17); fill-opacity: 1;"/><defs id="defs-03fc22"><g class="clips"><clipPath id="clip03fc22xyplot" class="plotclip"><rect width="296.55" height="270"/></clipPath><clipPath id="clip03fc22x2y2plot" class="plotclip"><rect width="296.54999999999995" height="270"/></clipPath><clipPath class="axesclip" id="clip03fc22x"><rect x="80" y="0" width="296.55" height="450"/></clipPath><clipPath class="axesclip" id="clip03fc22y"><rect x="0" y="100" width="900" height="270"/></clipPath><clipPath class="axesclip" id="clip03fc22xy"><rect x="80" y="100" width="296.55" height="270"/></clipPath><clipPath class="axesclip" id="clip03fc22y2"><rect x="0" y="100" width="900" height="270"/></clipPath><clipPath class="axesclip" id="clip03fc22xy2"><rect x="80" y="100" width="296.55" height="270"/></clipPath><clipPath class="axesclip" id="clip03fc22x2"><rect x="442.45000000000005" y="0" width="296.54999999999995" height="450"/></clipPath><clipPath class="axesclip" id="clip03fc22x2y"><rect x="442.45000000000005" y="100" width="296.54999999999995" height="270"/></clipPath><clipPath class="axesclip" id="clip03fc22x2y2"><rect x="442.45000000000005" y="100" width="296.54999999999995" height="270"/></clipPath></g><g class="gradients"/></defs><g class="bglayer"/><g class="layer-below"><g class="imagelayer"/><g class="shapelayer"/></g><g class="cartesianlayer"><g class="subplot xy"><g class="layer-subplot"><g class="shapelayer"/><g class="imagelayer"/></g><g class="gridlayer"><g class="x"><path class="xgrid crisp" transform="translate(129.78,0)" d="M0,100v270" style="stroke: rgb(40, 52, 66); stroke-opacity: 1; stroke-width: 1px;"/><path class="xgrid crisp" transform="translate(194.5,0)" d="M0,100v270" style="stroke: rgb(40, 52, 66); stroke-opacity: 1; stroke-width: 1px;"/><path class="xgrid crisp" transform="translate(259.91999999999996,0)" d="M0,100v270" style="stroke: rgb(40, 52, 66); stroke-opacity: 1; stroke-width: 1px;"/><path class="xgrid crisp" transform="translate(325.35,0)" d="M0,100v270" style="stroke: rgb(40, 52, 66); stroke-opacity: 1; stroke-width: 1px;"/></g><g class="y"><path class="ygrid crisp" transform="translate(0,313.44)" d="M80,0h296.55" style="stroke: rgb(40, 52, 66); stroke-opacity: 1; stroke-width: 1px;"/><path class="ygrid crisp" transform="translate(0,270.37)" d="M80,0h296.55" style="stroke: rgb(40, 52, 66); stroke-opacity: 1; stroke-width: 1px;"/><path class="ygrid crisp" transform="translate(0,227.31)" d="M80,0h296.55" style="stroke: rgb(40, 52, 66); stroke-opacity: 1; stroke-width: 1px;"/><path class="ygrid crisp" transform="translate(0,184.24)" d="M80,0h296.55" style="stroke: rgb(40, 52, 66); stroke-opacity: 1; stroke-width: 1px;"/><path class="ygrid crisp" transform="translate(0,141.18)" d="M80,0h296.55" style="stroke: rgb(40, 52, 66); stroke-opacity: 1; stroke-width: 1px;"/></g></g><g class="zerolinelayer"><path class="yzl zl crisp" transform="translate(0,356.5)" d="M80,0h296.55" style="stroke: rgb(40, 52, 66); stroke-opacity: 1; stroke-width: 2px;"/></g><path class="xlines-below"/><path class="ylines-below"/><g class="overlines-below"/><g class="xaxislayer-below"/><g class="yaxislayer-below"/><g class="overaxes-below"/><g class="plot" transform="translate(80, 100)" clip-path="url('#clip03fc22xyplot')"><g class="scatterlayer mlayer"><g class="trace scatter tracec435e4" style="stroke-miterlimit: 2; opacity: 1;"><g class="fills"/><g class="errorbars"/><g class="lines"><path class="js-line" d="M0,256.5L49.07,255.83L49.78,255.73L83.2,251.21L83.92,251.07L91.03,249.62L91.74,249.42L98.85,247.92L99.56,247.82L113.07,244.09L113.78,243.66L118.05,241.67L118.76,241.67L120.9,240.38L121.61,239.87L123.03,239.33L123.74,238.58L137.25,231.69L137.96,230.99L141.52,230.37L142.23,228.08L142.94,228.04L143.65,227.08L145.79,225.15L146.5,225.15L147.92,223.92L148.63,223.26L151.48,220.56L152.19,220.49L152.9,220.47L153.61,219.3L157.88,217.34L158.59,216.78L161.43,215.31L162.14,215.31L165.7,213.83L166.41,213.79L169.25,213.23L169.97,213.09L172.81,212.06L173.52,211.82L187.03,208.81L187.74,208.81L194.14,207.12L194.86,206.97L202.68,204.62L203.39,204.47L206.94,202.99L207.66,202.67L212.63,200.41L213.35,199.53L219.75,195.73L220.46,194.36L224.01,191.19L224.72,189.79L226.15,188.16L226.86,186.42L227.57,186.25L228.28,183.86L231.84,178.59L232.55,174.21L234.68,169.81L235.39,169.76L237.52,161.75L238.24,160.13L242.5,149.35L243.21,147.97L245.35,143.51L246.06,141.26L248.9,134.99L249.61,133.59L256.01,115.64L256.73,113.13L258.86,109.15L259.57,108.39L267.39,97.21L268.1,96.36L270.95,93.47L271.66,92.49L277.35,87.6L278.06,87.16L282.33,85L283.04,84.68L291.57,81.42L292.28,81.2L295.84,80.58L296.55,80.58" style="vector-effect: non-scaling-stroke; fill: none; stroke: rgb(230, 25, 75); stroke-opacity: 1; stroke-width: 2px; opacity: 1;"/></g><g class="points"/><g class="text"/></g><g class="trace scatter trace0d1195" style="stroke-miterlimit: 2; opacity: 1;"><g class="fills"/><g class="errorbars"/><g class="lines"><path class="js-line" d="M0,256.5L41.96,255.75L42.67,255.47L45.51,253.51L46.22,252.6L50.49,245.59L51.2,243.37L56.89,232.92L57.6,232.46L61.16,228.01L61.87,227.49L64.71,225.15L65.43,224.21L67.56,222.59L68.27,222.32L72.54,219.25L73.25,219.22L78.94,217.15L79.65,216.9L81.78,215.55L82.49,215.45L90.32,213.31L91.03,212.95L95.29,212.17L96.01,211.19L100.98,209.86L101.69,209.75L110.94,208.1L111.65,207.88L118.05,206.42L118.76,206.04L129.43,201.55L130.14,201.27L134.41,199.03L135.12,198.53L143.65,195.3L144.36,195.37L146.5,193.92L147.21,193.82L153.61,191.19L154.32,190.62L157.16,189.42L157.88,189.25L164.28,186.26L164.99,185.76L167.83,184.34L168.54,184.04L181.34,179.28L182.05,179.28L197.7,170.32L198.41,169.52L205.52,159.85L206.23,159.85L206.94,159.85L207.66,156.35L211.21,147.79L211.92,147.79L214.06,140.73L214.77,138.67L216.19,133.57L216.9,133.57L219.03,127.51L219.75,127.51L221.17,119.54L221.88,119.54L224.01,112.12L224.72,110.09L226.15,105.28L226.86,105.28L229.7,96.35L230.41,94.83L236.1,83.62L236.81,83.62L238.95,79.47L239.66,79.47L240.37,79.47L241.08,76.96L241.79,76.96L242.5,75.84L244.64,73.6L245.35,73.6L246.77,71.33L247.48,69.43L249.61,65.89L250.33,64.57L254.59,59.48L255.3,58.3L257.44,56.3L258.15,56.3L260.28,53.12L260.99,52.61L261.7,52.61L262.41,51.56L265.97,48.32L266.68,48.32L270.24,45.66L270.95,45.2L271.66,45.2L272.37,44.36L278.77,41.5L279.48,41.11L289.44,34.8L290.15,34.11L294.42,30.32L295.13,29.14L296.55,28.53" style="vector-effect: non-scaling-stroke; fill: none; stroke: rgb(60, 180, 75); stroke-opacity: 1; stroke-width: 2px; opacity: 1;"/></g><g class="points"/><g class="text"/></g><g class="trace scatter tracee38216" style="stroke-miterlimit: 2; opacity: 1;"><g class="fills"/><g class="errorbars"/><g class="lines"><path class="js-line" d="M0,256.5L73.96,255.75L74.67,255.72L98.14,254.32L98.85,254.27L118.76,252.98L119.47,252.9L140.81,250.34L141.52,250.28L158.59,247.57L159.3,247.22L162.85,246.17L163.56,246.08L189.17,240.52L189.88,240.25L204.1,235.05L204.81,234.53L214.06,229.35L214.77,229.35L215.48,229.35L216.19,226.54L219.75,223.77L220.46,223.77L221.88,221.45L222.59,220.78L227.57,215.83L228.28,214.25L238.24,205.43L238.95,205.08L241.79,203.31L242.5,203.02L261.7,189.47L262.41,189.17L272.37,184.44L273.08,184.16L278.06,182.49L278.77,182.35L286.59,180.2L287.31,180.16L296.55,178.63" style="vector-effect: non-scaling-stroke; fill: none; stroke: rgb(255, 225, 25); stroke-opacity: 1; stroke-width: 2px; opacity: 1;"/></g><g class="points"/><g class="text"/></g><g class="trace scatter trace3e10b7" style="stroke-miterlimit: 2; opacity: 1;"><g class="fills"/><g class="errorbars"/><g class="lines"><path class="js-line" d="M0,256.5L44.09,255.76L44.8,255.68L49.78,251.63L50.49,250.87L64,232.54L64.71,231.98L68.27,228.41L68.98,228.1L74.67,224.31L75.38,224L79.65,222.59L80.36,222.43L88.18,219.46L88.89,219.35L99.56,217.3L100.27,217.24L108.09,216.5L108.81,216.47L186.32,209.8L187.03,209.65L192.72,207.78L193.43,207.55L197.7,204.97L198.41,204.44L208.37,196.01L209.08,195.24L216.9,185.92L217.61,185.25L226.15,175.25L226.86,174.13L231.12,168.97L231.84,168.03L241.08,158L241.79,157.69L242.5,157.14L243.21,149.05L249.61,140.56L250.33,138.08L251.04,138.08L251.75,137.1L253.88,134.15L254.59,132.67L257.44,128.53L258.15,127.89L268.82,114.47L269.53,114.01L280.9,102.65L281.62,102.35L285.17,99.15L285.88,98.23L290.15,94.6L290.86,93.84L294.42,90.68L295.13,89.77L296.55,88.52" style="vector-effect: non-scaling-stroke; fill: none; stroke: rgb(67, 99, 216); stroke-opacity: 1; stroke-width: 2px; opacity: 1;"/></g><g class="points"/><g class="text"/></g><g class="trace scatter traceec51cd" style="stroke-miterlimit: 2; opacity: 1;"><g class="fills"/><g class="errorbars"/><g class="lines"><path class="js-line" d="M0,256.5L38.4,256.03L39.11,255.68L41.96,253.52L42.67,252.47L48.36,236.41L49.07,235.04L55.47,219.89L56.18,217.58L66.85,197.87L67.56,196.93L73.25,191.69L73.96,191.39L82.49,187.11L83.2,186.9L102.41,182.67L103.12,182.59L174.23,174.89L174.94,174.79L192.72,171.34L193.43,171.2L201.26,168.65L201.97,168.33L206.23,166.16L206.94,165.68L213.35,159.66L214.06,158.88L219.75,152.2L220.46,150.77L226.15,140.35L226.86,138.78L232.55,128.53L233.26,127.33L243.92,108.57L244.64,106.5L247.48,99.83L248.19,98.49L255.3,79.97L256.01,77.93L268.1,51.29L268.82,50.56L270.95,48.79L271.66,45.68L278.77,35.58L279.48,34.68L284.46,27.98L285.17,27.98L286.59,25.06L287.31,24.26L293.71,16.76L294.42,15.96L295.13,15.96L295.84,14.12L296.55,13.5" style="vector-effect: non-scaling-stroke; fill: none; stroke: rgb(245, 130, 49); stroke-opacity: 1; stroke-width: 2px; opacity: 1;"/></g><g class="points"/><g class="text"/></g><g class="trace scatter tracec30579" style="stroke-miterlimit: 2; opacity: 1;"><g class="fills"/><g class="errorbars"/><g class="lines"><path class="js-line" d="M0,256.5L75.38,255.76L76.09,255.73L104.54,254.22L105.25,254.09L130.85,249.28L131.56,249.06L155.03,245.09L155.74,244.8L162.85,242.19L163.56,242.12L188.46,236.79L189.17,236.47L194.14,234.5L194.86,234.16L204.81,228.43L205.52,227.91L213.35,220.1L214.06,220.1L215.48,220.1L216.19,216.54L219.03,212.32L219.75,212.32L220.46,212.32L221.17,208.71L222.59,208.01L223.3,207.16L225.43,204.06L226.15,202.88L228.99,198.52L229.7,197.28L233.26,191.94L233.97,191.59L237.52,187.14L238.24,186.18L245.35,179.81L246.06,178.2L256.73,166.71L257.44,166.34L260.28,164.21L260.99,163.68L269.53,159.32L270.24,159.05L274.5,157.51L275.22,157.24L280.19,156.11L280.9,155.94L296.55,153.55" style="vector-effect: non-scaling-stroke; fill: none; stroke: rgb(145, 30, 180); stroke-opacity: 1; stroke-width: 2px; opacity: 1;"/></g><g class="points"/><g class="text"/></g></g></g><g class="overplot"/><path class="xlines-above crisp" d="M0,0" style="fill: none;"/><path class="ylines-above crisp" d="M0,0" style="fill: none;"/><g class="overlines-above"/><g class="xaxislayer-above"><g class="xtick"><text text-anchor="middle" x="0" y="383" transform="translate(129.78,0)" style="font-family: 'Open Sans', verdana, arial, sans-serif; font-size: 12px; fill: rgb(242, 245, 250); fill-opacity: 1; white-space: pre;">Apr 2020</text></g><g class="xtick"><text text-anchor="middle" x="0" y="383" transform="translate(194.5,0)" style="font-family: 'Open Sans', verdana, arial, sans-serif; font-size: 12px; fill: rgb(242, 245, 250); fill-opacity: 1; white-space: pre;">Jul 2020</text></g><g class="xtick"><text text-anchor="middle" x="0" y="383" transform="translate(259.91999999999996,0)" style="font-family: 'Open Sans', verdana, arial, sans-serif; font-size: 12px; fill: rgb(242, 245, 250); fill-opacity: 1; white-space: pre;">Oct 2020</text></g><g class="xtick"><text text-anchor="middle" x="0" y="383" transform="translate(325.35,0)" style="font-family: 'Open Sans', verdana, arial, sans-serif; font-size: 12px; fill: rgb(242, 245, 250); fill-opacity: 1; white-space: pre;">Jan 2021</text></g></g><g class="yaxislayer-above"><g class="ytick"><text text-anchor="end" x="79" y="4.199999999999999" transform="translate(0,356.5)" style="font-family: 'Open Sans', verdana, arial, sans-serif; font-size: 12px; fill: rgb(242, 245, 250); fill-opacity: 1; white-space: pre;">0</text></g><g class="ytick"><text text-anchor="end" x="79" y="4.199999999999999" transform="translate(0,313.44)" style="font-family: 'Open Sans', verdana, arial, sans-serif; font-size: 12px; fill: rgb(242, 245, 250); fill-opacity: 1; white-space: pre;">20k</text></g><g class="ytick"><text text-anchor="end" x="79" y="4.199999999999999" transform="translate(0,270.37)" style="font-family: 'Open Sans', verdana, arial, sans-serif; font-size: 12px; fill: rgb(242, 245, 250); fill-opacity: 1; white-space: pre;">40k</text></g><g class="ytick"><text text-anchor="end" x="79" y="4.199999999999999" transform="translate(0,227.31)" style="font-family: 'Open Sans', verdana, arial, sans-serif; font-size: 12px; fill: rgb(242, 245, 250); fill-opacity: 1; white-space: pre;">60k</text></g><g class="ytick"><text text-anchor="end" x="79" y="4.199999999999999" transform="translate(0,184.24)" style="font-family: 'Open Sans', verdana, arial, sans-serif; font-size: 12px; fill: rgb(242, 245, 250); fill-opacity: 1; white-space: pre;">80k</text></g><g class="ytick"><text text-anchor="end" x="79" y="4.199999999999999" transform="translate(0,141.18)" style="font-family: 'Open Sans', verdana, arial, sans-serif; font-size: 12px; fill: rgb(242, 245, 250); fill-opacity: 1; white-space: pre;">100k</text></g></g><g class="overaxes-above"/></g><g class="subplot x2y2"><g class="layer-subplot"><g class="shapelayer"/><g class="imagelayer"/></g><g class="gridlayer"><g class="x2"><path class="x2grid crisp" transform="translate(492.23,0)" d="M0,100v270" style="stroke: rgb(40, 52, 66); stroke-opacity: 1; stroke-width: 1px;"/><path class="x2grid crisp" transform="translate(556.95,0)" d="M0,100v270" style="stroke: rgb(40, 52, 66); stroke-opacity: 1; stroke-width: 1px;"/><path class="x2grid crisp" transform="translate(622.37,0)" d="M0,100v270" style="stroke: rgb(40, 52, 66); stroke-opacity: 1; stroke-width: 1px;"/><path class="x2grid crisp" transform="translate(687.8000000000001,0)" d="M0,100v270" style="stroke: rgb(40, 52, 66); stroke-opacity: 1; stroke-width: 1px;"/></g><g class="y2"><path class="y2grid crisp" transform="translate(0,298.52)" d="M442.45000000000005,0h296.54999999999995" style="stroke: rgb(40, 52, 66); stroke-opacity: 1; stroke-width: 1px;"/><path class="y2grid crisp" transform="translate(0,240.54)" d="M442.45000000000005,0h296.54999999999995" style="stroke: rgb(40, 52, 66); stroke-opacity: 1; stroke-width: 1px;"/><path class="y2grid crisp" transform="translate(0,182.56)" d="M442.45000000000005,0h296.54999999999995" style="stroke: rgb(40, 52, 66); stroke-opacity: 1; stroke-width: 1px;"/><path class="y2grid crisp" transform="translate(0,124.57)" d="M442.45000000000005,0h296.54999999999995" style="stroke: rgb(40, 52, 66); stroke-opacity: 1; stroke-width: 1px;"/></g></g><g class="zerolinelayer"><path class="y2zl zl crisp" transform="translate(0,356.5)" d="M442.45000000000005,0h296.54999999999995" style="stroke: rgb(40, 52, 66); stroke-opacity: 1; stroke-width: 2px;"/></g><path class="xlines-below"/><path class="ylines-below"/><g class="overlines-below"/><g class="xaxislayer-below"/><g class="yaxislayer-below"/><g class="overaxes-below"/><g class="plot" transform="translate(442.45000000000005, 100)" clip-path="url('#clip03fc22x2y2plot')"><g class="scatterlayer mlayer"><g class="trace scatter trace18274b" style="stroke-miterlimit: 2; opacity: 1;"><g class="fills"/><g class="errorbars"/><g class="lines"><path class="js-line" d="M0,256.5L53.34,255.75L54.05,255.63L59.74,254.41L60.45,254.24L66.14,253.72L66.85,253.48L73.25,252.85L73.96,252.67L80.36,251.92L81.07,251.75L115.21,248.5L115.92,248.38L123.74,247.69L124.45,247.57L128.72,246.82L129.43,246.59L140.1,245.31L140.81,245.31L143.65,244.61L144.36,244.21L150.05,243.11L150.76,242.93L153.61,242.58L154.32,242.41L158.59,241.6L159.3,240.61L160.72,239.34L161.43,239.16L164.99,238.93L165.7,237.95L167.12,237.25L167.83,237.19L169.25,235.86L169.97,235.34L177.08,232.96L177.79,232.96L183.48,231.74L184.19,230.99L194.14,231.28L194.86,230.06L204.81,229.54L205.52,229.19L214.06,227.86L214.77,227.8L217.61,227.57L218.32,227.57L226.15,226.35L226.86,226.35L229.7,225.6L230.41,225.31L233.97,223.86L234.68,223.22L236.1,222.58L236.81,222.46L238.24,222.41L238.95,221.19L241.79,220.26L242.5,220.26L244.64,220.26L245.35,218.46L248.9,218.46L249.61,216.09L250.33,216.09L251.04,214.23L253.17,213.83L253.88,212.72L259.57,212.09L260.28,207.68L261.7,206.87L262.41,204.66L263.84,203.97L264.55,202.64L265.97,200.9L266.68,200.03L269.53,198.58L270.24,197.3L274.5,194.87L275.22,194.81L277.35,191.56L278.06,191.5L280.19,191.21L280.9,188.6L281.62,188.6L282.33,186.92L283.75,186.92L284.46,185.88L287.31,184.49L288.02,184.49L289.44,184.37L290.15,182.23L296.55,180.49" style="vector-effect: non-scaling-stroke; fill: none; stroke: rgb(230, 25, 75); stroke-opacity: 1; stroke-width: 2px; opacity: 1;"/></g><g class="points"/><g class="text"/></g><g class="trace scatter traceb18196" style="stroke-miterlimit: 2; opacity: 1;"><g class="fills"/><g class="errorbars"/><g class="lines"><path class="js-line" d="M0,256.5L44.09,255.75L44.8,255.28L46.94,253.83L47.65,253.25L50.49,245.25L51.2,243.57L52.63,239.51L53.34,236.44L57.6,215.68L58.31,215.68L61.16,195.97L61.87,194.46L63.29,189.94L64,182.4L66.14,172.83L66.85,166.05L68.27,162.45L68.98,158.98L72.54,146.74L73.25,144.94L76.09,138.91L76.8,135.78L78.94,132.42L79.65,131.49L81.78,128.25L82.49,128.19L83.2,127.43L83.92,124.59L84.63,124.07L85.34,122.39L86.05,121.81L86.76,119.72L88.89,119.2L89.61,117L91.03,115.9L91.74,114.33L95.29,112.01L96.01,104.99L97.43,104.12L98.14,103.84L99.56,102.68L100.27,102.04L104.54,101.34L105.25,101.11L109.52,100.36L110.23,99.89L113.07,99.31L113.78,98.79L120.9,97.17L121.61,96.59L125.87,95.66L126.58,95.31L135.12,94.27L135.83,94.04L139.39,93.63L140.1,92.93L141.52,92.64L142.23,92.76L156.45,89.86L157.16,89.46L163.56,88.53L164.28,86.67L165.7,86.03L166.41,85.98L170.68,85.4L171.39,85.16L174.23,84.41L174.94,84.3L185.61,82.32L186.32,82.21L190.59,81.57L191.3,81.28L194.14,80.76L194.86,80.24L199.12,79.54L199.83,79.42L204.1,78.56L204.81,78.27L207.66,77.28L208.37,76.58L211.92,75.66L212.63,75.37L216.19,73.63L216.9,73.63L217.61,73.34L218.32,71.71L219.75,71.6L220.46,70.61L224.01,68.52L224.72,67.02L225.43,66.32L226.15,64.52L227.57,63.94L228.28,62.03L230.41,60.29L231.12,58.67L231.84,58.67L232.55,57.86L234.68,53.86L235.39,53.8L236.81,52.7L237.52,52.41L238.95,51.13L239.66,51.13L240.37,51.13L241.08,49.04L242.5,48.75L243.21,46.84L244.64,46.38L245.35,46.38L246.77,43.88L247.48,43.01L251.75,36.92L252.46,36.63L256.73,33.04L257.44,32.87L258.15,32.87L258.86,31.76L260.99,28.75L261.7,28.75L265.26,26.72L265.97,25.62L267.39,25.79L268.1,24.86L270.24,23.47L270.95,22.2L273.79,21.56L274.5,21.04L275.22,20.92L275.93,19.76L278.77,19.59L279.48,18.49L284.46,16.92L285.17,16.92L286.59,16.34L287.31,16.28L296.55,13.5" style="vector-effect: non-scaling-stroke; fill: none; stroke: rgb(60, 180, 75); stroke-opacity: 1; stroke-width: 2px; opacity: 1;"/></g><g class="points"/><g class="text"/></g><g class="trace scatter trace9be309" style="stroke-miterlimit: 2; opacity: 1;"><g class="fills"/><g class="errorbars"/><g class="lines"><path class="js-line" d="M0,256.5L78.23,255.75L78.94,255.69L100.27,254.59L100.98,254.59L118.05,253.95L118.76,253.77L138.67,253.02L139.39,252.96L173.52,250.59L174.23,250.35L177.08,250.06L177.79,250.06L206.94,248.73L207.66,248.73L233.97,246.3L234.68,246.12L247.48,245.48L248.19,245.08L249.61,244.27L250.33,244.27L253.17,243.98L253.88,243.51L267.39,242.41L268.1,241.77L272.37,240.85L273.08,240.73L273.79,240.73L274.5,238.87L275.93,230.87L276.64,230.81L280.9,230.18L281.62,229.94L287.31,229.07L288.02,228.67L294.42,225.48L295.13,225.19L296.55,225.19" style="vector-effect: non-scaling-stroke; fill: none; stroke: rgb(255, 225, 25); stroke-opacity: 1; stroke-width: 2px; opacity: 1;"/></g><g class="points"/><g class="text"/></g><g class="trace scatter trace58337a" style="stroke-miterlimit: 2; opacity: 1;"><g class="fills"/><g class="errorbars"/><g class="lines"><path class="js-line" d="M0,256.5L45.51,255.86L46.22,255.69L49.07,254.7L49.78,252.5L54.76,240.5L55.47,238.41L57.6,231.68L58.31,231.68L60.45,219.28L61.16,216.84L62.58,213.59L63.29,212.96L64.71,207.27L65.43,207.27L66.85,197.42L67.56,197.19L68.27,196.9L68.98,193.3L71.83,183.15L72.54,182.17L73.25,181.59L73.96,180.02L76.8,174.51L77.52,173.99L78.23,173.82L78.94,172.77L81.78,168.25L82.49,167.9L84.63,165.53L85.34,165.12L87.47,164.02L88.18,164.02L96.01,157.87L96.72,157.87L104.54,154.74L105.25,154.57L109.52,154.22L110.23,153.64L110.94,153.41L111.65,139.49L120.9,137L121.61,136.48L123.74,136.01L124.45,135.61L128.01,135.14L128.72,135.03L130.14,135.09L130.85,134.86L133.7,134.57L134.41,134.74L151.48,134.04L152.19,133.93L168.54,133.46L169.25,133.35L181.34,133.06L182.05,133.06L196.99,132.42L197.7,132.36L210.5,130.8L211.21,130.56L213.35,129.81L214.06,129.69L228.99,124.36L229.7,123.84L235.39,121.98L236.1,121.35L238.24,120.88L238.95,120.07L241.08,119.43L241.79,119.37L243.21,118.97L243.92,118.21L249.61,116.07L250.33,115.9L252.46,115.66L253.17,114.45L256.01,112.94L256.73,112.82L258.86,112.13L259.57,111.72L265.97,109.34L266.68,109.29L268.82,108.53L269.53,108.01L273.79,106.91L274.5,106.39L276.64,105.57L277.35,105.46L280.19,103.78L280.9,103.49L296.55,98.56" style="vector-effect: non-scaling-stroke; fill: none; stroke: rgb(67, 99, 216); stroke-opacity: 1; stroke-width: 2px; opacity: 1;"/></g><g class="points"/><g class="text"/></g><g class="trace scatter tracec35049" style="stroke-miterlimit: 2; opacity: 1;"><g class="fills"/><g class="errorbars"/><g class="lines"><path class="js-line" d="M0,256.5L47.65,255.92L48.36,255.4L49.07,255.05L49.78,252.79L51.2,252.38L51.91,245.08L53.34,242.99L54.05,240.09L54.76,238.24L55.47,233.95L56.18,233.95L56.89,229.77L60.45,217.77L61.16,217.77L61.87,217.77L62.58,213.42L67.56,201.65L68.27,200.72L68.98,200.66L69.69,198.17L72.54,193.53L73.25,192.66L73.96,191.79L74.67,188.84L77.52,185.88L78.23,185.36L83.92,181.24L84.63,180.83L90.32,177.82L91.03,177.7L92.45,177.7L93.16,176.83L99.56,175.38L100.27,175.33L110.94,174.28L111.65,174.22L142.23,172.6L142.94,172.6L185.61,171.85L186.32,171.79L204.81,171.04L205.52,170.98L219.03,169.18L219.75,168.95L224.01,168.37L224.72,168.08L229.7,166.63L230.41,166.45L238.24,163.38L238.95,163.38L240.37,161.7L241.08,161.7L241.79,161.7L242.5,160.71L248.9,158.11L249.61,157.29L251.04,156.71L251.75,156.19L256.01,153.29L256.73,152.77L268.1,144.77L268.82,144.13L274.5,140.42L275.22,139.96L290.86,133.46L291.57,133.46L295.84,132.07L296.55,132.07" style="vector-effect: non-scaling-stroke; fill: none; stroke: rgb(245, 130, 49); stroke-opacity: 1; stroke-width: 2px; opacity: 1;"/></g><g class="points"/><g class="text"/></g><g class="trace scatter trace858fe5" style="stroke-miterlimit: 2; opacity: 1;"><g class="fills"/><g class="errorbars"/><g class="lines"><path class="js-line" d="M0,256.5L84.63,255.75L85.34,255.69L117.34,254.99L118.05,254.93L121.61,254.47L122.32,254.41L128.72,253.66L129.43,253.6L135.83,252.44L136.54,252.15L160.72,248.79L161.43,248.79L167.83,248.15L168.54,248.03L179.92,246.88L180.63,246.3L182.77,246.01L183.48,246.01L198.41,245.48L199.12,245.48L208.37,245.19L209.08,244.61L216.9,244.15L217.61,243.45L224.72,241.13L225.43,240.56L230.41,239.11L231.12,239.11L233.97,238.76L234.68,238L243.92,236.03L244.64,235.68L248.9,235.34L249.61,234.47L253.17,234.24L253.88,233.54L259.57,233.02L260.28,232.32L268.1,231.1L268.82,230.06L273.08,228.96L273.79,228.9L274.5,225.25L275.22,213.19L276.64,207.74L277.35,207.51L289.44,204.03L290.15,203.74L296.55,201.94" style="vector-effect: non-scaling-stroke; fill: none; stroke: rgb(145, 30, 180); stroke-opacity: 1; stroke-width: 2px; opacity: 1;"/></g><g class="points"/><g class="text"/></g></g></g><g class="overplot"/><path class="xlines-above crisp" d="M0,0" style="fill: none;"/><path class="ylines-above crisp" d="M0,0" style="fill: none;"/><g class="overlines-above"/><g class="xaxislayer-above"><g class="x2tick"><text text-anchor="middle" x="0" y="383" transform="translate(492.23,0)" style="font-family: 'Open Sans', verdana, arial, sans-serif; font-size: 12px; fill: rgb(242, 245, 250); fill-opacity: 1; white-space: pre;">Apr 2020</text></g><g class="x2tick"><text text-anchor="middle" x="0" y="383" transform="translate(556.95,0)" style="font-family: 'Open Sans', verdana, arial, sans-serif; font-size: 12px; fill: rgb(242, 245, 250); fill-opacity: 1; white-space: pre;">Jul 2020</text></g><g class="x2tick"><text text-anchor="middle" x="0" y="383" transform="translate(622.37,0)" style="font-family: 'Open Sans', verdana, arial, sans-serif; font-size: 12px; fill: rgb(242, 245, 250); fill-opacity: 1; white-space: pre;">Oct 2020</text></g><g class="x2tick"><text text-anchor="middle" x="0" y="383" transform="translate(687.8000000000001,0)" style="font-family: 'Open Sans', verdana, arial, sans-serif; font-size: 12px; fill: rgb(242, 245, 250); fill-opacity: 1; white-space: pre;">Jan 2021</text></g></g><g class="yaxislayer-above"><g class="y2tick"><text text-anchor="end" x="441.45000000000005" y="4.199999999999999" transform="translate(0,356.5)" style="font-family: 'Open Sans', verdana, arial, sans-serif; font-size: 12px; fill: rgb(242, 245, 250); fill-opacity: 1; white-space: pre;">0</text></g><g class="y2tick"><text text-anchor="end" x="441.45000000000005" y="4.199999999999999" transform="translate(0,298.52)" style="font-family: 'Open Sans', verdana, arial, sans-serif; font-size: 12px; fill: rgb(242, 245, 250); fill-opacity: 1; white-space: pre;">1000</text></g><g class="y2tick"><text text-anchor="end" x="441.45000000000005" y="4.199999999999999" transform="translate(0,240.54)" style="font-family: 'Open Sans', verdana, arial, sans-serif; font-size: 12px; fill: rgb(242, 245, 250); fill-opacity: 1; white-space: pre;">2000</text></g><g class="y2tick"><text text-anchor="end" x="441.45000000000005" y="4.199999999999999" transform="translate(0,182.56)" style="font-family: 'Open Sans', verdana, arial, sans-serif; font-size: 12px; fill: rgb(242, 245, 250); fill-opacity: 1; white-space: pre;">3000</text></g><g class="y2tick"><text text-anchor="end" x="441.45000000000005" y="4.199999999999999" transform="translate(0,124.57)" style="font-family: 'Open Sans', verdana, arial, sans-serif; font-size: 12px; fill: rgb(242, 245, 250); fill-opacity: 1; white-space: pre;">4000</text></g></g><g class="overaxes-above"/></g></g><g class="polarlayer"/><g class="ternarylayer"/><g class="geolayer"/><g class="funnelarealayer"/><g class="pielayer"/><g class="treemaplayer"/><g class="sunburstlayer"/><g class="glimages"/><defs id="topdefs-03fc22"><g class="clips"/><clipPath id="legend03fc22"><rect width="136" height="124" x="0" y="0"/></clipPath></defs><g class="layer-above"><g class="imagelayer"/><g class="shapelayer"/></g><g class="infolayer"><g class="legend" pointer-events="all" transform="translate(752.1800000000001, 100)"><rect class="bg" shape-rendering="crispEdges" width="136" height="124" x="0" y="0" style="stroke: rgb(68, 68, 68); stroke-opacity: 1; fill: rgb(17, 17, 17); fill-opacity: 1; stroke-width: 0px;"/><g class="scrollbox" transform="translate(0, 0)" clip-path="url('#legend03fc22')"><g class="groups"><g class="traces" transform="translate(0, 14.5)" style="opacity: 1;"><text class="legendtext user-select-none" text-anchor="start" x="40" y="4.680000000000001" style="font-family: 'Open Sans', verdana, arial, sans-serif; font-size: 12px; fill: rgb(242, 245, 250); fill-opacity: 1; white-space: pre;">Alameda, CA</text><g class="layers" style="opacity: 1;"><g class="legendfill"/><g class="legendlines"><path class="js-line" d="M5,0h30" style="fill: none; stroke: rgb(230, 25, 75); stroke-opacity: 1; stroke-width: 2px;"/></g><g class="legendsymbols"><g class="legendpoints"/></g></g><rect class="legendtoggle" pointer-events="all" x="0" y="-9.5" width="130.46875" height="19" style="cursor: pointer; fill: rgb(0, 0, 0); fill-opacity: 0;"/></g><g class="traces" transform="translate(0, 33.5)" style="opacity: 1;"><text class="legendtext user-select-none" text-anchor="start" x="40" y="4.680000000000001" style="font-family: 'Open Sans', verdana, arial, sans-serif; font-size: 12px; fill: rgb(242, 245, 250); fill-opacity: 1; white-space: pre;">Wayne, MI</text><g class="layers" style="opacity: 1;"><g class="legendfill"/><g class="legendlines"><path class="js-line" d="M5,0h30" style="fill: none; stroke: rgb(60, 180, 75); stroke-opacity: 1; stroke-width: 2px;"/></g><g class="legendsymbols"><g class="legendpoints"/></g></g><rect class="legendtoggle" pointer-events="all" x="0" y="-9.5" width="130.46875" height="19" style="cursor: pointer; fill: rgb(0, 0, 0); fill-opacity: 0;"/></g><g class="traces" transform="translate(0, 52.5)" style="opacity: 1;"><text class="legendtext user-select-none" text-anchor="start" x="40" y="4.680000000000001" style="font-family: 'Open Sans', verdana, arial, sans-serif; font-size: 12px; fill: rgb(242, 245, 250); fill-opacity: 1; white-space: pre;">Butler, OH</text><g class="layers" style="opacity: 1;"><g class="legendfill"/><g class="legendlines"><path class="js-line" d="M5,0h30" style="fill: none; stroke: rgb(255, 225, 25); stroke-opacity: 1; stroke-width: 2px;"/></g><g class="legendsymbols"><g class="legendpoints"/></g></g><rect class="legendtoggle" pointer-events="all" x="0" y="-9.5" width="130.46875" height="19" style="cursor: pointer; fill: rgb(0, 0, 0); fill-opacity: 0;"/></g><g class="traces" transform="translate(0, 71.5)" style="opacity: 1;"><text class="legendtext user-select-none" text-anchor="start" x="40" y="4.680000000000001" style="font-family: 'Open Sans', verdana, arial, sans-serif; font-size: 12px; fill: rgb(242, 245, 250); fill-opacity: 1; white-space: pre;">Essex, NJ</text><g class="layers" style="opacity: 1;"><g class="legendfill"/><g class="legendlines"><path class="js-line" d="M5,0h30" style="fill: none; stroke: rgb(67, 99, 216); stroke-opacity: 1; stroke-width: 2px;"/></g><g class="legendsymbols"><g class="legendpoints"/></g></g><rect class="legendtoggle" pointer-events="all" x="0" y="-9.5" width="130.46875" height="19" style="cursor: pointer; fill: rgb(0, 0, 0); fill-opacity: 0;"/></g><g class="traces" transform="translate(0, 90.5)" style="opacity: 1;"><text class="legendtext user-select-none" text-anchor="start" x="40" y="4.680000000000001" style="font-family: 'Open Sans', verdana, arial, sans-serif; font-size: 12px; fill: rgb(242, 245, 250); fill-opacity: 1; white-space: pre;">Westchester, NY</text><g class="layers" style="opacity: 1;"><g class="legendfill"/><g class="legendlines"><path class="js-line" d="M5,0h30" style="fill: none; stroke: rgb(245, 130, 49); stroke-opacity: 1; stroke-width: 2px;"/></g><g class="legendsymbols"><g class="legendpoints"/></g></g><rect class="legendtoggle" pointer-events="all" x="0" y="-9.5" width="130.46875" height="19" style="cursor: pointer; fill: rgb(0, 0, 0); fill-opacity: 0;"/></g><g class="traces" transform="translate(0, 109.5)" style="opacity: 1;"><text class="legendtext user-select-none" text-anchor="start" x="40" y="4.680000000000001" style="font-family: 'Open Sans', verdana, arial, sans-serif; font-size: 12px; fill: rgb(242, 245, 250); fill-opacity: 1; white-space: pre;">Montgomery, OH</text><g class="layers" style="opacity: 1;"><g class="legendfill"/><g class="legendlines"><path class="js-line" d="M5,0h30" style="fill: none; stroke: rgb(145, 30, 180); stroke-opacity: 1; stroke-width: 2px;"/></g><g class="legendsymbols"><g class="legendpoints"/></g></g><rect class="legendtoggle" pointer-events="all" x="0" y="-9.5" width="130.46875" height="19" style="cursor: pointer; fill: rgb(0, 0, 0); fill-opacity: 0;"/></g></g></g><rect class="scrollbar" rx="20" ry="3" width="0" height="0" x="0" y="0" style="fill: rgb(128, 139, 164); fill-opacity: 1;"/></g><g class="g-gtitle"/><g class="g-xtitle"><text class="xtitle" x="228.275" y="410.8" text-anchor="middle" style="font-family: 'Open Sans', verdana, arial, sans-serif; font-size: 14px; fill: rgb(242, 245, 250); opacity: 1; font-weight: normal; white-space: pre;">Date</text></g><g class="g-x2title"><text class="x2title" x="590.725" y="410.8" text-anchor="middle" style="font-family: 'Open Sans', verdana, arial, sans-serif; font-size: 14px; fill: rgb(242, 245, 250); opacity: 1; font-weight: normal; white-space: pre;">Date</text></g><g class="g-ytitle"><text class="ytitle" transform="rotate(-90,28.168750000000003,235)" x="28.168750000000003" y="235" text-anchor="middle" style="font-family: 'Open Sans', verdana, arial, sans-serif; font-size: 14px; fill: rgb(242, 245, 250); opacity: 1; font-weight: normal; white-space: pre;">Cases</text></g><g class="g-y2title"><text class="y2title" transform="rotate(-90,389.95,235)" x="389.95" y="235" text-anchor="middle" style="font-family: 'Open Sans', verdana, arial, sans-serif; font-size: 14px; fill: rgb(242, 245, 250); opacity: 1; font-weight: normal; white-space: pre;">Deaths</text></g><g class="annotation" data-index="0" style="opacity: 1;"><g class="annotation-text-g" transform="rotate(0,228.275,89.5)"><g class="cursor-pointer" transform="translate(204, 79)"><rect class="bg" x="0.5" y="0.5" width="48" height="20" style="stroke-width: 1px; stroke: rgb(0, 0, 0); stroke-opacity: 0; fill: rgb(0, 0, 0); fill-opacity: 0;"/><text class="annotation-text" text-anchor="middle" x="24.6875" y="16" style="font-family: 'Open Sans', verdana, arial, sans-serif; font-size: 16px; fill: rgb(242, 245, 250); fill-opacity: 1; white-space: pre;">Cases</text></g></g></g><g class="annotation" data-index="1" style="opacity: 1;"><g class="annotation-text-g" transform="rotate(0,590.725,89.5)"><g class="cursor-pointer" transform="translate(563, 79)"><rect class="bg" x="0.5" y="0.5" width="54" height="20" style="stroke-width: 1px; stroke: rgb(0, 0, 0); stroke-opacity: 0; fill: rgb(0, 0, 0); fill-opacity: 0;"/><text class="annotation-text" text-anchor="middle" x="27.359375" y="16" style="font-family: 'Open Sans', verdana, arial, sans-serif; font-size: 16px; fill: rgb(242, 245, 250); fill-opacity: 1; white-space: pre;">Deaths</text></g></g></g></g></svg>