<svg class="main-svg" xmlns="http://www.w3.org/2000/svg" xmlns:xlink="http://www.w3.org/1999/xlink" width="900" height="450" style="" viewBox="0 0 900 450"><rect x="0" y="0" width="900" height="450" style="fill: rgb(17, 17, 17); fill-opacity: 1;"/><defs id="defs-74dca6"><g class="clips"><clipPath id="clip74dca6xyplot" class="plotclip"><rect width="282.15000000000003" height="270"/></clipPath><clipPath id="clip74dca6x2y2plot" class="plotclip"><rect width="282.15" height="270"/></clipPath><clipPath class="axesclip" id="clip74dca6x"><rect x="80" y="0" width="282.15000000000003" height="450"/></clipPath><clipPath class="axesclip" id="clip74dca6y"><rect x="0" y="100" width="900" height="270"/></clipPath><clipPath class="axesclip" id="clip74dca6xy"><rect x="80" y="100" width="282.15000000000003" height="270"/></clipPath><clipPath class="axesclip" id="clip74dca6y2"><rect x="0" y="100" width="900" height="270"/></clipPath><clipPath class="axesclip" id="clip74dca6xy2"><rect x="80" y="100" width="282.15000000000003" height="270"/></clipPath><clipPath class="axesclip" id="clip74dca6x2"><rect x="424.85" y="0" width="282.15" height="450"/></clipPath><clipPath class="axesclip" id="clip74dca6x2y"><rect x="424.85" y="100" width="282.15" height="270"/></clipPath><clipPath class="axesclip" id="clip74dca6x2y2"><rect x="424.85" y="100" width="282.15" height="270"/></clipPath></g><g class="gradients"/></defs><g class="bglayer"/><g class="layer-below"><g class="imagelayer"/><g class="shapelayer"/></g><g class="cartesianlayer"><g class="subplot xy"><g class="layer-subplot"><g class="shapelayer"/><g class="imagelayer"/></g><g class="gridlayer"><g class="x"><path class="xgrid crisp" transform="translate(128.89,0)" d="M0,100v270" style="stroke: rgb(40, 52, 66); stroke-opacity: 1; stroke-width: 1px;"/><path class="xgrid crisp" transform="translate(192.44,0)" d="M0,100v270" style="stroke: rgb(40, 52, 66); stroke-opacity: 1; stroke-width: 1px;"/><path class="xgrid crisp" transform="translate(256.69,0)" d="M0,100v270" style="stroke: rgb(40, 52, 66); stroke-opacity: 1; stroke-width: 1px;"/><path class="xgrid crisp" transform="translate(320.94,0)" d="M0,100v270" style="stroke: rgb(40, 52, 66); stroke-opacity: 1; stroke-width: 1px;"/></g><g class="y"><path class="ygrid crisp" transform="translate(0,274.77)" d="M80,0h282.15000000000003" style="stroke: rgb(40, 52, 66); stroke-opacity: 1; stroke-width: 1px;"/><path class="ygrid crisp" transform="translate(0,193.05)" d="M80,0h282.15000000000003" style="stroke: rgb(40, 52, 66); stroke-opacity: 1; stroke-width: 1px;"/><path class="ygrid crisp" transform="translate(0,111.32)" d="M80,0h282.15000000000003" style="stroke: rgb(40, 52, 66); stroke-opacity: 1; stroke-width: 1px;"/></g></g><g class="zerolinelayer"><path class="yzl zl crisp" transform="translate(0,356.5)" d="M80,0h282.15000000000003" style="stroke: rgb(40, 52, 66); stroke-opacity: 1; stroke-width: 2px;"/></g><path class="xlines-below"/><path class="ylines-below"/><g class="overlines-below"/><g class="xaxislayer-below"/><g class="yaxislayer-below"/><g class="overaxes-below"/><g class="plot" transform="translate(80, 100)" clip-path="url('#clip74dca6xyplot')"><g class="scatterlayer mlayer"><g class="trace scatter traceefc1d1" style="stroke-miterlimit: 2; opacity: 1;"><g class="fills"/><g class="errorbars"/><g class="lines"><path class="js-line" d="M0,256.5L50.28,255.78L50.98,255.62L77.52,253.01L78.22,252.94L102.66,249.09L103.36,248.92L111.04,247.08L111.74,246.75L119.42,243.87L120.12,243.87L125.01,241.4L125.71,241.37L132,238.89L132.69,238.31L134.79,237.66L135.49,237.14L138.98,236.66L139.68,234.93L141.08,234.17L141.77,233.46L143.87,232.7L144.57,231.78L145.96,231.27L146.66,230.62L149.46,229.17L150.15,229.15L151.55,228.08L152.25,227.7L157.84,225.48L158.53,225.23L160.63,224.87L161.33,224.47L172.5,222.13L173.2,222.13L177.39,221.35L178.09,221.16L202.53,216.19L203.23,215.88L210.22,212.93L210.91,212.49L213.71,211.35L214.41,210.97L222.09,204.62L222.79,203.31L223.49,203.17L224.18,201.36L227.68,197.36L228.37,194.03L230.47,190.69L231.17,190.66L233.26,184.58L233.96,183.35L238.15,175.16L238.85,174.11L240.94,170.73L241.64,169.02L244.44,164.26L245.14,163.2L251.42,149.58L252.12,147.67L254.91,144.07L255.61,143.21L258.4,140.03L259.1,139.06L266.09,132.74L266.79,132L273.07,127.95L273.77,127.77L282.15,124.55" style="vector-effect: non-scaling-stroke; fill: none; stroke: rgb(230, 25, 75); stroke-opacity: 1; stroke-width: 2px; opacity: 1;"/></g><g class="points"/><g class="text"/></g><g class="trace scatter trace17cbd6" style="stroke-miterlimit: 2; opacity: 1;"><g class="fills"/><g class="errorbars"/><g class="lines"><path class="js-line" d="M0,256.5L39.81,255.89L40.51,255.27L45.4,248.89L46.09,247.45L50.28,236.85L50.98,234.69L53.78,226.18L54.47,223.58L57.27,216.69L57.97,215.23L60.06,209.85L60.76,208.81L63.55,204.92L64.25,203.99L67.74,199.15L68.44,198.47L73.33,195.45L74.03,195.05L80.31,192.7L81.01,192.53L100.57,189.15L101.27,189.09L164.82,181.7L165.52,181.57L182.28,178.48L182.98,178.3L197.64,174.52L198.34,174.29L202.53,172.46L203.23,172.03L206.03,170.04L206.72,169.43L217.9,158.13L218.6,157.28L220.69,153.94L221.39,152.45L229.07,138.62L229.77,137.34L238.15,119.13L238.85,117.53L245.14,96.73L245.83,93.97L250.72,76.73L251.42,74.43L258.4,55.22L259.1,53.63L263.29,43.38L263.99,42.49L266.09,40.25L266.79,37.11L277.96,19.87L278.66,19.02L282.15,13.5" style="vector-effect: non-scaling-stroke; fill: none; stroke: rgb(60, 180, 75); stroke-opacity: 1; stroke-width: 2px; opacity: 1;"/></g><g class="points"/><g class="text"/></g><g class="trace scatter trace6d9025" style="stroke-miterlimit: 2; opacity: 1;"><g class="fills"/><g class="errorbars"/><g class="lines"><path class="js-line" d="M0,256.5L55.17,255.76L55.87,255.73L99.87,253.74L100.57,253.69L107.55,252.74L108.25,252.55L122.92,249.2L123.62,248.97L135.49,245.16L136.19,245.01L164.12,238.5L164.82,238.5L173.2,236.97L173.9,236.91L179.49,236.19L180.18,236.06L191.36,233.77L192.06,233.61L198.34,232.02L199.04,232.02L212.31,226.85L213.01,226.45L214.41,225.91L215.1,225.41L217.2,224.45L217.9,224.21L219.29,223.72L219.99,223.18L225.58,218.12L226.28,217.12L227.68,215.34L228.37,215.34L231.17,212.17L231.87,212.17L232.56,212.17L233.26,200.43L235.36,197.16L236.06,197.16L236.75,197.16L237.45,196.33L238.85,195.6L239.55,194.24L242.34,191.46L243.04,191.46L245.83,188.82L246.53,186.69L250.02,183.26L250.72,182.38L252.82,180.87L253.52,180.87L256.31,175.43L257.01,175.08L257.71,175.08L258.4,174.06L261.9,168.97L262.6,168.97L266.79,163.94L267.48,163.94L271.67,158.16L272.37,158.16L277.26,158.16L277.96,156.54L280.75,152.47L281.45,151.9L282.15,151.9" style="vector-effect: non-scaling-stroke; fill: none; stroke: rgb(255, 225, 25); stroke-opacity: 1; stroke-width: 2px; opacity: 1;"/></g><g class="points"/><g class="text"/></g><g class="trace scatter trace4c0cab" style="stroke-miterlimit: 2; opacity: 1;"><g class="fills"/><g class="errorbars"/><g class="lines"><path class="js-line" d="M0,256.5L51.68,255.78L52.38,255.74L62.86,254.94L63.55,254.91L105.46,253.27L106.16,252.83L115.23,250.68L115.93,249.32L125.01,245.16L125.71,244.53L129.9,241.95L130.6,241.76L132.69,240.7L133.39,240.45L136.19,239.87L136.88,239.76L138.98,238.86L139.68,238.86L141.08,236.44L141.77,236.1L143.17,234.25L143.87,234.25L144.57,234.25L145.27,233.08L148.76,231.58L149.46,231.58L150.85,229.33L151.55,229.14L154.34,228.47L155.04,226.99L158.53,225.75L159.23,225.75L160.63,224.69L161.33,224.59L177.39,219.14L178.09,219.14L179.49,218.51L180.18,218.31L188.57,216.96L189.26,216.32L192.76,215.21L193.45,215.21L195.55,214.2L196.25,213.97L201.14,211.91L201.84,211.5L203.23,211.5L203.93,210.35L206.72,207.73L207.42,207.73L208.12,207.73L208.82,205.83L212.31,202.78L213.01,202.78L215.1,198.08L215.8,198.08L217.2,196.63L217.9,196.63L220.69,190.62L221.39,189.33L222.79,189.33L223.49,185.52L226.28,178.91L226.98,178.91L227.68,178.91L228.37,174.41L231.87,168.23L232.56,168.23L234.66,161.75L235.36,158.98L240.25,149.37L240.94,148.92L245.14,139.52L245.83,138.26L251.42,127.17L252.12,127.17L254.21,123.81L254.91,122.98L259.8,116.87L260.5,116.43L261.9,115.3L262.6,115.02L273.77,107.36L274.47,107.26L282.15,103.73" style="vector-effect: non-scaling-stroke; fill: none; stroke: rgb(67, 99, 216); stroke-opacity: 1; stroke-width: 2px; opacity: 1;"/></g><g class="points"/><g class="text"/></g><g class="trace scatter trace8b4306" style="stroke-miterlimit: 2; opacity: 1;"><g class="fills"/><g class="errorbars"/><g class="lines"><path class="js-line" d="M0,256.5L106.85,255.76L107.55,255.74L121.52,255.03L122.22,254.96L145.96,253.2L146.66,253.18L225.58,249.3L226.28,249.23L251.42,244.09L252.12,243.76L258.4,241.44L259.1,241.13L265.39,239.99L266.09,239.87L273.07,238.8L273.77,238.68L282.15,237.72" style="vector-effect: non-scaling-stroke; fill: none; stroke: rgb(245, 130, 49); stroke-opacity: 1; stroke-width: 2px; opacity: 1;"/></g><g class="points"/><g class="text"/></g><g class="trace scatter tracee4e591" style="stroke-miterlimit: 2; opacity: 1;"><g class="fills"/><g class="errorbars"/><g class="lines"><path class="js-line" d="M0,256.5L53.08,255.75L53.78,255.7L103.36,252.01L104.06,251.87L110.35,250.4L111.04,249.8L118.73,246.23L119.42,245.87L126.41,241.48L127.11,241.14L131.3,238.99L132,238.99L134.79,237.1L135.49,236.76L143.87,233.28L144.57,233.12L150.85,231.75L151.55,231.08L164.12,226.8L164.82,226.67L199.74,216.04L200.44,215.68L206.03,212.67L206.72,211.94L218.6,202.46L219.29,201.7L224.18,195.23L224.88,194.34L226.98,191.87L227.68,191.87L229.07,188.31L229.77,187.05L236.06,176.21L236.75,175.95L238.85,173.65L239.55,172.04L249.33,157.99L250.02,157.05L256.31,151.18L257.01,150.78L261.2,148.09L261.9,147.18L263.99,145.94L264.69,145.51L273.07,142.5L273.77,142.4L282.15,140.33" style="vector-effect: non-scaling-stroke; fill: none; stroke: rgb(145, 30, 180); stroke-opacity: 1; stroke-width: 2px; opacity: 1;"/></g><g class="points"/><g class="text"/></g></g></g><g class="overplot"/><path class="xlines-above crisp" d="M0,0" style="fill: none;"/><path class="ylines-above crisp" d="M0,0" style="fill: none;"/><g class="overlines-above"/><g class="xaxislayer-above"><g class="xtick"><text text-anchor="middle" x="0" y="383" transform="translate(128.89,0)" style="font-family: 'Open Sans', verdana, arial, sans-serif; font-size: 12px; fill: rgb(242, 245, 250); fill-opacity: 1; white-space: pre;">Apr 2020</text></g><g class="xtick"><text text-anchor="middle" x="0" y="383" transform="translate(192.44,0)" style="font-family: 'Open Sans', verdana, arial, sans-serif; font-size: 12px; fill: rgb(242, 245, 250); fill-opacity: 1; white-space: pre;">Jul 2020</text></g><g class="xtick"><text text-anchor="middle" x="0" y="383" transform="translate(256.69,0)" style="font-family: 'Open Sans', verdana, arial, sans-serif; font-size: 12px; fill: rgb(242, 245, 250); fill-opacity: 1; white-space: pre;">Oct 2020</text></g><g class="xtick"><text text-anchor="middle" x="0" y="383" transform="translate(320.94,0)" style="font-family: 'Open Sans', verdana, arial, sans-serif; font-size: 12px; fill: rgb(242, 245, 250); fill-opacity: 1; white-space: pre;">Jan 2021</text></g></g><g class="yaxislayer-above"><g class="ytick"><text text-anchor="end" x="79" y="4.199999999999999" transform="translate(0,356.5)" style="font-family: 'Open Sans', verdana, arial, sans-serif; font-size: 12px; fill: rgb(242, 245, 250); fill-opacity: 1; white-space: pre;">0</text></g><g class="ytick"><text text-anchor="end" x="79" y="4.199999999999999" transform="translate(0,274.77)" style="font-family: 'Open Sans', verdana, arial, sans-serif; font-size: 12px; fill: rgb(242, 245, 250); fill-opacity: 1; white-space: pre;">50k</text></g><g class="ytick"><text text-anchor="end" x="79" y="4.199999999999999" transform="translate(0,193.05)" style="font-family: 'Open Sans', verdana, arial, sans-serif; font-size: 12px; fill: rgb(242, 245, 250); fill-opacity: 1; white-space: pre;">100k</text></g><g class="ytick"><text text-anchor="end" x="79" y="4.199999999999999" transform="translate(0,111.32)" style="font-family: 'Open Sans', verdana, arial, sans-serif; font-size: 12px; fill: rgb(242, 245, 250); fill-opacity: 1; white-space: pre;">150k</text></g></g><g class="overaxes-above"/></g><g class="subplot x2y2"><g class="layer-subplot"><g class="shapelayer"/><g class="imagelayer"/></g><g class="gridlayer"><g class="x2"><path class="x2grid crisp" transform="translate(473.74,0)" d="M0,100v270" style="stroke: rgb(40, 52, 66); stroke-opacity: 1; stroke-width: 1px;"/><path class="x2grid crisp" transform="translate(537.29,0)" d="M0,100v270" style="stroke: rgb(40, 52, 66); stroke-opacity: 1; stroke-width: 1px;"/><path class="x2grid crisp" transform="translate(601.54,0)" d="M0,100v270" style="stroke: rgb(40, 52, 66); stroke-opacity: 1; stroke-width: 1px;"/><path class="x2grid crisp" transform="translate(665.79,0)" d="M0,100v270" style="stroke: rgb(40, 52, 66); stroke-opacity: 1; stroke-width: 1px;"/></g><g class="y2"><path class="y2grid crisp" transform="translate(0,314.86)" d="M424.85,0h282.15" style="stroke: rgb(40, 52, 66); stroke-opacity: 1; stroke-width: 1px;"/><path class="y2grid crisp" transform="translate(0,273.22)" d="M424.85,0h282.15" style="stroke: rgb(40, 52, 66); stroke-opacity: 1; stroke-width: 1px;"/><path class="y2grid crisp" transform="translate(0,231.59)" d="M424.85,0h282.15" style="stroke: rgb(40, 52, 66); stroke-opacity: 1; stroke-width: 1px;"/><path class="y2grid crisp" transform="translate(0,189.95)" d="M424.85,0h282.15" style="stroke: rgb(40, 52, 66); stroke-opacity: 1; stroke-width: 1px;"/><path class="y2grid crisp" transform="translate(0,148.31)" d="M424.85,0h282.15" style="stroke: rgb(40, 52, 66); stroke-opacity: 1; stroke-width: 1px;"/><path class="y2grid crisp" transform="translate(0,106.67)" d="M424.85,0h282.15" style="stroke: rgb(40, 52, 66); stroke-opacity: 1; stroke-width: 1px;"/></g></g><g class="zerolinelayer"><path class="y2zl zl crisp" transform="translate(0,356.5)" d="M424.85,0h282.15" style="stroke: rgb(40, 52, 66); stroke-opacity: 1; stroke-width: 2px;"/></g><path class="xlines-below"/><path class="ylines-below"/><g class="overlines-below"/><g class="xaxislayer-below"/><g class="yaxislayer-below"/><g class="overaxes-below"/><g class="plot" transform="translate(424.85, 100)" clip-path="url('#clip74dca6x2y2plot')"><g class="scatterlayer mlayer"><g class="trace scatter tracebcde91" style="stroke-miterlimit: 2; opacity: 1;"><g class="fills"/><g class="errorbars"/><g class="lines"><path class="js-line" d="M0,256.5L49.59,255.75L50.28,255.5L55.87,254.75L56.57,254.58L57.97,254.58L58.66,253.5L62.16,253L62.86,252.92L73.33,251L74.03,250.92L79.62,249.67L80.31,249.59L85.2,248.84L85.9,248.76L97.08,248.01L97.77,247.76L101.27,247.17L101.97,247.17L104.06,246.67L104.76,246.67L107.55,246.34L108.25,245.84L115.23,244.84L115.93,244.84L120.82,244.18L121.52,243.84L132.69,241.34L133.39,241.34L134.79,240.76L135.49,240.76L138.28,240.43L138.98,240.43L140.38,239.43L141.08,239.43L143.17,238.26L143.87,238.26L153.65,235.93L154.34,235.01L155.74,235.1L156.44,233.68L157.84,231.85L158.53,231.6L162.03,231.27L162.73,229.85L163.42,229.85L164.12,228.85L164.82,228.77L165.52,226.85L166.92,226.1L167.61,225.69L169.71,225.35L170.41,224.02L173.9,222.69L174.6,222.69L177.39,221.52L178.09,221.02L180.18,220.94L180.88,219.86L184.38,220.19L185.07,220.61L185.77,219.69L186.47,220.44L187.87,219.69L188.57,220.44L190.66,220.27L191.36,218.53L201.14,217.78L201.84,217.28L208.12,215.69L208.82,215.69L213.01,214.95L213.71,214.95L216.5,214.45L217.2,213.95L224.88,212.7L225.58,212.11L229.77,209.62L230.47,208.7L231.17,208.7L231.87,207.78L233.96,207.53L234.66,205.78L236.75,204.95L237.45,204.45L240.25,204.45L240.94,201.87L244.44,201.87L245.14,198.46L245.83,198.46L246.53,195.79L248.63,195.21L249.33,193.63L253.52,192.88L254.21,192.79L254.91,192.71L255.61,186.38L257.01,185.22L257.71,182.05L259.1,181.05L259.8,179.14L260.5,178.47L261.2,176.64L262.6,174.89L263.29,174.72L267.48,169.81L268.18,169.81L270.98,165.9L271.67,163.23L275.17,162.73L275.86,158.98L276.56,158.98L277.26,156.57L278.66,156.57L279.36,155.07L281.45,153.15L282.15,153.07" style="vector-effect: non-scaling-stroke; fill: none; stroke: rgb(230, 25, 75); stroke-opacity: 1; stroke-width: 2px; opacity: 1;"/></g><g class="points"/><g class="text"/></g><g class="trace scatter tracedc606f" style="stroke-miterlimit: 2; opacity: 1;"><g class="fills"/><g class="errorbars"/><g class="lines"><path class="js-line" d="M0,256.5L43.3,255.92L44,255.08L45.4,254.25L46.09,253.59L46.79,253.59L47.49,252.5L49.59,248.59L50.28,244.59L50.98,244.09L51.68,224.77L53.78,209.37L54.47,190.88L56.57,170.73L57.27,168.48L58.66,168.48L59.36,164.15L60.76,164.15L61.46,149.82L66.35,124.34L67.05,121.59L72.63,105.1L73.33,99.02L75.43,94.94L76.12,93.03L78.92,88.62L79.62,87.7L88.7,80.45L89.39,80.12L92.19,79.37L92.89,79.12L96.38,77.87L97.08,77.46L98.47,77.37L99.17,76.37L103.36,75.71L104.06,75.37L113.14,74.62L113.84,74.54L138.98,73.79L139.68,73.71L184.38,72.96L185.07,72.88L195.55,72.13L196.25,72.04L204.63,71.29L205.33,71.13L209.52,70.46L210.22,70.29L224.18,66.8L224.88,66.21L226.28,65.55L226.98,65.46L234.66,62.88L235.36,60.3L237.45,60.3L238.15,59.47L241.64,55.89L242.34,54.97L251.42,45.89L252.12,44.98L259.8,35.4L260.5,34.74L261.9,33.57L262.6,32.74L264.69,30.74L265.39,29.57L268.88,24.91L269.58,24.16L277.26,17.08L277.96,17.08L280.05,14.75L280.75,13.83L282.15,13.5" style="vector-effect: non-scaling-stroke; fill: none; stroke: rgb(60, 180, 75); stroke-opacity: 1; stroke-width: 2px; opacity: 1;"/></g><g class="points"/><g class="text"/></g><g class="trace scatter trace5a604d" style="stroke-miterlimit: 2; opacity: 1;"><g class="fills"/><g class="errorbars"/><g class="lines"><path class="js-line" d="M0,256.5L55.17,255.75L55.87,255.67L58.66,255.33L59.36,255.33L71.24,254.67L71.93,254.67L91.49,253.92L92.19,253.84L123.62,253.09L124.31,253L129.9,252.42L130.6,250.92L132,250.42L132.69,250.84L138.98,249.25L139.68,249.25L143.17,248.17L143.87,247.92L151.55,246.34L152.25,246.09L156.44,245.34L157.14,245.26L165.52,244.59L166.22,244.26L178.09,243.51L178.79,243.43L191.36,242.68L192.06,242.59L199.04,241.76L199.74,241.68L204.63,240.93L205.33,240.68L207.42,240.26L208.12,240.26L213.71,239.68L214.41,239.43L221.39,236.85L222.09,236.35L225.58,235.68L226.28,235.18L229.07,234.02L229.77,233.68L231.17,233.02L231.87,233.02L233.96,232.93L234.66,230.52L238.15,229.77L238.85,228.69L240.94,227.19L241.64,227.1L243.74,226.69L244.44,226.02L256.31,217.69L257.01,217.69L258.4,216.86L259.1,215.36L263.99,212.28L264.69,211.61L268.88,209.28L269.58,208.2L270.98,207.37L271.67,207.2L277.26,206.12L277.96,205.29L281.45,202.54L282.15,202.54" style="vector-effect: non-scaling-stroke; fill: none; stroke: rgb(255, 225, 25); stroke-opacity: 1; stroke-width: 2px; opacity: 1;"/></g><g class="points"/><g class="text"/></g><g class="trace scatter tracee6a09d" style="stroke-miterlimit: 2; opacity: 1;"><g class="fills"/><g class="errorbars"/><g class="lines"><path class="js-line" d="M0,256.5L49.59,255.75L50.28,255.67L52.38,255L53.08,254.75L76.82,252.34L77.52,252.34L85.9,251.84L86.6,251.84L101.97,251.25L102.66,251L115.93,250.34L116.63,250.17L125.71,248.51L126.41,248.51L128.5,247.92L129.2,247.51L130.6,247.01L131.3,246.42L136.88,243.76L137.58,243.59L138.98,243.09L139.68,243.09L141.08,241.59L141.77,241.01L143.87,239.93L144.57,239.93L145.96,238.26L146.66,237.35L149.46,237.01L150.15,236.01L153.65,233.68L154.34,233.68L155.74,231.85L156.44,231.18L158.53,229.27L159.23,229.27L163.42,227.35L164.12,227.35L168.31,225.27L169.01,225.27L172.5,222.69L173.2,222.69L174.6,222.19L175.3,221.86L178.79,220.69L179.49,220.52L182.98,219.03L183.68,219.03L185.77,218.03L186.47,217.86L191.36,216.36L192.06,216.19L194.15,215.61L194.85,215.19L197.64,214.86L198.34,214.86L208.82,212.61L209.52,212.11L214.41,210.12L215.1,209.37L215.8,209.37L216.5,208.53L218.6,208.12L219.29,207.7L220.69,206.28L221.39,205.37L223.49,204.87L224.18,203.62L226.98,200.7L227.68,200.7L230.47,195.96L231.17,194.79L233.26,194.79L233.96,192.04L236.75,189.13L237.45,189.13L238.15,189.13L238.85,187.63L240.25,187.13L240.94,185.13L243.04,185.13L243.74,181.72L247.23,175.14L247.93,175.14L249.33,170.64L250.02,169.56L252.12,166.56L252.82,166.56L253.52,166.56L254.21,163.98L256.31,160.15L257.01,160.15L257.71,160.15L258.4,157.82L260.5,155.24L261.2,153.32L262.6,153.32L263.29,151.41L263.99,151.41L264.69,149.82L266.79,148.07L267.48,148.07L270.28,143.24L270.98,143.24L273.07,143.24L273.77,141.41L275.86,137.33L276.56,137.33L277.96,136.75L278.66,136.08L281.45,133.92L282.15,133.92" style="vector-effect: non-scaling-stroke; fill: none; stroke: rgb(67, 99, 216); stroke-opacity: 1; stroke-width: 2px; opacity: 1;"/></g><g class="points"/><g class="text"/></g><g class="trace scatter tracef17688" style="stroke-miterlimit: 2; opacity: 1;"><g class="fills"/><g class="errorbars"/><g class="lines"><path class="js-line" d="M0,256.5L73.33,255.75L74.03,255.67L141.77,254.92L142.47,254.83L164.82,254.17L165.52,253.84L175.99,253.09L176.69,252.92L180.18,252.42L180.88,252.42L228.37,251.67L229.07,251.25L245.14,250.5L245.83,250.42L255.61,249.92L256.31,249.59L260.5,249.09L261.2,248.76L263.99,248.17L264.69,248.09L272.37,246.76L273.07,246.76L275.86,246.67L276.56,245.51L280.05,244.18L280.75,243.34L281.45,243.09L282.15,241.84" style="vector-effect: non-scaling-stroke; fill: none; stroke: rgb(245, 130, 49); stroke-opacity: 1; stroke-width: 2px; opacity: 1;"/></g><g class="points"/><g class="text"/></g><g class="trace scatter tracefa40df" style="stroke-miterlimit: 2; opacity: 1;"><g class="fills"/><g class="errorbars"/><g class="lines"><path class="js-line" d="M0,256.5L57.27,255.83L57.97,255.67L62.86,255.17L63.55,254L68.44,252.84L69.14,252.67L91.49,247.92L92.19,247.92L97.77,247.17L98.47,246.84L111.04,245.17L111.74,244.67L118.73,242.43L119.42,242.18L122.22,241.68L122.92,241.26L127.11,240.51L127.81,239.93L131.3,239.43L132,239.01L133.39,237.76L134.09,237.6L137.58,237.01L138.28,236.18L141.08,235.85L141.77,234.6L146.66,233.68L147.36,233.35L150.85,232.52L151.55,232.52L152.95,232.43L153.65,231.27L162.03,230.52L162.73,230.02L164.82,230.02L165.52,229.19L168.31,228.44L169.01,228.44L170.41,228.02L171.11,227.44L175.3,227.27L175.99,227.19L179.49,227.02L180.18,227.1L185.77,226.35L186.47,226.19L187.87,225.52L188.57,225.52L194.85,225.1L195.55,224.61L201.84,223.94L202.53,222.94L204.63,222.44L205.33,219.69L206.72,218.69L207.42,218.11L208.82,218.11L209.52,216.86L212.31,215.61L213.01,215.61L218.6,214.86L219.29,214.78L220.69,213.78L221.39,213.61L224.88,212.11L225.58,210.86L226.98,210.03L227.68,210.03L229.07,209.45L229.77,209.03L230.47,208.95L231.17,207.7L232.56,205.95L233.26,205.95L234.66,204.04L235.36,201.7L237.45,201.7L238.15,200.29L239.55,198.71L240.25,198.46L241.64,196.62L242.34,196.62L243.74,196.12L244.44,195.04L245.14,194.21L245.83,191.88L247.23,191.21L247.93,191.21L249.33,183.88L250.02,182.63L250.72,182.55L251.42,179.89L253.52,179.89L254.21,176.89L254.91,176.8L255.61,173.72L257.01,172.64L257.71,172.64L259.8,164.81L260.5,163.9L261.2,163.9L261.9,162.56L262.6,162.56L263.29,159.57L265.39,154.49L266.09,153.57L268.88,152.82L269.58,151.16L271.67,148.41L272.37,148.41L275.17,145.49L275.86,145.41L278.66,144.74L279.36,143.58L281.45,142.08L282.15,142.08" style="vector-effect: non-scaling-stroke; fill: none; stroke: rgb(145, 30, 180); stroke-opacity: 1; stroke-width: 2px; opacity: 1;"/></g><g class="points"/><g class="text"/></g></g></g><g class="overplot"/><path class="xlines-above crisp" d="M0,0" style="fill: none;"/><path class="ylines-above crisp" d="M0,0" style="fill: none;"/><g class="overlines-above"/><g class="xaxislayer-above"><g class="x2tick"><text text-anchor="middle" x="0" y="383" transform="translate(473.74,0)" style="font-family: 'Open Sans', verdana, arial, sans-serif; font-size: 12px; fill: rgb(242, 245, 250); fill-opacity: 1; white-space: pre;">Apr 2020</text></g><g class="x2tick"><text text-anchor="middle" x="0" y="383" transform="translate(537.29,0)" style="font-family: 'Open Sans', verdana, arial, sans-serif; font-size: 12px; fill: rgb(242, 245, 250); fill-opacity: 1; white-space: pre;">Jul 2020</text></g><g class="x2tick"><text text-anchor="middle" x="0" y="383" transform="translate(601.54,0)" style="font-family: 'Open Sans', verdana, arial, sans-serif; font-size: 12px; fill: rgb(242, 245, 250); fill-opacity: 1; white-space: pre;">Oct 2020</text></g><g class="x2tick"><text text-anchor="middle" x="0" y="383" transform="translate(665.79,0)" style="font-family: 'Open Sans', verdana, arial, sans-serif; font-size: 12px; fill: rgb(242, 245, 250); fill-opacity: 1; white-space: pre;">Jan 2021</text></g></g><g class="yaxislayer-above"><g class="y2tick"><text text-anchor="end" x="423.85" y="4.199999999999999" transform="translate(0,356.5)" style="font-family: 'Open Sans', verdana, arial, sans-serif; font-size: 12px; fill: rgb(242, 245, 250); fill-opacity: 1; white-space: pre;">0</text></g><g class="y2tick"><text text-anchor="end" x="423.85" y="4.199999999999999" transform="translate(0,314.86)" style="font-family: 'Open Sans', verdana, arial, sans-serif; font-size: 12px; fill: rgb(242, 245, 250); fill-opacity: 1; white-space: pre;">500</text></g><g class="y2tick"><text text-anchor="end" x="423.85" y="4.199999999999999" transform="translate(0,273.22)" style="font-family: 'Open Sans', verdana, arial, sans-serif; font-size: 12px; fill: rgb(242, 245, 250); fill-opacity: 1; white-space: pre;">1000</text></g><g class="y2tick"><text text-anchor="end" x="423.85" y="4.199999999999999" transform="translate(0,231.59)" style="font-family: 'Open Sans', verdana, arial, sans-serif; font-size: 12px; fill: rgb(242, 245, 250); fill-opacity: 1; white-space: pre;">1500</text></g><g class="y2tick"><text text-anchor="end" x="423.85" y="4.199999999999999" transform="translate(0,189.95)" style="font-family: 'Open Sans', verdana, arial, sans-serif; font-size: 12px; fill: rgb(242, 245, 250); fill-opacity: 1; white-space: pre;">2000</text></g><g class="y2tick"><text text-anchor="end" x="423.85" y="4.199999999999999" transform="translate(0,148.31)" style="font-family: 'Open Sans', verdana, arial, sans-serif; font-size: 12px; fill: rgb(242, 245, 250); fill-opacity: 1; white-space: pre;">2500</text></g><g class="y2tick"><text text-anchor="end" x="423.85" y="4.199999999999999" transform="translate(0,106.67)" style="font-family: 'Open Sans', verdana, arial, sans-serif; font-size: 12px; fill: rgb(242, 245, 250); fill-opacity: 1; white-space: pre;">3000</text></g></g><g class="overaxes-above"/></g></g><g class="polarlayer"/><g class="ternarylayer"/><g class="geolayer"/><g class="funnelarealayer"/><g class="pielayer"/><g class="treemaplayer"/><g class="sunburstlayer"/><g class="glimages"/><defs id="topdefs-74dca6"><g class="clips"/><clipPath id="legend74dca6"><rect width="168" height="124" x="0" y="0"/></clipPath></defs><g class="layer-above"><g class="imagelayer"/><g class="shapelayer"/></g><g class="infolayer"><g class="legend" pointer-events="all" transform="translate(719.54, 100)"><rect class="bg" shape-rendering="crispEdges" width="168" height="124" x="0" y="0" style="stroke: rgb(68, 68, 68); stroke-opacity: 1; fill: rgb(17, 17, 17); fill-opacity: 1; stroke-width: 0px;"/><g class="scrollbox" transform="translate(0, 0)" clip-path="url('#legend74dca6')"><g class="groups"><g class="traces" transform="translate(0, 14.5)" style="opacity: 1;"><text class="legendtext user-select-none" text-anchor="start" x="40" y="4.680000000000001" style="font-family: 'Open Sans', verdana, arial, sans-serif; font-size: 12px; fill: rgb(242, 245, 250); fill-opacity: 1; white-space: pre;">Alameda, CA</text><g class="layers" style="opacity: 1;"><g class="legendfill"/><g class="legendlines"><path class="js-line" d="M5,0h30" style="fill: none; stroke: rgb(230, 25, 75); stroke-opacity: 1; stroke-width: 2px;"/></g><g class="legendsymbols"><g class="legendpoints"/></g></g><rect class="legendtoggle" pointer-events="all" x="0" y="-9.5" width="162.921875" height="19" style="cursor: pointer; fill: rgb(0, 0, 0); fill-opacity: 0;"/></g><g class="traces" transform="translate(0, 33.5)" style="opacity: 1;"><text class="legendtext user-select-none" text-anchor="start" x="40" y="4.680000000000001" style="font-family: 'Open Sans', verdana, arial, sans-serif; font-size: 12px; fill: rgb(242, 245, 250); fill-opacity: 1; white-space: pre;">Nassau, NY</text><g class="layers" style="opacity: 1;"><g class="legendfill"/><g class="legendlines"><path class="js-line" d="M5,0h30" style="fill: none; stroke: rgb(60, 180, 75); stroke-opacity: 1; stroke-width: 2px;"/></g><g class="legendsymbols"><g class="legendpoints"/></g></g><rect class="legendtoggle" pointer-events="all" x="0" y="-9.5" width="162.921875" height="19" style="cursor: pointer; fill: rgb(0, 0, 0); fill-opacity: 0;"/></g><g class="traces" transform="translate(0, 52.5)" style="opacity: 1;"><text class="legendtext user-select-none" text-anchor="start" x="40" y="4.680000000000001" style="font-family: 'Open Sans', verdana, arial, sans-serif; font-size: 12px; fill: rgb(242, 245, 250); fill-opacity: 1; white-space: pre;">Denton, TX</text><g class="layers" style="opacity: 1;"><g class="legendfill"/><g class="legendlines"><path class="js-line" d="M5,0h30" style="fill: none; stroke: rgb(255, 225, 25); stroke-opacity: 1; stroke-width: 2px;"/></g><g class="legendsymbols"><g class="legendpoints"/></g></g><rect class="legendtoggle" pointer-events="all" x="0" y="-9.5" width="162.921875" height="19" style="cursor: pointer; fill: rgb(0, 0, 0); fill-opacity: 0;"/></g><g class="traces" transform="translate(0, 71.5)" style="opacity: 1;"><text class="legendtext user-select-none" text-anchor="start" x="40" y="4.680000000000001" style="font-family: 'Open Sans', verdana, arial, sans-serif; font-size: 12px; fill: rgb(242, 245, 250); fill-opacity: 1; white-space: pre;">Sacramento, CA</text><g class="layers" style="opacity: 1;"><g class="legendfill"/><g class="legendlines"><path class="js-line" d="M5,0h30" style="fill: none; stroke: rgb(67, 99, 216); stroke-opacity: 1; stroke-width: 2px;"/></g><g class="legendsymbols"><g class="legendpoints"/></g></g><rect class="legendtoggle" pointer-events="all" x="0" y="-9.5" width="162.921875" height="19" style="cursor: pointer; fill: rgb(0, 0, 0); fill-opacity: 0;"/></g><g class="traces" transform="translate(0, 90.5)" style="opacity: 1;"><text class="legendtext user-select-none" text-anchor="start" x="40" y="4.680000000000001" style="font-family: 'Open Sans', verdana, arial, sans-serif; font-size: 12px; fill: rgb(242, 245, 250); fill-opacity: 1; white-space: pre;">Newport News City, VA</text><g class="layers" style="opacity: 1;"><g class="legendfill"/><g class="legendlines"><path class="js-line" d="M5,0h30" style="fill: none; stroke: rgb(245, 130, 49); stroke-opacity: 1; stroke-width: 2px;"/></g><g class="legendsymbols"><g class="legendpoints"/></g></g><rect class="legendtoggle" pointer-events="all" x="0" y="-9.5" width="162.921875" height="19" style="cursor: pointer; fill: rgb(0, 0, 0); fill-opacity: 0;"/></g><g class="traces" transform="translate(0, 109.5)" style="opacity: 1;"><text class="legendtext user-select-none" text-anchor="start" x="40" y="4.680000000000001" style="font-family: 'Open Sans', verdana, arial, sans-serif; font-size: 12px; fill: rgb(242, 245, 250); fill-opacity: 1; white-space: pre;">Jefferson, AL</text><g class="layers" style="opacity: 1;"><g class="legendfill"/><g class="legendlines"><path class="js-line" d="M5,0h30" style="fill: none; stroke: rgb(145, 30, 180); stroke-opacity: 1; stroke-width: 2px;"/></g><g class="legendsymbols"><g class="legendpoints"/></g></g><rect class="legendtoggle" pointer-events="all" x="0" y="-9.5" width="162.921875" height="19" style="cursor: pointer; fill: rgb(0, 0, 0); fill-opacity: 0;"/></g></g></g><rect class="scrollbar" rx="20" ry="3" width="0" height="0" x="0" y="0" style="fill: rgb(128, 139, 164); fill-opacity: 1;"/></g><g class="g-gtitle"/><g class="g-xtitle"><text class="xtitle" x="221.07500000000002" y="410.8" text-anchor="middle" style="font-family: 'Open Sans', verdana, arial, sans-serif; font-size: 14px; fill: rgb(242, 245, 250); opacity: 1; font-weight: normal; white-space: pre;">Date</text></g><g class="g-x2title"><text class="x2title" x="565.925" y="410.8" text-anchor="middle" style="font-family: 'Open Sans', verdana, arial, sans-serif; font-size: 14px; fill: rgb(242, 245, 250); opacity: 1; font-weight: normal; white-space: pre;">Date</text></g><g class="g-ytitle"><text class="ytitle" transform="rotate(-90,28.168750000000003,235)" x="28.168750000000003" y="235" text-anchor="middle" style="font-family: 'Open Sans', verdana, arial, sans-serif; font-size: 14px; fill: rgb(242, 245, 250); opacity: 1; font-weight: normal; white-space: pre;">Cases</text></g><g class="g-y2title"><text class="y2title" transform="rotate(-90,372.340625,235)" x="372.340625" y="235" text-anchor="middle" style="font-family: 'Open Sans', verdana, arial, sans-serif; font-size: 14px; fill: rgb(242, 245, 250); opacity: 1; font-weight: normal; white-space: pre;">Deaths</text></g><g class="annotation" data-index="0" style="opacity: 1;"><g class="annotation-text-g" transform="rotate(0,221.07500000000002,89.5)"><g class="cursor-pointer" transform="translate(197, 79)"><rect class="bg" x="0.5" y="0.5" width="48" height="20" style="stroke-width: 1px; stroke: rgb(0, 0, 0); stroke-opacity: 0; fill: rgb(0, 0, 0); fill-opacity: 0;"/><text class="annotation-text" text-anchor="middle" x="24.6875" y="16" style="font-family: 'Open Sans', verdana, arial, sans-serif; font-size: 16px; fill: rgb(242, 245, 250); fill-opacity: 1; white-space: pre;">Cases</text></g></g></g><g class="annotation" data-index="1" style="opacity: 1;"><g class="annotation-text-g" transform="rotate(0,565.925,89.5)"><g class="cursor-pointer" transform="translate(538, 79)"><rect class="bg" x="0.5" y="0.5" width="54" height="20" style="stroke-width: 1px; stroke: rgb(0, 0, 0); stroke-opacity: 0; fill: rgb(0, 0, 0); fill-opacity: 0;"/><text class="annotation-text" text-anchor="middle" x="27.359375" y="16" style="font-family: 'Open Sans', verdana, arial, sans-serif; font-size: 16px; fill: rgb(242, 245, 250); fill-opacity: 1; white-space: pre;">Deaths</text></g></g></g></g></svg>