<svg class="main-svg" xmlns="http://www.w3.org/2000/svg" xmlns:xlink="http://www.w3.org/1999/xlink" width="900" height="450" style="" viewBox="0 0 900 450"><rect x="0" y="0" width="900" height="450" style="fill: rgb(17, 17, 17); fill-opacity: 1;"/><defs id="defs-9d84cf"><g class="clips"><clipPath id="clip9d84cfxyplot" class="plotclip"><rect width="301.5" height="270"/></clipPath><clipPath id="clip9d84cfx2y2plot" class="plotclip"><rect width="301.49999999999994" height="270"/></clipPath><clipPath class="axesclip" id="clip9d84cfx"><rect x="80" y="0" width="301.5" height="450"/></clipPath><clipPath class="axesclip" id="clip9d84cfy"><rect x="0" y="100" width="900" height="270"/></clipPath><clipPath class="axesclip" id="clip9d84cfxy"><rect x="80" y="100" width="301.5" height="270"/></clipPath><clipPath class="axesclip" id="clip9d84cfy2"><rect x="0" y="100" width="900" height="270"/></clipPath><clipPath class="axesclip" id="clip9d84cfxy2"><rect x="80" y="100" width="301.5" height="270"/></clipPath><clipPath class="axesclip" id="clip9d84cfx2"><rect x="448.50000000000006" y="0" width="301.49999999999994" height="450"/></clipPath><clipPath class="axesclip" id="clip9d84cfx2y"><rect x="448.50000000000006" y="100" width="301.49999999999994" height="270"/></clipPath><clipPath class="axesclip" id="clip9d84cfx2y2"><rect x="448.50000000000006" y="100" width="301.49999999999994" height="270"/></clipPath></g><g class="gradients"/></defs><g class="bglayer"/><g class="layer-below"><g class="imagelayer"/><g class="shapelayer"/></g><g class="cartesianlayer"><g class="subplot xy"><g class="layer-subplot"><g class="shapelayer"/><g class="imagelayer"/></g><g class="gridlayer"><g class="x"><path class="xgrid crisp" transform="translate(132.76,0)" d="M0,100v270" style="stroke: rgb(40, 52, 66); stroke-opacity: 1; stroke-width: 1px;"/><path class="xgrid crisp" transform="translate(201.35,0)" d="M0,100v270" style="stroke: rgb(40, 52, 66); stroke-opacity: 1; stroke-width: 1px;"/><path class="xgrid crisp" transform="translate(270.7,0)" d="M0,100v270" style="stroke: rgb(40, 52, 66); stroke-opacity: 1; stroke-width: 1px;"/><path class="xgrid crisp" transform="translate(340.04,0)" d="M0,100v270" style="stroke: rgb(40, 52, 66); stroke-opacity: 1; stroke-width: 1px;"/></g><g class="y"><path class="ygrid crisp" transform="translate(0,309.49)" d="M80,0h301.5" style="stroke: rgb(40, 52, 66); stroke-opacity: 1; stroke-width: 1px;"/><path class="ygrid crisp" transform="translate(0,262.48)" d="M80,0h301.5" style="stroke: rgb(40, 52, 66); stroke-opacity: 1; stroke-width: 1px;"/><path class="ygrid crisp" transform="translate(0,215.47)" d="M80,0h301.5" style="stroke: rgb(40, 52, 66); stroke-opacity: 1; stroke-width: 1px;"/><path class="ygrid crisp" transform="translate(0,168.45999999999998)" d="M80,0h301.5" style="stroke: rgb(40, 52, 66); stroke-opacity: 1; stroke-width: 1px;"/><path class="ygrid crisp" transform="translate(0,121.45)" d="M80,0h301.5" style="stroke: rgb(40, 52, 66); stroke-opacity: 1; stroke-width: 1px;"/></g></g><g class="zerolinelayer"><path class="yzl zl crisp" transform="translate(0,356.5)" d="M80,0h301.5" style="stroke: rgb(40, 52, 66); stroke-opacity: 1; stroke-width: 2px;"/></g><path class="xlines-below"/><path class="ylines-below"/><g class="overlines-below"/><g class="xaxislayer-below"/><g class="yaxislayer-below"/><g class="overaxes-below"/><g class="plot" transform="translate(80, 100)" clip-path="url('#clip9d84cfxyplot')"><g class="scatterlayer mlayer"><g class="trace scatter tracefcd572" style="stroke-miterlimit: 2; opacity: 1;"><g class="fills"/><g class="errorbars"/><g class="lines"><path class="js-line" d="M0,256.5L59.55,255.78L60.3,255.74L94.97,253.63L95.73,253.59L126.63,249.69L127.38,249.54L133.41,248.17L134.17,247.93L143.97,246.03L144.72,245.7L150,245.09L150.75,244.09L152.26,243.65L153.01,243.24L157.53,241.99L158.29,241.61L162.81,240.26L163.56,240.15L172.61,238.31L173.36,238.31L177.89,237.68L178.64,237.61L184.67,236.91L185.42,236.8L219.34,233.14L220.1,232.99L226.88,231.44L227.63,231.18L238.94,227.16L239.69,226.66L244.22,223.06L244.97,222.48L245.72,222.48L246.48,220.57L251,216.4L251.75,215.13L266.07,200.87L266.83,199.97L273.61,192.63L274.37,192.16L278.89,189.51L279.64,188.95L295.47,182.45L296.22,182.32L301.5,181.22" style="vector-effect: non-scaling-stroke; fill: none; stroke: rgb(230, 25, 75); stroke-opacity: 1; stroke-width: 2px; opacity: 1;"/></g><g class="points"/><g class="text"/></g><g class="trace scatter trace99efc0" style="stroke-miterlimit: 2; opacity: 1;"><g class="fills"/><g class="errorbars"/><g class="lines"><path class="js-line" d="M0,256.5L43.72,255.87L44.47,255.49L46.73,254.31L47.49,253.17L53.52,247.72L54.27,246.08L64.82,231.08L65.58,230.16L74.62,221.48L75.38,220.98L78.39,219.39L79.14,219.04L88.19,215.92L88.94,215.82L108.54,212.72L109.29,212.65L169.59,207.83L170.35,207.78L205.02,205.24L205.77,205.14L217.08,203.42L217.83,203.23L225.37,201.12L226.13,200.78L235.17,196.75L235.92,196.33L246.48,189.05L247.23,188.42L258.54,179.52L259.29,178.47L271.35,163.39L272.1,162.37L284.92,145.96L285.67,145.48L287.18,144.78L287.93,142.67L294.72,135.11L295.47,134.57L301.5,128.99" style="vector-effect: non-scaling-stroke; fill: none; stroke: rgb(60, 180, 75); stroke-opacity: 1; stroke-width: 2px; opacity: 1;"/></g><g class="points"/><g class="text"/></g><g class="trace scatter tracef79be7" style="stroke-miterlimit: 2; opacity: 1;"><g class="fills"/><g class="errorbars"/><g class="lines"><path class="js-line" d="M0,256.5L60.3,255.76L61.05,255.74L82.16,253.48L82.91,253.03L100.25,251.21L101,251.08L111.56,249.15L112.31,248.89L118.34,246.43L119.09,246.08L125.88,242.56L126.63,241.85L134.92,236.57L135.68,236.18L138.69,233.97L139.44,233.41L146.23,229.18L146.98,228.9L149.24,227.68L150,227.43L152.26,225.97L153.01,225.79L155.27,224.65L156.03,223.3L159.04,221.69L159.8,221.52L182.41,215.73L183.16,215.42L198.24,209.26L198.99,208.61L202.76,206.55L203.51,206.08L208.03,203.31L208.79,202.69L220.1,194.66L220.85,193.33L226.88,186.74L227.63,184.91L231.4,178.85L232.16,177.65L233.66,176.57L234.42,176.57L235.17,176.57L235.92,175.6L237.43,171.47L238.19,170.02L241.95,163.48L242.71,162.81L248.74,153.76L249.49,153.76L251,153.76L251.75,133.24L254.77,128.83L255.52,128.83L256.28,128.83L257.03,126.75L258.54,119.91L259.29,118.4L263.06,106.14L263.81,104.3L268.34,88.23L269.09,86.52L278.13,61.82L278.89,60.64L283.41,50.79L284.16,49.02L290.19,39.34L290.95,38.1L293.96,34.65L294.72,34.65L296.22,34.18L296.98,33.76L298.49,32.66L299.24,32.36L301.5,31.18" style="vector-effect: non-scaling-stroke; fill: none; stroke: rgb(255, 225, 25); stroke-opacity: 1; stroke-width: 2px; opacity: 1;"/></g><g class="points"/><g class="text"/></g><g class="trace scatter trace42780d" style="stroke-miterlimit: 2; opacity: 1;"><g class="fills"/><g class="errorbars"/><g class="lines"><path class="js-line" d="M0,256.5L51.26,255.79L52.01,255.68L102.51,249.61L103.26,249.46L110.8,247.74L111.56,247.54L118.34,244.11L119.09,243.42L131.91,232.42L132.66,231.18L137.18,225.42L137.94,224.34L146.23,215.07L146.98,214.19L154.52,208.12L155.27,207.39L161.3,203.41L162.06,203.1L174.12,198.55L174.87,198.33L185.42,195.22L186.18,194.84L193.71,191.49L194.47,191.49L198.24,189.15L198.99,188.76L200.5,188.11L201.25,187.72L217.08,175.98L217.83,175.01L220.1,172.58L220.85,171.77L223.11,168.99L223.86,167.52L226.88,163.49L227.63,161.96L230.65,156.81L231.4,154.72L238.94,140.21L239.69,137.97L246.48,122.11L247.23,120.33L250.25,113.32L251,113.32L253.26,107.25L254.01,105.54L254.77,105.54L255.52,102.79L256.28,102.79L257.03,101.68L258.54,100.16L259.29,96.64L262.31,91.41L263.06,90.34L265.32,81.79L266.07,79.85L267.58,76.77L268.34,76.77L271.35,69.16L272.1,67.9L272.86,67.9L273.61,66.14L274.37,66.14L275.12,64.36L277.38,60.8L278.13,60.8L279.64,58.52L280.4,58.52L281.9,55.88L282.66,55.2L289.44,50.43L290.19,50.03L292.45,47.83L293.21,47.83L295.47,46.92L296.22,46.92L297.73,45.69L298.49,45.46L299.99,45.01L300.75,44.68L301.5,44.19" style="vector-effect: non-scaling-stroke; fill: none; stroke: rgb(67, 99, 216); stroke-opacity: 1; stroke-width: 2px; opacity: 1;"/></g><g class="points"/><g class="text"/></g><g class="trace scatter trace7c31b1" style="stroke-miterlimit: 2; opacity: 1;"><g class="fills"/><g class="errorbars"/><g class="lines"><path class="js-line" d="M0,256.5L52.01,255.81L52.76,255.7L67.84,254.21L68.59,254.16L95.73,249.82L96.48,249.82L101,249.03L101.76,248.81L116.83,245.25L117.59,244.84L131.15,236.86L131.91,236.34L137.94,232.42L138.69,231.96L142.46,229.91L143.21,229.55L156.78,223.63L157.53,223.44L168.84,219.72L169.59,219.41L172.61,218.28L173.36,218.28L176.38,216.62L177.13,216.37L185.42,213.63L186.18,213.25L188.44,212.56L189.19,212.33L195.98,209.99L196.73,209.66L216.33,201.87L217.08,201.37L223.11,197.32L223.86,196.63L227.63,192.44L228.39,192.44L229.89,189.14L230.65,188.04L232.91,184.71L233.66,184.71L235.17,180.27L235.92,179.36L238.94,173.59L239.69,171.44L243.46,162.86L244.22,160.16L248.74,146.64L249.49,143.24L260.04,110.21L260.8,106L263.06,95.7L263.81,93.99L270.6,64.54L271.35,62.01L274.37,52.64L275.12,51.02L275.87,49.91L276.63,47.24L278.89,41.55L279.64,40.2L288.69,24.69L289.44,24.03L299.24,14.85L299.99,14.55L301.5,13.5" style="vector-effect: non-scaling-stroke; fill: none; stroke: rgb(245, 130, 49); stroke-opacity: 1; stroke-width: 2px; opacity: 1;"/></g><g class="points"/><g class="text"/></g><g class="trace scatter trace785ac2" style="stroke-miterlimit: 2; opacity: 1;"><g class="fills"/><g class="errorbars"/><g class="lines"><path class="js-line" d="M0,256.5L57.28,255.83L58.04,255.72L64.07,254.24L64.82,253.96L77.64,249.79L78.39,249.79L82.16,249.79L82.91,248.34L89.7,247.12L90.45,246.95L97.99,246.11L98.74,246.11L103.26,246.11L104.02,245.26L119.09,244.55L119.85,244.34L136.43,243.64L137.18,243.31L146.98,242.82L147.74,242.35L157.53,241.79L158.29,241.32L168.09,240.83L168.84,240.42L178.64,240.05L179.39,239.63L189.19,239.17L189.95,238.71L199.74,238.04L200.5,237.28L205.02,237.28L205.77,236.25L210.3,236.25L211.05,234.57L215.57,234.57L216.33,232.7L220.85,232.7L221.6,230.36L226.13,230.36L226.88,226.87L231.4,226.87L232.16,222.67L236.68,222.67L237.43,218.7L241.95,218.7L242.71,213.05L247.23,213.05L247.98,207.73L252.51,207.73L253.26,203.92L257.78,203.92L258.54,201.08L263.06,201.08L263.81,197.41L268.34,197.41L269.09,193.01L273.61,193.01L274.37,189.59L278.89,189.59L279.64,186.7L284.16,186.7L284.92,184.36L289.44,184.36L290.19,182.54L294.72,182.54L295.47,181.04L299.99,181.04L300.75,179.8L301.5,179.8" style="vector-effect: non-scaling-stroke; fill: none; stroke: rgb(145, 30, 180); stroke-opacity: 1; stroke-width: 2px; opacity: 1;"/></g><g class="points"/><g class="text"/></g></g></g><g class="overplot"/><path class="xlines-above crisp" d="M0,0" style="fill: none;"/><path class="ylines-above crisp" d="M0,0" style="fill: none;"/><g class="overlines-above"/><g class="xaxislayer-above"><g class="xtick"><text text-anchor="middle" x="0" y="383" transform="translate(132.76,0)" style="font-family: 'Open Sans', verdana, arial, sans-serif; font-size: 12px; fill: rgb(242, 245, 250); fill-opacity: 1; white-space: pre;">Apr 2020</text></g><g class="xtick"><text text-anchor="middle" x="0" y="383" transform="translate(201.35,0)" style="font-family: 'Open Sans', verdana, arial, sans-serif; font-size: 12px; fill: rgb(242, 245, 250); fill-opacity: 1; white-space: pre;">Jul 2020</text></g><g class="xtick"><text text-anchor="middle" x="0" y="383" transform="translate(270.7,0)" style="font-family: 'Open Sans', verdana, arial, sans-serif; font-size: 12px; fill: rgb(242, 245, 250); fill-opacity: 1; white-space: pre;">Oct 2020</text></g><g class="xtick"><text text-anchor="middle" x="0" y="383" transform="translate(340.04,0)" style="font-family: 'Open Sans', verdana, arial, sans-serif; font-size: 12px; fill: rgb(242, 245, 250); fill-opacity: 1; white-space: pre;">Jan 2021</text></g></g><g class="yaxislayer-above"><g class="ytick"><text text-anchor="end" x="79" y="4.199999999999999" transform="translate(0,356.5)" style="font-family: 'Open Sans', verdana, arial, sans-serif; font-size: 12px; fill: rgb(242, 245, 250); fill-opacity: 1; white-space: pre;">0</text></g><g class="ytick"><text text-anchor="end" x="79" y="4.199999999999999" transform="translate(0,309.49)" style="font-family: 'Open Sans', verdana, arial, sans-serif; font-size: 12px; fill: rgb(242, 245, 250); fill-opacity: 1; white-space: pre;">50k</text></g><g class="ytick"><text text-anchor="end" x="79" y="4.199999999999999" transform="translate(0,262.48)" style="font-family: 'Open Sans', verdana, arial, sans-serif; font-size: 12px; fill: rgb(242, 245, 250); fill-opacity: 1; white-space: pre;">100k</text></g><g class="ytick"><text text-anchor="end" x="79" y="4.199999999999999" transform="translate(0,215.47)" style="font-family: 'Open Sans', verdana, arial, sans-serif; font-size: 12px; fill: rgb(242, 245, 250); fill-opacity: 1; white-space: pre;">150k</text></g><g class="ytick"><text text-anchor="end" x="79" y="4.199999999999999" transform="translate(0,168.45999999999998)" style="font-family: 'Open Sans', verdana, arial, sans-serif; font-size: 12px; fill: rgb(242, 245, 250); fill-opacity: 1; white-space: pre;">200k</text></g><g class="ytick"><text text-anchor="end" x="79" y="4.199999999999999" transform="translate(0,121.45)" style="font-family: 'Open Sans', verdana, arial, sans-serif; font-size: 12px; fill: rgb(242, 245, 250); fill-opacity: 1; white-space: pre;">250k</text></g></g><g class="overaxes-above"/></g><g class="subplot x2y2"><g class="layer-subplot"><g class="shapelayer"/><g class="imagelayer"/></g><g class="gridlayer"><g class="x2"><path class="x2grid crisp" transform="translate(501.26000000000005,0)" d="M0,100v270" style="stroke: rgb(40, 52, 66); stroke-opacity: 1; stroke-width: 1px;"/><path class="x2grid crisp" transform="translate(569.85,0)" d="M0,100v270" style="stroke: rgb(40, 52, 66); stroke-opacity: 1; stroke-width: 1px;"/><path class="x2grid crisp" transform="translate(639.2,0)" d="M0,100v270" style="stroke: rgb(40, 52, 66); stroke-opacity: 1; stroke-width: 1px;"/><path class="x2grid crisp" transform="translate(708.5400000000001,0)" d="M0,100v270" style="stroke: rgb(40, 52, 66); stroke-opacity: 1; stroke-width: 1px;"/></g><g class="y2"><path class="y2grid crisp" transform="translate(0,314.75)" d="M448.50000000000006,0h301.49999999999994" style="stroke: rgb(40, 52, 66); stroke-opacity: 1; stroke-width: 1px;"/><path class="y2grid crisp" transform="translate(0,273.01)" d="M448.50000000000006,0h301.49999999999994" style="stroke: rgb(40, 52, 66); stroke-opacity: 1; stroke-width: 1px;"/><path class="y2grid crisp" transform="translate(0,231.26)" d="M448.50000000000006,0h301.49999999999994" style="stroke: rgb(40, 52, 66); stroke-opacity: 1; stroke-width: 1px;"/><path class="y2grid crisp" transform="translate(0,189.51999999999998)" d="M448.50000000000006,0h301.49999999999994" style="stroke: rgb(40, 52, 66); stroke-opacity: 1; stroke-width: 1px;"/><path class="y2grid crisp" transform="translate(0,147.77)" d="M448.50000000000006,0h301.49999999999994" style="stroke: rgb(40, 52, 66); stroke-opacity: 1; stroke-width: 1px;"/><path class="y2grid crisp" transform="translate(0,106.03)" d="M448.50000000000006,0h301.49999999999994" style="stroke: rgb(40, 52, 66); stroke-opacity: 1; stroke-width: 1px;"/></g></g><g class="zerolinelayer"><path class="y2zl zl crisp" transform="translate(0,356.5)" d="M448.50000000000006,0h301.49999999999994" style="stroke: rgb(40, 52, 66); stroke-opacity: 1; stroke-width: 2px;"/></g><path class="xlines-below"/><path class="ylines-below"/><g class="overlines-below"/><g class="xaxislayer-below"/><g class="yaxislayer-below"/><g class="overaxes-below"/><g class="plot" transform="translate(448.50000000000006, 100)" clip-path="url('#clip9d84cfx2y2plot')"><g class="scatterlayer mlayer"><g class="trace scatter trace46e6dd" style="stroke-miterlimit: 2; opacity: 1;"><g class="fills"/><g class="errorbars"/><g class="lines"><path class="js-line" d="M0,256.5L58.79,255.79L59.55,255.67L74.62,254L75.38,253.91L121.35,250.82L122.11,250.74L165.83,246.19L166.58,245.73L168.09,245.77L168.84,245.06L170.35,244.14L171.1,244.02L174.87,243.85L175.62,243.14L177.89,242.6L178.64,241.64L183.16,240.89L183.91,240.22L190.7,238.97L191.45,238.97L195.98,238.13L196.73,238.13L204.27,238.42L205.02,238.47L212.56,237.17L213.31,237.17L220.85,236.71L221.6,236.34L229.89,235.67L230.65,235.67L236.68,235.04L237.43,234.79L244.22,234.04L244.97,233.87L247.23,233.21L247.98,233L251,232L251.75,232L252.51,231.95L253.26,231.08L256.27,230.41L257.03,230.41L259.29,230.41L260.04,229.12L263.81,229.12L264.57,227.4L265.32,227.4L266.07,226.07L275.12,224.52L275.87,221.35L277.38,220.77L278.13,219.18L279.64,218.68L280.4,217.72L281.9,216.47L282.66,215.84L285.67,214.8L286.42,213.88L290.95,212.12L291.7,212.08L293.96,209.75L294.72,209.7L296.98,209.49L297.73,207.62L298.49,207.62L299.24,206.41L300.75,206.41L301.5,205.65" style="vector-effect: non-scaling-stroke; fill: none; stroke: rgb(230, 25, 75); stroke-opacity: 1; stroke-width: 2px; opacity: 1;"/></g><g class="points"/><g class="text"/></g><g class="trace scatter trace802bcc" style="stroke-miterlimit: 2; opacity: 1;"><g class="fills"/><g class="errorbars"/><g class="lines"><path class="js-line" d="M0,256.5L45.23,255.92L45.98,255.33L48.99,252.28L49.75,250.15L52.01,245.56L52.76,241.47L56.53,226.9L57.28,218.85L61.05,198.06L61.81,196.64L63.32,170.84L64.07,165.54L65.58,158.9L66.33,150.76L73.11,116.61L73.87,113.9L75.38,109.26L76.13,103.92L82.16,87.77L82.91,86.3L85.93,81.5L86.68,80.29L89.7,76.54L90.45,75.91L92.71,73.57L93.47,73.11L110.05,63.89L110.8,63.72L113.06,63.18L113.82,62.59L119.85,61.13L120.6,57.83L125.12,57L125.88,56.79L139.44,54.74L140.2,54.58L148.49,53.41L149.24,53.41L156.78,52.74L157.53,52.62L184.67,50.15L185.42,50.11L208.79,48.36L209.54,48.36L244.97,45.77L245.72,45.6L250.25,44.68L251,44.68L256.27,44.68L257.03,42.6L259.29,42.05L260.04,42.05L262.31,41.39L263.06,41.26L277.38,33.75L278.13,33.12L281.15,31.49L281.9,30.78L285.67,28.11L286.42,27.48L289.44,24.81L290.19,23.73L292.45,21.68L293.21,20.89L296.22,18.3L296.98,17.38L299.99,15.71L300.75,14.08L301.5,13.5" style="vector-effect: non-scaling-stroke; fill: none; stroke: rgb(60, 180, 75); stroke-opacity: 1; stroke-width: 2px; opacity: 1;"/></g><g class="points"/><g class="text"/></g><g class="trace scatter traced96ead" style="stroke-miterlimit: 2; opacity: 1;"><g class="fills"/><g class="errorbars"/><g class="lines"><path class="js-line" d="M0,256.5L58.04,255.75L58.79,255.71L73.11,254.29L73.87,254.08L109.29,248.28L110.05,248.28L125.88,246.56L126.63,246.15L131.91,245.15L132.66,244.94L146.98,239.89L147.74,239.38L150.75,237.84L151.5,237.76L166.58,231.04L167.33,231.04L192.21,225.86L192.96,225.86L195.98,225.15L196.73,224.9L200.5,224.4L201.25,224.27L208.79,222.52L209.54,222.52L214.82,221.6L215.57,221.35L220.09,219.85L220.85,219.68L229.89,215.34L230.65,215.3L234.42,213.67L235.17,213.67L236.68,212.96L237.43,212.5L241.2,210.62L241.95,210.29L244.22,208.16L244.97,207.45L247.98,206.2L248.74,205.53L251.75,205.53L252.51,201.02L253.26,201.02L254.01,200.14L256.27,199.43L257.03,199.35L261.55,195.76L262.31,195.64L266.83,189.87L267.58,189.87L272.86,182.11L273.61,181.44L276.63,176.27L277.38,175.47L278.89,174.47L279.64,172.88L281.15,169.75L281.9,168.33L284.92,166.29L285.67,164.41L287.93,161.11L288.69,161.03L292.45,155.35L293.21,154.98L296.98,153.72L297.73,153.22L299.99,152.35L300.75,150.88L301.5,149.92" style="vector-effect: non-scaling-stroke; fill: none; stroke: rgb(255, 225, 25); stroke-opacity: 1; stroke-width: 2px; opacity: 1;"/></g><g class="points"/><g class="text"/></g><g class="trace scatter trace28a05b" style="stroke-miterlimit: 2; opacity: 1;"><g class="fills"/><g class="errorbars"/><g class="lines"><path class="js-line" d="M0,256.5L51.25,255.87L52.01,255.54L61.81,253.37L62.56,253.37L63.32,253.37L64.07,251.45L68.59,250.24L69.34,249.7L78.39,247.19L79.14,246.56L87.43,244.14L88.19,244.14L92.71,242.77L93.47,242.77L100.25,242.06L101,241.68L121.35,238.97L122.11,238.47L126.63,237.55L127.38,236.96L133.41,234.88L134.17,234.5L135.67,234.5L136.43,233.41L137.94,232.29L138.69,231.79L142.46,230.37L143.21,228.78L144.72,227.78L145.47,227.78L149.24,224.36L150,223.15L153.01,221.35L153.76,220.22L156.03,218.51L156.78,218.39L158.29,218.51L159.04,214.5L160.55,213.63L161.3,213.63L162.06,213.59L162.81,212.33L165.83,209.49L166.58,209.54L168.09,209.49L168.84,208.2L169.59,208.2L170.35,206.82L171.85,206.2L172.61,206.16L174.12,205.45L174.87,204.74L180.15,201.86L180.9,201.19L184.67,200.44L185.42,199.73L189.94,198.43L190.7,198.31L198.24,196.43L198.99,196.39L201.25,195.64L202,195.22L205.02,194.59L205.77,194.42L211.8,193.55L212.56,193.26L214.82,193.13L215.57,192.21L223.11,189.5L223.86,189L225.37,188.96L226.13,188L227.63,187.75L228.39,186.79L229.89,185.95L230.65,185.91L235.17,182.9L235.92,182.74L240.45,179.19L241.2,179.19L244.97,173.26L245.72,173.05L246.48,172.93L247.23,171.46L248.74,169.09L249.49,168.08L254.77,162.82L255.52,162.16L257.78,161.86L258.54,160.11L260.04,156.98L260.8,156.81L262.31,155.77L263.06,155.31L264.57,151.13L265.32,149.38L267.58,146.42L268.33,146.42L269.09,144.87L269.84,141.2L270.6,141.2L271.35,137.44L273.61,136.57L274.36,136.57L275.87,130.55L276.63,128.72L278.13,128.51L278.89,126.09L281.9,119.83L282.66,119.74L284.16,119.7L284.92,116.61L286.42,113.31L287.18,113.31L288.69,111.52L289.44,111.48L292.45,105.17L293.21,105.17L295.47,103.8L296.22,103.8L297.73,98.79L298.49,98.7L299.24,98.7L299.99,97.45L301.5,96.24" style="vector-effect: non-scaling-stroke; fill: none; stroke: rgb(67, 99, 216); stroke-opacity: 1; stroke-width: 2px; opacity: 1;"/></g><g class="points"/><g class="text"/></g><g class="trace scatter trace748f15" style="stroke-miterlimit: 2; opacity: 1;"><g class="fills"/><g class="errorbars"/><g class="lines"><path class="js-line" d="M0,256.5L55.02,255.75L55.78,255.71L58.04,255L58.79,254.83L70.1,252.24L70.85,251.87L74.62,251.32L75.38,250.91L85.17,248.15L85.93,247.82L88.94,247.23L89.7,246.9L91.96,246.11L92.71,246.11L96.48,245.65L97.23,245.27L100.25,244.69L101,244.48L105.52,243.77L106.28,243.64L113.06,242.39L113.82,242.39L116.83,241.81L117.58,241.56L125.12,240.34L125.88,239.84L129.65,238.88L130.4,238.88L134.17,236.55L134.92,236.55L136.43,236.17L137.18,235.42L144.72,232.91L145.47,232.91L148.49,232.16L149.24,232.04L155.27,230.37L156.03,230.37L159.04,229.62L159.8,229.28L162.81,228.74L163.56,228.61L172.61,226.99L173.36,226.99L175.62,226.03L176.38,225.86L179.39,225.27L180.15,225.02L198.99,222.02L199.74,221.43L208.79,220.18L209.54,220.18L213.31,219.3L214.07,219.3L220.09,218.6L220.85,218.3L226.13,217.55L226.88,217.05L234.42,214.88L235.17,214.88L235.92,214.88L236.68,213.96L238.94,212.79L239.69,212.46L241.2,212.17L241.95,211.08L247.23,206.66L247.98,205.7L251,203.07L251.75,203.07L252.51,202.94L253.26,201.77L255.52,197.97L256.27,197.97L257.78,197.89L258.54,196.6L260.04,192.46L260.8,190.04L263.06,189.79L263.81,187.45L272.86,168.71L273.61,168.71L274.36,168.46L275.12,165.75L278.13,157.35L278.89,157.35L282.66,147.84L283.41,147.84L284.92,146.75L285.67,144.5L287.93,139.11L288.69,138.74L289.44,138.74L290.19,137.4L293.21,130.89L293.96,129.72L295.47,129.51L296.22,127.13L298.49,123.42L299.24,123.33L299.99,123.33L300.75,122.16L301.5,121.66" style="vector-effect: non-scaling-stroke; fill: none; stroke: rgb(245, 130, 49); stroke-opacity: 1; stroke-width: 2px; opacity: 1;"/></g><g class="points"/><g class="text"/></g><g class="trace scatter tracef248e4" style="stroke-miterlimit: 2; opacity: 1;"><g class="fills"/><g class="errorbars"/><g class="lines"><path class="js-line" d="M0,256.5L62.56,255.92L63.32,255.62L70.1,255.62L70.85,252.03L73.11,252.03L73.87,250.99L78.39,250.99L79.14,248.15L85.93,248.03L86.68,246.06L90.45,246.06L91.2,243.52L95.73,243.52L96.48,240.22L110.8,239.63L111.56,237L113.06,235.59L113.82,235.59L119.09,235.59L119.85,234.08L125.12,234.08L125.88,224.23L131.15,224.23L131.91,223.27L152.26,222.6L153.01,222.35L168.09,221.64L168.84,221.23L178.64,220.89L179.39,220.39L189.19,219.72L189.94,219.22L205.02,218.6L205.77,217.72L210.3,217.72L211.05,216.84L215.57,216.84L216.33,216.05L226.13,215.34L226.88,214.55L231.4,214.55L232.16,213.75L236.68,213.75L237.43,212.42L241.95,212.42L242.71,210.16L247.23,210.16L247.98,206.99L252.51,206.99L253.26,203.36L257.78,203.36L258.54,200.39L263.06,200.39L263.81,196.72L268.33,196.72L269.09,194.88L273.61,194.88L274.36,192.63L278.89,192.63L279.64,190.58L284.16,190.58L284.92,188.5L289.44,188.5L290.19,186.74L294.72,186.74L295.47,184.36L299.99,184.36L300.75,180.77L301.5,180.77" style="vector-effect: non-scaling-stroke; fill: none; stroke: rgb(145, 30, 180); stroke-opacity: 1; stroke-width: 2px; opacity: 1;"/></g><g class="points"/><g class="text"/></g></g></g><g class="overplot"/><path class="xlines-above crisp" d="M0,0" style="fill: none;"/><path class="ylines-above crisp" d="M0,0" style="fill: none;"/><g class="overlines-above"/><g class="xaxislayer-above"><g class="x2tick"><text text-anchor="middle" x="0" y="383" transform="translate(501.26000000000005,0)" style="font-family: 'Open Sans', verdana, arial, sans-serif; font-size: 12px; fill: rgb(242, 245, 250); fill-opacity: 1; white-space: pre;">Apr 2020</text></g><g class="x2tick"><text text-anchor="middle" x="0" y="383" transform="translate(569.85,0)" style="font-family: 'Open Sans', verdana, arial, sans-serif; font-size: 12px; fill: rgb(242, 245, 250); fill-opacity: 1; white-space: pre;">Jul 2020</text></g><g class="x2tick"><text text-anchor="middle" x="0" y="383" transform="translate(639.2,0)" style="font-family: 'Open Sans', verdana, arial, sans-serif; font-size: 12px; fill: rgb(242, 245, 250); fill-opacity: 1; white-space: pre;">Oct 2020</text></g><g class="x2tick"><text text-anchor="middle" x="0" y="383" transform="translate(708.5400000000001,0)" style="font-family: 'Open Sans', verdana, arial, sans-serif; font-size: 12px; fill: rgb(242, 245, 250); fill-opacity: 1; white-space: pre;">Jan 2021</text></g></g><g class="yaxislayer-above"><g class="y2tick"><text text-anchor="end" x="447.50000000000006" y="4.199999999999999" transform="translate(0,356.5)" style="font-family: 'Open Sans', verdana, arial, sans-serif; font-size: 12px; fill: rgb(242, 245, 250); fill-opacity: 1; white-space: pre;">0</text></g><g class="y2tick"><text text-anchor="end" x="447.50000000000006" y="4.199999999999999" transform="translate(0,314.75)" style="font-family: 'Open Sans', verdana, arial, sans-serif; font-size: 12px; fill: rgb(242, 245, 250); fill-opacity: 1; white-space: pre;">1000</text></g><g class="y2tick"><text text-anchor="end" x="447.50000000000006" y="4.199999999999999" transform="translate(0,273.01)" style="font-family: 'Open Sans', verdana, arial, sans-serif; font-size: 12px; fill: rgb(242, 245, 250); fill-opacity: 1; white-space: pre;">2000</text></g><g class="y2tick"><text text-anchor="end" x="447.50000000000006" y="4.199999999999999" transform="translate(0,231.26)" style="font-family: 'Open Sans', verdana, arial, sans-serif; font-size: 12px; fill: rgb(242, 245, 250); fill-opacity: 1; white-space: pre;">3000</text></g><g class="y2tick"><text text-anchor="end" x="447.50000000000006" y="4.199999999999999" transform="translate(0,189.51999999999998)" style="font-family: 'Open Sans', verdana, arial, sans-serif; font-size: 12px; fill: rgb(242, 245, 250); fill-opacity: 1; white-space: pre;">4000</text></g><g class="y2tick"><text text-anchor="end" x="447.50000000000006" y="4.199999999999999" transform="translate(0,147.77)" style="font-family: 'Open Sans', verdana, arial, sans-serif; font-size: 12px; fill: rgb(242, 245, 250); fill-opacity: 1; white-space: pre;">5000</text></g><g class="y2tick"><text text-anchor="end" x="447.50000000000006" y="4.199999999999999" transform="translate(0,106.03)" style="font-family: 'Open Sans', verdana, arial, sans-serif; font-size: 12px; fill: rgb(242, 245, 250); fill-opacity: 1; white-space: pre;">6000</text></g></g><g class="overaxes-above"/></g></g><g class="polarlayer"/><g class="ternarylayer"/><g class="geolayer"/><g class="funnelarealayer"/><g class="pielayer"/><g class="treemaplayer"/><g class="sunburstlayer"/><g class="glimages"/><defs id="topdefs-9d84cf"><g class="clips"/><clipPath id="legend9d84cf"><rect width="125" height="124" x="0" y="0"/></clipPath></defs><g class="layer-above"><g class="imagelayer"/><g class="shapelayer"/></g><g class="infolayer"><g class="legend" pointer-events="all" transform="translate(763.4, 100)"><rect class="bg" shape-rendering="crispEdges" width="125" height="124" x="0" y="0" style="stroke: rgb(68, 68, 68); stroke-opacity: 1; fill: rgb(17, 17, 17); fill-opacity: 1; stroke-width: 0px;"/><g class="scrollbox" transform="translate(0, 0)" clip-path="url('#legend9d84cf')"><g class="groups"><g class="traces" transform="translate(0, 14.5)" style="opacity: 1;"><text class="legendtext user-select-none" text-anchor="start" x="40" y="4.680000000000001" style="font-family: 'Open Sans', verdana, arial, sans-serif; font-size: 12px; fill: rgb(242, 245, 250); fill-opacity: 1; white-space: pre;">Alameda, CA</text><g class="layers" style="opacity: 1;"><g class="legendfill"/><g class="legendlines"><path class="js-line" d="M5,0h30" style="fill: none; stroke: rgb(230, 25, 75); stroke-opacity: 1; stroke-width: 2px;"/></g><g class="legendsymbols"><g class="legendpoints"/></g></g><rect class="legendtoggle" pointer-events="all" x="0" y="-9.5" width="119.390625" height="19" style="cursor: pointer; fill: rgb(0, 0, 0); fill-opacity: 0;"/></g><g class="traces" transform="translate(0, 33.5)" style="opacity: 1;"><text class="legendtext user-select-none" text-anchor="start" x="40" y="4.680000000000001" style="font-family: 'Open Sans', verdana, arial, sans-serif; font-size: 12px; fill: rgb(242, 245, 250); fill-opacity: 1; white-space: pre;">Bronx, NY</text><g class="layers" style="opacity: 1;"><g class="legendfill"/><g class="legendlines"><path class="js-line" d="M5,0h30" style="fill: none; stroke: rgb(60, 180, 75); stroke-opacity: 1; stroke-width: 2px;"/></g><g class="legendsymbols"><g class="legendpoints"/></g></g><rect class="legendtoggle" pointer-events="all" x="0" y="-9.5" width="119.390625" height="19" style="cursor: pointer; fill: rgb(0, 0, 0); fill-opacity: 0;"/></g><g class="traces" transform="translate(0, 52.5)" style="opacity: 1;"><text class="legendtext user-select-none" text-anchor="start" x="40" y="4.680000000000001" style="font-family: 'Open Sans', verdana, arial, sans-serif; font-size: 12px; fill: rgb(242, 245, 250); fill-opacity: 1; white-space: pre;">Tarrant, TX</text><g class="layers" style="opacity: 1;"><g class="legendfill"/><g class="legendlines"><path class="js-line" d="M5,0h30" style="fill: none; stroke: rgb(255, 225, 25); stroke-opacity: 1; stroke-width: 2px;"/></g><g class="legendsymbols"><g class="legendpoints"/></g></g><rect class="legendtoggle" pointer-events="all" x="0" y="-9.5" width="119.390625" height="19" style="cursor: pointer; fill: rgb(0, 0, 0); fill-opacity: 0;"/></g><g class="traces" transform="translate(0, 71.5)" style="opacity: 1;"><text class="legendtext user-select-none" text-anchor="start" x="40" y="4.680000000000001" style="font-family: 'Open Sans', verdana, arial, sans-serif; font-size: 12px; fill: rgb(242, 245, 250); fill-opacity: 1; white-space: pre;">Clark, NV</text><g class="layers" style="opacity: 1;"><g class="legendfill"/><g class="legendlines"><path class="js-line" d="M5,0h30" style="fill: none; stroke: rgb(67, 99, 216); stroke-opacity: 1; stroke-width: 2px;"/></g><g class="legendsymbols"><g class="legendpoints"/></g></g><rect class="legendtoggle" pointer-events="all" x="0" y="-9.5" width="119.390625" height="19" style="cursor: pointer; fill: rgb(0, 0, 0); fill-opacity: 0;"/></g><g class="traces" transform="translate(0, 90.5)" style="opacity: 1;"><text class="legendtext user-select-none" text-anchor="start" x="40" y="4.680000000000001" style="font-family: 'Open Sans', verdana, arial, sans-serif; font-size: 12px; fill: rgb(242, 245, 250); fill-opacity: 1; white-space: pre;">San Diego, CA</text><g class="layers" style="opacity: 1;"><g class="legendfill"/><g class="legendlines"><path class="js-line" d="M5,0h30" style="fill: none; stroke: rgb(245, 130, 49); stroke-opacity: 1; stroke-width: 2px;"/></g><g class="legendsymbols"><g class="legendpoints"/></g></g><rect class="legendtoggle" pointer-events="all" x="0" y="-9.5" width="119.390625" height="19" style="cursor: pointer; fill: rgb(0, 0, 0); fill-opacity: 0;"/></g><g class="traces" transform="translate(0, 109.5)" style="opacity: 1;"><text class="legendtext user-select-none" text-anchor="start" x="40" y="4.680000000000001" style="font-family: 'Open Sans', verdana, arial, sans-serif; font-size: 12px; fill: rgb(242, 245, 250); fill-opacity: 1; white-space: pre;">Providence, RI</text><g class="layers" style="opacity: 1;"><g class="legendfill"/><g class="legendlines"><path class="js-line" d="M5,0h30" style="fill: none; stroke: rgb(145, 30, 180); stroke-opacity: 1; stroke-width: 2px;"/></g><g class="legendsymbols"><g class="legendpoints"/></g></g><rect class="legendtoggle" pointer-events="all" x="0" y="-9.5" width="119.390625" height="19" style="cursor: pointer; fill: rgb(0, 0, 0); fill-opacity: 0;"/></g></g></g><rect class="scrollbar" rx="20" ry="3" width="0" height="0" x="0" y="0" style="fill: rgb(128, 139, 164); fill-opacity: 1;"/></g><g class="g-gtitle"/><g class="g-xtitle"><text class="xtitle" x="230.75" y="410.8" text-anchor="middle" style="font-family: 'Open Sans', verdana, arial, sans-serif; font-size: 14px; fill: rgb(242, 245, 250); opacity: 1; font-weight: normal; white-space: pre;">Date</text></g><g class="g-x2title"><text class="x2title" x="599.25" y="410.8" text-anchor="middle" style="font-family: 'Open Sans', verdana, arial, sans-serif; font-size: 14px; fill: rgb(242, 245, 250); opacity: 1; font-weight: normal; white-space: pre;">Date</text></g><g class="g-ytitle"><text class="ytitle" transform="rotate(-90,28.168750000000003,235)" x="28.168750000000003" y="235" text-anchor="middle" style="font-family: 'Open Sans', verdana, arial, sans-serif; font-size: 14px; fill: rgb(242, 245, 250); opacity: 1; font-weight: normal; white-space: pre;">Cases</text></g><g class="g-y2title"><text class="y2title" transform="rotate(-90,395.996875,235)" x="395.996875" y="235" text-anchor="middle" style="font-family: 'Open Sans', verdana, arial, sans-serif; font-size: 14px; fill: rgb(242, 245, 250); opacity: 1; font-weight: normal; white-space: pre;">Deaths</text></g><g class="annotation" data-index="0" style="opacity: 1;"><g class="annotation-text-g" transform="rotate(0,230.75,89.5)"><g class="cursor-pointer" transform="translate(206, 79)"><rect class="bg" x="0.5" y="0.5" width="48" height="20" style="stroke-width: 1px; stroke: rgb(0, 0, 0); stroke-opacity: 0; fill: rgb(0, 0, 0); fill-opacity: 0;"/><text class="annotation-text" text-anchor="middle" x="24.6875" y="16" style="font-family: 'Open Sans', verdana, arial, sans-serif; font-size: 16px; fill: rgb(242, 245, 250); fill-opacity: 1; white-space: pre;">Cases</text></g></g></g><g class="annotation" data-index="1" style="opacity: 1;"><g class="annotation-text-g" transform="rotate(0,599.25,89.5)"><g class="cursor-pointer" transform="translate(572, 79)"><rect class="bg" x="0.5" y="0.5" width="54" height="20" style="stroke-width: 1px; stroke: rgb(0, 0, 0); stroke-opacity: 0; fill: rgb(0, 0, 0); fill-opacity: 0;"/><text class="annotation-text" text-anchor="middle" x="27.359375" y="16" style="font-family: 'Open Sans', verdana, arial, sans-serif; font-size: 16px; fill: rgb(242, 245, 250); fill-opacity: 1; white-space: pre;">Deaths</text></g></g></g></g></svg>