<svg class="main-svg" xmlns="http://www.w3.org/2000/svg" xmlns:xlink="http://www.w3.org/1999/xlink" width="900" height="450" style="" viewBox="0 0 900 450"><rect x="0" y="0" width="900" height="450" style="fill: rgb(17, 17, 17); fill-opacity: 1;"/><defs id="defs-615ec1"><g class="clips"><clipPath id="clip615ec1xyplot" class="plotclip"><rect width="296.55" height="270"/></clipPath><clipPath id="clip615ec1x2y2plot" class="plotclip"><rect width="296.54999999999995" height="270"/></clipPath><clipPath class="axesclip" id="clip615ec1x"><rect x="80" y="0" width="296.55" height="450"/></clipPath><clipPath class="axesclip" id="clip615ec1y"><rect x="0" y="100" width="900" height="270"/></clipPath><clipPath class="axesclip" id="clip615ec1xy"><rect x="80" y="100" width="296.55" height="270"/></clipPath><clipPath class="axesclip" id="clip615ec1y2"><rect x="0" y="100" width="900" height="270"/></clipPath><clipPath class="axesclip" id="clip615ec1xy2"><rect x="80" y="100" width="296.55" height="270"/></clipPath><clipPath class="axesclip" id="clip615ec1x2"><rect x="442.45000000000005" y="0" width="296.54999999999995" height="450"/></clipPath><clipPath class="axesclip" id="clip615ec1x2y"><rect x="442.45000000000005" y="100" width="296.54999999999995" height="270"/></clipPath><clipPath class="axesclip" id="clip615ec1x2y2"><rect x="442.45000000000005" y="100" width="296.54999999999995" height="270"/></clipPath></g><g class="gradients"/></defs><g class="bglayer"/><g class="layer-below"><g class="imagelayer"/><g class="shapelayer"/></g><g class="cartesianlayer"><g class="subplot xy"><g class="layer-subplot"><g class="shapelayer"/><g class="imagelayer"/></g><g class="gridlayer"><g class="x"><path class="xgrid crisp" transform="translate(125,0)" d="M0,100v270" style="stroke: rgb(40, 52, 66); stroke-opacity: 1; stroke-width: 1px;"/><path class="xgrid crisp" transform="translate(195.39,0)" d="M0,100v270" style="stroke: rgb(40, 52, 66); stroke-opacity: 1; stroke-width: 1px;"/><path class="xgrid crisp" transform="translate(265.78,0)" d="M0,100v270" style="stroke: rgb(40, 52, 66); stroke-opacity: 1; stroke-width: 1px;"/><path class="xgrid crisp" transform="translate(337.32,0)" d="M0,100v270" style="stroke: rgb(40, 52, 66); stroke-opacity: 1; stroke-width: 1px;"/></g><g class="y"><path class="ygrid crisp" transform="translate(0,289.1)" d="M80,0h296.55" style="stroke: rgb(40, 52, 66); stroke-opacity: 1; stroke-width: 1px;"/><path class="ygrid crisp" transform="translate(0,221.7)" d="M80,0h296.55" style="stroke: rgb(40, 52, 66); stroke-opacity: 1; stroke-width: 1px;"/><path class="ygrid crisp" transform="translate(0,154.3)" d="M80,0h296.55" style="stroke: rgb(40, 52, 66); stroke-opacity: 1; stroke-width: 1px;"/></g></g><g class="zerolinelayer"><path class="yzl zl crisp" transform="translate(0,356.5)" d="M80,0h296.55" style="stroke: rgb(40, 52, 66); stroke-opacity: 1; stroke-width: 2px;"/></g><path class="xlines-below"/><path class="ylines-below"/><g class="overlines-below"/><g class="xaxislayer-below"/><g class="yaxislayer-below"/><g class="overaxes-below"/><g class="plot" transform="translate(80, 100)" clip-path="url('#clip615ec1xyplot')"><g class="scatterlayer mlayer"><g class="trace scatter trace7580eb" style="stroke-miterlimit: 2; opacity: 1;"><g class="fills"/><g class="errorbars"/><g class="lines"><path class="js-line" d="M0,256.5L69.23,255.79L70.39,255.68L75,255.02L76.16,254.77L83.08,253.51L84.23,252.88L95.77,250.54L96.93,250.02L139.62,238.25L140.77,237.85L159.24,229.91L160.39,229.64L167.31,227.03L168.47,226.3L171.93,224.81L173.08,224.11L174.24,224.11L175.39,222.75L182.31,218.28L183.47,217.66L188.08,212.88L189.24,212.31L190.39,210.3L191.55,210.08L192.7,210.08L193.85,207.67L197.32,204.43L198.47,204.43L203.08,198.35L204.24,196.8L206.55,194.24L207.7,194.11L210.01,191.51L211.16,189.98L213.47,186.88L214.62,186.61L215.78,186.15L216.93,184.83L218.09,183.89L219.24,181.48L220.39,181.48L221.55,179.1L222.7,178.83L223.85,176.66L225.01,176.23L226.16,174.7L229.62,174.7L230.78,167.54L231.93,167.41L233.09,164.4L234.24,161.47L235.39,160.6L236.55,158.38L237.7,158.38L238.86,154.57L240.01,154.52L245.78,143.99L246.93,143.79L248.09,143.72L249.24,140.07L251.55,137.73L252.7,136.21L253.86,136.21L255.01,134.91L257.32,132.18L258.47,130.49L261.93,127.56L263.09,127.56L264.24,126.08L265.39,126.08L267.7,123.65L268.86,122.92L270.01,122.8L271.16,121.76L275.78,120.61L276.93,119.25L281.55,116.66L282.7,116.04L287.32,113.68L288.47,113.34L296.55,109.93" style="vector-effect: non-scaling-stroke; fill: none; stroke: rgb(230, 25, 75); stroke-opacity: 1; stroke-width: 2px; opacity: 1;"/></g><g class="points"/><g class="text"/></g><g class="trace scatter trace9d3666" style="stroke-miterlimit: 2; opacity: 1;"><g class="fills"/><g class="errorbars"/><g class="lines"><path class="js-line" d="M0,256.5L79.62,255.81L80.77,255.64L99.23,254.39L100.39,254.38L163.85,252.03L165.01,251.72L170.78,249.92L171.93,249.08L177.7,245.55L178.85,244.58L183.47,239.8L184.62,239.2L188.08,236.37L189.24,234.9L203.08,223.86L204.24,222.6L213.47,216.27L214.62,215.83L230.78,208.52L231.93,208.29L238.86,206.14L240.01,206L256.16,202.38L257.32,201.41L274.63,198.3L275.78,197.9L282.7,196.45L283.86,196.45L296.55,194.15" style="vector-effect: non-scaling-stroke; fill: none; stroke: rgb(60, 180, 75); stroke-opacity: 1; stroke-width: 2px; opacity: 1;"/></g><g class="points"/><g class="text"/></g><g class="trace scatter trace39a14f" style="stroke-miterlimit: 2; opacity: 1;"><g class="fills"/><g class="errorbars"/><g class="lines"><path class="js-line" d="M0,256.5L76.16,255.75L77.31,255.72L81.93,254.66L83.08,254.36L96.93,253.04L98.08,252.93L105,252.18L106.16,252.08L154.62,247.08L155.78,246.54L163.85,243.42L165.01,242.33L170.78,237.04L171.93,235.25L175.39,230.52L176.55,229.32L180.01,222.13L181.16,217.99L186.93,207.64L188.08,204.62L191.55,197.46L192.7,195.62L206.55,165.63L207.7,164.13L218.09,150.01L219.24,147.89L222.7,143.44L223.85,142.69L233.09,134.48L234.24,133.72L242.32,128.48L243.47,127.85L246.93,125.53L248.09,125.22L253.86,122.96L255.01,122.45L258.47,121.16L259.63,120.51L279.24,111.6L280.4,111.18L291.93,106.43L293.09,105.88L296.55,104.52" style="vector-effect: non-scaling-stroke; fill: none; stroke: rgb(255, 225, 25); stroke-opacity: 1; stroke-width: 2px; opacity: 1;"/></g><g class="points"/><g class="text"/></g><g class="trace scatter trace819fb2" style="stroke-miterlimit: 2; opacity: 1;"><g class="fills"/><g class="errorbars"/><g class="lines"><path class="js-line" d="M0,256.5L64.62,256.34L65.77,255.7L69.23,253.28L70.39,252.2L73.85,247.14L75,244.3L80.77,226.37L81.93,222.33L85.39,205.83L86.54,200.76L90,188.47L91.16,185.47L99.23,167.31L100.39,165.7L103.85,160.42L105,158.36L107.31,152.66L108.47,151.71L111.93,147.49L113.08,145.33L117.7,139.91L118.85,139.8L122.31,137.42L123.47,136.36L129.24,132.56L130.39,129.99L140.77,123.74L141.93,123.24L146.54,121.3L147.7,120.17L148.85,119.99L150.01,118.9L154.62,117.72L155.78,114.68L160.39,111.37L161.54,111.12L167.31,109.61L168.47,109.53L173.08,107.65L174.24,107.28L177.7,106.03L178.85,105.17L183.47,103.76L184.62,103.05L192.7,98.55L193.85,97.45L200.78,92.92L201.93,91.2L205.39,87.65L206.55,87.08L210.01,84.49L211.16,83.62L216.93,79.03L218.09,76.61L220.39,74.07L221.55,73.28L223.85,71.98L225.01,70.72L233.09,65.14L234.24,65.14L236.55,61.87L237.7,60.62L240.01,59.58L241.16,58.38L243.47,56.85L244.62,56.85L248.09,53.18L249.24,52.05L252.7,47.86L253.86,47.86L256.16,46L257.32,45.15L263.09,41.1L264.24,38.94L265.39,38.28L266.55,36.63L270.01,32.39L271.16,32.39L273.47,29.68L274.63,28.75L276.93,27.11L278.09,26.78L279.24,26.78L280.4,25.3L296.55,13.5" style="vector-effect: non-scaling-stroke; fill: none; stroke: rgb(67, 99, 216); stroke-opacity: 1; stroke-width: 2px; opacity: 1;"/></g><g class="points"/><g class="text"/></g><g class="trace scatter trace7f3bde" style="stroke-miterlimit: 2; opacity: 1;"><g class="fills"/><g class="errorbars"/><g class="lines"><path class="js-line" d="M0,256.5L90,255.81L91.16,255.72L113.08,254.22L114.24,253.98L137.31,252.47L138.47,252.38L156.93,250.67L158.08,250.43L170.78,247.04L171.93,246.57L176.55,244.95L177.7,244.44L195.01,236.25L196.16,225.27L197.32,224.61L198.47,222.98L203.08,217.56L204.24,217.56L205.39,214.58L206.55,213.74L207.7,212.64L208.85,210.43L210.01,209.43L211.16,206.62L215.78,201.04L216.93,200.64L222.7,194.35L223.85,193.97L227.32,193.09L228.47,192.02L229.62,191.36L230.78,189.35L231.93,187.32L233.09,183.34L234.24,178.37L235.39,177.76L238.86,171.97L240.01,171.12L242.32,169.32L243.47,168.31L244.62,168.07L245.78,166.98L249.24,165.37L250.39,162.91L251.55,161.46L252.7,161.46L258.47,156.06L259.63,155.26L263.09,152.82L264.24,152.43L266.55,150.78L267.7,150.35L272.32,148.5L273.47,148.31L276.93,147.12L278.09,146.71L289.63,145.32L290.78,145.21L296.55,143.54" style="vector-effect: non-scaling-stroke; fill: none; stroke: rgb(245, 130, 49); stroke-opacity: 1; stroke-width: 2px; opacity: 1;"/></g><g class="points"/><g class="text"/></g><g class="trace scatter tracedefc02" style="stroke-miterlimit: 2; opacity: 1;"><g class="fills"/><g class="errorbars"/><g class="lines"><path class="js-line" d="M0,256.5L86.54,255.77L87.7,255.61L103.85,254.9L105,254.88L155.78,251.55L156.93,251.34L171.93,248.59L173.08,248.32L192.7,242.12L193.85,241.67L205.39,236.69L206.55,236.37L208.85,235.72L210.01,234.93L222.7,229.38L223.85,229.16L233.09,226.59L234.24,226.24L251.55,220.77L252.7,219.86L256.16,217.5L257.32,215.44L263.09,211.86L264.24,211.72L267.7,210.51L268.86,209.58L281.55,205.39L282.7,205.12L290.78,202.33L291.93,201.77L296.55,199.77" style="vector-effect: non-scaling-stroke; fill: none; stroke: rgb(145, 30, 180); stroke-opacity: 1; stroke-width: 2px; opacity: 1;"/></g><g class="points"/><g class="text"/></g></g></g><g class="overplot"/><path class="xlines-above crisp" d="M0,0" style="fill: none;"/><path class="ylines-above crisp" d="M0,0" style="fill: none;"/><g class="overlines-above"/><g class="xaxislayer-above"><g class="xtick"><text text-anchor="middle" x="0" y="383" transform="translate(125,0)" style="font-family: 'Open Sans', verdana, arial, sans-serif; font-size: 12px; fill: rgb(242, 245, 250); fill-opacity: 1; white-space: pre;">Mar 2020</text></g><g class="xtick"><text text-anchor="middle" x="0" y="383" transform="translate(195.39,0)" style="font-family: 'Open Sans', verdana, arial, sans-serif; font-size: 12px; fill: rgb(242, 245, 250); fill-opacity: 1; white-space: pre;">May 2020</text></g><g class="xtick"><text text-anchor="middle" x="0" y="383" transform="translate(265.78,0)" style="font-family: 'Open Sans', verdana, arial, sans-serif; font-size: 12px; fill: rgb(242, 245, 250); fill-opacity: 1; white-space: pre;">Jul 2020</text></g><g class="xtick"><text text-anchor="middle" x="0" y="383" transform="translate(337.32,0)" style="font-family: 'Open Sans', verdana, arial, sans-serif; font-size: 12px; fill: rgb(242, 245, 250); fill-opacity: 1; white-space: pre;">Sep 2020</text></g></g><g class="yaxislayer-above"><g class="ytick"><text text-anchor="end" x="79" y="4.199999999999999" transform="translate(0,356.5)" style="font-family: 'Open Sans', verdana, arial, sans-serif; font-size: 12px; fill: rgb(242, 245, 250); fill-opacity: 1; white-space: pre;">0</text></g><g class="ytick"><text text-anchor="end" x="79" y="4.199999999999999" transform="translate(0,289.1)" style="font-family: 'Open Sans', verdana, arial, sans-serif; font-size: 12px; fill: rgb(242, 245, 250); fill-opacity: 1; white-space: pre;">10k</text></g><g class="ytick"><text text-anchor="end" x="79" y="4.199999999999999" transform="translate(0,221.7)" style="font-family: 'Open Sans', verdana, arial, sans-serif; font-size: 12px; fill: rgb(242, 245, 250); fill-opacity: 1; white-space: pre;">20k</text></g><g class="ytick"><text text-anchor="end" x="79" y="4.199999999999999" transform="translate(0,154.3)" style="font-family: 'Open Sans', verdana, arial, sans-serif; font-size: 12px; fill: rgb(242, 245, 250); fill-opacity: 1; white-space: pre;">30k</text></g></g><g class="overaxes-above"/></g><g class="subplot x2y2"><g class="layer-subplot"><g class="shapelayer"/><g class="imagelayer"/></g><g class="gridlayer"><g class="x2"><path class="x2grid crisp" transform="translate(487.45000000000005,0)" d="M0,100v270" style="stroke: rgb(40, 52, 66); stroke-opacity: 1; stroke-width: 1px;"/><path class="x2grid crisp" transform="translate(557.84,0)" d="M0,100v270" style="stroke: rgb(40, 52, 66); stroke-opacity: 1; stroke-width: 1px;"/><path class="x2grid crisp" transform="translate(628.23,0)" d="M0,100v270" style="stroke: rgb(40, 52, 66); stroke-opacity: 1; stroke-width: 1px;"/><path class="x2grid crisp" transform="translate(699.77,0)" d="M0,100v270" style="stroke: rgb(40, 52, 66); stroke-opacity: 1; stroke-width: 1px;"/></g><g class="y2"><path class="y2grid crisp" transform="translate(0,315.97)" d="M442.45000000000005,0h296.54999999999995" style="stroke: rgb(40, 52, 66); stroke-opacity: 1; stroke-width: 1px;"/><path class="y2grid crisp" transform="translate(0,275.45)" d="M442.45000000000005,0h296.54999999999995" style="stroke: rgb(40, 52, 66); stroke-opacity: 1; stroke-width: 1px;"/><path class="y2grid crisp" transform="translate(0,234.92)" d="M442.45000000000005,0h296.54999999999995" style="stroke: rgb(40, 52, 66); stroke-opacity: 1; stroke-width: 1px;"/><path class="y2grid crisp" transform="translate(0,194.39)" d="M442.45000000000005,0h296.54999999999995" style="stroke: rgb(40, 52, 66); stroke-opacity: 1; stroke-width: 1px;"/><path class="y2grid crisp" transform="translate(0,153.86)" d="M442.45000000000005,0h296.54999999999995" style="stroke: rgb(40, 52, 66); stroke-opacity: 1; stroke-width: 1px;"/><path class="y2grid crisp" transform="translate(0,113.34)" d="M442.45000000000005,0h296.54999999999995" style="stroke: rgb(40, 52, 66); stroke-opacity: 1; stroke-width: 1px;"/></g></g><g class="zerolinelayer"><path class="y2zl zl crisp" transform="translate(0,356.5)" d="M442.45000000000005,0h296.54999999999995" style="stroke: rgb(40, 52, 66); stroke-opacity: 1; stroke-width: 2px;"/></g><path class="xlines-below"/><path class="ylines-below"/><g class="overlines-below"/><g class="xaxislayer-below"/><g class="yaxislayer-below"/><g class="overaxes-below"/><g class="plot" transform="translate(442.45000000000005, 100)" clip-path="url('#clip615ec1x2y2plot')"><g class="scatterlayer mlayer"><g class="trace scatter trace8b2900" style="stroke-miterlimit: 2; opacity: 1;"><g class="fills"/><g class="errorbars"/><g class="lines"><path class="js-line" d="M0,256.5L81.93,255.77L83.08,255.53L92.31,254.8L93.47,254.64L95.77,254.64L96.93,253.58L102.7,253.1L103.85,253.01L124.62,250.75L125.77,250.75L130.39,250.1L131.54,249.85L177.7,246.61L178.85,246.13L190.39,245.15L191.55,245.15L199.62,244.5L200.78,244.18L219.24,241.75L220.39,241.75L222.7,241.18L223.85,241.18L228.47,240.86L229.62,240.86L231.93,239.88L233.09,239.88L236.55,238.75L237.7,238.75L253.86,236.48L255.01,235.67L257.32,235.67L258.47,234.29L259.63,232.59L260.78,232.51L266.55,231.94L267.7,231.94L268.86,230.56L270.01,230.56L274.63,227.64L275.78,226.92L279.24,226.19L280.4,226.19L282.7,224.48L283.86,224.32L286.16,223.59L287.32,223.59L290.78,223.11L291.93,222.46L296.55,222.05" style="vector-effect: non-scaling-stroke; fill: none; stroke: rgb(230, 25, 75); stroke-opacity: 1; stroke-width: 2px; opacity: 1;"/></g><g class="points"/><g class="text"/></g><g class="trace scatter tracea9fafa" style="stroke-miterlimit: 2; opacity: 1;"><g class="fills"/><g class="errorbars"/><g class="lines"><path class="js-line" d="M0,256.5L122.31,255.85L123.47,255.69L136.16,255.53L137.31,255.53L196.16,254.8L197.32,254.64L204.24,253.83L205.39,253.18L212.32,251.64L213.47,251.23L219.24,250.66L220.39,249.85L225.01,249.29L226.16,247.99L233.09,245.96L234.24,245.4L243.47,244.18L244.62,243.53L266.55,241.59L267.7,241.18L271.16,240.86L272.32,240.86L281.55,240.29L282.7,239.72L291.93,238.99L293.09,238.51L296.55,238.02" style="vector-effect: non-scaling-stroke; fill: none; stroke: rgb(60, 180, 75); stroke-opacity: 1; stroke-width: 2px; opacity: 1;"/></g><g class="points"/><g class="text"/></g><g class="trace scatter trace19417d" style="stroke-miterlimit: 2; opacity: 1;"><g class="fills"/><g class="errorbars"/><g class="lines"><path class="js-line" d="M0,256.5L87.7,255.77L88.85,255.69L103.85,255.04L105,254.8L121.16,252.45L122.31,251.96L128.08,251.47L129.24,251.39L140.77,250.42L141.93,250.42L151.16,249.77L152.31,249.21L160.39,248.48L161.54,248.39L175.39,247.02L176.55,246.04L181.16,244.42L182.31,244.02L183.47,244.02L184.62,243.05L197.32,237.94L198.47,237.94L199.62,237.37L200.78,235.26L204.24,232.18L205.39,231.37L207.7,230.32L208.85,229.43L210.01,228.78L211.16,227L216.93,225.86L218.09,224.08L220.39,221.48L221.55,221.08L223.85,220.67L225.01,219.22L228.47,217.51L229.62,216.22L231.93,215.97L233.09,214.92L237.7,212.41L238.86,212.08L244.62,208.6L245.78,208.27L248.09,206.89L249.24,205.44L259.63,202.27L260.78,202.27L265.39,201.55L266.55,200.33L271.16,199.68L272.32,199.68L274.63,198.63L275.78,198.55L280.4,197.49L281.55,197.41L285.01,196.36L286.16,196.2L290.78,195.47L291.93,195.3L296.55,194.41" style="vector-effect: non-scaling-stroke; fill: none; stroke: rgb(255, 225, 25); stroke-opacity: 1; stroke-width: 2px; opacity: 1;"/></g><g class="points"/><g class="text"/></g><g class="trace scatter traced1d62b" style="stroke-miterlimit: 2; opacity: 1;"><g class="fills"/><g class="errorbars"/><g class="lines"><path class="js-line" d="M0,256.5L70.39,255.85L71.54,255.45L77.31,251.96L78.46,249.77L86.54,228.46L87.7,223.92L90,215.65L91.16,207.14L93.47,199.44L94.62,199.44L98.08,176.99L99.23,171.88L100.39,169.77L101.54,165.8L102.7,163.45L103.85,152.91L105,149.59L106.16,143.35L107.31,139.54L108.47,130.06L109.62,128.43L110.77,125.03L114.24,112.06L115.39,110.44L116.54,103.79L117.7,103.06L123.47,92.12L124.62,87.75L126.93,85.88L128.08,83.04L132.7,77.21L133.85,77.13L135.01,76.07L136.16,72.1L137.31,71.37L138.47,69.02L139.62,68.21L140.77,65.29L144.24,64.56L145.39,61.48L146.54,61.16L147.7,59.94L150.01,57.03L151.16,56.86L154.62,54.51L155.78,44.71L156.93,43.57L158.08,43.49L159.24,43.08L160.39,41.63L163.85,40.57L165.01,40.17L171.93,39.19L173.08,38.71L177.7,38.22L178.85,37.57L182.31,36.84L183.47,36.76L186.93,35.38L188.08,35.38L191.55,35.22L192.7,34.33L196.16,33.76L197.32,32.95L203.08,31.98L204.24,31.66L206.55,31.09L207.7,31.09L218.09,30.2L219.24,29.71L225.01,28.82L226.16,28.82L228.47,27.6L229.62,27.6L235.39,26.87L236.55,26.71L250.39,24.36L251.55,23.71L265.39,21.69L266.55,19.09L268.86,18.2L270.01,18.12L274.63,17.47L275.78,17.31L280.4,16.66L281.55,16.34L286.16,15.2L287.32,15.2L293.09,14.07L294.24,13.74L296.55,13.5" style="vector-effect: non-scaling-stroke; fill: none; stroke: rgb(67, 99, 216); stroke-opacity: 1; stroke-width: 2px; opacity: 1;"/></g><g class="points"/><g class="text"/></g><g class="trace scatter trace203346" style="stroke-miterlimit: 2; opacity: 1;"><g class="fills"/><g class="errorbars"/><g class="lines"><path class="js-line" d="M0,256.5L110.77,255.93L111.93,255.69L141.93,254.23L143.08,254.23L176.55,253.5L177.7,253.42L192.7,252.85L193.85,252.45L200.78,251.88L201.93,251.56L206.55,251.39L207.7,250.75L215.78,248.8L216.93,248.56L221.55,247.58L222.7,247.42L226.16,244.75L227.32,244.26L229.62,243.37L230.78,243.29L238.86,240.45L240.01,240.29L242.32,239.32L243.47,238.42L258.47,234.86L259.63,234.37L261.93,233.64L263.09,233.08L266.55,232.26L267.7,231.94L270.01,231.37L271.16,231.37L296.55,226.19" style="vector-effect: non-scaling-stroke; fill: none; stroke: rgb(245, 130, 49); stroke-opacity: 1; stroke-width: 2px; opacity: 1;"/></g><g class="points"/><g class="text"/></g><g class="trace scatter trace6eebb3" style="stroke-miterlimit: 2; opacity: 1;"><g class="fills"/><g class="errorbars"/><g class="lines"><path class="js-line" d="M0,256.5L111.93,255.85L113.08,255.69L171.93,254.96L173.08,254.88L191.55,254.31L192.7,253.99L201.93,253.42L203.08,253.1L213.47,252.2L214.62,252.2L218.09,251.23L219.24,250.83L223.85,250.18L225.01,250.02L229.62,248.88L230.78,248.88L237.7,248.15L238.86,247.99L243.47,247.26L244.62,247.18L252.7,246.61L253.86,246.13L265.39,245.64L266.55,245.31L279.24,244.18L280.4,244.18L283.86,243.77L285.01,243.37L293.09,242.23L294.24,241.83L296.55,241.83" style="vector-effect: non-scaling-stroke; fill: none; stroke: rgb(145, 30, 180); stroke-opacity: 1; stroke-width: 2px; opacity: 1;"/></g><g class="points"/><g class="text"/></g></g></g><g class="overplot"/><path class="xlines-above crisp" d="M0,0" style="fill: none;"/><path class="ylines-above crisp" d="M0,0" style="fill: none;"/><g class="overlines-above"/><g class="xaxislayer-above"><g class="x2tick"><text text-anchor="middle" x="0" y="383" transform="translate(487.45000000000005,0)" style="font-family: 'Open Sans', verdana, arial, sans-serif; font-size: 12px; fill: rgb(242, 245, 250); fill-opacity: 1; white-space: pre;">Mar 2020</text></g><g class="x2tick"><text text-anchor="middle" x="0" y="383" transform="translate(557.84,0)" style="font-family: 'Open Sans', verdana, arial, sans-serif; font-size: 12px; fill: rgb(242, 245, 250); fill-opacity: 1; white-space: pre;">May 2020</text></g><g class="x2tick"><text text-anchor="middle" x="0" y="383" transform="translate(628.23,0)" style="font-family: 'Open Sans', verdana, arial, sans-serif; font-size: 12px; fill: rgb(242, 245, 250); fill-opacity: 1; white-space: pre;">Jul 2020</text></g><g class="x2tick"><text text-anchor="middle" x="0" y="383" transform="translate(699.77,0)" style="font-family: 'Open Sans', verdana, arial, sans-serif; font-size: 12px; fill: rgb(242, 245, 250); fill-opacity: 1; white-space: pre;">Sep 2020</text></g></g><g class="yaxislayer-above"><g class="y2tick"><text text-anchor="end" x="441.45000000000005" y="4.199999999999999" transform="translate(0,356.5)" style="font-family: 'Open Sans', verdana, arial, sans-serif; font-size: 12px; fill: rgb(242, 245, 250); fill-opacity: 1; white-space: pre;">0</text></g><g class="y2tick"><text text-anchor="end" x="441.45000000000005" y="4.199999999999999" transform="translate(0,315.97)" style="font-family: 'Open Sans', verdana, arial, sans-serif; font-size: 12px; fill: rgb(242, 245, 250); fill-opacity: 1; white-space: pre;">500</text></g><g class="y2tick"><text text-anchor="end" x="441.45000000000005" y="4.199999999999999" transform="translate(0,275.45)" style="font-family: 'Open Sans', verdana, arial, sans-serif; font-size: 12px; fill: rgb(242, 245, 250); fill-opacity: 1; white-space: pre;">1000</text></g><g class="y2tick"><text text-anchor="end" x="441.45000000000005" y="4.199999999999999" transform="translate(0,234.92)" style="font-family: 'Open Sans', verdana, arial, sans-serif; font-size: 12px; fill: rgb(242, 245, 250); fill-opacity: 1; white-space: pre;">1500</text></g><g class="y2tick"><text text-anchor="end" x="441.45000000000005" y="4.199999999999999" transform="translate(0,194.39)" style="font-family: 'Open Sans', verdana, arial, sans-serif; font-size: 12px; fill: rgb(242, 245, 250); fill-opacity: 1; white-space: pre;">2000</text></g><g class="y2tick"><text text-anchor="end" x="441.45000000000005" y="4.199999999999999" transform="translate(0,153.86)" style="font-family: 'Open Sans', verdana, arial, sans-serif; font-size: 12px; fill: rgb(242, 245, 250); fill-opacity: 1; white-space: pre;">2500</text></g><g class="y2tick"><text text-anchor="end" x="441.45000000000005" y="4.199999999999999" transform="translate(0,113.34)" style="font-family: 'Open Sans', verdana, arial, sans-serif; font-size: 12px; fill: rgb(242, 245, 250); fill-opacity: 1; white-space: pre;">3000</text></g></g><g class="overaxes-above"/></g></g><g class="polarlayer"/><g class="ternarylayer"/><g class="geolayer"/><g class="funnelarealayer"/><g class="pielayer"/><g class="treemaplayer"/><g class="sunburstlayer"/><g class="glimages"/><defs id="topdefs-615ec1"><g class="clips"/><clipPath id="legend615ec1"><rect width="136" height="124" x="0" y="0"/></clipPath></defs><g class="layer-above"><g class="imagelayer"/><g class="shapelayer"/></g><g class="infolayer"><g class="legend" pointer-events="all" transform="translate(752.1800000000001, 100)"><rect class="bg" shape-rendering="crispEdges" width="136" height="124" x="0" y="0" style="stroke: rgb(68, 68, 68); stroke-opacity: 1; fill: rgb(17, 17, 17); fill-opacity: 1; stroke-width: 0px;"/><g class="scrollbox" transform="translate(0, 0)" clip-path="url('#legend615ec1')"><g class="groups"><g class="traces" transform="translate(0, 14.5)" style="opacity: 1;"><text class="legendtext user-select-none" text-anchor="start" x="40" y="4.680000000000001" style="font-family: 'Open Sans', verdana, arial, sans-serif; font-size: 12px; fill: rgb(242, 245, 250); fill-opacity: 1; white-space: pre;">Alameda, CA</text><g class="layers" style="opacity: 1;"><g class="legendfill"/><g class="legendlines"><path class="js-line" d="M5,0h30" style="fill: none; stroke: rgb(230, 25, 75); stroke-opacity: 1; stroke-width: 2px;"/></g><g class="legendsymbols"><g class="legendpoints"/></g></g><rect class="legendtoggle" pointer-events="all" x="0" y="-9.5" width="130.46875" height="19" style="cursor: pointer; fill: rgb(0, 0, 0); fill-opacity: 0;"/></g><g class="traces" transform="translate(0, 33.5)" style="opacity: 1;"><text class="legendtext user-select-none" text-anchor="start" x="40" y="4.680000000000001" style="font-family: 'Open Sans', verdana, arial, sans-serif; font-size: 12px; fill: rgb(242, 245, 250); fill-opacity: 1; white-space: pre;">Seminole, FL</text><g class="layers" style="opacity: 1;"><g class="legendfill"/><g class="legendlines"><path class="js-line" d="M5,0h30" style="fill: none; stroke: rgb(60, 180, 75); stroke-opacity: 1; stroke-width: 2px;"/></g><g class="legendsymbols"><g class="legendpoints"/></g></g><rect class="legendtoggle" pointer-events="all" x="0" y="-9.5" width="130.46875" height="19" style="cursor: pointer; fill: rgb(0, 0, 0); fill-opacity: 0;"/></g><g class="traces" transform="translate(0, 52.5)" style="opacity: 1;"><text class="legendtext user-select-none" text-anchor="start" x="40" y="4.680000000000001" style="font-family: 'Open Sans', verdana, arial, sans-serif; font-size: 12px; fill: rgb(242, 245, 250); fill-opacity: 1; white-space: pre;">Pinellas, FL</text><g class="layers" style="opacity: 1;"><g class="legendfill"/><g class="legendlines"><path class="js-line" d="M5,0h30" style="fill: none; stroke: rgb(255, 225, 25); stroke-opacity: 1; stroke-width: 2px;"/></g><g class="legendsymbols"><g class="legendpoints"/></g></g><rect class="legendtoggle" pointer-events="all" x="0" y="-9.5" width="130.46875" height="19" style="cursor: pointer; fill: rgb(0, 0, 0); fill-opacity: 0;"/></g><g class="traces" transform="translate(0, 71.5)" style="opacity: 1;"><text class="legendtext user-select-none" text-anchor="start" x="40" y="4.680000000000001" style="font-family: 'Open Sans', verdana, arial, sans-serif; font-size: 12px; fill: rgb(242, 245, 250); fill-opacity: 1; white-space: pre;">Wayne, MI</text><g class="layers" style="opacity: 1;"><g class="legendfill"/><g class="legendlines"><path class="js-line" d="M5,0h30" style="fill: none; stroke: rgb(67, 99, 216); stroke-opacity: 1; stroke-width: 2px;"/></g><g class="legendsymbols"><g class="legendpoints"/></g></g><rect class="legendtoggle" pointer-events="all" x="0" y="-9.5" width="130.46875" height="19" style="cursor: pointer; fill: rgb(0, 0, 0); fill-opacity: 0;"/></g><g class="traces" transform="translate(0, 90.5)" style="opacity: 1;"><text class="legendtext user-select-none" text-anchor="start" x="40" y="4.680000000000001" style="font-family: 'Open Sans', verdana, arial, sans-serif; font-size: 12px; fill: rgb(242, 245, 250); fill-opacity: 1; white-space: pre;">Stanislaus, CA</text><g class="layers" style="opacity: 1;"><g class="legendfill"/><g class="legendlines"><path class="js-line" d="M5,0h30" style="fill: none; stroke: rgb(245, 130, 49); stroke-opacity: 1; stroke-width: 2px;"/></g><g class="legendsymbols"><g class="legendpoints"/></g></g><rect class="legendtoggle" pointer-events="all" x="0" y="-9.5" width="130.46875" height="19" style="cursor: pointer; fill: rgb(0, 0, 0); fill-opacity: 0;"/></g><g class="traces" transform="translate(0, 109.5)" style="opacity: 1;"><text class="legendtext user-select-none" text-anchor="start" x="40" y="4.680000000000001" style="font-family: 'Open Sans', verdana, arial, sans-serif; font-size: 12px; fill: rgb(242, 245, 250); fill-opacity: 1; white-space: pre;">Montgomery, OH</text><g class="layers" style="opacity: 1;"><g class="legendfill"/><g class="legendlines"><path class="js-line" d="M5,0h30" style="fill: none; stroke: rgb(145, 30, 180); stroke-opacity: 1; stroke-width: 2px;"/></g><g class="legendsymbols"><g class="legendpoints"/></g></g><rect class="legendtoggle" pointer-events="all" x="0" y="-9.5" width="130.46875" height="19" style="cursor: pointer; fill: rgb(0, 0, 0); fill-opacity: 0;"/></g></g></g><rect class="scrollbar" rx="20" ry="3" width="0" height="0" x="0" y="0" style="fill: rgb(128, 139, 164); fill-opacity: 1;"/></g><g class="g-gtitle"/><g class="g-xtitle"><text class="xtitle" x="228.275" y="410.8" text-anchor="middle" style="font-family: 'Open Sans', verdana, arial, sans-serif; font-size: 14px; fill: rgb(242, 245, 250); opacity: 1; font-weight: normal; white-space: pre;">Date</text></g><g class="g-x2title"><text class="x2title" x="590.725" y="410.8" text-anchor="middle" style="font-family: 'Open Sans', verdana, arial, sans-serif; font-size: 14px; fill: rgb(242, 245, 250); opacity: 1; font-weight: normal; white-space: pre;">Date</text></g><g class="g-ytitle"><text class="ytitle" transform="rotate(-90,34.840625,235)" x="34.840625" y="235" text-anchor="middle" style="font-family: 'Open Sans', verdana, arial, sans-serif; font-size: 14px; fill: rgb(242, 245, 250); opacity: 1; font-weight: normal; white-space: pre;">Cases</text></g><g class="g-y2title"><text class="y2title" transform="rotate(-90,389.95,235)" x="389.95" y="235" text-anchor="middle" style="font-family: 'Open Sans', verdana, arial, sans-serif; font-size: 14px; fill: rgb(242, 245, 250); opacity: 1; font-weight: normal; white-space: pre;">Deaths</text></g><g class="annotation" data-index="0" style="opacity: 1;"><g class="annotation-text-g" transform="rotate(0,228.275,89.5)"><g class="cursor-pointer" transform="translate(204, 79)"><rect class="bg" x="0.5" y="0.5" width="48" height="20" style="stroke-width: 1px; stroke: rgb(0, 0, 0); stroke-opacity: 0; fill: rgb(0, 0, 0); fill-opacity: 0;"/><text class="annotation-text" text-anchor="middle" x="24.6875" y="16" style="font-family: 'Open Sans', verdana, arial, sans-serif; font-size: 16px; fill: rgb(242, 245, 250); fill-opacity: 1; white-space: pre;">Cases</text></g></g></g><g class="annotation" data-index="1" style="opacity: 1;"><g class="annotation-text-g" transform="rotate(0,590.725,89.5)"><g class="cursor-pointer" transform="translate(563, 79)"><rect class="bg" x="0.5" y="0.5" width="54" height="20" style="stroke-width: 1px; stroke: rgb(0, 0, 0); stroke-opacity: 0; fill: rgb(0, 0, 0); fill-opacity: 0;"/><text class="annotation-text" text-anchor="middle" x="27.359375" y="16" style="font-family: 'Open Sans', verdana, arial, sans-serif; font-size: 16px; fill: rgb(242, 245, 250); fill-opacity: 1; white-space: pre;">Deaths</text></g></g></g></g></svg>