<svg class="main-svg" xmlns="http://www.w3.org/2000/svg" xmlns:xlink="http://www.w3.org/1999/xlink" width="900" height="450" style="" viewBox="0 0 900 450"><rect x="0" y="0" width="900" height="450" style="fill: rgb(17, 17, 17); fill-opacity: 1;"/><defs id="defs-683570"><g class="clips"><clipPath id="clip683570xyplot" class="plotclip"><rect width="304.2" height="270"/></clipPath><clipPath id="clip683570x2y2plot" class="plotclip"><rect width="304.2" height="270"/></clipPath><clipPath class="axesclip" id="clip683570x"><rect x="80" y="0" width="304.2" height="450"/></clipPath><clipPath class="axesclip" id="clip683570y"><rect x="0" y="100" width="900" height="270"/></clipPath><clipPath class="axesclip" id="clip683570xy"><rect x="80" y="100" width="304.2" height="270"/></clipPath><clipPath class="axesclip" id="clip683570y2"><rect x="0" y="100" width="900" height="270"/></clipPath><clipPath class="axesclip" id="clip683570xy2"><rect x="80" y="100" width="304.2" height="270"/></clipPath><clipPath class="axesclip" id="clip683570x2"><rect x="451.8" y="0" width="304.2" height="450"/></clipPath><clipPath class="axesclip" id="clip683570x2y"><rect x="451.8" y="100" width="304.2" height="270"/></clipPath><clipPath class="axesclip" id="clip683570x2y2"><rect x="451.8" y="100" width="304.2" height="270"/></clipPath></g><g class="gradients"/></defs><g class="bglayer"/><g class="layer-below"><g class="imagelayer"/><g class="shapelayer"/></g><g class="cartesianlayer"><g class="subplot xy"><g class="layer-subplot"><g class="shapelayer"/><g class="imagelayer"/></g><g class="gridlayer"><g class="x"><path class="xgrid crisp" transform="translate(120.35,0)" d="M0,100v270" style="stroke: rgb(40, 52, 66); stroke-opacity: 1; stroke-width: 1px;"/><path class="xgrid crisp" transform="translate(183.47,0)" d="M0,100v270" style="stroke: rgb(40, 52, 66); stroke-opacity: 1; stroke-width: 1px;"/><path class="xgrid crisp" transform="translate(246.59,0)" d="M0,100v270" style="stroke: rgb(40, 52, 66); stroke-opacity: 1; stroke-width: 1px;"/><path class="xgrid crisp" transform="translate(310.74,0)" d="M0,100v270" style="stroke: rgb(40, 52, 66); stroke-opacity: 1; stroke-width: 1px;"/><path class="xgrid crisp" transform="translate(373.85,0)" d="M0,100v270" style="stroke: rgb(40, 52, 66); stroke-opacity: 1; stroke-width: 1px;"/></g><g class="y"><path class="ygrid crisp" transform="translate(0,313.01)" d="M80,0h304.2" style="stroke: rgb(40, 52, 66); stroke-opacity: 1; stroke-width: 1px;"/><path class="ygrid crisp" transform="translate(0,269.52)" d="M80,0h304.2" style="stroke: rgb(40, 52, 66); stroke-opacity: 1; stroke-width: 1px;"/><path class="ygrid crisp" transform="translate(0,226.03)" d="M80,0h304.2" style="stroke: rgb(40, 52, 66); stroke-opacity: 1; stroke-width: 1px;"/><path class="ygrid crisp" transform="translate(0,182.54000000000002)" d="M80,0h304.2" style="stroke: rgb(40, 52, 66); stroke-opacity: 1; stroke-width: 1px;"/><path class="ygrid crisp" transform="translate(0,139.05)" d="M80,0h304.2" style="stroke: rgb(40, 52, 66); stroke-opacity: 1; stroke-width: 1px;"/></g></g><g class="zerolinelayer"><path class="yzl zl crisp" transform="translate(0,356.5)" d="M80,0h304.2" style="stroke: rgb(40, 52, 66); stroke-opacity: 1; stroke-width: 2px;"/></g><path class="xlines-below"/><path class="ylines-below"/><g class="overlines-below"/><g class="xaxislayer-below"/><g class="yaxislayer-below"/><g class="overaxes-below"/><g class="plot" transform="translate(80, 100)" clip-path="url('#clip683570xyplot')"><g class="scatterlayer mlayer"><g class="trace scatter tracec94f5b" style="stroke-miterlimit: 2; opacity: 1;"><g class="fills"/><g class="errorbars"/><g class="lines"><path class="js-line" d="M0,256.5L61.05,255.93L62.08,255.58L71.39,253.78L72.43,253.38L86.91,248.13L87.95,247.74L98.3,243.73L99.33,243.47L110.71,239.44L111.75,238.9L121.06,235.13L122.09,234.56L125.2,232.95L126.23,232.43L142.79,222.19L143.82,221.84L147.96,219.36L149,218.93L152.1,217.07L153.13,216.16L156.24,214.71L157.27,212.95L162.45,207.72L163.48,207.18L164.52,206.38L165.55,204.63L168.66,200.21L169.69,199.48L170.72,196.88L171.76,196.6L172.79,196.6L173.83,193.48L176.93,189.31L177.97,189.31L182.11,181.46L183.14,179.45L185.21,176.16L186.24,175.99L187.28,174.89L188.31,172.63L191.42,166.65L192.45,166.3L193.49,165.71L194.52,164.02L195.56,162.8L196.59,159.68L197.63,159.68L198.66,156.61L199.7,156.27L200.73,153.47L201.77,152.92L202.8,150.94L205.9,150.94L206.94,141.7L207.97,141.53L209.01,137.65L211.08,132.74L212.11,129.88L213.15,129.88L214.18,124.96L215.22,124.9L216.25,122.23L219.36,113.26L220.39,111.31L222.46,110.96L223.49,106.24L224.53,105.29L225.56,103.24L226.6,101.27L227.63,101.27L234.88,90.1L235.91,90.1L236.94,88.2L237.98,88.2L240.05,85.07L241.08,84.12L242.12,83.96L243.15,82.62L247.29,81.13L248.33,79.38L251.43,76.97L252.47,76.04L259.71,71.04L260.74,70.51L269.02,65.69L270.06,65.65L272.12,63.85L273.16,63.85L275.23,62.32L276.26,61.93L278.33,61.16L279.37,59.62L287.64,53.05L288.68,53.05L290.75,50.92L291.78,49.71L299.03,44.12L300.06,41.98L303.17,38.1L304.2,36.89" style="vector-effect: non-scaling-stroke; fill: none; stroke: rgb(230, 25, 75); stroke-opacity: 1; stroke-width: 2px; opacity: 1;"/></g><g class="points"/><g class="text"/></g><g class="trace scatter tracebb63ba" style="stroke-miterlimit: 2; opacity: 1;"><g class="fills"/><g class="errorbars"/><g class="lines"><path class="js-line" d="M0,256.5L63.12,255.79L64.15,255.38L77.6,244.48L78.64,242.65L90.02,224.67L91.05,223.54L94.16,219.86L95.19,217L97.26,211.51L98.3,210.51L101.4,206.92L102.43,205.22L105.54,201.88L106.57,200.99L120.02,191.49L121.06,191.06L134.51,186.23L135.54,181.82L144.86,180.19L145.89,179.88L151.07,179.16L152.1,179.02L164.52,176.82L165.55,176.78L179,174L180.04,173.61L191.42,170.1L192.45,169.77L197.63,167.47L198.66,166.87L210.04,163.59L211.08,163.59L218.32,163.59L219.36,162.19L224.53,161.5L225.56,161.33L236.94,159.2L237.98,159.16L245.22,157.77L246.26,157.55L252.47,155.89L253.5,155.89L262.81,153.15L263.85,152.71L275.23,148.41L276.26,148.13L285.58,144.12L286.61,143.58L292.82,139.58L293.85,138.72L296.96,136.97L297.99,136.07L304.2,129.15" style="vector-effect: non-scaling-stroke; fill: none; stroke: rgb(60, 180, 75); stroke-opacity: 1; stroke-width: 2px; opacity: 1;"/></g><g class="points"/><g class="text"/></g><g class="trace scatter tracee965af" style="stroke-miterlimit: 2; opacity: 1;"><g class="fills"/><g class="errorbars"/><g class="lines"><path class="js-line" d="M0,256.5L151.07,255.78L152.1,255.73L187.28,253.13L188.31,252.93L199.7,251.47L200.73,251.46L236.94,249.31L237.98,249.25L244.19,248.74L245.22,247.93L252.47,245.98L253.5,245.65L259.71,242.91L260.74,242.12L270.06,235.02L271.09,234.09L275.23,229.76L276.26,228.56L277.3,227.26L278.33,227.26L279.37,227.26L280.4,225.15L290.75,210.78L291.78,208.59L294.89,204.38L295.92,203.21L300.06,195.72L301.1,194.23L304.2,188.31" style="vector-effect: non-scaling-stroke; fill: none; stroke: rgb(255, 225, 25); stroke-opacity: 1; stroke-width: 2px; opacity: 1;"/></g><g class="points"/><g class="text"/></g><g class="trace scatter trace545eb1" style="stroke-miterlimit: 2; opacity: 1;"><g class="fills"/><g class="errorbars"/><g class="lines"><path class="js-line" d="M0,256.5L63.12,255.87L64.15,255.47L67.26,253.46L68.29,252.39L73.46,247.46L74.5,245.73L79.67,238.21L80.71,236.18L83.81,228.93L84.84,226.81L86.91,222.63L87.95,219.58L91.05,211.68L92.09,210.44L94.16,206.2L95.19,202.41L97.26,193.77L98.3,191.36L100.37,187.16L101.4,183.61L106.57,171.5L107.61,169.7L111.75,158.99L112.78,157.75L114.85,155.85L115.89,154.71L118.99,149.39L120.02,148.11L124.16,142.88L125.2,141.51L134.51,132.77L135.54,128.46L142.79,123.98L143.82,123.68L147.96,121.05L149,120.78L159.34,118.03L160.38,117.75L171.76,114.87L172.79,114.57L183.14,111.84L184.18,111.16L193.49,108.72L194.52,108.35L199.7,105.28L200.73,104.97L209.01,100.55L210.04,100.55L218.32,100.55L219.36,96.41L223.49,95.04L224.53,94.48L237.98,89.02L239.01,88.82L246.26,86.07L247.29,85.68L252.47,83.03L253.5,83.03L256.6,79.55L257.64,78.44L259.71,77.08L260.74,76.12L266.95,70.55L267.99,69.71L270.06,68.17L271.09,67.02L280.4,57.33L281.44,56.26L285.58,50.83L286.61,48.78L289.71,44.72L290.75,42.81L294.89,36.28L295.92,35.31L302.13,18.81L303.17,16.47L304.2,13.5" style="vector-effect: non-scaling-stroke; fill: none; stroke: rgb(67, 99, 216); stroke-opacity: 1; stroke-width: 2px; opacity: 1;"/></g><g class="points"/><g class="text"/></g><g class="trace scatter trace28c194" style="stroke-miterlimit: 2; opacity: 1;"><g class="fills"/><g class="errorbars"/><g class="lines"><path class="js-line" d="M0,256.5L66.22,255.98L67.26,255.6L78.64,253L79.67,252.34L90.02,250.51L91.05,249.42L97.26,246.81L98.3,246.76L100.37,245.85L101.4,245.36L108.64,243.15L109.68,242.77L127.27,238.67L128.3,238.67L130.37,236.9L131.41,236.78L138.65,232.49L139.68,231.77L140.72,230.03L141.75,230.03L146.93,227.99L147.96,227.6L150.03,227.25L151.07,226.82L169.69,221.41L170.72,221.41L172.79,219.68L173.83,218.99L177.97,216.83L179,216.59L184.18,213.34L185.21,211.53L189.35,207.49L190.38,205.74L192.45,203.14L193.49,201.53L204.87,188.46L205.9,187.06L209.01,184.49L210.04,179.94L217.29,170.38L218.32,169.05L220.39,165.26L221.42,165.26L225.56,159.37L226.6,157.75L227.63,155.47L228.67,155.47L233.84,146.76L234.88,145.01L240.05,140.98L241.08,139.56L246.26,134.56L247.29,133.85L250.4,130.35L251.43,129.82L255.57,124.43L256.6,122.4L259.71,119.18L260.74,117.53L275.23,96.58L276.26,94.69L283.51,78.71L284.54,76.05L293.85,48.64L294.89,46.93L302.13,25.02L303.17,22.01L304.2,17.85" style="vector-effect: non-scaling-stroke; fill: none; stroke: rgb(245, 130, 49); stroke-opacity: 1; stroke-width: 2px; opacity: 1;"/></g><g class="points"/><g class="text"/></g><g class="trace scatter tracec9c9c4" style="stroke-miterlimit: 2; opacity: 1;"><g class="fills"/><g class="errorbars"/><g class="lines"><path class="js-line" d="M0,256.5L62.08,256.03L63.12,255.74L67.26,254.6L68.29,253.73L71.39,252.69L72.43,251.26L79.67,244.8L80.71,244.65L85.88,241.99L86.91,241.27L91.05,238.5L92.09,238.16L94.16,237.08L95.19,235.19L99.33,230.22L100.37,229.63L113.82,217.51L114.85,217.1L124.16,210.66L125.2,209.56L127.27,207.57L128.3,206.92L139.68,201.19L140.72,200.58L147.96,197.76L149,197.49L179,188.95L180.04,188.37L185.21,186.61L186.24,186.52L191.42,184.46L192.45,184.3L197.63,182.64L198.66,182.15L203.83,180.51L204.87,180.04L210.04,178.11L211.08,177.93L219.36,175.05L220.39,174.63L232.81,168.77L233.84,168.16L257.64,157.85L258.67,157.7L263.85,154.76L264.88,154.15L270.06,152.14L271.09,151.65L289.71,143.25L290.75,142.03L295.92,136.92L296.96,135.53L300.06,128.49L301.1,126.14L303.17,120.76L304.2,117.09" style="vector-effect: non-scaling-stroke; fill: none; stroke: rgb(145, 30, 180); stroke-opacity: 1; stroke-width: 2px; opacity: 1;"/></g><g class="points"/><g class="text"/></g></g></g><g class="overplot"/><path class="xlines-above crisp" d="M0,0" style="fill: none;"/><path class="ylines-above crisp" d="M0,0" style="fill: none;"/><g class="overlines-above"/><g class="xaxislayer-above"><g class="xtick"><text text-anchor="middle" x="0" y="383" transform="translate(120.35,0)" style="font-family: 'Open Sans', verdana, arial, sans-serif; font-size: 12px; fill: rgb(242, 245, 250); fill-opacity: 1; white-space: pre;">Mar 2020</text></g><g class="xtick"><text text-anchor="middle" x="0" y="383" transform="translate(183.47,0)" style="font-family: 'Open Sans', verdana, arial, sans-serif; font-size: 12px; fill: rgb(242, 245, 250); fill-opacity: 1; white-space: pre;">May 2020</text></g><g class="xtick"><text text-anchor="middle" x="0" y="383" transform="translate(246.59,0)" style="font-family: 'Open Sans', verdana, arial, sans-serif; font-size: 12px; fill: rgb(242, 245, 250); fill-opacity: 1; white-space: pre;">Jul 2020</text></g><g class="xtick"><text text-anchor="middle" x="0" y="383" transform="translate(310.74,0)" style="font-family: 'Open Sans', verdana, arial, sans-serif; font-size: 12px; fill: rgb(242, 245, 250); fill-opacity: 1; white-space: pre;">Sep 2020</text></g><g class="xtick"><text text-anchor="middle" x="0" y="383" transform="translate(373.85,0)" style="font-family: 'Open Sans', verdana, arial, sans-serif; font-size: 12px; fill: rgb(242, 245, 250); fill-opacity: 1; white-space: pre;">Nov 2020</text></g></g><g class="yaxislayer-above"><g class="ytick"><text text-anchor="end" x="79" y="4.199999999999999" transform="translate(0,356.5)" style="font-family: 'Open Sans', verdana, arial, sans-serif; font-size: 12px; fill: rgb(242, 245, 250); fill-opacity: 1; white-space: pre;">0</text></g><g class="ytick"><text text-anchor="end" x="79" y="4.199999999999999" transform="translate(0,313.01)" style="font-family: 'Open Sans', verdana, arial, sans-serif; font-size: 12px; fill: rgb(242, 245, 250); fill-opacity: 1; white-space: pre;">5k</text></g><g class="ytick"><text text-anchor="end" x="79" y="4.199999999999999" transform="translate(0,269.52)" style="font-family: 'Open Sans', verdana, arial, sans-serif; font-size: 12px; fill: rgb(242, 245, 250); fill-opacity: 1; white-space: pre;">10k</text></g><g class="ytick"><text text-anchor="end" x="79" y="4.199999999999999" transform="translate(0,226.03)" style="font-family: 'Open Sans', verdana, arial, sans-serif; font-size: 12px; fill: rgb(242, 245, 250); fill-opacity: 1; white-space: pre;">15k</text></g><g class="ytick"><text text-anchor="end" x="79" y="4.199999999999999" transform="translate(0,182.54000000000002)" style="font-family: 'Open Sans', verdana, arial, sans-serif; font-size: 12px; fill: rgb(242, 245, 250); fill-opacity: 1; white-space: pre;">20k</text></g><g class="ytick"><text text-anchor="end" x="79" y="4.199999999999999" transform="translate(0,139.05)" style="font-family: 'Open Sans', verdana, arial, sans-serif; font-size: 12px; fill: rgb(242, 245, 250); fill-opacity: 1; white-space: pre;">25k</text></g></g><g class="overaxes-above"/></g><g class="subplot x2y2"><g class="layer-subplot"><g class="shapelayer"/><g class="imagelayer"/></g><g class="gridlayer"><g class="x2"><path class="x2grid crisp" transform="translate(492.15000000000003,0)" d="M0,100v270" style="stroke: rgb(40, 52, 66); stroke-opacity: 1; stroke-width: 1px;"/><path class="x2grid crisp" transform="translate(555.27,0)" d="M0,100v270" style="stroke: rgb(40, 52, 66); stroke-opacity: 1; stroke-width: 1px;"/><path class="x2grid crisp" transform="translate(618.39,0)" d="M0,100v270" style="stroke: rgb(40, 52, 66); stroke-opacity: 1; stroke-width: 1px;"/><path class="x2grid crisp" transform="translate(682.54,0)" d="M0,100v270" style="stroke: rgb(40, 52, 66); stroke-opacity: 1; stroke-width: 1px;"/><path class="x2grid crisp" transform="translate(745.6500000000001,0)" d="M0,100v270" style="stroke: rgb(40, 52, 66); stroke-opacity: 1; stroke-width: 1px;"/></g><g class="y2"><path class="y2grid crisp" transform="translate(0,321.33000000000004)" d="M451.8,0h304.2" style="stroke: rgb(40, 52, 66); stroke-opacity: 1; stroke-width: 1px;"/><path class="y2grid crisp" transform="translate(0,286.16999999999996)" d="M451.8,0h304.2" style="stroke: rgb(40, 52, 66); stroke-opacity: 1; stroke-width: 1px;"/><path class="y2grid crisp" transform="translate(0,251)" d="M451.8,0h304.2" style="stroke: rgb(40, 52, 66); stroke-opacity: 1; stroke-width: 1px;"/><path class="y2grid crisp" transform="translate(0,215.82999999999998)" d="M451.8,0h304.2" style="stroke: rgb(40, 52, 66); stroke-opacity: 1; stroke-width: 1px;"/><path class="y2grid crisp" transform="translate(0,180.67000000000002)" d="M451.8,0h304.2" style="stroke: rgb(40, 52, 66); stroke-opacity: 1; stroke-width: 1px;"/><path class="y2grid crisp" transform="translate(0,145.5)" d="M451.8,0h304.2" style="stroke: rgb(40, 52, 66); stroke-opacity: 1; stroke-width: 1px;"/><path class="y2grid crisp" transform="translate(0,110.34)" d="M451.8,0h304.2" style="stroke: rgb(40, 52, 66); stroke-opacity: 1; stroke-width: 1px;"/></g></g><g class="zerolinelayer"><path class="y2zl zl crisp" transform="translate(0,356.5)" d="M451.8,0h304.2" style="stroke: rgb(40, 52, 66); stroke-opacity: 1; stroke-width: 2px;"/></g><path class="xlines-below"/><path class="ylines-below"/><g class="overlines-below"/><g class="xaxislayer-below"/><g class="yaxislayer-below"/><g class="overaxes-below"/><g class="plot" transform="translate(451.8, 100)" clip-path="url('#clip683570x2y2plot')"><g class="scatterlayer mlayer"><g class="trace scatter trace97ad3a" style="stroke-miterlimit: 2; opacity: 1;"><g class="fills"/><g class="errorbars"/><g class="lines"><path class="js-line" d="M0,256.5L67.26,255.8L68.29,255.45L85.88,252.46L86.91,250.17L90.02,249.29L91.05,249.12L95.19,248.41L96.23,248.06L98.3,247.36L99.33,247.36L104.5,245.42L105.54,245.42L109.68,244.72L110.71,244.19L115.89,243.14L116.92,242.61L118.99,241.91L120.02,241.91L122.09,241.38L123.13,241.03L127.27,240.15L128.3,240.15L138.65,239.44L139.68,238.74L144.86,238.04L145.89,237.51L159.34,235.05L160.38,233.99L168.66,231.88L169.69,231.88L173.83,231.53L174.86,230.83L182.11,229.42L183.14,228.19L187.28,227.14L188.31,226.43L192.45,225.2L193.49,225.2L195.56,224.67L196.59,224.5L197.63,224.5L198.66,223.27L205.9,222.56L206.94,220.45L209.01,220.45L210.04,219.22L213.15,217.99L214.18,217.64L216.25,217.11L217.29,216.41L220.39,215.53L221.42,215.36L222.46,215.36L223.49,214.3L226.6,213.07L227.63,213.07L228.67,211.31L229.7,211.31L230.74,211.31L231.77,208.32L232.81,204.63L233.84,204.45L235.91,203.93L236.94,203.75L240.05,203.22L241.08,200.23L242.12,200.23L243.15,198.12L244.19,197.95L245.22,193.9L246.26,193.9L247.29,192.32L249.36,190.74L250.4,190.74L251.43,190.74L252.47,187.93L256.6,185.11L257.64,185.11L259.71,184.76L260.74,184.06L261.78,182.65L262.81,182.65L264.88,181.77L265.92,181.77L270.06,180.72L271.09,180.72L282.47,180.01L283.51,176.32L285.58,175.62L286.61,175.44L297.99,174.74L299.03,173.68L301.1,173.16L302.13,173.16L303.17,173.16L304.2,171.57" style="vector-effect: non-scaling-stroke; fill: none; stroke: rgb(230, 25, 75); stroke-opacity: 1; stroke-width: 2px; opacity: 1;"/></g><g class="points"/><g class="text"/></g><g class="trace scatter trace3fba02" style="stroke-miterlimit: 2; opacity: 1;"><g class="fills"/><g class="errorbars"/><g class="lines"><path class="js-line" d="M0,256.5L66.22,256.15L67.26,255.45L72.43,253.86L73.46,252.81L78.64,250.35L79.67,249.29L81.74,245.07L82.78,242.43L85.88,234.7L86.91,230.48L94.16,201.64L95.19,197.6L98.3,183L99.33,181.07L100.37,177.73L101.4,171.4L105.54,159.79L106.57,158.91L110.71,146.96L111.75,144.85L113.82,140.27L114.85,139.92L118.99,130.08L120.02,129.02L122.09,127.26L123.13,124.8L126.23,120.41L127.27,119L128.3,118.65L129.34,117.42L131.41,116.01L132.44,113.9L134.51,112.14L135.54,108.63L143.82,103.53L144.86,103L151.07,99.83L152.1,97.72L157.27,95.79L158.31,94.91L160.38,94.21L161.41,94.21L165.55,94.21L166.59,92.98L170.72,91.22L171.76,91.22L173.83,90.69L174.86,89.46L176.93,88.23L177.97,88.05L182.11,87.35L183.14,87.17L186.24,86.29L187.28,85.94L192.45,84.71L193.49,84.71L195.56,84.36L196.59,83.83L205.9,81.2L206.94,81.2L216.25,81.2L217.29,79.96L224.53,79.26L225.56,78.73L228.67,77.68L229.7,77.5L236.94,76.8L237.98,76.1L242.12,75.39L243.15,74.87L246.26,73.99L247.29,73.28L252.47,72.23L253.5,72.23L257.64,70.47L258.67,70.29L267.99,67.13L269.02,67.13L279.37,64.67L280.4,64.32L283.51,63.61L284.54,63.26L291.78,61.15L292.82,61.15L300.06,59.39L301.1,58.34L303.17,57.81L304.2,56.75" style="vector-effect: non-scaling-stroke; fill: none; stroke: rgb(60, 180, 75); stroke-opacity: 1; stroke-width: 2px; opacity: 1;"/></g><g class="points"/><g class="text"/></g><g class="trace scatter trace141ca2" style="stroke-miterlimit: 2; opacity: 1;"><g class="fills"/><g class="errorbars"/><g class="lines"><path class="js-line" d="M0,256.5L195.56,255.8L196.59,255.62L207.97,254.92L209.01,254.74L259.71,254.04L260.74,253.86L265.92,253.69L266.95,252.63L277.3,250.87L278.33,250.87L283.51,249.47L284.54,248.59L286.61,248.24L287.64,247.36L292.82,246.48L293.85,245.77L295.92,245.25L296.96,244.72L299.03,244.02L300.06,244.02L302.13,243.31L303.17,242.08L304.2,241.2" style="vector-effect: non-scaling-stroke; fill: none; stroke: rgb(255, 225, 25); stroke-opacity: 1; stroke-width: 2px; opacity: 1;"/></g><g class="points"/><g class="text"/></g><g class="trace scatter trace09a5e2" style="stroke-miterlimit: 2; opacity: 1;"><g class="fills"/><g class="errorbars"/><g class="lines"><path class="js-line" d="M0,256.5L69.32,255.8L70.36,255.45L72.43,253.51L73.46,253.34L75.53,252.1L76.57,251.75L78.64,250.17L79.67,247.53L80.71,245.95L81.74,242.61L86.91,231.88L87.95,228.54L95.19,205.16L96.23,200.41L100.37,189.16L101.4,181.77L104.5,171.4L105.54,168.76L107.61,163.84L108.64,157.86L110.71,150.82L111.75,146.6L116.92,129.02L117.96,124.45L121.06,117.59L122.09,116.36L125.2,108.45L126.23,107.39L128.3,104.76L129.34,103.53L130.37,102.12L131.41,99.13L134.51,93.86L135.54,86.29L136.58,85.77L137.61,84.36L141.75,80.14L142.79,79.61L145.89,75.22L146.93,74.51L150.03,71.7L151.07,71.52L156.24,67.3L157.27,67.13L165.55,62.38L166.59,62.38L169.69,59.74L170.72,59.74L176.93,56.75L177.97,56.75L184.18,56.05L185.21,55.52L187.28,55L188.31,53.94L192.45,51.3L193.49,50.95L195.56,49.9L196.59,49.55L197.63,49.55L198.66,48.67L212.11,46.56L213.15,46.56L216.25,46.56L217.29,44.62L219.36,44.27L220.39,42.86L221.42,42.86L222.46,41.98L228.67,39.17L229.7,38.64L232.81,37.94L233.84,36.89L240.05,35.48L241.08,35.3L248.33,34.6L249.36,33.9L259.71,30.91L260.74,29.68L263.85,28.8L264.88,28.62L267.99,27.39L269.02,26.86L275.23,25.28L276.26,24.75L288.68,20.53L289.71,20.36L293.85,17.72L294.89,17.72L296.96,17.02L297.99,17.02L303.17,14.91L304.2,13.5" style="vector-effect: non-scaling-stroke; fill: none; stroke: rgb(67, 99, 216); stroke-opacity: 1; stroke-width: 2px; opacity: 1;"/></g><g class="points"/><g class="text"/></g><g class="trace scatter trace906a60" style="stroke-miterlimit: 2; opacity: 1;"><g class="fills"/><g class="errorbars"/><g class="lines"><path class="js-line" d="M0,256.5L70.36,255.8L71.39,255.09L73.46,254.21L74.5,253.51L76.57,252.98L77.6,252.46L82.78,249.12L83.81,249.12L90.02,245.42L91.05,245.25L97.26,242.26L98.3,242.26L106.57,238.74L107.61,238.04L120.02,235.93L121.06,233.82L127.27,231.71L128.3,231.71L132.44,231L133.48,229.6L136.58,228.89L137.61,228.37L141.75,226.78L142.79,226.78L145.89,226.26L146.93,225.73L151.07,225.2L152.1,224.5L159.34,223.97L160.38,223.62L162.45,223.09L163.48,223.09L165.55,222.56L166.59,222.04L171.76,221.33L172.79,221.16L174.86,220.63L175.9,220.63L179,220.28L180.04,220.28L184.18,218.87L185.21,218.7L191.42,218.17L192.45,217.82L193.49,216.59L194.52,216.59L196.59,215.88L197.63,215.71L206.94,214.83L207.97,214.83L211.08,213.07L212.11,212.72L217.29,211.66L218.32,211.66L224.53,210.26L225.56,210.26L231.77,209.9L232.81,208.67L235.91,208.32L236.94,208.32L237.98,208.32L239.01,207.44L241.08,206.39L242.12,205.68L246.26,204.98L247.29,204.81L252.47,204.28L253.5,203.75L258.67,202.52L259.71,202.52L280.4,198.65L281.44,197.95L284.54,195.49L285.58,195.31L287.64,195.31L288.68,193.9L292.82,191.97L293.85,191.79L294.89,191.79L295.92,190.91L297.99,188.45L299.03,188.45L301.1,187.75L302.13,187.57L303.17,187.57L304.2,186.17" style="vector-effect: non-scaling-stroke; fill: none; stroke: rgb(245, 130, 49); stroke-opacity: 1; stroke-width: 2px; opacity: 1;"/></g><g class="points"/><g class="text"/></g><g class="trace scatter trace41d414" style="stroke-miterlimit: 2; opacity: 1;"><g class="fills"/><g class="errorbars"/><g class="lines"><path class="js-line" d="M0,256.5L65.19,256.32L66.22,255.62L70.36,255.09L71.39,254.74L72.43,254.57L73.46,253.16L77.6,251.23L78.64,249.64L79.67,249.64L80.71,248.41L83.81,244.19L84.84,242.26L86.91,238.21L87.95,237.33L90.02,237.33L91.05,232.59L95.19,227.49L96.23,224.15L98.3,222.74L99.33,222.21L104.5,216.41L105.54,215.18L106.57,214.65L107.61,212.89L108.64,199.88L109.68,197.77L110.71,196.89L111.75,194.78L125.2,176.67L126.23,175.62L130.37,171.22L131.41,169.64L133.48,169.11L134.51,169.11L136.58,166.47L137.61,165.77L140.72,163.84L141.75,163.48L153.13,158.03L154.17,157.86L160.38,156.45L161.41,156.45L169.69,155.75L170.72,155.57L180.04,154.87L181.07,154.52L197.63,152.06L198.66,152.06L207.97,151.35L209.01,151.18L212.11,150.82L213.15,150.82L221.42,150.12L222.46,150.12L236.94,149.42L237.98,149.24L253.5,146.96L254.53,146.96L262.81,146.25L263.85,145.9L266.95,145.02L267.99,144.85L277.3,143.97L278.33,143.97L301.1,140.27L302.13,139.04L304.2,137.64" style="vector-effect: non-scaling-stroke; fill: none; stroke: rgb(145, 30, 180); stroke-opacity: 1; stroke-width: 2px; opacity: 1;"/></g><g class="points"/><g class="text"/></g></g></g><g class="overplot"/><path class="xlines-above crisp" d="M0,0" style="fill: none;"/><path class="ylines-above crisp" d="M0,0" style="fill: none;"/><g class="overlines-above"/><g class="xaxislayer-above"><g class="x2tick"><text text-anchor="middle" x="0" y="383" transform="translate(492.15000000000003,0)" style="font-family: 'Open Sans', verdana, arial, sans-serif; font-size: 12px; fill: rgb(242, 245, 250); fill-opacity: 1; white-space: pre;">Mar 2020</text></g><g class="x2tick"><text text-anchor="middle" x="0" y="383" transform="translate(555.27,0)" style="font-family: 'Open Sans', verdana, arial, sans-serif; font-size: 12px; fill: rgb(242, 245, 250); fill-opacity: 1; white-space: pre;">May 2020</text></g><g class="x2tick"><text text-anchor="middle" x="0" y="383" transform="translate(618.39,0)" style="font-family: 'Open Sans', verdana, arial, sans-serif; font-size: 12px; fill: rgb(242, 245, 250); fill-opacity: 1; white-space: pre;">Jul 2020</text></g><g class="x2tick"><text text-anchor="middle" x="0" y="383" transform="translate(682.54,0)" style="font-family: 'Open Sans', verdana, arial, sans-serif; font-size: 12px; fill: rgb(242, 245, 250); fill-opacity: 1; white-space: pre;">Sep 2020</text></g><g class="x2tick"><text text-anchor="middle" x="0" y="383" transform="translate(745.6500000000001,0)" style="font-family: 'Open Sans', verdana, arial, sans-serif; font-size: 12px; fill: rgb(242, 245, 250); fill-opacity: 1; white-space: pre;">Nov 2020</text></g></g><g class="yaxislayer-above"><g class="y2tick"><text text-anchor="end" x="450.8" y="4.199999999999999" transform="translate(0,356.5)" style="font-family: 'Open Sans', verdana, arial, sans-serif; font-size: 12px; fill: rgb(242, 245, 250); fill-opacity: 1; white-space: pre;">0</text></g><g class="y2tick"><text text-anchor="end" x="450.8" y="4.199999999999999" transform="translate(0,321.33000000000004)" style="font-family: 'Open Sans', verdana, arial, sans-serif; font-size: 12px; fill: rgb(242, 245, 250); fill-opacity: 1; white-space: pre;">200</text></g><g class="y2tick"><text text-anchor="end" x="450.8" y="4.199999999999999" transform="translate(0,286.16999999999996)" style="font-family: 'Open Sans', verdana, arial, sans-serif; font-size: 12px; fill: rgb(242, 245, 250); fill-opacity: 1; white-space: pre;">400</text></g><g class="y2tick"><text text-anchor="end" x="450.8" y="4.199999999999999" transform="translate(0,251)" style="font-family: 'Open Sans', verdana, arial, sans-serif; font-size: 12px; fill: rgb(242, 245, 250); fill-opacity: 1; white-space: pre;">600</text></g><g class="y2tick"><text text-anchor="end" x="450.8" y="4.199999999999999" transform="translate(0,215.82999999999998)" style="font-family: 'Open Sans', verdana, arial, sans-serif; font-size: 12px; fill: rgb(242, 245, 250); fill-opacity: 1; white-space: pre;">800</text></g><g class="y2tick"><text text-anchor="end" x="450.8" y="4.199999999999999" transform="translate(0,180.67000000000002)" style="font-family: 'Open Sans', verdana, arial, sans-serif; font-size: 12px; fill: rgb(242, 245, 250); fill-opacity: 1; white-space: pre;">1000</text></g><g class="y2tick"><text text-anchor="end" x="450.8" y="4.199999999999999" transform="translate(0,145.5)" style="font-family: 'Open Sans', verdana, arial, sans-serif; font-size: 12px; fill: rgb(242, 245, 250); fill-opacity: 1; white-space: pre;">1200</text></g><g class="y2tick"><text text-anchor="end" x="450.8" y="4.199999999999999" transform="translate(0,110.34)" style="font-family: 'Open Sans', verdana, arial, sans-serif; font-size: 12px; fill: rgb(242, 245, 250); fill-opacity: 1; white-space: pre;">1400</text></g></g><g class="overaxes-above"/></g></g><g class="polarlayer"/><g class="ternarylayer"/><g class="geolayer"/><g class="funnelarealayer"/><g class="pielayer"/><g class="treemaplayer"/><g class="sunburstlayer"/><g class="glimages"/><defs id="topdefs-683570"><g class="clips"/><clipPath id="legend683570"><rect width="118" height="124" x="0" y="0"/></clipPath></defs><g class="layer-above"><g class="imagelayer"/><g class="shapelayer"/></g><g class="infolayer"><g class="legend" pointer-events="all" transform="translate(769.52, 100)"><rect class="bg" shape-rendering="crispEdges" width="118" height="124" x="0" y="0" style="stroke: rgb(68, 68, 68); stroke-opacity: 1; fill: rgb(17, 17, 17); fill-opacity: 1; stroke-width: 0px;"/><g class="scrollbox" transform="translate(0, 0)" clip-path="url('#legend683570')"><g class="groups"><g class="traces" transform="translate(0, 14.5)" style="opacity: 1;"><text class="legendtext user-select-none" text-anchor="start" x="40" y="4.680000000000001" style="font-family: 'Open Sans', verdana, arial, sans-serif; font-size: 12px; fill: rgb(242, 245, 250); fill-opacity: 1; white-space: pre;">Alameda, CA</text><g class="layers" style="opacity: 1;"><g class="legendfill"/><g class="legendlines"><path class="js-line" d="M5,0h30" style="fill: none; stroke: rgb(230, 25, 75); stroke-opacity: 1; stroke-width: 2px;"/></g><g class="legendsymbols"><g class="legendpoints"/></g></g><rect class="legendtoggle" pointer-events="all" x="0" y="-9.5" width="112.03125" height="19" style="cursor: pointer; fill: rgb(0, 0, 0); fill-opacity: 0;"/></g><g class="traces" transform="translate(0, 33.5)" style="opacity: 1;"><text class="legendtext user-select-none" text-anchor="start" x="40" y="4.680000000000001" style="font-family: 'Open Sans', verdana, arial, sans-serif; font-size: 12px; fill: rgb(242, 245, 250); fill-opacity: 1; white-space: pre;">Norfolk, MA</text><g class="layers" style="opacity: 1;"><g class="legendfill"/><g class="legendlines"><path class="js-line" d="M5,0h30" style="fill: none; stroke: rgb(60, 180, 75); stroke-opacity: 1; stroke-width: 2px;"/></g><g class="legendsymbols"><g class="legendpoints"/></g></g><rect class="legendtoggle" pointer-events="all" x="0" y="-9.5" width="112.03125" height="19" style="cursor: pointer; fill: rgb(0, 0, 0); fill-opacity: 0;"/></g><g class="traces" transform="translate(0, 52.5)" style="opacity: 1;"><text class="legendtext user-select-none" text-anchor="start" x="40" y="4.680000000000001" style="font-family: 'Open Sans', verdana, arial, sans-serif; font-size: 12px; fill: rgb(242, 245, 250); fill-opacity: 1; white-space: pre;">Marathon, WI</text><g class="layers" style="opacity: 1;"><g class="legendfill"/><g class="legendlines"><path class="js-line" d="M5,0h30" style="fill: none; stroke: rgb(255, 225, 25); stroke-opacity: 1; stroke-width: 2px;"/></g><g class="legendsymbols"><g class="legendpoints"/></g></g><rect class="legendtoggle" pointer-events="all" x="0" y="-9.5" width="112.03125" height="19" style="cursor: pointer; fill: rgb(0, 0, 0); fill-opacity: 0;"/></g><g class="traces" transform="translate(0, 71.5)" style="opacity: 1;"><text class="legendtext user-select-none" text-anchor="start" x="40" y="4.680000000000001" style="font-family: 'Open Sans', verdana, arial, sans-serif; font-size: 12px; fill: rgb(242, 245, 250); fill-opacity: 1; white-space: pre;">Essex, MA</text><g class="layers" style="opacity: 1;"><g class="legendfill"/><g class="legendlines"><path class="js-line" d="M5,0h30" style="fill: none; stroke: rgb(67, 99, 216); stroke-opacity: 1; stroke-width: 2px;"/></g><g class="legendsymbols"><g class="legendpoints"/></g></g><rect class="legendtoggle" pointer-events="all" x="0" y="-9.5" width="112.03125" height="19" style="cursor: pointer; fill: rgb(0, 0, 0); fill-opacity: 0;"/></g><g class="traces" transform="translate(0, 90.5)" style="opacity: 1;"><text class="legendtext user-select-none" text-anchor="start" x="40" y="4.680000000000001" style="font-family: 'Open Sans', verdana, arial, sans-serif; font-size: 12px; fill: rgb(242, 245, 250); fill-opacity: 1; white-space: pre;">Jefferson, KY</text><g class="layers" style="opacity: 1;"><g class="legendfill"/><g class="legendlines"><path class="js-line" d="M5,0h30" style="fill: none; stroke: rgb(245, 130, 49); stroke-opacity: 1; stroke-width: 2px;"/></g><g class="legendsymbols"><g class="legendpoints"/></g></g><rect class="legendtoggle" pointer-events="all" x="0" y="-9.5" width="112.03125" height="19" style="cursor: pointer; fill: rgb(0, 0, 0); fill-opacity: 0;"/></g><g class="traces" transform="translate(0, 109.5)" style="opacity: 1;"><text class="legendtext user-select-none" text-anchor="start" x="40" y="4.680000000000001" style="font-family: 'Open Sans', verdana, arial, sans-serif; font-size: 12px; fill: rgb(242, 245, 250); fill-opacity: 1; white-space: pre;">Erie, NY</text><g class="layers" style="opacity: 1;"><g class="legendfill"/><g class="legendlines"><path class="js-line" d="M5,0h30" style="fill: none; stroke: rgb(145, 30, 180); stroke-opacity: 1; stroke-width: 2px;"/></g><g class="legendsymbols"><g class="legendpoints"/></g></g><rect class="legendtoggle" pointer-events="all" x="0" y="-9.5" width="112.03125" height="19" style="cursor: pointer; fill: rgb(0, 0, 0); fill-opacity: 0;"/></g></g></g><rect class="scrollbar" rx="20" ry="3" width="0" height="0" x="0" y="0" style="fill: rgb(128, 139, 164); fill-opacity: 1;"/></g><g class="g-gtitle"/><g class="g-xtitle"><text class="xtitle" x="232.1" y="410.8" text-anchor="middle" style="font-family: 'Open Sans', verdana, arial, sans-serif; font-size: 14px; fill: rgb(242, 245, 250); opacity: 1; font-weight: normal; white-space: pre;">Date</text></g><g class="g-x2title"><text class="x2title" x="603.9" y="410.8" text-anchor="middle" style="font-family: 'Open Sans', verdana, arial, sans-serif; font-size: 14px; fill: rgb(242, 245, 250); opacity: 1; font-weight: normal; white-space: pre;">Date</text></g><g class="g-ytitle"><text class="ytitle" transform="rotate(-90,34.840625,235)" x="34.840625" y="235" text-anchor="middle" style="font-family: 'Open Sans', verdana, arial, sans-serif; font-size: 14px; fill: rgb(242, 245, 250); opacity: 1; font-weight: normal; white-space: pre;">Cases</text></g><g class="g-y2title"><text class="y2title" transform="rotate(-90,399.29375,235)" x="399.29375" y="235" text-anchor="middle" style="font-family: 'Open Sans', verdana, arial, sans-serif; font-size: 14px; fill: rgb(242, 245, 250); opacity: 1; font-weight: normal; white-space: pre;">Deaths</text></g><g class="annotation" data-index="0" style="opacity: 1;"><g class="annotation-text-g" transform="rotate(0,232.1,89.5)"><g class="cursor-pointer" transform="translate(208, 79)"><rect class="bg" x="0.5" y="0.5" width="48" height="20" style="stroke-width: 1px; stroke: rgb(0, 0, 0); stroke-opacity: 0; fill: rgb(0, 0, 0); fill-opacity: 0;"/><text class="annotation-text" text-anchor="middle" x="24.6875" y="16" style="font-family: 'Open Sans', verdana, arial, sans-serif; font-size: 16px; fill: rgb(242, 245, 250); fill-opacity: 1; white-space: pre;">Cases</text></g></g></g><g class="annotation" data-index="1" style="opacity: 1;"><g class="annotation-text-g" transform="rotate(0,603.9,89.5)"><g class="cursor-pointer" transform="translate(576, 79)"><rect class="bg" x="0.5" y="0.5" width="54" height="20" style="stroke-width: 1px; stroke: rgb(0, 0, 0); stroke-opacity: 0; fill: rgb(0, 0, 0); fill-opacity: 0;"/><text class="annotation-text" text-anchor="middle" x="27.359375" y="16" style="font-family: 'Open Sans', verdana, arial, sans-serif; font-size: 16px; fill: rgb(242, 245, 250); fill-opacity: 1; white-space: pre;">Deaths</text></g></g></g></g></svg>