<svg class="main-svg" xmlns="http://www.w3.org/2000/svg" xmlns:xlink="http://www.w3.org/1999/xlink" width="900" height="450" style="" viewBox="0 0 900 450"><rect x="0" y="0" width="900" height="450" style="fill: rgb(17, 17, 17); fill-opacity: 1;"/><defs id="defs-3fd075"><g class="clips"><clipPath id="clip3fd075xyplot" class="plotclip"><rect width="297" height="270"/></clipPath><clipPath id="clip3fd075x2y2plot" class="plotclip"><rect width="296.99999999999994" height="270"/></clipPath><clipPath class="axesclip" id="clip3fd075x"><rect x="80" y="0" width="297" height="450"/></clipPath><clipPath class="axesclip" id="clip3fd075y"><rect x="0" y="100" width="900" height="270"/></clipPath><clipPath class="axesclip" id="clip3fd075xy"><rect x="80" y="100" width="297" height="270"/></clipPath><clipPath class="axesclip" id="clip3fd075y2"><rect x="0" y="100" width="900" height="270"/></clipPath><clipPath class="axesclip" id="clip3fd075xy2"><rect x="80" y="100" width="297" height="270"/></clipPath><clipPath class="axesclip" id="clip3fd075x2"><rect x="443.00000000000006" y="0" width="296.99999999999994" height="450"/></clipPath><clipPath class="axesclip" id="clip3fd075x2y"><rect x="443.00000000000006" y="100" width="296.99999999999994" height="270"/></clipPath><clipPath class="axesclip" id="clip3fd075x2y2"><rect x="443.00000000000006" y="100" width="296.99999999999994" height="270"/></clipPath></g><g class="gradients"/></defs><g class="bglayer"/><g class="layer-below"><g class="imagelayer"/><g class="shapelayer"/></g><g class="cartesianlayer"><g class="subplot xy"><g class="layer-subplot"><g class="shapelayer"/><g class="imagelayer"/></g><g class="gridlayer"><g class="x"><path class="xgrid crisp" transform="translate(128.57,0)" d="M0,100v270" style="stroke: rgb(40, 52, 66); stroke-opacity: 1; stroke-width: 1px;"/><path class="xgrid crisp" transform="translate(191.72,0)" d="M0,100v270" style="stroke: rgb(40, 52, 66); stroke-opacity: 1; stroke-width: 1px;"/><path class="xgrid crisp" transform="translate(255.56,0)" d="M0,100v270" style="stroke: rgb(40, 52, 66); stroke-opacity: 1; stroke-width: 1px;"/><path class="xgrid crisp" transform="translate(319.4,0)" d="M0,100v270" style="stroke: rgb(40, 52, 66); stroke-opacity: 1; stroke-width: 1px;"/></g><g class="y"><path class="ygrid crisp" transform="translate(0,314.99)" d="M80,0h297" style="stroke: rgb(40, 52, 66); stroke-opacity: 1; stroke-width: 1px;"/><path class="ygrid crisp" transform="translate(0,273.47)" d="M80,0h297" style="stroke: rgb(40, 52, 66); stroke-opacity: 1; stroke-width: 1px;"/><path class="ygrid crisp" transform="translate(0,231.96)" d="M80,0h297" style="stroke: rgb(40, 52, 66); stroke-opacity: 1; stroke-width: 1px;"/><path class="ygrid crisp" transform="translate(0,190.44)" d="M80,0h297" style="stroke: rgb(40, 52, 66); stroke-opacity: 1; stroke-width: 1px;"/><path class="ygrid crisp" transform="translate(0,148.93)" d="M80,0h297" style="stroke: rgb(40, 52, 66); stroke-opacity: 1; stroke-width: 1px;"/><path class="ygrid crisp" transform="translate(0,107.41)" d="M80,0h297" style="stroke: rgb(40, 52, 66); stroke-opacity: 1; stroke-width: 1px;"/></g></g><g class="zerolinelayer"><path class="yzl zl crisp" transform="translate(0,356.5)" d="M80,0h297" style="stroke: rgb(40, 52, 66); stroke-opacity: 1; stroke-width: 2px;"/></g><path class="xlines-below"/><path class="ylines-below"/><g class="overlines-below"/><g class="xaxislayer-below"/><g class="yaxislayer-below"/><g class="overaxes-below"/><g class="plot" transform="translate(80, 100)" clip-path="url('#clip3fd075xyplot')"><g class="scatterlayer mlayer"><g class="trace scatter trace190d58" style="stroke-miterlimit: 2; opacity: 1;"><g class="fills"/><g class="errorbars"/><g class="lines"><path class="js-line" d="M0,256.5L48.57,255.75L49.27,255.68L90.21,249.46L90.9,249.3L102.01,247.09L102.7,246.87L107.56,245.33L108.25,245.1L110.33,244.54L111.03,244.12L115.19,242.2L115.89,242.2L117.97,240.96L118.66,240.47L120.05,239.94L120.74,239.23L133.93,232.58L134.62,231.91L138.09,231.31L138.79,229.1L139.48,229.06L140.17,228.14L142.25,226.28L142.95,226.28L144.34,225.09L145.03,224.46L147.81,221.85L148.5,221.79L149.19,221.77L149.89,220.64L154.05,218.75L154.75,218.21L157.52,216.79L158.21,216.79L161.68,215.36L162.38,215.32L165.15,214.78L165.85,214.65L168.62,213.66L169.32,213.43L180.42,210.96L181.11,210.95L185.28,210.07L185.97,209.99L190.83,208.48L191.52,208.31L202.63,204.61L203.32,204.38L208.18,201.58L208.87,201.17L213.73,197.91L214.42,197.91L216.5,195.32L217.2,194.92L218.59,193.54L219.28,192.19L220.67,190.62L221.36,188.95L222.06,188.78L222.75,186.47L226.22,181.39L226.91,177.17L229,172.93L229.69,172.88L231.77,165.16L232.46,163.6L236.63,153.2L237.32,151.87L239.4,147.58L240.1,145.41L242.87,139.36L243.57,138.02L249.81,120.71L250.51,118.29L252.59,114.45L253.28,113.72L260.92,102.94L261.61,102.12L265.08,98.39L265.77,97.71L274.79,91.49L275.49,91.17L285.9,87.24L286.59,87.08L287.98,85.98L288.67,85.64L297,84.48" style="vector-effect: non-scaling-stroke; fill: none; stroke: rgb(230, 25, 75); stroke-opacity: 1; stroke-width: 2px; opacity: 1;"/></g><g class="points"/><g class="text"/></g><g class="trace scatter tracef31d38" style="stroke-miterlimit: 2; opacity: 1;"><g class="fills"/><g class="errorbars"/><g class="lines"><path class="js-line" d="M0,256.5L47.88,255.77L48.57,255.51L54.82,253.61L55.51,253.29L67.31,249.14L68,248.82L92.99,243.49L93.68,243.43L105.48,242.78L106.17,242.76L158.91,239.84L159.6,239.65L174.87,238.71L175.56,238.59L194.99,235.11L195.69,234.83L201.93,232.33L202.63,231.91L208.18,228.26L208.87,227.76L212.34,225.63L213.04,225.03L216.5,222.72L217.2,222.39L231.08,208.63L231.77,206.54L233.16,205.9L233.85,205.9L235.93,205.9L236.63,208.15L239.4,205.69L240.1,204.43L241.49,203.36L242.18,198.7L244.26,195.54L244.96,194.49L254.67,183.92L255.36,183.5L261.61,178.37L262.3,178.37L267.16,175.34L267.86,175L274.79,171.94L275.49,171.69L287.98,166.91L288.67,166.91L290.06,166.2L290.75,166.05L296.31,163.91L297,163.5" style="vector-effect: non-scaling-stroke; fill: none; stroke: rgb(60, 180, 75); stroke-opacity: 1; stroke-width: 2px; opacity: 1;"/></g><g class="points"/><g class="text"/></g><g class="trace scatter tracef27cd9" style="stroke-miterlimit: 2; opacity: 1;"><g class="fills"/><g class="errorbars"/><g class="lines"><path class="js-line" d="M0,256.5L47.88,255.87L48.57,255.69L53.43,254.77L54.13,254.52L56.9,253.85L57.6,252.44L58.98,251.52L59.68,250.89L66.62,245.24L67.31,245.04L70.09,242.34L70.78,241.91L73.56,241.68L74.25,241.68L75.64,241.68L76.33,238.5L79.8,237.59L80.5,237.59L81.88,237.59L82.58,235.79L86.05,234.48L86.74,234.48L88.82,233.56L89.52,233.56L95.07,233.56L95.76,231.68L99.93,231.68L100.62,230.84L109.64,230.11L110.33,229.65L124.21,229.22L124.91,228.12L130.46,227.37L131.15,226.3L135.32,226.3L136.01,225.27L140.17,225.27L140.87,224.03L145.03,224.03L145.72,222.99L149.89,222.99L150.58,221.9L154.75,221.9L155.44,220.99L159.6,220.99L160.3,220.17L164.46,220.17L165.15,219.26L169.32,219.26L170.01,218.23L174.18,218.23L174.87,217.21L179.03,217.21L179.73,215.74L183.89,215.74L184.58,214.07L188.75,214.07L189.44,211.78L193.61,211.78L194.3,208.09L198.46,208.09L199.16,203.97L203.32,203.97L204.01,198.78L208.18,198.78L208.87,191.09L213.04,191.09L213.73,181.82L217.89,181.82L218.59,173.04L222.75,173.04L223.44,160.57L227.61,160.57L228.3,148.83L232.46,148.83L233.16,140.42L237.32,140.42L238.02,134.14L242.18,134.14L242.87,126.05L247.04,126.05L247.73,116.34L251.89,116.34L252.59,108.77L256.75,108.77L257.45,102.4L261.61,102.4L262.3,97.24L266.47,97.24L267.16,93.21L271.32,93.21L272.02,89.89L276.18,89.89L276.88,87.16L281.04,87.16L281.73,83.99L285.9,83.99L286.59,81.04L290.75,81.04L291.45,77.81L295.61,77.81L296.31,74.83L297,74.83" style="vector-effect: non-scaling-stroke; fill: none; stroke: rgb(255, 225, 25); stroke-opacity: 1; stroke-width: 2px; opacity: 1;"/></g><g class="points"/><g class="text"/></g><g class="trace scatter traced263dc" style="stroke-miterlimit: 2; opacity: 1;"><g class="fills"/><g class="errorbars"/><g class="lines"><path class="js-line" d="M0,256.5L57.6,255.77L58.29,255.74L102.01,252.96L102.7,252.86L105.48,252.29L106.17,252.01L111.03,250.81L111.72,250.07L113.8,249.77L114.5,249.77L115.89,248.49L116.58,248.49L118.66,247.69L119.36,247.69L120.05,247.69L120.74,246.91L124.21,246.19L124.91,245.72L126.29,243.94L126.99,243.72L128.38,243.23L129.07,243.23L130.46,242.19L131.15,241.98L133.93,241.26L134.62,240.15L138.79,239.59L139.48,238.58L152.66,235.02L153.36,235.02L155.44,234.07L156.13,233.9L163.07,232.67L163.77,232.25L167.93,231.66L168.62,231.11L189.44,227.74L190.14,227.55L201.93,225.26L202.63,224.56L204.71,223.78L205.4,223.23L206.79,223.23L207.48,222.33L211.65,220.02L212.34,218.75L215.12,218.32L215.81,218.32L216.5,218.32L217.2,214.85L217.89,214.59L218.59,212.94L220.67,211.09L221.36,211.09L222.75,207.78L223.44,207.42L225.53,206.11L226.22,206.11L227.61,199.6L228.3,198.56L230.38,195.56L231.08,195.56L232.46,190.58L233.16,189.06L236.63,180.4L237.32,179.39L240.79,166.42L241.49,165.69L251.2,129.35L251.89,128.1L258.83,113.49L259.53,112.21L267.86,101.55L268.55,100.91L274.1,97.54L274.79,97.17L286.59,93.5L287.29,93.59L296.31,92.9L297,92.53" style="vector-effect: non-scaling-stroke; fill: none; stroke: rgb(67, 99, 216); stroke-opacity: 1; stroke-width: 2px; opacity: 1;"/></g><g class="points"/><g class="text"/></g><g class="trace scatter tracebb02b6" style="stroke-miterlimit: 2; opacity: 1;"><g class="fills"/><g class="errorbars"/><g class="lines"><path class="js-line" d="M0,256.5L49.27,255.81L49.96,255.73L66.62,254.76L67.31,254.71L93.68,252.5L94.37,252.39L107.56,249.49L108.25,249.18L112.42,246.99L113.11,246.43L117.27,243.85L117.97,243.46L123.52,238.86L124.21,238.35L130.46,234.26L131.15,234.26L133.93,231.87L134.62,231.43L137.4,229.51L138.09,228.74L140.17,228.16L140.87,227.96L151.97,223.56L152.66,223.01L167.93,217.03L168.62,216.81L189.44,209.34L190.14,209.05L198.46,205.12L199.16,204.66L204.71,200.84L205.4,199.91L213.73,191.34L214.42,190.47L215.81,189.43L216.5,188.59L218.59,185.48L219.28,184.44L225.53,174.42L226.22,174.42L227.61,169.91L228.3,168.3L234.55,154.53L235.24,154.21L237.32,151.29L238.02,149.24L247.04,132.23L247.73,131.4L250.51,127.72L251.2,127.27L255.36,122.24L256.06,121.77L265.08,114.4L265.77,114.15L272.71,111.43L273.41,111.21L281.04,108.82L281.73,108.29L284.51,106.98L285.2,106.88L289.37,105.51L290.06,103.88L297,102.17" style="vector-effect: non-scaling-stroke; fill: none; stroke: rgb(245, 130, 49); stroke-opacity: 1; stroke-width: 2px; opacity: 1;"/></g><g class="points"/><g class="text"/></g><g class="trace scatter trace5561fb" style="stroke-miterlimit: 2; opacity: 1;"><g class="fills"/><g class="errorbars"/><g class="lines"><path class="js-line" d="M0,256.5L37.47,256.04L38.17,255.71L40.94,253.63L41.64,252.61L47.19,237.14L47.88,235.81L54.13,221.2L54.82,218.98L65.23,199.98L65.92,199.08L72.17,193.73L72.86,193.34L76.33,191.36L77.03,191.17L86.05,187.9L86.74,187.78L100.62,185.25L101.31,185.18L122.13,182.97L122.82,182.89L182.5,175.77L183.2,175.54L192.91,173.05L193.61,172.8L201.24,169.42L201.93,168.95L208.18,163.14L208.87,162.4L214.42,155.95L215.12,154.58L220.67,144.53L221.36,143.02L226.22,134.37L226.91,133.14L238.02,113.89L238.71,111.9L241.49,105.47L242.18,104.18L249.12,86.33L249.81,84.35L261.61,58.68L262.3,57.97L264.39,56.27L265.08,53.27L271.32,44.37L272.02,43.54L287.29,24.62L287.98,24.62L289.37,22.25L290.06,21.52L297,13.5" style="vector-effect: non-scaling-stroke; fill: none; stroke: rgb(145, 30, 180); stroke-opacity: 1; stroke-width: 2px; opacity: 1;"/></g><g class="points"/><g class="text"/></g></g></g><g class="overplot"/><path class="xlines-above crisp" d="M0,0" style="fill: none;"/><path class="ylines-above crisp" d="M0,0" style="fill: none;"/><g class="overlines-above"/><g class="xaxislayer-above"><g class="xtick"><text text-anchor="middle" x="0" y="383" transform="translate(128.57,0)" style="font-family: 'Open Sans', verdana, arial, sans-serif; font-size: 12px; fill: rgb(242, 245, 250); fill-opacity: 1; white-space: pre;">Apr 2020</text></g><g class="xtick"><text text-anchor="middle" x="0" y="383" transform="translate(191.72,0)" style="font-family: 'Open Sans', verdana, arial, sans-serif; font-size: 12px; fill: rgb(242, 245, 250); fill-opacity: 1; white-space: pre;">Jul 2020</text></g><g class="xtick"><text text-anchor="middle" x="0" y="383" transform="translate(255.56,0)" style="font-family: 'Open Sans', verdana, arial, sans-serif; font-size: 12px; fill: rgb(242, 245, 250); fill-opacity: 1; white-space: pre;">Oct 2020</text></g><g class="xtick"><text text-anchor="middle" x="0" y="383" transform="translate(319.4,0)" style="font-family: 'Open Sans', verdana, arial, sans-serif; font-size: 12px; fill: rgb(242, 245, 250); fill-opacity: 1; white-space: pre;">Jan 2021</text></g></g><g class="yaxislayer-above"><g class="ytick"><text text-anchor="end" x="79" y="4.199999999999999" transform="translate(0,356.5)" style="font-family: 'Open Sans', verdana, arial, sans-serif; font-size: 12px; fill: rgb(242, 245, 250); fill-opacity: 1; white-space: pre;">0</text></g><g class="ytick"><text text-anchor="end" x="79" y="4.199999999999999" transform="translate(0,314.99)" style="font-family: 'Open Sans', verdana, arial, sans-serif; font-size: 12px; fill: rgb(242, 245, 250); fill-opacity: 1; white-space: pre;">20k</text></g><g class="ytick"><text text-anchor="end" x="79" y="4.199999999999999" transform="translate(0,273.47)" style="font-family: 'Open Sans', verdana, arial, sans-serif; font-size: 12px; fill: rgb(242, 245, 250); fill-opacity: 1; white-space: pre;">40k</text></g><g class="ytick"><text text-anchor="end" x="79" y="4.199999999999999" transform="translate(0,231.96)" style="font-family: 'Open Sans', verdana, arial, sans-serif; font-size: 12px; fill: rgb(242, 245, 250); fill-opacity: 1; white-space: pre;">60k</text></g><g class="ytick"><text text-anchor="end" x="79" y="4.199999999999999" transform="translate(0,190.44)" style="font-family: 'Open Sans', verdana, arial, sans-serif; font-size: 12px; fill: rgb(242, 245, 250); fill-opacity: 1; white-space: pre;">80k</text></g><g class="ytick"><text text-anchor="end" x="79" y="4.199999999999999" transform="translate(0,148.93)" style="font-family: 'Open Sans', verdana, arial, sans-serif; font-size: 12px; fill: rgb(242, 245, 250); fill-opacity: 1; white-space: pre;">100k</text></g><g class="ytick"><text text-anchor="end" x="79" y="4.199999999999999" transform="translate(0,107.41)" style="font-family: 'Open Sans', verdana, arial, sans-serif; font-size: 12px; fill: rgb(242, 245, 250); fill-opacity: 1; white-space: pre;">120k</text></g></g><g class="overaxes-above"/></g><g class="subplot x2y2"><g class="layer-subplot"><g class="shapelayer"/><g class="imagelayer"/></g><g class="gridlayer"><g class="x2"><path class="x2grid crisp" transform="translate(491.57000000000005,0)" d="M0,100v270" style="stroke: rgb(40, 52, 66); stroke-opacity: 1; stroke-width: 1px;"/><path class="x2grid crisp" transform="translate(554.72,0)" d="M0,100v270" style="stroke: rgb(40, 52, 66); stroke-opacity: 1; stroke-width: 1px;"/><path class="x2grid crisp" transform="translate(618.5600000000001,0)" d="M0,100v270" style="stroke: rgb(40, 52, 66); stroke-opacity: 1; stroke-width: 1px;"/><path class="x2grid crisp" transform="translate(682.4000000000001,0)" d="M0,100v270" style="stroke: rgb(40, 52, 66); stroke-opacity: 1; stroke-width: 1px;"/></g><g class="y2"><path class="y2grid crisp" transform="translate(0,300.82)" d="M443.00000000000006,0h296.99999999999994" style="stroke: rgb(40, 52, 66); stroke-opacity: 1; stroke-width: 1px;"/><path class="y2grid crisp" transform="translate(0,245.13)" d="M443.00000000000006,0h296.99999999999994" style="stroke: rgb(40, 52, 66); stroke-opacity: 1; stroke-width: 1px;"/><path class="y2grid crisp" transform="translate(0,189.45)" d="M443.00000000000006,0h296.99999999999994" style="stroke: rgb(40, 52, 66); stroke-opacity: 1; stroke-width: 1px;"/><path class="y2grid crisp" transform="translate(0,133.77)" d="M443.00000000000006,0h296.99999999999994" style="stroke: rgb(40, 52, 66); stroke-opacity: 1; stroke-width: 1px;"/></g></g><g class="zerolinelayer"><path class="y2zl zl crisp" transform="translate(0,356.5)" d="M443.00000000000006,0h296.99999999999994" style="stroke: rgb(40, 52, 66); stroke-opacity: 1; stroke-width: 2px;"/></g><path class="xlines-below"/><path class="ylines-below"/><g class="overlines-below"/><g class="xaxislayer-below"/><g class="yaxislayer-below"/><g class="overaxes-below"/><g class="plot" transform="translate(443.00000000000006, 100)" clip-path="url('#clip3fd075x2y2plot')"><g class="scatterlayer mlayer"><g class="trace scatter tracebdab0d" style="stroke-miterlimit: 2; opacity: 1;"><g class="fills"/><g class="errorbars"/><g class="lines"><path class="js-line" d="M0,256.5L45.8,255.83L46.49,255.72L52.04,255.05L52.74,254.83L57.6,253.94L58.29,252.49L61.07,251.82L61.76,251.82L68,250.15L68.7,249.82L74.94,248.59L75.64,248.59L77.72,248.04L78.41,247.7L80.5,247.26L81.19,247.26L84.66,246.25L85.35,246.14L92.99,245.7L93.68,245.25L97.15,244.81L97.84,244.47L106.86,242.91L107.56,242.25L113.8,240.91L114.5,240.91L117.27,240.24L117.97,240.13L122.13,239.35L122.82,238.57L125.6,237.9L126.29,237.46L130.46,236.34L131.15,236.34L138.09,235.01L138.79,233.67L140.17,233.67L140.87,232.89L143.64,231.89L144.34,231.89L148.5,230.44L149.19,230.44L151.28,229.33L151.97,228.99L152.66,228.99L153.36,227.77L154.75,227.88L155.44,225.99L156.83,223.54L157.52,223.2L160.99,222.76L161.68,220.86L162.38,220.86L163.07,219.53L163.77,219.42L164.46,216.85L165.15,216.85L165.85,215.85L167.93,214.85L168.62,214.85L170.01,212.51L170.71,212.29L172.09,211.51L172.79,211.29L174.87,210.62L175.56,209.73L178.34,209.17L179.03,208.95L180.42,207.5L181.11,207.5L182.5,207.94L183.2,207.94L183.89,208.5L184.58,207.28L185.28,208.28L185.97,207.61L186.67,207.28L187.36,208.28L189.44,208.06L190.14,205.72L194.3,205.05L194.99,204.94L199.85,204.71L200.54,204.05L202.63,203.71L203.32,203.71L204.71,202.38L205.4,202.38L208.87,201.49L209.57,201.37L211.65,200.93L212.34,200.93L215.12,200.26L215.81,199.59L223.44,197.92L224.14,197.14L228.3,193.8L229,192.58L229.69,192.58L230.38,191.35L232.46,191.02L233.16,188.68L234.55,187.56L235.24,187.56L236.63,186.9L237.32,186.9L238.71,186.9L239.4,183.44L242.87,183.44L243.57,178.88L244.26,178.88L244.96,175.31L247.04,174.53L247.73,172.42L251.2,172.2L251.89,171.42L253.28,171.19L253.98,162.73L255.36,161.17L256.06,156.94L256.75,156.72L257.45,155.6L260.22,148.03L260.92,147.36L262.3,146.14L263,145.25L264.39,141.79L265.08,141.01L267.16,139.45L267.86,138.12L268.55,138.01L269.24,135.33L270.63,131.77L271.32,131.66L273.41,131.1L274.1,126.09L274.79,126.09L275.49,122.86L276.88,122.86L277.57,120.86L278.26,120.19L278.96,118.3L282.43,117.96L283.12,113.84L286.59,111.61L287.29,125.31L296.31,125.31L297,122.97" style="vector-effect: non-scaling-stroke; fill: none; stroke: rgb(230, 25, 75); stroke-opacity: 1; stroke-width: 2px; opacity: 1;"/></g><g class="points"/><g class="text"/></g><g class="trace scatter trace8fe67f" style="stroke-miterlimit: 2; opacity: 1;"><g class="fills"/><g class="errorbars"/><g class="lines"><path class="js-line" d="M0,256.5L47.19,256.05L47.88,255.27L52.04,252.16L52.74,250.26L56.9,243.69L57.6,241.58L61.07,232.78L61.76,231.55L65.23,221.42L65.92,220.08L74.25,207.39L74.94,206.94L77.03,204.83L77.72,203.6L80.5,199.04L81.19,198.92L87.43,194.8L88.13,193.91L90.21,191.91L90.9,189.57L93.68,188.57L94.37,187.68L104.09,184.45L104.78,184.45L106.17,184.22L106.86,183.67L108.95,183.11L109.64,182.66L110.33,182.55L111.03,183.56L113.8,182.55L114.5,182.33L116.58,181.66L117.27,181.77L124.21,180.55L124.91,180.99L131.85,179.43L132.54,178.99L144.34,177.54L145.03,177.54L146.42,174.98L147.11,174.98L153.36,173.42L154.05,173.42L157.52,172.31L158.21,171.97L160.99,171.64L161.68,171.08L170.01,170.41L170.71,170.3L174.18,169.75L174.87,169.52L176.95,168.63L177.64,168.63L191.52,166.41L192.22,166.18L199.16,164.62L199.85,164.07L202.63,163.06L203.32,162.73L205.4,162.4L206.1,161.95L210.26,158.94L210.95,158.5L215.12,156.6L215.81,155.49L222.75,151.93L223.44,150.59L225.53,149.37L226.22,149.25L227.61,148.81L228.3,147.47L231.08,144.8L231.77,144.8L233.16,144.8L233.85,142.46L235.24,144.8L235.93,144.8L236.63,144.58L237.32,141.01L238.71,140.01L239.4,140.01L241.49,137.78L242.18,137.56L244.26,135.33L244.96,134.78L247.04,133.11L247.73,132.44L253.28,128.21L253.98,126.98L257.45,124.42L258.14,124.09L264.39,121.19L265.08,119.3L271.32,113.73L272.02,113.28L275.49,110.83L276.18,110.5L279.65,108.61L280.35,108.16L283.12,105.38L283.82,105.04L284.51,105.04L285.2,103.71L285.9,103.71L286.59,102.93L287.98,101.92L288.67,101.92L289.37,101.92L290.06,101.03L290.75,100.92L291.45,100.03L295.61,98.14L296.31,97.58L297,96.91" style="vector-effect: non-scaling-stroke; fill: none; stroke: rgb(60, 180, 75); stroke-opacity: 1; stroke-width: 2px; opacity: 1;"/></g><g class="points"/><g class="text"/></g><g class="trace scatter trace99ef7d" style="stroke-miterlimit: 2; opacity: 1;"><g class="fills"/><g class="errorbars"/><g class="lines"><path class="js-line" d="M0,256.5L50.66,255.83L51.35,255.05L57.6,254.94L58.29,254.16L64.54,254.16L65.23,244.58L67.31,244.58L68,241.8L72.17,241.8L72.86,234.23L79.11,233.89L79.8,228.66L83.27,228.66L83.96,221.87L88.13,221.87L88.82,213.07L95.07,213.07L95.76,211.51L102.01,211.51L102.7,204.49L104.09,200.71L104.78,200.71L109.64,200.71L110.33,196.7L115.19,196.7L115.89,170.41L120.74,170.41L121.44,167.85L130.46,167.41L131.15,166.63L131.85,166.63L132.54,167.41L133.93,166.63L134.62,166.63L140.17,166.07L140.87,165.4L145.03,165.4L145.72,164.62L149.89,164.62L150.58,163.51L154.75,163.51L155.44,162.4L159.6,162.4L160.3,161.51L164.46,161.51L165.15,160.17L169.32,160.17L170.01,158.39L174.18,158.39L174.87,157.05L179.03,157.05L179.73,156.16L183.89,156.16L184.58,155.38L188.75,155.38L189.44,153.04L193.61,153.04L194.3,150.7L198.46,150.7L199.16,148.59L203.32,148.59L204.01,146.69L208.18,146.69L208.87,144.58L213.04,144.58L213.73,142.46L217.89,142.46L218.59,138.9L222.75,138.9L223.44,132.88L227.61,132.88L228.3,124.42L232.46,124.42L233.16,114.73L237.32,114.73L238.02,106.82L242.18,106.82L242.87,97.02L247.04,97.02L247.73,92.12L251.89,92.12L252.59,86.11L256.75,86.11L257.45,80.65L261.61,80.65L262.3,75.09L266.47,75.09L267.16,70.41L271.32,70.41L272.02,64.06L276.18,64.06L276.88,54.48L281.04,54.48L281.73,51.03L285.9,51.03L286.59,49.25L290.75,49.25L291.45,47.02L295.61,47.02L296.31,44.68L297,44.68" style="vector-effect: non-scaling-stroke; fill: none; stroke: rgb(255, 225, 25); stroke-opacity: 1; stroke-width: 2px; opacity: 1;"/></g><g class="points"/><g class="text"/></g><g class="trace scatter tracecce5db" style="stroke-miterlimit: 2; opacity: 1;"><g class="fills"/><g class="errorbars"/><g class="lines"><path class="js-line" d="M0,256.5L52.74,255.83L53.43,255.72L62.45,255.05L63.15,254.94L66.62,254.61L67.31,254.61L77.03,254.16L77.72,253.83L87.43,252.94L88.13,252.94L97.84,252.27L98.54,252.05L111.72,251.38L112.42,251.27L121.44,250.6L122.13,250.26L125.6,249.6L126.29,249.48L129.07,249.04L129.76,248.7L138.09,247.7L138.79,246.59L141.56,246.03L142.25,245.92L146.42,245.25L147.11,245.14L150.58,244.58L151.28,244.25L152.66,243.69L153.36,243.69L160.3,242.47L160.99,242.13L163.77,241.47L164.46,241.13L167.24,240.57L167.93,240.57L170.01,240.24L170.71,240.13L172.79,239.8L173.48,239.8L179.03,239.35L179.73,239.02L190.14,238.46L190.83,238.24L201.93,237.68L202.63,237.46L216.5,237.01L217.2,236.12L221.36,235.56L222.06,235.45L223.44,234.56L224.14,234.56L229,233.45L229.69,233.11L233.16,232.45L233.85,231.55L235.24,230.55L235.93,230.55L236.63,230.55L237.32,229.33L238.71,227.54L239.4,227.21L241.49,227.21L242.18,224.32L244.26,221.64L244.96,219.3L246.34,219.3L247.04,217.41L247.73,217.41L248.43,213.29L250.51,210.62L251.2,210.62L251.89,210.62L252.59,207.94L254.67,200.04L255.36,200.04L256.06,200.04L256.75,198.03L259.53,189.9L260.22,189.9L260.92,189.9L261.61,187.68L265.08,182.55L265.77,182.55L269.94,174.98L270.63,174.98L271.32,174.98L272.02,172.86L274.1,169.41L274.79,169.41L275.49,169.41L276.18,168.08L279.65,162.51L280.35,162.51L283.82,158.16L284.51,158.16L285.2,158.16L285.9,156.83L286.59,156.16L287.29,153.82L296.31,153.82L297,151.37" style="vector-effect: non-scaling-stroke; fill: none; stroke: rgb(67, 99, 216); stroke-opacity: 1; stroke-width: 2px; opacity: 1;"/></g><g class="points"/><g class="text"/></g><g class="trace scatter trace3be2f5" style="stroke-miterlimit: 2; opacity: 1;"><g class="fills"/><g class="errorbars"/><g class="lines"><path class="js-line" d="M0,256.5L54.13,255.83L54.82,255.61L59.68,254.94L60.37,254.83L62.45,254.72L63.15,253.16L67.31,251.93L68,251.6L77.03,249.37L77.72,249.37L79.8,248.37L80.5,248.26L81.88,247.81L82.58,247.26L90.21,245.14L90.9,245.03L95.76,244.36L96.46,244.25L102.7,242.69L103.39,242.69L109.64,241.47L110.33,241.35L113.11,239.35L113.8,239.35L115.89,239.02L116.58,238.35L120.05,237.35L120.74,236.9L131.15,233.11L131.85,231.78L135.32,230.89L136.01,230.66L136.7,230.44L137.4,229.33L140.17,228.88L140.87,227.21L145.03,226.88L145.72,225.99L149.19,224.43L149.89,224.43L151.97,224.32L152.66,222.76L155.44,222.76L156.13,221.98L158.91,221.75L159.6,221.75L163.77,221.09L164.46,219.97L167.24,218.97L167.93,218.97L169.32,218.41L170.01,217.63L173.48,217.52L174.18,217.41L179.03,217.19L179.73,217.19L181.81,216.19L182.5,216.19L185.28,215.96L185.97,215.18L200.54,212.96L201.24,211.62L203.32,210.95L204.01,207.28L205.4,205.94L206.1,205.16L207.48,205.16L208.18,203.49L210.26,201.82L210.95,201.82L213.73,201.82L214.42,200.82L217.89,200.71L218.59,199.59L222.75,197.59L223.44,197.14L224.83,194.36L225.53,194.36L226.91,194.36L227.61,193.58L229,192.91L229.69,191.24L231.08,188.9L231.77,188.9L233.16,186.34L233.85,183.22L235.93,183.22L236.63,181.33L238.02,179.21L238.71,178.88L240.1,176.43L240.79,176.43L242.18,175.76L242.87,174.31L243.57,173.2L244.26,170.08L245.65,169.19L246.34,169.19L247.73,159.39L248.43,157.72L249.12,157.61L249.81,154.04L251.89,154.04L252.59,150.03L253.28,149.92L253.98,145.8L255.36,144.35L256.06,144.35L258.14,133.89L258.83,132.66L259.53,132.66L260.22,130.88L260.92,130.88L261.61,126.87L263.69,120.08L264.39,118.85L266.47,118.85L267.16,117.85L269.24,111.95L269.94,111.95L270.63,111.95L271.32,110.83L272.02,110.83L272.71,109.61L274.1,107.94L274.79,107.94L275.49,107.94L276.18,107.05L276.88,107.05L277.57,105.49L279.65,103.48L280.35,103.48L281.04,103.48L281.73,102.04L282.43,102.04L283.12,100.37L286.59,99.59L287.29,98.69L290.75,97.8L291.45,96.91L292.84,96.69L293.53,95.91L295.61,95.35L296.31,94.69L297,94.46" style="vector-effect: non-scaling-stroke; fill: none; stroke: rgb(245, 130, 49); stroke-opacity: 1; stroke-width: 2px; opacity: 1;"/></g><g class="points"/><g class="text"/></g><g class="trace scatter trace4dbd32" style="stroke-miterlimit: 2; opacity: 1;"><g class="fills"/><g class="errorbars"/><g class="lines"><path class="js-line" d="M0,256.5L43.02,256.39L43.72,255.61L47.19,254.38L47.88,253.72L49.27,249.04L49.96,248.59L51.35,233L52.04,230.55L58.29,185.23L58.98,182.11L60.37,182.11L61.07,173.76L65.92,151.15L66.62,149.37L67.31,149.25L68,144.47L70.78,135.56L71.47,133.89L72.17,132.22L72.86,126.54L75.64,120.86L76.33,119.85L81.19,112.28L81.88,111.95L88.13,105.38L88.82,105.15L90.21,105.15L90.9,103.48L95.76,101.14L96.46,101.03L99.93,100.14L100.62,100.03L103.39,99.47L104.09,99.14L127.68,95.8L128.38,95.8L150.58,95.13L151.28,95.02L176.95,94.35L177.64,94.24L185.28,93.57L185.97,93.35L193.61,92.68L194.3,92.68L201.93,92.12L202.63,91.79L209.57,90.12L210.26,89.67L213.04,89.23L213.73,88.78L216.5,87.89L217.2,87.78L222.06,85.66L222.75,85.11L228.3,80.43L229,80.1L231.08,77.65L231.77,77.65L233.16,77.65L233.85,74.42L235.93,74.42L236.63,72.52L238.71,71.19L239.4,69.96L241.49,69.07L242.18,68.07L242.87,67.51L243.57,65.95L244.96,64.84L245.65,63.84L248.43,60.16L249.12,58.94L251.89,55.37L252.59,53.93L256.06,50.36L256.75,49.58L258.83,46.69L259.53,45.57L264.39,37.55L265.08,37L266.47,35.55L267.16,34.21L275.49,26.64L276.18,26.64L277.57,24.75L278.26,24.08L279.65,22.97L280.35,22.52L288.67,17.51L289.37,17.51L297,13.5" style="vector-effect: non-scaling-stroke; fill: none; stroke: rgb(145, 30, 180); stroke-opacity: 1; stroke-width: 2px; opacity: 1;"/></g><g class="points"/><g class="text"/></g></g></g><g class="overplot"/><path class="xlines-above crisp" d="M0,0" style="fill: none;"/><path class="ylines-above crisp" d="M0,0" style="fill: none;"/><g class="overlines-above"/><g class="xaxislayer-above"><g class="x2tick"><text text-anchor="middle" x="0" y="383" transform="translate(491.57000000000005,0)" style="font-family: 'Open Sans', verdana, arial, sans-serif; font-size: 12px; fill: rgb(242, 245, 250); fill-opacity: 1; white-space: pre;">Apr 2020</text></g><g class="x2tick"><text text-anchor="middle" x="0" y="383" transform="translate(554.72,0)" style="font-family: 'Open Sans', verdana, arial, sans-serif; font-size: 12px; fill: rgb(242, 245, 250); fill-opacity: 1; white-space: pre;">Jul 2020</text></g><g class="x2tick"><text text-anchor="middle" x="0" y="383" transform="translate(618.5600000000001,0)" style="font-family: 'Open Sans', verdana, arial, sans-serif; font-size: 12px; fill: rgb(242, 245, 250); fill-opacity: 1; white-space: pre;">Oct 2020</text></g><g class="x2tick"><text text-anchor="middle" x="0" y="383" transform="translate(682.4000000000001,0)" style="font-family: 'Open Sans', verdana, arial, sans-serif; font-size: 12px; fill: rgb(242, 245, 250); fill-opacity: 1; white-space: pre;">Jan 2021</text></g></g><g class="yaxislayer-above"><g class="y2tick"><text text-anchor="end" x="442.00000000000006" y="4.199999999999999" transform="translate(0,356.5)" style="font-family: 'Open Sans', verdana, arial, sans-serif; font-size: 12px; fill: rgb(242, 245, 250); fill-opacity: 1; white-space: pre;">0</text></g><g class="y2tick"><text text-anchor="end" x="442.00000000000006" y="4.199999999999999" transform="translate(0,300.82)" style="font-family: 'Open Sans', verdana, arial, sans-serif; font-size: 12px; fill: rgb(242, 245, 250); fill-opacity: 1; white-space: pre;">500</text></g><g class="y2tick"><text text-anchor="end" x="442.00000000000006" y="4.199999999999999" transform="translate(0,245.13)" style="font-family: 'Open Sans', verdana, arial, sans-serif; font-size: 12px; fill: rgb(242, 245, 250); fill-opacity: 1; white-space: pre;">1000</text></g><g class="y2tick"><text text-anchor="end" x="442.00000000000006" y="4.199999999999999" transform="translate(0,189.45)" style="font-family: 'Open Sans', verdana, arial, sans-serif; font-size: 12px; fill: rgb(242, 245, 250); fill-opacity: 1; white-space: pre;">1500</text></g><g class="y2tick"><text text-anchor="end" x="442.00000000000006" y="4.199999999999999" transform="translate(0,133.77)" style="font-family: 'Open Sans', verdana, arial, sans-serif; font-size: 12px; fill: rgb(242, 245, 250); fill-opacity: 1; white-space: pre;">2000</text></g></g><g class="overaxes-above"/></g></g><g class="polarlayer"/><g class="ternarylayer"/><g class="geolayer"/><g class="funnelarealayer"/><g class="pielayer"/><g class="treemaplayer"/><g class="sunburstlayer"/><g class="glimages"/><defs id="topdefs-3fd075"><g class="clips"/><clipPath id="legend3fd075"><rect width="135" height="124" x="0" y="0"/></clipPath></defs><g class="layer-above"><g class="imagelayer"/><g class="shapelayer"/></g><g class="infolayer"><g class="legend" pointer-events="all" transform="translate(753.2, 100)"><rect class="bg" shape-rendering="crispEdges" width="135" height="124" x="0" y="0" style="stroke: rgb(68, 68, 68); stroke-opacity: 1; fill: rgb(17, 17, 17); fill-opacity: 1; stroke-width: 0px;"/><g class="scrollbox" transform="translate(0, 0)" clip-path="url('#legend3fd075')"><g class="groups"><g class="traces" transform="translate(0, 14.5)" style="opacity: 1;"><text class="legendtext user-select-none" text-anchor="start" x="40" y="4.680000000000001" style="font-family: 'Open Sans', verdana, arial, sans-serif; font-size: 12px; fill: rgb(242, 245, 250); fill-opacity: 1; white-space: pre;">Alameda, CA</text><g class="layers" style="opacity: 1;"><g class="legendfill"/><g class="legendlines"><path class="js-line" d="M5,0h30" style="fill: none; stroke: rgb(230, 25, 75); stroke-opacity: 1; stroke-width: 2px;"/></g><g class="legendsymbols"><g class="legendpoints"/></g></g><rect class="legendtoggle" pointer-events="all" x="0" y="-9.5" width="129.15625" height="19" style="cursor: pointer; fill: rgb(0, 0, 0); fill-opacity: 0;"/></g><g class="traces" transform="translate(0, 33.5)" style="opacity: 1;"><text class="legendtext user-select-none" text-anchor="start" x="40" y="4.680000000000001" style="font-family: 'Open Sans', verdana, arial, sans-serif; font-size: 12px; fill: rgb(242, 245, 250); fill-opacity: 1; white-space: pre;">Hampden, MA</text><g class="layers" style="opacity: 1;"><g class="legendfill"/><g class="legendlines"><path class="js-line" d="M5,0h30" style="fill: none; stroke: rgb(60, 180, 75); stroke-opacity: 1; stroke-width: 2px;"/></g><g class="legendsymbols"><g class="legendpoints"/></g></g><rect class="legendtoggle" pointer-events="all" x="0" y="-9.5" width="129.15625" height="19" style="cursor: pointer; fill: rgb(0, 0, 0); fill-opacity: 0;"/></g><g class="traces" transform="translate(0, 52.5)" style="opacity: 1;"><text class="legendtext user-select-none" text-anchor="start" x="40" y="4.680000000000001" style="font-family: 'Open Sans', verdana, arial, sans-serif; font-size: 12px; fill: rgb(242, 245, 250); fill-opacity: 1; white-space: pre;">Providence, RI</text><g class="layers" style="opacity: 1;"><g class="legendfill"/><g class="legendlines"><path class="js-line" d="M5,0h30" style="fill: none; stroke: rgb(255, 225, 25); stroke-opacity: 1; stroke-width: 2px;"/></g><g class="legendsymbols"><g class="legendpoints"/></g></g><rect class="legendtoggle" pointer-events="all" x="0" y="-9.5" width="129.15625" height="19" style="cursor: pointer; fill: rgb(0, 0, 0); fill-opacity: 0;"/></g><g class="traces" transform="translate(0, 71.5)" style="opacity: 1;"><text class="legendtext user-select-none" text-anchor="start" x="40" y="4.680000000000001" style="font-family: 'Open Sans', verdana, arial, sans-serif; font-size: 12px; fill: rgb(242, 245, 250); fill-opacity: 1; white-space: pre;">Ventura, CA</text><g class="layers" style="opacity: 1;"><g class="legendfill"/><g class="legendlines"><path class="js-line" d="M5,0h30" style="fill: none; stroke: rgb(67, 99, 216); stroke-opacity: 1; stroke-width: 2px;"/></g><g class="legendsymbols"><g class="legendpoints"/></g></g><rect class="legendtoggle" pointer-events="all" x="0" y="-9.5" width="129.15625" height="19" style="cursor: pointer; fill: rgb(0, 0, 0); fill-opacity: 0;"/></g><g class="traces" transform="translate(0, 90.5)" style="opacity: 1;"><text class="legendtext user-select-none" text-anchor="start" x="40" y="4.680000000000001" style="font-family: 'Open Sans', verdana, arial, sans-serif; font-size: 12px; fill: rgb(242, 245, 250); fill-opacity: 1; white-space: pre;">Jefferson, AL</text><g class="layers" style="opacity: 1;"><g class="legendfill"/><g class="legendlines"><path class="js-line" d="M5,0h30" style="fill: none; stroke: rgb(245, 130, 49); stroke-opacity: 1; stroke-width: 2px;"/></g><g class="legendsymbols"><g class="legendpoints"/></g></g><rect class="legendtoggle" pointer-events="all" x="0" y="-9.5" width="129.15625" height="19" style="cursor: pointer; fill: rgb(0, 0, 0); fill-opacity: 0;"/></g><g class="traces" transform="translate(0, 109.5)" style="opacity: 1;"><text class="legendtext user-select-none" text-anchor="start" x="40" y="4.680000000000001" style="font-family: 'Open Sans', verdana, arial, sans-serif; font-size: 12px; fill: rgb(242, 245, 250); fill-opacity: 1; white-space: pre;">Westchester, NY</text><g class="layers" style="opacity: 1;"><g class="legendfill"/><g class="legendlines"><path class="js-line" d="M5,0h30" style="fill: none; stroke: rgb(145, 30, 180); stroke-opacity: 1; stroke-width: 2px;"/></g><g class="legendsymbols"><g class="legendpoints"/></g></g><rect class="legendtoggle" pointer-events="all" x="0" y="-9.5" width="129.15625" height="19" style="cursor: pointer; fill: rgb(0, 0, 0); fill-opacity: 0;"/></g></g></g><rect class="scrollbar" rx="20" ry="3" width="0" height="0" x="0" y="0" style="fill: rgb(128, 139, 164); fill-opacity: 1;"/></g><g class="g-gtitle"/><g class="g-xtitle"><text class="xtitle" x="228.5" y="410.8" text-anchor="middle" style="font-family: 'Open Sans', verdana, arial, sans-serif; font-size: 14px; fill: rgb(242, 245, 250); opacity: 1; font-weight: normal; white-space: pre;">Date</text></g><g class="g-x2title"><text class="x2title" x="591.5" y="410.8" text-anchor="middle" style="font-family: 'Open Sans', verdana, arial, sans-serif; font-size: 14px; fill: rgb(242, 245, 250); opacity: 1; font-weight: normal; white-space: pre;">Date</text></g><g class="g-ytitle"><text class="ytitle" transform="rotate(-90,28.168750000000003,235)" x="28.168750000000003" y="235" text-anchor="middle" style="font-family: 'Open Sans', verdana, arial, sans-serif; font-size: 14px; fill: rgb(242, 245, 250); opacity: 1; font-weight: normal; white-space: pre;">Cases</text></g><g class="g-y2title"><text class="y2title" transform="rotate(-90,390.496875,235)" x="390.496875" y="235" text-anchor="middle" style="font-family: 'Open Sans', verdana, arial, sans-serif; font-size: 14px; fill: rgb(242, 245, 250); opacity: 1; font-weight: normal; white-space: pre;">Deaths</text></g><g class="annotation" data-index="0" style="opacity: 1;"><g class="annotation-text-g" transform="rotate(0,228.5,89.5)"><g class="cursor-pointer" transform="translate(204, 79)"><rect class="bg" x="0.5" y="0.5" width="48" height="20" style="stroke-width: 1px; stroke: rgb(0, 0, 0); stroke-opacity: 0; fill: rgb(0, 0, 0); fill-opacity: 0;"/><text class="annotation-text" text-anchor="middle" x="24.6875" y="16" style="font-family: 'Open Sans', verdana, arial, sans-serif; font-size: 16px; fill: rgb(242, 245, 250); fill-opacity: 1; white-space: pre;">Cases</text></g></g></g><g class="annotation" data-index="1" style="opacity: 1;"><g class="annotation-text-g" transform="rotate(0,591.5,89.5)"><g class="cursor-pointer" transform="translate(564, 79)"><rect class="bg" x="0.5" y="0.5" width="54" height="20" style="stroke-width: 1px; stroke: rgb(0, 0, 0); stroke-opacity: 0; fill: rgb(0, 0, 0); fill-opacity: 0;"/><text class="annotation-text" text-anchor="middle" x="27.359375" y="16" style="font-family: 'Open Sans', verdana, arial, sans-serif; font-size: 16px; fill: rgb(242, 245, 250); fill-opacity: 1; white-space: pre;">Deaths</text></g></g></g></g></svg>