<svg class="main-svg" xmlns="http://www.w3.org/2000/svg" xmlns:xlink="http://www.w3.org/1999/xlink" width="900" height="450" style="" viewBox="0 0 900 450"><rect x="0" y="0" width="900" height="450" style="fill: rgb(17, 17, 17); fill-opacity: 1;"/><defs id="defs-7c9e8b"><g class="clips"><clipPath id="clip7c9e8bxyplot" class="plotclip"><rect width="297.90000000000003" height="270"/></clipPath><clipPath id="clip7c9e8bx2y2plot" class="plotclip"><rect width="297.9" height="270"/></clipPath><clipPath class="axesclip" id="clip7c9e8bx"><rect x="80" y="0" width="297.90000000000003" height="450"/></clipPath><clipPath class="axesclip" id="clip7c9e8by"><rect x="0" y="100" width="900" height="270"/></clipPath><clipPath class="axesclip" id="clip7c9e8bxy"><rect x="80" y="100" width="297.90000000000003" height="270"/></clipPath><clipPath class="axesclip" id="clip7c9e8by2"><rect x="0" y="100" width="900" height="270"/></clipPath><clipPath class="axesclip" id="clip7c9e8bxy2"><rect x="80" y="100" width="297.90000000000003" height="270"/></clipPath><clipPath class="axesclip" id="clip7c9e8bx2"><rect x="444.1" y="0" width="297.9" height="450"/></clipPath><clipPath class="axesclip" id="clip7c9e8bx2y"><rect x="444.1" y="100" width="297.9" height="270"/></clipPath><clipPath class="axesclip" id="clip7c9e8bx2y2"><rect x="444.1" y="100" width="297.9" height="270"/></clipPath></g><g class="gradients"/></defs><g class="bglayer"/><g class="layer-below"><g class="imagelayer"/><g class="shapelayer"/></g><g class="cartesianlayer"><g class="subplot xy"><g class="layer-subplot"><g class="shapelayer"/><g class="imagelayer"/></g><g class="gridlayer"><g class="x"><path class="xgrid crisp" transform="translate(124.00999999999999,0)" d="M0,100v270" style="stroke: rgb(40, 52, 66); stroke-opacity: 1; stroke-width: 1px;"/><path class="xgrid crisp" transform="translate(192.84,0)" d="M0,100v270" style="stroke: rgb(40, 52, 66); stroke-opacity: 1; stroke-width: 1px;"/><path class="xgrid crisp" transform="translate(261.66999999999996,0)" d="M0,100v270" style="stroke: rgb(40, 52, 66); stroke-opacity: 1; stroke-width: 1px;"/><path class="xgrid crisp" transform="translate(331.64,0)" d="M0,100v270" style="stroke: rgb(40, 52, 66); stroke-opacity: 1; stroke-width: 1px;"/></g><g class="y"><path class="ygrid crisp" transform="translate(0,301.64)" d="M80,0h297.90000000000003" style="stroke: rgb(40, 52, 66); stroke-opacity: 1; stroke-width: 1px;"/><path class="ygrid crisp" transform="translate(0,246.79)" d="M80,0h297.90000000000003" style="stroke: rgb(40, 52, 66); stroke-opacity: 1; stroke-width: 1px;"/><path class="ygrid crisp" transform="translate(0,191.93)" d="M80,0h297.90000000000003" style="stroke: rgb(40, 52, 66); stroke-opacity: 1; stroke-width: 1px;"/><path class="ygrid crisp" transform="translate(0,137.07999999999998)" d="M80,0h297.90000000000003" style="stroke: rgb(40, 52, 66); stroke-opacity: 1; stroke-width: 1px;"/></g></g><g class="zerolinelayer"><path class="yzl zl crisp" transform="translate(0,356.5)" d="M80,0h297.90000000000003" style="stroke: rgb(40, 52, 66); stroke-opacity: 1; stroke-width: 2px;"/></g><path class="xlines-below"/><path class="ylines-below"/><g class="overlines-below"/><g class="xaxislayer-below"/><g class="yaxislayer-below"/><g class="overaxes-below"/><g class="plot" transform="translate(80, 100)" clip-path="url('#clip7c9e8bxyplot')"><g class="scatterlayer mlayer"><g class="trace scatter traceda5745" style="stroke-miterlimit: 2; opacity: 1;"><g class="fills"/><g class="errorbars"/><g class="lines"><path class="js-line" d="M0,256.5L66.58,255.79L67.7,255.34L73.35,254.09L74.48,253.69L78.99,252.56L80.12,252.16L91.4,247.25L92.53,246.8L93.66,246.8L94.79,245.95L111.71,238.91L112.84,238.55L116.23,237.02L117.35,236.65L137.67,226.14L138.79,225.27L139.92,224.97L141.05,223.74L145.56,220.42L146.69,219.31L155.72,213.22L156.85,212.78L159.11,211.31L160.23,210.25L165.88,206.77L167,205.62L170.39,203.78L171.52,201.57L177.16,194.97L178.29,194.29L179.42,193.28L180.55,191.07L183.93,185.49L185.06,184.57L186.19,181.29L187.32,180.94L188.44,180.94L189.57,177.01L192.96,171.75L194.09,171.75L197.47,163.49L198.6,161.85L201.99,155.16L203.11,154.95L204.24,153.56L205.37,150.71L208.76,143.17L209.88,142.73L211.01,141.98L212.14,139.84L213.27,138.31L214.4,134.38L215.53,134.38L216.65,130.51L217.78,130.07L218.91,126.54L220.04,125.84L221.17,123.35L224.55,123.35L225.68,111.69L226.81,111.48L227.94,106.59L229.07,101.82L230.2,100.39L231.32,96.78L232.45,96.78L233.58,90.58L234.71,90.51L240.35,73.36L241.48,73.03L242.61,72.92L243.74,66.97L244.86,65.77L245.99,63.18L247.12,60.7L248.25,60.7L256.15,46.61L257.28,46.61L258.41,44.21L259.53,44.21L261.79,40.26L262.92,39.06L264.05,38.87L265.18,37.18L269.69,35.3L270.82,33.08L273.08,30.96L274.2,30.04L280.97,24.03L282.1,23.47L290,17.92L291.13,17.23L294.51,15.77L295.64,14.34L297.9,13.5" style="vector-effect: non-scaling-stroke; fill: none; stroke: rgb(230, 25, 75); stroke-opacity: 1; stroke-width: 2px; opacity: 1;"/></g><g class="points"/><g class="text"/></g><g class="trace scatter trace45c56f" style="stroke-miterlimit: 2; opacity: 1;"><g class="fills"/><g class="errorbars"/><g class="lines"><path class="js-line" d="M0,256.5L71.09,255.94L72.22,255.61L77.86,254.01L78.99,253.33L85.76,249.35L86.89,247L92.53,241.57L93.66,241.39L95.91,239.87L97.04,239.29L106.07,230.31L107.2,228.97L109.46,227.63L110.58,226.44L112.84,223.44L113.97,221.58L116.23,218.87L117.35,218.87L120.74,215.5L121.87,215.5L129.77,206.59L130.9,205.77L135.41,200.16L136.54,199.78L139.92,196.18L141.05,196.18L143.31,194.21L144.44,192.66L148.95,186.45L150.08,185.66L151.21,185.45L152.34,184.2L155.72,181.74L156.85,181.33L167,175.72L168.13,175.72L176.03,175.72L177.16,170.93L182.8,167.58L183.93,166.72L191.83,162.36L192.96,161.33L198.6,154.9L199.73,156.21L201.99,149.83L203.11,148.68L207.63,141.08L208.76,138.09L213.27,131.18L214.4,129.07L220.04,119.09L221.17,117.54L224.55,113.22L225.68,111.06L226.81,109.77L227.94,109.77L231.32,106.21L232.45,104.58L238.09,99.32L239.22,97.74L242.61,94.26L243.74,93.87L247.12,90.3L248.25,88.93L259.53,77.15L260.66,76.77L262.92,75.26L264.05,73.85L267.43,71.03L268.56,68.18L284.36,59.09L285.49,57.4L292.26,53.29L293.39,51.69L296.77,48.33L297.9,47.58" style="vector-effect: non-scaling-stroke; fill: none; stroke: rgb(60, 180, 75); stroke-opacity: 1; stroke-width: 2px; opacity: 1;"/></g><g class="points"/><g class="text"/></g><g class="trace scatter trace8d083c" style="stroke-miterlimit: 2; opacity: 1;"><g class="fills"/><g class="errorbars"/><g class="lines"><path class="js-line" d="M0,256.5L85.76,255.83L86.89,255.73L189.57,252.51L190.7,252.23L198.6,251.28L199.73,251.04L218.91,247.2L220.04,247.2L229.07,245.79L230.2,245.31L235.84,244.29L236.97,244.19L241.48,243.18L242.61,243.06L250.51,240.95L251.64,240.14L256.15,238.4L257.28,238L277.59,229.42L278.72,228.48L284.36,226.36L285.49,226.09L295.64,222.71L296.77,222.5L297.9,222.35" style="vector-effect: non-scaling-stroke; fill: none; stroke: rgb(255, 225, 25); stroke-opacity: 1; stroke-width: 2px; opacity: 1;"/></g><g class="points"/><g class="text"/></g><g class="trace scatter trace561750" style="stroke-miterlimit: 2; opacity: 1;"><g class="fills"/><g class="errorbars"/><g class="lines"><path class="js-line" d="M0,256.5L72.22,255.78L73.35,255.46L84.63,252.11L85.76,251.68L93.66,249.29L94.79,249.07L101.56,247.78L102.69,247.49L106.07,246.14L107.2,245.96L113.97,244.6L115.1,244.23L132.02,240.25L133.15,239.82L135.41,239.11L136.54,238.22L142.18,237.11L143.31,236.73L148.95,234.92L150.08,233.6L156.85,230.3L157.98,229.93L161.36,227.6L162.49,225.39L163.62,224.94L164.75,223.42L168.13,218.38L169.26,217.49L172.65,215.41L173.78,213.23L174.9,211.94L176.03,204.31L181.67,192.11L182.8,188.23L186.19,174.24L187.32,172.45L191.83,162.43L192.96,159.43L194.09,145.44L195.21,143.01L197.47,137.47L198.6,127.91L203.11,114.91L204.24,112.5L209.88,98.35L211.01,96.98L214.4,90.43L215.53,87.37L220.04,82.34L221.17,81.39L233.58,65.59L234.71,65.04L236.97,63.45L238.09,61.98L247.12,53.96L248.25,52.61L250.51,51.64L251.64,49.98L267.43,41.84L268.56,41.28L271.95,38.35L273.08,37.47L290,28.04L291.13,27.62L297.9,22.12" style="vector-effect: non-scaling-stroke; fill: none; stroke: rgb(67, 99, 216); stroke-opacity: 1; stroke-width: 2px; opacity: 1;"/></g><g class="points"/><g class="text"/></g><g class="trace scatter trace14ebb4" style="stroke-miterlimit: 2; opacity: 1;"><g class="fills"/><g class="errorbars"/><g class="lines"><path class="js-line" d="M0,256.5L94.79,255.79L95.91,255.72L181.67,251.78L182.8,251.49L191.83,250.06L192.96,248.52L205.37,242.94L206.5,242.36L214.4,239.18L215.53,238.73L218.91,237.56L220.04,237.16L234.71,232.36L235.84,232.12L244.86,229.95L245.99,229.57L251.64,227.88L252.76,227.71L262.92,224.3L264.05,223.76L279.85,216.4L280.97,215.67L288.87,210.16L290,209.31L293.39,206.81L294.51,205.43L297.9,202.16" style="vector-effect: non-scaling-stroke; fill: none; stroke: rgb(245, 130, 49); stroke-opacity: 1; stroke-width: 2px; opacity: 1;"/></g><g class="points"/><g class="text"/></g><g class="trace scatter tracea1c521" style="stroke-miterlimit: 2; opacity: 1;"><g class="fills"/><g class="errorbars"/><g class="lines"><path class="js-line" d="M0,256.5L141.05,255.75L142.18,255.74L195.21,254.55L196.34,254.4L215.53,252.82L216.65,252.54L222.3,251.58L223.42,251.17L230.2,249.79L231.32,249.34L236.97,247.66L238.09,247.15L278.72,237.87L279.85,237.31L297.9,233.12" style="vector-effect: non-scaling-stroke; fill: none; stroke: rgb(145, 30, 180); stroke-opacity: 1; stroke-width: 2px; opacity: 1;"/></g><g class="points"/><g class="text"/></g></g></g><g class="overplot"/><path class="xlines-above crisp" d="M0,0" style="fill: none;"/><path class="ylines-above crisp" d="M0,0" style="fill: none;"/><g class="overlines-above"/><g class="xaxislayer-above"><g class="xtick"><text text-anchor="middle" x="0" y="383" transform="translate(124.00999999999999,0)" style="font-family: 'Open Sans', verdana, arial, sans-serif; font-size: 12px; fill: rgb(242, 245, 250); fill-opacity: 1; white-space: pre;">Mar 2020</text></g><g class="xtick"><text text-anchor="middle" x="0" y="383" transform="translate(192.84,0)" style="font-family: 'Open Sans', verdana, arial, sans-serif; font-size: 12px; fill: rgb(242, 245, 250); fill-opacity: 1; white-space: pre;">May 2020</text></g><g class="xtick"><text text-anchor="middle" x="0" y="383" transform="translate(261.66999999999996,0)" style="font-family: 'Open Sans', verdana, arial, sans-serif; font-size: 12px; fill: rgb(242, 245, 250); fill-opacity: 1; white-space: pre;">Jul 2020</text></g><g class="xtick"><text text-anchor="middle" x="0" y="383" transform="translate(331.64,0)" style="font-family: 'Open Sans', verdana, arial, sans-serif; font-size: 12px; fill: rgb(242, 245, 250); fill-opacity: 1; white-space: pre;">Sep 2020</text></g></g><g class="yaxislayer-above"><g class="ytick"><text text-anchor="end" x="79" y="4.199999999999999" transform="translate(0,356.5)" style="font-family: 'Open Sans', verdana, arial, sans-serif; font-size: 12px; fill: rgb(242, 245, 250); fill-opacity: 1; white-space: pre;">0</text></g><g class="ytick"><text text-anchor="end" x="79" y="4.199999999999999" transform="translate(0,301.64)" style="font-family: 'Open Sans', verdana, arial, sans-serif; font-size: 12px; fill: rgb(242, 245, 250); fill-opacity: 1; white-space: pre;">5k</text></g><g class="ytick"><text text-anchor="end" x="79" y="4.199999999999999" transform="translate(0,246.79)" style="font-family: 'Open Sans', verdana, arial, sans-serif; font-size: 12px; fill: rgb(242, 245, 250); fill-opacity: 1; white-space: pre;">10k</text></g><g class="ytick"><text text-anchor="end" x="79" y="4.199999999999999" transform="translate(0,191.93)" style="font-family: 'Open Sans', verdana, arial, sans-serif; font-size: 12px; fill: rgb(242, 245, 250); fill-opacity: 1; white-space: pre;">15k</text></g><g class="ytick"><text text-anchor="end" x="79" y="4.199999999999999" transform="translate(0,137.07999999999998)" style="font-family: 'Open Sans', verdana, arial, sans-serif; font-size: 12px; fill: rgb(242, 245, 250); fill-opacity: 1; white-space: pre;">20k</text></g></g><g class="overaxes-above"/></g><g class="subplot x2y2"><g class="layer-subplot"><g class="shapelayer"/><g class="imagelayer"/></g><g class="gridlayer"><g class="x2"><path class="x2grid crisp" transform="translate(488.11,0)" d="M0,100v270" style="stroke: rgb(40, 52, 66); stroke-opacity: 1; stroke-width: 1px;"/><path class="x2grid crisp" transform="translate(556.94,0)" d="M0,100v270" style="stroke: rgb(40, 52, 66); stroke-opacity: 1; stroke-width: 1px;"/><path class="x2grid crisp" transform="translate(625.77,0)" d="M0,100v270" style="stroke: rgb(40, 52, 66); stroke-opacity: 1; stroke-width: 1px;"/><path class="x2grid crisp" transform="translate(695.74,0)" d="M0,100v270" style="stroke: rgb(40, 52, 66); stroke-opacity: 1; stroke-width: 1px;"/></g><g class="y2"><path class="y2grid crisp" transform="translate(0,318.83000000000004)" d="M444.1,0h297.9" style="stroke: rgb(40, 52, 66); stroke-opacity: 1; stroke-width: 1px;"/><path class="y2grid crisp" transform="translate(0,281.15)" d="M444.1,0h297.9" style="stroke: rgb(40, 52, 66); stroke-opacity: 1; stroke-width: 1px;"/><path class="y2grid crisp" transform="translate(0,243.48)" d="M444.1,0h297.9" style="stroke: rgb(40, 52, 66); stroke-opacity: 1; stroke-width: 1px;"/><path class="y2grid crisp" transform="translate(0,205.8)" d="M444.1,0h297.9" style="stroke: rgb(40, 52, 66); stroke-opacity: 1; stroke-width: 1px;"/><path class="y2grid crisp" transform="translate(0,168.13)" d="M444.1,0h297.9" style="stroke: rgb(40, 52, 66); stroke-opacity: 1; stroke-width: 1px;"/><path class="y2grid crisp" transform="translate(0,130.45)" d="M444.1,0h297.9" style="stroke: rgb(40, 52, 66); stroke-opacity: 1; stroke-width: 1px;"/></g></g><g class="zerolinelayer"><path class="y2zl zl crisp" transform="translate(0,356.5)" d="M444.1,0h297.9" style="stroke: rgb(40, 52, 66); stroke-opacity: 1; stroke-width: 2px;"/></g><path class="xlines-below"/><path class="ylines-below"/><g class="overlines-below"/><g class="xaxislayer-below"/><g class="yaxislayer-below"/><g class="overaxes-below"/><g class="plot" transform="translate(444.1, 100)" clip-path="url('#clip7c9e8bx2y2plot')"><g class="scatterlayer mlayer"><g class="trace scatter traced40aa0" style="stroke-miterlimit: 2; opacity: 1;"><g class="fills"/><g class="errorbars"/><g class="lines"><path class="js-line" d="M0,256.5L71.09,255.75L72.22,254.99L74.47,254.24L75.6,253.86L80.12,253.11L81.25,251.98L84.63,251.6L85.76,250.85L90.27,248.59L91.4,247.83L93.66,247.83L94.79,242.94L95.91,241.81L97.04,241.81L99.3,240.68L100.43,240.68L104.94,238.42L106.07,236.91L108.33,236.91L109.46,235.78L113.97,232.77L115.1,232.77L116.23,232.77L117.35,231.63L119.61,231.26L120.74,230.13L125.25,228.62L126.38,227.87L129.77,225.23L130.9,225.23L132.02,225.23L133.15,224.1L137.67,221.84L138.79,221.46L145.56,220.71L146.69,220.33L151.21,219.96L152.34,218.45L156.85,218.07L157.98,216.94L160.23,215.43L161.36,215.43L162.49,214.3L163.62,214.3L164.75,214.3L165.88,212.8L173.77,210.54L174.9,208.28L178.29,206.39L179.42,206.39L183.93,203.76L185.06,203.76L188.44,203.76L189.57,203L191.83,201.12L192.96,200.74L195.21,200.74L196.34,199.23L198.6,198.48L199.73,195.84L203.11,195.47L204.24,193.58L207.63,189.44L208.76,189.44L211.01,189.44L212.14,188.31L215.53,187.93L216.65,185.3L218.91,185.3L220.04,184.17L223.42,183.79L224.55,183.79L225.68,179.27L226.81,179.27L227.94,179.27L229.07,176.63L231.32,173.99L232.45,173.99L235.84,172.11L236.97,170.6L239.22,168.72L240.35,168.72L242.61,168.34L243.74,166.08L247.12,163.44L248.25,163.44L249.38,159.68L250.51,159.68L251.64,159.68L252.76,153.27L253.89,145.36L255.02,144.98L256.15,143.85L257.28,143.85L261.79,142.35L262.92,135.94L264.05,135.94L265.18,131.42L266.3,131.04L267.43,122.38L268.56,122.38L269.69,118.99L271.95,115.6L273.08,115.6L274.2,115.6L275.33,109.57L278.72,104.3L279.85,103.54L283.23,102.79L284.36,101.28L285.49,98.27L286.62,98.27L287.74,96.38L288.87,96.38L291.13,95.63L292.26,92.24L297.9,92.24" style="vector-effect: non-scaling-stroke; fill: none; stroke: rgb(230, 25, 75); stroke-opacity: 1; stroke-width: 2px; opacity: 1;"/></g><g class="points"/><g class="text"/></g><g class="trace scatter trace37222c" style="stroke-miterlimit: 2; opacity: 1;"><g class="fills"/><g class="errorbars"/><g class="lines"><path class="js-line" d="M0,256.5L78.99,255.75L80.12,255.37L82.37,254.99L83.5,254.24L84.63,252.36L85.76,252.36L88.02,250.47L89.14,248.59L91.4,245.2L92.53,245.2L94.79,243.31L95.91,242.56L98.17,241.05L99.3,239.92L100.43,239.92L101.56,237.29L103.81,233.14L104.94,233.14L107.2,229.75L108.33,223.72L118.48,200.37L119.61,198.1L125.25,185.67L126.38,180.02L127.51,178.51L128.64,174.75L132.02,167.21L133.15,163.44L135.41,154.4L136.54,152.14L138.79,146.49L139.92,138.96L141.05,138.96L142.18,135.94L144.44,135.94L145.56,134.06L147.82,131.04L148.95,121.63L151.21,116.73L152.34,114.84L153.46,111.83L154.59,111.08L155.72,110.32L156.85,106.56L161.36,99.77L162.49,97.51L164.75,95.63L165.88,93.75L171.52,85.08L172.65,83.95L174.9,83.2L176.03,82.82L179.42,79.43L180.55,78.3L182.8,77.92L183.93,76.42L188.44,73.4L189.57,71.9L191.83,70.01L192.96,69.63L196.34,68.88L197.47,67.37L203.11,63.61L204.24,61.72L206.5,60.22L207.63,60.22L208.76,59.09L209.88,59.09L212.14,58.71L213.27,51.17L215.53,50.42L216.65,49.67L225.68,44.39L226.81,44.39L231.32,40.25L232.45,40.25L235.84,39.5L236.97,37.61L240.35,35.73L241.48,34.97L242.61,34.97L243.74,33.47L245.99,31.21L247.12,31.21L251.64,28.95L252.76,28.57L255.02,27.44L256.15,27.44L264.05,26.69L265.18,26.31L277.59,22.54L278.72,22.17L280.97,21.79L282.1,20.66L284.36,18.4L285.49,18.4L287.74,18.4L288.87,17.64L290,17.64L291.13,16.51L294.51,14.63L295.64,14.63L296.77,13.5L297.9,13.5" style="vector-effect: non-scaling-stroke; fill: none; stroke: rgb(60, 180, 75); stroke-opacity: 1; stroke-width: 2px; opacity: 1;"/></g><g class="points"/><g class="text"/></g><g class="trace scatter trace4294b3" style="stroke-miterlimit: 2; opacity: 1;"><g class="fills"/><g class="errorbars"/><g class="lines"><path class="js-line" d="M0,256.5L102.69,255.75L103.81,255.37L110.58,254.62L111.71,253.86L112.84,253.86L113.97,252.73L125.25,251.98L126.38,251.6L132.02,250.47L133.15,250.47L137.67,249.72L138.79,249.72L216.65,248.97L217.78,248.59L223.42,248.21L224.55,247.83L235.84,247.08L236.97,246.7L247.12,245.95L248.25,245.2L251.64,243.69L252.76,242.94L255.02,240.3L256.15,240.3L265.18,237.29L266.3,235.4L267.43,235.4L268.56,233.14L270.82,233.14L271.95,232.01L275.33,230.13L276.46,229.37L280.97,227.11L282.1,226.74L283.23,226.74L284.36,225.98L291.13,223.72L292.26,222.97L296.77,220.71L297.9,219.96" style="vector-effect: non-scaling-stroke; fill: none; stroke: rgb(255, 225, 25); stroke-opacity: 1; stroke-width: 2px; opacity: 1;"/></g><g class="points"/><g class="text"/></g><g class="trace scatter trace42df48" style="stroke-miterlimit: 2; opacity: 1;"><g class="fills"/><g class="errorbars"/><g class="lines"><path class="js-line" d="M0,256.5L69.96,255.75L71.09,255.37L73.35,254.62L74.47,254.24L77.86,253.49L78.99,252.73L83.5,252.36L84.63,251.23L88.02,251.23L89.14,250.47L92.53,250.47L93.66,249.34L95.91,247.46L97.04,247.08L99.3,246.33L100.43,245.95L103.81,244.44L104.94,242.94L108.33,242.56L109.46,241.43L116.23,239.17L117.35,238.04L118.48,236.16L119.61,236.16L121.87,232.01L123,232.01L125.25,230.5L126.38,230.13L129.77,227.11L130.9,227.11L132.02,223.35L133.15,223.35L135.41,223.35L136.54,221.84L141.05,221.46L142.18,219.2L144.44,218.45L145.56,216.94L147.82,216.94L148.95,214.3L155.72,212.42L156.85,209.78L162.49,206.77L163.62,206.77L165.88,204.89L167,204.51L168.13,204.13L169.26,202.63L170.39,202.63L171.52,200.74L174.9,200.37L176.03,199.23L177.16,199.23L178.29,197.73L179.42,197.73L180.55,196.97L186.19,194.34L187.32,193.58L188.44,192.08L189.57,192.08L192.96,186.43L194.09,186.05L195.21,185.67L196.34,180.02L197.47,178.89L198.6,178.89L199.73,169.1L200.86,169.1L203.11,169.1L204.24,164.57L206.5,163.44L207.63,161.56L208.76,159.3L209.88,159.3L212.14,158.92L213.27,151.39L216.65,143.48L217.78,143.48L218.91,143.48L220.04,138.96L224.55,130.67L225.68,130.67L226.81,130.67L227.94,124.26L230.2,117.86L231.32,116.73L232.45,115.22L233.58,115.22L234.71,115.22L235.84,111.83L236.97,111.83L238.09,108.44L241.48,105.05L242.61,105.05L247.12,99.4L248.25,99.02L249.38,99.02L250.51,97.14L252.76,94.12L253.89,92.62L256.15,91.49L257.28,91.49L258.41,91.49L259.53,90.36L261.79,89.23L262.92,88.1L267.43,86.59L268.56,85.83L270.82,83.95L271.95,83.95L275.33,83.2L276.46,82.44L277.59,81.31L278.72,81.31L283.23,80.56L284.36,80.18L285.49,78.68L286.62,78.68L291.13,78.68L292.26,76.79L296.77,74.53L297.9,74.53" style="vector-effect: non-scaling-stroke; fill: none; stroke: rgb(67, 99, 216); stroke-opacity: 1; stroke-width: 2px; opacity: 1;"/></g><g class="points"/><g class="text"/></g><g class="trace scatter traceff29f5" style="stroke-miterlimit: 2; opacity: 1;"><g class="fills"/><g class="errorbars"/><g class="lines"><path class="js-line" d="M0,256.5L151.21,255.75L152.34,255.37L155.72,254.99L156.85,254.99L205.37,254.24L206.5,253.86L214.4,253.49L215.53,251.98L229.07,251.6L230.2,250.85L242.61,250.1L243.74,249.72L253.89,249.34L255.02,248.59L257.28,247.83L258.41,247.83L268.56,247.08L269.69,246.7L271.95,245.57L273.08,245.57L276.46,245.2L277.59,245.2L290,244.82L291.13,243.31L293.39,242.56L294.51,241.05L297.9,240.68" style="vector-effect: non-scaling-stroke; fill: none; stroke: rgb(245, 130, 49); stroke-opacity: 1; stroke-width: 2px; opacity: 1;"/></g><g class="points"/><g class="text"/></g><g class="trace scatter trace02f35a" style="stroke-miterlimit: 2; opacity: 1;"><g class="fills"/><g class="errorbars"/><g class="lines"><path class="js-line" d="M0,256.5L92.53,255.75L93.66,255.37L152.34,254.62L153.46,254.24L229.07,253.49L230.2,253.11L261.79,252.36L262.92,251.98L269.69,251.6L270.82,250.85L271.95,249.72L273.08,249.72L275.33,248.97L276.46,248.59L278.72,248.21L279.85,247.83L282.1,247.08L283.23,247.08L288.87,244.07L290,244.07L293.39,242.18L294.51,240.68L297.9,239.92" style="vector-effect: non-scaling-stroke; fill: none; stroke: rgb(145, 30, 180); stroke-opacity: 1; stroke-width: 2px; opacity: 1;"/></g><g class="points"/><g class="text"/></g></g></g><g class="overplot"/><path class="xlines-above crisp" d="M0,0" style="fill: none;"/><path class="ylines-above crisp" d="M0,0" style="fill: none;"/><g class="overlines-above"/><g class="xaxislayer-above"><g class="x2tick"><text text-anchor="middle" x="0" y="383" transform="translate(488.11,0)" style="font-family: 'Open Sans', verdana, arial, sans-serif; font-size: 12px; fill: rgb(242, 245, 250); fill-opacity: 1; white-space: pre;">Mar 2020</text></g><g class="x2tick"><text text-anchor="middle" x="0" y="383" transform="translate(556.94,0)" style="font-family: 'Open Sans', verdana, arial, sans-serif; font-size: 12px; fill: rgb(242, 245, 250); fill-opacity: 1; white-space: pre;">May 2020</text></g><g class="x2tick"><text text-anchor="middle" x="0" y="383" transform="translate(625.77,0)" style="font-family: 'Open Sans', verdana, arial, sans-serif; font-size: 12px; fill: rgb(242, 245, 250); fill-opacity: 1; white-space: pre;">Jul 2020</text></g><g class="x2tick"><text text-anchor="middle" x="0" y="383" transform="translate(695.74,0)" style="font-family: 'Open Sans', verdana, arial, sans-serif; font-size: 12px; fill: rgb(242, 245, 250); fill-opacity: 1; white-space: pre;">Sep 2020</text></g></g><g class="yaxislayer-above"><g class="y2tick"><text text-anchor="end" x="443.1" y="4.199999999999999" transform="translate(0,356.5)" style="font-family: 'Open Sans', verdana, arial, sans-serif; font-size: 12px; fill: rgb(242, 245, 250); fill-opacity: 1; white-space: pre;">0</text></g><g class="y2tick"><text text-anchor="end" x="443.1" y="4.199999999999999" transform="translate(0,318.83000000000004)" style="font-family: 'Open Sans', verdana, arial, sans-serif; font-size: 12px; fill: rgb(242, 245, 250); fill-opacity: 1; white-space: pre;">100</text></g><g class="y2tick"><text text-anchor="end" x="443.1" y="4.199999999999999" transform="translate(0,281.15)" style="font-family: 'Open Sans', verdana, arial, sans-serif; font-size: 12px; fill: rgb(242, 245, 250); fill-opacity: 1; white-space: pre;">200</text></g><g class="y2tick"><text text-anchor="end" x="443.1" y="4.199999999999999" transform="translate(0,243.48)" style="font-family: 'Open Sans', verdana, arial, sans-serif; font-size: 12px; fill: rgb(242, 245, 250); fill-opacity: 1; white-space: pre;">300</text></g><g class="y2tick"><text text-anchor="end" x="443.1" y="4.199999999999999" transform="translate(0,205.8)" style="font-family: 'Open Sans', verdana, arial, sans-serif; font-size: 12px; fill: rgb(242, 245, 250); fill-opacity: 1; white-space: pre;">400</text></g><g class="y2tick"><text text-anchor="end" x="443.1" y="4.199999999999999" transform="translate(0,168.13)" style="font-family: 'Open Sans', verdana, arial, sans-serif; font-size: 12px; fill: rgb(242, 245, 250); fill-opacity: 1; white-space: pre;">500</text></g><g class="y2tick"><text text-anchor="end" x="443.1" y="4.199999999999999" transform="translate(0,130.45)" style="font-family: 'Open Sans', verdana, arial, sans-serif; font-size: 12px; fill: rgb(242, 245, 250); fill-opacity: 1; white-space: pre;">600</text></g></g><g class="overaxes-above"/></g></g><g class="polarlayer"/><g class="ternarylayer"/><g class="geolayer"/><g class="funnelarealayer"/><g class="pielayer"/><g class="treemaplayer"/><g class="sunburstlayer"/><g class="glimages"/><defs id="topdefs-7c9e8b"><g class="clips"/><clipPath id="legend7c9e8b"><rect width="133" height="124" x="0" y="0"/></clipPath></defs><g class="layer-above"><g class="imagelayer"/><g class="shapelayer"/></g><g class="infolayer"><g class="legend" pointer-events="all" transform="translate(755.24, 100)"><rect class="bg" shape-rendering="crispEdges" width="133" height="124" x="0" y="0" style="stroke: rgb(68, 68, 68); stroke-opacity: 1; fill: rgb(17, 17, 17); fill-opacity: 1; stroke-width: 0px;"/><g class="scrollbox" transform="translate(0, 0)" clip-path="url('#legend7c9e8b')"><g class="groups"><g class="traces" transform="translate(0, 14.5)" style="opacity: 1;"><text class="legendtext user-select-none" text-anchor="start" x="40" y="4.680000000000001" style="font-family: 'Open Sans', verdana, arial, sans-serif; font-size: 12px; fill: rgb(242, 245, 250); fill-opacity: 1; white-space: pre;">Alameda, CA</text><g class="layers" style="opacity: 1;"><g class="legendfill"/><g class="legendlines"><path class="js-line" d="M5,0h30" style="fill: none; stroke: rgb(230, 25, 75); stroke-opacity: 1; stroke-width: 2px;"/></g><g class="legendsymbols"><g class="legendpoints"/></g></g><rect class="legendtoggle" pointer-events="all" x="0" y="-9.5" width="127.171875" height="19" style="cursor: pointer; fill: rgb(0, 0, 0); fill-opacity: 0;"/></g><g class="traces" transform="translate(0, 33.5)" style="opacity: 1;"><text class="legendtext user-select-none" text-anchor="start" x="40" y="4.680000000000001" style="font-family: 'Open Sans', verdana, arial, sans-serif; font-size: 12px; fill: rgb(242, 245, 250); fill-opacity: 1; white-space: pre;">Baltimore, MD</text><g class="layers" style="opacity: 1;"><g class="legendfill"/><g class="legendlines"><path class="js-line" d="M5,0h30" style="fill: none; stroke: rgb(60, 180, 75); stroke-opacity: 1; stroke-width: 2px;"/></g><g class="legendsymbols"><g class="legendpoints"/></g></g><rect class="legendtoggle" pointer-events="all" x="0" y="-9.5" width="127.171875" height="19" style="cursor: pointer; fill: rgb(0, 0, 0); fill-opacity: 0;"/></g><g class="traces" transform="translate(0, 52.5)" style="opacity: 1;"><text class="legendtext user-select-none" text-anchor="start" x="40" y="4.680000000000001" style="font-family: 'Open Sans', verdana, arial, sans-serif; font-size: 12px; fill: rgb(242, 245, 250); fill-opacity: 1; white-space: pre;">Kanawha, WV</text><g class="layers" style="opacity: 1;"><g class="legendfill"/><g class="legendlines"><path class="js-line" d="M5,0h30" style="fill: none; stroke: rgb(255, 225, 25); stroke-opacity: 1; stroke-width: 2px;"/></g><g class="legendsymbols"><g class="legendpoints"/></g></g><rect class="legendtoggle" pointer-events="all" x="0" y="-9.5" width="127.171875" height="19" style="cursor: pointer; fill: rgb(0, 0, 0); fill-opacity: 0;"/></g><g class="traces" transform="translate(0, 71.5)" style="opacity: 1;"><text class="legendtext user-select-none" text-anchor="start" x="40" y="4.680000000000001" style="font-family: 'Open Sans', verdana, arial, sans-serif; font-size: 12px; fill: rgb(242, 245, 250); fill-opacity: 1; white-space: pre;">Lee, FL</text><g class="layers" style="opacity: 1;"><g class="legendfill"/><g class="legendlines"><path class="js-line" d="M5,0h30" style="fill: none; stroke: rgb(67, 99, 216); stroke-opacity: 1; stroke-width: 2px;"/></g><g class="legendsymbols"><g class="legendpoints"/></g></g><rect class="legendtoggle" pointer-events="all" x="0" y="-9.5" width="127.171875" height="19" style="cursor: pointer; fill: rgb(0, 0, 0); fill-opacity: 0;"/></g><g class="traces" transform="translate(0, 90.5)" style="opacity: 1;"><text class="legendtext user-select-none" text-anchor="start" x="40" y="4.680000000000001" style="font-family: 'Open Sans', verdana, arial, sans-serif; font-size: 12px; fill: rgb(242, 245, 250); fill-opacity: 1; white-space: pre;">Vanderburgh, IN</text><g class="layers" style="opacity: 1;"><g class="legendfill"/><g class="legendlines"><path class="js-line" d="M5,0h30" style="fill: none; stroke: rgb(245, 130, 49); stroke-opacity: 1; stroke-width: 2px;"/></g><g class="legendsymbols"><g class="legendpoints"/></g></g><rect class="legendtoggle" pointer-events="all" x="0" y="-9.5" width="127.171875" height="19" style="cursor: pointer; fill: rgb(0, 0, 0); fill-opacity: 0;"/></g><g class="traces" transform="translate(0, 109.5)" style="opacity: 1;"><text class="legendtext user-select-none" text-anchor="start" x="40" y="4.680000000000001" style="font-family: 'Open Sans', verdana, arial, sans-serif; font-size: 12px; fill: rgb(242, 245, 250); fill-opacity: 1; white-space: pre;">Tazewell, IL</text><g class="layers" style="opacity: 1;"><g class="legendfill"/><g class="legendlines"><path class="js-line" d="M5,0h30" style="fill: none; stroke: rgb(145, 30, 180); stroke-opacity: 1; stroke-width: 2px;"/></g><g class="legendsymbols"><g class="legendpoints"/></g></g><rect class="legendtoggle" pointer-events="all" x="0" y="-9.5" width="127.171875" height="19" style="cursor: pointer; fill: rgb(0, 0, 0); fill-opacity: 0;"/></g></g></g><rect class="scrollbar" rx="20" ry="3" width="0" height="0" x="0" y="0" style="fill: rgb(128, 139, 164); fill-opacity: 1;"/></g><g class="g-gtitle"/><g class="g-xtitle"><text class="xtitle" x="228.95000000000002" y="410.8" text-anchor="middle" style="font-family: 'Open Sans', verdana, arial, sans-serif; font-size: 14px; fill: rgb(242, 245, 250); opacity: 1; font-weight: normal; white-space: pre;">Date</text></g><g class="g-x2title"><text class="x2title" x="593.05" y="410.8" text-anchor="middle" style="font-family: 'Open Sans', verdana, arial, sans-serif; font-size: 14px; fill: rgb(242, 245, 250); opacity: 1; font-weight: normal; white-space: pre;">Date</text></g><g class="g-ytitle"><text class="ytitle" transform="rotate(-90,34.840625,235)" x="34.840625" y="235" text-anchor="middle" style="font-family: 'Open Sans', verdana, arial, sans-serif; font-size: 14px; fill: rgb(242, 245, 250); opacity: 1; font-weight: normal; white-space: pre;">Cases</text></g><g class="g-y2title"><text class="y2title" transform="rotate(-90,398.278125,235)" x="398.278125" y="235" text-anchor="middle" style="font-family: 'Open Sans', verdana, arial, sans-serif; font-size: 14px; fill: rgb(242, 245, 250); opacity: 1; font-weight: normal; white-space: pre;">Deaths</text></g><g class="annotation" data-index="0" style="opacity: 1;"><g class="annotation-text-g" transform="rotate(0,228.95000000000002,89.5)"><g class="cursor-pointer" transform="translate(204, 79)"><rect class="bg" x="0.5" y="0.5" width="48" height="20" style="stroke-width: 1px; stroke: rgb(0, 0, 0); stroke-opacity: 0; fill: rgb(0, 0, 0); fill-opacity: 0;"/><text class="annotation-text" text-anchor="middle" x="24.6875" y="16" style="font-family: 'Open Sans', verdana, arial, sans-serif; font-size: 16px; fill: rgb(242, 245, 250); fill-opacity: 1; white-space: pre;">Cases</text></g></g></g><g class="annotation" data-index="1" style="opacity: 1;"><g class="annotation-text-g" transform="rotate(0,593.0500000000001,89.5)"><g class="cursor-pointer" transform="translate(566, 79)"><rect class="bg" x="0.5" y="0.5" width="54" height="20" style="stroke-width: 1px; stroke: rgb(0, 0, 0); stroke-opacity: 0; fill: rgb(0, 0, 0); fill-opacity: 0;"/><text class="annotation-text" text-anchor="middle" x="27.359375" y="16" style="font-family: 'Open Sans', verdana, arial, sans-serif; font-size: 16px; fill: rgb(242, 245, 250); fill-opacity: 1; white-space: pre;">Deaths</text></g></g></g></g></svg>