<svg class="main-svg" xmlns="http://www.w3.org/2000/svg" xmlns:xlink="http://www.w3.org/1999/xlink" width="900" height="450" style="" viewBox="0 0 900 450"><rect x="0" y="0" width="900" height="450" style="fill: rgb(17, 17, 17); fill-opacity: 1;"/><defs id="defs-73e832"><g class="clips"><clipPath id="clip73e832xyplot" class="plotclip"><rect width="303.75" height="270"/></clipPath><clipPath id="clip73e832x2y2plot" class="plotclip"><rect width="303.74999999999994" height="270"/></clipPath><clipPath class="axesclip" id="clip73e832x"><rect x="80" y="0" width="303.75" height="450"/></clipPath><clipPath class="axesclip" id="clip73e832y"><rect x="0" y="100" width="900" height="270"/></clipPath><clipPath class="axesclip" id="clip73e832xy"><rect x="80" y="100" width="303.75" height="270"/></clipPath><clipPath class="axesclip" id="clip73e832y2"><rect x="0" y="100" width="900" height="270"/></clipPath><clipPath class="axesclip" id="clip73e832xy2"><rect x="80" y="100" width="303.75" height="270"/></clipPath><clipPath class="axesclip" id="clip73e832x2"><rect x="451.25000000000006" y="0" width="303.74999999999994" height="450"/></clipPath><clipPath class="axesclip" id="clip73e832x2y"><rect x="451.25000000000006" y="100" width="303.74999999999994" height="270"/></clipPath><clipPath class="axesclip" id="clip73e832x2y2"><rect x="451.25000000000006" y="100" width="303.74999999999994" height="270"/></clipPath></g><g class="gradients"/></defs><g class="bglayer"/><g class="layer-below"><g class="imagelayer"/><g class="shapelayer"/></g><g class="cartesianlayer"><g class="subplot xy"><g class="layer-subplot"><g class="shapelayer"/><g class="imagelayer"/></g><g class="gridlayer"><g class="x"><path class="xgrid crisp" transform="translate(120.02000000000001,0)" d="M0,100v270" style="stroke: rgb(40, 52, 66); stroke-opacity: 1; stroke-width: 1px;"/><path class="xgrid crisp" transform="translate(182.62,0)" d="M0,100v270" style="stroke: rgb(40, 52, 66); stroke-opacity: 1; stroke-width: 1px;"/><path class="xgrid crisp" transform="translate(245.22,0)" d="M0,100v270" style="stroke: rgb(40, 52, 66); stroke-opacity: 1; stroke-width: 1px;"/><path class="xgrid crisp" transform="translate(308.84000000000003,0)" d="M0,100v270" style="stroke: rgb(40, 52, 66); stroke-opacity: 1; stroke-width: 1px;"/><path class="xgrid crisp" transform="translate(371.44,0)" d="M0,100v270" style="stroke: rgb(40, 52, 66); stroke-opacity: 1; stroke-width: 1px;"/></g><g class="y"><path class="ygrid crisp" transform="translate(0,320.61)" d="M80,0h303.75" style="stroke: rgb(40, 52, 66); stroke-opacity: 1; stroke-width: 1px;"/><path class="ygrid crisp" transform="translate(0,284.71000000000004)" d="M80,0h303.75" style="stroke: rgb(40, 52, 66); stroke-opacity: 1; stroke-width: 1px;"/><path class="ygrid crisp" transform="translate(0,248.82)" d="M80,0h303.75" style="stroke: rgb(40, 52, 66); stroke-opacity: 1; stroke-width: 1px;"/><path class="ygrid crisp" transform="translate(0,212.93)" d="M80,0h303.75" style="stroke: rgb(40, 52, 66); stroke-opacity: 1; stroke-width: 1px;"/><path class="ygrid crisp" transform="translate(0,177.04000000000002)" d="M80,0h303.75" style="stroke: rgb(40, 52, 66); stroke-opacity: 1; stroke-width: 1px;"/><path class="ygrid crisp" transform="translate(0,141.14)" d="M80,0h303.75" style="stroke: rgb(40, 52, 66); stroke-opacity: 1; stroke-width: 1px;"/><path class="ygrid crisp" transform="translate(0,105.25)" d="M80,0h303.75" style="stroke: rgb(40, 52, 66); stroke-opacity: 1; stroke-width: 1px;"/></g></g><g class="zerolinelayer"><path class="yzl zl crisp" transform="translate(0,356.5)" d="M80,0h303.75" style="stroke: rgb(40, 52, 66); stroke-opacity: 1; stroke-width: 2px;"/></g><path class="xlines-below"/><path class="ylines-below"/><g class="overlines-below"/><g class="xaxislayer-below"/><g class="yaxislayer-below"/><g class="overaxes-below"/><g class="plot" transform="translate(80, 100)" clip-path="url('#clip73e832xyplot')"><g class="scatterlayer mlayer"><g class="trace scatter trace01b96b" style="stroke-miterlimit: 2; opacity: 1;"><g class="fills"/><g class="errorbars"/><g class="lines"><path class="js-line" d="M0,256.5L60.54,256.03L61.57,255.74L70.81,254.25L71.83,253.92L87.23,249.27L88.25,248.88L99.54,245.5L100.57,245.24L110.83,241.98L111.85,241.68L119.04,239.33L120.06,238.86L132.38,232.89L133.4,232.16L142.64,227.89L143.67,227.55L153.93,222.01L154.95,222.01L158.03,218.63L159.06,217.87L164.19,213.69L165.22,212.31L167.27,210.04L168.29,209.44L169.32,207.29L170.35,207.06L171.37,207.06L172.4,204.49L175.48,201.05L176.5,201.05L180.61,194.57L181.63,192.91L183.69,190.19L184.71,190.06L186.77,187.28L187.79,185.66L189.84,182.35L190.87,182.06L191.9,181.57L192.92,180.17L193.95,179.17L194.97,176.6L196,176.6L197.03,174.06L198.05,173.77L199.08,171.46L200.11,171.01L201.13,169.38L204.21,169.38L205.24,161.75L206.26,161.61L207.29,158.41L209.34,154.36L210.37,152L211.39,152L212.42,147.94L213.45,147.89L214.47,145.69L217.55,138.28L218.58,136.67L220.63,136.38L221.66,132.49L223.71,130.01L224.73,128.38L225.76,128.38L226.79,127L228.84,124.09L229.86,122.3L232.94,119.17L233.97,119.17L235,117.6L236.02,117.6L238.07,115.01L239.1,114.23L240.13,114.1L241.15,112.99L245.26,111.77L246.28,110.32L250.39,107.56L251.41,106.91L255.52,104.39L256.55,104.03L264.76,99.94L265.78,99.69L269.89,97.5L270.91,97.5L272.96,96.24L273.99,95.92L276.04,95.28L277.07,94.01L285.28,88.59L286.3,88.59L289.38,85.83L290.41,85.11L295.54,81.56L296.57,81.21L299.65,77.03L300.67,76.25L303.75,72.74" style="vector-effect: non-scaling-stroke; fill: none; stroke: rgb(230, 25, 75); stroke-opacity: 1; stroke-width: 2px; opacity: 1;"/></g><g class="points"/><g class="text"/></g><g class="trace scatter trace837150" style="stroke-miterlimit: 2; opacity: 1;"><g class="fills"/><g class="errorbars"/><g class="lines"><path class="js-line" d="M0,256.5L72.86,255.77L73.89,255.69L88.25,254.42L89.28,254.32L96.46,253.33L97.49,253.22L127.25,250.99L128.27,250.98L148.8,249.33L149.82,249.18L159.06,246.42L160.08,245.31L163.16,244.28L164.19,242.49L166.24,240.42L167.27,239.29L171.37,234.54L172.4,233.61L175.48,230.21L176.5,226.74L179.58,222.44L180.61,220.22L183.69,215.12L184.71,214.15L197.03,199.73L198.05,199.02L202.16,195.37L203.18,193.64L205.24,188.25L206.26,187.36L209.34,184.46L210.37,183.84L219.6,179.04L220.63,178.74L227.81,176.22L228.84,175.7L243.21,170.76L244.23,170.55L256.55,168.57L257.57,168.07L270.91,165.52L271.94,165.35L282.2,161.79L283.23,161.15L286.3,160.49L287.33,159.98L295.54,155.76L296.57,155L300.67,152.45L301.7,151.63L303.75,149.67" style="vector-effect: non-scaling-stroke; fill: none; stroke: rgb(60, 180, 75); stroke-opacity: 1; stroke-width: 2px; opacity: 1;"/></g><g class="points"/><g class="text"/></g><g class="trace scatter trace81b523" style="stroke-miterlimit: 2; opacity: 1;"><g class="fills"/><g class="errorbars"/><g class="lines"><path class="js-line" d="M0,256.5L66.7,255.76L67.73,255.6L71.83,254.86L72.86,254.77L87.23,252.2L88.25,252.2L92.36,249.86L93.38,249.65L97.49,248.46L98.51,248.32L101.59,247.12L102.62,246.79L105.7,246.31L106.72,245.75L122.12,242.37L123.14,242.19L127.25,241.78L128.27,240.57L133.4,239.01L134.43,238.42L136.48,237.75L137.51,236.69L142.64,233.63L143.67,233.34L147.77,232.65L148.8,232.36L157.01,230.29L158.03,230.07L169.32,227.54L170.35,226.54L182.66,220.88L183.69,219.39L187.79,216.05L188.82,214.61L190.87,212.46L191.9,211.13L207.29,197.07L208.32,193.31L215.5,185.43L216.52,184.33L218.58,181.2L219.6,181.2L223.71,176.34L224.73,175L225.76,173.12L226.79,173.12L231.92,165.93L232.94,164.49L238.07,161.16L239.1,159.98L244.23,155.86L245.26,155.28L248.34,152.38L249.36,151.95L253.47,147.5L254.49,145.82L257.57,143.17L258.6,141.8L273.99,122.95L275.02,121.15L284.25,102.11L285.28,99.71L291.44,84.95L292.46,83.53L302.72,55.89L303.75,51.34" style="vector-effect: non-scaling-stroke; fill: none; stroke: rgb(255, 225, 25); stroke-opacity: 1; stroke-width: 2px; opacity: 1;"/></g><g class="points"/><g class="text"/></g><g class="trace scatter trace6eadac" style="stroke-miterlimit: 2; opacity: 1;"><g class="fills"/><g class="errorbars"/><g class="lines"><path class="js-line" d="M0,256.5L65.68,255.93L66.7,255.61L79.02,252.41L80.04,251.55L83.12,249.26L84.15,248.14L87.23,246.63L88.25,245.9L94.41,239.54L95.43,236.79L97.49,235.76L98.51,234.95L102.62,228.53L103.64,227.46L106.72,221.8L107.75,221.8L110.83,216.23L111.85,214.2L115.96,206.6L116.98,205.11L125.19,192.29L126.22,191.97L128.27,185.87L129.3,184.22L131.35,179.42L132.38,178.21L137.51,171.69L138.53,171.05L139.56,169.96L140.59,167.09L142.64,165.37L143.67,165L158.03,158.96L159.06,158.79L168.29,155.48L169.32,154.9L176.5,152.54L177.53,152.01L181.63,150.75L182.66,150.27L189.84,146.92L190.87,146.64L192.92,145.17L193.95,144.73L198.05,143.31L199.08,142.31L215.5,132.81L216.52,132.1L231.92,121.97L232.94,121L238.07,118.08L239.1,117.53L242.18,115.38L243.21,114.85L250.39,110.25L251.41,109.79L262.7,103.73L263.73,103.19L265.78,102.54L266.81,101.21L278.1,93.64L279.12,93.05L281.17,91.29L282.2,90.41L287.33,86.74L288.36,85.42L295.54,79L296.57,77.69L303.75,68.85" style="vector-effect: non-scaling-stroke; fill: none; stroke: rgb(67, 99, 216); stroke-opacity: 1; stroke-width: 2px; opacity: 1;"/></g><g class="points"/><g class="text"/></g><g class="trace scatter traceb21061" style="stroke-miterlimit: 2; opacity: 1;"><g class="fills"/><g class="errorbars"/><g class="lines"><path class="js-line" d="M0,256.5L63.62,255.76L64.65,255.56L77.99,250.79L79.02,250.22L91.33,243.86L92.36,243.12L96.46,239.91L97.49,238.96L105.7,229.2L106.72,228.37L112.88,222.44L113.91,219.74L115.96,217.36L116.98,216.06L125.19,207.03L126.22,205.82L128.27,204.17L129.3,203.74L133.4,201.18L134.43,200.76L150.85,195.15L151.88,194.95L167.27,190.52L168.29,189.98L176.5,186.73L177.53,186.19L180.61,185.31L181.63,184.62L203.18,170.21L204.21,169.25L212.42,163.95L213.45,162.95L225.76,153.14L226.79,152.46L229.86,150.47L230.89,149.97L232.94,147.05L233.97,146.51L237.05,144.57L238.07,143.77L244.23,139.46L245.26,138.96L261.68,126.36L262.7,125.79L265.78,123.1L266.81,121.63L271.94,115.51L272.96,114.6L277.07,107.73L278.1,106.13L286.3,88.47L287.33,85.79L289.38,79.22L290.41,79.22L292.46,69.39L293.49,66.18L295.54,58.49L296.57,49.51L303.75,13.5" style="vector-effect: non-scaling-stroke; fill: none; stroke: rgb(245, 130, 49); stroke-opacity: 1; stroke-width: 2px; opacity: 1;"/></g><g class="points"/><g class="text"/></g><g class="trace scatter trace573110" style="stroke-miterlimit: 2; opacity: 1;"><g class="fills"/><g class="errorbars"/><g class="lines"><path class="js-line" d="M0,256.5L64.65,255.77L65.68,255.51L70.81,253.21L71.83,252.47L73.89,251.15L74.91,250.05L77.99,247.93L79.02,246.97L84.15,241.13L85.17,240.66L90.3,236.17L91.33,235.14L92.36,234.66L93.38,233.15L94.41,231.17L95.43,226.64L96.46,225.06L97.49,225.06L100.57,221.53L101.59,220.01L104.67,216.97L105.7,216.29L111.85,210.69L112.88,210.15L114.93,209.18L115.96,207.87L123.14,203.62L124.17,203.21L133.4,200.08L134.43,197.64L148.8,195.4L149.82,195.38L186.77,192.49L187.79,192.32L213.45,189.83L214.47,189.83L216.52,189.83L217.55,188.73L223.71,188.05L224.73,187.84L233.97,186.42L235,186.37L241.15,185.42L242.18,185.26L260.65,182.11L261.68,181.81L269.89,179.55L270.91,178.79L282.2,174.12L283.23,173.46L290.41,169.9L291.44,169.41L295.54,167.27L296.57,166.6L303.75,161.71" style="vector-effect: non-scaling-stroke; fill: none; stroke: rgb(145, 30, 180); stroke-opacity: 1; stroke-width: 2px; opacity: 1;"/></g><g class="points"/><g class="text"/></g></g></g><g class="overplot"/><path class="xlines-above crisp" d="M0,0" style="fill: none;"/><path class="ylines-above crisp" d="M0,0" style="fill: none;"/><g class="overlines-above"/><g class="xaxislayer-above"><g class="xtick"><text text-anchor="middle" x="0" y="383" transform="translate(120.02000000000001,0)" style="font-family: 'Open Sans', verdana, arial, sans-serif; font-size: 12px; fill: rgb(242, 245, 250); fill-opacity: 1; white-space: pre;">Mar 2020</text></g><g class="xtick"><text text-anchor="middle" x="0" y="383" transform="translate(182.62,0)" style="font-family: 'Open Sans', verdana, arial, sans-serif; font-size: 12px; fill: rgb(242, 245, 250); fill-opacity: 1; white-space: pre;">May 2020</text></g><g class="xtick"><text text-anchor="middle" x="0" y="383" transform="translate(245.22,0)" style="font-family: 'Open Sans', verdana, arial, sans-serif; font-size: 12px; fill: rgb(242, 245, 250); fill-opacity: 1; white-space: pre;">Jul 2020</text></g><g class="xtick"><text text-anchor="middle" x="0" y="383" transform="translate(308.84000000000003,0)" style="font-family: 'Open Sans', verdana, arial, sans-serif; font-size: 12px; fill: rgb(242, 245, 250); fill-opacity: 1; white-space: pre;">Sep 2020</text></g><g class="xtick"><text text-anchor="middle" x="0" y="383" transform="translate(371.44,0)" style="font-family: 'Open Sans', verdana, arial, sans-serif; font-size: 12px; fill: rgb(242, 245, 250); fill-opacity: 1; white-space: pre;">Nov 2020</text></g></g><g class="yaxislayer-above"><g class="ytick"><text text-anchor="end" x="79" y="4.199999999999999" transform="translate(0,356.5)" style="font-family: 'Open Sans', verdana, arial, sans-serif; font-size: 12px; fill: rgb(242, 245, 250); fill-opacity: 1; white-space: pre;">0</text></g><g class="ytick"><text text-anchor="end" x="79" y="4.199999999999999" transform="translate(0,320.61)" style="font-family: 'Open Sans', verdana, arial, sans-serif; font-size: 12px; fill: rgb(242, 245, 250); fill-opacity: 1; white-space: pre;">5k</text></g><g class="ytick"><text text-anchor="end" x="79" y="4.199999999999999" transform="translate(0,284.71000000000004)" style="font-family: 'Open Sans', verdana, arial, sans-serif; font-size: 12px; fill: rgb(242, 245, 250); fill-opacity: 1; white-space: pre;">10k</text></g><g class="ytick"><text text-anchor="end" x="79" y="4.199999999999999" transform="translate(0,248.82)" style="font-family: 'Open Sans', verdana, arial, sans-serif; font-size: 12px; fill: rgb(242, 245, 250); fill-opacity: 1; white-space: pre;">15k</text></g><g class="ytick"><text text-anchor="end" x="79" y="4.199999999999999" transform="translate(0,212.93)" style="font-family: 'Open Sans', verdana, arial, sans-serif; font-size: 12px; fill: rgb(242, 245, 250); fill-opacity: 1; white-space: pre;">20k</text></g><g class="ytick"><text text-anchor="end" x="79" y="4.199999999999999" transform="translate(0,177.04000000000002)" style="font-family: 'Open Sans', verdana, arial, sans-serif; font-size: 12px; fill: rgb(242, 245, 250); fill-opacity: 1; white-space: pre;">25k</text></g><g class="ytick"><text text-anchor="end" x="79" y="4.199999999999999" transform="translate(0,141.14)" style="font-family: 'Open Sans', verdana, arial, sans-serif; font-size: 12px; fill: rgb(242, 245, 250); fill-opacity: 1; white-space: pre;">30k</text></g><g class="ytick"><text text-anchor="end" x="79" y="4.199999999999999" transform="translate(0,105.25)" style="font-family: 'Open Sans', verdana, arial, sans-serif; font-size: 12px; fill: rgb(242, 245, 250); fill-opacity: 1; white-space: pre;">35k</text></g></g><g class="overaxes-above"/></g><g class="subplot x2y2"><g class="layer-subplot"><g class="shapelayer"/><g class="imagelayer"/></g><g class="gridlayer"><g class="x2"><path class="x2grid crisp" transform="translate(491.27000000000004,0)" d="M0,100v270" style="stroke: rgb(40, 52, 66); stroke-opacity: 1; stroke-width: 1px;"/><path class="x2grid crisp" transform="translate(553.8700000000001,0)" d="M0,100v270" style="stroke: rgb(40, 52, 66); stroke-opacity: 1; stroke-width: 1px;"/><path class="x2grid crisp" transform="translate(616.47,0)" d="M0,100v270" style="stroke: rgb(40, 52, 66); stroke-opacity: 1; stroke-width: 1px;"/><path class="x2grid crisp" transform="translate(680.09,0)" d="M0,100v270" style="stroke: rgb(40, 52, 66); stroke-opacity: 1; stroke-width: 1px;"/><path class="x2grid crisp" transform="translate(742.69,0)" d="M0,100v270" style="stroke: rgb(40, 52, 66); stroke-opacity: 1; stroke-width: 1px;"/></g><g class="y2"><path class="y2grid crisp" transform="translate(0,300.18)" d="M451.25000000000006,0h303.74999999999994" style="stroke: rgb(40, 52, 66); stroke-opacity: 1; stroke-width: 1px;"/><path class="y2grid crisp" transform="translate(0,243.87)" d="M451.25000000000006,0h303.74999999999994" style="stroke: rgb(40, 52, 66); stroke-opacity: 1; stroke-width: 1px;"/><path class="y2grid crisp" transform="translate(0,187.55)" d="M451.25000000000006,0h303.74999999999994" style="stroke: rgb(40, 52, 66); stroke-opacity: 1; stroke-width: 1px;"/><path class="y2grid crisp" transform="translate(0,131.24)" d="M451.25000000000006,0h303.74999999999994" style="stroke: rgb(40, 52, 66); stroke-opacity: 1; stroke-width: 1px;"/></g></g><g class="zerolinelayer"><path class="y2zl zl crisp" transform="translate(0,356.5)" d="M451.25000000000006,0h303.74999999999994" style="stroke: rgb(40, 52, 66); stroke-opacity: 1; stroke-width: 2px;"/></g><path class="xlines-below"/><path class="ylines-below"/><g class="overlines-below"/><g class="xaxislayer-below"/><g class="yaxislayer-below"/><g class="overaxes-below"/><g class="plot" transform="translate(451.25000000000006, 100)" clip-path="url('#clip73e832x2y2plot')"><g class="scatterlayer mlayer"><g class="trace scatter tracefdb535" style="stroke-miterlimit: 2; opacity: 1;"><g class="fills"/><g class="errorbars"/><g class="lines"><path class="js-line" d="M0,256.5L64.65,255.94L65.68,255.37L67.73,254.81L68.75,254.53L72.86,253.97L73.89,253.12L76.96,252.84L77.99,252.28L82.09,250.59L83.12,250.02L85.17,250.02L86.2,246.36L88.25,245.52L89.28,244.96L95.43,242.98L96.46,241.86L98.51,241.86L99.54,241.01L104.67,238.76L105.7,238.76L107.75,237.92L108.78,237.63L110.83,236.51L111.85,236.51L112.88,236.51L113.91,235.66L119.04,233.13L120.06,233.13L123.14,231.16L124.17,231.16L127.25,230.31L128.27,230.31L132.38,229.75L133.4,229.47L137.51,229.19L138.53,228.06L142.64,227.78L143.67,226.93L145.72,225.81L146.74,225.81L148.8,224.96L149.82,224.96L151.88,223.56L152.9,223.27L157.01,222.71L158.03,222.15L160.08,219.9L161.11,219.9L163.16,219.05L164.19,218.49L169.32,217.08L170.35,217.08L172.4,216.52L173.42,215.39L177.53,214.83L178.56,213.7L180.61,213.14L181.63,211.17L184.71,210.88L185.74,209.48L188.82,206.38L189.84,206.38L191.9,206.38L192.92,205.53L196,205.25L197.03,203.28L199.08,203.28L200.11,202.44L203.18,202.16L204.21,202.16L205.24,198.78L206.26,198.78L207.29,198.78L208.32,196.81L210.37,194.83L211.39,194.83L214.47,193.43L215.5,192.3L217.55,190.89L218.58,190.89L220.63,190.61L221.66,188.92L224.73,186.95L225.76,186.95L226.79,184.13L227.81,184.13L228.84,184.13L229.86,179.35L230.89,173.44L231.92,173.15L233.97,172.31L235,172.03L236.02,172.03L237.05,171.18L238.07,171.18L239.1,166.4L240.13,166.4L241.15,163.02L242.18,162.74L243.21,156.26L244.23,156.26L245.26,153.72L247.31,151.19L248.34,151.19L249.36,151.19L250.39,146.69L254.49,142.18L255.52,142.18L257.57,141.62L258.6,140.49L259.62,138.24L260.65,138.24L261.68,136.83L262.7,136.83L264.76,136.27L265.78,135.14L279.12,134.86L280.15,134.01L281.17,128.1L282.2,128.1L284.25,126.69L285.28,126.69L289.38,126.13L290.41,126.13L295.54,125.57L296.57,123.88L298.62,123.03L299.65,123.03L300.67,123.03L301.7,120.5L303.75,119.65" style="vector-effect: non-scaling-stroke; fill: none; stroke: rgb(230, 25, 75); stroke-opacity: 1; stroke-width: 2px; opacity: 1;"/></g><g class="points"/><g class="text"/></g><g class="trace scatter tracee33a7f" style="stroke-miterlimit: 2; opacity: 1;"><g class="fills"/><g class="errorbars"/><g class="lines"><path class="js-line" d="M0,256.5L77.99,255.94L79.02,255.66L87.23,255.37L88.25,254.81L90.3,254.25L91.33,254.25L93.38,253.68L94.41,253.68L97.49,253.4L98.51,253.4L105.7,252.84L106.72,252.56L111.85,251.43L112.88,251.43L116.98,250.87L118.01,250.87L122.12,250.59L123.14,249.74L127.25,249.18L128.27,249.18L131.35,247.21L132.38,247.21L137.51,246.64L138.53,246.36L150.85,245.8L151.88,245.24L154.95,244.96L155.98,244.96L158.03,244.39L159.06,244.39L162.14,244.11L163.16,244.11L167.27,243.55L168.29,243.27L171.37,242.98L172.4,242.14L177.53,241.29L178.56,241.29L186.77,238.76L187.79,235.94L191.9,233.41L192.92,233.41L196,229.75L197.03,229.19L199.08,229.19L200.11,228.06L204.21,222.71L205.24,222.71L206.26,222.71L207.29,219.61L211.39,214.26L212.42,213.7L213.45,213.7L214.47,211.73L217.55,208.35L218.58,208.35L220.63,208.35L221.66,206.38L222.68,206.1L223.71,204.97L235,202.16L236.02,202.16L237.05,201.87L238.07,200.18L240.13,199.34L241.15,199.34L242.18,199.06L243.21,197.37L246.28,195.4L247.31,195.4L250.39,195.12L251.41,193.99L252.44,192.3L253.47,192.3L257.57,191.74L258.6,190.33L263.73,188.08L264.76,188.08L267.83,184.7L268.86,184.7L270.91,182.73L271.94,182.16L272.96,182.16L273.99,181.32L278.1,180.76L279.12,180.76L289.38,180.19L290.41,179.91L296.57,179.35L297.59,177.94L298.62,177.94L299.65,177.1L302.72,176.53L303.75,175.12" style="vector-effect: non-scaling-stroke; fill: none; stroke: rgb(60, 180, 75); stroke-opacity: 1; stroke-width: 2px; opacity: 1;"/></g><g class="points"/><g class="text"/></g><g class="trace scatter traceaabedd" style="stroke-miterlimit: 2; opacity: 1;"><g class="fills"/><g class="errorbars"/><g class="lines"><path class="js-line" d="M0,256.5L65.68,255.94L66.7,255.37L69.78,255.37L70.81,254.25L71.83,253.97L72.86,252.84L73.89,251.71L74.91,251.71L79.02,247.77L80.04,246.36L81.07,244.67L82.09,244.67L83.12,244.67L84.15,243.55L94.41,234.54L95.43,234.54L97.49,233.69L98.51,233.13L104.67,229.75L105.7,228.06L107.75,226.65L108.78,226.37L112.88,224.96L113.91,224.12L119.04,223.56L120.06,220.18L121.09,219.61L122.12,217.92L125.19,216.8L126.22,216.8L128.27,216.52L129.3,215.95L131.35,215.67L132.38,213.42L133.4,213.42L134.43,212.57L136.48,211.45L137.51,210.6L139.56,208.91L140.59,208.91L143.67,208.63L144.69,208.07L146.74,207.22L147.77,207.22L149.82,206.38L150.85,205.25L155.98,204.69L157.01,204.41L159.06,203.85L160.08,203L163.16,203L164.19,202.16L166.24,201.31L167.27,201.03L169.32,201.03L170.35,200.18L176.5,198.5L177.53,198.5L178.56,198.5L179.58,197.65L183.69,195.96L184.71,195.96L187.79,195.68L188.82,195.12L190.87,194.55L191.9,192.58L192.92,192.58L193.95,191.46L199.08,190.89L200.11,190.05L206.26,189.77L207.29,188.36L212.42,185.82L213.45,185.82L214.47,184.7L215.5,184.7L217.55,184.13L218.58,183.85L219.6,183.85L220.63,183.01L227.81,182.45L228.84,181.88L229.86,181.88L230.89,179.91L232.94,179.35L233.97,179.35L236.02,179.35L237.05,177.94L238.07,176.25L239.1,176.25L240.13,175.12L241.15,175.12L242.18,175.12L243.21,174L246.28,173.72L247.31,173.15L250.39,172.87L251.41,172.03L254.49,170.9L255.52,170.9L257.57,170.06L258.6,169.77L260.65,168.93L261.68,168.37L278.1,163.86L279.12,162.74L282.2,158.79L283.23,158.51L285.28,158.51L286.3,156.26L289.38,153.44L290.41,153.16L292.46,152.88L293.49,151.47L295.54,147.53L296.57,147.53L297.59,146.4L298.62,146.4L300.67,146.12L301.7,143.87L303.75,143.31" style="vector-effect: non-scaling-stroke; fill: none; stroke: rgb(255, 225, 25); stroke-opacity: 1; stroke-width: 2px; opacity: 1;"/></g><g class="points"/><g class="text"/></g><g class="trace scatter tracefd2169" style="stroke-miterlimit: 2; opacity: 1;"><g class="fills"/><g class="errorbars"/><g class="lines"><path class="js-line" d="M0,256.5L70.81,255.94L71.83,255.09L76.96,254.81L77.99,253.97L79.02,253.97L80.04,251.99L82.09,250.87L83.12,250.87L85.17,250.59L86.2,248.05L87.23,247.77L88.25,246.08L94.41,235.1L95.43,231.16L97.49,231.16L98.51,228.34L101.59,218.77L102.62,217.92L103.64,213.42L104.67,204.69L105.7,200.75L106.72,199.9L107.75,199.9L108.78,197.09L109.8,192.58L110.83,191.74L114.93,182.73L115.96,181.32L119.04,177.1L120.06,176.53L125.19,164.71L126.22,164.42L127.25,163.3L128.27,160.76L130.33,152.04L131.35,150.06L132.38,148.66L133.4,148.66L136.48,145L137.51,143.02L139.56,140.21L140.59,139.93L142.64,139.36L143.67,138.8L144.69,138.8L145.72,137.96L147.77,137.39L148.8,137.39L150.85,135.7L151.88,135.14L154.95,134.01L155.98,133.17L161.11,124.72L162.14,123.31L163.16,121.91L164.19,119.09L165.22,119.09L166.24,117.96L169.32,116.84L170.35,117.12L172.4,117.12L173.42,116.28L177.53,115.71L178.56,115.15L179.58,113.46L180.61,113.46L186.77,112.9L187.79,112.61L191.9,110.93L192.92,110.93L196,110.08L197.03,109.52L199.08,109.24L200.11,108.11L208.32,107.55L209.34,107.26L220.63,103.6L221.66,102.48L223.71,101.91L224.73,101.63L225.76,100.23L226.79,100.23L229.86,98.54L230.89,98.25L236.02,97.97L237.05,97.13L242.18,96.56L243.21,96.28L245.26,95.16L246.28,94.88L248.34,92.9L249.36,92.9L251.41,92.34L252.44,92.34L254.49,91.5L255.52,91.5L259.62,90.93L260.65,90.37L264.76,89.81L265.78,89.24L268.86,88.96L269.89,88.96L296.57,88.96L297.59,85.87L300.67,85.58L301.7,85.02L303.75,84.74" style="vector-effect: non-scaling-stroke; fill: none; stroke: rgb(67, 99, 216); stroke-opacity: 1; stroke-width: 2px; opacity: 1;"/></g><g class="points"/><g class="text"/></g><g class="trace scatter trace5d158e" style="stroke-miterlimit: 2; opacity: 1;"><g class="fills"/><g class="errorbars"/><g class="lines"><path class="js-line" d="M0,256.5L66.7,256.22L67.73,254.81L71.83,253.12L72.86,252.56L77.99,249.18L79.02,248.05L83.12,242.42L84.15,242.42L86.2,237.92L87.23,237.07L89.28,233.41L90.3,232.57L93.38,227.5L94.41,223.27L96.46,220.74L97.49,219.61L98.51,219.05L99.54,217.36L100.57,216.52L101.59,210.6L104.67,202.44L105.7,201.31L110.83,186.95L111.85,186.67L112.88,185.82L113.91,183.85L115.96,177.94L116.98,175.69L120.06,172.03L121.09,167.8L123.14,163.02L124.17,161.61L126.22,161.05L127.25,161.05L128.27,160.76L129.3,158.79L130.33,157.95L131.35,154.57L133.4,151.47L134.43,151.19L139.56,143.87L140.59,142.74L142.64,140.77L143.67,138.8L145.72,135.7L146.74,135.42L150.85,134.01L151.88,131.76L152.9,131.48L153.93,130.35L155.98,130.07L157.01,128.38L162.14,124.44L163.16,124.16L166.24,123.6L167.27,123.03L171.37,122.19L172.4,121.34L174.45,120.5L175.48,119.94L177.53,119.37L178.56,118.25L187.79,115.15L188.82,114.02L192.92,113.46L193.95,113.46L198.05,112.9L199.08,112.9L203.18,110.36L204.21,110.08L208.32,109.52L209.34,109.24L212.42,108.39L213.45,108.39L218.58,107.55L219.6,107.55L225.76,106.42L226.79,106.42L228.84,106.14L229.86,105.58L231.92,105.58L232.94,104.73L238.07,104.45L239.1,103.6L242.18,103.04L243.21,102.76L248.34,101.63L249.36,101.63L252.44,100.51L253.47,99.66L255.52,98.54L256.55,98.54L264.76,96L265.78,94.59L272.96,90.93L273.99,89.81L276.04,88.68L277.07,88.68L283.23,85.58L284.25,85.87L286.3,85.3L287.33,83.33L293.49,80.23L294.51,78.54L301.7,74.04L302.72,73.19L303.75,73.19" style="vector-effect: non-scaling-stroke; fill: none; stroke: rgb(245, 130, 49); stroke-opacity: 1; stroke-width: 2px; opacity: 1;"/></g><g class="points"/><g class="text"/></g><g class="trace scatter tracedd54be" style="stroke-miterlimit: 2; opacity: 1;"><g class="fills"/><g class="errorbars"/><g class="lines"><path class="js-line" d="M0,256.5L70.81,255.94L71.83,255.09L75.94,253.97L76.96,252.84L79.02,247.77L80.04,246.08L82.09,242.7L83.12,241.58L91.33,218.77L92.36,216.8L102.62,171.75L103.64,168.65L112.88,141.62L113.91,141.34L116.98,131.48L118.01,128.38L121.09,124.16L122.12,121.06L127.25,112.05L128.27,109.52L131.35,103.89L132.38,102.2L133.4,101.07L134.43,98.25L139.56,90.93L140.59,90.09L142.64,86.71L143.67,85.3L146.74,81.64L147.77,81.64L149.82,79.39L150.85,78.83L152.9,76.29L153.93,76.01L159.06,72.35L160.08,71.22L163.16,69.82L164.19,69.82L167.27,69.25L168.29,68.69L171.37,68.13L172.4,67L178.56,65.03L179.58,63.34L180.61,62.78L181.63,61.37L194.97,57.14L196,56.58L203.18,54.33L204.21,53.77L209.34,52.92L210.37,52.92L214.47,52.92L215.5,50.95L217.55,50.67L218.58,49.26L222.68,48.7L223.71,48.42L228.84,47.57L229.86,47.57L236.02,46.16L237.05,46.16L244.23,43.91L245.26,43.35L246.28,43.35L247.31,42.5L251.41,41.94L252.44,41.09L260.65,38.84L261.68,38L265.78,37.43L266.81,37.43L271.94,35.74L272.96,35.18L276.04,30.68L277.07,30.11L279.12,29.55L280.15,28.71L282.2,25.61L283.23,25.61L289.38,21.1L290.41,20.82L293.49,19.13L294.51,17.72L297.59,17.16L298.62,16.88L299.65,16.88L300.67,15.75L301.7,13.78L302.72,13.78L303.75,13.5" style="vector-effect: non-scaling-stroke; fill: none; stroke: rgb(145, 30, 180); stroke-opacity: 1; stroke-width: 2px; opacity: 1;"/></g><g class="points"/><g class="text"/></g></g></g><g class="overplot"/><path class="xlines-above crisp" d="M0,0" style="fill: none;"/><path class="ylines-above crisp" d="M0,0" style="fill: none;"/><g class="overlines-above"/><g class="xaxislayer-above"><g class="x2tick"><text text-anchor="middle" x="0" y="383" transform="translate(491.27000000000004,0)" style="font-family: 'Open Sans', verdana, arial, sans-serif; font-size: 12px; fill: rgb(242, 245, 250); fill-opacity: 1; white-space: pre;">Mar 2020</text></g><g class="x2tick"><text text-anchor="middle" x="0" y="383" transform="translate(553.8700000000001,0)" style="font-family: 'Open Sans', verdana, arial, sans-serif; font-size: 12px; fill: rgb(242, 245, 250); fill-opacity: 1; white-space: pre;">May 2020</text></g><g class="x2tick"><text text-anchor="middle" x="0" y="383" transform="translate(616.47,0)" style="font-family: 'Open Sans', verdana, arial, sans-serif; font-size: 12px; fill: rgb(242, 245, 250); fill-opacity: 1; white-space: pre;">Jul 2020</text></g><g class="x2tick"><text text-anchor="middle" x="0" y="383" transform="translate(680.09,0)" style="font-family: 'Open Sans', verdana, arial, sans-serif; font-size: 12px; fill: rgb(242, 245, 250); fill-opacity: 1; white-space: pre;">Sep 2020</text></g><g class="x2tick"><text text-anchor="middle" x="0" y="383" transform="translate(742.69,0)" style="font-family: 'Open Sans', verdana, arial, sans-serif; font-size: 12px; fill: rgb(242, 245, 250); fill-opacity: 1; white-space: pre;">Nov 2020</text></g></g><g class="yaxislayer-above"><g class="y2tick"><text text-anchor="end" x="450.25000000000006" y="4.199999999999999" transform="translate(0,356.5)" style="font-family: 'Open Sans', verdana, arial, sans-serif; font-size: 12px; fill: rgb(242, 245, 250); fill-opacity: 1; white-space: pre;">0</text></g><g class="y2tick"><text text-anchor="end" x="450.25000000000006" y="4.199999999999999" transform="translate(0,300.18)" style="font-family: 'Open Sans', verdana, arial, sans-serif; font-size: 12px; fill: rgb(242, 245, 250); fill-opacity: 1; white-space: pre;">200</text></g><g class="y2tick"><text text-anchor="end" x="450.25000000000006" y="4.199999999999999" transform="translate(0,243.87)" style="font-family: 'Open Sans', verdana, arial, sans-serif; font-size: 12px; fill: rgb(242, 245, 250); fill-opacity: 1; white-space: pre;">400</text></g><g class="y2tick"><text text-anchor="end" x="450.25000000000006" y="4.199999999999999" transform="translate(0,187.55)" style="font-family: 'Open Sans', verdana, arial, sans-serif; font-size: 12px; fill: rgb(242, 245, 250); fill-opacity: 1; white-space: pre;">600</text></g><g class="y2tick"><text text-anchor="end" x="450.25000000000006" y="4.199999999999999" transform="translate(0,131.24)" style="font-family: 'Open Sans', verdana, arial, sans-serif; font-size: 12px; fill: rgb(242, 245, 250); fill-opacity: 1; white-space: pre;">800</text></g></g><g class="overaxes-above"/></g></g><g class="polarlayer"/><g class="ternarylayer"/><g class="geolayer"/><g class="funnelarealayer"/><g class="pielayer"/><g class="treemaplayer"/><g class="sunburstlayer"/><g class="glimages"/><defs id="topdefs-73e832"><g class="clips"/><clipPath id="legend73e832"><rect width="120" height="124" x="0" y="0"/></clipPath></defs><g class="layer-above"><g class="imagelayer"/><g class="shapelayer"/></g><g class="infolayer"><g class="legend" pointer-events="all" transform="translate(768.5, 100)"><rect class="bg" shape-rendering="crispEdges" width="120" height="124" x="0" y="0" style="stroke: rgb(68, 68, 68); stroke-opacity: 1; fill: rgb(17, 17, 17); fill-opacity: 1; stroke-width: 0px;"/><g class="scrollbox" transform="translate(0, 0)" clip-path="url('#legend73e832')"><g class="groups"><g class="traces" transform="translate(0, 14.5)" style="opacity: 1;"><text class="legendtext user-select-none" text-anchor="start" x="40" y="4.680000000000001" style="font-family: 'Open Sans', verdana, arial, sans-serif; font-size: 12px; fill: rgb(242, 245, 250); fill-opacity: 1; white-space: pre;">Alameda, CA</text><g class="layers" style="opacity: 1;"><g class="legendfill"/><g class="legendlines"><path class="js-line" d="M5,0h30" style="fill: none; stroke: rgb(230, 25, 75); stroke-opacity: 1; stroke-width: 2px;"/></g><g class="legendsymbols"><g class="legendpoints"/></g></g><rect class="legendtoggle" pointer-events="all" x="0" y="-9.5" width="114.703125" height="19" style="cursor: pointer; fill: rgb(0, 0, 0); fill-opacity: 0;"/></g><g class="traces" transform="translate(0, 33.5)" style="opacity: 1;"><text class="legendtext user-select-none" text-anchor="start" x="40" y="4.680000000000001" style="font-family: 'Open Sans', verdana, arial, sans-serif; font-size: 12px; fill: rgb(242, 245, 250); fill-opacity: 1; white-space: pre;">Escambia, FL</text><g class="layers" style="opacity: 1;"><g class="legendfill"/><g class="legendlines"><path class="js-line" d="M5,0h30" style="fill: none; stroke: rgb(60, 180, 75); stroke-opacity: 1; stroke-width: 2px;"/></g><g class="legendsymbols"><g class="legendpoints"/></g></g><rect class="legendtoggle" pointer-events="all" x="0" y="-9.5" width="114.703125" height="19" style="cursor: pointer; fill: rgb(0, 0, 0); fill-opacity: 0;"/></g><g class="traces" transform="translate(0, 52.5)" style="opacity: 1;"><text class="legendtext user-select-none" text-anchor="start" x="40" y="4.680000000000001" style="font-family: 'Open Sans', verdana, arial, sans-serif; font-size: 12px; fill: rgb(242, 245, 250); fill-opacity: 1; white-space: pre;">Jefferson, KY</text><g class="layers" style="opacity: 1;"><g class="legendfill"/><g class="legendlines"><path class="js-line" d="M5,0h30" style="fill: none; stroke: rgb(255, 225, 25); stroke-opacity: 1; stroke-width: 2px;"/></g><g class="legendsymbols"><g class="legendpoints"/></g></g><rect class="legendtoggle" pointer-events="all" x="0" y="-9.5" width="114.703125" height="19" style="cursor: pointer; fill: rgb(0, 0, 0); fill-opacity: 0;"/></g><g class="traces" transform="translate(0, 71.5)" style="opacity: 1;"><text class="legendtext user-select-none" text-anchor="start" x="40" y="4.680000000000001" style="font-family: 'Open Sans', verdana, arial, sans-serif; font-size: 12px; fill: rgb(242, 245, 250); fill-opacity: 1; white-space: pre;">Fairfax, VA</text><g class="layers" style="opacity: 1;"><g class="legendfill"/><g class="legendlines"><path class="js-line" d="M5,0h30" style="fill: none; stroke: rgb(67, 99, 216); stroke-opacity: 1; stroke-width: 2px;"/></g><g class="legendsymbols"><g class="legendpoints"/></g></g><rect class="legendtoggle" pointer-events="all" x="0" y="-9.5" width="114.703125" height="19" style="cursor: pointer; fill: rgb(0, 0, 0); fill-opacity: 0;"/></g><g class="traces" transform="translate(0, 90.5)" style="opacity: 1;"><text class="legendtext user-select-none" text-anchor="start" x="40" y="4.680000000000001" style="font-family: 'Open Sans', verdana, arial, sans-serif; font-size: 12px; fill: rgb(242, 245, 250); fill-opacity: 1; white-space: pre;">Du Page, IL</text><g class="layers" style="opacity: 1;"><g class="legendfill"/><g class="legendlines"><path class="js-line" d="M5,0h30" style="fill: none; stroke: rgb(245, 130, 49); stroke-opacity: 1; stroke-width: 2px;"/></g><g class="legendsymbols"><g class="legendpoints"/></g></g><rect class="legendtoggle" pointer-events="all" x="0" y="-9.5" width="114.703125" height="19" style="cursor: pointer; fill: rgb(0, 0, 0); fill-opacity: 0;"/></g><g class="traces" transform="translate(0, 109.5)" style="opacity: 1;"><text class="legendtext user-select-none" text-anchor="start" x="40" y="4.680000000000001" style="font-family: 'Open Sans', verdana, arial, sans-serif; font-size: 12px; fill: rgb(242, 245, 250); fill-opacity: 1; white-space: pre;">Plymouth, MA</text><g class="layers" style="opacity: 1;"><g class="legendfill"/><g class="legendlines"><path class="js-line" d="M5,0h30" style="fill: none; stroke: rgb(145, 30, 180); stroke-opacity: 1; stroke-width: 2px;"/></g><g class="legendsymbols"><g class="legendpoints"/></g></g><rect class="legendtoggle" pointer-events="all" x="0" y="-9.5" width="114.703125" height="19" style="cursor: pointer; fill: rgb(0, 0, 0); fill-opacity: 0;"/></g></g></g><rect class="scrollbar" rx="20" ry="3" width="0" height="0" x="0" y="0" style="fill: rgb(128, 139, 164); fill-opacity: 1;"/></g><g class="g-gtitle"/><g class="g-xtitle"><text class="xtitle" x="231.875" y="410.8" text-anchor="middle" style="font-family: 'Open Sans', verdana, arial, sans-serif; font-size: 14px; fill: rgb(242, 245, 250); opacity: 1; font-weight: normal; white-space: pre;">Date</text></g><g class="g-x2title"><text class="x2title" x="603.125" y="410.8" text-anchor="middle" style="font-family: 'Open Sans', verdana, arial, sans-serif; font-size: 14px; fill: rgb(242, 245, 250); opacity: 1; font-weight: normal; white-space: pre;">Date</text></g><g class="g-ytitle"><text class="ytitle" transform="rotate(-90,34.840625,235)" x="34.840625" y="235" text-anchor="middle" style="font-family: 'Open Sans', verdana, arial, sans-serif; font-size: 14px; fill: rgb(242, 245, 250); opacity: 1; font-weight: normal; white-space: pre;">Cases</text></g><g class="g-y2title"><text class="y2title" transform="rotate(-90,405.41875,235)" x="405.41875" y="235" text-anchor="middle" style="font-family: 'Open Sans', verdana, arial, sans-serif; font-size: 14px; fill: rgb(242, 245, 250); opacity: 1; font-weight: normal; white-space: pre;">Deaths</text></g><g class="annotation" data-index="0" style="opacity: 1;"><g class="annotation-text-g" transform="rotate(0,231.875,89.5)"><g class="cursor-pointer" transform="translate(207, 79)"><rect class="bg" x="0.5" y="0.5" width="48" height="20" style="stroke-width: 1px; stroke: rgb(0, 0, 0); stroke-opacity: 0; fill: rgb(0, 0, 0); fill-opacity: 0;"/><text class="annotation-text" text-anchor="middle" x="24.6875" y="16" style="font-family: 'Open Sans', verdana, arial, sans-serif; font-size: 16px; fill: rgb(242, 245, 250); fill-opacity: 1; white-space: pre;">Cases</text></g></g></g><g class="annotation" data-index="1" style="opacity: 1;"><g class="annotation-text-g" transform="rotate(0,603.125,89.5)"><g class="cursor-pointer" transform="translate(576, 79)"><rect class="bg" x="0.5" y="0.5" width="54" height="20" style="stroke-width: 1px; stroke: rgb(0, 0, 0); stroke-opacity: 0; fill: rgb(0, 0, 0); fill-opacity: 0;"/><text class="annotation-text" text-anchor="middle" x="27.359375" y="16" style="font-family: 'Open Sans', verdana, arial, sans-serif; font-size: 16px; fill: rgb(242, 245, 250); fill-opacity: 1; white-space: pre;">Deaths</text></g></g></g></g></svg>