<svg class="main-svg" xmlns="http://www.w3.org/2000/svg" xmlns:xlink="http://www.w3.org/1999/xlink" width="900" height="450" style="" viewBox="0 0 900 450"><rect x="0" y="0" width="900" height="450" style="fill: rgb(17, 17, 17); fill-opacity: 1;"/><defs id="defs-31b0af"><g class="clips"><clipPath id="clip31b0afxyplot" class="plotclip"><rect width="297.45" height="270"/></clipPath><clipPath id="clip31b0afx2y2plot" class="plotclip"><rect width="297.45" height="270"/></clipPath><clipPath class="axesclip" id="clip31b0afx"><rect x="80" y="0" width="297.45" height="450"/></clipPath><clipPath class="axesclip" id="clip31b0afy"><rect x="0" y="100" width="900" height="270"/></clipPath><clipPath class="axesclip" id="clip31b0afxy"><rect x="80" y="100" width="297.45" height="270"/></clipPath><clipPath class="axesclip" id="clip31b0afy2"><rect x="0" y="100" width="900" height="270"/></clipPath><clipPath class="axesclip" id="clip31b0afxy2"><rect x="80" y="100" width="297.45" height="270"/></clipPath><clipPath class="axesclip" id="clip31b0afx2"><rect x="443.55" y="0" width="297.45" height="450"/></clipPath><clipPath class="axesclip" id="clip31b0afx2y"><rect x="443.55" y="100" width="297.45" height="270"/></clipPath><clipPath class="axesclip" id="clip31b0afx2y2"><rect x="443.55" y="100" width="297.45" height="270"/></clipPath></g><g class="gradients"/></defs><g class="bglayer"/><g class="layer-below"><g class="imagelayer"/><g class="shapelayer"/></g><g class="cartesianlayer"><g class="subplot xy"><g class="layer-subplot"><g class="shapelayer"/><g class="imagelayer"/></g><g class="gridlayer"><g class="x"><path class="xgrid crisp" transform="translate(122.81,0)" d="M0,100v270" style="stroke: rgb(40, 52, 66); stroke-opacity: 1; stroke-width: 1px;"/><path class="xgrid crisp" transform="translate(189.76,0)" d="M0,100v270" style="stroke: rgb(40, 52, 66); stroke-opacity: 1; stroke-width: 1px;"/><path class="xgrid crisp" transform="translate(256.71000000000004,0)" d="M0,100v270" style="stroke: rgb(40, 52, 66); stroke-opacity: 1; stroke-width: 1px;"/><path class="xgrid crisp" transform="translate(324.77,0)" d="M0,100v270" style="stroke: rgb(40, 52, 66); stroke-opacity: 1; stroke-width: 1px;"/></g><g class="y"><path class="ygrid crisp" transform="translate(0,303.07)" d="M80,0h297.45" style="stroke: rgb(40, 52, 66); stroke-opacity: 1; stroke-width: 1px;"/><path class="ygrid crisp" transform="translate(0,249.63)" d="M80,0h297.45" style="stroke: rgb(40, 52, 66); stroke-opacity: 1; stroke-width: 1px;"/><path class="ygrid crisp" transform="translate(0,196.2)" d="M80,0h297.45" style="stroke: rgb(40, 52, 66); stroke-opacity: 1; stroke-width: 1px;"/><path class="ygrid crisp" transform="translate(0,142.76)" d="M80,0h297.45" style="stroke: rgb(40, 52, 66); stroke-opacity: 1; stroke-width: 1px;"/></g></g><g class="zerolinelayer"><path class="yzl zl crisp" transform="translate(0,356.5)" d="M80,0h297.45" style="stroke: rgb(40, 52, 66); stroke-opacity: 1; stroke-width: 2px;"/></g><path class="xlines-below"/><path class="ylines-below"/><g class="overlines-below"/><g class="xaxislayer-below"/><g class="yaxislayer-below"/><g class="overaxes-below"/><g class="plot" transform="translate(80, 100)" clip-path="url('#clip31b0afxyplot')"><g class="scatterlayer mlayer"><g class="trace scatter tracea42b90" style="stroke-miterlimit: 2; opacity: 1;"><g class="fills"/><g class="errorbars"/><g class="lines"><path class="js-line" d="M0,256.5L64.76,255.81L65.86,255.37L71.34,254.15L72.44,253.76L76.83,252.66L77.93,252.27L90,247.05L91.1,247.05L95.49,244.59L96.59,244.06L99.88,242.82L100.98,242.07L106.47,240.12L107.56,239.74L115.25,236.59L116.35,236.01L128.42,230.24L129.52,229.55L132.81,227.56L133.91,226.93L144.88,218.94L145.98,218.58L151.47,214.34L152.57,213.91L154.76,212.48L155.86,211.44L161.35,208.06L162.45,206.93L165.74,205.15L166.84,202.99L172.32,196.57L173.42,195.9L174.52,194.92L175.62,192.76L178.91,187.33L180.01,186.44L181.1,183.24L182.2,182.9L183.3,182.9L184.4,179.07L187.69,173.94L188.79,173.94L192.08,165.9L193.18,164.3L196.47,157.78L197.57,157.58L198.67,156.22L199.76,153.45L203.06,146.1L204.15,145.68L205.25,144.95L206.35,142.87L207.45,141.37L208.54,137.54L209.64,137.54L210.74,133.77L211.84,133.34L212.93,129.9L214.03,129.23L215.13,126.8L218.42,126.8L219.52,115.44L220.62,115.24L221.72,110.47L222.81,105.82L223.91,104.44L225.01,100.92L226.11,100.92L227.2,94.88L228.3,94.81L233.79,78.1L234.89,77.78L235.98,77.68L237.08,71.88L238.18,70.71L239.28,68.19L240.37,65.77L241.47,65.77L249.16,52.05L250.25,52.05L251.35,49.71L252.45,49.71L254.64,45.86L255.74,44.7L256.84,44.5L257.94,42.86L262.33,41.03L263.42,38.87L265.62,36.8L266.72,35.91L273.3,30.05L274.4,29.51L282.08,24.1L283.18,23.43L286.47,22.01L287.57,20.62L291.96,17.91L293.06,17.43L295.25,16.48L296.35,14.59L297.45,13.5" style="vector-effect: non-scaling-stroke; fill: none; stroke: rgb(230, 25, 75); stroke-opacity: 1; stroke-width: 2px; opacity: 1;"/></g><g class="points"/><g class="text"/></g><g class="trace scatter traced8165e" style="stroke-miterlimit: 2; opacity: 1;"><g class="fills"/><g class="errorbars"/><g class="lines"><path class="js-line" d="M0,256.5L131.71,255.77L132.81,255.72L220.62,253.02L221.72,252.91L270.01,250.55L271.11,250.39L294.16,248.08L295.25,247.9L297.45,247.51" style="vector-effect: non-scaling-stroke; fill: none; stroke: rgb(60, 180, 75); stroke-opacity: 1; stroke-width: 2px; opacity: 1;"/></g><g class="points"/><g class="text"/></g><g class="trace scatter trace3f9fcd" style="stroke-miterlimit: 2; opacity: 1;"><g class="fills"/><g class="errorbars"/><g class="lines"><path class="js-line" d="M0,256.5L174.52,255.77L175.62,255.56L201.96,254.65L203.06,254.32L215.13,253.65L216.23,253.32L220.62,252.99L221.72,252.99L244.77,251.84L245.86,251.84L261.23,251.1L262.33,251.01L265.62,250.4L266.72,250.29L270.01,249.79L271.11,248.96L278.79,247.05L279.89,247.05L283.18,246.52L284.28,244.41L286.47,243.07L287.57,242.38L289.77,242.03L290.86,241.61L297.45,238.94" style="vector-effect: non-scaling-stroke; fill: none; stroke: rgb(255, 225, 25); stroke-opacity: 1; stroke-width: 2px; opacity: 1;"/></g><g class="points"/><g class="text"/></g><g class="trace scatter trace5bf36c" style="stroke-miterlimit: 2; opacity: 1;"><g class="fills"/><g class="errorbars"/><g class="lines"><path class="js-line" d="M0,256.5L196.47,255.76L197.57,255.72L217.33,255L218.42,254.94L239.28,253.92L240.37,253.8L297.45,250.13" style="vector-effect: non-scaling-stroke; fill: none; stroke: rgb(67, 99, 216); stroke-opacity: 1; stroke-width: 2px; opacity: 1;"/></g><g class="points"/><g class="text"/></g><g class="trace scatter tracee189e0" style="stroke-miterlimit: 2; opacity: 1;"><g class="fills"/><g class="errorbars"/><g class="lines"><path class="js-line" d="M0,256.5L83.42,255.81L84.52,255.73L107.56,254.99L108.66,254.94L130.61,254.19L131.71,254.18L151.47,253.28L152.57,253.2L164.64,252.57L165.74,252.4L173.42,251.82L174.52,251.54L185.49,249.47L186.59,248.89L190.98,247.42L192.08,246.82L196.47,244.14L197.57,243.96L203.06,242.07L204.15,241.12L208.54,239.74L209.64,238.91L234.89,231.78L235.98,231.6L250.25,228.77L251.35,228.41L254.64,227.61L255.74,227.12L262.33,225.65L263.42,225.32L267.81,224.75L268.91,224.28L273.3,223.25L274.4,223.12L280.99,221.93L282.08,221.32L288.67,219.19L289.77,218.29L294.16,217.05L295.25,216.53L297.45,215.28" style="vector-effect: non-scaling-stroke; fill: none; stroke: rgb(245, 130, 49); stroke-opacity: 1; stroke-width: 2px; opacity: 1;"/></g><g class="points"/><g class="text"/></g><g class="trace scatter trace71bfe4" style="stroke-miterlimit: 2; opacity: 1;"><g class="fills"/><g class="errorbars"/><g class="lines"><path class="js-line" d="M0,256.5L145.98,255.76L147.08,255.74L204.15,253.75L205.25,253.6L220.62,251.68L221.72,251.68L233.79,250.18L234.89,250.08L239.28,249.22L240.37,248.9L263.42,245.95L264.52,245.88L275.5,245.11L276.6,244.93L296.35,242.4L297.45,242.09" style="vector-effect: non-scaling-stroke; fill: none; stroke: rgb(145, 30, 180); stroke-opacity: 1; stroke-width: 2px; opacity: 1;"/></g><g class="points"/><g class="text"/></g></g></g><g class="overplot"/><path class="xlines-above crisp" d="M0,0" style="fill: none;"/><path class="ylines-above crisp" d="M0,0" style="fill: none;"/><g class="overlines-above"/><g class="xaxislayer-above"><g class="xtick"><text text-anchor="middle" x="0" y="383" transform="translate(122.81,0)" style="font-family: 'Open Sans', verdana, arial, sans-serif; font-size: 12px; fill: rgb(242, 245, 250); fill-opacity: 1; white-space: pre;">Mar 2020</text></g><g class="xtick"><text text-anchor="middle" x="0" y="383" transform="translate(189.76,0)" style="font-family: 'Open Sans', verdana, arial, sans-serif; font-size: 12px; fill: rgb(242, 245, 250); fill-opacity: 1; white-space: pre;">May 2020</text></g><g class="xtick"><text text-anchor="middle" x="0" y="383" transform="translate(256.71000000000004,0)" style="font-family: 'Open Sans', verdana, arial, sans-serif; font-size: 12px; fill: rgb(242, 245, 250); fill-opacity: 1; white-space: pre;">Jul 2020</text></g><g class="xtick"><text text-anchor="middle" x="0" y="383" transform="translate(324.77,0)" style="font-family: 'Open Sans', verdana, arial, sans-serif; font-size: 12px; fill: rgb(242, 245, 250); fill-opacity: 1; white-space: pre;">Sep 2020</text></g></g><g class="yaxislayer-above"><g class="ytick"><text text-anchor="end" x="79" y="4.199999999999999" transform="translate(0,356.5)" style="font-family: 'Open Sans', verdana, arial, sans-serif; font-size: 12px; fill: rgb(242, 245, 250); fill-opacity: 1; white-space: pre;">0</text></g><g class="ytick"><text text-anchor="end" x="79" y="4.199999999999999" transform="translate(0,303.07)" style="font-family: 'Open Sans', verdana, arial, sans-serif; font-size: 12px; fill: rgb(242, 245, 250); fill-opacity: 1; white-space: pre;">5k</text></g><g class="ytick"><text text-anchor="end" x="79" y="4.199999999999999" transform="translate(0,249.63)" style="font-family: 'Open Sans', verdana, arial, sans-serif; font-size: 12px; fill: rgb(242, 245, 250); fill-opacity: 1; white-space: pre;">10k</text></g><g class="ytick"><text text-anchor="end" x="79" y="4.199999999999999" transform="translate(0,196.2)" style="font-family: 'Open Sans', verdana, arial, sans-serif; font-size: 12px; fill: rgb(242, 245, 250); fill-opacity: 1; white-space: pre;">15k</text></g><g class="ytick"><text text-anchor="end" x="79" y="4.199999999999999" transform="translate(0,142.76)" style="font-family: 'Open Sans', verdana, arial, sans-serif; font-size: 12px; fill: rgb(242, 245, 250); fill-opacity: 1; white-space: pre;">20k</text></g></g><g class="overaxes-above"/></g><g class="subplot x2y2"><g class="layer-subplot"><g class="shapelayer"/><g class="imagelayer"/></g><g class="gridlayer"><g class="x2"><path class="x2grid crisp" transform="translate(486.36,0)" d="M0,100v270" style="stroke: rgb(40, 52, 66); stroke-opacity: 1; stroke-width: 1px;"/><path class="x2grid crisp" transform="translate(553.3100000000001,0)" d="M0,100v270" style="stroke: rgb(40, 52, 66); stroke-opacity: 1; stroke-width: 1px;"/><path class="x2grid crisp" transform="translate(620.26,0)" d="M0,100v270" style="stroke: rgb(40, 52, 66); stroke-opacity: 1; stroke-width: 1px;"/><path class="x2grid crisp" transform="translate(688.32,0)" d="M0,100v270" style="stroke: rgb(40, 52, 66); stroke-opacity: 1; stroke-width: 1px;"/></g><g class="y2"><path class="y2grid crisp" transform="translate(0,300.38)" d="M443.55,0h297.45" style="stroke: rgb(40, 52, 66); stroke-opacity: 1; stroke-width: 1px;"/><path class="y2grid crisp" transform="translate(0,244.26)" d="M443.55,0h297.45" style="stroke: rgb(40, 52, 66); stroke-opacity: 1; stroke-width: 1px;"/><path class="y2grid crisp" transform="translate(0,188.14)" d="M443.55,0h297.45" style="stroke: rgb(40, 52, 66); stroke-opacity: 1; stroke-width: 1px;"/><path class="y2grid crisp" transform="translate(0,132.02)" d="M443.55,0h297.45" style="stroke: rgb(40, 52, 66); stroke-opacity: 1; stroke-width: 1px;"/></g></g><g class="zerolinelayer"><path class="y2zl zl crisp" transform="translate(0,356.5)" d="M443.55,0h297.45" style="stroke: rgb(40, 52, 66); stroke-opacity: 1; stroke-width: 2px;"/></g><path class="xlines-below"/><path class="ylines-below"/><g class="overlines-below"/><g class="xaxislayer-below"/><g class="yaxislayer-below"/><g class="overaxes-below"/><g class="plot" transform="translate(443.55, 100)" clip-path="url('#clip31b0afx2y2plot')"><g class="scatterlayer mlayer"><g class="trace scatter trace35b5ea" style="stroke-miterlimit: 2; opacity: 1;"><g class="fills"/><g class="errorbars"/><g class="lines"><path class="js-line" d="M0,256.5L66.95,255.94L68.05,255.38L69.15,255.38L70.25,254.26L71.34,254.26L72.44,253.13L74.64,252.57L75.73,252.57L77.93,251.45L79.03,249.77L82.32,249.2L83.42,248.08L85.61,246.96L86.71,245.28L90,243.59L91.1,243.59L92.2,236.3L93.3,234.61L94.39,234.61L95.49,233.49L100.98,230.68L102.08,229.56L103.17,227.32L104.27,227.32L105.37,227.32L106.47,225.63L110.86,221.14L111.96,221.14L113.05,221.14L114.15,219.46L116.35,218.9L117.44,217.22L119.64,216.65L120.74,216.65L125.13,210.48L126.22,209.92L128.42,209.92L129.52,208.24L131.71,205.99L132.81,205.99L135,204.31L136.1,204.31L139.4,203.75L140.49,203.19L143.79,202.62L144.88,202.06L147.08,202.06L148.18,199.82L152.57,199.26L153.66,197.57L155.86,195.33L156.96,195.33L158.05,193.65L159.15,193.65L160.25,193.65L161.35,191.4L164.64,190.28L165.74,190.28L166.84,189.16L167.93,189.16L169.03,188.03L170.13,184.67L171.23,183.54L172.32,183.54L173.42,181.86L174.52,181.86L178.91,177.93L180.01,177.93L183.3,177.93L184.4,176.81L186.59,174L187.69,173.44L189.89,173.44L190.98,171.2L192.08,170.08L193.18,170.08L194.28,166.15L195.37,165.59L197.57,165.59L198.67,162.78L201.96,156.61L203.06,156.61L205.25,156.61L206.35,154.92L209.64,154.36L210.74,150.43L212.93,150.43L214.03,148.75L216.23,148.19L217.33,148.19L218.42,148.19L219.52,141.45L221.72,141.45L222.81,137.53L225.01,133.6L226.11,133.6L227.2,132.47L228.3,132.47L232.69,125.74L233.79,125.74L235.98,125.18L237.08,121.81L240.37,117.88L241.47,117.88L242.57,112.27L243.67,112.27L244.77,112.27L245.86,102.73L246.96,90.95L248.06,90.38L249.16,88.7L250.25,88.7L252.45,88.14L253.55,86.46L254.64,86.46L255.74,76.92L256.84,76.92L257.94,70.18L259.03,69.62L260.13,56.71L261.23,56.71L262.33,51.66L264.52,46.61L265.62,46.61L266.72,46.61L267.81,37.63L271.11,29.77L272.21,28.65L274.4,28.65L275.5,27.53L276.6,25.29L277.69,20.8L278.79,20.8L279.89,17.99L282.08,17.99L283.18,16.87L284.28,14.62L285.38,14.62L290.86,14.62L291.96,13.5L297.45,13.5" style="vector-effect: non-scaling-stroke; fill: none; stroke: rgb(230, 25, 75); stroke-opacity: 1; stroke-width: 2px; opacity: 1;"/></g><g class="points"/><g class="text"/></g><g class="trace scatter trace141a51" style="stroke-miterlimit: 2; opacity: 1;"><g class="fills"/><g class="errorbars"/><g class="lines"><path class="js-line" d="M0,256.5L99.88,255.94L100.98,255.38L150.37,254.82L151.47,254.26L178.91,253.69L180.01,253.13L197.57,252.57L198.67,252.01L209.64,251.45L210.74,250.89L214.03,250.33L215.13,249.77L216.23,248.64L217.33,248.64L238.18,248.08L239.28,247.52L284.28,246.96L285.38,245.28L289.77,244.71L290.86,244.15L297.45,243.59" style="vector-effect: non-scaling-stroke; fill: none; stroke: rgb(60, 180, 75); stroke-opacity: 1; stroke-width: 2px; opacity: 1;"/></g><g class="points"/><g class="text"/></g><g class="trace scatter tracebf0756" style="stroke-miterlimit: 2; opacity: 1;"><g class="fills"/><g class="errorbars"/><g class="lines"><path class="js-line" d="M0,256.5L225.01,255.94L226.11,255.38L283.18,254.82L284.28,254.26L293.06,253.69L294.16,252.57L297.45,252.57" style="vector-effect: non-scaling-stroke; fill: none; stroke: rgb(255, 225, 25); stroke-opacity: 1; stroke-width: 2px; opacity: 1;"/></g><g class="points"/><g class="text"/></g><g class="trace scatter trace473674" style="stroke-miterlimit: 2; opacity: 1;"><g class="fills"/><g class="errorbars"/><g class="lines"><path class="js-line" d="M0,256.5L200.86,255.94L201.96,255.38L243.67,254.82L244.77,253.69L259.03,253.13L260.13,252.57L268.91,252.01L270.01,251.45L272.21,250.89L273.3,249.2L274.4,245.28L275.5,245.28L288.67,244.71L289.77,244.15L296.35,244.15L297.45,243.03" style="vector-effect: non-scaling-stroke; fill: none; stroke: rgb(67, 99, 216); stroke-opacity: 1; stroke-width: 2px; opacity: 1;"/></g><g class="points"/><g class="text"/></g><g class="trace scatter trace5072dc" style="stroke-miterlimit: 2; opacity: 1;"><g class="fills"/><g class="errorbars"/><g class="lines"><path class="js-line" d="M0,256.5L82.32,255.94L83.42,255.38L151.47,254.82L152.57,254.26L167.93,253.69L169.03,253.13L171.23,252.57L172.32,252.57L197.57,252.01L198.67,251.45L207.45,250.89L208.54,250.33L214.03,249.77L215.13,249.2L222.81,248.64L223.91,248.08L228.3,247.52L229.4,246.4L231.59,244.15L232.69,243.59L234.89,243.03L235.98,241.35L238.18,240.79L239.28,240.79L241.47,240.79L242.57,239.66L251.35,239.1L252.45,237.98L253.55,236.86L254.64,236.86L256.84,234.61L257.94,234.61L261.23,233.49L262.33,233.49L263.42,233.49L264.52,232.37L275.5,231.81L276.6,230.68L285.38,230.12L286.47,229.56L289.77,229L290.86,228.44L297.45,227.88" style="vector-effect: non-scaling-stroke; fill: none; stroke: rgb(245, 130, 49); stroke-opacity: 1; stroke-width: 2px; opacity: 1;"/></g><g class="points"/><g class="text"/></g><g class="trace scatter trace2647e2" style="stroke-miterlimit: 2; opacity: 1;"><g class="fills"/><g class="errorbars"/><g class="lines"><path class="js-line" d="M0,256.5L128.42,255.94L129.52,255.38L148.18,254.82L149.27,254.26L177.81,253.69L178.91,253.13L206.35,252.57L207.45,251.45L235.98,250.89L237.08,249.77L241.47,248.08L242.57,248.08L267.81,247.52L268.91,246.96L275.5,246.4L276.6,245.84L278.79,245.28L279.89,245.28L293.06,244.71L294.16,244.15L296.35,243.59L297.45,243.59" style="vector-effect: non-scaling-stroke; fill: none; stroke: rgb(145, 30, 180); stroke-opacity: 1; stroke-width: 2px; opacity: 1;"/></g><g class="points"/><g class="text"/></g></g></g><g class="overplot"/><path class="xlines-above crisp" d="M0,0" style="fill: none;"/><path class="ylines-above crisp" d="M0,0" style="fill: none;"/><g class="overlines-above"/><g class="xaxislayer-above"><g class="x2tick"><text text-anchor="middle" x="0" y="383" transform="translate(486.36,0)" style="font-family: 'Open Sans', verdana, arial, sans-serif; font-size: 12px; fill: rgb(242, 245, 250); fill-opacity: 1; white-space: pre;">Mar 2020</text></g><g class="x2tick"><text text-anchor="middle" x="0" y="383" transform="translate(553.3100000000001,0)" style="font-family: 'Open Sans', verdana, arial, sans-serif; font-size: 12px; fill: rgb(242, 245, 250); fill-opacity: 1; white-space: pre;">May 2020</text></g><g class="x2tick"><text text-anchor="middle" x="0" y="383" transform="translate(620.26,0)" style="font-family: 'Open Sans', verdana, arial, sans-serif; font-size: 12px; fill: rgb(242, 245, 250); fill-opacity: 1; white-space: pre;">Jul 2020</text></g><g class="x2tick"><text text-anchor="middle" x="0" y="383" transform="translate(688.32,0)" style="font-family: 'Open Sans', verdana, arial, sans-serif; font-size: 12px; fill: rgb(242, 245, 250); fill-opacity: 1; white-space: pre;">Sep 2020</text></g></g><g class="yaxislayer-above"><g class="y2tick"><text text-anchor="end" x="442.55" y="4.199999999999999" transform="translate(0,356.5)" style="font-family: 'Open Sans', verdana, arial, sans-serif; font-size: 12px; fill: rgb(242, 245, 250); fill-opacity: 1; white-space: pre;">0</text></g><g class="y2tick"><text text-anchor="end" x="442.55" y="4.199999999999999" transform="translate(0,300.38)" style="font-family: 'Open Sans', verdana, arial, sans-serif; font-size: 12px; fill: rgb(242, 245, 250); fill-opacity: 1; white-space: pre;">100</text></g><g class="y2tick"><text text-anchor="end" x="442.55" y="4.199999999999999" transform="translate(0,244.26)" style="font-family: 'Open Sans', verdana, arial, sans-serif; font-size: 12px; fill: rgb(242, 245, 250); fill-opacity: 1; white-space: pre;">200</text></g><g class="y2tick"><text text-anchor="end" x="442.55" y="4.199999999999999" transform="translate(0,188.14)" style="font-family: 'Open Sans', verdana, arial, sans-serif; font-size: 12px; fill: rgb(242, 245, 250); fill-opacity: 1; white-space: pre;">300</text></g><g class="y2tick"><text text-anchor="end" x="442.55" y="4.199999999999999" transform="translate(0,132.02)" style="font-family: 'Open Sans', verdana, arial, sans-serif; font-size: 12px; fill: rgb(242, 245, 250); fill-opacity: 1; white-space: pre;">400</text></g></g><g class="overaxes-above"/></g></g><g class="polarlayer"/><g class="ternarylayer"/><g class="geolayer"/><g class="funnelarealayer"/><g class="pielayer"/><g class="treemaplayer"/><g class="sunburstlayer"/><g class="glimages"/><defs id="topdefs-31b0af"><g class="clips"/><clipPath id="legend31b0af"><rect width="134" height="124" x="0" y="0"/></clipPath></defs><g class="layer-above"><g class="imagelayer"/><g class="shapelayer"/></g><g class="infolayer"><g class="legend" pointer-events="all" transform="translate(754.22, 100)"><rect class="bg" shape-rendering="crispEdges" width="134" height="124" x="0" y="0" style="stroke: rgb(68, 68, 68); stroke-opacity: 1; fill: rgb(17, 17, 17); fill-opacity: 1; stroke-width: 0px;"/><g class="scrollbox" transform="translate(0, 0)" clip-path="url('#legend31b0af')"><g class="groups"><g class="traces" transform="translate(0, 14.5)" style="opacity: 1;"><text class="legendtext user-select-none" text-anchor="start" x="40" y="4.680000000000001" style="font-family: 'Open Sans', verdana, arial, sans-serif; font-size: 12px; fill: rgb(242, 245, 250); fill-opacity: 1; white-space: pre;">Alameda, CA</text><g class="layers" style="opacity: 1;"><g class="legendfill"/><g class="legendlines"><path class="js-line" d="M5,0h30" style="fill: none; stroke: rgb(230, 25, 75); stroke-opacity: 1; stroke-width: 2px;"/></g><g class="legendsymbols"><g class="legendpoints"/></g></g><rect class="legendtoggle" pointer-events="all" x="0" y="-9.5" width="128.46875" height="19" style="cursor: pointer; fill: rgb(0, 0, 0); fill-opacity: 0;"/></g><g class="traces" transform="translate(0, 33.5)" style="opacity: 1;"><text class="legendtext user-select-none" text-anchor="start" x="40" y="4.680000000000001" style="font-family: 'Open Sans', verdana, arial, sans-serif; font-size: 12px; fill: rgb(242, 245, 250); fill-opacity: 1; white-space: pre;">Cass, MI</text><g class="layers" style="opacity: 1;"><g class="legendfill"/><g class="legendlines"><path class="js-line" d="M5,0h30" style="fill: none; stroke: rgb(60, 180, 75); stroke-opacity: 1; stroke-width: 2px;"/></g><g class="legendsymbols"><g class="legendpoints"/></g></g><rect class="legendtoggle" pointer-events="all" x="0" y="-9.5" width="128.46875" height="19" style="cursor: pointer; fill: rgb(0, 0, 0); fill-opacity: 0;"/></g><g class="traces" transform="translate(0, 52.5)" style="opacity: 1;"><text class="legendtext user-select-none" text-anchor="start" x="40" y="4.680000000000001" style="font-family: 'Open Sans', verdana, arial, sans-serif; font-size: 12px; fill: rgb(242, 245, 250); fill-opacity: 1; white-space: pre;">Missoula, MT</text><g class="layers" style="opacity: 1;"><g class="legendfill"/><g class="legendlines"><path class="js-line" d="M5,0h30" style="fill: none; stroke: rgb(255, 225, 25); stroke-opacity: 1; stroke-width: 2px;"/></g><g class="legendsymbols"><g class="legendpoints"/></g></g><rect class="legendtoggle" pointer-events="all" x="0" y="-9.5" width="128.46875" height="19" style="cursor: pointer; fill: rgb(0, 0, 0); fill-opacity: 0;"/></g><g class="traces" transform="translate(0, 71.5)" style="opacity: 1;"><text class="legendtext user-select-none" text-anchor="start" x="40" y="4.680000000000001" style="font-family: 'Open Sans', verdana, arial, sans-serif; font-size: 12px; fill: rgb(242, 245, 250); fill-opacity: 1; white-space: pre;">Smyth, VA</text><g class="layers" style="opacity: 1;"><g class="legendfill"/><g class="legendlines"><path class="js-line" d="M5,0h30" style="fill: none; stroke: rgb(67, 99, 216); stroke-opacity: 1; stroke-width: 2px;"/></g><g class="legendsymbols"><g class="legendpoints"/></g></g><rect class="legendtoggle" pointer-events="all" x="0" y="-9.5" width="128.46875" height="19" style="cursor: pointer; fill: rgb(0, 0, 0); fill-opacity: 0;"/></g><g class="traces" transform="translate(0, 90.5)" style="opacity: 1;"><text class="legendtext user-select-none" text-anchor="start" x="40" y="4.680000000000001" style="font-family: 'Open Sans', verdana, arial, sans-serif; font-size: 12px; fill: rgb(242, 245, 250); fill-opacity: 1; white-space: pre;">Montgomery, TN</text><g class="layers" style="opacity: 1;"><g class="legendfill"/><g class="legendlines"><path class="js-line" d="M5,0h30" style="fill: none; stroke: rgb(245, 130, 49); stroke-opacity: 1; stroke-width: 2px;"/></g><g class="legendsymbols"><g class="legendpoints"/></g></g><rect class="legendtoggle" pointer-events="all" x="0" y="-9.5" width="128.46875" height="19" style="cursor: pointer; fill: rgb(0, 0, 0); fill-opacity: 0;"/></g><g class="traces" transform="translate(0, 109.5)" style="opacity: 1;"><text class="legendtext user-select-none" text-anchor="start" x="40" y="4.680000000000001" style="font-family: 'Open Sans', verdana, arial, sans-serif; font-size: 12px; fill: rgb(242, 245, 250); fill-opacity: 1; white-space: pre;">Monroe, TN</text><g class="layers" style="opacity: 1;"><g class="legendfill"/><g class="legendlines"><path class="js-line" d="M5,0h30" style="fill: none; stroke: rgb(145, 30, 180); stroke-opacity: 1; stroke-width: 2px;"/></g><g class="legendsymbols"><g class="legendpoints"/></g></g><rect class="legendtoggle" pointer-events="all" x="0" y="-9.5" width="128.46875" height="19" style="cursor: pointer; fill: rgb(0, 0, 0); fill-opacity: 0;"/></g></g></g><rect class="scrollbar" rx="20" ry="3" width="0" height="0" x="0" y="0" style="fill: rgb(128, 139, 164); fill-opacity: 1;"/></g><g class="g-gtitle"/><g class="g-xtitle"><text class="xtitle" x="228.725" y="410.8" text-anchor="middle" style="font-family: 'Open Sans', verdana, arial, sans-serif; font-size: 14px; fill: rgb(242, 245, 250); opacity: 1; font-weight: normal; white-space: pre;">Date</text></g><g class="g-x2title"><text class="x2title" x="592.275" y="410.8" text-anchor="middle" style="font-family: 'Open Sans', verdana, arial, sans-serif; font-size: 14px; fill: rgb(242, 245, 250); opacity: 1; font-weight: normal; white-space: pre;">Date</text></g><g class="g-ytitle"><text class="ytitle" transform="rotate(-90,34.840625,235)" x="34.840625" y="235" text-anchor="middle" style="font-family: 'Open Sans', verdana, arial, sans-serif; font-size: 14px; fill: rgb(242, 245, 250); opacity: 1; font-weight: normal; white-space: pre;">Cases</text></g><g class="g-y2title"><text class="y2title" transform="rotate(-90,397.715625,235)" x="397.715625" y="235" text-anchor="middle" style="font-family: 'Open Sans', verdana, arial, sans-serif; font-size: 14px; fill: rgb(242, 245, 250); opacity: 1; font-weight: normal; white-space: pre;">Deaths</text></g><g class="annotation" data-index="0" style="opacity: 1;"><g class="annotation-text-g" transform="rotate(0,228.725,89.5)"><g class="cursor-pointer" transform="translate(204, 79)"><rect class="bg" x="0.5" y="0.5" width="48" height="20" style="stroke-width: 1px; stroke: rgb(0, 0, 0); stroke-opacity: 0; fill: rgb(0, 0, 0); fill-opacity: 0;"/><text class="annotation-text" text-anchor="middle" x="24.6875" y="16" style="font-family: 'Open Sans', verdana, arial, sans-serif; font-size: 16px; fill: rgb(242, 245, 250); fill-opacity: 1; white-space: pre;">Cases</text></g></g></g><g class="annotation" data-index="1" style="opacity: 1;"><g class="annotation-text-g" transform="rotate(0,592.275,89.5)"><g class="cursor-pointer" transform="translate(565, 79)"><rect class="bg" x="0.5" y="0.5" width="54" height="20" style="stroke-width: 1px; stroke: rgb(0, 0, 0); stroke-opacity: 0; fill: rgb(0, 0, 0); fill-opacity: 0;"/><text class="annotation-text" text-anchor="middle" x="27.359375" y="16" style="font-family: 'Open Sans', verdana, arial, sans-serif; font-size: 16px; fill: rgb(242, 245, 250); fill-opacity: 1; white-space: pre;">Deaths</text></g></g></g></g></svg>