<svg class="main-svg" xmlns="http://www.w3.org/2000/svg" xmlns:xlink="http://www.w3.org/1999/xlink" width="900" height="450" style="" viewBox="0 0 900 450"><rect x="0" y="0" width="900" height="450" style="fill: rgb(17, 17, 17); fill-opacity: 1;"/><defs id="defs-fe709f"><g class="clips"><clipPath id="clipfe709fxyplot" class="plotclip"><rect width="301.95" height="270"/></clipPath><clipPath id="clipfe709fx2y2plot" class="plotclip"><rect width="301.95" height="270"/></clipPath><clipPath class="axesclip" id="clipfe709fx"><rect x="80" y="0" width="301.95" height="450"/></clipPath><clipPath class="axesclip" id="clipfe709fy"><rect x="0" y="100" width="900" height="270"/></clipPath><clipPath class="axesclip" id="clipfe709fxy"><rect x="80" y="100" width="301.95" height="270"/></clipPath><clipPath class="axesclip" id="clipfe709fy2"><rect x="0" y="100" width="900" height="270"/></clipPath><clipPath class="axesclip" id="clipfe709fxy2"><rect x="80" y="100" width="301.95" height="270"/></clipPath><clipPath class="axesclip" id="clipfe709fx2"><rect x="449.05" y="0" width="301.95" height="450"/></clipPath><clipPath class="axesclip" id="clipfe709fx2y"><rect x="449.05" y="100" width="301.95" height="270"/></clipPath><clipPath class="axesclip" id="clipfe709fx2y2"><rect x="449.05" y="100" width="301.95" height="270"/></clipPath></g><g class="gradients"/></defs><g class="bglayer"/><g class="layer-below"><g class="imagelayer"/><g class="shapelayer"/></g><g class="cartesianlayer"><g class="subplot xy"><g class="layer-subplot"><g class="shapelayer"/><g class="imagelayer"/></g><g class="gridlayer"><g class="x"><path class="xgrid crisp" transform="translate(131.43,0)" d="M0,100v270" style="stroke: rgb(40, 52, 66); stroke-opacity: 1; stroke-width: 1px;"/><path class="xgrid crisp" transform="translate(198.28,0)" d="M0,100v270" style="stroke: rgb(40, 52, 66); stroke-opacity: 1; stroke-width: 1px;"/><path class="xgrid crisp" transform="translate(265.87,0)" d="M0,100v270" style="stroke: rgb(40, 52, 66); stroke-opacity: 1; stroke-width: 1px;"/><path class="xgrid crisp" transform="translate(333.46000000000004,0)" d="M0,100v270" style="stroke: rgb(40, 52, 66); stroke-opacity: 1; stroke-width: 1px;"/></g><g class="y"><path class="ygrid crisp" transform="translate(0,317.78999999999996)" d="M80,0h301.95" style="stroke: rgb(40, 52, 66); stroke-opacity: 1; stroke-width: 1px;"/><path class="ygrid crisp" transform="translate(0,279.08000000000004)" d="M80,0h301.95" style="stroke: rgb(40, 52, 66); stroke-opacity: 1; stroke-width: 1px;"/><path class="ygrid crisp" transform="translate(0,240.36)" d="M80,0h301.95" style="stroke: rgb(40, 52, 66); stroke-opacity: 1; stroke-width: 1px;"/><path class="ygrid crisp" transform="translate(0,201.65)" d="M80,0h301.95" style="stroke: rgb(40, 52, 66); stroke-opacity: 1; stroke-width: 1px;"/><path class="ygrid crisp" transform="translate(0,162.94)" d="M80,0h301.95" style="stroke: rgb(40, 52, 66); stroke-opacity: 1; stroke-width: 1px;"/><path class="ygrid crisp" transform="translate(0,124.23)" d="M80,0h301.95" style="stroke: rgb(40, 52, 66); stroke-opacity: 1; stroke-width: 1px;"/></g></g><g class="zerolinelayer"><path class="yzl zl crisp" transform="translate(0,356.5)" d="M80,0h301.95" style="stroke: rgb(40, 52, 66); stroke-opacity: 1; stroke-width: 2px;"/></g><path class="xlines-below"/><path class="ylines-below"/><g class="overlines-below"/><g class="xaxislayer-below"/><g class="yaxislayer-below"/><g class="overaxes-below"/><g class="plot" transform="translate(80, 100)" clip-path="url('#clipfe709fxyplot')"><g class="scatterlayer mlayer"><g class="trace scatter tracef73790" style="stroke-miterlimit: 2; opacity: 1;"><g class="fills"/><g class="errorbars"/><g class="lines"><path class="js-line" d="M0,256.5L51.43,255.81L52.16,255.73L95.51,249.94L96.24,249.78L106.53,248.04L107.26,247.83L113.14,246.29L113.87,246.08L120.49,243.81L121.22,243.23L123.42,242.48L124.16,242.16L127.1,241.06L127.83,240.39L141.79,234.19L142.53,233.57L146.2,233.01L146.93,230.95L147.67,230.92L148.4,230.05L150.61,228.32L151.34,228.32L152.81,227.21L153.55,226.62L156.49,224.19L157.22,224.13L157.95,224.11L158.69,223.06L163.1,221.3L163.83,220.8L166.77,219.47L167.51,219.47L171.18,218.14L171.91,218.1L174.85,217.6L175.59,217.47L179.26,216.34L179.99,216.16L188.81,214.41L189.55,214.29L197.63,213.03L198.36,212.69L216.73,207.34L217.46,206.95L221.87,204.38L222.61,203.81L227.75,200.64L228.48,200.14L233.63,195.06L234.36,193.51L235.09,193.35L235.83,191.2L239.5,186.46L240.24,182.52L242.44,178.57L243.18,178.53L245.38,171.33L246.11,169.87L250.52,160.18L251.26,158.94L253.46,154.93L254.2,152.91L256.4,148.3L257.14,147.27L258.6,144.39L259.34,141.97L266.69,125L267.42,124.04L270.36,120.85L271.09,119.41L281.38,108.43L282.11,107.97L288.73,103.79L289.46,103.37L296.81,100.24L297.54,100.09L301.95,98.92" style="vector-effect: non-scaling-stroke; fill: none; stroke: rgb(230, 25, 75); stroke-opacity: 1; stroke-width: 2px; opacity: 1;"/></g><g class="points"/><g class="text"/></g><g class="trace scatter tracebd760e" style="stroke-miterlimit: 2; opacity: 1;"><g class="fills"/><g class="errorbars"/><g class="lines"><path class="js-line" d="M0,256.5L80.81,255.75L81.55,255.74L106.53,254.47L107.26,254.35L113.87,251.66L114.61,251.25L117.55,249.64L118.28,248.79L124.89,244.77L125.63,242.3L127.83,240.94L128.57,240.63L130.04,238.61L130.77,236.19L131.51,235.32L132.24,232.76L136.65,227.17L137.38,227.17L139.59,224.8L140.32,224.28L148.4,217.5L149.14,216.95L152.81,213.89L153.55,213.89L155.02,211.76L155.75,210.99L159.42,206.27L160.16,205L161.63,203.75L162.36,203.75L176.32,197.71L177.06,197.31L179.99,196.99L180.73,196.18L183.67,195.41L184.4,195.19L193.22,191.94L193.95,191.94L199.1,190.34L199.83,190.34L207.91,187.23L208.65,187.23L210.85,186.53L211.59,186.28L213.79,185.49L214.52,185.49L218.2,184.08L218.93,184.08L220.4,183.76L221.14,182.94L224.07,178.91L224.81,178.91L225.54,178.91L226.28,176.23L227.75,174.76L228.48,173.57L230.69,173.23L231.42,172.21L234.36,168.65L235.09,168.65L236.56,167.9L237.3,166.59L238.03,166.59L238.77,165.32L239.5,165.32L240.24,164.44L240.97,164.44L241.71,163.57L244.65,163.57L245.38,164.38L249.05,161.7L249.79,161.7L251.26,161.12L251.99,160.52L254.2,158.12L254.93,158.12L255.67,158.12L256.4,157.26L258.6,155.16L259.34,152.44L260.81,152.44L261.54,151.4L265.22,147.23L265.95,147.23L266.69,147.23L267.42,145.93L270.36,141.74L271.09,141.74L274.77,135.29L275.5,135.29L276.24,135.29L276.97,133.91L279.18,128.95L279.91,127.64L281.38,127.64L282.11,125.67L285.05,121.03L285.79,121.03L287.26,121.03L287.99,119.88L289.46,118.72L290.2,117.8L291.66,117.8L292.4,116.45L294.6,112.06L295.34,110.17L296.81,110.17L297.54,108.97L301.22,106.37L301.95,106.37" style="vector-effect: non-scaling-stroke; fill: none; stroke: rgb(60, 180, 75); stroke-opacity: 1; stroke-width: 2px; opacity: 1;"/></g><g class="points"/><g class="text"/></g><g class="trace scatter tracec7edb9" style="stroke-miterlimit: 2; opacity: 1;"><g class="fills"/><g class="errorbars"/><g class="lines"><path class="js-line" d="M0,256.5L45.55,255.91L46.28,255.64L50.69,253.91L51.43,253.44L58.04,247.89L58.77,247.07L60.24,244.92L60.98,244.39L66.86,236.96L67.59,235.74L69.79,232.02L70.53,231.43L75.67,226L76.41,225.57L81.55,221.75L82.28,221.27L94.77,215.61L95.51,215.3L96.98,213.34L97.71,213.14L111.67,210.8L112.4,210.73L143.26,206.12L144,205.96L154.28,205.08L155.02,205.08L156.49,204.13L157.22,204.13L165.3,202.65L166.04,202.65L169.71,201.96L170.44,201.8L189.55,197.18L190.28,196.9L199.1,193.71L199.83,193.35L205.71,190.56L206.44,190.16L215.26,183.39L215.99,182.4L227.75,165.85L228.48,164.33L231.42,159.86L232.16,157.49L235.09,149.86L235.83,148.54L241.71,132.82L242.44,130.73L245.38,122.73L246.11,121.31L249.79,121.31L250.52,123.55L251.99,119.34L252.73,116.79L253.46,116.79L254.2,113.68L255.67,110.89L256.4,102.61L260.07,90L260.81,90L263.01,82.3L263.75,80.52L265.95,75.69L266.69,74.82L273.3,62.41L274.03,61.44L276.24,58.3L276.97,57.56L277.71,57.56L278.44,56.01L282.11,51.8L282.85,51.11L290.2,44.63L290.93,44.2L293.87,41.84L294.6,41.2L301.95,36.29" style="vector-effect: non-scaling-stroke; fill: none; stroke: rgb(255, 225, 25); stroke-opacity: 1; stroke-width: 2px; opacity: 1;"/></g><g class="points"/><g class="text"/></g><g class="trace scatter traceb9bdbd" style="stroke-miterlimit: 2; opacity: 1;"><g class="fills"/><g class="errorbars"/><g class="lines"><path class="js-line" d="M0,256.5L49.96,255.79L50.69,255.55L63.92,252.31L64.65,252.21L91.1,247.7L91.83,247.63L100.65,246.72L101.38,246.66L117.55,244.33L118.28,244.21L124.16,243.01L124.89,242.33L129.3,240.53L130.04,240.18L133.71,238.35L134.44,237.65L140.32,232.1L141.06,231.67L144,229.82L144.73,229.34L149.87,226.8L150.61,226.18L157.22,223.09L157.95,222.77L164.57,219.59L165.3,219.25L181.46,213.14L182.2,212.69L191.75,209.3L192.48,208.26L195.42,207.77L196.16,207.45L196.89,207.45L197.63,206.5L206.44,200.47L207.18,199.73L213.05,193.23L213.79,192.41L215.26,189.87L215.99,183.61L217.46,186.11L218.2,185.06L224.81,173.41L225.54,171.98L227.01,169.38L227.75,169.38L229.95,165.31L230.69,164.58L233.63,161.07L234.36,161.07L235.83,157.2L236.56,156.31L237.3,156.31L238.03,154.38L243.91,147.58L244.65,146.66L246.11,146.06L246.85,144.28L247.58,143.81L248.32,144.28L249.79,144.28L250.52,147.58L252.73,147.58L253.46,138.79L257.87,134.17L258.6,132.95L260.81,130.52L261.54,129.85L271.09,122.53L271.83,122.53L273.3,122.53L274.03,120.33L280.64,117.27L281.38,117.16L301.22,111.93L301.95,111.93" style="vector-effect: non-scaling-stroke; fill: none; stroke: rgb(67, 99, 216); stroke-opacity: 1; stroke-width: 2px; opacity: 1;"/></g><g class="points"/><g class="text"/></g><g class="trace scatter tracea2a994" style="stroke-miterlimit: 2; opacity: 1;"><g class="fills"/><g class="errorbars"/><g class="lines"><path class="js-line" d="M0,256.5L75.67,255.77L76.41,255.73L88.16,254.59L88.9,254.28L92.57,253.71L93.3,253.51L96.98,253.02L97.71,252.58L99.18,251.53L99.92,251.53L100.65,251.53L101.38,250.67L104.32,249.29L105.06,248.45L108,247.83L108.73,247.48L112.4,246.3L113.14,245.76L116.81,244.52L117.55,244.42L120.49,242.88L121.22,242.88L127.83,240.78L128.57,240.73L132.24,239.84L132.98,239.84L135.91,238.95L136.65,238.95L143.26,238.09L144,238.02L149.14,237.3L149.87,237.23L157.22,236.38L157.95,236.38L163.1,235.75L163.83,235.77L214.52,230.39L215.26,229.99L218.93,229.7L219.67,229.14L223.34,228.01L224.07,228.01L226.28,226.06L227.01,226.06L233.63,224.46L234.36,224.46L236.56,222.18L237.3,221.83L238.77,221.1L239.5,221.1L240.97,218.58L241.71,218.28L243.91,217.45L244.65,217.45L246.11,215.86L246.85,215.6L254.93,212.24L255.67,212.08L259.34,210.53L260.07,209.99L265.95,207.62L266.69,207.5L272.56,206.54L273.3,206.44L278.44,205.47L279.18,205.38L286.52,204.83L287.26,204.82L301.95,204.2" style="vector-effect: non-scaling-stroke; fill: none; stroke: rgb(245, 130, 49); stroke-opacity: 1; stroke-width: 2px; opacity: 1;"/></g><g class="points"/><g class="text"/></g><g class="trace scatter trace87ab5c" style="stroke-miterlimit: 2; opacity: 1;"><g class="fills"/><g class="errorbars"/><g class="lines"><path class="js-line" d="M0,256.5L61.71,255.83L62.45,255.74L74.94,254.59L75.67,254.57L85.96,253.07L86.69,252.92L113.87,246.85L114.61,246.4L118.28,244.65L119.02,244.13L124.89,239.57L125.63,238.89L129.3,235.91L130.04,235.51L136.65,230.87L137.38,230.87L141.06,228.61L141.79,228.61L144,226.64L144.73,226.31L152.08,220.98L152.81,220.72L157.95,218.65L158.69,218.52L169.71,215.35L170.44,215.2L172.65,214.65L173.38,214.44L178.53,212.65L179.26,212.33L180.73,211.58L181.46,211.23L189.55,206.12L190.28,205.34L195.42,198.65L196.16,198.65L197.63,194.44L198.36,193.09L200.57,189.22L201.3,186.77L206.44,169.32L207.18,165.43L214.52,132.32L215.26,129.43L219.67,111.38L220.4,109.25L225.54,96.21L226.28,94.97L232.16,85.22L232.89,84.04L242.44,74.09L243.18,74.09L244.65,74.09L245.38,71.56L250.52,68.4L251.26,67.37L255.67,63.15L256.4,62.12L258.6,60.13L259.34,57.35L261.54,55.03L262.28,53.81L265.95,49.02L266.69,48.32L271.83,41.53L272.56,40.31L275.5,36.54L276.24,36.54L279.18,32.27L279.91,31.46L288.73,23.15L289.46,22.74L291.66,20.81L292.4,20.23L296.81,16.53L297.54,16.17L301.95,13.5" style="vector-effect: non-scaling-stroke; fill: none; stroke: rgb(145, 30, 180); stroke-opacity: 1; stroke-width: 2px; opacity: 1;"/></g><g class="points"/><g class="text"/></g></g></g><g class="overplot"/><path class="xlines-above crisp" d="M0,0" style="fill: none;"/><path class="ylines-above crisp" d="M0,0" style="fill: none;"/><g class="overlines-above"/><g class="xaxislayer-above"><g class="xtick"><text text-anchor="middle" x="0" y="383" transform="translate(131.43,0)" style="font-family: 'Open Sans', verdana, arial, sans-serif; font-size: 12px; fill: rgb(242, 245, 250); fill-opacity: 1; white-space: pre;">Apr 2020</text></g><g class="xtick"><text text-anchor="middle" x="0" y="383" transform="translate(198.28,0)" style="font-family: 'Open Sans', verdana, arial, sans-serif; font-size: 12px; fill: rgb(242, 245, 250); fill-opacity: 1; white-space: pre;">Jul 2020</text></g><g class="xtick"><text text-anchor="middle" x="0" y="383" transform="translate(265.87,0)" style="font-family: 'Open Sans', verdana, arial, sans-serif; font-size: 12px; fill: rgb(242, 245, 250); fill-opacity: 1; white-space: pre;">Oct 2020</text></g><g class="xtick"><text text-anchor="middle" x="0" y="383" transform="translate(333.46000000000004,0)" style="font-family: 'Open Sans', verdana, arial, sans-serif; font-size: 12px; fill: rgb(242, 245, 250); fill-opacity: 1; white-space: pre;">Jan 2021</text></g></g><g class="yaxislayer-above"><g class="ytick"><text text-anchor="end" x="79" y="4.199999999999999" transform="translate(0,356.5)" style="font-family: 'Open Sans', verdana, arial, sans-serif; font-size: 12px; fill: rgb(242, 245, 250); fill-opacity: 1; white-space: pre;">0</text></g><g class="ytick"><text text-anchor="end" x="79" y="4.199999999999999" transform="translate(0,317.78999999999996)" style="font-family: 'Open Sans', verdana, arial, sans-serif; font-size: 12px; fill: rgb(242, 245, 250); fill-opacity: 1; white-space: pre;">20k</text></g><g class="ytick"><text text-anchor="end" x="79" y="4.199999999999999" transform="translate(0,279.08000000000004)" style="font-family: 'Open Sans', verdana, arial, sans-serif; font-size: 12px; fill: rgb(242, 245, 250); fill-opacity: 1; white-space: pre;">40k</text></g><g class="ytick"><text text-anchor="end" x="79" y="4.199999999999999" transform="translate(0,240.36)" style="font-family: 'Open Sans', verdana, arial, sans-serif; font-size: 12px; fill: rgb(242, 245, 250); fill-opacity: 1; white-space: pre;">60k</text></g><g class="ytick"><text text-anchor="end" x="79" y="4.199999999999999" transform="translate(0,201.65)" style="font-family: 'Open Sans', verdana, arial, sans-serif; font-size: 12px; fill: rgb(242, 245, 250); fill-opacity: 1; white-space: pre;">80k</text></g><g class="ytick"><text text-anchor="end" x="79" y="4.199999999999999" transform="translate(0,162.94)" style="font-family: 'Open Sans', verdana, arial, sans-serif; font-size: 12px; fill: rgb(242, 245, 250); fill-opacity: 1; white-space: pre;">100k</text></g><g class="ytick"><text text-anchor="end" x="79" y="4.199999999999999" transform="translate(0,124.23)" style="font-family: 'Open Sans', verdana, arial, sans-serif; font-size: 12px; fill: rgb(242, 245, 250); fill-opacity: 1; white-space: pre;">120k</text></g></g><g class="overaxes-above"/></g><g class="subplot x2y2"><g class="layer-subplot"><g class="shapelayer"/><g class="imagelayer"/></g><g class="gridlayer"><g class="x2"><path class="x2grid crisp" transform="translate(500.48,0)" d="M0,100v270" style="stroke: rgb(40, 52, 66); stroke-opacity: 1; stroke-width: 1px;"/><path class="x2grid crisp" transform="translate(567.33,0)" d="M0,100v270" style="stroke: rgb(40, 52, 66); stroke-opacity: 1; stroke-width: 1px;"/><path class="x2grid crisp" transform="translate(634.9200000000001,0)" d="M0,100v270" style="stroke: rgb(40, 52, 66); stroke-opacity: 1; stroke-width: 1px;"/><path class="x2grid crisp" transform="translate(702.51,0)" d="M0,100v270" style="stroke: rgb(40, 52, 66); stroke-opacity: 1; stroke-width: 1px;"/></g><g class="y2"><path class="y2grid crisp" transform="translate(0,286.97)" d="M449.05,0h301.95" style="stroke: rgb(40, 52, 66); stroke-opacity: 1; stroke-width: 1px;"/><path class="y2grid crisp" transform="translate(0,217.44)" d="M449.05,0h301.95" style="stroke: rgb(40, 52, 66); stroke-opacity: 1; stroke-width: 1px;"/><path class="y2grid crisp" transform="translate(0,147.92000000000002)" d="M449.05,0h301.95" style="stroke: rgb(40, 52, 66); stroke-opacity: 1; stroke-width: 1px;"/></g></g><g class="zerolinelayer"><path class="y2zl zl crisp" transform="translate(0,356.5)" d="M449.05,0h301.95" style="stroke: rgb(40, 52, 66); stroke-opacity: 1; stroke-width: 2px;"/></g><path class="xlines-below"/><path class="ylines-below"/><g class="overlines-below"/><g class="xaxislayer-below"/><g class="yaxislayer-below"/><g class="overaxes-below"/><g class="plot" transform="translate(449.05, 100)" clip-path="url('#clipfe709fx2y2plot')"><g class="scatterlayer mlayer"><g class="trace scatter trace4bbde4" style="stroke-miterlimit: 2; opacity: 1;"><g class="fills"/><g class="errorbars"/><g class="lines"><path class="js-line" d="M0,256.5L52.16,255.87L52.9,255.67L58.77,255.04L59.51,254.9L60.98,254.9L61.71,254L66.12,253.51L66.86,253.37L82.28,251.22L83.02,251.01L88.16,250.24L88.9,250.24L94.04,249.89L94.77,249.89L113.14,248.02L113.87,247.6L121.96,246.77L122.69,246.77L144,243.08L144.73,243.08L146.2,243.08L146.93,242.25L149.14,241.76L149.87,241.48L156.49,240.3L157.22,240.23L160.16,239.54L160.89,239.33L161.63,239.33L162.36,238.56L163.83,238.63L164.57,237.45L166.04,235.92L166.77,235.71L170.44,235.43L171.18,234.25L171.91,234.25L172.65,233.42L173.38,233.35L174.12,231.75L175.59,231.12L176.32,230.77L178.53,230.5L179.26,229.38L182.93,228.27L183.67,228.27L189.55,226.81L190.28,225.91L194.69,226.53L195.42,225.77L196.16,226.39L196.89,225.98L197.63,225.77L198.36,226.39L200.57,226.26L201.3,224.8L211.59,224.17L212.32,223.75L218.93,222.43L219.67,222.43L224.07,221.81L224.81,221.81L227.75,221.39L228.48,220.97L236.56,219.93L237.3,219.44L241.71,217.36L242.44,216.59L243.18,216.59L243.91,215.83L246.11,215.62L246.85,214.16L249.79,213.05L250.52,213.05L252.73,213.05L253.46,210.89L257.14,210.89L257.87,208.04L258.6,208.04L259.34,205.81L261.54,205.33L262.28,204.01L267.42,203.31L268.16,203.24L269.62,197.05L270.36,196.98L271.83,194.2L272.56,193.51L275.5,188.78L276.24,188.36L277.71,187.6L278.44,187.04L279.91,184.89L280.64,184.4L282.85,183.43L283.58,182.59L284.32,182.52L285.05,180.85L286.52,178.63L287.26,178.56L289.46,178.21L290.2,175.08L290.93,175.08L291.66,173.07L293.13,173.07L293.87,171.82L296.81,170.15L297.54,170.15L299.01,170.01L299.75,167.43L301.95,166.67" style="vector-effect: non-scaling-stroke; fill: none; stroke: rgb(230, 25, 75); stroke-opacity: 1; stroke-width: 2px; opacity: 1;"/></g><g class="points"/><g class="text"/></g><g class="trace scatter traceb027d3" style="stroke-miterlimit: 2; opacity: 1;"><g class="fills"/><g class="errorbars"/><g class="lines"><path class="js-line" d="M0,256.5L96.24,255.8L96.98,255.74L110.94,255.04L111.67,254.97L117.55,254.28L118.28,253.3L122.69,252.4L123.42,251.29L127.1,246.07L127.83,246.07L128.57,245.93L129.3,243.78L131.51,237.94L132.24,236.75L135.91,224.8L136.65,224.8L137.38,239.54L138.12,238.84L139.59,234.81L140.32,232.51L141.79,227.85L142.53,224.73L147.67,212L148.4,211.03L149.87,207.76L150.61,204.91L154.28,195.8L155.02,193.86L157.22,188.15L157.95,187.95L158.69,187.32L159.42,185.09L162.36,178.14L163.1,178L164.57,175.43L165.3,172.65L167.51,169.8L168.24,169.31L172.65,163.12L173.38,163.05L180.73,153.67L181.46,153.04L182.93,152L183.67,151.93L185.14,150.47L185.87,149.29L188.81,148.18L189.55,147.97L193.22,144.49L193.95,144.49L200.57,141.43L201.3,141.15L203.5,139.97L204.24,139.97L206.44,139L207.18,138.37L210.85,136.29L211.59,136.08L216.73,134.41L217.46,133.92L221.14,132.95L221.87,132.18L224.81,131.21L225.54,131.21L234.36,128.29L235.09,128.01L244.65,125.16L245.38,125.16L246.85,123.7L247.58,123.49L262.28,118.07L263.01,117.79L265.22,116.47L265.95,116.47L267.42,115.57L268.16,114.8L270.36,112.72L271.09,112.72L272.56,111.46L273.3,110.63L274.77,109.1L275.5,108.89L276.97,108.34L277.71,108.06L279.18,106.88L279.91,105.62L282.11,104.86L282.85,103.96L285.05,101.52L285.79,100.76L291.66,99.71L292.4,98.81L298.28,94.85L299.01,93.8L301.95,92.97" style="vector-effect: non-scaling-stroke; fill: none; stroke: rgb(60, 180, 75); stroke-opacity: 1; stroke-width: 2px; opacity: 1;"/></g><g class="points"/><g class="text"/></g><g class="trace scatter trace408f85" style="stroke-miterlimit: 2; opacity: 1;"><g class="fills"/><g class="errorbars"/><g class="lines"><path class="js-line" d="M0,256.5L49.96,255.87L50.69,255.25L52.16,254.48L52.9,253.79L55.1,253.16L55.84,251.7L58.04,248.92L58.77,246.97L60.98,243.43L61.71,241.13L66.86,222.15L67.59,218.61L78.61,177.79L79.34,175.22L83.02,164.24L83.75,162.85L89.63,151.37L90.36,150.96L93.3,147.76L94.04,146.44L95.51,144.21L96.24,141.78L99.92,138.23L100.65,137.95L107.26,133.78L108,132.67L116.81,127.04L117.55,127.8L121.96,125.65L122.69,125.23L125.63,123.49L126.36,123.28L132.24,121.06L132.98,121.2L135.91,120.57L136.65,120.43L139.59,119.25L140.32,118.97L143.26,118.21L144,118.21L145.46,117.51L146.2,117.31L153.55,117.03L154.28,115.08L157.22,114.45L157.95,113.76L165.3,112.51L166.04,112.23L168.24,111.46L168.97,111.4L174.12,109.87L174.85,109.45L178.53,108.89L179.26,108.61L179.99,108.61L180.73,107.85L185.14,106.74L185.87,106.6L205.71,99.02L206.44,98.53L209.38,97.42L210.12,97.28L214.52,95.06L215.26,94.85L218.93,92.76L219.67,92.69L229.22,88.38L229.95,87.89L233.63,85.81L234.36,84.91L238.77,81.15L239.5,80.66L243.91,76.98L244.65,75.94L246.85,75.94L247.58,72.67L249.05,75.94L249.79,75.94L250.52,75.59L251.26,69.19L252.73,66.76L253.46,66.76L256.4,62.93L257.14,61.68L258.6,60.5L259.34,59.25L261.54,56.33L262.28,54.66L263.75,53.13L264.48,52.16L268.16,47.64L268.89,46.53L274.03,41.59L274.77,39.99L276.97,38.04L277.71,38.04L279.18,36.37L279.91,36.37L281.38,32.06L282.11,31.16L287.99,24.07L288.73,23.51L295.34,18.09L296.07,18.09L298.28,15.93L299.01,15.38L301.22,14.96L301.95,13.5" style="vector-effect: non-scaling-stroke; fill: none; stroke: rgb(255, 225, 25); stroke-opacity: 1; stroke-width: 2px; opacity: 1;"/></g><g class="points"/><g class="text"/></g><g class="trace scatter trace85b319" style="stroke-miterlimit: 2; opacity: 1;"><g class="fills"/><g class="errorbars"/><g class="lines"><path class="js-line" d="M0,256.5L53.63,256.15L54.37,255.67L56.57,255.46L57.3,254.55L60.98,252.82L61.71,252.12L66.12,250.17L66.86,249.76L70.53,246.97L71.26,245.45L73.47,244.82L74.2,244.19L75.67,244.19L76.41,243.36L80.08,238.28L80.81,238.01L85.22,233.35L85.96,233.14L87.43,232.03L88.16,230.36L93.3,229.04L94.04,227.65L95.51,225.84L96.24,225.84L101.38,224.24L102.12,223.27L106.53,221.88L107.26,221.74L109.47,218.75L110.2,218.54L113.87,217.77L114.61,217.29L116.81,217.29L117.55,216.52L133.71,213.46L134.44,213.25L151.34,209.78L152.08,209.01L153.55,208.11L154.28,207.97L162.36,206.44L163.1,205.61L166.77,204.98L167.51,204.98L169.71,204.77L170.44,204.15L177.06,203.03L177.79,203.03L178.53,203.03L179.26,201.92L187.34,200.11L188.08,200.04L191.01,199.42L191.75,198.44L193.95,198.17L194.69,198.17L196.16,195.87L196.89,195.87L199.1,195.87L199.83,197.33L202.77,196.43L203.5,196.43L207.91,195.38L208.65,195.38L211.59,194.97L212.32,194.97L214.52,194.48L215.26,194.06L221.14,192.95L221.87,192.4L224.07,192.19L224.81,190.73L229.22,190.17L229.95,188.71L230.69,188.43L231.42,186.49L232.16,186.28L232.89,185.23L234.36,185.23L235.09,183.36L238.03,181.34L238.77,181.27L239.5,181.2L240.24,178.77L242.44,178.07L243.18,176.61L244.65,174.25L245.38,173.28L246.11,173.28L246.85,172.44L248.32,172.44L249.05,172.44L249.79,172.44L250.52,174.8L252.73,174.8L253.46,169.1L255.67,169.1L256.4,165.84L260.07,165.56L260.81,165.56L262.28,162.57L263.01,162.43L266.69,162.08L267.42,159.86L270.36,159.51L271.09,159.51L273.3,159.51L274.03,156.8L276.24,156.8L276.97,151.44L282.85,151.3L283.58,146.44L287.26,146.02L287.99,146.02L289.46,142.89L290.2,142.89L291.66,142.89L292.4,140.94L297.54,140.74L298.28,137.68L301.95,137.54" style="vector-effect: non-scaling-stroke; fill: none; stroke: rgb(67, 99, 216); stroke-opacity: 1; stroke-width: 2px; opacity: 1;"/></g><g class="points"/><g class="text"/></g><g class="trace scatter trace6fc2bc" style="stroke-miterlimit: 2; opacity: 1;"><g class="fills"/><g class="errorbars"/><g class="lines"><path class="js-line" d="M0,256.5L77.14,255.8L77.88,255.74L107.26,252.88L108,252.75L110.2,252.05L110.94,252.05L114.61,251.42L115.34,250.87L116.81,250.87L117.55,250.03L126.36,247.11L127.1,247.04L132.24,245.17L132.98,245.17L138.85,243.43L139.59,242.59L141.79,241.2L142.53,241.06L144,240.23L144.73,240.23L146.2,239.54L146.93,239.54L149.14,238.98L149.87,238.63L155.02,238.01L155.75,237.8L164.57,235.92L165.3,235.92L170.44,235.43L171.18,235.09L184.4,234.46L185.14,234.25L188.81,233.83L189.55,233.83L203.5,233.14L204.24,233.14L216.73,232.65L217.46,232.3L232.16,231.61L232.89,231.47L236.56,230.98L237.3,230.71L241.71,229.52L242.44,229.11L247.58,228.55L248.32,228.27L252.73,227.72L253.46,227.3L256.4,227.3L257.14,226.32L265.95,224.31L266.69,224.31L268.16,223.54L268.89,222.71L270.36,222.22L271.09,222.22L272.56,221.04L273.3,220.76L274.77,219.51L275.5,219.51L276.24,219.51L276.97,218.33L282.11,217.49L282.85,216.66L293.13,215.76L293.87,215.76L296.81,215.41L297.54,212.49L301.22,212.07L301.95,212.07" style="vector-effect: non-scaling-stroke; fill: none; stroke: rgb(245, 130, 49); stroke-opacity: 1; stroke-width: 2px; opacity: 1;"/></g><g class="points"/><g class="text"/></g><g class="trace scatter trace39d285" style="stroke-miterlimit: 2; opacity: 1;"><g class="fills"/><g class="errorbars"/><g class="lines"><path class="js-line" d="M0,256.5L69.06,255.8L69.79,255.67L77.14,254.97L77.88,254.9L80.08,254.28L80.81,254.21L83.75,253.51L84.49,253.37L91.83,252.33L92.57,251.77L97.71,250.38L98.45,250.31L106.53,249.41L107.26,248.92L110.94,248.16L111.67,248.16L120.49,247.11L121.22,247.11L124.16,246.42L124.89,246.07L128.57,245.45L129.3,244.47L133.71,242.87L134.44,241.83L136.65,240.93L137.38,241.48L140.32,240.02L141.06,239.26L143.26,238.84L144,238.42L149.87,234.88L150.61,233.69L153.55,232.44L154.28,230.84L156.49,229.25L157.22,229.25L159.42,229.04L160.16,228.27L161.63,226.74L162.36,226.74L163.83,226.39L164.57,225.98L168.24,224.24L168.97,224.24L171.18,223.82L171.91,223.2L179.99,221.04L180.73,220.48L189.55,219.09L190.28,218.75L206.44,213.95L207.18,213.18L213.05,208.46L213.79,208.04L216.73,204.28L217.46,202.41L221.14,198.17L221.87,195.59L224.81,188.36L225.54,187.32L228.48,182.24L229.22,181.83L230.69,180.65L231.42,179.53L234.36,170.77L235.09,170.22L235.83,169.66L236.56,167.37L242.44,156.59L243.18,156.59L245.38,156.59L246.11,147.55L246.85,147.55L247.58,145.39L249.05,144.56L249.79,144.49L251.26,143.73L251.99,142.13L254.2,138.16L254.93,138.09L256.4,137.33L257.14,136.15L260.81,127.66L261.54,127.18L262.28,126.55L263.01,124.68L265.22,121.96L265.95,121.89L266.69,121.62L267.42,119.95L271.09,112.99L271.83,112.72L272.56,112.51L273.3,111.46L278.44,106.88L279.18,105.62L280.64,104.79L281.38,104.79L285.79,100.06L286.52,100.06L295.34,93.94L296.07,93.04L299.01,91.58L299.75,90.68L301.22,89.15L301.95,89.15" style="vector-effect: non-scaling-stroke; fill: none; stroke: rgb(145, 30, 180); stroke-opacity: 1; stroke-width: 2px; opacity: 1;"/></g><g class="points"/><g class="text"/></g></g></g><g class="overplot"/><path class="xlines-above crisp" d="M0,0" style="fill: none;"/><path class="ylines-above crisp" d="M0,0" style="fill: none;"/><g class="overlines-above"/><g class="xaxislayer-above"><g class="x2tick"><text text-anchor="middle" x="0" y="383" transform="translate(500.48,0)" style="font-family: 'Open Sans', verdana, arial, sans-serif; font-size: 12px; fill: rgb(242, 245, 250); fill-opacity: 1; white-space: pre;">Apr 2020</text></g><g class="x2tick"><text text-anchor="middle" x="0" y="383" transform="translate(567.33,0)" style="font-family: 'Open Sans', verdana, arial, sans-serif; font-size: 12px; fill: rgb(242, 245, 250); fill-opacity: 1; white-space: pre;">Jul 2020</text></g><g class="x2tick"><text text-anchor="middle" x="0" y="383" transform="translate(634.9200000000001,0)" style="font-family: 'Open Sans', verdana, arial, sans-serif; font-size: 12px; fill: rgb(242, 245, 250); fill-opacity: 1; white-space: pre;">Oct 2020</text></g><g class="x2tick"><text text-anchor="middle" x="0" y="383" transform="translate(702.51,0)" style="font-family: 'Open Sans', verdana, arial, sans-serif; font-size: 12px; fill: rgb(242, 245, 250); fill-opacity: 1; white-space: pre;">Jan 2021</text></g></g><g class="yaxislayer-above"><g class="y2tick"><text text-anchor="end" x="448.05" y="4.199999999999999" transform="translate(0,356.5)" style="font-family: 'Open Sans', verdana, arial, sans-serif; font-size: 12px; fill: rgb(242, 245, 250); fill-opacity: 1; white-space: pre;">0</text></g><g class="y2tick"><text text-anchor="end" x="448.05" y="4.199999999999999" transform="translate(0,286.97)" style="font-family: 'Open Sans', verdana, arial, sans-serif; font-size: 12px; fill: rgb(242, 245, 250); fill-opacity: 1; white-space: pre;">1000</text></g><g class="y2tick"><text text-anchor="end" x="448.05" y="4.199999999999999" transform="translate(0,217.44)" style="font-family: 'Open Sans', verdana, arial, sans-serif; font-size: 12px; fill: rgb(242, 245, 250); fill-opacity: 1; white-space: pre;">2000</text></g><g class="y2tick"><text text-anchor="end" x="448.05" y="4.199999999999999" transform="translate(0,147.92000000000002)" style="font-family: 'Open Sans', verdana, arial, sans-serif; font-size: 12px; fill: rgb(242, 245, 250); fill-opacity: 1; white-space: pre;">3000</text></g></g><g class="overaxes-above"/></g></g><g class="polarlayer"/><g class="ternarylayer"/><g class="geolayer"/><g class="funnelarealayer"/><g class="pielayer"/><g class="treemaplayer"/><g class="sunburstlayer"/><g class="glimages"/><defs id="topdefs-fe709f"><g class="clips"/><clipPath id="legendfe709f"><rect width="124" height="124" x="0" y="0"/></clipPath></defs><g class="layer-above"><g class="imagelayer"/><g class="shapelayer"/></g><g class="infolayer"><g class="legend" pointer-events="all" transform="translate(764.42, 100)"><rect class="bg" shape-rendering="crispEdges" width="124" height="124" x="0" y="0" style="stroke: rgb(68, 68, 68); stroke-opacity: 1; fill: rgb(17, 17, 17); fill-opacity: 1; stroke-width: 0px;"/><g class="scrollbox" transform="translate(0, 0)" clip-path="url('#legendfe709f')"><g class="groups"><g class="traces" transform="translate(0, 14.5)" style="opacity: 1;"><text class="legendtext user-select-none" text-anchor="start" x="40" y="4.680000000000001" style="font-family: 'Open Sans', verdana, arial, sans-serif; font-size: 12px; fill: rgb(242, 245, 250); fill-opacity: 1; white-space: pre;">Alameda, CA</text><g class="layers" style="opacity: 1;"><g class="legendfill"/><g class="legendlines"><path class="js-line" d="M5,0h30" style="fill: none; stroke: rgb(230, 25, 75); stroke-opacity: 1; stroke-width: 2px;"/></g><g class="legendsymbols"><g class="legendpoints"/></g></g><rect class="legendtoggle" pointer-events="all" x="0" y="-9.5" width="118.703125" height="19" style="cursor: pointer; fill: rgb(0, 0, 0); fill-opacity: 0;"/></g><g class="traces" transform="translate(0, 33.5)" style="opacity: 1;"><text class="legendtext user-select-none" text-anchor="start" x="40" y="4.680000000000001" style="font-family: 'Open Sans', verdana, arial, sans-serif; font-size: 12px; fill: rgb(242, 245, 250); fill-opacity: 1; white-space: pre;">Hidalgo, TX</text><g class="layers" style="opacity: 1;"><g class="legendfill"/><g class="legendlines"><path class="js-line" d="M5,0h30" style="fill: none; stroke: rgb(60, 180, 75); stroke-opacity: 1; stroke-width: 2px;"/></g><g class="legendsymbols"><g class="legendpoints"/></g></g><rect class="legendtoggle" pointer-events="all" x="0" y="-9.5" width="118.703125" height="19" style="cursor: pointer; fill: rgb(0, 0, 0); fill-opacity: 0;"/></g><g class="traces" transform="translate(0, 52.5)" style="opacity: 1;"><text class="legendtext user-select-none" text-anchor="start" x="40" y="4.680000000000001" style="font-family: 'Open Sans', verdana, arial, sans-serif; font-size: 12px; fill: rgb(242, 245, 250); fill-opacity: 1; white-space: pre;">Middlesex, MA</text><g class="layers" style="opacity: 1;"><g class="legendfill"/><g class="legendlines"><path class="js-line" d="M5,0h30" style="fill: none; stroke: rgb(255, 225, 25); stroke-opacity: 1; stroke-width: 2px;"/></g><g class="legendsymbols"><g class="legendpoints"/></g></g><rect class="legendtoggle" pointer-events="all" x="0" y="-9.5" width="118.703125" height="19" style="cursor: pointer; fill: rgb(0, 0, 0); fill-opacity: 0;"/></g><g class="traces" transform="translate(0, 71.5)" style="opacity: 1;"><text class="legendtext user-select-none" text-anchor="start" x="40" y="4.680000000000001" style="font-family: 'Open Sans', verdana, arial, sans-serif; font-size: 12px; fill: rgb(242, 245, 250); fill-opacity: 1; white-space: pre;">St Louis, MO</text><g class="layers" style="opacity: 1;"><g class="legendfill"/><g class="legendlines"><path class="js-line" d="M5,0h30" style="fill: none; stroke: rgb(67, 99, 216); stroke-opacity: 1; stroke-width: 2px;"/></g><g class="legendsymbols"><g class="legendpoints"/></g></g><rect class="legendtoggle" pointer-events="all" x="0" y="-9.5" width="118.703125" height="19" style="cursor: pointer; fill: rgb(0, 0, 0); fill-opacity: 0;"/></g><g class="traces" transform="translate(0, 90.5)" style="opacity: 1;"><text class="legendtext user-select-none" text-anchor="start" x="40" y="4.680000000000001" style="font-family: 'Open Sans', verdana, arial, sans-serif; font-size: 12px; fill: rgb(242, 245, 250); fill-opacity: 1; white-space: pre;">Imperial, CA</text><g class="layers" style="opacity: 1;"><g class="legendfill"/><g class="legendlines"><path class="js-line" d="M5,0h30" style="fill: none; stroke: rgb(245, 130, 49); stroke-opacity: 1; stroke-width: 2px;"/></g><g class="legendsymbols"><g class="legendpoints"/></g></g><rect class="legendtoggle" pointer-events="all" x="0" y="-9.5" width="118.703125" height="19" style="cursor: pointer; fill: rgb(0, 0, 0); fill-opacity: 0;"/></g><g class="traces" transform="translate(0, 109.5)" style="opacity: 1;"><text class="legendtext user-select-none" text-anchor="start" x="40" y="4.680000000000001" style="font-family: 'Open Sans', verdana, arial, sans-serif; font-size: 12px; fill: rgb(242, 245, 250); fill-opacity: 1; white-space: pre;">El Paso, TX</text><g class="layers" style="opacity: 1;"><g class="legendfill"/><g class="legendlines"><path class="js-line" d="M5,0h30" style="fill: none; stroke: rgb(145, 30, 180); stroke-opacity: 1; stroke-width: 2px;"/></g><g class="legendsymbols"><g class="legendpoints"/></g></g><rect class="legendtoggle" pointer-events="all" x="0" y="-9.5" width="118.703125" height="19" style="cursor: pointer; fill: rgb(0, 0, 0); fill-opacity: 0;"/></g></g></g><rect class="scrollbar" rx="20" ry="3" width="0" height="0" x="0" y="0" style="fill: rgb(128, 139, 164); fill-opacity: 1;"/></g><g class="g-gtitle"/><g class="g-xtitle"><text class="xtitle" x="230.975" y="410.8" text-anchor="middle" style="font-family: 'Open Sans', verdana, arial, sans-serif; font-size: 14px; fill: rgb(242, 245, 250); opacity: 1; font-weight: normal; white-space: pre;">Date</text></g><g class="g-x2title"><text class="x2title" x="600.025" y="410.8" text-anchor="middle" style="font-family: 'Open Sans', verdana, arial, sans-serif; font-size: 14px; fill: rgb(242, 245, 250); opacity: 1; font-weight: normal; white-space: pre;">Date</text></g><g class="g-ytitle"><text class="ytitle" transform="rotate(-90,28.168750000000003,235)" x="28.168750000000003" y="235" text-anchor="middle" style="font-family: 'Open Sans', verdana, arial, sans-serif; font-size: 14px; fill: rgb(242, 245, 250); opacity: 1; font-weight: normal; white-space: pre;">Cases</text></g><g class="g-y2title"><text class="y2title" transform="rotate(-90,396.54375,235)" x="396.54375" y="235" text-anchor="middle" style="font-family: 'Open Sans', verdana, arial, sans-serif; font-size: 14px; fill: rgb(242, 245, 250); opacity: 1; font-weight: normal; white-space: pre;">Deaths</text></g><g class="annotation" data-index="0" style="opacity: 1;"><g class="annotation-text-g" transform="rotate(0,230.975,89.5)"><g class="cursor-pointer" transform="translate(206, 79)"><rect class="bg" x="0.5" y="0.5" width="48" height="20" style="stroke-width: 1px; stroke: rgb(0, 0, 0); stroke-opacity: 0; fill: rgb(0, 0, 0); fill-opacity: 0;"/><text class="annotation-text" text-anchor="middle" x="24.6875" y="16" style="font-family: 'Open Sans', verdana, arial, sans-serif; font-size: 16px; fill: rgb(242, 245, 250); fill-opacity: 1; white-space: pre;">Cases</text></g></g></g><g class="annotation" data-index="1" style="opacity: 1;"><g class="annotation-text-g" transform="rotate(0,600.025,89.5)"><g class="cursor-pointer" transform="translate(573, 79)"><rect class="bg" x="0.5" y="0.5" width="54" height="20" style="stroke-width: 1px; stroke: rgb(0, 0, 0); stroke-opacity: 0; fill: rgb(0, 0, 0); fill-opacity: 0;"/><text class="annotation-text" text-anchor="middle" x="27.359375" y="16" style="font-family: 'Open Sans', verdana, arial, sans-serif; font-size: 16px; fill: rgb(242, 245, 250); fill-opacity: 1; white-space: pre;">Deaths</text></g></g></g></g></svg>