<svg class="main-svg" xmlns="http://www.w3.org/2000/svg" xmlns:xlink="http://www.w3.org/1999/xlink" width="900" height="450" style="" viewBox="0 0 900 450"><rect x="0" y="0" width="900" height="450" style="fill: rgb(17, 17, 17); fill-opacity: 1;"/><defs id="defs-bc581b"><g class="clips"><clipPath id="clipbc581bxyplot" class="plotclip"><rect width="305.1" height="270"/></clipPath><clipPath id="clipbc581bx2y2plot" class="plotclip"><rect width="305.09999999999997" height="270"/></clipPath><clipPath class="axesclip" id="clipbc581bx"><rect x="80" y="0" width="305.1" height="450"/></clipPath><clipPath class="axesclip" id="clipbc581by"><rect x="0" y="100" width="900" height="270"/></clipPath><clipPath class="axesclip" id="clipbc581bxy"><rect x="80" y="100" width="305.1" height="270"/></clipPath><clipPath class="axesclip" id="clipbc581by2"><rect x="0" y="100" width="900" height="270"/></clipPath><clipPath class="axesclip" id="clipbc581bxy2"><rect x="80" y="100" width="305.1" height="270"/></clipPath><clipPath class="axesclip" id="clipbc581bx2"><rect x="452.90000000000003" y="0" width="305.09999999999997" height="450"/></clipPath><clipPath class="axesclip" id="clipbc581bx2y"><rect x="452.90000000000003" y="100" width="305.09999999999997" height="270"/></clipPath><clipPath class="axesclip" id="clipbc581bx2y2"><rect x="452.90000000000003" y="100" width="305.09999999999997" height="270"/></clipPath></g><g class="gradients"/></defs><g class="bglayer"/><g class="layer-below"><g class="imagelayer"/><g class="shapelayer"/></g><g class="cartesianlayer"><g class="subplot xy"><g class="layer-subplot"><g class="shapelayer"/><g class="imagelayer"/></g><g class="gridlayer"><g class="x"><path class="xgrid crisp" transform="translate(125.94,0)" d="M0,100v270" style="stroke: rgb(40, 52, 66); stroke-opacity: 1; stroke-width: 1px;"/><path class="xgrid crisp" transform="translate(197.8,0)" d="M0,100v270" style="stroke: rgb(40, 52, 66); stroke-opacity: 1; stroke-width: 1px;"/><path class="xgrid crisp" transform="translate(269.65999999999997,0)" d="M0,100v270" style="stroke: rgb(40, 52, 66); stroke-opacity: 1; stroke-width: 1px;"/><path class="xgrid crisp" transform="translate(342.69,0)" d="M0,100v270" style="stroke: rgb(40, 52, 66); stroke-opacity: 1; stroke-width: 1px;"/></g><g class="y"><path class="ygrid crisp" transform="translate(0,289.7)" d="M80,0h305.1" style="stroke: rgb(40, 52, 66); stroke-opacity: 1; stroke-width: 1px;"/><path class="ygrid crisp" transform="translate(0,222.9)" d="M80,0h305.1" style="stroke: rgb(40, 52, 66); stroke-opacity: 1; stroke-width: 1px;"/><path class="ygrid crisp" transform="translate(0,156.09)" d="M80,0h305.1" style="stroke: rgb(40, 52, 66); stroke-opacity: 1; stroke-width: 1px;"/></g></g><g class="zerolinelayer"><path class="yzl zl crisp" transform="translate(0,356.5)" d="M80,0h305.1" style="stroke: rgb(40, 52, 66); stroke-opacity: 1; stroke-width: 2px;"/></g><path class="xlines-below"/><path class="ylines-below"/><g class="overlines-below"/><g class="xaxislayer-below"/><g class="yaxislayer-below"/><g class="overaxes-below"/><g class="plot" transform="translate(80, 100)" clip-path="url('#clipbc581bxyplot')"><g class="scatterlayer mlayer"><g class="trace scatter trace69cbde" style="stroke-miterlimit: 2; opacity: 1;"><g class="fills"/><g class="errorbars"/><g class="lines"><path class="js-line" d="M0,256.5L70.68,255.79L71.86,255.69L76.57,255.03L77.75,254.79L84.82,253.54L85.99,252.91L97.77,250.59L98.95,250.07L141.36,239.07L142.54,238.41L150.78,235.16L151.96,234.53L155.49,233.02L156.67,232.8L163.74,229.88L164.92,229.56L176.7,224.4L177.88,224.4L181.41,221.26L182.59,220.55L188.48,216.66L189.66,215.38L192.01,213.27L193.19,212.7L194.37,210.71L195.55,210.49L196.72,210.49L197.9,208.1L201.44,204.9L202.61,204.9L206.15,199.87L207.33,198.87L210.86,194.79L212.04,194.67L214.39,192.08L215.57,190.57L217.93,187.49L219.11,187.23L220.28,186.77L221.46,185.47L222.64,184.53L223.82,182.14L225,182.14L226.17,179.78L227.35,179.52L228.53,177.37L229.71,176.95L230.89,175.43L234.42,175.43L235.6,168.33L236.78,168.2L237.95,165.22L239.13,162.32L240.31,161.45L241.49,159.25L242.67,159.25L243.84,155.47L245.02,155.43L250.91,144.99L252.09,144.79L253.27,144.72L254.45,141.1L256.8,138.79L257.98,137.28L259.16,137.28L260.34,135.99L262.69,133.28L263.87,131.61L267.4,128.7L268.58,128.7L269.76,127.24L270.94,127.24L273.29,124.83L274.47,124.1L275.65,123.98L276.83,122.96L281.54,121.81L282.72,120.46L287.43,117.9L288.61,117.29L293.32,114.95L294.5,114.61L303.92,110.81L305.1,110.57" style="vector-effect: non-scaling-stroke; fill: none; stroke: rgb(230, 25, 75); stroke-opacity: 1; stroke-width: 2px; opacity: 1;"/></g><g class="points"/><g class="text"/></g><g class="trace scatter trace856302" style="stroke-miterlimit: 2; opacity: 1;"><g class="fills"/><g class="errorbars"/><g class="lines"><path class="js-line" d="M0,256.5L65.97,256.35L67.15,255.71L71.86,252.24L73.04,250.67L76.57,244.41L77.75,241.03L81.28,231.55L82.46,226.64L83.64,222.64L84.82,215.78L91.88,189.08L93.06,186.1L101.31,168.1L102.49,166.51L106.02,161.27L107.2,159.23L109.55,153.58L110.73,152.64L114.27,148.46L115.44,146.32L120.16,140.95L121.33,140.84L124.87,138.48L126.05,137.43L131.94,133.66L133.11,131.11L143.72,124.92L144.89,124.43L149.61,122.5L150.78,121.38L151.96,121.2L153.14,120.12L157.85,118.95L159.03,115.93L163.74,112.65L164.92,112.41L170.81,110.92L171.99,110.84L176.7,108.97L177.88,108.61L181.41,107.37L182.59,106.51L187.3,105.11L188.48,104.41L196.72,99.95L197.9,98.87L204.97,94.37L206.15,92.67L209.68,89.15L210.86,88.59L214.39,86.02L215.57,85.16L221.46,80.6L222.64,78.21L225,75.69L226.17,74.91L228.53,73.62L229.71,72.37L237.95,66.84L239.13,66.84L241.49,63.6L242.67,62.36L245.02,61.32L246.2,60.14L248.56,58.62L249.73,58.62L253.27,54.98L254.45,53.87L257.98,49.71L259.16,49.71L261.51,47.87L262.69,47.03L268.58,43.01L269.76,40.88L270.94,40.22L272.12,38.58L275.65,34.38L276.83,34.38L279.18,31.69L280.36,30.78L282.72,29.15L283.9,28.82L285.07,28.82L286.25,27.35L299.21,17.99L300.39,16.93L301.57,16.93L302.74,15.66L305.1,13.5" style="vector-effect: non-scaling-stroke; fill: none; stroke: rgb(60, 180, 75); stroke-opacity: 1; stroke-width: 2px; opacity: 1;"/></g><g class="points"/><g class="text"/></g><g class="trace scatter trace1f5762" style="stroke-miterlimit: 2; opacity: 1;"><g class="fills"/><g class="errorbars"/><g class="lines"><path class="js-line" d="M0,256.5L75.39,255.78L76.57,255.48L82.46,253.89L83.64,253.55L96.6,249.74L97.77,249.47L100.13,248.4L101.31,247.68L106.02,246.1L107.2,245.82L115.44,241.7L116.62,240.19L127.22,231.72L128.4,231.27L151.96,217.94L153.14,217.34L159.03,214.26L160.21,213.71L168.45,209.54L169.63,209.23L176.7,205.1L177.88,204.43L183.77,199.64L184.94,198.42L190.83,194.12L192.01,190.87L199.08,182.2L200.26,180.12L212.04,161.33L213.22,160.09L217.93,152.64L219.11,151.74L222.64,147.54L223.82,145.41L227.35,142.22L228.53,141.24L232.06,137.36L233.24,136.22L243.84,125.88L245.02,125.01L256.8,115.33L257.98,114.08L266.23,105.33L267.4,103.29L270.94,99.67L272.12,97.76L281.54,86.52L282.72,85.1L286.25,81.92L287.43,81.2L305.1,65.98" style="vector-effect: non-scaling-stroke; fill: none; stroke: rgb(255, 225, 25); stroke-opacity: 1; stroke-width: 2px; opacity: 1;"/></g><g class="points"/><g class="text"/></g><g class="trace scatter traced6b341" style="stroke-miterlimit: 2; opacity: 1;"><g class="fills"/><g class="errorbars"/><g class="lines"><path class="js-line" d="M0,256.5L73.04,255.83L74.21,255.64L81.28,253.21L82.46,252.46L85.99,250.73L87.17,250.6L91.88,247.19L93.06,246.49L108.38,239.75L109.55,238.96L115.44,236.41L116.62,236.13L123.69,232.86L124.87,232.31L161.38,222.74L162.56,222.54L181.41,218.28L182.59,217.51L192.01,213.11L193.19,213.11L196.72,210.77L197.9,209.95L199.08,209.95L200.26,207.6L204.97,204.05L206.15,202.51L213.22,195.68L214.39,193.86L220.28,182L221.46,181.01L225,172.29L226.17,170.79L228.53,168.37L229.71,166.46L233.24,161.75L234.42,161.75L242.67,150.38L243.84,149.61L247.38,145.84L248.56,144.55L269.76,123.56L270.94,122.98L276.83,117.65L278.01,116.89L287.43,109.72L288.61,109.05L290.96,106.84L292.14,105.3L295.68,103.63L296.85,101.16L300.39,98.46L301.57,97.84L305.1,95.49" style="vector-effect: non-scaling-stroke; fill: none; stroke: rgb(67, 99, 216); stroke-opacity: 1; stroke-width: 2px; opacity: 1;"/></g><g class="points"/><g class="text"/></g><g class="trace scatter trace354ce6" style="stroke-miterlimit: 2; opacity: 1;"><g class="fills"/><g class="errorbars"/><g class="lines"><path class="js-line" d="M0,256.5L81.28,255.85L82.46,255.66L123.69,249.33L124.87,249.33L128.4,248.12L129.58,247.91L142.54,245.18L143.72,244.76L166.1,236.35L167.27,235.59L174.34,232.52L175.52,231.74L184.94,227.51L186.12,227.51L188.48,225.4L189.66,224.65L193.19,222.23L194.37,222.23L200.26,215.12L201.44,214.15L202.61,213.07L203.79,213.07L206.15,210.27L207.33,209.24L208.5,208.18L209.68,204.88L213.22,189.24L214.39,181.76L217.93,161.69L219.11,159.23L220.28,156.28L221.46,143.63L222.64,140.64L223.82,133.51L226.17,123.68L227.35,119.25L228.53,118.55L229.71,114.69L233.24,109.47L234.42,105.35L237.95,89.53L239.13,88.3L245.02,77.55L246.2,76.35L256.8,63.75L257.98,63.03L267.4,55.83L268.58,55.56L289.79,44.17L290.96,43.63L293.32,42.77L294.5,42.61L299.21,40.44L300.39,39.77L305.1,38.23" style="vector-effect: non-scaling-stroke; fill: none; stroke: rgb(245, 130, 49); stroke-opacity: 1; stroke-width: 2px; opacity: 1;"/></g><g class="points"/><g class="text"/></g><g class="trace scatter tracec74e8e" style="stroke-miterlimit: 2; opacity: 1;"><g class="fills"/><g class="errorbars"/><g class="lines"><path class="js-line" d="M0,256.5L100.13,255.75L101.31,255.73L180.23,253.67L181.41,253.38L189.66,251.64L190.83,251.23L196.72,249.53L197.9,249.08L200.26,247.77L201.44,247.13L204.97,244.65L206.15,243.55L215.57,236.95L216.75,235.76L220.28,232.58L221.46,230.26L225,223.82L226.17,222.64L232.06,218.38L233.24,216.53L235.6,213.01L236.78,212.59L246.2,206.75L247.38,205.64L260.34,199.93L261.51,199.74L266.23,198.13L267.4,197.75L270.94,197.17L272.12,196.88L303.92,189.64L305.1,189.54" style="vector-effect: non-scaling-stroke; fill: none; stroke: rgb(145, 30, 180); stroke-opacity: 1; stroke-width: 2px; opacity: 1;"/></g><g class="points"/><g class="text"/></g></g></g><g class="overplot"/><path class="xlines-above crisp" d="M0,0" style="fill: none;"/><path class="ylines-above crisp" d="M0,0" style="fill: none;"/><g class="overlines-above"/><g class="xaxislayer-above"><g class="xtick"><text text-anchor="middle" x="0" y="383" transform="translate(125.94,0)" style="font-family: 'Open Sans', verdana, arial, sans-serif; font-size: 12px; fill: rgb(242, 245, 250); fill-opacity: 1; white-space: pre;">Mar 2020</text></g><g class="xtick"><text text-anchor="middle" x="0" y="383" transform="translate(197.8,0)" style="font-family: 'Open Sans', verdana, arial, sans-serif; font-size: 12px; fill: rgb(242, 245, 250); fill-opacity: 1; white-space: pre;">May 2020</text></g><g class="xtick"><text text-anchor="middle" x="0" y="383" transform="translate(269.65999999999997,0)" style="font-family: 'Open Sans', verdana, arial, sans-serif; font-size: 12px; fill: rgb(242, 245, 250); fill-opacity: 1; white-space: pre;">Jul 2020</text></g><g class="xtick"><text text-anchor="middle" x="0" y="383" transform="translate(342.69,0)" style="font-family: 'Open Sans', verdana, arial, sans-serif; font-size: 12px; fill: rgb(242, 245, 250); fill-opacity: 1; white-space: pre;">Sep 2020</text></g></g><g class="yaxislayer-above"><g class="ytick"><text text-anchor="end" x="79" y="4.199999999999999" transform="translate(0,356.5)" style="font-family: 'Open Sans', verdana, arial, sans-serif; font-size: 12px; fill: rgb(242, 245, 250); fill-opacity: 1; white-space: pre;">0</text></g><g class="ytick"><text text-anchor="end" x="79" y="4.199999999999999" transform="translate(0,289.7)" style="font-family: 'Open Sans', verdana, arial, sans-serif; font-size: 12px; fill: rgb(242, 245, 250); fill-opacity: 1; white-space: pre;">10k</text></g><g class="ytick"><text text-anchor="end" x="79" y="4.199999999999999" transform="translate(0,222.9)" style="font-family: 'Open Sans', verdana, arial, sans-serif; font-size: 12px; fill: rgb(242, 245, 250); fill-opacity: 1; white-space: pre;">20k</text></g><g class="ytick"><text text-anchor="end" x="79" y="4.199999999999999" transform="translate(0,156.09)" style="font-family: 'Open Sans', verdana, arial, sans-serif; font-size: 12px; fill: rgb(242, 245, 250); fill-opacity: 1; white-space: pre;">30k</text></g></g><g class="overaxes-above"/></g><g class="subplot x2y2"><g class="layer-subplot"><g class="shapelayer"/><g class="imagelayer"/></g><g class="gridlayer"><g class="x2"><path class="x2grid crisp" transform="translate(498.84000000000003,0)" d="M0,100v270" style="stroke: rgb(40, 52, 66); stroke-opacity: 1; stroke-width: 1px;"/><path class="x2grid crisp" transform="translate(570.7,0)" d="M0,100v270" style="stroke: rgb(40, 52, 66); stroke-opacity: 1; stroke-width: 1px;"/><path class="x2grid crisp" transform="translate(642.5600000000001,0)" d="M0,100v270" style="stroke: rgb(40, 52, 66); stroke-opacity: 1; stroke-width: 1px;"/><path class="x2grid crisp" transform="translate(715.59,0)" d="M0,100v270" style="stroke: rgb(40, 52, 66); stroke-opacity: 1; stroke-width: 1px;"/></g><g class="y2"><path class="y2grid crisp" transform="translate(0,316.01)" d="M452.90000000000003,0h305.09999999999997" style="stroke: rgb(40, 52, 66); stroke-opacity: 1; stroke-width: 1px;"/><path class="y2grid crisp" transform="translate(0,275.53)" d="M452.90000000000003,0h305.09999999999997" style="stroke: rgb(40, 52, 66); stroke-opacity: 1; stroke-width: 1px;"/><path class="y2grid crisp" transform="translate(0,235.04)" d="M452.90000000000003,0h305.09999999999997" style="stroke: rgb(40, 52, 66); stroke-opacity: 1; stroke-width: 1px;"/><path class="y2grid crisp" transform="translate(0,194.55)" d="M452.90000000000003,0h305.09999999999997" style="stroke: rgb(40, 52, 66); stroke-opacity: 1; stroke-width: 1px;"/><path class="y2grid crisp" transform="translate(0,154.07)" d="M452.90000000000003,0h305.09999999999997" style="stroke: rgb(40, 52, 66); stroke-opacity: 1; stroke-width: 1px;"/><path class="y2grid crisp" transform="translate(0,113.58)" d="M452.90000000000003,0h305.09999999999997" style="stroke: rgb(40, 52, 66); stroke-opacity: 1; stroke-width: 1px;"/></g></g><g class="zerolinelayer"><path class="y2zl zl crisp" transform="translate(0,356.5)" d="M452.90000000000003,0h305.09999999999997" style="stroke: rgb(40, 52, 66); stroke-opacity: 1; stroke-width: 2px;"/></g><path class="xlines-below"/><path class="ylines-below"/><g class="overlines-below"/><g class="xaxislayer-below"/><g class="yaxislayer-below"/><g class="overaxes-below"/><g class="plot" transform="translate(452.90000000000003, 100)" clip-path="url('#clipbc581bx2y2plot')"><g class="scatterlayer mlayer"><g class="trace scatter tracec087a3" style="stroke-miterlimit: 2; opacity: 1;"><g class="fills"/><g class="errorbars"/><g class="lines"><path class="js-line" d="M0,256.5L83.64,255.77L84.82,255.53L94.24,254.8L95.42,254.64L97.77,254.64L98.95,253.58L104.84,253.1L106.02,253.02L127.22,250.75L128.4,250.75L133.11,250.1L134.29,249.86L181.41,246.62L182.59,246.14L194.37,245.16L195.55,245.16L203.79,244.52L204.97,244.19L223.82,241.76L225,241.76L227.35,241.2L228.53,241.2L233.24,240.87L234.42,240.87L236.78,239.9L237.95,239.9L241.49,238.77L242.67,238.77L259.16,236.5L260.34,235.69L262.69,235.69L263.87,234.31L265.05,232.61L266.23,232.53L272.12,231.97L273.29,231.97L274.47,230.59L275.65,230.59L280.36,227.67L281.54,226.94L285.07,226.22L286.25,226.22L288.61,224.52L289.79,224.35L292.14,223.62L293.32,223.62L296.85,223.14L298.03,222.49L303.92,221.92L305.1,220.87" style="vector-effect: non-scaling-stroke; fill: none; stroke: rgb(230, 25, 75); stroke-opacity: 1; stroke-width: 2px; opacity: 1;"/></g><g class="points"/><g class="text"/></g><g class="trace scatter trace935953" style="stroke-miterlimit: 2; opacity: 1;"><g class="fills"/><g class="errorbars"/><g class="lines"><path class="js-line" d="M0,256.5L71.86,255.85L73.04,255.45L78.93,251.97L80.1,249.78L88.35,228.48L89.53,223.95L91.88,215.69L93.06,207.19L95.42,199.5L96.6,199.5L100.13,177.07L101.31,171.96L102.49,169.86L103.66,165.89L104.84,163.54L106.02,153.02L107.2,149.7L108.38,143.46L109.55,139.66L110.73,130.18L111.91,128.56L113.09,125.16L116.62,112.21L117.8,110.59L118.98,103.95L120.16,103.22L126.05,92.29L127.22,87.91L129.58,86.05L130.76,83.22L135.47,77.39L136.65,77.31L137.83,76.25L139,72.29L140.18,71.56L141.36,69.21L142.54,68.4L143.72,65.48L147.25,64.76L148.43,61.68L149.61,61.36L150.78,60.14L153.14,57.23L154.32,57.06L157.85,54.72L159.03,44.92L160.21,43.78L161.38,43.7L162.56,43.3L163.74,41.84L167.27,40.79L168.45,40.38L175.52,39.41L176.7,38.93L181.41,38.44L182.59,37.79L186.12,37.06L187.3,36.98L190.83,35.61L192.01,35.61L195.55,35.44L196.72,34.55L200.26,33.99L201.44,33.18L207.33,32.2L208.5,31.88L210.86,31.31L212.04,31.31L222.64,30.42L223.82,29.94L229.71,29.05L230.89,29.05L233.24,27.83L234.42,27.83L240.31,27.1L241.49,26.94L255.62,24.59L256.8,23.95L270.94,21.92L272.12,19.33L274.47,18.44L275.65,18.36L280.36,17.71L281.54,17.55L286.25,16.9L287.43,16.58L292.14,15.44L293.32,15.44L299.21,14.31L300.39,13.99L305.1,13.5" style="vector-effect: non-scaling-stroke; fill: none; stroke: rgb(60, 180, 75); stroke-opacity: 1; stroke-width: 2px; opacity: 1;"/></g><g class="points"/><g class="text"/></g><g class="trace scatter tracef9c36d" style="stroke-miterlimit: 2; opacity: 1;"><g class="fills"/><g class="errorbars"/><g class="lines"><path class="js-line" d="M0,256.5L88.35,255.77L89.53,255.53L100.13,254.96L101.31,254.72L109.55,252.61L110.73,252.45L122.51,249.46L123.69,248.48L127.22,247.27L128.4,246.86L130.76,245.33L131.94,244.52L134.29,243.87L135.47,242.82L137.83,242.17L139,240.87L150.78,235.77L151.96,235.45L154.32,234.56L155.49,233.91L157.85,232.77L159.03,232.61L164.92,231.16L166.1,230.59L170.81,229.62L171.99,229.46L175.52,228.32L176.7,227.59L179.05,227.51L180.23,226.54L186.12,224.68L187.3,224.52L189.66,223.54L190.83,223.54L193.19,222.49L194.37,222.33L197.9,220.95L199.08,220.95L203.79,220.14L204.97,220.14L208.5,219.5L209.68,219.17L216.75,217.07L217.93,217.07L222.64,215.85L223.82,215.45L228.53,214.88L229.71,214.8L261.51,210.99L262.69,210.91L272.12,210.18L273.29,210.1L276.83,209.62L278.01,209.62L280.36,208L281.54,207.92L286.25,207.67L287.43,207.67L292.14,207.35L293.32,207.35L298.03,206.7L299.21,205.57L305.1,205.24" style="vector-effect: non-scaling-stroke; fill: none; stroke: rgb(255, 225, 25); stroke-opacity: 1; stroke-width: 2px; opacity: 1;"/></g><g class="points"/><g class="text"/></g><g class="trace scatter tracead7bf2" style="stroke-miterlimit: 2; opacity: 1;"><g class="fills"/><g class="errorbars"/><g class="lines"><path class="js-line" d="M0,256.5L85.99,256.1L87.17,255.53L90.71,255.29L91.88,254.23L97.77,252.21L98.95,251.4L104.84,249.86L106.02,249.13L108.38,248L109.55,246.7L113.09,245.41L114.27,243.63L117.8,242.9L118.98,242.17L121.33,242.17L122.51,241.2L127.22,235.93L128.4,235.29L130.76,233.99L131.94,232.77L136.65,229.54L137.83,229.29L140.18,228L141.36,226.05L149.61,224.52L150.78,222.9L151.96,220.87L153.14,220.79L157.85,220.39L159.03,219.9L162.56,218.93L163.74,217.79L169.63,216.18L170.81,216.18L171.99,216.01L173.16,214.56L174.34,212.69L175.52,212.53L193.19,209.62L194.37,209.54L199.08,208.81L200.26,208.56L213.22,207.35L214.39,206.38L227.35,204.19L228.53,204.11L232.06,203.79L233.24,203.14L240.31,202.41L241.49,202.17L242.67,202.09L243.84,201.2L245.02,200.14L246.2,200.14L260.34,198.2L261.51,197.23L265.05,196.82L266.23,196.82L269.76,196.5L270.94,196.42L286.25,194.23L287.43,192.94L298.03,191.15L299.21,191.07L305.1,190.1" style="vector-effect: non-scaling-stroke; fill: none; stroke: rgb(67, 99, 216); stroke-opacity: 1; stroke-width: 2px; opacity: 1;"/></g><g class="points"/><g class="text"/></g><g class="trace scatter traceb68378" style="stroke-miterlimit: 2; opacity: 1;"><g class="fills"/><g class="errorbars"/><g class="lines"><path class="js-line" d="M0,256.5L121.33,255.85L122.51,255.61L131.94,255.12L133.11,254.8L137.83,254.48L139,254.48L147.25,254.15L148.43,253.58L190.83,250.27L192.01,250.02L199.08,249.29L200.26,248.65L213.22,248L214.39,247.19L220.28,246.54L221.46,245.57L228.53,244.84L229.71,244.27L233.24,243.54L234.42,242.65L236.78,242.65L237.95,241.68L240.31,241.36L241.49,239.98L245.02,239.98L246.2,239.01L248.56,237.96L249.73,237.23L255.62,236.18L256.8,235.77L259.16,233.34L260.34,233.34L265.05,232.69L266.23,232.53L272.12,232.45L273.29,231.64L275.65,230.1L276.83,229.62L281.54,228.97L282.72,228.16L287.43,227.59L288.61,227.35L298.03,226.46L299.21,225.65L301.57,225.24L302.74,225.24L305.1,225.16" style="vector-effect: non-scaling-stroke; fill: none; stroke: rgb(245, 130, 49); stroke-opacity: 1; stroke-width: 2px; opacity: 1;"/></g><g class="points"/><g class="text"/></g><g class="trace scatter trace871775" style="stroke-miterlimit: 2; opacity: 1;"><g class="fills"/><g class="errorbars"/><g class="lines"><path class="js-line" d="M0,256.5L174.34,255.85L175.52,255.69L208.5,254.96L209.68,254.31L228.53,251.32L229.71,250.35L232.06,249.78L233.24,249.54L236.78,249.29L237.95,248.24L249.73,246.7L250.91,245.65L259.16,242.41L260.34,242.01L262.69,241.36L263.87,240.95L268.58,238.85L269.76,238.6L282.72,235.53L283.9,235.53L289.79,234.96L290.96,234.31L294.5,233.18L295.68,233.1L302.74,231.97L303.92,231.64L305.1,231.32" style="vector-effect: non-scaling-stroke; fill: none; stroke: rgb(145, 30, 180); stroke-opacity: 1; stroke-width: 2px; opacity: 1;"/></g><g class="points"/><g class="text"/></g></g></g><g class="overplot"/><path class="xlines-above crisp" d="M0,0" style="fill: none;"/><path class="ylines-above crisp" d="M0,0" style="fill: none;"/><g class="overlines-above"/><g class="xaxislayer-above"><g class="x2tick"><text text-anchor="middle" x="0" y="383" transform="translate(498.84000000000003,0)" style="font-family: 'Open Sans', verdana, arial, sans-serif; font-size: 12px; fill: rgb(242, 245, 250); fill-opacity: 1; white-space: pre;">Mar 2020</text></g><g class="x2tick"><text text-anchor="middle" x="0" y="383" transform="translate(570.7,0)" style="font-family: 'Open Sans', verdana, arial, sans-serif; font-size: 12px; fill: rgb(242, 245, 250); fill-opacity: 1; white-space: pre;">May 2020</text></g><g class="x2tick"><text text-anchor="middle" x="0" y="383" transform="translate(642.5600000000001,0)" style="font-family: 'Open Sans', verdana, arial, sans-serif; font-size: 12px; fill: rgb(242, 245, 250); fill-opacity: 1; white-space: pre;">Jul 2020</text></g><g class="x2tick"><text text-anchor="middle" x="0" y="383" transform="translate(715.59,0)" style="font-family: 'Open Sans', verdana, arial, sans-serif; font-size: 12px; fill: rgb(242, 245, 250); fill-opacity: 1; white-space: pre;">Sep 2020</text></g></g><g class="yaxislayer-above"><g class="y2tick"><text text-anchor="end" x="451.90000000000003" y="4.199999999999999" transform="translate(0,356.5)" style="font-family: 'Open Sans', verdana, arial, sans-serif; font-size: 12px; fill: rgb(242, 245, 250); fill-opacity: 1; white-space: pre;">0</text></g><g class="y2tick"><text text-anchor="end" x="451.90000000000003" y="4.199999999999999" transform="translate(0,316.01)" style="font-family: 'Open Sans', verdana, arial, sans-serif; font-size: 12px; fill: rgb(242, 245, 250); fill-opacity: 1; white-space: pre;">500</text></g><g class="y2tick"><text text-anchor="end" x="451.90000000000003" y="4.199999999999999" transform="translate(0,275.53)" style="font-family: 'Open Sans', verdana, arial, sans-serif; font-size: 12px; fill: rgb(242, 245, 250); fill-opacity: 1; white-space: pre;">1000</text></g><g class="y2tick"><text text-anchor="end" x="451.90000000000003" y="4.199999999999999" transform="translate(0,235.04)" style="font-family: 'Open Sans', verdana, arial, sans-serif; font-size: 12px; fill: rgb(242, 245, 250); fill-opacity: 1; white-space: pre;">1500</text></g><g class="y2tick"><text text-anchor="end" x="451.90000000000003" y="4.199999999999999" transform="translate(0,194.55)" style="font-family: 'Open Sans', verdana, arial, sans-serif; font-size: 12px; fill: rgb(242, 245, 250); fill-opacity: 1; white-space: pre;">2000</text></g><g class="y2tick"><text text-anchor="end" x="451.90000000000003" y="4.199999999999999" transform="translate(0,154.07)" style="font-family: 'Open Sans', verdana, arial, sans-serif; font-size: 12px; fill: rgb(242, 245, 250); fill-opacity: 1; white-space: pre;">2500</text></g><g class="y2tick"><text text-anchor="end" x="451.90000000000003" y="4.199999999999999" transform="translate(0,113.58)" style="font-family: 'Open Sans', verdana, arial, sans-serif; font-size: 12px; fill: rgb(242, 245, 250); fill-opacity: 1; white-space: pre;">3000</text></g></g><g class="overaxes-above"/></g></g><g class="polarlayer"/><g class="ternarylayer"/><g class="geolayer"/><g class="funnelarealayer"/><g class="pielayer"/><g class="treemaplayer"/><g class="sunburstlayer"/><g class="glimages"/><defs id="topdefs-bc581b"><g class="clips"/><clipPath id="legendbc581b"><rect width="116" height="124" x="0" y="0"/></clipPath></defs><g class="layer-above"><g class="imagelayer"/><g class="shapelayer"/></g><g class="infolayer"><g class="legend" pointer-events="all" transform="translate(771.5600000000001, 100)"><rect class="bg" shape-rendering="crispEdges" width="116" height="124" x="0" y="0" style="stroke: rgb(68, 68, 68); stroke-opacity: 1; fill: rgb(17, 17, 17); fill-opacity: 1; stroke-width: 0px;"/><g class="scrollbox" transform="translate(0, 0)" clip-path="url('#legendbc581b')"><g class="groups"><g class="traces" transform="translate(0, 14.5)" style="opacity: 1;"><text class="legendtext user-select-none" text-anchor="start" x="40" y="4.680000000000001" style="font-family: 'Open Sans', verdana, arial, sans-serif; font-size: 12px; fill: rgb(242, 245, 250); fill-opacity: 1; white-space: pre;">Alameda, CA</text><g class="layers" style="opacity: 1;"><g class="legendfill"/><g class="legendlines"><path class="js-line" d="M5,0h30" style="fill: none; stroke: rgb(230, 25, 75); stroke-opacity: 1; stroke-width: 2px;"/></g><g class="legendsymbols"><g class="legendpoints"/></g></g><rect class="legendtoggle" pointer-events="all" x="0" y="-9.5" width="110.703125" height="19" style="cursor: pointer; fill: rgb(0, 0, 0); fill-opacity: 0;"/></g><g class="traces" transform="translate(0, 33.5)" style="opacity: 1;"><text class="legendtext user-select-none" text-anchor="start" x="40" y="4.680000000000001" style="font-family: 'Open Sans', verdana, arial, sans-serif; font-size: 12px; fill: rgb(242, 245, 250); fill-opacity: 1; white-space: pre;">Wayne, MI</text><g class="layers" style="opacity: 1;"><g class="legendfill"/><g class="legendlines"><path class="js-line" d="M5,0h30" style="fill: none; stroke: rgb(60, 180, 75); stroke-opacity: 1; stroke-width: 2px;"/></g><g class="legendsymbols"><g class="legendpoints"/></g></g><rect class="legendtoggle" pointer-events="all" x="0" y="-9.5" width="110.703125" height="19" style="cursor: pointer; fill: rgb(0, 0, 0); fill-opacity: 0;"/></g><g class="traces" transform="translate(0, 52.5)" style="opacity: 1;"><text class="legendtext user-select-none" text-anchor="start" x="40" y="4.680000000000001" style="font-family: 'Open Sans', verdana, arial, sans-serif; font-size: 12px; fill: rgb(242, 245, 250); fill-opacity: 1; white-space: pre;">Franklin, OH</text><g class="layers" style="opacity: 1;"><g class="legendfill"/><g class="legendlines"><path class="js-line" d="M5,0h30" style="fill: none; stroke: rgb(255, 225, 25); stroke-opacity: 1; stroke-width: 2px;"/></g><g class="legendsymbols"><g class="legendpoints"/></g></g><rect class="legendtoggle" pointer-events="all" x="0" y="-9.5" width="110.703125" height="19" style="cursor: pointer; fill: rgb(0, 0, 0); fill-opacity: 0;"/></g><g class="traces" transform="translate(0, 71.5)" style="opacity: 1;"><text class="legendtext user-select-none" text-anchor="start" x="40" y="4.680000000000001" style="font-family: 'Open Sans', verdana, arial, sans-serif; font-size: 12px; fill: rgb(242, 245, 250); fill-opacity: 1; white-space: pre;">St Louis, MO</text><g class="layers" style="opacity: 1;"><g class="legendfill"/><g class="legendlines"><path class="js-line" d="M5,0h30" style="fill: none; stroke: rgb(67, 99, 216); stroke-opacity: 1; stroke-width: 2px;"/></g><g class="legendsymbols"><g class="legendpoints"/></g></g><rect class="legendtoggle" pointer-events="all" x="0" y="-9.5" width="110.703125" height="19" style="cursor: pointer; fill: rgb(0, 0, 0); fill-opacity: 0;"/></g><g class="traces" transform="translate(0, 90.5)" style="opacity: 1;"><text class="legendtext user-select-none" text-anchor="start" x="40" y="4.680000000000001" style="font-family: 'Open Sans', verdana, arial, sans-serif; font-size: 12px; fill: rgb(242, 245, 250); fill-opacity: 1; white-space: pre;">Kern, CA</text><g class="layers" style="opacity: 1;"><g class="legendfill"/><g class="legendlines"><path class="js-line" d="M5,0h30" style="fill: none; stroke: rgb(245, 130, 49); stroke-opacity: 1; stroke-width: 2px;"/></g><g class="legendsymbols"><g class="legendpoints"/></g></g><rect class="legendtoggle" pointer-events="all" x="0" y="-9.5" width="110.703125" height="19" style="cursor: pointer; fill: rgb(0, 0, 0); fill-opacity: 0;"/></g><g class="traces" transform="translate(0, 109.5)" style="opacity: 1;"><text class="legendtext user-select-none" text-anchor="start" x="40" y="4.680000000000001" style="font-family: 'Open Sans', verdana, arial, sans-serif; font-size: 12px; fill: rgb(242, 245, 250); fill-opacity: 1; white-space: pre;">Marion, FL</text><g class="layers" style="opacity: 1;"><g class="legendfill"/><g class="legendlines"><path class="js-line" d="M5,0h30" style="fill: none; stroke: rgb(145, 30, 180); stroke-opacity: 1; stroke-width: 2px;"/></g><g class="legendsymbols"><g class="legendpoints"/></g></g><rect class="legendtoggle" pointer-events="all" x="0" y="-9.5" width="110.703125" height="19" style="cursor: pointer; fill: rgb(0, 0, 0); fill-opacity: 0;"/></g></g></g><rect class="scrollbar" rx="20" ry="3" width="0" height="0" x="0" y="0" style="fill: rgb(128, 139, 164); fill-opacity: 1;"/></g><g class="g-gtitle"/><g class="g-xtitle"><text class="xtitle" x="232.55" y="410.8" text-anchor="middle" style="font-family: 'Open Sans', verdana, arial, sans-serif; font-size: 14px; fill: rgb(242, 245, 250); opacity: 1; font-weight: normal; white-space: pre;">Date</text></g><g class="g-x2title"><text class="x2title" x="605.45" y="410.8" text-anchor="middle" style="font-family: 'Open Sans', verdana, arial, sans-serif; font-size: 14px; fill: rgb(242, 245, 250); opacity: 1; font-weight: normal; white-space: pre;">Date</text></g><g class="g-ytitle"><text class="ytitle" transform="rotate(-90,34.840625,235)" x="34.840625" y="235" text-anchor="middle" style="font-family: 'Open Sans', verdana, arial, sans-serif; font-size: 14px; fill: rgb(242, 245, 250); opacity: 1; font-weight: normal; white-space: pre;">Cases</text></g><g class="g-y2title"><text class="y2title" transform="rotate(-90,400.403125,235)" x="400.403125" y="235" text-anchor="middle" style="font-family: 'Open Sans', verdana, arial, sans-serif; font-size: 14px; fill: rgb(242, 245, 250); opacity: 1; font-weight: normal; white-space: pre;">Deaths</text></g><g class="annotation" data-index="0" style="opacity: 1;"><g class="annotation-text-g" transform="rotate(0,232.55,89.5)"><g class="cursor-pointer" transform="translate(208, 79)"><rect class="bg" x="0.5" y="0.5" width="48" height="20" style="stroke-width: 1px; stroke: rgb(0, 0, 0); stroke-opacity: 0; fill: rgb(0, 0, 0); fill-opacity: 0;"/><text class="annotation-text" text-anchor="middle" x="24.6875" y="16" style="font-family: 'Open Sans', verdana, arial, sans-serif; font-size: 16px; fill: rgb(242, 245, 250); fill-opacity: 1; white-space: pre;">Cases</text></g></g></g><g class="annotation" data-index="1" style="opacity: 1;"><g class="annotation-text-g" transform="rotate(0,605.45,89.5)"><g class="cursor-pointer" transform="translate(578, 79)"><rect class="bg" x="0.5" y="0.5" width="54" height="20" style="stroke-width: 1px; stroke: rgb(0, 0, 0); stroke-opacity: 0; fill: rgb(0, 0, 0); fill-opacity: 0;"/><text class="annotation-text" text-anchor="middle" x="27.359375" y="16" style="font-family: 'Open Sans', verdana, arial, sans-serif; font-size: 16px; fill: rgb(242, 245, 250); fill-opacity: 1; white-space: pre;">Deaths</text></g></g></g></g></svg>