<svg class="main-svg" xmlns="http://www.w3.org/2000/svg" xmlns:xlink="http://www.w3.org/1999/xlink" width="900" height="450" style="" viewBox="0 0 900 450"><rect x="0" y="0" width="900" height="450" style="fill: rgb(17, 17, 17); fill-opacity: 1;"/><defs id="defs-638826"><g class="clips"><clipPath id="clip638826xyplot" class="plotclip"><rect width="293.40000000000003" height="270"/></clipPath><clipPath id="clip638826x2y2plot" class="plotclip"><rect width="293.4" height="270"/></clipPath><clipPath class="axesclip" id="clip638826x"><rect x="80" y="0" width="293.40000000000003" height="450"/></clipPath><clipPath class="axesclip" id="clip638826y"><rect x="0" y="100" width="900" height="270"/></clipPath><clipPath class="axesclip" id="clip638826xy"><rect x="80" y="100" width="293.40000000000003" height="270"/></clipPath><clipPath class="axesclip" id="clip638826y2"><rect x="0" y="100" width="900" height="270"/></clipPath><clipPath class="axesclip" id="clip638826xy2"><rect x="80" y="100" width="293.40000000000003" height="270"/></clipPath><clipPath class="axesclip" id="clip638826x2"><rect x="438.6" y="0" width="293.4" height="450"/></clipPath><clipPath class="axesclip" id="clip638826x2y"><rect x="438.6" y="100" width="293.4" height="270"/></clipPath><clipPath class="axesclip" id="clip638826x2y2"><rect x="438.6" y="100" width="293.4" height="270"/></clipPath></g><g class="gradients"/></defs><g class="bglayer"/><g class="layer-below"><g class="imagelayer"/><g class="shapelayer"/></g><g class="cartesianlayer"><g class="subplot xy"><g class="layer-subplot"><g class="shapelayer"/><g class="imagelayer"/></g><g class="gridlayer"><g class="x"><path class="xgrid crisp" transform="translate(130.09,0)" d="M0,100v270" style="stroke: rgb(40, 52, 66); stroke-opacity: 1; stroke-width: 1px;"/><path class="xgrid crisp" transform="translate(195.20999999999998,0)" d="M0,100v270" style="stroke: rgb(40, 52, 66); stroke-opacity: 1; stroke-width: 1px;"/><path class="xgrid crisp" transform="translate(261.05,0)" d="M0,100v270" style="stroke: rgb(40, 52, 66); stroke-opacity: 1; stroke-width: 1px;"/><path class="xgrid crisp" transform="translate(326.89,0)" d="M0,100v270" style="stroke: rgb(40, 52, 66); stroke-opacity: 1; stroke-width: 1px;"/></g><g class="y"><path class="ygrid crisp" transform="translate(0,312.94)" d="M80,0h293.40000000000003" style="stroke: rgb(40, 52, 66); stroke-opacity: 1; stroke-width: 1px;"/><path class="ygrid crisp" transform="translate(0,269.38)" d="M80,0h293.40000000000003" style="stroke: rgb(40, 52, 66); stroke-opacity: 1; stroke-width: 1px;"/><path class="ygrid crisp" transform="translate(0,225.82)" d="M80,0h293.40000000000003" style="stroke: rgb(40, 52, 66); stroke-opacity: 1; stroke-width: 1px;"/><path class="ygrid crisp" transform="translate(0,182.26)" d="M80,0h293.40000000000003" style="stroke: rgb(40, 52, 66); stroke-opacity: 1; stroke-width: 1px;"/><path class="ygrid crisp" transform="translate(0,138.7)" d="M80,0h293.40000000000003" style="stroke: rgb(40, 52, 66); stroke-opacity: 1; stroke-width: 1px;"/></g></g><g class="zerolinelayer"><path class="yzl zl crisp" transform="translate(0,356.5)" d="M80,0h293.40000000000003" style="stroke: rgb(40, 52, 66); stroke-opacity: 1; stroke-width: 2px;"/></g><path class="xlines-below"/><path class="ylines-below"/><g class="overlines-below"/><g class="xaxislayer-below"/><g class="yaxislayer-below"/><g class="overaxes-below"/><g class="plot" transform="translate(80, 100)" clip-path="url('#clip638826xyplot')"><g class="scatterlayer mlayer"><g class="trace scatter trace94d908" style="stroke-miterlimit: 2; opacity: 1;"><g class="fills"/><g class="errorbars"/><g class="lines"><path class="js-line" d="M0,256.5L49.38,255.82L50.09,255.72L81.58,251.49L82.3,251.38L91.6,249.54L92.31,249.34L99.47,247.82L100.19,247.72L113.78,243.95L114.5,243.51L118.79,241.5L119.51,241.5L121.65,240.2L122.37,239.67L123.8,239.13L124.52,238.38L141.69,230.07L142.41,230.07L143.84,227.71L144.55,226.74L146.7,224.79L147.42,224.79L148.85,223.55L149.56,222.88L152.42,220.14L153.14,220.08L153.86,220.06L154.57,218.87L158.87,216.89L159.58,216.33L162.44,214.83L163.16,214.83L166.74,213.33L167.45,213.29L170.32,212.73L171.03,212.59L173.89,211.54L174.61,211.31L186.06,208.72L186.77,208.71L191.07,207.78L191.78,207.7L196.79,206.12L197.51,205.94L209.67,201.81L210.39,201.51L215.4,198.45L216.11,197.85L218.26,196.64L218.98,196.34L222.55,193.09L223.27,192.3L225.42,190.44L226.13,189.03L227.56,187.37L228.28,185.62L229,185.44L229.71,183.02L233.29,177.69L234,173.26L236.15,168.81L236.87,168.76L239.01,160.66L239.73,159.02L244.02,148.11L244.74,146.72L246.89,142.21L247.6,139.94L250.46,133.59L251.18,132.18L257.62,114.02L258.34,111.48L260.48,107.45L261.2,106.69L268.35,96.15L269.07,95.37L274.79,89.37L275.51,88.75L279.8,85.21L280.52,84.97L293.4,79.41" style="vector-effect: non-scaling-stroke; fill: none; stroke: rgb(230, 25, 75); stroke-opacity: 1; stroke-width: 2px; opacity: 1;"/></g><g class="points"/><g class="text"/></g><g class="trace scatter trace3d3189" style="stroke-miterlimit: 2; opacity: 1;"><g class="fills"/><g class="errorbars"/><g class="lines"><path class="js-line" d="M0,256.5L70.85,255.77L71.56,255.72L80.15,255.09L80.86,254.95L95.18,252.09L95.89,251.07L98.04,250.91L98.75,249.94L101.62,248.39L102.33,247.45L105.19,246.75L105.91,246.35L108.77,246.05L109.49,245.02L112.35,243.34L113.07,243.34L122.37,239.45L123.08,239.45L128.09,237.92L128.81,237.76L130.96,237.07L131.67,236.97L136.68,236.1L137.4,236.01L143.84,235.39L144.55,235.01L172.46,231.33L173.18,231.33L199.66,228.44L200.37,228.22L210.39,226.67L211.1,226.47L214.68,225.35L215.4,225.07L217.55,224.44L218.26,224.44L220.41,222.25L221.12,222.25L226.85,220.44L227.56,220.44L228.28,220.44L229,219.29L232.57,216.67L233.29,216.67L234.72,213.83L235.44,213.49L237.58,212.56L238.3,212.56L239.73,210.77L240.44,210.48L244.74,208.58L245.45,208.36L259.77,201.36L260.48,201.32L271.93,198.98L272.65,198.84L283.38,198.19L284.1,198.18L293.4,197.67" style="vector-effect: non-scaling-stroke; fill: none; stroke: rgb(60, 180, 75); stroke-opacity: 1; stroke-width: 2px; opacity: 1;"/></g><g class="points"/><g class="text"/></g><g class="trace scatter tracec83d95" style="stroke-miterlimit: 2; opacity: 1;"><g class="fills"/><g class="errorbars"/><g class="lines"><path class="js-line" d="M0,256.5L56.53,255.77L57.25,255.65L62.26,254.98L62.97,254.88L70.85,252.92L71.56,252.62L88.74,246.26L89.45,245.63L104.48,242.08L105.19,242.01L118.79,239.99L119.51,239.86L131.67,238.27L132.39,238.17L135.25,237.5L135.97,237.37L162.44,232.27L163.16,232.07L172.46,230.31L173.18,230.16L185.34,228.5L186.06,228.23L200.37,225.5L201.09,225.25L218.26,219.97L218.98,219.56L231.86,211.76L232.57,210.96L238.3,207.29L239.01,206.99L248.32,198.88L249.03,198.43L257.62,191.11L258.34,188.16L260.48,185.76L261.2,185.52L269.07,179.37L269.78,179.02L272.65,177.19L273.36,176.83L275.51,175.51L276.23,174.99L286.96,171.23L287.68,171.1L293.4,169.52" style="vector-effect: non-scaling-stroke; fill: none; stroke: rgb(255, 225, 25); stroke-opacity: 1; stroke-width: 2px; opacity: 1;"/></g><g class="points"/><g class="text"/></g><g class="trace scatter traceccf44b" style="stroke-miterlimit: 2; opacity: 1;"><g class="fills"/><g class="errorbars"/><g class="lines"><path class="js-line" d="M0,256.5L47.95,255.77L48.66,255.7L57.96,252.94L58.68,252.75L63.69,251.51L64.4,251.42L74.42,248.95L75.14,248.79L83.01,247.48L83.73,247.39L113.78,243.04L114.5,242.81L120.94,241.32L121.65,240.56L125.95,238.52L126.66,238.14L130.24,236.08L130.96,235.28L136.68,229.04L137.4,228.56L140.26,226.48L140.98,225.94L145.27,223.51L145.98,223.08L148.85,221.13L149.56,220.74L157.43,216.47L158.15,216.07L170.32,210.41L171.03,210.03L186.77,203.38L187.49,202.22L190.35,201.66L191.07,201.31L191.78,201.31L192.5,200.24L201.09,193.46L201.8,192.63L206.81,186.63L207.53,185.3L209.67,181.53L210.39,174.48L211.82,177.29L212.54,176.12L218.98,163L219.69,161.39L221.12,158.47L221.84,158.47L223.99,153.89L224.7,153.07L227.56,149.12L228.28,149.12L229.71,144.76L230.43,143.76L231.14,143.76L231.86,141.59L236.87,134.63L237.58,133.94L239.01,132.23L239.73,132.23L241.16,129.7L241.88,130.23L243.31,130.23L244.02,133.94L246.17,133.94L246.89,124.05L251.18,118.85L251.89,117.48L254.04,114.75L254.76,113.99L264.06,105.75L264.78,105.75L266.21,105.75L266.92,103.27L273.36,99.84L274.08,99.71L281.23,96.88L281.95,96.6L293.4,93.83" style="vector-effect: non-scaling-stroke; fill: none; stroke: rgb(67, 99, 216); stroke-opacity: 1; stroke-width: 2px; opacity: 1;"/></g><g class="points"/><g class="text"/></g><g class="trace scatter trace3c93b3" style="stroke-miterlimit: 2; opacity: 1;"><g class="fills"/><g class="errorbars"/><g class="lines"><path class="js-line" d="M0,256.5L73.71,255.76L74.42,255.73L97.32,255.02L98.04,254.97L103.05,254.39L103.76,254.21L108.77,252.82L109.49,252.4L118.08,246.05L118.79,244.86L120.22,244.64L120.94,243.91L121.65,243.3L122.37,240.53L124.52,238.99L125.23,238.65L126.66,236.37L127.38,233.65L128.09,232.67L128.81,229.79L133.1,223.5L133.82,223.5L135.97,220.84L136.68,220.24L144.55,212.62L145.27,212L148.85,208.56L149.56,208.56L150.99,206.15L151.71,205.29L155.29,199.98L156,198.55L157.43,197.15L158.15,197.15L168.88,192.37L169.6,192.21L173.89,189.9L174.61,189.54L175.32,189.54L176.04,188.63L178.19,187.76L178.9,187.76L186.77,184.3L187.49,183.86L190.35,183.29L191.07,182.91L193.21,182.06L193.93,182.06L196.08,181.7L196.79,180.71L202.52,178.56L203.23,178.56L204.66,178.21L205.38,177.77L213.25,175.01L213.97,175.01L215.4,173.72L216.11,172.24L218.26,169.19L218.98,169.19L219.69,169.19L220.41,166.18L221.84,164.52L222.55,163.19L224.7,162.8L225.42,161.66L228.28,157.65L229,157.65L229.71,157.65L230.43,156.81L232.57,153.9L233.29,153.9L235.44,151.94L236.15,151.94L238.3,151.94L239.01,152.84L242.59,149.83L243.31,149.83L244.74,149.17L245.45,148.5L247.6,145.81L248.32,145.81L249.03,145.81L249.75,144.83L251.89,142.47L252.61,139.41L254.04,139.41L254.76,138.24L258.34,133.54L259.05,133.54L259.77,133.54L260.48,132.09L263.34,127.37L264.06,127.37L267.64,120.11L268.35,120.11L269.07,120.11L269.78,118.55L271.93,112.97L272.65,111.5L274.08,111.5L274.79,109.29L277.66,104.07L278.37,104.07L279.8,104.07L280.52,102.77L281.95,101.47L282.67,100.43L284.1,100.43L284.81,98.91L286.96,93.98L287.68,91.85L289.11,91.85L289.82,90.49L293.4,87.57" style="vector-effect: non-scaling-stroke; fill: none; stroke: rgb(245, 130, 49); stroke-opacity: 1; stroke-width: 2px; opacity: 1;"/></g><g class="points"/><g class="text"/></g><g class="trace scatter traceaf60a0" style="stroke-miterlimit: 2; opacity: 1;"><g class="fills"/><g class="errorbars"/><g class="lines"><path class="js-line" d="M0,256.5L39.36,255.77L40.07,255.65L65.84,252.17L66.55,252.1L105.19,249.34L105.91,249.18L112.35,247.82L113.07,247.44L117.36,245.44L118.08,245.02L124.52,241.85L125.23,241.36L128.09,240.26L128.81,239.52L133.82,236.43L134.53,236.12L141.69,231.51L142.41,231.05L143.12,230.46L143.84,228.85L153.14,221.63L153.86,221.32L160.3,217.73L161.01,217.31L165.31,215.44L166.02,215.44L168.88,213.78L169.6,213.63L173.18,212.05L173.89,211.83L186.06,208.25L186.77,207.9L201.09,202.78L201.8,202.34L207.53,199.57L208.24,198.8L213.97,194.02L214.68,193.29L218.98,188.76L219.69,187.67L223.27,181.81L223.99,180.08L226.13,176.63L226.85,174.79L229,168.02L229.71,164.34L231.14,160.58L231.86,158.1L232.57,156.34L233.29,151.92L245.45,109.31L246.17,107.92L249.03,94.18L249.75,92.5L252.61,81.04L253.33,77.32L258.34,57.03L259.05,54.49L262.63,46.46L263.34,44.82L265.49,40.41L266.21,39.28L269.07,34.37L269.78,33.34L278.37,23.18L279.09,22.56L293.4,13.5" style="vector-effect: non-scaling-stroke; fill: none; stroke: rgb(145, 30, 180); stroke-opacity: 1; stroke-width: 2px; opacity: 1;"/></g><g class="points"/><g class="text"/></g></g></g><g class="overplot"/><path class="xlines-above crisp" d="M0,0" style="fill: none;"/><path class="ylines-above crisp" d="M0,0" style="fill: none;"/><g class="overlines-above"/><g class="xaxislayer-above"><g class="xtick"><text text-anchor="middle" x="0" y="383" transform="translate(130.09,0)" style="font-family: 'Open Sans', verdana, arial, sans-serif; font-size: 12px; fill: rgb(242, 245, 250); fill-opacity: 1; white-space: pre;">Apr 2020</text></g><g class="xtick"><text text-anchor="middle" x="0" y="383" transform="translate(195.20999999999998,0)" style="font-family: 'Open Sans', verdana, arial, sans-serif; font-size: 12px; fill: rgb(242, 245, 250); fill-opacity: 1; white-space: pre;">Jul 2020</text></g><g class="xtick"><text text-anchor="middle" x="0" y="383" transform="translate(261.05,0)" style="font-family: 'Open Sans', verdana, arial, sans-serif; font-size: 12px; fill: rgb(242, 245, 250); fill-opacity: 1; white-space: pre;">Oct 2020</text></g><g class="xtick"><text text-anchor="middle" x="0" y="383" transform="translate(326.89,0)" style="font-family: 'Open Sans', verdana, arial, sans-serif; font-size: 12px; fill: rgb(242, 245, 250); fill-opacity: 1; white-space: pre;">Jan 2021</text></g></g><g class="yaxislayer-above"><g class="ytick"><text text-anchor="end" x="79" y="4.199999999999999" transform="translate(0,356.5)" style="font-family: 'Open Sans', verdana, arial, sans-serif; font-size: 12px; fill: rgb(242, 245, 250); fill-opacity: 1; white-space: pre;">0</text></g><g class="ytick"><text text-anchor="end" x="79" y="4.199999999999999" transform="translate(0,312.94)" style="font-family: 'Open Sans', verdana, arial, sans-serif; font-size: 12px; fill: rgb(242, 245, 250); fill-opacity: 1; white-space: pre;">20k</text></g><g class="ytick"><text text-anchor="end" x="79" y="4.199999999999999" transform="translate(0,269.38)" style="font-family: 'Open Sans', verdana, arial, sans-serif; font-size: 12px; fill: rgb(242, 245, 250); fill-opacity: 1; white-space: pre;">40k</text></g><g class="ytick"><text text-anchor="end" x="79" y="4.199999999999999" transform="translate(0,225.82)" style="font-family: 'Open Sans', verdana, arial, sans-serif; font-size: 12px; fill: rgb(242, 245, 250); fill-opacity: 1; white-space: pre;">60k</text></g><g class="ytick"><text text-anchor="end" x="79" y="4.199999999999999" transform="translate(0,182.26)" style="font-family: 'Open Sans', verdana, arial, sans-serif; font-size: 12px; fill: rgb(242, 245, 250); fill-opacity: 1; white-space: pre;">80k</text></g><g class="ytick"><text text-anchor="end" x="79" y="4.199999999999999" transform="translate(0,138.7)" style="font-family: 'Open Sans', verdana, arial, sans-serif; font-size: 12px; fill: rgb(242, 245, 250); fill-opacity: 1; white-space: pre;">100k</text></g></g><g class="overaxes-above"/></g><g class="subplot x2y2"><g class="layer-subplot"><g class="shapelayer"/><g class="imagelayer"/></g><g class="gridlayer"><g class="x2"><path class="x2grid crisp" transform="translate(488.69000000000005,0)" d="M0,100v270" style="stroke: rgb(40, 52, 66); stroke-opacity: 1; stroke-width: 1px;"/><path class="x2grid crisp" transform="translate(553.8100000000001,0)" d="M0,100v270" style="stroke: rgb(40, 52, 66); stroke-opacity: 1; stroke-width: 1px;"/><path class="x2grid crisp" transform="translate(619.6500000000001,0)" d="M0,100v270" style="stroke: rgb(40, 52, 66); stroke-opacity: 1; stroke-width: 1px;"/><path class="x2grid crisp" transform="translate(685.49,0)" d="M0,100v270" style="stroke: rgb(40, 52, 66); stroke-opacity: 1; stroke-width: 1px;"/></g><g class="y2"><path class="y2grid crisp" transform="translate(0,304.84000000000003)" d="M438.6,0h293.4" style="stroke: rgb(40, 52, 66); stroke-opacity: 1; stroke-width: 1px;"/><path class="y2grid crisp" transform="translate(0,253.18)" d="M438.6,0h293.4" style="stroke: rgb(40, 52, 66); stroke-opacity: 1; stroke-width: 1px;"/><path class="y2grid crisp" transform="translate(0,201.53)" d="M438.6,0h293.4" style="stroke: rgb(40, 52, 66); stroke-opacity: 1; stroke-width: 1px;"/><path class="y2grid crisp" transform="translate(0,149.87)" d="M438.6,0h293.4" style="stroke: rgb(40, 52, 66); stroke-opacity: 1; stroke-width: 1px;"/></g></g><g class="zerolinelayer"><path class="y2zl zl crisp" transform="translate(0,356.5)" d="M438.6,0h293.4" style="stroke: rgb(40, 52, 66); stroke-opacity: 1; stroke-width: 2px;"/></g><path class="xlines-below"/><path class="ylines-below"/><g class="overlines-below"/><g class="xaxislayer-below"/><g class="yaxislayer-below"/><g class="overaxes-below"/><g class="plot" transform="translate(438.6, 100)" clip-path="url('#clip638826x2y2plot')"><g class="scatterlayer mlayer"><g class="trace scatter trace0b670d" style="stroke-miterlimit: 2; opacity: 1;"><g class="fills"/><g class="errorbars"/><g class="lines"><path class="js-line" d="M0,256.5L49.38,255.78L50.09,255.67L59.4,254.12L60.11,252.78L62.97,252.16L63.69,252.16L70.13,250.61L70.85,250.3L77.29,249.16L78,249.16L80.15,248.65L80.86,248.34L84.44,247.61L85.16,247.41L89.45,246.89L90.17,246.89L110.2,243.9L110.92,243.28L117.36,242.04L118.08,242.04L121.65,241.31L122.37,241.21L125.95,240.59L126.66,239.87L130.24,238.83L130.96,238.63L132.39,238.11L133.1,238.11L136.68,237.7L137.4,236.97L142.41,236.56L143.12,235.32L145.27,234.6L145.98,234.18L151.71,232.32L152.42,232.43L156,231.29L156.72,230.98L157.43,230.98L158.15,229.84L159.58,229.95L160.3,228.19L161.73,225.92L162.44,225.61L166.02,225.2L166.74,223.44L167.45,223.44L168.17,222.2L168.88,222.1L169.6,219.72L170.32,219.72L171.03,218.79L173.18,217.86L173.89,217.86L175.32,215.69L176.04,215.48L177.47,214.76L178.19,214.55L180.33,213.93L181.05,213.11L184.63,212.38L185.34,211.04L188.92,211.45L189.64,211.97L190.35,210.83L191.07,211.76L192.5,210.83L193.21,211.76L195.36,211.56L196.08,209.39L205.38,208.66L206.1,208.46L208.24,207.53L208.96,207.53L209.67,207.53L210.39,206.6L213.25,205.88L213.97,205.88L217.55,204.95L218.26,204.95L221.84,204.33L222.55,203.71L230.43,202.16L231.14,201.43L235.44,198.33L236.15,197.2L236.87,197.2L237.58,196.06L239.73,195.75L240.44,193.58L241.88,192.55L242.59,192.55L244.02,191.93L244.74,191.93L246.17,191.93L246.89,188.72L250.46,188.72L251.18,184.49L251.89,184.49L252.61,181.18L254.76,180.46L255.47,178.5L259.05,178.29L259.77,177.57L261.2,177.36L261.91,169.51L263.34,168.06L264.06,164.14L264.78,163.93L265.49,162.9L268.35,155.87L269.07,155.25L270.5,154.11L271.22,153.29L272.65,150.08L273.36,149.36L275.51,147.91L276.23,146.67L276.94,146.57L277.66,144.09L279.09,140.79L279.8,140.68L281.95,140.17L282.67,135.52L283.38,135.52L284.1,132.52L285.53,132.52L286.24,130.66L286.96,130.04L287.68,128.28L291.25,127.97L291.97,124.15L293.4,123.33" style="vector-effect: non-scaling-stroke; fill: none; stroke: rgb(230, 25, 75); stroke-opacity: 1; stroke-width: 2px; opacity: 1;"/></g><g class="points"/><g class="text"/></g><g class="trace scatter trace31adbe" style="stroke-miterlimit: 2; opacity: 1;"><g class="fills"/><g class="errorbars"/><g class="lines"><path class="js-line" d="M0,256.5L65.12,255.88L65.84,255.67L83.73,254.95L84.44,254.64L103.76,251.64L104.48,251.13L113.78,248.13L114.5,246.89L122.37,242.55L123.08,242.55L124.52,241.93L125.23,241.21L125.95,241.21L126.66,240.38L128.81,239.66L129.53,239.66L131.67,238.63L132.39,237.8L135.25,237.08L135.97,235.84L138.11,233.77L138.83,233.56L140.26,232.32L140.98,232.32L142.41,231.29L143.12,231.29L144.55,231.29L145.27,230.46L146.7,229.95L147.42,229.95L148.85,229.95L149.56,229.12L154.57,228.4L155.29,227.26L158.87,226.23L159.58,226.13L162.44,225.92L163.16,225.92L166.02,225.2L166.74,224.68L174.61,224.06L175.32,223.75L181.76,223.13L182.48,222.82L189.64,222.41L190.35,221.89L210.39,221.27L211.1,221.06L212.54,220.55L213.25,220.55L216.11,220.03L216.83,220.03L229.71,219.31L230.43,218.58L232.57,217.96L233.29,217.96L235.44,216.41L236.15,215.79L240.44,215.17L241.16,214.97L243.31,214.55L244.02,214.55L245.45,214.04L246.17,213.73L247.6,213.11L248.32,213.11L249.75,213.11L250.46,211.66L254.04,210.42L254.76,210.42L259.05,208.66L259.77,208.66L261.2,207.53L261.91,206.29L263.34,205.57L264.06,205.57L265.49,203.81L266.21,203.4L267.64,201.54L268.35,201.54L269.07,201.54L269.78,199.78L274.79,198.54L275.51,197.3L276.23,197.2L276.94,196.16L289.11,195.44L289.82,191.1L292.68,190.48L293.4,190.48" style="vector-effect: non-scaling-stroke; fill: none; stroke: rgb(60, 180, 75); stroke-opacity: 1; stroke-width: 2px; opacity: 1;"/></g><g class="points"/><g class="text"/></g><g class="trace scatter trace185d88" style="stroke-miterlimit: 2; opacity: 1;"><g class="fills"/><g class="errorbars"/><g class="lines"><path class="js-line" d="M0,256.5L57.96,255.88L58.68,255.67L75.14,253.09L75.85,252.47L77.29,251.64L78,251.54L81.58,249.58L82.3,249.37L86.59,248.23L87.3,247.82L88.02,247.82L88.74,246.79L96.61,245.14L97.32,245.14L98.75,244.31L99.47,244.31L103.76,243.9L104.48,243.38L109.49,242.66L110.2,242.45L120.22,240.9L120.94,240.38L128.81,239.76L129.53,239.56L142.41,238.32L143.12,238.32L156.72,237.59L157.43,237.49L168.88,236.77L169.6,236.56L172.46,235.94L173.18,235.94L180.33,235.32L181.05,235.11L183.2,234.91L183.91,235.01L188.92,234.49L189.64,234.18L206.1,233.46L206.81,233.36L217.55,232.63L218.26,232.53L231.14,231.81L231.86,231.7L236.87,230.98L237.58,230.98L244.74,230.57L245.45,230.05L247.6,229.43L248.32,229.43L255.47,228.81L256.19,228.29L264.78,226.43L265.49,226.02L268.35,224.16L269.07,224.16L275.51,222.72L276.23,222.72L282.67,221.99L283.38,220.86L289.82,212.69L290.54,210.94L293.4,209.9" style="vector-effect: non-scaling-stroke; fill: none; stroke: rgb(255, 225, 25); stroke-opacity: 1; stroke-width: 2px; opacity: 1;"/></g><g class="points"/><g class="text"/></g><g class="trace scatter trace06bda5" style="stroke-miterlimit: 2; opacity: 1;"><g class="fills"/><g class="errorbars"/><g class="lines"><path class="js-line" d="M0,256.5L52.24,255.98L52.96,255.26L55.1,254.95L55.82,253.61L59.4,251.02L60.11,249.99L61.54,249.06L62.26,248.23L63.69,248.03L64.4,247.1L65.84,245.65L66.55,244L68.7,242.35L69.41,240.07L70.85,239.76L71.56,239.14L72.99,238.21L73.71,238.21L75.85,233.77L76.57,231.08L79.43,227.78L80.15,226.23L83.01,222.1L83.73,221.79L85.16,220.13L85.87,217.65L90.88,215.69L91.6,213.62L93.03,210.94L93.74,210.94L98.04,209.28L98.75,208.56L100.9,205.57L101.62,205.26L104.48,204.84L105.19,202.98L106.63,200.4L107.34,200.09L110.92,198.95L111.64,198.23L113.78,198.23L114.5,197.09L128.09,193.89L128.81,193.89L129.53,193.79L130.24,192.55L137.4,189.76L138.11,189.76L140.98,189.24L141.69,188.41L144.55,187.69L145.27,187.59L147.42,187.07L148.13,185.93L149.56,184.59L150.28,184.39L158.15,182.11L158.87,180.87L161.01,180.36L161.73,180.36L163.87,179.94L164.59,179.84L166.02,178.7L166.74,178.39L170.32,177.67L171.03,177.46L173.18,177.05L173.89,177.05L175.32,175.09L176.04,175.09L176.76,174.88L177.47,173.85L181.05,173.12L181.76,173.02L186.06,171.68L186.77,170.23L188.92,169.82L189.64,169.82L191.07,166.41L191.78,166.41L193.93,166.41L194.65,168.58L196.79,167.23L197.51,167.23L198.94,166.82L199.66,166.41L203.23,165.68L203.95,165.27L208.96,164.34L209.67,163.72L214.68,162.48L215.4,162.07L216.83,160.93L217.55,160.93L218.26,160.93L218.98,158.76L223.27,157.94L223.99,155.77L224.7,155.35L225.42,152.46L226.13,152.15L226.85,150.6L228.28,150.6L229,147.81L231.86,144.82L232.57,144.71L233.29,144.61L234,140.99L235.44,139.96L236.15,139.96L239.01,132.83L239.73,132.83L241.16,131.18L241.88,131.59L243.31,131.59L244.02,135.1L246.17,135.1L246.89,126.63L249.03,126.63L249.75,121.78L251.89,121.26L252.61,121.36L254.04,121.36L254.76,117.44L257.62,116.2L258.34,116.2L259.77,116.2L260.48,112.89L262.63,112.37L263.34,112.37L266.21,112.37L266.92,108.34L269.07,108.34L269.78,100.39L275.51,100.18L276.23,92.95L279.09,92.33L279.8,92.33L280.52,92.33L281.23,87.68L284.1,87.68L284.81,84.79L289.82,84.48L290.54,79.93L293.4,79.73" style="vector-effect: non-scaling-stroke; fill: none; stroke: rgb(67, 99, 216); stroke-opacity: 1; stroke-width: 2px; opacity: 1;"/></g><g class="points"/><g class="text"/></g><g class="trace scatter tracee26208" style="stroke-miterlimit: 2; opacity: 1;"><g class="fills"/><g class="errorbars"/><g class="lines"><path class="js-line" d="M0,256.5L77.29,255.78L78,255.67L104.48,254.95L105.19,254.74L113.07,253.3L113.78,253.19L114.5,253.19L115.21,251.75L118.79,250.4L119.51,250.4L123.8,241L124.52,241L125.23,240.8L125.95,237.59L128.09,228.91L128.81,227.16L132.39,209.39L133.1,209.39L133.82,231.29L134.53,230.26L135.25,225.3L135.97,224.27L136.68,220.86L138.11,213.93L138.83,209.28L143.84,190.38L144.55,188.93L145.98,184.08L146.7,179.84L150.28,166.3L150.99,163.41L153.14,154.94L153.86,154.63L154.57,153.7L155.29,150.39L157.43,141.82L158.15,140.06L158.87,139.86L159.58,138.31L162.44,127.97L163.16,127.66L164.59,125.39L165.31,124.05L168.17,117.75L168.88,117.64L173.89,107L174.61,106.59L178.19,101.22L178.9,101.11L179.62,100.6L180.33,98.94L182.48,95.64L183.2,95.53L184.63,95.22L185.34,94.29L187.49,90.16L188.21,90.06L189.64,89.44L190.35,88.92L193.21,86.65L193.93,86.44L201.09,81.9L201.8,80.97L205.38,77.87L206.1,77.56L211.1,75.08L211.82,74.35L215.4,72.91L216.11,71.77L218.26,70.32L218.98,70.32L220.41,70.01L221.12,69.29L223.99,68.77L224.7,68.67L227.56,67.12L228.28,65.98L236.15,61.34L236.87,61.34L239.01,61.34L239.73,59.17L243.31,58.44L244.02,58.34L247.6,55.34L248.32,55.34L249.75,54.41L250.46,54.1L252.61,52.76L253.33,52.35L254.76,51.93L255.47,50.8L256.9,49.25L257.62,48.52L259.77,48.01L260.48,47.08L263.34,42.84L264.06,42.84L264.78,42.43L265.49,40.98L268.35,37.16L269.07,37.16L271.93,34.16L272.65,32.3L274.79,31.17L275.51,29.82L277.66,26.21L278.37,25.07L284.1,23.52L284.81,22.18L289.82,17.63L290.54,16.29L291.97,14.64L292.68,13.81L293.4,13.5" style="vector-effect: non-scaling-stroke; fill: none; stroke: rgb(245, 130, 49); stroke-opacity: 1; stroke-width: 2px; opacity: 1;"/></g><g class="points"/><g class="text"/></g><g class="trace scatter trace2d08de" style="stroke-miterlimit: 2; opacity: 1;"><g class="fills"/><g class="errorbars"/><g class="lines"><path class="js-line" d="M0,256.5L38.64,255.78L39.36,255.67L46.51,254.12L47.23,253.61L50.09,252.88L50.81,252.47L60.11,249.47L60.83,249.06L62.97,248.65L63.69,247.61L66.55,246.38L67.27,246.27L70.85,245.03L71.56,244.83L74.42,244L75.14,243.48L90.17,242.04L90.88,242.04L100.19,241.42L100.9,241.21L104.48,240.9L105.19,240.9L113.78,240.38L114.5,240.38L120.22,239.45L120.94,239.35L125.23,238.63L125.95,238.32L140.98,236.25L141.69,235.53L150.99,234.08L151.71,233.56L154.57,232.43L155.29,232.01L158.15,231.29L158.87,231.29L163.16,229.64L163.87,229.64L166.02,229.33L166.74,227.98L167.45,227.57L168.17,224.47L168.88,227.26L169.6,226.85L171.03,226.02L171.75,226.02L177.47,224.89L178.19,224.27L181.05,222.92L181.76,222.41L182.48,222.1L183.2,220.96L186.06,219.93L186.77,219.62L190.35,219L191.07,218.58L192.5,217.96L193.21,217.96L196.08,216.72L196.79,216.41L199.66,216.41L200.37,214.97L204.66,213.93L205.38,213L210.39,211.04L211.1,211.04L213.25,210.63L213.97,210.52L215.4,209.7L216.11,209.08L218.26,208.66L218.98,208.56L222.55,207.32L223.27,207.32L224.7,206.7L225.42,206.29L227.56,204.53L228.28,204.53L229.71,203.6L230.43,203.29L233.29,202.16L234,201.85L235.44,198.54L236.15,198.02L237.58,196.27L238.3,196.27L239.01,196.27L239.73,193.79L241.16,191.2L241.88,190.07L242.59,190.07L243.31,189.14L244.74,189.14L245.45,186.97L246.17,186.97L246.89,183.25L248.32,179.32L249.03,179.32L249.75,179.32L250.46,176.84L254.04,165.27L254.76,158.97L256.9,150.29L257.62,149.05L259.05,146.47L259.77,145.33L262.63,134.48L263.34,134.48L264.78,125.91L265.49,124.46L268.35,112.37L269.07,110.41L269.78,110L270.5,108.45L272.65,99.15L273.36,98.63L274.79,96.77L275.51,93.67L279.09,84.37L279.8,84.17L280.52,84.07L281.23,82.72L282.67,78.28L283.38,77.97L284.81,77.14L285.53,76.01L286.24,76.01L286.96,74.15L288.39,72.91L289.11,72.91L289.82,72.49L290.54,70.84L291.25,70.74L291.97,68.46L293.4,68.26" style="vector-effect: non-scaling-stroke; fill: none; stroke: rgb(145, 30, 180); stroke-opacity: 1; stroke-width: 2px; opacity: 1;"/></g><g class="points"/><g class="text"/></g></g></g><g class="overplot"/><path class="xlines-above crisp" d="M0,0" style="fill: none;"/><path class="ylines-above crisp" d="M0,0" style="fill: none;"/><g class="overlines-above"/><g class="xaxislayer-above"><g class="x2tick"><text text-anchor="middle" x="0" y="383" transform="translate(488.69000000000005,0)" style="font-family: 'Open Sans', verdana, arial, sans-serif; font-size: 12px; fill: rgb(242, 245, 250); fill-opacity: 1; white-space: pre;">Apr 2020</text></g><g class="x2tick"><text text-anchor="middle" x="0" y="383" transform="translate(553.8100000000001,0)" style="font-family: 'Open Sans', verdana, arial, sans-serif; font-size: 12px; fill: rgb(242, 245, 250); fill-opacity: 1; white-space: pre;">Jul 2020</text></g><g class="x2tick"><text text-anchor="middle" x="0" y="383" transform="translate(619.6500000000001,0)" style="font-family: 'Open Sans', verdana, arial, sans-serif; font-size: 12px; fill: rgb(242, 245, 250); fill-opacity: 1; white-space: pre;">Oct 2020</text></g><g class="x2tick"><text text-anchor="middle" x="0" y="383" transform="translate(685.49,0)" style="font-family: 'Open Sans', verdana, arial, sans-serif; font-size: 12px; fill: rgb(242, 245, 250); fill-opacity: 1; white-space: pre;">Jan 2021</text></g></g><g class="yaxislayer-above"><g class="y2tick"><text text-anchor="end" x="437.6" y="4.199999999999999" transform="translate(0,356.5)" style="font-family: 'Open Sans', verdana, arial, sans-serif; font-size: 12px; fill: rgb(242, 245, 250); fill-opacity: 1; white-space: pre;">0</text></g><g class="y2tick"><text text-anchor="end" x="437.6" y="4.199999999999999" transform="translate(0,304.84000000000003)" style="font-family: 'Open Sans', verdana, arial, sans-serif; font-size: 12px; fill: rgb(242, 245, 250); fill-opacity: 1; white-space: pre;">500</text></g><g class="y2tick"><text text-anchor="end" x="437.6" y="4.199999999999999" transform="translate(0,253.18)" style="font-family: 'Open Sans', verdana, arial, sans-serif; font-size: 12px; fill: rgb(242, 245, 250); fill-opacity: 1; white-space: pre;">1000</text></g><g class="y2tick"><text text-anchor="end" x="437.6" y="4.199999999999999" transform="translate(0,201.53)" style="font-family: 'Open Sans', verdana, arial, sans-serif; font-size: 12px; fill: rgb(242, 245, 250); fill-opacity: 1; white-space: pre;">1500</text></g><g class="y2tick"><text text-anchor="end" x="437.6" y="4.199999999999999" transform="translate(0,149.87)" style="font-family: 'Open Sans', verdana, arial, sans-serif; font-size: 12px; fill: rgb(242, 245, 250); fill-opacity: 1; white-space: pre;">2000</text></g></g><g class="overaxes-above"/></g></g><g class="polarlayer"/><g class="ternarylayer"/><g class="geolayer"/><g class="funnelarealayer"/><g class="pielayer"/><g class="treemaplayer"/><g class="sunburstlayer"/><g class="glimages"/><defs id="topdefs-638826"><g class="clips"/><clipPath id="legend638826"><rect width="143" height="124" x="0" y="0"/></clipPath></defs><g class="layer-above"><g class="imagelayer"/><g class="shapelayer"/></g><g class="infolayer"><g class="legend" pointer-events="all" transform="translate(745.04, 100)"><rect class="bg" shape-rendering="crispEdges" width="143" height="124" x="0" y="0" style="stroke: rgb(68, 68, 68); stroke-opacity: 1; fill: rgb(17, 17, 17); fill-opacity: 1; stroke-width: 0px;"/><g class="scrollbox" transform="translate(0, 0)" clip-path="url('#legend638826')"><g class="groups"><g class="traces" transform="translate(0, 14.5)" style="opacity: 1;"><text class="legendtext user-select-none" text-anchor="start" x="40" y="4.680000000000001" style="font-family: 'Open Sans', verdana, arial, sans-serif; font-size: 12px; fill: rgb(242, 245, 250); fill-opacity: 1; white-space: pre;">Alameda, CA</text><g class="layers" style="opacity: 1;"><g class="legendfill"/><g class="legendlines"><path class="js-line" d="M5,0h30" style="fill: none; stroke: rgb(230, 25, 75); stroke-opacity: 1; stroke-width: 2px;"/></g><g class="legendsymbols"><g class="legendpoints"/></g></g><rect class="legendtoggle" pointer-events="all" x="0" y="-9.5" width="137.796875" height="19" style="cursor: pointer; fill: rgb(0, 0, 0); fill-opacity: 0;"/></g><g class="traces" transform="translate(0, 33.5)" style="opacity: 1;"><text class="legendtext user-select-none" text-anchor="start" x="40" y="4.680000000000001" style="font-family: 'Open Sans', verdana, arial, sans-serif; font-size: 12px; fill: rgb(242, 245, 250); fill-opacity: 1; white-space: pre;">Imperial, CA</text><g class="layers" style="opacity: 1;"><g class="legendfill"/><g class="legendlines"><path class="js-line" d="M5,0h30" style="fill: none; stroke: rgb(60, 180, 75); stroke-opacity: 1; stroke-width: 2px;"/></g><g class="legendsymbols"><g class="legendpoints"/></g></g><rect class="legendtoggle" pointer-events="all" x="0" y="-9.5" width="137.796875" height="19" style="cursor: pointer; fill: rgb(0, 0, 0); fill-opacity: 0;"/></g><g class="traces" transform="translate(0, 52.5)" style="opacity: 1;"><text class="legendtext user-select-none" text-anchor="start" x="40" y="4.680000000000001" style="font-family: 'Open Sans', verdana, arial, sans-serif; font-size: 12px; fill: rgb(242, 245, 250); fill-opacity: 1; white-space: pre;">Prince William, VA</text><g class="layers" style="opacity: 1;"><g class="legendfill"/><g class="legendlines"><path class="js-line" d="M5,0h30" style="fill: none; stroke: rgb(255, 225, 25); stroke-opacity: 1; stroke-width: 2px;"/></g><g class="legendsymbols"><g class="legendpoints"/></g></g><rect class="legendtoggle" pointer-events="all" x="0" y="-9.5" width="137.796875" height="19" style="cursor: pointer; fill: rgb(0, 0, 0); fill-opacity: 0;"/></g><g class="traces" transform="translate(0, 71.5)" style="opacity: 1;"><text class="legendtext user-select-none" text-anchor="start" x="40" y="4.680000000000001" style="font-family: 'Open Sans', verdana, arial, sans-serif; font-size: 12px; fill: rgb(242, 245, 250); fill-opacity: 1; white-space: pre;">St Louis, MO</text><g class="layers" style="opacity: 1;"><g class="legendfill"/><g class="legendlines"><path class="js-line" d="M5,0h30" style="fill: none; stroke: rgb(67, 99, 216); stroke-opacity: 1; stroke-width: 2px;"/></g><g class="legendsymbols"><g class="legendpoints"/></g></g><rect class="legendtoggle" pointer-events="all" x="0" y="-9.5" width="137.796875" height="19" style="cursor: pointer; fill: rgb(0, 0, 0); fill-opacity: 0;"/></g><g class="traces" transform="translate(0, 90.5)" style="opacity: 1;"><text class="legendtext user-select-none" text-anchor="start" x="40" y="4.680000000000001" style="font-family: 'Open Sans', verdana, arial, sans-serif; font-size: 12px; fill: rgb(242, 245, 250); fill-opacity: 1; white-space: pre;">Hidalgo, TX</text><g class="layers" style="opacity: 1;"><g class="legendfill"/><g class="legendlines"><path class="js-line" d="M5,0h30" style="fill: none; stroke: rgb(245, 130, 49); stroke-opacity: 1; stroke-width: 2px;"/></g><g class="legendsymbols"><g class="legendpoints"/></g></g><rect class="legendtoggle" pointer-events="all" x="0" y="-9.5" width="137.796875" height="19" style="cursor: pointer; fill: rgb(0, 0, 0); fill-opacity: 0;"/></g><g class="traces" transform="translate(0, 109.5)" style="opacity: 1;"><text class="legendtext user-select-none" text-anchor="start" x="40" y="4.680000000000001" style="font-family: 'Open Sans', verdana, arial, sans-serif; font-size: 12px; fill: rgb(242, 245, 250); fill-opacity: 1; white-space: pre;">Santa Clara, CA</text><g class="layers" style="opacity: 1;"><g class="legendfill"/><g class="legendlines"><path class="js-line" d="M5,0h30" style="fill: none; stroke: rgb(145, 30, 180); stroke-opacity: 1; stroke-width: 2px;"/></g><g class="legendsymbols"><g class="legendpoints"/></g></g><rect class="legendtoggle" pointer-events="all" x="0" y="-9.5" width="137.796875" height="19" style="cursor: pointer; fill: rgb(0, 0, 0); fill-opacity: 0;"/></g></g></g><rect class="scrollbar" rx="20" ry="3" width="0" height="0" x="0" y="0" style="fill: rgb(128, 139, 164); fill-opacity: 1;"/></g><g class="g-gtitle"/><g class="g-xtitle"><text class="xtitle" x="226.70000000000002" y="410.8" text-anchor="middle" style="font-family: 'Open Sans', verdana, arial, sans-serif; font-size: 14px; fill: rgb(242, 245, 250); opacity: 1; font-weight: normal; white-space: pre;">Date</text></g><g class="g-x2title"><text class="x2title" x="585.3" y="410.8" text-anchor="middle" style="font-family: 'Open Sans', verdana, arial, sans-serif; font-size: 14px; fill: rgb(242, 245, 250); opacity: 1; font-weight: normal; white-space: pre;">Date</text></g><g class="g-ytitle"><text class="ytitle" transform="rotate(-90,28.168750000000003,235)" x="28.168750000000003" y="235" text-anchor="middle" style="font-family: 'Open Sans', verdana, arial, sans-serif; font-size: 14px; fill: rgb(242, 245, 250); opacity: 1; font-weight: normal; white-space: pre;">Cases</text></g><g class="g-y2title"><text class="y2title" transform="rotate(-90,386.090625,235)" x="386.090625" y="235" text-anchor="middle" style="font-family: 'Open Sans', verdana, arial, sans-serif; font-size: 14px; fill: rgb(242, 245, 250); opacity: 1; font-weight: normal; white-space: pre;">Deaths</text></g><g class="annotation" data-index="0" style="opacity: 1;"><g class="annotation-text-g" transform="rotate(0,226.70000000000002,89.5)"><g class="cursor-pointer" transform="translate(202, 79)"><rect class="bg" x="0.5" y="0.5" width="48" height="20" style="stroke-width: 1px; stroke: rgb(0, 0, 0); stroke-opacity: 0; fill: rgb(0, 0, 0); fill-opacity: 0;"/><text class="annotation-text" text-anchor="middle" x="24.6875" y="16" style="font-family: 'Open Sans', verdana, arial, sans-serif; font-size: 16px; fill: rgb(242, 245, 250); fill-opacity: 1; white-space: pre;">Cases</text></g></g></g><g class="annotation" data-index="1" style="opacity: 1;"><g class="annotation-text-g" transform="rotate(0,585.3,89.5)"><g class="cursor-pointer" transform="translate(558, 79)"><rect class="bg" x="0.5" y="0.5" width="54" height="20" style="stroke-width: 1px; stroke: rgb(0, 0, 0); stroke-opacity: 0; fill: rgb(0, 0, 0); fill-opacity: 0;"/><text class="annotation-text" text-anchor="middle" x="27.359375" y="16" style="font-family: 'Open Sans', verdana, arial, sans-serif; font-size: 16px; fill: rgb(242, 245, 250); fill-opacity: 1; white-space: pre;">Deaths</text></g></g></g></g></svg>