<svg class="main-svg" xmlns="http://www.w3.org/2000/svg" xmlns:xlink="http://www.w3.org/1999/xlink" width="900" height="450" style="" viewBox="0 0 900 450"><rect x="0" y="0" width="900" height="450" style="fill: rgb(17, 17, 17); fill-opacity: 1;"/><defs id="defs-1c221e"><g class="clips"><clipPath id="clip1c221exyplot" class="plotclip"><rect width="296.55" height="270"/></clipPath><clipPath id="clip1c221ex2y2plot" class="plotclip"><rect width="296.54999999999995" height="270"/></clipPath><clipPath class="axesclip" id="clip1c221ex"><rect x="80" y="0" width="296.55" height="450"/></clipPath><clipPath class="axesclip" id="clip1c221ey"><rect x="0" y="100" width="900" height="270"/></clipPath><clipPath class="axesclip" id="clip1c221exy"><rect x="80" y="100" width="296.55" height="270"/></clipPath><clipPath class="axesclip" id="clip1c221ey2"><rect x="0" y="100" width="900" height="270"/></clipPath><clipPath class="axesclip" id="clip1c221exy2"><rect x="80" y="100" width="296.55" height="270"/></clipPath><clipPath class="axesclip" id="clip1c221ex2"><rect x="442.45000000000005" y="0" width="296.54999999999995" height="450"/></clipPath><clipPath class="axesclip" id="clip1c221ex2y"><rect x="442.45000000000005" y="100" width="296.54999999999995" height="270"/></clipPath><clipPath class="axesclip" id="clip1c221ex2y2"><rect x="442.45000000000005" y="100" width="296.54999999999995" height="270"/></clipPath></g><g class="gradients"/></defs><g class="bglayer"/><g class="layer-below"><g class="imagelayer"/><g class="shapelayer"/></g><g class="cartesianlayer"><g class="subplot xy"><g class="layer-subplot"><g class="shapelayer"/><g class="imagelayer"/></g><g class="gridlayer"><g class="x"><path class="xgrid crisp" transform="translate(127.21000000000001,0)" d="M0,100v270" style="stroke: rgb(40, 52, 66); stroke-opacity: 1; stroke-width: 1px;"/><path class="xgrid crisp" transform="translate(201.04000000000002,0)" d="M0,100v270" style="stroke: rgb(40, 52, 66); stroke-opacity: 1; stroke-width: 1px;"/><path class="xgrid crisp" transform="translate(274.88,0)" d="M0,100v270" style="stroke: rgb(40, 52, 66); stroke-opacity: 1; stroke-width: 1px;"/><path class="xgrid crisp" transform="translate(349.92,0)" d="M0,100v270" style="stroke: rgb(40, 52, 66); stroke-opacity: 1; stroke-width: 1px;"/></g><g class="y"><path class="ygrid crisp" transform="translate(0,314.38)" d="M80,0h296.55" style="stroke: rgb(40, 52, 66); stroke-opacity: 1; stroke-width: 1px;"/><path class="ygrid crisp" transform="translate(0,272.26)" d="M80,0h296.55" style="stroke: rgb(40, 52, 66); stroke-opacity: 1; stroke-width: 1px;"/><path class="ygrid crisp" transform="translate(0,230.15)" d="M80,0h296.55" style="stroke: rgb(40, 52, 66); stroke-opacity: 1; stroke-width: 1px;"/><path class="ygrid crisp" transform="translate(0,188.03)" d="M80,0h296.55" style="stroke: rgb(40, 52, 66); stroke-opacity: 1; stroke-width: 1px;"/><path class="ygrid crisp" transform="translate(0,145.91)" d="M80,0h296.55" style="stroke: rgb(40, 52, 66); stroke-opacity: 1; stroke-width: 1px;"/><path class="ygrid crisp" transform="translate(0,103.79)" d="M80,0h296.55" style="stroke: rgb(40, 52, 66); stroke-opacity: 1; stroke-width: 1px;"/></g></g><g class="zerolinelayer"><path class="yzl zl crisp" transform="translate(0,356.5)" d="M80,0h296.55" style="stroke: rgb(40, 52, 66); stroke-opacity: 1; stroke-width: 2px;"/></g><path class="xlines-below"/><path class="ylines-below"/><g class="overlines-below"/><g class="xaxislayer-below"/><g class="yaxislayer-below"/><g class="overaxes-below"/><g class="plot" transform="translate(80, 100)" clip-path="url('#clip1c221exyplot')"><g class="scatterlayer mlayer"><g class="trace scatter tracedafd95" style="stroke-miterlimit: 2; opacity: 1;"><g class="fills"/><g class="errorbars"/><g class="lines"><path class="js-line" d="M0,256.5L77.47,255.81L78.68,255.57L108.94,251.28L110.15,251.11L117.41,250.04L118.62,249.9L137.99,246.81L139.2,246.6L150.09,244.4L151.3,243.92L170.67,239.15L171.88,238.74L182.77,236.26L183.98,235.41L194.88,230.57L196.09,229.61L198.51,228.89L199.72,227.63L202.14,227.49L203.35,225.99L209.4,222.91L210.61,221.45L221.5,214.93L222.72,213.48L228.77,211.13L229.98,209.62L231.19,209.62L232.4,208.13L233.61,207.96L234.82,206.61L239.66,205.39L240.87,205.39L242.08,200.91L243.29,200.83L246.92,196.57L248.13,195.18L249.34,195.18L250.55,192.8L251.76,192.78L252.98,191.48L256.61,187.14L257.82,186.19L260.24,186.02L261.45,183.74L263.87,182.28L265.08,181.33L266.29,181.33L267.5,180.52L269.92,178.81L271.13,177.76L277.18,175L278.39,175L280.81,173.49L282.03,173.03L285.66,172.17L286.87,171.86L289.29,171.58L290.5,170.73L296.55,168.73" style="vector-effect: non-scaling-stroke; fill: none; stroke: rgb(230, 25, 75); stroke-opacity: 1; stroke-width: 2px; opacity: 1;"/></g><g class="points"/><g class="text"/></g><g class="trace scatter tracebe5482" style="stroke-miterlimit: 2; opacity: 1;"><g class="fills"/><g class="errorbars"/><g class="lines"><path class="js-line" d="M0,256.5L77.47,256.05L78.68,255.72L83.52,254.94L84.73,254.69L89.57,253.13L90.78,252.52L96.83,250.47L98.04,249.68L104.1,246.15L105.31,245.54L107.73,244.51L108.94,244.03L122.25,238.96L123.46,238.89L128.3,236.47L129.51,236.21L133.14,234.64L134.36,234.4L139.2,232.84L140.41,232.84L142.83,231.01L144.04,230.45L147.67,229.27L148.88,229.27L150.09,227L151.3,226.43L157.35,223.71L158.56,222.88L162.19,221.53L163.41,219.53L165.83,217.8L167.04,217.73L171.88,212.32L173.09,211.32L180.35,202.68L181.56,202.68L182.77,202.68L183.98,198.38L186.4,193.72L187.61,192.72L188.82,190.61L190.03,190.61L193.67,183.65L194.88,180.51L197.3,174.58L198.51,174.58L199.72,174.58L200.93,169.93L203.35,164.02L204.56,158.22L205.77,152.19L206.98,152.19L208.19,152.19L209.4,148.05L214.24,135.64L215.45,135.64L216.66,135.64L217.87,130.22L222.72,115.54L223.93,115.54L225.14,115.54L226.35,108.3L228.77,104.21L229.98,102.23L237.24,92.34L238.45,89.12L239.66,86.12L240.87,86.12L242.08,86.12L243.29,79.68L245.71,71.25L246.92,68.32L248.13,64.18L249.34,64.18L250.55,64.18L251.76,56.48L254.19,51.68L255.4,50.31L256.61,48.09L257.82,48.09L259.03,48.09L260.24,42.78L262.66,39.43L263.87,38.61L266.29,38.08L267.5,38.08L268.71,33.66L269.92,32.63L271.13,31.99L272.34,30.31L273.55,29.12L274.76,29.12L277.18,29.12L278.39,26.65L283.24,24.54L284.45,24.54L285.66,21.62L286.87,20.7L291.71,17.77L292.92,17.77L294.13,14.66L295.34,14.4L296.55,13.5" style="vector-effect: non-scaling-stroke; fill: none; stroke: rgb(60, 180, 75); stroke-opacity: 1; stroke-width: 2px; opacity: 1;"/></g><g class="points"/><g class="text"/></g><g class="trace scatter trace2ea9ed" style="stroke-miterlimit: 2; opacity: 1;"><g class="fills"/><g class="errorbars"/><g class="lines"><path class="js-line" d="M0,256.5L82.31,255.84L83.52,255.67L101.67,253.91L102.88,253.78L148.88,250.01L150.09,249.89L159.77,248.28L160.98,247.98L165.83,247.11L167.04,246.89L183.98,243.97L185.19,243.58L196.09,240.73L197.3,240.12L199.72,239.55L200.93,239.2L215.45,233.87L216.66,232.8L220.29,230.32L221.5,228.71L227.56,222.56L228.77,221.18L231.19,218.1L232.4,217.49L236.03,215.33L237.24,214.46L245.71,208.7L246.92,207.44L251.76,204.22L252.98,203.56L265.08,196.19L266.29,195.45L285.66,185.97L286.87,185.49L289.29,184.62L290.5,183.69L296.55,180.51" style="vector-effect: non-scaling-stroke; fill: none; stroke: rgb(255, 225, 25); stroke-opacity: 1; stroke-width: 2px; opacity: 1;"/></g><g class="points"/><g class="text"/></g><g class="trace scatter traceb0a440" style="stroke-miterlimit: 2; opacity: 1;"><g class="fills"/><g class="errorbars"/><g class="lines"><path class="js-line" d="M0,256.5L82.31,255.79L83.52,255.63L93.2,254.17L94.41,253.91L107.73,252.23L108.94,252.17L133.14,248.49L134.36,248.41L142.83,247.27L144.04,246.91L163.41,243.79L164.62,243.26L167.04,242.55L168.25,242.46L176.72,237.81L177.93,235.96L180.35,233.12L181.56,231.39L190.03,219.2L191.24,215.85L193.67,211.03L194.88,205.68L197.3,202.26L198.51,196.64L202.14,192.89L203.35,189.62L205.77,182.97L206.98,182.97L211.82,182.97L213.03,142.58L214.24,140.57L215.45,135.9L216.66,126.63L217.87,124.6L220.29,115.17L221.5,110.63L222.72,109.37L223.93,106.18L226.35,103.03L227.56,96.52L231.19,84.65L232.4,83.23L236.03,82.66L237.24,81.23L242.08,76.31L243.29,75.57L249.34,71.21L250.55,70.96L255.4,69.26L256.61,68.48L257.82,66.31L259.03,65.89L263.87,63.55L265.08,62.41L267.5,61.07L268.71,60.9L273.55,57.77L274.76,57.22L275.97,56.26L277.18,56.26L280.81,54.52L282.03,54.02L283.24,53.5L284.45,46.27L290.5,43.44L291.71,42.71L292.92,31.84L294.13,31.41L296.55,29.93" style="vector-effect: non-scaling-stroke; fill: none; stroke: rgb(67, 99, 216); stroke-opacity: 1; stroke-width: 2px; opacity: 1;"/></g><g class="points"/><g class="text"/></g><g class="trace scatter trace4084a8" style="stroke-miterlimit: 2; opacity: 1;"><g class="fills"/><g class="errorbars"/><g class="lines"><path class="js-line" d="M0,256.5L81.1,255.81L82.31,255.56L88.36,254.86L89.57,254.64L99.25,253.39L100.46,253.06L112.57,252.21L113.78,252.18L170.67,249.47L171.88,249.32L179.14,248.33L180.35,248.18L182.77,248.18L183.98,247.05L188.82,245.27L190.03,245.27L191.24,245.27L192.45,243.85L196.09,241.51L197.3,241.51L199.72,241.51L200.93,237.99L210.61,231.49L211.82,230.5L217.87,225.64L219.08,224.13L225.14,219L226.35,218.52L227.56,216.83L228.77,216.43L234.82,213.87L236.03,213.65L237.24,213.35L238.45,212.09L239.66,211.03L240.87,211.03L242.08,211.03L243.29,205.79L245.71,203.95L246.92,200.84L248.13,199.16L249.34,199.16L250.55,199.16L251.76,196.16L256.61,192.29L257.82,192.29L259.03,192.29L260.24,187.72L262.66,185.99L263.87,185.28L265.08,184.27L266.29,184.27L267.5,184.27L268.71,180.47L273.55,177.26L274.76,177.26L275.97,177.26L277.18,175.02L280.81,173.66L282.03,172L284.45,172L285.66,170.43L288.08,169.48L289.29,168.22L291.71,167.33L292.92,167.33L295.34,164.68L296.55,164.38" style="vector-effect: non-scaling-stroke; fill: none; stroke: rgb(245, 130, 49); stroke-opacity: 1; stroke-width: 2px; opacity: 1;"/></g><g class="points"/><g class="text"/></g><g class="trace scatter trace6c2f76" style="stroke-miterlimit: 2; opacity: 1;"><g class="fills"/><g class="errorbars"/><g class="lines"><path class="js-line" d="M0,256.5L85.94,255.75L87.15,255.72L106.52,254.74L107.73,254.62L160.98,252.25L162.19,252.19L169.46,250.99L170.67,250.65L180.35,248.39L181.56,247.33L185.19,245.72L186.4,244.95L190.03,243.47L191.24,243.47L192.45,242.64L193.67,240.26L194.88,240.02L196.09,238.4L198.51,237.66L199.72,237.66L200.93,237.66L202.14,232.91L206.98,230.05L208.19,230.05L209.4,227.07L210.61,226.11L214.24,223.57L215.45,223.57L216.66,223.57L217.87,221.45L221.5,215.11L222.72,213.85L225.14,213.85L226.35,211.54L231.19,208.14L232.4,208.14L233.61,208.14L234.82,206.44L242.08,204.68L243.29,202.32L244.5,198.08L245.71,197.43L248.13,194.79L249.34,194.79L250.55,194.79L251.76,193.29L256.61,190.7L257.82,190.7L259.03,190.7L260.24,188.56L261.45,186.82L262.66,186.52L266.29,185.27L267.5,185.27L268.71,182.81L269.92,182.29L273.55,180.27L274.76,180.27L278.39,179.83L279.6,178.73L284.45,177.79L285.66,174.94L288.08,173.85L289.29,173.52L292.92,173.14L294.13,172.93L296.55,172.01" style="vector-effect: non-scaling-stroke; fill: none; stroke: rgb(145, 30, 180); stroke-opacity: 1; stroke-width: 2px; opacity: 1;"/></g><g class="points"/><g class="text"/></g></g></g><g class="overplot"/><path class="xlines-above crisp" d="M0,0" style="fill: none;"/><path class="ylines-above crisp" d="M0,0" style="fill: none;"/><g class="overlines-above"/><g class="xaxislayer-above"><g class="xtick"><text text-anchor="middle" x="0" y="383" transform="translate(127.21000000000001,0)" style="font-family: 'Open Sans', verdana, arial, sans-serif; font-size: 12px; fill: rgb(242, 245, 250); fill-opacity: 1; white-space: pre;">Mar 2020</text></g><g class="xtick"><text text-anchor="middle" x="0" y="383" transform="translate(201.04000000000002,0)" style="font-family: 'Open Sans', verdana, arial, sans-serif; font-size: 12px; fill: rgb(242, 245, 250); fill-opacity: 1; white-space: pre;">May 2020</text></g><g class="xtick"><text text-anchor="middle" x="0" y="383" transform="translate(274.88,0)" style="font-family: 'Open Sans', verdana, arial, sans-serif; font-size: 12px; fill: rgb(242, 245, 250); fill-opacity: 1; white-space: pre;">Jul 2020</text></g><g class="xtick"><text text-anchor="middle" x="0" y="383" transform="translate(349.92,0)" style="font-family: 'Open Sans', verdana, arial, sans-serif; font-size: 12px; fill: rgb(242, 245, 250); fill-opacity: 1; white-space: pre;">Sep 2020</text></g></g><g class="yaxislayer-above"><g class="ytick"><text text-anchor="end" x="79" y="4.199999999999999" transform="translate(0,356.5)" style="font-family: 'Open Sans', verdana, arial, sans-serif; font-size: 12px; fill: rgb(242, 245, 250); fill-opacity: 1; white-space: pre;">0</text></g><g class="ytick"><text text-anchor="end" x="79" y="4.199999999999999" transform="translate(0,314.38)" style="font-family: 'Open Sans', verdana, arial, sans-serif; font-size: 12px; fill: rgb(242, 245, 250); fill-opacity: 1; white-space: pre;">10k</text></g><g class="ytick"><text text-anchor="end" x="79" y="4.199999999999999" transform="translate(0,272.26)" style="font-family: 'Open Sans', verdana, arial, sans-serif; font-size: 12px; fill: rgb(242, 245, 250); fill-opacity: 1; white-space: pre;">20k</text></g><g class="ytick"><text text-anchor="end" x="79" y="4.199999999999999" transform="translate(0,230.15)" style="font-family: 'Open Sans', verdana, arial, sans-serif; font-size: 12px; fill: rgb(242, 245, 250); fill-opacity: 1; white-space: pre;">30k</text></g><g class="ytick"><text text-anchor="end" x="79" y="4.199999999999999" transform="translate(0,188.03)" style="font-family: 'Open Sans', verdana, arial, sans-serif; font-size: 12px; fill: rgb(242, 245, 250); fill-opacity: 1; white-space: pre;">40k</text></g><g class="ytick"><text text-anchor="end" x="79" y="4.199999999999999" transform="translate(0,145.91)" style="font-family: 'Open Sans', verdana, arial, sans-serif; font-size: 12px; fill: rgb(242, 245, 250); fill-opacity: 1; white-space: pre;">50k</text></g><g class="ytick"><text text-anchor="end" x="79" y="4.199999999999999" transform="translate(0,103.79)" style="font-family: 'Open Sans', verdana, arial, sans-serif; font-size: 12px; fill: rgb(242, 245, 250); fill-opacity: 1; white-space: pre;">60k</text></g></g><g class="overaxes-above"/></g><g class="subplot x2y2"><g class="layer-subplot"><g class="shapelayer"/><g class="imagelayer"/></g><g class="gridlayer"><g class="x2"><path class="x2grid crisp" transform="translate(489.66,0)" d="M0,100v270" style="stroke: rgb(40, 52, 66); stroke-opacity: 1; stroke-width: 1px;"/><path class="x2grid crisp" transform="translate(563.49,0)" d="M0,100v270" style="stroke: rgb(40, 52, 66); stroke-opacity: 1; stroke-width: 1px;"/><path class="x2grid crisp" transform="translate(637.33,0)" d="M0,100v270" style="stroke: rgb(40, 52, 66); stroke-opacity: 1; stroke-width: 1px;"/><path class="x2grid crisp" transform="translate(712.3700000000001,0)" d="M0,100v270" style="stroke: rgb(40, 52, 66); stroke-opacity: 1; stroke-width: 1px;"/></g><g class="y2"><path class="y2grid crisp" transform="translate(0,318.05)" d="M442.45000000000005,0h296.54999999999995" style="stroke: rgb(40, 52, 66); stroke-opacity: 1; stroke-width: 1px;"/><path class="y2grid crisp" transform="translate(0,279.6)" d="M442.45000000000005,0h296.54999999999995" style="stroke: rgb(40, 52, 66); stroke-opacity: 1; stroke-width: 1px;"/><path class="y2grid crisp" transform="translate(0,241.15)" d="M442.45000000000005,0h296.54999999999995" style="stroke: rgb(40, 52, 66); stroke-opacity: 1; stroke-width: 1px;"/><path class="y2grid crisp" transform="translate(0,202.7)" d="M442.45000000000005,0h296.54999999999995" style="stroke: rgb(40, 52, 66); stroke-opacity: 1; stroke-width: 1px;"/><path class="y2grid crisp" transform="translate(0,164.25)" d="M442.45000000000005,0h296.54999999999995" style="stroke: rgb(40, 52, 66); stroke-opacity: 1; stroke-width: 1px;"/><path class="y2grid crisp" transform="translate(0,125.8)" d="M442.45000000000005,0h296.54999999999995" style="stroke: rgb(40, 52, 66); stroke-opacity: 1; stroke-width: 1px;"/></g></g><g class="zerolinelayer"><path class="y2zl zl crisp" transform="translate(0,356.5)" d="M442.45000000000005,0h296.54999999999995" style="stroke: rgb(40, 52, 66); stroke-opacity: 1; stroke-width: 2px;"/></g><path class="xlines-below"/><path class="ylines-below"/><g class="overlines-below"/><g class="xaxislayer-below"/><g class="yaxislayer-below"/><g class="overaxes-below"/><g class="plot" transform="translate(442.45000000000005, 100)" clip-path="url('#clip1c221ex2y2plot')"><g class="scatterlayer mlayer"><g class="trace scatter traced56be9" style="stroke-miterlimit: 2; opacity: 1;"><g class="fills"/><g class="errorbars"/><g class="lines"><path class="js-line" d="M0,256.5L76.26,256.12L77.47,255.73L83.52,255.15L84.73,254.96L96.83,252.46L98.04,252.08L100.46,252.08L101.67,249.58L105.31,248.62L106.52,248.43L110.15,247.85L111.36,247.66L122.25,244.39L123.46,244.39L127.09,243.81L128.3,243.62L130.72,242.85L131.93,242.85L134.36,242.27L135.57,241.89L139.2,240.54L140.41,240.54L142.83,239.97L144.04,239.58L148.88,238.62L150.09,238.62L158.56,238.04L159.77,237.85L162.19,237.85L163.41,237.08L168.25,236.89L169.46,236.31L171.88,235.55L173.09,235.55L175.51,234.97L176.72,234.97L179.14,234.01L180.35,233.81L185.19,233.43L186.4,233.05L188.82,231.51L190.03,231.51L193.67,230.55L194.88,230.35L199.72,229.59L200.93,229.59L203.35,229.2L204.56,228.43L210.61,227.28L211.82,226.89L213.03,226.89L214.24,225.55L217.87,225.36L219.08,224.39L222.72,222.28L223.93,222.28L228.77,221.7L229.98,221.51L231.19,221.51L232.4,220.17L236.03,219.59L237.24,219.4L240.87,219.4L242.08,217.09L244.5,217.09L245.71,215.74L248.13,214.4L249.34,214.4L259.03,211.51L260.24,211.51L262.66,209.78L263.87,209.59L266.29,209.02L267.5,207.09L269.92,207.09L271.13,203.82L272.34,199.79L273.55,199.59L275.97,199.02L277.18,198.83L280.81,198.25L282.03,194.98L283.24,194.98L284.45,192.67L285.66,192.48L286.87,188.06L288.08,188.06L289.29,186.33L291.71,184.6L292.92,184.6L294.13,184.6L295.34,181.52L296.55,180.56" style="vector-effect: non-scaling-stroke; fill: none; stroke: rgb(230, 25, 75); stroke-opacity: 1; stroke-width: 2px; opacity: 1;"/></g><g class="points"/><g class="text"/></g><g class="trace scatter trace97971d" style="stroke-miterlimit: 2; opacity: 1;"><g class="fills"/><g class="errorbars"/><g class="lines"><path class="js-line" d="M0,256.5L68.99,255.92L70.2,255.73L79.89,254.96L81.1,254.96L87.15,253.62L88.36,253.04L89.57,252.85L90.78,251.69L98.04,248.62L99.25,246.89L100.46,246.89L101.67,246.12L102.88,245.16L104.1,245.16L105.31,242.27L106.52,242.08L110.15,237.47L111.36,237.28L113.78,234.01L114.99,233.81L116.2,229.39L117.41,229.39L119.83,227.86L121.04,226.51L122.25,225.55L123.46,225.55L124.67,221.7L125.88,221.13L128.3,219.59L129.51,217.28L131.93,217.09L133.14,214.78L136.78,211.32L137.99,209.98L140.41,209.98L141.62,206.32L142.83,204.59L144.04,204.59L146.46,200.75L147.67,200.75L150.09,200.36L151.3,198.25L153.72,196.33L154.93,194.4L158.56,194.4L159.77,190.75L162.19,190.17L163.41,188.25L167.04,188.06L168.25,186.33L171.88,182.87L173.09,182.87L175.51,182.68L176.72,180.56L177.93,179.79L179.14,178.06L182.77,177.68L183.98,174.99L185.19,173.64L186.4,173.45L190.03,172.3L191.24,172.3L192.45,171.91L193.67,168.64L196.09,167.11L197.3,164.41L199.72,164.41L200.93,163.07L203.35,157.49L204.56,154.03L206.98,153.26L208.19,153.26L209.4,150.76L210.61,150.19L211.82,145.57L213.03,144.04L216.66,143.65L217.87,143.46L219.08,143.27L220.29,137.88L221.5,134.04L222.72,134.04L225.14,134.04L226.35,127.5L227.56,127.31L228.77,125.39L231.19,122.89L232.4,122.89L233.61,122.89L234.82,114.81L236.03,114.62L237.24,111.93L239.66,102.89L240.87,102.89L242.08,102.89L243.29,98.86L244.5,98.09L245.71,92.51L246.92,87.52L248.13,87.13L250.55,87.13L251.76,81.17L254.19,80.21L255.4,79.25L256.61,78.29L257.82,78.29L259.03,78.29L260.24,69.64L262.66,67.33L263.87,64.83L265.08,62.91L266.29,62.91L267.5,62.91L268.71,60.6L271.13,57.91L272.34,54.06L273.55,51.37L274.76,51.37L277.18,51.37L278.39,49.83L282.03,44.45L283.24,44.45L284.45,44.45L285.66,41.57L289.29,36.76L290.5,34.84L292.92,34.84L294.13,33.11L295.34,31.19L296.55,30.99" style="vector-effect: non-scaling-stroke; fill: none; stroke: rgb(60, 180, 75); stroke-opacity: 1; stroke-width: 2px; opacity: 1;"/></g><g class="points"/><g class="text"/></g><g class="trace scatter trace0cf923" style="stroke-miterlimit: 2; opacity: 1;"><g class="fills"/><g class="errorbars"/><g class="lines"><path class="js-line" d="M0,256.5L90.78,256.31L91.99,255.35L102.88,252.85L104.1,252.46L116.2,251.89L117.41,251.69L121.04,251.12L122.25,251.12L127.09,250.92L128.3,250.92L133.14,250.73L134.36,250.73L157.35,247.85L158.56,247.85L160.98,247.08L162.19,247.08L182.77,246.5L183.98,246.12L205.77,245.54L206.98,245.16L209.4,244.77L210.61,243.81L211.82,242.85L213.03,240.93L217.87,240.35L219.08,239.77L223.93,238.81L225.14,238.81L228.77,237.47L229.98,237.47L236.03,236.12L237.24,235.74L242.08,234.39L243.29,234.39L250.55,233.62L251.76,233.62L272.34,230.35L273.55,229.97L275.97,224.2L277.18,224.2L288.08,222.47L289.29,221.9L292.92,221.32L294.13,220.74L295.34,220.17L296.55,215.55" style="vector-effect: non-scaling-stroke; fill: none; stroke: rgb(255, 225, 25); stroke-opacity: 1; stroke-width: 2px; opacity: 1;"/></g><g class="points"/><g class="text"/></g><g class="trace scatter trace5a1f7d" style="stroke-miterlimit: 2; opacity: 1;"><g class="fills"/><g class="errorbars"/><g class="lines"><path class="js-line" d="M0,256.5L76.26,255.92L77.47,255.54L82.31,255.54L83.52,254.77L91.99,254.19L93.2,253.04L105.31,249.39L106.52,249.19L117.41,248.04L118.62,248.04L123.46,247.27L124.67,247.27L125.88,247.27L127.09,246.5L142.83,244.58L144.04,244.58L165.83,241.5L167.04,241.5L170.67,241.12L171.88,240.74L176.72,239.39L177.93,239.39L180.35,238.81L181.56,238.04L185.19,237.85L186.4,237.28L188.82,236.51L190.03,236.31L198.51,234.01L199.72,233.05L202.14,231.12L203.35,230.16L204.56,228.43L205.77,224.78L206.98,224.59L208.19,222.86L213.03,216.51L214.24,212.48L215.45,210.36L216.66,210.36L217.87,207.09L219.08,206.13L225.14,194.6L226.35,164.22L227.56,164.22L228.77,156.34L231.19,145.38L232.4,139.04L233.61,139.04L234.82,136.92L238.45,120.97L239.66,114.43L240.87,107.89L242.08,106.16L243.29,105.78L244.5,101.55L249.34,85.98L250.55,85.02L251.76,85.02L252.98,80.98L257.82,65.79L259.03,64.64L260.24,64.64L261.45,62.91L266.29,49.26L267.5,47.72L268.71,47.72L269.92,44.84L273.55,36.38L274.76,33.69L277.18,32.34L278.39,32.15L280.81,29.46L282.03,27.53L284.45,25.03L285.66,24.84L290.5,17.73L291.71,17.34L294.13,16.58L295.34,15.23L296.55,13.5" style="vector-effect: non-scaling-stroke; fill: none; stroke: rgb(67, 99, 216); stroke-opacity: 1; stroke-width: 2px; opacity: 1;"/></g><g class="points"/><g class="text"/></g><g class="trace scatter trace44c84b" style="stroke-miterlimit: 2; opacity: 1;"><g class="fills"/><g class="errorbars"/><g class="lines"><path class="js-line" d="M0,256.5L72.62,255.92L73.83,255.73L83.52,255.15L84.73,254.77L88.36,254.58L89.57,253.42L96.83,251.5L98.04,251.5L110.15,249.58L111.36,248.62L123.46,248.43L124.67,247.46L134.36,246.89L135.57,246.7L137.99,246.12L139.2,246.12L145.25,245.73L146.46,245.73L165.83,245.16L167.04,244.77L176.72,244.39L177.93,243.81L199.72,243.23L200.93,242.27L208.19,240.54L209.4,240.54L210.61,239.01L211.82,238.81L216.66,238.04L217.87,238.04L221.5,237.66L222.72,236.7L223.93,235.74L225.14,235.74L228.77,232.28L229.98,232.08L232.4,229.2L233.61,229.2L240.87,225.55L242.08,225.55L243.29,222.47L244.5,222.09L248.13,218.24L249.34,218.24L250.55,218.24L251.76,214.59L252.98,214.4L254.19,212.28L255.4,212.28L256.61,211.51L259.03,211.51L260.24,209.21L265.08,203.82L266.29,203.82L267.5,203.82L268.71,200.17L269.92,199.59L271.13,198.06L273.55,193.64L274.76,193.64L275.97,193.64L277.18,192.67L279.6,191.33L280.81,189.98L283.24,189.21L284.45,189.21L290.5,184.41L291.71,184.41L292.92,184.41L294.13,182.87L296.55,179.79" style="vector-effect: non-scaling-stroke; fill: none; stroke: rgb(245, 130, 49); stroke-opacity: 1; stroke-width: 2px; opacity: 1;"/></g><g class="points"/><g class="text"/></g><g class="trace scatter tracece7171" style="stroke-miterlimit: 2; opacity: 1;"><g class="fills"/><g class="errorbars"/><g class="lines"><path class="js-line" d="M0,256.5L77.47,255.92L78.68,255.73L82.31,255.35L83.52,254.96L90.78,254.39L91.99,254L101.67,253.23L102.88,253.23L110.15,252.66L111.36,252.27L114.99,251.69L116.2,251.69L130.72,251.12L131.93,250.92L141.62,250.35L142.83,250.16L163.41,249.58L164.62,249.39L169.46,248.81L170.67,248.43L182.77,247.85L183.98,247.27L187.61,247.08L188.82,246.5L200.93,245.93L202.14,245.35L205.77,243.43L206.98,243.43L209.4,243.04L210.61,242.47L211.82,242.47L213.03,240.93L216.66,240.54L217.87,238.43L220.29,237.66L221.5,235.93L223.93,235.35L225.14,235.35L226.35,233.81L227.56,230.93L231.19,224.2L232.4,224.2L233.61,224.2L234.82,221.9L236.03,221.9L237.24,220.55L238.45,219.59L239.66,215.94L242.08,215.94L243.29,213.63L245.71,210.55L246.92,209.4L248.13,206.32L249.34,206.32L250.55,206.32L251.76,204.79L254.19,201.33L255.4,201.13L256.61,199.98L257.82,199.98L262.66,199.4L263.87,198.06L266.29,197.48L267.5,197.48L268.71,193.44L269.92,193.06L273.55,185.75L274.76,185.75L277.18,185.75L278.39,184.02L280.81,182.87L282.03,182.87L284.45,182.87L285.66,181.72L288.08,179.79L289.29,178.26L290.5,176.91L291.71,176.91L294.13,176.72L295.34,175.56L296.55,173.06" style="vector-effect: non-scaling-stroke; fill: none; stroke: rgb(145, 30, 180); stroke-opacity: 1; stroke-width: 2px; opacity: 1;"/></g><g class="points"/><g class="text"/></g></g></g><g class="overplot"/><path class="xlines-above crisp" d="M0,0" style="fill: none;"/><path class="ylines-above crisp" d="M0,0" style="fill: none;"/><g class="overlines-above"/><g class="xaxislayer-above"><g class="x2tick"><text text-anchor="middle" x="0" y="383" transform="translate(489.66,0)" style="font-family: 'Open Sans', verdana, arial, sans-serif; font-size: 12px; fill: rgb(242, 245, 250); fill-opacity: 1; white-space: pre;">Mar 2020</text></g><g class="x2tick"><text text-anchor="middle" x="0" y="383" transform="translate(563.49,0)" style="font-family: 'Open Sans', verdana, arial, sans-serif; font-size: 12px; fill: rgb(242, 245, 250); fill-opacity: 1; white-space: pre;">May 2020</text></g><g class="x2tick"><text text-anchor="middle" x="0" y="383" transform="translate(637.33,0)" style="font-family: 'Open Sans', verdana, arial, sans-serif; font-size: 12px; fill: rgb(242, 245, 250); fill-opacity: 1; white-space: pre;">Jul 2020</text></g><g class="x2tick"><text text-anchor="middle" x="0" y="383" transform="translate(712.3700000000001,0)" style="font-family: 'Open Sans', verdana, arial, sans-serif; font-size: 12px; fill: rgb(242, 245, 250); fill-opacity: 1; white-space: pre;">Sep 2020</text></g></g><g class="yaxislayer-above"><g class="y2tick"><text text-anchor="end" x="441.45000000000005" y="4.199999999999999" transform="translate(0,356.5)" style="font-family: 'Open Sans', verdana, arial, sans-serif; font-size: 12px; fill: rgb(242, 245, 250); fill-opacity: 1; white-space: pre;">0</text></g><g class="y2tick"><text text-anchor="end" x="441.45000000000005" y="4.199999999999999" transform="translate(0,318.05)" style="font-family: 'Open Sans', verdana, arial, sans-serif; font-size: 12px; fill: rgb(242, 245, 250); fill-opacity: 1; white-space: pre;">200</text></g><g class="y2tick"><text text-anchor="end" x="441.45000000000005" y="4.199999999999999" transform="translate(0,279.6)" style="font-family: 'Open Sans', verdana, arial, sans-serif; font-size: 12px; fill: rgb(242, 245, 250); fill-opacity: 1; white-space: pre;">400</text></g><g class="y2tick"><text text-anchor="end" x="441.45000000000005" y="4.199999999999999" transform="translate(0,241.15)" style="font-family: 'Open Sans', verdana, arial, sans-serif; font-size: 12px; fill: rgb(242, 245, 250); fill-opacity: 1; white-space: pre;">600</text></g><g class="y2tick"><text text-anchor="end" x="441.45000000000005" y="4.199999999999999" transform="translate(0,202.7)" style="font-family: 'Open Sans', verdana, arial, sans-serif; font-size: 12px; fill: rgb(242, 245, 250); fill-opacity: 1; white-space: pre;">800</text></g><g class="y2tick"><text text-anchor="end" x="441.45000000000005" y="4.199999999999999" transform="translate(0,164.25)" style="font-family: 'Open Sans', verdana, arial, sans-serif; font-size: 12px; fill: rgb(242, 245, 250); fill-opacity: 1; white-space: pre;">1000</text></g><g class="y2tick"><text text-anchor="end" x="441.45000000000005" y="4.199999999999999" transform="translate(0,125.8)" style="font-family: 'Open Sans', verdana, arial, sans-serif; font-size: 12px; fill: rgb(242, 245, 250); fill-opacity: 1; white-space: pre;">1200</text></g></g><g class="overaxes-above"/></g></g><g class="polarlayer"/><g class="ternarylayer"/><g class="geolayer"/><g class="funnelarealayer"/><g class="pielayer"/><g class="treemaplayer"/><g class="sunburstlayer"/><g class="glimages"/><defs id="topdefs-1c221e"><g class="clips"/><clipPath id="legend1c221e"><rect width="136" height="124" x="0" y="0"/></clipPath></defs><g class="layer-above"><g class="imagelayer"/><g class="shapelayer"/></g><g class="infolayer"><g class="legend" pointer-events="all" transform="translate(752.1800000000001, 100)"><rect class="bg" shape-rendering="crispEdges" width="136" height="124" x="0" y="0" style="stroke: rgb(68, 68, 68); stroke-opacity: 1; fill: rgb(17, 17, 17); fill-opacity: 1; stroke-width: 0px;"/><g class="scrollbox" transform="translate(0, 0)" clip-path="url('#legend1c221e')"><g class="groups"><g class="traces" transform="translate(0, 14.5)" style="opacity: 1;"><text class="legendtext user-select-none" text-anchor="start" x="40" y="4.680000000000001" style="font-family: 'Open Sans', verdana, arial, sans-serif; font-size: 12px; fill: rgb(242, 245, 250); fill-opacity: 1; white-space: pre;">Alameda, CA</text><g class="layers" style="opacity: 1;"><g class="legendfill"/><g class="legendlines"><path class="js-line" d="M5,0h30" style="fill: none; stroke: rgb(230, 25, 75); stroke-opacity: 1; stroke-width: 2px;"/></g><g class="legendsymbols"><g class="legendpoints"/></g></g><rect class="legendtoggle" pointer-events="all" x="0" y="-9.5" width="130.0625" height="19" style="cursor: pointer; fill: rgb(0, 0, 0); fill-opacity: 0;"/></g><g class="traces" transform="translate(0, 33.5)" style="opacity: 1;"><text class="legendtext user-select-none" text-anchor="start" x="40" y="4.680000000000001" style="font-family: 'Open Sans', verdana, arial, sans-serif; font-size: 12px; fill: rgb(242, 245, 250); fill-opacity: 1; white-space: pre;">Riverside, CA</text><g class="layers" style="opacity: 1;"><g class="legendfill"/><g class="legendlines"><path class="js-line" d="M5,0h30" style="fill: none; stroke: rgb(60, 180, 75); stroke-opacity: 1; stroke-width: 2px;"/></g><g class="legendsymbols"><g class="legendpoints"/></g></g><rect class="legendtoggle" pointer-events="all" x="0" y="-9.5" width="130.0625" height="19" style="cursor: pointer; fill: rgb(0, 0, 0); fill-opacity: 0;"/></g><g class="traces" transform="translate(0, 52.5)" style="opacity: 1;"><text class="legendtext user-select-none" text-anchor="start" x="40" y="4.680000000000001" style="font-family: 'Open Sans', verdana, arial, sans-serif; font-size: 12px; fill: rgb(242, 245, 250); fill-opacity: 1; white-space: pre;">Jackson, MO</text><g class="layers" style="opacity: 1;"><g class="legendfill"/><g class="legendlines"><path class="js-line" d="M5,0h30" style="fill: none; stroke: rgb(255, 225, 25); stroke-opacity: 1; stroke-width: 2px;"/></g><g class="legendsymbols"><g class="legendpoints"/></g></g><rect class="legendtoggle" pointer-events="all" x="0" y="-9.5" width="130.0625" height="19" style="cursor: pointer; fill: rgb(0, 0, 0); fill-opacity: 0;"/></g><g class="traces" transform="translate(0, 71.5)" style="opacity: 1;"><text class="legendtext user-select-none" text-anchor="start" x="40" y="4.680000000000001" style="font-family: 'Open Sans', verdana, arial, sans-serif; font-size: 12px; fill: rgb(242, 245, 250); fill-opacity: 1; white-space: pre;">Bexar, TX</text><g class="layers" style="opacity: 1;"><g class="legendfill"/><g class="legendlines"><path class="js-line" d="M5,0h30" style="fill: none; stroke: rgb(67, 99, 216); stroke-opacity: 1; stroke-width: 2px;"/></g><g class="legendsymbols"><g class="legendpoints"/></g></g><rect class="legendtoggle" pointer-events="all" x="0" y="-9.5" width="130.0625" height="19" style="cursor: pointer; fill: rgb(0, 0, 0); fill-opacity: 0;"/></g><g class="traces" transform="translate(0, 90.5)" style="opacity: 1;"><text class="legendtext user-select-none" text-anchor="start" x="40" y="4.680000000000001" style="font-family: 'Open Sans', verdana, arial, sans-serif; font-size: 12px; fill: rgb(242, 245, 250); fill-opacity: 1; white-space: pre;">Sacramento, CA</text><g class="layers" style="opacity: 1;"><g class="legendfill"/><g class="legendlines"><path class="js-line" d="M5,0h30" style="fill: none; stroke: rgb(245, 130, 49); stroke-opacity: 1; stroke-width: 2px;"/></g><g class="legendsymbols"><g class="legendpoints"/></g></g><rect class="legendtoggle" pointer-events="all" x="0" y="-9.5" width="130.0625" height="19" style="cursor: pointer; fill: rgb(0, 0, 0); fill-opacity: 0;"/></g><g class="traces" transform="translate(0, 109.5)" style="opacity: 1;"><text class="legendtext user-select-none" text-anchor="start" x="40" y="4.680000000000001" style="font-family: 'Open Sans', verdana, arial, sans-serif; font-size: 12px; fill: rgb(242, 245, 250); fill-opacity: 1; white-space: pre;">San Joaquin, CA</text><g class="layers" style="opacity: 1;"><g class="legendfill"/><g class="legendlines"><path class="js-line" d="M5,0h30" style="fill: none; stroke: rgb(145, 30, 180); stroke-opacity: 1; stroke-width: 2px;"/></g><g class="legendsymbols"><g class="legendpoints"/></g></g><rect class="legendtoggle" pointer-events="all" x="0" y="-9.5" width="130.0625" height="19" style="cursor: pointer; fill: rgb(0, 0, 0); fill-opacity: 0;"/></g></g></g><rect class="scrollbar" rx="20" ry="3" width="0" height="0" x="0" y="0" style="fill: rgb(128, 139, 164); fill-opacity: 1;"/></g><g class="g-gtitle"/><g class="g-xtitle"><text class="xtitle" x="228.275" y="410.8" text-anchor="middle" style="font-family: 'Open Sans', verdana, arial, sans-serif; font-size: 14px; fill: rgb(242, 245, 250); opacity: 1; font-weight: normal; white-space: pre;">Date</text></g><g class="g-x2title"><text class="x2title" x="590.725" y="410.8" text-anchor="middle" style="font-family: 'Open Sans', verdana, arial, sans-serif; font-size: 14px; fill: rgb(242, 245, 250); opacity: 1; font-weight: normal; white-space: pre;">Date</text></g><g class="g-ytitle"><text class="ytitle" transform="rotate(-90,34.840625,235)" x="34.840625" y="235" text-anchor="middle" style="font-family: 'Open Sans', verdana, arial, sans-serif; font-size: 14px; fill: rgb(242, 245, 250); opacity: 1; font-weight: normal; white-space: pre;">Cases</text></g><g class="g-y2title"><text class="y2title" transform="rotate(-90,389.95,235)" x="389.95" y="235" text-anchor="middle" style="font-family: 'Open Sans', verdana, arial, sans-serif; font-size: 14px; fill: rgb(242, 245, 250); opacity: 1; font-weight: normal; white-space: pre;">Deaths</text></g><g class="annotation" data-index="0" style="opacity: 1;"><g class="annotation-text-g" transform="rotate(0,228.275,89.5)"><g class="cursor-pointer" transform="translate(204, 79)"><rect class="bg" x="0.5" y="0.5" width="48" height="20" style="stroke-width: 1px; stroke: rgb(0, 0, 0); stroke-opacity: 0; fill: rgb(0, 0, 0); fill-opacity: 0;"/><text class="annotation-text" text-anchor="middle" x="24.6875" y="16" style="font-family: 'Open Sans', verdana, arial, sans-serif; font-size: 16px; fill: rgb(242, 245, 250); fill-opacity: 1; white-space: pre;">Cases</text></g></g></g><g class="annotation" data-index="1" style="opacity: 1;"><g class="annotation-text-g" transform="rotate(0,590.725,89.5)"><g class="cursor-pointer" transform="translate(563, 79)"><rect class="bg" x="0.5" y="0.5" width="54" height="20" style="stroke-width: 1px; stroke: rgb(0, 0, 0); stroke-opacity: 0; fill: rgb(0, 0, 0); fill-opacity: 0;"/><text class="annotation-text" text-anchor="middle" x="27.359375" y="16" style="font-family: 'Open Sans', verdana, arial, sans-serif; font-size: 16px; fill: rgb(242, 245, 250); fill-opacity: 1; white-space: pre;">Deaths</text></g></g></g></g></svg>