<svg class="main-svg" xmlns="http://www.w3.org/2000/svg" xmlns:xlink="http://www.w3.org/1999/xlink" width="900" height="450" style="" viewBox="0 0 900 450"><rect x="0" y="0" width="900" height="450" style="fill: rgb(17, 17, 17); fill-opacity: 1;"/><defs id="defs-a76478"><g class="clips"><clipPath id="clipa76478xyplot" class="plotclip"><rect width="286.65000000000003" height="270"/></clipPath><clipPath id="clipa76478x2y2plot" class="plotclip"><rect width="286.65" height="270"/></clipPath><clipPath class="axesclip" id="clipa76478x"><rect x="80" y="0" width="286.65000000000003" height="450"/></clipPath><clipPath class="axesclip" id="clipa76478y"><rect x="0" y="100" width="900" height="270"/></clipPath><clipPath class="axesclip" id="clipa76478xy"><rect x="80" y="100" width="286.65000000000003" height="270"/></clipPath><clipPath class="axesclip" id="clipa76478y2"><rect x="0" y="100" width="900" height="270"/></clipPath><clipPath class="axesclip" id="clipa76478xy2"><rect x="80" y="100" width="286.65000000000003" height="270"/></clipPath><clipPath class="axesclip" id="clipa76478x2"><rect x="430.35" y="0" width="286.65" height="450"/></clipPath><clipPath class="axesclip" id="clipa76478x2y"><rect x="430.35" y="100" width="286.65" height="270"/></clipPath><clipPath class="axesclip" id="clipa76478x2y2"><rect x="430.35" y="100" width="286.65" height="270"/></clipPath></g><g class="gradients"/></defs><g class="bglayer"/><g class="layer-below"><g class="imagelayer"/><g class="shapelayer"/></g><g class="cartesianlayer"><g class="subplot xy"><g class="layer-subplot"><g class="shapelayer"/><g class="imagelayer"/></g><g class="gridlayer"><g class="x"><path class="xgrid crisp" transform="translate(118.82,0)" d="M0,100v270" style="stroke: rgb(40, 52, 66); stroke-opacity: 1; stroke-width: 1px;"/><path class="xgrid crisp" transform="translate(179.53,0)" d="M0,100v270" style="stroke: rgb(40, 52, 66); stroke-opacity: 1; stroke-width: 1px;"/><path class="xgrid crisp" transform="translate(240.25,0)" d="M0,100v270" style="stroke: rgb(40, 52, 66); stroke-opacity: 1; stroke-width: 1px;"/><path class="xgrid crisp" transform="translate(301.95,0)" d="M0,100v270" style="stroke: rgb(40, 52, 66); stroke-opacity: 1; stroke-width: 1px;"/><path class="xgrid crisp" transform="translate(362.67,0)" d="M0,100v270" style="stroke: rgb(40, 52, 66); stroke-opacity: 1; stroke-width: 1px;"/></g><g class="y"><path class="ygrid crisp" transform="translate(0,306.64)" d="M80,0h286.65000000000003" style="stroke: rgb(40, 52, 66); stroke-opacity: 1; stroke-width: 1px;"/><path class="ygrid crisp" transform="translate(0,256.78999999999996)" d="M80,0h286.65000000000003" style="stroke: rgb(40, 52, 66); stroke-opacity: 1; stroke-width: 1px;"/><path class="ygrid crisp" transform="translate(0,206.93)" d="M80,0h286.65000000000003" style="stroke: rgb(40, 52, 66); stroke-opacity: 1; stroke-width: 1px;"/><path class="ygrid crisp" transform="translate(0,157.07)" d="M80,0h286.65000000000003" style="stroke: rgb(40, 52, 66); stroke-opacity: 1; stroke-width: 1px;"/><path class="ygrid crisp" transform="translate(0,107.22)" d="M80,0h286.65000000000003" style="stroke: rgb(40, 52, 66); stroke-opacity: 1; stroke-width: 1px;"/></g></g><g class="zerolinelayer"><path class="yzl zl crisp" transform="translate(0,356.5)" d="M80,0h286.65000000000003" style="stroke: rgb(40, 52, 66); stroke-opacity: 1; stroke-width: 2px;"/></g><path class="xlines-below"/><path class="ylines-below"/><g class="overlines-below"/><g class="xaxislayer-below"/><g class="yaxislayer-below"/><g class="overaxes-below"/><g class="plot" transform="translate(80, 100)" clip-path="url('#clipa76478xyplot')"><g class="scatterlayer mlayer"><g class="trace scatter trace18bbac" style="stroke-miterlimit: 2; opacity: 1;"><g class="fills"/><g class="errorbars"/><g class="lines"><path class="js-line" d="M0,256.5L58.72,255.85L59.72,255.44L67.68,253.68L68.68,253.38L81.62,247.69L82.61,247.69L86.59,245.39L87.59,244.89L91.57,243.04L92.56,242.53L106.5,236.95L107.49,236.33L116.45,232L117.45,231.35L120.43,229.5L121.43,228.91L131.38,221.45L132.38,221.12L137.35,217.16L138.35,216.76L140.34,215.43L141.33,214.46L146.31,211.3L147.31,210.25L150.29,208.59L151.29,206.57L156.26,200.58L157.26,199.96L158.25,199.05L159.25,197.03L162.24,191.97L163.23,191.13L164.23,188.15L165.22,187.83L166.22,187.83L167.21,184.26L170.2,179.47L171.19,179.47L175.17,170.48L176.17,168.17L178.16,164.4L179.16,164.21L180.15,162.94L181.15,160.35L184.13,153.5L185.13,153.1L186.12,152.42L187.12,150.48L188.11,149.08L189.11,145.51L190.1,145.51L191.1,141.99L192.1,141.59L193.09,138.38L194.09,137.75L195.08,135.49L198.07,135.49L199.06,124.89L200.06,124.7L201.05,120.25L203.04,114.62L204.04,111.34L205.03,111.34L206.03,105.7L207.03,105.63L208.02,102.57L211.01,92.28L212,90.05L213.99,89.65L214.99,84.25L215.98,83.15L216.98,80.8L217.97,78.54L218.97,78.54L225.94,65.74L226.93,65.74L227.93,63.56L228.92,63.56L230.91,59.97L231.91,58.88L232.9,58.7L233.9,57.16L237.88,55.46L238.88,53.44L241.86,50.68L242.86,49.62L249.82,43.88L250.82,43.28L258.78,37.75L259.78,37.71L261.77,35.65L262.76,35.65L264.75,33.89L265.75,33.44L267.74,32.56L268.73,30.79L276.7,23.26L277.69,23.26L279.68,20.82L280.68,19.43L286.65,13.5" style="vector-effect: non-scaling-stroke; fill: none; stroke: rgb(230, 25, 75); stroke-opacity: 1; stroke-width: 2px; opacity: 1;"/></g><g class="points"/><g class="text"/></g><g class="trace scatter traceece85d" style="stroke-miterlimit: 2; opacity: 1;"><g class="fills"/><g class="errorbars"/><g class="lines"><path class="js-line" d="M0,256.5L74.65,255.8L75.64,255.74L177.17,254.99L178.16,254.95L266.74,252.5L267.74,252.41L280.68,251.18L281.67,250.99L286.65,250.02" style="vector-effect: non-scaling-stroke; fill: none; stroke: rgb(60, 180, 75); stroke-opacity: 1; stroke-width: 2px; opacity: 1;"/></g><g class="points"/><g class="text"/></g><g class="trace scatter trace1ce2c4" style="stroke-miterlimit: 2; opacity: 1;"><g class="fills"/><g class="errorbars"/><g class="lines"><path class="js-line" d="M0,256.5L242.86,255.75L243.85,255.72L286.65,253.88" style="vector-effect: non-scaling-stroke; fill: none; stroke: rgb(255, 225, 25); stroke-opacity: 1; stroke-width: 2px; opacity: 1;"/></g><g class="points"/><g class="text"/></g><g class="trace scatter trace34dc29" style="stroke-miterlimit: 2; opacity: 1;"><g class="fills"/><g class="errorbars"/><g class="lines"><path class="js-line" d="M0,256.5L73.65,255.78L74.65,255.73L95.55,254.37L96.55,254.31L116.45,252.64L117.45,252.55L131.38,251.11L132.38,251.04L149.3,249.31L150.29,249.19L163.23,246.5L164.23,246.38L168.21,245.36L169.2,244.91L174.18,242.13L175.17,241.45L183.14,237.03L184.13,235.77L190.1,232.07L191.1,231.95L197.07,228.3L198.07,227.86L205.03,224.62L206.03,224.01L215.98,220.35L216.98,220.01L234.89,215.76L235.89,215.66L246.84,213.66L247.83,213.63L264.75,210.35L265.75,210.02L272.72,208.58L273.71,208.41L279.68,207.19L280.68,206.92L286.65,205.21" style="vector-effect: non-scaling-stroke; fill: none; stroke: rgb(67, 99, 216); stroke-opacity: 1; stroke-width: 2px; opacity: 1;"/></g><g class="points"/><g class="text"/></g><g class="trace scatter traced51f56" style="stroke-miterlimit: 2; opacity: 1;"><g class="fills"/><g class="errorbars"/><g class="lines"><path class="js-line" d="M0,256.5L117.45,255.76L118.44,255.65L138.35,253.3L139.34,253.16L151.29,251.89L152.28,251.85L215.98,245.62L216.98,244.42L220.96,242.22L221.95,242.06L244.85,235.14L245.84,234.58L254.8,230.5L255.8,230.35L257.79,229.91L258.78,227.37L262.76,224.82L263.76,224.52L268.73,221.06L269.73,220.69L276.7,214.79L277.69,214.23L282.67,207.5L283.66,207.16L285.65,204.84L286.65,202.88" style="vector-effect: non-scaling-stroke; fill: none; stroke: rgb(245, 130, 49); stroke-opacity: 1; stroke-width: 2px; opacity: 1;"/></g><g class="points"/><g class="text"/></g><g class="trace scatter trace729324" style="stroke-miterlimit: 2; opacity: 1;"><g class="fills"/><g class="errorbars"/><g class="lines"><path class="js-line" d="M0,256.5L114.46,255.75L115.46,255.72L180.15,254.43L181.15,254.31L221.95,250.71L222.95,250.6L273.71,245.14L274.71,245.14L286.65,244.04" style="vector-effect: non-scaling-stroke; fill: none; stroke: rgb(145, 30, 180); stroke-opacity: 1; stroke-width: 2px; opacity: 1;"/></g><g class="points"/><g class="text"/></g></g></g><g class="overplot"/><path class="xlines-above crisp" d="M0,0" style="fill: none;"/><path class="ylines-above crisp" d="M0,0" style="fill: none;"/><g class="overlines-above"/><g class="xaxislayer-above"><g class="xtick"><text text-anchor="middle" x="0" y="383" transform="translate(118.82,0)" style="font-family: 'Open Sans', verdana, arial, sans-serif; font-size: 12px; fill: rgb(242, 245, 250); fill-opacity: 1; white-space: pre;">Mar 2020</text></g><g class="xtick"><text text-anchor="middle" x="0" y="383" transform="translate(179.53,0)" style="font-family: 'Open Sans', verdana, arial, sans-serif; font-size: 12px; fill: rgb(242, 245, 250); fill-opacity: 1; white-space: pre;">May 2020</text></g><g class="xtick"><text text-anchor="middle" x="0" y="383" transform="translate(240.25,0)" style="font-family: 'Open Sans', verdana, arial, sans-serif; font-size: 12px; fill: rgb(242, 245, 250); fill-opacity: 1; white-space: pre;">Jul 2020</text></g><g class="xtick"><text text-anchor="middle" x="0" y="383" transform="translate(301.95,0)" style="font-family: 'Open Sans', verdana, arial, sans-serif; font-size: 12px; fill: rgb(242, 245, 250); fill-opacity: 1; white-space: pre;">Sep 2020</text></g><g class="xtick"><text text-anchor="middle" x="0" y="383" transform="translate(362.67,0)" style="font-family: 'Open Sans', verdana, arial, sans-serif; font-size: 12px; fill: rgb(242, 245, 250); fill-opacity: 1; white-space: pre;">Nov 2020</text></g></g><g class="yaxislayer-above"><g class="ytick"><text text-anchor="end" x="79" y="4.199999999999999" transform="translate(0,356.5)" style="font-family: 'Open Sans', verdana, arial, sans-serif; font-size: 12px; fill: rgb(242, 245, 250); fill-opacity: 1; white-space: pre;">0</text></g><g class="ytick"><text text-anchor="end" x="79" y="4.199999999999999" transform="translate(0,306.64)" style="font-family: 'Open Sans', verdana, arial, sans-serif; font-size: 12px; fill: rgb(242, 245, 250); fill-opacity: 1; white-space: pre;">5k</text></g><g class="ytick"><text text-anchor="end" x="79" y="4.199999999999999" transform="translate(0,256.78999999999996)" style="font-family: 'Open Sans', verdana, arial, sans-serif; font-size: 12px; fill: rgb(242, 245, 250); fill-opacity: 1; white-space: pre;">10k</text></g><g class="ytick"><text text-anchor="end" x="79" y="4.199999999999999" transform="translate(0,206.93)" style="font-family: 'Open Sans', verdana, arial, sans-serif; font-size: 12px; fill: rgb(242, 245, 250); fill-opacity: 1; white-space: pre;">15k</text></g><g class="ytick"><text text-anchor="end" x="79" y="4.199999999999999" transform="translate(0,157.07)" style="font-family: 'Open Sans', verdana, arial, sans-serif; font-size: 12px; fill: rgb(242, 245, 250); fill-opacity: 1; white-space: pre;">20k</text></g><g class="ytick"><text text-anchor="end" x="79" y="4.199999999999999" transform="translate(0,107.22)" style="font-family: 'Open Sans', verdana, arial, sans-serif; font-size: 12px; fill: rgb(242, 245, 250); fill-opacity: 1; white-space: pre;">25k</text></g></g><g class="overaxes-above"/></g><g class="subplot x2y2"><g class="layer-subplot"><g class="shapelayer"/><g class="imagelayer"/></g><g class="gridlayer"><g class="x2"><path class="x2grid crisp" transform="translate(469.17,0)" d="M0,100v270" style="stroke: rgb(40, 52, 66); stroke-opacity: 1; stroke-width: 1px;"/><path class="x2grid crisp" transform="translate(529.88,0)" d="M0,100v270" style="stroke: rgb(40, 52, 66); stroke-opacity: 1; stroke-width: 1px;"/><path class="x2grid crisp" transform="translate(590.6,0)" d="M0,100v270" style="stroke: rgb(40, 52, 66); stroke-opacity: 1; stroke-width: 1px;"/><path class="x2grid crisp" transform="translate(652.3,0)" d="M0,100v270" style="stroke: rgb(40, 52, 66); stroke-opacity: 1; stroke-width: 1px;"/><path class="x2grid crisp" transform="translate(713.02,0)" d="M0,100v270" style="stroke: rgb(40, 52, 66); stroke-opacity: 1; stroke-width: 1px;"/></g><g class="y2"><path class="y2grid crisp" transform="translate(0,304.24)" d="M430.35,0h286.65" style="stroke: rgb(40, 52, 66); stroke-opacity: 1; stroke-width: 1px;"/><path class="y2grid crisp" transform="translate(0,251.98)" d="M430.35,0h286.65" style="stroke: rgb(40, 52, 66); stroke-opacity: 1; stroke-width: 1px;"/><path class="y2grid crisp" transform="translate(0,199.73000000000002)" d="M430.35,0h286.65" style="stroke: rgb(40, 52, 66); stroke-opacity: 1; stroke-width: 1px;"/><path class="y2grid crisp" transform="translate(0,147.47)" d="M430.35,0h286.65" style="stroke: rgb(40, 52, 66); stroke-opacity: 1; stroke-width: 1px;"/></g></g><g class="zerolinelayer"><path class="y2zl zl crisp" transform="translate(0,356.5)" d="M430.35,0h286.65" style="stroke: rgb(40, 52, 66); stroke-opacity: 1; stroke-width: 2px;"/></g><path class="xlines-below"/><path class="ylines-below"/><g class="overlines-below"/><g class="xaxislayer-below"/><g class="yaxislayer-below"/><g class="overaxes-below"/><g class="plot" transform="translate(430.35, 100)" clip-path="url('#clipa76478x2y2plot')"><g class="scatterlayer mlayer"><g class="trace scatter trace0a9fd2" style="stroke-miterlimit: 2; opacity: 1;"><g class="fills"/><g class="errorbars"/><g class="lines"><path class="js-line" d="M0,256.5L60.71,255.98L61.71,255.45L62.7,255.45L63.7,254.41L64.7,254.41L65.69,253.36L67.68,252.84L68.68,252.84L70.67,251.8L71.66,250.23L74.65,249.71L75.64,248.66L77.63,247.62L78.63,246.05L81.62,244.48L82.61,244.48L83.61,237.69L84.6,236.12L85.6,236.12L86.59,235.07L91.57,232.46L92.56,231.42L93.56,229.33L94.55,229.33L95.55,229.33L96.55,227.76L100.53,223.58L101.52,223.58L102.52,223.58L103.51,222.01L105.5,221.49L106.5,219.92L108.49,219.4L109.48,219.4L113.47,213.65L114.46,213.13L116.45,213.13L117.45,211.56L121.43,208.42L122.42,207.9L126.4,207.38L127.4,206.85L130.39,206.33L131.38,205.81L133.37,205.81L134.37,203.72L138.35,203.2L139.34,201.63L141.33,199.54L142.33,199.54L143.33,197.97L144.32,197.97L145.32,197.97L146.31,195.88L149.3,194.84L150.29,194.84L153.28,192.75L154.27,189.61L157.26,187L158.25,187L162.24,183.34L163.23,183.34L166.22,183.34L167.21,182.29L169.2,179.68L170.2,179.16L172.19,179.16L173.18,177.07L175.18,176.02L176.17,172.36L178.16,171.84L179.16,171.84L182.14,166.09L183.14,163.48L186.12,163.48L187.12,161.91L190.1,161.39L191.1,157.73L193.09,157.73L194.09,156.16L196.08,155.64L197.07,155.64L198.07,155.64L199.06,149.37L201.05,149.37L202.05,145.71L204.04,142.05L205.03,142.05L208.02,139.44L209.02,137.35L211.01,134.74L212,134.74L213.99,134.22L214.99,131.08L217.97,127.42L218.97,127.42L219.96,122.2L220.96,122.2L221.95,122.2L222.95,113.31L223.95,102.34L224.94,101.82L225.94,100.25L226.93,100.25L228.92,99.73L229.92,98.16L230.91,98.16L231.91,89.27L232.9,89.27L233.9,83L234.89,82.48L235.89,70.46L236.88,70.46L237.88,65.76L239.87,61.05L240.87,61.05L241.86,61.05L242.86,52.69L245.84,45.38L246.84,44.33L248.83,44.33L249.82,43.29L250.82,41.2L251.81,37.02L252.81,37.02L253.8,34.4L255.8,34.4L256.79,33.36L257.79,31.27L258.78,31.27L270.73,30.75L271.72,29.18L272.72,18.2L273.71,18.2L275.7,15.59L276.7,15.59L279.68,14.55L280.68,14.55L285.65,14.55L286.65,13.5" style="vector-effect: non-scaling-stroke; fill: none; stroke: rgb(230, 25, 75); stroke-opacity: 1; stroke-width: 2px; opacity: 1;"/></g><g class="points"/><g class="text"/></g><g class="trace scatter trace9030e6" style="stroke-miterlimit: 2; opacity: 1;"><g class="fills"/><g class="errorbars"/><g class="lines"><path class="js-line" d="M0,256.5L71.66,255.98L72.66,255.45L96.55,254.93L97.54,253.89L147.31,253.36L148.3,252.84L283.66,252.32L284.66,251.8L286.65,251.27" style="vector-effect: non-scaling-stroke; fill: none; stroke: rgb(60, 180, 75); stroke-opacity: 1; stroke-width: 2px; opacity: 1;"/></g><g class="points"/><g class="text"/></g><g class="trace scatter traced31e21" style="stroke-miterlimit: 2; opacity: 1;"><g class="fills"/><g class="errorbars"/><g class="lines"><path class="js-line" d="M0,256.5L267.74,255.98L268.73,255.45L285.65,254.93L286.65,254.41" style="vector-effect: non-scaling-stroke; fill: none; stroke: rgb(255, 225, 25); stroke-opacity: 1; stroke-width: 2px; opacity: 1;"/></g><g class="points"/><g class="text"/></g><g class="trace scatter tracec6ec61" style="stroke-miterlimit: 2; opacity: 1;"><g class="fills"/><g class="errorbars"/><g class="lines"><path class="js-line" d="M0,256.5L77.63,255.98L78.63,255.45L80.62,254.93L81.62,254.93L86.59,254.41L87.59,253.89L98.54,253.36L99.53,252.84L100.53,252.84L101.52,251.8L117.45,251.27L118.44,250.23L120.43,249.71L121.43,249.71L126.4,249.18L127.4,248.66L154.27,248.14L155.27,247.09L157.26,246.05L158.25,246.05L165.22,245.53L166.22,245L173.18,244.48L174.18,243.96L187.12,243.44L188.11,242.39L190.1,241.87L191.1,241.35L194.09,240.82L195.08,239.25L196.08,237.16L197.07,237.16L202.05,236.64L203.04,235.07L213,234.55L213.99,234.03L214.99,234.03L215.98,232.98L217.97,231.94L218.97,231.94L221.95,231.42L222.95,230.89L234.89,230.89L235.89,228.8L237.88,226.19L238.88,222.01L243.85,219.92L244.85,219.92L247.83,218.87L248.83,218.87L258.78,218.35L259.78,217.83L261.77,217.31L262.76,217.31L267.74,216.78L268.73,216.26L276.7,215.74L277.69,215.22L285.65,214.69L286.65,214.17" style="vector-effect: non-scaling-stroke; fill: none; stroke: rgb(67, 99, 216); stroke-opacity: 1; stroke-width: 2px; opacity: 1;"/></g><g class="points"/><g class="text"/></g><g class="trace scatter trace21e00b" style="stroke-miterlimit: 2; opacity: 1;"><g class="fills"/><g class="errorbars"/><g class="lines"><path class="js-line" d="M0,256.5L117.45,255.98L118.44,255.45L120.43,254.93L121.43,254.93L132.38,254.41L133.37,253.89L139.34,253.36L140.34,252.84L144.32,252.32L145.32,251.8L147.31,251.8L148.3,250.75L153.28,250.23L154.27,249.71L157.26,248.14L158.25,248.14L167.21,247.62L168.21,247.09L169.2,245.53L170.2,245.53L177.17,245L178.16,244.48L181.15,243.96L182.14,243.44L184.13,242.91L185.13,242.91L190.1,242.39L191.1,241.35L195.08,241.35L196.08,240.3L203.04,239.78L204.04,239.25L238.88,238.73L239.87,238.21L245.84,237.69L246.84,237.16L257.79,237.16L258.78,236.12L259.78,236.12L260.77,235.07L264.75,234.55L265.75,234.03L269.73,233.51L270.73,232.98L271.72,232.98L272.72,231.94L274.71,230.89L275.7,230.89L284.66,230.89L285.65,229.85L286.65,229.85" style="vector-effect: non-scaling-stroke; fill: none; stroke: rgb(245, 130, 49); stroke-opacity: 1; stroke-width: 2px; opacity: 1;"/></g><g class="points"/><g class="text"/></g><g class="trace scatter trace38bb47" style="stroke-miterlimit: 2; opacity: 1;"><g class="fills"/><g class="errorbars"/><g class="lines"><path class="js-line" d="M0,256.5L94.55,255.98L95.55,255.45L99.53,254.93L100.53,254.41L102.52,254.41L103.51,253.36L134.37,252.84L135.36,252.32L189.11,251.8L190.1,251.27L207.03,251.27L208.02,250.23L211.01,249.71L212,249.18L218.97,249.18L219.96,248.14L221.95,247.62L222.95,247.62L233.9,247.62L234.89,246.05L251.81,245.53L252.81,244.48L254.8,243.96L255.8,243.96L275.7,243.44L276.7,242.91L278.69,242.39L279.68,241.87L285.65,241.35L286.65,240.82" style="vector-effect: non-scaling-stroke; fill: none; stroke: rgb(145, 30, 180); stroke-opacity: 1; stroke-width: 2px; opacity: 1;"/></g><g class="points"/><g class="text"/></g></g></g><g class="overplot"/><path class="xlines-above crisp" d="M0,0" style="fill: none;"/><path class="ylines-above crisp" d="M0,0" style="fill: none;"/><g class="overlines-above"/><g class="xaxislayer-above"><g class="x2tick"><text text-anchor="middle" x="0" y="383" transform="translate(469.17,0)" style="font-family: 'Open Sans', verdana, arial, sans-serif; font-size: 12px; fill: rgb(242, 245, 250); fill-opacity: 1; white-space: pre;">Mar 2020</text></g><g class="x2tick"><text text-anchor="middle" x="0" y="383" transform="translate(529.88,0)" style="font-family: 'Open Sans', verdana, arial, sans-serif; font-size: 12px; fill: rgb(242, 245, 250); fill-opacity: 1; white-space: pre;">May 2020</text></g><g class="x2tick"><text text-anchor="middle" x="0" y="383" transform="translate(590.6,0)" style="font-family: 'Open Sans', verdana, arial, sans-serif; font-size: 12px; fill: rgb(242, 245, 250); fill-opacity: 1; white-space: pre;">Jul 2020</text></g><g class="x2tick"><text text-anchor="middle" x="0" y="383" transform="translate(652.3,0)" style="font-family: 'Open Sans', verdana, arial, sans-serif; font-size: 12px; fill: rgb(242, 245, 250); fill-opacity: 1; white-space: pre;">Sep 2020</text></g><g class="x2tick"><text text-anchor="middle" x="0" y="383" transform="translate(713.02,0)" style="font-family: 'Open Sans', verdana, arial, sans-serif; font-size: 12px; fill: rgb(242, 245, 250); fill-opacity: 1; white-space: pre;">Nov 2020</text></g></g><g class="yaxislayer-above"><g class="y2tick"><text text-anchor="end" x="429.35" y="4.199999999999999" transform="translate(0,356.5)" style="font-family: 'Open Sans', verdana, arial, sans-serif; font-size: 12px; fill: rgb(242, 245, 250); fill-opacity: 1; white-space: pre;">0</text></g><g class="y2tick"><text text-anchor="end" x="429.35" y="4.199999999999999" transform="translate(0,304.24)" style="font-family: 'Open Sans', verdana, arial, sans-serif; font-size: 12px; fill: rgb(242, 245, 250); fill-opacity: 1; white-space: pre;">100</text></g><g class="y2tick"><text text-anchor="end" x="429.35" y="4.199999999999999" transform="translate(0,251.98)" style="font-family: 'Open Sans', verdana, arial, sans-serif; font-size: 12px; fill: rgb(242, 245, 250); fill-opacity: 1; white-space: pre;">200</text></g><g class="y2tick"><text text-anchor="end" x="429.35" y="4.199999999999999" transform="translate(0,199.73000000000002)" style="font-family: 'Open Sans', verdana, arial, sans-serif; font-size: 12px; fill: rgb(242, 245, 250); fill-opacity: 1; white-space: pre;">300</text></g><g class="y2tick"><text text-anchor="end" x="429.35" y="4.199999999999999" transform="translate(0,147.47)" style="font-family: 'Open Sans', verdana, arial, sans-serif; font-size: 12px; fill: rgb(242, 245, 250); fill-opacity: 1; white-space: pre;">400</text></g></g><g class="overaxes-above"/></g></g><g class="polarlayer"/><g class="ternarylayer"/><g class="geolayer"/><g class="funnelarealayer"/><g class="pielayer"/><g class="treemaplayer"/><g class="sunburstlayer"/><g class="glimages"/><defs id="topdefs-a76478"><g class="clips"/><clipPath id="legenda76478"><rect width="158" height="124" x="0" y="0"/></clipPath></defs><g class="layer-above"><g class="imagelayer"/><g class="shapelayer"/></g><g class="infolayer"><g class="legend" pointer-events="all" transform="translate(729.74, 100)"><rect class="bg" shape-rendering="crispEdges" width="158" height="124" x="0" y="0" style="stroke: rgb(68, 68, 68); stroke-opacity: 1; fill: rgb(17, 17, 17); fill-opacity: 1; stroke-width: 0px;"/><g class="scrollbox" transform="translate(0, 0)" clip-path="url('#legenda76478')"><g class="groups"><g class="traces" transform="translate(0, 14.5)" style="opacity: 1;"><text class="legendtext user-select-none" text-anchor="start" x="40" y="4.680000000000001" style="font-family: 'Open Sans', verdana, arial, sans-serif; font-size: 12px; fill: rgb(242, 245, 250); fill-opacity: 1; white-space: pre;">Alameda, CA</text><g class="layers" style="opacity: 1;"><g class="legendfill"/><g class="legendlines"><path class="js-line" d="M5,0h30" style="fill: none; stroke: rgb(230, 25, 75); stroke-opacity: 1; stroke-width: 2px;"/></g><g class="legendsymbols"><g class="legendpoints"/></g></g><rect class="legendtoggle" pointer-events="all" x="0" y="-9.5" width="152.28125" height="19" style="cursor: pointer; fill: rgb(0, 0, 0); fill-opacity: 0;"/></g><g class="traces" transform="translate(0, 33.5)" style="opacity: 1;"><text class="legendtext user-select-none" text-anchor="start" x="40" y="4.680000000000001" style="font-family: 'Open Sans', verdana, arial, sans-serif; font-size: 12px; fill: rgb(242, 245, 250); fill-opacity: 1; white-space: pre;">Ripley, IN</text><g class="layers" style="opacity: 1;"><g class="legendfill"/><g class="legendlines"><path class="js-line" d="M5,0h30" style="fill: none; stroke: rgb(60, 180, 75); stroke-opacity: 1; stroke-width: 2px;"/></g><g class="legendsymbols"><g class="legendpoints"/></g></g><rect class="legendtoggle" pointer-events="all" x="0" y="-9.5" width="152.28125" height="19" style="cursor: pointer; fill: rgb(0, 0, 0); fill-opacity: 0;"/></g><g class="traces" transform="translate(0, 52.5)" style="opacity: 1;"><text class="legendtext user-select-none" text-anchor="start" x="40" y="4.680000000000001" style="font-family: 'Open Sans', verdana, arial, sans-serif; font-size: 12px; fill: rgb(242, 245, 250); fill-opacity: 1; white-space: pre;">Moody, SD</text><g class="layers" style="opacity: 1;"><g class="legendfill"/><g class="legendlines"><path class="js-line" d="M5,0h30" style="fill: none; stroke: rgb(255, 225, 25); stroke-opacity: 1; stroke-width: 2px;"/></g><g class="legendsymbols"><g class="legendpoints"/></g></g><rect class="legendtoggle" pointer-events="all" x="0" y="-9.5" width="152.28125" height="19" style="cursor: pointer; fill: rgb(0, 0, 0); fill-opacity: 0;"/></g><g class="traces" transform="translate(0, 71.5)" style="opacity: 1;"><text class="legendtext user-select-none" text-anchor="start" x="40" y="4.680000000000001" style="font-family: 'Open Sans', verdana, arial, sans-serif; font-size: 12px; fill: rgb(242, 245, 250); fill-opacity: 1; white-space: pre;">Chesapeake City, VA</text><g class="layers" style="opacity: 1;"><g class="legendfill"/><g class="legendlines"><path class="js-line" d="M5,0h30" style="fill: none; stroke: rgb(67, 99, 216); stroke-opacity: 1; stroke-width: 2px;"/></g><g class="legendsymbols"><g class="legendpoints"/></g></g><rect class="legendtoggle" pointer-events="all" x="0" y="-9.5" width="152.28125" height="19" style="cursor: pointer; fill: rgb(0, 0, 0); fill-opacity: 0;"/></g><g class="traces" transform="translate(0, 90.5)" style="opacity: 1;"><text class="legendtext user-select-none" text-anchor="start" x="40" y="4.680000000000001" style="font-family: 'Open Sans', verdana, arial, sans-serif; font-size: 12px; fill: rgb(242, 245, 250); fill-opacity: 1; white-space: pre;">Pennington, SD</text><g class="layers" style="opacity: 1;"><g class="legendfill"/><g class="legendlines"><path class="js-line" d="M5,0h30" style="fill: none; stroke: rgb(245, 130, 49); stroke-opacity: 1; stroke-width: 2px;"/></g><g class="legendsymbols"><g class="legendpoints"/></g></g><rect class="legendtoggle" pointer-events="all" x="0" y="-9.5" width="152.28125" height="19" style="cursor: pointer; fill: rgb(0, 0, 0); fill-opacity: 0;"/></g><g class="traces" transform="translate(0, 109.5)" style="opacity: 1;"><text class="legendtext user-select-none" text-anchor="start" x="40" y="4.680000000000001" style="font-family: 'Open Sans', verdana, arial, sans-serif; font-size: 12px; fill: rgb(242, 245, 250); fill-opacity: 1; white-space: pre;">Itawamba, MS</text><g class="layers" style="opacity: 1;"><g class="legendfill"/><g class="legendlines"><path class="js-line" d="M5,0h30" style="fill: none; stroke: rgb(145, 30, 180); stroke-opacity: 1; stroke-width: 2px;"/></g><g class="legendsymbols"><g class="legendpoints"/></g></g><rect class="legendtoggle" pointer-events="all" x="0" y="-9.5" width="152.28125" height="19" style="cursor: pointer; fill: rgb(0, 0, 0); fill-opacity: 0;"/></g></g></g><rect class="scrollbar" rx="20" ry="3" width="0" height="0" x="0" y="0" style="fill: rgb(128, 139, 164); fill-opacity: 1;"/></g><g class="g-gtitle"/><g class="g-xtitle"><text class="xtitle" x="223.32500000000002" y="410.8" text-anchor="middle" style="font-family: 'Open Sans', verdana, arial, sans-serif; font-size: 14px; fill: rgb(242, 245, 250); opacity: 1; font-weight: normal; white-space: pre;">Date</text></g><g class="g-x2title"><text class="x2title" x="573.675" y="410.8" text-anchor="middle" style="font-family: 'Open Sans', verdana, arial, sans-serif; font-size: 14px; fill: rgb(242, 245, 250); opacity: 1; font-weight: normal; white-space: pre;">Date</text></g><g class="g-ytitle"><text class="ytitle" transform="rotate(-90,34.840625,235)" x="34.840625" y="235" text-anchor="middle" style="font-family: 'Open Sans', verdana, arial, sans-serif; font-size: 14px; fill: rgb(242, 245, 250); opacity: 1; font-weight: normal; white-space: pre;">Cases</text></g><g class="g-y2title"><text class="y2title" transform="rotate(-90,384.528125,235)" x="384.528125" y="235" text-anchor="middle" style="font-family: 'Open Sans', verdana, arial, sans-serif; font-size: 14px; fill: rgb(242, 245, 250); opacity: 1; font-weight: normal; white-space: pre;">Deaths</text></g><g class="annotation" data-index="0" style="opacity: 1;"><g class="annotation-text-g" transform="rotate(0,223.32500000000002,89.5)"><g class="cursor-pointer" transform="translate(199, 79)"><rect class="bg" x="0.5" y="0.5" width="48" height="20" style="stroke-width: 1px; stroke: rgb(0, 0, 0); stroke-opacity: 0; fill: rgb(0, 0, 0); fill-opacity: 0;"/><text class="annotation-text" text-anchor="middle" x="24.6875" y="16" style="font-family: 'Open Sans', verdana, arial, sans-serif; font-size: 16px; fill: rgb(242, 245, 250); fill-opacity: 1; white-space: pre;">Cases</text></g></g></g><g class="annotation" data-index="1" style="opacity: 1;"><g class="annotation-text-g" transform="rotate(0,573.675,89.5)"><g class="cursor-pointer" transform="translate(546, 79)"><rect class="bg" x="0.5" y="0.5" width="54" height="20" style="stroke-width: 1px; stroke: rgb(0, 0, 0); stroke-opacity: 0; fill: rgb(0, 0, 0); fill-opacity: 0;"/><text class="annotation-text" text-anchor="middle" x="27.359375" y="16" style="font-family: 'Open Sans', verdana, arial, sans-serif; font-size: 16px; fill: rgb(242, 245, 250); fill-opacity: 1; white-space: pre;">Deaths</text></g></g></g></g></svg>