<svg class="main-svg" xmlns="http://www.w3.org/2000/svg" xmlns:xlink="http://www.w3.org/1999/xlink" width="900" height="450" style="" viewBox="0 0 900 450"><rect x="0" y="0" width="900" height="450" style="fill: rgb(17, 17, 17); fill-opacity: 1;"/><defs id="defs-aa83fb"><g class="clips"><clipPath id="clipaa83fbxyplot" class="plotclip"><rect width="302.85" height="270"/></clipPath><clipPath id="clipaa83fbx2y2plot" class="plotclip"><rect width="302.84999999999997" height="270"/></clipPath><clipPath class="axesclip" id="clipaa83fbx"><rect x="80" y="0" width="302.85" height="450"/></clipPath><clipPath class="axesclip" id="clipaa83fby"><rect x="0" y="100" width="900" height="270"/></clipPath><clipPath class="axesclip" id="clipaa83fbxy"><rect x="80" y="100" width="302.85" height="270"/></clipPath><clipPath class="axesclip" id="clipaa83fby2"><rect x="0" y="100" width="900" height="270"/></clipPath><clipPath class="axesclip" id="clipaa83fbxy2"><rect x="80" y="100" width="302.85" height="270"/></clipPath><clipPath class="axesclip" id="clipaa83fbx2"><rect x="450.15000000000003" y="0" width="302.84999999999997" height="450"/></clipPath><clipPath class="axesclip" id="clipaa83fbx2y"><rect x="450.15000000000003" y="100" width="302.84999999999997" height="270"/></clipPath><clipPath class="axesclip" id="clipaa83fbx2y2"><rect x="450.15000000000003" y="100" width="302.84999999999997" height="270"/></clipPath></g><g class="gradients"/></defs><g class="bglayer"/><g class="layer-below"><g class="imagelayer"/><g class="shapelayer"/></g><g class="cartesianlayer"><g class="subplot xy"><g class="layer-subplot"><g class="shapelayer"/><g class="imagelayer"/></g><g class="gridlayer"><g class="x"><path class="xgrid crisp" transform="translate(119.9,0)" d="M0,100v270" style="stroke: rgb(40, 52, 66); stroke-opacity: 1; stroke-width: 1px;"/><path class="xgrid crisp" transform="translate(182.31,0)" d="M0,100v270" style="stroke: rgb(40, 52, 66); stroke-opacity: 1; stroke-width: 1px;"/><path class="xgrid crisp" transform="translate(244.73,0)" d="M0,100v270" style="stroke: rgb(40, 52, 66); stroke-opacity: 1; stroke-width: 1px;"/><path class="xgrid crisp" transform="translate(308.15999999999997,0)" d="M0,100v270" style="stroke: rgb(40, 52, 66); stroke-opacity: 1; stroke-width: 1px;"/><path class="xgrid crisp" transform="translate(370.57,0)" d="M0,100v270" style="stroke: rgb(40, 52, 66); stroke-opacity: 1; stroke-width: 1px;"/></g><g class="y"><path class="ygrid crisp" transform="translate(0,317.1)" d="M80,0h302.85" style="stroke: rgb(40, 52, 66); stroke-opacity: 1; stroke-width: 1px;"/><path class="ygrid crisp" transform="translate(0,277.7)" d="M80,0h302.85" style="stroke: rgb(40, 52, 66); stroke-opacity: 1; stroke-width: 1px;"/><path class="ygrid crisp" transform="translate(0,238.3)" d="M80,0h302.85" style="stroke: rgb(40, 52, 66); stroke-opacity: 1; stroke-width: 1px;"/><path class="ygrid crisp" transform="translate(0,198.89)" d="M80,0h302.85" style="stroke: rgb(40, 52, 66); stroke-opacity: 1; stroke-width: 1px;"/><path class="ygrid crisp" transform="translate(0,159.49)" d="M80,0h302.85" style="stroke: rgb(40, 52, 66); stroke-opacity: 1; stroke-width: 1px;"/><path class="ygrid crisp" transform="translate(0,120.09)" d="M80,0h302.85" style="stroke: rgb(40, 52, 66); stroke-opacity: 1; stroke-width: 1px;"/></g></g><g class="zerolinelayer"><path class="yzl zl crisp" transform="translate(0,356.5)" d="M80,0h302.85" style="stroke: rgb(40, 52, 66); stroke-opacity: 1; stroke-width: 2px;"/></g><path class="xlines-below"/><path class="ylines-below"/><g class="overlines-below"/><g class="xaxislayer-below"/><g class="yaxislayer-below"/><g class="overaxes-below"/><g class="plot" transform="translate(80, 100)" clip-path="url('#clipaa83fbxyplot')"><g class="scatterlayer mlayer"><g class="trace scatter trace25dde5" style="stroke-miterlimit: 2; opacity: 1;"><g class="fills"/><g class="errorbars"/><g class="lines"><path class="js-line" d="M0,256.5L65.48,255.86L66.5,255.63L93.11,251.46L94.13,251.18L129.94,244.3L130.96,243.91L141.19,240.96L142.22,240.8L150.4,238.64L151.42,238.23L155.52,236.77L156.54,236.25L164.73,232.24L165.75,231.35L167.8,230.67L168.82,229.49L170.86,229.36L171.89,227.95L177,225.07L178.03,223.71L187.23,217.61L188.26,216.26L193.37,214.05L194.4,212.64L195.42,212.64L196.44,211.25L197.47,211.09L198.49,209.83L203.61,208.68L204.63,204.49L205.65,204.42L206.67,202.66L208.72,200.44L209.74,199.14L210.77,199.14L211.79,196.91L212.81,196.89L213.84,195.68L216.91,191.61L217.93,190.73L219.98,190.57L221,188.43L223.04,187.07L224.07,186.18L225.09,186.18L226.11,185.42L229.18,182.84L230.21,182.22L240.44,177.73L241.46,177.61L248.62,175.17L249.65,174.75L261.92,170.97L262.95,170.82L278.29,166.64L279.32,166.14L287.5,163.37L288.53,162.82L296.71,159.32L297.73,158.58L302.85,155.64" style="vector-effect: non-scaling-stroke; fill: none; stroke: rgb(230, 25, 75); stroke-opacity: 1; stroke-width: 2px; opacity: 1;"/></g><g class="points"/><g class="text"/></g><g class="trace scatter traceb9f75d" style="stroke-miterlimit: 2; opacity: 1;"><g class="fills"/><g class="errorbars"/><g class="lines"><path class="js-line" d="M0,256.5L69.57,255.75L70.6,255.7L84.92,254.18L85.94,253.93L94.13,252.66L95.15,252.66L99.24,252.66L100.27,250.07L105.38,247.45L106.41,246.57L113.57,240.61L114.59,240.02L116.64,238.08L117.66,237.08L133.01,223.43L134.03,222.95L137.1,221.56L138.12,220.65L143.24,218.38L144.26,217.83L154.49,213.83L155.52,213.47L160.63,211.52L161.66,210.97L171.89,206.45L172.91,205.8L188.26,194.21L189.28,193.19L195.42,188.27L196.44,187.36L205.65,179.78L206.67,179.4L209.74,177.45L210.77,176.71L213.84,174.85L214.86,174.34L227.14,165.35L228.16,165.05L235.32,160.42L236.35,160.4L238.39,160.37L239.42,159.53L243.51,157.63L244.53,156.96L259.88,145.55L260.9,144.44L270.11,136.5L271.13,135.55L272.16,135.55L273.18,132.5L274.2,132.5L275.23,130.46L276.25,130.46L277.27,128.27L279.32,128.27L280.34,125.25L281.36,123.64L282.39,123.64L285.46,118.64L286.48,116.69L289.55,110.97L290.57,108.69L291.6,105.7L292.62,105.7L295.69,96.69L296.71,93.24L300.8,73.07L301.83,73.07L302.85,69.21" style="vector-effect: non-scaling-stroke; fill: none; stroke: rgb(60, 180, 75); stroke-opacity: 1; stroke-width: 2px; opacity: 1;"/></g><g class="points"/><g class="text"/></g><g class="trace scatter traced77ede" style="stroke-miterlimit: 2; opacity: 1;"><g class="fills"/><g class="errorbars"/><g class="lines"><path class="js-line" d="M0,256.5L82.87,255.76L83.9,255.74L177,253.44L178.03,253.43L255.79,251.93L256.81,251.87L275.23,250.41L276.25,250.14L284.43,248.92L285.46,248.72L302.85,245.62" style="vector-effect: non-scaling-stroke; fill: none; stroke: rgb(255, 225, 25); stroke-opacity: 1; stroke-width: 2px; opacity: 1;"/></g><g class="points"/><g class="text"/></g><g class="trace scatter traced2d698" style="stroke-miterlimit: 2; opacity: 1;"><g class="fills"/><g class="errorbars"/><g class="lines"><path class="js-line" d="M0,256.5L166.77,255.76L167.8,255.71L246.58,252.17L247.6,251.98L256.81,250.34L257.83,249.99L271.13,245.21L272.16,244.39L275.23,243.25L276.25,243.25L280.34,240.25L281.36,239.55L299.78,226.58L300.8,225.61L302.85,223.81" style="vector-effect: non-scaling-stroke; fill: none; stroke: rgb(67, 99, 216); stroke-opacity: 1; stroke-width: 2px; opacity: 1;"/></g><g class="points"/><g class="text"/></g><g class="trace scatter trace92b551" style="stroke-miterlimit: 2; opacity: 1;"><g class="fills"/><g class="errorbars"/><g class="lines"><path class="js-line" d="M0,256.5L65.48,255.79L66.5,255.63L94.13,249.06L95.15,248.72L121.75,240.25L122.78,239.88L133.01,236.82L134.03,235.46L142.22,231.2L143.24,230.53L150.4,225.73L151.42,224.43L159.61,216.7L160.63,215.46L164.73,211.44L165.75,210.29L169.84,206.23L170.86,205.3L177,197.91L178.03,197.07L180.07,196.19L181.1,193.9L186.21,189.03L187.23,188.13L190.3,185.22L191.33,184.47L201.56,177.37L202.58,176.57L228.16,161.52L229.18,160.95L236.35,157.03L237.37,156.61L245.55,148.33L246.58,146.8L252.72,138.39L253.74,136.89L256.81,133L257.83,131.6L258.85,130.34L259.88,130.34L261.92,124.12L262.95,122.26L264.99,119.05L266.02,116.88L268.06,112.47L269.09,112.47L271.13,107.48L272.16,105.32L281.36,84.52L282.39,84.52L284.43,77.19L285.46,75.38L293.64,51.67L294.66,47.09L301.83,16.71L302.85,13.5" style="vector-effect: non-scaling-stroke; fill: none; stroke: rgb(245, 130, 49); stroke-opacity: 1; stroke-width: 2px; opacity: 1;"/></g><g class="points"/><g class="text"/></g><g class="trace scatter traceee6398" style="stroke-miterlimit: 2; opacity: 1;"><g class="fills"/><g class="errorbars"/><g class="lines"><path class="js-line" d="M0,256.5L119.71,255.76L120.73,255.74L156.54,255.01L157.56,254.96L170.86,253.16L171.89,252.17L189.28,248.2L190.3,248.2L195.42,247.47L196.44,247.4L202.58,246.77L203.61,246.56L208.72,246L209.74,245.79L238.39,242.82L239.42,242.77L248.62,242.24L249.65,241.97L283.41,239.49L284.43,239.02L290.57,238.25L291.6,238.25L302.85,236.19" style="vector-effect: non-scaling-stroke; fill: none; stroke: rgb(145, 30, 180); stroke-opacity: 1; stroke-width: 2px; opacity: 1;"/></g><g class="points"/><g class="text"/></g></g></g><g class="overplot"/><path class="xlines-above crisp" d="M0,0" style="fill: none;"/><path class="ylines-above crisp" d="M0,0" style="fill: none;"/><g class="overlines-above"/><g class="xaxislayer-above"><g class="xtick"><text text-anchor="middle" x="0" y="383" transform="translate(119.9,0)" style="font-family: 'Open Sans', verdana, arial, sans-serif; font-size: 12px; fill: rgb(242, 245, 250); fill-opacity: 1; white-space: pre;">Mar 2020</text></g><g class="xtick"><text text-anchor="middle" x="0" y="383" transform="translate(182.31,0)" style="font-family: 'Open Sans', verdana, arial, sans-serif; font-size: 12px; fill: rgb(242, 245, 250); fill-opacity: 1; white-space: pre;">May 2020</text></g><g class="xtick"><text text-anchor="middle" x="0" y="383" transform="translate(244.73,0)" style="font-family: 'Open Sans', verdana, arial, sans-serif; font-size: 12px; fill: rgb(242, 245, 250); fill-opacity: 1; white-space: pre;">Jul 2020</text></g><g class="xtick"><text text-anchor="middle" x="0" y="383" transform="translate(308.15999999999997,0)" style="font-family: 'Open Sans', verdana, arial, sans-serif; font-size: 12px; fill: rgb(242, 245, 250); fill-opacity: 1; white-space: pre;">Sep 2020</text></g><g class="xtick"><text text-anchor="middle" x="0" y="383" transform="translate(370.57,0)" style="font-family: 'Open Sans', verdana, arial, sans-serif; font-size: 12px; fill: rgb(242, 245, 250); fill-opacity: 1; white-space: pre;">Nov 2020</text></g></g><g class="yaxislayer-above"><g class="ytick"><text text-anchor="end" x="79" y="4.199999999999999" transform="translate(0,356.5)" style="font-family: 'Open Sans', verdana, arial, sans-serif; font-size: 12px; fill: rgb(242, 245, 250); fill-opacity: 1; white-space: pre;">0</text></g><g class="ytick"><text text-anchor="end" x="79" y="4.199999999999999" transform="translate(0,317.1)" style="font-family: 'Open Sans', verdana, arial, sans-serif; font-size: 12px; fill: rgb(242, 245, 250); fill-opacity: 1; white-space: pre;">10k</text></g><g class="ytick"><text text-anchor="end" x="79" y="4.199999999999999" transform="translate(0,277.7)" style="font-family: 'Open Sans', verdana, arial, sans-serif; font-size: 12px; fill: rgb(242, 245, 250); fill-opacity: 1; white-space: pre;">20k</text></g><g class="ytick"><text text-anchor="end" x="79" y="4.199999999999999" transform="translate(0,238.3)" style="font-family: 'Open Sans', verdana, arial, sans-serif; font-size: 12px; fill: rgb(242, 245, 250); fill-opacity: 1; white-space: pre;">30k</text></g><g class="ytick"><text text-anchor="end" x="79" y="4.199999999999999" transform="translate(0,198.89)" style="font-family: 'Open Sans', verdana, arial, sans-serif; font-size: 12px; fill: rgb(242, 245, 250); fill-opacity: 1; white-space: pre;">40k</text></g><g class="ytick"><text text-anchor="end" x="79" y="4.199999999999999" transform="translate(0,159.49)" style="font-family: 'Open Sans', verdana, arial, sans-serif; font-size: 12px; fill: rgb(242, 245, 250); fill-opacity: 1; white-space: pre;">50k</text></g><g class="ytick"><text text-anchor="end" x="79" y="4.199999999999999" transform="translate(0,120.09)" style="font-family: 'Open Sans', verdana, arial, sans-serif; font-size: 12px; fill: rgb(242, 245, 250); fill-opacity: 1; white-space: pre;">60k</text></g></g><g class="overaxes-above"/></g><g class="subplot x2y2"><g class="layer-subplot"><g class="shapelayer"/><g class="imagelayer"/></g><g class="gridlayer"><g class="x2"><path class="x2grid crisp" transform="translate(490.05,0)" d="M0,100v270" style="stroke: rgb(40, 52, 66); stroke-opacity: 1; stroke-width: 1px;"/><path class="x2grid crisp" transform="translate(552.46,0)" d="M0,100v270" style="stroke: rgb(40, 52, 66); stroke-opacity: 1; stroke-width: 1px;"/><path class="x2grid crisp" transform="translate(614.88,0)" d="M0,100v270" style="stroke: rgb(40, 52, 66); stroke-opacity: 1; stroke-width: 1px;"/><path class="x2grid crisp" transform="translate(678.3100000000001,0)" d="M0,100v270" style="stroke: rgb(40, 52, 66); stroke-opacity: 1; stroke-width: 1px;"/><path class="x2grid crisp" transform="translate(740.72,0)" d="M0,100v270" style="stroke: rgb(40, 52, 66); stroke-opacity: 1; stroke-width: 1px;"/></g><g class="y2"><path class="y2grid crisp" transform="translate(0,309.53999999999996)" d="M450.15000000000003,0h302.84999999999997" style="stroke: rgb(40, 52, 66); stroke-opacity: 1; stroke-width: 1px;"/><path class="y2grid crisp" transform="translate(0,262.59000000000003)" d="M450.15000000000003,0h302.84999999999997" style="stroke: rgb(40, 52, 66); stroke-opacity: 1; stroke-width: 1px;"/><path class="y2grid crisp" transform="translate(0,215.63)" d="M450.15000000000003,0h302.84999999999997" style="stroke: rgb(40, 52, 66); stroke-opacity: 1; stroke-width: 1px;"/><path class="y2grid crisp" transform="translate(0,168.67000000000002)" d="M450.15000000000003,0h302.84999999999997" style="stroke: rgb(40, 52, 66); stroke-opacity: 1; stroke-width: 1px;"/><path class="y2grid crisp" transform="translate(0,121.72)" d="M450.15000000000003,0h302.84999999999997" style="stroke: rgb(40, 52, 66); stroke-opacity: 1; stroke-width: 1px;"/></g></g><g class="zerolinelayer"><path class="y2zl zl crisp" transform="translate(0,356.5)" d="M450.15000000000003,0h302.84999999999997" style="stroke: rgb(40, 52, 66); stroke-opacity: 1; stroke-width: 2px;"/></g><path class="xlines-below"/><path class="ylines-below"/><g class="overlines-below"/><g class="xaxislayer-below"/><g class="yaxislayer-below"/><g class="overaxes-below"/><g class="plot" transform="translate(450.15000000000003, 100)" clip-path="url('#clipaa83fbx2y2plot')"><g class="scatterlayer mlayer"><g class="trace scatter tracefaabd8" style="stroke-miterlimit: 2; opacity: 1;"><g class="fills"/><g class="errorbars"/><g class="lines"><path class="js-line" d="M0,256.5L64.46,256.03L65.48,255.56L70.6,254.86L71.62,254.62L81.85,251.57L82.87,251.1L84.92,251.1L85.94,248.05L87.99,247.34L89.01,246.87L95.15,245.23L96.18,244.29L99.24,243.59L100.27,243.12L103.34,241.71L104.36,241.71L107.43,241L108.45,240.77L110.5,239.83L111.52,239.83L113.57,239.13L114.59,238.66L117.66,237.01L118.68,237.01L120.73,236.31L121.75,235.84L125.85,234.67L126.87,234.67L134.03,233.96L135.05,233.73L137.1,233.73L138.12,232.79L142.22,232.55L143.24,231.85L145.29,230.91L146.31,230.91L148.36,230.2L149.38,230.2L151.43,229.03L152.45,228.8L156.54,228.33L157.56,227.86L159.61,225.98L160.63,225.98L162.68,225.27L163.7,224.8L169.84,223.63L170.86,223.63L174.96,221.75L175.98,221.75L177,221.75L178.03,220.81L180.07,220.34L181.1,218.7L184.17,218.47L185.19,217.29L188.26,214.71L189.28,214.71L193.37,214L194.4,213.77L195.42,213.77L196.44,212.13L199.51,211.42L200.54,211.19L203.61,211.19L204.63,208.37L206.67,208.37L207.7,206.73L209.74,205.08L210.77,205.08L214.86,202.97L215.88,202.27L218.95,201.56L219.98,201.56L222.02,199.45L223.04,199.21L225.09,198.51L226.11,196.16L228.16,196.16L229.18,192.17L230.21,187.24L231.23,187L233.28,186.3L234.3,186.07L237.37,185.36L238.39,181.37L239.42,181.37L240.44,178.55L241.46,178.32L242.48,172.92L243.51,172.92L244.53,170.8L246.58,168.69L247.6,168.69L248.62,168.69L249.65,164.93L253.74,161.18L254.76,161.18L256.81,160.71L257.83,159.77L258.85,157.89L259.88,157.89L260.9,156.72L261.92,156.72L263.97,156.25L264.99,155.31L278.29,155.07L279.32,154.37L280.34,149.44L281.36,149.44L283.41,148.27L284.43,148.27L289.55,147.8L290.57,147.8L294.66,147.33L295.69,145.92L297.73,145.21L298.76,145.21L299.78,145.21L300.8,143.1L302.85,142.4" style="vector-effect: non-scaling-stroke; fill: none; stroke: rgb(230, 25, 75); stroke-opacity: 1; stroke-width: 2px; opacity: 1;"/></g><g class="points"/><g class="text"/></g><g class="trace scatter traced620b1" style="stroke-miterlimit: 2; opacity: 1;"><g class="fills"/><g class="errorbars"/><g class="lines"><path class="js-line" d="M0,256.5L67.53,256.03L68.55,255.33L72.64,254.86L73.67,253.68L76.74,253.21L77.76,252.74L78.78,252.27L79.81,250.63L83.9,248.52L84.92,247.11L91.06,237.72L92.08,234.2L97.2,214.94L98.22,212.36L99.24,211.19L100.27,207.43L108.45,176.2L109.48,171.51L116.64,151.08L117.66,149.91L121.75,142.63L122.78,138.64L124.82,133.47L125.85,131.13L126.87,129.95L127.89,127.6L131.99,114.22L133.01,112.58L134.03,111.87L135.05,109.29L137.1,106L138.12,102.25L141.19,96.61L142.22,95.44L147.33,88.4L148.36,87.46L151.43,84.64L152.45,82.76L154.49,81.12L155.52,81.12L163.7,74.31L164.73,74.31L166.77,72.2L167.8,72.2L177,70.79L178.03,70.79L183.14,68.44L184.17,68.44L193.37,68.44L194.4,66.33L198.49,64.21L199.51,63.98L201.56,62.1L202.58,62.1L207.7,59.28L208.72,58.81L212.81,56.7L213.84,56.7L217.93,53.41L218.95,53.18L221,52.71L222.02,51.53L224.07,50.36L225.09,50.13L228.16,49.66L229.18,49.19L234.3,47.31L235.32,47.07L241.46,43.55L242.48,43.32L243.51,43.08L244.53,41.67L248.62,40.03L249.65,39.8L251.69,39.09L252.72,38.62L255.79,37.68L256.81,37.68L259.88,35.8L260.9,35.33L262.95,34.87L263.97,34.87L270.11,32.52L271.13,32.28L276.25,32.28L277.27,29.7L279.32,29.7L280.34,26.18L282.39,25.47L283.41,23.83L285.46,22.89L286.48,22.89L294.66,18.9L295.69,17.96L297.73,16.32L298.76,16.32L299.78,15.85L300.8,13.97L302.85,13.5" style="vector-effect: non-scaling-stroke; fill: none; stroke: rgb(60, 180, 75); stroke-opacity: 1; stroke-width: 2px; opacity: 1;"/></g><g class="points"/><g class="text"/></g><g class="trace scatter trace07686d" style="stroke-miterlimit: 2; opacity: 1;"><g class="fills"/><g class="errorbars"/><g class="lines"><path class="js-line" d="M0,256.5L86.97,255.8L87.99,255.56L92.08,255.33L93.11,255.33L106.41,254.86L107.43,254.39L113.57,253.21L114.59,253.21L118.68,252.98L119.71,251.8L140.17,247.34L141.19,247.34L144.26,246.64L145.29,246.4L170.86,245.7L171.89,245.47L202.58,244.76L203.61,244.53L258.85,244.06L259.88,243.59L263.97,242.88L264.99,242.41L268.06,242.41L269.09,241.24L272.16,240.53L273.18,240.3L275.23,239.83L276.25,239.83L280.34,238.19L281.36,236.78L283.41,236.31L284.43,236.31L286.48,235.84L287.5,235.13L290.57,233.73L291.6,233.73L292.62,233.73L293.64,232.55L295.69,230.2L296.71,229.97L298.76,229.27L299.78,227.62L301.83,226.21L302.85,226.21" style="vector-effect: non-scaling-stroke; fill: none; stroke: rgb(255, 225, 25); stroke-opacity: 1; stroke-width: 2px; opacity: 1;"/></g><g class="points"/><g class="text"/></g><g class="trace scatter trace2a4d9f" style="stroke-miterlimit: 2; opacity: 1;"><g class="fills"/><g class="errorbars"/><g class="lines"><path class="js-line" d="M0,256.5L188.26,255.8L189.28,255.56L200.54,254.86L201.56,254.62L206.67,254.15L207.7,254.15L227.14,253.45L228.16,253.21L262.95,252.74L263.97,251.33L267.04,250.16L268.06,249.46L277.27,248.75L278.29,247.58L280.34,247.11L281.36,245.93L283.41,245.47L284.43,244.29L289.55,243.12L290.57,242.18L292.62,241.47L293.64,240.77L295.69,239.83L296.71,239.83L297.73,239.83L298.76,238.89L301.83,235.13L302.85,233.96" style="vector-effect: non-scaling-stroke; fill: none; stroke: rgb(67, 99, 216); stroke-opacity: 1; stroke-width: 2px; opacity: 1;"/></g><g class="points"/><g class="text"/></g><g class="trace scatter trace4a1b56" style="stroke-miterlimit: 2; opacity: 1;"><g class="fills"/><g class="errorbars"/><g class="lines"><path class="js-line" d="M0,256.5L73.67,255.8L74.69,255.56L79.81,254.86L80.83,254.15L89.01,253.45L90.04,252.98L92.08,252.27L93.11,252.04L98.22,250.87L99.24,249.93L105.38,249.22L106.41,248.28L109.48,247.34L110.5,245.93L112.55,245.93L113.57,245L115.62,244.53L116.64,244.53L119.71,243.59L120.73,243.59L122.78,241.47L123.8,241.47L125.85,240.77L126.87,240.77L129.94,240.07L130.96,239.83L135.05,239.13L136.08,238.19L140.17,237.48L141.19,237.01L144.26,236.07L145.29,234.67L149.38,233.96L150.4,233.26L159.61,231.61L160.63,231.61L164.73,231.38L165.75,230.67L173.93,227.15L174.96,225.98L181.1,225.27L182.12,224.57L185.19,223.87L186.21,222.46L188.26,219.87L189.28,219.87L190.3,219.87L191.33,218.93L193.37,217.53L194.4,216.35L198.49,214.71L199.51,213.3L204.63,212.13L205.65,210.48L209.74,207.43L210.77,206.96L212.81,206.73L213.84,206.02L215.88,205.55L216.91,205.55L217.93,203.91L218.95,203.91L222.02,203.2L223.04,202.73L228.16,202.27L229.18,202.27L231.23,201.56L232.25,201.33L235.32,200.86L236.35,200.39L244.53,199.21L245.55,199.21L255.79,197.57L256.81,197.57L260.9,195.93L261.92,195.93L262.95,195.69L263.97,194.52L268.06,191.7L269.09,191.7L271.13,190.76L272.16,190.29L281.36,186.77L282.39,186.77L285.46,186.53L286.48,185.36L288.53,184.19L289.55,184.19L290.57,183.01L291.6,183.01L297.73,179.26L298.76,179.02L301.83,176.44L302.85,175.03" style="vector-effect: non-scaling-stroke; fill: none; stroke: rgb(245, 130, 49); stroke-opacity: 1; stroke-width: 2px; opacity: 1;"/></g><g class="points"/><g class="text"/></g><g class="trace scatter trace075139" style="stroke-miterlimit: 2; opacity: 1;"><g class="fills"/><g class="errorbars"/><g class="lines"><path class="js-line" d="M0,256.5L120.73,255.8L121.75,255.56L179.05,254.86L180.07,254.62L182.12,254.15L183.14,254.15L190.3,253.45L191.33,253.21L198.49,252.51L199.51,252.27L202.58,251.57L203.61,251.1L206.67,250.87L207.7,249.93L211.79,248.52L212.81,248.52L219.98,244.29L221,244.06L227.14,242.88L228.16,241.71L233.28,238.19L234.3,238.19L237.37,237.48L238.39,237.01L240.44,236.54L241.46,236.54L243.51,235.6L244.53,235.13L246.58,233.96L247.6,233.96L251.69,233.26L252.72,233.02L254.76,232.32L255.79,232.08L263.97,230.67L264.99,230.67L269.09,229.5L270.11,229.5L272.16,229.03L273.18,228.56L281.36,226.21L282.39,225.51L290.57,222.46L291.6,222.46L294.66,221.99L295.69,221.28L296.71,219.87L297.73,219.87L299.78,219.17L300.8,218.7L302.85,216.12" style="vector-effect: non-scaling-stroke; fill: none; stroke: rgb(145, 30, 180); stroke-opacity: 1; stroke-width: 2px; opacity: 1;"/></g><g class="points"/><g class="text"/></g></g></g><g class="overplot"/><path class="xlines-above crisp" d="M0,0" style="fill: none;"/><path class="ylines-above crisp" d="M0,0" style="fill: none;"/><g class="overlines-above"/><g class="xaxislayer-above"><g class="x2tick"><text text-anchor="middle" x="0" y="383" transform="translate(490.05,0)" style="font-family: 'Open Sans', verdana, arial, sans-serif; font-size: 12px; fill: rgb(242, 245, 250); fill-opacity: 1; white-space: pre;">Mar 2020</text></g><g class="x2tick"><text text-anchor="middle" x="0" y="383" transform="translate(552.46,0)" style="font-family: 'Open Sans', verdana, arial, sans-serif; font-size: 12px; fill: rgb(242, 245, 250); fill-opacity: 1; white-space: pre;">May 2020</text></g><g class="x2tick"><text text-anchor="middle" x="0" y="383" transform="translate(614.88,0)" style="font-family: 'Open Sans', verdana, arial, sans-serif; font-size: 12px; fill: rgb(242, 245, 250); fill-opacity: 1; white-space: pre;">Jul 2020</text></g><g class="x2tick"><text text-anchor="middle" x="0" y="383" transform="translate(678.3100000000001,0)" style="font-family: 'Open Sans', verdana, arial, sans-serif; font-size: 12px; fill: rgb(242, 245, 250); fill-opacity: 1; white-space: pre;">Sep 2020</text></g><g class="x2tick"><text text-anchor="middle" x="0" y="383" transform="translate(740.72,0)" style="font-family: 'Open Sans', verdana, arial, sans-serif; font-size: 12px; fill: rgb(242, 245, 250); fill-opacity: 1; white-space: pre;">Nov 2020</text></g></g><g class="yaxislayer-above"><g class="y2tick"><text text-anchor="end" x="449.15000000000003" y="4.199999999999999" transform="translate(0,356.5)" style="font-family: 'Open Sans', verdana, arial, sans-serif; font-size: 12px; fill: rgb(242, 245, 250); fill-opacity: 1; white-space: pre;">0</text></g><g class="y2tick"><text text-anchor="end" x="449.15000000000003" y="4.199999999999999" transform="translate(0,309.53999999999996)" style="font-family: 'Open Sans', verdana, arial, sans-serif; font-size: 12px; fill: rgb(242, 245, 250); fill-opacity: 1; white-space: pre;">200</text></g><g class="y2tick"><text text-anchor="end" x="449.15000000000003" y="4.199999999999999" transform="translate(0,262.59000000000003)" style="font-family: 'Open Sans', verdana, arial, sans-serif; font-size: 12px; fill: rgb(242, 245, 250); fill-opacity: 1; white-space: pre;">400</text></g><g class="y2tick"><text text-anchor="end" x="449.15000000000003" y="4.199999999999999" transform="translate(0,215.63)" style="font-family: 'Open Sans', verdana, arial, sans-serif; font-size: 12px; fill: rgb(242, 245, 250); fill-opacity: 1; white-space: pre;">600</text></g><g class="y2tick"><text text-anchor="end" x="449.15000000000003" y="4.199999999999999" transform="translate(0,168.67000000000002)" style="font-family: 'Open Sans', verdana, arial, sans-serif; font-size: 12px; fill: rgb(242, 245, 250); fill-opacity: 1; white-space: pre;">800</text></g><g class="y2tick"><text text-anchor="end" x="449.15000000000003" y="4.199999999999999" transform="translate(0,121.72)" style="font-family: 'Open Sans', verdana, arial, sans-serif; font-size: 12px; fill: rgb(242, 245, 250); fill-opacity: 1; white-space: pre;">1000</text></g></g><g class="overaxes-above"/></g></g><g class="polarlayer"/><g class="ternarylayer"/><g class="geolayer"/><g class="funnelarealayer"/><g class="pielayer"/><g class="treemaplayer"/><g class="sunburstlayer"/><g class="glimages"/><defs id="topdefs-aa83fb"><g class="clips"/><clipPath id="legendaa83fb"><rect width="122" height="124" x="0" y="0"/></clipPath></defs><g class="layer-above"><g class="imagelayer"/><g class="shapelayer"/></g><g class="infolayer"><g class="legend" pointer-events="all" transform="translate(766.46, 100)"><rect class="bg" shape-rendering="crispEdges" width="122" height="124" x="0" y="0" style="stroke: rgb(68, 68, 68); stroke-opacity: 1; fill: rgb(17, 17, 17); fill-opacity: 1; stroke-width: 0px;"/><g class="scrollbox" transform="translate(0, 0)" clip-path="url('#legendaa83fb')"><g class="groups"><g class="traces" transform="translate(0, 14.5)" style="opacity: 1;"><text class="legendtext user-select-none" text-anchor="start" x="40" y="4.680000000000001" style="font-family: 'Open Sans', verdana, arial, sans-serif; font-size: 12px; fill: rgb(242, 245, 250); fill-opacity: 1; white-space: pre;">Alameda, CA</text><g class="layers" style="opacity: 1;"><g class="legendfill"/><g class="legendlines"><path class="js-line" d="M5,0h30" style="fill: none; stroke: rgb(230, 25, 75); stroke-opacity: 1; stroke-width: 2px;"/></g><g class="legendsymbols"><g class="legendpoints"/></g></g><rect class="legendtoggle" pointer-events="all" x="0" y="-9.5" width="116.71875" height="19" style="cursor: pointer; fill: rgb(0, 0, 0); fill-opacity: 0;"/></g><g class="traces" transform="translate(0, 33.5)" style="opacity: 1;"><text class="legendtext user-select-none" text-anchor="start" x="40" y="4.680000000000001" style="font-family: 'Open Sans', verdana, arial, sans-serif; font-size: 12px; fill: rgb(242, 245, 250); fill-opacity: 1; white-space: pre;">Hennepin, MN</text><g class="layers" style="opacity: 1;"><g class="legendfill"/><g class="legendlines"><path class="js-line" d="M5,0h30" style="fill: none; stroke: rgb(60, 180, 75); stroke-opacity: 1; stroke-width: 2px;"/></g><g class="legendsymbols"><g class="legendpoints"/></g></g><rect class="legendtoggle" pointer-events="all" x="0" y="-9.5" width="116.71875" height="19" style="cursor: pointer; fill: rgb(0, 0, 0); fill-opacity: 0;"/></g><g class="traces" transform="translate(0, 52.5)" style="opacity: 1;"><text class="legendtext user-select-none" text-anchor="start" x="40" y="4.680000000000001" style="font-family: 'Open Sans', verdana, arial, sans-serif; font-size: 12px; fill: rgb(242, 245, 250); fill-opacity: 1; white-space: pre;">Schuylkill, PA</text><g class="layers" style="opacity: 1;"><g class="legendfill"/><g class="legendlines"><path class="js-line" d="M5,0h30" style="fill: none; stroke: rgb(255, 225, 25); stroke-opacity: 1; stroke-width: 2px;"/></g><g class="legendsymbols"><g class="legendpoints"/></g></g><rect class="legendtoggle" pointer-events="all" x="0" y="-9.5" width="116.71875" height="19" style="cursor: pointer; fill: rgb(0, 0, 0); fill-opacity: 0;"/></g><g class="traces" transform="translate(0, 71.5)" style="opacity: 1;"><text class="legendtext user-select-none" text-anchor="start" x="40" y="4.680000000000001" style="font-family: 'Open Sans', verdana, arial, sans-serif; font-size: 12px; fill: rgb(242, 245, 250); fill-opacity: 1; white-space: pre;">Marathon, WI</text><g class="layers" style="opacity: 1;"><g class="legendfill"/><g class="legendlines"><path class="js-line" d="M5,0h30" style="fill: none; stroke: rgb(67, 99, 216); stroke-opacity: 1; stroke-width: 2px;"/></g><g class="legendsymbols"><g class="legendpoints"/></g></g><rect class="legendtoggle" pointer-events="all" x="0" y="-9.5" width="116.71875" height="19" style="cursor: pointer; fill: rgb(0, 0, 0); fill-opacity: 0;"/></g><g class="traces" transform="translate(0, 90.5)" style="opacity: 1;"><text class="legendtext user-select-none" text-anchor="start" x="40" y="4.680000000000001" style="font-family: 'Open Sans', verdana, arial, sans-serif; font-size: 12px; fill: rgb(242, 245, 250); fill-opacity: 1; white-space: pre;">Salt Lake, UT</text><g class="layers" style="opacity: 1;"><g class="legendfill"/><g class="legendlines"><path class="js-line" d="M5,0h30" style="fill: none; stroke: rgb(245, 130, 49); stroke-opacity: 1; stroke-width: 2px;"/></g><g class="legendsymbols"><g class="legendpoints"/></g></g><rect class="legendtoggle" pointer-events="all" x="0" y="-9.5" width="116.71875" height="19" style="cursor: pointer; fill: rgb(0, 0, 0); fill-opacity: 0;"/></g><g class="traces" transform="translate(0, 109.5)" style="opacity: 1;"><text class="legendtext user-select-none" text-anchor="start" x="40" y="4.680000000000001" style="font-family: 'Open Sans', verdana, arial, sans-serif; font-size: 12px; fill: rgb(242, 245, 250); fill-opacity: 1; white-space: pre;">Smith, TX</text><g class="layers" style="opacity: 1;"><g class="legendfill"/><g class="legendlines"><path class="js-line" d="M5,0h30" style="fill: none; stroke: rgb(145, 30, 180); stroke-opacity: 1; stroke-width: 2px;"/></g><g class="legendsymbols"><g class="legendpoints"/></g></g><rect class="legendtoggle" pointer-events="all" x="0" y="-9.5" width="116.71875" height="19" style="cursor: pointer; fill: rgb(0, 0, 0); fill-opacity: 0;"/></g></g></g><rect class="scrollbar" rx="20" ry="3" width="0" height="0" x="0" y="0" style="fill: rgb(128, 139, 164); fill-opacity: 1;"/></g><g class="g-gtitle"/><g class="g-xtitle"><text class="xtitle" x="231.425" y="410.8" text-anchor="middle" style="font-family: 'Open Sans', verdana, arial, sans-serif; font-size: 14px; fill: rgb(242, 245, 250); opacity: 1; font-weight: normal; white-space: pre;">Date</text></g><g class="g-x2title"><text class="x2title" x="601.575" y="410.8" text-anchor="middle" style="font-family: 'Open Sans', verdana, arial, sans-serif; font-size: 14px; fill: rgb(242, 245, 250); opacity: 1; font-weight: normal; white-space: pre;">Date</text></g><g class="g-ytitle"><text class="ytitle" transform="rotate(-90,34.840625,235)" x="34.840625" y="235" text-anchor="middle" style="font-family: 'Open Sans', verdana, arial, sans-serif; font-size: 14px; fill: rgb(242, 245, 250); opacity: 1; font-weight: normal; white-space: pre;">Cases</text></g><g class="g-y2title"><text class="y2title" transform="rotate(-90,397.653125,235)" x="397.653125" y="235" text-anchor="middle" style="font-family: 'Open Sans', verdana, arial, sans-serif; font-size: 14px; fill: rgb(242, 245, 250); opacity: 1; font-weight: normal; white-space: pre;">Deaths</text></g><g class="annotation" data-index="0" style="opacity: 1;"><g class="annotation-text-g" transform="rotate(0,231.425,89.5)"><g class="cursor-pointer" transform="translate(207, 79)"><rect class="bg" x="0.5" y="0.5" width="48" height="20" style="stroke-width: 1px; stroke: rgb(0, 0, 0); stroke-opacity: 0; fill: rgb(0, 0, 0); fill-opacity: 0;"/><text class="annotation-text" text-anchor="middle" x="24.6875" y="16" style="font-family: 'Open Sans', verdana, arial, sans-serif; font-size: 16px; fill: rgb(242, 245, 250); fill-opacity: 1; white-space: pre;">Cases</text></g></g></g><g class="annotation" data-index="1" style="opacity: 1;"><g class="annotation-text-g" transform="rotate(0,601.575,89.5)"><g class="cursor-pointer" transform="translate(574, 79)"><rect class="bg" x="0.5" y="0.5" width="54" height="20" style="stroke-width: 1px; stroke: rgb(0, 0, 0); stroke-opacity: 0; fill: rgb(0, 0, 0); fill-opacity: 0;"/><text class="annotation-text" text-anchor="middle" x="27.359375" y="16" style="font-family: 'Open Sans', verdana, arial, sans-serif; font-size: 16px; fill: rgb(242, 245, 250); fill-opacity: 1; white-space: pre;">Deaths</text></g></g></g></g></svg>