<svg class="main-svg" xmlns="http://www.w3.org/2000/svg" xmlns:xlink="http://www.w3.org/1999/xlink" width="900" height="450" style="" viewBox="0 0 900 450"><rect x="0" y="0" width="900" height="450" style="fill: rgb(17, 17, 17); fill-opacity: 1;"/><defs id="defs-e5b294"><g class="clips"><clipPath id="clipe5b294xyplot" class="plotclip"><rect width="305.1" height="270"/></clipPath><clipPath id="clipe5b294x2y2plot" class="plotclip"><rect width="305.09999999999997" height="270"/></clipPath><clipPath class="axesclip" id="clipe5b294x"><rect x="80" y="0" width="305.1" height="450"/></clipPath><clipPath class="axesclip" id="clipe5b294y"><rect x="0" y="100" width="900" height="270"/></clipPath><clipPath class="axesclip" id="clipe5b294xy"><rect x="80" y="100" width="305.1" height="270"/></clipPath><clipPath class="axesclip" id="clipe5b294y2"><rect x="0" y="100" width="900" height="270"/></clipPath><clipPath class="axesclip" id="clipe5b294xy2"><rect x="80" y="100" width="305.1" height="270"/></clipPath><clipPath class="axesclip" id="clipe5b294x2"><rect x="452.90000000000003" y="0" width="305.09999999999997" height="450"/></clipPath><clipPath class="axesclip" id="clipe5b294x2y"><rect x="452.90000000000003" y="100" width="305.09999999999997" height="270"/></clipPath><clipPath class="axesclip" id="clipe5b294x2y2"><rect x="452.90000000000003" y="100" width="305.09999999999997" height="270"/></clipPath></g><g class="gradients"/></defs><g class="bglayer"/><g class="layer-below"><g class="imagelayer"/><g class="shapelayer"/></g><g class="cartesianlayer"><g class="subplot xy"><g class="layer-subplot"><g class="shapelayer"/><g class="imagelayer"/></g><g class="gridlayer"><g class="x"><path class="xgrid crisp" transform="translate(130.49,0)" d="M0,100v270" style="stroke: rgb(40, 52, 66); stroke-opacity: 1; stroke-width: 1px;"/><path class="xgrid crisp" transform="translate(196.13,0)" d="M0,100v270" style="stroke: rgb(40, 52, 66); stroke-opacity: 1; stroke-width: 1px;"/><path class="xgrid crisp" transform="translate(262.48,0)" d="M0,100v270" style="stroke: rgb(40, 52, 66); stroke-opacity: 1; stroke-width: 1px;"/><path class="xgrid crisp" transform="translate(328.84000000000003,0)" d="M0,100v270" style="stroke: rgb(40, 52, 66); stroke-opacity: 1; stroke-width: 1px;"/></g><g class="y"><path class="ygrid crisp" transform="translate(0,297.66999999999996)" d="M80,0h305.1" style="stroke: rgb(40, 52, 66); stroke-opacity: 1; stroke-width: 1px;"/><path class="ygrid crisp" transform="translate(0,238.84)" d="M80,0h305.1" style="stroke: rgb(40, 52, 66); stroke-opacity: 1; stroke-width: 1px;"/><path class="ygrid crisp" transform="translate(0,180.01999999999998)" d="M80,0h305.1" style="stroke: rgb(40, 52, 66); stroke-opacity: 1; stroke-width: 1px;"/><path class="ygrid crisp" transform="translate(0,121.19)" d="M80,0h305.1" style="stroke: rgb(40, 52, 66); stroke-opacity: 1; stroke-width: 1px;"/></g></g><g class="zerolinelayer"><path class="yzl zl crisp" transform="translate(0,356.5)" d="M80,0h305.1" style="stroke: rgb(40, 52, 66); stroke-opacity: 1; stroke-width: 2px;"/></g><path class="xlines-below"/><path class="ylines-below"/><g class="overlines-below"/><g class="xaxislayer-below"/><g class="yaxislayer-below"/><g class="overaxes-below"/><g class="plot" transform="translate(80, 100)" clip-path="url('#clipe5b294xyplot')"><g class="scatterlayer mlayer"><g class="trace scatter trace78451e" style="stroke-miterlimit: 2; opacity: 1;"><g class="fills"/><g class="errorbars"/><g class="lines"><path class="js-line" d="M0,256.5L47.6,255.75L48.33,255.71L54.82,254.64L55.54,254.52L86.55,248.83L87.27,248.53L98.81,245.11L99.54,244.9L106.03,243.17L106.75,242.86L110.36,241.38L111.08,240.98L116.13,238.39L116.85,237.72L120.45,236.24L121.17,235.19L126.94,231.12L127.67,230.45L129.83,229.27L130.55,228.9L134.16,226L134.88,225.8L141.37,220.8L142.09,220.8L143.53,220.8L144.26,217.68L144.98,217.62L145.7,216.31L147.86,213.68L148.58,213.68L150.03,212L150.75,211.09L153.63,207.4L154.35,207.31L155.07,207.28L155.8,205.69L160.12,203L160.84,202.25L163.73,200.23L164.45,200.23L167.34,198.53L168.06,198.2L172.39,197.2L173.11,196.6L178.16,194.65L178.88,194.65L181.76,193.6L182.48,193.38L194.02,190.44L194.74,189.92L209.89,183.4L210.61,182.96L214.94,180.4L215.66,179.89L218.55,176.43L219.27,175.8L220.71,175.25L221.43,174.56L225.76,169.23L226.48,168.66L230.81,160.54L231.53,157.27L235.14,150.07L235.86,144.09L238.02,138.07L238.74,138.01L240.91,127.07L241.63,124.86L245.96,110.12L246.68,108.24L248.84,102.15L249.56,99.08L251.73,92.08L252.45,90.51L253.89,86.13L254.61,82.45L261.82,56.67L262.54,55.21L265.43,50.37L266.15,48.18L274.09,34.65L274.81,33.79L277.69,29.96L278.41,29L285.63,22.67L286.35,22.22L295.72,17.34L296.44,17.03L297.89,16.43L298.61,14.86L300.77,14.29L301.49,14.1L305.1,13.5" style="vector-effect: non-scaling-stroke; fill: none; stroke: rgb(230, 25, 75); stroke-opacity: 1; stroke-width: 2px; opacity: 1;"/></g><g class="points"/><g class="text"/></g><g class="trace scatter trace144c41" style="stroke-miterlimit: 2; opacity: 1;"><g class="fills"/><g class="errorbars"/><g class="lines"><path class="js-line" d="M0,256.5L207.73,255.9L208.45,255.64L227.92,255.27L228.64,255.27L305.1,254.64" style="vector-effect: non-scaling-stroke; fill: none; stroke: rgb(60, 180, 75); stroke-opacity: 1; stroke-width: 2px; opacity: 1;"/></g><g class="points"/><g class="text"/></g><g class="trace scatter traced9bf4b" style="stroke-miterlimit: 2; opacity: 1;"><g class="fills"/><g class="errorbars"/><g class="lines"><path class="js-line" d="M0,256.5L209.89,255.75L210.61,255.74L271.2,254.41L271.92,254.41L305.1,254.26" style="vector-effect: non-scaling-stroke; fill: none; stroke: rgb(255, 225, 25); stroke-opacity: 1; stroke-width: 2px; opacity: 1;"/></g><g class="points"/><g class="text"/></g><g class="trace scatter trace094265" style="stroke-miterlimit: 2; opacity: 1;"><g class="fills"/><g class="errorbars"/><g class="lines"><path class="js-line" d="M0,256.5L124.78,255.76L125.5,255.72L174.55,254.97L175.27,254.96L207.73,253.8L208.45,253.69L231.53,249.88L232.25,249.83L263.99,248.32L264.71,248.31L305.1,247.04" style="vector-effect: non-scaling-stroke; fill: none; stroke: rgb(67, 99, 216); stroke-opacity: 1; stroke-width: 2px; opacity: 1;"/></g><g class="points"/><g class="text"/></g><g class="trace scatter tracee0cfd5" style="stroke-miterlimit: 2; opacity: 1;"><g class="fills"/><g class="errorbars"/><g class="lines"><path class="js-line" d="M0,256.5L70.69,256.01L71.41,255.71L76.46,253.09L77.18,252.75L84.39,251.38L85.11,251.26L91.6,250.63L92.32,250.61L131.99,248.62L132.71,248.57L174.55,245.41L175.27,245.29L184.65,243.79L185.37,243.67L191.86,242.5L192.58,241.52L194.74,241.16L195.47,240.49L197.63,239.84L198.35,239.61L199.07,240.49L199.79,239.2L207.73,234.98L208.45,233.99L211.33,231.57L212.06,229.95L212.78,229.95L213.5,228.95L215.66,225.54L216.38,224.91L217.1,224.91L217.83,223.44L220.71,220.42L221.43,219.59L223.6,216.72L224.32,216.72L230.81,211.71L231.53,211.49L235.86,209.41L236.58,209.25L248.12,206.66L248.84,206.66L258.22,204.48L258.94,204.36L270.48,202.84L271.2,202.79L300.77,200.41L301.49,200.34L305.1,199.82" style="vector-effect: non-scaling-stroke; fill: none; stroke: rgb(245, 130, 49); stroke-opacity: 1; stroke-width: 2px; opacity: 1;"/></g><g class="points"/><g class="text"/></g><g class="trace scatter trace032fac" style="stroke-miterlimit: 2; opacity: 1;"><g class="fills"/><g class="errorbars"/><g class="lines"><path class="js-line" d="M0,256.5L199.79,255.75L200.51,255.74L217.83,254.76L218.55,254.64L242.35,253.63L243.07,253.61L305.1,252.91" style="vector-effect: non-scaling-stroke; fill: none; stroke: rgb(145, 30, 180); stroke-opacity: 1; stroke-width: 2px; opacity: 1;"/></g><g class="points"/><g class="text"/></g></g></g><g class="overplot"/><path class="xlines-above crisp" d="M0,0" style="fill: none;"/><path class="ylines-above crisp" d="M0,0" style="fill: none;"/><g class="overlines-above"/><g class="xaxislayer-above"><g class="xtick"><text text-anchor="middle" x="0" y="383" transform="translate(130.49,0)" style="font-family: 'Open Sans', verdana, arial, sans-serif; font-size: 12px; fill: rgb(242, 245, 250); fill-opacity: 1; white-space: pre;">Apr 2020</text></g><g class="xtick"><text text-anchor="middle" x="0" y="383" transform="translate(196.13,0)" style="font-family: 'Open Sans', verdana, arial, sans-serif; font-size: 12px; fill: rgb(242, 245, 250); fill-opacity: 1; white-space: pre;">Jul 2020</text></g><g class="xtick"><text text-anchor="middle" x="0" y="383" transform="translate(262.48,0)" style="font-family: 'Open Sans', verdana, arial, sans-serif; font-size: 12px; fill: rgb(242, 245, 250); fill-opacity: 1; white-space: pre;">Oct 2020</text></g><g class="xtick"><text text-anchor="middle" x="0" y="383" transform="translate(328.84000000000003,0)" style="font-family: 'Open Sans', verdana, arial, sans-serif; font-size: 12px; fill: rgb(242, 245, 250); fill-opacity: 1; white-space: pre;">Jan 2021</text></g></g><g class="yaxislayer-above"><g class="ytick"><text text-anchor="end" x="79" y="4.199999999999999" transform="translate(0,356.5)" style="font-family: 'Open Sans', verdana, arial, sans-serif; font-size: 12px; fill: rgb(242, 245, 250); fill-opacity: 1; white-space: pre;">0</text></g><g class="ytick"><text text-anchor="end" x="79" y="4.199999999999999" transform="translate(0,297.66999999999996)" style="font-family: 'Open Sans', verdana, arial, sans-serif; font-size: 12px; fill: rgb(242, 245, 250); fill-opacity: 1; white-space: pre;">20k</text></g><g class="ytick"><text text-anchor="end" x="79" y="4.199999999999999" transform="translate(0,238.84)" style="font-family: 'Open Sans', verdana, arial, sans-serif; font-size: 12px; fill: rgb(242, 245, 250); fill-opacity: 1; white-space: pre;">40k</text></g><g class="ytick"><text text-anchor="end" x="79" y="4.199999999999999" transform="translate(0,180.01999999999998)" style="font-family: 'Open Sans', verdana, arial, sans-serif; font-size: 12px; fill: rgb(242, 245, 250); fill-opacity: 1; white-space: pre;">60k</text></g><g class="ytick"><text text-anchor="end" x="79" y="4.199999999999999" transform="translate(0,121.19)" style="font-family: 'Open Sans', verdana, arial, sans-serif; font-size: 12px; fill: rgb(242, 245, 250); fill-opacity: 1; white-space: pre;">80k</text></g></g><g class="overaxes-above"/></g><g class="subplot x2y2"><g class="layer-subplot"><g class="shapelayer"/><g class="imagelayer"/></g><g class="gridlayer"><g class="x2"><path class="x2grid crisp" transform="translate(503.39000000000004,0)" d="M0,100v270" style="stroke: rgb(40, 52, 66); stroke-opacity: 1; stroke-width: 1px;"/><path class="x2grid crisp" transform="translate(569.03,0)" d="M0,100v270" style="stroke: rgb(40, 52, 66); stroke-opacity: 1; stroke-width: 1px;"/><path class="x2grid crisp" transform="translate(635.38,0)" d="M0,100v270" style="stroke: rgb(40, 52, 66); stroke-opacity: 1; stroke-width: 1px;"/><path class="x2grid crisp" transform="translate(701.74,0)" d="M0,100v270" style="stroke: rgb(40, 52, 66); stroke-opacity: 1; stroke-width: 1px;"/></g><g class="y2"><path class="y2grid crisp" transform="translate(0,319.43)" d="M452.90000000000003,0h305.09999999999997" style="stroke: rgb(40, 52, 66); stroke-opacity: 1; stroke-width: 1px;"/><path class="y2grid crisp" transform="translate(0,282.36)" d="M452.90000000000003,0h305.09999999999997" style="stroke: rgb(40, 52, 66); stroke-opacity: 1; stroke-width: 1px;"/><path class="y2grid crisp" transform="translate(0,245.29)" d="M452.90000000000003,0h305.09999999999997" style="stroke: rgb(40, 52, 66); stroke-opacity: 1; stroke-width: 1px;"/><path class="y2grid crisp" transform="translate(0,208.22)" d="M452.90000000000003,0h305.09999999999997" style="stroke: rgb(40, 52, 66); stroke-opacity: 1; stroke-width: 1px;"/><path class="y2grid crisp" transform="translate(0,171.15)" d="M452.90000000000003,0h305.09999999999997" style="stroke: rgb(40, 52, 66); stroke-opacity: 1; stroke-width: 1px;"/><path class="y2grid crisp" transform="translate(0,134.07)" d="M452.90000000000003,0h305.09999999999997" style="stroke: rgb(40, 52, 66); stroke-opacity: 1; stroke-width: 1px;"/></g></g><g class="zerolinelayer"><path class="y2zl zl crisp" transform="translate(0,356.5)" d="M452.90000000000003,0h305.09999999999997" style="stroke: rgb(40, 52, 66); stroke-opacity: 1; stroke-width: 2px;"/></g><path class="xlines-below"/><path class="ylines-below"/><g class="overlines-below"/><g class="xaxislayer-below"/><g class="yaxislayer-below"/><g class="overaxes-below"/><g class="plot" transform="translate(452.90000000000003, 100)" clip-path="url('#clipe5b294x2y2plot')"><g class="scatterlayer mlayer"><g class="trace scatter trace1ebd0c" style="stroke-miterlimit: 2; opacity: 1;"><g class="fills"/><g class="errorbars"/><g class="lines"><path class="js-line" d="M0,256.5L46.88,255.76L47.6,255.39L59.87,252.24L60.59,249.83L62.75,248.9L63.47,248.72L66.36,247.97L67.08,247.6L68.52,246.86L69.24,246.86L72.85,244.82L73.57,244.82L76.46,244.08L77.18,243.53L80.78,242.41L81.5,241.86L83.67,241.12L84.39,241.12L87.27,239.82L88,239.45L93.04,238.89L93.77,238.71L96.65,238.52L97.37,237.78L100.98,237.04L101.7,236.48L111.08,233.89L111.8,232.77L117.57,230.55L118.29,230.55L121.17,230.18L121.9,229.44L126.94,227.96L127.67,226.66L130.55,225.55L131.27,224.8L134.16,223.51L134.88,223.51L137.04,222.77L137.76,222.77L139.21,221.47L139.93,221.47L142.09,220.73L142.81,220.73L143.53,220.73L144.26,218.5L145.7,218.5L146.42,217.2L148.58,215.91L149.3,215.54L150.75,214.98L151.47,214.24L153.63,213.31L154.35,213.13L155.07,213.13L155.8,212.01L158.68,210.72L159.4,208.68L160.84,208.86L161.57,205.71L163.01,201.64L163.73,201.08L167.34,200.34L168.06,197.19L168.78,197.19L169.5,194.96L170.22,194.78L170.94,190.51L171.66,190.51L172.39,188.85L174.55,187.18L175.27,187.18L176.71,183.28L177.43,182.91L178.88,181.62L179.6,181.25L181.04,180.88L181.76,180.13L183.2,178.65L183.93,177.54L186.09,177.35L186.81,174.94L188.97,174.76L189.7,175.69L190.42,175.69L191.14,176.61L191.86,174.57L192.58,176.24L194.02,174.57L194.74,176.24L196.91,175.87L197.63,171.98L199.07,171.24L199.79,171.05L207.73,170.31L208.45,169.2L209.89,168.64L210.61,168.64L211.33,168.64L212.06,166.97L214.94,165.68L215.66,165.68L218.55,164.01L219.27,164.01L222.87,163.45L223.6,162.9L225.04,161.6L225.76,161.6L228.64,160.12L229.37,160.12L230.81,160.12L231.53,159.19L232.25,159L232.97,157.71L235.14,156.04L235.86,155.3L238.02,150.11L238.74,150.11L240.19,147.7L240.91,147.7L241.63,147.51L242.35,143.62L243.79,141.77L244.51,141.77L245.96,140.65L246.68,140.65L248.12,140.65L248.84,134.91L252.45,134.91L253.17,127.31L253.89,127.31L254.61,121.38L256.77,120.08L257.5,116.56L261.1,116.19L261.82,114.89L263.27,114.52L263.99,100.43L265.43,97.84L266.15,90.79L266.87,90.42L267.59,88.57L270.48,75.96L271.2,74.85L271.92,74.48L272.64,72.81L273.36,71.33L274.09,67.25L276.25,63.55L276.97,63.55L279.13,59.28L279.86,54.83L281.3,48.9L282.02,48.72L284.18,47.79L284.9,39.45L285.63,39.45L286.35,34.07L287.79,34.07L288.51,30.74L289.23,29.63L289.95,26.47L293.56,25.92L294.28,19.06L297.89,15.35L298.61,13.5L305.1,13.5" style="vector-effect: non-scaling-stroke; fill: none; stroke: rgb(230, 25, 75); stroke-opacity: 1; stroke-width: 2px; opacity: 1;"/></g><g class="points"/><g class="text"/></g><g class="trace scatter tracecdebb3" style="stroke-miterlimit: 2; opacity: 1;"><g class="fills"/><g class="errorbars"/><g class="lines"><path class="js-line" d="M0,256.5L271.2,255.76L271.92,255.57L305.1,255.57" style="vector-effect: non-scaling-stroke; fill: none; stroke: rgb(60, 180, 75); stroke-opacity: 1; stroke-width: 2px; opacity: 1;"/></g><g class="points"/><g class="text"/></g><g class="trace scatter trace646655" style="stroke-miterlimit: 2; opacity: 1;"><g class="fills"/><g class="errorbars"/><g class="lines"><path class="js-line" d="M0,256.5L228.64,255.76L229.37,255.57L305.1,254.83" style="vector-effect: non-scaling-stroke; fill: none; stroke: rgb(255, 225, 25); stroke-opacity: 1; stroke-width: 2px; opacity: 1;"/></g><g class="points"/><g class="text"/></g><g class="trace scatter tracec1ec60" style="stroke-miterlimit: 2; opacity: 1;"><g class="fills"/><g class="errorbars"/><g class="lines"><path class="js-line" d="M0,256.5L211.33,255.76L212.06,255.57L262.54,254.83L263.27,254.65L305.1,254.46" style="vector-effect: non-scaling-stroke; fill: none; stroke: rgb(67, 99, 216); stroke-opacity: 1; stroke-width: 2px; opacity: 1;"/></g><g class="points"/><g class="text"/></g><g class="trace scatter trace97d164" style="stroke-miterlimit: 2; opacity: 1;"><g class="fills"/><g class="errorbars"/><g class="lines"><path class="js-line" d="M0,256.5L77.18,255.76L77.9,255.57L82.23,254.83L82.95,254.65L97.37,253.91L98.09,253.72L103.14,253.16L103.86,252.98L175.27,252.24L175.99,252.05L187.53,251.31L188.25,251.12L192.58,250.75L193.3,250.75L194.74,250.75L195.47,249.83L196.91,249.83L197.63,248.9L198.35,248.53L199.07,249.83L200.51,248.34L201.24,247.6L204.12,246.68L204.84,246.68L207.73,246.31L208.45,245.75L211.33,245.19L212.06,243.9L213.5,243.71L214.22,242.78L217.1,242.41L217.83,241.86L219.99,240L220.71,240L223.6,236.48L224.32,236.48L225.76,234.81L226.48,234.81L230.09,232.03L230.81,231.85L231.53,231.85L232.25,230.92L236.58,229.62L237.3,228.51L244.51,225.55L245.23,225.36L248.84,224.62L249.56,224.43L253.89,223.69L254.61,223.32L257.5,223.14L258.22,222.39L263.27,221.65L263.99,221.47L269.04,220.73L269.76,220.73L274.09,219.99L274.81,219.8L296.44,219.06L297.17,218.32L299.33,217.95L300.05,217.95L303.66,217.76L304.38,217.76L305.1,217.76" style="vector-effect: non-scaling-stroke; fill: none; stroke: rgb(245, 130, 49); stroke-opacity: 1; stroke-width: 2px; opacity: 1;"/></g><g class="points"/><g class="text"/></g><g class="trace scatter trace4e357e" style="stroke-miterlimit: 2; opacity: 1;"><g class="fills"/><g class="errorbars"/><g class="lines"><path class="js-line" d="M0,256.5L244.51,255.76L245.23,255.57L284.9,254.83L285.63,254.65L305.1,254.65" style="vector-effect: non-scaling-stroke; fill: none; stroke: rgb(145, 30, 180); stroke-opacity: 1; stroke-width: 2px; opacity: 1;"/></g><g class="points"/><g class="text"/></g></g></g><g class="overplot"/><path class="xlines-above crisp" d="M0,0" style="fill: none;"/><path class="ylines-above crisp" d="M0,0" style="fill: none;"/><g class="overlines-above"/><g class="xaxislayer-above"><g class="x2tick"><text text-anchor="middle" x="0" y="383" transform="translate(503.39000000000004,0)" style="font-family: 'Open Sans', verdana, arial, sans-serif; font-size: 12px; fill: rgb(242, 245, 250); fill-opacity: 1; white-space: pre;">Apr 2020</text></g><g class="x2tick"><text text-anchor="middle" x="0" y="383" transform="translate(569.03,0)" style="font-family: 'Open Sans', verdana, arial, sans-serif; font-size: 12px; fill: rgb(242, 245, 250); fill-opacity: 1; white-space: pre;">Jul 2020</text></g><g class="x2tick"><text text-anchor="middle" x="0" y="383" transform="translate(635.38,0)" style="font-family: 'Open Sans', verdana, arial, sans-serif; font-size: 12px; fill: rgb(242, 245, 250); fill-opacity: 1; white-space: pre;">Oct 2020</text></g><g class="x2tick"><text text-anchor="middle" x="0" y="383" transform="translate(701.74,0)" style="font-family: 'Open Sans', verdana, arial, sans-serif; font-size: 12px; fill: rgb(242, 245, 250); fill-opacity: 1; white-space: pre;">Jan 2021</text></g></g><g class="yaxislayer-above"><g class="y2tick"><text text-anchor="end" x="451.90000000000003" y="4.199999999999999" transform="translate(0,356.5)" style="font-family: 'Open Sans', verdana, arial, sans-serif; font-size: 12px; fill: rgb(242, 245, 250); fill-opacity: 1; white-space: pre;">0</text></g><g class="y2tick"><text text-anchor="end" x="451.90000000000003" y="4.199999999999999" transform="translate(0,319.43)" style="font-family: 'Open Sans', verdana, arial, sans-serif; font-size: 12px; fill: rgb(242, 245, 250); fill-opacity: 1; white-space: pre;">200</text></g><g class="y2tick"><text text-anchor="end" x="451.90000000000003" y="4.199999999999999" transform="translate(0,282.36)" style="font-family: 'Open Sans', verdana, arial, sans-serif; font-size: 12px; fill: rgb(242, 245, 250); fill-opacity: 1; white-space: pre;">400</text></g><g class="y2tick"><text text-anchor="end" x="451.90000000000003" y="4.199999999999999" transform="translate(0,245.29)" style="font-family: 'Open Sans', verdana, arial, sans-serif; font-size: 12px; fill: rgb(242, 245, 250); fill-opacity: 1; white-space: pre;">600</text></g><g class="y2tick"><text text-anchor="end" x="451.90000000000003" y="4.199999999999999" transform="translate(0,208.22)" style="font-family: 'Open Sans', verdana, arial, sans-serif; font-size: 12px; fill: rgb(242, 245, 250); fill-opacity: 1; white-space: pre;">800</text></g><g class="y2tick"><text text-anchor="end" x="451.90000000000003" y="4.199999999999999" transform="translate(0,171.15)" style="font-family: 'Open Sans', verdana, arial, sans-serif; font-size: 12px; fill: rgb(242, 245, 250); fill-opacity: 1; white-space: pre;">1000</text></g><g class="y2tick"><text text-anchor="end" x="451.90000000000003" y="4.199999999999999" transform="translate(0,134.07)" style="font-family: 'Open Sans', verdana, arial, sans-serif; font-size: 12px; fill: rgb(242, 245, 250); fill-opacity: 1; white-space: pre;">1200</text></g></g><g class="overaxes-above"/></g></g><g class="polarlayer"/><g class="ternarylayer"/><g class="geolayer"/><g class="funnelarealayer"/><g class="pielayer"/><g class="treemaplayer"/><g class="sunburstlayer"/><g class="glimages"/><defs id="topdefs-e5b294"><g class="clips"/><clipPath id="legende5b294"><rect width="116" height="124" x="0" y="0"/></clipPath></defs><g class="layer-above"><g class="imagelayer"/><g class="shapelayer"/></g><g class="infolayer"><g class="legend" pointer-events="all" transform="translate(771.5600000000001, 100)"><rect class="bg" shape-rendering="crispEdges" width="116" height="124" x="0" y="0" style="stroke: rgb(68, 68, 68); stroke-opacity: 1; fill: rgb(17, 17, 17); fill-opacity: 1; stroke-width: 0px;"/><g class="scrollbox" transform="translate(0, 0)" clip-path="url('#legende5b294')"><g class="groups"><g class="traces" transform="translate(0, 14.5)" style="opacity: 1;"><text class="legendtext user-select-none" text-anchor="start" x="40" y="4.680000000000001" style="font-family: 'Open Sans', verdana, arial, sans-serif; font-size: 12px; fill: rgb(242, 245, 250); fill-opacity: 1; white-space: pre;">Alameda, CA</text><g class="layers" style="opacity: 1;"><g class="legendfill"/><g class="legendlines"><path class="js-line" d="M5,0h30" style="fill: none; stroke: rgb(230, 25, 75); stroke-opacity: 1; stroke-width: 2px;"/></g><g class="legendsymbols"><g class="legendpoints"/></g></g><rect class="legendtoggle" pointer-events="all" x="0" y="-9.5" width="110.703125" height="19" style="cursor: pointer; fill: rgb(0, 0, 0); fill-opacity: 0;"/></g><g class="traces" transform="translate(0, 33.5)" style="opacity: 1;"><text class="legendtext user-select-none" text-anchor="start" x="40" y="4.680000000000001" style="font-family: 'Open Sans', verdana, arial, sans-serif; font-size: 12px; fill: rgb(242, 245, 250); fill-opacity: 1; white-space: pre;">Weston, WY</text><g class="layers" style="opacity: 1;"><g class="legendfill"/><g class="legendlines"><path class="js-line" d="M5,0h30" style="fill: none; stroke: rgb(60, 180, 75); stroke-opacity: 1; stroke-width: 2px;"/></g><g class="legendsymbols"><g class="legendpoints"/></g></g><rect class="legendtoggle" pointer-events="all" x="0" y="-9.5" width="110.703125" height="19" style="cursor: pointer; fill: rgb(0, 0, 0); fill-opacity: 0;"/></g><g class="traces" transform="translate(0, 52.5)" style="opacity: 1;"><text class="legendtext user-select-none" text-anchor="start" x="40" y="4.680000000000001" style="font-family: 'Open Sans', verdana, arial, sans-serif; font-size: 12px; fill: rgb(242, 245, 250); fill-opacity: 1; white-space: pre;">Stevens, MN</text><g class="layers" style="opacity: 1;"><g class="legendfill"/><g class="legendlines"><path class="js-line" d="M5,0h30" style="fill: none; stroke: rgb(255, 225, 25); stroke-opacity: 1; stroke-width: 2px;"/></g><g class="legendsymbols"><g class="legendpoints"/></g></g><rect class="legendtoggle" pointer-events="all" x="0" y="-9.5" width="110.703125" height="19" style="cursor: pointer; fill: rgb(0, 0, 0); fill-opacity: 0;"/></g><g class="traces" transform="translate(0, 71.5)" style="opacity: 1;"><text class="legendtext user-select-none" text-anchor="start" x="40" y="4.680000000000001" style="font-family: 'Open Sans', verdana, arial, sans-serif; font-size: 12px; fill: rgb(242, 245, 250); fill-opacity: 1; white-space: pre;">Steele, MN</text><g class="layers" style="opacity: 1;"><g class="legendfill"/><g class="legendlines"><path class="js-line" d="M5,0h30" style="fill: none; stroke: rgb(67, 99, 216); stroke-opacity: 1; stroke-width: 2px;"/></g><g class="legendsymbols"><g class="legendpoints"/></g></g><rect class="legendtoggle" pointer-events="all" x="0" y="-9.5" width="110.703125" height="19" style="cursor: pointer; fill: rgb(0, 0, 0); fill-opacity: 0;"/></g><g class="traces" transform="translate(0, 90.5)" style="opacity: 1;"><text class="legendtext user-select-none" text-anchor="start" x="40" y="4.680000000000001" style="font-family: 'Open Sans', verdana, arial, sans-serif; font-size: 12px; fill: rgb(242, 245, 250); fill-opacity: 1; white-space: pre;">Stearns, MN</text><g class="layers" style="opacity: 1;"><g class="legendfill"/><g class="legendlines"><path class="js-line" d="M5,0h30" style="fill: none; stroke: rgb(245, 130, 49); stroke-opacity: 1; stroke-width: 2px;"/></g><g class="legendsymbols"><g class="legendpoints"/></g></g><rect class="legendtoggle" pointer-events="all" x="0" y="-9.5" width="110.703125" height="19" style="cursor: pointer; fill: rgb(0, 0, 0); fill-opacity: 0;"/></g><g class="traces" transform="translate(0, 109.5)" style="opacity: 1;"><text class="legendtext user-select-none" text-anchor="start" x="40" y="4.680000000000001" style="font-family: 'Open Sans', verdana, arial, sans-serif; font-size: 12px; fill: rgb(242, 245, 250); fill-opacity: 1; white-space: pre;">Sibley, MN</text><g class="layers" style="opacity: 1;"><g class="legendfill"/><g class="legendlines"><path class="js-line" d="M5,0h30" style="fill: none; stroke: rgb(145, 30, 180); stroke-opacity: 1; stroke-width: 2px;"/></g><g class="legendsymbols"><g class="legendpoints"/></g></g><rect class="legendtoggle" pointer-events="all" x="0" y="-9.5" width="110.703125" height="19" style="cursor: pointer; fill: rgb(0, 0, 0); fill-opacity: 0;"/></g></g></g><rect class="scrollbar" rx="20" ry="3" width="0" height="0" x="0" y="0" style="fill: rgb(128, 139, 164); fill-opacity: 1;"/></g><g class="g-gtitle"/><g class="g-xtitle"><text class="xtitle" x="232.55" y="410.8" text-anchor="middle" style="font-family: 'Open Sans', verdana, arial, sans-serif; font-size: 14px; fill: rgb(242, 245, 250); opacity: 1; font-weight: normal; white-space: pre;">Date</text></g><g class="g-x2title"><text class="x2title" x="605.45" y="410.8" text-anchor="middle" style="font-family: 'Open Sans', verdana, arial, sans-serif; font-size: 14px; fill: rgb(242, 245, 250); opacity: 1; font-weight: normal; white-space: pre;">Date</text></g><g class="g-ytitle"><text class="ytitle" transform="rotate(-90,34.840625,235)" x="34.840625" y="235" text-anchor="middle" style="font-family: 'Open Sans', verdana, arial, sans-serif; font-size: 14px; fill: rgb(242, 245, 250); opacity: 1; font-weight: normal; white-space: pre;">Cases</text></g><g class="g-y2title"><text class="y2title" transform="rotate(-90,400.403125,235)" x="400.403125" y="235" text-anchor="middle" style="font-family: 'Open Sans', verdana, arial, sans-serif; font-size: 14px; fill: rgb(242, 245, 250); opacity: 1; font-weight: normal; white-space: pre;">Deaths</text></g><g class="annotation" data-index="0" style="opacity: 1;"><g class="annotation-text-g" transform="rotate(0,232.55,89.5)"><g class="cursor-pointer" transform="translate(208, 79)"><rect class="bg" x="0.5" y="0.5" width="48" height="20" style="stroke-width: 1px; stroke: rgb(0, 0, 0); stroke-opacity: 0; fill: rgb(0, 0, 0); fill-opacity: 0;"/><text class="annotation-text" text-anchor="middle" x="24.6875" y="16" style="font-family: 'Open Sans', verdana, arial, sans-serif; font-size: 16px; fill: rgb(242, 245, 250); fill-opacity: 1; white-space: pre;">Cases</text></g></g></g><g class="annotation" data-index="1" style="opacity: 1;"><g class="annotation-text-g" transform="rotate(0,605.45,89.5)"><g class="cursor-pointer" transform="translate(578, 79)"><rect class="bg" x="0.5" y="0.5" width="54" height="20" style="stroke-width: 1px; stroke: rgb(0, 0, 0); stroke-opacity: 0; fill: rgb(0, 0, 0); fill-opacity: 0;"/><text class="annotation-text" text-anchor="middle" x="27.359375" y="16" style="font-family: 'Open Sans', verdana, arial, sans-serif; font-size: 16px; fill: rgb(242, 245, 250); fill-opacity: 1; white-space: pre;">Deaths</text></g></g></g></g></svg>