<svg class="main-svg" xmlns="http://www.w3.org/2000/svg" xmlns:xlink="http://www.w3.org/1999/xlink" width="900" height="450" style="" viewBox="0 0 900 450"><rect x="0" y="0" width="900" height="450" style="fill: rgb(17, 17, 17); fill-opacity: 1;"/><defs id="defs-a9c557"><g class="clips"><clipPath id="clipa9c557xyplot" class="plotclip"><rect width="302.40000000000003" height="270"/></clipPath><clipPath id="clipa9c557x2y2plot" class="plotclip"><rect width="302.4" height="270"/></clipPath><clipPath class="axesclip" id="clipa9c557x"><rect x="80" y="0" width="302.40000000000003" height="450"/></clipPath><clipPath class="axesclip" id="clipa9c557y"><rect x="0" y="100" width="900" height="270"/></clipPath><clipPath class="axesclip" id="clipa9c557xy"><rect x="80" y="100" width="302.40000000000003" height="270"/></clipPath><clipPath class="axesclip" id="clipa9c557y2"><rect x="0" y="100" width="900" height="270"/></clipPath><clipPath class="axesclip" id="clipa9c557xy2"><rect x="80" y="100" width="302.40000000000003" height="270"/></clipPath><clipPath class="axesclip" id="clipa9c557x2"><rect x="449.6" y="0" width="302.4" height="450"/></clipPath><clipPath class="axesclip" id="clipa9c557x2y"><rect x="449.6" y="100" width="302.4" height="270"/></clipPath><clipPath class="axesclip" id="clipa9c557x2y2"><rect x="449.6" y="100" width="302.4" height="270"/></clipPath></g><g class="gradients"/></defs><g class="bglayer"/><g class="layer-below"><g class="imagelayer"/><g class="shapelayer"/></g><g class="cartesianlayer"><g class="subplot xy"><g class="layer-subplot"><g class="shapelayer"/><g class="imagelayer"/></g><g class="gridlayer"><g class="x"><path class="xgrid crisp" transform="translate(130.76,0)" d="M0,100v270" style="stroke: rgb(40, 52, 66); stroke-opacity: 1; stroke-width: 1px;"/><path class="xgrid crisp" transform="translate(196.75,0)" d="M0,100v270" style="stroke: rgb(40, 52, 66); stroke-opacity: 1; stroke-width: 1px;"/><path class="xgrid crisp" transform="translate(263.47,0)" d="M0,100v270" style="stroke: rgb(40, 52, 66); stroke-opacity: 1; stroke-width: 1px;"/><path class="xgrid crisp" transform="translate(330.19,0)" d="M0,100v270" style="stroke: rgb(40, 52, 66); stroke-opacity: 1; stroke-width: 1px;"/></g><g class="y"><path class="ygrid crisp" transform="translate(0,279.02)" d="M80,0h302.40000000000003" style="stroke: rgb(40, 52, 66); stroke-opacity: 1; stroke-width: 1px;"/><path class="ygrid crisp" transform="translate(0,201.55)" d="M80,0h302.40000000000003" style="stroke: rgb(40, 52, 66); stroke-opacity: 1; stroke-width: 1px;"/><path class="ygrid crisp" transform="translate(0,124.07)" d="M80,0h302.40000000000003" style="stroke: rgb(40, 52, 66); stroke-opacity: 1; stroke-width: 1px;"/></g></g><g class="zerolinelayer"><path class="yzl zl crisp" transform="translate(0,356.5)" d="M80,0h302.40000000000003" style="stroke: rgb(40, 52, 66); stroke-opacity: 1; stroke-width: 2px;"/></g><path class="xlines-below"/><path class="ylines-below"/><g class="overlines-below"/><g class="xaxislayer-below"/><g class="yaxislayer-below"/><g class="overaxes-below"/><g class="plot" transform="translate(80, 100)" clip-path="url('#clipa9c557xyplot')"><g class="scatterlayer mlayer"><g class="trace scatter trace0bab42" style="stroke-miterlimit: 2; opacity: 1;"><g class="fills"/><g class="errorbars"/><g class="lines"><path class="js-line" d="M0,256.5L52.21,255.81L52.94,255.67L84.12,252.79L84.85,252.69L111.68,248.33L112.4,248.16L121.11,245.83L121.83,245.27L132.71,241.21L133.43,240.67L139.96,238.64L140.68,238.14L144.31,237.69L145.04,236.05L146.49,235.33L147.21,234.65L149.39,233.94L150.11,233.07L151.56,232.58L152.29,231.96L155.19,230.59L155.91,230.57L158.09,229.2L158.81,228.85L160.99,228.32L161.72,227.92L164.62,226.86L165.34,226.86L168.97,225.79L169.69,225.76L175.49,224.64L176.22,224.52L187.1,222.71L187.82,222.65L211.75,217.76L212.48,217.59L218.28,215.2L219,214.78L223.36,212.76L224.08,212.76L226.26,210.83L226.98,210.53L228.43,209.5L229.16,208.5L230.61,207.32L231.33,206.07L232.06,205.95L232.78,204.23L236.41,200.43L237.13,197.28L239.31,194.11L240.03,194.08L242.21,188.31L242.94,187.15L247.29,179.39L248.01,178.4L250.19,175.19L250.91,173.57L253.81,169.06L254.54,168.05L261.06,155.14L261.79,153.33L263.97,150.46L264.69,149.92L273.39,141.26L274.12,140.84L283.55,134.63L284.27,134.47L300.22,129.9L300.95,129.9L302.4,129.9" style="vector-effect: non-scaling-stroke; fill: none; stroke: rgb(230, 25, 75); stroke-opacity: 1; stroke-width: 2px; opacity: 1;"/></g><g class="points"/><g class="text"/></g><g class="trace scatter traceada215" style="stroke-miterlimit: 2; opacity: 1;"><g class="fills"/><g class="errorbars"/><g class="lines"><path class="js-line" d="M0,256.5L55.11,255.79L55.84,255.74L108.05,252.11L108.78,252L115.3,250.15L116.03,249.9L124.73,245.93L125.46,245.51L128.36,243.79L129.08,243.33L145.04,235.78L145.76,235.53L158.81,231.91L159.54,231.5L176.94,226.7L177.67,226.58L179.84,225.89L180.57,225.89L189.27,223.71L190,223.44L199.42,220.88L200.15,220.66L213.2,215.42L213.93,214.95L217.55,212.46L218.28,211.9L229.88,201.79L230.61,200.71L234.23,196.39L234.96,195.23L236.41,195.23L237.13,192.74L239.31,189.38L240.03,187.9L245.11,180.38L245.84,180.14L248.01,177.96L248.74,176.43L258.89,163.11L259.61,162.22L266.14,156.65L266.87,156.28L271.22,153.73L271.94,152.86L274.12,151.69L274.84,151.28L283.55,148.43L284.27,148.33L294.42,145.86L295.15,145.44L297.32,144.88L298.05,144.81L302.4,143.79" style="vector-effect: non-scaling-stroke; fill: none; stroke: rgb(60, 180, 75); stroke-opacity: 1; stroke-width: 2px; opacity: 1;"/></g><g class="points"/><g class="text"/></g><g class="trace scatter traceb0d6a4" style="stroke-miterlimit: 2; opacity: 1;"><g class="fills"/><g class="errorbars"/><g class="lines"><path class="js-line" d="M0,256.5L60.92,255.8L61.64,255.73L129.81,251.79L130.53,251.76L184.92,247.9L185.65,247.87L212.48,245.68L213.2,245.59L228.43,243.25L229.16,243.15L238.58,240.6L239.31,240.25L253.81,235.49L254.54,235.18L269.77,228.56L270.49,228.3L280.64,225.34L281.37,225.12L302.4,222.22" style="vector-effect: non-scaling-stroke; fill: none; stroke: rgb(255, 225, 25); stroke-opacity: 1; stroke-width: 2px; opacity: 1;"/></g><g class="points"/><g class="text"/></g><g class="trace scatter trace292109" style="stroke-miterlimit: 2; opacity: 1;"><g class="fills"/><g class="errorbars"/><g class="lines"><path class="js-line" d="M0,256.5L52.94,255.75L53.66,255.64L65.99,252.58L66.72,252.34L72.52,250.85L73.24,250.65L79.04,248.95L79.77,248.82L99.35,245.96L100.07,245.92L141.41,243.52L142.14,243.42L195.8,239.71L196.52,239.6L205.23,238.22L205.95,237.92L210.3,236.51L211.03,236.33L218.28,232.46L219,231.97L228.43,225.75L229.16,225.15L232.78,222.11L233.51,221.72L247.29,213.52L248.01,209.44L254.54,204.81L255.26,203.36L256.71,202.88L257.44,202.57L259.61,200.92L260.34,200.34L269.04,195.45L269.77,195.12L272.67,193.69L273.39,193.47L302.4,185.42" style="vector-effect: non-scaling-stroke; fill: none; stroke: rgb(67, 99, 216); stroke-opacity: 1; stroke-width: 2px; opacity: 1;"/></g><g class="points"/><g class="text"/></g><g class="trace scatter trace2c54b6" style="stroke-miterlimit: 2; opacity: 1;"><g class="fills"/><g class="errorbars"/><g class="lines"><path class="js-line" d="M0,256.5L63.09,255.75L63.82,255.74L87.02,254.67L87.75,254.64L100.8,253.06L101.53,252.83L118.2,248L118.93,247.69L139.23,240.82L139.96,240.71L152.29,238.91L153.01,238.85L167.52,236.79L168.24,236.78L171.14,235.85L171.87,235.74L184.2,233.75L184.92,233.46L200.87,229.84L201.6,229.62L214.65,225.14L215.38,224.7L217.55,224.33L218.28,224.33L219.73,223.05L220.45,223.05L221.18,223.05L221.91,221.58L223.36,220.94L224.08,220.94L225.53,219.64L226.26,219.64L229.88,217.51L230.61,216.81L239.31,209.28L240.03,208.28L244.39,203.92L245.11,203.92L248.74,199.42L249.46,198.66L250.19,198.66L250.91,197.25L252.36,193.96L253.09,193.31L257.44,186.64L258.16,186.38L262.52,180.07L263.24,179.6L265.42,176.24L266.14,175.49L271.94,169.9L272.67,169.44L274.84,167.92L275.57,166.51L283.55,161.56L284.27,161.33L291.52,157.88L292.25,157.58L296.6,155.84L297.32,155.46L302.4,153.9" style="vector-effect: non-scaling-stroke; fill: none; stroke: rgb(245, 130, 49); stroke-opacity: 1; stroke-width: 2px; opacity: 1;"/></g><g class="points"/><g class="text"/></g><g class="trace scatter tracea89b04" style="stroke-miterlimit: 2; opacity: 1;"><g class="fills"/><g class="errorbars"/><g class="lines"><path class="js-line" d="M0,256.5L41.34,255.92L42.06,255.33L47.14,249.28L47.86,247.92L51.49,240.1L52.21,237.87L59.46,218.76L60.19,217.37L62.37,212.28L63.09,211.28L65.99,207.6L66.72,206.72L70.34,202.13L71.07,201.48L75.42,198.93L76.14,198.63L81.22,196.71L81.95,196.47L94.27,193.91L95,193.78L103.7,192.7L104.43,192.65L138.51,189.56L139.23,189.45L174.04,185.14L174.77,184.98L193.62,181.7L194.35,181.54L208.85,177.6L209.58,177.22L215.38,173.31L216.1,172.8L220.45,169.31L221.18,168.63L226.26,163.25L226.98,162.44L228.43,160.45L229.16,159.27L233.51,152.37L234.23,151.17L242.94,135.69L243.66,134.11L249.46,120.29L250.19,117.88L266.14,70.66L266.87,69L272.67,55.6L273.39,54.46L276.29,51.5L277.02,48.51L288.62,32.17L289.35,31.37L298.77,18.32L299.5,17.43L300.95,16.53L301.67,14.29L302.4,13.5" style="vector-effect: non-scaling-stroke; fill: none; stroke: rgb(145, 30, 180); stroke-opacity: 1; stroke-width: 2px; opacity: 1;"/></g><g class="points"/><g class="text"/></g></g></g><g class="overplot"/><path class="xlines-above crisp" d="M0,0" style="fill: none;"/><path class="ylines-above crisp" d="M0,0" style="fill: none;"/><g class="overlines-above"/><g class="xaxislayer-above"><g class="xtick"><text text-anchor="middle" x="0" y="383" transform="translate(130.76,0)" style="font-family: 'Open Sans', verdana, arial, sans-serif; font-size: 12px; fill: rgb(242, 245, 250); fill-opacity: 1; white-space: pre;">Apr 2020</text></g><g class="xtick"><text text-anchor="middle" x="0" y="383" transform="translate(196.75,0)" style="font-family: 'Open Sans', verdana, arial, sans-serif; font-size: 12px; fill: rgb(242, 245, 250); fill-opacity: 1; white-space: pre;">Jul 2020</text></g><g class="xtick"><text text-anchor="middle" x="0" y="383" transform="translate(263.47,0)" style="font-family: 'Open Sans', verdana, arial, sans-serif; font-size: 12px; fill: rgb(242, 245, 250); fill-opacity: 1; white-space: pre;">Oct 2020</text></g><g class="xtick"><text text-anchor="middle" x="0" y="383" transform="translate(330.19,0)" style="font-family: 'Open Sans', verdana, arial, sans-serif; font-size: 12px; fill: rgb(242, 245, 250); fill-opacity: 1; white-space: pre;">Jan 2021</text></g></g><g class="yaxislayer-above"><g class="ytick"><text text-anchor="end" x="79" y="4.199999999999999" transform="translate(0,356.5)" style="font-family: 'Open Sans', verdana, arial, sans-serif; font-size: 12px; fill: rgb(242, 245, 250); fill-opacity: 1; white-space: pre;">0</text></g><g class="ytick"><text text-anchor="end" x="79" y="4.199999999999999" transform="translate(0,279.02)" style="font-family: 'Open Sans', verdana, arial, sans-serif; font-size: 12px; fill: rgb(242, 245, 250); fill-opacity: 1; white-space: pre;">50k</text></g><g class="ytick"><text text-anchor="end" x="79" y="4.199999999999999" transform="translate(0,201.55)" style="font-family: 'Open Sans', verdana, arial, sans-serif; font-size: 12px; fill: rgb(242, 245, 250); fill-opacity: 1; white-space: pre;">100k</text></g><g class="ytick"><text text-anchor="end" x="79" y="4.199999999999999" transform="translate(0,124.07)" style="font-family: 'Open Sans', verdana, arial, sans-serif; font-size: 12px; fill: rgb(242, 245, 250); fill-opacity: 1; white-space: pre;">150k</text></g></g><g class="overaxes-above"/></g><g class="subplot x2y2"><g class="layer-subplot"><g class="shapelayer"/><g class="imagelayer"/></g><g class="gridlayer"><g class="x2"><path class="x2grid crisp" transform="translate(500.36,0)" d="M0,100v270" style="stroke: rgb(40, 52, 66); stroke-opacity: 1; stroke-width: 1px;"/><path class="x2grid crisp" transform="translate(566.35,0)" d="M0,100v270" style="stroke: rgb(40, 52, 66); stroke-opacity: 1; stroke-width: 1px;"/><path class="x2grid crisp" transform="translate(633.07,0)" d="M0,100v270" style="stroke: rgb(40, 52, 66); stroke-opacity: 1; stroke-width: 1px;"/><path class="x2grid crisp" transform="translate(699.79,0)" d="M0,100v270" style="stroke: rgb(40, 52, 66); stroke-opacity: 1; stroke-width: 1px;"/></g><g class="y2"><path class="y2grid crisp" transform="translate(0,315.81)" d="M449.6,0h302.4" style="stroke: rgb(40, 52, 66); stroke-opacity: 1; stroke-width: 1px;"/><path class="y2grid crisp" transform="translate(0,275.12)" d="M449.6,0h302.4" style="stroke: rgb(40, 52, 66); stroke-opacity: 1; stroke-width: 1px;"/><path class="y2grid crisp" transform="translate(0,234.43)" d="M449.6,0h302.4" style="stroke: rgb(40, 52, 66); stroke-opacity: 1; stroke-width: 1px;"/><path class="y2grid crisp" transform="translate(0,193.74)" d="M449.6,0h302.4" style="stroke: rgb(40, 52, 66); stroke-opacity: 1; stroke-width: 1px;"/><path class="y2grid crisp" transform="translate(0,153.05)" d="M449.6,0h302.4" style="stroke: rgb(40, 52, 66); stroke-opacity: 1; stroke-width: 1px;"/><path class="y2grid crisp" transform="translate(0,112.36)" d="M449.6,0h302.4" style="stroke: rgb(40, 52, 66); stroke-opacity: 1; stroke-width: 1px;"/></g></g><g class="zerolinelayer"><path class="y2zl zl crisp" transform="translate(0,356.5)" d="M449.6,0h302.4" style="stroke: rgb(40, 52, 66); stroke-opacity: 1; stroke-width: 2px;"/></g><path class="xlines-below"/><path class="ylines-below"/><g class="overlines-below"/><g class="xaxislayer-below"/><g class="yaxislayer-below"/><g class="overaxes-below"/><g class="plot" transform="translate(449.6, 100)" clip-path="url('#clipa9c557x2y2plot')"><g class="scatterlayer mlayer"><g class="trace scatter traceac465f" style="stroke-miterlimit: 2; opacity: 1;"><g class="fills"/><g class="errorbars"/><g class="lines"><path class="js-line" d="M0,256.5L51.49,255.77L52.21,255.52L58.01,254.79L58.74,254.63L60.19,254.63L60.92,253.57L64.54,253.08L65.27,253L78.32,250.72L79.04,250.72L81.95,250.07L82.67,249.83L111.68,246.57L112.4,246.08L119.65,245.11L120.38,245.11L125.46,244.46L126.18,244.13L137.78,241.69L138.51,241.69L139.96,241.12L140.68,241.12L143.59,240.79L144.31,240.79L145.76,239.82L146.49,239.82L148.66,238.68L149.39,238.68L159.54,236.4L160.26,235.5L161.72,235.59L162.44,234.2L163.89,232.41L164.62,232.17L168.24,231.84L168.97,230.46L169.69,230.46L170.42,229.48L171.14,229.4L171.87,227.53L173.32,226.8L174.04,226.39L176.22,226.06L176.94,224.76L180.57,223.46L181.29,223.46L184.2,222.32L184.92,221.83L187.1,221.75L187.82,220.69L191.45,221.02L192.17,221.43L192.9,220.53L193.62,221.26L195.07,220.53L195.8,221.26L197.97,221.1L198.7,219.39L208.85,218.66L209.58,218.17L216.1,216.62L216.83,216.62L221.18,215.89L221.91,215.89L224.81,215.4L225.53,214.91L233.51,213.69L234.23,213.12L238.58,210.68L239.31,209.79L240.03,209.79L240.76,208.89L242.94,208.65L243.66,206.94L245.84,206.13L246.56,205.64L249.46,205.64L250.19,203.11L253.81,203.11L254.54,199.78L255.26,199.78L255.99,197.17L258.16,196.6L258.89,195.06L263.24,194.33L263.97,194.24L264.69,194.16L265.42,187.98L266.87,186.84L267.59,183.75L269.04,182.77L269.77,180.9L270.49,180.25L271.22,178.46L272.67,176.75L273.39,176.59L277.74,171.78L278.47,171.78L281.37,167.96L282.09,165.35L285.72,164.87L286.45,161.2L287.17,161.2L287.9,158.84L289.35,158.84L290.07,157.38L292.97,155.43L293.7,155.43L295.15,155.26L295.87,152.25L299.5,150.62L300.22,149.81L302.4,149.81" style="vector-effect: non-scaling-stroke; fill: none; stroke: rgb(230, 25, 75); stroke-opacity: 1; stroke-width: 2px; opacity: 1;"/></g><g class="points"/><g class="text"/></g><g class="trace scatter trace6d633c" style="stroke-miterlimit: 2; opacity: 1;"><g class="fills"/><g class="errorbars"/><g class="lines"><path class="js-line" d="M0,256.5L59.46,255.85L60.19,255.69L65.27,255.2L65.99,254.06L71.79,252.76L72.52,252.59L76.87,251.86L77.59,251.7L85.57,250.15L86.3,249.75L95,248.12L95.72,248.12L101.53,247.39L102.25,247.06L115.3,245.43L116.03,244.94L126.91,242.01L127.63,241.61L131.98,240.88L132.71,240.31L136.33,239.82L137.06,239.41L138.51,238.19L139.23,238.03L142.86,237.46L143.59,236.64L146.49,236.32L147.21,235.1L152.29,234.2L153.01,233.88L156.64,233.06L157.36,233.06L158.81,232.98L159.54,231.84L168.24,231.11L168.97,230.62L171.14,230.62L171.87,229.81L174.77,229.08L175.49,229.08L176.94,228.67L177.67,228.1L182.02,227.94L182.75,227.85L186.37,227.69L187.1,227.77L192.9,227.04L193.62,226.88L195.07,226.23L195.8,226.23L202.33,225.82L203.05,225.33L209.58,224.68L210.3,223.7L212.48,223.22L213.2,220.53L214.65,219.55L215.38,218.98L216.83,218.98L217.55,217.76L220.45,216.54L221.18,216.54L226.98,215.81L227.71,215.73L229.16,214.75L229.88,214.59L233.51,213.12L234.23,211.9L235.68,211.09L236.41,211.09L237.86,210.52L238.58,210.11L239.31,210.03L240.03,208.81L241.48,207.1L242.21,207.1L243.66,205.23L244.39,202.95L246.56,202.95L247.29,201.57L248.74,200.02L249.46,199.78L250.91,197.99L251.64,197.99L253.09,197.5L253.81,196.44L254.54,195.63L255.26,193.35L256.71,192.7L257.44,192.7L258.89,185.54L259.61,184.32L260.34,184.23L261.06,181.63L263.24,181.63L263.97,178.7L264.69,178.62L265.42,175.61L266.87,174.55L267.59,174.55L269.77,166.9L270.49,166.01L271.22,166.01L271.94,164.7L272.67,164.7L273.39,161.77L275.57,156.81L276.29,155.91L279.19,155.18L279.92,153.55L282.09,150.87L282.82,150.87L286.45,147.94L287.17,147.94L289.35,147.29L290.07,146.15L292.25,144.68L292.97,144.68L293.7,144.68L294.42,143.63L295.15,143.63L295.87,142.41L299.5,141.84L300.22,141.18L302.4,140.53" style="vector-effect: non-scaling-stroke; fill: none; stroke: rgb(60, 180, 75); stroke-opacity: 1; stroke-width: 2px; opacity: 1;"/></g><g class="points"/><g class="text"/></g><g class="trace scatter trace5422be" style="stroke-miterlimit: 2; opacity: 1;"><g class="fills"/><g class="errorbars"/><g class="lines"><path class="js-line" d="M0,256.5L54.39,256.01L55.11,255.69L58.01,253.81L58.74,253.81L60.19,253.81L60.92,252.27L65.99,249.83L66.72,249.75L68.17,249.26L68.89,249.26L71.07,248.52L71.79,248.36L78.32,247.55L79.04,247.55L91.37,246.82L92.1,245.84L96.45,245.6L97.17,245.6L116.03,245.03L116.75,244.62L118.93,243.64L119.65,243.64L121.83,243.07L122.56,242.5L132.71,242.1L133.43,242.1L147.21,241.36L147.94,241.28L170.42,240.63L171.14,240.39L173.32,239.82L174.04,239.74L178.39,239.41L179.12,239.33L189.27,238.6L190,238.52L199.42,237.86L200.15,237.62L218.28,236.89L219,236.81L227.71,236.07L228.43,235.75L230.61,235.34L231.33,235.34L237.13,234.61L237.86,234.53L258.16,231.6L258.89,231.19L277.02,227.77L277.74,227.77L282.82,227.37L283.55,227.37L286.45,226.96L287.17,226.23L292.97,215.89L293.7,215.32L295.15,213.29L295.87,212.8L300.22,211.66L300.95,211.25L302.4,210.6" style="vector-effect: non-scaling-stroke; fill: none; stroke: rgb(255, 225, 25); stroke-opacity: 1; stroke-width: 2px; opacity: 1;"/></g><g class="points"/><g class="text"/></g><g class="trace scatter trace93ed61" style="stroke-miterlimit: 2; opacity: 1;"><g class="fills"/><g class="errorbars"/><g class="lines"><path class="js-line" d="M0,256.5L54.39,255.85L55.11,255.52L57.29,254.14L58.01,254.14L60.19,253.16L60.92,252.51L63.09,250.56L63.82,250.48L65.99,249.26L66.72,249.26L68.89,246.65L69.62,246.57L70.34,246.41L71.07,245.43L73.24,243.4L73.97,243.24L74.69,243.24L75.42,241.85L83.4,234.69L84.12,234.36L87.02,232.9L87.75,232.17L92.82,229.89L93.55,229.32L99.35,226.47L100.07,226.06L103.7,223.54L104.43,223.38L105.88,222.73L106.6,222.73L110.95,222.24L111.68,221.91L113.13,221.43L113.85,217.44L117.48,215.57L118.2,214.75L124.01,212.07L124.73,212.07L127.63,211.09L128.36,211.17L135.61,210.44L136.33,210.19L142.86,209.46L143.59,209.46L157.36,208.89L158.09,208.65L162.44,208.32L163.17,208.32L183.47,206.78L184.2,206.78L195.8,206.21L196.52,206.21L200.87,205.47L201.6,205.31L205.23,204.82L205.95,204.74L219,202.95L219.73,202.79L223.36,201.73L224.08,201.73L226.98,201.57L227.71,200.84L232.78,199.21L233.51,198.31L240.03,195.06L240.76,194.98L242.94,194.41L243.66,193.84L248.01,191.88L248.74,190.42L253.81,187.25L254.54,185.94L255.99,183.91L256.71,183.91L258.16,183.42L258.89,182.28L259.61,182.28L260.34,181.31L263.97,179.84L264.69,178.95L266.14,177.56L266.87,177.32L270.49,174.63L271.22,173.74L274.84,171.87L275.57,171.13L279.19,169.75L279.92,168.61L282.82,167.63L283.55,167.55L285,166.33L285.72,166.09L289.35,164.38L290.07,163.65L293.7,162.59L294.42,161.37L298.05,160.55L298.77,160.06L300.95,158.68L301.67,158.6L302.4,158.6" style="vector-effect: non-scaling-stroke; fill: none; stroke: rgb(67, 99, 216); stroke-opacity: 1; stroke-width: 2px; opacity: 1;"/></g><g class="points"/><g class="text"/></g><g class="trace scatter trace4cd652" style="stroke-miterlimit: 2; opacity: 1;"><g class="fills"/><g class="errorbars"/><g class="lines"><path class="js-line" d="M0,256.5L59.46,255.85L60.19,255.69L70.34,254.71L71.07,253.73L74.69,253.08L75.42,253.08L88.47,252.43L89.2,252.19L100.8,251.45L101.53,251.21L106.6,250.8L107.33,250.8L110.23,250.48L110.95,250.4L116.03,249.91L116.75,249.83L121.11,249.26L121.83,248.77L124.01,248.2L124.73,248.04L126.91,247.87L127.63,246.57L132.71,245.03L133.43,244.37L137.78,242.91L138.51,242.18L143.59,241.12L144.31,241.12L145.76,239.57L146.49,239.17L147.94,238.43L148.66,238.43L152.29,237.21L153.01,236.97L155.91,236.64L156.64,236.56L163.17,234.85L163.89,234.85L175.49,232.98L176.22,232.74L179.84,232.17L180.57,232.17L187.1,231.03L187.82,230.54L192.17,229.81L192.9,229.64L199.42,229.08L200.15,228.83L216.1,225.9L216.83,225.9L221.18,225.58L221.91,224.27L224.08,223.87L224.81,223.79L226.98,223.38L227.71,222.97L233.51,221.67L234.23,221.67L237.13,220.29L237.86,220.29L241.48,218.74L242.21,218.74L243.66,218.01L244.39,217.93L245.84,217.44L246.56,217.03L248.01,216.3L248.74,215.73L250.91,214.91L251.64,214.02L253.09,213.86L253.81,212.72L256.71,209.79L257.44,209.71L259.61,209.06L260.34,207.67L262.52,205.64L263.24,205.64L267.59,203.28L268.32,203.2L269.04,202.55L269.77,199.78L277.74,194.16L278.47,194.16L282.82,190.34L283.55,190.34L289.35,187.82L290.07,187.16L298.05,183.5L298.77,183.5L300.95,182.85L301.67,182.2L302.4,182.12" style="vector-effect: non-scaling-stroke; fill: none; stroke: rgb(245, 130, 49); stroke-opacity: 1; stroke-width: 2px; opacity: 1;"/></g><g class="points"/><g class="text"/></g><g class="trace scatter trace195b60" style="stroke-miterlimit: 2; opacity: 1;"><g class="fills"/><g class="errorbars"/><g class="lines"><path class="js-line" d="M0,256.5L44.96,255.93L45.69,255.12L47.14,254.3L47.86,253.65L48.59,253.65L49.31,252.59L51.49,248.77L52.21,244.86L52.94,244.37L53.66,225.49L55.84,210.44L56.56,192.37L58.74,172.68L59.46,170.48L60.92,170.48L61.64,166.25L63.09,166.25L63.82,152.25L68.89,127.35L69.62,124.66L75.42,108.55L76.14,102.61L78.32,98.62L79.04,96.75L81.95,92.44L82.67,91.54L92.1,84.46L92.82,84.14L95.72,83.41L96.45,83.16L100.07,81.94L100.8,81.53L102.25,81.45L102.98,80.48L107.33,79.82L108.05,79.5L117.48,78.77L118.2,78.69L144.31,77.95L145.04,77.87L191.45,77.14L192.17,77.06L203.05,76.33L203.78,76.24L212.48,75.51L213.2,75.35L217.55,74.7L218.28,74.53L232.78,71.12L233.51,70.55L234.96,69.9L235.68,69.81L243.66,67.29L244.39,64.77L246.56,64.77L247.29,63.96L250.91,60.46L251.64,59.56L261.06,50.69L261.79,49.8L269.77,40.44L270.49,39.79L271.94,38.65L272.67,37.83L274.84,35.88L275.57,34.74L279.19,30.18L279.92,29.45L287.9,22.53L288.62,22.53L290.8,20.25L291.52,19.36L292.97,19.03L293.7,18.38L296.6,16.35L297.32,15.94L301.67,13.5L302.4,13.5" style="vector-effect: non-scaling-stroke; fill: none; stroke: rgb(145, 30, 180); stroke-opacity: 1; stroke-width: 2px; opacity: 1;"/></g><g class="points"/><g class="text"/></g></g></g><g class="overplot"/><path class="xlines-above crisp" d="M0,0" style="fill: none;"/><path class="ylines-above crisp" d="M0,0" style="fill: none;"/><g class="overlines-above"/><g class="xaxislayer-above"><g class="x2tick"><text text-anchor="middle" x="0" y="383" transform="translate(500.36,0)" style="font-family: 'Open Sans', verdana, arial, sans-serif; font-size: 12px; fill: rgb(242, 245, 250); fill-opacity: 1; white-space: pre;">Apr 2020</text></g><g class="x2tick"><text text-anchor="middle" x="0" y="383" transform="translate(566.35,0)" style="font-family: 'Open Sans', verdana, arial, sans-serif; font-size: 12px; fill: rgb(242, 245, 250); fill-opacity: 1; white-space: pre;">Jul 2020</text></g><g class="x2tick"><text text-anchor="middle" x="0" y="383" transform="translate(633.07,0)" style="font-family: 'Open Sans', verdana, arial, sans-serif; font-size: 12px; fill: rgb(242, 245, 250); fill-opacity: 1; white-space: pre;">Oct 2020</text></g><g class="x2tick"><text text-anchor="middle" x="0" y="383" transform="translate(699.79,0)" style="font-family: 'Open Sans', verdana, arial, sans-serif; font-size: 12px; fill: rgb(242, 245, 250); fill-opacity: 1; white-space: pre;">Jan 2021</text></g></g><g class="yaxislayer-above"><g class="y2tick"><text text-anchor="end" x="448.6" y="4.199999999999999" transform="translate(0,356.5)" style="font-family: 'Open Sans', verdana, arial, sans-serif; font-size: 12px; fill: rgb(242, 245, 250); fill-opacity: 1; white-space: pre;">0</text></g><g class="y2tick"><text text-anchor="end" x="448.6" y="4.199999999999999" transform="translate(0,315.81)" style="font-family: 'Open Sans', verdana, arial, sans-serif; font-size: 12px; fill: rgb(242, 245, 250); fill-opacity: 1; white-space: pre;">500</text></g><g class="y2tick"><text text-anchor="end" x="448.6" y="4.199999999999999" transform="translate(0,275.12)" style="font-family: 'Open Sans', verdana, arial, sans-serif; font-size: 12px; fill: rgb(242, 245, 250); fill-opacity: 1; white-space: pre;">1000</text></g><g class="y2tick"><text text-anchor="end" x="448.6" y="4.199999999999999" transform="translate(0,234.43)" style="font-family: 'Open Sans', verdana, arial, sans-serif; font-size: 12px; fill: rgb(242, 245, 250); fill-opacity: 1; white-space: pre;">1500</text></g><g class="y2tick"><text text-anchor="end" x="448.6" y="4.199999999999999" transform="translate(0,193.74)" style="font-family: 'Open Sans', verdana, arial, sans-serif; font-size: 12px; fill: rgb(242, 245, 250); fill-opacity: 1; white-space: pre;">2000</text></g><g class="y2tick"><text text-anchor="end" x="448.6" y="4.199999999999999" transform="translate(0,153.05)" style="font-family: 'Open Sans', verdana, arial, sans-serif; font-size: 12px; fill: rgb(242, 245, 250); fill-opacity: 1; white-space: pre;">2500</text></g><g class="y2tick"><text text-anchor="end" x="448.6" y="4.199999999999999" transform="translate(0,112.36)" style="font-family: 'Open Sans', verdana, arial, sans-serif; font-size: 12px; fill: rgb(242, 245, 250); fill-opacity: 1; white-space: pre;">3000</text></g></g><g class="overaxes-above"/></g></g><g class="polarlayer"/><g class="ternarylayer"/><g class="geolayer"/><g class="funnelarealayer"/><g class="pielayer"/><g class="treemaplayer"/><g class="sunburstlayer"/><g class="glimages"/><defs id="topdefs-a9c557"><g class="clips"/><clipPath id="legenda9c557"><rect width="123" height="124" x="0" y="0"/></clipPath></defs><g class="layer-above"><g class="imagelayer"/><g class="shapelayer"/></g><g class="infolayer"><g class="legend" pointer-events="all" transform="translate(765.44, 100)"><rect class="bg" shape-rendering="crispEdges" width="123" height="124" x="0" y="0" style="stroke: rgb(68, 68, 68); stroke-opacity: 1; fill: rgb(17, 17, 17); fill-opacity: 1; stroke-width: 0px;"/><g class="scrollbox" transform="translate(0, 0)" clip-path="url('#legenda9c557')"><g class="groups"><g class="traces" transform="translate(0, 14.5)" style="opacity: 1;"><text class="legendtext user-select-none" text-anchor="start" x="40" y="4.680000000000001" style="font-family: 'Open Sans', verdana, arial, sans-serif; font-size: 12px; fill: rgb(242, 245, 250); fill-opacity: 1; white-space: pre;">Alameda, CA</text><g class="layers" style="opacity: 1;"><g class="legendfill"/><g class="legendlines"><path class="js-line" d="M5,0h30" style="fill: none; stroke: rgb(230, 25, 75); stroke-opacity: 1; stroke-width: 2px;"/></g><g class="legendsymbols"><g class="legendpoints"/></g></g><rect class="legendtoggle" pointer-events="all" x="0" y="-9.5" width="117.703125" height="19" style="cursor: pointer; fill: rgb(0, 0, 0); fill-opacity: 0;"/></g><g class="traces" transform="translate(0, 33.5)" style="opacity: 1;"><text class="legendtext user-select-none" text-anchor="start" x="40" y="4.680000000000001" style="font-family: 'Open Sans', verdana, arial, sans-serif; font-size: 12px; fill: rgb(242, 245, 250); fill-opacity: 1; white-space: pre;">Jefferson, AL</text><g class="layers" style="opacity: 1;"><g class="legendfill"/><g class="legendlines"><path class="js-line" d="M5,0h30" style="fill: none; stroke: rgb(60, 180, 75); stroke-opacity: 1; stroke-width: 2px;"/></g><g class="legendsymbols"><g class="legendpoints"/></g></g><rect class="legendtoggle" pointer-events="all" x="0" y="-9.5" width="117.703125" height="19" style="cursor: pointer; fill: rgb(0, 0, 0); fill-opacity: 0;"/></g><g class="traces" transform="translate(0, 52.5)" style="opacity: 1;"><text class="legendtext user-select-none" text-anchor="start" x="40" y="4.680000000000001" style="font-family: 'Open Sans', verdana, arial, sans-serif; font-size: 12px; fill: rgb(242, 245, 250); fill-opacity: 1; white-space: pre;">Henrico, VA</text><g class="layers" style="opacity: 1;"><g class="legendfill"/><g class="legendlines"><path class="js-line" d="M5,0h30" style="fill: none; stroke: rgb(255, 225, 25); stroke-opacity: 1; stroke-width: 2px;"/></g><g class="legendsymbols"><g class="legendpoints"/></g></g><rect class="legendtoggle" pointer-events="all" x="0" y="-9.5" width="117.703125" height="19" style="cursor: pointer; fill: rgb(0, 0, 0); fill-opacity: 0;"/></g><g class="traces" transform="translate(0, 71.5)" style="opacity: 1;"><text class="legendtext user-select-none" text-anchor="start" x="40" y="4.680000000000001" style="font-family: 'Open Sans', verdana, arial, sans-serif; font-size: 12px; fill: rgb(242, 245, 250); fill-opacity: 1; white-space: pre;">Camden, NJ</text><g class="layers" style="opacity: 1;"><g class="legendfill"/><g class="legendlines"><path class="js-line" d="M5,0h30" style="fill: none; stroke: rgb(67, 99, 216); stroke-opacity: 1; stroke-width: 2px;"/></g><g class="legendsymbols"><g class="legendpoints"/></g></g><rect class="legendtoggle" pointer-events="all" x="0" y="-9.5" width="117.703125" height="19" style="cursor: pointer; fill: rgb(0, 0, 0); fill-opacity: 0;"/></g><g class="traces" transform="translate(0, 90.5)" style="opacity: 1;"><text class="legendtext user-select-none" text-anchor="start" x="40" y="4.680000000000001" style="font-family: 'Open Sans', verdana, arial, sans-serif; font-size: 12px; fill: rgb(242, 245, 250); fill-opacity: 1; white-space: pre;">Greenville, SC</text><g class="layers" style="opacity: 1;"><g class="legendfill"/><g class="legendlines"><path class="js-line" d="M5,0h30" style="fill: none; stroke: rgb(245, 130, 49); stroke-opacity: 1; stroke-width: 2px;"/></g><g class="legendsymbols"><g class="legendpoints"/></g></g><rect class="legendtoggle" pointer-events="all" x="0" y="-9.5" width="117.703125" height="19" style="cursor: pointer; fill: rgb(0, 0, 0); fill-opacity: 0;"/></g><g class="traces" transform="translate(0, 109.5)" style="opacity: 1;"><text class="legendtext user-select-none" text-anchor="start" x="40" y="4.680000000000001" style="font-family: 'Open Sans', verdana, arial, sans-serif; font-size: 12px; fill: rgb(242, 245, 250); fill-opacity: 1; white-space: pre;">Nassau, NY</text><g class="layers" style="opacity: 1;"><g class="legendfill"/><g class="legendlines"><path class="js-line" d="M5,0h30" style="fill: none; stroke: rgb(145, 30, 180); stroke-opacity: 1; stroke-width: 2px;"/></g><g class="legendsymbols"><g class="legendpoints"/></g></g><rect class="legendtoggle" pointer-events="all" x="0" y="-9.5" width="117.703125" height="19" style="cursor: pointer; fill: rgb(0, 0, 0); fill-opacity: 0;"/></g></g></g><rect class="scrollbar" rx="20" ry="3" width="0" height="0" x="0" y="0" style="fill: rgb(128, 139, 164); fill-opacity: 1;"/></g><g class="g-gtitle"/><g class="g-xtitle"><text class="xtitle" x="231.20000000000002" y="410.8" text-anchor="middle" style="font-family: 'Open Sans', verdana, arial, sans-serif; font-size: 14px; fill: rgb(242, 245, 250); opacity: 1; font-weight: normal; white-space: pre;">Date</text></g><g class="g-x2title"><text class="x2title" x="600.8" y="410.8" text-anchor="middle" style="font-family: 'Open Sans', verdana, arial, sans-serif; font-size: 14px; fill: rgb(242, 245, 250); opacity: 1; font-weight: normal; white-space: pre;">Date</text></g><g class="g-ytitle"><text class="ytitle" transform="rotate(-90,28.168750000000003,235)" x="28.168750000000003" y="235" text-anchor="middle" style="font-family: 'Open Sans', verdana, arial, sans-serif; font-size: 14px; fill: rgb(242, 245, 250); opacity: 1; font-weight: normal; white-space: pre;">Cases</text></g><g class="g-y2title"><text class="y2title" transform="rotate(-90,397.090625,235)" x="397.090625" y="235" text-anchor="middle" style="font-family: 'Open Sans', verdana, arial, sans-serif; font-size: 14px; fill: rgb(242, 245, 250); opacity: 1; font-weight: normal; white-space: pre;">Deaths</text></g><g class="annotation" data-index="0" style="opacity: 1;"><g class="annotation-text-g" transform="rotate(0,231.20000000000002,89.5)"><g class="cursor-pointer" transform="translate(207, 79)"><rect class="bg" x="0.5" y="0.5" width="48" height="20" style="stroke-width: 1px; stroke: rgb(0, 0, 0); stroke-opacity: 0; fill: rgb(0, 0, 0); fill-opacity: 0;"/><text class="annotation-text" text-anchor="middle" x="24.6875" y="16" style="font-family: 'Open Sans', verdana, arial, sans-serif; font-size: 16px; fill: rgb(242, 245, 250); fill-opacity: 1; white-space: pre;">Cases</text></g></g></g><g class="annotation" data-index="1" style="opacity: 1;"><g class="annotation-text-g" transform="rotate(0,600.8000000000001,89.5)"><g class="cursor-pointer" transform="translate(573, 79)"><rect class="bg" x="0.5" y="0.5" width="54" height="20" style="stroke-width: 1px; stroke: rgb(0, 0, 0); stroke-opacity: 0; fill: rgb(0, 0, 0); fill-opacity: 0;"/><text class="annotation-text" text-anchor="middle" x="27.359375" y="16" style="font-family: 'Open Sans', verdana, arial, sans-serif; font-size: 16px; fill: rgb(242, 245, 250); fill-opacity: 1; white-space: pre;">Deaths</text></g></g></g></g></svg>