<svg class="main-svg" xmlns="http://www.w3.org/2000/svg" xmlns:xlink="http://www.w3.org/1999/xlink" width="900" height="450" style="" viewBox="0 0 900 450"><rect x="0" y="0" width="900" height="450" style="fill: rgb(17, 17, 17); fill-opacity: 1;"/><defs id="defs-6115f0"><g class="clips"><clipPath id="clip6115f0xyplot" class="plotclip"><rect width="305.1" height="270"/></clipPath><clipPath id="clip6115f0x2y2plot" class="plotclip"><rect width="305.09999999999997" height="270"/></clipPath><clipPath class="axesclip" id="clip6115f0x"><rect x="80" y="0" width="305.1" height="450"/></clipPath><clipPath class="axesclip" id="clip6115f0y"><rect x="0" y="100" width="900" height="270"/></clipPath><clipPath class="axesclip" id="clip6115f0xy"><rect x="80" y="100" width="305.1" height="270"/></clipPath><clipPath class="axesclip" id="clip6115f0y2"><rect x="0" y="100" width="900" height="270"/></clipPath><clipPath class="axesclip" id="clip6115f0xy2"><rect x="80" y="100" width="305.1" height="270"/></clipPath><clipPath class="axesclip" id="clip6115f0x2"><rect x="452.90000000000003" y="0" width="305.09999999999997" height="450"/></clipPath><clipPath class="axesclip" id="clip6115f0x2y"><rect x="452.90000000000003" y="100" width="305.09999999999997" height="270"/></clipPath><clipPath class="axesclip" id="clip6115f0x2y2"><rect x="452.90000000000003" y="100" width="305.09999999999997" height="270"/></clipPath></g><g class="gradients"/></defs><g class="bglayer"/><g class="layer-below"><g class="imagelayer"/><g class="shapelayer"/></g><g class="cartesianlayer"><g class="subplot xy"><g class="layer-subplot"><g class="shapelayer"/><g class="imagelayer"/></g><g class="gridlayer"><g class="x"><path class="xgrid crisp" transform="translate(128.32,0)" d="M0,100v270" style="stroke: rgb(40, 52, 66); stroke-opacity: 1; stroke-width: 1px;"/><path class="xgrid crisp" transform="translate(191.13,0)" d="M0,100v270" style="stroke: rgb(40, 52, 66); stroke-opacity: 1; stroke-width: 1px;"/><path class="xgrid crisp" transform="translate(254.64,0)" d="M0,100v270" style="stroke: rgb(40, 52, 66); stroke-opacity: 1; stroke-width: 1px;"/><path class="xgrid crisp" transform="translate(318.14,0)" d="M0,100v270" style="stroke: rgb(40, 52, 66); stroke-opacity: 1; stroke-width: 1px;"/><path class="xgrid crisp" transform="translate(380.27,0)" d="M0,100v270" style="stroke: rgb(40, 52, 66); stroke-opacity: 1; stroke-width: 1px;"/></g><g class="y"><path class="ygrid crisp" transform="translate(0,298.73)" d="M80,0h305.1" style="stroke: rgb(40, 52, 66); stroke-opacity: 1; stroke-width: 1px;"/><path class="ygrid crisp" transform="translate(0,240.96)" d="M80,0h305.1" style="stroke: rgb(40, 52, 66); stroke-opacity: 1; stroke-width: 1px;"/><path class="ygrid crisp" transform="translate(0,183.2)" d="M80,0h305.1" style="stroke: rgb(40, 52, 66); stroke-opacity: 1; stroke-width: 1px;"/><path class="ygrid crisp" transform="translate(0,125.43)" d="M80,0h305.1" style="stroke: rgb(40, 52, 66); stroke-opacity: 1; stroke-width: 1px;"/></g></g><g class="zerolinelayer"><path class="yzl zl crisp" transform="translate(0,356.5)" d="M80,0h305.1" style="stroke: rgb(40, 52, 66); stroke-opacity: 1; stroke-width: 2px;"/></g><path class="xlines-below"/><path class="ylines-below"/><g class="overlines-below"/><g class="xaxislayer-below"/><g class="yaxislayer-below"/><g class="overaxes-below"/><g class="plot" transform="translate(80, 100)" clip-path="url('#clip6115f0xyplot')"><g class="scatterlayer mlayer"><g class="trace scatter trace836c4b" style="stroke-miterlimit: 2; opacity: 1;"><g class="fills"/><g class="errorbars"/><g class="lines"><path class="js-line" d="M0,256.5L45.56,255.76L46.25,255.72L52.46,254.67L53.15,254.55L80.07,249.59L80.76,249.4L101.47,243.41L102.16,243.1L105.61,241.65L106.3,241.26L111.13,238.72L111.82,238.06L115.28,236.61L115.97,235.57L121.49,231.58L122.18,230.91L124.25,229.77L124.94,229.4L128.39,226.55L129.08,226.35L135.29,221.45L135.98,221.45L137.36,221.45L138.05,218.38L138.74,218.32L139.43,217.03L141.51,214.45L142.2,214.45L143.58,212.8L144.27,211.91L147.03,208.28L147.72,208.2L148.41,208.17L149.1,206.6L153.24,203.97L153.93,203.22L156.69,201.24L157.38,201.24L160.14,199.57L160.83,199.26L164.97,198.26L165.67,197.68L170.5,195.76L171.19,195.76L173.95,194.74L174.64,194.52L185.68,191.63L186.37,191.12L202.25,183.97L202.94,183.57L207.08,180.07L207.77,179.51L210.53,177.11L211.22,176.72L213.29,174.98L213.98,173.15L217.44,168.9L218.13,167.02L219.51,164.82L220.2,162.5L220.89,162.27L221.58,159.06L225.03,151.98L225.72,146.11L227.79,140.21L228.48,140.14L230.55,129.4L231.24,127.23L235.38,112.76L236.07,110.91L238.14,104.93L238.83,101.92L241.6,93.5L242.29,91.63L248.5,67.55L249.19,64.18L251.26,58.84L251.95,57.82L258.85,43.85L259.54,42.82L265.06,34.86L265.75,34.04L269.9,29.34L270.59,29.02L278.18,23.8L278.87,21.87L285.77,18.95L286.46,18.71L298.2,16.07L298.89,16.07L300.27,15.39L300.96,15.11L303.03,14.02L303.72,13.86L305.1,13.5" style="vector-effect: non-scaling-stroke; fill: none; stroke: rgb(230, 25, 75); stroke-opacity: 1; stroke-width: 2px; opacity: 1;"/></g><g class="points"/><g class="text"/></g><g class="trace scatter traced44e8d" style="stroke-miterlimit: 2; opacity: 1;"><g class="fills"/><g class="errorbars"/><g class="lines"><path class="js-line" d="M0,256.5L73.86,255.76L74.55,255.74L97.33,255.02L98.02,254.98L111.82,253.55L112.51,253.36L121.49,250.75L122.18,250.33L126.32,248.69L127.01,248.29L139.43,242.78L140.13,242.49L153.24,237.93L153.93,237.68L171.88,229.07L172.57,228.92L178.78,226.78L179.47,226.48L193.97,218.39L194.66,218.08L204.32,212.02L205.01,211.29L207.77,208.22L208.46,207.93L215.36,201.82L216.05,200.59L224.34,187.59L225.03,186L232.62,169.51L233.31,169.51L234.69,166.42L235.38,165.76L236.76,163.14L237.45,162.19L238.14,162.19L238.83,159.44L241.6,155.61L242.29,154.13L245.74,149.06L246.43,148.05L254.02,140.46L254.71,140L260.92,135.51L261.61,134.84L268.52,129.56L269.21,128.93L273.35,126.57L274.04,126.36L277.49,124.42L278.18,123.99L291.98,119.5L292.68,119.5L294.75,118.28L295.44,117.92L300.27,116.58L300.96,116.58L302.34,116.58L303.03,115.8L305.1,115.21" style="vector-effect: non-scaling-stroke; fill: none; stroke: rgb(60, 180, 75); stroke-opacity: 1; stroke-width: 2px; opacity: 1;"/></g><g class="points"/><g class="text"/></g><g class="trace scatter trace63cfa3" style="stroke-miterlimit: 2; opacity: 1;"><g class="fills"/><g class="errorbars"/><g class="lines"><path class="js-line" d="M0,256.5L55.22,255.77L55.91,255.74L70.41,255L71.1,255L107.68,253.29L108.37,253.21L113.2,252.42L113.89,252.32L130.46,248.55L131.15,248.29L156.69,243.31L157.38,243.26L165.67,242.36L166.36,242.21L207.77,236.15L208.46,236.01L224.34,231.12L225.03,230.71L236.76,225.21L237.45,224.4L240.21,222.81L240.9,222.48L242.98,221.03L243.67,220.26L249.88,216.52L250.57,216.21L258.85,211.91L259.54,211.73L278.18,206.97L278.87,206.89L305.1,203.14" style="vector-effect: non-scaling-stroke; fill: none; stroke: rgb(255, 225, 25); stroke-opacity: 1; stroke-width: 2px; opacity: 1;"/></g><g class="points"/><g class="text"/></g><g class="trace scatter tracef0f53e" style="stroke-miterlimit: 2; opacity: 1;"><g class="fills"/><g class="errorbars"/><g class="lines"><path class="js-line" d="M0,256.5L218.13,255.78L218.82,255.73L267.83,255L268.52,255L305.1,254.93" style="vector-effect: non-scaling-stroke; fill: none; stroke: rgb(67, 99, 216); stroke-opacity: 1; stroke-width: 2px; opacity: 1;"/></g><g class="points"/><g class="text"/></g><g class="trace scatter traceab5fbc" style="stroke-miterlimit: 2; opacity: 1;"><g class="fills"/><g class="errorbars"/><g class="lines"><path class="js-line" d="M0,256.5L50.39,255.82L51.08,255.7L54.53,254.42L55.22,253.81L66.96,248.98L67.65,248.88L83.52,245.41L84.21,245.39L95.95,244.26L96.64,244.22L126.32,242.29L127.01,242.12L178.09,235.07L178.78,234.87L180.85,234.18L181.54,234.03L186.37,232.78L187.06,232.3L196.73,228.38L197.42,228.02L205.7,223.69L206.39,223.23L217.44,215.06L218.13,213.72L234.69,192.1L235.38,191.55L242.29,182.78L242.98,181.77L250.57,172.55L251.26,172.01L252.64,170.75L253.33,169.93L256.78,167.47L257.47,163.24L260.92,161.31L261.61,160.88L267.14,157.89L267.83,157.47L270.59,156.52L271.28,156L280.25,152.84L280.94,152.3L291.29,147.41L291.98,146.5L294.75,144.86L295.44,144.29L296.13,144.29L296.82,143.26L300.27,140.81L300.96,140.31L303.03,138.55L303.72,137.95L305.1,136.95" style="vector-effect: non-scaling-stroke; fill: none; stroke: rgb(245, 130, 49); stroke-opacity: 1; stroke-width: 2px; opacity: 1;"/></g><g class="points"/><g class="text"/></g><g class="trace scatter traceb071fd" style="stroke-miterlimit: 2; opacity: 1;"><g class="fills"/><g class="errorbars"/><g class="lines"><path class="js-line" d="M0,256.5L200.18,255.79L200.87,255.74L255.4,254.01L256.09,253.99L305.1,253.76" style="vector-effect: non-scaling-stroke; fill: none; stroke: rgb(145, 30, 180); stroke-opacity: 1; stroke-width: 2px; opacity: 1;"/></g><g class="points"/><g class="text"/></g></g></g><g class="overplot"/><path class="xlines-above crisp" d="M0,0" style="fill: none;"/><path class="ylines-above crisp" d="M0,0" style="fill: none;"/><g class="overlines-above"/><g class="xaxislayer-above"><g class="xtick"><text text-anchor="middle" x="0" y="383" transform="translate(128.32,0)" style="font-family: 'Open Sans', verdana, arial, sans-serif; font-size: 12px; fill: rgb(242, 245, 250); fill-opacity: 1; white-space: pre;">Apr 2020</text></g><g class="xtick"><text text-anchor="middle" x="0" y="383" transform="translate(191.13,0)" style="font-family: 'Open Sans', verdana, arial, sans-serif; font-size: 12px; fill: rgb(242, 245, 250); fill-opacity: 1; white-space: pre;">Jul 2020</text></g><g class="xtick"><text text-anchor="middle" x="0" y="383" transform="translate(254.64,0)" style="font-family: 'Open Sans', verdana, arial, sans-serif; font-size: 12px; fill: rgb(242, 245, 250); fill-opacity: 1; white-space: pre;">Oct 2020</text></g><g class="xtick"><text text-anchor="middle" x="0" y="383" transform="translate(318.14,0)" style="font-family: 'Open Sans', verdana, arial, sans-serif; font-size: 12px; fill: rgb(242, 245, 250); fill-opacity: 1; white-space: pre;">Jan 2021</text></g><g class="xtick"><text text-anchor="middle" x="0" y="383" transform="translate(380.27,0)" style="font-family: 'Open Sans', verdana, arial, sans-serif; font-size: 12px; fill: rgb(242, 245, 250); fill-opacity: 1; white-space: pre;">Apr 2021</text></g></g><g class="yaxislayer-above"><g class="ytick"><text text-anchor="end" x="79" y="4.199999999999999" transform="translate(0,356.5)" style="font-family: 'Open Sans', verdana, arial, sans-serif; font-size: 12px; fill: rgb(242, 245, 250); fill-opacity: 1; white-space: pre;">0</text></g><g class="ytick"><text text-anchor="end" x="79" y="4.199999999999999" transform="translate(0,298.73)" style="font-family: 'Open Sans', verdana, arial, sans-serif; font-size: 12px; fill: rgb(242, 245, 250); fill-opacity: 1; white-space: pre;">20k</text></g><g class="ytick"><text text-anchor="end" x="79" y="4.199999999999999" transform="translate(0,240.96)" style="font-family: 'Open Sans', verdana, arial, sans-serif; font-size: 12px; fill: rgb(242, 245, 250); fill-opacity: 1; white-space: pre;">40k</text></g><g class="ytick"><text text-anchor="end" x="79" y="4.199999999999999" transform="translate(0,183.2)" style="font-family: 'Open Sans', verdana, arial, sans-serif; font-size: 12px; fill: rgb(242, 245, 250); fill-opacity: 1; white-space: pre;">60k</text></g><g class="ytick"><text text-anchor="end" x="79" y="4.199999999999999" transform="translate(0,125.43)" style="font-family: 'Open Sans', verdana, arial, sans-serif; font-size: 12px; fill: rgb(242, 245, 250); fill-opacity: 1; white-space: pre;">80k</text></g></g><g class="overaxes-above"/></g><g class="subplot x2y2"><g class="layer-subplot"><g class="shapelayer"/><g class="imagelayer"/></g><g class="gridlayer"><g class="x2"><path class="x2grid crisp" transform="translate(501.22,0)" d="M0,100v270" style="stroke: rgb(40, 52, 66); stroke-opacity: 1; stroke-width: 1px;"/><path class="x2grid crisp" transform="translate(564.03,0)" d="M0,100v270" style="stroke: rgb(40, 52, 66); stroke-opacity: 1; stroke-width: 1px;"/><path class="x2grid crisp" transform="translate(627.54,0)" d="M0,100v270" style="stroke: rgb(40, 52, 66); stroke-opacity: 1; stroke-width: 1px;"/><path class="x2grid crisp" transform="translate(691.04,0)" d="M0,100v270" style="stroke: rgb(40, 52, 66); stroke-opacity: 1; stroke-width: 1px;"/><path class="x2grid crisp" transform="translate(753.1700000000001,0)" d="M0,100v270" style="stroke: rgb(40, 52, 66); stroke-opacity: 1; stroke-width: 1px;"/></g><g class="y2"><path class="y2grid crisp" transform="translate(0,317.34000000000003)" d="M452.90000000000003,0h305.09999999999997" style="stroke: rgb(40, 52, 66); stroke-opacity: 1; stroke-width: 1px;"/><path class="y2grid crisp" transform="translate(0,278.18)" d="M452.90000000000003,0h305.09999999999997" style="stroke: rgb(40, 52, 66); stroke-opacity: 1; stroke-width: 1px;"/><path class="y2grid crisp" transform="translate(0,239.01)" d="M452.90000000000003,0h305.09999999999997" style="stroke: rgb(40, 52, 66); stroke-opacity: 1; stroke-width: 1px;"/><path class="y2grid crisp" transform="translate(0,199.85)" d="M452.90000000000003,0h305.09999999999997" style="stroke: rgb(40, 52, 66); stroke-opacity: 1; stroke-width: 1px;"/><path class="y2grid crisp" transform="translate(0,160.69)" d="M452.90000000000003,0h305.09999999999997" style="stroke: rgb(40, 52, 66); stroke-opacity: 1; stroke-width: 1px;"/><path class="y2grid crisp" transform="translate(0,121.53)" d="M452.90000000000003,0h305.09999999999997" style="stroke: rgb(40, 52, 66); stroke-opacity: 1; stroke-width: 1px;"/></g></g><g class="zerolinelayer"><path class="y2zl zl crisp" transform="translate(0,356.5)" d="M452.90000000000003,0h305.09999999999997" style="stroke: rgb(40, 52, 66); stroke-opacity: 1; stroke-width: 2px;"/></g><path class="xlines-below"/><path class="ylines-below"/><g class="overlines-below"/><g class="xaxislayer-below"/><g class="yaxislayer-below"/><g class="overaxes-below"/><g class="plot" transform="translate(452.90000000000003, 100)" clip-path="url('#clip6115f0x2y2plot')"><g class="scatterlayer mlayer"><g class="trace scatter trace5d762e" style="stroke-miterlimit: 2; opacity: 1;"><g class="fills"/><g class="errorbars"/><g class="lines"><path class="js-line" d="M0,256.5L43.49,256.11L44.18,255.72L47.63,255.13L48.32,254.93L55.22,252.39L55.91,252L57.29,252L57.98,249.45L60.05,248.47L60.74,248.28L62.81,247.69L63.5,247.49L69.72,244.16L70.41,244.16L72.48,243.58L73.17,243.38L74.55,242.6L75.24,242.6L76.62,242.01L77.31,241.62L79.38,240.25L80.07,240.25L81.45,239.66L82.14,239.27L84.9,238.29L85.59,238.29L90.43,237.7L91.12,237.51L92.5,237.51L93.19,236.72L95.95,236.53L96.64,235.94L98.02,235.16L98.71,235.16L100.09,234.57L100.78,234.57L102.16,233.59L102.85,233.39L105.61,233L106.3,232.61L107.68,231.04L108.37,231.04L110.44,230.07L111.13,229.87L113.89,229.09L114.59,229.09L115.97,228.7L116.66,227.91L120.11,226.74L120.8,226.35L121.49,226.35L122.18,224.97L124.25,224.78L124.94,223.8L127.7,221.65L128.39,221.65L130.46,221.06L131.15,220.86L131.84,220.86L132.53,219.49L134.6,218.9L135.29,218.71L137.36,218.71L138.05,216.36L139.43,216.36L140.13,214.99L142.2,213.62L142.89,213.23L144.27,212.64L144.96,211.86L147.03,210.88L147.72,210.68L148.41,210.68L149.1,209.51L151.86,208.13L152.55,205.98L153.93,206.18L154.62,202.85L156,198.54L156.69,197.95L158.76,197.76L159.45,197.17L160.14,197.17L160.83,193.84L161.52,193.84L162.21,191.49L162.9,191.3L163.59,186.79L164.28,186.79L164.97,185.03L167.05,183.27L167.74,183.27L169.12,179.16L169.81,178.76L171.19,177.39L171.88,177L173.26,176.61L173.95,175.83L175.33,174.26L176.02,173.09L178.09,172.89L178.78,170.34L180.85,170.15L181.54,171.13L182.23,171.13L182.92,172.11L183.61,169.95L184.3,171.71L185.68,169.95L186.37,171.71L188.44,171.32L189.13,167.21L189.82,167.21L190.51,166.43L194.66,165.84L195.35,165.84L198.8,165.45L199.49,164.27L200.87,163.69L201.56,163.69L202.25,163.69L202.94,161.92L205.7,160.55L206.39,160.55L209.15,158.79L209.84,158.79L213.29,158.2L213.98,157.62L215.36,156.25L216.05,156.25L218.82,154.68L219.51,154.68L220.89,154.68L221.58,153.7L222.27,153.5L222.96,152.13L225.03,150.37L225.72,149.59L227.79,144.11L228.48,144.11L229.86,141.56L230.55,141.56L231.24,141.36L231.93,137.25L233.31,135.29L234,135.29L235.38,134.12L236.07,134.12L237.45,134.12L238.14,128.05L241.6,128.05L242.29,120.02L242.98,120.02L243.67,113.75L245.74,112.38L246.43,108.66L249.88,108.27L250.57,106.9L251.95,106.51L252.64,91.63L254.02,88.89L254.71,81.45L255.4,81.05L256.09,79.1L258.85,65.78L259.54,64.61L260.23,64.21L260.92,62.45L261.61,60.89L262.3,56.58L264.37,52.66L265.06,52.66L267.14,48.16L267.83,43.46L269.21,37.19L269.9,37L271.97,36.02L272.66,27.21L273.35,27.21L274.04,21.53L275.42,21.53L276.11,18L276.8,16.83L277.49,13.5L278.18,13.5L278.87,40.13L281.63,33.08L282.32,32.69L283.01,32.3L283.7,32.89L285.77,28.58L286.46,28.58L287.84,27.79L288.53,27.99L290.6,23.68L291.29,24.07L291.98,25.84L292.68,24.07L294.06,23.49L294.75,21.72L296.13,19.96L296.82,19.37L303.72,17.81L304.41,16.83L305.1,16.83" style="vector-effect: non-scaling-stroke; fill: none; stroke: rgb(230, 25, 75); stroke-opacity: 1; stroke-width: 2px; opacity: 1;"/></g><g class="points"/><g class="text"/></g><g class="trace scatter trace11c329" style="stroke-miterlimit: 2; opacity: 1;"><g class="fills"/><g class="errorbars"/><g class="lines"><path class="js-line" d="M0,256.5L54.53,255.91L55.22,255.72L113.89,255.13L114.59,254.93L119.42,254.54L120.11,254.15L122.18,253.17L122.87,252.98L127.01,252.39L127.7,252L129.08,251.41L129.77,251.21L131.84,250.63L132.53,250.43L134.6,249.26L135.29,249.06L137.36,249.06L138.05,248.86L143.58,248.08L144.27,248.08L147.03,246.91L147.72,246.91L151.17,246.51L151.86,245.53L160.14,243.58L160.83,243.58L164.28,243.18L164.97,243.18L167.05,242.4L167.74,242.4L174.64,240.84L175.33,240.84L183.61,240.25L184.3,240.05L190.51,239.07L191.21,239.07L194.66,237.7L195.35,237.7L198.11,237.11L198.8,236.92L201.56,236.33L202.25,235.94L205.01,234.37L205.7,233.98L206.39,233.59L207.08,231.83L208.46,231.44L209.15,230.07L210.53,229.67L211.22,229.09L215.36,227.32L216.05,227.13L218.82,224.39L219.51,224L224.34,216.75L225.03,216.36L228.48,210.29L229.17,210.29L231.93,205.79L232.62,204.81L234,204.61L234.69,204.02L236.76,200.69L237.45,198.34L238.83,197.95L239.52,197.56L240.21,196.39L240.9,193.65L244.36,186.6L245.05,185.81L247.12,180.33L247.81,180.33L249.19,179.55L249.88,178.18L253.33,170.54L254.02,169.76L256.78,163.29L257.47,163.29L259.54,158.99L260.23,157.62L262.99,154.29L263.68,154.09L269.21,148.8L269.9,148.41L272.66,147.04L273.35,146.65L278.18,142.73L278.87,142.54L280.25,142.54L280.94,141.56L283.01,141.17L283.7,140.97L285.08,140.58L285.77,140.19L289.91,139.6L290.6,139.21L291.98,138.62L292.68,138.62L294.75,138.04L295.44,137.84L298.2,137.45L298.89,136.47L305.1,134.12" style="vector-effect: non-scaling-stroke; fill: none; stroke: rgb(60, 180, 75); stroke-opacity: 1; stroke-width: 2px; opacity: 1;"/></g><g class="points"/><g class="text"/></g><g class="trace scatter trace7b4865" style="stroke-miterlimit: 2; opacity: 1;"><g class="fills"/><g class="errorbars"/><g class="lines"><path class="js-line" d="M0,256.5L56.6,255.91L57.29,255.72L63.5,254.54L64.2,254.54L71.1,253.95L71.79,253.76L78,253.17L78.69,252.98L93.19,252.39L93.88,252.19L96.64,251.6L97.33,251.41L98.71,250.82L99.4,250.82L103.54,250.43L104.23,250.43L124.25,249.84L124.94,249.65L129.77,248.86L130.46,248.86L133.91,248.28L134.6,247.88L138.74,247.3L139.43,246.91L140.82,245.53L141.51,245.53L143.58,244.95L144.27,244.95L146.34,244.95L147.03,243.58L149.79,242.99L150.48,242.6L153.93,240.84L154.62,240.64L158.76,238.88L159.45,238.88L164.28,238.29L164.97,238.09L167.74,237.31L168.43,237.11L171.88,236.92L172.57,236.92L174.64,236.33L175.33,236.33L184.3,235.74L184.99,235.16L192.59,234.57L193.28,234.37L198.11,233.79L198.8,233.39L199.49,233.39L200.18,232.61L208.46,232.02L209.15,231.83L213.98,231.24L214.67,231.04L222.27,230.46L222.96,230.07L225.72,229.87L226.41,229.87L234.69,228.11L235.38,228.11L244.36,227.52L245.05,227.32L247.81,224.97L248.5,224.39L250.57,223.8L251.26,223.21L253.33,221.25L254.02,221.25L254.71,221.25L255.4,220.47L258.16,217.53L258.85,217.53L266.44,215.18L267.14,214.4L269.21,214.21L269.9,213.23L271.28,212.05L271.97,211.07L273.35,210.29L274.04,210.29L280.25,207.94L280.94,207.35L285.08,206.76L285.77,206.37L288.53,205.59L289.22,205.59L291.98,204.41L292.68,204.41L295.44,204.02L296.13,203.63L299.58,203.63L300.27,197.95L304.41,197.17L305.1,196.19" style="vector-effect: non-scaling-stroke; fill: none; stroke: rgb(255, 225, 25); stroke-opacity: 1; stroke-width: 2px; opacity: 1;"/></g><g class="points"/><g class="text"/></g><g class="trace scatter trace389d88" style="stroke-miterlimit: 2; opacity: 1;"><g class="fills"/><g class="errorbars"/><g class="lines"><path class="js-line" d="M0,256.5L247.12,255.91L247.81,255.72L303.03,255.33L303.72,253.76L305.1,253.76" style="vector-effect: non-scaling-stroke; fill: none; stroke: rgb(67, 99, 216); stroke-opacity: 1; stroke-width: 2px; opacity: 1;"/></g><g class="points"/><g class="text"/></g><g class="trace scatter trace47a883" style="stroke-miterlimit: 2; opacity: 1;"><g class="fills"/><g class="errorbars"/><g class="lines"><path class="js-line" d="M0,256.5L51.77,255.91L52.46,255.72L57.98,251.02L58.67,251.02L60.05,248.67L60.74,243.77L62.81,239.86L63.5,239.66L66.96,238.68L67.65,233.79L71.1,233.39L71.79,227.72L72.48,227.52L73.17,223.6L75.93,223.02L76.62,222.82L77.31,221.45L78,218.12L79.38,215.77L80.07,215.77L81.45,205.2L82.14,203.04L84.9,198.54L85.59,198.54L86.28,198.54L86.97,197.56L89.05,194.62L89.74,194.62L90.43,194.62L91.12,193.65L92.5,193.25L93.19,192.08L94.57,191.3L95.26,191.1L97.33,190.71L98.02,190.32L101.47,189.92L102.16,189.53L111.13,187.77L111.82,187.77L118.73,186.4L119.42,186.4L124.94,185.81L125.63,185.62L133.91,185.03L134.6,184.64L139.43,184.25L140.13,183.66L144.27,183.07L144.96,182.88L150.48,182.29L151.17,181.9L152.55,182.09L153.24,182.09L155.31,181.7L156,181.7L160.14,181.11L160.83,181.11L167.05,180.53L167.74,179.94L173.26,179.35L173.95,179.16L176.02,178.76L176.71,178.37L180.85,177.78L181.54,176.81L184.3,176.22L184.99,176.02L196.04,173.28L196.73,173.28L197.42,173.28L198.11,172.3L201.56,170.93L202.25,170.93L207.77,169.36L208.46,168.58L217.44,165.84L218.13,165.06L220.2,164.08L220.89,164.08L222.27,163.49L222.96,162.12L225.03,160.55L225.72,160.55L227.79,157.03L228.48,156.25L231.93,152.92L232.62,151.35L234.69,150.76L235.38,150.76L238.83,144.5L239.52,144.3L240.21,144.11L240.9,143.13L242.98,136.27L243.67,134.31L245.74,132.75L246.43,128.83L248.5,122.37L249.19,121.98L250.57,121L251.26,118.06L253.33,110.62L254.02,110.62L254.71,110.03L255.4,107.68L258.16,99.85L258.85,99.46L259.54,99.07L260.23,97.7L262.3,94.57L262.99,92.8L264.37,91.43L265.06,90.65L267.14,87.32L267.83,87.32L269.21,86.54L269.9,86.54L272.66,84.38L273.35,84.38L274.73,84.19L275.42,82.43L277.49,80.66L278.18,80.27L279.56,79.68L280.25,79.49L283.01,78.7L283.7,78.7L302.34,74.01L303.03,74.01L303.72,74.01L304.41,73.03L305.1,72.83" style="vector-effect: non-scaling-stroke; fill: none; stroke: rgb(245, 130, 49); stroke-opacity: 1; stroke-width: 2px; opacity: 1;"/></g><g class="points"/><g class="text"/></g><g class="trace scatter traceb3c1fd" style="stroke-miterlimit: 2; opacity: 1;"><g class="fills"/><g class="errorbars"/><g class="lines"><path class="js-line" d="M0,256.5L217.44,255.91L218.13,255.72L265.75,255.52L266.44,254.93L278.87,254.35L279.56,254.15L303.03,253.95L303.72,252.39L305.1,252.39" style="vector-effect: non-scaling-stroke; fill: none; stroke: rgb(145, 30, 180); stroke-opacity: 1; stroke-width: 2px; opacity: 1;"/></g><g class="points"/><g class="text"/></g></g></g><g class="overplot"/><path class="xlines-above crisp" d="M0,0" style="fill: none;"/><path class="ylines-above crisp" d="M0,0" style="fill: none;"/><g class="overlines-above"/><g class="xaxislayer-above"><g class="x2tick"><text text-anchor="middle" x="0" y="383" transform="translate(501.22,0)" style="font-family: 'Open Sans', verdana, arial, sans-serif; font-size: 12px; fill: rgb(242, 245, 250); fill-opacity: 1; white-space: pre;">Apr 2020</text></g><g class="x2tick"><text text-anchor="middle" x="0" y="383" transform="translate(564.03,0)" style="font-family: 'Open Sans', verdana, arial, sans-serif; font-size: 12px; fill: rgb(242, 245, 250); fill-opacity: 1; white-space: pre;">Jul 2020</text></g><g class="x2tick"><text text-anchor="middle" x="0" y="383" transform="translate(627.54,0)" style="font-family: 'Open Sans', verdana, arial, sans-serif; font-size: 12px; fill: rgb(242, 245, 250); fill-opacity: 1; white-space: pre;">Oct 2020</text></g><g class="x2tick"><text text-anchor="middle" x="0" y="383" transform="translate(691.04,0)" style="font-family: 'Open Sans', verdana, arial, sans-serif; font-size: 12px; fill: rgb(242, 245, 250); fill-opacity: 1; white-space: pre;">Jan 2021</text></g><g class="x2tick"><text text-anchor="middle" x="0" y="383" transform="translate(753.1700000000001,0)" style="font-family: 'Open Sans', verdana, arial, sans-serif; font-size: 12px; fill: rgb(242, 245, 250); fill-opacity: 1; white-space: pre;">Apr 2021</text></g></g><g class="yaxislayer-above"><g class="y2tick"><text text-anchor="end" x="451.90000000000003" y="4.199999999999999" transform="translate(0,356.5)" style="font-family: 'Open Sans', verdana, arial, sans-serif; font-size: 12px; fill: rgb(242, 245, 250); fill-opacity: 1; white-space: pre;">0</text></g><g class="y2tick"><text text-anchor="end" x="451.90000000000003" y="4.199999999999999" transform="translate(0,317.34000000000003)" style="font-family: 'Open Sans', verdana, arial, sans-serif; font-size: 12px; fill: rgb(242, 245, 250); fill-opacity: 1; white-space: pre;">200</text></g><g class="y2tick"><text text-anchor="end" x="451.90000000000003" y="4.199999999999999" transform="translate(0,278.18)" style="font-family: 'Open Sans', verdana, arial, sans-serif; font-size: 12px; fill: rgb(242, 245, 250); fill-opacity: 1; white-space: pre;">400</text></g><g class="y2tick"><text text-anchor="end" x="451.90000000000003" y="4.199999999999999" transform="translate(0,239.01)" style="font-family: 'Open Sans', verdana, arial, sans-serif; font-size: 12px; fill: rgb(242, 245, 250); fill-opacity: 1; white-space: pre;">600</text></g><g class="y2tick"><text text-anchor="end" x="451.90000000000003" y="4.199999999999999" transform="translate(0,199.85)" style="font-family: 'Open Sans', verdana, arial, sans-serif; font-size: 12px; fill: rgb(242, 245, 250); fill-opacity: 1; white-space: pre;">800</text></g><g class="y2tick"><text text-anchor="end" x="451.90000000000003" y="4.199999999999999" transform="translate(0,160.69)" style="font-family: 'Open Sans', verdana, arial, sans-serif; font-size: 12px; fill: rgb(242, 245, 250); fill-opacity: 1; white-space: pre;">1000</text></g><g class="y2tick"><text text-anchor="end" x="451.90000000000003" y="4.199999999999999" transform="translate(0,121.53)" style="font-family: 'Open Sans', verdana, arial, sans-serif; font-size: 12px; fill: rgb(242, 245, 250); fill-opacity: 1; white-space: pre;">1200</text></g></g><g class="overaxes-above"/></g></g><g class="polarlayer"/><g class="ternarylayer"/><g class="geolayer"/><g class="funnelarealayer"/><g class="pielayer"/><g class="treemaplayer"/><g class="sunburstlayer"/><g class="glimages"/><defs id="topdefs-6115f0"><g class="clips"/><clipPath id="legend6115f0"><rect width="116" height="124" x="0" y="0"/></clipPath></defs><g class="layer-above"><g class="imagelayer"/><g class="shapelayer"/></g><g class="infolayer"><g class="legend" pointer-events="all" transform="translate(771.5600000000001, 100)"><rect class="bg" shape-rendering="crispEdges" width="116" height="124" x="0" y="0" style="stroke: rgb(68, 68, 68); stroke-opacity: 1; fill: rgb(17, 17, 17); fill-opacity: 1; stroke-width: 0px;"/><g class="scrollbox" transform="translate(0, 0)" clip-path="url('#legend6115f0')"><g class="groups"><g class="traces" transform="translate(0, 14.5)" style="opacity: 1;"><text class="legendtext user-select-none" text-anchor="start" x="40" y="4.680000000000001" style="font-family: 'Open Sans', verdana, arial, sans-serif; font-size: 12px; fill: rgb(242, 245, 250); fill-opacity: 1; white-space: pre;">Alameda, CA</text><g class="layers" style="opacity: 1;"><g class="legendfill"/><g class="legendlines"><path class="js-line" d="M5,0h30" style="fill: none; stroke: rgb(230, 25, 75); stroke-opacity: 1; stroke-width: 2px;"/></g><g class="legendsymbols"><g class="legendpoints"/></g></g><rect class="legendtoggle" pointer-events="all" x="0" y="-9.5" width="110.703125" height="19" style="cursor: pointer; fill: rgb(0, 0, 0); fill-opacity: 0;"/></g><g class="traces" transform="translate(0, 33.5)" style="opacity: 1;"><text class="legendtext user-select-none" text-anchor="start" x="40" y="4.680000000000001" style="font-family: 'Open Sans', verdana, arial, sans-serif; font-size: 12px; fill: rgb(242, 245, 250); fill-opacity: 1; white-space: pre;">Knox, TN</text><g class="layers" style="opacity: 1;"><g class="legendfill"/><g class="legendlines"><path class="js-line" d="M5,0h30" style="fill: none; stroke: rgb(60, 180, 75); stroke-opacity: 1; stroke-width: 2px;"/></g><g class="legendsymbols"><g class="legendpoints"/></g></g><rect class="legendtoggle" pointer-events="all" x="0" y="-9.5" width="110.703125" height="19" style="cursor: pointer; fill: rgb(0, 0, 0); fill-opacity: 0;"/></g><g class="traces" transform="translate(0, 52.5)" style="opacity: 1;"><text class="legendtext user-select-none" text-anchor="start" x="40" y="4.680000000000001" style="font-family: 'Open Sans', verdana, arial, sans-serif; font-size: 12px; fill: rgb(242, 245, 250); fill-opacity: 1; white-space: pre;">Henry, GA</text><g class="layers" style="opacity: 1;"><g class="legendfill"/><g class="legendlines"><path class="js-line" d="M5,0h30" style="fill: none; stroke: rgb(255, 225, 25); stroke-opacity: 1; stroke-width: 2px;"/></g><g class="legendsymbols"><g class="legendpoints"/></g></g><rect class="legendtoggle" pointer-events="all" x="0" y="-9.5" width="110.703125" height="19" style="cursor: pointer; fill: rgb(0, 0, 0); fill-opacity: 0;"/></g><g class="traces" transform="translate(0, 71.5)" style="opacity: 1;"><text class="legendtext user-select-none" text-anchor="start" x="40" y="4.680000000000001" style="font-family: 'Open Sans', verdana, arial, sans-serif; font-size: 12px; fill: rgb(242, 245, 250); fill-opacity: 1; white-space: pre;">Dewey, OK</text><g class="layers" style="opacity: 1;"><g class="legendfill"/><g class="legendlines"><path class="js-line" d="M5,0h30" style="fill: none; stroke: rgb(67, 99, 216); stroke-opacity: 1; stroke-width: 2px;"/></g><g class="legendsymbols"><g class="legendpoints"/></g></g><rect class="legendtoggle" pointer-events="all" x="0" y="-9.5" width="110.703125" height="19" style="cursor: pointer; fill: rgb(0, 0, 0); fill-opacity: 0;"/></g><g class="traces" transform="translate(0, 90.5)" style="opacity: 1;"><text class="legendtext user-select-none" text-anchor="start" x="40" y="4.680000000000001" style="font-family: 'Open Sans', verdana, arial, sans-serif; font-size: 12px; fill: rgb(242, 245, 250); fill-opacity: 1; white-space: pre;">Berks, PA</text><g class="layers" style="opacity: 1;"><g class="legendfill"/><g class="legendlines"><path class="js-line" d="M5,0h30" style="fill: none; stroke: rgb(245, 130, 49); stroke-opacity: 1; stroke-width: 2px;"/></g><g class="legendsymbols"><g class="legendpoints"/></g></g><rect class="legendtoggle" pointer-events="all" x="0" y="-9.5" width="110.703125" height="19" style="cursor: pointer; fill: rgb(0, 0, 0); fill-opacity: 0;"/></g><g class="traces" transform="translate(0, 109.5)" style="opacity: 1;"><text class="legendtext user-select-none" text-anchor="start" x="40" y="4.680000000000001" style="font-family: 'Open Sans', verdana, arial, sans-serif; font-size: 12px; fill: rgb(242, 245, 250); fill-opacity: 1; white-space: pre;">Major, OK</text><g class="layers" style="opacity: 1;"><g class="legendfill"/><g class="legendlines"><path class="js-line" d="M5,0h30" style="fill: none; stroke: rgb(145, 30, 180); stroke-opacity: 1; stroke-width: 2px;"/></g><g class="legendsymbols"><g class="legendpoints"/></g></g><rect class="legendtoggle" pointer-events="all" x="0" y="-9.5" width="110.703125" height="19" style="cursor: pointer; fill: rgb(0, 0, 0); fill-opacity: 0;"/></g></g></g><rect class="scrollbar" rx="20" ry="3" width="0" height="0" x="0" y="0" style="fill: rgb(128, 139, 164); fill-opacity: 1;"/></g><g class="g-gtitle"/><g class="g-xtitle"><text class="xtitle" x="232.55" y="410.8" text-anchor="middle" style="font-family: 'Open Sans', verdana, arial, sans-serif; font-size: 14px; fill: rgb(242, 245, 250); opacity: 1; font-weight: normal; white-space: pre;">Date</text></g><g class="g-x2title"><text class="x2title" x="605.45" y="410.8" text-anchor="middle" style="font-family: 'Open Sans', verdana, arial, sans-serif; font-size: 14px; fill: rgb(242, 245, 250); opacity: 1; font-weight: normal; white-space: pre;">Date</text></g><g class="g-ytitle"><text class="ytitle" transform="rotate(-90,34.840625,235)" x="34.840625" y="235" text-anchor="middle" style="font-family: 'Open Sans', verdana, arial, sans-serif; font-size: 14px; fill: rgb(242, 245, 250); opacity: 1; font-weight: normal; white-space: pre;">Cases</text></g><g class="g-y2title"><text class="y2title" transform="rotate(-90,400.403125,235)" x="400.403125" y="235" text-anchor="middle" style="font-family: 'Open Sans', verdana, arial, sans-serif; font-size: 14px; fill: rgb(242, 245, 250); opacity: 1; font-weight: normal; white-space: pre;">Deaths</text></g><g class="annotation" data-index="0" style="opacity: 1;"><g class="annotation-text-g" transform="rotate(0,232.55,89.5)"><g class="cursor-pointer" transform="translate(208, 79)"><rect class="bg" x="0.5" y="0.5" width="48" height="20" style="stroke-width: 1px; stroke: rgb(0, 0, 0); stroke-opacity: 0; fill: rgb(0, 0, 0); fill-opacity: 0;"/><text class="annotation-text" text-anchor="middle" x="24.6875" y="16" style="font-family: 'Open Sans', verdana, arial, sans-serif; font-size: 16px; fill: rgb(242, 245, 250); fill-opacity: 1; white-space: pre;">Cases</text></g></g></g><g class="annotation" data-index="1" style="opacity: 1;"><g class="annotation-text-g" transform="rotate(0,605.45,89.5)"><g class="cursor-pointer" transform="translate(578, 79)"><rect class="bg" x="0.5" y="0.5" width="54" height="20" style="stroke-width: 1px; stroke: rgb(0, 0, 0); stroke-opacity: 0; fill: rgb(0, 0, 0); fill-opacity: 0;"/><text class="annotation-text" text-anchor="middle" x="27.359375" y="16" style="font-family: 'Open Sans', verdana, arial, sans-serif; font-size: 16px; fill: rgb(242, 245, 250); fill-opacity: 1; white-space: pre;">Deaths</text></g></g></g></g></svg>