<svg class="main-svg" xmlns="http://www.w3.org/2000/svg" xmlns:xlink="http://www.w3.org/1999/xlink" width="900" height="450" style="" viewBox="0 0 900 450"><rect x="0" y="0" width="900" height="450" style="fill: rgb(17, 17, 17); fill-opacity: 1;"/><defs id="defs-c4807b"><g class="clips"><clipPath id="clipc4807bxyplot" class="plotclip"><rect width="297.45" height="270"/></clipPath><clipPath id="clipc4807bx2y2plot" class="plotclip"><rect width="297.45" height="270"/></clipPath><clipPath class="axesclip" id="clipc4807bx"><rect x="80" y="0" width="297.45" height="450"/></clipPath><clipPath class="axesclip" id="clipc4807by"><rect x="0" y="100" width="900" height="270"/></clipPath><clipPath class="axesclip" id="clipc4807bxy"><rect x="80" y="100" width="297.45" height="270"/></clipPath><clipPath class="axesclip" id="clipc4807by2"><rect x="0" y="100" width="900" height="270"/></clipPath><clipPath class="axesclip" id="clipc4807bxy2"><rect x="80" y="100" width="297.45" height="270"/></clipPath><clipPath class="axesclip" id="clipc4807bx2"><rect x="443.55" y="0" width="297.45" height="450"/></clipPath><clipPath class="axesclip" id="clipc4807bx2y"><rect x="443.55" y="100" width="297.45" height="270"/></clipPath><clipPath class="axesclip" id="clipc4807bx2y2"><rect x="443.55" y="100" width="297.45" height="270"/></clipPath></g><g class="gradients"/></defs><g class="bglayer"/><g class="layer-below"><g class="imagelayer"/><g class="shapelayer"/></g><g class="cartesianlayer"><g class="subplot xy"><g class="layer-subplot"><g class="shapelayer"/><g class="imagelayer"/></g><g class="gridlayer"><g class="x"><path class="xgrid crisp" transform="translate(126.4,0)" d="M0,100v270" style="stroke: rgb(40, 52, 66); stroke-opacity: 1; stroke-width: 1px;"/><path class="xgrid crisp" transform="translate(198.98000000000002,0)" d="M0,100v270" style="stroke: rgb(40, 52, 66); stroke-opacity: 1; stroke-width: 1px;"/><path class="xgrid crisp" transform="translate(271.56,0)" d="M0,100v270" style="stroke: rgb(40, 52, 66); stroke-opacity: 1; stroke-width: 1px;"/><path class="xgrid crisp" transform="translate(345.33,0)" d="M0,100v270" style="stroke: rgb(40, 52, 66); stroke-opacity: 1; stroke-width: 1px;"/></g><g class="y"><path class="ygrid crisp" transform="translate(0,315.27)" d="M80,0h297.45" style="stroke: rgb(40, 52, 66); stroke-opacity: 1; stroke-width: 1px;"/><path class="ygrid crisp" transform="translate(0,274.03)" d="M80,0h297.45" style="stroke: rgb(40, 52, 66); stroke-opacity: 1; stroke-width: 1px;"/><path class="ygrid crisp" transform="translate(0,232.8)" d="M80,0h297.45" style="stroke: rgb(40, 52, 66); stroke-opacity: 1; stroke-width: 1px;"/><path class="ygrid crisp" transform="translate(0,191.56)" d="M80,0h297.45" style="stroke: rgb(40, 52, 66); stroke-opacity: 1; stroke-width: 1px;"/><path class="ygrid crisp" transform="translate(0,150.32999999999998)" d="M80,0h297.45" style="stroke: rgb(40, 52, 66); stroke-opacity: 1; stroke-width: 1px;"/><path class="ygrid crisp" transform="translate(0,109.1)" d="M80,0h297.45" style="stroke: rgb(40, 52, 66); stroke-opacity: 1; stroke-width: 1px;"/></g></g><g class="zerolinelayer"><path class="yzl zl crisp" transform="translate(0,356.5)" d="M80,0h297.45" style="stroke: rgb(40, 52, 66); stroke-opacity: 1; stroke-width: 2px;"/></g><path class="xlines-below"/><path class="ylines-below"/><g class="overlines-below"/><g class="xaxislayer-below"/><g class="yaxislayer-below"/><g class="overaxes-below"/><g class="plot" transform="translate(80, 100)" clip-path="url('#clipc4807bxyplot')"><g class="scatterlayer mlayer"><g class="trace scatter trace578a66" style="stroke-miterlimit: 2; opacity: 1;"><g class="fills"/><g class="errorbars"/><g class="lines"><path class="js-line" d="M0,256.5L76.15,255.83L77.34,255.59L108.27,251.22L109.46,250.93L132.07,247.7L133.26,247.52L153.48,242.94L154.67,242.52L170.14,238.89L171.33,238.69L179.66,236.69L180.85,235.85L191.56,231.12L192.75,230.18L195.13,229.47L196.32,228.23L198.7,228.1L199.89,226.63L205.84,223.61L207.03,222.19L217.73,215.81L218.92,214.38L224.87,212.08L226.06,210.6L227.25,210.6L228.44,209.15L229.63,208.98L230.82,207.65L235.58,206.46L236.77,206.46L237.96,202.08L239.15,202L242.72,197.83L243.91,196.47L245.1,196.47L246.29,194.14L247.48,194.11L248.67,192.85L252.24,188.59L253.43,187.67L255.81,187.5L257,185.27L259.38,183.84L260.57,182.91L261.76,182.91L262.95,182.11L265.33,180.44L266.52,179.41L272.46,176.71L273.65,176.71L276.03,175.23L277.22,174.78L280.79,173.94L281.98,173.63L284.36,173.36L285.55,172.53L292.69,170.11L293.88,169.79L297.45,168.92" style="vector-effect: non-scaling-stroke; fill: none; stroke: rgb(230, 25, 75); stroke-opacity: 1; stroke-width: 2px; opacity: 1;"/></g><g class="points"/><g class="text"/></g><g class="trace scatter trace3917c9" style="stroke-miterlimit: 2; opacity: 1;"><g class="fills"/><g class="errorbars"/><g class="lines"><path class="js-line" d="M0,256.5L76.15,255.79L77.34,255.48L88.05,252.86L89.24,252.24L92.8,250.76L93.99,250.32L113.03,244.98L114.22,244.55L147.54,237.76L148.73,237.6L154.67,236.7L155.86,236.57L167.76,235.08L168.95,234.98L184.42,232.43L185.61,232.03L193.94,229.72L195.13,229.72L201.08,227.76L202.27,226.32L207.03,224.13L208.22,223.17L215.35,218.96L216.54,217.83L222.49,210.52L223.68,209.9L227.25,204.52L228.44,203.6L232.01,200.92L233.2,199.66L235.58,198.02L236.77,198.02L245.1,191L246.29,190.52L251.05,187.4L252.24,186.65L274.84,173.34L276.03,173.01L283.17,169.24L284.36,168.52L297.45,162.14" style="vector-effect: non-scaling-stroke; fill: none; stroke: rgb(60, 180, 75); stroke-opacity: 1; stroke-width: 2px; opacity: 1;"/></g><g class="points"/><g class="text"/></g><g class="trace scatter trace291857" style="stroke-miterlimit: 2; opacity: 1;"><g class="fills"/><g class="errorbars"/><g class="lines"><path class="js-line" d="M0,256.5L79.72,255.82L80.91,255.58L86.86,254.89L88.05,254.68L98.75,253.14L99.94,252.98L121.36,251.89L122.55,251.85L157.05,250.57L158.24,250.47L179.66,248.35L180.85,247.25L185.61,245.51L186.8,245.51L187.99,245.51L189.18,244.11L192.75,241.82L193.94,241.82L196.32,241.82L197.51,238.38L207.03,232.02L208.22,231.04L214.16,226.29L215.35,224.81L221.3,219.79L222.49,219.32L224.87,217.27L226.06,216.65L230.82,214.76L232.01,214.55L233.2,214.26L234.39,213.02L235.58,211.99L236.77,211.99L237.96,211.99L239.15,206.85L241.53,205.05L242.72,202.01L243.91,200.36L245.1,200.36L246.29,200.36L247.48,197.43L252.24,193.63L253.43,193.63L254.62,193.63L255.81,189.16L258.19,187.47L259.38,186.78L260.57,185.78L261.76,185.78L262.95,185.78L264.14,182.06L268.89,178.93L270.08,178.93L271.27,178.93L272.46,176.73L276.03,175.4L277.22,173.77L279.6,173.77L280.79,172.24L284.36,170.07L285.55,169.2L287.93,169.2L289.12,167.32L293.88,165.03L295.07,165.03L296.26,165.03L297.45,163.98" style="vector-effect: non-scaling-stroke; fill: none; stroke: rgb(255, 225, 25); stroke-opacity: 1; stroke-width: 2px; opacity: 1;"/></g><g class="points"/><g class="text"/></g><g class="trace scatter trace479a2b" style="stroke-miterlimit: 2; opacity: 1;"><g class="fills"/><g class="errorbars"/><g class="lines"><path class="js-line" d="M0,256.5L95.18,255.84L96.37,255.7L115.41,254.95L116.6,254.9L170.14,252.04L171.33,251.81L176.09,251.14L177.28,250.85L202.27,243.12L203.46,242.08L204.65,240.61L205.84,240.61L212.97,232.21L214.16,232.21L218.92,226.97L220.11,224.23L222.49,224.23L223.68,222.68L227.25,214.63L228.44,211.26L229.63,211.26L230.82,200.77L232.01,195.55L233.2,194.16L236.77,189.33L237.96,189.33L243.91,183.85L245.1,183.04L246.29,183.04L247.48,182.26L253.43,178.15L254.62,177.23L255.81,177.23L257,174.6L258.19,174.6L259.38,171.49L262.95,170.51L264.14,170.51L268.89,168.01L270.08,167.59L273.65,167.59L274.84,166.6L281.98,165.16L283.17,164.87L296.26,162.91L297.45,162.91" style="vector-effect: non-scaling-stroke; fill: none; stroke: rgb(67, 99, 216); stroke-opacity: 1; stroke-width: 2px; opacity: 1;"/></g><g class="points"/><g class="text"/></g><g class="trace scatter trace6c7807" style="stroke-miterlimit: 2; opacity: 1;"><g class="fills"/><g class="errorbars"/><g class="lines"><path class="js-line" d="M0,256.5L120.17,255.75L121.36,255.74L177.28,254.99L178.47,254.9L186.8,254.03L187.99,253.9L197.51,252.43L198.7,252.2L204.65,250.36L205.84,249.73L222.49,241.73L223.68,240.3L227.25,236.33L228.44,235.6L234.39,232.97L235.58,231.83L239.15,229.4L240.34,229.01L253.43,223.82L254.62,223.48L260.57,222.19L261.76,221.76L297.45,216.45" style="vector-effect: non-scaling-stroke; fill: none; stroke: rgb(245, 130, 49); stroke-opacity: 1; stroke-width: 2px; opacity: 1;"/></g><g class="points"/><g class="text"/></g><g class="trace scatter trace4e1f4c" style="stroke-miterlimit: 2; opacity: 1;"><g class="fills"/><g class="errorbars"/><g class="lines"><path class="js-line" d="M0,256.5L76.15,256.06L77.34,255.74L82.1,254.97L83.29,254.73L88.05,253.21L89.24,252.6L95.18,250.6L96.37,249.82L117.79,239.88L118.98,239.68L123.74,238.13L124.93,237.24L134.45,234.07L135.64,233.33L138.02,233.33L139.21,231.96L145.16,229.85L146.35,229.85L147.54,227.62L148.73,227.06L155.86,223.59L157.05,222.87L159.43,222.26L160.62,220.31L163,218.61L164.19,218.54L168.95,213.25L170.14,212.27L177.28,203.81L178.47,203.81L179.66,203.81L180.85,199.6L183.23,195.04L184.42,194.06L185.61,192L186.8,192L190.37,185.18L191.56,182.11L193.94,176.3L195.13,176.3L196.32,176.3L197.51,171.74L199.89,165.96L201.08,160.28L202.27,154.38L203.46,154.38L204.65,154.38L205.84,150.33L210.59,138.18L211.78,138.18L212.97,138.18L214.16,132.87L218.92,118.5L220.11,118.5L221.3,118.5L222.49,111.41L224.87,107.4L226.06,105.46L233.2,95.78L234.39,92.63L235.58,89.7L236.77,89.7L237.96,89.7L239.15,83.39L241.53,75.14L242.72,72.27L243.91,68.22L245.1,68.22L246.29,68.22L247.48,60.68L249.86,55.98L251.05,54.64L252.24,52.47L253.43,52.47L254.62,52.47L255.81,47.26L258.19,43.99L259.38,43.18L261.76,42.66L262.95,42.66L264.14,38.34L265.33,37.33L266.52,36.7L267.71,35.06L268.89,33.89L270.08,33.89L272.46,33.89L273.65,31.48L278.41,29.41L279.6,29.41L280.79,26.55L281.98,25.65L286.74,22.78L287.93,22.78L289.12,19.74L290.31,19.48L295.07,16.61L296.26,16.61L297.45,13.5" style="vector-effect: non-scaling-stroke; fill: none; stroke: rgb(145, 30, 180); stroke-opacity: 1; stroke-width: 2px; opacity: 1;"/></g><g class="points"/><g class="text"/></g></g></g><g class="overplot"/><path class="xlines-above crisp" d="M0,0" style="fill: none;"/><path class="ylines-above crisp" d="M0,0" style="fill: none;"/><g class="overlines-above"/><g class="xaxislayer-above"><g class="xtick"><text text-anchor="middle" x="0" y="383" transform="translate(126.4,0)" style="font-family: 'Open Sans', verdana, arial, sans-serif; font-size: 12px; fill: rgb(242, 245, 250); fill-opacity: 1; white-space: pre;">Mar 2020</text></g><g class="xtick"><text text-anchor="middle" x="0" y="383" transform="translate(198.98000000000002,0)" style="font-family: 'Open Sans', verdana, arial, sans-serif; font-size: 12px; fill: rgb(242, 245, 250); fill-opacity: 1; white-space: pre;">May 2020</text></g><g class="xtick"><text text-anchor="middle" x="0" y="383" transform="translate(271.56,0)" style="font-family: 'Open Sans', verdana, arial, sans-serif; font-size: 12px; fill: rgb(242, 245, 250); fill-opacity: 1; white-space: pre;">Jul 2020</text></g><g class="xtick"><text text-anchor="middle" x="0" y="383" transform="translate(345.33,0)" style="font-family: 'Open Sans', verdana, arial, sans-serif; font-size: 12px; fill: rgb(242, 245, 250); fill-opacity: 1; white-space: pre;">Sep 2020</text></g></g><g class="yaxislayer-above"><g class="ytick"><text text-anchor="end" x="79" y="4.199999999999999" transform="translate(0,356.5)" style="font-family: 'Open Sans', verdana, arial, sans-serif; font-size: 12px; fill: rgb(242, 245, 250); fill-opacity: 1; white-space: pre;">0</text></g><g class="ytick"><text text-anchor="end" x="79" y="4.199999999999999" transform="translate(0,315.27)" style="font-family: 'Open Sans', verdana, arial, sans-serif; font-size: 12px; fill: rgb(242, 245, 250); fill-opacity: 1; white-space: pre;">10k</text></g><g class="ytick"><text text-anchor="end" x="79" y="4.199999999999999" transform="translate(0,274.03)" style="font-family: 'Open Sans', verdana, arial, sans-serif; font-size: 12px; fill: rgb(242, 245, 250); fill-opacity: 1; white-space: pre;">20k</text></g><g class="ytick"><text text-anchor="end" x="79" y="4.199999999999999" transform="translate(0,232.8)" style="font-family: 'Open Sans', verdana, arial, sans-serif; font-size: 12px; fill: rgb(242, 245, 250); fill-opacity: 1; white-space: pre;">30k</text></g><g class="ytick"><text text-anchor="end" x="79" y="4.199999999999999" transform="translate(0,191.56)" style="font-family: 'Open Sans', verdana, arial, sans-serif; font-size: 12px; fill: rgb(242, 245, 250); fill-opacity: 1; white-space: pre;">40k</text></g><g class="ytick"><text text-anchor="end" x="79" y="4.199999999999999" transform="translate(0,150.32999999999998)" style="font-family: 'Open Sans', verdana, arial, sans-serif; font-size: 12px; fill: rgb(242, 245, 250); fill-opacity: 1; white-space: pre;">50k</text></g><g class="ytick"><text text-anchor="end" x="79" y="4.199999999999999" transform="translate(0,109.1)" style="font-family: 'Open Sans', verdana, arial, sans-serif; font-size: 12px; fill: rgb(242, 245, 250); fill-opacity: 1; white-space: pre;">60k</text></g></g><g class="overaxes-above"/></g><g class="subplot x2y2"><g class="layer-subplot"><g class="shapelayer"/><g class="imagelayer"/></g><g class="gridlayer"><g class="x2"><path class="x2grid crisp" transform="translate(489.95,0)" d="M0,100v270" style="stroke: rgb(40, 52, 66); stroke-opacity: 1; stroke-width: 1px;"/><path class="x2grid crisp" transform="translate(562.53,0)" d="M0,100v270" style="stroke: rgb(40, 52, 66); stroke-opacity: 1; stroke-width: 1px;"/><path class="x2grid crisp" transform="translate(635.11,0)" d="M0,100v270" style="stroke: rgb(40, 52, 66); stroke-opacity: 1; stroke-width: 1px;"/><path class="x2grid crisp" transform="translate(708.88,0)" d="M0,100v270" style="stroke: rgb(40, 52, 66); stroke-opacity: 1; stroke-width: 1px;"/></g><g class="y2"><path class="y2grid crisp" transform="translate(0,316.2)" d="M443.55,0h297.45" style="stroke: rgb(40, 52, 66); stroke-opacity: 1; stroke-width: 1px;"/><path class="y2grid crisp" transform="translate(0,275.9)" d="M443.55,0h297.45" style="stroke: rgb(40, 52, 66); stroke-opacity: 1; stroke-width: 1px;"/><path class="y2grid crisp" transform="translate(0,235.6)" d="M443.55,0h297.45" style="stroke: rgb(40, 52, 66); stroke-opacity: 1; stroke-width: 1px;"/><path class="y2grid crisp" transform="translate(0,195.31)" d="M443.55,0h297.45" style="stroke: rgb(40, 52, 66); stroke-opacity: 1; stroke-width: 1px;"/><path class="y2grid crisp" transform="translate(0,155.01)" d="M443.55,0h297.45" style="stroke: rgb(40, 52, 66); stroke-opacity: 1; stroke-width: 1px;"/><path class="y2grid crisp" transform="translate(0,114.71000000000001)" d="M443.55,0h297.45" style="stroke: rgb(40, 52, 66); stroke-opacity: 1; stroke-width: 1px;"/></g></g><g class="zerolinelayer"><path class="y2zl zl crisp" transform="translate(0,356.5)" d="M443.55,0h297.45" style="stroke: rgb(40, 52, 66); stroke-opacity: 1; stroke-width: 2px;"/></g><path class="xlines-below"/><path class="ylines-below"/><g class="overlines-below"/><g class="xaxislayer-below"/><g class="yaxislayer-below"/><g class="overaxes-below"/><g class="plot" transform="translate(443.55, 100)" clip-path="url('#clipc4807bx2y2plot')"><g class="scatterlayer mlayer"><g class="trace scatter tracead4679" style="stroke-miterlimit: 2; opacity: 1;"><g class="fills"/><g class="errorbars"/><g class="lines"><path class="js-line" d="M0,256.5L74.96,256.1L76.15,255.69L82.1,255.09L83.29,254.89L95.18,252.27L96.37,251.87L98.75,251.87L99.94,249.25L103.51,248.24L104.7,248.04L108.27,247.43L109.46,247.23L113.03,246.02L114.22,246.02L120.17,243.81L121.36,243.81L124.93,243.2L126.12,243L128.5,242.19L129.69,242.19L132.07,241.59L133.26,241.19L136.83,239.78L138.02,239.78L140.4,239.17L141.59,238.77L146.35,237.76L147.54,237.76L155.86,237.16L157.05,236.96L159.43,236.96L160.62,236.15L165.38,235.95L166.57,235.34L168.95,234.54L170.14,234.54L172.52,233.93L173.71,233.93L176.09,232.93L177.28,232.72L182.04,232.32L183.23,231.92L185.61,230.31L186.8,230.31L190.37,229.3L191.56,229.1L195.13,228.29L196.32,228.29L199.89,227.89L201.08,227.08L207.03,225.87L208.22,225.47L209.4,225.47L210.59,224.06L214.16,223.86L215.35,222.85L218.92,220.63L220.11,220.63L224.87,220.03L226.06,219.83L227.25,219.83L228.44,218.42L232.01,217.81L233.2,217.61L236.77,217.61L237.96,215.19L240.34,215.19L241.53,213.78L243.91,212.37L245.1,212.37L249.86,210.56L251.05,209.96L254.62,209.35L255.81,209.35L258.19,207.54L259.38,207.34L261.76,206.73L262.95,204.72L265.33,204.72L266.52,201.29L267.71,197.06L268.89,196.86L271.27,196.25L272.46,196.05L276.03,195.45L277.22,192.02L278.41,192.02L279.6,189.6L280.79,189.4L281.98,184.77L283.17,184.77L284.36,182.96L286.74,181.14L287.93,181.14L289.12,181.14L290.31,177.92L295.07,174.69L296.26,174.69L297.45,174.69" style="vector-effect: non-scaling-stroke; fill: none; stroke: rgb(230, 25, 75); stroke-opacity: 1; stroke-width: 2px; opacity: 1;"/></g><g class="points"/><g class="text"/></g><g class="trace scatter trace55d696" style="stroke-miterlimit: 2; opacity: 1;"><g class="fills"/><g class="errorbars"/><g class="lines"><path class="js-line" d="M0,256.5L85.67,255.9L86.86,255.49L88.05,254.08L89.24,253.88L91.61,253.48L92.8,250.86L93.99,250.05L95.18,248.04L97.56,248.04L98.75,245.82L101.13,243.2L102.32,241.99L103.51,240.38L104.7,240.18L105.89,239.98L107.08,238.16L109.46,235.34L110.65,232.12L111.84,230.91L113.03,230.91L114.22,228.9L115.41,224.46L117.79,223.86L118.98,222.65L120.17,220.84L121.36,220.84L122.55,220.84L123.74,218.42L126.12,212.17L127.31,206.93L132.07,200.49L133.26,197.46L136.83,190.21L138.02,189.4L139.21,188.8L140.4,186.99L141.59,185.57L142.78,180.74L147.54,178.72L148.73,178.72L151.1,176.91L152.29,172.88L153.48,167.84L154.67,167.64L158.24,167.04L159.43,166.63L161.81,164.42L163,164.42L164.19,163.01L165.38,160.19L166.57,159.38L167.76,157.16L171.33,156.16L172.52,156.16L173.71,155.75L174.9,152.13L176.09,147.49L177.28,147.09L186.8,142.86L187.99,142.86L189.18,142.86L190.37,140.64L193.94,139.84L195.13,139.84L197.51,139.63L198.7,137.82L202.27,137.22L203.46,137.01L204.65,137.01L205.84,135.81L208.22,135.4L209.4,135.4L210.59,134.4L211.78,134.4L215.35,134.19L216.54,131.78L220.11,130.77L221.3,129.16L223.68,129.16L224.87,127.14L228.44,126.34L229.63,126.34L234.39,125.33L235.58,123.72L236.77,123.72L237.96,122.91L240.34,122.31L241.53,122.1L245.1,121.1L246.29,118.88L247.48,116.26L248.67,116.26L254.62,114.85L255.81,114.85L258.19,113.44L259.38,113.44L262.95,111.43L264.14,109.01L266.52,108L267.71,108L268.89,108L270.08,107.19L274.84,106.59L276.03,104.78L278.41,104.17L279.6,104.17L280.79,104.17L281.98,102.76L284.36,102.36L285.55,101.55L289.12,101.55L290.31,98.33L293.88,97.32L295.07,95.31L297.45,95.31" style="vector-effect: non-scaling-stroke; fill: none; stroke: rgb(60, 180, 75); stroke-opacity: 1; stroke-width: 2px; opacity: 1;"/></g><g class="points"/><g class="text"/></g><g class="trace scatter trace217f45" style="stroke-miterlimit: 2; opacity: 1;"><g class="fills"/><g class="errorbars"/><g class="lines"><path class="js-line" d="M0,256.5L71.39,255.9L72.58,255.69L82.1,255.09L83.29,254.69L86.86,254.49L88.05,253.28L95.18,251.26L96.37,251.26L108.27,249.25L109.46,248.24L121.36,248.04L122.55,247.03L132.07,246.43L133.26,246.22L135.64,245.62L136.83,245.62L142.78,245.22L143.97,245.22L163,244.61L164.19,244.21L173.71,243.81L174.9,243.2L196.32,242.6L197.51,241.59L204.65,239.78L205.84,239.78L207.03,238.16L208.22,237.96L211.78,237.16L212.97,237.16L217.73,236.75L218.92,235.75L220.11,234.74L221.3,234.74L224.87,231.11L226.06,230.91L228.44,227.89L229.63,227.89L236.77,224.06L237.96,224.06L239.15,220.84L240.34,220.43L243.91,216.4L245.1,216.4L246.29,216.4L247.48,212.57L248.67,212.37L249.86,210.16L251.05,210.16L252.24,209.35L254.62,209.35L255.81,206.93L260.57,201.29L261.76,201.29L262.95,201.29L264.14,197.46L265.33,196.86L266.52,195.25L268.89,190.61L270.08,190.61L271.27,190.61L272.46,189.6L274.84,188.19L276.03,186.78L278.41,185.98L279.6,185.98L285.55,180.94L286.74,180.94L287.93,180.94L289.12,179.33L291.5,176.1L292.69,175.5L295.07,174.69L296.26,174.69L297.45,173.49" style="vector-effect: non-scaling-stroke; fill: none; stroke: rgb(255, 225, 25); stroke-opacity: 1; stroke-width: 2px; opacity: 1;"/></g><g class="points"/><g class="text"/></g><g class="trace scatter tracef15d66" style="stroke-miterlimit: 2; opacity: 1;"><g class="fills"/><g class="errorbars"/><g class="lines"><path class="js-line" d="M0,256.5L101.13,255.9L102.32,255.69L110.65,254.08L111.84,253.68L117.79,253.07L118.98,252.87L127.31,252.47L128.5,252.07L134.45,251.46L135.64,251.26L140.4,250.66L141.59,250.46L143.97,250.05L145.16,250.05L149.91,249.85L151.1,249.85L154.67,249.25L155.86,249.25L165.38,248.64L166.57,248.44L170.14,247.63L171.33,247.63L176.09,247.03L177.28,246.83L183.23,246.43L184.42,246.02L191.56,245.42L192.75,245.22L196.32,243L197.51,243L199.89,242.4L201.08,242.19L202.27,242.19L203.46,240.99L205.84,240.58L207.03,240.58L209.4,240.58L210.59,238.57L214.16,237.16L215.35,234.13L221.3,220.84L222.49,201.69L223.68,201.69L224.87,197.26L226.06,195.25L227.25,191.01L228.44,186.78L229.63,186.78L232.01,179.33L233.2,177.11L236.77,170.87L237.96,169.86L239.15,169.86L240.34,165.02L243.91,150.11L245.1,146.28L247.48,142.66L248.67,137.82L252.24,129.76L253.43,125.93L255.81,124.12L257,121.9L261.76,106.19L262.95,104.98L264.14,103.97L265.33,101.96L266.52,100.34L267.71,96.72L270.08,92.89L271.27,92.49L273.65,91.48L274.84,90.47L277.22,87.45L278.41,87.04L281.98,85.63L283.17,84.43L284.36,84.02L285.55,82.21L287.93,80.8L289.12,80.8L290.31,80.19L291.5,77.98L296.26,74.75L297.45,74.75" style="vector-effect: non-scaling-stroke; fill: none; stroke: rgb(67, 99, 216); stroke-opacity: 1; stroke-width: 2px; opacity: 1;"/></g><g class="points"/><g class="text"/></g><g class="trace scatter trace5cb45f" style="stroke-miterlimit: 2; opacity: 1;"><g class="fills"/><g class="errorbars"/><g class="lines"><path class="js-line" d="M0,256.5L109.46,255.9L110.65,255.69L159.43,255.09L160.62,254.89L192.75,254.49L193.94,254.08L207.03,253.48L208.22,253.07L210.59,252.67L211.78,251.06L217.73,248.84L218.92,247.84L221.3,246.63L222.49,246.43L223.68,246.43L224.87,245.42L229.63,244.21L230.82,243.6L232.01,241.19L233.2,241.19L235.58,239.17L236.77,238.57L239.15,238.57L240.34,235.95L251.05,232.12L252.24,232.12L254.62,228.09L255.81,227.69L258.19,225.07L259.38,223.25L266.52,217.81L267.71,216.2L270.08,213.78L271.27,212.57L274.84,210.16L276.03,209.15L278.41,208.75L279.6,207.54L283.17,204.72L284.36,204.51L292.69,202.9L293.88,201.29L296.26,198.47L297.45,198.47" style="vector-effect: non-scaling-stroke; fill: none; stroke: rgb(245, 130, 49); stroke-opacity: 1; stroke-width: 2px; opacity: 1;"/></g><g class="points"/><g class="text"/></g><g class="trace scatter trace376e1e" style="stroke-miterlimit: 2; opacity: 1;"><g class="fills"/><g class="errorbars"/><g class="lines"><path class="js-line" d="M0,256.5L67.82,255.9L69.01,255.69L77.34,254.89L78.53,254.89L80.91,254.69L82.1,253.88L85.67,253.48L86.86,252.87L88.05,252.67L89.24,251.46L96.37,248.24L97.56,246.43L98.75,246.43L99.94,245.62L101.13,244.61L102.32,244.61L103.51,241.59L104.7,241.39L108.27,236.55L109.46,236.35L111.84,232.93L113.03,232.72L114.22,228.09L115.41,228.09L116.6,227.69L117.79,226.48L120.17,224.06L121.36,224.06L122.55,220.03L123.74,219.43L124.93,219.02L126.12,217.81L127.31,215.4L128.5,215.4L129.69,215.19L130.88,212.78L134.45,209.15L135.64,207.74L138.02,207.74L139.21,203.91L140.4,202.1L141.59,202.1L143.97,198.07L145.16,198.07L147.54,197.66L148.73,195.45L151.1,193.43L152.29,191.42L155.86,191.42L157.05,187.59L159.43,186.99L160.62,184.97L164.19,184.77L165.38,182.96L168.95,179.33L170.14,179.33L172.52,179.13L173.71,176.91L174.9,176.1L176.09,174.29L178.47,173.89L179.66,173.89L182.04,169.66L183.23,169.46L186.8,168.25L187.99,168.25L189.18,167.84L190.37,164.42L192.75,162.81L193.94,159.99L196.32,159.99L197.51,158.57L201.08,149.1L202.27,148.3L204.65,148.3L205.84,145.68L207.03,145.07L208.22,140.24L210.59,138.22L211.78,138.22L215.35,137.82L216.54,132.18L217.73,128.15L218.92,128.15L221.3,128.15L222.49,121.3L223.68,121.1L224.87,119.08L227.25,116.46L228.44,116.46L229.63,116.46L230.82,108L232.01,107.8L233.2,104.98L235.58,95.51L236.77,95.51L237.96,95.51L239.15,91.28L240.34,90.47L241.53,84.63L242.72,79.39L243.91,78.99L246.29,78.99L247.48,72.74L249.86,71.73L251.05,70.72L252.24,69.72L253.43,69.72L254.62,69.72L255.81,60.65L258.19,58.23L259.38,55.61L260.57,53.6L261.76,53.6L262.95,53.6L264.14,51.18L266.52,48.36L267.71,44.33L268.89,41.51L270.08,41.51L272.46,41.51L273.65,39.9L277.22,34.25L278.41,34.25L279.6,34.25L280.79,31.23L284.36,26.19L285.55,24.18L287.93,24.18L289.12,22.37L290.31,20.35L291.5,20.15L293.88,16.93L295.07,16.93L296.26,16.93L297.45,13.5" style="vector-effect: non-scaling-stroke; fill: none; stroke: rgb(145, 30, 180); stroke-opacity: 1; stroke-width: 2px; opacity: 1;"/></g><g class="points"/><g class="text"/></g></g></g><g class="overplot"/><path class="xlines-above crisp" d="M0,0" style="fill: none;"/><path class="ylines-above crisp" d="M0,0" style="fill: none;"/><g class="overlines-above"/><g class="xaxislayer-above"><g class="x2tick"><text text-anchor="middle" x="0" y="383" transform="translate(489.95,0)" style="font-family: 'Open Sans', verdana, arial, sans-serif; font-size: 12px; fill: rgb(242, 245, 250); fill-opacity: 1; white-space: pre;">Mar 2020</text></g><g class="x2tick"><text text-anchor="middle" x="0" y="383" transform="translate(562.53,0)" style="font-family: 'Open Sans', verdana, arial, sans-serif; font-size: 12px; fill: rgb(242, 245, 250); fill-opacity: 1; white-space: pre;">May 2020</text></g><g class="x2tick"><text text-anchor="middle" x="0" y="383" transform="translate(635.11,0)" style="font-family: 'Open Sans', verdana, arial, sans-serif; font-size: 12px; fill: rgb(242, 245, 250); fill-opacity: 1; white-space: pre;">Jul 2020</text></g><g class="x2tick"><text text-anchor="middle" x="0" y="383" transform="translate(708.88,0)" style="font-family: 'Open Sans', verdana, arial, sans-serif; font-size: 12px; fill: rgb(242, 245, 250); fill-opacity: 1; white-space: pre;">Sep 2020</text></g></g><g class="yaxislayer-above"><g class="y2tick"><text text-anchor="end" x="442.55" y="4.199999999999999" transform="translate(0,356.5)" style="font-family: 'Open Sans', verdana, arial, sans-serif; font-size: 12px; fill: rgb(242, 245, 250); fill-opacity: 1; white-space: pre;">0</text></g><g class="y2tick"><text text-anchor="end" x="442.55" y="4.199999999999999" transform="translate(0,316.2)" style="font-family: 'Open Sans', verdana, arial, sans-serif; font-size: 12px; fill: rgb(242, 245, 250); fill-opacity: 1; white-space: pre;">200</text></g><g class="y2tick"><text text-anchor="end" x="442.55" y="4.199999999999999" transform="translate(0,275.9)" style="font-family: 'Open Sans', verdana, arial, sans-serif; font-size: 12px; fill: rgb(242, 245, 250); fill-opacity: 1; white-space: pre;">400</text></g><g class="y2tick"><text text-anchor="end" x="442.55" y="4.199999999999999" transform="translate(0,235.6)" style="font-family: 'Open Sans', verdana, arial, sans-serif; font-size: 12px; fill: rgb(242, 245, 250); fill-opacity: 1; white-space: pre;">600</text></g><g class="y2tick"><text text-anchor="end" x="442.55" y="4.199999999999999" transform="translate(0,195.31)" style="font-family: 'Open Sans', verdana, arial, sans-serif; font-size: 12px; fill: rgb(242, 245, 250); fill-opacity: 1; white-space: pre;">800</text></g><g class="y2tick"><text text-anchor="end" x="442.55" y="4.199999999999999" transform="translate(0,155.01)" style="font-family: 'Open Sans', verdana, arial, sans-serif; font-size: 12px; fill: rgb(242, 245, 250); fill-opacity: 1; white-space: pre;">1000</text></g><g class="y2tick"><text text-anchor="end" x="442.55" y="4.199999999999999" transform="translate(0,114.71000000000001)" style="font-family: 'Open Sans', verdana, arial, sans-serif; font-size: 12px; fill: rgb(242, 245, 250); fill-opacity: 1; white-space: pre;">1200</text></g></g><g class="overaxes-above"/></g></g><g class="polarlayer"/><g class="ternarylayer"/><g class="geolayer"/><g class="funnelarealayer"/><g class="pielayer"/><g class="treemaplayer"/><g class="sunburstlayer"/><g class="glimages"/><defs id="topdefs-c4807b"><g class="clips"/><clipPath id="legendc4807b"><rect width="134" height="124" x="0" y="0"/></clipPath></defs><g class="layer-above"><g class="imagelayer"/><g class="shapelayer"/></g><g class="infolayer"><g class="legend" pointer-events="all" transform="translate(754.22, 100)"><rect class="bg" shape-rendering="crispEdges" width="134" height="124" x="0" y="0" style="stroke: rgb(68, 68, 68); stroke-opacity: 1; fill: rgb(17, 17, 17); fill-opacity: 1; stroke-width: 0px;"/><g class="scrollbox" transform="translate(0, 0)" clip-path="url('#legendc4807b')"><g class="groups"><g class="traces" transform="translate(0, 14.5)" style="opacity: 1;"><text class="legendtext user-select-none" text-anchor="start" x="40" y="4.680000000000001" style="font-family: 'Open Sans', verdana, arial, sans-serif; font-size: 12px; fill: rgb(242, 245, 250); fill-opacity: 1; white-space: pre;">Alameda, CA</text><g class="layers" style="opacity: 1;"><g class="legendfill"/><g class="legendlines"><path class="js-line" d="M5,0h30" style="fill: none; stroke: rgb(230, 25, 75); stroke-opacity: 1; stroke-width: 2px;"/></g><g class="legendsymbols"><g class="legendpoints"/></g></g><rect class="legendtoggle" pointer-events="all" x="0" y="-9.5" width="128.046875" height="19" style="cursor: pointer; fill: rgb(0, 0, 0); fill-opacity: 0;"/></g><g class="traces" transform="translate(0, 33.5)" style="opacity: 1;"><text class="legendtext user-select-none" text-anchor="start" x="40" y="4.680000000000001" style="font-family: 'Open Sans', verdana, arial, sans-serif; font-size: 12px; fill: rgb(242, 245, 250); fill-opacity: 1; white-space: pre;">St Louis, MO</text><g class="layers" style="opacity: 1;"><g class="legendfill"/><g class="legendlines"><path class="js-line" d="M5,0h30" style="fill: none; stroke: rgb(60, 180, 75); stroke-opacity: 1; stroke-width: 2px;"/></g><g class="legendsymbols"><g class="legendpoints"/></g></g><rect class="legendtoggle" pointer-events="all" x="0" y="-9.5" width="128.046875" height="19" style="cursor: pointer; fill: rgb(0, 0, 0); fill-opacity: 0;"/></g><g class="traces" transform="translate(0, 52.5)" style="opacity: 1;"><text class="legendtext user-select-none" text-anchor="start" x="40" y="4.680000000000001" style="font-family: 'Open Sans', verdana, arial, sans-serif; font-size: 12px; fill: rgb(242, 245, 250); fill-opacity: 1; white-space: pre;">Sacramento, CA</text><g class="layers" style="opacity: 1;"><g class="legendfill"/><g class="legendlines"><path class="js-line" d="M5,0h30" style="fill: none; stroke: rgb(255, 225, 25); stroke-opacity: 1; stroke-width: 2px;"/></g><g class="legendsymbols"><g class="legendpoints"/></g></g><rect class="legendtoggle" pointer-events="all" x="0" y="-9.5" width="128.046875" height="19" style="cursor: pointer; fill: rgb(0, 0, 0); fill-opacity: 0;"/></g><g class="traces" transform="translate(0, 71.5)" style="opacity: 1;"><text class="legendtext user-select-none" text-anchor="start" x="40" y="4.680000000000001" style="font-family: 'Open Sans', verdana, arial, sans-serif; font-size: 12px; fill: rgb(242, 245, 250); fill-opacity: 1; white-space: pre;">Cameron, TX</text><g class="layers" style="opacity: 1;"><g class="legendfill"/><g class="legendlines"><path class="js-line" d="M5,0h30" style="fill: none; stroke: rgb(67, 99, 216); stroke-opacity: 1; stroke-width: 2px;"/></g><g class="legendsymbols"><g class="legendpoints"/></g></g><rect class="legendtoggle" pointer-events="all" x="0" y="-9.5" width="128.046875" height="19" style="cursor: pointer; fill: rgb(0, 0, 0); fill-opacity: 0;"/></g><g class="traces" transform="translate(0, 90.5)" style="opacity: 1;"><text class="legendtext user-select-none" text-anchor="start" x="40" y="4.680000000000001" style="font-family: 'Open Sans', verdana, arial, sans-serif; font-size: 12px; fill: rgb(242, 245, 250); fill-opacity: 1; white-space: pre;">Marion, FL</text><g class="layers" style="opacity: 1;"><g class="legendfill"/><g class="legendlines"><path class="js-line" d="M5,0h30" style="fill: none; stroke: rgb(245, 130, 49); stroke-opacity: 1; stroke-width: 2px;"/></g><g class="legendsymbols"><g class="legendpoints"/></g></g><rect class="legendtoggle" pointer-events="all" x="0" y="-9.5" width="128.046875" height="19" style="cursor: pointer; fill: rgb(0, 0, 0); fill-opacity: 0;"/></g><g class="traces" transform="translate(0, 109.5)" style="opacity: 1;"><text class="legendtext user-select-none" text-anchor="start" x="40" y="4.680000000000001" style="font-family: 'Open Sans', verdana, arial, sans-serif; font-size: 12px; fill: rgb(242, 245, 250); fill-opacity: 1; white-space: pre;">Riverside, CA</text><g class="layers" style="opacity: 1;"><g class="legendfill"/><g class="legendlines"><path class="js-line" d="M5,0h30" style="fill: none; stroke: rgb(145, 30, 180); stroke-opacity: 1; stroke-width: 2px;"/></g><g class="legendsymbols"><g class="legendpoints"/></g></g><rect class="legendtoggle" pointer-events="all" x="0" y="-9.5" width="128.046875" height="19" style="cursor: pointer; fill: rgb(0, 0, 0); fill-opacity: 0;"/></g></g></g><rect class="scrollbar" rx="20" ry="3" width="0" height="0" x="0" y="0" style="fill: rgb(128, 139, 164); fill-opacity: 1;"/></g><g class="g-gtitle"/><g class="g-xtitle"><text class="xtitle" x="228.725" y="410.8" text-anchor="middle" style="font-family: 'Open Sans', verdana, arial, sans-serif; font-size: 14px; fill: rgb(242, 245, 250); opacity: 1; font-weight: normal; white-space: pre;">Date</text></g><g class="g-x2title"><text class="x2title" x="592.275" y="410.8" text-anchor="middle" style="font-family: 'Open Sans', verdana, arial, sans-serif; font-size: 14px; fill: rgb(242, 245, 250); opacity: 1; font-weight: normal; white-space: pre;">Date</text></g><g class="g-ytitle"><text class="ytitle" transform="rotate(-90,34.840625,235)" x="34.840625" y="235" text-anchor="middle" style="font-family: 'Open Sans', verdana, arial, sans-serif; font-size: 14px; fill: rgb(242, 245, 250); opacity: 1; font-weight: normal; white-space: pre;">Cases</text></g><g class="g-y2title"><text class="y2title" transform="rotate(-90,391.04375,235)" x="391.04375" y="235" text-anchor="middle" style="font-family: 'Open Sans', verdana, arial, sans-serif; font-size: 14px; fill: rgb(242, 245, 250); opacity: 1; font-weight: normal; white-space: pre;">Deaths</text></g><g class="annotation" data-index="0" style="opacity: 1;"><g class="annotation-text-g" transform="rotate(0,228.725,89.5)"><g class="cursor-pointer" transform="translate(204, 79)"><rect class="bg" x="0.5" y="0.5" width="48" height="20" style="stroke-width: 1px; stroke: rgb(0, 0, 0); stroke-opacity: 0; fill: rgb(0, 0, 0); fill-opacity: 0;"/><text class="annotation-text" text-anchor="middle" x="24.6875" y="16" style="font-family: 'Open Sans', verdana, arial, sans-serif; font-size: 16px; fill: rgb(242, 245, 250); fill-opacity: 1; white-space: pre;">Cases</text></g></g></g><g class="annotation" data-index="1" style="opacity: 1;"><g class="annotation-text-g" transform="rotate(0,592.275,89.5)"><g class="cursor-pointer" transform="translate(565, 79)"><rect class="bg" x="0.5" y="0.5" width="54" height="20" style="stroke-width: 1px; stroke: rgb(0, 0, 0); stroke-opacity: 0; fill: rgb(0, 0, 0); fill-opacity: 0;"/><text class="annotation-text" text-anchor="middle" x="27.359375" y="16" style="font-family: 'Open Sans', verdana, arial, sans-serif; font-size: 16px; fill: rgb(242, 245, 250); fill-opacity: 1; white-space: pre;">Deaths</text></g></g></g></g></svg>