<svg class="main-svg" xmlns="http://www.w3.org/2000/svg" xmlns:xlink="http://www.w3.org/1999/xlink" width="900" height="450" style="" viewBox="0 0 900 450"><rect x="0" y="0" width="900" height="450" style="fill: rgb(17, 17, 17); fill-opacity: 1;"/><defs id="defs-74046b"><g class="clips"><clipPath id="clip74046bxyplot" class="plotclip"><rect width="304.2" height="270"/></clipPath><clipPath id="clip74046bx2y2plot" class="plotclip"><rect width="304.2" height="270"/></clipPath><clipPath class="axesclip" id="clip74046bx"><rect x="80" y="0" width="304.2" height="450"/></clipPath><clipPath class="axesclip" id="clip74046by"><rect x="0" y="100" width="900" height="270"/></clipPath><clipPath class="axesclip" id="clip74046bxy"><rect x="80" y="100" width="304.2" height="270"/></clipPath><clipPath class="axesclip" id="clip74046by2"><rect x="0" y="100" width="900" height="270"/></clipPath><clipPath class="axesclip" id="clip74046bxy2"><rect x="80" y="100" width="304.2" height="270"/></clipPath><clipPath class="axesclip" id="clip74046bx2"><rect x="451.8" y="0" width="304.2" height="450"/></clipPath><clipPath class="axesclip" id="clip74046bx2y"><rect x="451.8" y="100" width="304.2" height="270"/></clipPath><clipPath class="axesclip" id="clip74046bx2y2"><rect x="451.8" y="100" width="304.2" height="270"/></clipPath></g><g class="gradients"/></defs><g class="bglayer"/><g class="layer-below"><g class="imagelayer"/><g class="shapelayer"/></g><g class="cartesianlayer"><g class="subplot xy"><g class="layer-subplot"><g class="shapelayer"/><g class="imagelayer"/></g><g class="gridlayer"><g class="x"><path class="xgrid crisp" transform="translate(183.76,0)" d="M0,100v270" style="stroke: rgb(40, 52, 66); stroke-opacity: 1; stroke-width: 1px;"/><path class="xgrid crisp" transform="translate(302.35,0)" d="M0,100v270" style="stroke: rgb(40, 52, 66); stroke-opacity: 1; stroke-width: 1px;"/></g><g class="y"><path class="ygrid crisp" transform="translate(0,300.72)" d="M80,0h304.2" style="stroke: rgb(40, 52, 66); stroke-opacity: 1; stroke-width: 1px;"/><path class="ygrid crisp" transform="translate(0,244.94)" d="M80,0h304.2" style="stroke: rgb(40, 52, 66); stroke-opacity: 1; stroke-width: 1px;"/><path class="ygrid crisp" transform="translate(0,189.16)" d="M80,0h304.2" style="stroke: rgb(40, 52, 66); stroke-opacity: 1; stroke-width: 1px;"/><path class="ygrid crisp" transform="translate(0,133.38)" d="M80,0h304.2" style="stroke: rgb(40, 52, 66); stroke-opacity: 1; stroke-width: 1px;"/></g></g><g class="zerolinelayer"><path class="yzl zl crisp" transform="translate(0,356.5)" d="M80,0h304.2" style="stroke: rgb(40, 52, 66); stroke-opacity: 1; stroke-width: 2px;"/></g><path class="xlines-below"/><path class="ylines-below"/><g class="overlines-below"/><g class="xaxislayer-below"/><g class="yaxislayer-below"/><g class="overaxes-below"/><g class="plot" transform="translate(80, 100)" clip-path="url('#clip74046bxyplot')"><g class="scatterlayer mlayer"><g class="trace scatter trace2c19f3" style="stroke-miterlimit: 2; opacity: 1;"><g class="fills"/><g class="errorbars"/><g class="lines"><path class="js-line" d="M0,256.5L43.18,255.75L43.83,255.71L55.43,253.54L56.07,253.39L83.14,247.33L83.78,247.05L96.67,243.1L97.32,243.1L100.54,241.18L101.19,241.18L106.99,237.29L107.63,237.29L109.56,235.62L110.21,234.95L111.5,234.25L112.14,233.29L117.94,228.98L118.59,228.01L121.81,226.45L122.45,225.46L123.1,225.46L123.74,224.47L124.39,224.36L125.03,223.46L128.25,222.65L128.9,219.69L129.54,219.63L130.19,218.39L132.12,215.9L132.77,215.9L134.05,214.3L134.7,213.45L137.28,209.94L137.92,209.86L138.57,209.83L139.21,208.32L143.08,205.78L143.72,205.06L146.3,203.14L146.94,203.14L149.52,201.53L150.17,201.22L154.03,200.27L154.68,199.7L159.19,197.85L159.83,197.85L162.41,196.86L163.06,196.65L173.37,193.86L174.01,193.37L188.84,186.47L189.48,186.08L193.35,182.7L193.99,182.16L197.21,179.46L197.86,178.81L201.73,173.76L202.37,173.21L206.24,165.51L206.88,162.41L210.1,155.58L210.75,149.91L212.68,144.21L213.33,144.15L215.26,133.77L215.9,131.68L219.77,117.71L220.42,115.92L222.35,110.15L222.99,107.24L225.57,99.11L226.22,97.3L232.02,74.05L232.66,70.8L235.24,64.66L235.88,63.18L238.46,57.77L239.11,56.11L242.33,50.17L242.97,49.07L245.55,45.33L246.2,44.06L251.35,37.73L252,37.15L254.57,35.28L255.22,34.79L259.73,31.8L260.37,29.94L267.46,26.89L268.11,26.7L281,23.41L281.64,22.85L283.58,22.2L284.22,21.86L285.51,21.63L286.15,21.1L286.8,21.1L287.44,20.12L291.31,18.41L291.95,18.09L304.2,13.5" style="vector-effect: non-scaling-stroke; fill: none; stroke: rgb(230, 25, 75); stroke-opacity: 1; stroke-width: 2px; opacity: 1;"/></g><g class="points"/><g class="text"/></g><g class="trace scatter traceb5bcda" style="stroke-miterlimit: 2; opacity: 1;"><g class="fills"/><g class="errorbars"/><g class="lines"><path class="js-line" d="M0,256.5L53.49,255.75L54.14,255.74L98.61,253.65L99.25,253.52L106.34,252.03L106.99,251.74L114.72,249.32L115.36,249.07L134.05,243.1L134.7,243.01L143.72,241.6L144.37,241.45L157.26,238.75L157.9,238.52L163.06,236.76L163.7,236.46L172.72,233.15L173.37,232.86L177.24,231.55L177.88,232.14L179.17,230.8L179.81,230.62L187.55,226.06L188.19,225.48L190.13,224.11L190.77,223.37L193.99,219.99L194.64,219.32L196.57,218.38L197.21,216.13L198.5,213.76L199.15,213.76L201.73,209.3L202.37,209.3L204.3,205.9L204.95,205.9L205.59,205.09L206.24,202.62L207.53,200.65L208.17,200.18L211.39,196.28L212.04,196.28L213.33,196.28L213.97,192.26L214.62,192.26L215.26,191.13L217.19,189.51L217.84,190.21L219.13,190.21L219.77,192.26L220.42,192.26L221.06,187.74L222.35,185.15L222.99,185.15L224.28,182.39L224.93,181.22L226.22,179.34L226.86,179.34L228.15,179.34L228.79,177.04L230.08,177.04L230.73,172.63L232.66,172.63L233.31,170.72L236.53,167.45L237.17,167.45L239.11,166.04L239.75,164.61L250.06,158.51L250.71,158.51L252,157.88L252.64,157.68L257.15,155.71L257.8,155.52L263.6,153.82L264.24,153.82L289.38,145.65L290.02,145.2L293.89,143.4L294.53,143L299.69,140.8L300.33,140.8L302.91,139.48L303.56,139.14L304.2,138.77" style="vector-effect: non-scaling-stroke; fill: none; stroke: rgb(60, 180, 75); stroke-opacity: 1; stroke-width: 2px; opacity: 1;"/></g><g class="points"/><g class="text"/></g><g class="trace scatter trace8d8b48" style="stroke-miterlimit: 2; opacity: 1;"><g class="fills"/><g class="errorbars"/><g class="lines"><path class="js-line" d="M0,256.5L54.78,255.77L55.43,255.74L97.96,253.73L98.61,253.62L105.05,251.44L105.7,250.76L110.21,249.13L110.85,247.84L114.72,245.16L115.36,244.66L128.9,239.12L129.54,239.05L141.14,236.6L141.79,236.53L173.37,231.49L174.01,231.34L182.39,229.32L183.04,229.14L185.61,228.09L186.26,227.92L191.41,225.78L192.06,225.27L193.99,224.09L194.64,223.3L198.5,220.47L199.15,220.47L200.44,218.98L201.08,218.44L206.24,215.05L206.88,214.6L222.35,204.61L222.99,203.41L225.57,200.19L226.22,199.29L232.02,193.7L232.66,193.44L235.24,191.72L235.88,190.67L242.33,187.24L242.97,186.73L247.48,185.18L248.13,184.82L254.57,182.72L255.22,182.62L268.75,178.48L269.4,178.34L280.35,174.32L281,173.99L290.67,169.38L291.31,168.96L302.91,165.17L303.56,165L304.2,164.85" style="vector-effect: non-scaling-stroke; fill: none; stroke: rgb(255, 225, 25); stroke-opacity: 1; stroke-width: 2px; opacity: 1;"/></g><g class="points"/><g class="text"/></g><g class="trace scatter traceaf2aee" style="stroke-miterlimit: 2; opacity: 1;"><g class="fills"/><g class="errorbars"/><g class="lines"><path class="js-line" d="M0,256.5L48.98,255.79L49.63,255.73L68.96,254.95L69.61,254.93L98.61,253.3L99.25,253.09L103.76,250.46L104.41,249.95L112.79,243.25L113.43,241.8L117.3,237.85L117.94,237.41L121.81,233.4L122.45,233.4L126.96,230.6L127.61,230.28L130.83,228.79L131.48,228.51L135.99,227.07L136.63,226.88L152.1,223.57L152.74,223.46L166.92,220.52L167.57,220.36L186.9,214.85L187.55,214.37L193.35,211.13L193.99,210.51L198.5,207.54L199.15,207.54L201.08,205.61L201.73,205.31L217.19,189.84L217.84,189.84L219.77,188.14L220.42,187.66L222.35,185.82L222.99,183.67L224.93,181.96L225.57,180.88L228.79,176.1L229.44,175.32L235.24,168.65L235.88,167.99L238.46,165.58L239.11,165.13L243.62,161.69L244.26,161.4L246.84,159.76L247.48,159.45L255.86,155.63L256.51,155.34L266.17,151.29L266.82,151.04L279.71,146.04L280.35,145.59L293.24,137.36L293.89,136.78L304.2,131.37" style="vector-effect: non-scaling-stroke; fill: none; stroke: rgb(67, 99, 216); stroke-opacity: 1; stroke-width: 2px; opacity: 1;"/></g><g class="points"/><g class="text"/></g><g class="trace scatter trace097a3e" style="stroke-miterlimit: 2; opacity: 1;"><g class="fills"/><g class="errorbars"/><g class="lines"><path class="js-line" d="M0,256.5L47.05,255.83L47.69,255.67L67.03,253.74L67.67,253.67L91.52,250.71L92.16,250.53L104.41,246.18L105.05,245.88L108.92,244.21L109.56,243.94L125.03,234.5L125.68,234.17L131.48,231L132.12,230.77L141.79,226.93L142.43,225.79L148.23,221.93L148.88,221.83L149.52,221.63L150.17,219.49L159.19,214.63L159.83,214.13L181.1,208.16L181.75,207.82L193.99,203.79L194.64,202.63L196.57,202.63L197.21,201.29L198.5,200.61L199.15,200.61L201.08,199.75L201.73,199.48L204.3,197.68L204.95,197.01L212.68,190.81L213.33,189.8L222.99,182.28L223.64,180.84L228.79,174.03L229.44,173.84L232.02,169.09L232.66,167.72L235.88,164.38L236.53,162.98L238.46,160.75L239.11,159.85L245.55,153.06L246.2,152.43L253.29,146.52L253.93,145.79L256.51,143.19L257.15,142.59L264.89,139.31L265.53,139.2L295.82,129.09L296.47,128.98L302.27,127.42L302.91,127.2L304.2,126.89" style="vector-effect: non-scaling-stroke; fill: none; stroke: rgb(245, 130, 49); stroke-opacity: 1; stroke-width: 2px; opacity: 1;"/></g><g class="points"/><g class="text"/></g><g class="trace scatter traceccefcb" style="stroke-miterlimit: 2; opacity: 1;"><g class="fills"/><g class="errorbars"/><g class="lines"><path class="js-line" d="M0,256.5L44.47,255.86L45.11,255.6L59.29,251.24L59.94,250.9L64.45,249.2L65.09,248.7L67.67,247.21L68.32,246.92L74.12,244.47L74.76,244.26L78.63,242.52L79.27,242.23L88.94,240L89.58,239.87L121.81,233.46L122.45,233.21L139.21,226.02L139.85,225.65L145.01,223.77L145.66,222.9L148.88,221.62L149.52,221.38L168.86,213.57L169.5,213.25L173.37,210.53L174.01,209.79L176.59,207.37L177.24,206.68L183.04,198.89L183.68,197.81L185.61,194.24L186.26,191.57L199.79,150.9L200.44,149.71L201.73,147.67L202.37,144.68L210.75,126.58L211.39,125.75L217.84,115.58L218.48,115.06L221.06,112.05L221.71,110.65L222.35,110.65L222.99,108.96L225.57,105.31L226.22,104L228.79,99.91L229.44,99.1L235.24,92.02L235.88,91.2L240.4,86.62L241.04,86L251.35,79.45L252,79.24L259.09,75.34L259.73,75.11L262.95,73.65L263.6,72.93L270.04,70.37L270.69,70.15L281.64,64.06L282.29,63.65L284.87,61.57L285.51,61.03L299.69,50.11L300.33,49.73L304.2,47.46" style="vector-effect: non-scaling-stroke; fill: none; stroke: rgb(145, 30, 180); stroke-opacity: 1; stroke-width: 2px; opacity: 1;"/></g><g class="points"/><g class="text"/></g></g></g><g class="overplot"/><path class="xlines-above crisp" d="M0,0" style="fill: none;"/><path class="ylines-above crisp" d="M0,0" style="fill: none;"/><g class="overlines-above"/><g class="xaxislayer-above"><g class="xtick"><text text-anchor="middle" x="0" y="383" transform="translate(183.76,0)" style="font-family: 'Open Sans', verdana, arial, sans-serif; font-size: 12px; fill: rgb(242, 245, 250); fill-opacity: 1; white-space: pre;">Jul 2020</text></g><g class="xtick"><text text-anchor="middle" x="0" y="383" transform="translate(302.35,0)" style="font-family: 'Open Sans', verdana, arial, sans-serif; font-size: 12px; fill: rgb(242, 245, 250); fill-opacity: 1; white-space: pre;">Jan 2021</text></g></g><g class="yaxislayer-above"><g class="ytick"><text text-anchor="end" x="79" y="4.199999999999999" transform="translate(0,356.5)" style="font-family: 'Open Sans', verdana, arial, sans-serif; font-size: 12px; fill: rgb(242, 245, 250); fill-opacity: 1; white-space: pre;">0</text></g><g class="ytick"><text text-anchor="end" x="79" y="4.199999999999999" transform="translate(0,300.72)" style="font-family: 'Open Sans', verdana, arial, sans-serif; font-size: 12px; fill: rgb(242, 245, 250); fill-opacity: 1; white-space: pre;">20k</text></g><g class="ytick"><text text-anchor="end" x="79" y="4.199999999999999" transform="translate(0,244.94)" style="font-family: 'Open Sans', verdana, arial, sans-serif; font-size: 12px; fill: rgb(242, 245, 250); fill-opacity: 1; white-space: pre;">40k</text></g><g class="ytick"><text text-anchor="end" x="79" y="4.199999999999999" transform="translate(0,189.16)" style="font-family: 'Open Sans', verdana, arial, sans-serif; font-size: 12px; fill: rgb(242, 245, 250); fill-opacity: 1; white-space: pre;">60k</text></g><g class="ytick"><text text-anchor="end" x="79" y="4.199999999999999" transform="translate(0,133.38)" style="font-family: 'Open Sans', verdana, arial, sans-serif; font-size: 12px; fill: rgb(242, 245, 250); fill-opacity: 1; white-space: pre;">80k</text></g></g><g class="overaxes-above"/></g><g class="subplot x2y2"><g class="layer-subplot"><g class="shapelayer"/><g class="imagelayer"/></g><g class="gridlayer"><g class="x2"><path class="x2grid crisp" transform="translate(555.5600000000001,0)" d="M0,100v270" style="stroke: rgb(40, 52, 66); stroke-opacity: 1; stroke-width: 1px;"/><path class="x2grid crisp" transform="translate(674.15,0)" d="M0,100v270" style="stroke: rgb(40, 52, 66); stroke-opacity: 1; stroke-width: 1px;"/></g><g class="y2"><path class="y2grid crisp" transform="translate(0,318.53)" d="M451.8,0h304.2" style="stroke: rgb(40, 52, 66); stroke-opacity: 1; stroke-width: 1px;"/><path class="y2grid crisp" transform="translate(0,280.56)" d="M451.8,0h304.2" style="stroke: rgb(40, 52, 66); stroke-opacity: 1; stroke-width: 1px;"/><path class="y2grid crisp" transform="translate(0,242.59)" d="M451.8,0h304.2" style="stroke: rgb(40, 52, 66); stroke-opacity: 1; stroke-width: 1px;"/><path class="y2grid crisp" transform="translate(0,204.63)" d="M451.8,0h304.2" style="stroke: rgb(40, 52, 66); stroke-opacity: 1; stroke-width: 1px;"/><path class="y2grid crisp" transform="translate(0,166.66)" d="M451.8,0h304.2" style="stroke: rgb(40, 52, 66); stroke-opacity: 1; stroke-width: 1px;"/><path class="y2grid crisp" transform="translate(0,128.69)" d="M451.8,0h304.2" style="stroke: rgb(40, 52, 66); stroke-opacity: 1; stroke-width: 1px;"/></g></g><g class="zerolinelayer"><path class="y2zl zl crisp" transform="translate(0,356.5)" d="M451.8,0h304.2" style="stroke: rgb(40, 52, 66); stroke-opacity: 1; stroke-width: 2px;"/></g><path class="xlines-below"/><path class="ylines-below"/><g class="overlines-below"/><g class="xaxislayer-below"/><g class="yaxislayer-below"/><g class="overaxes-below"/><g class="plot" transform="translate(451.8, 100)" clip-path="url('#clip74046bx2y2plot')"><g class="scatterlayer mlayer"><g class="trace scatter trace581244" style="stroke-miterlimit: 2; opacity: 1;"><g class="fills"/><g class="errorbars"/><g class="lines"><path class="js-line" d="M0,256.5L40.6,256.12L41.25,255.74L44.47,255.17L45.11,254.98L53.49,252.13L54.14,249.67L56.07,248.72L56.72,248.53L58.65,247.96L59.29,247.77L65.09,244.54L65.74,244.54L67.67,243.97L68.32,243.78L70.25,243.02L70.89,243.02L74.12,240.74L74.76,240.74L76.05,240.17L76.69,239.79L79.27,238.84L79.92,238.84L86.36,238.09L87.01,237.33L89.58,237.14L90.23,236.57L92.81,235.24L93.45,235.24L94.1,235.24L94.74,234.48L99.25,233.34L99.9,232.2L105.05,229.92L105.7,229.92L108.27,229.54L108.92,228.78L113.43,227.26L114.07,225.94L116.65,224.8L117.3,224.04L119.88,222.71L120.52,222.71L122.45,221.95L123.1,221.95L124.39,220.62L125.03,220.62L126.96,219.86L127.61,219.86L128.25,219.86L128.9,217.58L130.19,217.58L130.83,216.25L132.77,214.92L133.41,214.54L134.7,213.98L135.34,213.22L137.28,212.27L137.92,212.08L138.57,212.08L139.21,210.94L141.79,209.61L142.43,207.52L143.72,207.71L144.37,204.48L145.66,200.31L146.3,199.74L148.23,199.55L148.88,198.98L149.52,198.98L150.17,195.75L150.81,195.75L151.46,193.47L152.1,193.28L152.74,188.92L153.39,188.92L154.03,187.21L155.97,185.5L156.61,185.5L157.9,181.51L158.54,181.13L159.83,179.8L160.48,179.42L161.77,179.04L162.41,178.28L164.35,175.63L164.99,175.82L166.28,175.44L166.92,172.97L168.86,172.78L169.5,173.73L170.15,173.73L170.79,174.68L171.43,172.59L172.08,174.3L173.37,172.59L174.01,174.3L175.95,173.92L176.59,169.93L177.24,169.93L177.88,169.17L182.39,168.6L183.04,168.6L185.61,168.22L186.26,167.08L187.55,166.51L188.19,166.51L188.84,166.51L189.48,164.81L192.06,163.48L192.7,163.48L195.28,161.77L195.93,161.77L199.15,161.2L199.79,160.63L201.08,159.3L201.73,159.3L204.3,157.78L204.95,157.78L206.24,157.78L206.88,156.83L207.53,156.64L208.17,155.31L210.75,152.85L211.39,150.57L213.33,147.53L213.97,145.44L215.9,144.87L216.55,140.89L217.84,138.99L218.48,138.99L219.77,137.85L220.42,137.85L221.71,137.85L222.35,131.96L225.57,131.96L226.22,124.18L226.86,124.18L227.51,118.1L229.44,116.78L230.08,113.17L233.31,112.79L233.95,111.46L235.24,111.08L235.88,96.65L237.17,93.99L237.82,86.78L238.46,86.4L239.11,84.5L241.68,71.59L242.33,70.45L242.97,70.07L243.62,68.36L244.26,66.85L244.91,62.67L246.84,58.87L247.48,58.87L249.42,54.51L250.06,49.95L251.35,43.88L252,43.69L253.93,42.74L254.57,34.19L255.22,34.19L255.86,28.69L257.15,28.69L257.8,25.27L258.44,24.13L259.09,20.9L259.73,20.9L260.37,46.72L262.95,39.89L263.6,39.51L264.24,39.13L264.89,39.7L266.82,35.52L267.46,35.52L268.75,34.76L269.4,34.95L271.33,30.78L271.98,31.16L272.62,32.86L273.26,31.16L274.55,30.59L275.2,28.88L276.49,27.17L277.13,26.6L283.58,25.08L284.22,24.13L284.87,24.13L285.51,22.61L286.8,21.66L287.44,21.47L288.73,21.28L289.38,19.76L291.95,19.76L292.6,19.76L294.53,18.63L295.18,18.06L299.04,16.73L299.69,15.78L304.2,13.5" style="vector-effect: non-scaling-stroke; fill: none; stroke: rgb(230, 25, 75); stroke-opacity: 1; stroke-width: 2px; opacity: 1;"/></g><g class="points"/><g class="text"/></g><g class="trace scatter trace80a638" style="stroke-miterlimit: 2; opacity: 1;"><g class="fills"/><g class="errorbars"/><g class="lines"><path class="js-line" d="M0,256.5L43.18,256.12L43.83,255.74L46.4,255.17L47.05,254.79L52.2,254.03L52.85,254.03L54.78,253.65L55.43,253.65L58,253.08L58.65,252.89L66.38,252.32L67.03,252.13L73.47,250.8L74.12,250.8L86.36,250.05L87.01,249.86L99.9,249.29L100.54,249.1L108.27,248.53L108.92,248.34L116.65,248.15L117.3,247.96L118.59,247.58L119.23,247.77L124.39,245.11L125.03,244.92L128.25,239.79L128.9,239.6L131.48,238.46L132.12,237.33L135.34,234.48L135.99,234.1L141.14,231.63L141.79,231.63L142.43,231.63L143.08,230.87L146.94,230.3L147.59,230.3L148.88,229.73L149.52,229.54L156.61,228.02L157.26,226.88L158.54,225.56L159.19,225.18L161.12,225.18L161.77,224.42L170.15,222.71L170.79,222.71L173.37,221.38L174.01,221.38L176.59,219.86L177.24,219.48L177.88,220.24L178.52,219.48L179.81,218.91L180.46,218.91L182.39,217.96L183.04,217.96L188.19,216.06L188.84,215.11L192.06,214.54L192.7,214.35L195.28,212.46L195.93,212.46L196.57,212.46L197.21,211.7L198.5,209.61L199.15,209.61L201.08,209.61L201.73,207.9L204.95,205.24L205.59,205.24L208.17,205.24L208.82,204.1L210.75,203.53L211.39,202.39L212.68,204.1L213.33,204.1L214.62,198.22L215.26,198.22L216.55,197.84L217.19,196.32L218.48,197.84L219.13,197.84L221.06,198.22L221.71,198.22L222.35,198.22L222.99,196.13L224.28,190.05L224.93,188.35L226.22,186.26L226.86,186.26L228.15,186.26L228.79,184.74L230.08,184.74L230.73,179.04L232.66,179.04L233.31,177.71L234.59,177.71L235.24,174.68L236.53,173.35L237.17,173.35L240.4,168.41L241.04,168.41L241.68,168.41L242.33,167.46L242.97,167.46L243.62,165.56L244.91,164.24L245.55,164.24L246.84,164.24L247.48,160.63L250.06,156.83L250.71,156.83L251.35,156.83L252,155.69L253.93,153.79L254.57,153.79L255.86,153.41L256.51,152.66L258.44,150.76L259.09,150.76L259.73,150.76L260.37,150L262.95,147.34L263.6,147.34L265.53,146.96L266.17,146.01L274.55,145.44L275.2,145.25L277.78,144.68L278.42,144.11L280.35,142.78L281,142.4L289.38,141.83L290.02,141.26L292.6,140.7L293.24,139.94L295.18,139.37L295.82,139.37L297.11,138.99L297.76,138.61L302.27,137.09L302.91,136.33L304.2,135.95" style="vector-effect: non-scaling-stroke; fill: none; stroke: rgb(60, 180, 75); stroke-opacity: 1; stroke-width: 2px; opacity: 1;"/></g><g class="points"/><g class="text"/></g><g class="trace scatter trace87c9b5" style="stroke-miterlimit: 2; opacity: 1;"><g class="fills"/><g class="errorbars"/><g class="lines"><path class="js-line" d="M0,256.5L45.11,255.93L45.76,255.17L50.91,254.6L51.56,254.22L52.85,254.22L53.49,253.46L56.72,252.13L57.36,251.18L59.94,250.43L60.58,250.43L61.87,250.43L62.52,249.1L65.09,247.58L65.74,247.58L67.67,247.2L68.32,246.82L70.25,245.68L70.89,245.68L75.41,245.49L76.05,244.54L79.92,242.64L80.56,242.64L82.49,241.88L83.14,241.88L85.72,241.31L86.36,240.93L87.65,240.36L88.3,240.36L90.23,239.79L90.87,239.6L96.03,239.03L96.67,238.65L108.27,237.9L108.92,237.52L114.72,237.52L115.36,236.38L125.03,233.53L125.68,232.2L127.61,231.82L128.25,230.3L128.9,230.11L129.54,228.59L130.83,224.99L131.48,224.8L132.77,223.66L133.41,223.66L134.05,223.66L134.7,222.71L138.57,222.14L139.21,221L141.79,218.15L142.43,218.15L143.72,217.77L144.37,216.44L148.88,214.54L149.52,213.79L150.81,212.27L151.46,212.27L152.1,212.27L152.74,211.13L155.32,209.8L155.97,209.8L163.06,206.95L163.7,206.57L165.63,206.19L166.28,205.62L171.43,201.26L172.08,199.36L173.37,197.84L174.01,197.46L175.3,196.89L175.95,194.61L179.17,193.28L179.81,192.33L181.1,191.95L181.75,191.38L184.32,191L184.97,190.43L188.84,189.68L189.48,188.92L193.35,188.54L193.99,187.4L195.28,186.07L195.93,186.07L197.21,186.07L197.86,183.98L199.15,183.03L199.79,182.84L203.66,182.27L204.3,180.94L206.24,180.75L206.88,177.71L208.17,176.58L208.82,175.44L210.1,175.25L210.75,172.78L212.68,170.31L213.33,168.22L216.55,168.03L217.19,163.86L217.84,163.86L218.48,161.77L221.06,160.25L221.71,159.87L224.28,159.3L224.93,158.92L226.22,158.92L226.86,154.17L228.79,153.79L229.44,153.23L230.08,153.23L230.73,150.95L235.24,149.62L235.88,125.13L236.53,142.21L237.17,141.64L237.82,141.45L239.11,140.7L239.75,139.75L241.04,138.04L241.68,138.04L242.97,137.85L243.62,135.38L244.91,132.91L245.55,132.91L246.84,132.91L247.48,129.11L249.42,128.17L250.06,128.17L251.35,128.17L252,123.42L253.93,122.85L254.57,120.76L255.86,120.19L256.51,118.86L257.15,118.86L257.8,117.91L258.44,117.91L259.09,115.64L261.02,115.45L261.66,114.69L263.6,114.12L264.24,114.12L271.98,113.93L272.62,109.37L275.84,108.99L276.49,107.47L280.35,107.09L281,106.33L283.58,105.95L284.22,105.57L285.51,105L286.15,104.81L293.24,103.11L293.89,103.3L297.11,102.92L297.76,102.54L301.62,102.35L302.27,100.83L304.2,100.45" style="vector-effect: non-scaling-stroke; fill: none; stroke: rgb(255, 225, 25); stroke-opacity: 1; stroke-width: 2px; opacity: 1;"/></g><g class="points"/><g class="text"/></g><g class="trace scatter trace6b6b49" style="stroke-miterlimit: 2; opacity: 1;"><g class="fills"/><g class="errorbars"/><g class="lines"><path class="js-line" d="M0,256.5L45.11,256.31L45.76,255.74L64.45,255.17L65.09,254.98L68.32,254.41L68.96,254.22L71.54,253.65L72.18,253.46L84.43,252.89L85.07,252.7L98.61,252.13L99.25,251.94L106.34,251.37L106.99,250.99L111.5,250.61L112.14,249.48L116.01,249.29L116.65,248.34L117.3,248.34L117.94,247.2L121.16,246.06L121.81,244.35L122.45,244.35L123.1,243.02L124.39,241.31L125.03,241.12L127.61,237.52L128.25,236.76L131.48,236.19L132.12,235.81L133.41,233.91L134.05,233.91L137.92,232.39L138.57,232.39L143.72,232.01L144.37,231.63L148.88,231.06L149.52,231.06L151.46,230.68L152.1,230.68L155.32,230.49L155.97,230.49L157.9,229.92L158.54,229.16L161.77,228.4L162.41,227.45L164.35,226.5L164.99,226.5L166.28,225.37L166.92,224.61L170.15,223.47L170.79,223.47L171.43,223.47L172.08,222.71L174.01,222.14L174.66,221.95L176.59,221.19L177.24,221.38L178.52,219.67L179.17,219.1L183.68,217.2L184.32,216.63L188.19,216.44L188.84,215.68L189.48,215.68L190.13,213.41L193.99,213.03L194.64,211.32L195.93,211.89L196.57,211.7L197.86,211.13L198.5,210.94L201.73,210.37L202.37,209.99L206.24,209.61L206.88,208.66L208.17,206L208.82,206L211.39,205.05L212.04,205.24L215.9,204.86L216.55,203.15L218.48,202.77L219.13,202.2L222.99,201.45L223.64,201.26L224.28,201.26L224.93,200.5L225.57,200.12L226.22,198.6L228.15,198.22L228.79,197.46L230.08,197.27L230.73,194.61L231.37,194.61L232.02,193.85L235.88,193.28L236.53,193.09L237.17,193.09L237.82,191.38L239.11,188.73L239.75,188.54L241.04,185.5L241.68,185.5L242.97,184.36L243.62,184.55L244.91,183.6L245.55,183.6L246.84,183.6L247.48,181.32L248.77,180.75L249.42,180.56L251.35,180.18L252,178.28L253.93,177.34L254.57,175.82L255.22,175.82L255.86,174.49L257.8,173.92L258.44,172.78L259.73,172.21L260.37,171.45L262.31,171.26L262.95,170.5L263.6,170.5L264.24,169.36L266.17,168.98L266.82,168.79L269.4,167.27L270.04,167.27L274.55,166.7L275.2,166.7L276.49,165.19L277.13,165.19L279.06,164.62L279.71,164.43L281.64,164.05L282.29,164.05L290.02,163.48L290.67,163.1L292.6,163.1L293.24,162.34L298.4,161.77L299.04,161.58L300.98,161.2L301.62,160.06L304.2,159.68" style="vector-effect: non-scaling-stroke; fill: none; stroke: rgb(67, 99, 216); stroke-opacity: 1; stroke-width: 2px; opacity: 1;"/></g><g class="points"/><g class="text"/></g><g class="trace scatter traceedb9fe" style="stroke-miterlimit: 2; opacity: 1;"><g class="fills"/><g class="errorbars"/><g class="lines"><path class="js-line" d="M0,256.5L45.76,255.93L46.4,255.55L52.2,254.6L52.85,254.6L60.58,253.08L61.23,253.08L62.52,252.51L63.16,250.8L68.96,246.63L69.61,246.25L70.89,245.68L71.54,245.3L77.98,244.73L78.63,244.54L85.72,243.97L86.36,243.78L92.16,242.83L92.81,242.83L96.03,242.45L96.67,242.07L98.61,241.31L99.25,241.31L103.12,240.74L103.76,240.55L105.7,239.98L106.34,239.98L107.63,239.41L108.27,239.03L114.72,236.38L115.36,236L117.3,234.86L117.94,233.72L120.52,232.77L121.16,232.77L123.74,231.63L124.39,230.3L128.25,228.97L128.9,227.64L131.48,226.31L132.12,225.56L134.05,224.23L134.7,222.71L135.99,222.52L136.63,221.76L141.79,219.48L142.43,219.29L145.66,219.1L146.3,217.96L148.23,217.77L148.88,217.2L152.74,214.73L153.39,214.73L163.7,209.42L164.35,209.23L167.57,208.85L168.21,208.47L186.26,203.72L186.9,203.72L193.35,202.58L193.99,202.58L195.28,201.26L195.93,201.26L196.57,201.26L197.21,200.5L198.5,199.93L199.15,199.93L201.73,199.17L202.37,199.17L219.13,193.85L219.77,193.47L222.99,192.33L223.64,191.38L224.93,191.19L225.57,190.62L231.37,187.59L232.02,186.26L233.31,184.55L233.95,183.98L235.24,182.65L235.88,182.08L239.11,180.56L239.75,177.71L241.68,176.01L242.33,173.73L244.91,170.88L245.55,170.88L247.48,170.69L248.13,169.74L253.93,165.19L254.57,165.19L255.86,163.86L256.51,163.86L257.8,163.29L258.44,162.72L267.46,159.49L268.11,158.54L270.04,158.35L270.69,157.78L274.55,157.21L275.2,157.02L279.71,156.45L280.35,156.07L285.51,155.69L286.15,155.12L290.67,154.55L291.31,154.55L295.18,153.98L295.82,153.79L299.04,153.04L299.69,152.85L301.62,152.85L302.27,152.09L304.2,150.95" style="vector-effect: non-scaling-stroke; fill: none; stroke: rgb(245, 130, 49); stroke-opacity: 1; stroke-width: 2px; opacity: 1;"/></g><g class="points"/><g class="text"/></g><g class="trace scatter trace9e3758" style="stroke-miterlimit: 2; opacity: 1;"><g class="fills"/><g class="errorbars"/><g class="lines"><path class="js-line" d="M0,256.5L41.89,255.93L42.54,255.74L43.83,255.55L44.47,254.98L47.05,254.41L47.69,254.22L52.2,245.11L52.85,245.11L54.14,241.12L54.78,239.79L56.07,238.65L56.72,237.33L58,236.57L58.65,235.62L60.58,231.63L61.23,231.25L61.87,230.68L62.52,228.97L65.74,225.75L66.38,224.42L68.96,218.72L69.61,218.15L70.89,218.15L71.54,216.63L72.18,215.87L72.83,212.65L74.12,210.94L74.76,210.94L75.41,210.94L76.05,210.18L79.92,207.52L80.56,207.52L82.49,205.43L83.14,204.67L86.36,202.58L87.01,202.39L88.94,201.83L89.58,200.5L90.87,200.12L91.52,199.74L93.45,199.17L94.1,199.17L95.38,197.84L96.03,197.84L105.05,195.75L105.7,195.75L108.92,195.37L109.56,194.99L120.52,192.33L121.16,192.33L126.32,191.76L126.96,191.19L131.48,190.62L132.12,190.43L134.05,189.86L134.7,189.49L139.85,188.92L140.5,188.73L145.66,187.97L146.3,187.97L148.88,187.78L149.52,187.21L151.46,186.83L152.1,186.83L154.68,186.26L155.32,185.88L157.9,185.5L158.54,185.12L160.48,184.74L161.12,184.74L166.28,182.65L166.92,181.7L172.72,177.9L173.37,177.15L174.66,176.96L175.3,176.39L177.88,175.44L178.52,175.44L180.46,174.87L181.1,174.11L183.04,172.02L183.68,171.83L188.84,168.98L189.48,167.27L190.77,166.7L191.41,164.81L195.28,162.53L195.93,161.2L197.86,160.06L198.5,157.97L200.44,154.93L201.08,154.93L202.37,154.17L203.01,152.85L205.59,146.2L206.24,145.63L208.17,140.7L208.82,139.37L210.1,137.28L210.75,137.09L212.68,132.53L213.33,131.39L222.99,118.29L223.64,117.91L224.93,116.78L225.57,115.07L228.15,110.32L228.79,110.13L230.73,106.9L231.37,106.14L233.31,104.63L233.95,104.63L236.53,101.59L237.17,101.4L238.46,100.64L239.11,99.88L241.04,97.22L241.68,97.03L242.97,96.46L243.62,95.7L245.55,93.23L246.2,93.23L248.13,93.04L248.77,91.53L250.71,91.34L251.35,90.77L258.44,88.11L259.09,87.16L261.66,86.21L262.31,85.07L264.89,83.17L265.53,83.17L269.4,81.27L270.04,80.89L276.49,78.81L277.13,77.86L279.71,77.67L280.35,61.91L282.29,61.53L282.93,61.53L286.15,60.2L286.8,60.2L288.73,60.01L289.38,59.44L294.53,57.16L295.18,56.78L297.11,56.03L297.76,55.65L304.2,52.99" style="vector-effect: non-scaling-stroke; fill: none; stroke: rgb(145, 30, 180); stroke-opacity: 1; stroke-width: 2px; opacity: 1;"/></g><g class="points"/><g class="text"/></g></g></g><g class="overplot"/><path class="xlines-above crisp" d="M0,0" style="fill: none;"/><path class="ylines-above crisp" d="M0,0" style="fill: none;"/><g class="overlines-above"/><g class="xaxislayer-above"><g class="x2tick"><text text-anchor="middle" x="0" y="383" transform="translate(555.5600000000001,0)" style="font-family: 'Open Sans', verdana, arial, sans-serif; font-size: 12px; fill: rgb(242, 245, 250); fill-opacity: 1; white-space: pre;">Jul 2020</text></g><g class="x2tick"><text text-anchor="middle" x="0" y="383" transform="translate(674.15,0)" style="font-family: 'Open Sans', verdana, arial, sans-serif; font-size: 12px; fill: rgb(242, 245, 250); fill-opacity: 1; white-space: pre;">Jan 2021</text></g></g><g class="yaxislayer-above"><g class="y2tick"><text text-anchor="end" x="450.8" y="4.199999999999999" transform="translate(0,356.5)" style="font-family: 'Open Sans', verdana, arial, sans-serif; font-size: 12px; fill: rgb(242, 245, 250); fill-opacity: 1; white-space: pre;">0</text></g><g class="y2tick"><text text-anchor="end" x="450.8" y="4.199999999999999" transform="translate(0,318.53)" style="font-family: 'Open Sans', verdana, arial, sans-serif; font-size: 12px; fill: rgb(242, 245, 250); fill-opacity: 1; white-space: pre;">200</text></g><g class="y2tick"><text text-anchor="end" x="450.8" y="4.199999999999999" transform="translate(0,280.56)" style="font-family: 'Open Sans', verdana, arial, sans-serif; font-size: 12px; fill: rgb(242, 245, 250); fill-opacity: 1; white-space: pre;">400</text></g><g class="y2tick"><text text-anchor="end" x="450.8" y="4.199999999999999" transform="translate(0,242.59)" style="font-family: 'Open Sans', verdana, arial, sans-serif; font-size: 12px; fill: rgb(242, 245, 250); fill-opacity: 1; white-space: pre;">600</text></g><g class="y2tick"><text text-anchor="end" x="450.8" y="4.199999999999999" transform="translate(0,204.63)" style="font-family: 'Open Sans', verdana, arial, sans-serif; font-size: 12px; fill: rgb(242, 245, 250); fill-opacity: 1; white-space: pre;">800</text></g><g class="y2tick"><text text-anchor="end" x="450.8" y="4.199999999999999" transform="translate(0,166.66)" style="font-family: 'Open Sans', verdana, arial, sans-serif; font-size: 12px; fill: rgb(242, 245, 250); fill-opacity: 1; white-space: pre;">1000</text></g><g class="y2tick"><text text-anchor="end" x="450.8" y="4.199999999999999" transform="translate(0,128.69)" style="font-family: 'Open Sans', verdana, arial, sans-serif; font-size: 12px; fill: rgb(242, 245, 250); fill-opacity: 1; white-space: pre;">1200</text></g></g><g class="overaxes-above"/></g></g><g class="polarlayer"/><g class="ternarylayer"/><g class="geolayer"/><g class="funnelarealayer"/><g class="pielayer"/><g class="treemaplayer"/><g class="sunburstlayer"/><g class="glimages"/><defs id="topdefs-74046b"><g class="clips"/><clipPath id="legend74046b"><rect width="118" height="124" x="0" y="0"/></clipPath></defs><g class="layer-above"><g class="imagelayer"/><g class="shapelayer"/></g><g class="infolayer"><g class="legend" pointer-events="all" transform="translate(769.52, 100)"><rect class="bg" shape-rendering="crispEdges" width="118" height="124" x="0" y="0" style="stroke: rgb(68, 68, 68); stroke-opacity: 1; fill: rgb(17, 17, 17); fill-opacity: 1; stroke-width: 0px;"/><g class="scrollbox" transform="translate(0, 0)" clip-path="url('#legend74046b')"><g class="groups"><g class="traces" transform="translate(0, 14.5)" style="opacity: 1;"><text class="legendtext user-select-none" text-anchor="start" x="40" y="4.680000000000001" style="font-family: 'Open Sans', verdana, arial, sans-serif; font-size: 12px; fill: rgb(242, 245, 250); fill-opacity: 1; white-space: pre;">Alameda, CA</text><g class="layers" style="opacity: 1;"><g class="legendfill"/><g class="legendlines"><path class="js-line" d="M5,0h30" style="fill: none; stroke: rgb(230, 25, 75); stroke-opacity: 1; stroke-width: 2px;"/></g><g class="legendsymbols"><g class="legendpoints"/></g></g><rect class="legendtoggle" pointer-events="all" x="0" y="-9.5" width="112.9375" height="19" style="cursor: pointer; fill: rgb(0, 0, 0); fill-opacity: 0;"/></g><g class="traces" transform="translate(0, 33.5)" style="opacity: 1;"><text class="legendtext user-select-none" text-anchor="start" x="40" y="4.680000000000001" style="font-family: 'Open Sans', verdana, arial, sans-serif; font-size: 12px; fill: rgb(242, 245, 250); fill-opacity: 1; white-space: pre;">Spokane, WA</text><g class="layers" style="opacity: 1;"><g class="legendfill"/><g class="legendlines"><path class="js-line" d="M5,0h30" style="fill: none; stroke: rgb(60, 180, 75); stroke-opacity: 1; stroke-width: 2px;"/></g><g class="legendsymbols"><g class="legendpoints"/></g></g><rect class="legendtoggle" pointer-events="all" x="0" y="-9.5" width="112.9375" height="19" style="cursor: pointer; fill: rgb(0, 0, 0); fill-opacity: 0;"/></g><g class="traces" transform="translate(0, 52.5)" style="opacity: 1;"><text class="legendtext user-select-none" text-anchor="start" x="40" y="4.680000000000001" style="font-family: 'Open Sans', verdana, arial, sans-serif; font-size: 12px; fill: rgb(242, 245, 250); fill-opacity: 1; white-space: pre;">Sarasota, FL</text><g class="layers" style="opacity: 1;"><g class="legendfill"/><g class="legendlines"><path class="js-line" d="M5,0h30" style="fill: none; stroke: rgb(255, 225, 25); stroke-opacity: 1; stroke-width: 2px;"/></g><g class="legendsymbols"><g class="legendpoints"/></g></g><rect class="legendtoggle" pointer-events="all" x="0" y="-9.5" width="112.9375" height="19" style="cursor: pointer; fill: rgb(0, 0, 0); fill-opacity: 0;"/></g><g class="traces" transform="translate(0, 71.5)" style="opacity: 1;"><text class="legendtext user-select-none" text-anchor="start" x="40" y="4.680000000000001" style="font-family: 'Open Sans', verdana, arial, sans-serif; font-size: 12px; fill: rgb(242, 245, 250); fill-opacity: 1; white-space: pre;">Osceola, FL</text><g class="layers" style="opacity: 1;"><g class="legendfill"/><g class="legendlines"><path class="js-line" d="M5,0h30" style="fill: none; stroke: rgb(67, 99, 216); stroke-opacity: 1; stroke-width: 2px;"/></g><g class="legendsymbols"><g class="legendpoints"/></g></g><rect class="legendtoggle" pointer-events="all" x="0" y="-9.5" width="112.9375" height="19" style="cursor: pointer; fill: rgb(0, 0, 0); fill-opacity: 0;"/></g><g class="traces" transform="translate(0, 90.5)" style="opacity: 1;"><text class="legendtext user-select-none" text-anchor="start" x="40" y="4.680000000000001" style="font-family: 'Open Sans', verdana, arial, sans-serif; font-size: 12px; fill: rgb(242, 245, 250); fill-opacity: 1; white-space: pre;">Richland, SC</text><g class="layers" style="opacity: 1;"><g class="legendfill"/><g class="legendlines"><path class="js-line" d="M5,0h30" style="fill: none; stroke: rgb(245, 130, 49); stroke-opacity: 1; stroke-width: 2px;"/></g><g class="legendsymbols"><g class="legendpoints"/></g></g><rect class="legendtoggle" pointer-events="all" x="0" y="-9.5" width="112.9375" height="19" style="cursor: pointer; fill: rgb(0, 0, 0); fill-opacity: 0;"/></g><g class="traces" transform="translate(0, 109.5)" style="opacity: 1;"><text class="legendtext user-select-none" text-anchor="start" x="40" y="4.680000000000001" style="font-family: 'Open Sans', verdana, arial, sans-serif; font-size: 12px; fill: rgb(242, 245, 250); fill-opacity: 1; white-space: pre;">Will, IL</text><g class="layers" style="opacity: 1;"><g class="legendfill"/><g class="legendlines"><path class="js-line" d="M5,0h30" style="fill: none; stroke: rgb(145, 30, 180); stroke-opacity: 1; stroke-width: 2px;"/></g><g class="legendsymbols"><g class="legendpoints"/></g></g><rect class="legendtoggle" pointer-events="all" x="0" y="-9.5" width="112.9375" height="19" style="cursor: pointer; fill: rgb(0, 0, 0); fill-opacity: 0;"/></g></g></g><rect class="scrollbar" rx="20" ry="3" width="0" height="0" x="0" y="0" style="fill: rgb(128, 139, 164); fill-opacity: 1;"/></g><g class="g-gtitle"/><g class="g-xtitle"><text class="xtitle" x="232.1" y="410.8" text-anchor="middle" style="font-family: 'Open Sans', verdana, arial, sans-serif; font-size: 14px; fill: rgb(242, 245, 250); opacity: 1; font-weight: normal; white-space: pre;">Date</text></g><g class="g-x2title"><text class="x2title" x="603.9" y="410.8" text-anchor="middle" style="font-family: 'Open Sans', verdana, arial, sans-serif; font-size: 14px; fill: rgb(242, 245, 250); opacity: 1; font-weight: normal; white-space: pre;">Date</text></g><g class="g-ytitle"><text class="ytitle" transform="rotate(-90,34.840625,235)" x="34.840625" y="235" text-anchor="middle" style="font-family: 'Open Sans', verdana, arial, sans-serif; font-size: 14px; fill: rgb(242, 245, 250); opacity: 1; font-weight: normal; white-space: pre;">Cases</text></g><g class="g-y2title"><text class="y2title" transform="rotate(-90,399.29375,235)" x="399.29375" y="235" text-anchor="middle" style="font-family: 'Open Sans', verdana, arial, sans-serif; font-size: 14px; fill: rgb(242, 245, 250); opacity: 1; font-weight: normal; white-space: pre;">Deaths</text></g><g class="annotation" data-index="0" style="opacity: 1;"><g class="annotation-text-g" transform="rotate(0,232.1,89.5)"><g class="cursor-pointer" transform="translate(208, 79)"><rect class="bg" x="0.5" y="0.5" width="48" height="20" style="stroke-width: 1px; stroke: rgb(0, 0, 0); stroke-opacity: 0; fill: rgb(0, 0, 0); fill-opacity: 0;"/><text class="annotation-text" text-anchor="middle" x="24.6875" y="16" style="font-family: 'Open Sans', verdana, arial, sans-serif; font-size: 16px; fill: rgb(242, 245, 250); fill-opacity: 1; white-space: pre;">Cases</text></g></g></g><g class="annotation" data-index="1" style="opacity: 1;"><g class="annotation-text-g" transform="rotate(0,603.9,89.5)"><g class="cursor-pointer" transform="translate(576, 79)"><rect class="bg" x="0.5" y="0.5" width="54" height="20" style="stroke-width: 1px; stroke: rgb(0, 0, 0); stroke-opacity: 0; fill: rgb(0, 0, 0); fill-opacity: 0;"/><text class="annotation-text" text-anchor="middle" x="27.359375" y="16" style="font-family: 'Open Sans', verdana, arial, sans-serif; font-size: 16px; fill: rgb(242, 245, 250); fill-opacity: 1; white-space: pre;">Deaths</text></g></g></g></g></svg>