<svg class="main-svg" xmlns="http://www.w3.org/2000/svg" xmlns:xlink="http://www.w3.org/1999/xlink" width="900" height="450" style="" viewBox="0 0 900 450"><rect x="0" y="0" width="900" height="450" style="fill: rgb(17, 17, 17); fill-opacity: 1;"/><defs id="defs-a68d5d"><g class="clips"><clipPath id="clipa68d5dxyplot" class="plotclip"><rect width="305.1" height="270"/></clipPath><clipPath id="clipa68d5dx2y2plot" class="plotclip"><rect width="305.09999999999997" height="270"/></clipPath><clipPath class="axesclip" id="clipa68d5dx"><rect x="80" y="0" width="305.1" height="450"/></clipPath><clipPath class="axesclip" id="clipa68d5dy"><rect x="0" y="100" width="900" height="270"/></clipPath><clipPath class="axesclip" id="clipa68d5dxy"><rect x="80" y="100" width="305.1" height="270"/></clipPath><clipPath class="axesclip" id="clipa68d5dy2"><rect x="0" y="100" width="900" height="270"/></clipPath><clipPath class="axesclip" id="clipa68d5dxy2"><rect x="80" y="100" width="305.1" height="270"/></clipPath><clipPath class="axesclip" id="clipa68d5dx2"><rect x="452.90000000000003" y="0" width="305.09999999999997" height="450"/></clipPath><clipPath class="axesclip" id="clipa68d5dx2y"><rect x="452.90000000000003" y="100" width="305.09999999999997" height="270"/></clipPath><clipPath class="axesclip" id="clipa68d5dx2y2"><rect x="452.90000000000003" y="100" width="305.09999999999997" height="270"/></clipPath></g><g class="gradients"/></defs><g class="bglayer"/><g class="layer-below"><g class="imagelayer"/><g class="shapelayer"/></g><g class="cartesianlayer"><g class="subplot xy"><g class="layer-subplot"><g class="shapelayer"/><g class="imagelayer"/></g><g class="gridlayer"><g class="x"><path class="xgrid crisp" transform="translate(183.63,0)" d="M0,100v270" style="stroke: rgb(40, 52, 66); stroke-opacity: 1; stroke-width: 1px;"/><path class="xgrid crisp" transform="translate(302.07,0)" d="M0,100v270" style="stroke: rgb(40, 52, 66); stroke-opacity: 1; stroke-width: 1px;"/></g><g class="y"><path class="ygrid crisp" transform="translate(0,309.48)" d="M80,0h305.1" style="stroke: rgb(40, 52, 66); stroke-opacity: 1; stroke-width: 1px;"/><path class="ygrid crisp" transform="translate(0,262.45)" d="M80,0h305.1" style="stroke: rgb(40, 52, 66); stroke-opacity: 1; stroke-width: 1px;"/><path class="ygrid crisp" transform="translate(0,215.43)" d="M80,0h305.1" style="stroke: rgb(40, 52, 66); stroke-opacity: 1; stroke-width: 1px;"/><path class="ygrid crisp" transform="translate(0,168.4)" d="M80,0h305.1" style="stroke: rgb(40, 52, 66); stroke-opacity: 1; stroke-width: 1px;"/><path class="ygrid crisp" transform="translate(0,121.38)" d="M80,0h305.1" style="stroke: rgb(40, 52, 66); stroke-opacity: 1; stroke-width: 1px;"/></g></g><g class="zerolinelayer"><path class="yzl zl crisp" transform="translate(0,356.5)" d="M80,0h305.1" style="stroke: rgb(40, 52, 66); stroke-opacity: 1; stroke-width: 2px;"/></g><path class="xlines-below"/><path class="ylines-below"/><g class="overlines-below"/><g class="xaxislayer-below"/><g class="yaxislayer-below"/><g class="overaxes-below"/><g class="plot" transform="translate(80, 100)" clip-path="url('#clipa68d5dxyplot')"><g class="scatterlayer mlayer"><g class="trace scatter trace601fdc" style="stroke-miterlimit: 2; opacity: 1;"><g class="fills"/><g class="errorbars"/><g class="lines"><path class="js-line" d="M0,256.5L44.41,255.76L45.06,255.66L76.6,250.48L77.24,250.37L84.96,248.24L85.61,248.16L95.26,245.6L95.91,245.44L103.63,242.03L104.27,241.49L108.14,239.47L108.78,239.08L111.36,237.75L112,236.94L124.23,229.4L124.87,228.65L128.09,227.97L128.73,225.47L129.38,225.42L130.02,224.37L131.95,222.27L132.6,222.27L133.88,220.93L134.53,220.2L137.1,217.25L137.75,217.18L138.39,217.16L139.03,215.88L142.89,213.74L143.54,213.13L146.11,211.52L146.76,211.52L149.33,210.16L149.98,209.9L153.84,209.1L154.48,208.62L158.99,207.06L159.63,207.06L162.21,206.22L162.85,206.05L173.79,203.28L174.43,203.04L181.52,200.6L182.16,200.36L189.88,196.78L190.53,196.31L193.74,193.83L194.39,193.19L196.32,191.88L196.96,191.56L200.18,188.04L200.83,187.2L202.76,185.19L203.4,183.66L204.69,181.87L205.33,179.98L205.97,179.79L206.62,177.18L209.84,171.42L210.48,166.64L212.41,161.84L213.06,161.78L214.99,153.04L215.63,151.27L219.49,139.5L220.14,137.99L222.07,133.12L222.71,130.67L225.28,123.82L225.93,122.29L231.72,102.69L232.37,99.95L234.94,94.77L235.58,93.53L238.16,88.97L238.8,87.56L242.02,82.56L242.66,81.63L245.24,78.48L245.88,77.41L251.68,71.59L252.32,71.33L259.4,67.08L260.04,65.51L267.12,62.94L267.77,62.77L280.64,60L281.28,59.53L283.22,58.98L283.86,58.69L286.43,58.05L287.08,57.22L291.58,55.52L292.23,55.28L304.46,51.45L305.1,51.26" style="vector-effect: non-scaling-stroke; fill: none; stroke: rgb(230, 25, 75); stroke-opacity: 1; stroke-width: 2px; opacity: 1;"/></g><g class="points"/><g class="text"/></g><g class="trace scatter trace139e27" style="stroke-miterlimit: 2; opacity: 1;"><g class="fills"/><g class="errorbars"/><g class="lines"><path class="js-line" d="M0,256.5L37.33,255.91L37.98,255.65L40.55,254.57L41.19,253.66L44.41,249.66L45.06,248.28L51.49,234.49L52.14,233.5L54.71,229.68L55.36,228.61L62.44,220.64L63.08,220.18L69.52,216.99L70.16,216.7L75.95,215.31L76.6,215.31L88.83,212.91L89.47,212.83L93.98,212.06L94.62,212L106.21,210.36L106.85,210.29L125.52,208.18L126.16,207.97L165.42,202.95L166.07,202.83L173.79,200.69L174.43,200.44L182.16,196.86L182.8,196.48L187.95,192.88L188.6,192.17L195.03,183.6L195.68,182.56L204.69,168.68L205.33,167.41L213.7,155.98L214.34,155.12L216.27,152.66L216.92,151.58L219.49,148.72L220.14,137.9L225.93,126.96L226.57,123.99L227.22,123.99L227.86,122.74L229.79,119.3L230.43,117.54L234.94,109.43L235.58,108.59L238.8,102.88L239.45,101.67L243.31,96.3L243.95,95.34L247.81,89.62L248.46,88.69L261.97,69.98L262.62,68.88L264.55,66.98L265.19,65.76L270.34,58.82L270.99,58.82L274.2,58.82L274.85,49.21L275.49,49.21L276.13,46.14L276.78,46.14L277.42,44.01L278.71,44.01L279.35,41.39L281.93,36.84L282.57,36.84L285.79,30.4L286.43,30.4L289.01,27.3L289.65,26.35L292.87,23.18L293.51,22.46L295.44,20.89L296.09,20.88L300.59,18.36L301.24,18.13L302.53,14.13L303.17,13.94L305.1,13.5" style="vector-effect: non-scaling-stroke; fill: none; stroke: rgb(60, 180, 75); stroke-opacity: 1; stroke-width: 2px; opacity: 1;"/></g><g class="points"/><g class="text"/></g><g class="trace scatter trace7c5019" style="stroke-miterlimit: 2; opacity: 1;"><g class="fills"/><g class="errorbars"/><g class="lines"><path class="js-line" d="M0,256.5L74.02,255.76L74.67,255.74L93.98,254.19L94.62,254.06L100.41,253.11L101.06,252.79L110.71,249.77L111.36,249.3L118.44,246.74L119.08,246.35L136.46,241.11L137.1,241.02L165.42,237.15L166.07,237.11L180.23,235.28L180.87,235.2L196.96,232.25L197.61,232.07L212.41,227.17L213.06,226.75L222.07,222.93L222.71,221.74L225.93,219.58L226.57,218.98L236.23,212.94L236.87,212.71L245.88,208.75L246.53,208.63L262.62,203.55L263.26,203.35L283.22,199.25L283.86,199.11L297.38,195.64L298.02,195.48L305.1,193.95" style="vector-effect: non-scaling-stroke; fill: none; stroke: rgb(255, 225, 25); stroke-opacity: 1; stroke-width: 2px; opacity: 1;"/></g><g class="points"/><g class="text"/></g><g class="trace scatter tracec26d7e" style="stroke-miterlimit: 2; opacity: 1;"><g class="fills"/><g class="errorbars"/><g class="lines"><path class="js-line" d="M0,256.5L173.15,255.76L173.79,255.73L194.39,254.34L195.03,253.78L198.89,253.08L199.54,253.07L207.26,252.25L207.91,252.22L227.86,251.1L228.5,251.11L245.24,250.53L245.88,250.53L276.13,249.79L276.78,249.77L305.1,249.29" style="vector-effect: non-scaling-stroke; fill: none; stroke: rgb(67, 99, 216); stroke-opacity: 1; stroke-width: 2px; opacity: 1;"/></g><g class="points"/><g class="text"/></g><g class="trace scatter traceda93da" style="stroke-miterlimit: 2; opacity: 1;"><g class="fills"/><g class="errorbars"/><g class="lines"><path class="js-line" d="M0,256.5L45.06,255.82L45.7,255.69L51.49,253.73L52.14,253.51L75.31,243.4L75.95,243.23L84.32,241.12L84.96,240.98L97.84,239.68L98.48,239.66L122.3,237.13L122.94,236.98L173.15,231.25L173.79,231.02L184.09,227.88L184.73,227.51L190.53,223.19L191.17,222.49L193.74,220.02L194.39,219.28L202.76,209.85L203.4,208.93L206.62,204.32L207.26,203.73L219.49,191.28L220.14,185.09L225.93,178.06L226.57,175.87L227.86,175.15L228.5,174.67L229.79,173.13L230.43,172.17L233.65,169L234.3,168.38L242.02,161.2L242.66,160.87L270.99,148.08L271.63,148.08L274.2,148.08L274.85,144.35L275.49,144.35L276.13,143.54L276.78,143.54L277.42,142.7L279.35,141.95L280,141.29L288.36,135.43L289.01,135.05L292.23,132.85L292.87,132.44L295.44,130.81L296.09,131.19L303.81,128.11L304.46,128.02L305.1,127.97" style="vector-effect: non-scaling-stroke; fill: none; stroke: rgb(245, 130, 49); stroke-opacity: 1; stroke-width: 2px; opacity: 1;"/></g><g class="points"/><g class="text"/></g><g class="trace scatter tracecbfc7b" style="stroke-miterlimit: 2; opacity: 1;"><g class="fills"/><g class="errorbars"/><g class="lines"><path class="js-line" d="M0,256.5L54.71,255.77L55.36,255.74L81.75,253.36L82.39,253.26L107.49,251.39L108.14,251.23L121.65,249.29L122.3,249.14L132.6,247.61L133.24,247.59L162.85,243.65L163.49,243.52L171.86,242L172.5,241.82L186.02,236.92L186.66,236.54L189.88,233.75L190.53,232.93L193.1,231.1L193.74,231.1L195.03,231.1L195.68,227.95L197.61,225.02L198.25,223.74L199.54,223.74L200.18,220.75L201.47,220.25L202.11,219.03L205.33,214.8L205.97,213.87L207.91,208.19L208.55,207.29L211.12,203.09L211.77,202.65L215.63,197L216.27,196.2L228.5,182.35L229.15,181.55L234.94,175.61L235.58,175.18L241.38,170.88L242.02,170.59L249.1,166.3L249.74,165.96L257.47,162.82L258.11,162.57L277.42,155.83L278.07,155.45L290.3,149.8L290.94,149.61L305.1,145.43" style="vector-effect: non-scaling-stroke; fill: none; stroke: rgb(145, 30, 180); stroke-opacity: 1; stroke-width: 2px; opacity: 1;"/></g><g class="points"/><g class="text"/></g></g></g><g class="overplot"/><path class="xlines-above crisp" d="M0,0" style="fill: none;"/><path class="ylines-above crisp" d="M0,0" style="fill: none;"/><g class="overlines-above"/><g class="xaxislayer-above"><g class="xtick"><text text-anchor="middle" x="0" y="383" transform="translate(183.63,0)" style="font-family: 'Open Sans', verdana, arial, sans-serif; font-size: 12px; fill: rgb(242, 245, 250); fill-opacity: 1; white-space: pre;">Jul 2020</text></g><g class="xtick"><text text-anchor="middle" x="0" y="383" transform="translate(302.07,0)" style="font-family: 'Open Sans', verdana, arial, sans-serif; font-size: 12px; fill: rgb(242, 245, 250); fill-opacity: 1; white-space: pre;">Jan 2021</text></g></g><g class="yaxislayer-above"><g class="ytick"><text text-anchor="end" x="79" y="4.199999999999999" transform="translate(0,356.5)" style="font-family: 'Open Sans', verdana, arial, sans-serif; font-size: 12px; fill: rgb(242, 245, 250); fill-opacity: 1; white-space: pre;">0</text></g><g class="ytick"><text text-anchor="end" x="79" y="4.199999999999999" transform="translate(0,309.48)" style="font-family: 'Open Sans', verdana, arial, sans-serif; font-size: 12px; fill: rgb(242, 245, 250); fill-opacity: 1; white-space: pre;">20k</text></g><g class="ytick"><text text-anchor="end" x="79" y="4.199999999999999" transform="translate(0,262.45)" style="font-family: 'Open Sans', verdana, arial, sans-serif; font-size: 12px; fill: rgb(242, 245, 250); fill-opacity: 1; white-space: pre;">40k</text></g><g class="ytick"><text text-anchor="end" x="79" y="4.199999999999999" transform="translate(0,215.43)" style="font-family: 'Open Sans', verdana, arial, sans-serif; font-size: 12px; fill: rgb(242, 245, 250); fill-opacity: 1; white-space: pre;">60k</text></g><g class="ytick"><text text-anchor="end" x="79" y="4.199999999999999" transform="translate(0,168.4)" style="font-family: 'Open Sans', verdana, arial, sans-serif; font-size: 12px; fill: rgb(242, 245, 250); fill-opacity: 1; white-space: pre;">80k</text></g><g class="ytick"><text text-anchor="end" x="79" y="4.199999999999999" transform="translate(0,121.38)" style="font-family: 'Open Sans', verdana, arial, sans-serif; font-size: 12px; fill: rgb(242, 245, 250); fill-opacity: 1; white-space: pre;">100k</text></g></g><g class="overaxes-above"/></g><g class="subplot x2y2"><g class="layer-subplot"><g class="shapelayer"/><g class="imagelayer"/></g><g class="gridlayer"><g class="x2"><path class="x2grid crisp" transform="translate(556.53,0)" d="M0,100v270" style="stroke: rgb(40, 52, 66); stroke-opacity: 1; stroke-width: 1px;"/><path class="x2grid crisp" transform="translate(674.97,0)" d="M0,100v270" style="stroke: rgb(40, 52, 66); stroke-opacity: 1; stroke-width: 1px;"/></g><g class="y2"><path class="y2grid crisp" transform="translate(0,313.78)" d="M452.90000000000003,0h305.09999999999997" style="stroke: rgb(40, 52, 66); stroke-opacity: 1; stroke-width: 1px;"/><path class="y2grid crisp" transform="translate(0,271.06)" d="M452.90000000000003,0h305.09999999999997" style="stroke: rgb(40, 52, 66); stroke-opacity: 1; stroke-width: 1px;"/><path class="y2grid crisp" transform="translate(0,228.34)" d="M452.90000000000003,0h305.09999999999997" style="stroke: rgb(40, 52, 66); stroke-opacity: 1; stroke-width: 1px;"/><path class="y2grid crisp" transform="translate(0,185.61)" d="M452.90000000000003,0h305.09999999999997" style="stroke: rgb(40, 52, 66); stroke-opacity: 1; stroke-width: 1px;"/><path class="y2grid crisp" transform="translate(0,142.89)" d="M452.90000000000003,0h305.09999999999997" style="stroke: rgb(40, 52, 66); stroke-opacity: 1; stroke-width: 1px;"/></g></g><g class="zerolinelayer"><path class="y2zl zl crisp" transform="translate(0,356.5)" d="M452.90000000000003,0h305.09999999999997" style="stroke: rgb(40, 52, 66); stroke-opacity: 1; stroke-width: 2px;"/></g><path class="xlines-below"/><path class="ylines-below"/><g class="overlines-below"/><g class="xaxislayer-below"/><g class="yaxislayer-below"/><g class="overaxes-below"/><g class="plot" transform="translate(452.90000000000003, 100)" clip-path="url('#clipa68d5dx2y2plot')"><g class="scatterlayer mlayer"><g class="trace scatter traceb862c9" style="stroke-miterlimit: 2; opacity: 1;"><g class="fills"/><g class="errorbars"/><g class="lines"><path class="js-line" d="M0,256.5L45.06,255.82L45.7,255.73L48.92,255.22L49.56,255.13L53.42,254.53L54.07,253.42L57.29,252.91L57.93,252.83L69.52,250.43L70.16,250.43L72.73,249.75L73.38,249.49L99.13,246.08L99.77,245.56L106.21,244.54L106.85,244.54L111.36,243.85L112,243.51L122.3,240.95L122.94,240.95L124.23,240.35L124.87,240.35L127.45,240.01L128.09,240.01L129.38,238.98L130.02,238.98L131.95,237.79L132.6,237.79L141.61,235.4L142.25,234.46L143.54,234.54L144.18,233.09L145.47,231.21L146.11,230.95L149.33,230.61L149.98,229.16L150.62,229.16L151.26,228.13L151.91,228.05L152.55,226.08L153.19,226.08L153.84,225.31L155.77,224.54L156.41,224.54L157.7,222.75L158.34,222.58L160.27,221.81L160.92,221.81L163.49,220.61L164.14,220.1L166.07,220.02L166.71,218.91L169.93,219.25L170.57,219.67L171.22,218.73L171.86,219.5L173.15,218.73L173.79,219.5L175.72,219.33L176.37,217.54L184.73,216.94L185.38,216.77L187.31,216L187.95,216L188.6,216L189.24,215.23L193.1,214.38L193.74,214.29L202.11,212.58L202.76,212.07L207.26,211.56L207.91,210.96L211.77,208.4L212.41,207.46L213.06,207.46L213.7,206.52L215.63,206.26L216.27,204.47L218.85,203.1L219.49,203.1L221.42,203.1L222.07,200.45L225.28,200.45L225.93,196.95L226.57,196.95L227.22,194.21L229.15,193.61L229.79,191.99L233.01,191.82L233.65,191.22L234.94,191.05L235.58,184.56L236.87,183.36L237.51,180.11L238.8,179.09L239.45,177.12L240.09,176.44L240.73,174.56L242.02,172.77L242.66,172.59L246.53,167.55L247.17,167.55L249.74,163.54L250.39,160.8L253.61,160.29L254.25,156.45L254.89,156.45L255.54,153.97L256.82,153.97L257.47,152.43L259.4,150.47L260.04,162.09L262.62,159.01L263.26,158.84L265.19,158.16L265.84,157.39L268.41,156.7L269.05,156.79L270.99,154.91L271.63,155.08L272.27,155.85L272.92,155.08L274.85,154.05L275.49,153.46L281.28,152.52L281.93,152.52L285.15,151.23L285.79,150.81L288.36,150.64L289.01,149.95L292.87,149.87L293.51,149.78L296.09,149.18L296.73,149.18L300.59,147.82L301.24,147.82L303.17,147.3L303.81,147.13L305.1,146.79" style="vector-effect: non-scaling-stroke; fill: none; stroke: rgb(230, 25, 75); stroke-opacity: 1; stroke-width: 2px; opacity: 1;"/></g><g class="points"/><g class="text"/></g><g class="trace scatter trace31cef1" style="stroke-miterlimit: 2; opacity: 1;"><g class="fills"/><g class="errorbars"/><g class="lines"><path class="js-line" d="M0,256.5L38.62,255.9L39.26,255.73L43.13,253.77L43.77,253.77L45.06,250.09L45.7,246.25L46.34,245.22L46.99,241.21L48.28,239.41L48.92,234.03L51.49,219.33L52.14,217.79L52.78,217.79L53.42,209.51L56,193.19L56.64,190.97L57.29,189.26L57.93,185.16L59.22,185.16L59.86,176.7L61.15,174.9L61.79,174.47L63.08,166.19L63.72,159.44L65.01,153.8L65.65,153.11L66.3,152.69L66.94,148.76L69.52,141.32L70.16,140.72L70.8,140.47L71.45,137.91L74.02,132.61L74.67,132.18L75.95,130.56L76.6,128.34L79.17,126.2L79.82,126.2L80.46,125.94L81.1,124.32L91.4,115.6L92.04,114.49L93.33,114.32L93.98,113.55L96.55,111.84L97.19,111.59L100.41,109.71L101.06,87.07L102.99,86.55L103.63,85.96L104.92,85.61L105.56,85.36L108.14,84.76L108.78,83.91L112,82.88L112.64,83.14L118.44,82.11L119.08,81.85L126.16,82.37L126.8,82.45L148.04,82.37L148.69,82.28L157.7,81.85L158.34,81.85L174.43,81.26L175.08,81.09L178.94,80.66L179.58,80.66L182.16,80.23L182.8,80.23L187.95,79.55L188.6,79.46L201.47,75.02L202.11,73.74L205.33,71.52L205.97,71.52L214.34,64.59L214.99,64.42L217.56,62.03L218.2,61.95L219.49,61.52L220.14,59.98L222.71,57.16L223.35,56.99L227.86,53.49L228.5,53.49L231.72,50.67L232.37,50.67L233.65,50.5L234.3,49.64L236.87,48.53L237.51,48.45L239.45,46.22L240.09,45.88L243.31,43.92L243.95,42.81L247.81,40.76L248.46,39.22L250.39,38.36L251.03,38.28L252.32,37.59L252.96,36.74L254.89,35.2L255.54,35.03L258.11,33.15L258.76,32.98L261.97,31.87L262.62,31.61L267.12,28.88L267.77,28.54L273.56,26.4L274.2,25.8L277.42,23.84L278.07,23.84L278.71,23.84L279.35,22.39L285.15,20.85L285.79,20.85L288.36,19.48L289.01,18.8L292.23,17.17L292.87,17.09L299.95,14.78L300.59,14.78L305.1,13.5" style="vector-effect: non-scaling-stroke; fill: none; stroke: rgb(60, 180, 75); stroke-opacity: 1; stroke-width: 2px; opacity: 1;"/></g><g class="points"/><g class="text"/></g><g class="trace scatter tracef59c67" style="stroke-miterlimit: 2; opacity: 1;"><g class="fills"/><g class="errorbars"/><g class="lines"><path class="js-line" d="M0,256.5L54.07,255.82L54.71,255.73L60.51,254.88L61.15,254.88L69.52,254.36L70.16,254.36L91.4,253.68L92.04,253.51L112,251.03L112.64,250.52L119.72,248.21L120.37,247.7L123.58,245.82L124.23,245.91L125.52,245.39L126.16,244.45L128.73,242.32L129.38,242.32L130.67,240.86L131.31,240.44L132.6,239.75L133.24,239.67L133.88,239.67L134.53,238.9L139.03,237.36L139.68,236.85L142.25,236.42L142.89,236.42L148.69,234.97L149.33,234.71L158.34,233.17L158.99,233L162.21,232.32L162.85,231.64L171.86,229.93L172.5,229.59L213.7,223.95L214.34,223.95L217.56,223.43L218.2,222.92L220.14,222.58L220.78,222.07L225.93,220.27L226.57,219.93L230.43,218.82L231.08,218.22L234.3,217.11L234.94,216.94L243.31,214.03L243.95,213.69L246.53,213.09L247.17,212.41L252.96,211.81L253.61,211.56L256.82,210.7L257.47,210.1L275.49,207.54L276.13,207.2L278.71,206.6L279.35,206.34L287.72,204.72L288.36,204.72L290.94,204.29L291.58,204.29L292.87,203.61L293.51,203.53L301.24,203.01L301.88,202.59L305.1,201.99" style="vector-effect: non-scaling-stroke; fill: none; stroke: rgb(255, 225, 25); stroke-opacity: 1; stroke-width: 2px; opacity: 1;"/></g><g class="points"/><g class="text"/></g><g class="trace scatter tracec9ebcd" style="stroke-miterlimit: 2; opacity: 1;"><g class="fills"/><g class="errorbars"/><g class="lines"><path class="js-line" d="M0,256.5L192.46,256.07L193.1,255.73L214.99,255.05L215.63,254.36L302.53,253.77L303.17,252.74L305.1,252.74" style="vector-effect: non-scaling-stroke; fill: none; stroke: rgb(67, 99, 216); stroke-opacity: 1; stroke-width: 2px; opacity: 1;"/></g><g class="points"/><g class="text"/></g><g class="trace scatter tracebbdf03" style="stroke-miterlimit: 2; opacity: 1;"><g class="fills"/><g class="errorbars"/><g class="lines"><path class="js-line" d="M0,256.5L48.28,255.82L48.92,255.47L50.85,254.02L51.49,254.02L53.42,253L54.07,252.31L56,250.26L56.64,250.18L58.57,248.9L59.22,248.9L61.15,246.16L61.79,246.08L62.44,245.91L63.08,244.88L65.01,242.74L65.65,242.57L66.3,242.57L66.94,241.12L74.02,233.6L74.67,233.26L77.24,231.72L77.88,230.95L82.39,228.56L83.03,227.96L87.54,225.4L88.18,224.97L93.98,221.04L94.62,221.04L98.48,220.53L99.13,220.19L100.41,219.67L101.06,215.49L104.27,213.52L104.92,212.67L110.07,209.85L110.71,209.85L113.29,208.82L113.93,208.91L117.79,208.31L118.44,208.14L123.58,207.54L124.23,207.37L135.81,206.77L136.46,206.6L144.83,205.92L145.47,205.83L152.55,205.23L153.19,204.98L161.56,204.29L162.21,204.21L166.71,204.21L167.35,203.87L176.37,203.27L177.01,203.18L180.87,202.33L181.52,202.24L188.6,201.65L189.24,201.47L193.1,200.96L193.74,200.62L198.25,199L198.89,199L201.47,198.83L202.11,198.06L206.62,196.35L207.26,195.41L213.06,191.99L213.7,191.91L215.63,191.31L216.27,190.71L220.14,188.66L220.78,187.12L225.28,183.79L225.93,182.42L227.86,180.28L228.5,180.28L232.37,177.29L233.01,177.21L234.94,175.07L235.58,173.79L237.51,172.94L238.16,172.34L242.66,168.66L243.31,168.32L245.24,166.61L245.88,166.61L247.81,165.42L248.46,164.22L251.03,163.2L251.68,163.11L253.61,161.57L254.25,161.23L255.54,161.23L256.18,160.46L258.76,158.5L259.4,158.41L260.69,157.9L261.33,156.62L264.55,155.76L265.19,155.25L267.12,153.8L267.77,153.71L270.34,153.03L270.99,152.86L278.71,152.26L279.35,152.09L281.93,151.41L282.57,151.41L288.36,150.55L289.01,150.47L299.31,148.16L299.95,148.16L301.88,147.56L302.53,147.39L304.46,146.88L305.1,146.96" style="vector-effect: non-scaling-stroke; fill: none; stroke: rgb(245, 130, 49); stroke-opacity: 1; stroke-width: 2px; opacity: 1;"/></g><g class="points"/><g class="text"/></g><g class="trace scatter traceca59fd" style="stroke-miterlimit: 2; opacity: 1;"><g class="fills"/><g class="errorbars"/><g class="lines"><path class="js-line" d="M0,256.5L46.99,255.9L47.63,255.73L58.57,253.94L59.22,253.77L72.09,248.98L72.73,247.87L75.95,246.84L76.6,245.31L79.17,242.91L79.82,242.91L81.1,242.83L81.75,241.8L84.96,241.12L85.61,241.03L90.76,240.44L91.4,240.27L97.19,239.33L97.84,239.24L112.64,238.64L113.29,238.47L126.8,237.87L127.45,237.7L132.6,237.02L133.24,237.02L140.96,236.42L141.61,236.08L144.18,236.42L144.83,236.42L160.92,234.97L161.56,234.97L171.22,234.37L171.86,234.37L178.3,233.77L178.94,233.52L184.09,232.92L184.73,232.66L196.32,231.64L196.96,230.01L198.89,228.56L199.54,228.56L202.11,225.74L202.76,225.74L204.69,222.41L205.33,222.24L207.91,220.36L208.55,218.56L209.84,218.31L210.48,217.2L211.77,216.43L212.41,215.49L218.85,213.35L219.49,212.58L221.42,206.17L222.07,206.17L224.64,202.93L225.28,202.93L225.93,202.93L226.57,201.05L228.5,200.53L229.15,198.57L231.72,194.47L232.37,194.47L234.3,193.02L234.94,192.08L236.87,191.48L237.51,191.39L238.16,191.05L238.8,189.68L242.02,187.38L242.66,187.21L243.31,187.21L243.95,186.35L247.17,186.44L247.81,186.01L248.46,184.47L249.1,180.46L250.39,179.43L251.03,179.43L252.32,179.43L252.96,178.32L254.89,177.29L255.54,177.04L257.47,175.33L258.11,174.99L264.55,174.73L265.19,174.73L279.35,174.73L280,179.86L281.28,179.6L281.93,174.73L282.57,179.6L283.22,179.26L283.86,179.26L291.58,178.83L292.23,178.32L296.09,177.64L296.73,177.38L302.53,176.78L303.17,175.76L305.1,175.76" style="vector-effect: non-scaling-stroke; fill: none; stroke: rgb(145, 30, 180); stroke-opacity: 1; stroke-width: 2px; opacity: 1;"/></g><g class="points"/><g class="text"/></g></g></g><g class="overplot"/><path class="xlines-above crisp" d="M0,0" style="fill: none;"/><path class="ylines-above crisp" d="M0,0" style="fill: none;"/><g class="overlines-above"/><g class="xaxislayer-above"><g class="x2tick"><text text-anchor="middle" x="0" y="383" transform="translate(556.53,0)" style="font-family: 'Open Sans', verdana, arial, sans-serif; font-size: 12px; fill: rgb(242, 245, 250); fill-opacity: 1; white-space: pre;">Jul 2020</text></g><g class="x2tick"><text text-anchor="middle" x="0" y="383" transform="translate(674.97,0)" style="font-family: 'Open Sans', verdana, arial, sans-serif; font-size: 12px; fill: rgb(242, 245, 250); fill-opacity: 1; white-space: pre;">Jan 2021</text></g></g><g class="yaxislayer-above"><g class="y2tick"><text text-anchor="end" x="451.90000000000003" y="4.199999999999999" transform="translate(0,356.5)" style="font-family: 'Open Sans', verdana, arial, sans-serif; font-size: 12px; fill: rgb(242, 245, 250); fill-opacity: 1; white-space: pre;">0</text></g><g class="y2tick"><text text-anchor="end" x="451.90000000000003" y="4.199999999999999" transform="translate(0,313.78)" style="font-family: 'Open Sans', verdana, arial, sans-serif; font-size: 12px; fill: rgb(242, 245, 250); fill-opacity: 1; white-space: pre;">500</text></g><g class="y2tick"><text text-anchor="end" x="451.90000000000003" y="4.199999999999999" transform="translate(0,271.06)" style="font-family: 'Open Sans', verdana, arial, sans-serif; font-size: 12px; fill: rgb(242, 245, 250); fill-opacity: 1; white-space: pre;">1000</text></g><g class="y2tick"><text text-anchor="end" x="451.90000000000003" y="4.199999999999999" transform="translate(0,228.34)" style="font-family: 'Open Sans', verdana, arial, sans-serif; font-size: 12px; fill: rgb(242, 245, 250); fill-opacity: 1; white-space: pre;">1500</text></g><g class="y2tick"><text text-anchor="end" x="451.90000000000003" y="4.199999999999999" transform="translate(0,185.61)" style="font-family: 'Open Sans', verdana, arial, sans-serif; font-size: 12px; fill: rgb(242, 245, 250); fill-opacity: 1; white-space: pre;">2000</text></g><g class="y2tick"><text text-anchor="end" x="451.90000000000003" y="4.199999999999999" transform="translate(0,142.89)" style="font-family: 'Open Sans', verdana, arial, sans-serif; font-size: 12px; fill: rgb(242, 245, 250); fill-opacity: 1; white-space: pre;">2500</text></g><g class="y2tick"><text text-anchor="end" x="451.90000000000003" y="4.199999999999999" transform="translate(0,100.17)" style="font-family: 'Open Sans', verdana, arial, sans-serif; font-size: 12px; fill: rgb(242, 245, 250); fill-opacity: 1; white-space: pre;">3000</text></g></g><g class="overaxes-above"/></g></g><g class="polarlayer"/><g class="ternarylayer"/><g class="geolayer"/><g class="funnelarealayer"/><g class="pielayer"/><g class="treemaplayer"/><g class="sunburstlayer"/><g class="glimages"/><defs id="topdefs-a68d5d"><g class="clips"/><clipPath id="legenda68d5d"><rect width="116" height="124" x="0" y="0"/></clipPath></defs><g class="layer-above"><g class="imagelayer"/><g class="shapelayer"/></g><g class="infolayer"><g class="legend" pointer-events="all" transform="translate(771.5600000000001, 100)"><rect class="bg" shape-rendering="crispEdges" width="116" height="124" x="0" y="0" style="stroke: rgb(68, 68, 68); stroke-opacity: 1; fill: rgb(17, 17, 17); fill-opacity: 1; stroke-width: 0px;"/><g class="scrollbox" transform="translate(0, 0)" clip-path="url('#legenda68d5d')"><g class="groups"><g class="traces" transform="translate(0, 14.5)" style="opacity: 1;"><text class="legendtext user-select-none" text-anchor="start" x="40" y="4.680000000000001" style="font-family: 'Open Sans', verdana, arial, sans-serif; font-size: 12px; fill: rgb(242, 245, 250); fill-opacity: 1; white-space: pre;">Alameda, CA</text><g class="layers" style="opacity: 1;"><g class="legendfill"/><g class="legendlines"><path class="js-line" d="M5,0h30" style="fill: none; stroke: rgb(230, 25, 75); stroke-opacity: 1; stroke-width: 2px;"/></g><g class="legendsymbols"><g class="legendpoints"/></g></g><rect class="legendtoggle" pointer-events="all" x="0" y="-9.5" width="110.703125" height="19" style="cursor: pointer; fill: rgb(0, 0, 0); fill-opacity: 0;"/></g><g class="traces" transform="translate(0, 33.5)" style="opacity: 1;"><text class="legendtext user-select-none" text-anchor="start" x="40" y="4.680000000000001" style="font-family: 'Open Sans', verdana, arial, sans-serif; font-size: 12px; fill: rgb(242, 245, 250); fill-opacity: 1; white-space: pre;">Bergen, NJ</text><g class="layers" style="opacity: 1;"><g class="legendfill"/><g class="legendlines"><path class="js-line" d="M5,0h30" style="fill: none; stroke: rgb(60, 180, 75); stroke-opacity: 1; stroke-width: 2px;"/></g><g class="legendsymbols"><g class="legendpoints"/></g></g><rect class="legendtoggle" pointer-events="all" x="0" y="-9.5" width="110.703125" height="19" style="cursor: pointer; fill: rgb(0, 0, 0); fill-opacity: 0;"/></g><g class="traces" transform="translate(0, 52.5)" style="opacity: 1;"><text class="legendtext user-select-none" text-anchor="start" x="40" y="4.680000000000001" style="font-family: 'Open Sans', verdana, arial, sans-serif; font-size: 12px; fill: rgb(242, 245, 250); fill-opacity: 1; white-space: pre;">St Lucie, FL</text><g class="layers" style="opacity: 1;"><g class="legendfill"/><g class="legendlines"><path class="js-line" d="M5,0h30" style="fill: none; stroke: rgb(255, 225, 25); stroke-opacity: 1; stroke-width: 2px;"/></g><g class="legendsymbols"><g class="legendpoints"/></g></g><rect class="legendtoggle" pointer-events="all" x="0" y="-9.5" width="110.703125" height="19" style="cursor: pointer; fill: rgb(0, 0, 0); fill-opacity: 0;"/></g><g class="traces" transform="translate(0, 71.5)" style="opacity: 1;"><text class="legendtext user-select-none" text-anchor="start" x="40" y="4.680000000000001" style="font-family: 'Open Sans', verdana, arial, sans-serif; font-size: 12px; fill: rgb(242, 245, 250); fill-opacity: 1; white-space: pre;">Ravalli, MT</text><g class="layers" style="opacity: 1;"><g class="legendfill"/><g class="legendlines"><path class="js-line" d="M5,0h30" style="fill: none; stroke: rgb(67, 99, 216); stroke-opacity: 1; stroke-width: 2px;"/></g><g class="legendsymbols"><g class="legendpoints"/></g></g><rect class="legendtoggle" pointer-events="all" x="0" y="-9.5" width="110.703125" height="19" style="cursor: pointer; fill: rgb(0, 0, 0); fill-opacity: 0;"/></g><g class="traces" transform="translate(0, 90.5)" style="opacity: 1;"><text class="legendtext user-select-none" text-anchor="start" x="40" y="4.680000000000001" style="font-family: 'Open Sans', verdana, arial, sans-serif; font-size: 12px; fill: rgb(242, 245, 250); fill-opacity: 1; white-space: pre;">Camden, NJ</text><g class="layers" style="opacity: 1;"><g class="legendfill"/><g class="legendlines"><path class="js-line" d="M5,0h30" style="fill: none; stroke: rgb(245, 130, 49); stroke-opacity: 1; stroke-width: 2px;"/></g><g class="legendsymbols"><g class="legendpoints"/></g></g><rect class="legendtoggle" pointer-events="all" x="0" y="-9.5" width="110.703125" height="19" style="cursor: pointer; fill: rgb(0, 0, 0); fill-opacity: 0;"/></g><g class="traces" transform="translate(0, 109.5)" style="opacity: 1;"><text class="legendtext user-select-none" text-anchor="start" x="40" y="4.680000000000001" style="font-family: 'Open Sans', verdana, arial, sans-serif; font-size: 12px; fill: rgb(242, 245, 250); fill-opacity: 1; white-space: pre;">Summit, OH</text><g class="layers" style="opacity: 1;"><g class="legendfill"/><g class="legendlines"><path class="js-line" d="M5,0h30" style="fill: none; stroke: rgb(145, 30, 180); stroke-opacity: 1; stroke-width: 2px;"/></g><g class="legendsymbols"><g class="legendpoints"/></g></g><rect class="legendtoggle" pointer-events="all" x="0" y="-9.5" width="110.703125" height="19" style="cursor: pointer; fill: rgb(0, 0, 0); fill-opacity: 0;"/></g></g></g><rect class="scrollbar" rx="20" ry="3" width="0" height="0" x="0" y="0" style="fill: rgb(128, 139, 164); fill-opacity: 1;"/></g><g class="g-gtitle"/><g class="g-xtitle"><text class="xtitle" x="232.55" y="410.8" text-anchor="middle" style="font-family: 'Open Sans', verdana, arial, sans-serif; font-size: 14px; fill: rgb(242, 245, 250); opacity: 1; font-weight: normal; white-space: pre;">Date</text></g><g class="g-x2title"><text class="x2title" x="605.45" y="410.8" text-anchor="middle" style="font-family: 'Open Sans', verdana, arial, sans-serif; font-size: 14px; fill: rgb(242, 245, 250); opacity: 1; font-weight: normal; white-space: pre;">Date</text></g><g class="g-ytitle"><text class="ytitle" transform="rotate(-90,28.168750000000003,235)" x="28.168750000000003" y="235" text-anchor="middle" style="font-family: 'Open Sans', verdana, arial, sans-serif; font-size: 14px; fill: rgb(242, 245, 250); opacity: 1; font-weight: normal; white-space: pre;">Cases</text></g><g class="g-y2title"><text class="y2title" transform="rotate(-90,400.403125,235)" x="400.403125" y="235" text-anchor="middle" style="font-family: 'Open Sans', verdana, arial, sans-serif; font-size: 14px; fill: rgb(242, 245, 250); opacity: 1; font-weight: normal; white-space: pre;">Deaths</text></g><g class="annotation" data-index="0" style="opacity: 1;"><g class="annotation-text-g" transform="rotate(0,232.55,89.5)"><g class="cursor-pointer" transform="translate(208, 79)"><rect class="bg" x="0.5" y="0.5" width="48" height="20" style="stroke-width: 1px; stroke: rgb(0, 0, 0); stroke-opacity: 0; fill: rgb(0, 0, 0); fill-opacity: 0;"/><text class="annotation-text" text-anchor="middle" x="24.6875" y="16" style="font-family: 'Open Sans', verdana, arial, sans-serif; font-size: 16px; fill: rgb(242, 245, 250); fill-opacity: 1; white-space: pre;">Cases</text></g></g></g><g class="annotation" data-index="1" style="opacity: 1;"><g class="annotation-text-g" transform="rotate(0,605.45,89.5)"><g class="cursor-pointer" transform="translate(578, 79)"><rect class="bg" x="0.5" y="0.5" width="54" height="20" style="stroke-width: 1px; stroke: rgb(0, 0, 0); stroke-opacity: 0; fill: rgb(0, 0, 0); fill-opacity: 0;"/><text class="annotation-text" text-anchor="middle" x="27.359375" y="16" style="font-family: 'Open Sans', verdana, arial, sans-serif; font-size: 16px; fill: rgb(242, 245, 250); fill-opacity: 1; white-space: pre;">Deaths</text></g></g></g></g></svg>