<svg class="main-svg" xmlns="http://www.w3.org/2000/svg" xmlns:xlink="http://www.w3.org/1999/xlink" width="900" height="450" style="" viewBox="0 0 900 450"><rect x="0" y="0" width="900" height="450" style="fill: rgb(17, 17, 17); fill-opacity: 1;"/><defs id="defs-161d7b"><g class="clips"><clipPath id="clip161d7bxyplot" class="plotclip"><rect width="301.95" height="270"/></clipPath><clipPath id="clip161d7bx2y2plot" class="plotclip"><rect width="301.95" height="270"/></clipPath><clipPath class="axesclip" id="clip161d7bx"><rect x="80" y="0" width="301.95" height="450"/></clipPath><clipPath class="axesclip" id="clip161d7by"><rect x="0" y="100" width="900" height="270"/></clipPath><clipPath class="axesclip" id="clip161d7bxy"><rect x="80" y="100" width="301.95" height="270"/></clipPath><clipPath class="axesclip" id="clip161d7by2"><rect x="0" y="100" width="900" height="270"/></clipPath><clipPath class="axesclip" id="clip161d7bxy2"><rect x="80" y="100" width="301.95" height="270"/></clipPath><clipPath class="axesclip" id="clip161d7bx2"><rect x="449.05" y="0" width="301.95" height="450"/></clipPath><clipPath class="axesclip" id="clip161d7bx2y"><rect x="449.05" y="100" width="301.95" height="270"/></clipPath><clipPath class="axesclip" id="clip161d7bx2y2"><rect x="449.05" y="100" width="301.95" height="270"/></clipPath></g><g class="gradients"/></defs><g class="bglayer"/><g class="layer-below"><g class="imagelayer"/><g class="shapelayer"/></g><g class="cartesianlayer"><g class="subplot xy"><g class="layer-subplot"><g class="shapelayer"/><g class="imagelayer"/></g><g class="gridlayer"><g class="x"><path class="xgrid crisp" transform="translate(122.36,0)" d="M0,100v270" style="stroke: rgb(40, 52, 66); stroke-opacity: 1; stroke-width: 1px;"/><path class="xgrid crisp" transform="translate(188.62,0)" d="M0,100v270" style="stroke: rgb(40, 52, 66); stroke-opacity: 1; stroke-width: 1px;"/><path class="xgrid crisp" transform="translate(254.87,0)" d="M0,100v270" style="stroke: rgb(40, 52, 66); stroke-opacity: 1; stroke-width: 1px;"/><path class="xgrid crisp" transform="translate(322.21000000000004,0)" d="M0,100v270" style="stroke: rgb(40, 52, 66); stroke-opacity: 1; stroke-width: 1px;"/></g><g class="y"><path class="ygrid crisp" transform="translate(0,277.97)" d="M80,0h301.95" style="stroke: rgb(40, 52, 66); stroke-opacity: 1; stroke-width: 1px;"/><path class="ygrid crisp" transform="translate(0,199.44)" d="M80,0h301.95" style="stroke: rgb(40, 52, 66); stroke-opacity: 1; stroke-width: 1px;"/><path class="ygrid crisp" transform="translate(0,120.92)" d="M80,0h301.95" style="stroke: rgb(40, 52, 66); stroke-opacity: 1; stroke-width: 1px;"/></g></g><g class="zerolinelayer"><path class="yzl zl crisp" transform="translate(0,356.5)" d="M80,0h301.95" style="stroke: rgb(40, 52, 66); stroke-opacity: 1; stroke-width: 2px;"/></g><path class="xlines-below"/><path class="ylines-below"/><g class="overlines-below"/><g class="xaxislayer-below"/><g class="yaxislayer-below"/><g class="overaxes-below"/><g class="plot" transform="translate(80, 100)" clip-path="url('#clip161d7bxyplot')"><g class="scatterlayer mlayer"><g class="trace scatter trace9f9cd4" style="stroke-miterlimit: 2; opacity: 1;"><g class="fills"/><g class="errorbars"/><g class="lines"><path class="js-line" d="M0,256.5L78.2,255.8L79.29,255.66L123.82,252.89L124.91,252.81L145.54,250.78L146.63,250.65L173.78,247.13L174.87,246.83L180.3,245.68L181.39,245.68L184.65,244.74L185.73,244.37L187.9,243.97L188.99,243.43L215.06,237.44L216.14,237.44L217.23,235.77L218.32,235.74L222.66,233.64L223.75,233.64L225.92,232.74L227.01,232.26L231.35,230.28L232.44,230.24L233.52,230.22L234.61,229.37L242.21,227.53L243.3,227.14L255.25,225.1L256.33,225.05L299.78,220.04L300.86,219.89L301.95,219.76" style="vector-effect: non-scaling-stroke; fill: none; stroke: rgb(230, 25, 75); stroke-opacity: 1; stroke-width: 2px; opacity: 1;"/></g><g class="points"/><g class="text"/></g><g class="trace scatter trace4ac5de" style="stroke-miterlimit: 2; opacity: 1;"><g class="fills"/><g class="errorbars"/><g class="lines"><path class="js-line" d="M0,256.5L71.69,255.79L72.77,255.64L86.89,253.53L87.98,253.42L99.93,251.84L101.01,251.61L111.87,249.04L112.96,248.76L130.34,244.19L131.42,244.01L142.29,240.89L143.37,239.95L147.72,236.46L148.8,235.3L152.06,232.5L153.15,231.34L158.58,223.87L159.66,221.52L161.84,215.67L162.92,212.05L169.44,194.27L170.53,189.95L171.61,185.88L172.7,185.55L177.04,165.52L178.13,162.54L186.82,130.63L187.9,128.95L192.25,112.22L193.33,109.07L198.77,95.92L199.85,92.2L202.02,85.82L203.11,83.76L206.37,76.12L207.45,72.28L209.63,67.59L210.71,66.53L217.23,58.53L218.32,58.03L231.35,49.68L232.44,49.52L237.87,47.64L238.95,47L243.3,45.5L244.38,44.3L247.64,42.96L248.73,42.9L251.99,42.01L253.07,41.51L256.33,40.41L257.42,39.97L258.5,39.53L259.59,38.11L273.71,33.71L274.8,33.03L281.31,29.8L282.4,28.98L293.26,21.36L294.35,20.48L301.95,13.5" style="vector-effect: non-scaling-stroke; fill: none; stroke: rgb(60, 180, 75); stroke-opacity: 1; stroke-width: 2px; opacity: 1;"/></g><g class="points"/><g class="text"/></g><g class="trace scatter tracebb88c4" style="stroke-miterlimit: 2; opacity: 1;"><g class="fills"/><g class="errorbars"/><g class="lines"><path class="js-line" d="M0,256.5L81.46,255.79L82.55,255.69L115.13,252.08L116.22,251.86L127.08,249.52L128.17,249.34L154.23,245.78L155.32,245.32L164.01,243.13L165.09,242.44L168.35,241.04L169.44,240.22L174.87,237.11L175.96,236.16L178.13,235.42L179.21,235.42L188.99,227.47L190.08,226.64L193.33,223.66L194.42,223.21L197.68,220.9L198.77,219.54L205.28,215.17L206.37,213.86L208.54,211.88L209.63,211.88L212.89,209.13L213.97,209.03L223.75,203.3L224.83,201.04L227.01,199.58L228.09,198.88L233.52,197.08L234.61,196.94L238.95,195.49L240.04,195.17L257.42,190.81L258.5,190.21L265.02,187.4L266.11,186.97L285.66,177.58L286.74,176.51L290,174.66L291.09,173.84L300.86,166.6L301.95,165.67" style="vector-effect: non-scaling-stroke; fill: none; stroke: rgb(255, 225, 25); stroke-opacity: 1; stroke-width: 2px; opacity: 1;"/></g><g class="points"/><g class="text"/></g><g class="trace scatter trace292587" style="stroke-miterlimit: 2; opacity: 1;"><g class="fills"/><g class="errorbars"/><g class="lines"><path class="js-line" d="M0,256.5L131.42,255.76L132.51,255.74L154.23,255.07L155.32,254.98L161.84,254.23L162.92,254.06L166.18,253.54L167.27,253.15L170.53,251.96L171.61,251.96L178.13,248.96L179.21,248.96L181.39,248.11L182.47,247.95L184.65,246.98L185.73,244.98L188.99,243.87L190.08,243.63L192.25,241.98L193.33,240.02L194.42,239.31L195.51,237.24L202.02,232.7L203.11,232.7L206.37,230.78L207.45,230.36L219.4,224.86L220.49,224.41L225.92,221.93L227.01,221.93L229.18,220.19L230.26,219.57L235.69,215.74L236.78,214.71L238.95,213.7L240.04,213.7L271.54,206.93L272.62,206.75L286.74,204.12L287.83,203.89L301.95,201.58" style="vector-effect: non-scaling-stroke; fill: none; stroke: rgb(67, 99, 216); stroke-opacity: 1; stroke-width: 2px; opacity: 1;"/></g><g class="points"/><g class="text"/></g><g class="trace scatter trace55e5c8" style="stroke-miterlimit: 2; opacity: 1;"><g class="fills"/><g class="errorbars"/><g class="lines"><path class="js-line" d="M0,256.5L68.43,255.8L69.51,255.66L78.2,253.04L79.29,252.62L83.63,250.93L84.72,250.15L93.41,244.34L94.5,243.47L99.93,239.66L101.01,238.15L105.36,235.43L106.44,234.83L116.22,229.78L117.3,229.32L127.08,226.12L128.17,225.87L136.86,223.98L137.94,223.74L141.2,223.07L142.29,221.6L171.61,218.94L172.7,218.89L188.99,217.86L190.08,217.78L205.28,216.4L206.37,216.27L222.66,214.78L223.75,214.78L230.26,214.05L231.35,214.01L237.87,213.37L238.95,213.21L254.16,211.79L255.25,211.72L274.8,209.33L275.88,209.04L301.95,203.64" style="vector-effect: non-scaling-stroke; fill: none; stroke: rgb(245, 130, 49); stroke-opacity: 1; stroke-width: 2px; opacity: 1;"/></g><g class="points"/><g class="text"/></g><g class="trace scatter trace1ac204" style="stroke-miterlimit: 2; opacity: 1;"><g class="fills"/><g class="errorbars"/><g class="lines"><path class="js-line" d="M0,256.5L86.89,255.77L87.98,255.63L105.36,254.97L106.44,253.94L114.05,252.16L115.13,251.85L130.34,247.03L131.42,246.53L139.03,244.04L140.11,243.65L148.8,241.78L149.89,241.61L180.3,236.94L181.39,236.72L188.99,234.84L190.08,234.59L204.2,230.33L205.28,229.99L227.01,223.95L228.09,223.75L249.81,218.2L250.9,218.2L255.25,217.57L256.33,217.32L261.76,216.25L262.85,215.89L288.92,208.29L290,207.07L291.09,207.07L292.17,206.26L293.26,206.26L294.35,205.39L296.52,205.39L297.61,204.18L301.95,202.07" style="vector-effect: non-scaling-stroke; fill: none; stroke: rgb(145, 30, 180); stroke-opacity: 1; stroke-width: 2px; opacity: 1;"/></g><g class="points"/><g class="text"/></g></g></g><g class="overplot"/><path class="xlines-above crisp" d="M0,0" style="fill: none;"/><path class="ylines-above crisp" d="M0,0" style="fill: none;"/><g class="overlines-above"/><g class="xaxislayer-above"><g class="xtick"><text text-anchor="middle" x="0" y="383" transform="translate(122.36,0)" style="font-family: 'Open Sans', verdana, arial, sans-serif; font-size: 12px; fill: rgb(242, 245, 250); fill-opacity: 1; white-space: pre;">Mar 2020</text></g><g class="xtick"><text text-anchor="middle" x="0" y="383" transform="translate(188.62,0)" style="font-family: 'Open Sans', verdana, arial, sans-serif; font-size: 12px; fill: rgb(242, 245, 250); fill-opacity: 1; white-space: pre;">May 2020</text></g><g class="xtick"><text text-anchor="middle" x="0" y="383" transform="translate(254.87,0)" style="font-family: 'Open Sans', verdana, arial, sans-serif; font-size: 12px; fill: rgb(242, 245, 250); fill-opacity: 1; white-space: pre;">Jul 2020</text></g><g class="xtick"><text text-anchor="middle" x="0" y="383" transform="translate(322.21000000000004,0)" style="font-family: 'Open Sans', verdana, arial, sans-serif; font-size: 12px; fill: rgb(242, 245, 250); fill-opacity: 1; white-space: pre;">Sep 2020</text></g></g><g class="yaxislayer-above"><g class="ytick"><text text-anchor="end" x="79" y="4.199999999999999" transform="translate(0,356.5)" style="font-family: 'Open Sans', verdana, arial, sans-serif; font-size: 12px; fill: rgb(242, 245, 250); fill-opacity: 1; white-space: pre;">0</text></g><g class="ytick"><text text-anchor="end" x="79" y="4.199999999999999" transform="translate(0,277.97)" style="font-family: 'Open Sans', verdana, arial, sans-serif; font-size: 12px; fill: rgb(242, 245, 250); fill-opacity: 1; white-space: pre;">50k</text></g><g class="ytick"><text text-anchor="end" x="79" y="4.199999999999999" transform="translate(0,199.44)" style="font-family: 'Open Sans', verdana, arial, sans-serif; font-size: 12px; fill: rgb(242, 245, 250); fill-opacity: 1; white-space: pre;">100k</text></g><g class="ytick"><text text-anchor="end" x="79" y="4.199999999999999" transform="translate(0,120.92)" style="font-family: 'Open Sans', verdana, arial, sans-serif; font-size: 12px; fill: rgb(242, 245, 250); fill-opacity: 1; white-space: pre;">150k</text></g></g><g class="overaxes-above"/></g><g class="subplot x2y2"><g class="layer-subplot"><g class="shapelayer"/><g class="imagelayer"/></g><g class="gridlayer"><g class="x2"><path class="x2grid crisp" transform="translate(491.41,0)" d="M0,100v270" style="stroke: rgb(40, 52, 66); stroke-opacity: 1; stroke-width: 1px;"/><path class="x2grid crisp" transform="translate(557.6700000000001,0)" d="M0,100v270" style="stroke: rgb(40, 52, 66); stroke-opacity: 1; stroke-width: 1px;"/><path class="x2grid crisp" transform="translate(623.9200000000001,0)" d="M0,100v270" style="stroke: rgb(40, 52, 66); stroke-opacity: 1; stroke-width: 1px;"/><path class="x2grid crisp" transform="translate(691.26,0)" d="M0,100v270" style="stroke: rgb(40, 52, 66); stroke-opacity: 1; stroke-width: 1px;"/></g><g class="y2"><path class="y2grid crisp" transform="translate(0,287.88)" d="M449.05,0h301.95" style="stroke: rgb(40, 52, 66); stroke-opacity: 1; stroke-width: 1px;"/><path class="y2grid crisp" transform="translate(0,219.25)" d="M449.05,0h301.95" style="stroke: rgb(40, 52, 66); stroke-opacity: 1; stroke-width: 1px;"/><path class="y2grid crisp" transform="translate(0,150.63)" d="M449.05,0h301.95" style="stroke: rgb(40, 52, 66); stroke-opacity: 1; stroke-width: 1px;"/></g></g><g class="zerolinelayer"><path class="y2zl zl crisp" transform="translate(0,356.5)" d="M449.05,0h301.95" style="stroke: rgb(40, 52, 66); stroke-opacity: 1; stroke-width: 2px;"/></g><path class="xlines-below"/><path class="ylines-below"/><g class="overlines-below"/><g class="xaxislayer-below"/><g class="yaxislayer-below"/><g class="overaxes-below"/><g class="plot" transform="translate(449.05, 100)" clip-path="url('#clip161d7bx2y2plot')"><g class="scatterlayer mlayer"><g class="trace scatter traceaa72c3" style="stroke-miterlimit: 2; opacity: 1;"><g class="fills"/><g class="errorbars"/><g class="lines"><path class="js-line" d="M0,256.5L77.12,255.88L78.2,255.68L86.89,255.06L87.98,254.92L90.15,254.92L91.24,254.03L96.67,253.62L97.75,253.55L117.3,251.63L118.39,251.63L122.74,251.08L123.82,250.87L170.53,247.58L171.61,247.37L182.47,246.76L183.56,246.48L196.59,245.04L197.68,244.77L212.89,243.26L213.97,243.26L216.14,243.26L217.23,242.43L221.57,241.68L222.66,241.47L228.09,240.85L229.18,240.65L242.21,238.86L243.3,237.7L244.38,236.26L245.47,236.19L250.9,235.71L251.99,235.71L253.07,234.54L254.16,234.54L258.5,232.07L259.59,231.45L270.45,228.64L271.54,228.64L285.66,226.92L286.74,226.92L296.52,226.65L297.61,225.21L301.95,224.86" style="vector-effect: non-scaling-stroke; fill: none; stroke: rgb(230, 25, 75); stroke-opacity: 1; stroke-width: 2px; opacity: 1;"/></g><g class="points"/><g class="text"/></g><g class="trace scatter trace809945" style="stroke-miterlimit: 2; opacity: 1;"><g class="fills"/><g class="errorbars"/><g class="lines"><path class="js-line" d="M0,256.5L76.03,255.75L77.12,255.68L83.63,253.96L84.72,253.82L91.24,252.38L92.32,252.11L97.75,250.8L98.84,249.84L101.01,248.27L102.1,248.2L104.27,248.13L105.36,247.1L109.7,245.93L110.79,244.97L112.96,244.49L114.05,243.74L117.3,239.69L118.39,239.55L120.56,238.73L121.65,237.22L125.99,234.61L127.08,234.27L130.34,231.73L131.42,231.25L133.6,230.15L134.68,230.15L135.77,230.15L136.86,229.26L139.03,227.75L140.11,226.99L142.29,226.79L143.37,225.76L145.54,224.18L146.63,223.63L148.8,222.81L149.89,222.81L155.32,218.83L156.41,218.69L159.66,216.77L160.75,215.46L162.92,213.13L164.01,213.13L165.09,212.99L166.18,211L167.27,209.15L168.35,208.87L171.61,205.31L172.7,205.31L173.78,203.59L174.87,200.43L175.96,200.43L177.04,197.14L179.21,196.04L180.3,196.04L183.56,187.05L184.65,184.51L186.82,178.75L187.9,178.27L194.42,155.42L195.51,154.59L198.77,143.2L199.85,133.46L200.94,133.46L202.02,132.5L203.11,132.5L204.2,127.35L205.28,125.08L206.37,118.5L208.54,113.14L209.63,112.32L210.71,111.84L211.8,108.75L216.14,95.44L217.23,95.03L218.32,94.82L219.4,93.04L220.49,85.42L221.57,83.77L222.66,82.47L223.75,79.11L227.01,77.25L228.09,71.42L229.18,68.54L230.26,68.26L232.44,65.04L233.52,65.04L234.61,64.08L235.69,59.62L240.04,53.3L241.13,53.3L243.3,50.97L244.38,48.57L246.56,44.59L247.64,44.38L249.81,44.24L250.9,42.67L254.16,40.06L255.25,40.06L256.33,40.06L257.42,38.82L261.76,32.85L262.85,32.71L263.93,32.65L265.02,31.75L268.28,27.09L269.37,25.72L272.62,25.1L273.71,23.73L276.97,21.53L278.05,21.39L280.23,21.05L281.31,19.74L288.92,18.03L290,17.07L293.26,15.63L294.35,15.49L298.69,13.84L299.78,13.71L301.95,13.5" style="vector-effect: non-scaling-stroke; fill: none; stroke: rgb(60, 180, 75); stroke-opacity: 1; stroke-width: 2px; opacity: 1;"/></g><g class="points"/><g class="text"/></g><g class="trace scatter trace8ccfd7" style="stroke-miterlimit: 2; opacity: 1;"><g class="fills"/><g class="errorbars"/><g class="lines"><path class="js-line" d="M0,256.5L81.46,255.75L82.55,255.61L85.81,255.13L86.89,255.06L91.24,254.51L92.32,254.44L97.75,253.82L98.84,253.62L112.96,251.22L114.05,250.8L123.82,248.47L124.91,248.27L130.34,247.44L131.42,246.96L140.11,245.52L141.2,245.18L147.72,244.56L148.8,244.42L182.47,239.48L183.56,239.07L188.99,237.83L190.08,237.83L200.94,233.92L202.02,233.3L204.2,233.3L205.28,232.41L213.97,227.54L215.06,226.51L224.83,221.91L225.92,221.91L233.52,217.8L234.61,217.38L236.78,216.01L237.87,215.39L241.13,214.64L242.21,214.36L247.64,212.72L248.73,212.72L250.9,212.37L251.99,211.62L260.68,209.56L261.76,209.15L282.4,204.96L283.49,204.55L285.66,204.14L286.74,204.14L295.43,202.56L296.52,201.87L301.95,200.64" style="vector-effect: non-scaling-stroke; fill: none; stroke: rgb(255, 225, 25); stroke-opacity: 1; stroke-width: 2px; opacity: 1;"/></g><g class="points"/><g class="text"/></g><g class="trace scatter tracefe3897" style="stroke-miterlimit: 2; opacity: 1;"><g class="fills"/><g class="errorbars"/><g class="lines"><path class="js-line" d="M0,256.5L147.72,255.75L148.8,255.68L165.09,254.99L166.18,254.92L173.78,254.3L174.87,253.34L181.39,252.45L182.47,251.35L187.9,246.21L188.99,246.21L190.08,246.07L191.16,243.94L193.33,240.03L194.42,239.76L204.2,239.76L205.28,235.78L206.37,235.09L207.45,232.82L208.54,228.23L209.63,228.23L211.8,223.35L212.89,221.5L215.06,216.22L216.14,214.71L217.23,212.72L218.32,212.58L220.49,210.38L221.57,208.39L223.75,204.07L224.83,202.22L227.01,199.27L228.09,196.59L232.44,189.04L233.52,188.84L234.61,188.22L235.69,186.02L238.95,180.33L240.04,179.16L241.13,179.02L242.21,177.99L246.56,171.13L247.64,170.93L249.81,169.42L250.9,168.52L255.25,164.34L256.33,164.27L260.68,160.22L261.76,158.64L265.02,156.93L266.11,156.03L269.37,153.36L270.45,153.36L272.62,152.95L273.71,151.85L275.88,150.27L276.97,149.65L281.31,148.76L282.4,147.73L285.66,145.95L286.74,145.95L295.43,143.27L296.52,142.93L301.95,141.49" style="vector-effect: non-scaling-stroke; fill: none; stroke: rgb(67, 99, 216); stroke-opacity: 1; stroke-width: 2px; opacity: 1;"/></g><g class="points"/><g class="text"/></g><g class="trace scatter tracebe1aac" style="stroke-miterlimit: 2; opacity: 1;"><g class="fills"/><g class="errorbars"/><g class="lines"><path class="js-line" d="M0,256.5L73.86,255.88L74.94,255.26L77.12,254.51L78.2,253.82L81.46,253.21L82.55,251.76L85.81,249.02L86.89,247.1L89.06,245.31L90.15,243.6L97.75,227.13L98.84,222.6L103.18,210.52L104.27,208.46L105.36,206.34L106.44,201.46L112.96,185.95L114.05,183.07L119.48,171.75L120.56,171.13L123.82,164.06L124.91,162.48L131.42,153.84L132.51,152.74L135.77,151.16L136.86,150.2L141.2,145.67L142.29,143.27L146.63,140.18L147.72,139.77L152.06,138.12L153.15,137.57L156.41,136L157.49,135.51L158.58,135.38L159.66,134.28L171.61,129.48L172.7,129.48L174.87,129L175.96,128.38L181.39,126.94L182.47,126.32L191.16,123.78L192.25,123.51L195.51,122.96L196.59,122.96L200.94,122.34L202.02,122.2L207.45,120.76L208.54,120.42L223.75,118.84L224.83,118.84L227.01,118.84L228.09,116.92L234.61,115.54L235.69,115.27L242.21,114.38L243.3,114.38L245.47,114.1L246.56,113.62L253.07,112.66L254.16,112.25L287.83,105.8L288.92,105.53L301.95,101.68" style="vector-effect: non-scaling-stroke; fill: none; stroke: rgb(245, 130, 49); stroke-opacity: 1; stroke-width: 2px; opacity: 1;"/></g><g class="points"/><g class="text"/></g><g class="trace scatter tracee83f6b" style="stroke-miterlimit: 2; opacity: 1;"><g class="fills"/><g class="errorbars"/><g class="lines"><path class="js-line" d="M0,256.5L77.12,256.02L78.2,255.68L83.63,255.26L84.72,254.78L91.24,253.34L92.32,252.93L97.75,249.98L98.84,248.75L102.1,245.86L103.18,244.35L107.53,241.06L108.62,239.82L120.56,228.23L121.65,227.27L123.82,225.69L124.91,225.34L130.34,222.05L131.42,220.95L135.77,218.83L136.86,217.73L140.11,214.91L141.2,214.43L143.37,213.47L144.46,213.06L154.23,207.91L155.32,207.64L173.78,203.25L174.87,203.25L178.13,202.63L179.21,202.56L204.2,201.53L205.28,201.53L207.45,200.71L208.54,200.57L215.06,199.68L216.14,199.47L222.66,198.51L223.75,198.44L286.74,191.03L287.83,190.96L296.52,190.21L297.61,189.18L301.95,188.29" style="vector-effect: non-scaling-stroke; fill: none; stroke: rgb(145, 30, 180); stroke-opacity: 1; stroke-width: 2px; opacity: 1;"/></g><g class="points"/><g class="text"/></g></g></g><g class="overplot"/><path class="xlines-above crisp" d="M0,0" style="fill: none;"/><path class="ylines-above crisp" d="M0,0" style="fill: none;"/><g class="overlines-above"/><g class="xaxislayer-above"><g class="x2tick"><text text-anchor="middle" x="0" y="383" transform="translate(491.41,0)" style="font-family: 'Open Sans', verdana, arial, sans-serif; font-size: 12px; fill: rgb(242, 245, 250); fill-opacity: 1; white-space: pre;">Mar 2020</text></g><g class="x2tick"><text text-anchor="middle" x="0" y="383" transform="translate(557.6700000000001,0)" style="font-family: 'Open Sans', verdana, arial, sans-serif; font-size: 12px; fill: rgb(242, 245, 250); fill-opacity: 1; white-space: pre;">May 2020</text></g><g class="x2tick"><text text-anchor="middle" x="0" y="383" transform="translate(623.9200000000001,0)" style="font-family: 'Open Sans', verdana, arial, sans-serif; font-size: 12px; fill: rgb(242, 245, 250); fill-opacity: 1; white-space: pre;">Jul 2020</text></g><g class="x2tick"><text text-anchor="middle" x="0" y="383" transform="translate(691.26,0)" style="font-family: 'Open Sans', verdana, arial, sans-serif; font-size: 12px; fill: rgb(242, 245, 250); fill-opacity: 1; white-space: pre;">Sep 2020</text></g></g><g class="yaxislayer-above"><g class="y2tick"><text text-anchor="end" x="448.05" y="4.199999999999999" transform="translate(0,356.5)" style="font-family: 'Open Sans', verdana, arial, sans-serif; font-size: 12px; fill: rgb(242, 245, 250); fill-opacity: 1; white-space: pre;">0</text></g><g class="y2tick"><text text-anchor="end" x="448.05" y="4.199999999999999" transform="translate(0,287.88)" style="font-family: 'Open Sans', verdana, arial, sans-serif; font-size: 12px; fill: rgb(242, 245, 250); fill-opacity: 1; white-space: pre;">1000</text></g><g class="y2tick"><text text-anchor="end" x="448.05" y="4.199999999999999" transform="translate(0,219.25)" style="font-family: 'Open Sans', verdana, arial, sans-serif; font-size: 12px; fill: rgb(242, 245, 250); fill-opacity: 1; white-space: pre;">2000</text></g><g class="y2tick"><text text-anchor="end" x="448.05" y="4.199999999999999" transform="translate(0,150.63)" style="font-family: 'Open Sans', verdana, arial, sans-serif; font-size: 12px; fill: rgb(242, 245, 250); fill-opacity: 1; white-space: pre;">3000</text></g></g><g class="overaxes-above"/></g></g><g class="polarlayer"/><g class="ternarylayer"/><g class="geolayer"/><g class="funnelarealayer"/><g class="pielayer"/><g class="treemaplayer"/><g class="sunburstlayer"/><g class="glimages"/><defs id="topdefs-161d7b"><g class="clips"/><clipPath id="legend161d7b"><rect width="124" height="124" x="0" y="0"/></clipPath></defs><g class="layer-above"><g class="imagelayer"/><g class="shapelayer"/></g><g class="infolayer"><g class="legend" pointer-events="all" transform="translate(764.42, 100)"><rect class="bg" shape-rendering="crispEdges" width="124" height="124" x="0" y="0" style="stroke: rgb(68, 68, 68); stroke-opacity: 1; fill: rgb(17, 17, 17); fill-opacity: 1; stroke-width: 0px;"/><g class="scrollbox" transform="translate(0, 0)" clip-path="url('#legend161d7b')"><g class="groups"><g class="traces" transform="translate(0, 14.5)" style="opacity: 1;"><text class="legendtext user-select-none" text-anchor="start" x="40" y="4.680000000000001" style="font-family: 'Open Sans', verdana, arial, sans-serif; font-size: 12px; fill: rgb(242, 245, 250); fill-opacity: 1; white-space: pre;">Alameda, CA</text><g class="layers" style="opacity: 1;"><g class="legendfill"/><g class="legendlines"><path class="js-line" d="M5,0h30" style="fill: none; stroke: rgb(230, 25, 75); stroke-opacity: 1; stroke-width: 2px;"/></g><g class="legendsymbols"><g class="legendpoints"/></g></g><rect class="legendtoggle" pointer-events="all" x="0" y="-9.5" width="118.703125" height="19" style="cursor: pointer; fill: rgb(0, 0, 0); fill-opacity: 0;"/></g><g class="traces" transform="translate(0, 33.5)" style="opacity: 1;"><text class="legendtext user-select-none" text-anchor="start" x="40" y="4.680000000000001" style="font-family: 'Open Sans', verdana, arial, sans-serif; font-size: 12px; fill: rgb(242, 245, 250); fill-opacity: 1; white-space: pre;">Maricopa, AZ</text><g class="layers" style="opacity: 1;"><g class="legendfill"/><g class="legendlines"><path class="js-line" d="M5,0h30" style="fill: none; stroke: rgb(60, 180, 75); stroke-opacity: 1; stroke-width: 2px;"/></g><g class="legendsymbols"><g class="legendpoints"/></g></g><rect class="legendtoggle" pointer-events="all" x="0" y="-9.5" width="118.703125" height="19" style="cursor: pointer; fill: rgb(0, 0, 0); fill-opacity: 0;"/></g><g class="traces" transform="translate(0, 52.5)" style="opacity: 1;"><text class="legendtext user-select-none" text-anchor="start" x="40" y="4.680000000000001" style="font-family: 'Open Sans', verdana, arial, sans-serif; font-size: 12px; fill: rgb(242, 245, 250); fill-opacity: 1; white-space: pre;">Tarrant, TX</text><g class="layers" style="opacity: 1;"><g class="legendfill"/><g class="legendlines"><path class="js-line" d="M5,0h30" style="fill: none; stroke: rgb(255, 225, 25); stroke-opacity: 1; stroke-width: 2px;"/></g><g class="legendsymbols"><g class="legendpoints"/></g></g><rect class="legendtoggle" pointer-events="all" x="0" y="-9.5" width="118.703125" height="19" style="cursor: pointer; fill: rgb(0, 0, 0); fill-opacity: 0;"/></g><g class="traces" transform="translate(0, 71.5)" style="opacity: 1;"><text class="legendtext user-select-none" text-anchor="start" x="40" y="4.680000000000001" style="font-family: 'Open Sans', verdana, arial, sans-serif; font-size: 12px; fill: rgb(242, 245, 250); fill-opacity: 1; white-space: pre;">Hidalgo, TX</text><g class="layers" style="opacity: 1;"><g class="legendfill"/><g class="legendlines"><path class="js-line" d="M5,0h30" style="fill: none; stroke: rgb(67, 99, 216); stroke-opacity: 1; stroke-width: 2px;"/></g><g class="legendsymbols"><g class="legendpoints"/></g></g><rect class="legendtoggle" pointer-events="all" x="0" y="-9.5" width="118.703125" height="19" style="cursor: pointer; fill: rgb(0, 0, 0); fill-opacity: 0;"/></g><g class="traces" transform="translate(0, 90.5)" style="opacity: 1;"><text class="legendtext user-select-none" text-anchor="start" x="40" y="4.680000000000001" style="font-family: 'Open Sans', verdana, arial, sans-serif; font-size: 12px; fill: rgb(242, 245, 250); fill-opacity: 1; white-space: pre;">Middlesex, MA</text><g class="layers" style="opacity: 1;"><g class="legendfill"/><g class="legendlines"><path class="js-line" d="M5,0h30" style="fill: none; stroke: rgb(245, 130, 49); stroke-opacity: 1; stroke-width: 2px;"/></g><g class="legendsymbols"><g class="legendpoints"/></g></g><rect class="legendtoggle" pointer-events="all" x="0" y="-9.5" width="118.703125" height="19" style="cursor: pointer; fill: rgb(0, 0, 0); fill-opacity: 0;"/></g><g class="traces" transform="translate(0, 109.5)" style="opacity: 1;"><text class="legendtext user-select-none" text-anchor="start" x="40" y="4.680000000000001" style="font-family: 'Open Sans', verdana, arial, sans-serif; font-size: 12px; fill: rgb(242, 245, 250); fill-opacity: 1; white-space: pre;">Hennepin, MN</text><g class="layers" style="opacity: 1;"><g class="legendfill"/><g class="legendlines"><path class="js-line" d="M5,0h30" style="fill: none; stroke: rgb(145, 30, 180); stroke-opacity: 1; stroke-width: 2px;"/></g><g class="legendsymbols"><g class="legendpoints"/></g></g><rect class="legendtoggle" pointer-events="all" x="0" y="-9.5" width="118.703125" height="19" style="cursor: pointer; fill: rgb(0, 0, 0); fill-opacity: 0;"/></g></g></g><rect class="scrollbar" rx="20" ry="3" width="0" height="0" x="0" y="0" style="fill: rgb(128, 139, 164); fill-opacity: 1;"/></g><g class="g-gtitle"/><g class="g-xtitle"><text class="xtitle" x="230.975" y="410.8" text-anchor="middle" style="font-family: 'Open Sans', verdana, arial, sans-serif; font-size: 14px; fill: rgb(242, 245, 250); opacity: 1; font-weight: normal; white-space: pre;">Date</text></g><g class="g-x2title"><text class="x2title" x="600.025" y="410.8" text-anchor="middle" style="font-family: 'Open Sans', verdana, arial, sans-serif; font-size: 14px; fill: rgb(242, 245, 250); opacity: 1; font-weight: normal; white-space: pre;">Date</text></g><g class="g-ytitle"><text class="ytitle" transform="rotate(-90,28.168750000000003,235)" x="28.168750000000003" y="235" text-anchor="middle" style="font-family: 'Open Sans', verdana, arial, sans-serif; font-size: 14px; fill: rgb(242, 245, 250); opacity: 1; font-weight: normal; white-space: pre;">Cases</text></g><g class="g-y2title"><text class="y2title" transform="rotate(-90,396.54375,235)" x="396.54375" y="235" text-anchor="middle" style="font-family: 'Open Sans', verdana, arial, sans-serif; font-size: 14px; fill: rgb(242, 245, 250); opacity: 1; font-weight: normal; white-space: pre;">Deaths</text></g><g class="annotation" data-index="0" style="opacity: 1;"><g class="annotation-text-g" transform="rotate(0,230.975,89.5)"><g class="cursor-pointer" transform="translate(206, 79)"><rect class="bg" x="0.5" y="0.5" width="48" height="20" style="stroke-width: 1px; stroke: rgb(0, 0, 0); stroke-opacity: 0; fill: rgb(0, 0, 0); fill-opacity: 0;"/><text class="annotation-text" text-anchor="middle" x="24.6875" y="16" style="font-family: 'Open Sans', verdana, arial, sans-serif; font-size: 16px; fill: rgb(242, 245, 250); fill-opacity: 1; white-space: pre;">Cases</text></g></g></g><g class="annotation" data-index="1" style="opacity: 1;"><g class="annotation-text-g" transform="rotate(0,600.025,89.5)"><g class="cursor-pointer" transform="translate(573, 79)"><rect class="bg" x="0.5" y="0.5" width="54" height="20" style="stroke-width: 1px; stroke: rgb(0, 0, 0); stroke-opacity: 0; fill: rgb(0, 0, 0); fill-opacity: 0;"/><text class="annotation-text" text-anchor="middle" x="27.359375" y="16" style="font-family: 'Open Sans', verdana, arial, sans-serif; font-size: 16px; fill: rgb(242, 245, 250); fill-opacity: 1; white-space: pre;">Deaths</text></g></g></g></g></svg>