<svg class="main-svg" xmlns="http://www.w3.org/2000/svg" xmlns:xlink="http://www.w3.org/1999/xlink" width="900" height="450" style="" viewBox="0 0 900 450"><rect x="0" y="0" width="900" height="450" style="fill: rgb(17, 17, 17); fill-opacity: 1;"/><defs id="defs-6bc3d9"><g class="clips"><clipPath id="clip6bc3d9xyplot" class="plotclip"><rect width="301.05" height="270"/></clipPath><clipPath id="clip6bc3d9x2y2plot" class="plotclip"><rect width="301.04999999999995" height="270"/></clipPath><clipPath class="axesclip" id="clip6bc3d9x"><rect x="80" y="0" width="301.05" height="450"/></clipPath><clipPath class="axesclip" id="clip6bc3d9y"><rect x="0" y="100" width="900" height="270"/></clipPath><clipPath class="axesclip" id="clip6bc3d9xy"><rect x="80" y="100" width="301.05" height="270"/></clipPath><clipPath class="axesclip" id="clip6bc3d9y2"><rect x="0" y="100" width="900" height="270"/></clipPath><clipPath class="axesclip" id="clip6bc3d9xy2"><rect x="80" y="100" width="301.05" height="270"/></clipPath><clipPath class="axesclip" id="clip6bc3d9x2"><rect x="447.95000000000005" y="0" width="301.04999999999995" height="450"/></clipPath><clipPath class="axesclip" id="clip6bc3d9x2y"><rect x="447.95000000000005" y="100" width="301.04999999999995" height="270"/></clipPath><clipPath class="axesclip" id="clip6bc3d9x2y2"><rect x="447.95000000000005" y="100" width="301.04999999999995" height="270"/></clipPath></g><g class="gradients"/></defs><g class="bglayer"/><g class="layer-below"><g class="imagelayer"/><g class="shapelayer"/></g><g class="cartesianlayer"><g class="subplot xy"><g class="layer-subplot"><g class="shapelayer"/><g class="imagelayer"/></g><g class="gridlayer"><g class="x"><path class="xgrid crisp" transform="translate(147.76,0)" d="M0,100v270" style="stroke: rgb(40, 52, 66); stroke-opacity: 1; stroke-width: 1px;"/><path class="xgrid crisp" transform="translate(235.85,0)" d="M0,100v270" style="stroke: rgb(40, 52, 66); stroke-opacity: 1; stroke-width: 1px;"/><path class="xgrid crisp" transform="translate(324.90999999999997,0)" d="M0,100v270" style="stroke: rgb(40, 52, 66); stroke-opacity: 1; stroke-width: 1px;"/></g><g class="y"><path class="ygrid crisp" transform="translate(0,314.77)" d="M80,0h301.05" style="stroke: rgb(40, 52, 66); stroke-opacity: 1; stroke-width: 1px;"/><path class="ygrid crisp" transform="translate(0,273.03999999999996)" d="M80,0h301.05" style="stroke: rgb(40, 52, 66); stroke-opacity: 1; stroke-width: 1px;"/><path class="ygrid crisp" transform="translate(0,231.31)" d="M80,0h301.05" style="stroke: rgb(40, 52, 66); stroke-opacity: 1; stroke-width: 1px;"/><path class="ygrid crisp" transform="translate(0,189.57999999999998)" d="M80,0h301.05" style="stroke: rgb(40, 52, 66); stroke-opacity: 1; stroke-width: 1px;"/><path class="ygrid crisp" transform="translate(0,147.85)" d="M80,0h301.05" style="stroke: rgb(40, 52, 66); stroke-opacity: 1; stroke-width: 1px;"/><path class="ygrid crisp" transform="translate(0,106.12)" d="M80,0h301.05" style="stroke: rgb(40, 52, 66); stroke-opacity: 1; stroke-width: 1px;"/></g></g><g class="zerolinelayer"><path class="yzl zl crisp" transform="translate(0,356.5)" d="M80,0h301.05" style="stroke: rgb(40, 52, 66); stroke-opacity: 1; stroke-width: 2px;"/></g><path class="xlines-below"/><path class="ylines-below"/><g class="overlines-below"/><g class="xaxislayer-below"/><g class="yaxislayer-below"/><g class="overaxes-below"/><g class="plot" transform="translate(80, 100)" clip-path="url('#clip6bc3d9xyplot')"><g class="scatterlayer mlayer"><g class="trace scatter trace4039fe" style="stroke-miterlimit: 2; opacity: 1;"><g class="fills"/><g class="errorbars"/><g class="lines"><path class="js-line" d="M0,256.5L57.11,255.96L58.08,255.62L66.79,253.89L67.76,253.5L78.41,249.46L79.38,249.12L81.31,248.47L82.28,248.1L91.96,244.25L92.93,244L103.58,240.13L104.54,239.62L113.26,235.99L114.22,235.45L118.1,233.41L119.06,232.74L121,231.58L121.97,231.05L124.87,229.05L125.84,228.21L133.58,223.58L134.55,223.24L139.39,220.45L140.36,220L145.2,216.4L146.17,216.4L149.07,212.48L150.04,211.58L154.88,206.72L155.85,205.12L157.79,202.49L158.75,201.78L159.72,199.29L160.69,199.02L161.66,199.02L162.63,196.03L165.53,192.03L166.5,192.03L170.37,184.5L171.34,182.57L173.27,179.41L174.24,179.25L176.18,176.02L177.15,174.13L179.08,170.29L180.05,169.95L181.02,169.39L181.99,167.76L182.95,166.59L183.92,163.6L184.89,163.6L185.86,160.66L186.83,160.32L187.79,157.63L188.76,157.11L189.73,155.21L192.63,155.21L193.6,146.34L194.57,146.18L195.54,142.46L197.47,137.75L198.44,135L199.41,135L200.38,130.28L201.35,130.23L202.31,127.66L205.22,119.05L206.19,117.18L208.12,116.85L209.09,112.32L210.06,111.41L211.03,109.44L211.99,107.55L212.96,107.55L219.74,96.83L220.71,96.83L221.67,95.01L222.64,95.01L224.58,92L225.55,91.09L226.51,90.94L227.48,89.66L231.35,88.23L232.32,86.54L236.19,83.34L237.16,82.58L241.03,79.66L242,79.23L249.75,74.48L250.71,74.18L254.59,71.65L255.55,71.65L257.49,70.18L258.46,69.8L260.39,69.06L261.36,67.58L269.11,61.28L270.07,61.28L272.01,59.24L272.98,58.08L279.75,52.71L280.72,50.66L284.59,45.77L285.56,44.51L289.43,39.11L290.4,35.67L292.34,31.77L293.31,29.3L295.24,27.11L296.21,25.97L298.15,20.94L299.11,20.94L301.05,13.5" style="vector-effect: non-scaling-stroke; fill: none; stroke: rgb(230, 25, 75); stroke-opacity: 1; stroke-width: 2px; opacity: 1;"/></g><g class="points"/><g class="text"/></g><g class="trace scatter trace658cde" style="stroke-miterlimit: 2; opacity: 1;"><g class="fills"/><g class="errorbars"/><g class="lines"><path class="js-line" d="M0,256.5L62.92,255.77L63.89,255.54L69.7,253.44L70.66,252.59L81.31,245.98L82.28,245.43L84.22,244.35L85.18,243.26L90.99,238.53L91.96,237.03L97.77,232.47L98.74,231.1L102.61,228.4L103.58,227.87L106.48,225.91L107.45,225.65L112.29,223.64L113.26,223.23L116.16,222.31L117.13,221.31L132.62,216.56L133.58,216.46L146.17,214.58L147.14,214.39L163.59,212.13L164.56,212L170.37,211.27L171.34,211.27L181.99,209.06L182.95,208.75L188.76,207.71L189.73,207.2L231.35,199.5L232.32,199.23L241.03,197.02L242,196.87L253.62,193.84L254.59,193.53L257.49,192.55L258.46,192.21L262.33,190.69L263.3,190.33L271.04,186.26L272.01,185.68L275.88,183.11L276.85,182.63L285.56,174.23L286.53,172.5L289.43,167.77L290.4,165.96L293.31,161.26L294.27,158.86L299.11,147.84L300.08,146.19L301.05,145.63" style="vector-effect: non-scaling-stroke; fill: none; stroke: rgb(60, 180, 75); stroke-opacity: 1; stroke-width: 2px; opacity: 1;"/></g><g class="points"/><g class="text"/></g><g class="trace scatter tracec82f11" style="stroke-miterlimit: 2; opacity: 1;"><g class="fills"/><g class="errorbars"/><g class="lines"><path class="js-line" d="M0,256.5L142.3,255.77L143.26,255.71L171.34,253.64L172.31,253.47L205.22,250.49L206.19,250.47L228.45,249.06L229.42,248.28L236.19,246.4L237.16,246.08L242.97,243.46L243.94,242.7L253.62,234.99L254.59,234.07L257.49,230.84L258.46,229.69L259.43,228.44L260.39,228.44L261.36,228.44L262.33,226.42L272.01,212.63L272.98,210.53L275.88,206.49L276.85,205.36L280.72,198.18L281.69,196.75L285.56,189.16L286.53,187.26L287.5,186.64L288.47,184.31L294.27,176.85L295.24,175.59L298.15,172.89L299.11,171.66L301.05,169.74" style="vector-effect: non-scaling-stroke; fill: none; stroke: rgb(255, 225, 25); stroke-opacity: 1; stroke-width: 2px; opacity: 1;"/></g><g class="points"/><g class="text"/></g><g class="trace scatter trace209ea3" style="stroke-miterlimit: 2; opacity: 1;"><g class="fills"/><g class="errorbars"/><g class="lines"><path class="js-line" d="M0,256.5L118.1,255.78L119.06,255.74L151.01,254.71L151.98,254.6L162.63,253.65L163.59,253.49L171.34,251.66L172.31,251.37L183.92,248.62L184.89,248.3L191.67,246.24L192.63,246.01L211.99,242.49L212.96,242.04L230.39,239.88L231.35,239.82L236.19,238.98L237.16,238.92L244.91,238.21L245.87,238.13L248.78,237.66L249.75,237.59L267.17,234.36L268.14,234.27L276.85,232.77L277.82,232.58L301.05,227.17" style="vector-effect: non-scaling-stroke; fill: none; stroke: rgb(67, 99, 216); stroke-opacity: 1; stroke-width: 2px; opacity: 1;"/></g><g class="points"/><g class="text"/></g><g class="trace scatter trace34a3dc" style="stroke-miterlimit: 2; opacity: 1;"><g class="fills"/><g class="errorbars"/><g class="lines"><path class="js-line" d="M0,256.5L101.64,255.81L102.61,255.72L113.26,255.31L114.22,255.28L160.69,251.89L161.66,251.68L167.47,250.95L168.43,250.7L199.41,245.07L200.38,244.92L208.12,243.35L209.09,243.1L217.8,239.69L218.77,238.66L228.45,233.21L229.42,230.88L232.32,227.46L233.29,226.19L240.07,219.03L241.03,218.03L244.91,211.99L245.87,210.66L259.43,192.82L260.39,192.82L261.36,192.82L262.33,189.08L264.27,185.3L265.23,184.36L270.07,176.87L271.04,176.16L274.91,170.8L275.88,169.98L279.75,164.01L280.72,161.96L285.56,155.36L286.53,153.41L297.18,139.69L298.15,138.79L299.11,137.55L300.08,137.55L301.05,136.15" style="vector-effect: non-scaling-stroke; fill: none; stroke: rgb(245, 130, 49); stroke-opacity: 1; stroke-width: 2px; opacity: 1;"/></g><g class="points"/><g class="text"/></g><g class="trace scatter trace588468" style="stroke-miterlimit: 2; opacity: 1;"><g class="fills"/><g class="errorbars"/><g class="lines"><path class="js-line" d="M0,256.5L117.13,255.78L118.1,255.73L156.82,254.65L157.79,254.46L167.47,253.45L168.43,253.33L177.15,252.27L178.11,252.11L224.58,246.91L225.55,246.64L250.71,242.13L251.68,241.69L263.3,238.17L264.27,237.74L274.91,232.9L275.88,232.27L282.66,227.53L283.63,226.74L285.56,224.97L286.53,223.68L289.43,220.77L290.4,220.77L293.31,220.77L294.27,216.34L295.24,215.64L296.21,213.89L299.11,211.6L300.08,211.6L301.05,208.03" style="vector-effect: non-scaling-stroke; fill: none; stroke: rgb(145, 30, 180); stroke-opacity: 1; stroke-width: 2px; opacity: 1;"/></g><g class="points"/><g class="text"/></g></g></g><g class="overplot"/><path class="xlines-above crisp" d="M0,0" style="fill: none;"/><path class="ylines-above crisp" d="M0,0" style="fill: none;"/><g class="overlines-above"/><g class="xaxislayer-above"><g class="xtick"><text text-anchor="middle" x="0" y="383" transform="translate(147.76,0)" style="font-family: 'Open Sans', verdana, arial, sans-serif; font-size: 12px; fill: rgb(242, 245, 250); fill-opacity: 1; white-space: pre;">Apr 2020</text></g><g class="xtick"><text text-anchor="middle" x="0" y="383" transform="translate(235.85,0)" style="font-family: 'Open Sans', verdana, arial, sans-serif; font-size: 12px; fill: rgb(242, 245, 250); fill-opacity: 1; white-space: pre;">Jul 2020</text></g><g class="xtick"><text text-anchor="middle" x="0" y="383" transform="translate(324.90999999999997,0)" style="font-family: 'Open Sans', verdana, arial, sans-serif; font-size: 12px; fill: rgb(242, 245, 250); fill-opacity: 1; white-space: pre;">Oct 2020</text></g></g><g class="yaxislayer-above"><g class="ytick"><text text-anchor="end" x="79" y="4.199999999999999" transform="translate(0,356.5)" style="font-family: 'Open Sans', verdana, arial, sans-serif; font-size: 12px; fill: rgb(242, 245, 250); fill-opacity: 1; white-space: pre;">0</text></g><g class="ytick"><text text-anchor="end" x="79" y="4.199999999999999" transform="translate(0,314.77)" style="font-family: 'Open Sans', verdana, arial, sans-serif; font-size: 12px; fill: rgb(242, 245, 250); fill-opacity: 1; white-space: pre;">5k</text></g><g class="ytick"><text text-anchor="end" x="79" y="4.199999999999999" transform="translate(0,273.03999999999996)" style="font-family: 'Open Sans', verdana, arial, sans-serif; font-size: 12px; fill: rgb(242, 245, 250); fill-opacity: 1; white-space: pre;">10k</text></g><g class="ytick"><text text-anchor="end" x="79" y="4.199999999999999" transform="translate(0,231.31)" style="font-family: 'Open Sans', verdana, arial, sans-serif; font-size: 12px; fill: rgb(242, 245, 250); fill-opacity: 1; white-space: pre;">15k</text></g><g class="ytick"><text text-anchor="end" x="79" y="4.199999999999999" transform="translate(0,189.57999999999998)" style="font-family: 'Open Sans', verdana, arial, sans-serif; font-size: 12px; fill: rgb(242, 245, 250); fill-opacity: 1; white-space: pre;">20k</text></g><g class="ytick"><text text-anchor="end" x="79" y="4.199999999999999" transform="translate(0,147.85)" style="font-family: 'Open Sans', verdana, arial, sans-serif; font-size: 12px; fill: rgb(242, 245, 250); fill-opacity: 1; white-space: pre;">25k</text></g><g class="ytick"><text text-anchor="end" x="79" y="4.199999999999999" transform="translate(0,106.12)" style="font-family: 'Open Sans', verdana, arial, sans-serif; font-size: 12px; fill: rgb(242, 245, 250); fill-opacity: 1; white-space: pre;">30k</text></g></g><g class="overaxes-above"/></g><g class="subplot x2y2"><g class="layer-subplot"><g class="shapelayer"/><g class="imagelayer"/></g><g class="gridlayer"><g class="x2"><path class="x2grid crisp" transform="translate(515.71,0)" d="M0,100v270" style="stroke: rgb(40, 52, 66); stroke-opacity: 1; stroke-width: 1px;"/><path class="x2grid crisp" transform="translate(603.8000000000001,0)" d="M0,100v270" style="stroke: rgb(40, 52, 66); stroke-opacity: 1; stroke-width: 1px;"/><path class="x2grid crisp" transform="translate(692.86,0)" d="M0,100v270" style="stroke: rgb(40, 52, 66); stroke-opacity: 1; stroke-width: 1px;"/></g><g class="y2"><path class="y2grid crisp" transform="translate(0,311.75)" d="M447.95000000000005,0h301.04999999999995" style="stroke: rgb(40, 52, 66); stroke-opacity: 1; stroke-width: 1px;"/><path class="y2grid crisp" transform="translate(0,267)" d="M447.95000000000005,0h301.04999999999995" style="stroke: rgb(40, 52, 66); stroke-opacity: 1; stroke-width: 1px;"/><path class="y2grid crisp" transform="translate(0,222.25)" d="M447.95000000000005,0h301.04999999999995" style="stroke: rgb(40, 52, 66); stroke-opacity: 1; stroke-width: 1px;"/><path class="y2grid crisp" transform="translate(0,177.49)" d="M447.95000000000005,0h301.04999999999995" style="stroke: rgb(40, 52, 66); stroke-opacity: 1; stroke-width: 1px;"/><path class="y2grid crisp" transform="translate(0,132.74)" d="M447.95000000000005,0h301.04999999999995" style="stroke: rgb(40, 52, 66); stroke-opacity: 1; stroke-width: 1px;"/></g></g><g class="zerolinelayer"><path class="y2zl zl crisp" transform="translate(0,356.5)" d="M447.95000000000005,0h301.04999999999995" style="stroke: rgb(40, 52, 66); stroke-opacity: 1; stroke-width: 2px;"/></g><path class="xlines-below"/><path class="ylines-below"/><g class="overlines-below"/><g class="xaxislayer-below"/><g class="yaxislayer-below"/><g class="overaxes-below"/><g class="plot" transform="translate(447.95000000000005, 100)" clip-path="url('#clip6bc3d9x2y2plot')"><g class="scatterlayer mlayer"><g class="trace scatter tracea9a770" style="stroke-miterlimit: 2; opacity: 1;"><g class="fills"/><g class="errorbars"/><g class="lines"><path class="js-line" d="M0,256.5L59.05,256.05L60.02,255.6L60.98,255.6L61.95,254.71L62.92,254.71L63.89,253.81L65.82,253.37L66.79,253.37L68.73,252.47L69.7,251.13L72.6,250.68L73.57,249.79L75.5,248.89L76.47,247.55L79.38,246.21L80.34,246.21L82.28,239.05L83.25,239.05L85.18,237.7L86.15,237.7L89.06,235.91L90.02,235.02L90.99,233.23L91.96,233.23L92.93,233.23L93.9,231.89L97.77,228.31L98.74,228.31L99.7,228.31L100.67,226.96L102.61,226.52L103.58,225.17L105.51,224.73L106.48,224.73L110.35,219.8L111.32,219.36L113.26,219.36L114.22,218.01L118.1,215.33L119.06,214.88L122.94,214.43L123.9,213.99L126.81,213.54L127.78,213.09L129.71,213.09L130.68,211.3L134.55,210.85L135.52,209.51L137.46,207.72L138.42,207.72L139.39,206.38L140.36,206.38L141.33,206.38L142.3,204.59L145.2,203.69L146.17,203.69L149.07,201.9L150.04,199.22L152.95,196.98L153.91,196.98L157.79,193.85L158.75,193.85L161.66,193.85L162.63,192.95L164.56,190.72L165.53,190.27L167.47,190.27L168.43,188.48L170.37,187.58L171.34,184.45L173.27,184L174.24,184L178.11,176.84L179.08,176.84L181.02,176.84L181.99,175.5L184.89,175.05L185.86,171.92L187.79,171.92L188.76,170.58L190.7,170.13L191.67,170.13L192.63,170.13L193.6,164.76L195.54,164.76L196.51,161.63L198.44,158.49L199.41,158.49L202.31,156.26L203.28,154.47L205.22,152.23L206.19,152.23L208.12,151.78L209.09,149.1L211.99,145.96L212.96,145.96L213.93,141.49L214.9,141.49L215.87,141.49L216.83,133.88L217.8,124.48L218.77,124.04L219.74,122.69L220.71,122.69L222.64,122.25L223.61,120.9L224.58,120.9L225.55,113.3L226.51,113.3L227.48,107.93L228.45,107.48L229.42,97.19L230.39,97.19L231.35,93.16L233.29,89.13L234.26,89.13L235.23,89.13L236.19,81.97L240.07,74.81L241.03,74.81L242,74.81L242.97,73.91L243.94,72.12L244.91,68.54L245.87,68.54L246.84,66.31L248.78,66.31L249.75,65.41L250.71,63.62L251.68,63.62L263.3,63.17L264.27,61.83L265.23,52.43L266.2,52.43L268.14,50.2L269.11,50.2L272.01,49.3L272.98,49.3L277.82,49.3L278.79,48.41L280.72,44.38L281.69,44.38L283.63,44.38L284.59,40.35L285.56,39.01L286.53,39.01L288.47,37.22L289.43,37.22L291.37,35.43L292.34,34.98L293.31,33.19L294.27,33.19L297.18,33.19L298.15,31.85L299.11,31.85L300.08,30.51L301.05,27.82" style="vector-effect: non-scaling-stroke; fill: none; stroke: rgb(230, 25, 75); stroke-opacity: 1; stroke-width: 2px; opacity: 1;"/></g><g class="points"/><g class="text"/></g><g class="trace scatter trace209d01" style="stroke-miterlimit: 2; opacity: 1;"><g class="fills"/><g class="errorbars"/><g class="lines"><path class="js-line" d="M0,256.5L60.98,256.5L61.95,255.6L66.79,255.16L67.76,254.26L69.7,252.47L70.66,252.02L73.57,250.68L74.54,248.89L76.47,246.65L77.44,246.65L79.38,246.21L80.34,243.97L82.28,233.23L83.25,232.33L87.12,226.96L88.09,226.96L89.06,226.96L90.02,220.25L94.86,204.14L95.83,198.32L96.8,192.06L97.77,191.16L98.74,189.82L99.7,189.82L102.61,173.71L103.58,171.47L106.48,167L107.45,163.42L108.42,160.73L109.38,154.47L110.35,149.99L111.32,149.54L112.29,149.54L113.26,146.86L116.16,145.07L117.13,139.7L119.06,135.67L120.03,135.22L122.94,132.54L123.9,128.51L125.84,126.27L126.81,124.93L128.74,121.35L129.71,119.11L131.65,115.98L132.62,110.16L133.58,110.16L134.55,107.03L136.49,100.32L137.46,99.87L139.39,94.05L140.36,93.6L142.3,93.6L143.26,92.26L144.23,90.92L145.2,90.92L149.07,89.58L150.04,88.23L151.01,88.23L151.98,70.33L156.82,64.52L157.79,63.62L159.72,62.73L160.69,62.28L164.56,56.46L165.53,56.46L166.5,56.46L167.47,55.57L172.31,51.54L173.27,51.09L176.18,47.51L177.15,47.06L179.08,46.62L180.05,46.62L189.73,46.17L190.7,45.72L192.63,45.27L193.6,44.83L197.47,44.38L198.44,43.04L202.31,42.59L203.28,41.69L216.83,41.25L217.8,40.8L222.64,40.35L223.61,39.46L225.55,39.01L226.51,38.56L230.39,37.22L231.35,37.22L235.23,36.77L236.19,35.88L240.07,34.53L241.03,34.53L242.97,34.09L243.94,33.19L244.91,31.85L245.87,31.85L257.49,31.4L258.46,30.95L262.33,29.61L263.3,29.61L266.2,28.72L267.17,28.72L270.07,26.93L271.04,26.93L272.98,26.48L273.95,25.58L275.88,25.14L276.85,24.24L281.69,23.79L282.66,23.35L284.59,22.9L285.56,22.45L287.5,21.56L288.47,21.11L289.43,21.11L290.4,20.21L296.21,17.98L297.18,16.63L299.11,13.95L300.08,13.5L301.05,13.5" style="vector-effect: non-scaling-stroke; fill: none; stroke: rgb(60, 180, 75); stroke-opacity: 1; stroke-width: 2px; opacity: 1;"/></g><g class="points"/><g class="text"/></g><g class="trace scatter tracecc514c" style="stroke-miterlimit: 2; opacity: 1;"><g class="fills"/><g class="errorbars"/><g class="lines"><path class="js-line" d="M0,256.5L169.4,256.05L170.37,255.6L178.11,255.16L179.08,254.71L184.89,254.26L185.86,253.81L189.73,253.37L190.7,252.92L192.63,252.47L193.6,252.47L197.47,252.02L198.44,251.58L200.38,251.13L201.35,251.13L214.9,250.68L215.87,250.23L245.87,249.79L246.84,249.34L248.78,249.34L249.75,246.65L251.68,245.76L252.65,244.42L253.62,243.07L254.59,243.07L258.46,242.63L259.43,242.18L262.33,241.73L263.3,239.49L265.23,238.6L266.2,236.36L267.17,236.36L268.14,235.47L270.07,232.78L271.04,232.33L272.98,232.33L273.95,230.99L274.91,229.2L275.88,229.2L279.75,224.73L280.72,224.73L281.69,224.73L282.66,222.94L285.56,215.78L286.53,213.54L289.43,213.54L290.4,211.3L292.34,206.83L293.31,206.83L294.27,206.83L295.24,205.93L297.18,205.93L298.15,204.14L299.11,201.46L300.08,201.46L301.05,201.46" style="vector-effect: non-scaling-stroke; fill: none; stroke: rgb(255, 225, 25); stroke-opacity: 1; stroke-width: 2px; opacity: 1;"/></g><g class="points"/><g class="text"/></g><g class="trace scatter trace307841" style="stroke-miterlimit: 2; opacity: 1;"><g class="fills"/><g class="errorbars"/><g class="lines"><path class="js-line" d="M0,256.5L86.15,256.5L87.12,255.6L124.87,255.16L125.84,254.26L153.91,253.81L154.88,253.37L156.82,252.92L157.79,252.92L179.08,252.47L180.05,252.02L181.99,252.02L182.95,250.68L192.63,250.23L193.6,249.79L205.22,249.34L206.19,248.89L210.06,248.89L211.03,248L214.9,247.55L215.87,247.1L219.74,245.76L220.71,245.76L231.35,245.31L232.32,244.86L236.19,244.42L237.16,243.97L242,243.52L242.97,243.07L250.71,242.63L251.68,242.18L253.62,241.73L254.59,241.73L262.33,241.28L263.3,240.84L269.11,240.84L270.07,239.94L277.82,239.49L278.79,239.05L280.72,238.6L281.69,238.6L292.34,238.15L293.31,237.7L296.21,237.7L297.18,236.81L298.15,232.78L299.11,232.33L301.05,232.33" style="vector-effect: non-scaling-stroke; fill: none; stroke: rgb(67, 99, 216); stroke-opacity: 1; stroke-width: 2px; opacity: 1;"/></g><g class="points"/><g class="text"/></g><g class="trace scatter trace1a2c93" style="stroke-miterlimit: 2; opacity: 1;"><g class="fills"/><g class="errorbars"/><g class="lines"><path class="js-line" d="M0,256.5L73.57,256.05L74.54,255.6L108.42,255.6L109.38,254.71L117.13,254.26L118.1,253.81L120.03,253.37L121,253.37L122.94,252.92L123.9,252.92L169.4,252.47L170.37,252.02L176.18,251.58L177.15,251.13L189.73,250.68L190.7,250.23L202.31,250.23L203.28,249.34L208.12,248.89L209.09,248L216.83,247.55L217.8,247.1L222.64,247.1L223.61,246.21L225.55,245.76L226.51,245.76L231.35,245.31L232.32,244.42L238.13,243.97L239.1,243.52L244.91,243.07L245.87,242.18L249.75,241.73L250.71,241.28L254.59,239.94L255.55,239.94L257.49,235.91L258.46,235.47L260.39,235.02L261.36,235.02L263.3,233.68L264.27,231.89L265.23,231.44L266.2,229.65L268.14,228.75L269.11,228.31L271.04,222.94L272.01,222.04L272.98,221.59L273.95,220.25L276.85,219.8L277.82,219.36L281.69,218.01L282.66,218.01L283.63,217.57L284.59,216.22L285.56,215.78L286.53,213.54L287.5,211.75L288.47,211.75L289.43,211.75L290.4,209.06L291.37,208.62L292.34,207.27L297.18,205.04L298.15,204.14L299.11,201.9L300.08,201.9L301.05,201.46" style="vector-effect: non-scaling-stroke; fill: none; stroke: rgb(245, 130, 49); stroke-opacity: 1; stroke-width: 2px; opacity: 1;"/></g><g class="points"/><g class="text"/></g><g class="trace scatter trace39a532" style="stroke-miterlimit: 2; opacity: 1;"><g class="fills"/><g class="errorbars"/><g class="lines"><path class="js-line" d="M0,256.5L82.28,256.05L83.25,255.6L92.93,255.16L93.9,254.71L133.58,254.26L134.55,253.81L143.26,253.81L144.23,252.92L171.34,252.47L172.31,252.02L190.7,251.58L191.67,251.13L201.35,250.68L202.31,250.23L208.12,249.79L209.09,249.34L211.99,249.34L212.96,248.44L215.87,248L216.83,247.55L223.61,247.1L224.58,245.31L232.32,244.86L233.29,244.42L235.23,243.97L236.19,242.18L241.03,241.73L242,241.28L244.91,241.28L245.87,240.39L247.81,239.94L248.78,239.94L256.52,239.49L257.49,239.05L263.3,238.6L264.27,238.15L266.2,237.7L267.17,237.7L274.91,237.7L275.88,236.81L278.79,235.02L279.75,234.12L283.63,233.68L284.59,231.89L286.53,231.44L287.5,231.44L288.47,230.1L289.43,230.1L295.24,230.1L296.21,228.31L299.11,226.96L300.08,226.96L301.05,224.73" style="vector-effect: non-scaling-stroke; fill: none; stroke: rgb(145, 30, 180); stroke-opacity: 1; stroke-width: 2px; opacity: 1;"/></g><g class="points"/><g class="text"/></g></g></g><g class="overplot"/><path class="xlines-above crisp" d="M0,0" style="fill: none;"/><path class="ylines-above crisp" d="M0,0" style="fill: none;"/><g class="overlines-above"/><g class="xaxislayer-above"><g class="x2tick"><text text-anchor="middle" x="0" y="383" transform="translate(515.71,0)" style="font-family: 'Open Sans', verdana, arial, sans-serif; font-size: 12px; fill: rgb(242, 245, 250); fill-opacity: 1; white-space: pre;">Apr 2020</text></g><g class="x2tick"><text text-anchor="middle" x="0" y="383" transform="translate(603.8000000000001,0)" style="font-family: 'Open Sans', verdana, arial, sans-serif; font-size: 12px; fill: rgb(242, 245, 250); fill-opacity: 1; white-space: pre;">Jul 2020</text></g><g class="x2tick"><text text-anchor="middle" x="0" y="383" transform="translate(692.86,0)" style="font-family: 'Open Sans', verdana, arial, sans-serif; font-size: 12px; fill: rgb(242, 245, 250); fill-opacity: 1; white-space: pre;">Oct 2020</text></g></g><g class="yaxislayer-above"><g class="y2tick"><text text-anchor="end" x="446.95000000000005" y="4.199999999999999" transform="translate(0,356.5)" style="font-family: 'Open Sans', verdana, arial, sans-serif; font-size: 12px; fill: rgb(242, 245, 250); fill-opacity: 1; white-space: pre;">0</text></g><g class="y2tick"><text text-anchor="end" x="446.95000000000005" y="4.199999999999999" transform="translate(0,311.75)" style="font-family: 'Open Sans', verdana, arial, sans-serif; font-size: 12px; fill: rgb(242, 245, 250); fill-opacity: 1; white-space: pre;">100</text></g><g class="y2tick"><text text-anchor="end" x="446.95000000000005" y="4.199999999999999" transform="translate(0,267)" style="font-family: 'Open Sans', verdana, arial, sans-serif; font-size: 12px; fill: rgb(242, 245, 250); fill-opacity: 1; white-space: pre;">200</text></g><g class="y2tick"><text text-anchor="end" x="446.95000000000005" y="4.199999999999999" transform="translate(0,222.25)" style="font-family: 'Open Sans', verdana, arial, sans-serif; font-size: 12px; fill: rgb(242, 245, 250); fill-opacity: 1; white-space: pre;">300</text></g><g class="y2tick"><text text-anchor="end" x="446.95000000000005" y="4.199999999999999" transform="translate(0,177.49)" style="font-family: 'Open Sans', verdana, arial, sans-serif; font-size: 12px; fill: rgb(242, 245, 250); fill-opacity: 1; white-space: pre;">400</text></g><g class="y2tick"><text text-anchor="end" x="446.95000000000005" y="4.199999999999999" transform="translate(0,132.74)" style="font-family: 'Open Sans', verdana, arial, sans-serif; font-size: 12px; fill: rgb(242, 245, 250); fill-opacity: 1; white-space: pre;">500</text></g></g><g class="overaxes-above"/></g></g><g class="polarlayer"/><g class="ternarylayer"/><g class="geolayer"/><g class="funnelarealayer"/><g class="pielayer"/><g class="treemaplayer"/><g class="sunburstlayer"/><g class="glimages"/><defs id="topdefs-6bc3d9"><g class="clips"/><clipPath id="legend6bc3d9"><rect width="126" height="124" x="0" y="0"/></clipPath></defs><g class="layer-above"><g class="imagelayer"/><g class="shapelayer"/></g><g class="infolayer"><g class="legend" pointer-events="all" transform="translate(762.38, 100)"><rect class="bg" shape-rendering="crispEdges" width="126" height="124" x="0" y="0" style="stroke: rgb(68, 68, 68); stroke-opacity: 1; fill: rgb(17, 17, 17); fill-opacity: 1; stroke-width: 0px;"/><g class="scrollbox" transform="translate(0, 0)" clip-path="url('#legend6bc3d9')"><g class="groups"><g class="traces" transform="translate(0, 14.5)" style="opacity: 1;"><text class="legendtext user-select-none" text-anchor="start" x="40" y="4.680000000000001" style="font-family: 'Open Sans', verdana, arial, sans-serif; font-size: 12px; fill: rgb(242, 245, 250); fill-opacity: 1; white-space: pre;">Alameda, CA</text><g class="layers" style="opacity: 1;"><g class="legendfill"/><g class="legendlines"><path class="js-line" d="M5,0h30" style="fill: none; stroke: rgb(230, 25, 75); stroke-opacity: 1; stroke-width: 2px;"/></g><g class="legendsymbols"><g class="legendpoints"/></g></g><rect class="legendtoggle" pointer-events="all" x="0" y="-9.5" width="120.03125" height="19" style="cursor: pointer; fill: rgb(0, 0, 0); fill-opacity: 0;"/></g><g class="traces" transform="translate(0, 33.5)" style="opacity: 1;"><text class="legendtext user-select-none" text-anchor="start" x="40" y="4.680000000000001" style="font-family: 'Open Sans', verdana, arial, sans-serif; font-size: 12px; fill: rgb(242, 245, 250); fill-opacity: 1; white-space: pre;">Burlington, NJ</text><g class="layers" style="opacity: 1;"><g class="legendfill"/><g class="legendlines"><path class="js-line" d="M5,0h30" style="fill: none; stroke: rgb(60, 180, 75); stroke-opacity: 1; stroke-width: 2px;"/></g><g class="legendsymbols"><g class="legendpoints"/></g></g><rect class="legendtoggle" pointer-events="all" x="0" y="-9.5" width="120.03125" height="19" style="cursor: pointer; fill: rgb(0, 0, 0); fill-opacity: 0;"/></g><g class="traces" transform="translate(0, 52.5)" style="opacity: 1;"><text class="legendtext user-select-none" text-anchor="start" x="40" y="4.680000000000001" style="font-family: 'Open Sans', verdana, arial, sans-serif; font-size: 12px; fill: rgb(242, 245, 250); fill-opacity: 1; white-space: pre;">Marathon, WI</text><g class="layers" style="opacity: 1;"><g class="legendfill"/><g class="legendlines"><path class="js-line" d="M5,0h30" style="fill: none; stroke: rgb(255, 225, 25); stroke-opacity: 1; stroke-width: 2px;"/></g><g class="legendsymbols"><g class="legendpoints"/></g></g><rect class="legendtoggle" pointer-events="all" x="0" y="-9.5" width="120.03125" height="19" style="cursor: pointer; fill: rgb(0, 0, 0); fill-opacity: 0;"/></g><g class="traces" transform="translate(0, 71.5)" style="opacity: 1;"><text class="legendtext user-select-none" text-anchor="start" x="40" y="4.680000000000001" style="font-family: 'Open Sans', verdana, arial, sans-serif; font-size: 12px; fill: rgb(242, 245, 250); fill-opacity: 1; white-space: pre;">Talladega, AL</text><g class="layers" style="opacity: 1;"><g class="legendfill"/><g class="legendlines"><path class="js-line" d="M5,0h30" style="fill: none; stroke: rgb(67, 99, 216); stroke-opacity: 1; stroke-width: 2px;"/></g><g class="legendsymbols"><g class="legendpoints"/></g></g><rect class="legendtoggle" pointer-events="all" x="0" y="-9.5" width="120.03125" height="19" style="cursor: pointer; fill: rgb(0, 0, 0); fill-opacity: 0;"/></g><g class="traces" transform="translate(0, 90.5)" style="opacity: 1;"><text class="legendtext user-select-none" text-anchor="start" x="40" y="4.680000000000001" style="font-family: 'Open Sans', verdana, arial, sans-serif; font-size: 12px; fill: rgb(242, 245, 250); fill-opacity: 1; white-space: pre;">Outagamie, WI</text><g class="layers" style="opacity: 1;"><g class="legendfill"/><g class="legendlines"><path class="js-line" d="M5,0h30" style="fill: none; stroke: rgb(245, 130, 49); stroke-opacity: 1; stroke-width: 2px;"/></g><g class="legendsymbols"><g class="legendpoints"/></g></g><rect class="legendtoggle" pointer-events="all" x="0" y="-9.5" width="120.03125" height="19" style="cursor: pointer; fill: rgb(0, 0, 0); fill-opacity: 0;"/></g><g class="traces" transform="translate(0, 109.5)" style="opacity: 1;"><text class="legendtext user-select-none" text-anchor="start" x="40" y="4.680000000000001" style="font-family: 'Open Sans', verdana, arial, sans-serif; font-size: 12px; fill: rgb(242, 245, 250); fill-opacity: 1; white-space: pre;">Greene, OH</text><g class="layers" style="opacity: 1;"><g class="legendfill"/><g class="legendlines"><path class="js-line" d="M5,0h30" style="fill: none; stroke: rgb(145, 30, 180); stroke-opacity: 1; stroke-width: 2px;"/></g><g class="legendsymbols"><g class="legendpoints"/></g></g><rect class="legendtoggle" pointer-events="all" x="0" y="-9.5" width="120.03125" height="19" style="cursor: pointer; fill: rgb(0, 0, 0); fill-opacity: 0;"/></g></g></g><rect class="scrollbar" rx="20" ry="3" width="0" height="0" x="0" y="0" style="fill: rgb(128, 139, 164); fill-opacity: 1;"/></g><g class="g-gtitle"/><g class="g-xtitle"><text class="xtitle" x="230.525" y="410.8" text-anchor="middle" style="font-family: 'Open Sans', verdana, arial, sans-serif; font-size: 14px; fill: rgb(242, 245, 250); opacity: 1; font-weight: normal; white-space: pre;">Date</text></g><g class="g-x2title"><text class="x2title" x="598.475" y="410.8" text-anchor="middle" style="font-family: 'Open Sans', verdana, arial, sans-serif; font-size: 14px; fill: rgb(242, 245, 250); opacity: 1; font-weight: normal; white-space: pre;">Date</text></g><g class="g-ytitle"><text class="ytitle" transform="rotate(-90,34.840625,235)" x="34.840625" y="235" text-anchor="middle" style="font-family: 'Open Sans', verdana, arial, sans-serif; font-size: 14px; fill: rgb(242, 245, 250); opacity: 1; font-weight: normal; white-space: pre;">Cases</text></g><g class="g-y2title"><text class="y2title" transform="rotate(-90,402.121875,235)" x="402.121875" y="235" text-anchor="middle" style="font-family: 'Open Sans', verdana, arial, sans-serif; font-size: 14px; fill: rgb(242, 245, 250); opacity: 1; font-weight: normal; white-space: pre;">Deaths</text></g><g class="annotation" data-index="0" style="opacity: 1;"><g class="annotation-text-g" transform="rotate(0,230.525,89.5)"><g class="cursor-pointer" transform="translate(206, 79)"><rect class="bg" x="0.5" y="0.5" width="48" height="20" style="stroke-width: 1px; stroke: rgb(0, 0, 0); stroke-opacity: 0; fill: rgb(0, 0, 0); fill-opacity: 0;"/><text class="annotation-text" text-anchor="middle" x="24.6875" y="16" style="font-family: 'Open Sans', verdana, arial, sans-serif; font-size: 16px; fill: rgb(242, 245, 250); fill-opacity: 1; white-space: pre;">Cases</text></g></g></g><g class="annotation" data-index="1" style="opacity: 1;"><g class="annotation-text-g" transform="rotate(0,598.475,89.5)"><g class="cursor-pointer" transform="translate(571, 79)"><rect class="bg" x="0.5" y="0.5" width="54" height="20" style="stroke-width: 1px; stroke: rgb(0, 0, 0); stroke-opacity: 0; fill: rgb(0, 0, 0); fill-opacity: 0;"/><text class="annotation-text" text-anchor="middle" x="27.359375" y="16" style="font-family: 'Open Sans', verdana, arial, sans-serif; font-size: 16px; fill: rgb(242, 245, 250); fill-opacity: 1; white-space: pre;">Deaths</text></g></g></g></g></svg>