<svg class="main-svg" xmlns="http://www.w3.org/2000/svg" xmlns:xlink="http://www.w3.org/1999/xlink" width="900" height="450" style="" viewBox="0 0 900 450"><rect x="0" y="0" width="900" height="450" style="fill: rgb(17, 17, 17); fill-opacity: 1;"/><defs id="defs-6111a3"><g class="clips"><clipPath id="clip6111a3xyplot" class="plotclip"><rect width="301.95" height="270"/></clipPath><clipPath id="clip6111a3x2y2plot" class="plotclip"><rect width="301.95" height="270"/></clipPath><clipPath class="axesclip" id="clip6111a3x"><rect x="80" y="0" width="301.95" height="450"/></clipPath><clipPath class="axesclip" id="clip6111a3y"><rect x="0" y="100" width="900" height="270"/></clipPath><clipPath class="axesclip" id="clip6111a3xy"><rect x="80" y="100" width="301.95" height="270"/></clipPath><clipPath class="axesclip" id="clip6111a3y2"><rect x="0" y="100" width="900" height="270"/></clipPath><clipPath class="axesclip" id="clip6111a3xy2"><rect x="80" y="100" width="301.95" height="270"/></clipPath><clipPath class="axesclip" id="clip6111a3x2"><rect x="449.05" y="0" width="301.95" height="450"/></clipPath><clipPath class="axesclip" id="clip6111a3x2y"><rect x="449.05" y="100" width="301.95" height="270"/></clipPath><clipPath class="axesclip" id="clip6111a3x2y2"><rect x="449.05" y="100" width="301.95" height="270"/></clipPath></g><g class="gradients"/></defs><g class="bglayer"/><g class="layer-below"><g class="imagelayer"/><g class="shapelayer"/></g><g class="cartesianlayer"><g class="subplot xy"><g class="layer-subplot"><g class="shapelayer"/><g class="imagelayer"/></g><g class="gridlayer"><g class="x"><path class="xgrid crisp" transform="translate(130.21,0)" d="M0,100v270" style="stroke: rgb(40, 52, 66); stroke-opacity: 1; stroke-width: 1px;"/><path class="xgrid crisp" transform="translate(195.47,0)" d="M0,100v270" style="stroke: rgb(40, 52, 66); stroke-opacity: 1; stroke-width: 1px;"/><path class="xgrid crisp" transform="translate(261.46000000000004,0)" d="M0,100v270" style="stroke: rgb(40, 52, 66); stroke-opacity: 1; stroke-width: 1px;"/><path class="xgrid crisp" transform="translate(327.44,0)" d="M0,100v270" style="stroke: rgb(40, 52, 66); stroke-opacity: 1; stroke-width: 1px;"/></g><g class="y"><path class="ygrid crisp" transform="translate(0,297.01)" d="M80,0h301.95" style="stroke: rgb(40, 52, 66); stroke-opacity: 1; stroke-width: 1px;"/><path class="ygrid crisp" transform="translate(0,237.53)" d="M80,0h301.95" style="stroke: rgb(40, 52, 66); stroke-opacity: 1; stroke-width: 1px;"/><path class="ygrid crisp" transform="translate(0,178.04000000000002)" d="M80,0h301.95" style="stroke: rgb(40, 52, 66); stroke-opacity: 1; stroke-width: 1px;"/><path class="ygrid crisp" transform="translate(0,118.56)" d="M80,0h301.95" style="stroke: rgb(40, 52, 66); stroke-opacity: 1; stroke-width: 1px;"/></g></g><g class="zerolinelayer"><path class="yzl zl crisp" transform="translate(0,356.5)" d="M80,0h301.95" style="stroke: rgb(40, 52, 66); stroke-opacity: 1; stroke-width: 2px;"/></g><path class="xlines-below"/><path class="ylines-below"/><g class="overlines-below"/><g class="xaxislayer-below"/><g class="yaxislayer-below"/><g class="overaxes-below"/><g class="plot" transform="translate(80, 100)" clip-path="url('#clip6111a3xyplot')"><g class="scatterlayer mlayer"><g class="trace scatter traceb41d8b" style="stroke-miterlimit: 2; opacity: 1;"><g class="fills"/><g class="errorbars"/><g class="lines"><path class="js-line" d="M0,256.5L46.62,255.85L47.34,255.74L54.51,254.61L55.23,254.5L86.07,248.74L86.78,248.45L104,243.49L104.71,243.17L109.02,241.61L109.73,241.21L117.62,237L118.34,236.11L119.78,236.02L120.49,234.95L126.23,230.84L126.95,230.15L129.1,228.97L129.82,228.59L133.4,225.66L134.12,225.45L140.58,220.4L141.29,220.4L142.73,220.4L143.44,217.24L144.16,217.19L144.88,215.86L147.03,213.2L147.75,213.2L149.18,211.5L149.9,210.59L152.77,206.85L153.49,206.76L154.2,206.73L154.92,205.12L159.22,202.41L159.94,201.64L162.81,199.6L163.53,199.6L166.4,197.88L167.11,197.55L171.42,196.53L172.13,195.93L177.15,193.96L177.87,193.96L180.74,192.9L181.46,192.68L192.93,189.7L193.65,189.17L208.71,182.59L209.43,182.14L213.73,179.55L214.45,179.03L217.32,175.53L218.04,174.9L219.47,174.34L220.19,173.65L224.49,168.26L225.21,167.67L229.51,159.46L230.23,156.16L233.81,148.88L234.53,142.83L236.68,136.75L237.4,136.68L239.55,125.62L240.27,123.38L244.57,108.49L245.29,106.58L247.44,100.43L248.16,97.32L251.03,88.66L251.74,86.73L258.2,61.94L258.92,58.46L261.07,52.96L261.79,51.92L268.96,37.53L269.68,36.47L275.41,28.27L276.13,27.43L280.43,22.58L281.15,22.26L288.32,17.41L289.04,16.88L292.63,15.24L293.34,14.95L298.36,13.5L299.08,13.5L301.95,13.5" style="vector-effect: non-scaling-stroke; fill: none; stroke: rgb(230, 25, 75); stroke-opacity: 1; stroke-width: 2px; opacity: 1;"/></g><g class="points"/><g class="text"/></g><g class="trace scatter trace608c00" style="stroke-miterlimit: 2; opacity: 1;"><g class="fills"/><g class="errorbars"/><g class="lines"><path class="js-line" d="M0,256.5L206.56,255.9L207.28,255.63L226.64,255.25L227.36,255.25L301.95,254.62" style="vector-effect: non-scaling-stroke; fill: none; stroke: rgb(60, 180, 75); stroke-opacity: 1; stroke-width: 2px; opacity: 1;"/></g><g class="points"/><g class="text"/></g><g class="trace scatter trace769da5" style="stroke-miterlimit: 2; opacity: 1;"><g class="fills"/><g class="errorbars"/><g class="lines"><path class="js-line" d="M0,256.5L111.17,255.75L111.89,255.74L159.94,254.36L160.66,254.34L198.67,253.59L199.39,253.57L226.64,252.47L227.36,252.41L268.24,249.64L268.96,249.62L301.95,249" style="vector-effect: non-scaling-stroke; fill: none; stroke: rgb(255, 225, 25); stroke-opacity: 1; stroke-width: 2px; opacity: 1;"/></g><g class="points"/><g class="text"/></g><g class="trace scatter trace7cd1a7" style="stroke-miterlimit: 2; opacity: 1;"><g class="fills"/><g class="errorbars"/><g class="lines"><path class="js-line" d="M0,256.5L119.06,255.82L119.78,255.72L130.53,254.53L131.25,254.39L142.73,252.7L143.44,252.62L151.33,251.6L152.05,251.51L168.55,249.62L169.26,249.53L188.63,248.02L189.35,247.93L210.15,244.59L210.86,244.38L215.17,242.95L215.88,242.44L227.36,238.13L228.08,237.81L233.1,235.35L233.81,234.66L240.99,229.78L241.7,229.56L243.14,228.94L243.86,228.65L246.01,227.18L246.72,226.83L247.44,226.83L248.16,225.79L252.46,224.07L253.18,223.74L263.22,219.85L263.94,219.72L271.11,218.56L271.83,218.35L276.13,217.2L276.85,216.32L289.04,214.75L289.76,214.71L301.95,213.5" style="vector-effect: non-scaling-stroke; fill: none; stroke: rgb(67, 99, 216); stroke-opacity: 1; stroke-width: 2px; opacity: 1;"/></g><g class="points"/><g class="text"/></g><g class="trace scatter trace5c3d50" style="stroke-miterlimit: 2; opacity: 1;"><g class="fills"/><g class="errorbars"/><g class="lines"><path class="js-line" d="M0,256.5L101.13,255.78L101.85,255.71L116.19,254.7L116.91,254.53L124.08,253.5L124.8,253.34L160.66,248.99L161.37,248.99L184.33,247.3L185.04,247.22L209.43,244.5L210.15,244.39L223.77,240.88L224.49,240.23L229.51,238.66L230.23,238.41L232.38,236.85L233.1,236.51L243.14,230.78L243.86,230.66L247.44,229.37L248.16,228.66L256.05,225.7L256.77,225.27L266.81,222.51L267.52,222.51L270.39,221.84L271.11,221.71L281.15,219.3L281.87,219.23L301.95,216.12" style="vector-effect: non-scaling-stroke; fill: none; stroke: rgb(245, 130, 49); stroke-opacity: 1; stroke-width: 2px; opacity: 1;"/></g><g class="points"/><g class="text"/></g><g class="trace scatter tracefcceec" style="stroke-miterlimit: 2; opacity: 1;"><g class="fills"/><g class="errorbars"/><g class="lines"><path class="js-line" d="M0,256.5L143.44,255.76L144.16,255.74L183.61,254.99L184.33,254.95L216.6,252.39L217.32,252.37L247.44,248.23L248.16,247.93L261.07,246.73L261.79,246.6L286.89,245.22L287.61,245.21L301.95,244.76" style="vector-effect: non-scaling-stroke; fill: none; stroke: rgb(145, 30, 180); stroke-opacity: 1; stroke-width: 2px; opacity: 1;"/></g><g class="points"/><g class="text"/></g></g></g><g class="overplot"/><path class="xlines-above crisp" d="M0,0" style="fill: none;"/><path class="ylines-above crisp" d="M0,0" style="fill: none;"/><g class="overlines-above"/><g class="xaxislayer-above"><g class="xtick"><text text-anchor="middle" x="0" y="383" transform="translate(130.21,0)" style="font-family: 'Open Sans', verdana, arial, sans-serif; font-size: 12px; fill: rgb(242, 245, 250); fill-opacity: 1; white-space: pre;">Apr 2020</text></g><g class="xtick"><text text-anchor="middle" x="0" y="383" transform="translate(195.47,0)" style="font-family: 'Open Sans', verdana, arial, sans-serif; font-size: 12px; fill: rgb(242, 245, 250); fill-opacity: 1; white-space: pre;">Jul 2020</text></g><g class="xtick"><text text-anchor="middle" x="0" y="383" transform="translate(261.46000000000004,0)" style="font-family: 'Open Sans', verdana, arial, sans-serif; font-size: 12px; fill: rgb(242, 245, 250); fill-opacity: 1; white-space: pre;">Oct 2020</text></g><g class="xtick"><text text-anchor="middle" x="0" y="383" transform="translate(327.44,0)" style="font-family: 'Open Sans', verdana, arial, sans-serif; font-size: 12px; fill: rgb(242, 245, 250); fill-opacity: 1; white-space: pre;">Jan 2021</text></g></g><g class="yaxislayer-above"><g class="ytick"><text text-anchor="end" x="79" y="4.199999999999999" transform="translate(0,356.5)" style="font-family: 'Open Sans', verdana, arial, sans-serif; font-size: 12px; fill: rgb(242, 245, 250); fill-opacity: 1; white-space: pre;">0</text></g><g class="ytick"><text text-anchor="end" x="79" y="4.199999999999999" transform="translate(0,297.01)" style="font-family: 'Open Sans', verdana, arial, sans-serif; font-size: 12px; fill: rgb(242, 245, 250); fill-opacity: 1; white-space: pre;">20k</text></g><g class="ytick"><text text-anchor="end" x="79" y="4.199999999999999" transform="translate(0,237.53)" style="font-family: 'Open Sans', verdana, arial, sans-serif; font-size: 12px; fill: rgb(242, 245, 250); fill-opacity: 1; white-space: pre;">40k</text></g><g class="ytick"><text text-anchor="end" x="79" y="4.199999999999999" transform="translate(0,178.04000000000002)" style="font-family: 'Open Sans', verdana, arial, sans-serif; font-size: 12px; fill: rgb(242, 245, 250); fill-opacity: 1; white-space: pre;">60k</text></g><g class="ytick"><text text-anchor="end" x="79" y="4.199999999999999" transform="translate(0,118.56)" style="font-family: 'Open Sans', verdana, arial, sans-serif; font-size: 12px; fill: rgb(242, 245, 250); fill-opacity: 1; white-space: pre;">80k</text></g></g><g class="overaxes-above"/></g><g class="subplot x2y2"><g class="layer-subplot"><g class="shapelayer"/><g class="imagelayer"/></g><g class="gridlayer"><g class="x2"><path class="x2grid crisp" transform="translate(499.26,0)" d="M0,100v270" style="stroke: rgb(40, 52, 66); stroke-opacity: 1; stroke-width: 1px;"/><path class="x2grid crisp" transform="translate(564.52,0)" d="M0,100v270" style="stroke: rgb(40, 52, 66); stroke-opacity: 1; stroke-width: 1px;"/><path class="x2grid crisp" transform="translate(630.51,0)" d="M0,100v270" style="stroke: rgb(40, 52, 66); stroke-opacity: 1; stroke-width: 1px;"/><path class="x2grid crisp" transform="translate(696.49,0)" d="M0,100v270" style="stroke: rgb(40, 52, 66); stroke-opacity: 1; stroke-width: 1px;"/></g><g class="y2"><path class="y2grid crisp" transform="translate(0,319.43)" d="M449.05,0h301.95" style="stroke: rgb(40, 52, 66); stroke-opacity: 1; stroke-width: 1px;"/><path class="y2grid crisp" transform="translate(0,282.36)" d="M449.05,0h301.95" style="stroke: rgb(40, 52, 66); stroke-opacity: 1; stroke-width: 1px;"/><path class="y2grid crisp" transform="translate(0,245.29)" d="M449.05,0h301.95" style="stroke: rgb(40, 52, 66); stroke-opacity: 1; stroke-width: 1px;"/><path class="y2grid crisp" transform="translate(0,208.22)" d="M449.05,0h301.95" style="stroke: rgb(40, 52, 66); stroke-opacity: 1; stroke-width: 1px;"/><path class="y2grid crisp" transform="translate(0,171.15)" d="M449.05,0h301.95" style="stroke: rgb(40, 52, 66); stroke-opacity: 1; stroke-width: 1px;"/><path class="y2grid crisp" transform="translate(0,134.07)" d="M449.05,0h301.95" style="stroke: rgb(40, 52, 66); stroke-opacity: 1; stroke-width: 1px;"/></g></g><g class="zerolinelayer"><path class="y2zl zl crisp" transform="translate(0,356.5)" d="M449.05,0h301.95" style="stroke: rgb(40, 52, 66); stroke-opacity: 1; stroke-width: 2px;"/></g><path class="xlines-below"/><path class="ylines-below"/><g class="overlines-below"/><g class="xaxislayer-below"/><g class="yaxislayer-below"/><g class="overaxes-below"/><g class="plot" transform="translate(449.05, 100)" clip-path="url('#clip6111a3x2y2plot')"><g class="scatterlayer mlayer"><g class="trace scatter trace91fe50" style="stroke-miterlimit: 2; opacity: 1;"><g class="fills"/><g class="errorbars"/><g class="lines"><path class="js-line" d="M0,256.5L46.62,255.76L47.34,255.39L59.53,252.24L60.25,249.83L62.4,248.9L63.12,248.72L65.98,247.97L66.7,247.6L68.14,246.86L68.85,246.86L72.44,244.82L73.16,244.82L76.03,244.08L76.74,243.53L80.33,242.41L81.05,241.86L82.48,241.12L83.2,241.12L84.63,240.56L85.35,240.19L88.22,239.26L88.94,239.26L96.11,238.52L96.82,237.78L100.41,237.04L101.13,236.48L110.45,233.89L111.17,232.77L116.91,230.55L117.62,230.55L120.49,230.18L121.21,229.44L126.23,227.96L126.95,226.66L129.82,225.55L130.53,224.8L133.4,223.51L134.12,223.51L136.27,222.77L136.99,222.77L138.42,221.47L139.14,221.47L141.29,220.73L142.01,220.73L142.73,220.73L143.44,218.5L144.88,218.5L145.6,217.2L147.75,215.91L148.46,215.54L149.9,214.98L150.62,214.24L152.77,213.31L153.49,213.13L154.2,213.13L154.92,212.01L157.79,210.72L158.51,208.68L159.94,208.86L160.66,205.71L162.09,201.64L162.81,201.08L166.4,200.34L167.11,197.19L167.83,197.19L168.55,194.96L169.26,194.78L169.98,190.51L170.7,190.51L171.42,188.85L173.57,187.18L174.28,187.18L175.72,183.28L176.44,182.91L177.87,181.62L178.59,181.25L180.02,180.88L180.74,180.13L182.17,178.65L182.89,177.54L185.04,177.35L185.76,174.94L187.91,174.76L188.63,175.69L189.35,175.69L190.06,176.61L190.78,174.57L191.5,176.24L192.93,174.57L193.65,176.24L195.8,175.87L196.52,171.98L197.95,171.24L198.67,171.05L206.56,170.31L207.28,169.2L208.71,168.64L209.43,168.64L210.15,168.64L210.86,166.97L213.73,165.68L214.45,165.68L217.32,164.01L218.04,164.01L221.62,163.45L222.34,162.9L223.77,161.6L224.49,161.6L227.36,160.12L228.08,160.12L229.51,160.12L230.23,159.19L230.95,159L231.66,157.71L233.81,156.04L234.53,155.3L236.68,150.11L237.4,150.11L238.83,147.7L239.55,147.7L240.27,147.51L240.99,143.62L242.42,141.77L243.14,141.77L244.57,140.65L245.29,140.65L246.72,140.65L247.44,134.91L251.03,134.91L251.74,127.31L252.46,127.31L253.18,121.38L255.33,120.08L256.05,116.56L259.63,116.19L260.35,114.89L261.79,114.52L262.5,100.43L263.94,97.84L264.65,90.79L265.37,90.42L266.09,88.57L268.96,75.96L269.68,74.85L270.39,74.48L271.11,72.81L271.83,71.33L272.54,67.25L274.7,63.55L275.41,63.55L277.56,59.28L278.28,54.83L279.72,48.9L280.43,48.72L282.59,47.79L283.3,39.45L284.02,39.45L284.74,34.07L286.17,34.07L286.89,30.74L287.61,29.63L288.32,26.47L291.91,25.92L292.63,19.06L296.21,15.35L296.93,13.5L301.95,13.5" style="vector-effect: non-scaling-stroke; fill: none; stroke: rgb(230, 25, 75); stroke-opacity: 1; stroke-width: 2px; opacity: 1;"/></g><g class="points"/><g class="text"/></g><g class="trace scatter trace77279b" style="stroke-miterlimit: 2; opacity: 1;"><g class="fills"/><g class="errorbars"/><g class="lines"><path class="js-line" d="M0,256.5L269.68,255.76L270.39,255.57L301.95,255.57" style="vector-effect: non-scaling-stroke; fill: none; stroke: rgb(60, 180, 75); stroke-opacity: 1; stroke-width: 2px; opacity: 1;"/></g><g class="points"/><g class="text"/></g><g class="trace scatter traceb72de2" style="stroke-miterlimit: 2; opacity: 1;"><g class="fills"/><g class="errorbars"/><g class="lines"><path class="js-line" d="M0,256.5L109.02,255.94L109.73,255.57L135.55,254.83L136.27,254.65L141.29,254.09L142.01,254.09L164.96,253.35L165.68,253.16L177.87,252.42L178.59,252.24L198.67,251.5L199.39,251.12L215.88,250.38L216.6,250.2L222.34,249.46L223.06,249.27L227.36,248.72L228.08,248.34L229.51,248.16L230.23,247.05L231.66,246.49L232.38,245.75L233.81,245.19L234.53,245.19L238.83,244.82L239.55,244.82L241.7,244.27L242.42,244.27L255.33,243.53L256.05,243.34L279.72,242.6L280.43,242.41L301.95,241.67" style="vector-effect: non-scaling-stroke; fill: none; stroke: rgb(255, 225, 25); stroke-opacity: 1; stroke-width: 2px; opacity: 1;"/></g><g class="points"/><g class="text"/></g><g class="trace scatter traceeba75d" style="stroke-miterlimit: 2; opacity: 1;"><g class="fills"/><g class="errorbars"/><g class="lines"><path class="js-line" d="M0,256.5L126.95,255.76L127.67,255.39L142.01,254.65L142.73,254.46L154.2,253.72L154.92,253.53L158.51,253.35L159.22,253.35L171.42,252.61L172.13,252.24L183.61,251.5L184.33,251.31L196.52,250.57L197.24,250.2L199.39,249.83L200.1,249.83L201.54,249.83L202.26,248.9L210.86,248.16L211.58,247.97L225.21,245.01L225.92,245.01L232.38,243.9L233.1,243.9L235.97,243.15L236.68,241.67L242.42,239.26L243.14,239.26L253.18,236.48L253.9,236.11L256.05,234.81L256.77,234.26L260.35,233.15L261.07,232.96L262.5,232.03L263.22,231.85L271.11,229.44L271.83,228.7L273.26,227.21L273.98,227.21L276.13,226.47L276.85,225.73L279,225.18L279.72,225.18L281.15,224.8L281.87,224.25L286.89,223.51L287.61,223.32L289.76,222.95L290.47,222.95L296.93,222.02L297.65,222.02L301.95,222.02" style="vector-effect: non-scaling-stroke; fill: none; stroke: rgb(67, 99, 216); stroke-opacity: 1; stroke-width: 2px; opacity: 1;"/></g><g class="points"/><g class="text"/></g><g class="trace scatter trace7641c9" style="stroke-miterlimit: 2; opacity: 1;"><g class="fills"/><g class="errorbars"/><g class="lines"><path class="js-line" d="M0,256.5L124.08,255.76L124.8,255.57L129.82,255.02L130.53,255.02L134.84,254.65L135.55,254.65L144.16,254.09L144.88,253.72L187.19,252.98L187.91,252.79L208.71,252.05L209.43,251.87L211.58,251.5L212.3,251.5L216.6,250.75L217.32,250.38L226.64,249.64L227.36,249.46L230.23,248.9L230.95,248.53L232.38,248.16L233.1,247.6L235.97,246.86L236.68,246.12L245.29,243.71L246.01,243.15L249.59,242.41L250.31,242.23L251.74,241.49L252.46,241.3L254.61,240.56L255.33,240L259.63,239.63L260.35,239.63L263.22,238.34L263.94,238.34L266.81,236.67L267.52,236.67L271.11,233.89L271.83,233.52L273.26,232.77L273.98,232.77L281.15,232.03L281.87,231.48L290.47,230.74L291.19,230.55L294.78,230.36L295.5,230.36L301.95,230.18" style="vector-effect: non-scaling-stroke; fill: none; stroke: rgb(245, 130, 49); stroke-opacity: 1; stroke-width: 2px; opacity: 1;"/></g><g class="points"/><g class="text"/></g><g class="trace scatter trace9f0bb2" style="stroke-miterlimit: 2; opacity: 1;"><g class="fills"/><g class="errorbars"/><g class="lines"><path class="js-line" d="M0,256.5L189.35,255.76L190.06,255.57L197.24,254.83L197.95,254.46L202.26,254.09L202.97,254.09L211.58,253.35L212.3,253.16L217.32,252.61L218.04,252.61L228.79,252.05L229.51,251.68L238.12,250.94L238.83,250.57L247.44,249.83L248.16,249.64L263.94,248.9L264.65,248.72L271.11,247.97L271.83,247.6L273.26,247.05L273.98,247.05L279,246.49L279.72,246.49L286.17,245.75L286.89,245.56L301.95,245.56" style="vector-effect: non-scaling-stroke; fill: none; stroke: rgb(145, 30, 180); stroke-opacity: 1; stroke-width: 2px; opacity: 1;"/></g><g class="points"/><g class="text"/></g></g></g><g class="overplot"/><path class="xlines-above crisp" d="M0,0" style="fill: none;"/><path class="ylines-above crisp" d="M0,0" style="fill: none;"/><g class="overlines-above"/><g class="xaxislayer-above"><g class="x2tick"><text text-anchor="middle" x="0" y="383" transform="translate(499.26,0)" style="font-family: 'Open Sans', verdana, arial, sans-serif; font-size: 12px; fill: rgb(242, 245, 250); fill-opacity: 1; white-space: pre;">Apr 2020</text></g><g class="x2tick"><text text-anchor="middle" x="0" y="383" transform="translate(564.52,0)" style="font-family: 'Open Sans', verdana, arial, sans-serif; font-size: 12px; fill: rgb(242, 245, 250); fill-opacity: 1; white-space: pre;">Jul 2020</text></g><g class="x2tick"><text text-anchor="middle" x="0" y="383" transform="translate(630.51,0)" style="font-family: 'Open Sans', verdana, arial, sans-serif; font-size: 12px; fill: rgb(242, 245, 250); fill-opacity: 1; white-space: pre;">Oct 2020</text></g><g class="x2tick"><text text-anchor="middle" x="0" y="383" transform="translate(696.49,0)" style="font-family: 'Open Sans', verdana, arial, sans-serif; font-size: 12px; fill: rgb(242, 245, 250); fill-opacity: 1; white-space: pre;">Jan 2021</text></g></g><g class="yaxislayer-above"><g class="y2tick"><text text-anchor="end" x="448.05" y="4.199999999999999" transform="translate(0,356.5)" style="font-family: 'Open Sans', verdana, arial, sans-serif; font-size: 12px; fill: rgb(242, 245, 250); fill-opacity: 1; white-space: pre;">0</text></g><g class="y2tick"><text text-anchor="end" x="448.05" y="4.199999999999999" transform="translate(0,319.43)" style="font-family: 'Open Sans', verdana, arial, sans-serif; font-size: 12px; fill: rgb(242, 245, 250); fill-opacity: 1; white-space: pre;">200</text></g><g class="y2tick"><text text-anchor="end" x="448.05" y="4.199999999999999" transform="translate(0,282.36)" style="font-family: 'Open Sans', verdana, arial, sans-serif; font-size: 12px; fill: rgb(242, 245, 250); fill-opacity: 1; white-space: pre;">400</text></g><g class="y2tick"><text text-anchor="end" x="448.05" y="4.199999999999999" transform="translate(0,245.29)" style="font-family: 'Open Sans', verdana, arial, sans-serif; font-size: 12px; fill: rgb(242, 245, 250); fill-opacity: 1; white-space: pre;">600</text></g><g class="y2tick"><text text-anchor="end" x="448.05" y="4.199999999999999" transform="translate(0,208.22)" style="font-family: 'Open Sans', verdana, arial, sans-serif; font-size: 12px; fill: rgb(242, 245, 250); fill-opacity: 1; white-space: pre;">800</text></g><g class="y2tick"><text text-anchor="end" x="448.05" y="4.199999999999999" transform="translate(0,171.15)" style="font-family: 'Open Sans', verdana, arial, sans-serif; font-size: 12px; fill: rgb(242, 245, 250); fill-opacity: 1; white-space: pre;">1000</text></g><g class="y2tick"><text text-anchor="end" x="448.05" y="4.199999999999999" transform="translate(0,134.07)" style="font-family: 'Open Sans', verdana, arial, sans-serif; font-size: 12px; fill: rgb(242, 245, 250); fill-opacity: 1; white-space: pre;">1200</text></g></g><g class="overaxes-above"/></g></g><g class="polarlayer"/><g class="ternarylayer"/><g class="geolayer"/><g class="funnelarealayer"/><g class="pielayer"/><g class="treemaplayer"/><g class="sunburstlayer"/><g class="glimages"/><defs id="topdefs-6111a3"><g class="clips"/><clipPath id="legend6111a3"><rect width="124" height="124" x="0" y="0"/></clipPath></defs><g class="layer-above"><g class="imagelayer"/><g class="shapelayer"/></g><g class="infolayer"><g class="legend" pointer-events="all" transform="translate(764.42, 100)"><rect class="bg" shape-rendering="crispEdges" width="124" height="124" x="0" y="0" style="stroke: rgb(68, 68, 68); stroke-opacity: 1; fill: rgb(17, 17, 17); fill-opacity: 1; stroke-width: 0px;"/><g class="scrollbox" transform="translate(0, 0)" clip-path="url('#legend6111a3')"><g class="groups"><g class="traces" transform="translate(0, 14.5)" style="opacity: 1;"><text class="legendtext user-select-none" text-anchor="start" x="40" y="4.680000000000001" style="font-family: 'Open Sans', verdana, arial, sans-serif; font-size: 12px; fill: rgb(242, 245, 250); fill-opacity: 1; white-space: pre;">Alameda, CA</text><g class="layers" style="opacity: 1;"><g class="legendfill"/><g class="legendlines"><path class="js-line" d="M5,0h30" style="fill: none; stroke: rgb(230, 25, 75); stroke-opacity: 1; stroke-width: 2px;"/></g><g class="legendsymbols"><g class="legendpoints"/></g></g><rect class="legendtoggle" pointer-events="all" x="0" y="-9.5" width="118.703125" height="19" style="cursor: pointer; fill: rgb(0, 0, 0); fill-opacity: 0;"/></g><g class="traces" transform="translate(0, 33.5)" style="opacity: 1;"><text class="legendtext user-select-none" text-anchor="start" x="40" y="4.680000000000001" style="font-family: 'Open Sans', verdana, arial, sans-serif; font-size: 12px; fill: rgb(242, 245, 250); fill-opacity: 1; white-space: pre;">Weston, WY</text><g class="layers" style="opacity: 1;"><g class="legendfill"/><g class="legendlines"><path class="js-line" d="M5,0h30" style="fill: none; stroke: rgb(60, 180, 75); stroke-opacity: 1; stroke-width: 2px;"/></g><g class="legendsymbols"><g class="legendpoints"/></g></g><rect class="legendtoggle" pointer-events="all" x="0" y="-9.5" width="118.703125" height="19" style="cursor: pointer; fill: rgb(0, 0, 0); fill-opacity: 0;"/></g><g class="traces" transform="translate(0, 52.5)" style="opacity: 1;"><text class="legendtext user-select-none" text-anchor="start" x="40" y="4.680000000000001" style="font-family: 'Open Sans', verdana, arial, sans-serif; font-size: 12px; fill: rgb(242, 245, 250); fill-opacity: 1; white-space: pre;">Covington, MS</text><g class="layers" style="opacity: 1;"><g class="legendfill"/><g class="legendlines"><path class="js-line" d="M5,0h30" style="fill: none; stroke: rgb(255, 225, 25); stroke-opacity: 1; stroke-width: 2px;"/></g><g class="legendsymbols"><g class="legendpoints"/></g></g><rect class="legendtoggle" pointer-events="all" x="0" y="-9.5" width="118.703125" height="19" style="cursor: pointer; fill: rgb(0, 0, 0); fill-opacity: 0;"/></g><g class="traces" transform="translate(0, 71.5)" style="opacity: 1;"><text class="legendtext user-select-none" text-anchor="start" x="40" y="4.680000000000001" style="font-family: 'Open Sans', verdana, arial, sans-serif; font-size: 12px; fill: rgb(242, 245, 250); fill-opacity: 1; white-space: pre;">Blount, TN</text><g class="layers" style="opacity: 1;"><g class="legendfill"/><g class="legendlines"><path class="js-line" d="M5,0h30" style="fill: none; stroke: rgb(67, 99, 216); stroke-opacity: 1; stroke-width: 2px;"/></g><g class="legendsymbols"><g class="legendpoints"/></g></g><rect class="legendtoggle" pointer-events="all" x="0" y="-9.5" width="118.703125" height="19" style="cursor: pointer; fill: rgb(0, 0, 0); fill-opacity: 0;"/></g><g class="traces" transform="translate(0, 90.5)" style="opacity: 1;"><text class="legendtext user-select-none" text-anchor="start" x="40" y="4.680000000000001" style="font-family: 'Open Sans', verdana, arial, sans-serif; font-size: 12px; fill: rgb(242, 245, 250); fill-opacity: 1; white-space: pre;">Bradley, TN</text><g class="layers" style="opacity: 1;"><g class="legendfill"/><g class="legendlines"><path class="js-line" d="M5,0h30" style="fill: none; stroke: rgb(245, 130, 49); stroke-opacity: 1; stroke-width: 2px;"/></g><g class="legendsymbols"><g class="legendpoints"/></g></g><rect class="legendtoggle" pointer-events="all" x="0" y="-9.5" width="118.703125" height="19" style="cursor: pointer; fill: rgb(0, 0, 0); fill-opacity: 0;"/></g><g class="traces" transform="translate(0, 109.5)" style="opacity: 1;"><text class="legendtext user-select-none" text-anchor="start" x="40" y="4.680000000000001" style="font-family: 'Open Sans', verdana, arial, sans-serif; font-size: 12px; fill: rgb(242, 245, 250); fill-opacity: 1; white-space: pre;">Campbell, TN</text><g class="layers" style="opacity: 1;"><g class="legendfill"/><g class="legendlines"><path class="js-line" d="M5,0h30" style="fill: none; stroke: rgb(145, 30, 180); stroke-opacity: 1; stroke-width: 2px;"/></g><g class="legendsymbols"><g class="legendpoints"/></g></g><rect class="legendtoggle" pointer-events="all" x="0" y="-9.5" width="118.703125" height="19" style="cursor: pointer; fill: rgb(0, 0, 0); fill-opacity: 0;"/></g></g></g><rect class="scrollbar" rx="20" ry="3" width="0" height="0" x="0" y="0" style="fill: rgb(128, 139, 164); fill-opacity: 1;"/></g><g class="g-gtitle"/><g class="g-xtitle"><text class="xtitle" x="230.975" y="410.8" text-anchor="middle" style="font-family: 'Open Sans', verdana, arial, sans-serif; font-size: 14px; fill: rgb(242, 245, 250); opacity: 1; font-weight: normal; white-space: pre;">Date</text></g><g class="g-x2title"><text class="x2title" x="600.025" y="410.8" text-anchor="middle" style="font-family: 'Open Sans', verdana, arial, sans-serif; font-size: 14px; fill: rgb(242, 245, 250); opacity: 1; font-weight: normal; white-space: pre;">Date</text></g><g class="g-ytitle"><text class="ytitle" transform="rotate(-90,34.840625,235)" x="34.840625" y="235" text-anchor="middle" style="font-family: 'Open Sans', verdana, arial, sans-serif; font-size: 14px; fill: rgb(242, 245, 250); opacity: 1; font-weight: normal; white-space: pre;">Cases</text></g><g class="g-y2title"><text class="y2title" transform="rotate(-90,396.54375,235)" x="396.54375" y="235" text-anchor="middle" style="font-family: 'Open Sans', verdana, arial, sans-serif; font-size: 14px; fill: rgb(242, 245, 250); opacity: 1; font-weight: normal; white-space: pre;">Deaths</text></g><g class="annotation" data-index="0" style="opacity: 1;"><g class="annotation-text-g" transform="rotate(0,230.975,89.5)"><g class="cursor-pointer" transform="translate(206, 79)"><rect class="bg" x="0.5" y="0.5" width="48" height="20" style="stroke-width: 1px; stroke: rgb(0, 0, 0); stroke-opacity: 0; fill: rgb(0, 0, 0); fill-opacity: 0;"/><text class="annotation-text" text-anchor="middle" x="24.6875" y="16" style="font-family: 'Open Sans', verdana, arial, sans-serif; font-size: 16px; fill: rgb(242, 245, 250); fill-opacity: 1; white-space: pre;">Cases</text></g></g></g><g class="annotation" data-index="1" style="opacity: 1;"><g class="annotation-text-g" transform="rotate(0,600.025,89.5)"><g class="cursor-pointer" transform="translate(573, 79)"><rect class="bg" x="0.5" y="0.5" width="54" height="20" style="stroke-width: 1px; stroke: rgb(0, 0, 0); stroke-opacity: 0; fill: rgb(0, 0, 0); fill-opacity: 0;"/><text class="annotation-text" text-anchor="middle" x="27.359375" y="16" style="font-family: 'Open Sans', verdana, arial, sans-serif; font-size: 16px; fill: rgb(242, 245, 250); fill-opacity: 1; white-space: pre;">Deaths</text></g></g></g></g></svg>