<svg class="main-svg" xmlns="http://www.w3.org/2000/svg" xmlns:xlink="http://www.w3.org/1999/xlink" width="900" height="450" style="" viewBox="0 0 900 450"><rect x="0" y="0" width="900" height="450" style="fill: rgb(17, 17, 17); fill-opacity: 1;"/><defs id="defs-beb1b7"><g class="clips"><clipPath id="clipbeb1b7xyplot" class="plotclip"><rect width="292.05" height="270"/></clipPath><clipPath id="clipbeb1b7x2y2plot" class="plotclip"><rect width="292.04999999999995" height="270"/></clipPath><clipPath class="axesclip" id="clipbeb1b7x"><rect x="80" y="0" width="292.05" height="450"/></clipPath><clipPath class="axesclip" id="clipbeb1b7y"><rect x="0" y="100" width="900" height="270"/></clipPath><clipPath class="axesclip" id="clipbeb1b7xy"><rect x="80" y="100" width="292.05" height="270"/></clipPath><clipPath class="axesclip" id="clipbeb1b7y2"><rect x="0" y="100" width="900" height="270"/></clipPath><clipPath class="axesclip" id="clipbeb1b7xy2"><rect x="80" y="100" width="292.05" height="270"/></clipPath><clipPath class="axesclip" id="clipbeb1b7x2"><rect x="436.95000000000005" y="0" width="292.04999999999995" height="450"/></clipPath><clipPath class="axesclip" id="clipbeb1b7x2y"><rect x="436.95000000000005" y="100" width="292.04999999999995" height="270"/></clipPath><clipPath class="axesclip" id="clipbeb1b7x2y2"><rect x="436.95000000000005" y="100" width="292.04999999999995" height="270"/></clipPath></g><g class="gradients"/></defs><g class="bglayer"/><g class="layer-below"><g class="imagelayer"/><g class="shapelayer"/></g><g class="cartesianlayer"><g class="subplot xy"><g class="layer-subplot"><g class="shapelayer"/><g class="imagelayer"/></g><g class="gridlayer"><g class="x"><path class="xgrid crisp" transform="translate(182.66,0)" d="M0,100v270" style="stroke: rgb(40, 52, 66); stroke-opacity: 1; stroke-width: 1px;"/><path class="xgrid crisp" transform="translate(299.99,0)" d="M0,100v270" style="stroke: rgb(40, 52, 66); stroke-opacity: 1; stroke-width: 1px;"/></g><g class="y"><path class="ygrid crisp" transform="translate(0,299.95)" d="M80,0h292.05" style="stroke: rgb(40, 52, 66); stroke-opacity: 1; stroke-width: 1px;"/><path class="ygrid crisp" transform="translate(0,243.39)" d="M80,0h292.05" style="stroke: rgb(40, 52, 66); stroke-opacity: 1; stroke-width: 1px;"/><path class="ygrid crisp" transform="translate(0,186.84)" d="M80,0h292.05" style="stroke: rgb(40, 52, 66); stroke-opacity: 1; stroke-width: 1px;"/><path class="ygrid crisp" transform="translate(0,130.28)" d="M80,0h292.05" style="stroke: rgb(40, 52, 66); stroke-opacity: 1; stroke-width: 1px;"/></g></g><g class="zerolinelayer"><path class="yzl zl crisp" transform="translate(0,356.5)" d="M80,0h292.05" style="stroke: rgb(40, 52, 66); stroke-opacity: 1; stroke-width: 2px;"/></g><path class="xlines-below"/><path class="ylines-below"/><g class="overlines-below"/><g class="xaxislayer-below"/><g class="yaxislayer-below"/><g class="overaxes-below"/><g class="plot" transform="translate(80, 100)" clip-path="url('#clipbeb1b7xyplot')"><g class="scatterlayer mlayer"><g class="trace scatter tracec8b15a" style="stroke-miterlimit: 2; opacity: 1;"><g class="fills"/><g class="errorbars"/><g class="lines"><path class="js-line" d="M0,256.5L42.09,255.78L42.72,255.74L49.1,254.59L49.74,254.48L65.68,251.48L66.32,251.38L82.9,246.91L83.53,246.69L91.19,244.43L91.82,244.28L96.92,242.34L97.56,241.97L108.4,235.33L109.04,234.66L110.32,233.95L110.95,232.97L116.69,228.59L117.33,227.62L120.52,226.04L121.16,225.02L121.79,225.02L122.43,224.03L123.07,223.91L123.71,223L126.9,222.18L127.53,219.18L128.17,219.12L128.81,217.86L130.72,215.33L131.36,215.33L132.63,213.72L133.27,212.85L135.82,209.3L136.46,209.21L137.1,209.18L137.74,207.65L141.56,205.07L142.2,204.34L144.75,202.4L145.39,202.4L147.94,200.77L148.58,200.46L152.4,199.49L153.04,198.92L157.5,197.04L158.14,197.04L160.69,196.03L161.33,195.82L171.53,192.99L172.17,192.49L186.84,185.5L187.47,185.1L190.66,182.85L191.3,181.68L197.04,176.69L197.68,174.9L200.86,170.74L201.5,168.9L202.78,166.75L203.41,164.47L204.05,164.25L204.69,161.1L207.88,154.18L208.52,148.43L210.43,142.65L211.07,142.59L212.98,132.07L213.62,129.94L217.44,115.78L218.08,113.97L219.99,108.12L220.63,105.17L223.18,96.93L223.82,95.09L229.56,71.52L230.2,68.22L232.11,62.99L232.75,62L239.12,48.32L239.76,47.31L245.5,38.71L246.14,37.79L253.15,31.28L253.79,30.86L256.98,28.68L257.62,26.8L263.99,23.94L264.63,23.71L274.83,21.12L275.47,21.12L277.38,20.46L278.02,20.18L279.93,19.11L280.57,18.95L292.05,13.5" style="vector-effect: non-scaling-stroke; fill: none; stroke: rgb(230, 25, 75); stroke-opacity: 1; stroke-width: 2px; opacity: 1;"/></g><g class="points"/><g class="text"/></g><g class="trace scatter trace1a5167" style="stroke-miterlimit: 2; opacity: 1;"><g class="fills"/><g class="errorbars"/><g class="lines"><path class="js-line" d="M0,256.5L45.27,255.76L45.91,255.67L57.39,253.68L58.03,253.58L66.95,250.98L67.59,250.71L75.88,248.76L76.52,248.7L95.01,245.61L95.65,245.55L115.42,241.84L116.05,241.66L136.46,236.24L137.1,236.17L147.3,234.2L147.94,234.1L154.95,232.44L155.59,232.16L162.6,229.35L163.24,228.72L166.43,227.07L167.07,226.56L172.81,222.51L173.44,222L179.18,215.75L179.82,214.56L180.46,214.56L181.1,212.56L186.2,203.65L186.84,202.27L198.31,175.11L198.95,174.13L204.05,163.87L204.69,162.41L206.6,158.99L207.24,157.69L209.79,154.62L210.43,153.58L212.98,150.46L213.62,149.89L221.27,141.31L221.91,140.43L227.65,134.29L228.28,133.74L239.12,127.17L239.76,126.97L242.31,125.66L242.95,125.3L256.98,119.6L257.62,119.19L268.46,114.78L269.09,114.3L271.01,113.77L271.64,113.43L281.85,108.27L282.49,107.71L290.77,101.81L291.41,101.29L292.05,100.57" style="vector-effect: non-scaling-stroke; fill: none; stroke: rgb(60, 180, 75); stroke-opacity: 1; stroke-width: 2px; opacity: 1;"/></g><g class="points"/><g class="text"/></g><g class="trace scatter trace8a752d" style="stroke-miterlimit: 2; opacity: 1;"><g class="fills"/><g class="errorbars"/><g class="lines"><path class="js-line" d="M0,256.5L59.3,255.76L59.94,255.74L121.79,254.05L122.43,254.01L137.1,253.11L137.74,253.02L179.18,250.54L179.82,250.47L186.84,248.16L187.47,247.84L206.6,237.98L207.24,237.71L209.15,237.08L209.79,236.92L219.36,235.02L219.99,235.02L221.91,234.13L222.54,233.9L225.73,233.17L226.37,232.96L237.21,230.78L237.85,230.67L253.79,229.17L254.43,229.1L262.72,227.87L263.36,227.71L276.11,224.15L276.75,223.74L282.49,220.84L283.12,220.37L284.4,219.86L285.04,219.15L291.41,216.65L292.05,216.42" style="vector-effect: non-scaling-stroke; fill: none; stroke: rgb(255, 225, 25); stroke-opacity: 1; stroke-width: 2px; opacity: 1;"/></g><g class="points"/><g class="text"/></g><g class="trace scatter traceef9efb" style="stroke-miterlimit: 2; opacity: 1;"><g class="fills"/><g class="errorbars"/><g class="lines"><path class="js-line" d="M0,256.5L51.01,255.78L51.65,255.73L81.62,253.62L82.26,253.59L124.98,251.1L125.62,251.03L174.08,246.61L174.72,246.41L181.1,244.54L181.73,244.05L185.56,242.79L186.2,241.68L189.39,238.91L190.02,238.91L191.94,237.15L192.57,236.74L196.4,234.1L197.04,234.1L198.31,232.87L198.95,232.87L202.78,229.33L203.41,229.33L205.97,227.08L206.6,226.56L211.7,224.02L212.34,224.02L214.89,223.05L215.53,223.05L217.44,222.16L218.08,222.08L220.63,221.17L221.27,221.17L228.92,218.36L229.56,218.36L232.75,217.64L233.38,217.42L244.86,215.66L245.5,215.66L252.51,215.1L253.15,215L271.01,212.31L271.64,212.16L274.83,211.47L275.47,211.22L280.57,209.11L281.21,208.63L292.05,202.24" style="vector-effect: non-scaling-stroke; fill: none; stroke: rgb(67, 99, 216); stroke-opacity: 1; stroke-width: 2px; opacity: 1;"/></g><g class="points"/><g class="text"/></g><g class="trace scatter trace7e0ee9" style="stroke-miterlimit: 2; opacity: 1;"><g class="fills"/><g class="errorbars"/><g class="lines"><path class="js-line" d="M0,256.5L40.81,255.87L41.45,255.71L58.67,252.82L59.3,252.71L66.95,251.54L67.59,251.39L79.07,249.75L79.71,249.72L89.27,248.56L89.91,248.47L105.21,245.82L105.85,245.21L108.4,244.3L109.04,243.98L120.52,238.98L121.16,238.34L125.62,236.06L126.26,235.78L138.37,230.88L139.01,230.63L161.33,224.46L161.97,224.38L168.34,223.51L168.98,223.44L179.18,221.89L179.82,221.66L191.94,217.11L192.57,216.2L194.49,215.67L195.13,215.38L197.68,213.84L198.31,213.12L200.23,212.28L200.86,211.25L202.78,209.9L203.41,208.24L204.69,207.87L205.33,206.81L205.97,206.81L206.6,205.95L213.62,196.87L214.26,196.46L223.82,184.61L224.46,183.3L227.01,179.41L227.65,178.65L232.11,173.08L232.75,172.62L234.66,170.8L235.3,170.09L240.4,166.85L241.04,166.61L244.86,164.09L245.5,163.8L248.69,162.13L249.33,161.9L254.43,160.37L255.07,160.19L261.44,158.3L262.08,158.21L290.14,154.37L290.77,154.15L292.05,153.99" style="vector-effect: non-scaling-stroke; fill: none; stroke: rgb(245, 130, 49); stroke-opacity: 1; stroke-width: 2px; opacity: 1;"/></g><g class="points"/><g class="text"/></g><g class="trace scatter trace7e8645" style="stroke-miterlimit: 2; opacity: 1;"><g class="fills"/><g class="errorbars"/><g class="lines"><path class="js-line" d="M0,256.5L59.3,255.77L59.94,255.74L87.36,254.25L88,254.1L102.66,251.55L103.3,251.24L117.33,246.04L117.97,245.81L135.82,241.61L136.46,241.55L204.69,235.92L205.33,235.79L222.54,229.88L223.18,229.52L230.2,226.39L230.83,226.17L249.33,221.5L249.96,221.41L256.34,220.31L256.98,220.24L292.05,216.52" style="vector-effect: non-scaling-stroke; fill: none; stroke: rgb(145, 30, 180); stroke-opacity: 1; stroke-width: 2px; opacity: 1;"/></g><g class="points"/><g class="text"/></g></g></g><g class="overplot"/><path class="xlines-above crisp" d="M0,0" style="fill: none;"/><path class="ylines-above crisp" d="M0,0" style="fill: none;"/><g class="overlines-above"/><g class="xaxislayer-above"><g class="xtick"><text text-anchor="middle" x="0" y="383" transform="translate(182.66,0)" style="font-family: 'Open Sans', verdana, arial, sans-serif; font-size: 12px; fill: rgb(242, 245, 250); fill-opacity: 1; white-space: pre;">Jul 2020</text></g><g class="xtick"><text text-anchor="middle" x="0" y="383" transform="translate(299.99,0)" style="font-family: 'Open Sans', verdana, arial, sans-serif; font-size: 12px; fill: rgb(242, 245, 250); fill-opacity: 1; white-space: pre;">Jan 2021</text></g></g><g class="yaxislayer-above"><g class="ytick"><text text-anchor="end" x="79" y="4.199999999999999" transform="translate(0,356.5)" style="font-family: 'Open Sans', verdana, arial, sans-serif; font-size: 12px; fill: rgb(242, 245, 250); fill-opacity: 1; white-space: pre;">0</text></g><g class="ytick"><text text-anchor="end" x="79" y="4.199999999999999" transform="translate(0,299.95)" style="font-family: 'Open Sans', verdana, arial, sans-serif; font-size: 12px; fill: rgb(242, 245, 250); fill-opacity: 1; white-space: pre;">20k</text></g><g class="ytick"><text text-anchor="end" x="79" y="4.199999999999999" transform="translate(0,243.39)" style="font-family: 'Open Sans', verdana, arial, sans-serif; font-size: 12px; fill: rgb(242, 245, 250); fill-opacity: 1; white-space: pre;">40k</text></g><g class="ytick"><text text-anchor="end" x="79" y="4.199999999999999" transform="translate(0,186.84)" style="font-family: 'Open Sans', verdana, arial, sans-serif; font-size: 12px; fill: rgb(242, 245, 250); fill-opacity: 1; white-space: pre;">60k</text></g><g class="ytick"><text text-anchor="end" x="79" y="4.199999999999999" transform="translate(0,130.28)" style="font-family: 'Open Sans', verdana, arial, sans-serif; font-size: 12px; fill: rgb(242, 245, 250); fill-opacity: 1; white-space: pre;">80k</text></g></g><g class="overaxes-above"/></g><g class="subplot x2y2"><g class="layer-subplot"><g class="shapelayer"/><g class="imagelayer"/></g><g class="gridlayer"><g class="x2"><path class="x2grid crisp" transform="translate(539.61,0)" d="M0,100v270" style="stroke: rgb(40, 52, 66); stroke-opacity: 1; stroke-width: 1px;"/><path class="x2grid crisp" transform="translate(656.94,0)" d="M0,100v270" style="stroke: rgb(40, 52, 66); stroke-opacity: 1; stroke-width: 1px;"/></g><g class="y2"><path class="y2grid crisp" transform="translate(0,317.81)" d="M436.95000000000005,0h292.04999999999995" style="stroke: rgb(40, 52, 66); stroke-opacity: 1; stroke-width: 1px;"/><path class="y2grid crisp" transform="translate(0,279.11)" d="M436.95000000000005,0h292.04999999999995" style="stroke: rgb(40, 52, 66); stroke-opacity: 1; stroke-width: 1px;"/><path class="y2grid crisp" transform="translate(0,240.42)" d="M436.95000000000005,0h292.04999999999995" style="stroke: rgb(40, 52, 66); stroke-opacity: 1; stroke-width: 1px;"/><path class="y2grid crisp" transform="translate(0,201.72)" d="M436.95000000000005,0h292.04999999999995" style="stroke: rgb(40, 52, 66); stroke-opacity: 1; stroke-width: 1px;"/><path class="y2grid crisp" transform="translate(0,163.03)" d="M436.95000000000005,0h292.04999999999995" style="stroke: rgb(40, 52, 66); stroke-opacity: 1; stroke-width: 1px;"/><path class="y2grid crisp" transform="translate(0,124.33)" d="M436.95000000000005,0h292.04999999999995" style="stroke: rgb(40, 52, 66); stroke-opacity: 1; stroke-width: 1px;"/></g></g><g class="zerolinelayer"><path class="y2zl zl crisp" transform="translate(0,356.5)" d="M436.95000000000005,0h292.04999999999995" style="stroke: rgb(40, 52, 66); stroke-opacity: 1; stroke-width: 2px;"/></g><path class="xlines-below"/><path class="ylines-below"/><g class="overlines-below"/><g class="xaxislayer-below"/><g class="yaxislayer-below"/><g class="overaxes-below"/><g class="plot" transform="translate(436.95000000000005, 100)" clip-path="url('#clipbeb1b7x2y2plot')"><g class="scatterlayer mlayer"><g class="trace scatter traceb41cf6" style="stroke-miterlimit: 2; opacity: 1;"><g class="fills"/><g class="errorbars"/><g class="lines"><path class="js-line" d="M0,256.5L40.17,256.11L40.81,255.73L44,255.15L44.64,254.95L51.01,252.44L51.65,252.05L52.93,252.05L53.56,249.54L55.48,248.57L56.11,248.37L58.03,247.79L58.67,247.6L64.4,244.31L65.04,244.31L66.95,243.73L67.59,243.54L69.51,242.76L70.14,242.76L73.33,240.44L73.97,240.44L75.24,239.86L75.88,239.47L78.43,238.51L79.07,238.51L83.53,237.93L84.17,237.73L85.45,237.73L86.08,236.96L88.64,236.77L89.27,236.19L91.82,234.83L92.46,234.83L93.1,234.83L93.74,234.06L98.2,232.9L98.84,231.74L103.94,229.41L104.58,229.41L107.13,229.03L107.77,228.25L112.23,226.71L112.87,225.35L115.42,224.19L116.05,223.42L118.61,222.06L119.24,222.06L121.16,221.29L121.79,221.29L123.07,219.93L123.71,219.93L125.62,219.16L126.26,219.16L126.9,219.16L127.53,216.84L128.81,216.84L129.45,215.48L131.36,214.13L132,213.74L133.27,213.16L133.91,212.39L135.82,211.42L136.46,211.23L137.1,211.23L137.74,210.07L140.29,208.71L140.92,206.58L142.2,206.78L142.84,203.49L144.11,199.23L144.75,198.65L146.66,198.46L147.3,197.88L147.94,197.88L148.58,194.59L149.21,194.59L149.85,192.27L150.49,192.07L151.13,187.62L151.76,187.62L152.4,185.88L154.31,184.14L154.95,184.14L156.23,180.08L156.87,179.69L158.14,178.34L158.78,177.95L160.05,177.56L160.69,176.79L162.6,174.08L163.24,174.27L164.52,173.89L165.15,171.37L167.07,171.18L167.71,172.15L168.34,172.15L168.98,173.11L169.62,170.99L170.26,172.73L171.53,170.99L172.17,172.73L174.08,172.34L174.72,168.28L175.36,168.28L176,167.5L180.46,166.92L181.1,166.92L183.65,166.54L184.28,165.38L185.56,164.79L186.2,164.79L186.84,164.79L187.47,163.05L190.02,161.7L190.66,161.7L193.21,159.96L193.85,159.96L197.04,159.38L197.68,158.8L198.95,157.44L199.59,157.44L202.14,155.89L202.78,155.89L204.05,155.89L204.69,154.93L205.33,154.73L205.97,153.38L207.88,151.64L208.52,150.86L210.43,145.45L211.07,145.45L212.34,142.93L212.98,142.93L213.62,142.74L214.26,138.68L215.53,136.74L216.17,136.74L217.44,135.58L218.08,135.58L219.36,135.58L219.99,129.58L223.18,129.58L223.82,121.65L224.46,121.65L225.1,115.46L227.01,114.11L227.65,110.43L230.83,110.04L231.47,108.69L232.75,108.3L233.38,93.6L234.66,90.89L235.3,83.54L235.94,83.15L236.57,81.21L239.12,68.06L239.76,66.9L240.4,66.51L241.04,64.77L241.67,63.22L242.31,58.97L244.23,55.1L244.86,55.1L246.78,50.65L247.41,46L248.69,39.81L249.33,39.62L251.24,38.65L251.88,29.95L252.51,29.95L253.15,24.33L254.43,24.33L255.07,20.85L255.7,19.69L256.34,16.4L256.98,16.4L257.62,42.71L260.17,35.75L260.8,35.36L261.44,34.98L262.08,35.56L263.99,31.3L264.63,31.3L265.91,30.53L266.54,30.72L268.46,26.46L269.09,26.85L269.73,28.59L270.37,26.85L271.64,26.27L272.28,24.53L274.2,22.21L274.83,22.01L277.38,21.43L278.02,21.24L280.57,20.66L281.21,19.69L281.85,19.69L282.49,18.14L283.76,17.18L284.4,16.98L285.67,16.79L286.31,15.24L288.86,15.24L289.5,15.24L291.41,14.08L292.05,13.5" style="vector-effect: non-scaling-stroke; fill: none; stroke: rgb(230, 25, 75); stroke-opacity: 1; stroke-width: 2px; opacity: 1;"/></g><g class="points"/><g class="text"/></g><g class="trace scatter tracea483c5" style="stroke-miterlimit: 2; opacity: 1;"><g class="fills"/><g class="errorbars"/><g class="lines"><path class="js-line" d="M0,256.5L44,256.11L44.64,255.34L49.74,253.4L50.38,252.05L52.93,251.28L53.56,251.08L56.11,249.73L56.75,249.34L58.03,247.6L58.67,246.83L59.94,245.47L60.58,245.28L65.04,243.34L65.68,243.34L68.23,241.02L68.87,240.83L70.78,240.25L71.42,239.86L73.97,236.77L74.61,236.77L78.43,234.83L79.07,234.83L80.98,233.67L81.62,233.28L83.53,232.7L84.17,232.32L89.91,228.83L90.55,228.83L99.48,226.71L100.11,226.71L108.4,226.13L109.04,225.93L114.14,225.35L114.78,224.96L116.05,224.77L116.69,224.19L121.16,224L121.79,223.42L124.34,223.03L124.98,222.64L130.08,222.06L130.72,221.48L133.27,220.71L133.91,220.51L135.18,219.93L135.82,218.97L142.2,218.39L142.84,218.19L146.02,216.06L146.66,216.06L150.49,215.68L151.13,215.29L152.4,214.71L153.04,214.32L155.59,213.55L156.23,213.55L158.14,212.97L158.78,212.97L165.79,211.03L166.43,210.07L168.34,209.68L168.98,209.49L174.08,208.33L174.72,208.33L176.63,207.16L177.27,206.97L184.28,204.26L184.92,203.88L186.84,203.88L187.47,202.91L190.02,201.55L190.66,200.97L191.94,199.62L192.57,198.07L193.21,197.68L193.85,196.14L196.4,194.4L197.04,192.85L200.23,190.72L200.86,189.56L202.14,185.3L202.78,184.72L204.69,184.34L205.33,179.89L206.6,176.79L207.24,176.4L208.52,173.5L209.15,172.73L212.34,166.15L212.98,165.96L216.81,159.57L217.44,159.38L218.08,158.99L218.72,157.25L220.63,155.31L221.27,155.31L222.54,154.93L223.18,153.77L228.28,149.7L228.92,149.51L230.83,148.35L231.47,148.35L233.38,147.77L234.02,147L237.85,144.29L238.49,144.09L239.76,142.55L240.4,142.55L244.86,141.19L245.5,140.22L250.6,139.64L251.24,139.45L253.79,138.68L254.43,138.68L255.7,138.1L256.34,137.9L262.08,137.52L262.72,137.13L269.73,134.42L270.37,133.84L276.11,133.65L276.75,133.07L283.76,131.52L284.4,131.52L285.67,130.94L286.31,130.94L287.59,130.74L288.22,130.16L292.05,128.42" style="vector-effect: non-scaling-stroke; fill: none; stroke: rgb(60, 180, 75); stroke-opacity: 1; stroke-width: 2px; opacity: 1;"/></g><g class="points"/><g class="text"/></g><g class="trace scatter tracedc408f" style="stroke-miterlimit: 2; opacity: 1;"><g class="fills"/><g class="errorbars"/><g class="lines"><path class="js-line" d="M0,256.5L49.74,256.31L50.38,255.73L56.11,254.57L56.75,254.57L66.32,253.98L66.95,253.6L76.52,253.02L77.16,252.82L110.32,252.44L110.95,252.05L125.62,252.05L126.26,251.66L128.81,251.86L129.45,251.66L139.01,251.47L139.65,251.28L172.17,250.7L172.81,250.5L177.27,249.92L177.91,249.54L181.1,248.37L181.73,248.37L183.65,247.99L184.28,247.99L187.47,247.41L188.11,247.21L189.39,246.63L190.02,246.63L192.57,245.67L193.21,245.67L194.49,244.89L195.13,244.7L196.4,243.34L197.04,243.34L200.23,239.86L200.86,239.67L204.69,236.38L205.33,235.22L207.24,234.06L207.88,234.06L211.07,232.7L211.7,231.35L212.98,230.96L213.62,230.57L216.17,229.61L216.81,229.61L217.44,229.61L218.08,228.06L227.01,223.22L227.65,223.22L229.56,223.22L230.2,223.42L233.38,223.03L234.02,222.45L235.94,221.87L236.57,221.68L241.67,220.71L242.31,220.71L244.23,220.32L244.86,220.32L245.5,220.32L246.14,219.35L248.69,218.77L249.33,218.39L254.43,217.81L255.07,217.42L264.63,216.84L265.27,216.45L272.92,215.87L273.56,215.68L276.11,215.48L276.75,215.48L281.21,214.9L281.85,214.71L283.76,214.13L284.4,213.94L287.59,212.78L288.22,212.78L290.77,211.81L291.41,211.81L292.05,211.03" style="vector-effect: non-scaling-stroke; fill: none; stroke: rgb(255, 225, 25); stroke-opacity: 1; stroke-width: 2px; opacity: 1;"/></g><g class="points"/><g class="text"/></g><g class="trace scatter traced3ef0b" style="stroke-miterlimit: 2; opacity: 1;"><g class="fills"/><g class="errorbars"/><g class="lines"><path class="js-line" d="M0,256.5L48.46,255.92L49.1,255.34L52.29,254.76L52.93,253.21L57.39,250.31L58.03,249.73L68.87,240.44L69.51,240.44L75.24,237.35L75.88,237.15L77.79,236.19L78.43,235.99L85.45,235.41L86.08,234.64L89.27,234.25L89.91,233.86L96.92,233.28L97.56,232.9L100.11,232.7L100.75,232.7L120.52,232.12L121.16,231.54L140.29,231.16L140.92,230.77L149.85,230.57L150.49,230.19L153.68,229.8L154.31,229.8L155.59,229.61L156.23,229.61L163.88,229.22L164.52,228.83L168.34,228.64L168.98,228.06L172.81,227.67L173.44,227.67L175.36,227.09L176,227.09L178.55,226.51L179.18,226.13L185.56,225.74L186.2,224.77L188.11,223.61L188.75,222.45L191.3,221.29L191.94,220.32L193.85,217.03L194.49,217.03L195.13,216.26L195.76,213.74L198.31,212.97L198.95,212.97L199.59,212.39L200.23,209.1L202.14,204.84L202.78,203.88L203.41,203.88L204.05,202.13L204.69,201.55L205.33,199.23L211.07,190.91L211.7,189.37L212.34,189.37L212.98,187.62L214.26,185.88L214.89,185.88L215.53,185.88L216.17,184.92L217.44,184.72L218.08,183.75L219.36,182.4L219.99,182.4L221.27,180.47L221.91,179.3L223.82,174.66L224.46,173.5L226.37,172.34L227.01,172.34L228.92,169.44L229.56,168.86L232.11,168.47L232.75,167.89L234.66,166.34L235.3,166.34L239.12,165.96L239.76,165.96L242.95,163.83L243.59,163.83L245.5,163.83L246.14,163.05L248.69,162.47L249.33,161.89L253.15,159.96L253.79,158.6L258.89,157.25L259.53,156.67L266.54,154.73L267.18,154.73L268.46,154.35L269.09,153.96L273.56,153.38L274.2,153.38L279.93,152.99L280.57,152.61L286.31,151.25L286.95,151.25L291.41,149.32L292.05,149.12" style="vector-effect: non-scaling-stroke; fill: none; stroke: rgb(67, 99, 216); stroke-opacity: 1; stroke-width: 2px; opacity: 1;"/></g><g class="points"/><g class="text"/></g><g class="trace scatter tracead00eb" style="stroke-miterlimit: 2; opacity: 1;"><g class="fills"/><g class="errorbars"/><g class="lines"><path class="js-line" d="M0,256.5L41.45,255.92L42.09,255.73L46.55,254.95L47.19,254.95L58.03,252.44L58.67,252.44L61.85,252.05L62.49,252.05L65.04,250.89L65.68,250.89L68.23,250.12L68.87,250.12L72.69,249.54L73.33,249.54L76.52,249.34L77.16,248.76L88,248.18L88.64,247.99L96.29,247.41L96.92,247.21L112.23,246.63L112.87,246.44L116.69,245.86L117.33,245.67L121.79,245.09L122.43,244.7L126.26,244.12L126.9,243.54L133.27,242.96L133.91,242.57L135.82,242.18L136.46,241.6L138.37,241.02L139.01,240.64L141.56,240.44L142.2,240.44L149.85,238.89L150.49,238.89L152.4,238.89L153.04,237.93L156.23,237.35L156.87,237.35L160.05,236.96L160.69,236.38L163.24,235.61L163.88,235.61L167.07,232.7L167.71,232.7L170.26,232.12L170.89,230.77L173.44,230.77L174.08,229.99L183.01,227.67L183.65,227.67L185.56,227.29L186.2,227.29L188.75,226.9L189.39,226.51L192.57,226.32L193.21,226.32L195.13,225.93L195.76,225.93L197.68,225.54L198.31,225.54L202.14,225.16L202.78,224.77L209.15,224.19L209.79,223.22L211.07,223.03L211.7,222.45L215.53,222.06L216.17,221.48L219.36,220.9L219.99,220.51L221.91,218.97L222.54,218.97L224.46,216.84L225.1,214.32L226.37,211.42L227.01,211.23L229.56,209.87L230.2,207.36L230.83,207.36L231.47,205.81L232.11,205.81L232.75,205.04L234.02,203.3L234.66,202.71L235.94,199.81L236.57,199.81L237.21,199.04L237.85,196.91L239.76,193.82L240.4,193.82L241.04,193.82L241.67,193.04L242.31,193.04L242.95,189.75L245.5,189.56L246.14,188.59L246.78,188.59L247.41,187.04L248.69,185.69L249.33,185.69L250.6,183.75L251.24,183.75L252.51,180.27L253.15,180.27L255.07,180.27L255.7,179.5L257.62,174.47L258.25,174.47L260.17,173.31L260.8,172.34L262.08,170.21L262.72,169.44L264.63,169.05L265.27,168.47L267.82,168.08L268.46,167.31L269.09,167.31L269.73,168.86L271.01,167.12L271.64,167.12L272.28,167.12L272.92,165.96L274.83,164.79L275.47,164.79L277.38,164.79L278.02,162.09L281.21,162.09L281.85,161.12L284.4,160.15L285.04,158.6L285.67,158.6L286.31,157.83L286.95,157.83L287.59,156.48L289.5,154.15L290.14,154.15L292.05,153.57" style="vector-effect: non-scaling-stroke; fill: none; stroke: rgb(245, 130, 49); stroke-opacity: 1; stroke-width: 2px; opacity: 1;"/></g><g class="points"/><g class="text"/></g><g class="trace scatter traceb07d64" style="stroke-miterlimit: 2; opacity: 1;"><g class="fills"/><g class="errorbars"/><g class="lines"><path class="js-line" d="M0,256.5L50.38,255.92L51.01,255.73L65.68,255.15L66.32,254.95L67.59,254.18L68.23,254.18L73.97,253.6L74.61,253.4L84.81,253.02L85.45,252.44L89.27,251.86L89.91,251.66L96.92,249.34L97.56,248.95L102.66,247.21L103.3,246.44L107.77,245.86L108.4,245.67L110.95,245.47L111.59,244.12L115.42,243.54L116.05,242.76L124.34,240.44L124.98,239.28L127.53,237.93L128.17,237.54L130.08,236.19L130.72,235.8L135.82,233.28L136.46,233.28L142.84,229.22L143.47,228.45L152.4,225.54L153.04,225.54L156.23,224.19L156.87,224.19L161.33,223.61L161.97,223.61L175.36,223.03L176,222.84L183.65,222.26L184.28,222.06L187.47,221.68L188.11,221.29L197.04,220.71L197.68,220.13L205.33,219.55L205.97,219.16L213.62,218.58L214.26,218.39L218.08,217.42L218.72,217.42L227.01,216.84L227.65,216.26L233.38,212.58L234.02,212.58L235.3,211.23L235.94,210.26L237.85,208.71L238.49,207.36L239.76,206.97L240.4,206.58L241.04,206.58L241.67,205.04L243.59,202.71L244.23,202.52L245.5,201.55L246.14,200.59L252.51,196.52L253.15,196.52L254.43,195.94L255.07,195.17L257.62,193.82L258.25,193.23L260.8,191.11L261.44,191.11L263.36,190.91L263.99,189.75L265.91,188.59L266.54,188.4L267.82,188.2L268.46,187.62L276.75,184.92L277.38,175.82L278.66,175.05L279.3,175.05L281.21,174.66L281.85,174.08L283.76,173.31L284.4,173.11L288.22,172.53L288.86,171.95L291.41,171.57L292.05,170.79" style="vector-effect: non-scaling-stroke; fill: none; stroke: rgb(145, 30, 180); stroke-opacity: 1; stroke-width: 2px; opacity: 1;"/></g><g class="points"/><g class="text"/></g></g></g><g class="overplot"/><path class="xlines-above crisp" d="M0,0" style="fill: none;"/><path class="ylines-above crisp" d="M0,0" style="fill: none;"/><g class="overlines-above"/><g class="xaxislayer-above"><g class="x2tick"><text text-anchor="middle" x="0" y="383" transform="translate(539.61,0)" style="font-family: 'Open Sans', verdana, arial, sans-serif; font-size: 12px; fill: rgb(242, 245, 250); fill-opacity: 1; white-space: pre;">Jul 2020</text></g><g class="x2tick"><text text-anchor="middle" x="0" y="383" transform="translate(656.94,0)" style="font-family: 'Open Sans', verdana, arial, sans-serif; font-size: 12px; fill: rgb(242, 245, 250); fill-opacity: 1; white-space: pre;">Jan 2021</text></g></g><g class="yaxislayer-above"><g class="y2tick"><text text-anchor="end" x="435.95000000000005" y="4.199999999999999" transform="translate(0,356.5)" style="font-family: 'Open Sans', verdana, arial, sans-serif; font-size: 12px; fill: rgb(242, 245, 250); fill-opacity: 1; white-space: pre;">0</text></g><g class="y2tick"><text text-anchor="end" x="435.95000000000005" y="4.199999999999999" transform="translate(0,317.81)" style="font-family: 'Open Sans', verdana, arial, sans-serif; font-size: 12px; fill: rgb(242, 245, 250); fill-opacity: 1; white-space: pre;">200</text></g><g class="y2tick"><text text-anchor="end" x="435.95000000000005" y="4.199999999999999" transform="translate(0,279.11)" style="font-family: 'Open Sans', verdana, arial, sans-serif; font-size: 12px; fill: rgb(242, 245, 250); fill-opacity: 1; white-space: pre;">400</text></g><g class="y2tick"><text text-anchor="end" x="435.95000000000005" y="4.199999999999999" transform="translate(0,240.42)" style="font-family: 'Open Sans', verdana, arial, sans-serif; font-size: 12px; fill: rgb(242, 245, 250); fill-opacity: 1; white-space: pre;">600</text></g><g class="y2tick"><text text-anchor="end" x="435.95000000000005" y="4.199999999999999" transform="translate(0,201.72)" style="font-family: 'Open Sans', verdana, arial, sans-serif; font-size: 12px; fill: rgb(242, 245, 250); fill-opacity: 1; white-space: pre;">800</text></g><g class="y2tick"><text text-anchor="end" x="435.95000000000005" y="4.199999999999999" transform="translate(0,163.03)" style="font-family: 'Open Sans', verdana, arial, sans-serif; font-size: 12px; fill: rgb(242, 245, 250); fill-opacity: 1; white-space: pre;">1000</text></g><g class="y2tick"><text text-anchor="end" x="435.95000000000005" y="4.199999999999999" transform="translate(0,124.33)" style="font-family: 'Open Sans', verdana, arial, sans-serif; font-size: 12px; fill: rgb(242, 245, 250); fill-opacity: 1; white-space: pre;">1200</text></g></g><g class="overaxes-above"/></g></g><g class="polarlayer"/><g class="ternarylayer"/><g class="geolayer"/><g class="funnelarealayer"/><g class="pielayer"/><g class="treemaplayer"/><g class="sunburstlayer"/><g class="glimages"/><defs id="topdefs-beb1b7"><g class="clips"/><clipPath id="legendbeb1b7"><rect width="146" height="124" x="0" y="0"/></clipPath></defs><g class="layer-above"><g class="imagelayer"/><g class="shapelayer"/></g><g class="infolayer"><g class="legend" pointer-events="all" transform="translate(741.98, 100)"><rect class="bg" shape-rendering="crispEdges" width="146" height="124" x="0" y="0" style="stroke: rgb(68, 68, 68); stroke-opacity: 1; fill: rgb(17, 17, 17); fill-opacity: 1; stroke-width: 0px;"/><g class="scrollbox" transform="translate(0, 0)" clip-path="url('#legendbeb1b7')"><g class="groups"><g class="traces" transform="translate(0, 14.5)" style="opacity: 1;"><text class="legendtext user-select-none" text-anchor="start" x="40" y="4.680000000000001" style="font-family: 'Open Sans', verdana, arial, sans-serif; font-size: 12px; fill: rgb(242, 245, 250); fill-opacity: 1; white-space: pre;">Alameda, CA</text><g class="layers" style="opacity: 1;"><g class="legendfill"/><g class="legendlines"><path class="js-line" d="M5,0h30" style="fill: none; stroke: rgb(230, 25, 75); stroke-opacity: 1; stroke-width: 2px;"/></g><g class="legendsymbols"><g class="legendpoints"/></g></g><rect class="legendtoggle" pointer-events="all" x="0" y="-9.5" width="140.046875" height="19" style="cursor: pointer; fill: rgb(0, 0, 0); fill-opacity: 0;"/></g><g class="traces" transform="translate(0, 33.5)" style="opacity: 1;"><text class="legendtext user-select-none" text-anchor="start" x="40" y="4.680000000000001" style="font-family: 'Open Sans', verdana, arial, sans-serif; font-size: 12px; fill: rgb(242, 245, 250); fill-opacity: 1; white-space: pre;">Adams, CO</text><g class="layers" style="opacity: 1;"><g class="legendfill"/><g class="legendlines"><path class="js-line" d="M5,0h30" style="fill: none; stroke: rgb(60, 180, 75); stroke-opacity: 1; stroke-width: 2px;"/></g><g class="legendsymbols"><g class="legendpoints"/></g></g><rect class="legendtoggle" pointer-events="all" x="0" y="-9.5" width="140.046875" height="19" style="cursor: pointer; fill: rgb(0, 0, 0); fill-opacity: 0;"/></g><g class="traces" transform="translate(0, 52.5)" style="opacity: 1;"><text class="legendtext user-select-none" text-anchor="start" x="40" y="4.680000000000001" style="font-family: 'Open Sans', verdana, arial, sans-serif; font-size: 12px; fill: rgb(242, 245, 250); fill-opacity: 1; white-space: pre;">Monroe, MI</text><g class="layers" style="opacity: 1;"><g class="legendfill"/><g class="legendlines"><path class="js-line" d="M5,0h30" style="fill: none; stroke: rgb(255, 225, 25); stroke-opacity: 1; stroke-width: 2px;"/></g><g class="legendsymbols"><g class="legendpoints"/></g></g><rect class="legendtoggle" pointer-events="all" x="0" y="-9.5" width="140.046875" height="19" style="cursor: pointer; fill: rgb(0, 0, 0); fill-opacity: 0;"/></g><g class="traces" transform="translate(0, 71.5)" style="opacity: 1;"><text class="legendtext user-select-none" text-anchor="start" x="40" y="4.680000000000001" style="font-family: 'Open Sans', verdana, arial, sans-serif; font-size: 12px; fill: rgb(242, 245, 250); fill-opacity: 1; white-space: pre;">Saginaw, MI</text><g class="layers" style="opacity: 1;"><g class="legendfill"/><g class="legendlines"><path class="js-line" d="M5,0h30" style="fill: none; stroke: rgb(67, 99, 216); stroke-opacity: 1; stroke-width: 2px;"/></g><g class="legendsymbols"><g class="legendpoints"/></g></g><rect class="legendtoggle" pointer-events="all" x="0" y="-9.5" width="140.046875" height="19" style="cursor: pointer; fill: rgb(0, 0, 0); fill-opacity: 0;"/></g><g class="traces" transform="translate(0, 90.5)" style="opacity: 1;"><text class="legendtext user-select-none" text-anchor="start" x="40" y="4.680000000000001" style="font-family: 'Open Sans', verdana, arial, sans-serif; font-size: 12px; fill: rgb(242, 245, 250); fill-opacity: 1; white-space: pre;">San Francisco, CA</text><g class="layers" style="opacity: 1;"><g class="legendfill"/><g class="legendlines"><path class="js-line" d="M5,0h30" style="fill: none; stroke: rgb(245, 130, 49); stroke-opacity: 1; stroke-width: 2px;"/></g><g class="legendsymbols"><g class="legendpoints"/></g></g><rect class="legendtoggle" pointer-events="all" x="0" y="-9.5" width="140.046875" height="19" style="cursor: pointer; fill: rgb(0, 0, 0); fill-opacity: 0;"/></g><g class="traces" transform="translate(0, 109.5)" style="opacity: 1;"><text class="legendtext user-select-none" text-anchor="start" x="40" y="4.680000000000001" style="font-family: 'Open Sans', verdana, arial, sans-serif; font-size: 12px; fill: rgb(242, 245, 250); fill-opacity: 1; white-space: pre;">Muscogee, GA</text><g class="layers" style="opacity: 1;"><g class="legendfill"/><g class="legendlines"><path class="js-line" d="M5,0h30" style="fill: none; stroke: rgb(145, 30, 180); stroke-opacity: 1; stroke-width: 2px;"/></g><g class="legendsymbols"><g class="legendpoints"/></g></g><rect class="legendtoggle" pointer-events="all" x="0" y="-9.5" width="140.046875" height="19" style="cursor: pointer; fill: rgb(0, 0, 0); fill-opacity: 0;"/></g></g></g><rect class="scrollbar" rx="20" ry="3" width="0" height="0" x="0" y="0" style="fill: rgb(128, 139, 164); fill-opacity: 1;"/></g><g class="g-gtitle"/><g class="g-xtitle"><text class="xtitle" x="226.025" y="410.8" text-anchor="middle" style="font-family: 'Open Sans', verdana, arial, sans-serif; font-size: 14px; fill: rgb(242, 245, 250); opacity: 1; font-weight: normal; white-space: pre;">Date</text></g><g class="g-x2title"><text class="x2title" x="582.975" y="410.8" text-anchor="middle" style="font-family: 'Open Sans', verdana, arial, sans-serif; font-size: 14px; fill: rgb(242, 245, 250); opacity: 1; font-weight: normal; white-space: pre;">Date</text></g><g class="g-ytitle"><text class="ytitle" transform="rotate(-90,34.840625,235)" x="34.840625" y="235" text-anchor="middle" style="font-family: 'Open Sans', verdana, arial, sans-serif; font-size: 14px; fill: rgb(242, 245, 250); opacity: 1; font-weight: normal; white-space: pre;">Cases</text></g><g class="g-y2title"><text class="y2title" transform="rotate(-90,384.45,235)" x="384.45" y="235" text-anchor="middle" style="font-family: 'Open Sans', verdana, arial, sans-serif; font-size: 14px; fill: rgb(242, 245, 250); opacity: 1; font-weight: normal; white-space: pre;">Deaths</text></g><g class="annotation" data-index="0" style="opacity: 1;"><g class="annotation-text-g" transform="rotate(0,226.025,89.5)"><g class="cursor-pointer" transform="translate(202, 79)"><rect class="bg" x="0.5" y="0.5" width="48" height="20" style="stroke-width: 1px; stroke: rgb(0, 0, 0); stroke-opacity: 0; fill: rgb(0, 0, 0); fill-opacity: 0;"/><text class="annotation-text" text-anchor="middle" x="24.6875" y="16" style="font-family: 'Open Sans', verdana, arial, sans-serif; font-size: 16px; fill: rgb(242, 245, 250); fill-opacity: 1; white-space: pre;">Cases</text></g></g></g><g class="annotation" data-index="1" style="opacity: 1;"><g class="annotation-text-g" transform="rotate(0,582.975,89.5)"><g class="cursor-pointer" transform="translate(555, 79)"><rect class="bg" x="0.5" y="0.5" width="54" height="20" style="stroke-width: 1px; stroke: rgb(0, 0, 0); stroke-opacity: 0; fill: rgb(0, 0, 0); fill-opacity: 0;"/><text class="annotation-text" text-anchor="middle" x="27.359375" y="16" style="font-family: 'Open Sans', verdana, arial, sans-serif; font-size: 16px; fill: rgb(242, 245, 250); fill-opacity: 1; white-space: pre;">Deaths</text></g></g></g></g></svg>