<svg class="main-svg" xmlns="http://www.w3.org/2000/svg" xmlns:xlink="http://www.w3.org/1999/xlink" width="900" height="450" style="" viewBox="0 0 900 450"><rect x="0" y="0" width="900" height="450" style="fill: rgb(17, 17, 17); fill-opacity: 1;"/><defs id="defs-66c7cd"><g class="clips"><clipPath id="clip66c7cdxyplot" class="plotclip"><rect width="300.6" height="270"/></clipPath><clipPath id="clip66c7cdx2y2plot" class="plotclip"><rect width="300.59999999999997" height="270"/></clipPath><clipPath class="axesclip" id="clip66c7cdx"><rect x="80" y="0" width="300.6" height="450"/></clipPath><clipPath class="axesclip" id="clip66c7cdy"><rect x="0" y="100" width="900" height="270"/></clipPath><clipPath class="axesclip" id="clip66c7cdxy"><rect x="80" y="100" width="300.6" height="270"/></clipPath><clipPath class="axesclip" id="clip66c7cdy2"><rect x="0" y="100" width="900" height="270"/></clipPath><clipPath class="axesclip" id="clip66c7cdxy2"><rect x="80" y="100" width="300.6" height="270"/></clipPath><clipPath class="axesclip" id="clip66c7cdx2"><rect x="447.40000000000003" y="0" width="300.59999999999997" height="450"/></clipPath><clipPath class="axesclip" id="clip66c7cdx2y"><rect x="447.40000000000003" y="100" width="300.59999999999997" height="270"/></clipPath><clipPath class="axesclip" id="clip66c7cdx2y2"><rect x="447.40000000000003" y="100" width="300.59999999999997" height="270"/></clipPath></g><g class="gradients"/></defs><g class="bglayer"/><g class="layer-below"><g class="imagelayer"/><g class="shapelayer"/></g><g class="cartesianlayer"><g class="subplot xy"><g class="layer-subplot"><g class="shapelayer"/><g class="imagelayer"/></g><g class="gridlayer"><g class="x"><path class="xgrid crisp" transform="translate(121.43,0)" d="M0,100v270" style="stroke: rgb(40, 52, 66); stroke-opacity: 1; stroke-width: 1px;"/><path class="xgrid crisp" transform="translate(186.22,0)" d="M0,100v270" style="stroke: rgb(40, 52, 66); stroke-opacity: 1; stroke-width: 1px;"/><path class="xgrid crisp" transform="translate(251.01,0)" d="M0,100v270" style="stroke: rgb(40, 52, 66); stroke-opacity: 1; stroke-width: 1px;"/><path class="xgrid crisp" transform="translate(316.87,0)" d="M0,100v270" style="stroke: rgb(40, 52, 66); stroke-opacity: 1; stroke-width: 1px;"/></g><g class="y"><path class="ygrid crisp" transform="translate(0,305.61)" d="M80,0h300.6" style="stroke: rgb(40, 52, 66); stroke-opacity: 1; stroke-width: 1px;"/><path class="ygrid crisp" transform="translate(0,254.72)" d="M80,0h300.6" style="stroke: rgb(40, 52, 66); stroke-opacity: 1; stroke-width: 1px;"/><path class="ygrid crisp" transform="translate(0,203.84)" d="M80,0h300.6" style="stroke: rgb(40, 52, 66); stroke-opacity: 1; stroke-width: 1px;"/><path class="ygrid crisp" transform="translate(0,152.95)" d="M80,0h300.6" style="stroke: rgb(40, 52, 66); stroke-opacity: 1; stroke-width: 1px;"/><path class="ygrid crisp" transform="translate(0,102.06)" d="M80,0h300.6" style="stroke: rgb(40, 52, 66); stroke-opacity: 1; stroke-width: 1px;"/></g></g><g class="zerolinelayer"><path class="yzl zl crisp" transform="translate(0,356.5)" d="M80,0h300.6" style="stroke: rgb(40, 52, 66); stroke-opacity: 1; stroke-width: 2px;"/></g><path class="xlines-below"/><path class="ylines-below"/><g class="overlines-below"/><g class="xaxislayer-below"/><g class="yaxislayer-below"/><g class="overaxes-below"/><g class="plot" transform="translate(80, 100)" clip-path="url('#clip66c7cdxyplot')"><g class="scatterlayer mlayer"><g class="trace scatter trace200410" style="stroke-miterlimit: 2; opacity: 1;"><g class="fills"/><g class="errorbars"/><g class="lines"><path class="js-line" d="M0,256.5L62.67,255.84L63.73,255.42L69.04,254.26L70.1,253.89L75.42,252.47L76.48,251.99L78.6,250.74L79.66,250.52L104.09,240.54L105.16,240.19L111.53,237.54L112.59,236.99L127.46,229.95L128.53,228.94L134.9,224.98L135.96,223.98L140.21,220.73L141.27,220.39L146.58,216.35L147.64,215.94L149.77,214.58L150.83,213.59L156.14,210.37L157.2,209.3L160.39,207.6L161.45,205.54L166.76,199.42L167.83,198.79L168.89,197.86L169.95,195.8L173.14,190.63L174.2,189.78L175.26,186.73L176.32,186.41L177.39,186.41L178.45,182.76L181.63,177.88L182.7,177.88L185.88,170.21L186.95,168.7L190.13,162.49L191.19,162.3L192.26,161L193.32,158.36L196.51,151.37L197.57,150.96L198.63,150.27L199.69,148.28L200.75,146.86L201.82,143.21L202.88,143.21L203.94,139.62L205,139.21L206.07,135.94L207.13,135.3L208.19,132.98L211.38,132.98L212.44,122.17L213.5,121.97L214.56,117.43L216.69,111.68L217.75,108.33L218.81,108.33L219.87,102.58L220.94,102.51L222,99.39L225.18,88.89L226.25,86.61L228.37,86.2L229.43,80.68L230.5,79.56L231.56,77.16L232.62,74.86L233.68,74.86L241.12,61.79L242.18,61.79L243.24,59.56L244.3,59.56L246.43,55.9L247.49,54.79L248.55,54.61L249.61,53.04L253.86,51.3L254.93,49.24L258.11,46.42L259.17,45.34L266.61,39.48L267.67,38.87L276.17,33.22L277.23,33.18L279.36,31.08L280.42,31.08L282.54,29.29L283.6,28.83L285.73,27.92L286.79,26.12L295.29,18.44L296.35,18.44L298.48,15.94L299.54,14.53L300.6,13.5" style="vector-effect: non-scaling-stroke; fill: none; stroke: rgb(230, 25, 75); stroke-opacity: 1; stroke-width: 2px; opacity: 1;"/></g><g class="points"/><g class="text"/></g><g class="trace scatter tracecff438" style="stroke-miterlimit: 2; opacity: 1;"><g class="fills"/><g class="errorbars"/><g class="lines"><path class="js-line" d="M0,256.5L291.04,255.91L292.1,255.63L298.48,254.68L299.54,254.65L300.6,254.61" style="vector-effect: non-scaling-stroke; fill: none; stroke: rgb(60, 180, 75); stroke-opacity: 1; stroke-width: 2px; opacity: 1;"/></g><g class="points"/><g class="text"/></g><g class="trace scatter tracea4056d" style="stroke-miterlimit: 2; opacity: 1;"><g class="fills"/><g class="errorbars"/><g class="lines"><path class="js-line" d="M0,256.5L194.38,255.77L195.44,255.71L200.75,255.27L201.82,255.25L240.06,253.52L241.12,253.2L252.8,252.04L253.86,251.75L297.41,244.41L298.48,243.82L300.6,243.53" style="vector-effect: non-scaling-stroke; fill: none; stroke: rgb(255, 225, 25); stroke-opacity: 1; stroke-width: 2px; opacity: 1;"/></g><g class="points"/><g class="text"/></g><g class="trace scatter traceae199b" style="stroke-miterlimit: 2; opacity: 1;"><g class="fills"/><g class="errorbars"/><g class="lines"><path class="js-line" d="M0,256.5L112.59,255.76L113.65,255.74L165.7,254.13L166.76,254.02L175.26,253.27L176.32,253.21L189.07,251.88L190.13,251.77L216.69,249.12L217.75,248.93L237.93,247.25L238.99,246.6L251.74,245.68L252.8,245.43L265.55,244.23L266.61,244.01L279.36,242.57L280.42,242.21L287.85,241.03L288.92,240.52L300.6,238.33" style="vector-effect: non-scaling-stroke; fill: none; stroke: rgb(67, 99, 216); stroke-opacity: 1; stroke-width: 2px; opacity: 1;"/></g><g class="points"/><g class="text"/></g><g class="trace scatter tracecf4dc9" style="stroke-miterlimit: 2; opacity: 1;"><g class="fills"/><g class="errorbars"/><g class="lines"><path class="js-line" d="M0,256.5L95.6,256.15L96.66,255.74L150.83,255.45L151.89,255.45L207.13,254.56L208.19,254.33L217.75,253.24L218.81,252.99L258.11,250.76L259.17,250.76L278.29,248.64L279.36,248.47L298.48,246.94L299.54,246.6L300.6,246.6" style="vector-effect: non-scaling-stroke; fill: none; stroke: rgb(245, 130, 49); stroke-opacity: 1; stroke-width: 2px; opacity: 1;"/></g><g class="points"/><g class="text"/></g><g class="trace scatter trace3d1767" style="stroke-miterlimit: 2; opacity: 1;"><g class="fills"/><g class="errorbars"/><g class="lines"><path class="js-line" d="M0,256.5L67.98,255.89L69.04,255.56L87.1,252.93L88.16,252.91L117.9,251.5L118.97,251.5L131.71,250.79L132.77,250.72L143.4,249.28L144.46,248.92L151.89,246.17L152.96,245.39L157.2,242.22L158.27,240.68L164.64,229.75L165.7,227.39L172.07,209.54L173.14,205.29L176.32,195.66L177.39,194.7L183.76,176.79L184.82,172.57L195.44,151.2L196.51,149.74L199.69,145.5L200.75,143.42L207.13,136.44L208.19,135.3L209.25,134.39L210.31,132.46L211.38,132.46L212.44,131.07L214.56,129.75L215.62,127.95L216.69,127.95L217.75,126.98L219.87,125.42L220.94,125.1L225.18,122.6L226.25,121.58L230.5,119.33L231.56,119.07L234.74,114.01L235.81,113.47L240.06,110.71L241.12,110.03L245.37,108.63L246.43,108.42L248.55,106.9L249.61,102.57L254.93,99.99L255.99,99.21L260.24,97.6L261.3,96.9L267.67,94.82L268.73,94.69L282.54,89.67L283.6,89.1L292.1,84.38L293.16,83.66L300.6,79.57" style="vector-effect: non-scaling-stroke; fill: none; stroke: rgb(145, 30, 180); stroke-opacity: 1; stroke-width: 2px; opacity: 1;"/></g><g class="points"/><g class="text"/></g></g></g><g class="overplot"/><path class="xlines-above crisp" d="M0,0" style="fill: none;"/><path class="ylines-above crisp" d="M0,0" style="fill: none;"/><g class="overlines-above"/><g class="xaxislayer-above"><g class="xtick"><text text-anchor="middle" x="0" y="383" transform="translate(121.43,0)" style="font-family: 'Open Sans', verdana, arial, sans-serif; font-size: 12px; fill: rgb(242, 245, 250); fill-opacity: 1; white-space: pre;">Mar 2020</text></g><g class="xtick"><text text-anchor="middle" x="0" y="383" transform="translate(186.22,0)" style="font-family: 'Open Sans', verdana, arial, sans-serif; font-size: 12px; fill: rgb(242, 245, 250); fill-opacity: 1; white-space: pre;">May 2020</text></g><g class="xtick"><text text-anchor="middle" x="0" y="383" transform="translate(251.01,0)" style="font-family: 'Open Sans', verdana, arial, sans-serif; font-size: 12px; fill: rgb(242, 245, 250); fill-opacity: 1; white-space: pre;">Jul 2020</text></g><g class="xtick"><text text-anchor="middle" x="0" y="383" transform="translate(316.87,0)" style="font-family: 'Open Sans', verdana, arial, sans-serif; font-size: 12px; fill: rgb(242, 245, 250); fill-opacity: 1; white-space: pre;">Sep 2020</text></g></g><g class="yaxislayer-above"><g class="ytick"><text text-anchor="end" x="79" y="4.199999999999999" transform="translate(0,356.5)" style="font-family: 'Open Sans', verdana, arial, sans-serif; font-size: 12px; fill: rgb(242, 245, 250); fill-opacity: 1; white-space: pre;">0</text></g><g class="ytick"><text text-anchor="end" x="79" y="4.199999999999999" transform="translate(0,305.61)" style="font-family: 'Open Sans', verdana, arial, sans-serif; font-size: 12px; fill: rgb(242, 245, 250); fill-opacity: 1; white-space: pre;">5k</text></g><g class="ytick"><text text-anchor="end" x="79" y="4.199999999999999" transform="translate(0,254.72)" style="font-family: 'Open Sans', verdana, arial, sans-serif; font-size: 12px; fill: rgb(242, 245, 250); fill-opacity: 1; white-space: pre;">10k</text></g><g class="ytick"><text text-anchor="end" x="79" y="4.199999999999999" transform="translate(0,203.84)" style="font-family: 'Open Sans', verdana, arial, sans-serif; font-size: 12px; fill: rgb(242, 245, 250); fill-opacity: 1; white-space: pre;">15k</text></g><g class="ytick"><text text-anchor="end" x="79" y="4.199999999999999" transform="translate(0,152.95)" style="font-family: 'Open Sans', verdana, arial, sans-serif; font-size: 12px; fill: rgb(242, 245, 250); fill-opacity: 1; white-space: pre;">20k</text></g><g class="ytick"><text text-anchor="end" x="79" y="4.199999999999999" transform="translate(0,102.06)" style="font-family: 'Open Sans', verdana, arial, sans-serif; font-size: 12px; fill: rgb(242, 245, 250); fill-opacity: 1; white-space: pre;">25k</text></g></g><g class="overaxes-above"/></g><g class="subplot x2y2"><g class="layer-subplot"><g class="shapelayer"/><g class="imagelayer"/></g><g class="gridlayer"><g class="x2"><path class="x2grid crisp" transform="translate(488.83000000000004,0)" d="M0,100v270" style="stroke: rgb(40, 52, 66); stroke-opacity: 1; stroke-width: 1px;"/><path class="x2grid crisp" transform="translate(553.62,0)" d="M0,100v270" style="stroke: rgb(40, 52, 66); stroke-opacity: 1; stroke-width: 1px;"/><path class="x2grid crisp" transform="translate(618.4100000000001,0)" d="M0,100v270" style="stroke: rgb(40, 52, 66); stroke-opacity: 1; stroke-width: 1px;"/><path class="x2grid crisp" transform="translate(684.27,0)" d="M0,100v270" style="stroke: rgb(40, 52, 66); stroke-opacity: 1; stroke-width: 1px;"/></g><g class="y2"><path class="y2grid crisp" transform="translate(0,304.13)" d="M447.40000000000003,0h300.59999999999997" style="stroke: rgb(40, 52, 66); stroke-opacity: 1; stroke-width: 1px;"/><path class="y2grid crisp" transform="translate(0,251.76)" d="M447.40000000000003,0h300.59999999999997" style="stroke: rgb(40, 52, 66); stroke-opacity: 1; stroke-width: 1px;"/><path class="y2grid crisp" transform="translate(0,199.39)" d="M447.40000000000003,0h300.59999999999997" style="stroke: rgb(40, 52, 66); stroke-opacity: 1; stroke-width: 1px;"/><path class="y2grid crisp" transform="translate(0,147.02)" d="M447.40000000000003,0h300.59999999999997" style="stroke: rgb(40, 52, 66); stroke-opacity: 1; stroke-width: 1px;"/></g></g><g class="zerolinelayer"><path class="y2zl zl crisp" transform="translate(0,356.5)" d="M447.40000000000003,0h300.59999999999997" style="stroke: rgb(40, 52, 66); stroke-opacity: 1; stroke-width: 2px;"/></g><path class="xlines-below"/><path class="ylines-below"/><g class="overlines-below"/><g class="xaxislayer-below"/><g class="yaxislayer-below"/><g class="overaxes-below"/><g class="plot" transform="translate(447.40000000000003, 100)" clip-path="url('#clip66c7cdx2y2plot')"><g class="scatterlayer mlayer"><g class="trace scatter tracec48e95" style="stroke-miterlimit: 2; opacity: 1;"><g class="fills"/><g class="errorbars"/><g class="lines"><path class="js-line" d="M0,256.5L64.79,255.98L65.86,255.45L66.92,255.45L67.98,254.41L69.04,254.41L70.1,253.36L72.23,252.83L73.29,252.83L75.42,251.79L76.48,250.22L79.66,249.69L80.73,248.64L82.85,247.6L83.91,246.03L87.1,244.45L88.16,244.45L89.22,237.65L90.29,236.08L91.35,236.08L92.41,235.03L97.72,232.41L98.78,231.36L99.85,229.27L100.91,229.27L101.97,229.27L103.03,227.7L107.28,223.51L108.34,223.51L109.41,223.51L110.47,221.94L112.59,221.41L113.65,219.84L115.78,219.32L116.84,219.32L121.09,213.56L122.15,213.03L124.28,213.03L125.34,211.46L127.46,209.37L128.53,209.37L130.65,207.8L131.71,207.8L134.9,207.27L135.96,206.75L139.15,206.22L140.21,205.7L142.33,205.7L143.4,203.61L147.64,203.08L148.71,201.51L150.83,199.42L151.89,199.42L152.96,197.84L154.02,197.84L155.08,197.84L156.14,195.75L159.33,194.7L160.39,194.7L163.58,192.61L164.64,189.47L167.83,186.85L168.89,186.85L173.14,183.18L174.2,183.18L177.39,183.18L178.45,182.13L180.57,179.52L181.63,178.99L183.76,178.99L184.82,176.9L185.88,175.85L186.95,175.85L188.01,172.18L189.07,171.66L191.19,171.66L192.26,169.04L195.44,163.28L196.51,163.28L198.63,163.28L199.69,161.71L202.88,161.19L203.94,157.52L206.07,157.52L207.13,155.95L209.25,155.42L210.31,155.42L211.38,155.42L212.44,149.14L214.56,149.14L215.62,145.47L217.75,141.81L218.81,141.81L219.87,140.76L220.94,140.76L225.18,134.48L226.25,134.48L228.37,133.95L229.43,130.81L232.62,127.14L233.68,127.14L234.74,121.91L235.81,121.91L236.87,121.91L237.93,113L238.99,102.01L240.06,101.48L241.12,99.91L242.18,99.91L244.3,99.39L245.37,97.82L246.43,97.82L247.49,88.91L248.55,88.91L249.61,82.63L250.68,82.11L251.74,70.06L252.8,70.06L253.86,65.35L255.99,60.63L257.05,60.63L258.11,60.63L259.17,52.25L262.36,44.92L263.42,43.87L265.55,43.87L266.61,42.83L267.67,40.73L268.73,36.54L269.8,36.54L270.86,33.92L272.98,33.92L274.05,32.88L275.11,30.78L276.17,30.78L288.92,30.26L289.98,28.69L291.04,17.69L292.1,17.69L294.23,15.07L295.29,15.07L298.48,14.02L299.54,14.02L300.6,13.5" style="vector-effect: non-scaling-stroke; fill: none; stroke: rgb(230, 25, 75); stroke-opacity: 1; stroke-width: 2px; opacity: 1;"/></g><g class="points"/><g class="text"/></g><g class="trace scatter traceefe8dc" style="stroke-miterlimit: 2; opacity: 1;"><g class="fills"/><g class="errorbars"/><g class="lines"><path class="js-line" d="M0,256.5L291.04,255.98L292.1,255.45L294.23,254.93L295.29,254.93L297.41,254.41L298.48,253.88L300.6,252.83" style="vector-effect: non-scaling-stroke; fill: none; stroke: rgb(60, 180, 75); stroke-opacity: 1; stroke-width: 2px; opacity: 1;"/></g><g class="points"/><g class="text"/></g><g class="trace scatter trace44e0a1" style="stroke-miterlimit: 2; opacity: 1;"><g class="fills"/><g class="errorbars"/><g class="lines"><path class="js-line" d="M0,256.5L202.88,255.98L203.94,255.45L276.17,254.93L277.23,254.41L287.85,254.41L288.92,253.36L291.04,252.83L292.1,251.26L298.48,251.26L299.54,249.17L300.6,249.17" style="vector-effect: non-scaling-stroke; fill: none; stroke: rgb(255, 225, 25); stroke-opacity: 1; stroke-width: 2px; opacity: 1;"/></g><g class="points"/><g class="text"/></g><g class="trace scatter traced908fa" style="stroke-miterlimit: 2; opacity: 1;"><g class="fills"/><g class="errorbars"/><g class="lines"><path class="js-line" d="M0,256.5L118.97,255.98L120.03,255.45L180.57,254.93L181.63,253.88L186.95,253.36L188.01,252.83L220.94,252.31L222,251.26L243.24,250.74L244.3,250.22L246.43,249.69L247.49,249.17L250.68,249.17L251.74,248.12L254.93,247.6L255.99,247.07L266.61,246.55L267.67,245.5L292.1,244.98L293.16,244.45L295.29,243.41L296.35,243.41L298.48,243.41L299.54,242.36L300.6,242.36" style="vector-effect: non-scaling-stroke; fill: none; stroke: rgb(67, 99, 216); stroke-opacity: 1; stroke-width: 2px; opacity: 1;"/></g><g class="points"/><g class="text"/></g><g class="trace scatter trace051281" style="stroke-miterlimit: 2; opacity: 1;"><g class="fills"/><g class="errorbars"/><g class="lines"><path class="js-line" d="M0,256.5L97.72,255.98L98.78,255.45L99.85,255.45L100.91,253.88L103.03,251.79L104.09,250.74L109.41,248.64L110.47,248.64L161.45,248.12L162.52,247.6L207.13,247.6L208.19,246.55L219.87,246.03L220.94,244.98L223.06,242.88L224.12,240.27L230.5,240.27L231.56,239.22L233.68,238.69L234.74,238.69L241.12,238.17L242.18,237.65L244.3,237.12L245.37,237.12L277.23,236.6L278.29,236.08L282.54,235.55L283.6,235.03L285.73,233.46L286.79,233.46L291.04,232.93L292.1,232.41L293.16,231.36L294.23,231.36L296.35,230.84L297.41,229.27L300.6,229.27" style="vector-effect: non-scaling-stroke; fill: none; stroke: rgb(245, 130, 49); stroke-opacity: 1; stroke-width: 2px; opacity: 1;"/></g><g class="points"/><g class="text"/></g><g class="trace scatter trace1ce821" style="stroke-miterlimit: 2; opacity: 1;"><g class="fills"/><g class="errorbars"/><g class="lines"><path class="js-line" d="M0,256.5L84.98,255.98L86.04,255.45L94.53,254.93L95.6,253.88L101.97,253.36L103.03,252.83L110.47,252.31L111.53,251.79L123.21,251.26L124.28,250.74L140.21,250.22L141.27,249.69L149.77,249.17L150.83,248.64L155.08,248.12L156.14,247.6L157.2,247.6L158.27,246.55L162.52,246.03L163.58,245.5L165.7,244.98L166.76,244.98L168.89,244.45L169.95,242.88L171.01,239.22L172.07,238.69L174.2,238.17L175.26,237.65L176.32,237.65L177.39,235.03L179.51,229.79L180.57,229.27L181.63,226.65L182.7,226.13L183.76,225.6L184.82,222.46L185.88,222.46L186.95,216.17L188.01,216.7L189.07,213.56L191.19,212.51L192.26,204.65L194.38,196.8L195.44,196.8L196.51,192.08L197.57,191.04L199.69,191.04L200.75,181.09L205,172.71L206.07,172.18L208.19,166.42L209.25,166.42L211.38,166.42L212.44,154.9L213.5,153.85L214.56,150.19L215.62,147.05L216.69,147.05L217.75,146.52L218.81,144.95L220.94,144.43L222,142.86L224.12,142.86L225.18,140.76L226.25,138.14L227.31,138.14L228.37,138.14L229.43,137.09L235.81,131.86L236.87,131.33L237.93,129.76L238.99,129.76L242.18,127.67L243.24,127.14L245.37,126.1L246.43,126.1L247.49,124.53L248.55,124.53L252.8,122.95L253.86,122.95L257.05,122.43L258.11,121.91L262.36,120.34L263.42,120.34L266.61,119.81L267.67,118.77L269.8,118.24L270.86,117.19L275.11,115.62L276.17,115.62L285.73,115.1L286.79,114.58L289.98,114.58L291.04,113.53L294.23,112.48L295.29,112.48L297.41,111.43L298.48,110.91L300.6,110.39" style="vector-effect: non-scaling-stroke; fill: none; stroke: rgb(145, 30, 180); stroke-opacity: 1; stroke-width: 2px; opacity: 1;"/></g><g class="points"/><g class="text"/></g></g></g><g class="overplot"/><path class="xlines-above crisp" d="M0,0" style="fill: none;"/><path class="ylines-above crisp" d="M0,0" style="fill: none;"/><g class="overlines-above"/><g class="xaxislayer-above"><g class="x2tick"><text text-anchor="middle" x="0" y="383" transform="translate(488.83000000000004,0)" style="font-family: 'Open Sans', verdana, arial, sans-serif; font-size: 12px; fill: rgb(242, 245, 250); fill-opacity: 1; white-space: pre;">Mar 2020</text></g><g class="x2tick"><text text-anchor="middle" x="0" y="383" transform="translate(553.62,0)" style="font-family: 'Open Sans', verdana, arial, sans-serif; font-size: 12px; fill: rgb(242, 245, 250); fill-opacity: 1; white-space: pre;">May 2020</text></g><g class="x2tick"><text text-anchor="middle" x="0" y="383" transform="translate(618.4100000000001,0)" style="font-family: 'Open Sans', verdana, arial, sans-serif; font-size: 12px; fill: rgb(242, 245, 250); fill-opacity: 1; white-space: pre;">Jul 2020</text></g><g class="x2tick"><text text-anchor="middle" x="0" y="383" transform="translate(684.27,0)" style="font-family: 'Open Sans', verdana, arial, sans-serif; font-size: 12px; fill: rgb(242, 245, 250); fill-opacity: 1; white-space: pre;">Sep 2020</text></g></g><g class="yaxislayer-above"><g class="y2tick"><text text-anchor="end" x="446.40000000000003" y="4.199999999999999" transform="translate(0,356.5)" style="font-family: 'Open Sans', verdana, arial, sans-serif; font-size: 12px; fill: rgb(242, 245, 250); fill-opacity: 1; white-space: pre;">0</text></g><g class="y2tick"><text text-anchor="end" x="446.40000000000003" y="4.199999999999999" transform="translate(0,304.13)" style="font-family: 'Open Sans', verdana, arial, sans-serif; font-size: 12px; fill: rgb(242, 245, 250); fill-opacity: 1; white-space: pre;">100</text></g><g class="y2tick"><text text-anchor="end" x="446.40000000000003" y="4.199999999999999" transform="translate(0,251.76)" style="font-family: 'Open Sans', verdana, arial, sans-serif; font-size: 12px; fill: rgb(242, 245, 250); fill-opacity: 1; white-space: pre;">200</text></g><g class="y2tick"><text text-anchor="end" x="446.40000000000003" y="4.199999999999999" transform="translate(0,199.39)" style="font-family: 'Open Sans', verdana, arial, sans-serif; font-size: 12px; fill: rgb(242, 245, 250); fill-opacity: 1; white-space: pre;">300</text></g><g class="y2tick"><text text-anchor="end" x="446.40000000000003" y="4.199999999999999" transform="translate(0,147.02)" style="font-family: 'Open Sans', verdana, arial, sans-serif; font-size: 12px; fill: rgb(242, 245, 250); fill-opacity: 1; white-space: pre;">400</text></g></g><g class="overaxes-above"/></g></g><g class="polarlayer"/><g class="ternarylayer"/><g class="geolayer"/><g class="funnelarealayer"/><g class="pielayer"/><g class="treemaplayer"/><g class="sunburstlayer"/><g class="glimages"/><defs id="topdefs-66c7cd"><g class="clips"/><clipPath id="legend66c7cd"><rect width="127" height="124" x="0" y="0"/></clipPath></defs><g class="layer-above"><g class="imagelayer"/><g class="shapelayer"/></g><g class="infolayer"><g class="legend" pointer-events="all" transform="translate(761.36, 100)"><rect class="bg" shape-rendering="crispEdges" width="127" height="124" x="0" y="0" style="stroke: rgb(68, 68, 68); stroke-opacity: 1; fill: rgb(17, 17, 17); fill-opacity: 1; stroke-width: 0px;"/><g class="scrollbox" transform="translate(0, 0)" clip-path="url('#legend66c7cd')"><g class="groups"><g class="traces" transform="translate(0, 14.5)" style="opacity: 1;"><text class="legendtext user-select-none" text-anchor="start" x="40" y="4.680000000000001" style="font-family: 'Open Sans', verdana, arial, sans-serif; font-size: 12px; fill: rgb(242, 245, 250); fill-opacity: 1; white-space: pre;">Alameda, CA</text><g class="layers" style="opacity: 1;"><g class="legendfill"/><g class="legendlines"><path class="js-line" d="M5,0h30" style="fill: none; stroke: rgb(230, 25, 75); stroke-opacity: 1; stroke-width: 2px;"/></g><g class="legendsymbols"><g class="legendpoints"/></g></g><rect class="legendtoggle" pointer-events="all" x="0" y="-9.5" width="121.703125" height="19" style="cursor: pointer; fill: rgb(0, 0, 0); fill-opacity: 0;"/></g><g class="traces" transform="translate(0, 33.5)" style="opacity: 1;"><text class="legendtext user-select-none" text-anchor="start" x="40" y="4.680000000000001" style="font-family: 'Open Sans', verdana, arial, sans-serif; font-size: 12px; fill: rgb(242, 245, 250); fill-opacity: 1; white-space: pre;">Lee, KY</text><g class="layers" style="opacity: 1;"><g class="legendfill"/><g class="legendlines"><path class="js-line" d="M5,0h30" style="fill: none; stroke: rgb(60, 180, 75); stroke-opacity: 1; stroke-width: 2px;"/></g><g class="legendsymbols"><g class="legendpoints"/></g></g><rect class="legendtoggle" pointer-events="all" x="0" y="-9.5" width="121.703125" height="19" style="cursor: pointer; fill: rgb(0, 0, 0); fill-opacity: 0;"/></g><g class="traces" transform="translate(0, 52.5)" style="opacity: 1;"><text class="legendtext user-select-none" text-anchor="start" x="40" y="4.680000000000001" style="font-family: 'Open Sans', verdana, arial, sans-serif; font-size: 12px; fill: rgb(242, 245, 250); fill-opacity: 1; white-space: pre;">Howell, MO</text><g class="layers" style="opacity: 1;"><g class="legendfill"/><g class="legendlines"><path class="js-line" d="M5,0h30" style="fill: none; stroke: rgb(255, 225, 25); stroke-opacity: 1; stroke-width: 2px;"/></g><g class="legendsymbols"><g class="legendpoints"/></g></g><rect class="legendtoggle" pointer-events="all" x="0" y="-9.5" width="121.703125" height="19" style="cursor: pointer; fill: rgb(0, 0, 0); fill-opacity: 0;"/></g><g class="traces" transform="translate(0, 71.5)" style="opacity: 1;"><text class="legendtext user-select-none" text-anchor="start" x="40" y="4.680000000000001" style="font-family: 'Open Sans', verdana, arial, sans-serif; font-size: 12px; fill: rgb(242, 245, 250); fill-opacity: 1; white-space: pre;">Fayette, TN</text><g class="layers" style="opacity: 1;"><g class="legendfill"/><g class="legendlines"><path class="js-line" d="M5,0h30" style="fill: none; stroke: rgb(67, 99, 216); stroke-opacity: 1; stroke-width: 2px;"/></g><g class="legendsymbols"><g class="legendpoints"/></g></g><rect class="legendtoggle" pointer-events="all" x="0" y="-9.5" width="121.703125" height="19" style="cursor: pointer; fill: rgb(0, 0, 0); fill-opacity: 0;"/></g><g class="traces" transform="translate(0, 90.5)" style="opacity: 1;"><text class="legendtext user-select-none" text-anchor="start" x="40" y="4.680000000000001" style="font-family: 'Open Sans', verdana, arial, sans-serif; font-size: 12px; fill: rgb(242, 245, 250); fill-opacity: 1; white-space: pre;">Jefferson, IL</text><g class="layers" style="opacity: 1;"><g class="legendfill"/><g class="legendlines"><path class="js-line" d="M5,0h30" style="fill: none; stroke: rgb(245, 130, 49); stroke-opacity: 1; stroke-width: 2px;"/></g><g class="legendsymbols"><g class="legendpoints"/></g></g><rect class="legendtoggle" pointer-events="all" x="0" y="-9.5" width="121.703125" height="19" style="cursor: pointer; fill: rgb(0, 0, 0); fill-opacity: 0;"/></g><g class="traces" transform="translate(0, 109.5)" style="opacity: 1;"><text class="legendtext user-select-none" text-anchor="start" x="40" y="4.680000000000001" style="font-family: 'Open Sans', verdana, arial, sans-serif; font-size: 12px; fill: rgb(242, 245, 250); fill-opacity: 1; white-space: pre;">Charleston, SC</text><g class="layers" style="opacity: 1;"><g class="legendfill"/><g class="legendlines"><path class="js-line" d="M5,0h30" style="fill: none; stroke: rgb(145, 30, 180); stroke-opacity: 1; stroke-width: 2px;"/></g><g class="legendsymbols"><g class="legendpoints"/></g></g><rect class="legendtoggle" pointer-events="all" x="0" y="-9.5" width="121.703125" height="19" style="cursor: pointer; fill: rgb(0, 0, 0); fill-opacity: 0;"/></g></g></g><rect class="scrollbar" rx="20" ry="3" width="0" height="0" x="0" y="0" style="fill: rgb(128, 139, 164); fill-opacity: 1;"/></g><g class="g-gtitle"/><g class="g-xtitle"><text class="xtitle" x="230.3" y="410.8" text-anchor="middle" style="font-family: 'Open Sans', verdana, arial, sans-serif; font-size: 14px; fill: rgb(242, 245, 250); opacity: 1; font-weight: normal; white-space: pre;">Date</text></g><g class="g-x2title"><text class="x2title" x="597.7" y="410.8" text-anchor="middle" style="font-family: 'Open Sans', verdana, arial, sans-serif; font-size: 14px; fill: rgb(242, 245, 250); opacity: 1; font-weight: normal; white-space: pre;">Date</text></g><g class="g-ytitle"><text class="ytitle" transform="rotate(-90,34.840625,235)" x="34.840625" y="235" text-anchor="middle" style="font-family: 'Open Sans', verdana, arial, sans-serif; font-size: 14px; fill: rgb(242, 245, 250); opacity: 1; font-weight: normal; white-space: pre;">Cases</text></g><g class="g-y2title"><text class="y2title" transform="rotate(-90,401.575,235)" x="401.575" y="235" text-anchor="middle" style="font-family: 'Open Sans', verdana, arial, sans-serif; font-size: 14px; fill: rgb(242, 245, 250); opacity: 1; font-weight: normal; white-space: pre;">Deaths</text></g><g class="annotation" data-index="0" style="opacity: 1;"><g class="annotation-text-g" transform="rotate(0,230.3,89.5)"><g class="cursor-pointer" transform="translate(206, 79)"><rect class="bg" x="0.5" y="0.5" width="48" height="20" style="stroke-width: 1px; stroke: rgb(0, 0, 0); stroke-opacity: 0; fill: rgb(0, 0, 0); fill-opacity: 0;"/><text class="annotation-text" text-anchor="middle" x="24.6875" y="16" style="font-family: 'Open Sans', verdana, arial, sans-serif; font-size: 16px; fill: rgb(242, 245, 250); fill-opacity: 1; white-space: pre;">Cases</text></g></g></g><g class="annotation" data-index="1" style="opacity: 1;"><g class="annotation-text-g" transform="rotate(0,597.7,89.5)"><g class="cursor-pointer" transform="translate(570, 79)"><rect class="bg" x="0.5" y="0.5" width="54" height="20" style="stroke-width: 1px; stroke: rgb(0, 0, 0); stroke-opacity: 0; fill: rgb(0, 0, 0); fill-opacity: 0;"/><text class="annotation-text" text-anchor="middle" x="27.359375" y="16" style="font-family: 'Open Sans', verdana, arial, sans-serif; font-size: 16px; fill: rgb(242, 245, 250); fill-opacity: 1; white-space: pre;">Deaths</text></g></g></g></g></svg>