<?xml version="1.0" encoding="utf-8" standalone="no"?>
<!DOCTYPE svg PUBLIC "-//W3C//DTD SVG 1.1//EN"
  "http://www.w3.org/Graphics/SVG/1.1/DTD/svg11.dtd">
<!-- Created with matplotlib (https://matplotlib.org/) -->
<svg height="648pt" version="1.1" viewBox="0 0 576 648" width="576pt" xmlns="http://www.w3.org/2000/svg" xmlns:xlink="http://www.w3.org/1999/xlink">
 <defs>
  <style type="text/css">
*{stroke-linecap:butt;stroke-linejoin:round;}
  </style>
 </defs>
 <g id="figure_1">
  <g id="patch_1">
   <path d="M 0 648 
L 576 648 
L 576 0 
L 0 0 
z
"/>
  </g>
  <g id="axes_1">
   <g id="patch_2">
    <path d="M 57.17 190.626667 
L 565.2 190.626667 
L 565.2 26.88 
L 57.17 26.88 
z
"/>
   </g>
   <g id="PolyCollection_1">
    <defs>
     <path d="M 415.268135 -577.96127 
L 415.268135 -577.96127 
L 423.959837 -578.318657 
L 432.65154 -578.636584 
L 441.343242 -578.965298 
L 450.034944 -578.793154 
L 458.726647 -578.796064 
L 458.726647 -613.67697 
L 458.726647 -613.67697 
L 450.034944 -605.641073 
L 441.343242 -597.859375 
L 432.65154 -591.017253 
L 423.959837 -584.432457 
L 415.268135 -577.96127 
z
" id="m42ef736996" style="stroke:#f77189;stroke-opacity:0.1;"/>
    </defs>
    <g clip-path="url(#pdeee4aad6c)">
     <use style="fill:#f77189;fill-opacity:0.1;stroke:#f77189;stroke-opacity:0.1;" x="0" xlink:href="#m42ef736996" y="648"/>
    </g>
   </g>
   <g id="PolyCollection_2">
    <defs>
     <path d="M 415.268135 -572.9186 
L 415.268135 -572.9186 
L 423.959837 -573.271359 
L 432.65154 -573.748828 
L 441.343242 -574.945567 
L 450.034944 -575.571739 
L 458.726647 -572.9186 
L 458.726647 -611.585445 
L 458.726647 -611.585445 
L 450.034944 -600.112057 
L 441.343242 -592.735897 
L 432.65154 -586.377737 
L 423.959837 -579.615644 
L 415.268135 -572.9186 
z
" id="m41ce628218" style="stroke:#ae9d31;stroke-opacity:0.1;"/>
    </defs>
    <g clip-path="url(#pdeee4aad6c)">
     <use style="fill:#ae9d31;fill-opacity:0.1;stroke:#ae9d31;stroke-opacity:0.1;" x="0" xlink:href="#m41ce628218" y="648"/>
    </g>
   </g>
   <g id="PolyCollection_3">
    <defs>
     <path d="M 415.268135 -536.884521 
L 415.268135 -536.884521 
L 423.959837 -536.884521 
L 432.65154 -537.195286 
L 441.343242 -537.672306 
L 450.034944 -537.53995 
L 458.726647 -537.23884 
L 458.726647 -562.168513 
L 458.726647 -562.168513 
L 450.034944 -556.16581 
L 441.343242 -550.659313 
L 432.65154 -546.096308 
L 423.959837 -541.721132 
L 415.268135 -536.884521 
z
" id="m579b20add4" style="stroke:#33b07a;stroke-opacity:0.1;"/>
    </defs>
    <g clip-path="url(#pdeee4aad6c)">
     <use style="fill:#33b07a;fill-opacity:0.1;stroke:#33b07a;stroke-opacity:0.1;" x="0" xlink:href="#m579b20add4" y="648"/>
    </g>
   </g>
   <g id="PolyCollection_4">
    <defs>
     <path d="M 415.268135 -508.83467 
L 415.268135 -508.83467 
L 423.959837 -508.83467 
L 432.65154 -508.83467 
L 441.343242 -508.83467 
L 450.034944 -508.970197 
L 458.726647 -509.231475 
L 458.726647 -517.151369 
L 458.726647 -517.151369 
L 450.034944 -515.578093 
L 441.343242 -513.993834 
L 432.65154 -512.191964 
L 423.959837 -510.653978 
L 415.268135 -508.83467 
z
" id="me364faf8c4" style="stroke:#38a9c5;stroke-opacity:0.1;"/>
    </defs>
    <g clip-path="url(#pdeee4aad6c)">
     <use style="fill:#38a9c5;fill-opacity:0.1;stroke:#38a9c5;stroke-opacity:0.1;" x="0" xlink:href="#me364faf8c4" y="648"/>
    </g>
   </g>
   <g id="PolyCollection_5">
    <defs>
     <path d="M 415.268135 -502.153132 
L 415.268135 -502.153132 
L 423.959837 -502.153132 
L 432.65154 -502.556251 
L 441.343242 -503.35292 
L 450.034944 -503.825753 
L 458.726647 -504.502242 
L 458.726647 -511.138052 
L 458.726647 -511.138052 
L 450.034944 -509.521958 
L 441.343242 -507.715283 
L 432.65154 -506.287627 
L 423.959837 -504.415376 
L 415.268135 -502.153132 
z
" id="m0435c0cfd5" style="stroke:#cc7af4;stroke-opacity:0.1;"/>
    </defs>
    <g clip-path="url(#pdeee4aad6c)">
     <use style="fill:#cc7af4;fill-opacity:0.1;stroke:#cc7af4;stroke-opacity:0.1;" x="0" xlink:href="#m0435c0cfd5" y="648"/>
    </g>
   </g>
   <g id="matplotlib.axis_1">
    <g id="xtick_1">
     <g id="line2d_1">
      <defs>
       <path d="M 0 0 
L 0 3.5 
" id="m3e9dd8a83c" style="stroke:#ffffff;stroke-width:0.8;"/>
      </defs>
      <g>
       <use style="fill:#ffffff;stroke:#ffffff;stroke-width:0.8;" x="76.291745" xlink:href="#m3e9dd8a83c" y="190.626667"/>
      </g>
     </g>
     <g id="text_1">
      <!-- 3/22 -->
      <defs>
       <path d="M 40.578125 39.3125 
Q 47.65625 37.796875 51.625 33 
Q 55.609375 28.21875 55.609375 21.1875 
Q 55.609375 10.40625 48.1875 4.484375 
Q 40.765625 -1.421875 27.09375 -1.421875 
Q 22.515625 -1.421875 17.65625 -0.515625 
Q 12.796875 0.390625 7.625 2.203125 
L 7.625 11.71875 
Q 11.71875 9.328125 16.59375 8.109375 
Q 21.484375 6.890625 26.8125 6.890625 
Q 36.078125 6.890625 40.9375 10.546875 
Q 45.796875 14.203125 45.796875 21.1875 
Q 45.796875 27.640625 41.28125 31.265625 
Q 36.765625 34.90625 28.71875 34.90625 
L 20.21875 34.90625 
L 20.21875 43.015625 
L 29.109375 43.015625 
Q 36.375 43.015625 40.234375 45.921875 
Q 44.09375 48.828125 44.09375 54.296875 
Q 44.09375 59.90625 40.109375 62.90625 
Q 36.140625 65.921875 28.71875 65.921875 
Q 24.65625 65.921875 20.015625 65.03125 
Q 15.375 64.15625 9.8125 62.3125 
L 9.8125 71.09375 
Q 15.4375 72.65625 20.34375 73.4375 
Q 25.25 74.21875 29.59375 74.21875 
Q 40.828125 74.21875 47.359375 69.109375 
Q 53.90625 64.015625 53.90625 55.328125 
Q 53.90625 49.265625 50.4375 45.09375 
Q 46.96875 40.921875 40.578125 39.3125 
z
" id="DejaVuSans-51"/>
       <path d="M 25.390625 72.90625 
L 33.6875 72.90625 
L 8.296875 -9.28125 
L 0 -9.28125 
z
" id="DejaVuSans-47"/>
       <path d="M 19.1875 8.296875 
L 53.609375 8.296875 
L 53.609375 0 
L 7.328125 0 
L 7.328125 8.296875 
Q 12.9375 14.109375 22.625 23.890625 
Q 32.328125 33.6875 34.8125 36.53125 
Q 39.546875 41.84375 41.421875 45.53125 
Q 43.3125 49.21875 43.3125 52.78125 
Q 43.3125 58.59375 39.234375 62.25 
Q 35.15625 65.921875 28.609375 65.921875 
Q 23.96875 65.921875 18.8125 64.3125 
Q 13.671875 62.703125 7.8125 59.421875 
L 7.8125 69.390625 
Q 13.765625 71.78125 18.9375 73 
Q 24.125 74.21875 28.421875 74.21875 
Q 39.75 74.21875 46.484375 68.546875 
Q 53.21875 62.890625 53.21875 53.421875 
Q 53.21875 48.921875 51.53125 44.890625 
Q 49.859375 40.875 45.40625 35.40625 
Q 44.1875 33.984375 37.640625 27.21875 
Q 31.109375 20.453125 19.1875 8.296875 
z
" id="DejaVuSans-50"/>
      </defs>
      <g style="fill:#ffffff;" transform="translate(65.06362 205.225104)scale(0.1 -0.1)">
       <use xlink:href="#DejaVuSans-51"/>
       <use x="63.623047" xlink:href="#DejaVuSans-47"/>
       <use x="97.314453" xlink:href="#DejaVuSans-50"/>
       <use x="160.9375" xlink:href="#DejaVuSans-50"/>
      </g>
     </g>
    </g>
    <g id="xtick_2">
     <g id="line2d_2">
      <g>
       <use style="fill:#ffffff;stroke:#ffffff;stroke-width:0.8;" x="415.268135" xlink:href="#m3e9dd8a83c" y="190.626667"/>
      </g>
     </g>
     <g id="text_2">
      <!-- 5/1 -->
      <defs>
       <path d="M 10.796875 72.90625 
L 49.515625 72.90625 
L 49.515625 64.59375 
L 19.828125 64.59375 
L 19.828125 46.734375 
Q 21.96875 47.46875 24.109375 47.828125 
Q 26.265625 48.1875 28.421875 48.1875 
Q 40.625 48.1875 47.75 41.5 
Q 54.890625 34.8125 54.890625 23.390625 
Q 54.890625 11.625 47.5625 5.09375 
Q 40.234375 -1.421875 26.90625 -1.421875 
Q 22.3125 -1.421875 17.546875 -0.640625 
Q 12.796875 0.140625 7.71875 1.703125 
L 7.71875 11.625 
Q 12.109375 9.234375 16.796875 8.0625 
Q 21.484375 6.890625 26.703125 6.890625 
Q 35.15625 6.890625 40.078125 11.328125 
Q 45.015625 15.765625 45.015625 23.390625 
Q 45.015625 31 40.078125 35.4375 
Q 35.15625 39.890625 26.703125 39.890625 
Q 22.75 39.890625 18.8125 39.015625 
Q 14.890625 38.140625 10.796875 36.28125 
z
" id="DejaVuSans-53"/>
       <path d="M 12.40625 8.296875 
L 28.515625 8.296875 
L 28.515625 63.921875 
L 10.984375 60.40625 
L 10.984375 69.390625 
L 28.421875 72.90625 
L 38.28125 72.90625 
L 38.28125 8.296875 
L 54.390625 8.296875 
L 54.390625 0 
L 12.40625 0 
z
" id="DejaVuSans-49"/>
      </defs>
      <g style="fill:#ffffff;" transform="translate(407.22126 205.225104)scale(0.1 -0.1)">
       <use xlink:href="#DejaVuSans-53"/>
       <use x="63.623047" xlink:href="#DejaVuSans-47"/>
       <use x="97.314453" xlink:href="#DejaVuSans-49"/>
      </g>
     </g>
    </g>
    <g id="xtick_3">
     <g id="line2d_3">
      <g>
       <use style="fill:#ffffff;stroke:#ffffff;stroke-width:0.8;" x="458.726647" xlink:href="#m3e9dd8a83c" y="190.626667"/>
      </g>
     </g>
     <g id="text_3">
      <!-- 5/6 -->
      <defs>
       <path d="M 33.015625 40.375 
Q 26.375 40.375 22.484375 35.828125 
Q 18.609375 31.296875 18.609375 23.390625 
Q 18.609375 15.53125 22.484375 10.953125 
Q 26.375 6.390625 33.015625 6.390625 
Q 39.65625 6.390625 43.53125 10.953125 
Q 47.40625 15.53125 47.40625 23.390625 
Q 47.40625 31.296875 43.53125 35.828125 
Q 39.65625 40.375 33.015625 40.375 
z
M 52.59375 71.296875 
L 52.59375 62.3125 
Q 48.875 64.0625 45.09375 64.984375 
Q 41.3125 65.921875 37.59375 65.921875 
Q 27.828125 65.921875 22.671875 59.328125 
Q 17.53125 52.734375 16.796875 39.40625 
Q 19.671875 43.65625 24.015625 45.921875 
Q 28.375 48.1875 33.59375 48.1875 
Q 44.578125 48.1875 50.953125 41.515625 
Q 57.328125 34.859375 57.328125 23.390625 
Q 57.328125 12.15625 50.6875 5.359375 
Q 44.046875 -1.421875 33.015625 -1.421875 
Q 20.359375 -1.421875 13.671875 8.265625 
Q 6.984375 17.96875 6.984375 36.375 
Q 6.984375 53.65625 15.1875 63.9375 
Q 23.390625 74.21875 37.203125 74.21875 
Q 40.921875 74.21875 44.703125 73.484375 
Q 48.484375 72.75 52.59375 71.296875 
z
" id="DejaVuSans-54"/>
      </defs>
      <g style="fill:#ffffff;" transform="translate(450.679772 205.225104)scale(0.1 -0.1)">
       <use xlink:href="#DejaVuSans-53"/>
       <use x="63.623047" xlink:href="#DejaVuSans-47"/>
       <use x="97.314453" xlink:href="#DejaVuSans-54"/>
      </g>
     </g>
    </g>
   </g>
   <g id="matplotlib.axis_2">
    <g id="ytick_1">
     <g id="line2d_4">
      <defs>
       <path d="M 0 0 
L -3.5 0 
" id="mc96fe16b5a" style="stroke:#ffffff;stroke-width:0.8;"/>
      </defs>
      <g>
       <use style="fill:#ffffff;stroke:#ffffff;stroke-width:0.8;" x="57.17" xlink:href="#mc96fe16b5a" y="183.288692"/>
      </g>
     </g>
     <g id="text_4">
      <!-- 0 -->
      <defs>
       <path d="M 31.78125 66.40625 
Q 24.171875 66.40625 20.328125 58.90625 
Q 16.5 51.421875 16.5 36.375 
Q 16.5 21.390625 20.328125 13.890625 
Q 24.171875 6.390625 31.78125 6.390625 
Q 39.453125 6.390625 43.28125 13.890625 
Q 47.125 21.390625 47.125 36.375 
Q 47.125 51.421875 43.28125 58.90625 
Q 39.453125 66.40625 31.78125 66.40625 
z
M 31.78125 74.21875 
Q 44.046875 74.21875 50.515625 64.515625 
Q 56.984375 54.828125 56.984375 36.375 
Q 56.984375 17.96875 50.515625 8.265625 
Q 44.046875 -1.421875 31.78125 -1.421875 
Q 19.53125 -1.421875 13.0625 8.265625 
Q 6.59375 17.96875 6.59375 36.375 
Q 6.59375 54.828125 13.0625 64.515625 
Q 19.53125 74.21875 31.78125 74.21875 
z
" id="DejaVuSans-48"/>
      </defs>
      <g style="fill:#ffffff;" transform="translate(43.8075 187.087911)scale(0.1 -0.1)">
       <use xlink:href="#DejaVuSans-48"/>
      </g>
     </g>
    </g>
    <g id="ytick_2">
     <g id="line2d_5">
      <g>
       <use style="fill:#ffffff;stroke:#ffffff;stroke-width:0.8;" x="57.17" xlink:href="#mc96fe16b5a" y="162.277567"/>
      </g>
     </g>
     <g id="text_5">
      <!-- 1000 -->
      <g style="fill:#ffffff;" transform="translate(24.72 166.076786)scale(0.1 -0.1)">
       <use xlink:href="#DejaVuSans-49"/>
       <use x="63.623047" xlink:href="#DejaVuSans-48"/>
       <use x="127.246094" xlink:href="#DejaVuSans-48"/>
       <use x="190.869141" xlink:href="#DejaVuSans-48"/>
      </g>
     </g>
    </g>
    <g id="ytick_3">
     <g id="line2d_6">
      <g>
       <use style="fill:#ffffff;stroke:#ffffff;stroke-width:0.8;" x="57.17" xlink:href="#mc96fe16b5a" y="141.266443"/>
      </g>
     </g>
     <g id="text_6">
      <!-- 2000 -->
      <g style="fill:#ffffff;" transform="translate(24.72 145.065661)scale(0.1 -0.1)">
       <use xlink:href="#DejaVuSans-50"/>
       <use x="63.623047" xlink:href="#DejaVuSans-48"/>
       <use x="127.246094" xlink:href="#DejaVuSans-48"/>
       <use x="190.869141" xlink:href="#DejaVuSans-48"/>
      </g>
     </g>
    </g>
    <g id="ytick_4">
     <g id="line2d_7">
      <g>
       <use style="fill:#ffffff;stroke:#ffffff;stroke-width:0.8;" x="57.17" xlink:href="#mc96fe16b5a" y="120.255318"/>
      </g>
     </g>
     <g id="text_7">
      <!-- 3000 -->
      <g style="fill:#ffffff;" transform="translate(24.72 124.054537)scale(0.1 -0.1)">
       <use xlink:href="#DejaVuSans-51"/>
       <use x="63.623047" xlink:href="#DejaVuSans-48"/>
       <use x="127.246094" xlink:href="#DejaVuSans-48"/>
       <use x="190.869141" xlink:href="#DejaVuSans-48"/>
      </g>
     </g>
    </g>
    <g id="ytick_5">
     <g id="line2d_8">
      <g>
       <use style="fill:#ffffff;stroke:#ffffff;stroke-width:0.8;" x="57.17" xlink:href="#mc96fe16b5a" y="99.244193"/>
      </g>
     </g>
     <g id="text_8">
      <!-- 4000 -->
      <defs>
       <path d="M 37.796875 64.3125 
L 12.890625 25.390625 
L 37.796875 25.390625 
z
M 35.203125 72.90625 
L 47.609375 72.90625 
L 47.609375 25.390625 
L 58.015625 25.390625 
L 58.015625 17.1875 
L 47.609375 17.1875 
L 47.609375 0 
L 37.796875 0 
L 37.796875 17.1875 
L 4.890625 17.1875 
L 4.890625 26.703125 
z
" id="DejaVuSans-52"/>
      </defs>
      <g style="fill:#ffffff;" transform="translate(24.72 103.043412)scale(0.1 -0.1)">
       <use xlink:href="#DejaVuSans-52"/>
       <use x="63.623047" xlink:href="#DejaVuSans-48"/>
       <use x="127.246094" xlink:href="#DejaVuSans-48"/>
       <use x="190.869141" xlink:href="#DejaVuSans-48"/>
      </g>
     </g>
    </g>
    <g id="ytick_6">
     <g id="line2d_9">
      <g>
       <use style="fill:#ffffff;stroke:#ffffff;stroke-width:0.8;" x="57.17" xlink:href="#mc96fe16b5a" y="78.233068"/>
      </g>
     </g>
     <g id="text_9">
      <!-- 5000 -->
      <g style="fill:#ffffff;" transform="translate(24.72 82.032287)scale(0.1 -0.1)">
       <use xlink:href="#DejaVuSans-53"/>
       <use x="63.623047" xlink:href="#DejaVuSans-48"/>
       <use x="127.246094" xlink:href="#DejaVuSans-48"/>
       <use x="190.869141" xlink:href="#DejaVuSans-48"/>
      </g>
     </g>
    </g>
    <g id="ytick_7">
     <g id="line2d_10">
      <g>
       <use style="fill:#ffffff;stroke:#ffffff;stroke-width:0.8;" x="57.17" xlink:href="#mc96fe16b5a" y="57.221944"/>
      </g>
     </g>
     <g id="text_10">
      <!-- 6000 -->
      <g style="fill:#ffffff;" transform="translate(24.72 61.021162)scale(0.1 -0.1)">
       <use xlink:href="#DejaVuSans-54"/>
       <use x="63.623047" xlink:href="#DejaVuSans-48"/>
       <use x="127.246094" xlink:href="#DejaVuSans-48"/>
       <use x="190.869141" xlink:href="#DejaVuSans-48"/>
      </g>
     </g>
    </g>
    <g id="ytick_8">
     <g id="line2d_11">
      <g>
       <use style="fill:#ffffff;stroke:#ffffff;stroke-width:0.8;" x="57.17" xlink:href="#mc96fe16b5a" y="36.210819"/>
      </g>
     </g>
     <g id="text_11">
      <!-- 7000 -->
      <defs>
       <path d="M 8.203125 72.90625 
L 55.078125 72.90625 
L 55.078125 68.703125 
L 28.609375 0 
L 18.3125 0 
L 43.21875 64.59375 
L 8.203125 64.59375 
z
" id="DejaVuSans-55"/>
      </defs>
      <g style="fill:#ffffff;" transform="translate(24.72 40.010038)scale(0.1 -0.1)">
       <use xlink:href="#DejaVuSans-55"/>
       <use x="63.623047" xlink:href="#DejaVuSans-48"/>
       <use x="127.246094" xlink:href="#DejaVuSans-48"/>
       <use x="190.869141" xlink:href="#DejaVuSans-48"/>
      </g>
     </g>
    </g>
    <g id="text_12">
     <!-- Cumulative deaths -->
     <defs>
      <path d="M 64.40625 67.28125 
L 64.40625 56.890625 
Q 59.421875 61.53125 53.78125 63.8125 
Q 48.140625 66.109375 41.796875 66.109375 
Q 29.296875 66.109375 22.65625 58.46875 
Q 16.015625 50.828125 16.015625 36.375 
Q 16.015625 21.96875 22.65625 14.328125 
Q 29.296875 6.6875 41.796875 6.6875 
Q 48.140625 6.6875 53.78125 8.984375 
Q 59.421875 11.28125 64.40625 15.921875 
L 64.40625 5.609375 
Q 59.234375 2.09375 53.4375 0.328125 
Q 47.65625 -1.421875 41.21875 -1.421875 
Q 24.65625 -1.421875 15.125 8.703125 
Q 5.609375 18.84375 5.609375 36.375 
Q 5.609375 53.953125 15.125 64.078125 
Q 24.65625 74.21875 41.21875 74.21875 
Q 47.75 74.21875 53.53125 72.484375 
Q 59.328125 70.75 64.40625 67.28125 
z
" id="DejaVuSans-67"/>
      <path d="M 8.5 21.578125 
L 8.5 54.6875 
L 17.484375 54.6875 
L 17.484375 21.921875 
Q 17.484375 14.15625 20.5 10.265625 
Q 23.53125 6.390625 29.59375 6.390625 
Q 36.859375 6.390625 41.078125 11.03125 
Q 45.3125 15.671875 45.3125 23.6875 
L 45.3125 54.6875 
L 54.296875 54.6875 
L 54.296875 0 
L 45.3125 0 
L 45.3125 8.40625 
Q 42.046875 3.421875 37.71875 1 
Q 33.40625 -1.421875 27.6875 -1.421875 
Q 18.265625 -1.421875 13.375 4.4375 
Q 8.5 10.296875 8.5 21.578125 
z
M 31.109375 56 
z
" id="DejaVuSans-117"/>
      <path d="M 52 44.1875 
Q 55.375 50.25 60.0625 53.125 
Q 64.75 56 71.09375 56 
Q 79.640625 56 84.28125 50.015625 
Q 88.921875 44.046875 88.921875 33.015625 
L 88.921875 0 
L 79.890625 0 
L 79.890625 32.71875 
Q 79.890625 40.578125 77.09375 44.375 
Q 74.3125 48.1875 68.609375 48.1875 
Q 61.625 48.1875 57.5625 43.546875 
Q 53.515625 38.921875 53.515625 30.90625 
L 53.515625 0 
L 44.484375 0 
L 44.484375 32.71875 
Q 44.484375 40.625 41.703125 44.40625 
Q 38.921875 48.1875 33.109375 48.1875 
Q 26.21875 48.1875 22.15625 43.53125 
Q 18.109375 38.875 18.109375 30.90625 
L 18.109375 0 
L 9.078125 0 
L 9.078125 54.6875 
L 18.109375 54.6875 
L 18.109375 46.1875 
Q 21.1875 51.21875 25.484375 53.609375 
Q 29.78125 56 35.6875 56 
Q 41.65625 56 45.828125 52.96875 
Q 50 49.953125 52 44.1875 
z
" id="DejaVuSans-109"/>
      <path d="M 9.421875 75.984375 
L 18.40625 75.984375 
L 18.40625 0 
L 9.421875 0 
z
" id="DejaVuSans-108"/>
      <path d="M 34.28125 27.484375 
Q 23.390625 27.484375 19.1875 25 
Q 14.984375 22.515625 14.984375 16.5 
Q 14.984375 11.71875 18.140625 8.90625 
Q 21.296875 6.109375 26.703125 6.109375 
Q 34.1875 6.109375 38.703125 11.40625 
Q 43.21875 16.703125 43.21875 25.484375 
L 43.21875 27.484375 
z
M 52.203125 31.203125 
L 52.203125 0 
L 43.21875 0 
L 43.21875 8.296875 
Q 40.140625 3.328125 35.546875 0.953125 
Q 30.953125 -1.421875 24.3125 -1.421875 
Q 15.921875 -1.421875 10.953125 3.296875 
Q 6 8.015625 6 15.921875 
Q 6 25.140625 12.171875 29.828125 
Q 18.359375 34.515625 30.609375 34.515625 
L 43.21875 34.515625 
L 43.21875 35.40625 
Q 43.21875 41.609375 39.140625 45 
Q 35.0625 48.390625 27.6875 48.390625 
Q 23 48.390625 18.546875 47.265625 
Q 14.109375 46.140625 10.015625 43.890625 
L 10.015625 52.203125 
Q 14.9375 54.109375 19.578125 55.046875 
Q 24.21875 56 28.609375 56 
Q 40.484375 56 46.34375 49.84375 
Q 52.203125 43.703125 52.203125 31.203125 
z
" id="DejaVuSans-97"/>
      <path d="M 18.3125 70.21875 
L 18.3125 54.6875 
L 36.8125 54.6875 
L 36.8125 47.703125 
L 18.3125 47.703125 
L 18.3125 18.015625 
Q 18.3125 11.328125 20.140625 9.421875 
Q 21.96875 7.515625 27.59375 7.515625 
L 36.8125 7.515625 
L 36.8125 0 
L 27.59375 0 
Q 17.1875 0 13.234375 3.875 
Q 9.28125 7.765625 9.28125 18.015625 
L 9.28125 47.703125 
L 2.6875 47.703125 
L 2.6875 54.6875 
L 9.28125 54.6875 
L 9.28125 70.21875 
z
" id="DejaVuSans-116"/>
      <path d="M 9.421875 54.6875 
L 18.40625 54.6875 
L 18.40625 0 
L 9.421875 0 
z
M 9.421875 75.984375 
L 18.40625 75.984375 
L 18.40625 64.59375 
L 9.421875 64.59375 
z
" id="DejaVuSans-105"/>
      <path d="M 2.984375 54.6875 
L 12.5 54.6875 
L 29.59375 8.796875 
L 46.6875 54.6875 
L 56.203125 54.6875 
L 35.6875 0 
L 23.484375 0 
z
" id="DejaVuSans-118"/>
      <path d="M 56.203125 29.59375 
L 56.203125 25.203125 
L 14.890625 25.203125 
Q 15.484375 15.921875 20.484375 11.0625 
Q 25.484375 6.203125 34.421875 6.203125 
Q 39.59375 6.203125 44.453125 7.46875 
Q 49.3125 8.734375 54.109375 11.28125 
L 54.109375 2.78125 
Q 49.265625 0.734375 44.1875 -0.34375 
Q 39.109375 -1.421875 33.890625 -1.421875 
Q 20.796875 -1.421875 13.15625 6.1875 
Q 5.515625 13.8125 5.515625 26.8125 
Q 5.515625 40.234375 12.765625 48.109375 
Q 20.015625 56 32.328125 56 
Q 43.359375 56 49.78125 48.890625 
Q 56.203125 41.796875 56.203125 29.59375 
z
M 47.21875 32.234375 
Q 47.125 39.59375 43.09375 43.984375 
Q 39.0625 48.390625 32.421875 48.390625 
Q 24.90625 48.390625 20.390625 44.140625 
Q 15.875 39.890625 15.1875 32.171875 
z
" id="DejaVuSans-101"/>
      <path id="DejaVuSans-32"/>
      <path d="M 45.40625 46.390625 
L 45.40625 75.984375 
L 54.390625 75.984375 
L 54.390625 0 
L 45.40625 0 
L 45.40625 8.203125 
Q 42.578125 3.328125 38.25 0.953125 
Q 33.9375 -1.421875 27.875 -1.421875 
Q 17.96875 -1.421875 11.734375 6.484375 
Q 5.515625 14.40625 5.515625 27.296875 
Q 5.515625 40.1875 11.734375 48.09375 
Q 17.96875 56 27.875 56 
Q 33.9375 56 38.25 53.625 
Q 42.578125 51.265625 45.40625 46.390625 
z
M 14.796875 27.296875 
Q 14.796875 17.390625 18.875 11.75 
Q 22.953125 6.109375 30.078125 6.109375 
Q 37.203125 6.109375 41.296875 11.75 
Q 45.40625 17.390625 45.40625 27.296875 
Q 45.40625 37.203125 41.296875 42.84375 
Q 37.203125 48.484375 30.078125 48.484375 
Q 22.953125 48.484375 18.875 42.84375 
Q 14.796875 37.203125 14.796875 27.296875 
z
" id="DejaVuSans-100"/>
      <path d="M 54.890625 33.015625 
L 54.890625 0 
L 45.90625 0 
L 45.90625 32.71875 
Q 45.90625 40.484375 42.875 44.328125 
Q 39.84375 48.1875 33.796875 48.1875 
Q 26.515625 48.1875 22.3125 43.546875 
Q 18.109375 38.921875 18.109375 30.90625 
L 18.109375 0 
L 9.078125 0 
L 9.078125 75.984375 
L 18.109375 75.984375 
L 18.109375 46.1875 
Q 21.34375 51.125 25.703125 53.5625 
Q 30.078125 56 35.796875 56 
Q 45.21875 56 50.046875 50.171875 
Q 54.890625 44.34375 54.890625 33.015625 
z
" id="DejaVuSans-104"/>
      <path d="M 44.28125 53.078125 
L 44.28125 44.578125 
Q 40.484375 46.53125 36.375 47.5 
Q 32.28125 48.484375 27.875 48.484375 
Q 21.1875 48.484375 17.84375 46.4375 
Q 14.5 44.390625 14.5 40.28125 
Q 14.5 37.15625 16.890625 35.375 
Q 19.28125 33.59375 26.515625 31.984375 
L 29.59375 31.296875 
Q 39.15625 29.25 43.1875 25.515625 
Q 47.21875 21.78125 47.21875 15.09375 
Q 47.21875 7.46875 41.1875 3.015625 
Q 35.15625 -1.421875 24.609375 -1.421875 
Q 20.21875 -1.421875 15.453125 -0.5625 
Q 10.6875 0.296875 5.421875 2 
L 5.421875 11.28125 
Q 10.40625 8.6875 15.234375 7.390625 
Q 20.0625 6.109375 24.8125 6.109375 
Q 31.15625 6.109375 34.5625 8.28125 
Q 37.984375 10.453125 37.984375 14.40625 
Q 37.984375 18.0625 35.515625 20.015625 
Q 33.0625 21.96875 24.703125 23.78125 
L 21.578125 24.515625 
Q 13.234375 26.265625 9.515625 29.90625 
Q 5.8125 33.546875 5.8125 39.890625 
Q 5.8125 47.609375 11.28125 51.796875 
Q 16.75 56 26.8125 56 
Q 31.78125 56 36.171875 55.265625 
Q 40.578125 54.546875 44.28125 53.078125 
z
" id="DejaVuSans-115"/>
     </defs>
     <g style="fill:#ffffff;" transform="translate(18.640313 155.928333)rotate(-90)scale(0.1 -0.1)">
      <use xlink:href="#DejaVuSans-67"/>
      <use x="69.824219" xlink:href="#DejaVuSans-117"/>
      <use x="133.203125" xlink:href="#DejaVuSans-109"/>
      <use x="230.615234" xlink:href="#DejaVuSans-117"/>
      <use x="293.994141" xlink:href="#DejaVuSans-108"/>
      <use x="321.777344" xlink:href="#DejaVuSans-97"/>
      <use x="383.056641" xlink:href="#DejaVuSans-116"/>
      <use x="422.265625" xlink:href="#DejaVuSans-105"/>
      <use x="450.048828" xlink:href="#DejaVuSans-118"/>
      <use x="509.228516" xlink:href="#DejaVuSans-101"/>
      <use x="570.751953" xlink:href="#DejaVuSans-32"/>
      <use x="602.539062" xlink:href="#DejaVuSans-100"/>
      <use x="666.015625" xlink:href="#DejaVuSans-101"/>
      <use x="727.539062" xlink:href="#DejaVuSans-97"/>
      <use x="788.818359" xlink:href="#DejaVuSans-116"/>
      <use x="828.027344" xlink:href="#DejaVuSans-104"/>
      <use x="891.40625" xlink:href="#DejaVuSans-115"/>
     </g>
    </g>
   </g>
   <g id="line2d_12">
    <path clip-path="url(#pdeee4aad6c)" d="M 76.291745 182.994536 
L 84.983447 182.721392 
L 93.67515 182.343191 
L 102.366852 181.94398 
L 111.058554 181.586791 
L 119.750257 181.145557 
L 128.441959 179.779834 
L 137.133661 179.401634 
L 145.825364 178.7713 
L 154.517066 177.804788 
L 163.208768 176.397043 
L 171.90047 175.199409 
L 180.592173 173.098296 
L 189.283875 170.471906 
L 197.975577 164.462724 
L 206.66728 161.815323 
L 215.358982 159.062865 
L 224.050684 155.701085 
L 232.742387 152.339305 
L 241.434089 148.830447 
L 250.125791 144.565189 
L 258.817494 140.678131 
L 267.509196 138.492974 
L 276.200898 117.019605 
L 284.892601 113.174569 
L 293.584303 110.254022 
L 302.276005 108.173921 
L 310.967707 107.396509 
L 319.65941 98.676893 
L 328.351112 95.504213 
L 337.042814 91.932322 
L 345.734517 88.486497 
L 354.426219 85.628984 
L 363.117921 82.582371 
L 371.809624 78.695313 
L 380.501326 76.657234 
L 389.193028 74.787244 
L 397.884731 72.328942 
L 406.576433 71.257375 
L 415.268135 70.03873 
" style="fill:none;stroke:#f77189;stroke-linecap:square;stroke-width:1.5;"/>
   </g>
   <g id="line2d_13">
    <path clip-path="url(#pdeee4aad6c)" d="M 415.268135 70.03873 
L 423.959837 66.15343 
L 432.65154 62.30745 
L 441.343242 58.334353 
L 450.034944 54.309798 
L 458.726647 50.399292 
" style="fill:none;stroke:#f77189;stroke-dasharray:1.5,2.475;stroke-dashoffset:0;stroke-width:1.5;"/>
   </g>
   <g id="line2d_14">
    <path clip-path="url(#pdeee4aad6c)" d="M 76.291745 182.847458 
L 84.983447 182.448247 
L 93.67515 182.028025 
L 102.366852 181.355669 
L 111.058554 180.683313 
L 119.750257 180.158034 
L 128.441959 178.750289 
L 137.133661 177.972877 
L 145.825364 176.880299 
L 154.517066 175.388509 
L 163.208768 173.896719 
L 171.90047 172.804141 
L 180.592173 170.892128 
L 189.283875 168.896072 
L 197.975577 166.206648 
L 206.66728 163.370146 
L 215.358982 159.567132 
L 224.050684 155.04974 
L 232.742387 153.873117 
L 241.434089 146.330124 
L 250.125791 144.460133 
L 258.817494 138.829152 
L 267.509196 138.829152 
L 276.200898 121.347896 
L 284.892601 115.885004 
L 293.584303 112.733335 
L 302.276005 111.304579 
L 310.967707 110.464134 
L 319.65941 101.80755 
L 328.351112 98.697904 
L 337.042814 94.957924 
L 345.734517 91.995355 
L 354.426219 89.516042 
L 363.117921 87.246841 
L 371.809624 84.05315 
L 380.501326 82.435293 
L 389.193028 80.964515 
L 397.884731 78.590257 
L 406.576433 76.76229 
L 415.268135 75.0814 
" style="fill:none;stroke:#ae9d31;stroke-linecap:square;stroke-width:1.5;"/>
   </g>
   <g id="line2d_15">
    <path clip-path="url(#pdeee4aad6c)" d="M 415.268135 75.0814 
L 423.959837 70.846166 
L 432.65154 66.639268 
L 441.343242 62.357252 
L 450.034944 58.095291 
L 458.726647 54.031577 
" style="fill:none;stroke:#ae9d31;stroke-dasharray:1.5,2.475;stroke-dashoffset:0;stroke-width:1.5;"/>
   </g>
   <g id="line2d_16">
    <path clip-path="url(#pdeee4aad6c)" d="M 76.291745 182.994536 
L 84.983447 182.70038 
L 93.67515 182.364202 
L 102.366852 182.028025 
L 111.058554 181.628813 
L 119.750257 181.166568 
L 128.441959 180.095001 
L 137.133661 179.338601 
L 145.825364 178.7713 
L 154.517066 177.783777 
L 163.208768 175.724687 
L 171.90047 174.443008 
L 180.592173 173.203352 
L 189.283875 171.186284 
L 197.975577 170.114717 
L 206.66728 168.391805 
L 215.358982 164.336657 
L 224.050684 162.256556 
L 232.742387 161.311056 
L 241.434089 157.213886 
L 250.125791 155.806141 
L 258.817494 153.873117 
L 267.509196 153.158739 
L 276.200898 141.140376 
L 284.892601 138.05174 
L 293.584303 136.496917 
L 302.276005 135.215239 
L 310.967707 134.921083 
L 319.65941 128.953923 
L 328.351112 127.125956 
L 337.042814 125.045854 
L 345.734517 122.797664 
L 354.426219 120.255318 
L 363.117921 118.679483 
L 371.809624 116.662415 
L 380.501326 115.716915 
L 389.193028 114.267147 
L 397.884731 112.754346 
L 406.576433 111.850868 
L 415.268135 111.115479 
" style="fill:none;stroke:#33b07a;stroke-linecap:square;stroke-width:1.5;"/>
   </g>
   <g id="line2d_17">
    <path clip-path="url(#pdeee4aad6c)" d="M 415.268135 111.115479 
L 423.959837 108.284709 
L 432.65154 105.473081 
L 441.343242 102.593334 
L 450.034944 99.7161 
L 458.726647 96.963334 
" style="fill:none;stroke:#33b07a;stroke-dasharray:1.5,2.475;stroke-dashoffset:0;stroke-width:1.5;"/>
   </g>
   <g id="line2d_18">
    <path clip-path="url(#pdeee4aad6c)" d="M 76.291745 183.078581 
L 84.983447 182.889481 
L 93.67515 182.553303 
L 102.366852 182.385214 
L 111.058554 182.13308 
L 119.750257 181.922969 
L 128.441959 181.334657 
L 137.133661 181.124546 
L 145.825364 180.788368 
L 154.517066 180.578257 
L 163.208768 179.821856 
L 171.90047 179.548712 
L 180.592173 178.7713 
L 189.283875 177.741755 
L 197.975577 175.094353 
L 206.66728 174.127842 
L 215.358982 172.509985 
L 224.050684 170.597973 
L 232.742387 169.127194 
L 241.434089 167.92956 
L 250.125791 166.500803 
L 258.817494 165.450247 
L 267.509196 165.450247 
L 276.200898 156.016252 
L 284.892601 155.575018 
L 293.584303 154.503451 
L 302.276005 153.852106 
L 310.967707 153.599973 
L 319.65941 150.322237 
L 328.351112 149.040559 
L 337.042814 147.94798 
L 345.734517 146.162035 
L 354.426219 145.216534 
L 363.117921 144.754289 
L 371.809624 142.274977 
L 380.501326 141.833743 
L 389.193028 141.287454 
L 397.884731 140.531053 
L 406.576433 140.005775 
L 415.268135 139.16533 
" style="fill:none;stroke:#38a9c5;stroke-linecap:square;stroke-width:1.5;"/>
   </g>
   <g id="line2d_19">
    <path clip-path="url(#pdeee4aad6c)" d="M 415.268135 139.16533 
L 423.959837 138.041525 
L 432.65154 136.927357 
L 441.343242 135.845047 
L 450.034944 134.848082 
L 458.726647 134.01835 
" style="fill:none;stroke:#38a9c5;stroke-dasharray:1.5,2.475;stroke-dashoffset:0;stroke-width:1.5;"/>
   </g>
   <g id="line2d_20">
    <path clip-path="url(#pdeee4aad6c)" d="M 76.291745 183.183636 
L 84.983447 183.120603 
L 93.67515 183.015547 
L 102.366852 182.847458 
L 111.058554 182.742403 
L 119.750257 182.51128 
L 128.441959 182.32218 
L 137.133661 182.112069 
L 145.825364 181.544769 
L 154.517066 180.767357 
L 163.208768 180.221068 
L 171.90047 179.212534 
L 180.592173 178.603211 
L 189.283875 177.993889 
L 197.975577 177.132432 
L 206.66728 176.018843 
L 215.358982 174.84222 
L 224.050684 173.91773 
L 232.742387 172.699085 
L 241.434089 170.492917 
L 250.125791 169.589439 
L 258.817494 168.49686 
L 267.509196 168.49686 
L 276.200898 166.05957 
L 284.892601 164.714858 
L 293.584303 162.676779 
L 302.276005 161.353078 
L 310.967707 160.806789 
L 319.65941 159.777243 
L 328.351112 159.167921 
L 337.042814 156.436475 
L 345.734517 155.575018 
L 354.426219 153.957162 
L 363.117921 152.969639 
L 371.809624 150.511337 
L 380.501326 150.091115 
L 389.193028 149.208648 
L 397.884731 147.94798 
L 406.576433 147.00248 
L 415.268135 145.846868 
" style="fill:none;stroke:#cc7af4;stroke-linecap:square;stroke-width:1.5;"/>
   </g>
   <g id="line2d_21">
    <path clip-path="url(#pdeee4aad6c)" d="M 415.268135 145.846868 
L 423.959837 144.696324 
L 432.65154 143.543914 
L 441.343242 142.362066 
L 450.034944 141.173458 
L 458.726647 140.042603 
" style="fill:none;stroke:#cc7af4;stroke-dasharray:1.5,2.475;stroke-dashoffset:0;stroke-width:1.5;"/>
   </g>
   <g id="patch_3">
    <path d="M 57.17 190.626667 
L 57.17 26.88 
" style="fill:none;stroke:#ffffff;stroke-linecap:square;stroke-linejoin:miter;stroke-width:0.8;"/>
   </g>
   <g id="patch_4">
    <path d="M 565.2 190.626667 
L 565.2 26.88 
" style="fill:none;stroke:#ffffff;stroke-linecap:square;stroke-linejoin:miter;stroke-width:0.8;"/>
   </g>
   <g id="patch_5">
    <path d="M 57.17 190.626667 
L 565.2 190.626667 
" style="fill:none;stroke:#ffffff;stroke-linecap:square;stroke-linejoin:miter;stroke-width:0.8;"/>
   </g>
   <g id="patch_6">
    <path d="M 57.17 26.88 
L 565.2 26.88 
" style="fill:none;stroke:#ffffff;stroke-linecap:square;stroke-linejoin:miter;stroke-width:0.8;"/>
   </g>
   <g id="text_13">
    <!-- Kings, NY -->
    <defs>
     <path d="M 9.8125 72.90625 
L 19.671875 72.90625 
L 19.671875 42.09375 
L 52.390625 72.90625 
L 65.09375 72.90625 
L 28.90625 38.921875 
L 67.671875 0 
L 54.6875 0 
L 19.671875 35.109375 
L 19.671875 0 
L 9.8125 0 
z
" id="DejaVuSans-75"/>
     <path d="M 54.890625 33.015625 
L 54.890625 0 
L 45.90625 0 
L 45.90625 32.71875 
Q 45.90625 40.484375 42.875 44.328125 
Q 39.84375 48.1875 33.796875 48.1875 
Q 26.515625 48.1875 22.3125 43.546875 
Q 18.109375 38.921875 18.109375 30.90625 
L 18.109375 0 
L 9.078125 0 
L 9.078125 54.6875 
L 18.109375 54.6875 
L 18.109375 46.1875 
Q 21.34375 51.125 25.703125 53.5625 
Q 30.078125 56 35.796875 56 
Q 45.21875 56 50.046875 50.171875 
Q 54.890625 44.34375 54.890625 33.015625 
z
" id="DejaVuSans-110"/>
     <path d="M 45.40625 27.984375 
Q 45.40625 37.75 41.375 43.109375 
Q 37.359375 48.484375 30.078125 48.484375 
Q 22.859375 48.484375 18.828125 43.109375 
Q 14.796875 37.75 14.796875 27.984375 
Q 14.796875 18.265625 18.828125 12.890625 
Q 22.859375 7.515625 30.078125 7.515625 
Q 37.359375 7.515625 41.375 12.890625 
Q 45.40625 18.265625 45.40625 27.984375 
z
M 54.390625 6.78125 
Q 54.390625 -7.171875 48.1875 -13.984375 
Q 42 -20.796875 29.203125 -20.796875 
Q 24.46875 -20.796875 20.265625 -20.09375 
Q 16.0625 -19.390625 12.109375 -17.921875 
L 12.109375 -9.1875 
Q 16.0625 -11.328125 19.921875 -12.34375 
Q 23.78125 -13.375 27.78125 -13.375 
Q 36.625 -13.375 41.015625 -8.765625 
Q 45.40625 -4.15625 45.40625 5.171875 
L 45.40625 9.625 
Q 42.625 4.78125 38.28125 2.390625 
Q 33.9375 0 27.875 0 
Q 17.828125 0 11.671875 7.65625 
Q 5.515625 15.328125 5.515625 27.984375 
Q 5.515625 40.671875 11.671875 48.328125 
Q 17.828125 56 27.875 56 
Q 33.9375 56 38.28125 53.609375 
Q 42.625 51.21875 45.40625 46.390625 
L 45.40625 54.6875 
L 54.390625 54.6875 
z
" id="DejaVuSans-103"/>
     <path d="M 11.71875 12.40625 
L 22.015625 12.40625 
L 22.015625 4 
L 14.015625 -11.625 
L 7.71875 -11.625 
L 11.71875 4 
z
" id="DejaVuSans-44"/>
     <path d="M 9.8125 72.90625 
L 23.09375 72.90625 
L 55.421875 11.921875 
L 55.421875 72.90625 
L 64.984375 72.90625 
L 64.984375 0 
L 51.703125 0 
L 19.390625 60.984375 
L 19.390625 0 
L 9.8125 0 
z
" id="DejaVuSans-78"/>
     <path d="M -0.203125 72.90625 
L 10.40625 72.90625 
L 30.609375 42.921875 
L 50.6875 72.90625 
L 61.28125 72.90625 
L 35.5 34.71875 
L 35.5 0 
L 25.59375 0 
L 25.59375 34.71875 
z
" id="DejaVuSans-89"/>
    </defs>
    <g style="fill:#f77189;" transform="translate(467.418349 47.957273)scale(0.08 -0.08)">
     <use xlink:href="#DejaVuSans-75"/>
     <use x="65.576172" xlink:href="#DejaVuSans-105"/>
     <use x="93.359375" xlink:href="#DejaVuSans-110"/>
     <use x="156.738281" xlink:href="#DejaVuSans-103"/>
     <use x="220.214844" xlink:href="#DejaVuSans-115"/>
     <use x="272.314453" xlink:href="#DejaVuSans-44"/>
     <use x="304.101562" xlink:href="#DejaVuSans-32"/>
     <use x="335.888672" xlink:href="#DejaVuSans-78"/>
     <use x="410.693359" xlink:href="#DejaVuSans-89"/>
    </g>
   </g>
   <g id="text_14">
    <!-- Queens, NY -->
    <defs>
     <path d="M 39.40625 66.21875 
Q 28.65625 66.21875 22.328125 58.203125 
Q 16.015625 50.203125 16.015625 36.375 
Q 16.015625 22.609375 22.328125 14.59375 
Q 28.65625 6.59375 39.40625 6.59375 
Q 50.140625 6.59375 56.421875 14.59375 
Q 62.703125 22.609375 62.703125 36.375 
Q 62.703125 50.203125 56.421875 58.203125 
Q 50.140625 66.21875 39.40625 66.21875 
z
M 53.21875 1.3125 
L 66.21875 -12.890625 
L 54.296875 -12.890625 
L 43.5 -1.21875 
Q 41.890625 -1.3125 41.03125 -1.359375 
Q 40.1875 -1.421875 39.40625 -1.421875 
Q 24.03125 -1.421875 14.8125 8.859375 
Q 5.609375 19.140625 5.609375 36.375 
Q 5.609375 53.65625 14.8125 63.9375 
Q 24.03125 74.21875 39.40625 74.21875 
Q 54.734375 74.21875 63.90625 63.9375 
Q 73.09375 53.65625 73.09375 36.375 
Q 73.09375 23.6875 67.984375 14.640625 
Q 62.890625 5.609375 53.21875 1.3125 
z
" id="DejaVuSans-81"/>
    </defs>
    <g style="fill:#ae9d31;" transform="translate(467.418349 60.888596)scale(0.08 -0.08)">
     <use xlink:href="#DejaVuSans-81"/>
     <use x="78.710938" xlink:href="#DejaVuSans-117"/>
     <use x="142.089844" xlink:href="#DejaVuSans-101"/>
     <use x="203.613281" xlink:href="#DejaVuSans-101"/>
     <use x="265.136719" xlink:href="#DejaVuSans-110"/>
     <use x="328.515625" xlink:href="#DejaVuSans-115"/>
     <use x="380.615234" xlink:href="#DejaVuSans-44"/>
     <use x="412.402344" xlink:href="#DejaVuSans-32"/>
     <use x="444.189453" xlink:href="#DejaVuSans-78"/>
     <use x="518.994141" xlink:href="#DejaVuSans-89"/>
    </g>
   </g>
   <g id="text_15">
    <!-- Bronx, NY -->
    <defs>
     <path d="M 19.671875 34.8125 
L 19.671875 8.109375 
L 35.5 8.109375 
Q 43.453125 8.109375 47.28125 11.40625 
Q 51.125 14.703125 51.125 21.484375 
Q 51.125 28.328125 47.28125 31.5625 
Q 43.453125 34.8125 35.5 34.8125 
z
M 19.671875 64.796875 
L 19.671875 42.828125 
L 34.28125 42.828125 
Q 41.5 42.828125 45.03125 45.53125 
Q 48.578125 48.25 48.578125 53.8125 
Q 48.578125 59.328125 45.03125 62.0625 
Q 41.5 64.796875 34.28125 64.796875 
z
M 9.8125 72.90625 
L 35.015625 72.90625 
Q 46.296875 72.90625 52.390625 68.21875 
Q 58.5 63.53125 58.5 54.890625 
Q 58.5 48.1875 55.375 44.234375 
Q 52.25 40.28125 46.1875 39.3125 
Q 53.46875 37.75 57.5 32.78125 
Q 61.53125 27.828125 61.53125 20.40625 
Q 61.53125 10.640625 54.890625 5.3125 
Q 48.25 0 35.984375 0 
L 9.8125 0 
z
" id="DejaVuSans-66"/>
     <path d="M 41.109375 46.296875 
Q 39.59375 47.171875 37.8125 47.578125 
Q 36.03125 48 33.890625 48 
Q 26.265625 48 22.1875 43.046875 
Q 18.109375 38.09375 18.109375 28.8125 
L 18.109375 0 
L 9.078125 0 
L 9.078125 54.6875 
L 18.109375 54.6875 
L 18.109375 46.1875 
Q 20.953125 51.171875 25.484375 53.578125 
Q 30.03125 56 36.53125 56 
Q 37.453125 56 38.578125 55.875 
Q 39.703125 55.765625 41.0625 55.515625 
z
" id="DejaVuSans-114"/>
     <path d="M 30.609375 48.390625 
Q 23.390625 48.390625 19.1875 42.75 
Q 14.984375 37.109375 14.984375 27.296875 
Q 14.984375 17.484375 19.15625 11.84375 
Q 23.34375 6.203125 30.609375 6.203125 
Q 37.796875 6.203125 41.984375 11.859375 
Q 46.1875 17.53125 46.1875 27.296875 
Q 46.1875 37.015625 41.984375 42.703125 
Q 37.796875 48.390625 30.609375 48.390625 
z
M 30.609375 56 
Q 42.328125 56 49.015625 48.375 
Q 55.71875 40.765625 55.71875 27.296875 
Q 55.71875 13.875 49.015625 6.21875 
Q 42.328125 -1.421875 30.609375 -1.421875 
Q 18.84375 -1.421875 12.171875 6.21875 
Q 5.515625 13.875 5.515625 27.296875 
Q 5.515625 40.765625 12.171875 48.375 
Q 18.84375 56 30.609375 56 
z
" id="DejaVuSans-111"/>
     <path d="M 54.890625 54.6875 
L 35.109375 28.078125 
L 55.90625 0 
L 45.3125 0 
L 29.390625 21.484375 
L 13.484375 0 
L 2.875 0 
L 24.125 28.609375 
L 4.6875 54.6875 
L 15.28125 54.6875 
L 29.78125 35.203125 
L 44.28125 54.6875 
z
" id="DejaVuSans-120"/>
    </defs>
    <g style="fill:#33b07a;" transform="translate(467.418349 94.521315)scale(0.08 -0.08)">
     <use xlink:href="#DejaVuSans-66"/>
     <use x="68.603516" xlink:href="#DejaVuSans-114"/>
     <use x="107.466797" xlink:href="#DejaVuSans-111"/>
     <use x="168.648438" xlink:href="#DejaVuSans-110"/>
     <use x="232.027344" xlink:href="#DejaVuSans-120"/>
     <use x="291.207031" xlink:href="#DejaVuSans-44"/>
     <use x="322.994141" xlink:href="#DejaVuSans-32"/>
     <use x="354.78125" xlink:href="#DejaVuSans-78"/>
     <use x="429.585938" xlink:href="#DejaVuSans-89"/>
    </g>
   </g>
   <g id="text_16">
    <!-- New York, NY -->
    <defs>
     <path d="M 4.203125 54.6875 
L 13.1875 54.6875 
L 24.421875 12.015625 
L 35.59375 54.6875 
L 46.1875 54.6875 
L 57.421875 12.015625 
L 68.609375 54.6875 
L 77.59375 54.6875 
L 63.28125 0 
L 52.6875 0 
L 40.921875 44.828125 
L 29.109375 0 
L 18.5 0 
z
" id="DejaVuSans-119"/>
     <path d="M 9.078125 75.984375 
L 18.109375 75.984375 
L 18.109375 31.109375 
L 44.921875 54.6875 
L 56.390625 54.6875 
L 27.390625 29.109375 
L 57.625 0 
L 45.90625 0 
L 18.109375 26.703125 
L 18.109375 0 
L 9.078125 0 
z
" id="DejaVuSans-107"/>
    </defs>
    <g style="fill:#38a9c5;" transform="translate(467.418349 131.576331)scale(0.08 -0.08)">
     <use xlink:href="#DejaVuSans-78"/>
     <use x="74.804688" xlink:href="#DejaVuSans-101"/>
     <use x="136.328125" xlink:href="#DejaVuSans-119"/>
     <use x="218.115234" xlink:href="#DejaVuSans-32"/>
     <use x="249.902344" xlink:href="#DejaVuSans-89"/>
     <use x="297.736328" xlink:href="#DejaVuSans-111"/>
     <use x="358.917969" xlink:href="#DejaVuSans-114"/>
     <use x="400.03125" xlink:href="#DejaVuSans-107"/>
     <use x="457.941406" xlink:href="#DejaVuSans-44"/>
     <use x="489.728516" xlink:href="#DejaVuSans-32"/>
     <use x="521.515625" xlink:href="#DejaVuSans-78"/>
     <use x="596.320312" xlink:href="#DejaVuSans-89"/>
    </g>
   </g>
   <g id="text_17">
    <!-- Wayne, MI -->
    <defs>
     <path d="M 3.328125 72.90625 
L 13.28125 72.90625 
L 28.609375 11.28125 
L 43.890625 72.90625 
L 54.984375 72.90625 
L 70.3125 11.28125 
L 85.59375 72.90625 
L 95.609375 72.90625 
L 77.296875 0 
L 64.890625 0 
L 49.515625 63.28125 
L 33.984375 0 
L 21.578125 0 
z
" id="DejaVuSans-87"/>
     <path d="M 32.171875 -5.078125 
Q 28.375 -14.84375 24.75 -17.8125 
Q 21.140625 -20.796875 15.09375 -20.796875 
L 7.90625 -20.796875 
L 7.90625 -13.28125 
L 13.1875 -13.28125 
Q 16.890625 -13.28125 18.9375 -11.515625 
Q 21 -9.765625 23.484375 -3.21875 
L 25.09375 0.875 
L 2.984375 54.6875 
L 12.5 54.6875 
L 29.59375 11.921875 
L 46.6875 54.6875 
L 56.203125 54.6875 
z
" id="DejaVuSans-121"/>
     <path d="M 9.8125 72.90625 
L 24.515625 72.90625 
L 43.109375 23.296875 
L 61.8125 72.90625 
L 76.515625 72.90625 
L 76.515625 0 
L 66.890625 0 
L 66.890625 64.015625 
L 48.09375 14.015625 
L 38.1875 14.015625 
L 19.390625 64.015625 
L 19.390625 0 
L 9.8125 0 
z
" id="DejaVuSans-77"/>
     <path d="M 9.8125 72.90625 
L 19.671875 72.90625 
L 19.671875 0 
L 9.8125 0 
z
" id="DejaVuSans-73"/>
    </defs>
    <g style="fill:#cc7af4;" transform="translate(467.418349 146.899622)scale(0.08 -0.08)">
     <use xlink:href="#DejaVuSans-87"/>
     <use x="92.501953" xlink:href="#DejaVuSans-97"/>
     <use x="153.78125" xlink:href="#DejaVuSans-121"/>
     <use x="212.960938" xlink:href="#DejaVuSans-110"/>
     <use x="276.339844" xlink:href="#DejaVuSans-101"/>
     <use x="337.863281" xlink:href="#DejaVuSans-44"/>
     <use x="369.650391" xlink:href="#DejaVuSans-32"/>
     <use x="401.4375" xlink:href="#DejaVuSans-77"/>
     <use x="487.716797" xlink:href="#DejaVuSans-73"/>
    </g>
   </g>
   <g id="text_18">
    <!-- Most-affected counties -->
    <defs>
     <path d="M 4.890625 31.390625 
L 31.203125 31.390625 
L 31.203125 23.390625 
L 4.890625 23.390625 
z
" id="DejaVuSans-45"/>
     <path d="M 37.109375 75.984375 
L 37.109375 68.5 
L 28.515625 68.5 
Q 23.6875 68.5 21.796875 66.546875 
Q 19.921875 64.59375 19.921875 59.515625 
L 19.921875 54.6875 
L 34.71875 54.6875 
L 34.71875 47.703125 
L 19.921875 47.703125 
L 19.921875 0 
L 10.890625 0 
L 10.890625 47.703125 
L 2.296875 47.703125 
L 2.296875 54.6875 
L 10.890625 54.6875 
L 10.890625 58.5 
Q 10.890625 67.625 15.140625 71.796875 
Q 19.390625 75.984375 28.609375 75.984375 
z
" id="DejaVuSans-102"/>
     <path d="M 48.78125 52.59375 
L 48.78125 44.1875 
Q 44.96875 46.296875 41.140625 47.34375 
Q 37.3125 48.390625 33.40625 48.390625 
Q 24.65625 48.390625 19.8125 42.84375 
Q 14.984375 37.3125 14.984375 27.296875 
Q 14.984375 17.28125 19.8125 11.734375 
Q 24.65625 6.203125 33.40625 6.203125 
Q 37.3125 6.203125 41.140625 7.25 
Q 44.96875 8.296875 48.78125 10.40625 
L 48.78125 2.09375 
Q 45.015625 0.34375 40.984375 -0.53125 
Q 36.96875 -1.421875 32.421875 -1.421875 
Q 20.0625 -1.421875 12.78125 6.34375 
Q 5.515625 14.109375 5.515625 27.296875 
Q 5.515625 40.671875 12.859375 48.328125 
Q 20.21875 56 33.015625 56 
Q 37.15625 56 41.109375 55.140625 
Q 45.0625 54.296875 48.78125 52.59375 
z
" id="DejaVuSans-99"/>
    </defs>
    <g style="fill:#ffffff;" transform="translate(242.630312 20.88)scale(0.12 -0.12)">
     <use xlink:href="#DejaVuSans-77"/>
     <use x="86.279297" xlink:href="#DejaVuSans-111"/>
     <use x="147.460938" xlink:href="#DejaVuSans-115"/>
     <use x="199.560547" xlink:href="#DejaVuSans-116"/>
     <use x="238.769531" xlink:href="#DejaVuSans-45"/>
     <use x="274.853516" xlink:href="#DejaVuSans-97"/>
     <use x="336.132812" xlink:href="#DejaVuSans-102"/>
     <use x="371.337891" xlink:href="#DejaVuSans-102"/>
     <use x="406.542969" xlink:href="#DejaVuSans-101"/>
     <use x="468.066406" xlink:href="#DejaVuSans-99"/>
     <use x="523.046875" xlink:href="#DejaVuSans-116"/>
     <use x="562.255859" xlink:href="#DejaVuSans-101"/>
     <use x="623.779297" xlink:href="#DejaVuSans-100"/>
     <use x="687.255859" xlink:href="#DejaVuSans-32"/>
     <use x="719.042969" xlink:href="#DejaVuSans-99"/>
     <use x="774.023438" xlink:href="#DejaVuSans-111"/>
     <use x="835.205078" xlink:href="#DejaVuSans-117"/>
     <use x="898.583984" xlink:href="#DejaVuSans-110"/>
     <use x="961.962891" xlink:href="#DejaVuSans-116"/>
     <use x="1001.171875" xlink:href="#DejaVuSans-105"/>
     <use x="1028.955078" xlink:href="#DejaVuSans-101"/>
     <use x="1090.478516" xlink:href="#DejaVuSans-115"/>
    </g>
   </g>
  </g>
  <g id="axes_2">
   <g id="patch_7">
    <path d="M 57.17 398.333333 
L 565.2 398.333333 
L 565.2 234.586667 
L 57.17 234.586667 
z
"/>
   </g>
   <g id="PolyCollection_6">
    <defs>
     <path d="M 411.533731 -365.4033 
L 411.533731 -365.4033 
L 420.846838 -365.4033 
L 430.159945 -366.570555 
L 439.473052 -368.877365 
L 448.786159 -370.246484 
L 458.099267 -372.205301 
L 458.099267 -391.419729 
L 458.099267 -391.419729 
L 448.786159 -386.740222 
L 439.473052 -381.508875 
L 430.159945 -377.375004 
L 420.846838 -371.953777 
L 411.533731 -365.4033 
z
" id="m592ded03cc" style="stroke:#f77189;stroke-opacity:0.1;"/>
    </defs>
    <g clip-path="url(#p97dea7c8f9)">
     <use style="fill:#f77189;fill-opacity:0.1;stroke:#f77189;stroke-opacity:0.1;" x="0" xlink:href="#m592ded03cc" y="648"/>
    </g>
   </g>
   <g id="PolyCollection_7">
    <defs>
     <path d="M 411.533731 -354.756457 
L 411.533731 -354.756457 
L 420.846838 -356.715179 
L 430.159945 -358.919186 
L 439.473052 -361.570975 
L 448.786159 -367.403115 
L 458.099267 -372.762854 
L 458.099267 -405.970303 
L 458.099267 -405.970303 
L 448.786159 -395.475537 
L 439.473052 -386.643946 
L 430.159945 -375.606614 
L 420.846838 -364.959889 
L 411.533731 -354.756457 
z
" id="m6f10a167ea" style="stroke:#bb9832;stroke-opacity:0.1;"/>
    </defs>
    <g clip-path="url(#p97dea7c8f9)">
     <use style="fill:#bb9832;fill-opacity:0.1;stroke:#bb9832;stroke-opacity:0.1;" x="0" xlink:href="#m6f10a167ea" y="648"/>
    </g>
   </g>
   <g id="PolyCollection_8">
    <defs>
     <path d="M 411.533731 -329.143194 
L 411.533731 -329.143194 
L 420.846838 -329.143194 
L 430.159945 -329.143194 
L 439.473052 -330.84031 
L 448.786159 -332.888481 
L 458.099267 -335.147937 
L 458.099267 -360.479675 
L 458.099267 -360.479675 
L 448.786159 -354.77365 
L 439.473052 -349.213805 
L 430.159945 -345.060691 
L 420.846838 -337.903808 
L 411.533731 -329.143194 
z
" id="m58102e3d34" style="stroke:#50b131;stroke-opacity:0.1;"/>
    </defs>
    <g clip-path="url(#p97dea7c8f9)">
     <use style="fill:#50b131;fill-opacity:0.1;stroke:#50b131;stroke-opacity:0.1;" x="0" xlink:href="#m58102e3d34" y="648"/>
    </g>
   </g>
   <g id="PolyCollection_9">
    <defs>
     <path d="M 411.533731 -326.101239 
L 411.533731 -326.101239 
L 420.846838 -326.101239 
L 430.159945 -326.101239 
L 439.473052 -327.794145 
L 448.786159 -331.193933 
L 458.099267 -335.815629 
L 458.099267 -346.914084 
L 458.099267 -346.914084 
L 448.786159 -345.013311 
L 439.473052 -342.059753 
L 430.159945 -338.433913 
L 420.846838 -332.365257 
L 411.533731 -326.101239 
z
" id="mc9536ca866" style="stroke:#36ada4;stroke-opacity:0.1;"/>
    </defs>
    <g clip-path="url(#p97dea7c8f9)">
     <use style="fill:#36ada4;fill-opacity:0.1;stroke:#36ada4;stroke-opacity:0.1;" x="0" xlink:href="#mc9536ca866" y="648"/>
    </g>
   </g>
   <g id="PolyCollection_10">
    <defs>
     <path d="M 411.533731 -324.580262 
L 411.533731 -324.580262 
L 420.846838 -324.895869 
L 430.159945 -326.118798 
L 439.473052 -328.59086 
L 448.786159 -331.829462 
L 458.099267 -334.924858 
L 458.099267 -360.510164 
L 458.099267 -360.510164 
L 448.786159 -353.197125 
L 439.473052 -346.719338 
L 430.159945 -340.073463 
L 420.846838 -332.595082 
L 411.533731 -324.580262 
z
" id="m1d096a93cb" style="stroke:#3ba3ec;stroke-opacity:0.1;"/>
    </defs>
    <g clip-path="url(#p97dea7c8f9)">
     <use style="fill:#3ba3ec;fill-opacity:0.1;stroke:#3ba3ec;stroke-opacity:0.1;" x="0" xlink:href="#m1d096a93cb" y="648"/>
    </g>
   </g>
   <g id="PolyCollection_11">
    <defs>
     <path d="M 411.533731 -308.39706 
L 411.533731 -308.39706 
L 420.846838 -309.437832 
L 430.159945 -312.316982 
L 439.473052 -314.600793 
L 448.786159 -316.172488 
L 458.099267 -317.782422 
L 458.099267 -330.813765 
L 458.099267 -330.813765 
L 448.786159 -325.706115 
L 439.473052 -320.782118 
L 430.159945 -316.690634 
L 420.846838 -313.347257 
L 411.533731 -308.39706 
z
" id="m62517e5208" style="stroke:#e866f4;stroke-opacity:0.1;"/>
    </defs>
    <g clip-path="url(#p97dea7c8f9)">
     <use style="fill:#e866f4;fill-opacity:0.1;stroke:#e866f4;stroke-opacity:0.1;" x="0" xlink:href="#m62517e5208" y="648"/>
    </g>
   </g>
   <g id="matplotlib.axis_3">
    <g id="xtick_4">
     <g id="line2d_22">
      <g>
       <use style="fill:#ffffff;stroke:#ffffff;stroke-width:0.8;" x="76.26187" xlink:href="#m3e9dd8a83c" y="398.333333"/>
      </g>
     </g>
     <g id="text_19">
      <!-- 3/25 -->
      <g style="fill:#ffffff;" transform="translate(65.033745 412.931771)scale(0.1 -0.1)">
       <use xlink:href="#DejaVuSans-51"/>
       <use x="63.623047" xlink:href="#DejaVuSans-47"/>
       <use x="97.314453" xlink:href="#DejaVuSans-50"/>
       <use x="160.9375" xlink:href="#DejaVuSans-53"/>
      </g>
     </g>
    </g>
    <g id="xtick_5">
     <g id="line2d_23">
      <g>
       <use style="fill:#ffffff;stroke:#ffffff;stroke-width:0.8;" x="411.533731" xlink:href="#m3e9dd8a83c" y="398.333333"/>
      </g>
     </g>
     <g id="text_20">
      <!-- 5/1 -->
      <g style="fill:#ffffff;" transform="translate(403.486856 412.931771)scale(0.1 -0.1)">
       <use xlink:href="#DejaVuSans-53"/>
       <use x="63.623047" xlink:href="#DejaVuSans-47"/>
       <use x="97.314453" xlink:href="#DejaVuSans-49"/>
      </g>
     </g>
    </g>
    <g id="xtick_6">
     <g id="line2d_24">
      <g>
       <use style="fill:#ffffff;stroke:#ffffff;stroke-width:0.8;" x="458.099267" xlink:href="#m3e9dd8a83c" y="398.333333"/>
      </g>
     </g>
     <g id="text_21">
      <!-- 5/6 -->
      <g style="fill:#ffffff;" transform="translate(450.052392 412.931771)scale(0.1 -0.1)">
       <use xlink:href="#DejaVuSans-53"/>
       <use x="63.623047" xlink:href="#DejaVuSans-47"/>
       <use x="97.314453" xlink:href="#DejaVuSans-54"/>
      </g>
     </g>
    </g>
   </g>
   <g id="matplotlib.axis_4">
    <g id="ytick_9">
     <g id="line2d_25">
      <g>
       <use style="fill:#ffffff;stroke:#ffffff;stroke-width:0.8;" x="57.17" xlink:href="#mc96fe16b5a" y="391.011981"/>
      </g>
     </g>
     <g id="text_22">
      <!-- 0 -->
      <g style="fill:#ffffff;" transform="translate(43.8075 394.8112)scale(0.1 -0.1)">
       <use xlink:href="#DejaVuSans-48"/>
      </g>
     </g>
    </g>
    <g id="ytick_10">
     <g id="line2d_26">
      <g>
       <use style="fill:#ffffff;stroke:#ffffff;stroke-width:0.8;" x="57.17" xlink:href="#mc96fe16b5a" y="360.59243"/>
      </g>
     </g>
     <g id="text_23">
      <!-- 500 -->
      <g style="fill:#ffffff;" transform="translate(31.0825 364.391649)scale(0.1 -0.1)">
       <use xlink:href="#DejaVuSans-53"/>
       <use x="63.623047" xlink:href="#DejaVuSans-48"/>
       <use x="127.246094" xlink:href="#DejaVuSans-48"/>
      </g>
     </g>
    </g>
    <g id="ytick_11">
     <g id="line2d_27">
      <g>
       <use style="fill:#ffffff;stroke:#ffffff;stroke-width:0.8;" x="57.17" xlink:href="#mc96fe16b5a" y="330.172879"/>
      </g>
     </g>
     <g id="text_24">
      <!-- 1000 -->
      <g style="fill:#ffffff;" transform="translate(24.72 333.972097)scale(0.1 -0.1)">
       <use xlink:href="#DejaVuSans-49"/>
       <use x="63.623047" xlink:href="#DejaVuSans-48"/>
       <use x="127.246094" xlink:href="#DejaVuSans-48"/>
       <use x="190.869141" xlink:href="#DejaVuSans-48"/>
      </g>
     </g>
    </g>
    <g id="ytick_12">
     <g id="line2d_28">
      <g>
       <use style="fill:#ffffff;stroke:#ffffff;stroke-width:0.8;" x="57.17" xlink:href="#mc96fe16b5a" y="299.753327"/>
      </g>
     </g>
     <g id="text_25">
      <!-- 1500 -->
      <g style="fill:#ffffff;" transform="translate(24.72 303.552546)scale(0.1 -0.1)">
       <use xlink:href="#DejaVuSans-49"/>
       <use x="63.623047" xlink:href="#DejaVuSans-53"/>
       <use x="127.246094" xlink:href="#DejaVuSans-48"/>
       <use x="190.869141" xlink:href="#DejaVuSans-48"/>
      </g>
     </g>
    </g>
    <g id="ytick_13">
     <g id="line2d_29">
      <g>
       <use style="fill:#ffffff;stroke:#ffffff;stroke-width:0.8;" x="57.17" xlink:href="#mc96fe16b5a" y="269.333776"/>
      </g>
     </g>
     <g id="text_26">
      <!-- 2000 -->
      <g style="fill:#ffffff;" transform="translate(24.72 273.132995)scale(0.1 -0.1)">
       <use xlink:href="#DejaVuSans-50"/>
       <use x="63.623047" xlink:href="#DejaVuSans-48"/>
       <use x="127.246094" xlink:href="#DejaVuSans-48"/>
       <use x="190.869141" xlink:href="#DejaVuSans-48"/>
      </g>
     </g>
    </g>
    <g id="ytick_14">
     <g id="line2d_30">
      <g>
       <use style="fill:#ffffff;stroke:#ffffff;stroke-width:0.8;" x="57.17" xlink:href="#mc96fe16b5a" y="238.914225"/>
      </g>
     </g>
     <g id="text_27">
      <!-- 2500 -->
      <g style="fill:#ffffff;" transform="translate(24.72 242.713443)scale(0.1 -0.1)">
       <use xlink:href="#DejaVuSans-50"/>
       <use x="63.623047" xlink:href="#DejaVuSans-53"/>
       <use x="127.246094" xlink:href="#DejaVuSans-48"/>
       <use x="190.869141" xlink:href="#DejaVuSans-48"/>
      </g>
     </g>
    </g>
    <g id="text_28">
     <!-- Cumulative deaths -->
     <g style="fill:#ffffff;" transform="translate(18.640313 363.635)rotate(-90)scale(0.1 -0.1)">
      <use xlink:href="#DejaVuSans-67"/>
      <use x="69.824219" xlink:href="#DejaVuSans-117"/>
      <use x="133.203125" xlink:href="#DejaVuSans-109"/>
      <use x="230.615234" xlink:href="#DejaVuSans-117"/>
      <use x="293.994141" xlink:href="#DejaVuSans-108"/>
      <use x="321.777344" xlink:href="#DejaVuSans-97"/>
      <use x="383.056641" xlink:href="#DejaVuSans-116"/>
      <use x="422.265625" xlink:href="#DejaVuSans-105"/>
      <use x="450.048828" xlink:href="#DejaVuSans-118"/>
      <use x="509.228516" xlink:href="#DejaVuSans-101"/>
      <use x="570.751953" xlink:href="#DejaVuSans-32"/>
      <use x="602.539062" xlink:href="#DejaVuSans-100"/>
      <use x="666.015625" xlink:href="#DejaVuSans-101"/>
      <use x="727.539062" xlink:href="#DejaVuSans-97"/>
      <use x="788.818359" xlink:href="#DejaVuSans-116"/>
      <use x="828.027344" xlink:href="#DejaVuSans-104"/>
      <use x="891.40625" xlink:href="#DejaVuSans-115"/>
     </g>
    </g>
   </g>
   <g id="line2d_31">
    <path clip-path="url(#p97dea7c8f9)" d="M 76.26187 389.73436 
L 85.574977 389.430165 
L 94.888084 388.760934 
L 104.201192 388.213383 
L 113.514299 387.604991 
L 122.827406 385.962336 
L 132.140513 383.711289 
L 141.453621 382.129472 
L 150.766728 379.209195 
L 160.079835 377.444861 
L 169.392942 375.680527 
L 178.706049 373.186124 
L 188.019157 369.961652 
L 197.332264 366.554662 
L 206.645371 363.877741 
L 215.958478 360.349074 
L 225.271586 353.960968 
L 234.584693 351.344886 
L 243.8978 348.181253 
L 253.210907 348.181253 
L 262.524015 341.123917 
L 271.837122 337.230214 
L 281.150229 331.328822 
L 290.463336 327.495958 
L 299.776444 325.914141 
L 309.089551 322.933025 
L 318.402658 321.168691 
L 327.715765 313.259608 
L 337.028873 310.765205 
L 346.34198 306.080594 
L 355.655087 303.221156 
L 364.968194 296.102981 
L 374.281302 294.886199 
L 383.594409 292.330957 
L 392.907516 288.680611 
L 402.220623 285.942851 
L 411.533731 282.5967 
" style="fill:none;stroke:#f77189;stroke-linecap:square;stroke-width:1.5;"/>
   </g>
   <g id="line2d_32">
    <path clip-path="url(#p97dea7c8f9)" d="M 411.533731 282.5967 
L 420.846838 279.265225 
L 430.159945 275.928346 
L 439.473052 272.506226 
L 448.786159 269.064532 
L 458.099267 265.790068 
" style="fill:none;stroke:#f77189;stroke-dasharray:1.5,2.475;stroke-dashoffset:0;stroke-width:1.5;"/>
   </g>
   <g id="line2d_33">
    <path clip-path="url(#p97dea7c8f9)" d="M 76.26187 390.221073 
L 85.574977 389.916877 
L 94.888084 389.795199 
L 104.201192 389.308486 
L 113.514299 388.578417 
L 122.827406 388.335061 
L 132.140513 387.300796 
L 141.453621 385.232266 
L 150.766728 384.502197 
L 160.079835 382.433668 
L 169.392942 380.851851 
L 178.706049 379.695908 
L 188.019157 378.296609 
L 197.332264 375.863045 
L 206.645371 372.030181 
L 215.958478 369.657456 
L 225.271586 366.798018 
L 234.584693 363.451868 
L 243.8978 361.505016 
L 253.210907 361.505016 
L 262.524015 355.907819 
L 271.837122 352.683347 
L 281.150229 347.086149 
L 290.463336 344.774263 
L 299.776444 338.690353 
L 309.089551 337.656088 
L 318.402658 335.344202 
L 327.715765 330.0512 
L 337.028873 325.792463 
L 346.34198 321.533726 
L 355.655087 316.788276 
L 364.968194 313.928838 
L 374.281302 311.130239 
L 383.594409 309.06171 
L 392.907516 302.369409 
L 402.220623 298.779902 
L 411.533731 293.243543 
" style="fill:none;stroke:#bb9832;stroke-linecap:square;stroke-width:1.5;"/>
   </g>
   <g id="line2d_34">
    <path clip-path="url(#p97dea7c8f9)" d="M 411.533731 293.243543 
L 420.846838 285.948304 
L 430.159945 278.453264 
L 439.473052 270.701231 
L 448.786159 262.980581 
L 458.099267 255.361498 
" style="fill:none;stroke:#bb9832;stroke-dasharray:1.5,2.475;stroke-dashoffset:0;stroke-width:1.5;"/>
   </g>
   <g id="line2d_35">
    <path clip-path="url(#p97dea7c8f9)" d="M 76.26187 390.586108 
L 85.574977 390.342751 
L 94.888084 390.160234 
L 104.201192 389.795199 
L 113.514299 389.795199 
L 122.827406 389.795199 
L 132.140513 389.125969 
L 141.453621 386.814083 
L 150.766728 384.98891 
L 160.079835 383.832967 
L 169.392942 381.58192 
L 178.706049 380.547656 
L 188.019157 379.695908 
L 197.332264 376.897309 
L 206.645371 374.220389 
L 215.958478 372.030181 
L 225.271586 369.596617 
L 234.584693 365.946271 
L 243.8978 364.972845 
L 253.210907 364.972845 
L 262.524015 358.463061 
L 271.837122 355.116911 
L 281.150229 351.953277 
L 290.463336 349.398035 
L 299.776444 346.477758 
L 309.089551 345.991045 
L 318.402658 345.321815 
L 327.715765 339.359583 
L 337.028873 339.359583 
L 346.34198 339.359583 
L 355.655087 331.693856 
L 364.968194 329.016936 
L 374.281302 328.773579 
L 383.594409 328.469384 
L 392.907516 324.697359 
L 402.220623 321.716243 
L 411.533731 318.856806 
" style="fill:none;stroke:#50b131;stroke-linecap:square;stroke-width:1.5;"/>
   </g>
   <g id="line2d_36">
    <path clip-path="url(#p97dea7c8f9)" d="M 411.533731 318.856806 
L 420.846838 315.12061 
L 430.159945 311.341193 
L 439.473052 307.391151 
L 448.786159 303.426273 
L 458.099267 299.612546 
" style="fill:none;stroke:#50b131;stroke-dasharray:1.5,2.475;stroke-dashoffset:0;stroke-width:1.5;"/>
   </g>
   <g id="line2d_37">
    <path clip-path="url(#p97dea7c8f9)" d="M 76.26187 390.160234 
L 85.574977 389.977716 
L 94.888084 389.551843 
L 104.201192 389.06513 
L 113.514299 389.06513 
L 122.827406 389.06513 
L 132.140513 388.274222 
L 141.453621 386.449049 
L 150.766728 383.711289 
L 160.079835 382.98122 
L 169.392942 380.121782 
L 178.706049 379.513391 
L 188.019157 378.844161 
L 197.332264 375.011297 
L 206.645371 371.908503 
L 215.958478 370.022491 
L 225.271586 367.284731 
L 234.584693 364.546972 
L 243.8978 363.451868 
L 253.210907 363.451868 
L 262.524015 357.550475 
L 271.837122 354.021807 
L 281.150229 350.371461 
L 290.463336 347.572862 
L 299.776444 345.930206 
L 309.089551 344.34839 
L 318.402658 343.131607 
L 327.715765 340.211331 
L 337.028873 340.211331 
L 346.34198 340.211331 
L 355.655087 334.188259 
L 364.968194 332.971477 
L 374.281302 332.910638 
L 383.594409 332.606443 
L 392.907516 330.0512 
L 402.220623 326.70505 
L 411.533731 321.898761 
" style="fill:none;stroke:#36ada4;stroke-linecap:square;stroke-width:1.5;"/>
   </g>
   <g id="line2d_38">
    <path clip-path="url(#p97dea7c8f9)" d="M 411.533731 321.898761 
L 420.846838 318.634612 
L 430.159945 315.075592 
L 439.473052 311.541969 
L 448.786159 308.152392 
L 458.099267 305.065359 
" style="fill:none;stroke:#36ada4;stroke-dasharray:1.5,2.475;stroke-dashoffset:0;stroke-width:1.5;"/>
   </g>
   <g id="line2d_39">
    <path clip-path="url(#p97dea7c8f9)" d="M 76.26187 390.221073 
L 85.574977 389.73436 
L 94.888084 389.430165 
L 104.201192 389.06513 
L 113.514299 388.760934 
L 122.827406 388.335061 
L 132.140513 387.72667 
L 141.453621 387.05744 
L 150.766728 386.266531 
L 160.079835 385.597301 
L 169.392942 383.893806 
L 178.706049 382.98122 
L 188.019157 382.068633 
L 197.332264 380.730173 
L 206.645371 378.965839 
L 215.958478 377.444861 
L 225.271586 376.349757 
L 234.584693 374.889619 
L 243.8978 373.003607 
L 253.210907 371.543468 
L 262.524015 369.109904 
L 271.837122 366.554662 
L 281.150229 363.33019 
L 290.463336 360.896625 
L 299.776444 355.968658 
L 309.089551 354.50852 
L 318.402658 353.474255 
L 327.715765 350.675656 
L 337.028873 346.660275 
L 346.34198 342.523216 
L 355.655087 339.420422 
L 364.968194 336.560984 
L 374.281302 335.465881 
L 383.594409 333.701547 
L 392.907516 330.172879 
L 402.220623 326.765889 
L 411.533731 323.419738 
" style="fill:none;stroke:#3ba3ec;stroke-linecap:square;stroke-width:1.5;"/>
   </g>
   <g id="line2d_40">
    <path clip-path="url(#p97dea7c8f9)" d="M 411.533731 323.419738 
L 420.846838 318.65615 
L 430.159945 313.821367 
L 439.473052 308.786941 
L 448.786159 303.727125 
L 458.099267 298.683295 
" style="fill:none;stroke:#3ba3ec;stroke-dasharray:1.5,2.475;stroke-dashoffset:0;stroke-width:1.5;"/>
   </g>
   <g id="line2d_41">
    <path clip-path="url(#p97dea7c8f9)" d="M 76.26187 390.890303 
L 85.574977 390.707786 
L 94.888084 390.646947 
L 104.201192 390.646947 
L 113.514299 390.586108 
L 122.827406 390.464429 
L 132.140513 389.916877 
L 141.453621 389.73436 
L 150.766728 389.247647 
L 160.079835 388.639256 
L 169.392942 388.639256 
L 178.706049 388.456739 
L 188.019157 388.091704 
L 197.332264 386.814083 
L 206.645371 386.144853 
L 215.958478 385.353945 
L 225.271586 384.380519 
L 234.584693 382.677024 
L 243.8978 381.946955 
L 253.210907 381.095208 
L 262.524015 379.57423 
L 271.837122 377.56654 
L 281.150229 375.315493 
L 290.463336 373.125285 
L 299.776444 370.691721 
L 309.089551 368.379835 
L 318.402658 366.554662 
L 327.715765 364.972845 
L 337.028873 360.957465 
L 346.34198 357.85467 
L 355.655087 355.421106 
L 364.968194 352.744186 
L 374.281302 350.249782 
L 383.594409 348.424609 
L 392.907516 346.538597 
L 402.220623 342.219021 
L 411.533731 339.60294 
" style="fill:none;stroke:#e866f4;stroke-linecap:square;stroke-width:1.5;"/>
   </g>
   <g id="line2d_42">
    <path clip-path="url(#p97dea7c8f9)" d="M 411.533731 339.60294 
L 420.846838 336.377975 
L 430.159945 333.048351 
L 439.473052 329.678389 
L 448.786159 326.316314 
L 458.099267 322.968607 
" style="fill:none;stroke:#e866f4;stroke-dasharray:1.5,2.475;stroke-dashoffset:0;stroke-width:1.5;"/>
   </g>
   <g id="patch_8">
    <path d="M 57.17 398.333333 
L 57.17 234.586667 
" style="fill:none;stroke:#ffffff;stroke-linecap:square;stroke-linejoin:miter;stroke-width:0.8;"/>
   </g>
   <g id="patch_9">
    <path d="M 565.2 398.333333 
L 565.2 234.586667 
" style="fill:none;stroke:#ffffff;stroke-linecap:square;stroke-linejoin:miter;stroke-width:0.8;"/>
   </g>
   <g id="patch_10">
    <path d="M 57.17 398.333333 
L 565.2 398.333333 
" style="fill:none;stroke:#ffffff;stroke-linecap:square;stroke-linejoin:miter;stroke-width:0.8;"/>
   </g>
   <g id="patch_11">
    <path d="M 57.17 234.586667 
L 565.2 234.586667 
" style="fill:none;stroke:#ffffff;stroke-linecap:square;stroke-linejoin:miter;stroke-width:0.8;"/>
   </g>
   <g id="text_29">
    <!-- Wayne, MI -->
    <g style="fill:#f77189;" transform="translate(467.412374 263.322943)scale(0.08 -0.08)">
     <use xlink:href="#DejaVuSans-87"/>
     <use x="92.501953" xlink:href="#DejaVuSans-97"/>
     <use x="153.78125" xlink:href="#DejaVuSans-121"/>
     <use x="212.960938" xlink:href="#DejaVuSans-110"/>
     <use x="276.339844" xlink:href="#DejaVuSans-101"/>
     <use x="337.863281" xlink:href="#DejaVuSans-44"/>
     <use x="369.650391" xlink:href="#DejaVuSans-32"/>
     <use x="401.4375" xlink:href="#DejaVuSans-77"/>
     <use x="487.716797" xlink:href="#DejaVuSans-73"/>
    </g>
   </g>
   <g id="text_30">
    <!-- Cook, IL -->
    <defs>
     <path d="M 9.8125 72.90625 
L 19.671875 72.90625 
L 19.671875 8.296875 
L 55.171875 8.296875 
L 55.171875 0 
L 9.8125 0 
z
" id="DejaVuSans-76"/>
    </defs>
    <g style="fill:#bb9832;" transform="translate(467.412374 252.894373)scale(0.08 -0.08)">
     <use xlink:href="#DejaVuSans-67"/>
     <use x="69.824219" xlink:href="#DejaVuSans-111"/>
     <use x="131.005859" xlink:href="#DejaVuSans-111"/>
     <use x="192.1875" xlink:href="#DejaVuSans-107"/>
     <use x="250.097656" xlink:href="#DejaVuSans-44"/>
     <use x="281.884766" xlink:href="#DejaVuSans-32"/>
     <use x="313.671875" xlink:href="#DejaVuSans-73"/>
     <use x="343.164062" xlink:href="#DejaVuSans-76"/>
    </g>
   </g>
   <g id="text_31">
    <!-- Essex, NJ -->
    <defs>
     <path d="M 9.8125 72.90625 
L 55.90625 72.90625 
L 55.90625 64.59375 
L 19.671875 64.59375 
L 19.671875 43.015625 
L 54.390625 43.015625 
L 54.390625 34.71875 
L 19.671875 34.71875 
L 19.671875 8.296875 
L 56.78125 8.296875 
L 56.78125 0 
L 9.8125 0 
z
" id="DejaVuSans-69"/>
     <path d="M 9.8125 72.90625 
L 19.671875 72.90625 
L 19.671875 5.078125 
Q 19.671875 -8.109375 14.671875 -14.0625 
Q 9.671875 -20.015625 -1.421875 -20.015625 
L -5.171875 -20.015625 
L -5.171875 -11.71875 
L -2.09375 -11.71875 
Q 4.4375 -11.71875 7.125 -8.046875 
Q 9.8125 -4.390625 9.8125 5.078125 
z
" id="DejaVuSans-74"/>
    </defs>
    <g style="fill:#50b131;" transform="translate(467.412374 310.256734)scale(0.08 -0.08)">
     <use xlink:href="#DejaVuSans-69"/>
     <use x="63.183594" xlink:href="#DejaVuSans-115"/>
     <use x="115.283203" xlink:href="#DejaVuSans-115"/>
     <use x="167.382812" xlink:href="#DejaVuSans-101"/>
     <use x="227.15625" xlink:href="#DejaVuSans-120"/>
     <use x="286.335938" xlink:href="#DejaVuSans-44"/>
     <use x="318.123047" xlink:href="#DejaVuSans-32"/>
     <use x="349.910156" xlink:href="#DejaVuSans-78"/>
     <use x="424.714844" xlink:href="#DejaVuSans-74"/>
    </g>
   </g>
   <g id="text_32">
    <!-- Bergen, NJ -->
    <g style="fill:#36ada4;" transform="translate(425.351124 316.078859)scale(0.08 -0.08)">
     <use xlink:href="#DejaVuSans-66"/>
     <use x="68.603516" xlink:href="#DejaVuSans-101"/>
     <use x="130.126953" xlink:href="#DejaVuSans-114"/>
     <use x="169.490234" xlink:href="#DejaVuSans-103"/>
     <use x="232.966797" xlink:href="#DejaVuSans-101"/>
     <use x="294.490234" xlink:href="#DejaVuSans-110"/>
     <use x="357.869141" xlink:href="#DejaVuSans-44"/>
     <use x="389.65625" xlink:href="#DejaVuSans-32"/>
     <use x="421.443359" xlink:href="#DejaVuSans-78"/>
     <use x="496.248047" xlink:href="#DejaVuSans-74"/>
    </g>
   </g>
   <g id="text_33">
    <!-- Los Angeles, CA -->
    <defs>
     <path d="M 34.1875 63.1875 
L 20.796875 26.90625 
L 47.609375 26.90625 
z
M 28.609375 72.90625 
L 39.796875 72.90625 
L 67.578125 0 
L 57.328125 0 
L 50.6875 18.703125 
L 17.828125 18.703125 
L 11.1875 0 
L 0.78125 0 
z
" id="DejaVuSans-65"/>
    </defs>
    <g style="fill:#3ba3ec;" transform="translate(403.489874 295.444265)scale(0.08 -0.08)">
     <use xlink:href="#DejaVuSans-76"/>
     <use x="53.962891" xlink:href="#DejaVuSans-111"/>
     <use x="115.144531" xlink:href="#DejaVuSans-115"/>
     <use x="167.244141" xlink:href="#DejaVuSans-32"/>
     <use x="199.03125" xlink:href="#DejaVuSans-65"/>
     <use x="267.439453" xlink:href="#DejaVuSans-110"/>
     <use x="330.818359" xlink:href="#DejaVuSans-103"/>
     <use x="394.294922" xlink:href="#DejaVuSans-101"/>
     <use x="455.818359" xlink:href="#DejaVuSans-108"/>
     <use x="483.601562" xlink:href="#DejaVuSans-101"/>
     <use x="545.125" xlink:href="#DejaVuSans-115"/>
     <use x="597.224609" xlink:href="#DejaVuSans-44"/>
     <use x="629.011719" xlink:href="#DejaVuSans-32"/>
     <use x="660.798828" xlink:href="#DejaVuSans-67"/>
     <use x="730.623047" xlink:href="#DejaVuSans-65"/>
    </g>
   </g>
   <g id="text_34">
    <!-- Middlesex, MA -->
    <g style="fill:#e866f4;" transform="translate(467.412374 322.337856)scale(0.08 -0.08)">
     <use xlink:href="#DejaVuSans-77"/>
     <use x="86.279297" xlink:href="#DejaVuSans-105"/>
     <use x="114.0625" xlink:href="#DejaVuSans-100"/>
     <use x="177.539062" xlink:href="#DejaVuSans-100"/>
     <use x="241.015625" xlink:href="#DejaVuSans-108"/>
     <use x="268.798828" xlink:href="#DejaVuSans-101"/>
     <use x="330.322266" xlink:href="#DejaVuSans-115"/>
     <use x="382.421875" xlink:href="#DejaVuSans-101"/>
     <use x="442.195312" xlink:href="#DejaVuSans-120"/>
     <use x="501.375" xlink:href="#DejaVuSans-44"/>
     <use x="533.162109" xlink:href="#DejaVuSans-32"/>
     <use x="564.949219" xlink:href="#DejaVuSans-77"/>
     <use x="651.228516" xlink:href="#DejaVuSans-65"/>
    </g>
   </g>
   <g id="text_35">
    <!-- Most-affected counties outside NY -->
    <g style="fill:#ffffff;" transform="translate(208.54375 228.586667)scale(0.12 -0.12)">
     <use xlink:href="#DejaVuSans-77"/>
     <use x="86.279297" xlink:href="#DejaVuSans-111"/>
     <use x="147.460938" xlink:href="#DejaVuSans-115"/>
     <use x="199.560547" xlink:href="#DejaVuSans-116"/>
     <use x="238.769531" xlink:href="#DejaVuSans-45"/>
     <use x="274.853516" xlink:href="#DejaVuSans-97"/>
     <use x="336.132812" xlink:href="#DejaVuSans-102"/>
     <use x="371.337891" xlink:href="#DejaVuSans-102"/>
     <use x="406.542969" xlink:href="#DejaVuSans-101"/>
     <use x="468.066406" xlink:href="#DejaVuSans-99"/>
     <use x="523.046875" xlink:href="#DejaVuSans-116"/>
     <use x="562.255859" xlink:href="#DejaVuSans-101"/>
     <use x="623.779297" xlink:href="#DejaVuSans-100"/>
     <use x="687.255859" xlink:href="#DejaVuSans-32"/>
     <use x="719.042969" xlink:href="#DejaVuSans-99"/>
     <use x="774.023438" xlink:href="#DejaVuSans-111"/>
     <use x="835.205078" xlink:href="#DejaVuSans-117"/>
     <use x="898.583984" xlink:href="#DejaVuSans-110"/>
     <use x="961.962891" xlink:href="#DejaVuSans-116"/>
     <use x="1001.171875" xlink:href="#DejaVuSans-105"/>
     <use x="1028.955078" xlink:href="#DejaVuSans-101"/>
     <use x="1090.478516" xlink:href="#DejaVuSans-115"/>
     <use x="1142.578125" xlink:href="#DejaVuSans-32"/>
     <use x="1174.365234" xlink:href="#DejaVuSans-111"/>
     <use x="1235.546875" xlink:href="#DejaVuSans-117"/>
     <use x="1298.925781" xlink:href="#DejaVuSans-116"/>
     <use x="1338.134766" xlink:href="#DejaVuSans-115"/>
     <use x="1390.234375" xlink:href="#DejaVuSans-105"/>
     <use x="1418.017578" xlink:href="#DejaVuSans-100"/>
     <use x="1481.494141" xlink:href="#DejaVuSans-101"/>
     <use x="1543.017578" xlink:href="#DejaVuSans-32"/>
     <use x="1574.804688" xlink:href="#DejaVuSans-78"/>
     <use x="1649.609375" xlink:href="#DejaVuSans-89"/>
    </g>
   </g>
  </g>
  <g id="axes_3">
   <g id="patch_12">
    <path d="M 57.17 606.04 
L 565.2 606.04 
L 565.2 442.293333 
L 57.17 442.293333 
z
"/>
   </g>
   <g id="PolyCollection_12">
    <defs>
     <path d="M 410.167371 -160.171381 
L 410.167371 -160.171381 
L 419.70784 -160.255154 
L 429.24831 -160.433006 
L 438.788779 -161.945049 
L 448.329249 -160.171381 
L 457.869718 -160.171381 
L 457.869718 -198.263636 
L 457.869718 -198.263636 
L 448.329249 -191.719824 
L 438.788779 -178.104553 
L 429.24831 -172.711603 
L 419.70784 -166.176733 
L 410.167371 -160.171381 
z
" id="mbf5e4753b5" style="stroke:#f77189;stroke-opacity:0.1;"/>
    </defs>
    <g clip-path="url(#p29965a6373)">
     <use style="fill:#f77189;fill-opacity:0.1;stroke:#f77189;stroke-opacity:0.1;" x="0" xlink:href="#mbf5e4753b5" y="648"/>
    </g>
   </g>
   <g id="PolyCollection_13">
    <defs>
     <path d="M 410.167371 -108.815146 
L 410.167371 -108.815146 
L 419.70784 -108.815146 
L 429.24831 -108.815146 
L 438.788779 -111.0633 
L 448.329249 -112.862848 
L 457.869718 -115.785042 
L 457.869718 -126.516355 
L 457.869718 -126.516355 
L 448.329249 -124.273135 
L 438.788779 -121.005743 
L 429.24831 -119.07702 
L 419.70784 -114.407467 
L 410.167371 -108.815146 
z
" id="me28f0b1a12" style="stroke:#ae9d31;stroke-opacity:0.1;"/>
    </defs>
    <g clip-path="url(#p29965a6373)">
     <use style="fill:#ae9d31;fill-opacity:0.1;stroke:#ae9d31;stroke-opacity:0.1;" x="0" xlink:href="#me28f0b1a12" y="648"/>
    </g>
   </g>
   <g id="PolyCollection_14">
    <defs>
     <path d="M 410.167371 -96.731326 
L 410.167371 -96.731326 
L 419.70784 -96.731326 
L 429.24831 -96.731326 
L 438.788779 -96.731326 
L 448.329249 -96.731326 
L 457.869718 -96.731326 
L 457.869718 -123.484924 
L 457.869718 -123.484924 
L 448.329249 -116.677707 
L 438.788779 -113.780289 
L 429.24831 -108.690556 
L 419.70784 -106.470975 
L 410.167371 -96.731326 
z
" id="m17d89731f8" style="stroke:#33b07a;stroke-opacity:0.1;"/>
    </defs>
    <g clip-path="url(#p29965a6373)">
     <use style="fill:#33b07a;fill-opacity:0.1;stroke:#33b07a;stroke-opacity:0.1;" x="0" xlink:href="#m17d89731f8" y="648"/>
    </g>
   </g>
   <g id="PolyCollection_15">
    <defs>
     <path d="M 410.167371 -75.584641 
L 410.167371 -75.584641 
L 419.70784 -75.584641 
L 429.24831 -75.584641 
L 438.788779 -75.584641 
L 448.329249 -75.584641 
L 457.869718 -75.62981 
L 457.869718 -84.687784 
L 457.869718 -84.687784 
L 448.329249 -84.318158 
L 438.788779 -82.102556 
L 429.24831 -79.860854 
L 419.70784 -77.622722 
L 410.167371 -75.584641 
z
" id="md4ff6ee80e" style="stroke:#38a9c5;stroke-opacity:0.1;"/>
    </defs>
    <g clip-path="url(#p29965a6373)">
     <use style="fill:#38a9c5;fill-opacity:0.1;stroke:#38a9c5;stroke-opacity:0.1;" x="0" xlink:href="#md4ff6ee80e" y="648"/>
    </g>
   </g>
   <g id="PolyCollection_16">
    <defs>
     <path d="M 410.167371 -73.570671 
L 410.167371 -73.570671 
L 419.70784 -73.570671 
L 429.24831 -73.570671 
L 438.788779 -73.600761 
L 448.329249 -73.570671 
L 457.869718 -73.570671 
L 457.869718 -82.578469 
L 457.869718 -82.578469 
L 448.329249 -80.427262 
L 438.788779 -78.257997 
L 429.24831 -77.267691 
L 419.70784 -75.355949 
L 410.167371 -73.570671 
z
" id="m43a7bae0a0" style="stroke:#cc7af4;stroke-opacity:0.1;"/>
    </defs>
    <g clip-path="url(#p29965a6373)">
     <use style="fill:#cc7af4;fill-opacity:0.1;stroke:#cc7af4;stroke-opacity:0.1;" x="0" xlink:href="#m43a7bae0a0" y="648"/>
    </g>
   </g>
   <g id="matplotlib.axis_5">
    <g id="xtick_7">
     <g id="line2d_43">
      <g>
       <use style="fill:#ffffff;stroke:#ffffff;stroke-width:0.8;" x="76.250939" xlink:href="#m3e9dd8a83c" y="606.04"/>
      </g>
     </g>
     <g id="text_36">
      <!-- 3/26 -->
      <g style="fill:#ffffff;" transform="translate(65.022814 620.638438)scale(0.1 -0.1)">
       <use xlink:href="#DejaVuSans-51"/>
       <use x="63.623047" xlink:href="#DejaVuSans-47"/>
       <use x="97.314453" xlink:href="#DejaVuSans-50"/>
       <use x="160.9375" xlink:href="#DejaVuSans-54"/>
      </g>
     </g>
    </g>
    <g id="xtick_8">
     <g id="line2d_44">
      <g>
       <use style="fill:#ffffff;stroke:#ffffff;stroke-width:0.8;" x="410.167371" xlink:href="#m3e9dd8a83c" y="606.04"/>
      </g>
     </g>
     <g id="text_37">
      <!-- 5/1 -->
      <g style="fill:#ffffff;" transform="translate(402.120496 620.638438)scale(0.1 -0.1)">
       <use xlink:href="#DejaVuSans-53"/>
       <use x="63.623047" xlink:href="#DejaVuSans-47"/>
       <use x="97.314453" xlink:href="#DejaVuSans-49"/>
      </g>
     </g>
    </g>
    <g id="xtick_9">
     <g id="line2d_45">
      <g>
       <use style="fill:#ffffff;stroke:#ffffff;stroke-width:0.8;" x="457.869718" xlink:href="#m3e9dd8a83c" y="606.04"/>
      </g>
     </g>
     <g id="text_38">
      <!-- 5/6 -->
      <g style="fill:#ffffff;" transform="translate(449.822843 620.638438)scale(0.1 -0.1)">
       <use xlink:href="#DejaVuSans-53"/>
       <use x="63.623047" xlink:href="#DejaVuSans-47"/>
       <use x="97.314453" xlink:href="#DejaVuSans-54"/>
      </g>
     </g>
    </g>
    <g id="text_39">
     <!-- Date -->
     <defs>
      <path d="M 19.671875 64.796875 
L 19.671875 8.109375 
L 31.59375 8.109375 
Q 46.6875 8.109375 53.6875 14.9375 
Q 60.6875 21.78125 60.6875 36.53125 
Q 60.6875 51.171875 53.6875 57.984375 
Q 46.6875 64.796875 31.59375 64.796875 
z
M 9.8125 72.90625 
L 30.078125 72.90625 
Q 51.265625 72.90625 61.171875 64.09375 
Q 71.09375 55.28125 71.09375 36.53125 
Q 71.09375 17.671875 61.125 8.828125 
Q 51.171875 0 30.078125 0 
L 9.8125 0 
z
" id="DejaVuSans-68"/>
     </defs>
     <g style="fill:#ffffff;" transform="translate(299.234219 634.316563)scale(0.1 -0.1)">
      <use xlink:href="#DejaVuSans-68"/>
      <use x="77.001953" xlink:href="#DejaVuSans-97"/>
      <use x="138.28125" xlink:href="#DejaVuSans-116"/>
      <use x="177.490234" xlink:href="#DejaVuSans-101"/>
     </g>
    </g>
   </g>
   <g id="matplotlib.axis_6">
    <g id="ytick_15">
     <g id="line2d_46">
      <g>
       <use style="fill:#ffffff;stroke:#ffffff;stroke-width:0.8;" x="57.17" xlink:href="#mc96fe16b5a" y="599.603955"/>
      </g>
     </g>
     <g id="text_40">
      <!-- 0 -->
      <g style="fill:#ffffff;" transform="translate(43.8075 603.403173)scale(0.1 -0.1)">
       <use xlink:href="#DejaVuSans-48"/>
      </g>
     </g>
    </g>
    <g id="ytick_16">
     <g id="line2d_47">
      <g>
       <use style="fill:#ffffff;stroke:#ffffff;stroke-width:0.8;" x="57.17" xlink:href="#mc96fe16b5a" y="574.429329"/>
      </g>
     </g>
     <g id="text_41">
      <!-- 25 -->
      <g style="fill:#ffffff;" transform="translate(37.445 578.228548)scale(0.1 -0.1)">
       <use xlink:href="#DejaVuSans-50"/>
       <use x="63.623047" xlink:href="#DejaVuSans-53"/>
      </g>
     </g>
    </g>
    <g id="ytick_17">
     <g id="line2d_48">
      <g>
       <use style="fill:#ffffff;stroke:#ffffff;stroke-width:0.8;" x="57.17" xlink:href="#mc96fe16b5a" y="549.254704"/>
      </g>
     </g>
     <g id="text_42">
      <!-- 50 -->
      <g style="fill:#ffffff;" transform="translate(37.445 553.053923)scale(0.1 -0.1)">
       <use xlink:href="#DejaVuSans-53"/>
       <use x="63.623047" xlink:href="#DejaVuSans-48"/>
      </g>
     </g>
    </g>
    <g id="ytick_18">
     <g id="line2d_49">
      <g>
       <use style="fill:#ffffff;stroke:#ffffff;stroke-width:0.8;" x="57.17" xlink:href="#mc96fe16b5a" y="524.080079"/>
      </g>
     </g>
     <g id="text_43">
      <!-- 75 -->
      <g style="fill:#ffffff;" transform="translate(37.445 527.879298)scale(0.1 -0.1)">
       <use xlink:href="#DejaVuSans-55"/>
       <use x="63.623047" xlink:href="#DejaVuSans-53"/>
      </g>
     </g>
    </g>
    <g id="ytick_19">
     <g id="line2d_50">
      <g>
       <use style="fill:#ffffff;stroke:#ffffff;stroke-width:0.8;" x="57.17" xlink:href="#mc96fe16b5a" y="498.905454"/>
      </g>
     </g>
     <g id="text_44">
      <!-- 100 -->
      <g style="fill:#ffffff;" transform="translate(31.0825 502.704673)scale(0.1 -0.1)">
       <use xlink:href="#DejaVuSans-49"/>
       <use x="63.623047" xlink:href="#DejaVuSans-48"/>
       <use x="127.246094" xlink:href="#DejaVuSans-48"/>
      </g>
     </g>
    </g>
    <g id="ytick_20">
     <g id="line2d_51">
      <g>
       <use style="fill:#ffffff;stroke:#ffffff;stroke-width:0.8;" x="57.17" xlink:href="#mc96fe16b5a" y="473.730829"/>
      </g>
     </g>
     <g id="text_45">
      <!-- 125 -->
      <g style="fill:#ffffff;" transform="translate(31.0825 477.530047)scale(0.1 -0.1)">
       <use xlink:href="#DejaVuSans-49"/>
       <use x="63.623047" xlink:href="#DejaVuSans-50"/>
       <use x="127.246094" xlink:href="#DejaVuSans-53"/>
      </g>
     </g>
    </g>
    <g id="ytick_21">
     <g id="line2d_52">
      <g>
       <use style="fill:#ffffff;stroke:#ffffff;stroke-width:0.8;" x="57.17" xlink:href="#mc96fe16b5a" y="448.556203"/>
      </g>
     </g>
     <g id="text_46">
      <!-- 150 -->
      <g style="fill:#ffffff;" transform="translate(31.0825 452.355422)scale(0.1 -0.1)">
       <use xlink:href="#DejaVuSans-49"/>
       <use x="63.623047" xlink:href="#DejaVuSans-53"/>
       <use x="127.246094" xlink:href="#DejaVuSans-48"/>
      </g>
     </g>
    </g>
    <g id="text_47">
     <!-- Cumulative deaths -->
     <g style="fill:#ffffff;" transform="translate(25.002813 571.341667)rotate(-90)scale(0.1 -0.1)">
      <use xlink:href="#DejaVuSans-67"/>
      <use x="69.824219" xlink:href="#DejaVuSans-117"/>
      <use x="133.203125" xlink:href="#DejaVuSans-109"/>
      <use x="230.615234" xlink:href="#DejaVuSans-117"/>
      <use x="293.994141" xlink:href="#DejaVuSans-108"/>
      <use x="321.777344" xlink:href="#DejaVuSans-97"/>
      <use x="383.056641" xlink:href="#DejaVuSans-116"/>
      <use x="422.265625" xlink:href="#DejaVuSans-105"/>
      <use x="450.048828" xlink:href="#DejaVuSans-118"/>
      <use x="509.228516" xlink:href="#DejaVuSans-101"/>
      <use x="570.751953" xlink:href="#DejaVuSans-32"/>
      <use x="602.539062" xlink:href="#DejaVuSans-100"/>
      <use x="666.015625" xlink:href="#DejaVuSans-101"/>
      <use x="727.539062" xlink:href="#DejaVuSans-97"/>
      <use x="788.818359" xlink:href="#DejaVuSans-116"/>
      <use x="828.027344" xlink:href="#DejaVuSans-104"/>
      <use x="891.40625" xlink:href="#DejaVuSans-115"/>
     </g>
    </g>
   </g>
   <g id="line2d_53">
    <path clip-path="url(#p29965a6373)" d="M 76.250939 577.450285 
L 85.791408 576.4433 
L 95.331878 571.408374 
L 104.872347 571.408374 
L 114.412817 568.387419 
L 123.953286 566.373449 
L 133.493756 564.359479 
L 143.034225 560.331539 
L 152.574695 558.317569 
L 162.115164 557.310584 
L 171.655634 557.310584 
L 181.196103 554.289629 
L 190.736573 553.282644 
L 200.277042 550.261689 
L 209.817512 549.254704 
L 219.357981 546.233749 
L 228.898451 545.226764 
L 238.43892 542.205809 
L 247.97939 536.163899 
L 257.519859 536.163899 
L 267.060329 531.128974 
L 276.600798 527.101034 
L 286.141268 527.101034 
L 295.681737 523.073094 
L 305.222207 523.073094 
L 314.762676 513.003244 
L 324.303146 507.968319 
L 333.843615 504.947364 
L 343.384085 503.940379 
L 352.924554 500.919424 
L 362.465023 499.912439 
L 372.005493 498.905454 
L 381.545962 495.884499 
L 391.086432 492.863544 
L 400.626901 491.856559 
L 410.167371 487.828619 
" style="fill:none;stroke:#f77189;stroke-linecap:square;stroke-width:1.5;"/>
   </g>
   <g id="line2d_54">
    <path clip-path="url(#p29965a6373)" d="M 410.167371 487.828619 
L 419.70784 484.187183 
L 429.24831 480.292895 
L 438.788779 476.235778 
L 448.329249 472.333776 
L 457.869718 468.789202 
" style="fill:none;stroke:#f77189;stroke-dasharray:1.5,2.475;stroke-dashoffset:0;stroke-width:1.5;"/>
   </g>
   <g id="line2d_55">
    <path clip-path="url(#p29965a6373)" d="M 76.250939 595.576015 
L 85.791408 595.576015 
L 95.331878 593.562045 
L 104.872347 592.55506 
L 114.412817 592.55506 
L 123.953286 592.55506 
L 133.493756 591.548075 
L 143.034225 590.54109 
L 152.574695 587.520135 
L 162.115164 587.520135 
L 171.655634 587.520135 
L 181.196103 586.51315 
L 190.736573 584.49918 
L 200.277042 583.492195 
L 209.817512 582.48521 
L 219.357981 579.464255 
L 228.898451 578.45727 
L 238.43892 576.4433 
L 247.97939 576.4433 
L 257.519859 576.4433 
L 267.060329 563.352494 
L 276.600798 560.331539 
L 286.141268 560.331539 
L 295.681737 558.317569 
L 305.222207 557.310584 
L 314.762676 557.310584 
L 324.303146 556.303599 
L 333.843615 554.289629 
L 343.384085 553.282644 
L 352.924554 551.268674 
L 362.465023 547.240734 
L 372.005493 547.240734 
L 381.545962 547.240734 
L 391.086432 544.219779 
L 400.626901 542.205809 
L 410.167371 539.184854 
" style="fill:none;stroke:#ae9d31;stroke-linecap:square;stroke-width:1.5;"/>
   </g>
   <g id="line2d_56">
    <path clip-path="url(#p29965a6373)" d="M 410.167371 539.184854 
L 419.70784 536.274564 
L 429.24831 533.377603 
L 438.788779 530.500589 
L 448.329249 527.790722 
L 457.869718 525.391726 
" style="fill:none;stroke:#ae9d31;stroke-dasharray:1.5,2.475;stroke-dashoffset:0;stroke-width:1.5;"/>
   </g>
   <g id="line2d_57">
    <path clip-path="url(#p29965a6373)" d="M 76.250939 594.56903 
L 85.791408 593.562045 
L 95.331878 593.562045 
L 104.872347 593.562045 
L 114.412817 593.562045 
L 123.953286 589.534105 
L 133.493756 589.534105 
L 143.034225 589.534105 
L 152.574695 586.51315 
L 162.115164 586.51315 
L 171.655634 586.51315 
L 181.196103 586.51315 
L 190.736573 578.45727 
L 200.277042 578.45727 
L 209.817512 578.45727 
L 219.357981 578.45727 
L 228.898451 578.45727 
L 238.43892 578.45727 
L 247.97939 578.45727 
L 257.519859 578.45727 
L 267.060329 578.45727 
L 276.600798 571.408374 
L 286.141268 571.408374 
L 295.681737 571.408374 
L 305.222207 571.408374 
L 314.762676 571.408374 
L 324.303146 571.408374 
L 333.843615 561.338524 
L 343.384085 560.331539 
L 352.924554 558.317569 
L 362.465023 558.317569 
L 372.005493 558.317569 
L 381.545962 558.317569 
L 391.086432 551.268674 
L 400.626901 551.268674 
L 410.167371 551.268674 
" style="fill:none;stroke:#33b07a;stroke-linecap:square;stroke-width:1.5;"/>
   </g>
   <g id="line2d_58">
    <path clip-path="url(#p29965a6373)" d="M 410.167371 551.268674 
L 419.70784 548.270084 
L 429.24831 545.977411 
L 438.788779 543.6792 
L 448.329249 541.510547 
L 457.869718 539.566768 
" style="fill:none;stroke:#33b07a;stroke-dasharray:1.5,2.475;stroke-dashoffset:0;stroke-width:1.5;"/>
   </g>
   <g id="line2d_59">
    <path clip-path="url(#p29965a6373)" d="M 76.250939 598.59697 
L 85.791408 597.589985 
L 95.331878 596.583 
L 104.872347 596.583 
L 114.412817 596.583 
L 123.953286 596.583 
L 133.493756 596.583 
L 143.034225 596.583 
L 152.574695 594.56903 
L 162.115164 594.56903 
L 171.655634 593.562045 
L 181.196103 592.55506 
L 190.736573 592.55506 
L 200.277042 592.55506 
L 209.817512 591.548075 
L 219.357981 590.54109 
L 228.898451 588.52712 
L 238.43892 588.52712 
L 247.97939 588.52712 
L 257.519859 587.520135 
L 267.060329 585.506165 
L 276.600798 583.492195 
L 286.141268 583.492195 
L 295.681737 580.47124 
L 305.222207 579.464255 
L 314.762676 577.450285 
L 324.303146 577.450285 
L 333.843615 577.450285 
L 343.384085 576.4433 
L 352.924554 576.4433 
L 362.465023 574.429329 
L 372.005493 574.429329 
L 381.545962 574.429329 
L 391.086432 574.429329 
L 400.626901 574.429329 
L 410.167371 572.415359 
" style="fill:none;stroke:#38a9c5;stroke-linecap:square;stroke-width:1.5;"/>
   </g>
   <g id="line2d_60">
    <path clip-path="url(#p29965a6373)" d="M 410.167371 572.415359 
L 419.70784 571.482455 
L 429.24831 570.246955 
L 438.788779 569.063463 
L 448.329249 567.971001 
L 457.869718 567.030636 
" style="fill:none;stroke:#38a9c5;stroke-dasharray:1.5,2.475;stroke-dashoffset:0;stroke-width:1.5;"/>
   </g>
   <g id="line2d_61">
    <path clip-path="url(#p29965a6373)" d="M 76.250939 597.589985 
L 85.791408 596.583 
L 95.331878 595.576015 
L 104.872347 594.56903 
L 114.412817 593.562045 
L 123.953286 593.562045 
L 133.493756 592.55506 
L 143.034225 592.55506 
L 152.574695 592.55506 
L 162.115164 591.548075 
L 171.655634 591.548075 
L 181.196103 590.54109 
L 190.736573 590.54109 
L 200.277042 589.534105 
L 209.817512 589.534105 
L 219.357981 586.51315 
L 228.898451 586.51315 
L 238.43892 585.506165 
L 247.97939 584.49918 
L 257.519859 584.49918 
L 267.060329 582.48521 
L 276.600798 582.48521 
L 286.141268 582.48521 
L 295.681737 579.464255 
L 305.222207 579.464255 
L 314.762676 579.464255 
L 324.303146 579.464255 
L 333.843615 578.45727 
L 343.384085 578.45727 
L 352.924554 577.450285 
L 362.465023 577.450285 
L 372.005493 577.450285 
L 381.545962 576.4433 
L 391.086432 576.4433 
L 400.626901 576.4433 
L 410.167371 574.429329 
" style="fill:none;stroke:#cc7af4;stroke-linecap:square;stroke-width:1.5;"/>
   </g>
   <g id="line2d_62">
    <path clip-path="url(#p29965a6373)" d="M 410.167371 574.429329 
L 419.70784 573.450524 
L 429.24831 572.216422 
L 438.788779 571.041198 
L 448.329249 570.024132 
L 457.869718 569.207596 
" style="fill:none;stroke:#cc7af4;stroke-dasharray:1.5,2.475;stroke-dashoffset:0;stroke-width:1.5;"/>
   </g>
   <g id="patch_13">
    <path d="M 57.17 606.04 
L 57.17 442.293333 
" style="fill:none;stroke:#ffffff;stroke-linecap:square;stroke-linejoin:miter;stroke-width:0.8;"/>
   </g>
   <g id="patch_14">
    <path d="M 565.2 606.04 
L 565.2 442.293333 
" style="fill:none;stroke:#ffffff;stroke-linecap:square;stroke-linejoin:miter;stroke-width:0.8;"/>
   </g>
   <g id="patch_15">
    <path d="M 57.17 606.04 
L 565.2 606.04 
" style="fill:none;stroke:#ffffff;stroke-linecap:square;stroke-linejoin:miter;stroke-width:0.8;"/>
   </g>
   <g id="patch_16">
    <path d="M 57.17 442.293333 
L 565.2 442.293333 
" style="fill:none;stroke:#ffffff;stroke-linecap:square;stroke-linejoin:miter;stroke-width:0.8;"/>
   </g>
   <g id="text_48">
    <!-- Santa Clara, CA -->
    <defs>
     <path d="M 53.515625 70.515625 
L 53.515625 60.890625 
Q 47.90625 63.578125 42.921875 64.890625 
Q 37.9375 66.21875 33.296875 66.21875 
Q 25.25 66.21875 20.875 63.09375 
Q 16.5 59.96875 16.5 54.203125 
Q 16.5 49.359375 19.40625 46.890625 
Q 22.3125 44.4375 30.421875 42.921875 
L 36.375 41.703125 
Q 47.40625 39.59375 52.65625 34.296875 
Q 57.90625 29 57.90625 20.125 
Q 57.90625 9.515625 50.796875 4.046875 
Q 43.703125 -1.421875 29.984375 -1.421875 
Q 24.8125 -1.421875 18.96875 -0.25 
Q 13.140625 0.921875 6.890625 3.21875 
L 6.890625 13.375 
Q 12.890625 10.015625 18.65625 8.296875 
Q 24.421875 6.59375 29.984375 6.59375 
Q 38.421875 6.59375 43.015625 9.90625 
Q 47.609375 13.234375 47.609375 19.390625 
Q 47.609375 24.75 44.3125 27.78125 
Q 41.015625 30.8125 33.5 32.328125 
L 27.484375 33.5 
Q 16.453125 35.6875 11.515625 40.375 
Q 6.59375 45.0625 6.59375 53.421875 
Q 6.59375 63.09375 13.40625 68.65625 
Q 20.21875 74.21875 32.171875 74.21875 
Q 37.3125 74.21875 42.625 73.28125 
Q 47.953125 72.359375 53.515625 70.515625 
z
" id="DejaVuSans-83"/>
    </defs>
    <g style="fill:#f77189;" transform="translate(467.410188 466.347183)scale(0.08 -0.08)">
     <use xlink:href="#DejaVuSans-83"/>
     <use x="63.476562" xlink:href="#DejaVuSans-97"/>
     <use x="124.755859" xlink:href="#DejaVuSans-110"/>
     <use x="188.134766" xlink:href="#DejaVuSans-116"/>
     <use x="227.34375" xlink:href="#DejaVuSans-97"/>
     <use x="288.623047" xlink:href="#DejaVuSans-32"/>
     <use x="320.410156" xlink:href="#DejaVuSans-67"/>
     <use x="390.234375" xlink:href="#DejaVuSans-108"/>
     <use x="418.017578" xlink:href="#DejaVuSans-97"/>
     <use x="479.296875" xlink:href="#DejaVuSans-114"/>
     <use x="520.410156" xlink:href="#DejaVuSans-97"/>
     <use x="581.689453" xlink:href="#DejaVuSans-44"/>
     <use x="613.476562" xlink:href="#DejaVuSans-32"/>
     <use x="645.263672" xlink:href="#DejaVuSans-67"/>
     <use x="715.087891" xlink:href="#DejaVuSans-65"/>
    </g>
   </g>
   <g id="text_49">
    <!-- Alameda, CA -->
    <g style="fill:#ae9d31;" transform="translate(467.410188 522.949707)scale(0.08 -0.08)">
     <use xlink:href="#DejaVuSans-65"/>
     <use x="68.408203" xlink:href="#DejaVuSans-108"/>
     <use x="96.191406" xlink:href="#DejaVuSans-97"/>
     <use x="157.470703" xlink:href="#DejaVuSans-109"/>
     <use x="254.882812" xlink:href="#DejaVuSans-101"/>
     <use x="316.40625" xlink:href="#DejaVuSans-100"/>
     <use x="379.882812" xlink:href="#DejaVuSans-97"/>
     <use x="441.162109" xlink:href="#DejaVuSans-44"/>
     <use x="472.949219" xlink:href="#DejaVuSans-32"/>
     <use x="504.736328" xlink:href="#DejaVuSans-67"/>
     <use x="574.560547" xlink:href="#DejaVuSans-65"/>
    </g>
   </g>
   <g id="text_50">
    <!-- San Mateo, CA -->
    <g style="fill:#33b07a;" transform="translate(467.410188 537.124748)scale(0.08 -0.08)">
     <use xlink:href="#DejaVuSans-83"/>
     <use x="63.476562" xlink:href="#DejaVuSans-97"/>
     <use x="124.755859" xlink:href="#DejaVuSans-110"/>
     <use x="188.134766" xlink:href="#DejaVuSans-32"/>
     <use x="219.921875" xlink:href="#DejaVuSans-77"/>
     <use x="306.201172" xlink:href="#DejaVuSans-97"/>
     <use x="367.480469" xlink:href="#DejaVuSans-116"/>
     <use x="406.689453" xlink:href="#DejaVuSans-101"/>
     <use x="468.212891" xlink:href="#DejaVuSans-111"/>
     <use x="529.394531" xlink:href="#DejaVuSans-44"/>
     <use x="561.181641" xlink:href="#DejaVuSans-32"/>
     <use x="592.96875" xlink:href="#DejaVuSans-67"/>
     <use x="662.792969" xlink:href="#DejaVuSans-65"/>
    </g>
   </g>
   <g id="text_51">
    <!-- Contra Costa, CA -->
    <g style="fill:#38a9c5;" transform="translate(467.410188 564.588616)scale(0.08 -0.08)">
     <use xlink:href="#DejaVuSans-67"/>
     <use x="69.824219" xlink:href="#DejaVuSans-111"/>
     <use x="131.005859" xlink:href="#DejaVuSans-110"/>
     <use x="194.384766" xlink:href="#DejaVuSans-116"/>
     <use x="233.59375" xlink:href="#DejaVuSans-114"/>
     <use x="274.707031" xlink:href="#DejaVuSans-97"/>
     <use x="335.986328" xlink:href="#DejaVuSans-32"/>
     <use x="367.773438" xlink:href="#DejaVuSans-67"/>
     <use x="437.597656" xlink:href="#DejaVuSans-111"/>
     <use x="498.779297" xlink:href="#DejaVuSans-115"/>
     <use x="550.878906" xlink:href="#DejaVuSans-116"/>
     <use x="590.087891" xlink:href="#DejaVuSans-97"/>
     <use x="651.367188" xlink:href="#DejaVuSans-44"/>
     <use x="683.154297" xlink:href="#DejaVuSans-32"/>
     <use x="714.941406" xlink:href="#DejaVuSans-67"/>
     <use x="784.765625" xlink:href="#DejaVuSans-65"/>
    </g>
   </g>
   <g id="text_52">
    <!-- San Francisco, CA -->
    <defs>
     <path d="M 9.8125 72.90625 
L 51.703125 72.90625 
L 51.703125 64.59375 
L 19.671875 64.59375 
L 19.671875 43.109375 
L 48.578125 43.109375 
L 48.578125 34.8125 
L 19.671875 34.8125 
L 19.671875 0 
L 9.8125 0 
z
" id="DejaVuSans-70"/>
    </defs>
    <g style="fill:#cc7af4;" transform="translate(467.410188 576.064615)scale(0.08 -0.08)">
     <use xlink:href="#DejaVuSans-83"/>
     <use x="63.476562" xlink:href="#DejaVuSans-97"/>
     <use x="124.755859" xlink:href="#DejaVuSans-110"/>
     <use x="188.134766" xlink:href="#DejaVuSans-32"/>
     <use x="219.921875" xlink:href="#DejaVuSans-70"/>
     <use x="270.191406" xlink:href="#DejaVuSans-114"/>
     <use x="311.304688" xlink:href="#DejaVuSans-97"/>
     <use x="372.583984" xlink:href="#DejaVuSans-110"/>
     <use x="435.962891" xlink:href="#DejaVuSans-99"/>
     <use x="490.943359" xlink:href="#DejaVuSans-105"/>
     <use x="518.726562" xlink:href="#DejaVuSans-115"/>
     <use x="570.826172" xlink:href="#DejaVuSans-99"/>
     <use x="625.806641" xlink:href="#DejaVuSans-111"/>
     <use x="686.988281" xlink:href="#DejaVuSans-44"/>
     <use x="718.775391" xlink:href="#DejaVuSans-32"/>
     <use x="750.5625" xlink:href="#DejaVuSans-67"/>
     <use x="820.386719" xlink:href="#DejaVuSans-65"/>
    </g>
   </g>
   <g id="text_53">
    <!-- Bay area counties -->
    <g style="fill:#ffffff;" transform="translate(257.2375 436.293333)scale(0.12 -0.12)">
     <use xlink:href="#DejaVuSans-66"/>
     <use x="68.603516" xlink:href="#DejaVuSans-97"/>
     <use x="129.882812" xlink:href="#DejaVuSans-121"/>
     <use x="189.0625" xlink:href="#DejaVuSans-32"/>
     <use x="220.849609" xlink:href="#DejaVuSans-97"/>
     <use x="282.128906" xlink:href="#DejaVuSans-114"/>
     <use x="320.992188" xlink:href="#DejaVuSans-101"/>
     <use x="382.515625" xlink:href="#DejaVuSans-97"/>
     <use x="443.794922" xlink:href="#DejaVuSans-32"/>
     <use x="475.582031" xlink:href="#DejaVuSans-99"/>
     <use x="530.5625" xlink:href="#DejaVuSans-111"/>
     <use x="591.744141" xlink:href="#DejaVuSans-117"/>
     <use x="655.123047" xlink:href="#DejaVuSans-110"/>
     <use x="718.501953" xlink:href="#DejaVuSans-116"/>
     <use x="757.710938" xlink:href="#DejaVuSans-105"/>
     <use x="785.494141" xlink:href="#DejaVuSans-101"/>
     <use x="847.017578" xlink:href="#DejaVuSans-115"/>
    </g>
   </g>
  </g>
 </g>
 <defs>
  <clipPath id="pdeee4aad6c">
   <rect height="163.746667" width="508.03" x="57.17" y="26.88"/>
  </clipPath>
  <clipPath id="p97dea7c8f9">
   <rect height="163.746667" width="508.03" x="57.17" y="234.586667"/>
  </clipPath>
  <clipPath id="p29965a6373">
   <rect height="163.746667" width="508.03" x="57.17" y="442.293333"/>
  </clipPath>
 </defs>
</svg>
