<?xml version="1.0" encoding="utf-8" standalone="no"?>
<!DOCTYPE svg PUBLIC "-//W3C//DTD SVG 1.1//EN"
  "http://www.w3.org/Graphics/SVG/1.1/DTD/svg11.dtd">
<!-- Created with matplotlib (http://matplotlib.org/) -->
<svg height="648pt" version="1.1" viewBox="0 0 576 648" width="576pt" xmlns="http://www.w3.org/2000/svg" xmlns:xlink="http://www.w3.org/1999/xlink">
 <defs>
  <style type="text/css">
*{stroke-linecap:butt;stroke-linejoin:round;}
  </style>
 </defs>
 <g id="figure_1">
  <g id="patch_1">
   <path d="M 0 648 
L 576 648 
L 576 0 
L 0 0 
z
"/>
  </g>
  <g id="axes_1">
   <g id="patch_2">
    <path d="M 57.26 190.626667 
L 562.68 190.626667 
L 562.68 25.44 
L 57.26 25.44 
z
"/>
   </g>
   <g id="PolyCollection_1">
    <defs>
     <path d="M 402.270947 -562.823575 
L 402.270947 -562.823575 
L 412.789573 -562.823575 
L 423.3082 -562.823575 
L 433.826826 -562.823575 
L 444.345453 -562.823575 
L 454.864079 -562.823575 
L 454.864079 -615.051515 
L 454.864079 -615.051515 
L 444.345453 -607.996012 
L 433.826826 -599.583966 
L 423.3082 -589.671634 
L 412.789573 -574.803982 
L 402.270947 -562.823575 
z
" id="meeea58d152" style="stroke:#f77189;stroke-opacity:0.1;"/>
    </defs>
    <g clip-path="url(#p66a4a535a4)">
     <use style="fill:#f77189;fill-opacity:0.1;stroke:#f77189;stroke-opacity:0.1;" x="0" xlink:href="#meeea58d152" y="648"/>
    </g>
   </g>
   <g id="PolyCollection_2">
    <defs>
     <path d="M 402.270947 -562.085677 
L 402.270947 -562.085677 
L 412.789573 -562.085677 
L 423.3082 -562.085677 
L 433.826826 -562.085677 
L 444.345453 -562.085677 
L 454.864079 -564.406551 
L 454.864079 -612.829682 
L 454.864079 -612.829682 
L 444.345453 -604.326899 
L 433.826826 -595.653425 
L 423.3082 -588.508374 
L 412.789573 -574.41387 
L 402.270947 -562.085677 
z
" id="mb84073c45d" style="stroke:#ae9d31;stroke-opacity:0.1;"/>
    </defs>
    <g clip-path="url(#p66a4a535a4)">
     <use style="fill:#ae9d31;fill-opacity:0.1;stroke:#ae9d31;stroke-opacity:0.1;" x="0" xlink:href="#mb84073c45d" y="648"/>
    </g>
   </g>
   <g id="PolyCollection_3">
    <defs>
     <path d="M 402.270947 -528.766748 
L 402.270947 -528.766748 
L 412.789573 -528.766748 
L 423.3082 -528.766748 
L 433.826826 -528.766748 
L 444.345453 -528.766748 
L 454.864079 -528.846404 
L 454.864079 -561.423571 
L 454.864079 -561.423571 
L 444.345453 -555.647401 
L 433.826826 -551.613699 
L 423.3082 -545.606407 
L 412.789573 -536.683885 
L 402.270947 -528.766748 
z
" id="m4ae15ef439" style="stroke:#33b07a;stroke-opacity:0.1;"/>
    </defs>
    <g clip-path="url(#p66a4a535a4)">
     <use style="fill:#33b07a;fill-opacity:0.1;stroke:#33b07a;stroke-opacity:0.1;" x="0" xlink:href="#m4ae15ef439" y="648"/>
    </g>
   </g>
   <g id="PolyCollection_4">
    <defs>
     <path d="M 402.270947 -505.295919 
L 402.270947 -505.295919 
L 412.789573 -505.295919 
L 423.3082 -505.295919 
L 433.826826 -506.485887 
L 444.345453 -505.295919 
L 454.864079 -505.295919 
L 454.864079 -529.276709 
L 454.864079 -529.276709 
L 444.345453 -522.886629 
L 433.826826 -515.817364 
L 423.3082 -513.191128 
L 412.789573 -511.454076 
L 402.270947 -505.295919 
z
" id="m063681cf4e" style="stroke:#38a9c5;stroke-opacity:0.1;"/>
    </defs>
    <g clip-path="url(#p66a4a535a4)">
     <use style="fill:#38a9c5;fill-opacity:0.1;stroke:#38a9c5;stroke-opacity:0.1;" x="0" xlink:href="#m063681cf4e" y="648"/>
    </g>
   </g>
   <g id="PolyCollection_5">
    <defs>
     <path d="M 402.270947 -502.628134 
L 402.270947 -502.628134 
L 412.789573 -502.628134 
L 423.3082 -502.628134 
L 433.826826 -502.628134 
L 444.345453 -502.748306 
L 454.864079 -503.831919 
L 454.864079 -514.540378 
L 454.864079 -514.540378 
L 444.345453 -512.966227 
L 433.826826 -511.875425 
L 423.3082 -510.244515 
L 412.789573 -507.322585 
L 402.270947 -502.628134 
z
" id="mcd0c55f3c5" style="stroke:#cc7af4;stroke-opacity:0.1;"/>
    </defs>
    <g clip-path="url(#p66a4a535a4)">
     <use style="fill:#cc7af4;fill-opacity:0.1;stroke:#cc7af4;stroke-opacity:0.1;" x="0" xlink:href="#mcd0c55f3c5" y="648"/>
    </g>
   </g>
   <g id="matplotlib.axis_1">
    <g id="xtick_1">
     <g id="line2d_1">
      <defs>
       <path d="M 0 0 
L 0 3.5 
" id="m845b0c23b7" style="stroke:#ffffff;stroke-width:0.8;"/>
      </defs>
      <g>
       <use style="fill:#ffffff;stroke:#ffffff;stroke-width:0.8;" x="76.193528" xlink:href="#m845b0c23b7" y="190.626667"/>
      </g>
     </g>
     <g id="text_1">
      <!-- 3/23 -->
      <defs>
       <path d="M 40.578125 39.3125 
Q 47.65625 37.796875 51.625 33 
Q 55.609375 28.21875 55.609375 21.1875 
Q 55.609375 10.40625 48.1875 4.484375 
Q 40.765625 -1.421875 27.09375 -1.421875 
Q 22.515625 -1.421875 17.65625 -0.515625 
Q 12.796875 0.390625 7.625 2.203125 
L 7.625 11.71875 
Q 11.71875 9.328125 16.59375 8.109375 
Q 21.484375 6.890625 26.8125 6.890625 
Q 36.078125 6.890625 40.9375 10.546875 
Q 45.796875 14.203125 45.796875 21.1875 
Q 45.796875 27.640625 41.28125 31.265625 
Q 36.765625 34.90625 28.71875 34.90625 
L 20.21875 34.90625 
L 20.21875 43.015625 
L 29.109375 43.015625 
Q 36.375 43.015625 40.234375 45.921875 
Q 44.09375 48.828125 44.09375 54.296875 
Q 44.09375 59.90625 40.109375 62.90625 
Q 36.140625 65.921875 28.71875 65.921875 
Q 24.65625 65.921875 20.015625 65.03125 
Q 15.375 64.15625 9.8125 62.3125 
L 9.8125 71.09375 
Q 15.4375 72.65625 20.34375 73.4375 
Q 25.25 74.21875 29.59375 74.21875 
Q 40.828125 74.21875 47.359375 69.109375 
Q 53.90625 64.015625 53.90625 55.328125 
Q 53.90625 49.265625 50.4375 45.09375 
Q 46.96875 40.921875 40.578125 39.3125 
z
" id="DejaVuSans-33"/>
       <path d="M 25.390625 72.90625 
L 33.6875 72.90625 
L 8.296875 -9.28125 
L 0 -9.28125 
z
" id="DejaVuSans-2f"/>
       <path d="M 19.1875 8.296875 
L 53.609375 8.296875 
L 53.609375 0 
L 7.328125 0 
L 7.328125 8.296875 
Q 12.9375 14.109375 22.625 23.890625 
Q 32.328125 33.6875 34.8125 36.53125 
Q 39.546875 41.84375 41.421875 45.53125 
Q 43.3125 49.21875 43.3125 52.78125 
Q 43.3125 58.59375 39.234375 62.25 
Q 35.15625 65.921875 28.609375 65.921875 
Q 23.96875 65.921875 18.8125 64.3125 
Q 13.671875 62.703125 7.8125 59.421875 
L 7.8125 69.390625 
Q 13.765625 71.78125 18.9375 73 
Q 24.125 74.21875 28.421875 74.21875 
Q 39.75 74.21875 46.484375 68.546875 
Q 53.21875 62.890625 53.21875 53.421875 
Q 53.21875 48.921875 51.53125 44.890625 
Q 49.859375 40.875 45.40625 35.40625 
Q 44.1875 33.984375 37.640625 27.21875 
Q 31.109375 20.453125 19.1875 8.296875 
z
" id="DejaVuSans-32"/>
      </defs>
      <g style="fill:#ffffff;" transform="translate(64.965403 205.225104)scale(0.1 -0.1)">
       <use xlink:href="#DejaVuSans-33"/>
       <use x="63.623047" xlink:href="#DejaVuSans-2f"/>
       <use x="97.314453" xlink:href="#DejaVuSans-32"/>
       <use x="160.9375" xlink:href="#DejaVuSans-33"/>
      </g>
     </g>
    </g>
    <g id="xtick_2">
     <g id="line2d_2">
      <g>
       <use style="fill:#ffffff;stroke:#ffffff;stroke-width:0.8;" x="402.270947" xlink:href="#m845b0c23b7" y="190.626667"/>
      </g>
     </g>
     <g id="text_2">
      <!-- 4/24 -->
      <defs>
       <path d="M 37.796875 64.3125 
L 12.890625 25.390625 
L 37.796875 25.390625 
z
M 35.203125 72.90625 
L 47.609375 72.90625 
L 47.609375 25.390625 
L 58.015625 25.390625 
L 58.015625 17.1875 
L 47.609375 17.1875 
L 47.609375 0 
L 37.796875 0 
L 37.796875 17.1875 
L 4.890625 17.1875 
L 4.890625 26.703125 
z
" id="DejaVuSans-34"/>
      </defs>
      <g style="fill:#ffffff;" transform="translate(391.042822 205.225104)scale(0.1 -0.1)">
       <use xlink:href="#DejaVuSans-34"/>
       <use x="63.623047" xlink:href="#DejaVuSans-2f"/>
       <use x="97.314453" xlink:href="#DejaVuSans-32"/>
       <use x="160.9375" xlink:href="#DejaVuSans-34"/>
      </g>
     </g>
    </g>
    <g id="xtick_3">
     <g id="line2d_3">
      <g>
       <use style="fill:#ffffff;stroke:#ffffff;stroke-width:0.8;" x="454.864079" xlink:href="#m845b0c23b7" y="190.626667"/>
      </g>
     </g>
     <g id="text_3">
      <!-- 4/29 -->
      <defs>
       <path d="M 10.984375 1.515625 
L 10.984375 10.5 
Q 14.703125 8.734375 18.5 7.8125 
Q 22.3125 6.890625 25.984375 6.890625 
Q 35.75 6.890625 40.890625 13.453125 
Q 46.046875 20.015625 46.78125 33.40625 
Q 43.953125 29.203125 39.59375 26.953125 
Q 35.25 24.703125 29.984375 24.703125 
Q 19.046875 24.703125 12.671875 31.3125 
Q 6.296875 37.9375 6.296875 49.421875 
Q 6.296875 60.640625 12.9375 67.421875 
Q 19.578125 74.21875 30.609375 74.21875 
Q 43.265625 74.21875 49.921875 64.515625 
Q 56.59375 54.828125 56.59375 36.375 
Q 56.59375 19.140625 48.40625 8.859375 
Q 40.234375 -1.421875 26.421875 -1.421875 
Q 22.703125 -1.421875 18.890625 -0.6875 
Q 15.09375 0.046875 10.984375 1.515625 
z
M 30.609375 32.421875 
Q 37.25 32.421875 41.125 36.953125 
Q 45.015625 41.5 45.015625 49.421875 
Q 45.015625 57.28125 41.125 61.84375 
Q 37.25 66.40625 30.609375 66.40625 
Q 23.96875 66.40625 20.09375 61.84375 
Q 16.21875 57.28125 16.21875 49.421875 
Q 16.21875 41.5 20.09375 36.953125 
Q 23.96875 32.421875 30.609375 32.421875 
z
" id="DejaVuSans-39"/>
      </defs>
      <g style="fill:#ffffff;" transform="translate(443.635954 205.225104)scale(0.1 -0.1)">
       <use xlink:href="#DejaVuSans-34"/>
       <use x="63.623047" xlink:href="#DejaVuSans-2f"/>
       <use x="97.314453" xlink:href="#DejaVuSans-32"/>
       <use x="160.9375" xlink:href="#DejaVuSans-39"/>
      </g>
     </g>
    </g>
   </g>
   <g id="matplotlib.axis_2">
    <g id="ytick_1">
     <g id="line2d_4">
      <defs>
       <path d="M 0 0 
L -3.5 0 
" id="m39844678d2" style="stroke:#ffffff;stroke-width:0.8;"/>
      </defs>
      <g>
       <use style="fill:#ffffff;stroke:#ffffff;stroke-width:0.8;" x="57.26" xlink:href="#m39844678d2" y="183.316847"/>
      </g>
     </g>
     <g id="text_4">
      <!-- 0 -->
      <defs>
       <path d="M 31.78125 66.40625 
Q 24.171875 66.40625 20.328125 58.90625 
Q 16.5 51.421875 16.5 36.375 
Q 16.5 21.390625 20.328125 13.890625 
Q 24.171875 6.390625 31.78125 6.390625 
Q 39.453125 6.390625 43.28125 13.890625 
Q 47.125 21.390625 47.125 36.375 
Q 47.125 51.421875 43.28125 58.90625 
Q 39.453125 66.40625 31.78125 66.40625 
z
M 31.78125 74.21875 
Q 44.046875 74.21875 50.515625 64.515625 
Q 56.984375 54.828125 56.984375 36.375 
Q 56.984375 17.96875 50.515625 8.265625 
Q 44.046875 -1.421875 31.78125 -1.421875 
Q 19.53125 -1.421875 13.0625 8.265625 
Q 6.59375 17.96875 6.59375 36.375 
Q 6.59375 54.828125 13.0625 64.515625 
Q 19.53125 74.21875 31.78125 74.21875 
z
" id="DejaVuSans-30"/>
      </defs>
      <g style="fill:#ffffff;" transform="translate(43.8975 187.116065)scale(0.1 -0.1)">
       <use xlink:href="#DejaVuSans-30"/>
      </g>
     </g>
    </g>
    <g id="ytick_2">
     <g id="line2d_5">
      <g>
       <use style="fill:#ffffff;stroke:#ffffff;stroke-width:0.8;" x="57.26" xlink:href="#m39844678d2" y="154.936158"/>
      </g>
     </g>
     <g id="text_5">
      <!-- 1000 -->
      <defs>
       <path d="M 12.40625 8.296875 
L 28.515625 8.296875 
L 28.515625 63.921875 
L 10.984375 60.40625 
L 10.984375 69.390625 
L 28.421875 72.90625 
L 38.28125 72.90625 
L 38.28125 8.296875 
L 54.390625 8.296875 
L 54.390625 0 
L 12.40625 0 
z
" id="DejaVuSans-31"/>
      </defs>
      <g style="fill:#ffffff;" transform="translate(24.81 158.735377)scale(0.1 -0.1)">
       <use xlink:href="#DejaVuSans-31"/>
       <use x="63.623047" xlink:href="#DejaVuSans-30"/>
       <use x="127.246094" xlink:href="#DejaVuSans-30"/>
       <use x="190.869141" xlink:href="#DejaVuSans-30"/>
      </g>
     </g>
    </g>
    <g id="ytick_3">
     <g id="line2d_6">
      <g>
       <use style="fill:#ffffff;stroke:#ffffff;stroke-width:0.8;" x="57.26" xlink:href="#m39844678d2" y="126.555469"/>
      </g>
     </g>
     <g id="text_6">
      <!-- 2000 -->
      <g style="fill:#ffffff;" transform="translate(24.81 130.354688)scale(0.1 -0.1)">
       <use xlink:href="#DejaVuSans-32"/>
       <use x="63.623047" xlink:href="#DejaVuSans-30"/>
       <use x="127.246094" xlink:href="#DejaVuSans-30"/>
       <use x="190.869141" xlink:href="#DejaVuSans-30"/>
      </g>
     </g>
    </g>
    <g id="ytick_4">
     <g id="line2d_7">
      <g>
       <use style="fill:#ffffff;stroke:#ffffff;stroke-width:0.8;" x="57.26" xlink:href="#m39844678d2" y="98.174781"/>
      </g>
     </g>
     <g id="text_7">
      <!-- 3000 -->
      <g style="fill:#ffffff;" transform="translate(24.81 101.973999)scale(0.1 -0.1)">
       <use xlink:href="#DejaVuSans-33"/>
       <use x="63.623047" xlink:href="#DejaVuSans-30"/>
       <use x="127.246094" xlink:href="#DejaVuSans-30"/>
       <use x="190.869141" xlink:href="#DejaVuSans-30"/>
      </g>
     </g>
    </g>
    <g id="ytick_5">
     <g id="line2d_8">
      <g>
       <use style="fill:#ffffff;stroke:#ffffff;stroke-width:0.8;" x="57.26" xlink:href="#m39844678d2" y="69.794092"/>
      </g>
     </g>
     <g id="text_8">
      <!-- 4000 -->
      <g style="fill:#ffffff;" transform="translate(24.81 73.593311)scale(0.1 -0.1)">
       <use xlink:href="#DejaVuSans-34"/>
       <use x="63.623047" xlink:href="#DejaVuSans-30"/>
       <use x="127.246094" xlink:href="#DejaVuSans-30"/>
       <use x="190.869141" xlink:href="#DejaVuSans-30"/>
      </g>
     </g>
    </g>
    <g id="ytick_6">
     <g id="line2d_9">
      <g>
       <use style="fill:#ffffff;stroke:#ffffff;stroke-width:0.8;" x="57.26" xlink:href="#m39844678d2" y="41.413403"/>
      </g>
     </g>
     <g id="text_9">
      <!-- 5000 -->
      <defs>
       <path d="M 10.796875 72.90625 
L 49.515625 72.90625 
L 49.515625 64.59375 
L 19.828125 64.59375 
L 19.828125 46.734375 
Q 21.96875 47.46875 24.109375 47.828125 
Q 26.265625 48.1875 28.421875 48.1875 
Q 40.625 48.1875 47.75 41.5 
Q 54.890625 34.8125 54.890625 23.390625 
Q 54.890625 11.625 47.5625 5.09375 
Q 40.234375 -1.421875 26.90625 -1.421875 
Q 22.3125 -1.421875 17.546875 -0.640625 
Q 12.796875 0.140625 7.71875 1.703125 
L 7.71875 11.625 
Q 12.109375 9.234375 16.796875 8.0625 
Q 21.484375 6.890625 26.703125 6.890625 
Q 35.15625 6.890625 40.078125 11.328125 
Q 45.015625 15.765625 45.015625 23.390625 
Q 45.015625 31 40.078125 35.4375 
Q 35.15625 39.890625 26.703125 39.890625 
Q 22.75 39.890625 18.8125 39.015625 
Q 14.890625 38.140625 10.796875 36.28125 
z
" id="DejaVuSans-35"/>
      </defs>
      <g style="fill:#ffffff;" transform="translate(24.81 45.212622)scale(0.1 -0.1)">
       <use xlink:href="#DejaVuSans-35"/>
       <use x="63.623047" xlink:href="#DejaVuSans-30"/>
       <use x="127.246094" xlink:href="#DejaVuSans-30"/>
       <use x="190.869141" xlink:href="#DejaVuSans-30"/>
      </g>
     </g>
    </g>
    <g id="text_10">
     <!-- Cumulative deaths -->
     <defs>
      <path d="M 64.40625 67.28125 
L 64.40625 56.890625 
Q 59.421875 61.53125 53.78125 63.8125 
Q 48.140625 66.109375 41.796875 66.109375 
Q 29.296875 66.109375 22.65625 58.46875 
Q 16.015625 50.828125 16.015625 36.375 
Q 16.015625 21.96875 22.65625 14.328125 
Q 29.296875 6.6875 41.796875 6.6875 
Q 48.140625 6.6875 53.78125 8.984375 
Q 59.421875 11.28125 64.40625 15.921875 
L 64.40625 5.609375 
Q 59.234375 2.09375 53.4375 0.328125 
Q 47.65625 -1.421875 41.21875 -1.421875 
Q 24.65625 -1.421875 15.125 8.703125 
Q 5.609375 18.84375 5.609375 36.375 
Q 5.609375 53.953125 15.125 64.078125 
Q 24.65625 74.21875 41.21875 74.21875 
Q 47.75 74.21875 53.53125 72.484375 
Q 59.328125 70.75 64.40625 67.28125 
z
" id="DejaVuSans-43"/>
      <path d="M 8.5 21.578125 
L 8.5 54.6875 
L 17.484375 54.6875 
L 17.484375 21.921875 
Q 17.484375 14.15625 20.5 10.265625 
Q 23.53125 6.390625 29.59375 6.390625 
Q 36.859375 6.390625 41.078125 11.03125 
Q 45.3125 15.671875 45.3125 23.6875 
L 45.3125 54.6875 
L 54.296875 54.6875 
L 54.296875 0 
L 45.3125 0 
L 45.3125 8.40625 
Q 42.046875 3.421875 37.71875 1 
Q 33.40625 -1.421875 27.6875 -1.421875 
Q 18.265625 -1.421875 13.375 4.4375 
Q 8.5 10.296875 8.5 21.578125 
z
M 31.109375 56 
z
" id="DejaVuSans-75"/>
      <path d="M 52 44.1875 
Q 55.375 50.25 60.0625 53.125 
Q 64.75 56 71.09375 56 
Q 79.640625 56 84.28125 50.015625 
Q 88.921875 44.046875 88.921875 33.015625 
L 88.921875 0 
L 79.890625 0 
L 79.890625 32.71875 
Q 79.890625 40.578125 77.09375 44.375 
Q 74.3125 48.1875 68.609375 48.1875 
Q 61.625 48.1875 57.5625 43.546875 
Q 53.515625 38.921875 53.515625 30.90625 
L 53.515625 0 
L 44.484375 0 
L 44.484375 32.71875 
Q 44.484375 40.625 41.703125 44.40625 
Q 38.921875 48.1875 33.109375 48.1875 
Q 26.21875 48.1875 22.15625 43.53125 
Q 18.109375 38.875 18.109375 30.90625 
L 18.109375 0 
L 9.078125 0 
L 9.078125 54.6875 
L 18.109375 54.6875 
L 18.109375 46.1875 
Q 21.1875 51.21875 25.484375 53.609375 
Q 29.78125 56 35.6875 56 
Q 41.65625 56 45.828125 52.96875 
Q 50 49.953125 52 44.1875 
z
" id="DejaVuSans-6d"/>
      <path d="M 9.421875 75.984375 
L 18.40625 75.984375 
L 18.40625 0 
L 9.421875 0 
z
" id="DejaVuSans-6c"/>
      <path d="M 34.28125 27.484375 
Q 23.390625 27.484375 19.1875 25 
Q 14.984375 22.515625 14.984375 16.5 
Q 14.984375 11.71875 18.140625 8.90625 
Q 21.296875 6.109375 26.703125 6.109375 
Q 34.1875 6.109375 38.703125 11.40625 
Q 43.21875 16.703125 43.21875 25.484375 
L 43.21875 27.484375 
z
M 52.203125 31.203125 
L 52.203125 0 
L 43.21875 0 
L 43.21875 8.296875 
Q 40.140625 3.328125 35.546875 0.953125 
Q 30.953125 -1.421875 24.3125 -1.421875 
Q 15.921875 -1.421875 10.953125 3.296875 
Q 6 8.015625 6 15.921875 
Q 6 25.140625 12.171875 29.828125 
Q 18.359375 34.515625 30.609375 34.515625 
L 43.21875 34.515625 
L 43.21875 35.40625 
Q 43.21875 41.609375 39.140625 45 
Q 35.0625 48.390625 27.6875 48.390625 
Q 23 48.390625 18.546875 47.265625 
Q 14.109375 46.140625 10.015625 43.890625 
L 10.015625 52.203125 
Q 14.9375 54.109375 19.578125 55.046875 
Q 24.21875 56 28.609375 56 
Q 40.484375 56 46.34375 49.84375 
Q 52.203125 43.703125 52.203125 31.203125 
z
" id="DejaVuSans-61"/>
      <path d="M 18.3125 70.21875 
L 18.3125 54.6875 
L 36.8125 54.6875 
L 36.8125 47.703125 
L 18.3125 47.703125 
L 18.3125 18.015625 
Q 18.3125 11.328125 20.140625 9.421875 
Q 21.96875 7.515625 27.59375 7.515625 
L 36.8125 7.515625 
L 36.8125 0 
L 27.59375 0 
Q 17.1875 0 13.234375 3.875 
Q 9.28125 7.765625 9.28125 18.015625 
L 9.28125 47.703125 
L 2.6875 47.703125 
L 2.6875 54.6875 
L 9.28125 54.6875 
L 9.28125 70.21875 
z
" id="DejaVuSans-74"/>
      <path d="M 9.421875 54.6875 
L 18.40625 54.6875 
L 18.40625 0 
L 9.421875 0 
z
M 9.421875 75.984375 
L 18.40625 75.984375 
L 18.40625 64.59375 
L 9.421875 64.59375 
z
" id="DejaVuSans-69"/>
      <path d="M 2.984375 54.6875 
L 12.5 54.6875 
L 29.59375 8.796875 
L 46.6875 54.6875 
L 56.203125 54.6875 
L 35.6875 0 
L 23.484375 0 
z
" id="DejaVuSans-76"/>
      <path d="M 56.203125 29.59375 
L 56.203125 25.203125 
L 14.890625 25.203125 
Q 15.484375 15.921875 20.484375 11.0625 
Q 25.484375 6.203125 34.421875 6.203125 
Q 39.59375 6.203125 44.453125 7.46875 
Q 49.3125 8.734375 54.109375 11.28125 
L 54.109375 2.78125 
Q 49.265625 0.734375 44.1875 -0.34375 
Q 39.109375 -1.421875 33.890625 -1.421875 
Q 20.796875 -1.421875 13.15625 6.1875 
Q 5.515625 13.8125 5.515625 26.8125 
Q 5.515625 40.234375 12.765625 48.109375 
Q 20.015625 56 32.328125 56 
Q 43.359375 56 49.78125 48.890625 
Q 56.203125 41.796875 56.203125 29.59375 
z
M 47.21875 32.234375 
Q 47.125 39.59375 43.09375 43.984375 
Q 39.0625 48.390625 32.421875 48.390625 
Q 24.90625 48.390625 20.390625 44.140625 
Q 15.875 39.890625 15.1875 32.171875 
z
" id="DejaVuSans-65"/>
      <path id="DejaVuSans-20"/>
      <path d="M 45.40625 46.390625 
L 45.40625 75.984375 
L 54.390625 75.984375 
L 54.390625 0 
L 45.40625 0 
L 45.40625 8.203125 
Q 42.578125 3.328125 38.25 0.953125 
Q 33.9375 -1.421875 27.875 -1.421875 
Q 17.96875 -1.421875 11.734375 6.484375 
Q 5.515625 14.40625 5.515625 27.296875 
Q 5.515625 40.1875 11.734375 48.09375 
Q 17.96875 56 27.875 56 
Q 33.9375 56 38.25 53.625 
Q 42.578125 51.265625 45.40625 46.390625 
z
M 14.796875 27.296875 
Q 14.796875 17.390625 18.875 11.75 
Q 22.953125 6.109375 30.078125 6.109375 
Q 37.203125 6.109375 41.296875 11.75 
Q 45.40625 17.390625 45.40625 27.296875 
Q 45.40625 37.203125 41.296875 42.84375 
Q 37.203125 48.484375 30.078125 48.484375 
Q 22.953125 48.484375 18.875 42.84375 
Q 14.796875 37.203125 14.796875 27.296875 
z
" id="DejaVuSans-64"/>
      <path d="M 54.890625 33.015625 
L 54.890625 0 
L 45.90625 0 
L 45.90625 32.71875 
Q 45.90625 40.484375 42.875 44.328125 
Q 39.84375 48.1875 33.796875 48.1875 
Q 26.515625 48.1875 22.3125 43.546875 
Q 18.109375 38.921875 18.109375 30.90625 
L 18.109375 0 
L 9.078125 0 
L 9.078125 75.984375 
L 18.109375 75.984375 
L 18.109375 46.1875 
Q 21.34375 51.125 25.703125 53.5625 
Q 30.078125 56 35.796875 56 
Q 45.21875 56 50.046875 50.171875 
Q 54.890625 44.34375 54.890625 33.015625 
z
" id="DejaVuSans-68"/>
      <path d="M 44.28125 53.078125 
L 44.28125 44.578125 
Q 40.484375 46.53125 36.375 47.5 
Q 32.28125 48.484375 27.875 48.484375 
Q 21.1875 48.484375 17.84375 46.4375 
Q 14.5 44.390625 14.5 40.28125 
Q 14.5 37.15625 16.890625 35.375 
Q 19.28125 33.59375 26.515625 31.984375 
L 29.59375 31.296875 
Q 39.15625 29.25 43.1875 25.515625 
Q 47.21875 21.78125 47.21875 15.09375 
Q 47.21875 7.46875 41.1875 3.015625 
Q 35.15625 -1.421875 24.609375 -1.421875 
Q 20.21875 -1.421875 15.453125 -0.5625 
Q 10.6875 0.296875 5.421875 2 
L 5.421875 11.28125 
Q 10.40625 8.6875 15.234375 7.390625 
Q 20.0625 6.109375 24.8125 6.109375 
Q 31.15625 6.109375 34.5625 8.28125 
Q 37.984375 10.453125 37.984375 14.40625 
Q 37.984375 18.0625 35.515625 20.015625 
Q 33.0625 21.96875 24.703125 23.78125 
L 21.578125 24.515625 
Q 13.234375 26.265625 9.515625 29.90625 
Q 5.8125 33.546875 5.8125 39.890625 
Q 5.8125 47.609375 11.28125 51.796875 
Q 16.75 56 26.8125 56 
Q 31.78125 56 36.171875 55.265625 
Q 40.578125 54.546875 44.28125 53.078125 
z
" id="DejaVuSans-73"/>
     </defs>
     <g style="fill:#ffffff;" transform="translate(18.730312 155.208333)rotate(-90)scale(0.1 -0.1)">
      <use xlink:href="#DejaVuSans-43"/>
      <use x="69.824219" xlink:href="#DejaVuSans-75"/>
      <use x="133.203125" xlink:href="#DejaVuSans-6d"/>
      <use x="230.615234" xlink:href="#DejaVuSans-75"/>
      <use x="293.994141" xlink:href="#DejaVuSans-6c"/>
      <use x="321.777344" xlink:href="#DejaVuSans-61"/>
      <use x="383.056641" xlink:href="#DejaVuSans-74"/>
      <use x="422.265625" xlink:href="#DejaVuSans-69"/>
      <use x="450.048828" xlink:href="#DejaVuSans-76"/>
      <use x="509.228516" xlink:href="#DejaVuSans-65"/>
      <use x="570.751953" xlink:href="#DejaVuSans-20"/>
      <use x="602.539062" xlink:href="#DejaVuSans-64"/>
      <use x="666.015625" xlink:href="#DejaVuSans-65"/>
      <use x="727.539062" xlink:href="#DejaVuSans-61"/>
      <use x="788.818359" xlink:href="#DejaVuSans-74"/>
      <use x="828.027344" xlink:href="#DejaVuSans-68"/>
      <use x="891.40625" xlink:href="#DejaVuSans-73"/>
     </g>
    </g>
   </g>
   <g id="line2d_10">
    <path clip-path="url(#p66a4a535a4)" d="M 76.193528 182.919517 
L 86.712154 182.550568 
L 97.23078 182.039716 
L 107.749407 181.500483 
L 118.268033 181.018011 
L 128.78666 180.422016 
L 139.305286 178.577272 
L 149.823913 178.066419 
L 160.342539 177.214999 
L 170.861165 175.909487 
L 181.379792 174.007981 
L 191.898418 172.390281 
L 202.417045 169.552213 
L 212.935671 166.004627 
L 223.454298 157.88775 
L 233.972924 154.311783 
L 244.49155 150.593913 
L 255.010177 146.053002 
L 265.528803 141.512092 
L 276.04743 136.772517 
L 286.566056 131.011237 
L 297.084683 125.76081 
L 307.603309 122.809218 
L 318.121935 112.421886 
L 328.640562 107.483646 
L 339.159188 103.538731 
L 349.677815 103.538731 
L 360.196441 103.538731 
L 370.715068 93.577109 
L 381.233694 90.767421 
L 391.75232 87.957733 
L 402.270947 85.176425 
" style="fill:none;stroke:#f77189;stroke-linecap:square;stroke-width:1.5;"/>
   </g>
   <g id="line2d_11">
    <path clip-path="url(#p66a4a535a4)" d="M 402.270947 85.176425 
L 412.789573 80.113166 
L 423.3082 74.839299 
L 433.826826 69.365297 
L 444.345453 63.239289 
L 454.864079 57.224312 
" style="fill:none;stroke:#f77189;stroke-dasharray:1.5,2.475;stroke-dashoffset:0;stroke-width:1.5;"/>
   </g>
   <g id="line2d_12">
    <path clip-path="url(#p66a4a535a4)" d="M 76.193528 182.720852 
L 86.712154 182.181619 
L 97.23078 181.614005 
L 107.749407 180.705823 
L 118.268033 179.797641 
L 128.78666 179.088124 
L 139.305286 177.186618 
L 149.823913 176.136532 
L 160.342539 174.660737 
L 170.861165 172.645708 
L 181.379792 170.630679 
L 191.898418 169.154883 
L 202.417045 166.57224 
L 212.935671 163.876075 
L 223.454298 160.243347 
L 233.972924 156.411954 
L 244.49155 151.275049 
L 255.010177 145.173201 
L 265.528803 143.583882 
L 276.04743 133.395215 
L 286.566056 130.869334 
L 297.084683 123.263309 
L 307.603309 123.263309 
L 318.121935 114.607199 
L 328.640562 109.413533 
L 339.159188 105.15643 
L 349.677815 105.15643 
L 360.196441 105.15643 
L 370.715068 94.939382 
L 381.233694 91.902648 
L 391.75232 88.837534 
L 402.270947 85.914323 
" style="fill:none;stroke:#ae9d31;stroke-linecap:square;stroke-width:1.5;"/>
   </g>
   <g id="line2d_13">
    <path clip-path="url(#p66a4a535a4)" d="M 402.270947 85.914323 
L 412.789573 80.473617 
L 423.3082 74.867331 
L 433.826826 69.128002 
L 444.345453 62.806829 
L 454.864079 56.716965 
" style="fill:none;stroke:#ae9d31;stroke-dasharray:1.5,2.475;stroke-dashoffset:0;stroke-width:1.5;"/>
   </g>
   <g id="line2d_14">
    <path clip-path="url(#p66a4a535a4)" d="M 76.193528 182.919517 
L 86.712154 182.522187 
L 97.23078 182.068096 
L 107.749407 181.614005 
L 118.268033 181.074772 
L 128.78666 180.450397 
L 139.305286 179.002982 
L 149.823913 177.981277 
L 160.342539 177.214999 
L 170.861165 175.881106 
L 181.379792 173.099799 
L 191.898418 171.368577 
L 202.417045 169.694116 
L 212.935671 166.96957 
L 223.454298 165.522155 
L 233.972924 163.194938 
L 244.49155 157.717465 
L 255.010177 154.907777 
L 265.528803 153.630646 
L 276.04743 148.096412 
L 286.566056 146.194906 
L 297.084683 143.583882 
L 307.603309 142.618939 
L 318.121935 136.318426 
L 328.640562 133.054647 
L 339.159188 130.954476 
L 349.677815 130.954476 
L 360.196441 130.954476 
L 370.715068 124.256633 
L 381.233694 122.582173 
L 391.75232 120.964474 
L 402.270947 119.233252 
" style="fill:none;stroke:#33b07a;stroke-linecap:square;stroke-width:1.5;"/>
   </g>
   <g id="line2d_15">
    <path clip-path="url(#p66a4a535a4)" d="M 402.270947 119.233252 
L 412.789573 115.85035 
L 423.3082 112.326321 
L 433.826826 108.722899 
L 444.345453 104.780636 
L 454.864079 101.030927 
" style="fill:none;stroke:#33b07a;stroke-dasharray:1.5,2.475;stroke-dashoffset:0;stroke-width:1.5;"/>
   </g>
   <g id="line2d_16">
    <path clip-path="url(#p66a4a535a4)" d="M 76.193528 183.118182 
L 86.712154 183.118182 
L 97.23078 183.118182 
L 107.749407 182.834375 
L 118.268033 182.777614 
L 128.78666 182.550568 
L 139.305286 182.323523 
L 149.823913 182.323523 
L 160.342539 181.954574 
L 170.861165 181.528863 
L 181.379792 181.159914 
L 191.898418 180.620681 
L 202.417045 179.258408 
L 212.935671 179.088124 
L 223.454298 172.503804 
L 233.972924 171.028008 
L 244.49155 169.126502 
L 255.010177 167.253377 
L 265.528803 160.952864 
L 276.04743 158.058034 
L 286.566056 155.929482 
L 297.084683 154.084737 
L 307.603309 153.318459 
L 318.121935 153.318459 
L 328.640562 153.318459 
L 339.159188 151.842663 
L 349.677815 151.842663 
L 360.196441 151.842663 
L 370.715068 146.961184 
L 381.233694 145.598911 
L 391.75232 143.867689 
L 402.270947 142.704081 
" style="fill:none;stroke:#38a9c5;stroke-linecap:square;stroke-width:1.5;"/>
   </g>
   <g id="line2d_17">
    <path clip-path="url(#p66a4a535a4)" d="M 402.270947 142.704081 
L 412.789573 140.151721 
L 423.3082 137.642363 
L 433.826826 135.196557 
L 444.345453 132.698689 
L 454.864079 130.509223 
" style="fill:none;stroke:#38a9c5;stroke-dasharray:1.5,2.475;stroke-dashoffset:0;stroke-width:1.5;"/>
   </g>
   <g id="line2d_18">
    <path clip-path="url(#p66a4a535a4)" d="M 76.193528 183.03304 
L 86.712154 182.777614 
L 97.23078 182.323523 
L 107.749407 182.096477 
L 118.268033 181.755909 
L 128.78666 181.472102 
L 139.305286 180.677443 
L 149.823913 180.393636 
L 160.342539 179.939545 
L 170.861165 179.655738 
L 181.379792 178.634033 
L 191.898418 178.265084 
L 202.417045 177.214999 
L 212.935671 175.824345 
L 223.454298 172.248378 
L 233.972924 170.942866 
L 244.49155 168.757553 
L 255.010177 166.174911 
L 265.528803 164.188262 
L 276.04743 162.570563 
L 286.566056 160.640676 
L 297.084683 159.221642 
L 307.603309 159.221642 
L 318.121935 155.986243 
L 328.640562 154.396925 
L 339.159188 152.94951 
L 349.677815 152.94951 
L 360.196441 152.94951 
L 370.715068 149.061355 
L 381.233694 147.784224 
L 391.75232 146.734139 
L 402.270947 145.371866 
" style="fill:none;stroke:#cc7af4;stroke-linecap:square;stroke-width:1.5;"/>
   </g>
   <g id="line2d_19">
    <path clip-path="url(#p66a4a535a4)" d="M 402.270947 145.371866 
L 412.789573 143.747156 
L 423.3082 142.12735 
L 433.826826 140.574146 
L 444.345453 138.979094 
L 454.864079 137.629191 
" style="fill:none;stroke:#cc7af4;stroke-dasharray:1.5,2.475;stroke-dashoffset:0;stroke-width:1.5;"/>
   </g>
   <g id="patch_3">
    <path d="M 57.26 190.626667 
L 57.26 25.44 
" style="fill:none;stroke:#ffffff;stroke-linecap:square;stroke-linejoin:miter;stroke-width:0.8;"/>
   </g>
   <g id="patch_4">
    <path d="M 562.68 190.626667 
L 562.68 25.44 
" style="fill:none;stroke:#ffffff;stroke-linecap:square;stroke-linejoin:miter;stroke-width:0.8;"/>
   </g>
   <g id="patch_5">
    <path d="M 57.26 190.626667 
L 562.68 190.626667 
" style="fill:none;stroke:#ffffff;stroke-linecap:square;stroke-linejoin:miter;stroke-width:0.8;"/>
   </g>
   <g id="patch_6">
    <path d="M 57.26 25.44 
L 562.68 25.44 
" style="fill:none;stroke:#ffffff;stroke-linecap:square;stroke-linejoin:miter;stroke-width:0.8;"/>
   </g>
   <g id="text_11">
    <!-- Kings, NY -->
    <defs>
     <path d="M 9.8125 72.90625 
L 19.671875 72.90625 
L 19.671875 42.09375 
L 52.390625 72.90625 
L 65.09375 72.90625 
L 28.90625 38.921875 
L 67.671875 0 
L 54.6875 0 
L 19.671875 35.109375 
L 19.671875 0 
L 9.8125 0 
z
" id="DejaVuSans-4b"/>
     <path d="M 54.890625 33.015625 
L 54.890625 0 
L 45.90625 0 
L 45.90625 32.71875 
Q 45.90625 40.484375 42.875 44.328125 
Q 39.84375 48.1875 33.796875 48.1875 
Q 26.515625 48.1875 22.3125 43.546875 
Q 18.109375 38.921875 18.109375 30.90625 
L 18.109375 0 
L 9.078125 0 
L 9.078125 54.6875 
L 18.109375 54.6875 
L 18.109375 46.1875 
Q 21.34375 51.125 25.703125 53.5625 
Q 30.078125 56 35.796875 56 
Q 45.21875 56 50.046875 50.171875 
Q 54.890625 44.34375 54.890625 33.015625 
z
" id="DejaVuSans-6e"/>
     <path d="M 45.40625 27.984375 
Q 45.40625 37.75 41.375 43.109375 
Q 37.359375 48.484375 30.078125 48.484375 
Q 22.859375 48.484375 18.828125 43.109375 
Q 14.796875 37.75 14.796875 27.984375 
Q 14.796875 18.265625 18.828125 12.890625 
Q 22.859375 7.515625 30.078125 7.515625 
Q 37.359375 7.515625 41.375 12.890625 
Q 45.40625 18.265625 45.40625 27.984375 
z
M 54.390625 6.78125 
Q 54.390625 -7.171875 48.1875 -13.984375 
Q 42 -20.796875 29.203125 -20.796875 
Q 24.46875 -20.796875 20.265625 -20.09375 
Q 16.0625 -19.390625 12.109375 -17.921875 
L 12.109375 -9.1875 
Q 16.0625 -11.328125 19.921875 -12.34375 
Q 23.78125 -13.375 27.78125 -13.375 
Q 36.625 -13.375 41.015625 -8.765625 
Q 45.40625 -4.15625 45.40625 5.171875 
L 45.40625 9.625 
Q 42.625 4.78125 38.28125 2.390625 
Q 33.9375 0 27.875 0 
Q 17.828125 0 11.671875 7.65625 
Q 5.515625 15.328125 5.515625 27.984375 
Q 5.515625 40.671875 11.671875 48.328125 
Q 17.828125 56 27.875 56 
Q 33.9375 56 38.28125 53.609375 
Q 42.625 51.21875 45.40625 46.390625 
L 45.40625 54.6875 
L 54.390625 54.6875 
z
" id="DejaVuSans-67"/>
     <path d="M 11.71875 12.40625 
L 22.015625 12.40625 
L 22.015625 4 
L 14.015625 -11.625 
L 7.71875 -11.625 
L 11.71875 4 
z
" id="DejaVuSans-2c"/>
     <path d="M 9.8125 72.90625 
L 23.09375 72.90625 
L 55.421875 11.921875 
L 55.421875 72.90625 
L 64.984375 72.90625 
L 64.984375 0 
L 51.703125 0 
L 19.390625 60.984375 
L 19.390625 0 
L 9.8125 0 
z
" id="DejaVuSans-4e"/>
     <path d="M -0.203125 72.90625 
L 10.40625 72.90625 
L 30.609375 42.921875 
L 50.6875 72.90625 
L 61.28125 72.90625 
L 35.5 34.71875 
L 35.5 0 
L 25.59375 0 
L 25.59375 34.71875 
z
" id="DejaVuSans-59"/>
    </defs>
    <g style="fill:#f77189;" transform="translate(465.382706 64.138211)scale(0.08 -0.08)">
     <use xlink:href="#DejaVuSans-4b"/>
     <use x="65.576172" xlink:href="#DejaVuSans-69"/>
     <use x="93.359375" xlink:href="#DejaVuSans-6e"/>
     <use x="156.738281" xlink:href="#DejaVuSans-67"/>
     <use x="220.214844" xlink:href="#DejaVuSans-73"/>
     <use x="272.314453" xlink:href="#DejaVuSans-2c"/>
     <use x="304.101562" xlink:href="#DejaVuSans-20"/>
     <use x="335.888672" xlink:href="#DejaVuSans-4e"/>
     <use x="410.693359" xlink:href="#DejaVuSans-59"/>
    </g>
   </g>
   <g id="text_12">
    <!-- Queens, NY -->
    <defs>
     <path d="M 39.40625 66.21875 
Q 28.65625 66.21875 22.328125 58.203125 
Q 16.015625 50.203125 16.015625 36.375 
Q 16.015625 22.609375 22.328125 14.59375 
Q 28.65625 6.59375 39.40625 6.59375 
Q 50.140625 6.59375 56.421875 14.59375 
Q 62.703125 22.609375 62.703125 36.375 
Q 62.703125 50.203125 56.421875 58.203125 
Q 50.140625 66.21875 39.40625 66.21875 
z
M 53.21875 1.3125 
L 66.21875 -12.890625 
L 54.296875 -12.890625 
L 43.5 -1.21875 
Q 41.890625 -1.3125 41.03125 -1.359375 
Q 40.1875 -1.421875 39.40625 -1.421875 
Q 24.03125 -1.421875 14.8125 8.859375 
Q 5.609375 19.140625 5.609375 36.375 
Q 5.609375 53.65625 14.8125 63.9375 
Q 24.03125 74.21875 39.40625 74.21875 
Q 54.734375 74.21875 63.90625 63.9375 
Q 73.09375 53.65625 73.09375 36.375 
Q 73.09375 23.6875 67.984375 14.640625 
Q 62.890625 5.609375 53.21875 1.3125 
z
" id="DejaVuSans-51"/>
    </defs>
    <g style="fill:#ae9d31;" transform="translate(418.976456 54.218066)scale(0.08 -0.08)">
     <use xlink:href="#DejaVuSans-51"/>
     <use x="78.710938" xlink:href="#DejaVuSans-75"/>
     <use x="142.089844" xlink:href="#DejaVuSans-65"/>
     <use x="203.613281" xlink:href="#DejaVuSans-65"/>
     <use x="265.136719" xlink:href="#DejaVuSans-6e"/>
     <use x="328.515625" xlink:href="#DejaVuSans-73"/>
     <use x="380.615234" xlink:href="#DejaVuSans-2c"/>
     <use x="412.402344" xlink:href="#DejaVuSans-20"/>
     <use x="444.189453" xlink:href="#DejaVuSans-4e"/>
     <use x="518.994141" xlink:href="#DejaVuSans-59"/>
    </g>
   </g>
   <g id="text_13">
    <!-- Bronx, NY -->
    <defs>
     <path d="M 19.671875 34.8125 
L 19.671875 8.109375 
L 35.5 8.109375 
Q 43.453125 8.109375 47.28125 11.40625 
Q 51.125 14.703125 51.125 21.484375 
Q 51.125 28.328125 47.28125 31.5625 
Q 43.453125 34.8125 35.5 34.8125 
z
M 19.671875 64.796875 
L 19.671875 42.828125 
L 34.28125 42.828125 
Q 41.5 42.828125 45.03125 45.53125 
Q 48.578125 48.25 48.578125 53.8125 
Q 48.578125 59.328125 45.03125 62.0625 
Q 41.5 64.796875 34.28125 64.796875 
z
M 9.8125 72.90625 
L 35.015625 72.90625 
Q 46.296875 72.90625 52.390625 68.21875 
Q 58.5 63.53125 58.5 54.890625 
Q 58.5 48.1875 55.375 44.234375 
Q 52.25 40.28125 46.1875 39.3125 
Q 53.46875 37.75 57.5 32.78125 
Q 61.53125 27.828125 61.53125 20.40625 
Q 61.53125 10.640625 54.890625 5.3125 
Q 48.25 0 35.984375 0 
L 9.8125 0 
z
" id="DejaVuSans-42"/>
     <path d="M 41.109375 46.296875 
Q 39.59375 47.171875 37.8125 47.578125 
Q 36.03125 48 33.890625 48 
Q 26.265625 48 22.1875 43.046875 
Q 18.109375 38.09375 18.109375 28.8125 
L 18.109375 0 
L 9.078125 0 
L 9.078125 54.6875 
L 18.109375 54.6875 
L 18.109375 46.1875 
Q 20.953125 51.171875 25.484375 53.578125 
Q 30.03125 56 36.53125 56 
Q 37.453125 56 38.578125 55.875 
Q 39.703125 55.765625 41.0625 55.515625 
z
" id="DejaVuSans-72"/>
     <path d="M 30.609375 48.390625 
Q 23.390625 48.390625 19.1875 42.75 
Q 14.984375 37.109375 14.984375 27.296875 
Q 14.984375 17.484375 19.15625 11.84375 
Q 23.34375 6.203125 30.609375 6.203125 
Q 37.796875 6.203125 41.984375 11.859375 
Q 46.1875 17.53125 46.1875 27.296875 
Q 46.1875 37.015625 41.984375 42.703125 
Q 37.796875 48.390625 30.609375 48.390625 
z
M 30.609375 56 
Q 42.328125 56 49.015625 48.375 
Q 55.71875 40.765625 55.71875 27.296875 
Q 55.71875 13.875 49.015625 6.21875 
Q 42.328125 -1.421875 30.609375 -1.421875 
Q 18.84375 -1.421875 12.171875 6.21875 
Q 5.515625 13.875 5.515625 27.296875 
Q 5.515625 40.765625 12.171875 48.375 
Q 18.84375 56 30.609375 56 
z
" id="DejaVuSans-6f"/>
     <path d="M 54.890625 54.6875 
L 35.109375 28.078125 
L 55.90625 0 
L 45.3125 0 
L 29.390625 21.484375 
L 13.484375 0 
L 2.875 0 
L 24.125 28.609375 
L 4.6875 54.6875 
L 15.28125 54.6875 
L 29.78125 35.203125 
L 44.28125 54.6875 
z
" id="DejaVuSans-78"/>
    </defs>
    <g style="fill:#33b07a;" transform="translate(465.382706 98.60739)scale(0.08 -0.08)">
     <use xlink:href="#DejaVuSans-42"/>
     <use x="68.603516" xlink:href="#DejaVuSans-72"/>
     <use x="109.685547" xlink:href="#DejaVuSans-6f"/>
     <use x="170.867188" xlink:href="#DejaVuSans-6e"/>
     <use x="234.246094" xlink:href="#DejaVuSans-78"/>
     <use x="293.425781" xlink:href="#DejaVuSans-2c"/>
     <use x="325.212891" xlink:href="#DejaVuSans-20"/>
     <use x="357" xlink:href="#DejaVuSans-4e"/>
     <use x="431.804688" xlink:href="#DejaVuSans-59"/>
    </g>
   </g>
   <g id="text_14">
    <!-- Nassau, NY -->
    <g style="fill:#38a9c5;" transform="translate(465.382706 128.085686)scale(0.08 -0.08)">
     <use xlink:href="#DejaVuSans-4e"/>
     <use x="74.804688" xlink:href="#DejaVuSans-61"/>
     <use x="136.083984" xlink:href="#DejaVuSans-73"/>
     <use x="188.183594" xlink:href="#DejaVuSans-73"/>
     <use x="240.283203" xlink:href="#DejaVuSans-61"/>
     <use x="301.5625" xlink:href="#DejaVuSans-75"/>
     <use x="364.941406" xlink:href="#DejaVuSans-2c"/>
     <use x="396.728516" xlink:href="#DejaVuSans-20"/>
     <use x="428.515625" xlink:href="#DejaVuSans-4e"/>
     <use x="503.320312" xlink:href="#DejaVuSans-59"/>
    </g>
   </g>
   <g id="text_15">
    <!-- New York, NY -->
    <defs>
     <path d="M 4.203125 54.6875 
L 13.1875 54.6875 
L 24.421875 12.015625 
L 35.59375 54.6875 
L 46.1875 54.6875 
L 57.421875 12.015625 
L 68.609375 54.6875 
L 77.59375 54.6875 
L 63.28125 0 
L 52.6875 0 
L 40.921875 44.828125 
L 29.109375 0 
L 18.5 0 
z
" id="DejaVuSans-77"/>
     <path d="M 9.078125 75.984375 
L 18.109375 75.984375 
L 18.109375 31.109375 
L 44.921875 54.6875 
L 56.390625 54.6875 
L 27.390625 29.109375 
L 57.625 0 
L 45.90625 0 
L 18.109375 26.703125 
L 18.109375 0 
L 9.078125 0 
z
" id="DejaVuSans-6b"/>
    </defs>
    <g style="fill:#cc7af4;" transform="translate(465.382706 144.467728)scale(0.08 -0.08)">
     <use xlink:href="#DejaVuSans-4e"/>
     <use x="74.804688" xlink:href="#DejaVuSans-65"/>
     <use x="136.328125" xlink:href="#DejaVuSans-77"/>
     <use x="218.115234" xlink:href="#DejaVuSans-20"/>
     <use x="249.902344" xlink:href="#DejaVuSans-59"/>
     <use x="310.783203" xlink:href="#DejaVuSans-6f"/>
     <use x="371.964844" xlink:href="#DejaVuSans-72"/>
     <use x="413.078125" xlink:href="#DejaVuSans-6b"/>
     <use x="470.988281" xlink:href="#DejaVuSans-2c"/>
     <use x="502.775391" xlink:href="#DejaVuSans-20"/>
     <use x="534.5625" xlink:href="#DejaVuSans-4e"/>
     <use x="609.367188" xlink:href="#DejaVuSans-59"/>
    </g>
   </g>
   <g id="text_16">
    <!-- Most-affected counties -->
    <defs>
     <path d="M 9.8125 72.90625 
L 24.515625 72.90625 
L 43.109375 23.296875 
L 61.8125 72.90625 
L 76.515625 72.90625 
L 76.515625 0 
L 66.890625 0 
L 66.890625 64.015625 
L 48.09375 14.015625 
L 38.1875 14.015625 
L 19.390625 64.015625 
L 19.390625 0 
L 9.8125 0 
z
" id="DejaVuSans-4d"/>
     <path d="M 4.890625 31.390625 
L 31.203125 31.390625 
L 31.203125 23.390625 
L 4.890625 23.390625 
z
" id="DejaVuSans-2d"/>
     <path d="M 37.109375 75.984375 
L 37.109375 68.5 
L 28.515625 68.5 
Q 23.6875 68.5 21.796875 66.546875 
Q 19.921875 64.59375 19.921875 59.515625 
L 19.921875 54.6875 
L 34.71875 54.6875 
L 34.71875 47.703125 
L 19.921875 47.703125 
L 19.921875 0 
L 10.890625 0 
L 10.890625 47.703125 
L 2.296875 47.703125 
L 2.296875 54.6875 
L 10.890625 54.6875 
L 10.890625 58.5 
Q 10.890625 67.625 15.140625 71.796875 
Q 19.390625 75.984375 28.609375 75.984375 
z
" id="DejaVuSans-66"/>
     <path d="M 48.78125 52.59375 
L 48.78125 44.1875 
Q 44.96875 46.296875 41.140625 47.34375 
Q 37.3125 48.390625 33.40625 48.390625 
Q 24.65625 48.390625 19.8125 42.84375 
Q 14.984375 37.3125 14.984375 27.296875 
Q 14.984375 17.28125 19.8125 11.734375 
Q 24.65625 6.203125 33.40625 6.203125 
Q 37.3125 6.203125 41.140625 7.25 
Q 44.96875 8.296875 48.78125 10.40625 
L 48.78125 2.09375 
Q 45.015625 0.34375 40.984375 -0.53125 
Q 36.96875 -1.421875 32.421875 -1.421875 
Q 20.0625 -1.421875 12.78125 6.34375 
Q 5.515625 14.109375 5.515625 27.296875 
Q 5.515625 40.671875 12.859375 48.328125 
Q 20.21875 56 33.015625 56 
Q 37.15625 56 41.109375 55.140625 
Q 45.0625 54.296875 48.78125 52.59375 
z
" id="DejaVuSans-63"/>
    </defs>
    <g style="fill:#ffffff;" transform="translate(241.415312 19.44)scale(0.12 -0.12)">
     <use xlink:href="#DejaVuSans-4d"/>
     <use x="86.279297" xlink:href="#DejaVuSans-6f"/>
     <use x="147.460938" xlink:href="#DejaVuSans-73"/>
     <use x="199.560547" xlink:href="#DejaVuSans-74"/>
     <use x="238.769531" xlink:href="#DejaVuSans-2d"/>
     <use x="274.853516" xlink:href="#DejaVuSans-61"/>
     <use x="336.132812" xlink:href="#DejaVuSans-66"/>
     <use x="371.337891" xlink:href="#DejaVuSans-66"/>
     <use x="406.542969" xlink:href="#DejaVuSans-65"/>
     <use x="468.066406" xlink:href="#DejaVuSans-63"/>
     <use x="523.046875" xlink:href="#DejaVuSans-74"/>
     <use x="562.255859" xlink:href="#DejaVuSans-65"/>
     <use x="623.779297" xlink:href="#DejaVuSans-64"/>
     <use x="687.255859" xlink:href="#DejaVuSans-20"/>
     <use x="719.042969" xlink:href="#DejaVuSans-63"/>
     <use x="774.023438" xlink:href="#DejaVuSans-6f"/>
     <use x="835.205078" xlink:href="#DejaVuSans-75"/>
     <use x="898.583984" xlink:href="#DejaVuSans-6e"/>
     <use x="961.962891" xlink:href="#DejaVuSans-74"/>
     <use x="1001.171875" xlink:href="#DejaVuSans-69"/>
     <use x="1028.955078" xlink:href="#DejaVuSans-65"/>
     <use x="1090.478516" xlink:href="#DejaVuSans-73"/>
    </g>
   </g>
  </g>
  <g id="axes_2">
   <g id="patch_7">
    <path d="M 57.26 398.333333 
L 562.68 398.333333 
L 562.68 233.146667 
L 57.26 233.146667 
z
"/>
   </g>
   <g id="PolyCollection_6">
    <defs>
     <path d="M 396.687022 -365.956259 
L 396.687022 -365.956259 
L 408.134813 -365.956259 
L 419.582605 -368.444205 
L 431.030396 -369.357353 
L 442.478188 -368.853837 
L 453.92598 -377.560121 
L 453.92598 -407.344848 
L 453.92598 -407.344848 
L 442.478188 -405.478198 
L 431.030396 -394.591568 
L 419.582605 -385.371973 
L 408.134813 -379.698898 
L 396.687022 -365.956259 
z
" id="m636927871f" style="stroke:#f77189;stroke-opacity:0.1;"/>
    </defs>
    <g clip-path="url(#p07630f5e68)">
     <use style="fill:#f77189;fill-opacity:0.1;stroke:#f77189;stroke-opacity:0.1;" x="0" xlink:href="#m636927871f" y="648"/>
    </g>
   </g>
   <g id="PolyCollection_7">
    <defs>
     <path d="M 396.687022 -342.334241 
L 396.687022 -342.334241 
L 408.134813 -342.419049 
L 419.582605 -343.394151 
L 431.030396 -348.466427 
L 442.478188 -346.77677 
L 453.92598 -353.618128 
L 453.92598 -391.958718 
L 453.92598 -391.958718 
L 442.478188 -385.476891 
L 431.030396 -371.478491 
L 419.582605 -364.65882 
L 408.134813 -354.575568 
L 396.687022 -342.334241 
z
" id="mfadd949f2b" style="stroke:#bb9832;stroke-opacity:0.1;"/>
    </defs>
    <g clip-path="url(#p07630f5e68)">
     <use style="fill:#bb9832;fill-opacity:0.1;stroke:#bb9832;stroke-opacity:0.1;" x="0" xlink:href="#mfadd949f2b" y="648"/>
    </g>
   </g>
   <g id="PolyCollection_8">
    <defs>
     <path d="M 396.687022 -329.239426 
L 396.687022 -329.239426 
L 408.134813 -329.239426 
L 419.582605 -329.48845 
L 431.030396 -330.765215 
L 442.478188 -329.239426 
L 453.92598 -333.090092 
L 453.92598 -368.566251 
L 453.92598 -368.566251 
L 442.478188 -363.491973 
L 431.030396 -353.260563 
L 419.582605 -346.225133 
L 408.134813 -339.311005 
L 396.687022 -329.239426 
z
" id="mdf761496ec" style="stroke:#50b131;stroke-opacity:0.1;"/>
    </defs>
    <g clip-path="url(#p07630f5e68)">
     <use style="fill:#50b131;fill-opacity:0.1;stroke:#50b131;stroke-opacity:0.1;" x="0" xlink:href="#mdf761496ec" y="648"/>
    </g>
   </g>
   <g id="PolyCollection_9">
    <defs>
     <path d="M 396.687022 -328.041208 
L 396.687022 -328.041208 
L 408.134813 -328.041208 
L 419.582605 -328.062979 
L 431.030396 -328.041208 
L 442.478188 -328.041208 
L 453.92598 -328.041208 
L 453.92598 -362.723869 
L 453.92598 -362.723869 
L 442.478188 -353.290386 
L 431.030396 -346.04104 
L 419.582605 -339.781664 
L 408.134813 -334.752902 
L 396.687022 -328.041208 
z
" id="m36ce7d93e1" style="stroke:#36ada4;stroke-opacity:0.1;"/>
    </defs>
    <g clip-path="url(#p07630f5e68)">
     <use style="fill:#36ada4;fill-opacity:0.1;stroke:#36ada4;stroke-opacity:0.1;" x="0" xlink:href="#m36ce7d93e1" y="648"/>
    </g>
   </g>
   <g id="PolyCollection_10">
    <defs>
     <path d="M 396.687022 -318.968983 
L 396.687022 -318.968983 
L 408.134813 -318.968983 
L 419.582605 -319.747723 
L 431.030396 -322.97797 
L 442.478188 -327.910504 
L 453.92598 -330.881341 
L 453.92598 -354.540981 
L 453.92598 -354.540981 
L 442.478188 -347.060456 
L 431.030396 -342.171366 
L 419.582605 -335.616753 
L 408.134813 -327.504471 
L 396.687022 -318.968983 
z
" id="m65916eb2c1" style="stroke:#3ba3ec;stroke-opacity:0.1;"/>
    </defs>
    <g clip-path="url(#p07630f5e68)">
     <use style="fill:#3ba3ec;fill-opacity:0.1;stroke:#3ba3ec;stroke-opacity:0.1;" x="0" xlink:href="#m65916eb2c1" y="648"/>
    </g>
   </g>
   <g id="PolyCollection_11">
    <defs>
     <path d="M 396.687022 -303.135384 
L 396.687022 -303.135384 
L 408.134813 -303.135384 
L 419.582605 -303.135384 
L 431.030396 -303.135384 
L 442.478188 -307.996966 
L 453.92598 -308.843626 
L 453.92598 -330.657916 
L 453.92598 -330.657916 
L 442.478188 -324.673518 
L 431.030396 -323.036694 
L 419.582605 -316.834413 
L 408.134813 -311.066932 
L 396.687022 -303.135384 
z
" id="ma42c633515" style="stroke:#e866f4;stroke-opacity:0.1;"/>
    </defs>
    <g clip-path="url(#p07630f5e68)">
     <use style="fill:#e866f4;fill-opacity:0.1;stroke:#e866f4;stroke-opacity:0.1;" x="0" xlink:href="#ma42c633515" y="648"/>
    </g>
   </g>
   <g id="matplotlib.axis_3">
    <g id="xtick_4">
     <g id="line2d_20">
      <g>
       <use style="fill:#ffffff;stroke:#ffffff;stroke-width:0.8;" x="76.148856" xlink:href="#m845b0c23b7" y="398.333333"/>
      </g>
     </g>
     <g id="text_17">
      <!-- 3/26 -->
      <defs>
       <path d="M 33.015625 40.375 
Q 26.375 40.375 22.484375 35.828125 
Q 18.609375 31.296875 18.609375 23.390625 
Q 18.609375 15.53125 22.484375 10.953125 
Q 26.375 6.390625 33.015625 6.390625 
Q 39.65625 6.390625 43.53125 10.953125 
Q 47.40625 15.53125 47.40625 23.390625 
Q 47.40625 31.296875 43.53125 35.828125 
Q 39.65625 40.375 33.015625 40.375 
z
M 52.59375 71.296875 
L 52.59375 62.3125 
Q 48.875 64.0625 45.09375 64.984375 
Q 41.3125 65.921875 37.59375 65.921875 
Q 27.828125 65.921875 22.671875 59.328125 
Q 17.53125 52.734375 16.796875 39.40625 
Q 19.671875 43.65625 24.015625 45.921875 
Q 28.375 48.1875 33.59375 48.1875 
Q 44.578125 48.1875 50.953125 41.515625 
Q 57.328125 34.859375 57.328125 23.390625 
Q 57.328125 12.15625 50.6875 5.359375 
Q 44.046875 -1.421875 33.015625 -1.421875 
Q 20.359375 -1.421875 13.671875 8.265625 
Q 6.984375 17.96875 6.984375 36.375 
Q 6.984375 53.65625 15.1875 63.9375 
Q 23.390625 74.21875 37.203125 74.21875 
Q 40.921875 74.21875 44.703125 73.484375 
Q 48.484375 72.75 52.59375 71.296875 
z
" id="DejaVuSans-36"/>
      </defs>
      <g style="fill:#ffffff;" transform="translate(64.920731 412.931771)scale(0.1 -0.1)">
       <use xlink:href="#DejaVuSans-33"/>
       <use x="63.623047" xlink:href="#DejaVuSans-2f"/>
       <use x="97.314453" xlink:href="#DejaVuSans-32"/>
       <use x="160.9375" xlink:href="#DejaVuSans-36"/>
      </g>
     </g>
    </g>
    <g id="xtick_5">
     <g id="line2d_21">
      <g>
       <use style="fill:#ffffff;stroke:#ffffff;stroke-width:0.8;" x="396.687022" xlink:href="#m845b0c23b7" y="398.333333"/>
      </g>
     </g>
     <g id="text_18">
      <!-- 4/24 -->
      <g style="fill:#ffffff;" transform="translate(385.458897 412.931771)scale(0.1 -0.1)">
       <use xlink:href="#DejaVuSans-34"/>
       <use x="63.623047" xlink:href="#DejaVuSans-2f"/>
       <use x="97.314453" xlink:href="#DejaVuSans-32"/>
       <use x="160.9375" xlink:href="#DejaVuSans-34"/>
      </g>
     </g>
    </g>
    <g id="xtick_6">
     <g id="line2d_22">
      <g>
       <use style="fill:#ffffff;stroke:#ffffff;stroke-width:0.8;" x="453.92598" xlink:href="#m845b0c23b7" y="398.333333"/>
      </g>
     </g>
     <g id="text_19">
      <!-- 4/29 -->
      <g style="fill:#ffffff;" transform="translate(442.697855 412.931771)scale(0.1 -0.1)">
       <use xlink:href="#DejaVuSans-34"/>
       <use x="63.623047" xlink:href="#DejaVuSans-2f"/>
       <use x="97.314453" xlink:href="#DejaVuSans-32"/>
       <use x="160.9375" xlink:href="#DejaVuSans-39"/>
      </g>
     </g>
    </g>
   </g>
   <g id="matplotlib.axis_4">
    <g id="ytick_7">
     <g id="line2d_23">
      <g>
       <use style="fill:#ffffff;stroke:#ffffff;stroke-width:0.8;" x="57.26" xlink:href="#m39844678d2" y="391.423958"/>
      </g>
     </g>
     <g id="text_20">
      <!-- 0 -->
      <g style="fill:#ffffff;" transform="translate(43.8975 395.223176)scale(0.1 -0.1)">
       <use xlink:href="#DejaVuSans-30"/>
      </g>
     </g>
    </g>
    <g id="ytick_8">
     <g id="line2d_24">
      <g>
       <use style="fill:#ffffff;stroke:#ffffff;stroke-width:0.8;" x="57.26" xlink:href="#m39844678d2" y="370.027202"/>
      </g>
     </g>
     <g id="text_21">
      <!-- 250 -->
      <g style="fill:#ffffff;" transform="translate(31.1725 373.82642)scale(0.1 -0.1)">
       <use xlink:href="#DejaVuSans-32"/>
       <use x="63.623047" xlink:href="#DejaVuSans-35"/>
       <use x="127.246094" xlink:href="#DejaVuSans-30"/>
      </g>
     </g>
    </g>
    <g id="ytick_9">
     <g id="line2d_25">
      <g>
       <use style="fill:#ffffff;stroke:#ffffff;stroke-width:0.8;" x="57.26" xlink:href="#m39844678d2" y="348.630446"/>
      </g>
     </g>
     <g id="text_22">
      <!-- 500 -->
      <g style="fill:#ffffff;" transform="translate(31.1725 352.429664)scale(0.1 -0.1)">
       <use xlink:href="#DejaVuSans-35"/>
       <use x="63.623047" xlink:href="#DejaVuSans-30"/>
       <use x="127.246094" xlink:href="#DejaVuSans-30"/>
      </g>
     </g>
    </g>
    <g id="ytick_10">
     <g id="line2d_26">
      <g>
       <use style="fill:#ffffff;stroke:#ffffff;stroke-width:0.8;" x="57.26" xlink:href="#m39844678d2" y="327.233689"/>
      </g>
     </g>
     <g id="text_23">
      <!-- 750 -->
      <defs>
       <path d="M 8.203125 72.90625 
L 55.078125 72.90625 
L 55.078125 68.703125 
L 28.609375 0 
L 18.3125 0 
L 43.21875 64.59375 
L 8.203125 64.59375 
z
" id="DejaVuSans-37"/>
      </defs>
      <g style="fill:#ffffff;" transform="translate(31.1725 331.032908)scale(0.1 -0.1)">
       <use xlink:href="#DejaVuSans-37"/>
       <use x="63.623047" xlink:href="#DejaVuSans-35"/>
       <use x="127.246094" xlink:href="#DejaVuSans-30"/>
      </g>
     </g>
    </g>
    <g id="ytick_11">
     <g id="line2d_27">
      <g>
       <use style="fill:#ffffff;stroke:#ffffff;stroke-width:0.8;" x="57.26" xlink:href="#m39844678d2" y="305.836933"/>
      </g>
     </g>
     <g id="text_24">
      <!-- 1000 -->
      <g style="fill:#ffffff;" transform="translate(24.81 309.636152)scale(0.1 -0.1)">
       <use xlink:href="#DejaVuSans-31"/>
       <use x="63.623047" xlink:href="#DejaVuSans-30"/>
       <use x="127.246094" xlink:href="#DejaVuSans-30"/>
       <use x="190.869141" xlink:href="#DejaVuSans-30"/>
      </g>
     </g>
    </g>
    <g id="ytick_12">
     <g id="line2d_28">
      <g>
       <use style="fill:#ffffff;stroke:#ffffff;stroke-width:0.8;" x="57.26" xlink:href="#m39844678d2" y="284.440177"/>
      </g>
     </g>
     <g id="text_25">
      <!-- 1250 -->
      <g style="fill:#ffffff;" transform="translate(24.81 288.239396)scale(0.1 -0.1)">
       <use xlink:href="#DejaVuSans-31"/>
       <use x="63.623047" xlink:href="#DejaVuSans-32"/>
       <use x="127.246094" xlink:href="#DejaVuSans-35"/>
       <use x="190.869141" xlink:href="#DejaVuSans-30"/>
      </g>
     </g>
    </g>
    <g id="ytick_13">
     <g id="line2d_29">
      <g>
       <use style="fill:#ffffff;stroke:#ffffff;stroke-width:0.8;" x="57.26" xlink:href="#m39844678d2" y="263.043421"/>
      </g>
     </g>
     <g id="text_26">
      <!-- 1500 -->
      <g style="fill:#ffffff;" transform="translate(24.81 266.84264)scale(0.1 -0.1)">
       <use xlink:href="#DejaVuSans-31"/>
       <use x="63.623047" xlink:href="#DejaVuSans-35"/>
       <use x="127.246094" xlink:href="#DejaVuSans-30"/>
       <use x="190.869141" xlink:href="#DejaVuSans-30"/>
      </g>
     </g>
    </g>
    <g id="ytick_14">
     <g id="line2d_30">
      <g>
       <use style="fill:#ffffff;stroke:#ffffff;stroke-width:0.8;" x="57.26" xlink:href="#m39844678d2" y="241.646665"/>
      </g>
     </g>
     <g id="text_27">
      <!-- 1750 -->
      <g style="fill:#ffffff;" transform="translate(24.81 245.445884)scale(0.1 -0.1)">
       <use xlink:href="#DejaVuSans-31"/>
       <use x="63.623047" xlink:href="#DejaVuSans-37"/>
       <use x="127.246094" xlink:href="#DejaVuSans-35"/>
       <use x="190.869141" xlink:href="#DejaVuSans-30"/>
      </g>
     </g>
    </g>
    <g id="text_28">
     <!-- Cumulative deaths -->
     <g style="fill:#ffffff;" transform="translate(18.730312 362.915)rotate(-90)scale(0.1 -0.1)">
      <use xlink:href="#DejaVuSans-43"/>
      <use x="69.824219" xlink:href="#DejaVuSans-75"/>
      <use x="133.203125" xlink:href="#DejaVuSans-6d"/>
      <use x="230.615234" xlink:href="#DejaVuSans-75"/>
      <use x="293.994141" xlink:href="#DejaVuSans-6c"/>
      <use x="321.777344" xlink:href="#DejaVuSans-61"/>
      <use x="383.056641" xlink:href="#DejaVuSans-74"/>
      <use x="422.265625" xlink:href="#DejaVuSans-69"/>
      <use x="450.048828" xlink:href="#DejaVuSans-76"/>
      <use x="509.228516" xlink:href="#DejaVuSans-65"/>
      <use x="570.751953" xlink:href="#DejaVuSans-20"/>
      <use x="602.539062" xlink:href="#DejaVuSans-64"/>
      <use x="666.015625" xlink:href="#DejaVuSans-65"/>
      <use x="727.539062" xlink:href="#DejaVuSans-61"/>
      <use x="788.818359" xlink:href="#DejaVuSans-74"/>
      <use x="828.027344" xlink:href="#DejaVuSans-68"/>
      <use x="891.40625" xlink:href="#DejaVuSans-73"/>
     </g>
    </g>
   </g>
   <g id="line2d_31">
    <path clip-path="url(#p07630f5e68)" d="M 76.148856 389.62663 
L 87.596648 389.198695 
L 99.044439 388.257238 
L 110.492231 387.486955 
L 121.940023 386.631084 
L 133.387814 384.320235 
L 144.835606 381.153515 
L 156.283398 378.928252 
L 167.731189 374.820075 
L 179.178981 372.338051 
L 190.626772 369.856028 
L 202.074564 366.34696 
L 213.522356 361.810847 
L 224.970147 357.017974 
L 236.417939 353.252145 
L 247.86573 348.288097 
L 259.313522 339.30146 
L 270.761314 335.621218 
L 282.209105 331.170693 
L 293.656897 331.170693 
L 305.104689 321.242598 
L 316.55248 315.765028 
L 328.000272 307.463087 
L 339.448063 302.071104 
L 350.895855 299.845842 
L 362.343647 295.652078 
L 373.791438 293.170054 
L 385.23923 282.043741 
L 396.687022 282.043741 
" style="fill:none;stroke:#f77189;stroke-linecap:square;stroke-width:1.5;"/>
   </g>
   <g id="line2d_32">
    <path clip-path="url(#p07630f5e68)" d="M 396.687022 282.043741 
L 408.134813 276.275303 
L 419.582605 271.027524 
L 431.030396 265.717443 
L 442.478188 260.293151 
L 453.92598 254.938438 
" style="fill:none;stroke:#f77189;stroke-dasharray:1.5,2.475;stroke-dashoffset:0;stroke-width:1.5;"/>
   </g>
   <g id="line2d_33">
    <path clip-path="url(#p07630f5e68)" d="M 76.148856 390.311326 
L 87.596648 389.883391 
L 99.044439 389.712217 
L 110.492231 389.027521 
L 121.940023 388.000477 
L 133.387814 387.658129 
L 144.835606 386.203149 
L 156.283398 383.29319 
L 167.731189 382.266146 
L 179.178981 379.356187 
L 190.626772 377.130925 
L 202.074564 375.504771 
L 213.522356 373.53627 
L 224.970147 370.112789 
L 236.417939 364.720806 
L 247.86573 361.382912 
L 259.313522 357.360322 
L 270.761314 352.653036 
L 282.209105 349.914251 
L 293.656897 349.914251 
L 305.104689 342.040245 
L 316.55248 337.504132 
L 328.000272 329.630126 
L 339.448063 326.377819 
L 350.895855 317.819117 
L 362.343647 316.364137 
L 373.791438 313.11183 
L 385.23923 305.665759 
L 396.687022 305.665759 
" style="fill:none;stroke:#bb9832;stroke-linecap:square;stroke-width:1.5;"/>
   </g>
   <g id="line2d_34">
    <path clip-path="url(#p07630f5e68)" d="M 396.687022 305.665759 
L 408.134813 298.693411 
L 419.582605 292.177093 
L 431.030396 285.554497 
L 442.478188 279.003527 
L 453.92598 272.361187 
" style="fill:none;stroke:#bb9832;stroke-dasharray:1.5,2.475;stroke-dashoffset:0;stroke-width:1.5;"/>
   </g>
   <g id="line2d_35">
    <path clip-path="url(#p07630f5e68)" d="M 76.148856 390.824848 
L 87.596648 390.4825 
L 99.044439 390.225739 
L 110.492231 389.712217 
L 121.940023 389.712217 
L 133.387814 389.712217 
L 144.835606 388.77076 
L 156.283398 385.518453 
L 167.731189 382.950842 
L 179.178981 381.324689 
L 190.626772 378.157969 
L 202.074564 376.702989 
L 213.522356 375.504771 
L 224.970147 371.567768 
L 236.417939 367.801939 
L 247.86573 364.720806 
L 259.313522 361.297325 
L 270.761314 356.162104 
L 282.209105 354.792711 
L 293.656897 354.792711 
L 305.104689 345.6349 
L 316.55248 340.927613 
L 328.000272 336.477088 
L 339.448063 332.882433 
L 350.895855 328.774256 
L 362.343647 328.08956 
L 373.791438 327.148102 
L 385.23923 318.760574 
L 396.687022 318.760574 
" style="fill:none;stroke:#50b131;stroke-linecap:square;stroke-width:1.5;"/>
   </g>
   <g id="line2d_36">
    <path clip-path="url(#p07630f5e68)" d="M 396.687022 318.760574 
L 408.134813 313.948659 
L 419.582605 309.43334 
L 431.030396 304.861769 
L 442.478188 300.294611 
L 453.92598 295.800563 
" style="fill:none;stroke:#50b131;stroke-dasharray:1.5,2.475;stroke-dashoffset:0;stroke-width:1.5;"/>
   </g>
   <g id="line2d_37">
    <path clip-path="url(#p07630f5e68)" d="M 76.148856 390.225739 
L 87.596648 389.968978 
L 99.044439 389.369869 
L 110.492231 388.685173 
L 121.940023 388.685173 
L 133.387814 388.685173 
L 144.835606 387.572542 
L 156.283398 385.004931 
L 167.731189 381.153515 
L 179.178981 380.12647 
L 190.626772 376.10388 
L 202.074564 375.24801 
L 213.522356 374.306553 
L 224.970147 368.91457 
L 236.417939 364.549632 
L 247.86573 361.896434 
L 259.313522 358.045018 
L 270.761314 354.193602 
L 282.209105 352.653036 
L 293.656897 352.653036 
L 305.104689 344.351094 
L 316.55248 339.387047 
L 328.000272 334.251825 
L 339.448063 330.314822 
L 350.895855 328.003973 
L 362.343647 325.77871 
L 373.791438 324.06697 
L 385.23923 319.958792 
L 396.687022 319.958792 
" style="fill:none;stroke:#36ada4;stroke-linecap:square;stroke-width:1.5;"/>
   </g>
   <g id="line2d_38">
    <path clip-path="url(#p07630f5e68)" d="M 396.687022 319.958792 
L 408.134813 316.106598 
L 419.582605 312.599159 
L 431.030396 309.17516 
L 442.478188 305.714998 
L 453.92598 302.664086 
" style="fill:none;stroke:#36ada4;stroke-dasharray:1.5,2.475;stroke-dashoffset:0;stroke-width:1.5;"/>
   </g>
   <g id="line2d_39">
    <path clip-path="url(#p07630f5e68)" d="M 76.148856 390.311326 
L 87.596648 389.62663 
L 99.044439 389.198695 
L 110.492231 388.685173 
L 121.940023 388.257238 
L 133.387814 387.658129 
L 144.835606 386.802258 
L 156.283398 385.860801 
L 167.731189 384.74817 
L 179.178981 383.806712 
L 190.626772 381.410276 
L 202.074564 380.12647 
L 213.522356 378.842665 
L 224.970147 376.959751 
L 236.417939 374.477727 
L 247.86573 372.338051 
L 259.313522 370.797485 
L 270.761314 368.743396 
L 282.209105 366.090198 
L 293.656897 364.03611 
L 305.104689 360.612629 
L 316.55248 357.017974 
L 328.000272 352.481862 
L 339.448063 349.058381 
L 350.895855 342.125832 
L 362.343647 340.071743 
L 373.791438 338.616764 
L 385.23923 334.679761 
L 396.687022 329.031017 
" style="fill:none;stroke:#3ba3ec;stroke-linecap:square;stroke-width:1.5;"/>
   </g>
   <g id="line2d_40">
    <path clip-path="url(#p07630f5e68)" d="M 396.687022 329.031017 
L 408.134813 324.585901 
L 419.582605 319.507471 
L 431.030396 314.530993 
L 442.478188 309.462908 
L 453.92598 304.05037 
" style="fill:none;stroke:#3ba3ec;stroke-dasharray:1.5,2.475;stroke-dashoffset:0;stroke-width:1.5;"/>
   </g>
   <g id="line2d_41">
    <path clip-path="url(#p07630f5e68)" d="M 76.148856 390.396913 
L 87.596648 390.311326 
L 99.044439 390.140152 
L 110.492231 389.712217 
L 121.940023 389.62663 
L 133.387814 389.62663 
L 144.835606 388.171651 
L 156.283398 387.486955 
L 167.731189 385.860801 
L 179.178981 384.919344 
L 190.626772 384.063474 
L 202.074564 383.207603 
L 213.522356 382.779668 
L 224.970147 380.12647 
L 236.417939 378.157969 
L 247.86573 376.189467 
L 259.313522 374.049792 
L 270.761314 372.594812 
L 282.209105 370.198376 
L 293.656897 369.000157 
L 305.104689 366.860482 
L 316.55248 360.184694 
L 328.000272 356.675626 
L 339.448063 355.049472 
L 350.895855 354.450363 
L 362.343647 353.166558 
L 373.791438 347.603401 
L 385.23923 344.864616 
L 396.687022 344.864616 
" style="fill:none;stroke:#e866f4;stroke-linecap:square;stroke-width:1.5;"/>
   </g>
   <g id="line2d_42">
    <path clip-path="url(#p07630f5e68)" d="M 396.687022 344.864616 
L 408.134813 340.92265 
L 419.582605 337.523602 
L 431.030396 334.075535 
L 442.478188 330.348948 
L 453.92598 326.839577 
" style="fill:none;stroke:#e866f4;stroke-dasharray:1.5,2.475;stroke-dashoffset:0;stroke-width:1.5;"/>
   </g>
   <g id="patch_8">
    <path d="M 57.26 398.333333 
L 57.26 233.146667 
" style="fill:none;stroke:#ffffff;stroke-linecap:square;stroke-linejoin:miter;stroke-width:0.8;"/>
   </g>
   <g id="patch_9">
    <path d="M 562.68 398.333333 
L 562.68 233.146667 
" style="fill:none;stroke:#ffffff;stroke-linecap:square;stroke-linejoin:miter;stroke-width:0.8;"/>
   </g>
   <g id="patch_10">
    <path d="M 57.26 398.333333 
L 562.68 398.333333 
" style="fill:none;stroke:#ffffff;stroke-linecap:square;stroke-linejoin:miter;stroke-width:0.8;"/>
   </g>
   <g id="patch_11">
    <path d="M 57.26 233.146667 
L 562.68 233.146667 
" style="fill:none;stroke:#ffffff;stroke-linecap:square;stroke-linejoin:miter;stroke-width:0.8;"/>
   </g>
   <g id="text_29">
    <!-- Wayne, MI -->
    <defs>
     <path d="M 3.328125 72.90625 
L 13.28125 72.90625 
L 28.609375 11.28125 
L 43.890625 72.90625 
L 54.984375 72.90625 
L 70.3125 11.28125 
L 85.59375 72.90625 
L 95.609375 72.90625 
L 77.296875 0 
L 64.890625 0 
L 49.515625 63.28125 
L 33.984375 0 
L 21.578125 0 
z
" id="DejaVuSans-57"/>
     <path d="M 32.171875 -5.078125 
Q 28.375 -14.84375 24.75 -17.8125 
Q 21.140625 -20.796875 15.09375 -20.796875 
L 7.90625 -20.796875 
L 7.90625 -13.28125 
L 13.1875 -13.28125 
Q 16.890625 -13.28125 18.9375 -11.515625 
Q 21 -9.765625 23.484375 -3.21875 
L 25.09375 0.875 
L 2.984375 54.6875 
L 12.5 54.6875 
L 29.59375 11.921875 
L 46.6875 54.6875 
L 56.203125 54.6875 
z
" id="DejaVuSans-79"/>
     <path d="M 9.8125 72.90625 
L 19.671875 72.90625 
L 19.671875 0 
L 9.8125 0 
z
" id="DejaVuSans-49"/>
    </defs>
    <g style="fill:#f77189;" transform="translate(465.373771 252.464248)scale(0.08 -0.08)">
     <use xlink:href="#DejaVuSans-57"/>
     <use x="98.783203" xlink:href="#DejaVuSans-61"/>
     <use x="160.0625" xlink:href="#DejaVuSans-79"/>
     <use x="219.242188" xlink:href="#DejaVuSans-6e"/>
     <use x="282.621094" xlink:href="#DejaVuSans-65"/>
     <use x="344.144531" xlink:href="#DejaVuSans-2c"/>
     <use x="375.931641" xlink:href="#DejaVuSans-20"/>
     <use x="407.71875" xlink:href="#DejaVuSans-4d"/>
     <use x="493.998047" xlink:href="#DejaVuSans-49"/>
    </g>
   </g>
   <g id="text_30">
    <!-- Cook, IL -->
    <defs>
     <path d="M 9.8125 72.90625 
L 19.671875 72.90625 
L 19.671875 8.296875 
L 55.171875 8.296875 
L 55.171875 0 
L 9.8125 0 
z
" id="DejaVuSans-4c"/>
    </defs>
    <g style="fill:#bb9832;" transform="translate(465.373771 269.886998)scale(0.08 -0.08)">
     <use xlink:href="#DejaVuSans-43"/>
     <use x="69.824219" xlink:href="#DejaVuSans-6f"/>
     <use x="131.005859" xlink:href="#DejaVuSans-6f"/>
     <use x="192.1875" xlink:href="#DejaVuSans-6b"/>
     <use x="250.097656" xlink:href="#DejaVuSans-2c"/>
     <use x="281.884766" xlink:href="#DejaVuSans-20"/>
     <use x="313.671875" xlink:href="#DejaVuSans-49"/>
     <use x="343.164062" xlink:href="#DejaVuSans-4c"/>
    </g>
   </g>
   <g id="text_31">
    <!-- Essex, NJ -->
    <defs>
     <path d="M 9.8125 72.90625 
L 55.90625 72.90625 
L 55.90625 64.59375 
L 19.671875 64.59375 
L 19.671875 43.015625 
L 54.390625 43.015625 
L 54.390625 34.71875 
L 19.671875 34.71875 
L 19.671875 8.296875 
L 56.78125 8.296875 
L 56.78125 0 
L 9.8125 0 
z
" id="DejaVuSans-45"/>
     <path d="M 9.8125 72.90625 
L 19.671875 72.90625 
L 19.671875 5.078125 
Q 19.671875 -8.109375 14.671875 -14.0625 
Q 9.671875 -20.015625 -1.421875 -20.015625 
L -5.171875 -20.015625 
L -5.171875 -11.71875 
L -2.09375 -11.71875 
Q 4.4375 -11.71875 7.125 -8.046875 
Q 9.8125 -4.390625 9.8125 5.078125 
z
" id="DejaVuSans-4a"/>
    </defs>
    <g style="fill:#50b131;" transform="translate(465.373771 291.880633)scale(0.08 -0.08)">
     <use xlink:href="#DejaVuSans-45"/>
     <use x="63.183594" xlink:href="#DejaVuSans-73"/>
     <use x="115.283203" xlink:href="#DejaVuSans-73"/>
     <use x="167.382812" xlink:href="#DejaVuSans-65"/>
     <use x="228.890625" xlink:href="#DejaVuSans-78"/>
     <use x="288.070312" xlink:href="#DejaVuSans-2c"/>
     <use x="319.857422" xlink:href="#DejaVuSans-20"/>
     <use x="351.644531" xlink:href="#DejaVuSans-4e"/>
     <use x="426.449219" xlink:href="#DejaVuSans-4a"/>
    </g>
   </g>
   <g id="text_32">
    <!-- Bergen, NJ -->
    <g style="fill:#36ada4;" transform="translate(423.173771 301.605909)scale(0.08 -0.08)">
     <use xlink:href="#DejaVuSans-42"/>
     <use x="68.603516" xlink:href="#DejaVuSans-65"/>
     <use x="130.126953" xlink:href="#DejaVuSans-72"/>
     <use x="171.224609" xlink:href="#DejaVuSans-67"/>
     <use x="234.701172" xlink:href="#DejaVuSans-65"/>
     <use x="296.224609" xlink:href="#DejaVuSans-6e"/>
     <use x="359.603516" xlink:href="#DejaVuSans-2c"/>
     <use x="391.390625" xlink:href="#DejaVuSans-20"/>
     <use x="423.177734" xlink:href="#DejaVuSans-4e"/>
     <use x="497.982422" xlink:href="#DejaVuSans-4a"/>
    </g>
   </g>
   <g id="text_33">
    <!-- Los Angeles, CA -->
    <defs>
     <path d="M 34.1875 63.1875 
L 20.796875 26.90625 
L 47.609375 26.90625 
z
M 28.609375 72.90625 
L 39.796875 72.90625 
L 67.578125 0 
L 57.328125 0 
L 50.6875 18.703125 
L 17.828125 18.703125 
L 11.1875 0 
L 0.78125 0 
z
" id="DejaVuSans-41"/>
    </defs>
    <g style="fill:#3ba3ec;" transform="translate(465.373771 311.129038)scale(0.08 -0.08)">
     <use xlink:href="#DejaVuSans-4c"/>
     <use x="55.697266" xlink:href="#DejaVuSans-6f"/>
     <use x="116.878906" xlink:href="#DejaVuSans-73"/>
     <use x="168.978516" xlink:href="#DejaVuSans-20"/>
     <use x="200.765625" xlink:href="#DejaVuSans-41"/>
     <use x="269.173828" xlink:href="#DejaVuSans-6e"/>
     <use x="332.552734" xlink:href="#DejaVuSans-67"/>
     <use x="396.029297" xlink:href="#DejaVuSans-65"/>
     <use x="457.552734" xlink:href="#DejaVuSans-6c"/>
     <use x="485.335938" xlink:href="#DejaVuSans-65"/>
     <use x="546.859375" xlink:href="#DejaVuSans-73"/>
     <use x="598.958984" xlink:href="#DejaVuSans-2c"/>
     <use x="630.746094" xlink:href="#DejaVuSans-20"/>
     <use x="662.533203" xlink:href="#DejaVuSans-43"/>
     <use x="732.357422" xlink:href="#DejaVuSans-41"/>
    </g>
   </g>
   <g id="text_34">
    <!-- Fairfield, CT -->
    <defs>
     <path d="M 9.8125 72.90625 
L 51.703125 72.90625 
L 51.703125 64.59375 
L 19.671875 64.59375 
L 19.671875 43.109375 
L 48.578125 43.109375 
L 48.578125 34.8125 
L 19.671875 34.8125 
L 19.671875 0 
L 9.8125 0 
z
" id="DejaVuSans-46"/>
     <path d="M -0.296875 72.90625 
L 61.375 72.90625 
L 61.375 64.59375 
L 35.5 64.59375 
L 35.5 0 
L 25.59375 0 
L 25.59375 64.59375 
L -0.296875 64.59375 
z
" id="DejaVuSans-54"/>
    </defs>
    <g style="fill:#e866f4;" transform="translate(465.373771 324.365387)scale(0.08 -0.08)">
     <use xlink:href="#DejaVuSans-46"/>
     <use x="57.378906" xlink:href="#DejaVuSans-61"/>
     <use x="118.658203" xlink:href="#DejaVuSans-69"/>
     <use x="146.441406" xlink:href="#DejaVuSans-72"/>
     <use x="187.554688" xlink:href="#DejaVuSans-66"/>
     <use x="222.759766" xlink:href="#DejaVuSans-69"/>
     <use x="250.542969" xlink:href="#DejaVuSans-65"/>
     <use x="312.066406" xlink:href="#DejaVuSans-6c"/>
     <use x="339.849609" xlink:href="#DejaVuSans-64"/>
     <use x="403.326172" xlink:href="#DejaVuSans-2c"/>
     <use x="435.113281" xlink:href="#DejaVuSans-20"/>
     <use x="466.900391" xlink:href="#DejaVuSans-43"/>
     <use x="536.724609" xlink:href="#DejaVuSans-54"/>
    </g>
   </g>
   <g id="text_35">
    <!-- Most-affected counties outside NY -->
    <g style="fill:#ffffff;" transform="translate(207.32875 227.146667)scale(0.12 -0.12)">
     <use xlink:href="#DejaVuSans-4d"/>
     <use x="86.279297" xlink:href="#DejaVuSans-6f"/>
     <use x="147.460938" xlink:href="#DejaVuSans-73"/>
     <use x="199.560547" xlink:href="#DejaVuSans-74"/>
     <use x="238.769531" xlink:href="#DejaVuSans-2d"/>
     <use x="274.853516" xlink:href="#DejaVuSans-61"/>
     <use x="336.132812" xlink:href="#DejaVuSans-66"/>
     <use x="371.337891" xlink:href="#DejaVuSans-66"/>
     <use x="406.542969" xlink:href="#DejaVuSans-65"/>
     <use x="468.066406" xlink:href="#DejaVuSans-63"/>
     <use x="523.046875" xlink:href="#DejaVuSans-74"/>
     <use x="562.255859" xlink:href="#DejaVuSans-65"/>
     <use x="623.779297" xlink:href="#DejaVuSans-64"/>
     <use x="687.255859" xlink:href="#DejaVuSans-20"/>
     <use x="719.042969" xlink:href="#DejaVuSans-63"/>
     <use x="774.023438" xlink:href="#DejaVuSans-6f"/>
     <use x="835.205078" xlink:href="#DejaVuSans-75"/>
     <use x="898.583984" xlink:href="#DejaVuSans-6e"/>
     <use x="961.962891" xlink:href="#DejaVuSans-74"/>
     <use x="1001.171875" xlink:href="#DejaVuSans-69"/>
     <use x="1028.955078" xlink:href="#DejaVuSans-65"/>
     <use x="1090.478516" xlink:href="#DejaVuSans-73"/>
     <use x="1142.578125" xlink:href="#DejaVuSans-20"/>
     <use x="1174.365234" xlink:href="#DejaVuSans-6f"/>
     <use x="1235.546875" xlink:href="#DejaVuSans-75"/>
     <use x="1298.925781" xlink:href="#DejaVuSans-74"/>
     <use x="1338.134766" xlink:href="#DejaVuSans-73"/>
     <use x="1390.234375" xlink:href="#DejaVuSans-69"/>
     <use x="1418.017578" xlink:href="#DejaVuSans-64"/>
     <use x="1481.494141" xlink:href="#DejaVuSans-65"/>
     <use x="1543.017578" xlink:href="#DejaVuSans-20"/>
     <use x="1574.804688" xlink:href="#DejaVuSans-4e"/>
     <use x="1649.609375" xlink:href="#DejaVuSans-59"/>
    </g>
   </g>
  </g>
  <g id="axes_3">
   <g id="patch_12">
    <path d="M 57.26 606.04 
L 562.68 606.04 
L 562.68 440.853333 
L 57.26 440.853333 
z
"/>
   </g>
   <g id="PolyCollection_12">
    <defs>
     <path d="M 394.599837 -153.847121 
L 394.599837 -153.847121 
L 406.394936 -153.847121 
L 418.190035 -154.509334 
L 429.985134 -158.212916 
L 441.780233 -163.047426 
L 453.575333 -168.640424 
L 453.575333 -199.638182 
L 453.575333 -199.638182 
L 441.780233 -192.734962 
L 429.985134 -185.563671 
L 418.190035 -177.525177 
L 406.394936 -169.730453 
L 394.599837 -153.847121 
z
" id="maa30781bd6" style="stroke:#f77189;stroke-opacity:0.1;"/>
    </defs>
    <g clip-path="url(#paf184d7a8e)">
     <use style="fill:#f77189;fill-opacity:0.1;stroke:#f77189;stroke-opacity:0.1;" x="0" xlink:href="#maa30781bd6" y="648"/>
    </g>
   </g>
   <g id="PolyCollection_13">
    <defs>
     <path d="M 394.599837 -98.851926 
L 394.599837 -98.851926 
L 406.394936 -98.851926 
L 418.190035 -98.851926 
L 429.985134 -98.851926 
L 441.780233 -98.851926 
L 453.575333 -98.851926 
L 453.575333 -131.946923 
L 453.575333 -131.946923 
L 441.780233 -131.300382 
L 429.985134 -114.727519 
L 418.190035 -109.754201 
L 406.394936 -104.07424 
L 394.599837 -98.851926 
z
" id="m88a812ac10" style="stroke:#ae9d31;stroke-opacity:0.1;"/>
    </defs>
    <g clip-path="url(#paf184d7a8e)">
     <use style="fill:#ae9d31;fill-opacity:0.1;stroke:#ae9d31;stroke-opacity:0.1;" x="0" xlink:href="#m88a812ac10" y="648"/>
    </g>
   </g>
   <g id="PolyCollection_14">
    <defs>
     <path d="M 394.599837 -90.995469 
L 394.599837 -90.995469 
L 406.394936 -90.995469 
L 418.190035 -90.995469 
L 429.985134 -90.995469 
L 441.780233 -90.995469 
L 453.575333 -90.995469 
L 453.575333 -117.085183 
L 453.575333 -117.085183 
L 441.780233 -113.952663 
L 429.985134 -108.081592 
L 418.190035 -106.425349 
L 406.394936 -105.288358 
L 394.599837 -90.995469 
z
" id="m3ccaa1edba" style="stroke:#33b07a;stroke-opacity:0.1;"/>
    </defs>
    <g clip-path="url(#paf184d7a8e)">
     <use style="fill:#33b07a;fill-opacity:0.1;stroke:#33b07a;stroke-opacity:0.1;" x="0" xlink:href="#m3ccaa1edba" y="648"/>
    </g>
   </g>
   <g id="PolyCollection_15">
    <defs>
     <path d="M 394.599837 -73.037854 
L 394.599837 -73.037854 
L 406.394936 -73.037854 
L 418.190035 -73.037854 
L 429.985134 -73.037854 
L 441.780233 -73.037854 
L 453.575333 -73.037854 
L 453.575333 -86.472083 
L 453.575333 -86.472083 
L 441.780233 -85.209282 
L 429.985134 -79.443826 
L 418.190035 -79.143624 
L 406.394936 -76.28763 
L 394.599837 -73.037854 
z
" id="me676ccb007" style="stroke:#38a9c5;stroke-opacity:0.1;"/>
    </defs>
    <g clip-path="url(#paf184d7a8e)">
     <use style="fill:#38a9c5;fill-opacity:0.1;stroke:#38a9c5;stroke-opacity:0.1;" x="0" xlink:href="#me676ccb007" y="648"/>
    </g>
   </g>
   <g id="PolyCollection_16">
    <defs>
     <path d="M 394.599837 -71.915503 
L 394.599837 -71.915503 
L 406.394936 -71.915503 
L 418.190035 -71.915503 
L 429.985134 -71.915503 
L 441.780233 -71.915503 
L 453.575333 -71.915503 
L 453.575333 -79.674719 
L 453.575333 -79.674719 
L 441.780233 -79.181998 
L 429.985134 -78.052048 
L 418.190035 -76.688165 
L 406.394936 -74.650702 
L 394.599837 -71.915503 
z
" id="m854e092f2f" style="stroke:#cc7af4;stroke-opacity:0.1;"/>
    </defs>
    <g clip-path="url(#paf184d7a8e)">
     <use style="fill:#cc7af4;fill-opacity:0.1;stroke:#cc7af4;stroke-opacity:0.1;" x="0" xlink:href="#m854e092f2f" y="648"/>
    </g>
   </g>
   <g id="matplotlib.axis_5">
    <g id="xtick_7">
     <g id="line2d_43">
      <g>
       <use style="fill:#ffffff;stroke:#ffffff;stroke-width:0.8;" x="76.132159" xlink:href="#m845b0c23b7" y="606.04"/>
      </g>
     </g>
     <g id="text_36">
      <!-- 3/27 -->
      <g style="fill:#ffffff;" transform="translate(64.904034 620.638438)scale(0.1 -0.1)">
       <use xlink:href="#DejaVuSans-33"/>
       <use x="63.623047" xlink:href="#DejaVuSans-2f"/>
       <use x="97.314453" xlink:href="#DejaVuSans-32"/>
       <use x="160.9375" xlink:href="#DejaVuSans-37"/>
      </g>
     </g>
    </g>
    <g id="xtick_8">
     <g id="line2d_44">
      <g>
       <use style="fill:#ffffff;stroke:#ffffff;stroke-width:0.8;" x="394.599837" xlink:href="#m845b0c23b7" y="606.04"/>
      </g>
     </g>
     <g id="text_37">
      <!-- 4/24 -->
      <g style="fill:#ffffff;" transform="translate(383.371712 620.638438)scale(0.1 -0.1)">
       <use xlink:href="#DejaVuSans-34"/>
       <use x="63.623047" xlink:href="#DejaVuSans-2f"/>
       <use x="97.314453" xlink:href="#DejaVuSans-32"/>
       <use x="160.9375" xlink:href="#DejaVuSans-34"/>
      </g>
     </g>
    </g>
    <g id="xtick_9">
     <g id="line2d_45">
      <g>
       <use style="fill:#ffffff;stroke:#ffffff;stroke-width:0.8;" x="453.575333" xlink:href="#m845b0c23b7" y="606.04"/>
      </g>
     </g>
     <g id="text_38">
      <!-- 4/29 -->
      <g style="fill:#ffffff;" transform="translate(442.347208 620.638438)scale(0.1 -0.1)">
       <use xlink:href="#DejaVuSans-34"/>
       <use x="63.623047" xlink:href="#DejaVuSans-2f"/>
       <use x="97.314453" xlink:href="#DejaVuSans-32"/>
       <use x="160.9375" xlink:href="#DejaVuSans-39"/>
      </g>
     </g>
    </g>
    <g id="text_39">
     <!-- Date -->
     <defs>
      <path d="M 19.671875 64.796875 
L 19.671875 8.109375 
L 31.59375 8.109375 
Q 46.6875 8.109375 53.6875 14.9375 
Q 60.6875 21.78125 60.6875 36.53125 
Q 60.6875 51.171875 53.6875 57.984375 
Q 46.6875 64.796875 31.59375 64.796875 
z
M 9.8125 72.90625 
L 30.078125 72.90625 
Q 51.265625 72.90625 61.171875 64.09375 
Q 71.09375 55.28125 71.09375 36.53125 
Q 71.09375 17.671875 61.125 8.828125 
Q 51.171875 0 30.078125 0 
L 9.8125 0 
z
" id="DejaVuSans-44"/>
     </defs>
     <g style="fill:#ffffff;" transform="translate(298.019219 634.316563)scale(0.1 -0.1)">
      <use xlink:href="#DejaVuSans-44"/>
      <use x="77.001953" xlink:href="#DejaVuSans-61"/>
      <use x="138.28125" xlink:href="#DejaVuSans-74"/>
      <use x="177.490234" xlink:href="#DejaVuSans-65"/>
     </g>
    </g>
   </g>
   <g id="matplotlib.axis_6">
    <g id="ytick_15">
     <g id="line2d_46">
      <g>
       <use style="fill:#ffffff;stroke:#ffffff;stroke-width:0.8;" x="57.26" xlink:href="#m39844678d2" y="599.653866"/>
      </g>
     </g>
     <g id="text_40">
      <!-- 0 -->
      <g style="fill:#ffffff;" transform="translate(43.8975 603.453085)scale(0.1 -0.1)">
       <use xlink:href="#DejaVuSans-30"/>
      </g>
     </g>
    </g>
    <g id="ytick_16">
     <g id="line2d_47">
      <g>
       <use style="fill:#ffffff;stroke:#ffffff;stroke-width:0.8;" x="57.26" xlink:href="#m39844678d2" y="577.206848"/>
      </g>
     </g>
     <g id="text_41">
      <!-- 20 -->
      <g style="fill:#ffffff;" transform="translate(37.535 581.006066)scale(0.1 -0.1)">
       <use xlink:href="#DejaVuSans-32"/>
       <use x="63.623047" xlink:href="#DejaVuSans-30"/>
      </g>
     </g>
    </g>
    <g id="ytick_17">
     <g id="line2d_48">
      <g>
       <use style="fill:#ffffff;stroke:#ffffff;stroke-width:0.8;" x="57.26" xlink:href="#m39844678d2" y="554.759829"/>
      </g>
     </g>
     <g id="text_42">
      <!-- 40 -->
      <g style="fill:#ffffff;" transform="translate(37.535 558.559048)scale(0.1 -0.1)">
       <use xlink:href="#DejaVuSans-34"/>
       <use x="63.623047" xlink:href="#DejaVuSans-30"/>
      </g>
     </g>
    </g>
    <g id="ytick_18">
     <g id="line2d_49">
      <g>
       <use style="fill:#ffffff;stroke:#ffffff;stroke-width:0.8;" x="57.26" xlink:href="#m39844678d2" y="532.31281"/>
      </g>
     </g>
     <g id="text_43">
      <!-- 60 -->
      <g style="fill:#ffffff;" transform="translate(37.535 536.112029)scale(0.1 -0.1)">
       <use xlink:href="#DejaVuSans-36"/>
       <use x="63.623047" xlink:href="#DejaVuSans-30"/>
      </g>
     </g>
    </g>
    <g id="ytick_19">
     <g id="line2d_50">
      <g>
       <use style="fill:#ffffff;stroke:#ffffff;stroke-width:0.8;" x="57.26" xlink:href="#m39844678d2" y="509.865792"/>
      </g>
     </g>
     <g id="text_44">
      <!-- 80 -->
      <defs>
       <path d="M 31.78125 34.625 
Q 24.75 34.625 20.71875 30.859375 
Q 16.703125 27.09375 16.703125 20.515625 
Q 16.703125 13.921875 20.71875 10.15625 
Q 24.75 6.390625 31.78125 6.390625 
Q 38.8125 6.390625 42.859375 10.171875 
Q 46.921875 13.96875 46.921875 20.515625 
Q 46.921875 27.09375 42.890625 30.859375 
Q 38.875 34.625 31.78125 34.625 
z
M 21.921875 38.8125 
Q 15.578125 40.375 12.03125 44.71875 
Q 8.5 49.078125 8.5 55.328125 
Q 8.5 64.0625 14.71875 69.140625 
Q 20.953125 74.21875 31.78125 74.21875 
Q 42.671875 74.21875 48.875 69.140625 
Q 55.078125 64.0625 55.078125 55.328125 
Q 55.078125 49.078125 51.53125 44.71875 
Q 48 40.375 41.703125 38.8125 
Q 48.828125 37.15625 52.796875 32.3125 
Q 56.78125 27.484375 56.78125 20.515625 
Q 56.78125 9.90625 50.3125 4.234375 
Q 43.84375 -1.421875 31.78125 -1.421875 
Q 19.734375 -1.421875 13.25 4.234375 
Q 6.78125 9.90625 6.78125 20.515625 
Q 6.78125 27.484375 10.78125 32.3125 
Q 14.796875 37.15625 21.921875 38.8125 
z
M 18.3125 54.390625 
Q 18.3125 48.734375 21.84375 45.5625 
Q 25.390625 42.390625 31.78125 42.390625 
Q 38.140625 42.390625 41.71875 45.5625 
Q 45.3125 48.734375 45.3125 54.390625 
Q 45.3125 60.0625 41.71875 63.234375 
Q 38.140625 66.40625 31.78125 66.40625 
Q 25.390625 66.40625 21.84375 63.234375 
Q 18.3125 60.0625 18.3125 54.390625 
z
" id="DejaVuSans-38"/>
      </defs>
      <g style="fill:#ffffff;" transform="translate(37.535 513.665011)scale(0.1 -0.1)">
       <use xlink:href="#DejaVuSans-38"/>
       <use x="63.623047" xlink:href="#DejaVuSans-30"/>
      </g>
     </g>
    </g>
    <g id="ytick_20">
     <g id="line2d_51">
      <g>
       <use style="fill:#ffffff;stroke:#ffffff;stroke-width:0.8;" x="57.26" xlink:href="#m39844678d2" y="487.418773"/>
      </g>
     </g>
     <g id="text_45">
      <!-- 100 -->
      <g style="fill:#ffffff;" transform="translate(31.1725 491.217992)scale(0.1 -0.1)">
       <use xlink:href="#DejaVuSans-31"/>
       <use x="63.623047" xlink:href="#DejaVuSans-30"/>
       <use x="127.246094" xlink:href="#DejaVuSans-30"/>
      </g>
     </g>
    </g>
    <g id="ytick_21">
     <g id="line2d_52">
      <g>
       <use style="fill:#ffffff;stroke:#ffffff;stroke-width:0.8;" x="57.26" xlink:href="#m39844678d2" y="464.971755"/>
      </g>
     </g>
     <g id="text_46">
      <!-- 120 -->
      <g style="fill:#ffffff;" transform="translate(31.1725 468.770974)scale(0.1 -0.1)">
       <use xlink:href="#DejaVuSans-31"/>
       <use x="63.623047" xlink:href="#DejaVuSans-32"/>
       <use x="127.246094" xlink:href="#DejaVuSans-30"/>
      </g>
     </g>
    </g>
    <g id="ytick_22">
     <g id="line2d_53">
      <g>
       <use style="fill:#ffffff;stroke:#ffffff;stroke-width:0.8;" x="57.26" xlink:href="#m39844678d2" y="442.524736"/>
      </g>
     </g>
     <g id="text_47">
      <!-- 140 -->
      <g style="fill:#ffffff;" transform="translate(31.1725 446.323955)scale(0.1 -0.1)">
       <use xlink:href="#DejaVuSans-31"/>
       <use x="63.623047" xlink:href="#DejaVuSans-34"/>
       <use x="127.246094" xlink:href="#DejaVuSans-30"/>
      </g>
     </g>
    </g>
    <g id="text_48">
     <!-- Cumulative deaths -->
     <g style="fill:#ffffff;" transform="translate(25.092813 570.621667)rotate(-90)scale(0.1 -0.1)">
      <use xlink:href="#DejaVuSans-43"/>
      <use x="69.824219" xlink:href="#DejaVuSans-75"/>
      <use x="133.203125" xlink:href="#DejaVuSans-6d"/>
      <use x="230.615234" xlink:href="#DejaVuSans-75"/>
      <use x="293.994141" xlink:href="#DejaVuSans-6c"/>
      <use x="321.777344" xlink:href="#DejaVuSans-61"/>
      <use x="383.056641" xlink:href="#DejaVuSans-74"/>
      <use x="422.265625" xlink:href="#DejaVuSans-69"/>
      <use x="450.048828" xlink:href="#DejaVuSans-76"/>
      <use x="509.228516" xlink:href="#DejaVuSans-65"/>
      <use x="570.751953" xlink:href="#DejaVuSans-20"/>
      <use x="602.539062" xlink:href="#DejaVuSans-64"/>
      <use x="666.015625" xlink:href="#DejaVuSans-65"/>
      <use x="727.539062" xlink:href="#DejaVuSans-61"/>
      <use x="788.818359" xlink:href="#DejaVuSans-74"/>
      <use x="828.027344" xlink:href="#DejaVuSans-68"/>
      <use x="891.40625" xlink:href="#DejaVuSans-73"/>
     </g>
    </g>
   </g>
   <g id="line2d_54">
    <path clip-path="url(#paf184d7a8e)" d="M 76.132159 574.962146 
L 87.927258 573.839795 
L 99.722357 568.22804 
L 111.517456 568.22804 
L 123.312555 564.860987 
L 135.107655 562.616285 
L 146.902754 560.371584 
L 158.697853 555.88218 
L 170.492952 553.637478 
L 182.288051 552.515127 
L 194.083151 552.515127 
L 205.87825 549.148074 
L 217.673349 548.025723 
L 229.468448 544.658671 
L 241.263547 543.53632 
L 253.058646 540.169267 
L 264.853746 539.046916 
L 276.648845 535.679863 
L 288.443944 528.945758 
L 300.239043 528.945758 
L 312.034142 523.334003 
L 323.829242 518.844599 
L 335.624341 518.844599 
L 347.41944 514.355196 
L 359.214539 514.355196 
L 371.009638 503.131686 
L 382.804737 497.519932 
L 394.599837 494.152879 
" style="fill:none;stroke:#f77189;stroke-linecap:square;stroke-width:1.5;"/>
   </g>
   <g id="line2d_55">
    <path clip-path="url(#paf184d7a8e)" d="M 394.599837 494.152879 
L 406.394936 486.715052 
L 418.190035 480.00958 
L 429.985134 473.219 
L 441.780233 466.71375 
L 453.575333 460.620723 
" style="fill:none;stroke:#f77189;stroke-dasharray:1.5,2.475;stroke-dashoffset:0;stroke-width:1.5;"/>
   </g>
   <g id="line2d_56">
    <path clip-path="url(#paf184d7a8e)" d="M 76.132159 595.164462 
L 87.927258 595.164462 
L 99.722357 592.919761 
L 111.517456 591.79741 
L 123.312555 591.79741 
L 135.107655 591.79741 
L 146.902754 590.675059 
L 158.697853 589.552708 
L 170.492952 586.185655 
L 182.288051 586.185655 
L 194.083151 586.185655 
L 205.87825 585.063304 
L 217.673349 582.818602 
L 229.468448 581.696251 
L 241.263547 580.5739 
L 253.058646 577.206848 
L 264.853746 576.084497 
L 276.648845 573.839795 
L 288.443944 573.839795 
L 300.239043 573.839795 
L 312.034142 559.249233 
L 323.829242 555.88218 
L 335.624341 555.88218 
L 347.41944 553.637478 
L 359.214539 552.515127 
L 371.009638 552.515127 
L 382.804737 551.392776 
L 394.599837 549.148074 
" style="fill:none;stroke:#ae9d31;stroke-linecap:square;stroke-width:1.5;"/>
   </g>
   <g id="line2d_57">
    <path clip-path="url(#paf184d7a8e)" d="M 394.599837 549.148074 
L 406.394936 547.200764 
L 418.190035 545.003523 
L 429.985134 542.884523 
L 441.780233 541.020979 
L 453.575333 539.445696 
" style="fill:none;stroke:#ae9d31;stroke-dasharray:1.5,2.475;stroke-dashoffset:0;stroke-width:1.5;"/>
   </g>
   <g id="line2d_58">
    <path clip-path="url(#paf184d7a8e)" d="M 76.132159 594.042111 
L 87.927258 592.919761 
L 99.722357 592.919761 
L 111.517456 592.919761 
L 123.312555 592.919761 
L 135.107655 588.430357 
L 146.902754 588.430357 
L 158.697853 588.430357 
L 170.492952 585.063304 
L 182.288051 585.063304 
L 194.083151 585.063304 
L 205.87825 585.063304 
L 217.673349 576.084497 
L 229.468448 576.084497 
L 241.263547 576.084497 
L 253.058646 576.084497 
L 264.853746 576.084497 
L 276.648845 576.084497 
L 288.443944 576.084497 
L 300.239043 576.084497 
L 312.034142 576.084497 
L 323.829242 568.22804 
L 335.624341 568.22804 
L 347.41944 568.22804 
L 359.214539 568.22804 
L 371.009638 568.22804 
L 382.804737 568.22804 
L 394.599837 557.004531 
" style="fill:none;stroke:#33b07a;stroke-linecap:square;stroke-width:1.5;"/>
   </g>
   <g id="line2d_59">
    <path clip-path="url(#paf184d7a8e)" d="M 394.599837 557.004531 
L 406.394936 555.537426 
L 418.190035 552.488295 
L 429.985134 549.515083 
L 441.780233 546.724055 
L 453.575333 544.167752 
" style="fill:none;stroke:#33b07a;stroke-dasharray:1.5,2.475;stroke-dashoffset:0;stroke-width:1.5;"/>
   </g>
   <g id="line2d_60">
    <path clip-path="url(#paf184d7a8e)" d="M 76.132159 598.531515 
L 87.927258 597.409164 
L 99.722357 596.286813 
L 111.517456 596.286813 
L 123.312555 596.286813 
L 135.107655 596.286813 
L 146.902754 596.286813 
L 158.697853 596.286813 
L 170.492952 594.042111 
L 182.288051 594.042111 
L 194.083151 592.919761 
L 205.87825 591.79741 
L 217.673349 591.79741 
L 229.468448 591.79741 
L 241.263547 590.675059 
L 253.058646 589.552708 
L 264.853746 587.308006 
L 276.648845 587.308006 
L 288.443944 587.308006 
L 300.239043 586.185655 
L 312.034142 583.940953 
L 323.829242 581.696251 
L 335.624341 581.696251 
L 347.41944 578.329198 
L 359.214539 577.206848 
L 371.009638 574.962146 
L 382.804737 574.962146 
L 394.599837 574.962146 
" style="fill:none;stroke:#38a9c5;stroke-linecap:square;stroke-width:1.5;"/>
   </g>
   <g id="line2d_61">
    <path clip-path="url(#paf184d7a8e)" d="M 394.599837 574.962146 
L 406.394936 573.340498 
L 418.190035 571.98801 
L 429.985134 570.728833 
L 441.780233 569.619036 
L 453.575333 568.684871 
" style="fill:none;stroke:#38a9c5;stroke-dasharray:1.5,2.475;stroke-dashoffset:0;stroke-width:1.5;"/>
   </g>
   <g id="line2d_62">
    <path clip-path="url(#paf184d7a8e)" d="M 76.132159 597.409164 
L 87.927258 596.286813 
L 99.722357 595.164462 
L 111.517456 594.042111 
L 123.312555 592.919761 
L 135.107655 592.919761 
L 146.902754 591.79741 
L 158.697853 591.79741 
L 170.492952 591.79741 
L 182.288051 590.675059 
L 194.083151 590.675059 
L 205.87825 589.552708 
L 217.673349 589.552708 
L 229.468448 588.430357 
L 241.263547 588.430357 
L 253.058646 585.063304 
L 264.853746 585.063304 
L 276.648845 583.940953 
L 288.443944 582.818602 
L 300.239043 582.818602 
L 312.034142 580.5739 
L 323.829242 580.5739 
L 335.624341 580.5739 
L 347.41944 577.206848 
L 359.214539 577.206848 
L 371.009638 577.206848 
L 382.804737 577.206848 
L 394.599837 576.084497 
" style="fill:none;stroke:#cc7af4;stroke-linecap:square;stroke-width:1.5;"/>
   </g>
   <g id="line2d_63">
    <path clip-path="url(#paf184d7a8e)" d="M 394.599837 576.084497 
L 406.394936 574.926885 
L 418.190035 573.683229 
L 429.985134 572.606255 
L 441.780233 571.764959 
L 453.575333 571.150281 
" style="fill:none;stroke:#cc7af4;stroke-dasharray:1.5,2.475;stroke-dashoffset:0;stroke-width:1.5;"/>
   </g>
   <g id="patch_13">
    <path d="M 57.26 606.04 
L 57.26 440.853333 
" style="fill:none;stroke:#ffffff;stroke-linecap:square;stroke-linejoin:miter;stroke-width:0.8;"/>
   </g>
   <g id="patch_14">
    <path d="M 562.68 606.04 
L 562.68 440.853333 
" style="fill:none;stroke:#ffffff;stroke-linecap:square;stroke-linejoin:miter;stroke-width:0.8;"/>
   </g>
   <g id="patch_15">
    <path d="M 57.26 606.04 
L 562.68 606.04 
" style="fill:none;stroke:#ffffff;stroke-linecap:square;stroke-linejoin:miter;stroke-width:0.8;"/>
   </g>
   <g id="patch_16">
    <path d="M 57.26 440.853333 
L 562.68 440.853333 
" style="fill:none;stroke:#ffffff;stroke-linecap:square;stroke-linejoin:miter;stroke-width:0.8;"/>
   </g>
   <g id="text_49">
    <!-- Santa Clara, CA -->
    <defs>
     <path d="M 53.515625 70.515625 
L 53.515625 60.890625 
Q 47.90625 63.578125 42.921875 64.890625 
Q 37.9375 66.21875 33.296875 66.21875 
Q 25.25 66.21875 20.875 63.09375 
Q 16.5 59.96875 16.5 54.203125 
Q 16.5 49.359375 19.40625 46.890625 
Q 22.3125 44.4375 30.421875 42.921875 
L 36.375 41.703125 
Q 47.40625 39.59375 52.65625 34.296875 
Q 57.90625 29 57.90625 20.125 
Q 57.90625 9.515625 50.796875 4.046875 
Q 43.703125 -1.421875 29.984375 -1.421875 
Q 24.8125 -1.421875 18.96875 -0.25 
Q 13.140625 0.921875 6.890625 3.21875 
L 6.890625 13.375 
Q 12.890625 10.015625 18.65625 8.296875 
Q 24.421875 6.59375 29.984375 6.59375 
Q 38.421875 6.59375 43.015625 9.90625 
Q 47.609375 13.234375 47.609375 19.390625 
Q 47.609375 24.75 44.3125 27.78125 
Q 41.015625 30.8125 33.5 32.328125 
L 27.484375 33.5 
Q 16.453125 35.6875 11.515625 40.375 
Q 6.59375 45.0625 6.59375 53.421875 
Q 6.59375 63.09375 13.40625 68.65625 
Q 20.21875 74.21875 32.171875 74.21875 
Q 37.3125 74.21875 42.625 73.28125 
Q 47.953125 72.359375 53.515625 70.515625 
z
" id="DejaVuSans-53"/>
    </defs>
    <g style="fill:#f77189;" transform="translate(465.370432 458.17186)scale(0.08 -0.08)">
     <use xlink:href="#DejaVuSans-53"/>
     <use x="63.476562" xlink:href="#DejaVuSans-61"/>
     <use x="124.755859" xlink:href="#DejaVuSans-6e"/>
     <use x="188.134766" xlink:href="#DejaVuSans-74"/>
     <use x="227.34375" xlink:href="#DejaVuSans-61"/>
     <use x="288.623047" xlink:href="#DejaVuSans-20"/>
     <use x="320.410156" xlink:href="#DejaVuSans-43"/>
     <use x="390.234375" xlink:href="#DejaVuSans-6c"/>
     <use x="418.017578" xlink:href="#DejaVuSans-61"/>
     <use x="479.296875" xlink:href="#DejaVuSans-72"/>
     <use x="520.410156" xlink:href="#DejaVuSans-61"/>
     <use x="581.689453" xlink:href="#DejaVuSans-2c"/>
     <use x="613.476562" xlink:href="#DejaVuSans-20"/>
     <use x="645.263672" xlink:href="#DejaVuSans-43"/>
     <use x="715.087891" xlink:href="#DejaVuSans-41"/>
    </g>
   </g>
   <g id="text_50">
    <!-- Alameda, CA -->
    <g style="fill:#ae9d31;" transform="translate(465.370432 536.996833)scale(0.08 -0.08)">
     <use xlink:href="#DejaVuSans-41"/>
     <use x="68.408203" xlink:href="#DejaVuSans-6c"/>
     <use x="96.191406" xlink:href="#DejaVuSans-61"/>
     <use x="157.470703" xlink:href="#DejaVuSans-6d"/>
     <use x="254.882812" xlink:href="#DejaVuSans-65"/>
     <use x="316.40625" xlink:href="#DejaVuSans-64"/>
     <use x="379.882812" xlink:href="#DejaVuSans-61"/>
     <use x="441.162109" xlink:href="#DejaVuSans-2c"/>
     <use x="472.949219" xlink:href="#DejaVuSans-20"/>
     <use x="504.736328" xlink:href="#DejaVuSans-43"/>
     <use x="574.560547" xlink:href="#DejaVuSans-41"/>
    </g>
   </g>
   <g id="text_51">
    <!-- San Mateo, CA -->
    <g style="fill:#33b07a;" transform="translate(465.370432 551.031615)scale(0.08 -0.08)">
     <use xlink:href="#DejaVuSans-53"/>
     <use x="63.476562" xlink:href="#DejaVuSans-61"/>
     <use x="124.755859" xlink:href="#DejaVuSans-6e"/>
     <use x="188.134766" xlink:href="#DejaVuSans-20"/>
     <use x="219.921875" xlink:href="#DejaVuSans-4d"/>
     <use x="306.201172" xlink:href="#DejaVuSans-61"/>
     <use x="367.480469" xlink:href="#DejaVuSans-74"/>
     <use x="406.689453" xlink:href="#DejaVuSans-65"/>
     <use x="468.212891" xlink:href="#DejaVuSans-6f"/>
     <use x="529.394531" xlink:href="#DejaVuSans-2c"/>
     <use x="561.181641" xlink:href="#DejaVuSans-20"/>
     <use x="592.96875" xlink:href="#DejaVuSans-43"/>
     <use x="662.792969" xlink:href="#DejaVuSans-41"/>
    </g>
   </g>
   <g id="text_52">
    <!-- Contra Costa, CA -->
    <g style="fill:#38a9c5;" transform="translate(465.370432 566.236007)scale(0.08 -0.08)">
     <use xlink:href="#DejaVuSans-43"/>
     <use x="69.824219" xlink:href="#DejaVuSans-6f"/>
     <use x="131.005859" xlink:href="#DejaVuSans-6e"/>
     <use x="194.384766" xlink:href="#DejaVuSans-74"/>
     <use x="233.59375" xlink:href="#DejaVuSans-72"/>
     <use x="274.707031" xlink:href="#DejaVuSans-61"/>
     <use x="335.986328" xlink:href="#DejaVuSans-20"/>
     <use x="367.773438" xlink:href="#DejaVuSans-43"/>
     <use x="437.597656" xlink:href="#DejaVuSans-6f"/>
     <use x="498.779297" xlink:href="#DejaVuSans-73"/>
     <use x="550.878906" xlink:href="#DejaVuSans-74"/>
     <use x="590.087891" xlink:href="#DejaVuSans-61"/>
     <use x="651.367188" xlink:href="#DejaVuSans-2c"/>
     <use x="683.154297" xlink:href="#DejaVuSans-20"/>
     <use x="714.941406" xlink:href="#DejaVuSans-43"/>
     <use x="784.765625" xlink:href="#DejaVuSans-41"/>
    </g>
   </g>
   <g id="text_53">
    <!-- San Francisco, CA -->
    <g style="fill:#cc7af4;" transform="translate(465.370432 578.014145)scale(0.08 -0.08)">
     <use xlink:href="#DejaVuSans-53"/>
     <use x="63.476562" xlink:href="#DejaVuSans-61"/>
     <use x="124.755859" xlink:href="#DejaVuSans-6e"/>
     <use x="188.134766" xlink:href="#DejaVuSans-20"/>
     <use x="219.921875" xlink:href="#DejaVuSans-46"/>
     <use x="277.332031" xlink:href="#DejaVuSans-72"/>
     <use x="318.445312" xlink:href="#DejaVuSans-61"/>
     <use x="379.724609" xlink:href="#DejaVuSans-6e"/>
     <use x="443.103516" xlink:href="#DejaVuSans-63"/>
     <use x="498.083984" xlink:href="#DejaVuSans-69"/>
     <use x="525.867188" xlink:href="#DejaVuSans-73"/>
     <use x="577.966797" xlink:href="#DejaVuSans-63"/>
     <use x="632.947266" xlink:href="#DejaVuSans-6f"/>
     <use x="694.128906" xlink:href="#DejaVuSans-2c"/>
     <use x="725.916016" xlink:href="#DejaVuSans-20"/>
     <use x="757.703125" xlink:href="#DejaVuSans-43"/>
     <use x="827.527344" xlink:href="#DejaVuSans-41"/>
    </g>
   </g>
   <g id="text_54">
    <!-- Bay area counties -->
    <g style="fill:#ffffff;" transform="translate(255.889375 434.853333)scale(0.12 -0.12)">
     <use xlink:href="#DejaVuSans-42"/>
     <use x="68.603516" xlink:href="#DejaVuSans-61"/>
     <use x="129.882812" xlink:href="#DejaVuSans-79"/>
     <use x="189.0625" xlink:href="#DejaVuSans-20"/>
     <use x="220.849609" xlink:href="#DejaVuSans-61"/>
     <use x="282.128906" xlink:href="#DejaVuSans-72"/>
     <use x="323.210938" xlink:href="#DejaVuSans-65"/>
     <use x="384.734375" xlink:href="#DejaVuSans-61"/>
     <use x="446.013672" xlink:href="#DejaVuSans-20"/>
     <use x="477.800781" xlink:href="#DejaVuSans-63"/>
     <use x="532.78125" xlink:href="#DejaVuSans-6f"/>
     <use x="593.962891" xlink:href="#DejaVuSans-75"/>
     <use x="657.341797" xlink:href="#DejaVuSans-6e"/>
     <use x="720.720703" xlink:href="#DejaVuSans-74"/>
     <use x="759.929688" xlink:href="#DejaVuSans-69"/>
     <use x="787.712891" xlink:href="#DejaVuSans-65"/>
     <use x="849.236328" xlink:href="#DejaVuSans-73"/>
    </g>
   </g>
  </g>
 </g>
 <defs>
  <clipPath id="p66a4a535a4">
   <rect height="165.186667" width="505.42" x="57.26" y="25.44"/>
  </clipPath>
  <clipPath id="p07630f5e68">
   <rect height="165.186667" width="505.42" x="57.26" y="233.146667"/>
  </clipPath>
  <clipPath id="paf184d7a8e">
   <rect height="165.186667" width="505.42" x="57.26" y="440.853333"/>
  </clipPath>
 </defs>
</svg>
