<?xml version="1.0" encoding="utf-8" standalone="no"?>
<!DOCTYPE svg PUBLIC "-//W3C//DTD SVG 1.1//EN"
  "http://www.w3.org/Graphics/SVG/1.1/DTD/svg11.dtd">
<!-- Created with matplotlib (https://matplotlib.org/) -->
<svg height="648pt" version="1.1" viewBox="0 0 576 648" width="576pt" xmlns="http://www.w3.org/2000/svg" xmlns:xlink="http://www.w3.org/1999/xlink">
 <defs>
  <style type="text/css">
*{stroke-linecap:butt;stroke-linejoin:round;}
  </style>
 </defs>
 <g id="figure_1">
  <g id="patch_1">
   <path d="M 0 648 
L 576 648 
L 576 0 
L 0 0 
z
"/>
  </g>
  <g id="axes_1">
   <g id="patch_2">
    <path d="M 57.17 190.626667 
L 565.2 190.626667 
L 565.2 26.88 
L 57.17 26.88 
z
"/>
   </g>
   <g id="PolyCollection_1">
    <defs>
     <path d="M 408.732628 -563.427288 
L 408.732628 -563.427288 
L 418.511838 -563.555942 
L 428.291049 -563.645908 
L 438.07026 -564.535621 
L 447.849471 -565.364787 
L 457.628681 -563.427288 
L 457.628681 -613.67697 
L 457.628681 -613.67697 
L 447.849471 -599.042414 
L 438.07026 -589.781412 
L 428.291049 -581.159417 
L 418.511838 -572.252287 
L 408.732628 -563.427288 
z
" id="m0243929b5e" style="stroke:#f77189;stroke-opacity:0.1;"/>
    </defs>
    <g clip-path="url(#p1ca7471730)">
     <use style="fill:#f77189;fill-opacity:0.1;stroke:#f77189;stroke-opacity:0.1;" x="0" xlink:href="#m0243929b5e" y="648"/>
    </g>
   </g>
   <g id="PolyCollection_2">
    <defs>
     <path d="M 408.732628 -561.946406 
L 408.732628 -561.946406 
L 418.511838 -561.946406 
L 428.291049 -561.946406 
L 438.07026 -561.946406 
L 447.849471 -561.946406 
L 457.628681 -561.984972 
L 457.628681 -608.231873 
L 457.628681 -608.231873 
L 447.849471 -598.273754 
L 438.07026 -588.58407 
L 428.291049 -579.493613 
L 418.511838 -570.746775 
L 408.732628 -561.946406 
z
" id="me3c3ad7de4" style="stroke:#ae9d31;stroke-opacity:0.1;"/>
    </defs>
    <g clip-path="url(#p1ca7471730)">
     <use style="fill:#ae9d31;fill-opacity:0.1;stroke:#ae9d31;stroke-opacity:0.1;" x="0" xlink:href="#me3c3ad7de4" y="648"/>
    </g>
   </g>
   <g id="PolyCollection_3">
    <defs>
     <path d="M 408.732628 -529.261208 
L 408.732628 -529.261208 
L 418.511838 -529.261208 
L 428.291049 -529.782791 
L 438.07026 -529.900955 
L 447.849471 -530.058138 
L 457.628681 -529.261208 
L 457.628681 -560.824995 
L 457.628681 -560.824995 
L 447.849471 -552.858655 
L 438.07026 -546.540542 
L 428.291049 -540.516947 
L 418.511838 -535.301156 
L 408.732628 -529.261208 
z
" id="m5fb1e67d94" style="stroke:#33b07a;stroke-opacity:0.1;"/>
    </defs>
    <g clip-path="url(#p1ca7471730)">
     <use style="fill:#33b07a;fill-opacity:0.1;stroke:#33b07a;stroke-opacity:0.1;" x="0" xlink:href="#m5fb1e67d94" y="648"/>
    </g>
   </g>
   <g id="PolyCollection_4">
    <defs>
     <path d="M 408.732628 -505.937304 
L 408.732628 -505.937304 
L 418.511838 -505.937304 
L 428.291049 -507.029277 
L 438.07026 -508.043751 
L 447.849471 -510.165635 
L 457.628681 -509.820288 
L 457.628681 -521.582507 
L 457.628681 -521.582507 
L 447.849471 -517.197746 
L 438.07026 -515.344966 
L 428.291049 -512.287311 
L 418.511838 -510.570335 
L 408.732628 -505.937304 
z
" id="me1f036f3ea" style="stroke:#38a9c5;stroke-opacity:0.1;"/>
    </defs>
    <g clip-path="url(#p1ca7471730)">
     <use style="fill:#38a9c5;fill-opacity:0.1;stroke:#38a9c5;stroke-opacity:0.1;" x="0" xlink:href="#me1f036f3ea" y="648"/>
    </g>
   </g>
   <g id="PolyCollection_5">
    <defs>
     <path d="M 408.732628 -505.884416 
L 408.732628 -505.884416 
L 418.511838 -505.884416 
L 428.291049 -505.884416 
L 438.07026 -505.884416 
L 447.849471 -505.884416 
L 457.628681 -506.89362 
L 457.628681 -522.93998 
L 457.628681 -522.93998 
L 447.849471 -520.612028 
L 438.07026 -516.899339 
L 428.291049 -513.38659 
L 418.511838 -509.746285 
L 408.732628 -505.884416 
z
" id="m751c7488e0" style="stroke:#cc7af4;stroke-opacity:0.1;"/>
    </defs>
    <g clip-path="url(#p1ca7471730)">
     <use style="fill:#cc7af4;fill-opacity:0.1;stroke:#cc7af4;stroke-opacity:0.1;" x="0" xlink:href="#m751c7488e0" y="648"/>
    </g>
   </g>
   <g id="matplotlib.axis_1">
    <g id="xtick_1">
     <g id="line2d_1">
      <defs>
       <path d="M 0 0 
L 0 3.5 
" id="ma470df8402" style="stroke:#ffffff;stroke-width:0.8;"/>
      </defs>
      <g>
       <use style="fill:#ffffff;stroke:#ffffff;stroke-width:0.8;" x="76.239461" xlink:href="#ma470df8402" y="190.626667"/>
      </g>
     </g>
     <g id="text_1">
      <!-- 3/22 -->
      <defs>
       <path d="M 40.578125 39.3125 
Q 47.65625 37.796875 51.625 33 
Q 55.609375 28.21875 55.609375 21.1875 
Q 55.609375 10.40625 48.1875 4.484375 
Q 40.765625 -1.421875 27.09375 -1.421875 
Q 22.515625 -1.421875 17.65625 -0.515625 
Q 12.796875 0.390625 7.625 2.203125 
L 7.625 11.71875 
Q 11.71875 9.328125 16.59375 8.109375 
Q 21.484375 6.890625 26.8125 6.890625 
Q 36.078125 6.890625 40.9375 10.546875 
Q 45.796875 14.203125 45.796875 21.1875 
Q 45.796875 27.640625 41.28125 31.265625 
Q 36.765625 34.90625 28.71875 34.90625 
L 20.21875 34.90625 
L 20.21875 43.015625 
L 29.109375 43.015625 
Q 36.375 43.015625 40.234375 45.921875 
Q 44.09375 48.828125 44.09375 54.296875 
Q 44.09375 59.90625 40.109375 62.90625 
Q 36.140625 65.921875 28.71875 65.921875 
Q 24.65625 65.921875 20.015625 65.03125 
Q 15.375 64.15625 9.8125 62.3125 
L 9.8125 71.09375 
Q 15.4375 72.65625 20.34375 73.4375 
Q 25.25 74.21875 29.59375 74.21875 
Q 40.828125 74.21875 47.359375 69.109375 
Q 53.90625 64.015625 53.90625 55.328125 
Q 53.90625 49.265625 50.4375 45.09375 
Q 46.96875 40.921875 40.578125 39.3125 
z
" id="DejaVuSans-51"/>
       <path d="M 25.390625 72.90625 
L 33.6875 72.90625 
L 8.296875 -9.28125 
L 0 -9.28125 
z
" id="DejaVuSans-47"/>
       <path d="M 19.1875 8.296875 
L 53.609375 8.296875 
L 53.609375 0 
L 7.328125 0 
L 7.328125 8.296875 
Q 12.9375 14.109375 22.625 23.890625 
Q 32.328125 33.6875 34.8125 36.53125 
Q 39.546875 41.84375 41.421875 45.53125 
Q 43.3125 49.21875 43.3125 52.78125 
Q 43.3125 58.59375 39.234375 62.25 
Q 35.15625 65.921875 28.609375 65.921875 
Q 23.96875 65.921875 18.8125 64.3125 
Q 13.671875 62.703125 7.8125 59.421875 
L 7.8125 69.390625 
Q 13.765625 71.78125 18.9375 73 
Q 24.125 74.21875 28.421875 74.21875 
Q 39.75 74.21875 46.484375 68.546875 
Q 53.21875 62.890625 53.21875 53.421875 
Q 53.21875 48.921875 51.53125 44.890625 
Q 49.859375 40.875 45.40625 35.40625 
Q 44.1875 33.984375 37.640625 27.21875 
Q 31.109375 20.453125 19.1875 8.296875 
z
" id="DejaVuSans-50"/>
      </defs>
      <g style="fill:#ffffff;" transform="translate(65.011336 205.225104)scale(0.1 -0.1)">
       <use xlink:href="#DejaVuSans-51"/>
       <use x="63.623047" xlink:href="#DejaVuSans-47"/>
       <use x="97.314453" xlink:href="#DejaVuSans-50"/>
       <use x="160.9375" xlink:href="#DejaVuSans-50"/>
      </g>
     </g>
    </g>
    <g id="xtick_2">
     <g id="line2d_2">
      <g>
       <use style="fill:#ffffff;stroke:#ffffff;stroke-width:0.8;" x="408.732628" xlink:href="#ma470df8402" y="190.626667"/>
      </g>
     </g>
     <g id="text_2">
      <!-- 4/26 -->
      <defs>
       <path d="M 37.796875 64.3125 
L 12.890625 25.390625 
L 37.796875 25.390625 
z
M 35.203125 72.90625 
L 47.609375 72.90625 
L 47.609375 25.390625 
L 58.015625 25.390625 
L 58.015625 17.1875 
L 47.609375 17.1875 
L 47.609375 0 
L 37.796875 0 
L 37.796875 17.1875 
L 4.890625 17.1875 
L 4.890625 26.703125 
z
" id="DejaVuSans-52"/>
       <path d="M 33.015625 40.375 
Q 26.375 40.375 22.484375 35.828125 
Q 18.609375 31.296875 18.609375 23.390625 
Q 18.609375 15.53125 22.484375 10.953125 
Q 26.375 6.390625 33.015625 6.390625 
Q 39.65625 6.390625 43.53125 10.953125 
Q 47.40625 15.53125 47.40625 23.390625 
Q 47.40625 31.296875 43.53125 35.828125 
Q 39.65625 40.375 33.015625 40.375 
z
M 52.59375 71.296875 
L 52.59375 62.3125 
Q 48.875 64.0625 45.09375 64.984375 
Q 41.3125 65.921875 37.59375 65.921875 
Q 27.828125 65.921875 22.671875 59.328125 
Q 17.53125 52.734375 16.796875 39.40625 
Q 19.671875 43.65625 24.015625 45.921875 
Q 28.375 48.1875 33.59375 48.1875 
Q 44.578125 48.1875 50.953125 41.515625 
Q 57.328125 34.859375 57.328125 23.390625 
Q 57.328125 12.15625 50.6875 5.359375 
Q 44.046875 -1.421875 33.015625 -1.421875 
Q 20.359375 -1.421875 13.671875 8.265625 
Q 6.984375 17.96875 6.984375 36.375 
Q 6.984375 53.65625 15.1875 63.9375 
Q 23.390625 74.21875 37.203125 74.21875 
Q 40.921875 74.21875 44.703125 73.484375 
Q 48.484375 72.75 52.59375 71.296875 
z
" id="DejaVuSans-54"/>
      </defs>
      <g style="fill:#ffffff;" transform="translate(397.504503 205.225104)scale(0.1 -0.1)">
       <use xlink:href="#DejaVuSans-52"/>
       <use x="63.623047" xlink:href="#DejaVuSans-47"/>
       <use x="97.314453" xlink:href="#DejaVuSans-50"/>
       <use x="160.9375" xlink:href="#DejaVuSans-54"/>
      </g>
     </g>
    </g>
    <g id="xtick_3">
     <g id="line2d_3">
      <g>
       <use style="fill:#ffffff;stroke:#ffffff;stroke-width:0.8;" x="457.628681" xlink:href="#ma470df8402" y="190.626667"/>
      </g>
     </g>
     <g id="text_3">
      <!-- 5/1 -->
      <defs>
       <path d="M 10.796875 72.90625 
L 49.515625 72.90625 
L 49.515625 64.59375 
L 19.828125 64.59375 
L 19.828125 46.734375 
Q 21.96875 47.46875 24.109375 47.828125 
Q 26.265625 48.1875 28.421875 48.1875 
Q 40.625 48.1875 47.75 41.5 
Q 54.890625 34.8125 54.890625 23.390625 
Q 54.890625 11.625 47.5625 5.09375 
Q 40.234375 -1.421875 26.90625 -1.421875 
Q 22.3125 -1.421875 17.546875 -0.640625 
Q 12.796875 0.140625 7.71875 1.703125 
L 7.71875 11.625 
Q 12.109375 9.234375 16.796875 8.0625 
Q 21.484375 6.890625 26.703125 6.890625 
Q 35.15625 6.890625 40.078125 11.328125 
Q 45.015625 15.765625 45.015625 23.390625 
Q 45.015625 31 40.078125 35.4375 
Q 35.15625 39.890625 26.703125 39.890625 
Q 22.75 39.890625 18.8125 39.015625 
Q 14.890625 38.140625 10.796875 36.28125 
z
" id="DejaVuSans-53"/>
       <path d="M 12.40625 8.296875 
L 28.515625 8.296875 
L 28.515625 63.921875 
L 10.984375 60.40625 
L 10.984375 69.390625 
L 28.421875 72.90625 
L 38.28125 72.90625 
L 38.28125 8.296875 
L 54.390625 8.296875 
L 54.390625 0 
L 12.40625 0 
z
" id="DejaVuSans-49"/>
      </defs>
      <g style="fill:#ffffff;" transform="translate(449.581806 205.225104)scale(0.1 -0.1)">
       <use xlink:href="#DejaVuSans-53"/>
       <use x="63.623047" xlink:href="#DejaVuSans-47"/>
       <use x="97.314453" xlink:href="#DejaVuSans-49"/>
      </g>
     </g>
    </g>
   </g>
   <g id="matplotlib.axis_2">
    <g id="ytick_1">
     <g id="line2d_4">
      <defs>
       <path d="M 0 0 
L -3.5 0 
" id="m6789d57e45" style="stroke:#ffffff;stroke-width:0.8;"/>
      </defs>
      <g>
       <use style="fill:#ffffff;stroke:#ffffff;stroke-width:0.8;" x="57.17" xlink:href="#m6789d57e45" y="183.315858"/>
      </g>
     </g>
     <g id="text_4">
      <!-- 0 -->
      <defs>
       <path d="M 31.78125 66.40625 
Q 24.171875 66.40625 20.328125 58.90625 
Q 16.5 51.421875 16.5 36.375 
Q 16.5 21.390625 20.328125 13.890625 
Q 24.171875 6.390625 31.78125 6.390625 
Q 39.453125 6.390625 43.28125 13.890625 
Q 47.125 21.390625 47.125 36.375 
Q 47.125 51.421875 43.28125 58.90625 
Q 39.453125 66.40625 31.78125 66.40625 
z
M 31.78125 74.21875 
Q 44.046875 74.21875 50.515625 64.515625 
Q 56.984375 54.828125 56.984375 36.375 
Q 56.984375 17.96875 50.515625 8.265625 
Q 44.046875 -1.421875 31.78125 -1.421875 
Q 19.53125 -1.421875 13.0625 8.265625 
Q 6.59375 17.96875 6.59375 36.375 
Q 6.59375 54.828125 13.0625 64.515625 
Q 19.53125 74.21875 31.78125 74.21875 
z
" id="DejaVuSans-48"/>
      </defs>
      <g style="fill:#ffffff;" transform="translate(43.8075 187.115077)scale(0.1 -0.1)">
       <use xlink:href="#DejaVuSans-48"/>
      </g>
     </g>
    </g>
    <g id="ytick_2">
     <g id="line2d_5">
      <g>
       <use style="fill:#ffffff;stroke:#ffffff;stroke-width:0.8;" x="57.17" xlink:href="#m6789d57e45" y="156.871523"/>
      </g>
     </g>
     <g id="text_5">
      <!-- 1000 -->
      <g style="fill:#ffffff;" transform="translate(24.72 160.670742)scale(0.1 -0.1)">
       <use xlink:href="#DejaVuSans-49"/>
       <use x="63.623047" xlink:href="#DejaVuSans-48"/>
       <use x="127.246094" xlink:href="#DejaVuSans-48"/>
       <use x="190.869141" xlink:href="#DejaVuSans-48"/>
      </g>
     </g>
    </g>
    <g id="ytick_3">
     <g id="line2d_6">
      <g>
       <use style="fill:#ffffff;stroke:#ffffff;stroke-width:0.8;" x="57.17" xlink:href="#m6789d57e45" y="130.427188"/>
      </g>
     </g>
     <g id="text_6">
      <!-- 2000 -->
      <g style="fill:#ffffff;" transform="translate(24.72 134.226407)scale(0.1 -0.1)">
       <use xlink:href="#DejaVuSans-50"/>
       <use x="63.623047" xlink:href="#DejaVuSans-48"/>
       <use x="127.246094" xlink:href="#DejaVuSans-48"/>
       <use x="190.869141" xlink:href="#DejaVuSans-48"/>
      </g>
     </g>
    </g>
    <g id="ytick_4">
     <g id="line2d_7">
      <g>
       <use style="fill:#ffffff;stroke:#ffffff;stroke-width:0.8;" x="57.17" xlink:href="#m6789d57e45" y="103.982853"/>
      </g>
     </g>
     <g id="text_7">
      <!-- 3000 -->
      <g style="fill:#ffffff;" transform="translate(24.72 107.782072)scale(0.1 -0.1)">
       <use xlink:href="#DejaVuSans-51"/>
       <use x="63.623047" xlink:href="#DejaVuSans-48"/>
       <use x="127.246094" xlink:href="#DejaVuSans-48"/>
       <use x="190.869141" xlink:href="#DejaVuSans-48"/>
      </g>
     </g>
    </g>
    <g id="ytick_5">
     <g id="line2d_8">
      <g>
       <use style="fill:#ffffff;stroke:#ffffff;stroke-width:0.8;" x="57.17" xlink:href="#m6789d57e45" y="77.538518"/>
      </g>
     </g>
     <g id="text_8">
      <!-- 4000 -->
      <g style="fill:#ffffff;" transform="translate(24.72 81.337737)scale(0.1 -0.1)">
       <use xlink:href="#DejaVuSans-52"/>
       <use x="63.623047" xlink:href="#DejaVuSans-48"/>
       <use x="127.246094" xlink:href="#DejaVuSans-48"/>
       <use x="190.869141" xlink:href="#DejaVuSans-48"/>
      </g>
     </g>
    </g>
    <g id="ytick_6">
     <g id="line2d_9">
      <g>
       <use style="fill:#ffffff;stroke:#ffffff;stroke-width:0.8;" x="57.17" xlink:href="#m6789d57e45" y="51.094184"/>
      </g>
     </g>
     <g id="text_9">
      <!-- 5000 -->
      <g style="fill:#ffffff;" transform="translate(24.72 54.893402)scale(0.1 -0.1)">
       <use xlink:href="#DejaVuSans-53"/>
       <use x="63.623047" xlink:href="#DejaVuSans-48"/>
       <use x="127.246094" xlink:href="#DejaVuSans-48"/>
       <use x="190.869141" xlink:href="#DejaVuSans-48"/>
      </g>
     </g>
    </g>
    <g id="text_10">
     <!-- Cumulative deaths -->
     <defs>
      <path d="M 64.40625 67.28125 
L 64.40625 56.890625 
Q 59.421875 61.53125 53.78125 63.8125 
Q 48.140625 66.109375 41.796875 66.109375 
Q 29.296875 66.109375 22.65625 58.46875 
Q 16.015625 50.828125 16.015625 36.375 
Q 16.015625 21.96875 22.65625 14.328125 
Q 29.296875 6.6875 41.796875 6.6875 
Q 48.140625 6.6875 53.78125 8.984375 
Q 59.421875 11.28125 64.40625 15.921875 
L 64.40625 5.609375 
Q 59.234375 2.09375 53.4375 0.328125 
Q 47.65625 -1.421875 41.21875 -1.421875 
Q 24.65625 -1.421875 15.125 8.703125 
Q 5.609375 18.84375 5.609375 36.375 
Q 5.609375 53.953125 15.125 64.078125 
Q 24.65625 74.21875 41.21875 74.21875 
Q 47.75 74.21875 53.53125 72.484375 
Q 59.328125 70.75 64.40625 67.28125 
z
" id="DejaVuSans-67"/>
      <path d="M 8.5 21.578125 
L 8.5 54.6875 
L 17.484375 54.6875 
L 17.484375 21.921875 
Q 17.484375 14.15625 20.5 10.265625 
Q 23.53125 6.390625 29.59375 6.390625 
Q 36.859375 6.390625 41.078125 11.03125 
Q 45.3125 15.671875 45.3125 23.6875 
L 45.3125 54.6875 
L 54.296875 54.6875 
L 54.296875 0 
L 45.3125 0 
L 45.3125 8.40625 
Q 42.046875 3.421875 37.71875 1 
Q 33.40625 -1.421875 27.6875 -1.421875 
Q 18.265625 -1.421875 13.375 4.4375 
Q 8.5 10.296875 8.5 21.578125 
z
M 31.109375 56 
z
" id="DejaVuSans-117"/>
      <path d="M 52 44.1875 
Q 55.375 50.25 60.0625 53.125 
Q 64.75 56 71.09375 56 
Q 79.640625 56 84.28125 50.015625 
Q 88.921875 44.046875 88.921875 33.015625 
L 88.921875 0 
L 79.890625 0 
L 79.890625 32.71875 
Q 79.890625 40.578125 77.09375 44.375 
Q 74.3125 48.1875 68.609375 48.1875 
Q 61.625 48.1875 57.5625 43.546875 
Q 53.515625 38.921875 53.515625 30.90625 
L 53.515625 0 
L 44.484375 0 
L 44.484375 32.71875 
Q 44.484375 40.625 41.703125 44.40625 
Q 38.921875 48.1875 33.109375 48.1875 
Q 26.21875 48.1875 22.15625 43.53125 
Q 18.109375 38.875 18.109375 30.90625 
L 18.109375 0 
L 9.078125 0 
L 9.078125 54.6875 
L 18.109375 54.6875 
L 18.109375 46.1875 
Q 21.1875 51.21875 25.484375 53.609375 
Q 29.78125 56 35.6875 56 
Q 41.65625 56 45.828125 52.96875 
Q 50 49.953125 52 44.1875 
z
" id="DejaVuSans-109"/>
      <path d="M 9.421875 75.984375 
L 18.40625 75.984375 
L 18.40625 0 
L 9.421875 0 
z
" id="DejaVuSans-108"/>
      <path d="M 34.28125 27.484375 
Q 23.390625 27.484375 19.1875 25 
Q 14.984375 22.515625 14.984375 16.5 
Q 14.984375 11.71875 18.140625 8.90625 
Q 21.296875 6.109375 26.703125 6.109375 
Q 34.1875 6.109375 38.703125 11.40625 
Q 43.21875 16.703125 43.21875 25.484375 
L 43.21875 27.484375 
z
M 52.203125 31.203125 
L 52.203125 0 
L 43.21875 0 
L 43.21875 8.296875 
Q 40.140625 3.328125 35.546875 0.953125 
Q 30.953125 -1.421875 24.3125 -1.421875 
Q 15.921875 -1.421875 10.953125 3.296875 
Q 6 8.015625 6 15.921875 
Q 6 25.140625 12.171875 29.828125 
Q 18.359375 34.515625 30.609375 34.515625 
L 43.21875 34.515625 
L 43.21875 35.40625 
Q 43.21875 41.609375 39.140625 45 
Q 35.0625 48.390625 27.6875 48.390625 
Q 23 48.390625 18.546875 47.265625 
Q 14.109375 46.140625 10.015625 43.890625 
L 10.015625 52.203125 
Q 14.9375 54.109375 19.578125 55.046875 
Q 24.21875 56 28.609375 56 
Q 40.484375 56 46.34375 49.84375 
Q 52.203125 43.703125 52.203125 31.203125 
z
" id="DejaVuSans-97"/>
      <path d="M 18.3125 70.21875 
L 18.3125 54.6875 
L 36.8125 54.6875 
L 36.8125 47.703125 
L 18.3125 47.703125 
L 18.3125 18.015625 
Q 18.3125 11.328125 20.140625 9.421875 
Q 21.96875 7.515625 27.59375 7.515625 
L 36.8125 7.515625 
L 36.8125 0 
L 27.59375 0 
Q 17.1875 0 13.234375 3.875 
Q 9.28125 7.765625 9.28125 18.015625 
L 9.28125 47.703125 
L 2.6875 47.703125 
L 2.6875 54.6875 
L 9.28125 54.6875 
L 9.28125 70.21875 
z
" id="DejaVuSans-116"/>
      <path d="M 9.421875 54.6875 
L 18.40625 54.6875 
L 18.40625 0 
L 9.421875 0 
z
M 9.421875 75.984375 
L 18.40625 75.984375 
L 18.40625 64.59375 
L 9.421875 64.59375 
z
" id="DejaVuSans-105"/>
      <path d="M 2.984375 54.6875 
L 12.5 54.6875 
L 29.59375 8.796875 
L 46.6875 54.6875 
L 56.203125 54.6875 
L 35.6875 0 
L 23.484375 0 
z
" id="DejaVuSans-118"/>
      <path d="M 56.203125 29.59375 
L 56.203125 25.203125 
L 14.890625 25.203125 
Q 15.484375 15.921875 20.484375 11.0625 
Q 25.484375 6.203125 34.421875 6.203125 
Q 39.59375 6.203125 44.453125 7.46875 
Q 49.3125 8.734375 54.109375 11.28125 
L 54.109375 2.78125 
Q 49.265625 0.734375 44.1875 -0.34375 
Q 39.109375 -1.421875 33.890625 -1.421875 
Q 20.796875 -1.421875 13.15625 6.1875 
Q 5.515625 13.8125 5.515625 26.8125 
Q 5.515625 40.234375 12.765625 48.109375 
Q 20.015625 56 32.328125 56 
Q 43.359375 56 49.78125 48.890625 
Q 56.203125 41.796875 56.203125 29.59375 
z
M 47.21875 32.234375 
Q 47.125 39.59375 43.09375 43.984375 
Q 39.0625 48.390625 32.421875 48.390625 
Q 24.90625 48.390625 20.390625 44.140625 
Q 15.875 39.890625 15.1875 32.171875 
z
" id="DejaVuSans-101"/>
      <path id="DejaVuSans-32"/>
      <path d="M 45.40625 46.390625 
L 45.40625 75.984375 
L 54.390625 75.984375 
L 54.390625 0 
L 45.40625 0 
L 45.40625 8.203125 
Q 42.578125 3.328125 38.25 0.953125 
Q 33.9375 -1.421875 27.875 -1.421875 
Q 17.96875 -1.421875 11.734375 6.484375 
Q 5.515625 14.40625 5.515625 27.296875 
Q 5.515625 40.1875 11.734375 48.09375 
Q 17.96875 56 27.875 56 
Q 33.9375 56 38.25 53.625 
Q 42.578125 51.265625 45.40625 46.390625 
z
M 14.796875 27.296875 
Q 14.796875 17.390625 18.875 11.75 
Q 22.953125 6.109375 30.078125 6.109375 
Q 37.203125 6.109375 41.296875 11.75 
Q 45.40625 17.390625 45.40625 27.296875 
Q 45.40625 37.203125 41.296875 42.84375 
Q 37.203125 48.484375 30.078125 48.484375 
Q 22.953125 48.484375 18.875 42.84375 
Q 14.796875 37.203125 14.796875 27.296875 
z
" id="DejaVuSans-100"/>
      <path d="M 54.890625 33.015625 
L 54.890625 0 
L 45.90625 0 
L 45.90625 32.71875 
Q 45.90625 40.484375 42.875 44.328125 
Q 39.84375 48.1875 33.796875 48.1875 
Q 26.515625 48.1875 22.3125 43.546875 
Q 18.109375 38.921875 18.109375 30.90625 
L 18.109375 0 
L 9.078125 0 
L 9.078125 75.984375 
L 18.109375 75.984375 
L 18.109375 46.1875 
Q 21.34375 51.125 25.703125 53.5625 
Q 30.078125 56 35.796875 56 
Q 45.21875 56 50.046875 50.171875 
Q 54.890625 44.34375 54.890625 33.015625 
z
" id="DejaVuSans-104"/>
      <path d="M 44.28125 53.078125 
L 44.28125 44.578125 
Q 40.484375 46.53125 36.375 47.5 
Q 32.28125 48.484375 27.875 48.484375 
Q 21.1875 48.484375 17.84375 46.4375 
Q 14.5 44.390625 14.5 40.28125 
Q 14.5 37.15625 16.890625 35.375 
Q 19.28125 33.59375 26.515625 31.984375 
L 29.59375 31.296875 
Q 39.15625 29.25 43.1875 25.515625 
Q 47.21875 21.78125 47.21875 15.09375 
Q 47.21875 7.46875 41.1875 3.015625 
Q 35.15625 -1.421875 24.609375 -1.421875 
Q 20.21875 -1.421875 15.453125 -0.5625 
Q 10.6875 0.296875 5.421875 2 
L 5.421875 11.28125 
Q 10.40625 8.6875 15.234375 7.390625 
Q 20.0625 6.109375 24.8125 6.109375 
Q 31.15625 6.109375 34.5625 8.28125 
Q 37.984375 10.453125 37.984375 14.40625 
Q 37.984375 18.0625 35.515625 20.015625 
Q 33.0625 21.96875 24.703125 23.78125 
L 21.578125 24.515625 
Q 13.234375 26.265625 9.515625 29.90625 
Q 5.8125 33.546875 5.8125 39.890625 
Q 5.8125 47.609375 11.28125 51.796875 
Q 16.75 56 26.8125 56 
Q 31.78125 56 36.171875 55.265625 
Q 40.578125 54.546875 44.28125 53.078125 
z
" id="DejaVuSans-115"/>
     </defs>
     <g style="fill:#ffffff;" transform="translate(18.640313 155.928333)rotate(-90)scale(0.1 -0.1)">
      <use xlink:href="#DejaVuSans-67"/>
      <use x="69.824219" xlink:href="#DejaVuSans-117"/>
      <use x="133.203125" xlink:href="#DejaVuSans-109"/>
      <use x="230.615234" xlink:href="#DejaVuSans-117"/>
      <use x="293.994141" xlink:href="#DejaVuSans-108"/>
      <use x="321.777344" xlink:href="#DejaVuSans-97"/>
      <use x="383.056641" xlink:href="#DejaVuSans-116"/>
      <use x="422.265625" xlink:href="#DejaVuSans-105"/>
      <use x="450.048828" xlink:href="#DejaVuSans-118"/>
      <use x="509.228516" xlink:href="#DejaVuSans-101"/>
      <use x="570.751953" xlink:href="#DejaVuSans-32"/>
      <use x="602.539062" xlink:href="#DejaVuSans-100"/>
      <use x="666.015625" xlink:href="#DejaVuSans-101"/>
      <use x="727.539062" xlink:href="#DejaVuSans-97"/>
      <use x="788.818359" xlink:href="#DejaVuSans-116"/>
      <use x="828.027344" xlink:href="#DejaVuSans-104"/>
      <use x="891.40625" xlink:href="#DejaVuSans-115"/>
     </g>
    </g>
   </g>
   <g id="line2d_10">
    <path clip-path="url(#p1ca7471730)" d="M 76.239461 182.945637 
L 86.018672 182.601861 
L 95.797883 182.125863 
L 105.577093 181.623421 
L 115.356304 181.173867 
L 125.135515 180.618536 
L 134.914726 178.899654 
L 144.693936 178.423656 
L 154.473147 177.630326 
L 164.252358 176.413887 
L 174.031569 174.642116 
L 183.81078 173.134789 
L 193.58999 170.490356 
L 203.369201 167.184814 
L 213.148412 159.621734 
L 222.927623 156.289748 
L 232.706833 152.82554 
L 242.486044 148.594446 
L 252.265255 144.363353 
L 262.044466 139.947149 
L 271.823677 134.578949 
L 281.602887 129.686747 
L 291.382098 126.936536 
L 301.161309 117.257909 
L 310.94052 112.656595 
L 320.719731 108.980833 
L 330.498941 108.980833 
L 340.278152 108.980833 
L 350.057363 99.698871 
L 359.836574 97.080882 
L 369.615784 94.462893 
L 379.394995 91.871348 
L 389.174206 89.702913 
L 398.953417 87.084923 
L 408.732628 84.572712 
" style="fill:none;stroke:#f77189;stroke-linecap:square;stroke-width:1.5;"/>
   </g>
   <g id="line2d_11">
    <path clip-path="url(#p1ca7471730)" d="M 408.732628 84.572712 
L 418.511838 79.86455 
L 428.291049 74.943331 
L 438.07026 69.925306 
L 447.849471 64.648395 
L 457.628681 59.304413 
" style="fill:none;stroke:#f77189;stroke-dasharray:1.5,2.475;stroke-dashoffset:0;stroke-width:1.5;"/>
   </g>
   <g id="line2d_12">
    <path clip-path="url(#p1ca7471730)" d="M 76.239461 182.760527 
L 86.018672 182.258085 
L 95.797883 181.729198 
L 105.577093 180.882979 
L 115.356304 180.036761 
L 125.135515 179.375652 
L 134.914726 177.603882 
L 144.693936 176.625441 
L 154.473147 175.250336 
L 164.252358 173.372788 
L 174.031569 171.49524 
L 183.81078 170.120135 
L 193.58999 167.7137 
L 203.369201 165.201489 
L 213.148412 161.816614 
L 222.927623 158.246629 
L 232.706833 153.460204 
L 242.486044 147.774672 
L 252.265255 146.293789 
L 262.044466 136.800273 
L 271.823677 134.446727 
L 281.602887 127.359645 
L 291.382098 127.359645 
L 301.161309 119.294123 
L 310.94052 114.45481 
L 320.719731 110.48816 
L 330.498941 110.48816 
L 340.278152 110.48816 
L 350.057363 100.968199 
L 359.836574 98.138655 
L 369.615784 95.282667 
L 379.394995 92.558901 
L 389.174206 90.231799 
L 398.953417 88.089808 
L 408.732628 86.053594 
" style="fill:none;stroke:#ae9d31;stroke-linecap:square;stroke-width:1.5;"/>
   </g>
   <g id="line2d_13">
    <path clip-path="url(#p1ca7471730)" d="M 408.732628 86.053594 
L 418.511838 81.270024 
L 428.291049 76.395764 
L 438.07026 71.298291 
L 447.849471 66.369115 
L 457.628681 61.326198 
" style="fill:none;stroke:#ae9d31;stroke-dasharray:1.5,2.475;stroke-dashoffset:0;stroke-width:1.5;"/>
   </g>
   <g id="line2d_14">
    <path clip-path="url(#p1ca7471730)" d="M 76.239461 182.945637 
L 86.018672 182.575417 
L 95.797883 182.152307 
L 105.577093 181.729198 
L 115.356304 181.226756 
L 125.135515 180.64498 
L 134.914726 179.296319 
L 144.693936 178.344323 
L 154.473147 177.630326 
L 164.252358 176.387442 
L 174.031569 173.795897 
L 183.81078 172.182793 
L 193.58999 170.622577 
L 203.369201 168.083921 
L 213.148412 166.73526 
L 222.927623 164.566825 
L 232.706833 159.463068 
L 242.486044 156.845079 
L 252.265255 155.655084 
L 262.044466 150.498438 
L 271.823677 148.726668 
L 281.602887 146.293789 
L 291.382098 145.394682 
L 301.161309 139.524039 
L 310.94052 136.482941 
L 320.719731 134.52606 
L 330.498941 134.52606 
L 340.278152 134.52606 
L 350.057363 128.285197 
L 359.836574 126.724981 
L 369.615784 125.217654 
L 379.394995 123.60455 
L 389.174206 121.568336 
L 398.953417 120.166786 
L 408.732628 118.738792 
" style="fill:none;stroke:#33b07a;stroke-linecap:square;stroke-width:1.5;"/>
   </g>
   <g id="line2d_15">
    <path clip-path="url(#p1ca7471730)" d="M 408.732628 118.738792 
L 418.511838 115.454111 
L 428.291049 112.130925 
L 438.07026 108.539126 
L 447.849471 105.338962 
L 457.628681 101.959414 
" style="fill:none;stroke:#33b07a;stroke-dasharray:1.5,2.475;stroke-dashoffset:0;stroke-width:1.5;"/>
   </g>
   <g id="line2d_16">
    <path clip-path="url(#p1ca7471730)" d="M 76.239461 183.183636 
L 86.018672 183.104303 
L 95.797883 182.972082 
L 105.577093 182.760527 
L 115.356304 182.628305 
L 125.135515 182.337418 
L 134.914726 182.099419 
L 144.693936 181.834975 
L 154.473147 181.120978 
L 164.252358 180.142538 
L 174.031569 179.454985 
L 183.81078 178.185657 
L 193.58999 177.418771 
L 203.369201 176.651886 
L 213.148412 175.567668 
L 222.927623 174.166118 
L 232.706833 172.685235 
L 242.486044 171.521685 
L 252.265255 169.987913 
L 262.044466 167.211258 
L 271.823677 166.074152 
L 281.602887 164.699046 
L 291.382098 164.699046 
L 301.161309 161.631503 
L 310.94052 159.939066 
L 320.719731 157.373966 
L 330.498941 155.707972 
L 340.278152 155.02042 
L 350.057363 153.724647 
L 359.836574 152.957762 
L 369.615784 149.519998 
L 379.394995 148.43578 
L 389.174206 146.399567 
L 398.953417 145.156683 
L 408.732628 142.062696 
" style="fill:none;stroke:#38a9c5;stroke-linecap:square;stroke-width:1.5;"/>
   </g>
   <g id="line2d_17">
    <path clip-path="url(#p1ca7471730)" d="M 408.732628 142.062696 
L 418.511838 140.37487 
L 428.291049 138.464667 
L 438.07026 136.634198 
L 447.849471 134.495801 
L 457.628681 132.338705 
" style="fill:none;stroke:#38a9c5;stroke-dasharray:1.5,2.475;stroke-dashoffset:0;stroke-width:1.5;"/>
   </g>
   <g id="line2d_18">
    <path clip-path="url(#p1ca7471730)" d="M 76.239461 183.130748 
L 86.018672 183.130748 
L 95.797883 183.130748 
L 105.577093 182.866304 
L 115.356304 182.813416 
L 125.135515 182.601861 
L 134.914726 182.390306 
L 144.693936 182.390306 
L 154.473147 182.04653 
L 164.252358 181.649865 
L 174.031569 181.306089 
L 183.81078 180.803646 
L 193.58999 179.534318 
L 203.369201 179.375652 
L 213.148412 173.240566 
L 222.927623 171.865461 
L 232.706833 170.093691 
L 242.486044 168.348364 
L 252.265255 162.477722 
L 262.044466 159.7804 
L 271.823677 157.797075 
L 281.602887 156.078193 
L 291.382098 155.364196 
L 301.161309 155.364196 
L 310.94052 155.364196 
L 320.719731 153.989091 
L 330.498941 153.989091 
L 340.278152 153.989091 
L 350.057363 149.440665 
L 359.836574 148.171337 
L 369.615784 146.558233 
L 379.394995 145.474015 
L 389.174206 144.416241 
L 398.953417 143.173358 
L 408.732628 142.115584 
" style="fill:none;stroke:#cc7af4;stroke-linecap:square;stroke-width:1.5;"/>
   </g>
   <g id="line2d_19">
    <path clip-path="url(#p1ca7471730)" d="M 408.732628 142.115584 
L 418.511838 139.916532 
L 428.291049 137.732248 
L 438.07026 135.516597 
L 447.849471 133.605004 
L 457.628681 131.786716 
" style="fill:none;stroke:#cc7af4;stroke-dasharray:1.5,2.475;stroke-dashoffset:0;stroke-width:1.5;"/>
   </g>
   <g id="patch_3">
    <path d="M 57.17 190.626667 
L 57.17 26.88 
" style="fill:none;stroke:#ffffff;stroke-linecap:square;stroke-linejoin:miter;stroke-width:0.8;"/>
   </g>
   <g id="patch_4">
    <path d="M 565.2 190.626667 
L 565.2 26.88 
" style="fill:none;stroke:#ffffff;stroke-linecap:square;stroke-linejoin:miter;stroke-width:0.8;"/>
   </g>
   <g id="patch_5">
    <path d="M 57.17 190.626667 
L 565.2 190.626667 
" style="fill:none;stroke:#ffffff;stroke-linecap:square;stroke-linejoin:miter;stroke-width:0.8;"/>
   </g>
   <g id="patch_6">
    <path d="M 57.17 26.88 
L 565.2 26.88 
" style="fill:none;stroke:#ffffff;stroke-linecap:square;stroke-linejoin:miter;stroke-width:0.8;"/>
   </g>
   <g id="text_11">
    <!-- Kings, NY -->
    <defs>
     <path d="M 9.8125 72.90625 
L 19.671875 72.90625 
L 19.671875 42.09375 
L 52.390625 72.90625 
L 65.09375 72.90625 
L 28.90625 38.921875 
L 67.671875 0 
L 54.6875 0 
L 19.671875 35.109375 
L 19.671875 0 
L 9.8125 0 
z
" id="DejaVuSans-75"/>
     <path d="M 54.890625 33.015625 
L 54.890625 0 
L 45.90625 0 
L 45.90625 32.71875 
Q 45.90625 40.484375 42.875 44.328125 
Q 39.84375 48.1875 33.796875 48.1875 
Q 26.515625 48.1875 22.3125 43.546875 
Q 18.109375 38.921875 18.109375 30.90625 
L 18.109375 0 
L 9.078125 0 
L 9.078125 54.6875 
L 18.109375 54.6875 
L 18.109375 46.1875 
Q 21.34375 51.125 25.703125 53.5625 
Q 30.078125 56 35.796875 56 
Q 45.21875 56 50.046875 50.171875 
Q 54.890625 44.34375 54.890625 33.015625 
z
" id="DejaVuSans-110"/>
     <path d="M 45.40625 27.984375 
Q 45.40625 37.75 41.375 43.109375 
Q 37.359375 48.484375 30.078125 48.484375 
Q 22.859375 48.484375 18.828125 43.109375 
Q 14.796875 37.75 14.796875 27.984375 
Q 14.796875 18.265625 18.828125 12.890625 
Q 22.859375 7.515625 30.078125 7.515625 
Q 37.359375 7.515625 41.375 12.890625 
Q 45.40625 18.265625 45.40625 27.984375 
z
M 54.390625 6.78125 
Q 54.390625 -7.171875 48.1875 -13.984375 
Q 42 -20.796875 29.203125 -20.796875 
Q 24.46875 -20.796875 20.265625 -20.09375 
Q 16.0625 -19.390625 12.109375 -17.921875 
L 12.109375 -9.1875 
Q 16.0625 -11.328125 19.921875 -12.34375 
Q 23.78125 -13.375 27.78125 -13.375 
Q 36.625 -13.375 41.015625 -8.765625 
Q 45.40625 -4.15625 45.40625 5.171875 
L 45.40625 9.625 
Q 42.625 4.78125 38.28125 2.390625 
Q 33.9375 0 27.875 0 
Q 17.828125 0 11.671875 7.65625 
Q 5.515625 15.328125 5.515625 27.984375 
Q 5.515625 40.671875 11.671875 48.328125 
Q 17.828125 56 27.875 56 
Q 33.9375 56 38.28125 53.609375 
Q 42.625 51.21875 45.40625 46.390625 
L 45.40625 54.6875 
L 54.390625 54.6875 
z
" id="DejaVuSans-103"/>
     <path d="M 11.71875 12.40625 
L 22.015625 12.40625 
L 22.015625 4 
L 14.015625 -11.625 
L 7.71875 -11.625 
L 11.71875 4 
z
" id="DejaVuSans-44"/>
     <path d="M 9.8125 72.90625 
L 23.09375 72.90625 
L 55.421875 11.921875 
L 55.421875 72.90625 
L 64.984375 72.90625 
L 64.984375 0 
L 51.703125 0 
L 19.390625 60.984375 
L 19.390625 0 
L 9.8125 0 
z
" id="DejaVuSans-78"/>
     <path d="M -0.203125 72.90625 
L 10.40625 72.90625 
L 30.609375 42.921875 
L 50.6875 72.90625 
L 61.28125 72.90625 
L 35.5 34.71875 
L 35.5 0 
L 25.59375 0 
L 25.59375 34.71875 
z
" id="DejaVuSans-89"/>
    </defs>
    <g style="fill:#f77189;" transform="translate(467.407892 56.887499)scale(0.08 -0.08)">
     <use xlink:href="#DejaVuSans-75"/>
     <use x="65.576172" xlink:href="#DejaVuSans-105"/>
     <use x="93.359375" xlink:href="#DejaVuSans-110"/>
     <use x="156.738281" xlink:href="#DejaVuSans-103"/>
     <use x="220.214844" xlink:href="#DejaVuSans-115"/>
     <use x="272.314453" xlink:href="#DejaVuSans-44"/>
     <use x="304.101562" xlink:href="#DejaVuSans-32"/>
     <use x="335.888672" xlink:href="#DejaVuSans-78"/>
     <use x="410.693359" xlink:href="#DejaVuSans-89"/>
    </g>
   </g>
   <g id="text_12">
    <!-- Queens, NY -->
    <defs>
     <path d="M 39.40625 66.21875 
Q 28.65625 66.21875 22.328125 58.203125 
Q 16.015625 50.203125 16.015625 36.375 
Q 16.015625 22.609375 22.328125 14.59375 
Q 28.65625 6.59375 39.40625 6.59375 
Q 50.140625 6.59375 56.421875 14.59375 
Q 62.703125 22.609375 62.703125 36.375 
Q 62.703125 50.203125 56.421875 58.203125 
Q 50.140625 66.21875 39.40625 66.21875 
z
M 53.21875 1.3125 
L 66.21875 -12.890625 
L 54.296875 -12.890625 
L 43.5 -1.21875 
Q 41.890625 -1.3125 41.03125 -1.359375 
Q 40.1875 -1.421875 39.40625 -1.421875 
Q 24.03125 -1.421875 14.8125 8.859375 
Q 5.609375 19.140625 5.609375 36.375 
Q 5.609375 53.65625 14.8125 63.9375 
Q 24.03125 74.21875 39.40625 74.21875 
Q 54.734375 74.21875 63.90625 63.9375 
Q 73.09375 53.65625 73.09375 36.375 
Q 73.09375 23.6875 67.984375 14.640625 
Q 62.890625 5.609375 53.21875 1.3125 
z
" id="DejaVuSans-81"/>
    </defs>
    <g style="fill:#ae9d31;" transform="translate(467.407892 68.158112)scale(0.08 -0.08)">
     <use xlink:href="#DejaVuSans-81"/>
     <use x="78.710938" xlink:href="#DejaVuSans-117"/>
     <use x="142.089844" xlink:href="#DejaVuSans-101"/>
     <use x="203.613281" xlink:href="#DejaVuSans-101"/>
     <use x="265.136719" xlink:href="#DejaVuSans-110"/>
     <use x="328.515625" xlink:href="#DejaVuSans-115"/>
     <use x="380.615234" xlink:href="#DejaVuSans-44"/>
     <use x="412.402344" xlink:href="#DejaVuSans-32"/>
     <use x="444.189453" xlink:href="#DejaVuSans-78"/>
     <use x="518.994141" xlink:href="#DejaVuSans-89"/>
    </g>
   </g>
   <g id="text_13">
    <!-- Bronx, NY -->
    <defs>
     <path d="M 19.671875 34.8125 
L 19.671875 8.109375 
L 35.5 8.109375 
Q 43.453125 8.109375 47.28125 11.40625 
Q 51.125 14.703125 51.125 21.484375 
Q 51.125 28.328125 47.28125 31.5625 
Q 43.453125 34.8125 35.5 34.8125 
z
M 19.671875 64.796875 
L 19.671875 42.828125 
L 34.28125 42.828125 
Q 41.5 42.828125 45.03125 45.53125 
Q 48.578125 48.25 48.578125 53.8125 
Q 48.578125 59.328125 45.03125 62.0625 
Q 41.5 64.796875 34.28125 64.796875 
z
M 9.8125 72.90625 
L 35.015625 72.90625 
Q 46.296875 72.90625 52.390625 68.21875 
Q 58.5 63.53125 58.5 54.890625 
Q 58.5 48.1875 55.375 44.234375 
Q 52.25 40.28125 46.1875 39.3125 
Q 53.46875 37.75 57.5 32.78125 
Q 61.53125 27.828125 61.53125 20.40625 
Q 61.53125 10.640625 54.890625 5.3125 
Q 48.25 0 35.984375 0 
L 9.8125 0 
z
" id="DejaVuSans-66"/>
     <path d="M 41.109375 46.296875 
Q 39.59375 47.171875 37.8125 47.578125 
Q 36.03125 48 33.890625 48 
Q 26.265625 48 22.1875 43.046875 
Q 18.109375 38.09375 18.109375 28.8125 
L 18.109375 0 
L 9.078125 0 
L 9.078125 54.6875 
L 18.109375 54.6875 
L 18.109375 46.1875 
Q 20.953125 51.171875 25.484375 53.578125 
Q 30.03125 56 36.53125 56 
Q 37.453125 56 38.578125 55.875 
Q 39.703125 55.765625 41.0625 55.515625 
z
" id="DejaVuSans-114"/>
     <path d="M 30.609375 48.390625 
Q 23.390625 48.390625 19.1875 42.75 
Q 14.984375 37.109375 14.984375 27.296875 
Q 14.984375 17.484375 19.15625 11.84375 
Q 23.34375 6.203125 30.609375 6.203125 
Q 37.796875 6.203125 41.984375 11.859375 
Q 46.1875 17.53125 46.1875 27.296875 
Q 46.1875 37.015625 41.984375 42.703125 
Q 37.796875 48.390625 30.609375 48.390625 
z
M 30.609375 56 
Q 42.328125 56 49.015625 48.375 
Q 55.71875 40.765625 55.71875 27.296875 
Q 55.71875 13.875 49.015625 6.21875 
Q 42.328125 -1.421875 30.609375 -1.421875 
Q 18.84375 -1.421875 12.171875 6.21875 
Q 5.515625 13.875 5.515625 27.296875 
Q 5.515625 40.765625 12.171875 48.375 
Q 18.84375 56 30.609375 56 
z
" id="DejaVuSans-111"/>
     <path d="M 54.890625 54.6875 
L 35.109375 28.078125 
L 55.90625 0 
L 45.3125 0 
L 29.390625 21.484375 
L 13.484375 0 
L 2.875 0 
L 24.125 28.609375 
L 4.6875 54.6875 
L 15.28125 54.6875 
L 29.78125 35.203125 
L 44.28125 54.6875 
z
" id="DejaVuSans-120"/>
    </defs>
    <g style="fill:#33b07a;" transform="translate(467.407892 99.5425)scale(0.08 -0.08)">
     <use xlink:href="#DejaVuSans-66"/>
     <use x="68.603516" xlink:href="#DejaVuSans-114"/>
     <use x="107.466797" xlink:href="#DejaVuSans-111"/>
     <use x="168.648438" xlink:href="#DejaVuSans-110"/>
     <use x="232.027344" xlink:href="#DejaVuSans-120"/>
     <use x="291.207031" xlink:href="#DejaVuSans-44"/>
     <use x="322.994141" xlink:href="#DejaVuSans-32"/>
     <use x="354.78125" xlink:href="#DejaVuSans-78"/>
     <use x="429.585938" xlink:href="#DejaVuSans-89"/>
    </g>
   </g>
   <g id="text_14">
    <!-- Wayne, MI -->
    <defs>
     <path d="M 3.328125 72.90625 
L 13.28125 72.90625 
L 28.609375 11.28125 
L 43.890625 72.90625 
L 54.984375 72.90625 
L 70.3125 11.28125 
L 85.59375 72.90625 
L 95.609375 72.90625 
L 77.296875 0 
L 64.890625 0 
L 49.515625 63.28125 
L 33.984375 0 
L 21.578125 0 
z
" id="DejaVuSans-87"/>
     <path d="M 32.171875 -5.078125 
Q 28.375 -14.84375 24.75 -17.8125 
Q 21.140625 -20.796875 15.09375 -20.796875 
L 7.90625 -20.796875 
L 7.90625 -13.28125 
L 13.1875 -13.28125 
Q 16.890625 -13.28125 18.9375 -11.515625 
Q 21 -9.765625 23.484375 -3.21875 
L 25.09375 0.875 
L 2.984375 54.6875 
L 12.5 54.6875 
L 29.59375 11.921875 
L 46.6875 54.6875 
L 56.203125 54.6875 
z
" id="DejaVuSans-121"/>
     <path d="M 9.8125 72.90625 
L 24.515625 72.90625 
L 43.109375 23.296875 
L 61.8125 72.90625 
L 76.515625 72.90625 
L 76.515625 0 
L 66.890625 0 
L 66.890625 64.015625 
L 48.09375 14.015625 
L 38.1875 14.015625 
L 19.390625 64.015625 
L 19.390625 0 
L 9.8125 0 
z
" id="DejaVuSans-77"/>
     <path d="M 9.8125 72.90625 
L 19.671875 72.90625 
L 19.671875 0 
L 9.8125 0 
z
" id="DejaVuSans-73"/>
    </defs>
    <g style="fill:#38a9c5;" transform="translate(467.407892 139.219292)scale(0.08 -0.08)">
     <use xlink:href="#DejaVuSans-87"/>
     <use x="92.501953" xlink:href="#DejaVuSans-97"/>
     <use x="153.78125" xlink:href="#DejaVuSans-121"/>
     <use x="212.960938" xlink:href="#DejaVuSans-110"/>
     <use x="276.339844" xlink:href="#DejaVuSans-101"/>
     <use x="337.863281" xlink:href="#DejaVuSans-44"/>
     <use x="369.650391" xlink:href="#DejaVuSans-32"/>
     <use x="401.4375" xlink:href="#DejaVuSans-77"/>
     <use x="487.716797" xlink:href="#DejaVuSans-73"/>
    </g>
   </g>
   <g id="text_15">
    <!-- Nassau, NY -->
    <g style="fill:#cc7af4;" transform="translate(422.256642 129.321129)scale(0.08 -0.08)">
     <use xlink:href="#DejaVuSans-78"/>
     <use x="74.804688" xlink:href="#DejaVuSans-97"/>
     <use x="136.083984" xlink:href="#DejaVuSans-115"/>
     <use x="188.183594" xlink:href="#DejaVuSans-115"/>
     <use x="240.283203" xlink:href="#DejaVuSans-97"/>
     <use x="301.5625" xlink:href="#DejaVuSans-117"/>
     <use x="364.941406" xlink:href="#DejaVuSans-44"/>
     <use x="396.728516" xlink:href="#DejaVuSans-32"/>
     <use x="428.515625" xlink:href="#DejaVuSans-78"/>
     <use x="503.320312" xlink:href="#DejaVuSans-89"/>
    </g>
   </g>
   <g id="text_16">
    <!-- Most-affected counties -->
    <defs>
     <path d="M 4.890625 31.390625 
L 31.203125 31.390625 
L 31.203125 23.390625 
L 4.890625 23.390625 
z
" id="DejaVuSans-45"/>
     <path d="M 37.109375 75.984375 
L 37.109375 68.5 
L 28.515625 68.5 
Q 23.6875 68.5 21.796875 66.546875 
Q 19.921875 64.59375 19.921875 59.515625 
L 19.921875 54.6875 
L 34.71875 54.6875 
L 34.71875 47.703125 
L 19.921875 47.703125 
L 19.921875 0 
L 10.890625 0 
L 10.890625 47.703125 
L 2.296875 47.703125 
L 2.296875 54.6875 
L 10.890625 54.6875 
L 10.890625 58.5 
Q 10.890625 67.625 15.140625 71.796875 
Q 19.390625 75.984375 28.609375 75.984375 
z
" id="DejaVuSans-102"/>
     <path d="M 48.78125 52.59375 
L 48.78125 44.1875 
Q 44.96875 46.296875 41.140625 47.34375 
Q 37.3125 48.390625 33.40625 48.390625 
Q 24.65625 48.390625 19.8125 42.84375 
Q 14.984375 37.3125 14.984375 27.296875 
Q 14.984375 17.28125 19.8125 11.734375 
Q 24.65625 6.203125 33.40625 6.203125 
Q 37.3125 6.203125 41.140625 7.25 
Q 44.96875 8.296875 48.78125 10.40625 
L 48.78125 2.09375 
Q 45.015625 0.34375 40.984375 -0.53125 
Q 36.96875 -1.421875 32.421875 -1.421875 
Q 20.0625 -1.421875 12.78125 6.34375 
Q 5.515625 14.109375 5.515625 27.296875 
Q 5.515625 40.671875 12.859375 48.328125 
Q 20.21875 56 33.015625 56 
Q 37.15625 56 41.109375 55.140625 
Q 45.0625 54.296875 48.78125 52.59375 
z
" id="DejaVuSans-99"/>
    </defs>
    <g style="fill:#ffffff;" transform="translate(242.630312 20.88)scale(0.12 -0.12)">
     <use xlink:href="#DejaVuSans-77"/>
     <use x="86.279297" xlink:href="#DejaVuSans-111"/>
     <use x="147.460938" xlink:href="#DejaVuSans-115"/>
     <use x="199.560547" xlink:href="#DejaVuSans-116"/>
     <use x="238.769531" xlink:href="#DejaVuSans-45"/>
     <use x="274.853516" xlink:href="#DejaVuSans-97"/>
     <use x="336.132812" xlink:href="#DejaVuSans-102"/>
     <use x="371.337891" xlink:href="#DejaVuSans-102"/>
     <use x="406.542969" xlink:href="#DejaVuSans-101"/>
     <use x="468.066406" xlink:href="#DejaVuSans-99"/>
     <use x="523.046875" xlink:href="#DejaVuSans-116"/>
     <use x="562.255859" xlink:href="#DejaVuSans-101"/>
     <use x="623.779297" xlink:href="#DejaVuSans-100"/>
     <use x="687.255859" xlink:href="#DejaVuSans-32"/>
     <use x="719.042969" xlink:href="#DejaVuSans-99"/>
     <use x="774.023438" xlink:href="#DejaVuSans-111"/>
     <use x="835.205078" xlink:href="#DejaVuSans-117"/>
     <use x="898.583984" xlink:href="#DejaVuSans-110"/>
     <use x="961.962891" xlink:href="#DejaVuSans-116"/>
     <use x="1001.171875" xlink:href="#DejaVuSans-105"/>
     <use x="1028.955078" xlink:href="#DejaVuSans-101"/>
     <use x="1090.478516" xlink:href="#DejaVuSans-115"/>
    </g>
   </g>
  </g>
  <g id="axes_2">
   <g id="patch_7">
    <path d="M 57.17 398.333333 
L 565.2 398.333333 
L 565.2 234.586667 
L 57.17 234.586667 
z
"/>
   </g>
   <g id="PolyCollection_6">
    <defs>
     <path d="M 403.962591 -364.904871 
L 403.962591 -364.904871 
L 414.535536 -364.904871 
L 425.108481 -367.771075 
L 435.681426 -370.433858 
L 446.25437 -376.003369 
L 456.827315 -375.096902 
L 456.827315 -405.970303 
L 456.827315 -405.970303 
L 446.25437 -394.46121 
L 435.681426 -389.598043 
L 425.108481 -381.572329 
L 414.535536 -377.065623 
L 403.962591 -364.904871 
z
" id="m58c47e8451" style="stroke:#f77189;stroke-opacity:0.1;"/>
    </defs>
    <g clip-path="url(#p0058a6216e)">
     <use style="fill:#f77189;fill-opacity:0.1;stroke:#f77189;stroke-opacity:0.1;" x="0" xlink:href="#m58c47e8451" y="648"/>
    </g>
   </g>
   <g id="PolyCollection_7">
    <defs>
     <path d="M 403.962591 -344.567468 
L 403.962591 -344.567468 
L 414.535536 -347.062491 
L 425.108481 -351.303583 
L 435.681426 -352.901316 
L 446.25437 -357.744925 
L 456.827315 -359.105504 
L 456.827315 -394.030585 
L 456.827315 -394.030585 
L 446.25437 -381.256616 
L 435.681426 -372.802123 
L 425.108481 -361.632545 
L 414.535536 -353.862503 
L 403.962591 -344.567468 
z
" id="m25ed05e5d2" style="stroke:#bb9832;stroke-opacity:0.1;"/>
    </defs>
    <g clip-path="url(#p0058a6216e)">
     <use style="fill:#bb9832;fill-opacity:0.1;stroke:#bb9832;stroke-opacity:0.1;" x="0" xlink:href="#m25ed05e5d2" y="648"/>
    </g>
   </g>
   <g id="PolyCollection_8">
    <defs>
     <path d="M 403.962591 -327.353558 
L 403.962591 -327.353558 
L 414.535536 -327.353558 
L 425.108481 -328.849519 
L 435.681426 -336.558942 
L 446.25437 -336.056626 
L 456.827315 -335.857244 
L 456.827315 -365.003974 
L 456.827315 -365.003974 
L 446.25437 -354.748567 
L 435.681426 -344.827277 
L 425.108481 -343.230678 
L 414.535536 -337.69403 
L 403.962591 -327.353558 
z
" id="m8b454ebc9c" style="stroke:#50b131;stroke-opacity:0.1;"/>
    </defs>
    <g clip-path="url(#p0058a6216e)">
     <use style="fill:#50b131;fill-opacity:0.1;stroke:#50b131;stroke-opacity:0.1;" x="0" xlink:href="#m8b454ebc9c" y="648"/>
    </g>
   </g>
   <g id="PolyCollection_9">
    <defs>
     <path d="M 403.962591 -322.841847 
L 403.962591 -322.841847 
L 414.535536 -322.841847 
L 425.108481 -322.841847 
L 435.681426 -326.761454 
L 446.25437 -326.885565 
L 456.827315 -325.91234 
L 456.827315 -353.123972 
L 456.827315 -353.123972 
L 446.25437 -345.183108 
L 435.681426 -338.626116 
L 425.108481 -336.237133 
L 414.535536 -331.110807 
L 403.962591 -322.841847 
z
" id="mcd81d5918a" style="stroke:#36ada4;stroke-opacity:0.1;"/>
    </defs>
    <g clip-path="url(#p0058a6216e)">
     <use style="fill:#36ada4;fill-opacity:0.1;stroke:#36ada4;stroke-opacity:0.1;" x="0" xlink:href="#mcd81d5918a" y="648"/>
    </g>
   </g>
   <g id="PolyCollection_10">
    <defs>
     <path d="M 403.962591 -318.746603 
L 403.962591 -318.746603 
L 414.535536 -320.732251 
L 425.108481 -321.526963 
L 435.681426 -322.921767 
L 446.25437 -328.008619 
L 456.827315 -333.279584 
L 456.827315 -352.541011 
L 456.827315 -352.541011 
L 446.25437 -346.966474 
L 435.681426 -341.767189 
L 425.108481 -333.507736 
L 414.535536 -325.459286 
L 403.962591 -318.746603 
z
" id="m3e6ae5c103" style="stroke:#3ba3ec;stroke-opacity:0.1;"/>
    </defs>
    <g clip-path="url(#p0058a6216e)">
     <use style="fill:#3ba3ec;fill-opacity:0.1;stroke:#3ba3ec;stroke-opacity:0.1;" x="0" xlink:href="#m3e6ae5c103" y="648"/>
    </g>
   </g>
   <g id="PolyCollection_11">
    <defs>
     <path d="M 403.962591 -304.447951 
L 403.962591 -304.447951 
L 414.535536 -306.193206 
L 425.108481 -305.377086 
L 435.681426 -307.001568 
L 446.25437 -309.910727 
L 456.827315 -310.622835 
L 456.827315 -329.750124 
L 456.827315 -329.750124 
L 446.25437 -323.786916 
L 435.681426 -320.275851 
L 425.108481 -315.723151 
L 414.535536 -308.901995 
L 403.962591 -304.447951 
z
" id="m9bc08bdc0d" style="stroke:#e866f4;stroke-opacity:0.1;"/>
    </defs>
    <g clip-path="url(#p0058a6216e)">
     <use style="fill:#e866f4;fill-opacity:0.1;stroke:#e866f4;stroke-opacity:0.1;" x="0" xlink:href="#m9bc08bdc0d" y="648"/>
    </g>
   </g>
   <g id="matplotlib.axis_3">
    <g id="xtick_4">
     <g id="line2d_20">
      <g>
       <use style="fill:#ffffff;stroke:#ffffff;stroke-width:0.8;" x="76.201301" xlink:href="#ma470df8402" y="398.333333"/>
      </g>
     </g>
     <g id="text_17">
      <!-- 3/25 -->
      <g style="fill:#ffffff;" transform="translate(64.973176 412.931771)scale(0.1 -0.1)">
       <use xlink:href="#DejaVuSans-51"/>
       <use x="63.623047" xlink:href="#DejaVuSans-47"/>
       <use x="97.314453" xlink:href="#DejaVuSans-50"/>
       <use x="160.9375" xlink:href="#DejaVuSans-53"/>
      </g>
     </g>
    </g>
    <g id="xtick_5">
     <g id="line2d_21">
      <g>
       <use style="fill:#ffffff;stroke:#ffffff;stroke-width:0.8;" x="403.962591" xlink:href="#ma470df8402" y="398.333333"/>
      </g>
     </g>
     <g id="text_18">
      <!-- 4/26 -->
      <g style="fill:#ffffff;" transform="translate(392.734466 412.931771)scale(0.1 -0.1)">
       <use xlink:href="#DejaVuSans-52"/>
       <use x="63.623047" xlink:href="#DejaVuSans-47"/>
       <use x="97.314453" xlink:href="#DejaVuSans-50"/>
       <use x="160.9375" xlink:href="#DejaVuSans-54"/>
      </g>
     </g>
    </g>
    <g id="xtick_6">
     <g id="line2d_22">
      <g>
       <use style="fill:#ffffff;stroke:#ffffff;stroke-width:0.8;" x="456.827315" xlink:href="#ma470df8402" y="398.333333"/>
      </g>
     </g>
     <g id="text_19">
      <!-- 5/1 -->
      <g style="fill:#ffffff;" transform="translate(448.78044 412.931771)scale(0.1 -0.1)">
       <use xlink:href="#DejaVuSans-53"/>
       <use x="63.623047" xlink:href="#DejaVuSans-47"/>
       <use x="97.314453" xlink:href="#DejaVuSans-49"/>
      </g>
     </g>
    </g>
   </g>
   <g id="matplotlib.axis_4">
    <g id="ytick_7">
     <g id="line2d_23">
      <g>
       <use style="fill:#ffffff;stroke:#ffffff;stroke-width:0.8;" x="57.17" xlink:href="#m6789d57e45" y="391.37618"/>
      </g>
     </g>
     <g id="text_20">
      <!-- 0 -->
      <g style="fill:#ffffff;" transform="translate(43.8075 395.175398)scale(0.1 -0.1)">
       <use xlink:href="#DejaVuSans-48"/>
      </g>
     </g>
    </g>
    <g id="ytick_8">
     <g id="line2d_24">
      <g>
       <use style="fill:#ffffff;stroke:#ffffff;stroke-width:0.8;" x="57.17" xlink:href="#m6789d57e45" y="356.670715"/>
      </g>
     </g>
     <g id="text_21">
      <!-- 500 -->
      <g style="fill:#ffffff;" transform="translate(31.0825 360.469933)scale(0.1 -0.1)">
       <use xlink:href="#DejaVuSans-53"/>
       <use x="63.623047" xlink:href="#DejaVuSans-48"/>
       <use x="127.246094" xlink:href="#DejaVuSans-48"/>
      </g>
     </g>
    </g>
    <g id="ytick_9">
     <g id="line2d_25">
      <g>
       <use style="fill:#ffffff;stroke:#ffffff;stroke-width:0.8;" x="57.17" xlink:href="#m6789d57e45" y="321.96525"/>
      </g>
     </g>
     <g id="text_22">
      <!-- 1000 -->
      <g style="fill:#ffffff;" transform="translate(24.72 325.764469)scale(0.1 -0.1)">
       <use xlink:href="#DejaVuSans-49"/>
       <use x="63.623047" xlink:href="#DejaVuSans-48"/>
       <use x="127.246094" xlink:href="#DejaVuSans-48"/>
       <use x="190.869141" xlink:href="#DejaVuSans-48"/>
      </g>
     </g>
    </g>
    <g id="ytick_10">
     <g id="line2d_26">
      <g>
       <use style="fill:#ffffff;stroke:#ffffff;stroke-width:0.8;" x="57.17" xlink:href="#m6789d57e45" y="287.259785"/>
      </g>
     </g>
     <g id="text_23">
      <!-- 1500 -->
      <g style="fill:#ffffff;" transform="translate(24.72 291.059004)scale(0.1 -0.1)">
       <use xlink:href="#DejaVuSans-49"/>
       <use x="63.623047" xlink:href="#DejaVuSans-53"/>
       <use x="127.246094" xlink:href="#DejaVuSans-48"/>
       <use x="190.869141" xlink:href="#DejaVuSans-48"/>
      </g>
     </g>
    </g>
    <g id="ytick_11">
     <g id="line2d_27">
      <g>
       <use style="fill:#ffffff;stroke:#ffffff;stroke-width:0.8;" x="57.17" xlink:href="#m6789d57e45" y="252.55432"/>
      </g>
     </g>
     <g id="text_24">
      <!-- 2000 -->
      <g style="fill:#ffffff;" transform="translate(24.72 256.353539)scale(0.1 -0.1)">
       <use xlink:href="#DejaVuSans-50"/>
       <use x="63.623047" xlink:href="#DejaVuSans-48"/>
       <use x="127.246094" xlink:href="#DejaVuSans-48"/>
       <use x="190.869141" xlink:href="#DejaVuSans-48"/>
      </g>
     </g>
    </g>
    <g id="text_25">
     <!-- Cumulative deaths -->
     <g style="fill:#ffffff;" transform="translate(18.640313 363.635)rotate(-90)scale(0.1 -0.1)">
      <use xlink:href="#DejaVuSans-67"/>
      <use x="69.824219" xlink:href="#DejaVuSans-117"/>
      <use x="133.203125" xlink:href="#DejaVuSans-109"/>
      <use x="230.615234" xlink:href="#DejaVuSans-117"/>
      <use x="293.994141" xlink:href="#DejaVuSans-108"/>
      <use x="321.777344" xlink:href="#DejaVuSans-97"/>
      <use x="383.056641" xlink:href="#DejaVuSans-116"/>
      <use x="422.265625" xlink:href="#DejaVuSans-105"/>
      <use x="450.048828" xlink:href="#DejaVuSans-118"/>
      <use x="509.228516" xlink:href="#DejaVuSans-101"/>
      <use x="570.751953" xlink:href="#DejaVuSans-32"/>
      <use x="602.539062" xlink:href="#DejaVuSans-100"/>
      <use x="666.015625" xlink:href="#DejaVuSans-101"/>
      <use x="727.539062" xlink:href="#DejaVuSans-97"/>
      <use x="788.818359" xlink:href="#DejaVuSans-116"/>
      <use x="828.027344" xlink:href="#DejaVuSans-104"/>
      <use x="891.40625" xlink:href="#DejaVuSans-115"/>
     </g>
    </g>
   </g>
   <g id="line2d_28">
    <path clip-path="url(#p0058a6216e)" d="M 76.201301 389.91855 
L 86.774246 389.571495 
L 97.34719 388.807975 
L 107.920135 388.183277 
L 118.49308 387.489167 
L 129.066025 385.615072 
L 139.63897 383.046868 
L 150.211915 381.242184 
L 160.78486 377.910459 
L 171.357804 375.897542 
L 181.930749 373.884625 
L 192.503694 371.038777 
L 203.076639 367.359998 
L 213.649584 363.472986 
L 224.222529 360.418905 
L 234.795473 356.393071 
L 245.368418 349.104923 
L 255.941363 346.120253 
L 266.514308 342.510885 
L 277.087253 342.510885 
L 287.660198 334.459217 
L 298.233143 330.016918 
L 308.806087 323.284057 
L 319.379032 318.911169 
L 329.951977 317.106485 
L 340.524922 313.705349 
L 351.097867 311.692432 
L 361.670812 302.669011 
L 372.243757 299.823163 
L 382.816701 294.478522 
L 393.389646 291.216208 
L 403.962591 283.095129 
" style="fill:none;stroke:#f77189;stroke-linecap:square;stroke-width:1.5;"/>
   </g>
   <g id="line2d_29">
    <path clip-path="url(#p0058a6216e)" d="M 403.962591 283.095129 
L 414.535536 278.664936 
L 425.108481 273.651045 
L 435.681426 268.846443 
L 446.25437 263.233591 
L 456.827315 257.571658 
" style="fill:none;stroke:#f77189;stroke-dasharray:1.5,2.475;stroke-dashoffset:0;stroke-width:1.5;"/>
   </g>
   <g id="line2d_30">
    <path clip-path="url(#p0058a6216e)" d="M 76.201301 390.473837 
L 86.774246 390.126783 
L 97.34719 389.987961 
L 107.920135 389.432674 
L 118.49308 388.599742 
L 129.066025 388.322099 
L 139.63897 387.142113 
L 150.211915 384.782141 
L 160.78486 383.94921 
L 171.357804 381.589238 
L 181.930749 379.784554 
L 192.503694 378.465747 
L 203.076639 376.869295 
L 213.649584 374.092858 
L 224.222529 369.719969 
L 234.795473 367.012943 
L 245.368418 363.750629 
L 255.941363 359.933028 
L 266.514308 357.711879 
L 277.087253 357.711879 
L 287.660198 351.326073 
L 298.233143 347.647294 
L 308.806087 341.261488 
L 319.379032 338.623873 
L 329.951977 331.68278 
L 340.524922 330.502794 
L 351.097867 327.865179 
L 361.670812 321.826428 
L 372.243757 316.967663 
L 382.816701 312.108898 
L 393.389646 306.694845 
L 403.962591 303.432532 
" style="fill:none;stroke:#bb9832;stroke-linecap:square;stroke-width:1.5;"/>
   </g>
   <g id="line2d_31">
    <path clip-path="url(#p0058a6216e)" d="M 403.962591 303.432532 
L 414.535536 296.634473 
L 425.108481 290.000377 
L 435.681426 284.514686 
L 446.25437 276.284406 
L 456.827315 269.1979 
" style="fill:none;stroke:#bb9832;stroke-dasharray:1.5,2.475;stroke-dashoffset:0;stroke-width:1.5;"/>
   </g>
   <g id="line2d_32">
    <path clip-path="url(#p0058a6216e)" d="M 76.201301 390.890303 
L 86.774246 390.612659 
L 97.34719 390.404427 
L 107.920135 389.987961 
L 118.49308 389.987961 
L 129.066025 389.987961 
L 139.63897 389.224441 
L 150.211915 386.586825 
L 160.78486 384.504497 
L 171.357804 383.18569 
L 181.930749 380.617485 
L 192.503694 379.4375 
L 203.076639 378.465747 
L 213.649584 375.272844 
L 224.222529 372.218763 
L 234.795473 369.719969 
L 245.368418 366.943532 
L 255.941363 362.778876 
L 266.514308 361.668302 
L 277.087253 361.668302 
L 287.660198 354.241332 
L 298.233143 350.423731 
L 308.806087 346.814363 
L 319.379032 343.899104 
L 329.951977 340.567379 
L 340.524922 340.012091 
L 351.097867 339.248571 
L 361.670812 332.4463 
L 372.243757 332.4463 
L 382.816701 332.4463 
L 393.389646 323.700523 
L 403.962591 320.646442 
" style="fill:none;stroke:#50b131;stroke-linecap:square;stroke-width:1.5;"/>
   </g>
   <g id="line2d_33">
    <path clip-path="url(#p0058a6216e)" d="M 403.962591 320.646442 
L 414.535536 316.26349 
L 425.108481 311.372727 
L 435.681426 306.198375 
L 446.25437 301.567863 
L 456.827315 296.516628 
" style="fill:none;stroke:#50b131;stroke-dasharray:1.5,2.475;stroke-dashoffset:0;stroke-width:1.5;"/>
   </g>
   <g id="line2d_34">
    <path clip-path="url(#p0058a6216e)" d="M 76.201301 390.404427 
L 86.774246 390.196194 
L 97.34719 389.710317 
L 107.920135 389.15503 
L 118.49308 389.15503 
L 129.066025 389.15503 
L 139.63897 388.252688 
L 150.211915 386.17036 
L 160.78486 383.046868 
L 171.357804 382.213937 
L 181.930749 378.951623 
L 192.503694 378.257514 
L 203.076639 377.493994 
L 213.649584 373.121105 
L 224.222529 369.581148 
L 234.795473 367.429409 
L 245.368418 364.305917 
L 255.941363 361.182425 
L 266.514308 359.933028 
L 277.087253 359.933028 
L 287.660198 353.200168 
L 298.233143 349.174334 
L 308.806087 345.009678 
L 319.379032 341.816776 
L 329.951977 339.942681 
L 340.524922 338.137996 
L 351.097867 336.749778 
L 361.670812 333.418053 
L 372.243757 333.418053 
L 382.816701 333.418053 
L 393.389646 326.546371 
L 403.962591 325.158153 
" style="fill:none;stroke:#36ada4;stroke-linecap:square;stroke-width:1.5;"/>
   </g>
   <g id="line2d_35">
    <path clip-path="url(#p0058a6216e)" d="M 403.962591 325.158153 
L 414.535536 321.364722 
L 425.108481 317.598655 
L 435.681426 313.25928 
L 446.25437 310.359347 
L 456.827315 306.989039 
" style="fill:none;stroke:#36ada4;stroke-dasharray:1.5,2.475;stroke-dashoffset:0;stroke-width:1.5;"/>
   </g>
   <g id="line2d_36">
    <path clip-path="url(#p0058a6216e)" d="M 76.201301 390.473837 
L 86.774246 389.91855 
L 97.34719 389.571495 
L 107.920135 389.15503 
L 118.49308 388.807975 
L 129.066025 388.322099 
L 139.63897 387.627989 
L 150.211915 386.864469 
L 160.78486 385.962127 
L 171.357804 385.198607 
L 181.930749 383.255101 
L 192.503694 382.213937 
L 203.076639 381.172773 
L 213.649584 379.645732 
L 224.222529 377.632815 
L 234.795473 375.897542 
L 245.368418 374.648145 
L 255.941363 372.982283 
L 266.514308 370.830544 
L 277.087253 369.164682 
L 287.660198 366.388245 
L 298.233143 363.472986 
L 308.806087 359.794206 
L 319.379032 357.017769 
L 329.951977 351.395484 
L 340.524922 349.729622 
L 351.097867 348.549636 
L 361.670812 345.356733 
L 372.243757 340.775612 
L 382.816701 336.055669 
L 393.389646 332.515711 
L 403.962591 329.253397 
" style="fill:none;stroke:#3ba3ec;stroke-linecap:square;stroke-width:1.5;"/>
   </g>
   <g id="line2d_37">
    <path clip-path="url(#p0058a6216e)" d="M 403.962591 329.253397 
L 414.535536 324.246811 
L 425.108481 319.245329 
L 435.681426 315.102651 
L 446.25437 308.696419 
L 456.827315 303.290795 
" style="fill:none;stroke:#3ba3ec;stroke-dasharray:1.5,2.475;stroke-dashoffset:0;stroke-width:1.5;"/>
   </g>
   <g id="line2d_38">
    <path clip-path="url(#p0058a6216e)" d="M 76.201301 390.543248 
L 86.774246 390.473837 
L 97.34719 390.335016 
L 107.920135 389.987961 
L 118.49308 389.91855 
L 129.066025 389.91855 
L 139.63897 388.738564 
L 150.211915 388.183277 
L 160.78486 386.864469 
L 171.357804 386.100949 
L 181.930749 385.40684 
L 192.503694 384.71273 
L 203.076639 384.365676 
L 213.649584 382.213937 
L 224.222529 380.617485 
L 234.795473 379.021034 
L 245.368418 377.285761 
L 255.941363 376.105775 
L 266.514308 374.162269 
L 277.087253 373.190516 
L 287.660198 371.455243 
L 298.233143 366.04119 
L 308.806087 363.195342 
L 319.379032 361.876534 
L 329.951977 361.390658 
L 340.524922 360.349494 
L 351.097867 355.837783 
L 361.670812 353.616634 
L 372.243757 350.840197 
L 382.816701 348.688458 
L 393.389646 345.426144 
L 403.962591 343.552049 
" style="fill:none;stroke:#e866f4;stroke-linecap:square;stroke-width:1.5;"/>
   </g>
   <g id="line2d_39">
    <path clip-path="url(#p0058a6216e)" d="M 403.962591 343.552049 
L 414.535536 340.365763 
L 425.108481 337.147234 
L 435.681426 333.410734 
L 446.25437 330.542803 
L 456.827315 327.239907 
" style="fill:none;stroke:#e866f4;stroke-dasharray:1.5,2.475;stroke-dashoffset:0;stroke-width:1.5;"/>
   </g>
   <g id="patch_8">
    <path d="M 57.17 398.333333 
L 57.17 234.586667 
" style="fill:none;stroke:#ffffff;stroke-linecap:square;stroke-linejoin:miter;stroke-width:0.8;"/>
   </g>
   <g id="patch_9">
    <path d="M 565.2 398.333333 
L 565.2 234.586667 
" style="fill:none;stroke:#ffffff;stroke-linecap:square;stroke-linejoin:miter;stroke-width:0.8;"/>
   </g>
   <g id="patch_10">
    <path d="M 57.17 398.333333 
L 565.2 398.333333 
" style="fill:none;stroke:#ffffff;stroke-linecap:square;stroke-linejoin:miter;stroke-width:0.8;"/>
   </g>
   <g id="patch_11">
    <path d="M 57.17 234.586667 
L 565.2 234.586667 
" style="fill:none;stroke:#ffffff;stroke-linecap:square;stroke-linejoin:miter;stroke-width:0.8;"/>
   </g>
   <g id="text_26">
    <!-- Wayne, MI -->
    <g style="fill:#f77189;" transform="translate(467.40026 255.104534)scale(0.08 -0.08)">
     <use xlink:href="#DejaVuSans-87"/>
     <use x="92.501953" xlink:href="#DejaVuSans-97"/>
     <use x="153.78125" xlink:href="#DejaVuSans-121"/>
     <use x="212.960938" xlink:href="#DejaVuSans-110"/>
     <use x="276.339844" xlink:href="#DejaVuSans-101"/>
     <use x="337.863281" xlink:href="#DejaVuSans-44"/>
     <use x="369.650391" xlink:href="#DejaVuSans-32"/>
     <use x="401.4375" xlink:href="#DejaVuSans-77"/>
     <use x="487.716797" xlink:href="#DejaVuSans-73"/>
    </g>
   </g>
   <g id="text_27">
    <!-- Cook, IL -->
    <defs>
     <path d="M 9.078125 75.984375 
L 18.109375 75.984375 
L 18.109375 31.109375 
L 44.921875 54.6875 
L 56.390625 54.6875 
L 27.390625 29.109375 
L 57.625 0 
L 45.90625 0 
L 18.109375 26.703125 
L 18.109375 0 
L 9.078125 0 
z
" id="DejaVuSans-107"/>
     <path d="M 9.8125 72.90625 
L 19.671875 72.90625 
L 19.671875 8.296875 
L 55.171875 8.296875 
L 55.171875 0 
L 9.8125 0 
z
" id="DejaVuSans-76"/>
    </defs>
    <g style="fill:#bb9832;" transform="translate(467.40026 266.730775)scale(0.08 -0.08)">
     <use xlink:href="#DejaVuSans-67"/>
     <use x="69.824219" xlink:href="#DejaVuSans-111"/>
     <use x="131.005859" xlink:href="#DejaVuSans-111"/>
     <use x="192.1875" xlink:href="#DejaVuSans-107"/>
     <use x="250.097656" xlink:href="#DejaVuSans-44"/>
     <use x="281.884766" xlink:href="#DejaVuSans-32"/>
     <use x="313.671875" xlink:href="#DejaVuSans-73"/>
     <use x="343.164062" xlink:href="#DejaVuSans-76"/>
    </g>
   </g>
   <g id="text_28">
    <!-- Essex, NJ -->
    <defs>
     <path d="M 9.8125 72.90625 
L 55.90625 72.90625 
L 55.90625 64.59375 
L 19.671875 64.59375 
L 19.671875 43.015625 
L 54.390625 43.015625 
L 54.390625 34.71875 
L 19.671875 34.71875 
L 19.671875 8.296875 
L 56.78125 8.296875 
L 56.78125 0 
L 9.8125 0 
z
" id="DejaVuSans-69"/>
     <path d="M 9.8125 72.90625 
L 19.671875 72.90625 
L 19.671875 5.078125 
Q 19.671875 -8.109375 14.671875 -14.0625 
Q 9.671875 -20.015625 -1.421875 -20.015625 
L -5.171875 -20.015625 
L -5.171875 -11.71875 
L -2.09375 -11.71875 
Q 4.4375 -11.71875 7.125 -8.046875 
Q 9.8125 -4.390625 9.8125 5.078125 
z
" id="DejaVuSans-74"/>
    </defs>
    <g style="fill:#50b131;" transform="translate(467.40026 294.049504)scale(0.08 -0.08)">
     <use xlink:href="#DejaVuSans-69"/>
     <use x="63.183594" xlink:href="#DejaVuSans-115"/>
     <use x="115.283203" xlink:href="#DejaVuSans-115"/>
     <use x="167.382812" xlink:href="#DejaVuSans-101"/>
     <use x="227.15625" xlink:href="#DejaVuSans-120"/>
     <use x="286.335938" xlink:href="#DejaVuSans-44"/>
     <use x="318.123047" xlink:href="#DejaVuSans-32"/>
     <use x="349.910156" xlink:href="#DejaVuSans-78"/>
     <use x="424.714844" xlink:href="#DejaVuSans-74"/>
    </g>
   </g>
   <g id="text_29">
    <!-- Bergen, NJ -->
    <g style="fill:#36ada4;" transform="translate(425.33901 315.93263)scale(0.08 -0.08)">
     <use xlink:href="#DejaVuSans-66"/>
     <use x="68.603516" xlink:href="#DejaVuSans-101"/>
     <use x="130.126953" xlink:href="#DejaVuSans-114"/>
     <use x="169.490234" xlink:href="#DejaVuSans-103"/>
     <use x="232.966797" xlink:href="#DejaVuSans-101"/>
     <use x="294.490234" xlink:href="#DejaVuSans-110"/>
     <use x="357.869141" xlink:href="#DejaVuSans-44"/>
     <use x="389.65625" xlink:href="#DejaVuSans-32"/>
     <use x="421.443359" xlink:href="#DejaVuSans-78"/>
     <use x="496.248047" xlink:href="#DejaVuSans-74"/>
    </g>
   </g>
   <g id="text_30">
    <!-- Los Angeles, CA -->
    <defs>
     <path d="M 34.1875 63.1875 
L 20.796875 26.90625 
L 47.609375 26.90625 
z
M 28.609375 72.90625 
L 39.796875 72.90625 
L 67.578125 0 
L 57.328125 0 
L 50.6875 18.703125 
L 17.828125 18.703125 
L 11.1875 0 
L 0.78125 0 
z
" id="DejaVuSans-65"/>
    </defs>
    <g style="fill:#3ba3ec;" transform="translate(467.40026 307.165485)scale(0.08 -0.08)">
     <use xlink:href="#DejaVuSans-76"/>
     <use x="53.962891" xlink:href="#DejaVuSans-111"/>
     <use x="115.144531" xlink:href="#DejaVuSans-115"/>
     <use x="167.244141" xlink:href="#DejaVuSans-32"/>
     <use x="199.03125" xlink:href="#DejaVuSans-65"/>
     <use x="267.439453" xlink:href="#DejaVuSans-110"/>
     <use x="330.818359" xlink:href="#DejaVuSans-103"/>
     <use x="394.294922" xlink:href="#DejaVuSans-101"/>
     <use x="455.818359" xlink:href="#DejaVuSans-108"/>
     <use x="483.601562" xlink:href="#DejaVuSans-101"/>
     <use x="545.125" xlink:href="#DejaVuSans-115"/>
     <use x="597.224609" xlink:href="#DejaVuSans-44"/>
     <use x="629.011719" xlink:href="#DejaVuSans-32"/>
     <use x="660.798828" xlink:href="#DejaVuSans-67"/>
     <use x="730.623047" xlink:href="#DejaVuSans-65"/>
    </g>
   </g>
   <g id="text_31">
    <!-- Fairfield, CT -->
    <defs>
     <path d="M 9.8125 72.90625 
L 51.703125 72.90625 
L 51.703125 64.59375 
L 19.671875 64.59375 
L 19.671875 43.109375 
L 48.578125 43.109375 
L 48.578125 34.8125 
L 19.671875 34.8125 
L 19.671875 0 
L 9.8125 0 
z
" id="DejaVuSans-70"/>
     <path d="M -0.296875 72.90625 
L 61.375 72.90625 
L 61.375 64.59375 
L 35.5 64.59375 
L 35.5 0 
L 25.59375 0 
L 25.59375 64.59375 
L -0.296875 64.59375 
z
" id="DejaVuSans-84"/>
    </defs>
    <g style="fill:#e866f4;" transform="translate(467.40026 325.136646)scale(0.08 -0.08)">
     <use xlink:href="#DejaVuSans-70"/>
     <use x="48.394531" xlink:href="#DejaVuSans-97"/>
     <use x="109.673828" xlink:href="#DejaVuSans-105"/>
     <use x="137.457031" xlink:href="#DejaVuSans-114"/>
     <use x="178.570312" xlink:href="#DejaVuSans-102"/>
     <use x="213.775391" xlink:href="#DejaVuSans-105"/>
     <use x="241.558594" xlink:href="#DejaVuSans-101"/>
     <use x="303.082031" xlink:href="#DejaVuSans-108"/>
     <use x="330.865234" xlink:href="#DejaVuSans-100"/>
     <use x="394.341797" xlink:href="#DejaVuSans-44"/>
     <use x="426.128906" xlink:href="#DejaVuSans-32"/>
     <use x="457.916016" xlink:href="#DejaVuSans-67"/>
     <use x="527.740234" xlink:href="#DejaVuSans-84"/>
    </g>
   </g>
   <g id="text_32">
    <!-- Most-affected counties outside NY -->
    <g style="fill:#ffffff;" transform="translate(208.54375 228.586667)scale(0.12 -0.12)">
     <use xlink:href="#DejaVuSans-77"/>
     <use x="86.279297" xlink:href="#DejaVuSans-111"/>
     <use x="147.460938" xlink:href="#DejaVuSans-115"/>
     <use x="199.560547" xlink:href="#DejaVuSans-116"/>
     <use x="238.769531" xlink:href="#DejaVuSans-45"/>
     <use x="274.853516" xlink:href="#DejaVuSans-97"/>
     <use x="336.132812" xlink:href="#DejaVuSans-102"/>
     <use x="371.337891" xlink:href="#DejaVuSans-102"/>
     <use x="406.542969" xlink:href="#DejaVuSans-101"/>
     <use x="468.066406" xlink:href="#DejaVuSans-99"/>
     <use x="523.046875" xlink:href="#DejaVuSans-116"/>
     <use x="562.255859" xlink:href="#DejaVuSans-101"/>
     <use x="623.779297" xlink:href="#DejaVuSans-100"/>
     <use x="687.255859" xlink:href="#DejaVuSans-32"/>
     <use x="719.042969" xlink:href="#DejaVuSans-99"/>
     <use x="774.023438" xlink:href="#DejaVuSans-111"/>
     <use x="835.205078" xlink:href="#DejaVuSans-117"/>
     <use x="898.583984" xlink:href="#DejaVuSans-110"/>
     <use x="961.962891" xlink:href="#DejaVuSans-116"/>
     <use x="1001.171875" xlink:href="#DejaVuSans-105"/>
     <use x="1028.955078" xlink:href="#DejaVuSans-101"/>
     <use x="1090.478516" xlink:href="#DejaVuSans-115"/>
     <use x="1142.578125" xlink:href="#DejaVuSans-32"/>
     <use x="1174.365234" xlink:href="#DejaVuSans-111"/>
     <use x="1235.546875" xlink:href="#DejaVuSans-117"/>
     <use x="1298.925781" xlink:href="#DejaVuSans-116"/>
     <use x="1338.134766" xlink:href="#DejaVuSans-115"/>
     <use x="1390.234375" xlink:href="#DejaVuSans-105"/>
     <use x="1418.017578" xlink:href="#DejaVuSans-100"/>
     <use x="1481.494141" xlink:href="#DejaVuSans-101"/>
     <use x="1543.017578" xlink:href="#DejaVuSans-32"/>
     <use x="1574.804688" xlink:href="#DejaVuSans-78"/>
     <use x="1649.609375" xlink:href="#DejaVuSans-89"/>
    </g>
   </g>
  </g>
  <g id="axes_3">
   <g id="patch_12">
    <path d="M 57.17 606.04 
L 565.2 606.04 
L 565.2 442.293333 
L 57.17 442.293333 
z
"/>
   </g>
   <g id="PolyCollection_12">
    <defs>
     <path d="M 402.195722 -165.753702 
L 402.195722 -165.753702 
L 413.062674 -165.753702 
L 423.929626 -165.753702 
L 434.796578 -165.753702 
L 445.663529 -165.753702 
L 456.530481 -171.55699 
L 456.530481 -197.29017 
L 456.530481 -197.29017 
L 445.663529 -198.263636 
L 434.796578 -192.759852 
L 423.929626 -185.581077 
L 413.062674 -176.291756 
L 402.195722 -165.753702 
z
" id="m157972d33f" style="stroke:#f77189;stroke-opacity:0.1;"/>
    </defs>
    <g clip-path="url(#pa3f62174ed)">
     <use style="fill:#f77189;fill-opacity:0.1;stroke:#f77189;stroke-opacity:0.1;" x="0" xlink:href="#m157972d33f" y="648"/>
    </g>
   </g>
   <g id="PolyCollection_13">
    <defs>
     <path d="M 402.195722 -109.952869 
L 402.195722 -109.952869 
L 413.062674 -109.952869 
L 423.929626 -110.521481 
L 434.796578 -111.42516 
L 445.663529 -109.952869 
L 456.530481 -109.952869 
L 456.530481 -145.060362 
L 456.530481 -145.060362 
L 445.663529 -136.176978 
L 434.796578 -123.18195 
L 423.929626 -118.834384 
L 413.062674 -114.274095 
L 402.195722 -109.952869 
z
" id="mdb3bf5cd9f" style="stroke:#ae9d31;stroke-opacity:0.1;"/>
    </defs>
    <g clip-path="url(#pa3f62174ed)">
     <use style="fill:#ae9d31;fill-opacity:0.1;stroke:#ae9d31;stroke-opacity:0.1;" x="0" xlink:href="#mdb3bf5cd9f" y="648"/>
    </g>
   </g>
   <g id="PolyCollection_14">
    <defs>
     <path d="M 402.195722 -96.8931 
L 402.195722 -96.8931 
L 413.062674 -96.8931 
L 423.929626 -96.8931 
L 434.796578 -96.8931 
L 445.663529 -96.8931 
L 456.530481 -96.8931 
L 456.530481 -120.155845 
L 456.530481 -120.155845 
L 445.663529 -120.234762 
L 434.796578 -119.670121 
L 423.929626 -116.333085 
L 413.062674 -114.574389 
L 402.195722 -96.8931 
z
" id="m9e58ae13b8" style="stroke:#33b07a;stroke-opacity:0.1;"/>
    </defs>
    <g clip-path="url(#pa3f62174ed)">
     <use style="fill:#33b07a;fill-opacity:0.1;stroke:#33b07a;stroke-opacity:0.1;" x="0" xlink:href="#m9e58ae13b8" y="648"/>
    </g>
   </g>
   <g id="PolyCollection_15">
    <defs>
     <path d="M 402.195722 -77.897072 
L 402.195722 -77.897072 
L 413.062674 -77.897072 
L 423.929626 -77.897072 
L 434.796578 -77.897072 
L 445.663529 -77.897072 
L 456.530481 -77.897072 
L 456.530481 -90.847994 
L 456.530481 -90.847994 
L 445.663529 -89.872334 
L 434.796578 -86.562983 
L 423.929626 -84.441782 
L 413.062674 -81.115641 
L 402.195722 -77.897072 
z
" id="mb2d36e4163" style="stroke:#38a9c5;stroke-opacity:0.1;"/>
    </defs>
    <g clip-path="url(#pa3f62174ed)">
     <use style="fill:#38a9c5;fill-opacity:0.1;stroke:#38a9c5;stroke-opacity:0.1;" x="0" xlink:href="#mb2d36e4163" y="648"/>
    </g>
   </g>
   <g id="PolyCollection_16">
    <defs>
     <path d="M 402.195722 -74.335317 
L 402.195722 -74.335317 
L 413.062674 -74.335317 
L 423.929626 -74.335317 
L 434.796578 -74.335317 
L 445.663529 -74.335317 
L 456.530481 -74.335317 
L 456.530481 -84.362928 
L 456.530481 -84.362928 
L 445.663529 -83.212301 
L 434.796578 -80.875296 
L 423.929626 -79.671754 
L 413.062674 -77.114288 
L 402.195722 -74.335317 
z
" id="m4f6a226cf4" style="stroke:#cc7af4;stroke-opacity:0.1;"/>
    </defs>
    <g clip-path="url(#pa3f62174ed)">
     <use style="fill:#cc7af4;fill-opacity:0.1;stroke:#cc7af4;stroke-opacity:0.1;" x="0" xlink:href="#m4f6a226cf4" y="648"/>
    </g>
   </g>
   <g id="matplotlib.axis_5">
    <g id="xtick_7">
     <g id="line2d_40">
      <g>
       <use style="fill:#ffffff;stroke:#ffffff;stroke-width:0.8;" x="76.187166" xlink:href="#ma470df8402" y="606.04"/>
      </g>
     </g>
     <g id="text_33">
      <!-- 3/26 -->
      <g style="fill:#ffffff;" transform="translate(64.959041 620.638438)scale(0.1 -0.1)">
       <use xlink:href="#DejaVuSans-51"/>
       <use x="63.623047" xlink:href="#DejaVuSans-47"/>
       <use x="97.314453" xlink:href="#DejaVuSans-50"/>
       <use x="160.9375" xlink:href="#DejaVuSans-54"/>
      </g>
     </g>
    </g>
    <g id="xtick_8">
     <g id="line2d_41">
      <g>
       <use style="fill:#ffffff;stroke:#ffffff;stroke-width:0.8;" x="402.195722" xlink:href="#ma470df8402" y="606.04"/>
      </g>
     </g>
     <g id="text_34">
      <!-- 4/26 -->
      <g style="fill:#ffffff;" transform="translate(390.967597 620.638438)scale(0.1 -0.1)">
       <use xlink:href="#DejaVuSans-52"/>
       <use x="63.623047" xlink:href="#DejaVuSans-47"/>
       <use x="97.314453" xlink:href="#DejaVuSans-50"/>
       <use x="160.9375" xlink:href="#DejaVuSans-54"/>
      </g>
     </g>
    </g>
    <g id="xtick_9">
     <g id="line2d_42">
      <g>
       <use style="fill:#ffffff;stroke:#ffffff;stroke-width:0.8;" x="456.530481" xlink:href="#ma470df8402" y="606.04"/>
      </g>
     </g>
     <g id="text_35">
      <!-- 5/1 -->
      <g style="fill:#ffffff;" transform="translate(448.483606 620.638438)scale(0.1 -0.1)">
       <use xlink:href="#DejaVuSans-53"/>
       <use x="63.623047" xlink:href="#DejaVuSans-47"/>
       <use x="97.314453" xlink:href="#DejaVuSans-49"/>
      </g>
     </g>
    </g>
    <g id="text_36">
     <!-- Date -->
     <defs>
      <path d="M 19.671875 64.796875 
L 19.671875 8.109375 
L 31.59375 8.109375 
Q 46.6875 8.109375 53.6875 14.9375 
Q 60.6875 21.78125 60.6875 36.53125 
Q 60.6875 51.171875 53.6875 57.984375 
Q 46.6875 64.796875 31.59375 64.796875 
z
M 9.8125 72.90625 
L 30.078125 72.90625 
Q 51.265625 72.90625 61.171875 64.09375 
Q 71.09375 55.28125 71.09375 36.53125 
Q 71.09375 17.671875 61.125 8.828125 
Q 51.171875 0 30.078125 0 
L 9.8125 0 
z
" id="DejaVuSans-68"/>
     </defs>
     <g style="fill:#ffffff;" transform="translate(299.234219 634.316563)scale(0.1 -0.1)">
      <use xlink:href="#DejaVuSans-68"/>
      <use x="77.001953" xlink:href="#DejaVuSans-97"/>
      <use x="138.28125" xlink:href="#DejaVuSans-116"/>
      <use x="177.490234" xlink:href="#DejaVuSans-101"/>
     </g>
    </g>
   </g>
   <g id="matplotlib.axis_6">
    <g id="ytick_12">
     <g id="line2d_43">
      <g>
       <use style="fill:#ffffff;stroke:#ffffff;stroke-width:0.8;" x="57.17" xlink:href="#m6789d57e45" y="599.784221"/>
      </g>
     </g>
     <g id="text_37">
      <!-- 0 -->
      <g style="fill:#ffffff;" transform="translate(43.8075 603.58344)scale(0.1 -0.1)">
       <use xlink:href="#DejaVuSans-48"/>
      </g>
     </g>
    </g>
    <g id="ytick_13">
     <g id="line2d_44">
      <g>
       <use style="fill:#ffffff;stroke:#ffffff;stroke-width:0.8;" x="57.17" xlink:href="#m6789d57e45" y="576.039186"/>
      </g>
     </g>
     <g id="text_38">
      <!-- 20 -->
      <g style="fill:#ffffff;" transform="translate(37.445 579.838405)scale(0.1 -0.1)">
       <use xlink:href="#DejaVuSans-50"/>
       <use x="63.623047" xlink:href="#DejaVuSans-48"/>
      </g>
     </g>
    </g>
    <g id="ytick_14">
     <g id="line2d_45">
      <g>
       <use style="fill:#ffffff;stroke:#ffffff;stroke-width:0.8;" x="57.17" xlink:href="#m6789d57e45" y="552.294151"/>
      </g>
     </g>
     <g id="text_39">
      <!-- 40 -->
      <g style="fill:#ffffff;" transform="translate(37.445 556.09337)scale(0.1 -0.1)">
       <use xlink:href="#DejaVuSans-52"/>
       <use x="63.623047" xlink:href="#DejaVuSans-48"/>
      </g>
     </g>
    </g>
    <g id="ytick_15">
     <g id="line2d_46">
      <g>
       <use style="fill:#ffffff;stroke:#ffffff;stroke-width:0.8;" x="57.17" xlink:href="#m6789d57e45" y="528.549117"/>
      </g>
     </g>
     <g id="text_40">
      <!-- 60 -->
      <g style="fill:#ffffff;" transform="translate(37.445 532.348335)scale(0.1 -0.1)">
       <use xlink:href="#DejaVuSans-54"/>
       <use x="63.623047" xlink:href="#DejaVuSans-48"/>
      </g>
     </g>
    </g>
    <g id="ytick_16">
     <g id="line2d_47">
      <g>
       <use style="fill:#ffffff;stroke:#ffffff;stroke-width:0.8;" x="57.17" xlink:href="#m6789d57e45" y="504.804082"/>
      </g>
     </g>
     <g id="text_41">
      <!-- 80 -->
      <defs>
       <path d="M 31.78125 34.625 
Q 24.75 34.625 20.71875 30.859375 
Q 16.703125 27.09375 16.703125 20.515625 
Q 16.703125 13.921875 20.71875 10.15625 
Q 24.75 6.390625 31.78125 6.390625 
Q 38.8125 6.390625 42.859375 10.171875 
Q 46.921875 13.96875 46.921875 20.515625 
Q 46.921875 27.09375 42.890625 30.859375 
Q 38.875 34.625 31.78125 34.625 
z
M 21.921875 38.8125 
Q 15.578125 40.375 12.03125 44.71875 
Q 8.5 49.078125 8.5 55.328125 
Q 8.5 64.0625 14.71875 69.140625 
Q 20.953125 74.21875 31.78125 74.21875 
Q 42.671875 74.21875 48.875 69.140625 
Q 55.078125 64.0625 55.078125 55.328125 
Q 55.078125 49.078125 51.53125 44.71875 
Q 48 40.375 41.703125 38.8125 
Q 48.828125 37.15625 52.796875 32.3125 
Q 56.78125 27.484375 56.78125 20.515625 
Q 56.78125 9.90625 50.3125 4.234375 
Q 43.84375 -1.421875 31.78125 -1.421875 
Q 19.734375 -1.421875 13.25 4.234375 
Q 6.78125 9.90625 6.78125 20.515625 
Q 6.78125 27.484375 10.78125 32.3125 
Q 14.796875 37.15625 21.921875 38.8125 
z
M 18.3125 54.390625 
Q 18.3125 48.734375 21.84375 45.5625 
Q 25.390625 42.390625 31.78125 42.390625 
Q 38.140625 42.390625 41.71875 45.5625 
Q 45.3125 48.734375 45.3125 54.390625 
Q 45.3125 60.0625 41.71875 63.234375 
Q 38.140625 66.40625 31.78125 66.40625 
Q 25.390625 66.40625 21.84375 63.234375 
Q 18.3125 60.0625 18.3125 54.390625 
z
" id="DejaVuSans-56"/>
      </defs>
      <g style="fill:#ffffff;" transform="translate(37.445 508.6033)scale(0.1 -0.1)">
       <use xlink:href="#DejaVuSans-56"/>
       <use x="63.623047" xlink:href="#DejaVuSans-48"/>
      </g>
     </g>
    </g>
    <g id="ytick_17">
     <g id="line2d_48">
      <g>
       <use style="fill:#ffffff;stroke:#ffffff;stroke-width:0.8;" x="57.17" xlink:href="#m6789d57e45" y="481.059047"/>
      </g>
     </g>
     <g id="text_42">
      <!-- 100 -->
      <g style="fill:#ffffff;" transform="translate(31.0825 484.858265)scale(0.1 -0.1)">
       <use xlink:href="#DejaVuSans-49"/>
       <use x="63.623047" xlink:href="#DejaVuSans-48"/>
       <use x="127.246094" xlink:href="#DejaVuSans-48"/>
      </g>
     </g>
    </g>
    <g id="ytick_18">
     <g id="line2d_49">
      <g>
       <use style="fill:#ffffff;stroke:#ffffff;stroke-width:0.8;" x="57.17" xlink:href="#m6789d57e45" y="457.314012"/>
      </g>
     </g>
     <g id="text_43">
      <!-- 120 -->
      <g style="fill:#ffffff;" transform="translate(31.0825 461.11323)scale(0.1 -0.1)">
       <use xlink:href="#DejaVuSans-49"/>
       <use x="63.623047" xlink:href="#DejaVuSans-50"/>
       <use x="127.246094" xlink:href="#DejaVuSans-48"/>
      </g>
     </g>
    </g>
    <g id="text_44">
     <!-- Cumulative deaths -->
     <g style="fill:#ffffff;" transform="translate(25.002813 571.341667)rotate(-90)scale(0.1 -0.1)">
      <use xlink:href="#DejaVuSans-67"/>
      <use x="69.824219" xlink:href="#DejaVuSans-117"/>
      <use x="133.203125" xlink:href="#DejaVuSans-109"/>
      <use x="230.615234" xlink:href="#DejaVuSans-117"/>
      <use x="293.994141" xlink:href="#DejaVuSans-108"/>
      <use x="321.777344" xlink:href="#DejaVuSans-97"/>
      <use x="383.056641" xlink:href="#DejaVuSans-116"/>
      <use x="422.265625" xlink:href="#DejaVuSans-105"/>
      <use x="450.048828" xlink:href="#DejaVuSans-118"/>
      <use x="509.228516" xlink:href="#DejaVuSans-101"/>
      <use x="570.751953" xlink:href="#DejaVuSans-32"/>
      <use x="602.539062" xlink:href="#DejaVuSans-100"/>
      <use x="666.015625" xlink:href="#DejaVuSans-101"/>
      <use x="727.539062" xlink:href="#DejaVuSans-97"/>
      <use x="788.818359" xlink:href="#DejaVuSans-116"/>
      <use x="828.027344" xlink:href="#DejaVuSans-104"/>
      <use x="891.40625" xlink:href="#DejaVuSans-115"/>
     </g>
    </g>
   </g>
   <g id="line2d_50">
    <path clip-path="url(#pa3f62174ed)" d="M 76.187166 573.664683 
L 87.054118 572.477431 
L 97.92107 566.541172 
L 108.788021 566.541172 
L 119.654973 562.979417 
L 130.521925 560.604914 
L 141.388877 558.23041 
L 152.255829 553.481403 
L 163.122781 551.1069 
L 173.989733 549.919648 
L 184.856684 549.919648 
L 195.723636 546.357893 
L 206.590588 545.170641 
L 217.45754 541.608886 
L 228.324492 540.421634 
L 239.191444 536.859879 
L 250.058396 535.672627 
L 260.925348 532.110872 
L 271.792299 524.987361 
L 282.659251 524.987361 
L 293.526203 519.051103 
L 304.393155 514.302096 
L 315.260107 514.302096 
L 326.127059 509.553089 
L 336.994011 509.553089 
L 347.860963 497.680571 
L 358.727914 491.744312 
L 369.594866 488.182557 
L 380.461818 486.995305 
L 391.32877 483.43355 
L 402.195722 482.246298 
" style="fill:none;stroke:#f77189;stroke-linecap:square;stroke-width:1.5;"/>
   </g>
   <g id="line2d_51">
    <path clip-path="url(#pa3f62174ed)" d="M 402.195722 482.246298 
L 413.062674 477.833888 
L 423.929626 473.506995 
L 434.796578 470.01976 
L 445.663529 465.191953 
L 456.530481 461.304981 
" style="fill:none;stroke:#f77189;stroke-dasharray:1.5,2.475;stroke-dashoffset:0;stroke-width:1.5;"/>
   </g>
   <g id="line2d_52">
    <path clip-path="url(#pa3f62174ed)" d="M 76.187166 595.035214 
L 87.054118 595.035214 
L 97.92107 592.660711 
L 108.788021 591.473459 
L 119.654973 591.473459 
L 130.521925 591.473459 
L 141.388877 590.286207 
L 152.255829 589.098956 
L 163.122781 585.5372 
L 173.989733 585.5372 
L 184.856684 585.5372 
L 195.723636 584.349949 
L 206.590588 581.975445 
L 217.45754 580.788193 
L 228.324492 579.600942 
L 239.191444 576.039186 
L 250.058396 574.851935 
L 260.925348 572.477431 
L 271.792299 572.477431 
L 282.659251 572.477431 
L 293.526203 557.043158 
L 304.393155 553.481403 
L 315.260107 553.481403 
L 326.127059 551.1069 
L 336.994011 549.919648 
L 347.860963 549.919648 
L 358.727914 548.732396 
L 369.594866 546.357893 
L 380.461818 545.170641 
L 391.32877 542.796138 
L 402.195722 538.047131 
" style="fill:none;stroke:#ae9d31;stroke-linecap:square;stroke-width:1.5;"/>
   </g>
   <g id="line2d_53">
    <path clip-path="url(#pa3f62174ed)" d="M 402.195722 538.047131 
L 413.062674 535.318279 
L 423.929626 532.172442 
L 434.796578 529.104366 
L 445.663529 526.401647 
L 456.530481 523.882875 
" style="fill:none;stroke:#ae9d31;stroke-dasharray:1.5,2.475;stroke-dashoffset:0;stroke-width:1.5;"/>
   </g>
   <g id="line2d_54">
    <path clip-path="url(#pa3f62174ed)" d="M 76.187166 593.847963 
L 87.054118 592.660711 
L 97.92107 592.660711 
L 108.788021 592.660711 
L 119.654973 592.660711 
L 130.521925 587.911704 
L 141.388877 587.911704 
L 152.255829 587.911704 
L 163.122781 584.349949 
L 173.989733 584.349949 
L 184.856684 584.349949 
L 195.723636 584.349949 
L 206.590588 574.851935 
L 217.45754 574.851935 
L 228.324492 574.851935 
L 239.191444 574.851935 
L 250.058396 574.851935 
L 260.925348 574.851935 
L 271.792299 574.851935 
L 282.659251 574.851935 
L 293.526203 574.851935 
L 304.393155 566.541172 
L 315.260107 566.541172 
L 326.127059 566.541172 
L 336.994011 566.541172 
L 347.860963 566.541172 
L 358.727914 566.541172 
L 369.594866 554.668655 
L 380.461818 553.481403 
L 391.32877 551.1069 
L 402.195722 551.1069 
" style="fill:none;stroke:#33b07a;stroke-linecap:square;stroke-width:1.5;"/>
   </g>
   <g id="line2d_55">
    <path clip-path="url(#pa3f62174ed)" d="M 402.195722 551.1069 
L 413.062674 548.807066 
L 423.929626 546.762565 
L 434.796578 544.687614 
L 445.663529 543.038998 
L 456.530481 541.432512 
" style="fill:none;stroke:#33b07a;stroke-dasharray:1.5,2.475;stroke-dashoffset:0;stroke-width:1.5;"/>
   </g>
   <g id="line2d_56">
    <path clip-path="url(#pa3f62174ed)" d="M 76.187166 598.59697 
L 87.054118 597.409718 
L 97.92107 596.222466 
L 108.788021 596.222466 
L 119.654973 596.222466 
L 130.521925 596.222466 
L 141.388877 596.222466 
L 152.255829 596.222466 
L 163.122781 593.847963 
L 173.989733 593.847963 
L 184.856684 592.660711 
L 195.723636 591.473459 
L 206.590588 591.473459 
L 217.45754 591.473459 
L 228.324492 590.286207 
L 239.191444 589.098956 
L 250.058396 586.724452 
L 260.925348 586.724452 
L 271.792299 586.724452 
L 282.659251 585.5372 
L 293.526203 583.162697 
L 304.393155 580.788193 
L 315.260107 580.788193 
L 326.127059 577.226438 
L 336.994011 576.039186 
L 347.860963 573.664683 
L 358.727914 573.664683 
L 369.594866 573.664683 
L 380.461818 572.477431 
L 391.32877 572.477431 
L 402.195722 570.102928 
" style="fill:none;stroke:#38a9c5;stroke-linecap:square;stroke-width:1.5;"/>
   </g>
   <g id="line2d_57">
    <path clip-path="url(#pa3f62174ed)" d="M 402.195722 570.102928 
L 413.062674 568.70798 
L 423.929626 567.10833 
L 434.796578 565.435117 
L 445.663529 564.156356 
L 456.530481 562.935423 
" style="fill:none;stroke:#38a9c5;stroke-dasharray:1.5,2.475;stroke-dashoffset:0;stroke-width:1.5;"/>
   </g>
   <g id="line2d_58">
    <path clip-path="url(#pa3f62174ed)" d="M 76.187166 597.409718 
L 87.054118 596.222466 
L 97.92107 595.035214 
L 108.788021 593.847963 
L 119.654973 592.660711 
L 130.521925 592.660711 
L 141.388877 591.473459 
L 152.255829 591.473459 
L 163.122781 591.473459 
L 173.989733 590.286207 
L 184.856684 590.286207 
L 195.723636 589.098956 
L 206.590588 589.098956 
L 217.45754 587.911704 
L 228.324492 587.911704 
L 239.191444 584.349949 
L 250.058396 584.349949 
L 260.925348 583.162697 
L 271.792299 581.975445 
L 282.659251 581.975445 
L 293.526203 579.600942 
L 304.393155 579.600942 
L 315.260107 579.600942 
L 326.127059 576.039186 
L 336.994011 576.039186 
L 347.860963 576.039186 
L 358.727914 576.039186 
L 369.594866 574.851935 
L 380.461818 574.851935 
L 391.32877 573.664683 
L 402.195722 573.664683 
" style="fill:none;stroke:#cc7af4;stroke-linecap:square;stroke-width:1.5;"/>
   </g>
   <g id="line2d_59">
    <path clip-path="url(#pa3f62174ed)" d="M 402.195722 573.664683 
L 413.062674 572.246042 
L 423.929626 570.978956 
L 434.796578 569.985002 
L 445.663529 568.906714 
L 456.530481 568.201964 
" style="fill:none;stroke:#cc7af4;stroke-dasharray:1.5,2.475;stroke-dashoffset:0;stroke-width:1.5;"/>
   </g>
   <g id="patch_13">
    <path d="M 57.17 606.04 
L 57.17 442.293333 
" style="fill:none;stroke:#ffffff;stroke-linecap:square;stroke-linejoin:miter;stroke-width:0.8;"/>
   </g>
   <g id="patch_14">
    <path d="M 565.2 606.04 
L 565.2 442.293333 
" style="fill:none;stroke:#ffffff;stroke-linecap:square;stroke-linejoin:miter;stroke-width:0.8;"/>
   </g>
   <g id="patch_15">
    <path d="M 57.17 606.04 
L 565.2 606.04 
" style="fill:none;stroke:#ffffff;stroke-linecap:square;stroke-linejoin:miter;stroke-width:0.8;"/>
   </g>
   <g id="patch_16">
    <path d="M 57.17 442.293333 
L 565.2 442.293333 
" style="fill:none;stroke:#ffffff;stroke-linecap:square;stroke-linejoin:miter;stroke-width:0.8;"/>
   </g>
   <g id="text_45">
    <!-- Santa Clara, CA -->
    <defs>
     <path d="M 53.515625 70.515625 
L 53.515625 60.890625 
Q 47.90625 63.578125 42.921875 64.890625 
Q 37.9375 66.21875 33.296875 66.21875 
Q 25.25 66.21875 20.875 63.09375 
Q 16.5 59.96875 16.5 54.203125 
Q 16.5 49.359375 19.40625 46.890625 
Q 22.3125 44.4375 30.421875 42.921875 
L 36.375 41.703125 
Q 47.40625 39.59375 52.65625 34.296875 
Q 57.90625 29 57.90625 20.125 
Q 57.90625 9.515625 50.796875 4.046875 
Q 43.703125 -1.421875 29.984375 -1.421875 
Q 24.8125 -1.421875 18.96875 -0.25 
Q 13.140625 0.921875 6.890625 3.21875 
L 6.890625 13.375 
Q 12.890625 10.015625 18.65625 8.296875 
Q 24.421875 6.59375 29.984375 6.59375 
Q 38.421875 6.59375 43.015625 9.90625 
Q 47.609375 13.234375 47.609375 19.390625 
Q 47.609375 24.75 44.3125 27.78125 
Q 41.015625 30.8125 33.5 32.328125 
L 27.484375 33.5 
Q 16.453125 35.6875 11.515625 40.375 
Q 6.59375 45.0625 6.59375 53.421875 
Q 6.59375 63.09375 13.40625 68.65625 
Q 20.21875 74.21875 32.171875 74.21875 
Q 37.3125 74.21875 42.625 73.28125 
Q 47.953125 72.359375 53.515625 70.515625 
z
" id="DejaVuSans-83"/>
    </defs>
    <g style="fill:#f77189;" transform="translate(467.397433 458.862962)scale(0.08 -0.08)">
     <use xlink:href="#DejaVuSans-83"/>
     <use x="63.476562" xlink:href="#DejaVuSans-97"/>
     <use x="124.755859" xlink:href="#DejaVuSans-110"/>
     <use x="188.134766" xlink:href="#DejaVuSans-116"/>
     <use x="227.34375" xlink:href="#DejaVuSans-97"/>
     <use x="288.623047" xlink:href="#DejaVuSans-32"/>
     <use x="320.410156" xlink:href="#DejaVuSans-67"/>
     <use x="390.234375" xlink:href="#DejaVuSans-108"/>
     <use x="418.017578" xlink:href="#DejaVuSans-97"/>
     <use x="479.296875" xlink:href="#DejaVuSans-114"/>
     <use x="520.410156" xlink:href="#DejaVuSans-97"/>
     <use x="581.689453" xlink:href="#DejaVuSans-44"/>
     <use x="613.476562" xlink:href="#DejaVuSans-32"/>
     <use x="645.263672" xlink:href="#DejaVuSans-67"/>
     <use x="715.087891" xlink:href="#DejaVuSans-65"/>
    </g>
   </g>
   <g id="text_46">
    <!-- Alameda, CA -->
    <g style="fill:#ae9d31;" transform="translate(467.397433 521.440856)scale(0.08 -0.08)">
     <use xlink:href="#DejaVuSans-65"/>
     <use x="68.408203" xlink:href="#DejaVuSans-108"/>
     <use x="96.191406" xlink:href="#DejaVuSans-97"/>
     <use x="157.470703" xlink:href="#DejaVuSans-109"/>
     <use x="254.882812" xlink:href="#DejaVuSans-101"/>
     <use x="316.40625" xlink:href="#DejaVuSans-100"/>
     <use x="379.882812" xlink:href="#DejaVuSans-97"/>
     <use x="441.162109" xlink:href="#DejaVuSans-44"/>
     <use x="472.949219" xlink:href="#DejaVuSans-32"/>
     <use x="504.736328" xlink:href="#DejaVuSans-67"/>
     <use x="574.560547" xlink:href="#DejaVuSans-65"/>
    </g>
   </g>
   <g id="text_47">
    <!-- San Mateo, CA -->
    <g style="fill:#33b07a;" transform="translate(467.397433 538.990493)scale(0.08 -0.08)">
     <use xlink:href="#DejaVuSans-83"/>
     <use x="63.476562" xlink:href="#DejaVuSans-97"/>
     <use x="124.755859" xlink:href="#DejaVuSans-110"/>
     <use x="188.134766" xlink:href="#DejaVuSans-32"/>
     <use x="219.921875" xlink:href="#DejaVuSans-77"/>
     <use x="306.201172" xlink:href="#DejaVuSans-97"/>
     <use x="367.480469" xlink:href="#DejaVuSans-116"/>
     <use x="406.689453" xlink:href="#DejaVuSans-101"/>
     <use x="468.212891" xlink:href="#DejaVuSans-111"/>
     <use x="529.394531" xlink:href="#DejaVuSans-44"/>
     <use x="561.181641" xlink:href="#DejaVuSans-32"/>
     <use x="592.96875" xlink:href="#DejaVuSans-67"/>
     <use x="662.792969" xlink:href="#DejaVuSans-65"/>
    </g>
   </g>
   <g id="text_48">
    <!-- Contra Costa, CA -->
    <g style="fill:#38a9c5;" transform="translate(467.397433 560.493404)scale(0.08 -0.08)">
     <use xlink:href="#DejaVuSans-67"/>
     <use x="69.824219" xlink:href="#DejaVuSans-111"/>
     <use x="131.005859" xlink:href="#DejaVuSans-110"/>
     <use x="194.384766" xlink:href="#DejaVuSans-116"/>
     <use x="233.59375" xlink:href="#DejaVuSans-114"/>
     <use x="274.707031" xlink:href="#DejaVuSans-97"/>
     <use x="335.986328" xlink:href="#DejaVuSans-32"/>
     <use x="367.773438" xlink:href="#DejaVuSans-67"/>
     <use x="437.597656" xlink:href="#DejaVuSans-111"/>
     <use x="498.779297" xlink:href="#DejaVuSans-115"/>
     <use x="550.878906" xlink:href="#DejaVuSans-116"/>
     <use x="590.087891" xlink:href="#DejaVuSans-97"/>
     <use x="651.367188" xlink:href="#DejaVuSans-44"/>
     <use x="683.154297" xlink:href="#DejaVuSans-32"/>
     <use x="714.941406" xlink:href="#DejaVuSans-67"/>
     <use x="784.765625" xlink:href="#DejaVuSans-65"/>
    </g>
   </g>
   <g id="text_49">
    <!-- San Francisco, CA -->
    <g style="fill:#cc7af4;" transform="translate(467.397433 575.058983)scale(0.08 -0.08)">
     <use xlink:href="#DejaVuSans-83"/>
     <use x="63.476562" xlink:href="#DejaVuSans-97"/>
     <use x="124.755859" xlink:href="#DejaVuSans-110"/>
     <use x="188.134766" xlink:href="#DejaVuSans-32"/>
     <use x="219.921875" xlink:href="#DejaVuSans-70"/>
     <use x="270.191406" xlink:href="#DejaVuSans-114"/>
     <use x="311.304688" xlink:href="#DejaVuSans-97"/>
     <use x="372.583984" xlink:href="#DejaVuSans-110"/>
     <use x="435.962891" xlink:href="#DejaVuSans-99"/>
     <use x="490.943359" xlink:href="#DejaVuSans-105"/>
     <use x="518.726562" xlink:href="#DejaVuSans-115"/>
     <use x="570.826172" xlink:href="#DejaVuSans-99"/>
     <use x="625.806641" xlink:href="#DejaVuSans-111"/>
     <use x="686.988281" xlink:href="#DejaVuSans-44"/>
     <use x="718.775391" xlink:href="#DejaVuSans-32"/>
     <use x="750.5625" xlink:href="#DejaVuSans-67"/>
     <use x="820.386719" xlink:href="#DejaVuSans-65"/>
    </g>
   </g>
   <g id="text_50">
    <!-- Bay area counties -->
    <g style="fill:#ffffff;" transform="translate(257.2375 436.293333)scale(0.12 -0.12)">
     <use xlink:href="#DejaVuSans-66"/>
     <use x="68.603516" xlink:href="#DejaVuSans-97"/>
     <use x="129.882812" xlink:href="#DejaVuSans-121"/>
     <use x="189.0625" xlink:href="#DejaVuSans-32"/>
     <use x="220.849609" xlink:href="#DejaVuSans-97"/>
     <use x="282.128906" xlink:href="#DejaVuSans-114"/>
     <use x="320.992188" xlink:href="#DejaVuSans-101"/>
     <use x="382.515625" xlink:href="#DejaVuSans-97"/>
     <use x="443.794922" xlink:href="#DejaVuSans-32"/>
     <use x="475.582031" xlink:href="#DejaVuSans-99"/>
     <use x="530.5625" xlink:href="#DejaVuSans-111"/>
     <use x="591.744141" xlink:href="#DejaVuSans-117"/>
     <use x="655.123047" xlink:href="#DejaVuSans-110"/>
     <use x="718.501953" xlink:href="#DejaVuSans-116"/>
     <use x="757.710938" xlink:href="#DejaVuSans-105"/>
     <use x="785.494141" xlink:href="#DejaVuSans-101"/>
     <use x="847.017578" xlink:href="#DejaVuSans-115"/>
    </g>
   </g>
  </g>
 </g>
 <defs>
  <clipPath id="p1ca7471730">
   <rect height="163.746667" width="508.03" x="57.17" y="26.88"/>
  </clipPath>
  <clipPath id="p0058a6216e">
   <rect height="163.746667" width="508.03" x="57.17" y="234.586667"/>
  </clipPath>
  <clipPath id="pa3f62174ed">
   <rect height="163.746667" width="508.03" x="57.17" y="442.293333"/>
  </clipPath>
 </defs>
</svg>
