<?xml version="1.0" encoding="utf-8" standalone="no"?>
<!DOCTYPE svg PUBLIC "-//W3C//DTD SVG 1.1//EN"
  "http://www.w3.org/Graphics/SVG/1.1/DTD/svg11.dtd">
<!-- Created with matplotlib (https://matplotlib.org/) -->
<svg height="648pt" version="1.1" viewBox="0 0 576 648" width="576pt" xmlns="http://www.w3.org/2000/svg" xmlns:xlink="http://www.w3.org/1999/xlink">
 <defs>
  <style type="text/css">
*{stroke-linecap:butt;stroke-linejoin:round;}
  </style>
 </defs>
 <g id="figure_1">
  <g id="patch_1">
   <path d="M 0 648 
L 576 648 
L 576 0 
L 0 0 
z
"/>
  </g>
  <g id="axes_1">
   <g id="patch_2">
    <path d="M 57.17 190.626667 
L 565.2 190.626667 
L 565.2 26.88 
L 57.17 26.88 
z
"/>
   </g>
   <g id="PolyCollection_1">
    <defs>
     <path d="M 421.417925 -601.184477 
L 421.417925 -601.184477 
L 429.086302 -601.184477 
L 436.754679 -601.219631 
L 444.423057 -601.708665 
L 452.091434 -602.17658 
L 459.759811 -601.184477 
L 459.759811 -613.67697 
L 459.759811 -613.67697 
L 452.091434 -609.64148 
L 444.423057 -607.88497 
L 436.754679 -606.163184 
L 429.086302 -604.093578 
L 421.417925 -601.184477 
z
" id="ma69f7aff2c" style="stroke:#f77189;stroke-opacity:0.1;"/>
    </defs>
    <g clip-path="url(#pf8c509bce2)">
     <use style="fill:#f77189;fill-opacity:0.1;stroke:#f77189;stroke-opacity:0.1;" x="0" xlink:href="#ma69f7aff2c" y="648"/>
    </g>
   </g>
   <g id="PolyCollection_2">
    <defs>
     <path d="M 421.417925 -597.767563 
L 421.417925 -597.767563 
L 429.086302 -597.767563 
L 436.754679 -598.63344 
L 444.423057 -600.242846 
L 452.091434 -601.22125 
L 459.759811 -601.238107 
L 459.759811 -609.850354 
L 459.759811 -609.850354 
L 452.091434 -606.434646 
L 444.423057 -603.989325 
L 436.754679 -602.183719 
L 429.086302 -600.399087 
L 421.417925 -597.767563 
z
" id="m767e050f56" style="stroke:#ae9d31;stroke-opacity:0.1;"/>
    </defs>
    <g clip-path="url(#pf8c509bce2)">
     <use style="fill:#ae9d31;fill-opacity:0.1;stroke:#ae9d31;stroke-opacity:0.1;" x="0" xlink:href="#m767e050f56" y="648"/>
    </g>
   </g>
   <g id="PolyCollection_3">
    <defs>
     <path d="M 421.417925 -552.730729 
L 421.417925 -552.730729 
L 429.086302 -552.730729 
L 436.754679 -552.730729 
L 444.423057 -553.52482 
L 452.091434 -554.253826 
L 459.759811 -554.389192 
L 459.759811 -559.858651 
L 459.759811 -559.858651 
L 452.091434 -558.191367 
L 444.423057 -557.131286 
L 436.754679 -556.277961 
L 429.086302 -554.73922 
L 421.417925 -552.730729 
z
" id="m6cb8908d6a" style="stroke:#33b07a;stroke-opacity:0.1;"/>
    </defs>
    <g clip-path="url(#pf8c509bce2)">
     <use style="fill:#33b07a;fill-opacity:0.1;stroke:#33b07a;stroke-opacity:0.1;" x="0" xlink:href="#m6cb8908d6a" y="648"/>
    </g>
   </g>
   <g id="PolyCollection_4">
    <defs>
     <path d="M 421.417925 -520.863255 
L 421.417925 -520.863255 
L 429.086302 -520.863255 
L 436.754679 -521.318131 
L 444.423057 -522.917316 
L 452.091434 -524.33249 
L 459.759811 -524.202808 
L 459.759811 -529.354292 
L 459.759811 -529.354292 
L 452.091434 -526.64064 
L 444.423057 -525.503923 
L 436.754679 -524.584962 
L 429.086302 -523.532683 
L 421.417925 -520.863255 
z
" id="me3ed454cc9" style="stroke:#38a9c5;stroke-opacity:0.1;"/>
    </defs>
    <g clip-path="url(#pf8c509bce2)">
     <use style="fill:#38a9c5;fill-opacity:0.1;stroke:#38a9c5;stroke-opacity:0.1;" x="0" xlink:href="#me3ed454cc9" y="648"/>
    </g>
   </g>
   <g id="PolyCollection_5">
    <defs>
     <path d="M 421.417925 -512.226054 
L 421.417925 -512.226054 
L 429.086302 -512.387165 
L 436.754679 -512.946814 
L 444.423057 -514.297541 
L 452.091434 -514.457763 
L 459.759811 -516.733592 
L 459.759811 -526.856829 
L 459.759811 -526.856829 
L 452.091434 -525.125346 
L 444.423057 -521.337452 
L 436.754679 -518.783441 
L 429.086302 -515.479683 
L 421.417925 -512.226054 
z
" id="m3ab8b1b5bd" style="stroke:#cc7af4;stroke-opacity:0.1;"/>
    </defs>
    <g clip-path="url(#pf8c509bce2)">
     <use style="fill:#cc7af4;fill-opacity:0.1;stroke:#cc7af4;stroke-opacity:0.1;" x="0" xlink:href="#m3ab8b1b5bd" y="648"/>
    </g>
   </g>
   <g id="matplotlib.axis_1">
    <g id="xtick_1">
     <g id="line2d_1">
      <defs>
       <path d="M 0 0 
L 0 3.5 
" id="m03dd60edcb" style="stroke:#ffffff;stroke-width:0.8;"/>
      </defs>
      <g>
       <use style="fill:#ffffff;stroke:#ffffff;stroke-width:0.8;" x="76.340943" xlink:href="#m03dd60edcb" y="190.626667"/>
      </g>
     </g>
     <g id="text_1">
      <!-- 3/22 -->
      <defs>
       <path d="M 40.578125 39.3125 
Q 47.65625 37.796875 51.625 33 
Q 55.609375 28.21875 55.609375 21.1875 
Q 55.609375 10.40625 48.1875 4.484375 
Q 40.765625 -1.421875 27.09375 -1.421875 
Q 22.515625 -1.421875 17.65625 -0.515625 
Q 12.796875 0.390625 7.625 2.203125 
L 7.625 11.71875 
Q 11.71875 9.328125 16.59375 8.109375 
Q 21.484375 6.890625 26.8125 6.890625 
Q 36.078125 6.890625 40.9375 10.546875 
Q 45.796875 14.203125 45.796875 21.1875 
Q 45.796875 27.640625 41.28125 31.265625 
Q 36.765625 34.90625 28.71875 34.90625 
L 20.21875 34.90625 
L 20.21875 43.015625 
L 29.109375 43.015625 
Q 36.375 43.015625 40.234375 45.921875 
Q 44.09375 48.828125 44.09375 54.296875 
Q 44.09375 59.90625 40.109375 62.90625 
Q 36.140625 65.921875 28.71875 65.921875 
Q 24.65625 65.921875 20.015625 65.03125 
Q 15.375 64.15625 9.8125 62.3125 
L 9.8125 71.09375 
Q 15.4375 72.65625 20.34375 73.4375 
Q 25.25 74.21875 29.59375 74.21875 
Q 40.828125 74.21875 47.359375 69.109375 
Q 53.90625 64.015625 53.90625 55.328125 
Q 53.90625 49.265625 50.4375 45.09375 
Q 46.96875 40.921875 40.578125 39.3125 
z
" id="DejaVuSans-51"/>
       <path d="M 25.390625 72.90625 
L 33.6875 72.90625 
L 8.296875 -9.28125 
L 0 -9.28125 
z
" id="DejaVuSans-47"/>
       <path d="M 19.1875 8.296875 
L 53.609375 8.296875 
L 53.609375 0 
L 7.328125 0 
L 7.328125 8.296875 
Q 12.9375 14.109375 22.625 23.890625 
Q 32.328125 33.6875 34.8125 36.53125 
Q 39.546875 41.84375 41.421875 45.53125 
Q 43.3125 49.21875 43.3125 52.78125 
Q 43.3125 58.59375 39.234375 62.25 
Q 35.15625 65.921875 28.609375 65.921875 
Q 23.96875 65.921875 18.8125 64.3125 
Q 13.671875 62.703125 7.8125 59.421875 
L 7.8125 69.390625 
Q 13.765625 71.78125 18.9375 73 
Q 24.125 74.21875 28.421875 74.21875 
Q 39.75 74.21875 46.484375 68.546875 
Q 53.21875 62.890625 53.21875 53.421875 
Q 53.21875 48.921875 51.53125 44.890625 
Q 49.859375 40.875 45.40625 35.40625 
Q 44.1875 33.984375 37.640625 27.21875 
Q 31.109375 20.453125 19.1875 8.296875 
z
" id="DejaVuSans-50"/>
      </defs>
      <g style="fill:#ffffff;" transform="translate(65.112818 205.225104)scale(0.1 -0.1)">
       <use xlink:href="#DejaVuSans-51"/>
       <use x="63.623047" xlink:href="#DejaVuSans-47"/>
       <use x="97.314453" xlink:href="#DejaVuSans-50"/>
       <use x="160.9375" xlink:href="#DejaVuSans-50"/>
      </g>
     </g>
    </g>
    <g id="xtick_2">
     <g id="line2d_2">
      <g>
       <use style="fill:#ffffff;stroke:#ffffff;stroke-width:0.8;" x="421.417925" xlink:href="#m03dd60edcb" y="190.626667"/>
      </g>
     </g>
     <g id="text_2">
      <!-- 5/7 -->
      <defs>
       <path d="M 10.796875 72.90625 
L 49.515625 72.90625 
L 49.515625 64.59375 
L 19.828125 64.59375 
L 19.828125 46.734375 
Q 21.96875 47.46875 24.109375 47.828125 
Q 26.265625 48.1875 28.421875 48.1875 
Q 40.625 48.1875 47.75 41.5 
Q 54.890625 34.8125 54.890625 23.390625 
Q 54.890625 11.625 47.5625 5.09375 
Q 40.234375 -1.421875 26.90625 -1.421875 
Q 22.3125 -1.421875 17.546875 -0.640625 
Q 12.796875 0.140625 7.71875 1.703125 
L 7.71875 11.625 
Q 12.109375 9.234375 16.796875 8.0625 
Q 21.484375 6.890625 26.703125 6.890625 
Q 35.15625 6.890625 40.078125 11.328125 
Q 45.015625 15.765625 45.015625 23.390625 
Q 45.015625 31 40.078125 35.4375 
Q 35.15625 39.890625 26.703125 39.890625 
Q 22.75 39.890625 18.8125 39.015625 
Q 14.890625 38.140625 10.796875 36.28125 
z
" id="DejaVuSans-53"/>
       <path d="M 8.203125 72.90625 
L 55.078125 72.90625 
L 55.078125 68.703125 
L 28.609375 0 
L 18.3125 0 
L 43.21875 64.59375 
L 8.203125 64.59375 
z
" id="DejaVuSans-55"/>
      </defs>
      <g style="fill:#ffffff;" transform="translate(413.37105 205.225104)scale(0.1 -0.1)">
       <use xlink:href="#DejaVuSans-53"/>
       <use x="63.623047" xlink:href="#DejaVuSans-47"/>
       <use x="97.314453" xlink:href="#DejaVuSans-55"/>
      </g>
     </g>
    </g>
    <g id="xtick_3">
     <g id="line2d_3">
      <g>
       <use style="fill:#ffffff;stroke:#ffffff;stroke-width:0.8;" x="459.759811" xlink:href="#m03dd60edcb" y="190.626667"/>
      </g>
     </g>
     <g id="text_3">
      <!-- 5/12 -->
      <defs>
       <path d="M 12.40625 8.296875 
L 28.515625 8.296875 
L 28.515625 63.921875 
L 10.984375 60.40625 
L 10.984375 69.390625 
L 28.421875 72.90625 
L 38.28125 72.90625 
L 38.28125 8.296875 
L 54.390625 8.296875 
L 54.390625 0 
L 12.40625 0 
z
" id="DejaVuSans-49"/>
      </defs>
      <g style="fill:#ffffff;" transform="translate(448.531686 205.225104)scale(0.1 -0.1)">
       <use xlink:href="#DejaVuSans-53"/>
       <use x="63.623047" xlink:href="#DejaVuSans-47"/>
       <use x="97.314453" xlink:href="#DejaVuSans-49"/>
       <use x="160.9375" xlink:href="#DejaVuSans-50"/>
      </g>
     </g>
    </g>
   </g>
   <g id="matplotlib.axis_2">
    <g id="ytick_1">
     <g id="line2d_4">
      <defs>
       <path d="M 0 0 
L -3.5 0 
" id="mdac1fd2bc5" style="stroke:#ffffff;stroke-width:0.8;"/>
      </defs>
      <g>
       <use style="fill:#ffffff;stroke:#ffffff;stroke-width:0.8;" x="57.17" xlink:href="#mdac1fd2bc5" y="183.326008"/>
      </g>
     </g>
     <g id="text_4">
      <!-- 0 -->
      <defs>
       <path d="M 31.78125 66.40625 
Q 24.171875 66.40625 20.328125 58.90625 
Q 16.5 51.421875 16.5 36.375 
Q 16.5 21.390625 20.328125 13.890625 
Q 24.171875 6.390625 31.78125 6.390625 
Q 39.453125 6.390625 43.28125 13.890625 
Q 47.125 21.390625 47.125 36.375 
Q 47.125 51.421875 43.28125 58.90625 
Q 39.453125 66.40625 31.78125 66.40625 
z
M 31.78125 74.21875 
Q 44.046875 74.21875 50.515625 64.515625 
Q 56.984375 54.828125 56.984375 36.375 
Q 56.984375 17.96875 50.515625 8.265625 
Q 44.046875 -1.421875 31.78125 -1.421875 
Q 19.53125 -1.421875 13.0625 8.265625 
Q 6.59375 17.96875 6.59375 36.375 
Q 6.59375 54.828125 13.0625 64.515625 
Q 19.53125 74.21875 31.78125 74.21875 
z
" id="DejaVuSans-48"/>
      </defs>
      <g style="fill:#ffffff;" transform="translate(43.8075 187.125227)scale(0.1 -0.1)">
       <use xlink:href="#DejaVuSans-48"/>
      </g>
     </g>
    </g>
    <g id="ytick_2">
     <g id="line2d_5">
      <g>
       <use style="fill:#ffffff;stroke:#ffffff;stroke-width:0.8;" x="57.17" xlink:href="#mdac1fd2bc5" y="159.597434"/>
      </g>
     </g>
     <g id="text_5">
      <!-- 1000 -->
      <g style="fill:#ffffff;" transform="translate(24.72 163.396653)scale(0.1 -0.1)">
       <use xlink:href="#DejaVuSans-49"/>
       <use x="63.623047" xlink:href="#DejaVuSans-48"/>
       <use x="127.246094" xlink:href="#DejaVuSans-48"/>
       <use x="190.869141" xlink:href="#DejaVuSans-48"/>
      </g>
     </g>
    </g>
    <g id="ytick_3">
     <g id="line2d_6">
      <g>
       <use style="fill:#ffffff;stroke:#ffffff;stroke-width:0.8;" x="57.17" xlink:href="#mdac1fd2bc5" y="135.86886"/>
      </g>
     </g>
     <g id="text_6">
      <!-- 2000 -->
      <g style="fill:#ffffff;" transform="translate(24.72 139.668079)scale(0.1 -0.1)">
       <use xlink:href="#DejaVuSans-50"/>
       <use x="63.623047" xlink:href="#DejaVuSans-48"/>
       <use x="127.246094" xlink:href="#DejaVuSans-48"/>
       <use x="190.869141" xlink:href="#DejaVuSans-48"/>
      </g>
     </g>
    </g>
    <g id="ytick_4">
     <g id="line2d_7">
      <g>
       <use style="fill:#ffffff;stroke:#ffffff;stroke-width:0.8;" x="57.17" xlink:href="#mdac1fd2bc5" y="112.140286"/>
      </g>
     </g>
     <g id="text_7">
      <!-- 3000 -->
      <g style="fill:#ffffff;" transform="translate(24.72 115.939505)scale(0.1 -0.1)">
       <use xlink:href="#DejaVuSans-51"/>
       <use x="63.623047" xlink:href="#DejaVuSans-48"/>
       <use x="127.246094" xlink:href="#DejaVuSans-48"/>
       <use x="190.869141" xlink:href="#DejaVuSans-48"/>
      </g>
     </g>
    </g>
    <g id="ytick_5">
     <g id="line2d_8">
      <g>
       <use style="fill:#ffffff;stroke:#ffffff;stroke-width:0.8;" x="57.17" xlink:href="#mdac1fd2bc5" y="88.411713"/>
      </g>
     </g>
     <g id="text_8">
      <!-- 4000 -->
      <defs>
       <path d="M 37.796875 64.3125 
L 12.890625 25.390625 
L 37.796875 25.390625 
z
M 35.203125 72.90625 
L 47.609375 72.90625 
L 47.609375 25.390625 
L 58.015625 25.390625 
L 58.015625 17.1875 
L 47.609375 17.1875 
L 47.609375 0 
L 37.796875 0 
L 37.796875 17.1875 
L 4.890625 17.1875 
L 4.890625 26.703125 
z
" id="DejaVuSans-52"/>
      </defs>
      <g style="fill:#ffffff;" transform="translate(24.72 92.210931)scale(0.1 -0.1)">
       <use xlink:href="#DejaVuSans-52"/>
       <use x="63.623047" xlink:href="#DejaVuSans-48"/>
       <use x="127.246094" xlink:href="#DejaVuSans-48"/>
       <use x="190.869141" xlink:href="#DejaVuSans-48"/>
      </g>
     </g>
    </g>
    <g id="ytick_6">
     <g id="line2d_9">
      <g>
       <use style="fill:#ffffff;stroke:#ffffff;stroke-width:0.8;" x="57.17" xlink:href="#mdac1fd2bc5" y="64.683139"/>
      </g>
     </g>
     <g id="text_9">
      <!-- 5000 -->
      <g style="fill:#ffffff;" transform="translate(24.72 68.482358)scale(0.1 -0.1)">
       <use xlink:href="#DejaVuSans-53"/>
       <use x="63.623047" xlink:href="#DejaVuSans-48"/>
       <use x="127.246094" xlink:href="#DejaVuSans-48"/>
       <use x="190.869141" xlink:href="#DejaVuSans-48"/>
      </g>
     </g>
    </g>
    <g id="ytick_7">
     <g id="line2d_10">
      <g>
       <use style="fill:#ffffff;stroke:#ffffff;stroke-width:0.8;" x="57.17" xlink:href="#mdac1fd2bc5" y="40.954565"/>
      </g>
     </g>
     <g id="text_10">
      <!-- 6000 -->
      <defs>
       <path d="M 33.015625 40.375 
Q 26.375 40.375 22.484375 35.828125 
Q 18.609375 31.296875 18.609375 23.390625 
Q 18.609375 15.53125 22.484375 10.953125 
Q 26.375 6.390625 33.015625 6.390625 
Q 39.65625 6.390625 43.53125 10.953125 
Q 47.40625 15.53125 47.40625 23.390625 
Q 47.40625 31.296875 43.53125 35.828125 
Q 39.65625 40.375 33.015625 40.375 
z
M 52.59375 71.296875 
L 52.59375 62.3125 
Q 48.875 64.0625 45.09375 64.984375 
Q 41.3125 65.921875 37.59375 65.921875 
Q 27.828125 65.921875 22.671875 59.328125 
Q 17.53125 52.734375 16.796875 39.40625 
Q 19.671875 43.65625 24.015625 45.921875 
Q 28.375 48.1875 33.59375 48.1875 
Q 44.578125 48.1875 50.953125 41.515625 
Q 57.328125 34.859375 57.328125 23.390625 
Q 57.328125 12.15625 50.6875 5.359375 
Q 44.046875 -1.421875 33.015625 -1.421875 
Q 20.359375 -1.421875 13.671875 8.265625 
Q 6.984375 17.96875 6.984375 36.375 
Q 6.984375 53.65625 15.1875 63.9375 
Q 23.390625 74.21875 37.203125 74.21875 
Q 40.921875 74.21875 44.703125 73.484375 
Q 48.484375 72.75 52.59375 71.296875 
z
" id="DejaVuSans-54"/>
      </defs>
      <g style="fill:#ffffff;" transform="translate(24.72 44.753784)scale(0.1 -0.1)">
       <use xlink:href="#DejaVuSans-54"/>
       <use x="63.623047" xlink:href="#DejaVuSans-48"/>
       <use x="127.246094" xlink:href="#DejaVuSans-48"/>
       <use x="190.869141" xlink:href="#DejaVuSans-48"/>
      </g>
     </g>
    </g>
    <g id="text_11">
     <!-- Cumulative deaths -->
     <defs>
      <path d="M 64.40625 67.28125 
L 64.40625 56.890625 
Q 59.421875 61.53125 53.78125 63.8125 
Q 48.140625 66.109375 41.796875 66.109375 
Q 29.296875 66.109375 22.65625 58.46875 
Q 16.015625 50.828125 16.015625 36.375 
Q 16.015625 21.96875 22.65625 14.328125 
Q 29.296875 6.6875 41.796875 6.6875 
Q 48.140625 6.6875 53.78125 8.984375 
Q 59.421875 11.28125 64.40625 15.921875 
L 64.40625 5.609375 
Q 59.234375 2.09375 53.4375 0.328125 
Q 47.65625 -1.421875 41.21875 -1.421875 
Q 24.65625 -1.421875 15.125 8.703125 
Q 5.609375 18.84375 5.609375 36.375 
Q 5.609375 53.953125 15.125 64.078125 
Q 24.65625 74.21875 41.21875 74.21875 
Q 47.75 74.21875 53.53125 72.484375 
Q 59.328125 70.75 64.40625 67.28125 
z
" id="DejaVuSans-67"/>
      <path d="M 8.5 21.578125 
L 8.5 54.6875 
L 17.484375 54.6875 
L 17.484375 21.921875 
Q 17.484375 14.15625 20.5 10.265625 
Q 23.53125 6.390625 29.59375 6.390625 
Q 36.859375 6.390625 41.078125 11.03125 
Q 45.3125 15.671875 45.3125 23.6875 
L 45.3125 54.6875 
L 54.296875 54.6875 
L 54.296875 0 
L 45.3125 0 
L 45.3125 8.40625 
Q 42.046875 3.421875 37.71875 1 
Q 33.40625 -1.421875 27.6875 -1.421875 
Q 18.265625 -1.421875 13.375 4.4375 
Q 8.5 10.296875 8.5 21.578125 
z
M 31.109375 56 
z
" id="DejaVuSans-117"/>
      <path d="M 52 44.1875 
Q 55.375 50.25 60.0625 53.125 
Q 64.75 56 71.09375 56 
Q 79.640625 56 84.28125 50.015625 
Q 88.921875 44.046875 88.921875 33.015625 
L 88.921875 0 
L 79.890625 0 
L 79.890625 32.71875 
Q 79.890625 40.578125 77.09375 44.375 
Q 74.3125 48.1875 68.609375 48.1875 
Q 61.625 48.1875 57.5625 43.546875 
Q 53.515625 38.921875 53.515625 30.90625 
L 53.515625 0 
L 44.484375 0 
L 44.484375 32.71875 
Q 44.484375 40.625 41.703125 44.40625 
Q 38.921875 48.1875 33.109375 48.1875 
Q 26.21875 48.1875 22.15625 43.53125 
Q 18.109375 38.875 18.109375 30.90625 
L 18.109375 0 
L 9.078125 0 
L 9.078125 54.6875 
L 18.109375 54.6875 
L 18.109375 46.1875 
Q 21.1875 51.21875 25.484375 53.609375 
Q 29.78125 56 35.6875 56 
Q 41.65625 56 45.828125 52.96875 
Q 50 49.953125 52 44.1875 
z
" id="DejaVuSans-109"/>
      <path d="M 9.421875 75.984375 
L 18.40625 75.984375 
L 18.40625 0 
L 9.421875 0 
z
" id="DejaVuSans-108"/>
      <path d="M 34.28125 27.484375 
Q 23.390625 27.484375 19.1875 25 
Q 14.984375 22.515625 14.984375 16.5 
Q 14.984375 11.71875 18.140625 8.90625 
Q 21.296875 6.109375 26.703125 6.109375 
Q 34.1875 6.109375 38.703125 11.40625 
Q 43.21875 16.703125 43.21875 25.484375 
L 43.21875 27.484375 
z
M 52.203125 31.203125 
L 52.203125 0 
L 43.21875 0 
L 43.21875 8.296875 
Q 40.140625 3.328125 35.546875 0.953125 
Q 30.953125 -1.421875 24.3125 -1.421875 
Q 15.921875 -1.421875 10.953125 3.296875 
Q 6 8.015625 6 15.921875 
Q 6 25.140625 12.171875 29.828125 
Q 18.359375 34.515625 30.609375 34.515625 
L 43.21875 34.515625 
L 43.21875 35.40625 
Q 43.21875 41.609375 39.140625 45 
Q 35.0625 48.390625 27.6875 48.390625 
Q 23 48.390625 18.546875 47.265625 
Q 14.109375 46.140625 10.015625 43.890625 
L 10.015625 52.203125 
Q 14.9375 54.109375 19.578125 55.046875 
Q 24.21875 56 28.609375 56 
Q 40.484375 56 46.34375 49.84375 
Q 52.203125 43.703125 52.203125 31.203125 
z
" id="DejaVuSans-97"/>
      <path d="M 18.3125 70.21875 
L 18.3125 54.6875 
L 36.8125 54.6875 
L 36.8125 47.703125 
L 18.3125 47.703125 
L 18.3125 18.015625 
Q 18.3125 11.328125 20.140625 9.421875 
Q 21.96875 7.515625 27.59375 7.515625 
L 36.8125 7.515625 
L 36.8125 0 
L 27.59375 0 
Q 17.1875 0 13.234375 3.875 
Q 9.28125 7.765625 9.28125 18.015625 
L 9.28125 47.703125 
L 2.6875 47.703125 
L 2.6875 54.6875 
L 9.28125 54.6875 
L 9.28125 70.21875 
z
" id="DejaVuSans-116"/>
      <path d="M 9.421875 54.6875 
L 18.40625 54.6875 
L 18.40625 0 
L 9.421875 0 
z
M 9.421875 75.984375 
L 18.40625 75.984375 
L 18.40625 64.59375 
L 9.421875 64.59375 
z
" id="DejaVuSans-105"/>
      <path d="M 2.984375 54.6875 
L 12.5 54.6875 
L 29.59375 8.796875 
L 46.6875 54.6875 
L 56.203125 54.6875 
L 35.6875 0 
L 23.484375 0 
z
" id="DejaVuSans-118"/>
      <path d="M 56.203125 29.59375 
L 56.203125 25.203125 
L 14.890625 25.203125 
Q 15.484375 15.921875 20.484375 11.0625 
Q 25.484375 6.203125 34.421875 6.203125 
Q 39.59375 6.203125 44.453125 7.46875 
Q 49.3125 8.734375 54.109375 11.28125 
L 54.109375 2.78125 
Q 49.265625 0.734375 44.1875 -0.34375 
Q 39.109375 -1.421875 33.890625 -1.421875 
Q 20.796875 -1.421875 13.15625 6.1875 
Q 5.515625 13.8125 5.515625 26.8125 
Q 5.515625 40.234375 12.765625 48.109375 
Q 20.015625 56 32.328125 56 
Q 43.359375 56 49.78125 48.890625 
Q 56.203125 41.796875 56.203125 29.59375 
z
M 47.21875 32.234375 
Q 47.125 39.59375 43.09375 43.984375 
Q 39.0625 48.390625 32.421875 48.390625 
Q 24.90625 48.390625 20.390625 44.140625 
Q 15.875 39.890625 15.1875 32.171875 
z
" id="DejaVuSans-101"/>
      <path id="DejaVuSans-32"/>
      <path d="M 45.40625 46.390625 
L 45.40625 75.984375 
L 54.390625 75.984375 
L 54.390625 0 
L 45.40625 0 
L 45.40625 8.203125 
Q 42.578125 3.328125 38.25 0.953125 
Q 33.9375 -1.421875 27.875 -1.421875 
Q 17.96875 -1.421875 11.734375 6.484375 
Q 5.515625 14.40625 5.515625 27.296875 
Q 5.515625 40.1875 11.734375 48.09375 
Q 17.96875 56 27.875 56 
Q 33.9375 56 38.25 53.625 
Q 42.578125 51.265625 45.40625 46.390625 
z
M 14.796875 27.296875 
Q 14.796875 17.390625 18.875 11.75 
Q 22.953125 6.109375 30.078125 6.109375 
Q 37.203125 6.109375 41.296875 11.75 
Q 45.40625 17.390625 45.40625 27.296875 
Q 45.40625 37.203125 41.296875 42.84375 
Q 37.203125 48.484375 30.078125 48.484375 
Q 22.953125 48.484375 18.875 42.84375 
Q 14.796875 37.203125 14.796875 27.296875 
z
" id="DejaVuSans-100"/>
      <path d="M 54.890625 33.015625 
L 54.890625 0 
L 45.90625 0 
L 45.90625 32.71875 
Q 45.90625 40.484375 42.875 44.328125 
Q 39.84375 48.1875 33.796875 48.1875 
Q 26.515625 48.1875 22.3125 43.546875 
Q 18.109375 38.921875 18.109375 30.90625 
L 18.109375 0 
L 9.078125 0 
L 9.078125 75.984375 
L 18.109375 75.984375 
L 18.109375 46.1875 
Q 21.34375 51.125 25.703125 53.5625 
Q 30.078125 56 35.796875 56 
Q 45.21875 56 50.046875 50.171875 
Q 54.890625 44.34375 54.890625 33.015625 
z
" id="DejaVuSans-104"/>
      <path d="M 44.28125 53.078125 
L 44.28125 44.578125 
Q 40.484375 46.53125 36.375 47.5 
Q 32.28125 48.484375 27.875 48.484375 
Q 21.1875 48.484375 17.84375 46.4375 
Q 14.5 44.390625 14.5 40.28125 
Q 14.5 37.15625 16.890625 35.375 
Q 19.28125 33.59375 26.515625 31.984375 
L 29.59375 31.296875 
Q 39.15625 29.25 43.1875 25.515625 
Q 47.21875 21.78125 47.21875 15.09375 
Q 47.21875 7.46875 41.1875 3.015625 
Q 35.15625 -1.421875 24.609375 -1.421875 
Q 20.21875 -1.421875 15.453125 -0.5625 
Q 10.6875 0.296875 5.421875 2 
L 5.421875 11.28125 
Q 10.40625 8.6875 15.234375 7.390625 
Q 20.0625 6.109375 24.8125 6.109375 
Q 31.15625 6.109375 34.5625 8.28125 
Q 37.984375 10.453125 37.984375 14.40625 
Q 37.984375 18.0625 35.515625 20.015625 
Q 33.0625 21.96875 24.703125 23.78125 
L 21.578125 24.515625 
Q 13.234375 26.265625 9.515625 29.90625 
Q 5.8125 33.546875 5.8125 39.890625 
Q 5.8125 47.609375 11.28125 51.796875 
Q 16.75 56 26.8125 56 
Q 31.78125 56 36.171875 55.265625 
Q 40.578125 54.546875 44.28125 53.078125 
z
" id="DejaVuSans-115"/>
     </defs>
     <g style="fill:#ffffff;" transform="translate(18.640313 155.928333)rotate(-90)scale(0.1 -0.1)">
      <use xlink:href="#DejaVuSans-67"/>
      <use x="69.824219" xlink:href="#DejaVuSans-117"/>
      <use x="133.203125" xlink:href="#DejaVuSans-109"/>
      <use x="230.615234" xlink:href="#DejaVuSans-117"/>
      <use x="293.994141" xlink:href="#DejaVuSans-108"/>
      <use x="321.777344" xlink:href="#DejaVuSans-97"/>
      <use x="383.056641" xlink:href="#DejaVuSans-116"/>
      <use x="422.265625" xlink:href="#DejaVuSans-105"/>
      <use x="450.048828" xlink:href="#DejaVuSans-118"/>
      <use x="509.228516" xlink:href="#DejaVuSans-101"/>
      <use x="570.751953" xlink:href="#DejaVuSans-32"/>
      <use x="602.539062" xlink:href="#DejaVuSans-100"/>
      <use x="666.015625" xlink:href="#DejaVuSans-101"/>
      <use x="727.539062" xlink:href="#DejaVuSans-97"/>
      <use x="788.818359" xlink:href="#DejaVuSans-116"/>
      <use x="828.027344" xlink:href="#DejaVuSans-104"/>
      <use x="891.40625" xlink:href="#DejaVuSans-115"/>
     </g>
    </g>
   </g>
   <g id="line2d_11">
    <path clip-path="url(#pf8c509bce2)" d="M 76.340943 182.993808 
L 84.009321 182.685336 
L 91.677698 182.258222 
L 99.346075 181.807379 
L 107.014453 181.403993 
L 114.68283 180.905693 
L 122.351208 179.363336 
L 130.019585 178.936222 
L 137.687962 178.224364 
L 145.35634 177.13285 
L 153.024717 175.543036 
L 160.693094 174.190507 
L 168.361472 171.81765 
L 176.029849 168.851578 
L 183.698226 162.065206 
L 191.366604 159.075405 
L 199.034981 155.966962 
L 206.703358 152.17039 
L 214.371736 148.373819 
L 222.040113 144.411147 
L 229.708491 139.594246 
L 237.376868 135.20446 
L 245.045245 132.736689 
L 252.713623 108.486086 
L 260.382 104.143757 
L 268.050377 100.845485 
L 275.718755 98.496357 
L 283.387132 97.618399 
L 291.055509 87.771041 
L 298.723887 84.188027 
L 306.392264 80.154169 
L 314.060642 76.262683 
L 321.729019 73.035597 
L 329.397396 69.594954 
L 337.065774 65.205168 
L 344.734151 62.903496 
L 352.402528 60.791653 
L 360.070906 58.01541 
L 367.739283 56.805252 
L 375.40766 55.428995 
L 383.076038 54.100195 
L 390.744415 51.822252 
L 398.412792 49.68668 
L 406.08117 48.595166 
L 413.749547 47.005351 
L 421.417925 46.815523 
" style="fill:none;stroke:#f77189;stroke-linecap:square;stroke-width:1.5;"/>
   </g>
   <g id="line2d_12">
    <path clip-path="url(#pf8c509bce2)" d="M 421.417925 46.815523 
L 429.086302 45.391658 
L 436.754679 44.278982 
L 444.423057 43.1632 
L 452.091434 42.044512 
L 459.759811 40.926211 
" style="fill:none;stroke:#f77189;stroke-dasharray:1.5,2.475;stroke-dashoffset:0;stroke-width:1.5;"/>
   </g>
   <g id="line2d_13">
    <path clip-path="url(#pf8c509bce2)" d="M 76.340943 182.827708 
L 84.009321 182.376865 
L 91.677698 181.902293 
L 99.346075 181.142979 
L 107.014453 180.383665 
L 114.68283 179.79045 
L 122.351208 178.200636 
L 130.019585 177.322679 
L 137.687962 176.088793 
L 145.35634 174.404064 
L 153.024717 172.719335 
L 160.693094 171.485449 
L 168.361472 169.326149 
L 176.029849 167.071935 
L 183.698226 164.034677 
L 191.366604 160.83132 
L 199.034981 156.536448 
L 206.703358 151.434805 
L 214.371736 150.106005 
L 222.040113 141.587447 
L 229.708491 139.475603 
L 237.376868 133.116346 
L 245.045245 133.116346 
L 252.713623 113.374172 
L 260.382 107.204743 
L 268.050377 103.645457 
L 275.718755 102.031914 
L 283.387132 101.082771 
L 291.055509 91.306599 
L 298.723887 87.79477 
L 306.392264 83.571084 
L 314.060642 80.225355 
L 321.729019 77.425383 
L 329.397396 74.862697 
L 337.065774 71.255954 
L 344.734151 69.428854 
L 352.402528 67.767854 
L 360.070906 65.086525 
L 367.739283 63.022139 
L 375.40766 61.123853 
L 383.076038 59.84251 
L 390.744415 58.062867 
L 398.412792 55.547638 
L 406.08117 54.408666 
L 413.749547 53.767995 
L 421.417925 50.232437 
" style="fill:none;stroke:#ae9d31;stroke-linecap:square;stroke-width:1.5;"/>
   </g>
   <g id="line2d_14">
    <path clip-path="url(#pf8c509bce2)" d="M 421.417925 50.232437 
L 429.086302 49.28099 
L 436.754679 47.56644 
L 444.423057 45.850704 
L 452.091434 44.134293 
L 459.759811 42.419274 
" style="fill:none;stroke:#ae9d31;stroke-dasharray:1.5,2.475;stroke-dashoffset:0;stroke-width:1.5;"/>
   </g>
   <g id="line2d_15">
    <path clip-path="url(#pf8c509bce2)" d="M 76.340943 182.993808 
L 84.009321 182.661608 
L 91.677698 182.281951 
L 99.346075 181.902293 
L 107.014453 181.45145 
L 114.68283 180.929422 
L 122.351208 179.719265 
L 130.019585 178.865036 
L 137.687962 178.224364 
L 145.35634 177.109121 
L 153.024717 174.783721 
L 160.693094 173.336278 
L 168.361472 171.936292 
L 176.029849 169.658349 
L 183.698226 168.448192 
L 191.366604 166.502449 
L 199.034981 161.922834 
L 206.703358 159.573705 
L 214.371736 158.50592 
L 222.040113 153.878848 
L 229.708491 152.289033 
L 237.376868 150.106005 
L 245.045245 149.299233 
L 252.713623 135.726489 
L 260.382 132.238388 
L 268.050377 130.482474 
L 275.718755 129.035031 
L 283.387132 128.702831 
L 291.055509 121.963916 
L 298.723887 119.89953 
L 306.392264 117.550401 
L 314.060642 115.011444 
L 321.729019 112.140286 
L 329.397396 110.360643 
L 337.065774 108.0827 
L 344.734151 107.014915 
L 352.402528 105.377643 
L 360.070906 103.669186 
L 367.739283 102.648857 
L 375.40766 101.818357 
L 383.076038 101.296328 
L 390.744415 99.374314 
L 398.412792 97.737042 
L 406.08117 96.906542 
L 413.749547 96.218413 
L 421.417925 95.269271 
" style="fill:none;stroke:#33b07a;stroke-linecap:square;stroke-width:1.5;"/>
   </g>
   <g id="line2d_16">
    <path clip-path="url(#pf8c509bce2)" d="M 421.417925 95.269271 
L 429.086302 94.423374 
L 436.754679 93.525055 
L 444.423057 92.624705 
L 452.091434 91.723368 
L 459.759811 90.824004 
" style="fill:none;stroke:#33b07a;stroke-dasharray:1.5,2.475;stroke-dashoffset:0;stroke-width:1.5;"/>
   </g>
   <g id="line2d_17">
    <path clip-path="url(#pf8c509bce2)" d="M 76.340943 183.088722 
L 84.009321 182.875165 
L 91.677698 182.495508 
L 99.346075 182.305679 
L 107.014453 182.020936 
L 114.68283 181.783651 
L 122.351208 181.11925 
L 130.019585 180.881965 
L 137.687962 180.502308 
L 145.35634 180.265022 
L 153.024717 179.410793 
L 160.693094 179.102322 
L 168.361472 178.224364 
L 176.029849 177.061664 
L 183.698226 174.071864 
L 191.366604 172.98035 
L 199.034981 171.153249 
L 206.703358 168.993949 
L 214.371736 167.332949 
L 222.040113 165.98042 
L 229.708491 164.366877 
L 237.376868 163.180449 
L 245.045245 163.180449 
L 252.713623 152.526319 
L 260.382 152.028019 
L 268.050377 150.817862 
L 275.718755 150.082276 
L 283.387132 149.797533 
L 291.055509 146.095876 
L 298.723887 144.648433 
L 306.392264 143.414547 
L 314.060642 141.397618 
L 321.729019 140.329832 
L 329.397396 139.807804 
L 337.065774 137.007832 
L 344.734151 136.509532 
L 352.402528 135.892589 
L 360.070906 135.03836 
L 367.739283 134.445146 
L 375.40766 133.496003 
L 383.076038 132.736689 
L 390.744415 131.740088 
L 398.412792 131.004503 
L 406.08117 130.648574 
L 413.749547 129.699431 
L 421.417925 127.136745 
" style="fill:none;stroke:#38a9c5;stroke-linecap:square;stroke-width:1.5;"/>
   </g>
   <g id="line2d_18">
    <path clip-path="url(#pf8c509bce2)" d="M 421.417925 127.136745 
L 429.086302 126.073001 
L 436.754679 124.647186 
L 444.423057 123.253018 
L 452.091434 121.906225 
L 459.759811 120.644407 
" style="fill:none;stroke:#38a9c5;stroke-dasharray:1.5,2.475;stroke-dashoffset:0;stroke-width:1.5;"/>
   </g>
   <g id="line2d_19">
    <path clip-path="url(#pf8c509bce2)" d="M 76.340943 183.183636 
L 84.009321 183.112451 
L 91.677698 183.041265 
L 99.346075 183.017536 
L 107.014453 182.898893 
L 114.68283 182.851436 
L 122.351208 182.661608 
L 130.019585 182.376865 
L 137.687962 182.281951 
L 145.35634 181.878565 
L 153.024717 181.071793 
L 160.693094 180.78705 
L 168.361472 179.980279 
L 176.029849 179.363336 
L 183.698226 178.912493 
L 191.366604 178.366736 
L 199.034981 177.417593 
L 206.703358 175.922693 
L 214.371736 174.997278 
L 222.040113 173.882035 
L 229.708491 172.576964 
L 237.376868 171.81765 
L 245.045245 171.81765 
L 252.713623 169.634621 
L 260.382 168.377006 
L 268.050377 166.193978 
L 275.718755 165.292292 
L 283.387132 162.919434 
L 291.055509 162.516049 
L 298.723887 161.614363 
L 306.392264 159.549977 
L 314.060642 157.888977 
L 321.729019 156.227977 
L 329.397396 154.377148 
L 337.065774 153.261905 
L 344.734151 152.17039 
L 352.402528 151.363619 
L 360.070906 148.753476 
L 367.739283 147.35349 
L 375.40766 145.19419 
L 383.076038 143.628104 
L 390.744415 141.967104 
L 398.412792 140.946775 
L 406.08117 140.567118 
L 413.749547 137.719689 
L 421.417925 135.773946 
" style="fill:none;stroke:#cc7af4;stroke-linecap:square;stroke-width:1.5;"/>
   </g>
   <g id="line2d_20">
    <path clip-path="url(#pf8c509bce2)" d="M 421.417925 135.773946 
L 429.086302 134.011794 
L 436.754679 132.023278 
L 444.423057 130.030412 
L 452.091434 128.040989 
L 459.759811 126.053039 
" style="fill:none;stroke:#cc7af4;stroke-dasharray:1.5,2.475;stroke-dashoffset:0;stroke-width:1.5;"/>
   </g>
   <g id="patch_3">
    <path d="M 57.17 190.626667 
L 57.17 26.88 
" style="fill:none;stroke:#ffffff;stroke-linecap:square;stroke-linejoin:miter;stroke-width:0.8;"/>
   </g>
   <g id="patch_4">
    <path d="M 565.2 190.626667 
L 565.2 26.88 
" style="fill:none;stroke:#ffffff;stroke-linecap:square;stroke-linejoin:miter;stroke-width:0.8;"/>
   </g>
   <g id="patch_5">
    <path d="M 57.17 190.626667 
L 565.2 190.626667 
" style="fill:none;stroke:#ffffff;stroke-linecap:square;stroke-linejoin:miter;stroke-width:0.8;"/>
   </g>
   <g id="patch_6">
    <path d="M 57.17 26.88 
L 565.2 26.88 
" style="fill:none;stroke:#ffffff;stroke-linecap:square;stroke-linejoin:miter;stroke-width:0.8;"/>
   </g>
   <g id="text_12">
    <!-- Kings, NY -->
    <defs>
     <path d="M 9.8125 72.90625 
L 19.671875 72.90625 
L 19.671875 42.09375 
L 52.390625 72.90625 
L 65.09375 72.90625 
L 28.90625 38.921875 
L 67.671875 0 
L 54.6875 0 
L 19.671875 35.109375 
L 19.671875 0 
L 9.8125 0 
z
" id="DejaVuSans-75"/>
     <path d="M 54.890625 33.015625 
L 54.890625 0 
L 45.90625 0 
L 45.90625 32.71875 
Q 45.90625 40.484375 42.875 44.328125 
Q 39.84375 48.1875 33.796875 48.1875 
Q 26.515625 48.1875 22.3125 43.546875 
Q 18.109375 38.921875 18.109375 30.90625 
L 18.109375 0 
L 9.078125 0 
L 9.078125 54.6875 
L 18.109375 54.6875 
L 18.109375 46.1875 
Q 21.34375 51.125 25.703125 53.5625 
Q 30.078125 56 35.796875 56 
Q 45.21875 56 50.046875 50.171875 
Q 54.890625 44.34375 54.890625 33.015625 
z
" id="DejaVuSans-110"/>
     <path d="M 45.40625 27.984375 
Q 45.40625 37.75 41.375 43.109375 
Q 37.359375 48.484375 30.078125 48.484375 
Q 22.859375 48.484375 18.828125 43.109375 
Q 14.796875 37.75 14.796875 27.984375 
Q 14.796875 18.265625 18.828125 12.890625 
Q 22.859375 7.515625 30.078125 7.515625 
Q 37.359375 7.515625 41.375 12.890625 
Q 45.40625 18.265625 45.40625 27.984375 
z
M 54.390625 6.78125 
Q 54.390625 -7.171875 48.1875 -13.984375 
Q 42 -20.796875 29.203125 -20.796875 
Q 24.46875 -20.796875 20.265625 -20.09375 
Q 16.0625 -19.390625 12.109375 -17.921875 
L 12.109375 -9.1875 
Q 16.0625 -11.328125 19.921875 -12.34375 
Q 23.78125 -13.375 27.78125 -13.375 
Q 36.625 -13.375 41.015625 -8.765625 
Q 45.40625 -4.15625 45.40625 5.171875 
L 45.40625 9.625 
Q 42.625 4.78125 38.28125 2.390625 
Q 33.9375 0 27.875 0 
Q 17.828125 0 11.671875 7.65625 
Q 5.515625 15.328125 5.515625 27.984375 
Q 5.515625 40.671875 11.671875 48.328125 
Q 17.828125 56 27.875 56 
Q 33.9375 56 38.28125 53.609375 
Q 42.625 51.21875 45.40625 46.390625 
L 45.40625 54.6875 
L 54.390625 54.6875 
z
" id="DejaVuSans-103"/>
     <path d="M 11.71875 12.40625 
L 22.015625 12.40625 
L 22.015625 4 
L 14.015625 -11.625 
L 7.71875 -11.625 
L 11.71875 4 
z
" id="DejaVuSans-44"/>
     <path d="M 9.8125 72.90625 
L 23.09375 72.90625 
L 55.421875 11.921875 
L 55.421875 72.90625 
L 64.984375 72.90625 
L 64.984375 0 
L 51.703125 0 
L 19.390625 60.984375 
L 19.390625 0 
L 9.8125 0 
z
" id="DejaVuSans-78"/>
     <path d="M -0.203125 72.90625 
L 10.40625 72.90625 
L 30.609375 42.921875 
L 50.6875 72.90625 
L 61.28125 72.90625 
L 35.5 34.71875 
L 35.5 0 
L 25.59375 0 
L 25.59375 34.71875 
z
" id="DejaVuSans-89"/>
    </defs>
    <g style="fill:#f77189;" transform="translate(467.428189 38.482416)scale(0.08 -0.08)">
     <use xlink:href="#DejaVuSans-75"/>
     <use x="65.576172" xlink:href="#DejaVuSans-105"/>
     <use x="93.359375" xlink:href="#DejaVuSans-110"/>
     <use x="156.738281" xlink:href="#DejaVuSans-103"/>
     <use x="220.214844" xlink:href="#DejaVuSans-115"/>
     <use x="272.314453" xlink:href="#DejaVuSans-44"/>
     <use x="304.101562" xlink:href="#DejaVuSans-32"/>
     <use x="335.888672" xlink:href="#DejaVuSans-78"/>
     <use x="410.693359" xlink:href="#DejaVuSans-89"/>
    </g>
   </g>
   <g id="text_13">
    <!-- Queens, NY -->
    <defs>
     <path d="M 39.40625 66.21875 
Q 28.65625 66.21875 22.328125 58.203125 
Q 16.015625 50.203125 16.015625 36.375 
Q 16.015625 22.609375 22.328125 14.59375 
Q 28.65625 6.59375 39.40625 6.59375 
Q 50.140625 6.59375 56.421875 14.59375 
Q 62.703125 22.609375 62.703125 36.375 
Q 62.703125 50.203125 56.421875 58.203125 
Q 50.140625 66.21875 39.40625 66.21875 
z
M 53.21875 1.3125 
L 66.21875 -12.890625 
L 54.296875 -12.890625 
L 43.5 -1.21875 
Q 41.890625 -1.3125 41.03125 -1.359375 
Q 40.1875 -1.421875 39.40625 -1.421875 
Q 24.03125 -1.421875 14.8125 8.859375 
Q 5.609375 19.140625 5.609375 36.375 
Q 5.609375 53.65625 14.8125 63.9375 
Q 24.03125 74.21875 39.40625 74.21875 
Q 54.734375 74.21875 63.90625 63.9375 
Q 73.09375 53.65625 73.09375 36.375 
Q 73.09375 23.6875 67.984375 14.640625 
Q 62.890625 5.609375 53.21875 1.3125 
z
" id="DejaVuSans-81"/>
    </defs>
    <g style="fill:#ae9d31;" transform="translate(421.021939 49.278069)scale(0.08 -0.08)">
     <use xlink:href="#DejaVuSans-81"/>
     <use x="78.710938" xlink:href="#DejaVuSans-117"/>
     <use x="142.089844" xlink:href="#DejaVuSans-101"/>
     <use x="203.613281" xlink:href="#DejaVuSans-101"/>
     <use x="265.136719" xlink:href="#DejaVuSans-110"/>
     <use x="328.515625" xlink:href="#DejaVuSans-115"/>
     <use x="380.615234" xlink:href="#DejaVuSans-44"/>
     <use x="412.402344" xlink:href="#DejaVuSans-32"/>
     <use x="444.189453" xlink:href="#DejaVuSans-78"/>
     <use x="518.994141" xlink:href="#DejaVuSans-89"/>
    </g>
   </g>
   <g id="text_14">
    <!-- Bronx, NY -->
    <defs>
     <path d="M 19.671875 34.8125 
L 19.671875 8.109375 
L 35.5 8.109375 
Q 43.453125 8.109375 47.28125 11.40625 
Q 51.125 14.703125 51.125 21.484375 
Q 51.125 28.328125 47.28125 31.5625 
Q 43.453125 34.8125 35.5 34.8125 
z
M 19.671875 64.796875 
L 19.671875 42.828125 
L 34.28125 42.828125 
Q 41.5 42.828125 45.03125 45.53125 
Q 48.578125 48.25 48.578125 53.8125 
Q 48.578125 59.328125 45.03125 62.0625 
Q 41.5 64.796875 34.28125 64.796875 
z
M 9.8125 72.90625 
L 35.015625 72.90625 
Q 46.296875 72.90625 52.390625 68.21875 
Q 58.5 63.53125 58.5 54.890625 
Q 58.5 48.1875 55.375 44.234375 
Q 52.25 40.28125 46.1875 39.3125 
Q 53.46875 37.75 57.5 32.78125 
Q 61.53125 27.828125 61.53125 20.40625 
Q 61.53125 10.640625 54.890625 5.3125 
Q 48.25 0 35.984375 0 
L 9.8125 0 
z
" id="DejaVuSans-66"/>
     <path d="M 41.109375 46.296875 
Q 39.59375 47.171875 37.8125 47.578125 
Q 36.03125 48 33.890625 48 
Q 26.265625 48 22.1875 43.046875 
Q 18.109375 38.09375 18.109375 28.8125 
L 18.109375 0 
L 9.078125 0 
L 9.078125 54.6875 
L 18.109375 54.6875 
L 18.109375 46.1875 
Q 20.953125 51.171875 25.484375 53.578125 
Q 30.03125 56 36.53125 56 
Q 37.453125 56 38.578125 55.875 
Q 39.703125 55.765625 41.0625 55.515625 
z
" id="DejaVuSans-114"/>
     <path d="M 30.609375 48.390625 
Q 23.390625 48.390625 19.1875 42.75 
Q 14.984375 37.109375 14.984375 27.296875 
Q 14.984375 17.484375 19.15625 11.84375 
Q 23.34375 6.203125 30.609375 6.203125 
Q 37.796875 6.203125 41.984375 11.859375 
Q 46.1875 17.53125 46.1875 27.296875 
Q 46.1875 37.015625 41.984375 42.703125 
Q 37.796875 48.390625 30.609375 48.390625 
z
M 30.609375 56 
Q 42.328125 56 49.015625 48.375 
Q 55.71875 40.765625 55.71875 27.296875 
Q 55.71875 13.875 49.015625 6.21875 
Q 42.328125 -1.421875 30.609375 -1.421875 
Q 18.84375 -1.421875 12.171875 6.21875 
Q 5.515625 13.875 5.515625 27.296875 
Q 5.515625 40.765625 12.171875 48.375 
Q 18.84375 56 30.609375 56 
z
" id="DejaVuSans-111"/>
     <path d="M 54.890625 54.6875 
L 35.109375 28.078125 
L 55.90625 0 
L 45.3125 0 
L 29.390625 21.484375 
L 13.484375 0 
L 2.875 0 
L 24.125 28.609375 
L 4.6875 54.6875 
L 15.28125 54.6875 
L 29.78125 35.203125 
L 44.28125 54.6875 
z
" id="DejaVuSans-120"/>
    </defs>
    <g style="fill:#33b07a;" transform="translate(467.428189 88.381985)scale(0.08 -0.08)">
     <use xlink:href="#DejaVuSans-66"/>
     <use x="68.603516" xlink:href="#DejaVuSans-114"/>
     <use x="107.466797" xlink:href="#DejaVuSans-111"/>
     <use x="168.648438" xlink:href="#DejaVuSans-110"/>
     <use x="232.027344" xlink:href="#DejaVuSans-120"/>
     <use x="291.207031" xlink:href="#DejaVuSans-44"/>
     <use x="322.994141" xlink:href="#DejaVuSans-32"/>
     <use x="354.78125" xlink:href="#DejaVuSans-78"/>
     <use x="429.585938" xlink:href="#DejaVuSans-89"/>
    </g>
   </g>
   <g id="text_15">
    <!-- New York, NY -->
    <defs>
     <path d="M 4.203125 54.6875 
L 13.1875 54.6875 
L 24.421875 12.015625 
L 35.59375 54.6875 
L 46.1875 54.6875 
L 57.421875 12.015625 
L 68.609375 54.6875 
L 77.59375 54.6875 
L 63.28125 0 
L 52.6875 0 
L 40.921875 44.828125 
L 29.109375 0 
L 18.5 0 
z
" id="DejaVuSans-119"/>
     <path d="M 9.078125 75.984375 
L 18.109375 75.984375 
L 18.109375 31.109375 
L 44.921875 54.6875 
L 56.390625 54.6875 
L 27.390625 29.109375 
L 57.625 0 
L 45.90625 0 
L 18.109375 26.703125 
L 18.109375 0 
L 9.078125 0 
z
" id="DejaVuSans-107"/>
    </defs>
    <g style="fill:#38a9c5;" transform="translate(467.428189 118.202388)scale(0.08 -0.08)">
     <use xlink:href="#DejaVuSans-78"/>
     <use x="74.804688" xlink:href="#DejaVuSans-101"/>
     <use x="136.328125" xlink:href="#DejaVuSans-119"/>
     <use x="218.115234" xlink:href="#DejaVuSans-32"/>
     <use x="249.902344" xlink:href="#DejaVuSans-89"/>
     <use x="297.736328" xlink:href="#DejaVuSans-111"/>
     <use x="358.917969" xlink:href="#DejaVuSans-114"/>
     <use x="400.03125" xlink:href="#DejaVuSans-107"/>
     <use x="457.941406" xlink:href="#DejaVuSans-44"/>
     <use x="489.728516" xlink:href="#DejaVuSans-32"/>
     <use x="521.515625" xlink:href="#DejaVuSans-78"/>
     <use x="596.320312" xlink:href="#DejaVuSans-89"/>
    </g>
   </g>
   <g id="text_16">
    <!-- Cook, IL -->
    <defs>
     <path d="M 9.8125 72.90625 
L 19.671875 72.90625 
L 19.671875 0 
L 9.8125 0 
z
" id="DejaVuSans-73"/>
     <path d="M 9.8125 72.90625 
L 19.671875 72.90625 
L 19.671875 8.296875 
L 55.171875 8.296875 
L 55.171875 0 
L 9.8125 0 
z
" id="DejaVuSans-76"/>
    </defs>
    <g style="fill:#cc7af4;" transform="translate(467.428189 132.910058)scale(0.08 -0.08)">
     <use xlink:href="#DejaVuSans-67"/>
     <use x="69.824219" xlink:href="#DejaVuSans-111"/>
     <use x="131.005859" xlink:href="#DejaVuSans-111"/>
     <use x="192.1875" xlink:href="#DejaVuSans-107"/>
     <use x="250.097656" xlink:href="#DejaVuSans-44"/>
     <use x="281.884766" xlink:href="#DejaVuSans-32"/>
     <use x="313.671875" xlink:href="#DejaVuSans-73"/>
     <use x="343.164062" xlink:href="#DejaVuSans-76"/>
    </g>
   </g>
   <g id="text_17">
    <!-- Most-affected counties -->
    <defs>
     <path d="M 9.8125 72.90625 
L 24.515625 72.90625 
L 43.109375 23.296875 
L 61.8125 72.90625 
L 76.515625 72.90625 
L 76.515625 0 
L 66.890625 0 
L 66.890625 64.015625 
L 48.09375 14.015625 
L 38.1875 14.015625 
L 19.390625 64.015625 
L 19.390625 0 
L 9.8125 0 
z
" id="DejaVuSans-77"/>
     <path d="M 4.890625 31.390625 
L 31.203125 31.390625 
L 31.203125 23.390625 
L 4.890625 23.390625 
z
" id="DejaVuSans-45"/>
     <path d="M 37.109375 75.984375 
L 37.109375 68.5 
L 28.515625 68.5 
Q 23.6875 68.5 21.796875 66.546875 
Q 19.921875 64.59375 19.921875 59.515625 
L 19.921875 54.6875 
L 34.71875 54.6875 
L 34.71875 47.703125 
L 19.921875 47.703125 
L 19.921875 0 
L 10.890625 0 
L 10.890625 47.703125 
L 2.296875 47.703125 
L 2.296875 54.6875 
L 10.890625 54.6875 
L 10.890625 58.5 
Q 10.890625 67.625 15.140625 71.796875 
Q 19.390625 75.984375 28.609375 75.984375 
z
" id="DejaVuSans-102"/>
     <path d="M 48.78125 52.59375 
L 48.78125 44.1875 
Q 44.96875 46.296875 41.140625 47.34375 
Q 37.3125 48.390625 33.40625 48.390625 
Q 24.65625 48.390625 19.8125 42.84375 
Q 14.984375 37.3125 14.984375 27.296875 
Q 14.984375 17.28125 19.8125 11.734375 
Q 24.65625 6.203125 33.40625 6.203125 
Q 37.3125 6.203125 41.140625 7.25 
Q 44.96875 8.296875 48.78125 10.40625 
L 48.78125 2.09375 
Q 45.015625 0.34375 40.984375 -0.53125 
Q 36.96875 -1.421875 32.421875 -1.421875 
Q 20.0625 -1.421875 12.78125 6.34375 
Q 5.515625 14.109375 5.515625 27.296875 
Q 5.515625 40.671875 12.859375 48.328125 
Q 20.21875 56 33.015625 56 
Q 37.15625 56 41.109375 55.140625 
Q 45.0625 54.296875 48.78125 52.59375 
z
" id="DejaVuSans-99"/>
    </defs>
    <g style="fill:#ffffff;" transform="translate(242.630312 20.88)scale(0.12 -0.12)">
     <use xlink:href="#DejaVuSans-77"/>
     <use x="86.279297" xlink:href="#DejaVuSans-111"/>
     <use x="147.460938" xlink:href="#DejaVuSans-115"/>
     <use x="199.560547" xlink:href="#DejaVuSans-116"/>
     <use x="238.769531" xlink:href="#DejaVuSans-45"/>
     <use x="274.853516" xlink:href="#DejaVuSans-97"/>
     <use x="336.132812" xlink:href="#DejaVuSans-102"/>
     <use x="371.337891" xlink:href="#DejaVuSans-102"/>
     <use x="406.542969" xlink:href="#DejaVuSans-101"/>
     <use x="468.066406" xlink:href="#DejaVuSans-99"/>
     <use x="523.046875" xlink:href="#DejaVuSans-116"/>
     <use x="562.255859" xlink:href="#DejaVuSans-101"/>
     <use x="623.779297" xlink:href="#DejaVuSans-100"/>
     <use x="687.255859" xlink:href="#DejaVuSans-32"/>
     <use x="719.042969" xlink:href="#DejaVuSans-99"/>
     <use x="774.023438" xlink:href="#DejaVuSans-111"/>
     <use x="835.205078" xlink:href="#DejaVuSans-117"/>
     <use x="898.583984" xlink:href="#DejaVuSans-110"/>
     <use x="961.962891" xlink:href="#DejaVuSans-116"/>
     <use x="1001.171875" xlink:href="#DejaVuSans-105"/>
     <use x="1028.955078" xlink:href="#DejaVuSans-101"/>
     <use x="1090.478516" xlink:href="#DejaVuSans-115"/>
    </g>
   </g>
  </g>
  <g id="axes_2">
   <g id="patch_7">
    <path d="M 57.17 398.333333 
L 565.2 398.333333 
L 565.2 234.586667 
L 57.17 234.586667 
z
"/>
   </g>
   <g id="PolyCollection_6">
    <defs>
     <path d="M 418.535365 -370.918678 
L 418.535365 -370.918678 
L 426.6834 -371.304659 
L 434.831435 -372.645437 
L 442.979471 -375.881437 
L 451.127506 -376.265286 
L 459.275541 -381.717596 
L 459.275541 -405.970303 
L 459.275541 -405.970303 
L 451.127506 -401.82211 
L 442.979471 -392.747277 
L 434.831435 -386.628514 
L 426.6834 -378.713548 
L 418.535365 -370.918678 
z
" id="m5b3cc77cac" style="stroke:#f77189;stroke-opacity:0.1;"/>
    </defs>
    <g clip-path="url(#p2f111cb0b7)">
     <use style="fill:#f77189;fill-opacity:0.1;stroke:#f77189;stroke-opacity:0.1;" x="0" xlink:href="#m5b3cc77cac" y="648"/>
    </g>
   </g>
   <g id="PolyCollection_7">
    <defs>
     <path d="M 418.535365 -369.156401 
L 418.535365 -369.156401 
L 426.6834 -369.156401 
L 434.831435 -369.652156 
L 442.979471 -369.838378 
L 451.127506 -370.323864 
L 459.275541 -372.252081 
L 459.275541 -385.184044 
L 459.275541 -385.184044 
L 451.127506 -383.237893 
L 442.979471 -379.953206 
L 434.831435 -376.241094 
L 426.6834 -373.158788 
L 418.535365 -369.156401 
z
" id="m7dbcc9714e" style="stroke:#bb9832;stroke-opacity:0.1;"/>
    </defs>
    <g clip-path="url(#p2f111cb0b7)">
     <use style="fill:#bb9832;fill-opacity:0.1;stroke:#bb9832;stroke-opacity:0.1;" x="0" xlink:href="#m7dbcc9714e" y="648"/>
    </g>
   </g>
   <g id="PolyCollection_8">
    <defs>
     <path d="M 418.535365 -334.70673 
L 418.535365 -334.70673 
L 426.6834 -334.70673 
L 434.831435 -335.236609 
L 442.979471 -335.472211 
L 451.127506 -337.482696 
L 459.275541 -339.22657 
L 459.275541 -360.087737 
L 459.275541 -360.087737 
L 451.127506 -355.501489 
L 442.979471 -351.336228 
L 434.831435 -345.511819 
L 426.6834 -340.254193 
L 418.535365 -334.70673 
z
" id="mbdaac28439" style="stroke:#50b131;stroke-opacity:0.1;"/>
    </defs>
    <g clip-path="url(#p2f111cb0b7)">
     <use style="fill:#50b131;fill-opacity:0.1;stroke:#50b131;stroke-opacity:0.1;" x="0" xlink:href="#mbdaac28439" y="648"/>
    </g>
   </g>
   <g id="PolyCollection_9">
    <defs>
     <path d="M 418.535365 -333.683472 
L 418.535365 -333.683472 
L 426.6834 -333.683472 
L 434.831435 -333.683472 
L 442.979471 -333.683472 
L 451.127506 -333.683472 
L 459.275541 -333.683472 
L 459.275541 -354.428849 
L 459.275541 -354.428849 
L 451.127506 -350.665093 
L 442.979471 -346.767004 
L 434.831435 -342.02758 
L 426.6834 -337.706159 
L 418.535365 -333.683472 
z
" id="mf6f46dd5e6" style="stroke:#36ada4;stroke-opacity:0.1;"/>
    </defs>
    <g clip-path="url(#p2f111cb0b7)">
     <use style="fill:#36ada4;fill-opacity:0.1;stroke:#36ada4;stroke-opacity:0.1;" x="0" xlink:href="#mf6f46dd5e6" y="648"/>
    </g>
   </g>
   <g id="PolyCollection_10">
    <defs>
     <path d="M 418.535365 -330.272614 
L 418.535365 -330.272614 
L 426.6834 -330.272614 
L 434.831435 -330.272614 
L 442.979471 -330.272614 
L 451.127506 -330.272614 
L 459.275541 -330.272614 
L 459.275541 -352.861059 
L 459.275541 -352.861059 
L 451.127506 -346.920624 
L 442.979471 -343.913654 
L 434.831435 -339.512989 
L 426.6834 -334.888587 
L 418.535365 -330.272614 
z
" id="mdc853eda27" style="stroke:#3ba3ec;stroke-opacity:0.1;"/>
    </defs>
    <g clip-path="url(#p2f111cb0b7)">
     <use style="fill:#3ba3ec;fill-opacity:0.1;stroke:#3ba3ec;stroke-opacity:0.1;" x="0" xlink:href="#mdc853eda27" y="648"/>
    </g>
   </g>
   <g id="PolyCollection_11">
    <defs>
     <path d="M 418.535365 -317.82298 
L 418.535365 -317.82298 
L 426.6834 -318.538312 
L 434.831435 -319.676986 
L 442.979471 -320.995452 
L 451.127506 -321.793305 
L 459.275541 -323.234282 
L 459.275541 -334.790341 
L 459.275541 -334.790341 
L 451.127506 -331.492209 
L 442.979471 -327.634167 
L 434.831435 -324.41499 
L 426.6834 -321.117366 
L 418.535365 -317.82298 
z
" id="m3e4ec42384" style="stroke:#e866f4;stroke-opacity:0.1;"/>
    </defs>
    <g clip-path="url(#p2f111cb0b7)">
     <use style="fill:#e866f4;fill-opacity:0.1;stroke:#e866f4;stroke-opacity:0.1;" x="0" xlink:href="#m3e4ec42384" y="648"/>
    </g>
   </g>
   <g id="matplotlib.axis_3">
    <g id="xtick_4">
     <g id="line2d_21">
      <g>
       <use style="fill:#ffffff;stroke:#ffffff;stroke-width:0.8;" x="76.317883" xlink:href="#m03dd60edcb" y="398.333333"/>
      </g>
     </g>
     <g id="text_18">
      <!-- 3/25 -->
      <g style="fill:#ffffff;" transform="translate(65.089758 412.931771)scale(0.1 -0.1)">
       <use xlink:href="#DejaVuSans-51"/>
       <use x="63.623047" xlink:href="#DejaVuSans-47"/>
       <use x="97.314453" xlink:href="#DejaVuSans-50"/>
       <use x="160.9375" xlink:href="#DejaVuSans-53"/>
      </g>
     </g>
    </g>
    <g id="xtick_5">
     <g id="line2d_22">
      <g>
       <use style="fill:#ffffff;stroke:#ffffff;stroke-width:0.8;" x="418.535365" xlink:href="#m03dd60edcb" y="398.333333"/>
      </g>
     </g>
     <g id="text_19">
      <!-- 5/7 -->
      <g style="fill:#ffffff;" transform="translate(410.48849 412.931771)scale(0.1 -0.1)">
       <use xlink:href="#DejaVuSans-53"/>
       <use x="63.623047" xlink:href="#DejaVuSans-47"/>
       <use x="97.314453" xlink:href="#DejaVuSans-55"/>
      </g>
     </g>
    </g>
    <g id="xtick_6">
     <g id="line2d_23">
      <g>
       <use style="fill:#ffffff;stroke:#ffffff;stroke-width:0.8;" x="459.275541" xlink:href="#m03dd60edcb" y="398.333333"/>
      </g>
     </g>
     <g id="text_20">
      <!-- 5/12 -->
      <g style="fill:#ffffff;" transform="translate(448.047416 412.931771)scale(0.1 -0.1)">
       <use xlink:href="#DejaVuSans-53"/>
       <use x="63.623047" xlink:href="#DejaVuSans-47"/>
       <use x="97.314453" xlink:href="#DejaVuSans-49"/>
       <use x="160.9375" xlink:href="#DejaVuSans-50"/>
      </g>
     </g>
    </g>
   </g>
   <g id="matplotlib.axis_4">
    <g id="ytick_8">
     <g id="line2d_24">
      <g>
       <use style="fill:#ffffff;stroke:#ffffff;stroke-width:0.8;" x="57.17" xlink:href="#mdac1fd2bc5" y="391.003998"/>
      </g>
     </g>
     <g id="text_21">
      <!-- 0 -->
      <g style="fill:#ffffff;" transform="translate(43.8075 394.803217)scale(0.1 -0.1)">
       <use xlink:href="#DejaVuSans-48"/>
      </g>
     </g>
    </g>
    <g id="ytick_9">
     <g id="line2d_25">
      <g>
       <use style="fill:#ffffff;stroke:#ffffff;stroke-width:0.8;" x="57.17" xlink:href="#mdac1fd2bc5" y="362.580177"/>
      </g>
     </g>
     <g id="text_22">
      <!-- 500 -->
      <g style="fill:#ffffff;" transform="translate(31.0825 366.379396)scale(0.1 -0.1)">
       <use xlink:href="#DejaVuSans-53"/>
       <use x="63.623047" xlink:href="#DejaVuSans-48"/>
       <use x="127.246094" xlink:href="#DejaVuSans-48"/>
      </g>
     </g>
    </g>
    <g id="ytick_10">
     <g id="line2d_26">
      <g>
       <use style="fill:#ffffff;stroke:#ffffff;stroke-width:0.8;" x="57.17" xlink:href="#mdac1fd2bc5" y="334.156355"/>
      </g>
     </g>
     <g id="text_23">
      <!-- 1000 -->
      <g style="fill:#ffffff;" transform="translate(24.72 337.955574)scale(0.1 -0.1)">
       <use xlink:href="#DejaVuSans-49"/>
       <use x="63.623047" xlink:href="#DejaVuSans-48"/>
       <use x="127.246094" xlink:href="#DejaVuSans-48"/>
       <use x="190.869141" xlink:href="#DejaVuSans-48"/>
      </g>
     </g>
    </g>
    <g id="ytick_11">
     <g id="line2d_27">
      <g>
       <use style="fill:#ffffff;stroke:#ffffff;stroke-width:0.8;" x="57.17" xlink:href="#mdac1fd2bc5" y="305.732534"/>
      </g>
     </g>
     <g id="text_24">
      <!-- 1500 -->
      <g style="fill:#ffffff;" transform="translate(24.72 309.531752)scale(0.1 -0.1)">
       <use xlink:href="#DejaVuSans-49"/>
       <use x="63.623047" xlink:href="#DejaVuSans-53"/>
       <use x="127.246094" xlink:href="#DejaVuSans-48"/>
       <use x="190.869141" xlink:href="#DejaVuSans-48"/>
      </g>
     </g>
    </g>
    <g id="ytick_12">
     <g id="line2d_28">
      <g>
       <use style="fill:#ffffff;stroke:#ffffff;stroke-width:0.8;" x="57.17" xlink:href="#mdac1fd2bc5" y="277.308712"/>
      </g>
     </g>
     <g id="text_25">
      <!-- 2000 -->
      <g style="fill:#ffffff;" transform="translate(24.72 281.107931)scale(0.1 -0.1)">
       <use xlink:href="#DejaVuSans-50"/>
       <use x="63.623047" xlink:href="#DejaVuSans-48"/>
       <use x="127.246094" xlink:href="#DejaVuSans-48"/>
       <use x="190.869141" xlink:href="#DejaVuSans-48"/>
      </g>
     </g>
    </g>
    <g id="ytick_13">
     <g id="line2d_29">
      <g>
       <use style="fill:#ffffff;stroke:#ffffff;stroke-width:0.8;" x="57.17" xlink:href="#mdac1fd2bc5" y="248.884891"/>
      </g>
     </g>
     <g id="text_26">
      <!-- 2500 -->
      <g style="fill:#ffffff;" transform="translate(24.72 252.684109)scale(0.1 -0.1)">
       <use xlink:href="#DejaVuSans-50"/>
       <use x="63.623047" xlink:href="#DejaVuSans-53"/>
       <use x="127.246094" xlink:href="#DejaVuSans-48"/>
       <use x="190.869141" xlink:href="#DejaVuSans-48"/>
      </g>
     </g>
    </g>
    <g id="text_27">
     <!-- Cumulative deaths -->
     <g style="fill:#ffffff;" transform="translate(18.640313 363.635)rotate(-90)scale(0.1 -0.1)">
      <use xlink:href="#DejaVuSans-67"/>
      <use x="69.824219" xlink:href="#DejaVuSans-117"/>
      <use x="133.203125" xlink:href="#DejaVuSans-109"/>
      <use x="230.615234" xlink:href="#DejaVuSans-117"/>
      <use x="293.994141" xlink:href="#DejaVuSans-108"/>
      <use x="321.777344" xlink:href="#DejaVuSans-97"/>
      <use x="383.056641" xlink:href="#DejaVuSans-116"/>
      <use x="422.265625" xlink:href="#DejaVuSans-105"/>
      <use x="450.048828" xlink:href="#DejaVuSans-118"/>
      <use x="509.228516" xlink:href="#DejaVuSans-101"/>
      <use x="570.751953" xlink:href="#DejaVuSans-32"/>
      <use x="602.539062" xlink:href="#DejaVuSans-100"/>
      <use x="666.015625" xlink:href="#DejaVuSans-101"/>
      <use x="727.539062" xlink:href="#DejaVuSans-97"/>
      <use x="788.818359" xlink:href="#DejaVuSans-116"/>
      <use x="828.027344" xlink:href="#DejaVuSans-104"/>
      <use x="891.40625" xlink:href="#DejaVuSans-115"/>
     </g>
    </g>
   </g>
   <g id="line2d_30">
    <path clip-path="url(#p2f111cb0b7)" d="M 76.317883 390.264979 
L 84.465918 389.980741 
L 92.613953 389.867045 
L 100.761989 389.412264 
L 108.910024 388.730093 
L 117.058059 388.502702 
L 125.206095 387.536292 
L 133.35413 385.603472 
L 141.502165 384.921301 
L 149.6502 382.988481 
L 157.798236 381.510442 
L 165.946271 380.430337 
L 174.094306 379.122841 
L 182.242342 376.848935 
L 190.390377 373.267534 
L 198.538412 371.050476 
L 206.686447 368.378636 
L 214.834483 365.252016 
L 222.982518 363.432891 
L 231.130553 363.432891 
L 239.278589 358.202908 
L 247.426624 355.189983 
L 255.574659 349.96 
L 263.722694 347.79979 
L 271.87073 342.115025 
L 280.018765 341.148615 
L 288.1668 338.988405 
L 296.314836 334.04266 
L 304.462871 330.063325 
L 312.610906 326.08399 
L 320.758941 321.649874 
L 328.906977 318.978035 
L 337.055012 316.363043 
L 345.203047 314.430223 
L 353.351083 308.176982 
L 361.499118 304.822971 
L 369.647153 299.649836 
L 377.795188 295.897891 
L 385.943224 291.918556 
L 394.091259 289.474108 
L 402.239294 288.564546 
L 410.38733 281.742828 
L 418.535365 277.081322 
" style="fill:none;stroke:#f77189;stroke-linecap:square;stroke-width:1.5;"/>
   </g>
   <g id="line2d_31">
    <path clip-path="url(#p2f111cb0b7)" d="M 418.535365 277.081322 
L 426.6834 272.859653 
L 434.831435 268.095674 
L 442.979471 263.321273 
L 451.127506 258.555119 
L 459.275541 253.792494 
" style="fill:none;stroke:#f77189;stroke-dasharray:1.5,2.475;stroke-dashoffset:0;stroke-width:1.5;"/>
   </g>
   <g id="line2d_32">
    <path clip-path="url(#p2f111cb0b7)" d="M 76.317883 389.810198 
L 84.465918 389.52596 
L 92.613953 388.900636 
L 100.761989 388.389007 
L 108.910024 387.82053 
L 117.058059 386.285644 
L 125.206095 384.182281 
L 133.35413 382.704242 
L 141.502165 379.975556 
L 149.6502 378.326974 
L 157.798236 376.678392 
L 165.946271 374.347639 
L 174.094306 371.334714 
L 182.242342 368.151246 
L 190.390377 365.64995 
L 198.538412 362.352786 
L 206.686447 356.383784 
L 214.834483 353.939335 
L 222.982518 350.983258 
L 231.130553 350.983258 
L 239.278589 344.388931 
L 247.426624 340.750682 
L 255.574659 335.23646 
L 263.722694 331.655059 
L 271.87073 330.17702 
L 280.018765 327.391486 
L 288.1668 325.742904 
L 296.314836 318.35271 
L 304.462871 316.021957 
L 312.610906 311.644689 
L 320.758941 308.972849 
L 328.906977 302.321675 
L 337.055012 301.184722 
L 345.203047 298.797121 
L 353.351083 295.386263 
L 361.499118 292.828119 
L 369.647153 289.701498 
L 377.795188 288.564546 
L 385.943224 283.903039 
L 394.091259 283.39141 
L 402.239294 281.629133 
L 410.38733 280.435333 
L 418.535365 278.843599 
" style="fill:none;stroke:#bb9832;stroke-linecap:square;stroke-width:1.5;"/>
   </g>
   <g id="line2d_33">
    <path clip-path="url(#p2f111cb0b7)" d="M 418.535365 278.843599 
L 426.6834 276.793983 
L 434.831435 274.745712 
L 442.979471 272.677665 
L 451.127506 270.677703 
L 459.275541 268.688692 
" style="fill:none;stroke:#bb9832;stroke-dasharray:1.5,2.475;stroke-dashoffset:0;stroke-width:1.5;"/>
   </g>
   <g id="line2d_34">
    <path clip-path="url(#p2f111cb0b7)" d="M 76.317883 390.264979 
L 84.465918 389.810198 
L 92.613953 389.52596 
L 100.761989 389.184874 
L 108.910024 388.900636 
L 117.058059 388.502702 
L 125.206095 387.934226 
L 133.35413 387.308902 
L 141.502165 386.569882 
L 149.6502 385.944558 
L 157.798236 384.352824 
L 165.946271 383.500109 
L 174.094306 382.647395 
L 182.242342 381.396747 
L 190.390377 379.748165 
L 198.538412 378.326974 
L 206.686447 377.303716 
L 214.834483 375.939373 
L 222.982518 374.177096 
L 231.130553 372.812753 
L 239.278589 370.538847 
L 247.426624 368.151246 
L 255.574659 365.138321 
L 263.722694 362.864415 
L 271.87073 358.259756 
L 280.018765 356.895412 
L 288.1668 355.929003 
L 296.314836 353.314011 
L 304.462871 349.562067 
L 312.610906 345.696427 
L 320.758941 342.797197 
L 328.906977 340.125358 
L 337.055012 339.1021 
L 345.203047 337.453519 
L 353.351083 334.156355 
L 361.499118 330.972887 
L 369.647153 327.846267 
L 377.795188 324.378561 
L 385.943224 322.275198 
L 394.091259 321.138245 
L 402.239294 319.603359 
L 410.38733 316.363043 
L 418.535365 313.29327 
" style="fill:none;stroke:#50b131;stroke-linecap:square;stroke-width:1.5;"/>
   </g>
   <g id="line2d_35">
    <path clip-path="url(#p2f111cb0b7)" d="M 418.535365 313.29327 
L 426.6834 310.470291 
L 434.831435 307.365678 
L 442.979471 304.236498 
L 451.127506 301.109202 
L 459.275541 297.982444 
" style="fill:none;stroke:#50b131;stroke-dasharray:1.5,2.475;stroke-dashoffset:0;stroke-width:1.5;"/>
   </g>
   <g id="line2d_36">
    <path clip-path="url(#p2f111cb0b7)" d="M 76.317883 390.606065 
L 84.465918 390.378674 
L 92.613953 390.208131 
L 100.761989 389.867045 
L 108.910024 389.867045 
L 117.058059 389.867045 
L 125.206095 389.241721 
L 133.35413 387.081511 
L 141.502165 385.376082 
L 149.6502 384.295976 
L 157.798236 382.192614 
L 165.946271 381.226204 
L 174.094306 380.430337 
L 182.242342 377.815345 
L 190.390377 375.314049 
L 198.538412 373.267534 
L 206.686447 370.993628 
L 214.834483 367.582769 
L 222.982518 366.673207 
L 231.130553 366.673207 
L 239.278589 360.590509 
L 247.426624 357.463889 
L 255.574659 354.507811 
L 263.722694 352.12021 
L 271.87073 349.391524 
L 280.018765 348.936742 
L 288.1668 348.311418 
L 296.314836 342.740349 
L 304.462871 342.740349 
L 312.610906 342.740349 
L 320.758941 335.577546 
L 328.906977 333.07625 
L 337.055012 332.848859 
L 345.203047 332.564621 
L 353.351083 329.040067 
L 361.499118 326.254533 
L 369.647153 323.582694 
L 377.795188 320.512921 
L 385.943224 319.09173 
L 394.091259 318.12532 
L 402.239294 317.556843 
L 410.38733 316.021957 
L 418.535365 314.316528 
" style="fill:none;stroke:#36ada4;stroke-linecap:square;stroke-width:1.5;"/>
   </g>
   <g id="line2d_37">
    <path clip-path="url(#p2f111cb0b7)" d="M 418.535365 314.316528 
L 426.6834 312.598962 
L 434.831435 310.647816 
L 442.979471 308.687901 
L 451.127506 306.743843 
L 459.275541 304.82867 
" style="fill:none;stroke:#36ada4;stroke-dasharray:1.5,2.475;stroke-dashoffset:0;stroke-width:1.5;"/>
   </g>
   <g id="line2d_38">
    <path clip-path="url(#p2f111cb0b7)" d="M 76.317883 390.208131 
L 84.465918 390.037588 
L 92.613953 389.639655 
L 100.761989 389.184874 
L 108.910024 389.184874 
L 117.058059 389.184874 
L 125.206095 388.445854 
L 133.35413 386.740425 
L 141.502165 384.182281 
L 149.6502 383.500109 
L 157.798236 380.82827 
L 165.946271 380.259794 
L 174.094306 379.63447 
L 182.242342 376.053068 
L 190.390377 373.153838 
L 198.538412 371.391561 
L 206.686447 368.833418 
L 214.834483 366.275274 
L 222.982518 365.252016 
L 231.130553 365.252016 
L 239.278589 359.737795 
L 247.426624 356.440631 
L 255.574659 353.029773 
L 263.722694 350.414781 
L 271.87073 348.879895 
L 280.018765 347.401856 
L 288.1668 346.264903 
L 296.314836 343.536216 
L 304.462871 343.536216 
L 312.610906 343.536216 
L 320.758941 337.9083 
L 328.906977 336.771347 
L 337.055012 336.714499 
L 345.203047 336.430261 
L 353.351083 334.04266 
L 361.499118 330.91604 
L 369.647153 326.425076 
L 377.795188 323.525846 
L 385.943224 322.673131 
L 394.091259 322.21835 
L 402.239294 321.934112 
L 410.38733 319.31912 
L 418.535365 317.727386 
" style="fill:none;stroke:#3ba3ec;stroke-linecap:square;stroke-width:1.5;"/>
   </g>
   <g id="line2d_39">
    <path clip-path="url(#p2f111cb0b7)" d="M 418.535365 317.727386 
L 426.6834 315.663917 
L 434.831435 313.494975 
L 442.979471 311.364607 
L 451.127506 309.310373 
L 459.275541 307.373203 
" style="fill:none;stroke:#3ba3ec;stroke-dasharray:1.5,2.475;stroke-dashoffset:0;stroke-width:1.5;"/>
   </g>
   <g id="line2d_40">
    <path clip-path="url(#p2f111cb0b7)" d="M 76.317883 390.890303 
L 84.465918 390.71976 
L 92.613953 390.662912 
L 100.761989 390.662912 
L 108.910024 390.606065 
L 117.058059 390.49237 
L 125.206095 389.980741 
L 133.35413 389.810198 
L 141.502165 389.355417 
L 149.6502 388.78694 
L 157.798236 388.78694 
L 165.946271 388.616397 
L 174.094306 388.275311 
L 182.242342 387.081511 
L 190.390377 386.456187 
L 198.538412 385.717168 
L 206.686447 384.807605 
L 214.834483 383.215871 
L 222.982518 382.5337 
L 231.130553 381.737832 
L 239.278589 380.316641 
L 247.426624 378.440669 
L 255.574659 376.337306 
L 263.722694 374.290791 
L 271.87073 372.016886 
L 280.018765 369.856675 
L 288.1668 368.151246 
L 296.314836 366.673207 
L 304.462871 362.921263 
L 312.610906 360.022033 
L 320.758941 357.748127 
L 328.906977 355.246831 
L 337.055012 352.916077 
L 345.203047 351.210648 
L 353.351083 349.448371 
L 361.499118 345.412189 
L 369.647153 342.96774 
L 377.795188 340.693834 
L 385.943224 338.533624 
L 394.091259 335.748089 
L 402.239294 334.326898 
L 410.38733 332.564621 
L 418.535365 330.17702 
" style="fill:none;stroke:#e866f4;stroke-linecap:square;stroke-width:1.5;"/>
   </g>
   <g id="line2d_41">
    <path clip-path="url(#p2f111cb0b7)" d="M 418.535365 330.17702 
L 426.6834 327.990386 
L 434.831435 325.599252 
L 442.979471 323.211139 
L 451.127506 320.814374 
L 459.275541 318.457736 
" style="fill:none;stroke:#e866f4;stroke-dasharray:1.5,2.475;stroke-dashoffset:0;stroke-width:1.5;"/>
   </g>
   <g id="patch_8">
    <path d="M 57.17 398.333333 
L 57.17 234.586667 
" style="fill:none;stroke:#ffffff;stroke-linecap:square;stroke-linejoin:miter;stroke-width:0.8;"/>
   </g>
   <g id="patch_9">
    <path d="M 565.2 398.333333 
L 565.2 234.586667 
" style="fill:none;stroke:#ffffff;stroke-linecap:square;stroke-linejoin:miter;stroke-width:0.8;"/>
   </g>
   <g id="patch_10">
    <path d="M 57.17 398.333333 
L 565.2 398.333333 
" style="fill:none;stroke:#ffffff;stroke-linecap:square;stroke-linejoin:miter;stroke-width:0.8;"/>
   </g>
   <g id="patch_11">
    <path d="M 57.17 234.586667 
L 565.2 234.586667 
" style="fill:none;stroke:#ffffff;stroke-linecap:square;stroke-linejoin:miter;stroke-width:0.8;"/>
   </g>
   <g id="text_28">
    <!-- Cook, IL -->
    <g style="fill:#f77189;" transform="translate(467.423577 251.32537)scale(0.08 -0.08)">
     <use xlink:href="#DejaVuSans-67"/>
     <use x="69.824219" xlink:href="#DejaVuSans-111"/>
     <use x="131.005859" xlink:href="#DejaVuSans-111"/>
     <use x="192.1875" xlink:href="#DejaVuSans-107"/>
     <use x="250.097656" xlink:href="#DejaVuSans-44"/>
     <use x="281.884766" xlink:href="#DejaVuSans-32"/>
     <use x="313.671875" xlink:href="#DejaVuSans-73"/>
     <use x="343.164062" xlink:href="#DejaVuSans-76"/>
    </g>
   </g>
   <g id="text_29">
    <!-- Wayne, MI -->
    <defs>
     <path d="M 3.328125 72.90625 
L 13.28125 72.90625 
L 28.609375 11.28125 
L 43.890625 72.90625 
L 54.984375 72.90625 
L 70.3125 11.28125 
L 85.59375 72.90625 
L 95.609375 72.90625 
L 77.296875 0 
L 64.890625 0 
L 49.515625 63.28125 
L 33.984375 0 
L 21.578125 0 
z
" id="DejaVuSans-87"/>
     <path d="M 32.171875 -5.078125 
Q 28.375 -14.84375 24.75 -17.8125 
Q 21.140625 -20.796875 15.09375 -20.796875 
L 7.90625 -20.796875 
L 7.90625 -13.28125 
L 13.1875 -13.28125 
Q 16.890625 -13.28125 18.9375 -11.515625 
Q 21 -9.765625 23.484375 -3.21875 
L 25.09375 0.875 
L 2.984375 54.6875 
L 12.5 54.6875 
L 29.59375 11.921875 
L 46.6875 54.6875 
L 56.203125 54.6875 
z
" id="DejaVuSans-121"/>
    </defs>
    <g style="fill:#bb9832;" transform="translate(467.423577 266.221567)scale(0.08 -0.08)">
     <use xlink:href="#DejaVuSans-87"/>
     <use x="92.501953" xlink:href="#DejaVuSans-97"/>
     <use x="153.78125" xlink:href="#DejaVuSans-121"/>
     <use x="212.960938" xlink:href="#DejaVuSans-110"/>
     <use x="276.339844" xlink:href="#DejaVuSans-101"/>
     <use x="337.863281" xlink:href="#DejaVuSans-44"/>
     <use x="369.650391" xlink:href="#DejaVuSans-32"/>
     <use x="401.4375" xlink:href="#DejaVuSans-77"/>
     <use x="487.716797" xlink:href="#DejaVuSans-73"/>
    </g>
   </g>
   <g id="text_30">
    <!-- Los Angeles, CA -->
    <defs>
     <path d="M 34.1875 63.1875 
L 20.796875 26.90625 
L 47.609375 26.90625 
z
M 28.609375 72.90625 
L 39.796875 72.90625 
L 67.578125 0 
L 57.328125 0 
L 50.6875 18.703125 
L 17.828125 18.703125 
L 11.1875 0 
L 0.78125 0 
z
" id="DejaVuSans-65"/>
    </defs>
    <g style="fill:#50b131;" transform="translate(467.423577 294.118184)scale(0.08 -0.08)">
     <use xlink:href="#DejaVuSans-76"/>
     <use x="53.962891" xlink:href="#DejaVuSans-111"/>
     <use x="115.144531" xlink:href="#DejaVuSans-115"/>
     <use x="167.244141" xlink:href="#DejaVuSans-32"/>
     <use x="199.03125" xlink:href="#DejaVuSans-65"/>
     <use x="267.439453" xlink:href="#DejaVuSans-110"/>
     <use x="330.818359" xlink:href="#DejaVuSans-103"/>
     <use x="394.294922" xlink:href="#DejaVuSans-101"/>
     <use x="455.818359" xlink:href="#DejaVuSans-108"/>
     <use x="483.601562" xlink:href="#DejaVuSans-101"/>
     <use x="545.125" xlink:href="#DejaVuSans-115"/>
     <use x="597.224609" xlink:href="#DejaVuSans-44"/>
     <use x="629.011719" xlink:href="#DejaVuSans-32"/>
     <use x="660.798828" xlink:href="#DejaVuSans-67"/>
     <use x="730.623047" xlink:href="#DejaVuSans-65"/>
    </g>
   </g>
   <g id="text_31">
    <!-- Essex, NJ -->
    <defs>
     <path d="M 9.8125 72.90625 
L 55.90625 72.90625 
L 55.90625 64.59375 
L 19.671875 64.59375 
L 19.671875 43.015625 
L 54.390625 43.015625 
L 54.390625 34.71875 
L 19.671875 34.71875 
L 19.671875 8.296875 
L 56.78125 8.296875 
L 56.78125 0 
L 9.8125 0 
z
" id="DejaVuSans-69"/>
     <path d="M 9.8125 72.90625 
L 19.671875 72.90625 
L 19.671875 5.078125 
Q 19.671875 -8.109375 14.671875 -14.0625 
Q 9.671875 -20.015625 -1.421875 -20.015625 
L -5.171875 -20.015625 
L -5.171875 -11.71875 
L -2.09375 -11.71875 
Q 4.4375 -11.71875 7.125 -8.046875 
Q 9.8125 -4.390625 9.8125 5.078125 
z
" id="DejaVuSans-74"/>
    </defs>
    <g style="fill:#36ada4;" transform="translate(431.086077 303.613057)scale(0.08 -0.08)">
     <use xlink:href="#DejaVuSans-69"/>
     <use x="63.183594" xlink:href="#DejaVuSans-115"/>
     <use x="115.283203" xlink:href="#DejaVuSans-115"/>
     <use x="167.382812" xlink:href="#DejaVuSans-101"/>
     <use x="227.15625" xlink:href="#DejaVuSans-120"/>
     <use x="286.335938" xlink:href="#DejaVuSans-44"/>
     <use x="318.123047" xlink:href="#DejaVuSans-32"/>
     <use x="349.910156" xlink:href="#DejaVuSans-78"/>
     <use x="424.714844" xlink:href="#DejaVuSans-74"/>
    </g>
   </g>
   <g id="text_32">
    <!-- Bergen, NJ -->
    <g style="fill:#3ba3ec;" transform="translate(467.423577 314.623413)scale(0.08 -0.08)">
     <use xlink:href="#DejaVuSans-66"/>
     <use x="68.603516" xlink:href="#DejaVuSans-101"/>
     <use x="130.126953" xlink:href="#DejaVuSans-114"/>
     <use x="169.490234" xlink:href="#DejaVuSans-103"/>
     <use x="232.966797" xlink:href="#DejaVuSans-101"/>
     <use x="294.490234" xlink:href="#DejaVuSans-110"/>
     <use x="357.869141" xlink:href="#DejaVuSans-44"/>
     <use x="389.65625" xlink:href="#DejaVuSans-32"/>
     <use x="421.443359" xlink:href="#DejaVuSans-78"/>
     <use x="496.248047" xlink:href="#DejaVuSans-74"/>
    </g>
   </g>
   <g id="text_33">
    <!-- Middlesex, MA -->
    <g style="fill:#e866f4;" transform="translate(467.423577 325.339861)scale(0.08 -0.08)">
     <use xlink:href="#DejaVuSans-77"/>
     <use x="86.279297" xlink:href="#DejaVuSans-105"/>
     <use x="114.0625" xlink:href="#DejaVuSans-100"/>
     <use x="177.539062" xlink:href="#DejaVuSans-100"/>
     <use x="241.015625" xlink:href="#DejaVuSans-108"/>
     <use x="268.798828" xlink:href="#DejaVuSans-101"/>
     <use x="330.322266" xlink:href="#DejaVuSans-115"/>
     <use x="382.421875" xlink:href="#DejaVuSans-101"/>
     <use x="442.195312" xlink:href="#DejaVuSans-120"/>
     <use x="501.375" xlink:href="#DejaVuSans-44"/>
     <use x="533.162109" xlink:href="#DejaVuSans-32"/>
     <use x="564.949219" xlink:href="#DejaVuSans-77"/>
     <use x="651.228516" xlink:href="#DejaVuSans-65"/>
    </g>
   </g>
   <g id="text_34">
    <!-- Most-affected counties outside NY -->
    <g style="fill:#ffffff;" transform="translate(208.54375 228.586667)scale(0.12 -0.12)">
     <use xlink:href="#DejaVuSans-77"/>
     <use x="86.279297" xlink:href="#DejaVuSans-111"/>
     <use x="147.460938" xlink:href="#DejaVuSans-115"/>
     <use x="199.560547" xlink:href="#DejaVuSans-116"/>
     <use x="238.769531" xlink:href="#DejaVuSans-45"/>
     <use x="274.853516" xlink:href="#DejaVuSans-97"/>
     <use x="336.132812" xlink:href="#DejaVuSans-102"/>
     <use x="371.337891" xlink:href="#DejaVuSans-102"/>
     <use x="406.542969" xlink:href="#DejaVuSans-101"/>
     <use x="468.066406" xlink:href="#DejaVuSans-99"/>
     <use x="523.046875" xlink:href="#DejaVuSans-116"/>
     <use x="562.255859" xlink:href="#DejaVuSans-101"/>
     <use x="623.779297" xlink:href="#DejaVuSans-100"/>
     <use x="687.255859" xlink:href="#DejaVuSans-32"/>
     <use x="719.042969" xlink:href="#DejaVuSans-99"/>
     <use x="774.023438" xlink:href="#DejaVuSans-111"/>
     <use x="835.205078" xlink:href="#DejaVuSans-117"/>
     <use x="898.583984" xlink:href="#DejaVuSans-110"/>
     <use x="961.962891" xlink:href="#DejaVuSans-116"/>
     <use x="1001.171875" xlink:href="#DejaVuSans-105"/>
     <use x="1028.955078" xlink:href="#DejaVuSans-101"/>
     <use x="1090.478516" xlink:href="#DejaVuSans-115"/>
     <use x="1142.578125" xlink:href="#DejaVuSans-32"/>
     <use x="1174.365234" xlink:href="#DejaVuSans-111"/>
     <use x="1235.546875" xlink:href="#DejaVuSans-117"/>
     <use x="1298.925781" xlink:href="#DejaVuSans-116"/>
     <use x="1338.134766" xlink:href="#DejaVuSans-115"/>
     <use x="1390.234375" xlink:href="#DejaVuSans-105"/>
     <use x="1418.017578" xlink:href="#DejaVuSans-100"/>
     <use x="1481.494141" xlink:href="#DejaVuSans-101"/>
     <use x="1543.017578" xlink:href="#DejaVuSans-32"/>
     <use x="1574.804688" xlink:href="#DejaVuSans-78"/>
     <use x="1649.609375" xlink:href="#DejaVuSans-89"/>
    </g>
   </g>
  </g>
  <g id="axes_3">
   <g id="patch_12">
    <path d="M 57.17 606.04 
L 565.2 606.04 
L 565.2 442.293333 
L 57.17 442.293333 
z
"/>
   </g>
   <g id="PolyCollection_12">
    <defs>
     <path d="M 417.49267 -171.437251 
L 417.49267 -171.437251 
L 425.81421 -171.884101 
L 434.135749 -172.954598 
L 442.457289 -175.04877 
L 450.778829 -177.467487 
L 459.100369 -181.898556 
L 459.100369 -198.263636 
L 459.100369 -198.263636 
L 450.778829 -194.648166 
L 442.457289 -189.307142 
L 434.135749 -183.936987 
L 425.81421 -177.604217 
L 417.49267 -171.437251 
z
" id="m67d5b04cf4" style="stroke:#f77189;stroke-opacity:0.1;"/>
    </defs>
    <g clip-path="url(#p2c10b8ef61)">
     <use style="fill:#f77189;fill-opacity:0.1;stroke:#f77189;stroke-opacity:0.1;" x="0" xlink:href="#m67d5b04cf4" y="648"/>
    </g>
   </g>
   <g id="PolyCollection_13">
    <defs>
     <path d="M 417.49267 -112.860825 
L 417.49267 -112.860825 
L 425.81421 -112.860825 
L 434.135749 -112.860825 
L 442.457289 -112.860825 
L 450.778829 -112.860825 
L 459.100369 -112.860825 
L 459.100369 -129.474281 
L 459.100369 -129.474281 
L 450.778829 -126.316593 
L 442.457289 -124.268993 
L 434.135749 -121.007766 
L 425.81421 -117.148199 
L 417.49267 -112.860825 
z
" id="mcd63d1ea06" style="stroke:#ae9d31;stroke-opacity:0.1;"/>
    </defs>
    <g clip-path="url(#p2c10b8ef61)">
     <use style="fill:#ae9d31;fill-opacity:0.1;stroke:#ae9d31;stroke-opacity:0.1;" x="0" xlink:href="#mcd63d1ea06" y="648"/>
    </g>
   </g>
   <g id="PolyCollection_14">
    <defs>
     <path d="M 417.49267 -103.098087 
L 417.49267 -103.098087 
L 425.81421 -103.098087 
L 434.135749 -103.098087 
L 442.457289 -103.871669 
L 450.778829 -103.718721 
L 459.100369 -103.113193 
L 459.100369 -121.843281 
L 459.100369 -121.843281 
L 450.778829 -117.455385 
L 442.457289 -113.64627 
L 434.135749 -110.892044 
L 425.81421 -109.530803 
L 417.49267 -103.098087 
z
" id="m4984a901a3" style="stroke:#33b07a;stroke-opacity:0.1;"/>
    </defs>
    <g clip-path="url(#p2c10b8ef61)">
     <use style="fill:#33b07a;fill-opacity:0.1;stroke:#33b07a;stroke-opacity:0.1;" x="0" xlink:href="#m4984a901a3" y="648"/>
    </g>
   </g>
   <g id="PolyCollection_15">
    <defs>
     <path d="M 417.49267 -78.691243 
L 417.49267 -78.691243 
L 425.81421 -78.691243 
L 434.135749 -78.691243 
L 442.457289 -78.691243 
L 450.778829 -78.691243 
L 459.100369 -78.691243 
L 459.100369 -88.557173 
L 459.100369 -88.557173 
L 450.778829 -87.968087 
L 442.457289 -86.810714 
L 434.135749 -84.564056 
L 425.81421 -81.806557 
L 417.49267 -78.691243 
z
" id="m3ebeefbb10" style="stroke:#38a9c5;stroke-opacity:0.1;"/>
    </defs>
    <g clip-path="url(#p2c10b8ef61)">
     <use style="fill:#38a9c5;fill-opacity:0.1;stroke:#38a9c5;stroke-opacity:0.1;" x="0" xlink:href="#m3ebeefbb10" y="648"/>
    </g>
   </g>
   <g id="PolyCollection_16">
    <defs>
     <path d="M 417.49267 -76.738696 
L 417.49267 -76.738696 
L 425.81421 -76.738696 
L 434.135749 -76.738696 
L 442.457289 -76.738696 
L 450.778829 -76.738696 
L 459.100369 -76.738696 
L 459.100369 -86.118372 
L 459.100369 -86.118372 
L 450.778829 -84.224743 
L 442.457289 -82.913523 
L 434.135749 -81.135969 
L 425.81421 -79.105358 
L 417.49267 -76.738696 
z
" id="me7d47b60c8" style="stroke:#cc7af4;stroke-opacity:0.1;"/>
    </defs>
    <g clip-path="url(#p2c10b8ef61)">
     <use style="fill:#cc7af4;fill-opacity:0.1;stroke:#cc7af4;stroke-opacity:0.1;" x="0" xlink:href="#me7d47b60c8" y="648"/>
    </g>
   </g>
   <g id="matplotlib.axis_5">
    <g id="xtick_7">
     <g id="line2d_42">
      <g>
       <use style="fill:#ffffff;stroke:#ffffff;stroke-width:0.8;" x="76.309541" xlink:href="#m03dd60edcb" y="606.04"/>
      </g>
     </g>
     <g id="text_35">
      <!-- 3/26 -->
      <g style="fill:#ffffff;" transform="translate(65.081416 620.638438)scale(0.1 -0.1)">
       <use xlink:href="#DejaVuSans-51"/>
       <use x="63.623047" xlink:href="#DejaVuSans-47"/>
       <use x="97.314453" xlink:href="#DejaVuSans-50"/>
       <use x="160.9375" xlink:href="#DejaVuSans-54"/>
      </g>
     </g>
    </g>
    <g id="xtick_8">
     <g id="line2d_43">
      <g>
       <use style="fill:#ffffff;stroke:#ffffff;stroke-width:0.8;" x="417.49267" xlink:href="#m03dd60edcb" y="606.04"/>
      </g>
     </g>
     <g id="text_36">
      <!-- 5/7 -->
      <g style="fill:#ffffff;" transform="translate(409.445795 620.638438)scale(0.1 -0.1)">
       <use xlink:href="#DejaVuSans-53"/>
       <use x="63.623047" xlink:href="#DejaVuSans-47"/>
       <use x="97.314453" xlink:href="#DejaVuSans-55"/>
      </g>
     </g>
    </g>
    <g id="xtick_9">
     <g id="line2d_44">
      <g>
       <use style="fill:#ffffff;stroke:#ffffff;stroke-width:0.8;" x="459.100369" xlink:href="#m03dd60edcb" y="606.04"/>
      </g>
     </g>
     <g id="text_37">
      <!-- 5/12 -->
      <g style="fill:#ffffff;" transform="translate(447.872244 620.638438)scale(0.1 -0.1)">
       <use xlink:href="#DejaVuSans-53"/>
       <use x="63.623047" xlink:href="#DejaVuSans-47"/>
       <use x="97.314453" xlink:href="#DejaVuSans-49"/>
       <use x="160.9375" xlink:href="#DejaVuSans-50"/>
      </g>
     </g>
    </g>
    <g id="text_38">
     <!-- Date -->
     <defs>
      <path d="M 19.671875 64.796875 
L 19.671875 8.109375 
L 31.59375 8.109375 
Q 46.6875 8.109375 53.6875 14.9375 
Q 60.6875 21.78125 60.6875 36.53125 
Q 60.6875 51.171875 53.6875 57.984375 
Q 46.6875 64.796875 31.59375 64.796875 
z
M 9.8125 72.90625 
L 30.078125 72.90625 
Q 51.265625 72.90625 61.171875 64.09375 
Q 71.09375 55.28125 71.09375 36.53125 
Q 71.09375 17.671875 61.125 8.828125 
Q 51.171875 0 30.078125 0 
L 9.8125 0 
z
" id="DejaVuSans-68"/>
     </defs>
     <g style="fill:#ffffff;" transform="translate(299.234219 634.316563)scale(0.1 -0.1)">
      <use xlink:href="#DejaVuSans-68"/>
      <use x="77.001953" xlink:href="#DejaVuSans-97"/>
      <use x="138.28125" xlink:href="#DejaVuSans-116"/>
      <use x="177.490234" xlink:href="#DejaVuSans-101"/>
     </g>
    </g>
   </g>
   <g id="matplotlib.axis_6">
    <g id="ytick_14">
     <g id="line2d_45">
      <g>
       <use style="fill:#ffffff;stroke:#ffffff;stroke-width:0.8;" x="57.17" xlink:href="#mdac1fd2bc5" y="599.573243"/>
      </g>
     </g>
     <g id="text_39">
      <!-- 0 -->
      <g style="fill:#ffffff;" transform="translate(43.8075 603.372462)scale(0.1 -0.1)">
       <use xlink:href="#DejaVuSans-48"/>
      </g>
     </g>
    </g>
    <g id="ytick_15">
     <g id="line2d_46">
      <g>
       <use style="fill:#ffffff;stroke:#ffffff;stroke-width:0.8;" x="57.17" xlink:href="#mdac1fd2bc5" y="575.166399"/>
      </g>
     </g>
     <g id="text_40">
      <!-- 25 -->
      <g style="fill:#ffffff;" transform="translate(37.445 578.965618)scale(0.1 -0.1)">
       <use xlink:href="#DejaVuSans-50"/>
       <use x="63.623047" xlink:href="#DejaVuSans-53"/>
      </g>
     </g>
    </g>
    <g id="ytick_16">
     <g id="line2d_47">
      <g>
       <use style="fill:#ffffff;stroke:#ffffff;stroke-width:0.8;" x="57.17" xlink:href="#mdac1fd2bc5" y="550.759555"/>
      </g>
     </g>
     <g id="text_41">
      <!-- 50 -->
      <g style="fill:#ffffff;" transform="translate(37.445 554.558774)scale(0.1 -0.1)">
       <use xlink:href="#DejaVuSans-53"/>
       <use x="63.623047" xlink:href="#DejaVuSans-48"/>
      </g>
     </g>
    </g>
    <g id="ytick_17">
     <g id="line2d_48">
      <g>
       <use style="fill:#ffffff;stroke:#ffffff;stroke-width:0.8;" x="57.17" xlink:href="#mdac1fd2bc5" y="526.352711"/>
      </g>
     </g>
     <g id="text_42">
      <!-- 75 -->
      <g style="fill:#ffffff;" transform="translate(37.445 530.15193)scale(0.1 -0.1)">
       <use xlink:href="#DejaVuSans-55"/>
       <use x="63.623047" xlink:href="#DejaVuSans-53"/>
      </g>
     </g>
    </g>
    <g id="ytick_18">
     <g id="line2d_49">
      <g>
       <use style="fill:#ffffff;stroke:#ffffff;stroke-width:0.8;" x="57.17" xlink:href="#mdac1fd2bc5" y="501.945867"/>
      </g>
     </g>
     <g id="text_43">
      <!-- 100 -->
      <g style="fill:#ffffff;" transform="translate(31.0825 505.745086)scale(0.1 -0.1)">
       <use xlink:href="#DejaVuSans-49"/>
       <use x="63.623047" xlink:href="#DejaVuSans-48"/>
       <use x="127.246094" xlink:href="#DejaVuSans-48"/>
      </g>
     </g>
    </g>
    <g id="ytick_19">
     <g id="line2d_50">
      <g>
       <use style="fill:#ffffff;stroke:#ffffff;stroke-width:0.8;" x="57.17" xlink:href="#mdac1fd2bc5" y="477.539023"/>
      </g>
     </g>
     <g id="text_44">
      <!-- 125 -->
      <g style="fill:#ffffff;" transform="translate(31.0825 481.338241)scale(0.1 -0.1)">
       <use xlink:href="#DejaVuSans-49"/>
       <use x="63.623047" xlink:href="#DejaVuSans-50"/>
       <use x="127.246094" xlink:href="#DejaVuSans-53"/>
      </g>
     </g>
    </g>
    <g id="ytick_20">
     <g id="line2d_51">
      <g>
       <use style="fill:#ffffff;stroke:#ffffff;stroke-width:0.8;" x="57.17" xlink:href="#mdac1fd2bc5" y="453.132178"/>
      </g>
     </g>
     <g id="text_45">
      <!-- 150 -->
      <g style="fill:#ffffff;" transform="translate(31.0825 456.931397)scale(0.1 -0.1)">
       <use xlink:href="#DejaVuSans-49"/>
       <use x="63.623047" xlink:href="#DejaVuSans-53"/>
       <use x="127.246094" xlink:href="#DejaVuSans-48"/>
      </g>
     </g>
    </g>
    <g id="text_46">
     <!-- Cumulative deaths -->
     <g style="fill:#ffffff;" transform="translate(25.002813 571.341667)rotate(-90)scale(0.1 -0.1)">
      <use xlink:href="#DejaVuSans-67"/>
      <use x="69.824219" xlink:href="#DejaVuSans-117"/>
      <use x="133.203125" xlink:href="#DejaVuSans-109"/>
      <use x="230.615234" xlink:href="#DejaVuSans-117"/>
      <use x="293.994141" xlink:href="#DejaVuSans-108"/>
      <use x="321.777344" xlink:href="#DejaVuSans-97"/>
      <use x="383.056641" xlink:href="#DejaVuSans-116"/>
      <use x="422.265625" xlink:href="#DejaVuSans-105"/>
      <use x="450.048828" xlink:href="#DejaVuSans-118"/>
      <use x="509.228516" xlink:href="#DejaVuSans-101"/>
      <use x="570.751953" xlink:href="#DejaVuSans-32"/>
      <use x="602.539062" xlink:href="#DejaVuSans-100"/>
      <use x="666.015625" xlink:href="#DejaVuSans-101"/>
      <use x="727.539062" xlink:href="#DejaVuSans-97"/>
      <use x="788.818359" xlink:href="#DejaVuSans-116"/>
      <use x="828.027344" xlink:href="#DejaVuSans-104"/>
      <use x="891.40625" xlink:href="#DejaVuSans-115"/>
     </g>
    </g>
   </g>
   <g id="line2d_52">
    <path clip-path="url(#p2c10b8ef61)" d="M 76.309541 578.095221 
L 84.631081 577.118947 
L 92.952621 572.237578 
L 101.274161 572.237578 
L 109.5957 569.308757 
L 117.91724 567.356209 
L 126.23878 565.403662 
L 134.560319 561.498567 
L 142.881859 559.546019 
L 151.203399 558.569745 
L 159.524939 558.569745 
L 167.846478 555.640924 
L 176.168018 554.66465 
L 184.489558 551.735829 
L 192.811097 550.759555 
L 201.132637 547.830734 
L 209.454177 546.85446 
L 217.775717 543.925639 
L 226.097256 538.067996 
L 234.418796 538.067996 
L 242.740336 533.186627 
L 251.061876 529.281532 
L 259.383415 529.281532 
L 267.704955 525.376437 
L 276.026495 525.376437 
L 284.348034 515.6137 
L 292.669574 510.732331 
L 300.991114 507.803509 
L 309.312654 506.827236 
L 317.634193 503.898414 
L 325.955733 502.922141 
L 334.277273 501.945867 
L 342.598812 499.017045 
L 350.920352 496.088224 
L 359.241892 495.11195 
L 367.563432 491.206855 
L 375.884971 489.254308 
L 384.206511 488.278034 
L 392.528051 487.30176 
L 400.84959 485.349213 
L 409.17113 481.444118 
L 417.49267 476.562749 
" style="fill:none;stroke:#f77189;stroke-linecap:square;stroke-width:1.5;"/>
   </g>
   <g id="line2d_53">
    <path clip-path="url(#p2c10b8ef61)" d="M 417.49267 476.562749 
L 425.81421 472.636531 
L 434.135749 468.225664 
L 442.457289 463.897169 
L 450.778829 459.767459 
L 459.100369 455.9814 
" style="fill:none;stroke:#f77189;stroke-dasharray:1.5,2.475;stroke-dashoffset:0;stroke-width:1.5;"/>
   </g>
   <g id="line2d_54">
    <path clip-path="url(#p2c10b8ef61)" d="M 76.309541 595.668148 
L 84.631081 595.668148 
L 92.952621 593.715601 
L 101.274161 592.739327 
L 109.5957 592.739327 
L 117.91724 592.739327 
L 126.23878 591.763053 
L 134.560319 590.78678 
L 142.881859 587.857958 
L 151.203399 587.857958 
L 159.524939 587.857958 
L 167.846478 586.881684 
L 176.168018 584.929137 
L 184.489558 583.952863 
L 192.811097 582.976589 
L 201.132637 580.047768 
L 209.454177 579.071494 
L 217.775717 577.118947 
L 226.097256 577.118947 
L 234.418796 577.118947 
L 242.740336 564.427388 
L 251.061876 561.498567 
L 259.383415 561.498567 
L 267.704955 559.546019 
L 276.026495 558.569745 
L 284.348034 558.569745 
L 292.669574 557.593471 
L 300.991114 555.640924 
L 309.312654 554.66465 
L 317.634193 552.712103 
L 325.955733 548.807008 
L 334.277273 548.807008 
L 342.598812 548.807008 
L 350.920352 545.878186 
L 359.241892 543.925639 
L 367.563432 540.996817 
L 375.884971 539.04427 
L 384.206511 538.067996 
L 392.528051 538.067996 
L 400.84959 538.067996 
L 409.17113 535.139175 
L 417.49267 535.139175 
" style="fill:none;stroke:#ae9d31;stroke-linecap:square;stroke-width:1.5;"/>
   </g>
   <g id="line2d_55">
    <path clip-path="url(#p2c10b8ef61)" d="M 417.49267 535.139175 
L 425.81421 533.01408 
L 434.135749 531.074194 
L 442.457289 529.246574 
L 450.778829 527.625242 
L 459.100369 526.257139 
" style="fill:none;stroke:#ae9d31;stroke-dasharray:1.5,2.475;stroke-dashoffset:0;stroke-width:1.5;"/>
   </g>
   <g id="line2d_56">
    <path clip-path="url(#p2c10b8ef61)" d="M 76.309541 594.691875 
L 84.631081 593.715601 
L 92.952621 593.715601 
L 101.274161 593.715601 
L 109.5957 593.715601 
L 117.91724 589.810506 
L 126.23878 589.810506 
L 134.560319 589.810506 
L 142.881859 586.881684 
L 151.203399 586.881684 
L 159.524939 586.881684 
L 167.846478 586.881684 
L 176.168018 579.071494 
L 184.489558 579.071494 
L 192.811097 579.071494 
L 201.132637 579.071494 
L 209.454177 579.071494 
L 217.775717 579.071494 
L 226.097256 579.071494 
L 234.418796 579.071494 
L 242.740336 579.071494 
L 251.061876 572.237578 
L 259.383415 572.237578 
L 267.704955 572.237578 
L 276.026495 572.237578 
L 284.348034 572.237578 
L 292.669574 572.237578 
L 300.991114 562.47484 
L 309.312654 561.498567 
L 317.634193 559.546019 
L 325.955733 559.546019 
L 334.277273 559.546019 
L 342.598812 559.546019 
L 350.920352 552.712103 
L 359.241892 552.712103 
L 367.563432 552.712103 
L 375.884971 549.783281 
L 384.206511 549.783281 
L 392.528051 549.783281 
L 400.84959 549.783281 
L 409.17113 544.901913 
L 417.49267 544.901913 
" style="fill:none;stroke:#33b07a;stroke-linecap:square;stroke-width:1.5;"/>
   </g>
   <g id="line2d_57">
    <path clip-path="url(#p2c10b8ef61)" d="M 417.49267 544.901913 
L 425.81421 542.485202 
L 434.135749 540.311476 
L 442.457289 538.223732 
L 450.778829 536.283066 
L 459.100369 534.539919 
" style="fill:none;stroke:#33b07a;stroke-dasharray:1.5,2.475;stroke-dashoffset:0;stroke-width:1.5;"/>
   </g>
   <g id="line2d_58">
    <path clip-path="url(#p2c10b8ef61)" d="M 76.309541 597.620696 
L 84.631081 596.644422 
L 92.952621 595.668148 
L 101.274161 594.691875 
L 109.5957 593.715601 
L 117.91724 593.715601 
L 126.23878 592.739327 
L 134.560319 592.739327 
L 142.881859 592.739327 
L 151.203399 591.763053 
L 159.524939 591.763053 
L 167.846478 590.78678 
L 176.168018 590.78678 
L 184.489558 589.810506 
L 192.811097 589.810506 
L 201.132637 586.881684 
L 209.454177 586.881684 
L 217.775717 585.905411 
L 226.097256 584.929137 
L 234.418796 584.929137 
L 242.740336 582.976589 
L 251.061876 582.976589 
L 259.383415 582.976589 
L 267.704955 580.047768 
L 276.026495 580.047768 
L 284.348034 580.047768 
L 292.669574 580.047768 
L 300.991114 579.071494 
L 309.312654 579.071494 
L 317.634193 578.095221 
L 325.955733 578.095221 
L 334.277273 578.095221 
L 342.598812 577.118947 
L 350.920352 577.118947 
L 359.241892 577.118947 
L 367.563432 575.166399 
L 375.884971 572.237578 
L 384.206511 571.261304 
L 392.528051 571.261304 
L 400.84959 571.261304 
L 409.17113 569.308757 
L 417.49267 569.308757 
" style="fill:none;stroke:#38a9c5;stroke-linecap:square;stroke-width:1.5;"/>
   </g>
   <g id="line2d_59">
    <path clip-path="url(#p2c10b8ef61)" d="M 417.49267 569.308757 
L 425.81421 567.844683 
L 434.135749 566.529911 
L 442.457289 565.338405 
L 450.778829 564.330392 
L 459.100369 563.529738 
" style="fill:none;stroke:#38a9c5;stroke-dasharray:1.5,2.475;stroke-dashoffset:0;stroke-width:1.5;"/>
   </g>
   <g id="line2d_60">
    <path clip-path="url(#p2c10b8ef61)" d="M 76.309541 598.59697 
L 84.631081 597.620696 
L 92.952621 596.644422 
L 101.274161 596.644422 
L 109.5957 596.644422 
L 117.91724 596.644422 
L 126.23878 596.644422 
L 134.560319 596.644422 
L 142.881859 594.691875 
L 151.203399 594.691875 
L 159.524939 593.715601 
L 167.846478 592.739327 
L 176.168018 592.739327 
L 184.489558 592.739327 
L 192.811097 591.763053 
L 201.132637 590.78678 
L 209.454177 588.834232 
L 217.775717 588.834232 
L 226.097256 588.834232 
L 234.418796 587.857958 
L 242.740336 585.905411 
L 251.061876 583.952863 
L 259.383415 583.952863 
L 267.704955 581.024042 
L 276.026495 580.047768 
L 284.348034 578.095221 
L 292.669574 578.095221 
L 300.991114 578.095221 
L 309.312654 577.118947 
L 317.634193 577.118947 
L 325.955733 575.166399 
L 334.277273 575.166399 
L 342.598812 575.166399 
L 350.920352 575.166399 
L 359.241892 575.166399 
L 367.563432 573.213852 
L 375.884971 572.237578 
L 384.206511 572.237578 
L 392.528051 572.237578 
L 400.84959 572.237578 
L 409.17113 571.261304 
L 417.49267 571.261304 
" style="fill:none;stroke:#cc7af4;stroke-linecap:square;stroke-width:1.5;"/>
   </g>
   <g id="line2d_61">
    <path clip-path="url(#p2c10b8ef61)" d="M 417.49267 571.261304 
L 425.81421 570.228791 
L 434.135749 569.271821 
L 442.457289 568.345565 
L 450.778829 567.514925 
L 459.100369 566.801218 
" style="fill:none;stroke:#cc7af4;stroke-dasharray:1.5,2.475;stroke-dashoffset:0;stroke-width:1.5;"/>
   </g>
   <g id="patch_13">
    <path d="M 57.17 606.04 
L 57.17 442.293333 
" style="fill:none;stroke:#ffffff;stroke-linecap:square;stroke-linejoin:miter;stroke-width:0.8;"/>
   </g>
   <g id="patch_14">
    <path d="M 565.2 606.04 
L 565.2 442.293333 
" style="fill:none;stroke:#ffffff;stroke-linecap:square;stroke-linejoin:miter;stroke-width:0.8;"/>
   </g>
   <g id="patch_15">
    <path d="M 57.17 606.04 
L 565.2 606.04 
" style="fill:none;stroke:#ffffff;stroke-linecap:square;stroke-linejoin:miter;stroke-width:0.8;"/>
   </g>
   <g id="patch_16">
    <path d="M 57.17 442.293333 
L 565.2 442.293333 
" style="fill:none;stroke:#ffffff;stroke-linecap:square;stroke-linejoin:miter;stroke-width:0.8;"/>
   </g>
   <g id="text_47">
    <!-- Santa Clara, CA -->
    <defs>
     <path d="M 53.515625 70.515625 
L 53.515625 60.890625 
Q 47.90625 63.578125 42.921875 64.890625 
Q 37.9375 66.21875 33.296875 66.21875 
Q 25.25 66.21875 20.875 63.09375 
Q 16.5 59.96875 16.5 54.203125 
Q 16.5 49.359375 19.40625 46.890625 
Q 22.3125 44.4375 30.421875 42.921875 
L 36.375 41.703125 
Q 47.40625 39.59375 52.65625 34.296875 
Q 57.90625 29 57.90625 20.125 
Q 57.90625 9.515625 50.796875 4.046875 
Q 43.703125 -1.421875 29.984375 -1.421875 
Q 24.8125 -1.421875 18.96875 -0.25 
Q 13.140625 0.921875 6.890625 3.21875 
L 6.890625 13.375 
Q 12.890625 10.015625 18.65625 8.296875 
Q 24.421875 6.59375 29.984375 6.59375 
Q 38.421875 6.59375 43.015625 9.90625 
Q 47.609375 13.234375 47.609375 19.390625 
Q 47.609375 24.75 44.3125 27.78125 
Q 41.015625 30.8125 33.5 32.328125 
L 27.484375 33.5 
Q 16.453125 35.6875 11.515625 40.375 
Q 6.59375 45.0625 6.59375 53.421875 
Q 6.59375 63.09375 13.40625 68.65625 
Q 20.21875 74.21875 32.171875 74.21875 
Q 37.3125 74.21875 42.625 73.28125 
Q 47.953125 72.359375 53.515625 70.515625 
z
" id="DejaVuSans-83"/>
    </defs>
    <g style="fill:#f77189;" transform="translate(467.421908 453.53938)scale(0.08 -0.08)">
     <use xlink:href="#DejaVuSans-83"/>
     <use x="63.476562" xlink:href="#DejaVuSans-97"/>
     <use x="124.755859" xlink:href="#DejaVuSans-110"/>
     <use x="188.134766" xlink:href="#DejaVuSans-116"/>
     <use x="227.34375" xlink:href="#DejaVuSans-97"/>
     <use x="288.623047" xlink:href="#DejaVuSans-32"/>
     <use x="320.410156" xlink:href="#DejaVuSans-67"/>
     <use x="390.234375" xlink:href="#DejaVuSans-108"/>
     <use x="418.017578" xlink:href="#DejaVuSans-97"/>
     <use x="479.296875" xlink:href="#DejaVuSans-114"/>
     <use x="520.410156" xlink:href="#DejaVuSans-97"/>
     <use x="581.689453" xlink:href="#DejaVuSans-44"/>
     <use x="613.476562" xlink:href="#DejaVuSans-32"/>
     <use x="645.263672" xlink:href="#DejaVuSans-67"/>
     <use x="715.087891" xlink:href="#DejaVuSans-65"/>
    </g>
   </g>
   <g id="text_48">
    <!-- Alameda, CA -->
    <g style="fill:#ae9d31;" transform="translate(467.421908 523.81512)scale(0.08 -0.08)">
     <use xlink:href="#DejaVuSans-65"/>
     <use x="68.408203" xlink:href="#DejaVuSans-108"/>
     <use x="96.191406" xlink:href="#DejaVuSans-97"/>
     <use x="157.470703" xlink:href="#DejaVuSans-109"/>
     <use x="254.882812" xlink:href="#DejaVuSans-101"/>
     <use x="316.40625" xlink:href="#DejaVuSans-100"/>
     <use x="379.882812" xlink:href="#DejaVuSans-97"/>
     <use x="441.162109" xlink:href="#DejaVuSans-44"/>
     <use x="472.949219" xlink:href="#DejaVuSans-32"/>
     <use x="504.736328" xlink:href="#DejaVuSans-67"/>
     <use x="574.560547" xlink:href="#DejaVuSans-65"/>
    </g>
   </g>
   <g id="text_49">
    <!-- San Mateo, CA -->
    <g style="fill:#33b07a;" transform="translate(467.421908 541.396938)scale(0.08 -0.08)">
     <use xlink:href="#DejaVuSans-83"/>
     <use x="63.476562" xlink:href="#DejaVuSans-97"/>
     <use x="124.755859" xlink:href="#DejaVuSans-110"/>
     <use x="188.134766" xlink:href="#DejaVuSans-32"/>
     <use x="219.921875" xlink:href="#DejaVuSans-77"/>
     <use x="306.201172" xlink:href="#DejaVuSans-97"/>
     <use x="367.480469" xlink:href="#DejaVuSans-116"/>
     <use x="406.689453" xlink:href="#DejaVuSans-101"/>
     <use x="468.212891" xlink:href="#DejaVuSans-111"/>
     <use x="529.394531" xlink:href="#DejaVuSans-44"/>
     <use x="561.181641" xlink:href="#DejaVuSans-32"/>
     <use x="592.96875" xlink:href="#DejaVuSans-67"/>
     <use x="662.792969" xlink:href="#DejaVuSans-65"/>
    </g>
   </g>
   <g id="text_50">
    <!-- San Francisco, CA -->
    <defs>
     <path d="M 9.8125 72.90625 
L 51.703125 72.90625 
L 51.703125 64.59375 
L 19.671875 64.59375 
L 19.671875 43.109375 
L 48.578125 43.109375 
L 48.578125 34.8125 
L 19.671875 34.8125 
L 19.671875 0 
L 9.8125 0 
z
" id="DejaVuSans-70"/>
    </defs>
    <g style="fill:#38a9c5;" transform="translate(467.421908 561.087719)scale(0.08 -0.08)">
     <use xlink:href="#DejaVuSans-83"/>
     <use x="63.476562" xlink:href="#DejaVuSans-97"/>
     <use x="124.755859" xlink:href="#DejaVuSans-110"/>
     <use x="188.134766" xlink:href="#DejaVuSans-32"/>
     <use x="219.921875" xlink:href="#DejaVuSans-70"/>
     <use x="270.191406" xlink:href="#DejaVuSans-114"/>
     <use x="311.304688" xlink:href="#DejaVuSans-97"/>
     <use x="372.583984" xlink:href="#DejaVuSans-110"/>
     <use x="435.962891" xlink:href="#DejaVuSans-99"/>
     <use x="490.943359" xlink:href="#DejaVuSans-105"/>
     <use x="518.726562" xlink:href="#DejaVuSans-115"/>
     <use x="570.826172" xlink:href="#DejaVuSans-99"/>
     <use x="625.806641" xlink:href="#DejaVuSans-111"/>
     <use x="686.988281" xlink:href="#DejaVuSans-44"/>
     <use x="718.775391" xlink:href="#DejaVuSans-32"/>
     <use x="750.5625" xlink:href="#DejaVuSans-67"/>
     <use x="820.386719" xlink:href="#DejaVuSans-65"/>
    </g>
   </g>
   <g id="text_51">
    <!-- Contra Costa, CA -->
    <g style="fill:#cc7af4;" transform="translate(467.421908 573.658238)scale(0.08 -0.08)">
     <use xlink:href="#DejaVuSans-67"/>
     <use x="69.824219" xlink:href="#DejaVuSans-111"/>
     <use x="131.005859" xlink:href="#DejaVuSans-110"/>
     <use x="194.384766" xlink:href="#DejaVuSans-116"/>
     <use x="233.59375" xlink:href="#DejaVuSans-114"/>
     <use x="274.707031" xlink:href="#DejaVuSans-97"/>
     <use x="335.986328" xlink:href="#DejaVuSans-32"/>
     <use x="367.773438" xlink:href="#DejaVuSans-67"/>
     <use x="437.597656" xlink:href="#DejaVuSans-111"/>
     <use x="498.779297" xlink:href="#DejaVuSans-115"/>
     <use x="550.878906" xlink:href="#DejaVuSans-116"/>
     <use x="590.087891" xlink:href="#DejaVuSans-97"/>
     <use x="651.367188" xlink:href="#DejaVuSans-44"/>
     <use x="683.154297" xlink:href="#DejaVuSans-32"/>
     <use x="714.941406" xlink:href="#DejaVuSans-67"/>
     <use x="784.765625" xlink:href="#DejaVuSans-65"/>
    </g>
   </g>
   <g id="text_52">
    <!-- Bay area counties -->
    <g style="fill:#ffffff;" transform="translate(257.2375 436.293333)scale(0.12 -0.12)">
     <use xlink:href="#DejaVuSans-66"/>
     <use x="68.603516" xlink:href="#DejaVuSans-97"/>
     <use x="129.882812" xlink:href="#DejaVuSans-121"/>
     <use x="189.0625" xlink:href="#DejaVuSans-32"/>
     <use x="220.849609" xlink:href="#DejaVuSans-97"/>
     <use x="282.128906" xlink:href="#DejaVuSans-114"/>
     <use x="320.992188" xlink:href="#DejaVuSans-101"/>
     <use x="382.515625" xlink:href="#DejaVuSans-97"/>
     <use x="443.794922" xlink:href="#DejaVuSans-32"/>
     <use x="475.582031" xlink:href="#DejaVuSans-99"/>
     <use x="530.5625" xlink:href="#DejaVuSans-111"/>
     <use x="591.744141" xlink:href="#DejaVuSans-117"/>
     <use x="655.123047" xlink:href="#DejaVuSans-110"/>
     <use x="718.501953" xlink:href="#DejaVuSans-116"/>
     <use x="757.710938" xlink:href="#DejaVuSans-105"/>
     <use x="785.494141" xlink:href="#DejaVuSans-101"/>
     <use x="847.017578" xlink:href="#DejaVuSans-115"/>
    </g>
   </g>
  </g>
 </g>
 <defs>
  <clipPath id="pf8c509bce2">
   <rect height="163.746667" width="508.03" x="57.17" y="26.88"/>
  </clipPath>
  <clipPath id="p2f111cb0b7">
   <rect height="163.746667" width="508.03" x="57.17" y="234.586667"/>
  </clipPath>
  <clipPath id="p2c10b8ef61">
   <rect height="163.746667" width="508.03" x="57.17" y="442.293333"/>
  </clipPath>
 </defs>
</svg>
