<?xml version="1.0" encoding="utf-8" standalone="no"?>
<!DOCTYPE svg PUBLIC "-//W3C//DTD SVG 1.1//EN"
  "http://www.w3.org/Graphics/SVG/1.1/DTD/svg11.dtd">
<!-- Created with matplotlib (https://matplotlib.org/) -->
<svg height="648pt" version="1.1" viewBox="0 0 576 648" width="576pt" xmlns="http://www.w3.org/2000/svg" xmlns:xlink="http://www.w3.org/1999/xlink">
 <defs>
  <style type="text/css">
*{stroke-linecap:butt;stroke-linejoin:round;}
  </style>
 </defs>
 <g id="figure_1">
  <g id="patch_1">
   <path d="M 0 648 
L 576 648 
L 576 0 
L 0 0 
z
"/>
  </g>
  <g id="axes_1">
   <g id="patch_2">
    <path d="M 57.17 190.626667 
L 565.2 190.626667 
L 565.2 26.88 
L 57.17 26.88 
z
"/>
   </g>
   <g id="PolyCollection_1">
    <defs>
     <path d="M 407.224235 -562.652263 
L 407.224235 -562.652263 
L 417.254442 -562.652263 
L 427.28465 -563.273496 
L 437.314857 -564.272636 
L 447.345064 -562.652263 
L 457.375271 -562.652263 
L 457.375271 -613.67697 
L 457.375271 -613.67697 
L 447.345064 -602.308442 
L 437.314857 -589.45381 
L 427.28465 -580.670525 
L 417.254442 -571.61134 
L 407.224235 -562.652263 
z
" id="m059bdd1e0b" style="stroke:#f77189;stroke-opacity:0.1;"/>
    </defs>
    <g clip-path="url(#peaaaaffe53)">
     <use style="fill:#f77189;fill-opacity:0.1;stroke:#f77189;stroke-opacity:0.1;" x="0" xlink:href="#m059bdd1e0b" y="648"/>
    </g>
   </g>
   <g id="PolyCollection_2">
    <defs>
     <path d="M 407.224235 -561.629213 
L 407.224235 -561.629213 
L 417.254442 -561.629213 
L 427.28465 -561.987104 
L 437.314857 -562.143508 
L 447.345064 -562.83848 
L 457.375271 -563.027892 
L 457.375271 -609.771627 
L 457.375271 -609.771627 
L 447.345064 -599.030033 
L 437.314857 -589.460507 
L 427.28465 -579.954642 
L 417.254442 -570.81261 
L 407.224235 -561.629213 
z
" id="m606a6a9c12" style="stroke:#ae9d31;stroke-opacity:0.1;"/>
    </defs>
    <g clip-path="url(#peaaaaffe53)">
     <use style="fill:#ae9d31;fill-opacity:0.1;stroke:#ae9d31;stroke-opacity:0.1;" x="0" xlink:href="#m606a6a9c12" y="648"/>
    </g>
   </g>
   <g id="PolyCollection_3">
    <defs>
     <path d="M 407.224235 -528.972376 
L 407.224235 -528.972376 
L 417.254442 -528.972376 
L 427.28465 -529.815819 
L 437.314857 -530.021254 
L 447.345064 -529.703067 
L 457.375271 -529.502602 
L 457.375271 -561.592951 
L 457.375271 -561.592951 
L 447.345064 -554.129164 
L 437.314857 -546.945634 
L 427.28465 -540.672995 
L 417.254442 -535.217814 
L 407.224235 -528.972376 
z
" id="m56e91525ff" style="stroke:#33b07a;stroke-opacity:0.1;"/>
    </defs>
    <g clip-path="url(#peaaaaffe53)">
     <use style="fill:#33b07a;fill-opacity:0.1;stroke:#33b07a;stroke-opacity:0.1;" x="0" xlink:href="#m56e91525ff" y="648"/>
    </g>
   </g>
   <g id="PolyCollection_4">
    <defs>
     <path d="M 407.224235 -505.549912 
L 407.224235 -505.549912 
L 417.254442 -505.549912 
L 427.28465 -505.549912 
L 437.314857 -505.549912 
L 447.345064 -506.200749 
L 457.375271 -509.619298 
L 457.375271 -520.114352 
L 457.375271 -520.114352 
L 447.345064 -519.537093 
L 437.314857 -516.883889 
L 427.28465 -513.782111 
L 417.254442 -509.499372 
L 407.224235 -505.549912 
z
" id="m7fca410b6d" style="stroke:#38a9c5;stroke-opacity:0.1;"/>
    </defs>
    <g clip-path="url(#peaaaaffe53)">
     <use style="fill:#38a9c5;fill-opacity:0.1;stroke:#38a9c5;stroke-opacity:0.1;" x="0" xlink:href="#m7fca410b6d" y="648"/>
    </g>
   </g>
   <g id="PolyCollection_5">
    <defs>
     <path d="M 407.224235 -503.530734 
L 407.224235 -503.530734 
L 417.254442 -503.530734 
L 427.28465 -504.344715 
L 437.314857 -504.329255 
L 447.345064 -503.933631 
L 457.375271 -506.88609 
L 457.375271 -517.203475 
L 457.375271 -517.203475 
L 447.345064 -516.724339 
L 437.314857 -512.7968 
L 427.28465 -509.35865 
L 417.254442 -507.934813 
L 407.224235 -503.530734 
z
" id="me503bdd92d" style="stroke:#cc7af4;stroke-opacity:0.1;"/>
    </defs>
    <g clip-path="url(#peaaaaffe53)">
     <use style="fill:#cc7af4;fill-opacity:0.1;stroke:#cc7af4;stroke-opacity:0.1;" x="0" xlink:href="#me503bdd92d" y="648"/>
    </g>
   </g>
   <g id="matplotlib.axis_1">
    <g id="xtick_1">
     <g id="line2d_1">
      <defs>
       <path d="M 0 0 
L 0 3.5 
" id="me47bc32886" style="stroke:#ffffff;stroke-width:0.8;"/>
      </defs>
      <g>
       <use style="fill:#ffffff;stroke:#ffffff;stroke-width:0.8;" x="76.227394" xlink:href="#me47bc32886" y="190.626667"/>
      </g>
     </g>
     <g id="text_1">
      <!-- 3/22 -->
      <defs>
       <path d="M 40.578125 39.3125 
Q 47.65625 37.796875 51.625 33 
Q 55.609375 28.21875 55.609375 21.1875 
Q 55.609375 10.40625 48.1875 4.484375 
Q 40.765625 -1.421875 27.09375 -1.421875 
Q 22.515625 -1.421875 17.65625 -0.515625 
Q 12.796875 0.390625 7.625 2.203125 
L 7.625 11.71875 
Q 11.71875 9.328125 16.59375 8.109375 
Q 21.484375 6.890625 26.8125 6.890625 
Q 36.078125 6.890625 40.9375 10.546875 
Q 45.796875 14.203125 45.796875 21.1875 
Q 45.796875 27.640625 41.28125 31.265625 
Q 36.765625 34.90625 28.71875 34.90625 
L 20.21875 34.90625 
L 20.21875 43.015625 
L 29.109375 43.015625 
Q 36.375 43.015625 40.234375 45.921875 
Q 44.09375 48.828125 44.09375 54.296875 
Q 44.09375 59.90625 40.109375 62.90625 
Q 36.140625 65.921875 28.71875 65.921875 
Q 24.65625 65.921875 20.015625 65.03125 
Q 15.375 64.15625 9.8125 62.3125 
L 9.8125 71.09375 
Q 15.4375 72.65625 20.34375 73.4375 
Q 25.25 74.21875 29.59375 74.21875 
Q 40.828125 74.21875 47.359375 69.109375 
Q 53.90625 64.015625 53.90625 55.328125 
Q 53.90625 49.265625 50.4375 45.09375 
Q 46.96875 40.921875 40.578125 39.3125 
z
" id="DejaVuSans-51"/>
       <path d="M 25.390625 72.90625 
L 33.6875 72.90625 
L 8.296875 -9.28125 
L 0 -9.28125 
z
" id="DejaVuSans-47"/>
       <path d="M 19.1875 8.296875 
L 53.609375 8.296875 
L 53.609375 0 
L 7.328125 0 
L 7.328125 8.296875 
Q 12.9375 14.109375 22.625 23.890625 
Q 32.328125 33.6875 34.8125 36.53125 
Q 39.546875 41.84375 41.421875 45.53125 
Q 43.3125 49.21875 43.3125 52.78125 
Q 43.3125 58.59375 39.234375 62.25 
Q 35.15625 65.921875 28.609375 65.921875 
Q 23.96875 65.921875 18.8125 64.3125 
Q 13.671875 62.703125 7.8125 59.421875 
L 7.8125 69.390625 
Q 13.765625 71.78125 18.9375 73 
Q 24.125 74.21875 28.421875 74.21875 
Q 39.75 74.21875 46.484375 68.546875 
Q 53.21875 62.890625 53.21875 53.421875 
Q 53.21875 48.921875 51.53125 44.890625 
Q 49.859375 40.875 45.40625 35.40625 
Q 44.1875 33.984375 37.640625 27.21875 
Q 31.109375 20.453125 19.1875 8.296875 
z
" id="DejaVuSans-50"/>
      </defs>
      <g style="fill:#ffffff;" transform="translate(64.999269 205.225104)scale(0.1 -0.1)">
       <use xlink:href="#DejaVuSans-51"/>
       <use x="63.623047" xlink:href="#DejaVuSans-47"/>
       <use x="97.314453" xlink:href="#DejaVuSans-50"/>
       <use x="160.9375" xlink:href="#DejaVuSans-50"/>
      </g>
     </g>
    </g>
    <g id="xtick_2">
     <g id="line2d_2">
      <g>
       <use style="fill:#ffffff;stroke:#ffffff;stroke-width:0.8;" x="407.224235" xlink:href="#me47bc32886" y="190.626667"/>
      </g>
     </g>
     <g id="text_2">
      <!-- 4/25 -->
      <defs>
       <path d="M 37.796875 64.3125 
L 12.890625 25.390625 
L 37.796875 25.390625 
z
M 35.203125 72.90625 
L 47.609375 72.90625 
L 47.609375 25.390625 
L 58.015625 25.390625 
L 58.015625 17.1875 
L 47.609375 17.1875 
L 47.609375 0 
L 37.796875 0 
L 37.796875 17.1875 
L 4.890625 17.1875 
L 4.890625 26.703125 
z
" id="DejaVuSans-52"/>
       <path d="M 10.796875 72.90625 
L 49.515625 72.90625 
L 49.515625 64.59375 
L 19.828125 64.59375 
L 19.828125 46.734375 
Q 21.96875 47.46875 24.109375 47.828125 
Q 26.265625 48.1875 28.421875 48.1875 
Q 40.625 48.1875 47.75 41.5 
Q 54.890625 34.8125 54.890625 23.390625 
Q 54.890625 11.625 47.5625 5.09375 
Q 40.234375 -1.421875 26.90625 -1.421875 
Q 22.3125 -1.421875 17.546875 -0.640625 
Q 12.796875 0.140625 7.71875 1.703125 
L 7.71875 11.625 
Q 12.109375 9.234375 16.796875 8.0625 
Q 21.484375 6.890625 26.703125 6.890625 
Q 35.15625 6.890625 40.078125 11.328125 
Q 45.015625 15.765625 45.015625 23.390625 
Q 45.015625 31 40.078125 35.4375 
Q 35.15625 39.890625 26.703125 39.890625 
Q 22.75 39.890625 18.8125 39.015625 
Q 14.890625 38.140625 10.796875 36.28125 
z
" id="DejaVuSans-53"/>
      </defs>
      <g style="fill:#ffffff;" transform="translate(395.99611 205.225104)scale(0.1 -0.1)">
       <use xlink:href="#DejaVuSans-52"/>
       <use x="63.623047" xlink:href="#DejaVuSans-47"/>
       <use x="97.314453" xlink:href="#DejaVuSans-50"/>
       <use x="160.9375" xlink:href="#DejaVuSans-53"/>
      </g>
     </g>
    </g>
    <g id="xtick_3">
     <g id="line2d_3">
      <g>
       <use style="fill:#ffffff;stroke:#ffffff;stroke-width:0.8;" x="457.375271" xlink:href="#me47bc32886" y="190.626667"/>
      </g>
     </g>
     <g id="text_3">
      <!-- 4/30 -->
      <defs>
       <path d="M 31.78125 66.40625 
Q 24.171875 66.40625 20.328125 58.90625 
Q 16.5 51.421875 16.5 36.375 
Q 16.5 21.390625 20.328125 13.890625 
Q 24.171875 6.390625 31.78125 6.390625 
Q 39.453125 6.390625 43.28125 13.890625 
Q 47.125 21.390625 47.125 36.375 
Q 47.125 51.421875 43.28125 58.90625 
Q 39.453125 66.40625 31.78125 66.40625 
z
M 31.78125 74.21875 
Q 44.046875 74.21875 50.515625 64.515625 
Q 56.984375 54.828125 56.984375 36.375 
Q 56.984375 17.96875 50.515625 8.265625 
Q 44.046875 -1.421875 31.78125 -1.421875 
Q 19.53125 -1.421875 13.0625 8.265625 
Q 6.59375 17.96875 6.59375 36.375 
Q 6.59375 54.828125 13.0625 64.515625 
Q 19.53125 74.21875 31.78125 74.21875 
z
" id="DejaVuSans-48"/>
      </defs>
      <g style="fill:#ffffff;" transform="translate(446.147146 205.225104)scale(0.1 -0.1)">
       <use xlink:href="#DejaVuSans-52"/>
       <use x="63.623047" xlink:href="#DejaVuSans-47"/>
       <use x="97.314453" xlink:href="#DejaVuSans-51"/>
       <use x="160.9375" xlink:href="#DejaVuSans-48"/>
      </g>
     </g>
    </g>
   </g>
   <g id="matplotlib.axis_2">
    <g id="ytick_1">
     <g id="line2d_4">
      <defs>
       <path d="M 0 0 
L -3.5 0 
" id="m4ac9a52464" style="stroke:#ffffff;stroke-width:0.8;"/>
      </defs>
      <g>
       <use style="fill:#ffffff;stroke:#ffffff;stroke-width:0.8;" x="57.17" xlink:href="#m4ac9a52464" y="183.318248"/>
      </g>
     </g>
     <g id="text_4">
      <!-- 0 -->
      <g style="fill:#ffffff;" transform="translate(43.8075 187.117467)scale(0.1 -0.1)">
       <use xlink:href="#DejaVuSans-48"/>
      </g>
     </g>
    </g>
    <g id="ytick_2">
     <g id="line2d_5">
      <g>
       <use style="fill:#ffffff;stroke:#ffffff;stroke-width:0.8;" x="57.17" xlink:href="#m4ac9a52464" y="156.395876"/>
      </g>
     </g>
     <g id="text_5">
      <!-- 1000 -->
      <defs>
       <path d="M 12.40625 8.296875 
L 28.515625 8.296875 
L 28.515625 63.921875 
L 10.984375 60.40625 
L 10.984375 69.390625 
L 28.421875 72.90625 
L 38.28125 72.90625 
L 38.28125 8.296875 
L 54.390625 8.296875 
L 54.390625 0 
L 12.40625 0 
z
" id="DejaVuSans-49"/>
      </defs>
      <g style="fill:#ffffff;" transform="translate(24.72 160.195095)scale(0.1 -0.1)">
       <use xlink:href="#DejaVuSans-49"/>
       <use x="63.623047" xlink:href="#DejaVuSans-48"/>
       <use x="127.246094" xlink:href="#DejaVuSans-48"/>
       <use x="190.869141" xlink:href="#DejaVuSans-48"/>
      </g>
     </g>
    </g>
    <g id="ytick_3">
     <g id="line2d_6">
      <g>
       <use style="fill:#ffffff;stroke:#ffffff;stroke-width:0.8;" x="57.17" xlink:href="#m4ac9a52464" y="129.473505"/>
      </g>
     </g>
     <g id="text_6">
      <!-- 2000 -->
      <g style="fill:#ffffff;" transform="translate(24.72 133.272723)scale(0.1 -0.1)">
       <use xlink:href="#DejaVuSans-50"/>
       <use x="63.623047" xlink:href="#DejaVuSans-48"/>
       <use x="127.246094" xlink:href="#DejaVuSans-48"/>
       <use x="190.869141" xlink:href="#DejaVuSans-48"/>
      </g>
     </g>
    </g>
    <g id="ytick_4">
     <g id="line2d_7">
      <g>
       <use style="fill:#ffffff;stroke:#ffffff;stroke-width:0.8;" x="57.17" xlink:href="#m4ac9a52464" y="102.551133"/>
      </g>
     </g>
     <g id="text_7">
      <!-- 3000 -->
      <g style="fill:#ffffff;" transform="translate(24.72 106.350352)scale(0.1 -0.1)">
       <use xlink:href="#DejaVuSans-51"/>
       <use x="63.623047" xlink:href="#DejaVuSans-48"/>
       <use x="127.246094" xlink:href="#DejaVuSans-48"/>
       <use x="190.869141" xlink:href="#DejaVuSans-48"/>
      </g>
     </g>
    </g>
    <g id="ytick_5">
     <g id="line2d_8">
      <g>
       <use style="fill:#ffffff;stroke:#ffffff;stroke-width:0.8;" x="57.17" xlink:href="#m4ac9a52464" y="75.628761"/>
      </g>
     </g>
     <g id="text_8">
      <!-- 4000 -->
      <g style="fill:#ffffff;" transform="translate(24.72 79.42798)scale(0.1 -0.1)">
       <use xlink:href="#DejaVuSans-52"/>
       <use x="63.623047" xlink:href="#DejaVuSans-48"/>
       <use x="127.246094" xlink:href="#DejaVuSans-48"/>
       <use x="190.869141" xlink:href="#DejaVuSans-48"/>
      </g>
     </g>
    </g>
    <g id="ytick_6">
     <g id="line2d_9">
      <g>
       <use style="fill:#ffffff;stroke:#ffffff;stroke-width:0.8;" x="57.17" xlink:href="#m4ac9a52464" y="48.706389"/>
      </g>
     </g>
     <g id="text_9">
      <!-- 5000 -->
      <g style="fill:#ffffff;" transform="translate(24.72 52.505608)scale(0.1 -0.1)">
       <use xlink:href="#DejaVuSans-53"/>
       <use x="63.623047" xlink:href="#DejaVuSans-48"/>
       <use x="127.246094" xlink:href="#DejaVuSans-48"/>
       <use x="190.869141" xlink:href="#DejaVuSans-48"/>
      </g>
     </g>
    </g>
    <g id="text_10">
     <!-- Cumulative deaths -->
     <defs>
      <path d="M 64.40625 67.28125 
L 64.40625 56.890625 
Q 59.421875 61.53125 53.78125 63.8125 
Q 48.140625 66.109375 41.796875 66.109375 
Q 29.296875 66.109375 22.65625 58.46875 
Q 16.015625 50.828125 16.015625 36.375 
Q 16.015625 21.96875 22.65625 14.328125 
Q 29.296875 6.6875 41.796875 6.6875 
Q 48.140625 6.6875 53.78125 8.984375 
Q 59.421875 11.28125 64.40625 15.921875 
L 64.40625 5.609375 
Q 59.234375 2.09375 53.4375 0.328125 
Q 47.65625 -1.421875 41.21875 -1.421875 
Q 24.65625 -1.421875 15.125 8.703125 
Q 5.609375 18.84375 5.609375 36.375 
Q 5.609375 53.953125 15.125 64.078125 
Q 24.65625 74.21875 41.21875 74.21875 
Q 47.75 74.21875 53.53125 72.484375 
Q 59.328125 70.75 64.40625 67.28125 
z
" id="DejaVuSans-67"/>
      <path d="M 8.5 21.578125 
L 8.5 54.6875 
L 17.484375 54.6875 
L 17.484375 21.921875 
Q 17.484375 14.15625 20.5 10.265625 
Q 23.53125 6.390625 29.59375 6.390625 
Q 36.859375 6.390625 41.078125 11.03125 
Q 45.3125 15.671875 45.3125 23.6875 
L 45.3125 54.6875 
L 54.296875 54.6875 
L 54.296875 0 
L 45.3125 0 
L 45.3125 8.40625 
Q 42.046875 3.421875 37.71875 1 
Q 33.40625 -1.421875 27.6875 -1.421875 
Q 18.265625 -1.421875 13.375 4.4375 
Q 8.5 10.296875 8.5 21.578125 
z
M 31.109375 56 
z
" id="DejaVuSans-117"/>
      <path d="M 52 44.1875 
Q 55.375 50.25 60.0625 53.125 
Q 64.75 56 71.09375 56 
Q 79.640625 56 84.28125 50.015625 
Q 88.921875 44.046875 88.921875 33.015625 
L 88.921875 0 
L 79.890625 0 
L 79.890625 32.71875 
Q 79.890625 40.578125 77.09375 44.375 
Q 74.3125 48.1875 68.609375 48.1875 
Q 61.625 48.1875 57.5625 43.546875 
Q 53.515625 38.921875 53.515625 30.90625 
L 53.515625 0 
L 44.484375 0 
L 44.484375 32.71875 
Q 44.484375 40.625 41.703125 44.40625 
Q 38.921875 48.1875 33.109375 48.1875 
Q 26.21875 48.1875 22.15625 43.53125 
Q 18.109375 38.875 18.109375 30.90625 
L 18.109375 0 
L 9.078125 0 
L 9.078125 54.6875 
L 18.109375 54.6875 
L 18.109375 46.1875 
Q 21.1875 51.21875 25.484375 53.609375 
Q 29.78125 56 35.6875 56 
Q 41.65625 56 45.828125 52.96875 
Q 50 49.953125 52 44.1875 
z
" id="DejaVuSans-109"/>
      <path d="M 9.421875 75.984375 
L 18.40625 75.984375 
L 18.40625 0 
L 9.421875 0 
z
" id="DejaVuSans-108"/>
      <path d="M 34.28125 27.484375 
Q 23.390625 27.484375 19.1875 25 
Q 14.984375 22.515625 14.984375 16.5 
Q 14.984375 11.71875 18.140625 8.90625 
Q 21.296875 6.109375 26.703125 6.109375 
Q 34.1875 6.109375 38.703125 11.40625 
Q 43.21875 16.703125 43.21875 25.484375 
L 43.21875 27.484375 
z
M 52.203125 31.203125 
L 52.203125 0 
L 43.21875 0 
L 43.21875 8.296875 
Q 40.140625 3.328125 35.546875 0.953125 
Q 30.953125 -1.421875 24.3125 -1.421875 
Q 15.921875 -1.421875 10.953125 3.296875 
Q 6 8.015625 6 15.921875 
Q 6 25.140625 12.171875 29.828125 
Q 18.359375 34.515625 30.609375 34.515625 
L 43.21875 34.515625 
L 43.21875 35.40625 
Q 43.21875 41.609375 39.140625 45 
Q 35.0625 48.390625 27.6875 48.390625 
Q 23 48.390625 18.546875 47.265625 
Q 14.109375 46.140625 10.015625 43.890625 
L 10.015625 52.203125 
Q 14.9375 54.109375 19.578125 55.046875 
Q 24.21875 56 28.609375 56 
Q 40.484375 56 46.34375 49.84375 
Q 52.203125 43.703125 52.203125 31.203125 
z
" id="DejaVuSans-97"/>
      <path d="M 18.3125 70.21875 
L 18.3125 54.6875 
L 36.8125 54.6875 
L 36.8125 47.703125 
L 18.3125 47.703125 
L 18.3125 18.015625 
Q 18.3125 11.328125 20.140625 9.421875 
Q 21.96875 7.515625 27.59375 7.515625 
L 36.8125 7.515625 
L 36.8125 0 
L 27.59375 0 
Q 17.1875 0 13.234375 3.875 
Q 9.28125 7.765625 9.28125 18.015625 
L 9.28125 47.703125 
L 2.6875 47.703125 
L 2.6875 54.6875 
L 9.28125 54.6875 
L 9.28125 70.21875 
z
" id="DejaVuSans-116"/>
      <path d="M 9.421875 54.6875 
L 18.40625 54.6875 
L 18.40625 0 
L 9.421875 0 
z
M 9.421875 75.984375 
L 18.40625 75.984375 
L 18.40625 64.59375 
L 9.421875 64.59375 
z
" id="DejaVuSans-105"/>
      <path d="M 2.984375 54.6875 
L 12.5 54.6875 
L 29.59375 8.796875 
L 46.6875 54.6875 
L 56.203125 54.6875 
L 35.6875 0 
L 23.484375 0 
z
" id="DejaVuSans-118"/>
      <path d="M 56.203125 29.59375 
L 56.203125 25.203125 
L 14.890625 25.203125 
Q 15.484375 15.921875 20.484375 11.0625 
Q 25.484375 6.203125 34.421875 6.203125 
Q 39.59375 6.203125 44.453125 7.46875 
Q 49.3125 8.734375 54.109375 11.28125 
L 54.109375 2.78125 
Q 49.265625 0.734375 44.1875 -0.34375 
Q 39.109375 -1.421875 33.890625 -1.421875 
Q 20.796875 -1.421875 13.15625 6.1875 
Q 5.515625 13.8125 5.515625 26.8125 
Q 5.515625 40.234375 12.765625 48.109375 
Q 20.015625 56 32.328125 56 
Q 43.359375 56 49.78125 48.890625 
Q 56.203125 41.796875 56.203125 29.59375 
z
M 47.21875 32.234375 
Q 47.125 39.59375 43.09375 43.984375 
Q 39.0625 48.390625 32.421875 48.390625 
Q 24.90625 48.390625 20.390625 44.140625 
Q 15.875 39.890625 15.1875 32.171875 
z
" id="DejaVuSans-101"/>
      <path id="DejaVuSans-32"/>
      <path d="M 45.40625 46.390625 
L 45.40625 75.984375 
L 54.390625 75.984375 
L 54.390625 0 
L 45.40625 0 
L 45.40625 8.203125 
Q 42.578125 3.328125 38.25 0.953125 
Q 33.9375 -1.421875 27.875 -1.421875 
Q 17.96875 -1.421875 11.734375 6.484375 
Q 5.515625 14.40625 5.515625 27.296875 
Q 5.515625 40.1875 11.734375 48.09375 
Q 17.96875 56 27.875 56 
Q 33.9375 56 38.25 53.625 
Q 42.578125 51.265625 45.40625 46.390625 
z
M 14.796875 27.296875 
Q 14.796875 17.390625 18.875 11.75 
Q 22.953125 6.109375 30.078125 6.109375 
Q 37.203125 6.109375 41.296875 11.75 
Q 45.40625 17.390625 45.40625 27.296875 
Q 45.40625 37.203125 41.296875 42.84375 
Q 37.203125 48.484375 30.078125 48.484375 
Q 22.953125 48.484375 18.875 42.84375 
Q 14.796875 37.203125 14.796875 27.296875 
z
" id="DejaVuSans-100"/>
      <path d="M 54.890625 33.015625 
L 54.890625 0 
L 45.90625 0 
L 45.90625 32.71875 
Q 45.90625 40.484375 42.875 44.328125 
Q 39.84375 48.1875 33.796875 48.1875 
Q 26.515625 48.1875 22.3125 43.546875 
Q 18.109375 38.921875 18.109375 30.90625 
L 18.109375 0 
L 9.078125 0 
L 9.078125 75.984375 
L 18.109375 75.984375 
L 18.109375 46.1875 
Q 21.34375 51.125 25.703125 53.5625 
Q 30.078125 56 35.796875 56 
Q 45.21875 56 50.046875 50.171875 
Q 54.890625 44.34375 54.890625 33.015625 
z
" id="DejaVuSans-104"/>
      <path d="M 44.28125 53.078125 
L 44.28125 44.578125 
Q 40.484375 46.53125 36.375 47.5 
Q 32.28125 48.484375 27.875 48.484375 
Q 21.1875 48.484375 17.84375 46.4375 
Q 14.5 44.390625 14.5 40.28125 
Q 14.5 37.15625 16.890625 35.375 
Q 19.28125 33.59375 26.515625 31.984375 
L 29.59375 31.296875 
Q 39.15625 29.25 43.1875 25.515625 
Q 47.21875 21.78125 47.21875 15.09375 
Q 47.21875 7.46875 41.1875 3.015625 
Q 35.15625 -1.421875 24.609375 -1.421875 
Q 20.21875 -1.421875 15.453125 -0.5625 
Q 10.6875 0.296875 5.421875 2 
L 5.421875 11.28125 
Q 10.40625 8.6875 15.234375 7.390625 
Q 20.0625 6.109375 24.8125 6.109375 
Q 31.15625 6.109375 34.5625 8.28125 
Q 37.984375 10.453125 37.984375 14.40625 
Q 37.984375 18.0625 35.515625 20.015625 
Q 33.0625 21.96875 24.703125 23.78125 
L 21.578125 24.515625 
Q 13.234375 26.265625 9.515625 29.90625 
Q 5.8125 33.546875 5.8125 39.890625 
Q 5.8125 47.609375 11.28125 51.796875 
Q 16.75 56 26.8125 56 
Q 31.78125 56 36.171875 55.265625 
Q 40.578125 54.546875 44.28125 53.078125 
z
" id="DejaVuSans-115"/>
     </defs>
     <g style="fill:#ffffff;" transform="translate(18.640313 155.928333)rotate(-90)scale(0.1 -0.1)">
      <use xlink:href="#DejaVuSans-67"/>
      <use x="69.824219" xlink:href="#DejaVuSans-117"/>
      <use x="133.203125" xlink:href="#DejaVuSans-109"/>
      <use x="230.615234" xlink:href="#DejaVuSans-117"/>
      <use x="293.994141" xlink:href="#DejaVuSans-108"/>
      <use x="321.777344" xlink:href="#DejaVuSans-97"/>
      <use x="383.056641" xlink:href="#DejaVuSans-116"/>
      <use x="422.265625" xlink:href="#DejaVuSans-105"/>
      <use x="450.048828" xlink:href="#DejaVuSans-118"/>
      <use x="509.228516" xlink:href="#DejaVuSans-101"/>
      <use x="570.751953" xlink:href="#DejaVuSans-32"/>
      <use x="602.539062" xlink:href="#DejaVuSans-100"/>
      <use x="666.015625" xlink:href="#DejaVuSans-101"/>
      <use x="727.539062" xlink:href="#DejaVuSans-97"/>
      <use x="788.818359" xlink:href="#DejaVuSans-116"/>
      <use x="828.027344" xlink:href="#DejaVuSans-104"/>
      <use x="891.40625" xlink:href="#DejaVuSans-115"/>
     </g>
    </g>
   </g>
   <g id="line2d_10">
    <path clip-path="url(#peaaaaffe53)" d="M 76.227394 182.941335 
L 86.257601 182.591344 
L 96.287808 182.106741 
L 106.318016 181.595216 
L 116.348223 181.137536 
L 126.37843 180.572166 
L 136.408638 178.822212 
L 146.438845 178.337609 
L 156.469052 177.529938 
L 166.49926 176.291509 
L 176.529467 174.48771 
L 186.559674 172.953135 
L 196.589882 170.260898 
L 206.620089 166.895601 
L 216.650296 159.195803 
L 226.680503 155.803584 
L 236.710711 152.276754 
L 246.740918 147.969174 
L 256.771125 143.661595 
L 266.801333 139.165558 
L 276.83154 133.700317 
L 286.861747 128.719678 
L 296.891955 125.919752 
L 306.922162 116.066163 
L 316.952369 111.381671 
L 326.982577 107.639461 
L 337.012784 107.639461 
L 347.042991 107.639461 
L 357.073198 98.189709 
L 367.103406 95.524394 
L 377.133613 92.859079 
L 387.16382 90.220686 
L 397.194028 88.013052 
L 407.224235 85.347737 
" style="fill:none;stroke:#f77189;stroke-linecap:square;stroke-width:1.5;"/>
   </g>
   <g id="line2d_11">
    <path clip-path="url(#peaaaaffe53)" d="M 407.224235 85.347737 
L 417.254442 80.548735 
L 427.28465 75.595462 
L 437.314857 70.375488 
L 447.345064 64.982931 
L 457.375271 59.513234 
" style="fill:none;stroke:#f77189;stroke-dasharray:1.5,2.475;stroke-dashoffset:0;stroke-width:1.5;"/>
   </g>
   <g id="line2d_12">
    <path clip-path="url(#peaaaaffe53)" d="M 76.227394 182.752878 
L 86.257601 182.241353 
L 96.287808 181.702906 
L 106.318016 180.84139 
L 116.348223 179.979874 
L 126.37843 179.306815 
L 136.408638 177.503016 
L 146.438845 176.506888 
L 156.469052 175.106925 
L 166.49926 173.195436 
L 176.529467 171.283948 
L 186.559674 169.883985 
L 196.589882 167.434049 
L 206.620089 164.876424 
L 216.650296 161.43036 
L 226.680503 157.79584 
L 236.710711 152.92289 
L 246.740918 147.134581 
L 256.771125 145.626928 
L 266.801333 135.961796 
L 276.83154 133.565705 
L 286.861747 126.350509 
L 296.891955 126.350509 
L 306.922162 118.139186 
L 316.952369 113.212392 
L 326.982577 109.174036 
L 337.012784 109.174036 
L 347.042991 109.174036 
L 357.073198 99.481982 
L 367.103406 96.601289 
L 377.133613 93.693672 
L 387.16382 90.920668 
L 397.194028 88.551499 
L 407.224235 86.370787 
" style="fill:none;stroke:#ae9d31;stroke-linecap:square;stroke-width:1.5;"/>
   </g>
   <g id="line2d_13">
    <path clip-path="url(#peaaaaffe53)" d="M 407.224235 86.370787 
L 417.254442 81.325839 
L 427.28465 76.08969 
L 437.314857 70.940297 
L 447.345064 65.572184 
L 457.375271 60.248897 
" style="fill:none;stroke:#ae9d31;stroke-dasharray:1.5,2.475;stroke-dashoffset:0;stroke-width:1.5;"/>
   </g>
   <g id="line2d_14">
    <path clip-path="url(#peaaaaffe53)" d="M 76.227394 182.941335 
L 86.257601 182.564422 
L 96.287808 182.133664 
L 106.318016 181.702906 
L 116.348223 181.191381 
L 126.37843 180.599089 
L 136.408638 179.226048 
L 146.438845 178.256842 
L 156.469052 177.529938 
L 166.49926 176.264587 
L 176.529467 173.626194 
L 186.559674 171.98393 
L 196.589882 170.39551 
L 206.620089 167.810962 
L 216.650296 166.437921 
L 226.680503 164.230287 
L 236.710711 159.034269 
L 246.740918 156.368954 
L 256.771125 155.157447 
L 266.801333 149.907585 
L 276.83154 148.103786 
L 286.861747 145.626928 
L 296.891955 144.711567 
L 306.922162 138.7348 
L 316.952369 135.638728 
L 326.982577 133.646472 
L 337.012784 133.646472 
L 347.042991 133.646472 
L 357.073198 127.292792 
L 367.103406 125.704373 
L 377.133613 124.169797 
L 387.16382 122.527533 
L 397.194028 120.45451 
L 407.224235 119.027624 
" style="fill:none;stroke:#33b07a;stroke-linecap:square;stroke-width:1.5;"/>
   </g>
   <g id="line2d_15">
    <path clip-path="url(#peaaaaffe53)" d="M 407.224235 119.027624 
L 417.254442 115.602365 
L 427.28465 111.932035 
L 437.314857 108.58094 
L 447.345064 104.976107 
L 457.375271 101.432494 
" style="fill:none;stroke:#33b07a;stroke-dasharray:1.5,2.475;stroke-dashoffset:0;stroke-width:1.5;"/>
   </g>
   <g id="line2d_16">
    <path clip-path="url(#peaaaaffe53)" d="M 76.227394 183.129792 
L 86.257601 183.129792 
L 96.287808 183.129792 
L 106.318016 182.860568 
L 116.348223 182.806723 
L 126.37843 182.591344 
L 136.408638 182.375965 
L 146.438845 182.375965 
L 156.469052 182.025974 
L 166.49926 181.622139 
L 176.529467 181.272148 
L 186.559674 180.760623 
L 196.589882 179.468349 
L 206.620089 179.306815 
L 216.650296 173.060825 
L 226.680503 171.660861 
L 236.710711 169.857062 
L 246.740918 168.080186 
L 256.771125 162.103419 
L 266.801333 159.357337 
L 276.83154 157.338159 
L 286.861747 155.588205 
L 296.891955 154.861301 
L 306.922162 154.861301 
L 316.952369 154.861301 
L 326.982577 153.461338 
L 337.012784 153.461338 
L 347.042991 153.461338 
L 357.073198 148.83069 
L 367.103406 147.538416 
L 377.133613 145.896151 
L 387.16382 144.792334 
L 397.194028 143.715439 
L 407.224235 142.450088 
" style="fill:none;stroke:#38a9c5;stroke-linecap:square;stroke-width:1.5;"/>
   </g>
   <g id="line2d_17">
    <path clip-path="url(#peaaaaffe53)" d="M 407.224235 142.450088 
L 417.254442 140.2315 
L 427.28465 137.929591 
L 437.314857 135.798731 
L 447.345064 133.733201 
L 457.375271 131.869581 
" style="fill:none;stroke:#38a9c5;stroke-dasharray:1.5,2.475;stroke-dashoffset:0;stroke-width:1.5;"/>
   </g>
   <g id="line2d_18">
    <path clip-path="url(#peaaaaffe53)" d="M 76.227394 183.183636 
L 86.257601 183.102869 
L 96.287808 182.968257 
L 106.318016 182.752878 
L 116.348223 182.618267 
L 126.37843 182.32212 
L 136.408638 182.079819 
L 146.438845 181.810595 
L 156.469052 181.083691 
L 166.49926 180.087564 
L 176.529467 179.387582 
L 186.559674 178.095308 
L 196.589882 177.314559 
L 206.620089 176.533811 
L 216.650296 175.429993 
L 226.680503 174.003108 
L 236.710711 172.495455 
L 246.740918 171.31087 
L 256.771125 169.749373 
L 266.801333 166.922524 
L 276.83154 165.764862 
L 286.861747 164.364898 
L 296.891955 164.364898 
L 306.922162 161.241903 
L 316.952369 159.518872 
L 326.982577 156.907401 
L 337.012784 155.211292 
L 347.042991 154.51131 
L 357.073198 153.192114 
L 367.103406 152.411365 
L 377.133613 148.911457 
L 387.16382 147.80764 
L 397.194028 145.734617 
L 407.224235 144.469266 
" style="fill:none;stroke:#cc7af4;stroke-linecap:square;stroke-width:1.5;"/>
   </g>
   <g id="line2d_19">
    <path clip-path="url(#peaaaaffe53)" d="M 407.224235 144.469266 
L 417.254442 142.844992 
L 427.28465 141.324618 
L 437.314857 139.539021 
L 447.345064 137.721096 
L 457.375271 135.901603 
" style="fill:none;stroke:#cc7af4;stroke-dasharray:1.5,2.475;stroke-dashoffset:0;stroke-width:1.5;"/>
   </g>
   <g id="patch_3">
    <path d="M 57.17 190.626667 
L 57.17 26.88 
" style="fill:none;stroke:#ffffff;stroke-linecap:square;stroke-linejoin:miter;stroke-width:0.8;"/>
   </g>
   <g id="patch_4">
    <path d="M 565.2 190.626667 
L 565.2 26.88 
" style="fill:none;stroke:#ffffff;stroke-linecap:square;stroke-linejoin:miter;stroke-width:0.8;"/>
   </g>
   <g id="patch_5">
    <path d="M 57.17 190.626667 
L 565.2 190.626667 
" style="fill:none;stroke:#ffffff;stroke-linecap:square;stroke-linejoin:miter;stroke-width:0.8;"/>
   </g>
   <g id="patch_6">
    <path d="M 57.17 26.88 
L 565.2 26.88 
" style="fill:none;stroke:#ffffff;stroke-linecap:square;stroke-linejoin:miter;stroke-width:0.8;"/>
   </g>
   <g id="text_11">
    <!-- Kings, NY -->
    <defs>
     <path d="M 9.8125 72.90625 
L 19.671875 72.90625 
L 19.671875 42.09375 
L 52.390625 72.90625 
L 65.09375 72.90625 
L 28.90625 38.921875 
L 67.671875 0 
L 54.6875 0 
L 19.671875 35.109375 
L 19.671875 0 
L 9.8125 0 
z
" id="DejaVuSans-75"/>
     <path d="M 54.890625 33.015625 
L 54.890625 0 
L 45.90625 0 
L 45.90625 32.71875 
Q 45.90625 40.484375 42.875 44.328125 
Q 39.84375 48.1875 33.796875 48.1875 
Q 26.515625 48.1875 22.3125 43.546875 
Q 18.109375 38.921875 18.109375 30.90625 
L 18.109375 0 
L 9.078125 0 
L 9.078125 54.6875 
L 18.109375 54.6875 
L 18.109375 46.1875 
Q 21.34375 51.125 25.703125 53.5625 
Q 30.078125 56 35.796875 56 
Q 45.21875 56 50.046875 50.171875 
Q 54.890625 44.34375 54.890625 33.015625 
z
" id="DejaVuSans-110"/>
     <path d="M 45.40625 27.984375 
Q 45.40625 37.75 41.375 43.109375 
Q 37.359375 48.484375 30.078125 48.484375 
Q 22.859375 48.484375 18.828125 43.109375 
Q 14.796875 37.75 14.796875 27.984375 
Q 14.796875 18.265625 18.828125 12.890625 
Q 22.859375 7.515625 30.078125 7.515625 
Q 37.359375 7.515625 41.375 12.890625 
Q 45.40625 18.265625 45.40625 27.984375 
z
M 54.390625 6.78125 
Q 54.390625 -7.171875 48.1875 -13.984375 
Q 42 -20.796875 29.203125 -20.796875 
Q 24.46875 -20.796875 20.265625 -20.09375 
Q 16.0625 -19.390625 12.109375 -17.921875 
L 12.109375 -9.1875 
Q 16.0625 -11.328125 19.921875 -12.34375 
Q 23.78125 -13.375 27.78125 -13.375 
Q 36.625 -13.375 41.015625 -8.765625 
Q 45.40625 -4.15625 45.40625 5.171875 
L 45.40625 9.625 
Q 42.625 4.78125 38.28125 2.390625 
Q 33.9375 0 27.875 0 
Q 17.828125 0 11.671875 7.65625 
Q 5.515625 15.328125 5.515625 27.984375 
Q 5.515625 40.671875 11.671875 48.328125 
Q 17.828125 56 27.875 56 
Q 33.9375 56 38.28125 53.609375 
Q 42.625 51.21875 45.40625 46.390625 
L 45.40625 54.6875 
L 54.390625 54.6875 
z
" id="DejaVuSans-103"/>
     <path d="M 11.71875 12.40625 
L 22.015625 12.40625 
L 22.015625 4 
L 14.015625 -11.625 
L 7.71875 -11.625 
L 11.71875 4 
z
" id="DejaVuSans-44"/>
     <path d="M 9.8125 72.90625 
L 23.09375 72.90625 
L 55.421875 11.921875 
L 55.421875 72.90625 
L 64.984375 72.90625 
L 64.984375 0 
L 51.703125 0 
L 19.390625 60.984375 
L 19.390625 0 
L 9.8125 0 
z
" id="DejaVuSans-78"/>
     <path d="M -0.203125 72.90625 
L 10.40625 72.90625 
L 30.609375 42.921875 
L 50.6875 72.90625 
L 61.28125 72.90625 
L 35.5 34.71875 
L 35.5 0 
L 25.59375 0 
L 25.59375 34.71875 
z
" id="DejaVuSans-89"/>
    </defs>
    <g style="fill:#f77189;" transform="translate(467.405479 57.064867)scale(0.08 -0.08)">
     <use xlink:href="#DejaVuSans-75"/>
     <use x="65.576172" xlink:href="#DejaVuSans-105"/>
     <use x="93.359375" xlink:href="#DejaVuSans-110"/>
     <use x="156.738281" xlink:href="#DejaVuSans-103"/>
     <use x="220.214844" xlink:href="#DejaVuSans-115"/>
     <use x="272.314453" xlink:href="#DejaVuSans-44"/>
     <use x="304.101562" xlink:href="#DejaVuSans-32"/>
     <use x="335.888672" xlink:href="#DejaVuSans-78"/>
     <use x="410.693359" xlink:href="#DejaVuSans-89"/>
    </g>
   </g>
   <g id="text_12">
    <!-- Queens, NY -->
    <defs>
     <path d="M 39.40625 66.21875 
Q 28.65625 66.21875 22.328125 58.203125 
Q 16.015625 50.203125 16.015625 36.375 
Q 16.015625 22.609375 22.328125 14.59375 
Q 28.65625 6.59375 39.40625 6.59375 
Q 50.140625 6.59375 56.421875 14.59375 
Q 62.703125 22.609375 62.703125 36.375 
Q 62.703125 50.203125 56.421875 58.203125 
Q 50.140625 66.21875 39.40625 66.21875 
z
M 53.21875 1.3125 
L 66.21875 -12.890625 
L 54.296875 -12.890625 
L 43.5 -1.21875 
Q 41.890625 -1.3125 41.03125 -1.359375 
Q 40.1875 -1.421875 39.40625 -1.421875 
Q 24.03125 -1.421875 14.8125 8.859375 
Q 5.609375 19.140625 5.609375 36.375 
Q 5.609375 53.65625 14.8125 63.9375 
Q 24.03125 74.21875 39.40625 74.21875 
Q 54.734375 74.21875 63.90625 63.9375 
Q 73.09375 53.65625 73.09375 36.375 
Q 73.09375 23.6875 67.984375 14.640625 
Q 62.890625 5.609375 53.21875 1.3125 
z
" id="DejaVuSans-81"/>
    </defs>
    <g style="fill:#ae9d31;" transform="translate(420.999229 67.112264)scale(0.08 -0.08)">
     <use xlink:href="#DejaVuSans-81"/>
     <use x="78.710938" xlink:href="#DejaVuSans-117"/>
     <use x="142.089844" xlink:href="#DejaVuSans-101"/>
     <use x="203.613281" xlink:href="#DejaVuSans-101"/>
     <use x="265.136719" xlink:href="#DejaVuSans-110"/>
     <use x="328.515625" xlink:href="#DejaVuSans-115"/>
     <use x="380.615234" xlink:href="#DejaVuSans-44"/>
     <use x="412.402344" xlink:href="#DejaVuSans-32"/>
     <use x="444.189453" xlink:href="#DejaVuSans-78"/>
     <use x="518.994141" xlink:href="#DejaVuSans-89"/>
    </g>
   </g>
   <g id="text_13">
    <!-- Bronx, NY -->
    <defs>
     <path d="M 19.671875 34.8125 
L 19.671875 8.109375 
L 35.5 8.109375 
Q 43.453125 8.109375 47.28125 11.40625 
Q 51.125 14.703125 51.125 21.484375 
Q 51.125 28.328125 47.28125 31.5625 
Q 43.453125 34.8125 35.5 34.8125 
z
M 19.671875 64.796875 
L 19.671875 42.828125 
L 34.28125 42.828125 
Q 41.5 42.828125 45.03125 45.53125 
Q 48.578125 48.25 48.578125 53.8125 
Q 48.578125 59.328125 45.03125 62.0625 
Q 41.5 64.796875 34.28125 64.796875 
z
M 9.8125 72.90625 
L 35.015625 72.90625 
Q 46.296875 72.90625 52.390625 68.21875 
Q 58.5 63.53125 58.5 54.890625 
Q 58.5 48.1875 55.375 44.234375 
Q 52.25 40.28125 46.1875 39.3125 
Q 53.46875 37.75 57.5 32.78125 
Q 61.53125 27.828125 61.53125 20.40625 
Q 61.53125 10.640625 54.890625 5.3125 
Q 48.25 0 35.984375 0 
L 9.8125 0 
z
" id="DejaVuSans-66"/>
     <path d="M 41.109375 46.296875 
Q 39.59375 47.171875 37.8125 47.578125 
Q 36.03125 48 33.890625 48 
Q 26.265625 48 22.1875 43.046875 
Q 18.109375 38.09375 18.109375 28.8125 
L 18.109375 0 
L 9.078125 0 
L 9.078125 54.6875 
L 18.109375 54.6875 
L 18.109375 46.1875 
Q 20.953125 51.171875 25.484375 53.578125 
Q 30.03125 56 36.53125 56 
Q 37.453125 56 38.578125 55.875 
Q 39.703125 55.765625 41.0625 55.515625 
z
" id="DejaVuSans-114"/>
     <path d="M 30.609375 48.390625 
Q 23.390625 48.390625 19.1875 42.75 
Q 14.984375 37.109375 14.984375 27.296875 
Q 14.984375 17.484375 19.15625 11.84375 
Q 23.34375 6.203125 30.609375 6.203125 
Q 37.796875 6.203125 41.984375 11.859375 
Q 46.1875 17.53125 46.1875 27.296875 
Q 46.1875 37.015625 41.984375 42.703125 
Q 37.796875 48.390625 30.609375 48.390625 
z
M 30.609375 56 
Q 42.328125 56 49.015625 48.375 
Q 55.71875 40.765625 55.71875 27.296875 
Q 55.71875 13.875 49.015625 6.21875 
Q 42.328125 -1.421875 30.609375 -1.421875 
Q 18.84375 -1.421875 12.171875 6.21875 
Q 5.515625 13.875 5.515625 27.296875 
Q 5.515625 40.765625 12.171875 48.375 
Q 18.84375 56 30.609375 56 
z
" id="DejaVuSans-111"/>
     <path d="M 54.890625 54.6875 
L 35.109375 28.078125 
L 55.90625 0 
L 45.3125 0 
L 29.390625 21.484375 
L 13.484375 0 
L 2.875 0 
L 24.125 28.609375 
L 4.6875 54.6875 
L 15.28125 54.6875 
L 29.78125 35.203125 
L 44.28125 54.6875 
z
" id="DejaVuSans-120"/>
    </defs>
    <g style="fill:#33b07a;" transform="translate(467.405479 99.01558)scale(0.08 -0.08)">
     <use xlink:href="#DejaVuSans-66"/>
     <use x="68.603516" xlink:href="#DejaVuSans-114"/>
     <use x="107.466797" xlink:href="#DejaVuSans-111"/>
     <use x="168.648438" xlink:href="#DejaVuSans-110"/>
     <use x="232.027344" xlink:href="#DejaVuSans-120"/>
     <use x="291.207031" xlink:href="#DejaVuSans-44"/>
     <use x="322.994141" xlink:href="#DejaVuSans-32"/>
     <use x="354.78125" xlink:href="#DejaVuSans-78"/>
     <use x="429.585938" xlink:href="#DejaVuSans-89"/>
    </g>
   </g>
   <g id="text_14">
    <!-- Nassau, NY -->
    <g style="fill:#38a9c5;" transform="translate(467.405479 129.452667)scale(0.08 -0.08)">
     <use xlink:href="#DejaVuSans-78"/>
     <use x="74.804688" xlink:href="#DejaVuSans-97"/>
     <use x="136.083984" xlink:href="#DejaVuSans-115"/>
     <use x="188.183594" xlink:href="#DejaVuSans-115"/>
     <use x="240.283203" xlink:href="#DejaVuSans-97"/>
     <use x="301.5625" xlink:href="#DejaVuSans-117"/>
     <use x="364.941406" xlink:href="#DejaVuSans-44"/>
     <use x="396.728516" xlink:href="#DejaVuSans-32"/>
     <use x="428.515625" xlink:href="#DejaVuSans-78"/>
     <use x="503.320312" xlink:href="#DejaVuSans-89"/>
    </g>
   </g>
   <g id="text_15">
    <!-- Wayne, MI -->
    <defs>
     <path d="M 3.328125 72.90625 
L 13.28125 72.90625 
L 28.609375 11.28125 
L 43.890625 72.90625 
L 54.984375 72.90625 
L 70.3125 11.28125 
L 85.59375 72.90625 
L 95.609375 72.90625 
L 77.296875 0 
L 64.890625 0 
L 49.515625 63.28125 
L 33.984375 0 
L 21.578125 0 
z
" id="DejaVuSans-87"/>
     <path d="M 32.171875 -5.078125 
Q 28.375 -14.84375 24.75 -17.8125 
Q 21.140625 -20.796875 15.09375 -20.796875 
L 7.90625 -20.796875 
L 7.90625 -13.28125 
L 13.1875 -13.28125 
Q 16.890625 -13.28125 18.9375 -11.515625 
Q 21 -9.765625 23.484375 -3.21875 
L 25.09375 0.875 
L 2.984375 54.6875 
L 12.5 54.6875 
L 29.59375 11.921875 
L 46.6875 54.6875 
L 56.203125 54.6875 
z
" id="DejaVuSans-121"/>
     <path d="M 9.8125 72.90625 
L 24.515625 72.90625 
L 43.109375 23.296875 
L 61.8125 72.90625 
L 76.515625 72.90625 
L 76.515625 0 
L 66.890625 0 
L 66.890625 64.015625 
L 48.09375 14.015625 
L 38.1875 14.015625 
L 19.390625 64.015625 
L 19.390625 0 
L 9.8125 0 
z
" id="DejaVuSans-77"/>
     <path d="M 9.8125 72.90625 
L 19.671875 72.90625 
L 19.671875 0 
L 9.8125 0 
z
" id="DejaVuSans-73"/>
    </defs>
    <g style="fill:#cc7af4;" transform="translate(467.405479 142.733517)scale(0.08 -0.08)">
     <use xlink:href="#DejaVuSans-87"/>
     <use x="92.501953" xlink:href="#DejaVuSans-97"/>
     <use x="153.78125" xlink:href="#DejaVuSans-121"/>
     <use x="212.960938" xlink:href="#DejaVuSans-110"/>
     <use x="276.339844" xlink:href="#DejaVuSans-101"/>
     <use x="337.863281" xlink:href="#DejaVuSans-44"/>
     <use x="369.650391" xlink:href="#DejaVuSans-32"/>
     <use x="401.4375" xlink:href="#DejaVuSans-77"/>
     <use x="487.716797" xlink:href="#DejaVuSans-73"/>
    </g>
   </g>
   <g id="text_16">
    <!-- Most-affected counties -->
    <defs>
     <path d="M 4.890625 31.390625 
L 31.203125 31.390625 
L 31.203125 23.390625 
L 4.890625 23.390625 
z
" id="DejaVuSans-45"/>
     <path d="M 37.109375 75.984375 
L 37.109375 68.5 
L 28.515625 68.5 
Q 23.6875 68.5 21.796875 66.546875 
Q 19.921875 64.59375 19.921875 59.515625 
L 19.921875 54.6875 
L 34.71875 54.6875 
L 34.71875 47.703125 
L 19.921875 47.703125 
L 19.921875 0 
L 10.890625 0 
L 10.890625 47.703125 
L 2.296875 47.703125 
L 2.296875 54.6875 
L 10.890625 54.6875 
L 10.890625 58.5 
Q 10.890625 67.625 15.140625 71.796875 
Q 19.390625 75.984375 28.609375 75.984375 
z
" id="DejaVuSans-102"/>
     <path d="M 48.78125 52.59375 
L 48.78125 44.1875 
Q 44.96875 46.296875 41.140625 47.34375 
Q 37.3125 48.390625 33.40625 48.390625 
Q 24.65625 48.390625 19.8125 42.84375 
Q 14.984375 37.3125 14.984375 27.296875 
Q 14.984375 17.28125 19.8125 11.734375 
Q 24.65625 6.203125 33.40625 6.203125 
Q 37.3125 6.203125 41.140625 7.25 
Q 44.96875 8.296875 48.78125 10.40625 
L 48.78125 2.09375 
Q 45.015625 0.34375 40.984375 -0.53125 
Q 36.96875 -1.421875 32.421875 -1.421875 
Q 20.0625 -1.421875 12.78125 6.34375 
Q 5.515625 14.109375 5.515625 27.296875 
Q 5.515625 40.671875 12.859375 48.328125 
Q 20.21875 56 33.015625 56 
Q 37.15625 56 41.109375 55.140625 
Q 45.0625 54.296875 48.78125 52.59375 
z
" id="DejaVuSans-99"/>
    </defs>
    <g style="fill:#ffffff;" transform="translate(242.630312 20.88)scale(0.12 -0.12)">
     <use xlink:href="#DejaVuSans-77"/>
     <use x="86.279297" xlink:href="#DejaVuSans-111"/>
     <use x="147.460938" xlink:href="#DejaVuSans-115"/>
     <use x="199.560547" xlink:href="#DejaVuSans-116"/>
     <use x="238.769531" xlink:href="#DejaVuSans-45"/>
     <use x="274.853516" xlink:href="#DejaVuSans-97"/>
     <use x="336.132812" xlink:href="#DejaVuSans-102"/>
     <use x="371.337891" xlink:href="#DejaVuSans-102"/>
     <use x="406.542969" xlink:href="#DejaVuSans-101"/>
     <use x="468.066406" xlink:href="#DejaVuSans-99"/>
     <use x="523.046875" xlink:href="#DejaVuSans-116"/>
     <use x="562.255859" xlink:href="#DejaVuSans-101"/>
     <use x="623.779297" xlink:href="#DejaVuSans-100"/>
     <use x="687.255859" xlink:href="#DejaVuSans-32"/>
     <use x="719.042969" xlink:href="#DejaVuSans-99"/>
     <use x="774.023438" xlink:href="#DejaVuSans-111"/>
     <use x="835.205078" xlink:href="#DejaVuSans-117"/>
     <use x="898.583984" xlink:href="#DejaVuSans-110"/>
     <use x="961.962891" xlink:href="#DejaVuSans-116"/>
     <use x="1001.171875" xlink:href="#DejaVuSans-105"/>
     <use x="1028.955078" xlink:href="#DejaVuSans-101"/>
     <use x="1090.478516" xlink:href="#DejaVuSans-115"/>
    </g>
   </g>
  </g>
  <g id="axes_2">
   <g id="patch_7">
    <path d="M 57.17 398.333333 
L 565.2 398.333333 
L 565.2 234.586667 
L 57.17 234.586667 
z
"/>
   </g>
   <g id="PolyCollection_6">
    <defs>
     <path d="M 402.195722 -367.07855 
L 402.195722 -367.07855 
L 413.062674 -367.07855 
L 423.929626 -369.393898 
L 434.796578 -369.349921 
L 445.663529 -368.224579 
L 456.530481 -376.62277 
L 456.530481 -405.970303 
L 456.530481 -405.970303 
L 445.663529 -404.607414 
L 434.796578 -393.435632 
L 423.929626 -383.655903 
L 413.062674 -379.605837 
L 402.195722 -367.07855 
z
" id="mb89db4dcc9" style="stroke:#f77189;stroke-opacity:0.1;"/>
    </defs>
    <g clip-path="url(#pbf1ef81ea7)">
     <use style="fill:#f77189;fill-opacity:0.1;stroke:#f77189;stroke-opacity:0.1;" x="0" xlink:href="#mb89db4dcc9" y="648"/>
    </g>
   </g>
   <g id="PolyCollection_7">
    <defs>
     <path d="M 402.195722 -350.001214 
L 402.195722 -350.001214 
L 413.062674 -352.055822 
L 423.929626 -351.775354 
L 434.796578 -358.986305 
L 445.663529 -361.007067 
L 456.530481 -367.485189 
L 456.530481 -405.283114 
L 456.530481 -405.283114 
L 445.663529 -395.545379 
L 434.796578 -382.060061 
L 423.929626 -374.733411 
L 413.062674 -360.895818 
L 402.195722 -350.001214 
z
" id="mdfa34780dd" style="stroke:#bb9832;stroke-opacity:0.1;"/>
    </defs>
    <g clip-path="url(#pbf1ef81ea7)">
     <use style="fill:#bb9832;fill-opacity:0.1;stroke:#bb9832;stroke-opacity:0.1;" x="0" xlink:href="#mdfa34780dd" y="648"/>
    </g>
   </g>
   <g id="PolyCollection_8">
    <defs>
     <path d="M 402.195722 -331.239119 
L 402.195722 -331.239119 
L 413.062674 -331.239119 
L 423.929626 -331.239119 
L 434.796578 -331.239119 
L 445.663529 -331.239119 
L 456.530481 -333.297763 
L 456.530481 -366.188068 
L 456.530481 -366.188068 
L 445.663529 -362.146831 
L 434.796578 -351.28673 
L 423.929626 -345.779617 
L 413.062674 -339.535791 
L 402.195722 -331.239119 
z
" id="m4e5a8b41e7" style="stroke:#50b131;stroke-opacity:0.1;"/>
    </defs>
    <g clip-path="url(#pbf1ef81ea7)">
     <use style="fill:#50b131;fill-opacity:0.1;stroke:#50b131;stroke-opacity:0.1;" x="0" xlink:href="#m4e5a8b41e7" y="648"/>
    </g>
   </g>
   <g id="PolyCollection_9">
    <defs>
     <path d="M 402.195722 -328.09934 
L 402.195722 -328.09934 
L 413.062674 -328.09934 
L 423.929626 -328.09934 
L 434.796578 -328.09934 
L 445.663529 -328.09934 
L 456.530481 -328.121252 
L 456.530481 -356.220097 
L 456.530481 -356.220097 
L 445.663529 -351.513957 
L 434.796578 -343.800346 
L 423.929626 -340.140347 
L 413.062674 -334.829369 
L 402.195722 -328.09934 
z
" id="m959505a008" style="stroke:#36ada4;stroke-opacity:0.1;"/>
    </defs>
    <g clip-path="url(#pbf1ef81ea7)">
     <use style="fill:#36ada4;fill-opacity:0.1;stroke:#36ada4;stroke-opacity:0.1;" x="0" xlink:href="#m959505a008" y="648"/>
    </g>
   </g>
   <g id="PolyCollection_10">
    <defs>
     <path d="M 402.195722 -321.513461 
L 402.195722 -321.513461 
L 413.062674 -321.872639 
L 423.929626 -323.487516 
L 434.796578 -326.883361 
L 445.663529 -332.602922 
L 456.530481 -338.683174 
L 456.530481 -359.793877 
L 456.530481 -359.793877 
L 445.663529 -353.400431 
L 434.796578 -347.431275 
L 423.929626 -340.125031 
L 413.062674 -331.604331 
L 402.195722 -321.513461 
z
" id="m2c9acdae8a" style="stroke:#3ba3ec;stroke-opacity:0.1;"/>
    </defs>
    <g clip-path="url(#pbf1ef81ea7)">
     <use style="fill:#3ba3ec;fill-opacity:0.1;stroke:#3ba3ec;stroke-opacity:0.1;" x="0" xlink:href="#m2c9acdae8a" y="648"/>
    </g>
   </g>
   <g id="PolyCollection_11">
    <defs>
     <path d="M 402.195722 -307.269585 
L 402.195722 -307.269585 
L 413.062674 -307.269585 
L 423.929626 -308.723229 
L 434.796578 -310.853549 
L 445.663529 -312.572773 
L 456.530481 -314.620545 
L 456.530481 -335.181659 
L 456.530481 -335.181659 
L 445.663529 -329.657046 
L 434.796578 -324.104971 
L 423.929626 -319.183787 
L 413.062674 -314.98728 
L 402.195722 -307.269585 
z
" id="m6d1242c294" style="stroke:#e866f4;stroke-opacity:0.1;"/>
    </defs>
    <g clip-path="url(#pbf1ef81ea7)">
     <use style="fill:#e866f4;fill-opacity:0.1;stroke:#e866f4;stroke-opacity:0.1;" x="0" xlink:href="#m6d1242c294" y="648"/>
    </g>
   </g>
   <g id="matplotlib.axis_3">
    <g id="xtick_4">
     <g id="line2d_20">
      <g>
       <use style="fill:#ffffff;stroke:#ffffff;stroke-width:0.8;" x="76.187166" xlink:href="#me47bc32886" y="398.333333"/>
      </g>
     </g>
     <g id="text_17">
      <!-- 3/25 -->
      <g style="fill:#ffffff;" transform="translate(64.959041 412.931771)scale(0.1 -0.1)">
       <use xlink:href="#DejaVuSans-51"/>
       <use x="63.623047" xlink:href="#DejaVuSans-47"/>
       <use x="97.314453" xlink:href="#DejaVuSans-50"/>
       <use x="160.9375" xlink:href="#DejaVuSans-53"/>
      </g>
     </g>
    </g>
    <g id="xtick_5">
     <g id="line2d_21">
      <g>
       <use style="fill:#ffffff;stroke:#ffffff;stroke-width:0.8;" x="402.195722" xlink:href="#me47bc32886" y="398.333333"/>
      </g>
     </g>
     <g id="text_18">
      <!-- 4/25 -->
      <g style="fill:#ffffff;" transform="translate(390.967597 412.931771)scale(0.1 -0.1)">
       <use xlink:href="#DejaVuSans-52"/>
       <use x="63.623047" xlink:href="#DejaVuSans-47"/>
       <use x="97.314453" xlink:href="#DejaVuSans-50"/>
       <use x="160.9375" xlink:href="#DejaVuSans-53"/>
      </g>
     </g>
    </g>
    <g id="xtick_6">
     <g id="line2d_22">
      <g>
       <use style="fill:#ffffff;stroke:#ffffff;stroke-width:0.8;" x="456.530481" xlink:href="#me47bc32886" y="398.333333"/>
      </g>
     </g>
     <g id="text_19">
      <!-- 4/30 -->
      <g style="fill:#ffffff;" transform="translate(445.302356 412.931771)scale(0.1 -0.1)">
       <use xlink:href="#DejaVuSans-52"/>
       <use x="63.623047" xlink:href="#DejaVuSans-47"/>
       <use x="97.314453" xlink:href="#DejaVuSans-51"/>
       <use x="160.9375" xlink:href="#DejaVuSans-48"/>
      </g>
     </g>
    </g>
   </g>
   <g id="matplotlib.axis_4">
    <g id="ytick_7">
     <g id="line2d_23">
      <g>
       <use style="fill:#ffffff;stroke:#ffffff;stroke-width:0.8;" x="57.17" xlink:href="#m4ac9a52464" y="391.426363"/>
      </g>
     </g>
     <g id="text_20">
      <!-- 0 -->
      <g style="fill:#ffffff;" transform="translate(43.8075 395.225582)scale(0.1 -0.1)">
       <use xlink:href="#DejaVuSans-48"/>
      </g>
     </g>
    </g>
    <g id="ytick_8">
     <g id="line2d_24">
      <g>
       <use style="fill:#ffffff;stroke:#ffffff;stroke-width:0.8;" x="57.17" xlink:href="#m4ac9a52464" y="353.136372"/>
      </g>
     </g>
     <g id="text_21">
      <!-- 500 -->
      <g style="fill:#ffffff;" transform="translate(31.0825 356.935591)scale(0.1 -0.1)">
       <use xlink:href="#DejaVuSans-53"/>
       <use x="63.623047" xlink:href="#DejaVuSans-48"/>
       <use x="127.246094" xlink:href="#DejaVuSans-48"/>
      </g>
     </g>
    </g>
    <g id="ytick_9">
     <g id="line2d_25">
      <g>
       <use style="fill:#ffffff;stroke:#ffffff;stroke-width:0.8;" x="57.17" xlink:href="#m4ac9a52464" y="314.846381"/>
      </g>
     </g>
     <g id="text_22">
      <!-- 1000 -->
      <g style="fill:#ffffff;" transform="translate(24.72 318.6456)scale(0.1 -0.1)">
       <use xlink:href="#DejaVuSans-49"/>
       <use x="63.623047" xlink:href="#DejaVuSans-48"/>
       <use x="127.246094" xlink:href="#DejaVuSans-48"/>
       <use x="190.869141" xlink:href="#DejaVuSans-48"/>
      </g>
     </g>
    </g>
    <g id="ytick_10">
     <g id="line2d_26">
      <g>
       <use style="fill:#ffffff;stroke:#ffffff;stroke-width:0.8;" x="57.17" xlink:href="#m4ac9a52464" y="276.556391"/>
      </g>
     </g>
     <g id="text_23">
      <!-- 1500 -->
      <g style="fill:#ffffff;" transform="translate(24.72 280.35561)scale(0.1 -0.1)">
       <use xlink:href="#DejaVuSans-49"/>
       <use x="63.623047" xlink:href="#DejaVuSans-53"/>
       <use x="127.246094" xlink:href="#DejaVuSans-48"/>
       <use x="190.869141" xlink:href="#DejaVuSans-48"/>
      </g>
     </g>
    </g>
    <g id="ytick_11">
     <g id="line2d_27">
      <g>
       <use style="fill:#ffffff;stroke:#ffffff;stroke-width:0.8;" x="57.17" xlink:href="#m4ac9a52464" y="238.2664"/>
      </g>
     </g>
     <g id="text_24">
      <!-- 2000 -->
      <g style="fill:#ffffff;" transform="translate(24.72 242.065619)scale(0.1 -0.1)">
       <use xlink:href="#DejaVuSans-50"/>
       <use x="63.623047" xlink:href="#DejaVuSans-48"/>
       <use x="127.246094" xlink:href="#DejaVuSans-48"/>
       <use x="190.869141" xlink:href="#DejaVuSans-48"/>
      </g>
     </g>
    </g>
    <g id="text_25">
     <!-- Cumulative deaths -->
     <g style="fill:#ffffff;" transform="translate(18.640313 363.635)rotate(-90)scale(0.1 -0.1)">
      <use xlink:href="#DejaVuSans-67"/>
      <use x="69.824219" xlink:href="#DejaVuSans-117"/>
      <use x="133.203125" xlink:href="#DejaVuSans-109"/>
      <use x="230.615234" xlink:href="#DejaVuSans-117"/>
      <use x="293.994141" xlink:href="#DejaVuSans-108"/>
      <use x="321.777344" xlink:href="#DejaVuSans-97"/>
      <use x="383.056641" xlink:href="#DejaVuSans-116"/>
      <use x="422.265625" xlink:href="#DejaVuSans-105"/>
      <use x="450.048828" xlink:href="#DejaVuSans-118"/>
      <use x="509.228516" xlink:href="#DejaVuSans-101"/>
      <use x="570.751953" xlink:href="#DejaVuSans-32"/>
      <use x="602.539062" xlink:href="#DejaVuSans-100"/>
      <use x="666.015625" xlink:href="#DejaVuSans-101"/>
      <use x="727.539062" xlink:href="#DejaVuSans-97"/>
      <use x="788.818359" xlink:href="#DejaVuSans-116"/>
      <use x="828.027344" xlink:href="#DejaVuSans-104"/>
      <use x="891.40625" xlink:href="#DejaVuSans-115"/>
     </g>
    </g>
   </g>
   <g id="line2d_28">
    <path clip-path="url(#pbf1ef81ea7)" d="M 76.187166 389.818183 
L 87.054118 389.435283 
L 97.92107 388.592904 
L 108.788021 387.903684 
L 119.654973 387.137884 
L 130.521925 385.070224 
L 141.388877 382.236765 
L 152.255829 380.245686 
L 163.122781 376.569847 
L 173.989733 374.349027 
L 184.856684 372.128208 
L 195.723636 368.988428 
L 206.590588 364.929689 
L 217.45754 360.64121 
L 228.324492 357.271691 
L 239.191444 352.830052 
L 250.058396 344.789154 
L 260.925348 341.496215 
L 271.792299 337.514056 
L 282.659251 337.514056 
L 293.526203 328.630778 
L 304.393155 323.729659 
L 315.260107 316.301401 
L 326.127059 311.476862 
L 336.994011 309.485783 
L 347.860963 305.733364 
L 358.727914 303.512544 
L 369.594866 293.557147 
L 380.461818 290.417367 
L 391.32877 284.520709 
L 402.195722 280.92145 
" style="fill:none;stroke:#f77189;stroke-linecap:square;stroke-width:1.5;"/>
   </g>
   <g id="line2d_29">
    <path clip-path="url(#pbf1ef81ea7)" d="M 402.195722 280.92145 
L 413.062674 276.301245 
L 423.929626 271.976581 
L 434.796578 266.897498 
L 445.663529 261.726457 
L 456.530481 256.550958 
" style="fill:none;stroke:#f77189;stroke-dasharray:1.5,2.475;stroke-dashoffset:0;stroke-width:1.5;"/>
   </g>
   <g id="line2d_30">
    <path clip-path="url(#pbf1ef81ea7)" d="M 76.187166 390.430823 
L 87.054118 390.047923 
L 97.92107 389.894763 
L 108.788021 389.282123 
L 119.654973 388.363164 
L 130.521925 388.056844 
L 141.388877 386.754984 
L 152.255829 384.151265 
L 163.122781 383.232305 
L 173.989733 380.628586 
L 184.856684 378.637506 
L 195.723636 377.182486 
L 206.590588 375.421147 
L 217.45754 372.357948 
L 228.324492 367.533409 
L 239.191444 364.546789 
L 250.058396 360.94753 
L 260.925348 356.735631 
L 271.792299 354.285072 
L 282.659251 354.285072 
L 293.526203 347.239714 
L 304.393155 343.180975 
L 315.260107 336.135616 
L 326.127059 333.225577 
L 336.994011 325.567579 
L 347.860963 324.265719 
L 358.727914 321.35568 
L 369.594866 314.693222 
L 380.461818 309.332623 
L 391.32877 303.972024 
L 402.195722 297.998786 
" style="fill:none;stroke:#bb9832;stroke-linecap:square;stroke-width:1.5;"/>
   </g>
   <g id="line2d_31">
    <path clip-path="url(#pbf1ef81ea7)" d="M 402.195722 297.998786 
L 413.062674 290.749572 
L 423.929626 284.582333 
L 434.796578 275.366773 
L 445.663529 267.308311 
L 456.530481 259.221291 
" style="fill:none;stroke:#bb9832;stroke-dasharray:1.5,2.475;stroke-dashoffset:0;stroke-width:1.5;"/>
   </g>
   <g id="line2d_32">
    <path clip-path="url(#pbf1ef81ea7)" d="M 76.187166 390.890303 
L 87.054118 390.583983 
L 97.92107 390.354243 
L 108.788021 389.894763 
L 119.654973 389.894763 
L 130.521925 389.894763 
L 141.388877 389.052383 
L 152.255829 386.142344 
L 163.122781 383.844945 
L 173.989733 382.389925 
L 184.856684 379.556466 
L 195.723636 378.254606 
L 206.590588 377.182486 
L 217.45754 373.659807 
L 228.324492 370.290288 
L 239.191444 367.533409 
L 250.058396 364.470209 
L 260.925348 359.875411 
L 271.792299 358.650131 
L 282.659251 358.650131 
L 293.526203 350.456073 
L 304.393155 346.244174 
L 315.260107 342.262015 
L 326.127059 339.045656 
L 336.994011 335.369817 
L 347.860963 334.757177 
L 358.727914 333.914797 
L 369.594866 326.409959 
L 380.461818 326.409959 
L 391.32877 326.409959 
L 402.195722 316.760881 
" style="fill:none;stroke:#50b131;stroke-linecap:square;stroke-width:1.5;"/>
   </g>
   <g id="line2d_33">
    <path clip-path="url(#pbf1ef81ea7)" d="M 402.195722 316.760881 
L 413.062674 314.076144 
L 423.929626 309.601598 
L 434.796578 305.62054 
L 445.663529 301.138406 
L 456.530481 296.702525 
" style="fill:none;stroke:#50b131;stroke-dasharray:1.5,2.475;stroke-dashoffset:0;stroke-width:1.5;"/>
   </g>
   <g id="line2d_34">
    <path clip-path="url(#pbf1ef81ea7)" d="M 76.187166 390.354243 
L 87.054118 390.124503 
L 97.92107 389.588443 
L 108.788021 388.975803 
L 119.654973 388.975803 
L 130.521925 388.975803 
L 141.388877 387.980264 
L 152.255829 385.682864 
L 163.122781 382.236765 
L 173.989733 381.317805 
L 184.856684 377.718546 
L 195.723636 376.952746 
L 206.590588 376.110367 
L 217.45754 371.285828 
L 228.324492 367.380249 
L 239.191444 365.006269 
L 250.058396 361.56017 
L 260.925348 358.114071 
L 271.792299 356.735631 
L 282.659251 356.735631 
L 293.526203 349.307373 
L 304.393155 344.865734 
L 315.260107 340.270935 
L 326.127059 336.748256 
L 336.994011 334.680597 
L 347.860963 332.689517 
L 358.727914 331.157918 
L 369.594866 327.482078 
L 380.461818 327.482078 
L 391.32877 327.482078 
L 402.195722 319.90066 
" style="fill:none;stroke:#36ada4;stroke-linecap:square;stroke-width:1.5;"/>
   </g>
   <g id="line2d_35">
    <path clip-path="url(#pbf1ef81ea7)" d="M 402.195722 319.90066 
L 413.062674 317.5873 
L 423.929626 313.427445 
L 434.796578 310.660681 
L 445.663529 307.306684 
L 456.530481 304.213032 
" style="fill:none;stroke:#36ada4;stroke-dasharray:1.5,2.475;stroke-dashoffset:0;stroke-width:1.5;"/>
   </g>
   <g id="line2d_36">
    <path clip-path="url(#pbf1ef81ea7)" d="M 76.187166 390.430823 
L 87.054118 389.818183 
L 97.92107 389.435283 
L 108.788021 388.975803 
L 119.654973 388.592904 
L 130.521925 388.056844 
L 141.388877 387.291044 
L 152.255829 386.448664 
L 163.122781 385.453124 
L 173.989733 384.610745 
L 184.856684 382.466505 
L 195.723636 381.317805 
L 206.590588 380.169106 
L 217.45754 378.484346 
L 228.324492 376.263527 
L 239.191444 374.349027 
L 250.058396 372.970587 
L 260.925348 371.132668 
L 271.792299 368.758688 
L 282.659251 366.920769 
L 293.526203 363.85757 
L 304.393155 360.64121 
L 315.260107 356.582471 
L 326.127059 353.519272 
L 336.994011 347.316294 
L 347.860963 345.478374 
L 358.727914 344.176514 
L 369.594866 340.653835 
L 380.461818 335.599556 
L 391.32877 330.392118 
L 402.195722 326.486539 
" style="fill:none;stroke:#3ba3ec;stroke-linecap:square;stroke-width:1.5;"/>
   </g>
   <g id="line2d_37">
    <path clip-path="url(#pbf1ef81ea7)" d="M 402.195722 326.486539 
L 413.062674 320.771148 
L 423.929626 316.105429 
L 434.796578 309.033447 
L 445.663529 302.966155 
L 456.530481 297.082255 
" style="fill:none;stroke:#3ba3ec;stroke-dasharray:1.5,2.475;stroke-dashoffset:0;stroke-width:1.5;"/>
   </g>
   <g id="line2d_38">
    <path clip-path="url(#pbf1ef81ea7)" d="M 76.187166 390.507403 
L 87.054118 390.430823 
L 97.92107 390.277663 
L 108.788021 389.894763 
L 119.654973 389.818183 
L 130.521925 389.818183 
L 141.388877 388.516324 
L 152.255829 387.903684 
L 163.122781 386.448664 
L 173.989733 385.606284 
L 184.856684 384.840484 
L 195.723636 384.074685 
L 206.590588 383.691785 
L 217.45754 381.317805 
L 228.324492 379.556466 
L 239.191444 377.795126 
L 250.058396 375.880627 
L 260.925348 374.578767 
L 271.792299 372.434528 
L 282.659251 371.362408 
L 293.526203 369.447908 
L 304.393155 363.47467 
L 315.260107 360.33489 
L 326.127059 358.879871 
L 336.994011 358.343811 
L 347.860963 357.195111 
L 358.727914 352.217412 
L 369.594866 349.766853 
L 380.461818 346.703654 
L 391.32877 344.329674 
L 402.195722 340.730415 
" style="fill:none;stroke:#e866f4;stroke-linecap:square;stroke-width:1.5;"/>
   </g>
   <g id="line2d_39">
    <path clip-path="url(#pbf1ef81ea7)" d="M 402.195722 340.730415 
L 413.062674 337.348147 
L 423.929626 333.271525 
L 434.796578 330.049835 
L 445.663529 326.29514 
L 456.530481 322.552059 
" style="fill:none;stroke:#e866f4;stroke-dasharray:1.5,2.475;stroke-dashoffset:0;stroke-width:1.5;"/>
   </g>
   <g id="patch_8">
    <path d="M 57.17 398.333333 
L 57.17 234.586667 
" style="fill:none;stroke:#ffffff;stroke-linecap:square;stroke-linejoin:miter;stroke-width:0.8;"/>
   </g>
   <g id="patch_9">
    <path d="M 565.2 398.333333 
L 565.2 234.586667 
" style="fill:none;stroke:#ffffff;stroke-linecap:square;stroke-linejoin:miter;stroke-width:0.8;"/>
   </g>
   <g id="patch_10">
    <path d="M 57.17 398.333333 
L 565.2 398.333333 
" style="fill:none;stroke:#ffffff;stroke-linecap:square;stroke-linejoin:miter;stroke-width:0.8;"/>
   </g>
   <g id="patch_11">
    <path d="M 57.17 234.586667 
L 565.2 234.586667 
" style="fill:none;stroke:#ffffff;stroke-linecap:square;stroke-linejoin:miter;stroke-width:0.8;"/>
   </g>
   <g id="text_26">
    <!-- Wayne, MI -->
    <g style="fill:#f77189;" transform="translate(467.397433 254.083833)scale(0.08 -0.08)">
     <use xlink:href="#DejaVuSans-87"/>
     <use x="92.501953" xlink:href="#DejaVuSans-97"/>
     <use x="153.78125" xlink:href="#DejaVuSans-121"/>
     <use x="212.960938" xlink:href="#DejaVuSans-110"/>
     <use x="276.339844" xlink:href="#DejaVuSans-101"/>
     <use x="337.863281" xlink:href="#DejaVuSans-44"/>
     <use x="369.650391" xlink:href="#DejaVuSans-32"/>
     <use x="401.4375" xlink:href="#DejaVuSans-77"/>
     <use x="487.716797" xlink:href="#DejaVuSans-73"/>
    </g>
   </g>
   <g id="text_27">
    <!-- Cook, IL -->
    <defs>
     <path d="M 9.078125 75.984375 
L 18.109375 75.984375 
L 18.109375 31.109375 
L 44.921875 54.6875 
L 56.390625 54.6875 
L 27.390625 29.109375 
L 57.625 0 
L 45.90625 0 
L 18.109375 26.703125 
L 18.109375 0 
L 9.078125 0 
z
" id="DejaVuSans-107"/>
     <path d="M 9.8125 72.90625 
L 19.671875 72.90625 
L 19.671875 8.296875 
L 55.171875 8.296875 
L 55.171875 0 
L 9.8125 0 
z
" id="DejaVuSans-76"/>
    </defs>
    <g style="fill:#bb9832;" transform="translate(467.397433 266.103416)scale(0.08 -0.08)">
     <use xlink:href="#DejaVuSans-67"/>
     <use x="69.824219" xlink:href="#DejaVuSans-111"/>
     <use x="131.005859" xlink:href="#DejaVuSans-111"/>
     <use x="192.1875" xlink:href="#DejaVuSans-107"/>
     <use x="250.097656" xlink:href="#DejaVuSans-44"/>
     <use x="281.884766" xlink:href="#DejaVuSans-32"/>
     <use x="313.671875" xlink:href="#DejaVuSans-73"/>
     <use x="343.164062" xlink:href="#DejaVuSans-76"/>
    </g>
   </g>
   <g id="text_28">
    <!-- Essex, NJ -->
    <defs>
     <path d="M 9.8125 72.90625 
L 55.90625 72.90625 
L 55.90625 64.59375 
L 19.671875 64.59375 
L 19.671875 43.015625 
L 54.390625 43.015625 
L 54.390625 34.71875 
L 19.671875 34.71875 
L 19.671875 8.296875 
L 56.78125 8.296875 
L 56.78125 0 
L 9.8125 0 
z
" id="DejaVuSans-69"/>
     <path d="M 9.8125 72.90625 
L 19.671875 72.90625 
L 19.671875 5.078125 
Q 19.671875 -8.109375 14.671875 -14.0625 
Q 9.671875 -20.015625 -1.421875 -20.015625 
L -5.171875 -20.015625 
L -5.171875 -11.71875 
L -2.09375 -11.71875 
Q 4.4375 -11.71875 7.125 -8.046875 
Q 9.8125 -4.390625 9.8125 5.078125 
z
" id="DejaVuSans-74"/>
    </defs>
    <g style="fill:#50b131;" transform="translate(467.397433 293.114292)scale(0.08 -0.08)">
     <use xlink:href="#DejaVuSans-69"/>
     <use x="63.183594" xlink:href="#DejaVuSans-115"/>
     <use x="115.283203" xlink:href="#DejaVuSans-115"/>
     <use x="167.382812" xlink:href="#DejaVuSans-101"/>
     <use x="227.15625" xlink:href="#DejaVuSans-120"/>
     <use x="286.335938" xlink:href="#DejaVuSans-44"/>
     <use x="318.123047" xlink:href="#DejaVuSans-32"/>
     <use x="349.910156" xlink:href="#DejaVuSans-78"/>
     <use x="424.714844" xlink:href="#DejaVuSans-74"/>
    </g>
   </g>
   <g id="text_29">
    <!-- Bergen, NJ -->
    <g style="fill:#36ada4;" transform="translate(467.397433 312.641726)scale(0.08 -0.08)">
     <use xlink:href="#DejaVuSans-66"/>
     <use x="68.603516" xlink:href="#DejaVuSans-101"/>
     <use x="130.126953" xlink:href="#DejaVuSans-114"/>
     <use x="169.490234" xlink:href="#DejaVuSans-103"/>
     <use x="232.966797" xlink:href="#DejaVuSans-101"/>
     <use x="294.490234" xlink:href="#DejaVuSans-110"/>
     <use x="357.869141" xlink:href="#DejaVuSans-44"/>
     <use x="389.65625" xlink:href="#DejaVuSans-32"/>
     <use x="421.443359" xlink:href="#DejaVuSans-78"/>
     <use x="496.248047" xlink:href="#DejaVuSans-74"/>
    </g>
   </g>
   <g id="text_30">
    <!-- Los Angeles, CA -->
    <defs>
     <path d="M 34.1875 63.1875 
L 20.796875 26.90625 
L 47.609375 26.90625 
z
M 28.609375 72.90625 
L 39.796875 72.90625 
L 67.578125 0 
L 57.328125 0 
L 50.6875 18.703125 
L 17.828125 18.703125 
L 11.1875 0 
L 0.78125 0 
z
" id="DejaVuSans-65"/>
    </defs>
    <g style="fill:#3ba3ec;" transform="translate(403.474933 303.146853)scale(0.08 -0.08)">
     <use xlink:href="#DejaVuSans-76"/>
     <use x="53.962891" xlink:href="#DejaVuSans-111"/>
     <use x="115.144531" xlink:href="#DejaVuSans-115"/>
     <use x="167.244141" xlink:href="#DejaVuSans-32"/>
     <use x="199.03125" xlink:href="#DejaVuSans-65"/>
     <use x="267.439453" xlink:href="#DejaVuSans-110"/>
     <use x="330.818359" xlink:href="#DejaVuSans-103"/>
     <use x="394.294922" xlink:href="#DejaVuSans-101"/>
     <use x="455.818359" xlink:href="#DejaVuSans-108"/>
     <use x="483.601562" xlink:href="#DejaVuSans-101"/>
     <use x="545.125" xlink:href="#DejaVuSans-115"/>
     <use x="597.224609" xlink:href="#DejaVuSans-44"/>
     <use x="629.011719" xlink:href="#DejaVuSans-32"/>
     <use x="660.798828" xlink:href="#DejaVuSans-67"/>
     <use x="730.623047" xlink:href="#DejaVuSans-65"/>
    </g>
   </g>
   <g id="text_31">
    <!-- Fairfield, CT -->
    <defs>
     <path d="M 9.8125 72.90625 
L 51.703125 72.90625 
L 51.703125 64.59375 
L 19.671875 64.59375 
L 19.671875 43.109375 
L 48.578125 43.109375 
L 48.578125 34.8125 
L 19.671875 34.8125 
L 19.671875 0 
L 9.8125 0 
z
" id="DejaVuSans-70"/>
     <path d="M -0.296875 72.90625 
L 61.375 72.90625 
L 61.375 64.59375 
L 35.5 64.59375 
L 35.5 0 
L 25.59375 0 
L 25.59375 64.59375 
L -0.296875 64.59375 
z
" id="DejaVuSans-84"/>
    </defs>
    <g style="fill:#e866f4;" transform="translate(467.397433 320.914446)scale(0.08 -0.08)">
     <use xlink:href="#DejaVuSans-70"/>
     <use x="48.394531" xlink:href="#DejaVuSans-97"/>
     <use x="109.673828" xlink:href="#DejaVuSans-105"/>
     <use x="137.457031" xlink:href="#DejaVuSans-114"/>
     <use x="178.570312" xlink:href="#DejaVuSans-102"/>
     <use x="213.775391" xlink:href="#DejaVuSans-105"/>
     <use x="241.558594" xlink:href="#DejaVuSans-101"/>
     <use x="303.082031" xlink:href="#DejaVuSans-108"/>
     <use x="330.865234" xlink:href="#DejaVuSans-100"/>
     <use x="394.341797" xlink:href="#DejaVuSans-44"/>
     <use x="426.128906" xlink:href="#DejaVuSans-32"/>
     <use x="457.916016" xlink:href="#DejaVuSans-67"/>
     <use x="527.740234" xlink:href="#DejaVuSans-84"/>
    </g>
   </g>
   <g id="text_32">
    <!-- Most-affected counties outside NY -->
    <g style="fill:#ffffff;" transform="translate(208.54375 228.586667)scale(0.12 -0.12)">
     <use xlink:href="#DejaVuSans-77"/>
     <use x="86.279297" xlink:href="#DejaVuSans-111"/>
     <use x="147.460938" xlink:href="#DejaVuSans-115"/>
     <use x="199.560547" xlink:href="#DejaVuSans-116"/>
     <use x="238.769531" xlink:href="#DejaVuSans-45"/>
     <use x="274.853516" xlink:href="#DejaVuSans-97"/>
     <use x="336.132812" xlink:href="#DejaVuSans-102"/>
     <use x="371.337891" xlink:href="#DejaVuSans-102"/>
     <use x="406.542969" xlink:href="#DejaVuSans-101"/>
     <use x="468.066406" xlink:href="#DejaVuSans-99"/>
     <use x="523.046875" xlink:href="#DejaVuSans-116"/>
     <use x="562.255859" xlink:href="#DejaVuSans-101"/>
     <use x="623.779297" xlink:href="#DejaVuSans-100"/>
     <use x="687.255859" xlink:href="#DejaVuSans-32"/>
     <use x="719.042969" xlink:href="#DejaVuSans-99"/>
     <use x="774.023438" xlink:href="#DejaVuSans-111"/>
     <use x="835.205078" xlink:href="#DejaVuSans-117"/>
     <use x="898.583984" xlink:href="#DejaVuSans-110"/>
     <use x="961.962891" xlink:href="#DejaVuSans-116"/>
     <use x="1001.171875" xlink:href="#DejaVuSans-105"/>
     <use x="1028.955078" xlink:href="#DejaVuSans-101"/>
     <use x="1090.478516" xlink:href="#DejaVuSans-115"/>
     <use x="1142.578125" xlink:href="#DejaVuSans-32"/>
     <use x="1174.365234" xlink:href="#DejaVuSans-111"/>
     <use x="1235.546875" xlink:href="#DejaVuSans-117"/>
     <use x="1298.925781" xlink:href="#DejaVuSans-116"/>
     <use x="1338.134766" xlink:href="#DejaVuSans-115"/>
     <use x="1390.234375" xlink:href="#DejaVuSans-105"/>
     <use x="1418.017578" xlink:href="#DejaVuSans-100"/>
     <use x="1481.494141" xlink:href="#DejaVuSans-101"/>
     <use x="1543.017578" xlink:href="#DejaVuSans-32"/>
     <use x="1574.804688" xlink:href="#DejaVuSans-78"/>
     <use x="1649.609375" xlink:href="#DejaVuSans-89"/>
    </g>
   </g>
  </g>
  <g id="axes_3">
   <g id="patch_12">
    <path d="M 57.17 606.04 
L 565.2 606.04 
L 565.2 442.293333 
L 57.17 442.293333 
z
"/>
   </g>
   <g id="PolyCollection_12">
    <defs>
     <path d="M 400.327778 -169.417035 
L 400.327778 -169.417035 
L 411.505556 -169.417035 
L 422.683333 -169.417035 
L 433.861111 -169.417035 
L 445.038889 -177.390889 
L 456.216667 -183.31834 
L 456.216667 -198.263636 
L 456.216667 -198.263636 
L 445.038889 -195.124396 
L 433.861111 -194.616849 
L 422.683333 -190.156217 
L 411.505556 -183.363233 
L 400.327778 -169.417035 
z
" id="m04930be03d" style="stroke:#f77189;stroke-opacity:0.1;"/>
    </defs>
    <g clip-path="url(#pc53aefef99)">
     <use style="fill:#f77189;fill-opacity:0.1;stroke:#f77189;stroke-opacity:0.1;" x="0" xlink:href="#m04930be03d" y="648"/>
    </g>
   </g>
   <g id="PolyCollection_13">
    <defs>
     <path d="M 400.327778 -107.554146 
L 400.327778 -107.554146 
L 411.505556 -107.554146 
L 422.683333 -107.554146 
L 433.861111 -107.554146 
L 445.038889 -107.554146 
L 456.216667 -107.554146 
L 456.216667 -140.112605 
L 456.216667 -140.112605 
L 445.038889 -134.446728 
L 433.861111 -126.512861 
L 422.683333 -116.448637 
L 411.505556 -112.492924 
L 400.327778 -107.554146 
z
" id="m305e74368e" style="stroke:#ae9d31;stroke-opacity:0.1;"/>
    </defs>
    <g clip-path="url(#pc53aefef99)">
     <use style="fill:#ae9d31;fill-opacity:0.1;stroke:#ae9d31;stroke-opacity:0.1;" x="0" xlink:href="#m305e74368e" y="648"/>
    </g>
   </g>
   <g id="PolyCollection_14">
    <defs>
     <path d="M 400.327778 -98.893342 
L 400.327778 -98.893342 
L 411.505556 -98.893342 
L 422.683333 -98.893342 
L 433.861111 -98.893342 
L 445.038889 -98.893342 
L 456.216667 -99.26006 
L 456.216667 -134.998552 
L 456.216667 -134.998552 
L 445.038889 -132.10083 
L 433.861111 -129.717739 
L 422.683333 -124.004821 
L 411.505556 -120.250369 
L 400.327778 -98.893342 
z
" id="mbca77fafd5" style="stroke:#33b07a;stroke-opacity:0.1;"/>
    </defs>
    <g clip-path="url(#pc53aefef99)">
     <use style="fill:#33b07a;fill-opacity:0.1;stroke:#33b07a;stroke-opacity:0.1;" x="0" xlink:href="#mbca77fafd5" y="648"/>
    </g>
   </g>
   <g id="PolyCollection_15">
    <defs>
     <path d="M 400.327778 -76.622702 
L 400.327778 -76.622702 
L 411.505556 -76.622702 
L 422.683333 -76.622702 
L 433.861111 -76.622702 
L 445.038889 -76.622702 
L 456.216667 -76.622702 
L 456.216667 -87.458466 
L 456.216667 -87.458466 
L 445.038889 -87.618003 
L 433.861111 -84.6838 
L 422.683333 -82.893536 
L 411.505556 -79.868402 
L 400.327778 -76.622702 
z
" id="m5c6851487f" style="stroke:#38a9c5;stroke-opacity:0.1;"/>
    </defs>
    <g clip-path="url(#pc53aefef99)">
     <use style="fill:#38a9c5;fill-opacity:0.1;stroke:#38a9c5;stroke-opacity:0.1;" x="0" xlink:href="#m5c6851487f" y="648"/>
    </g>
   </g>
   <g id="PolyCollection_16">
    <defs>
     <path d="M 400.327778 -75.385444 
L 400.327778 -75.385444 
L 411.505556 -75.385444 
L 422.683333 -75.385444 
L 433.861111 -75.385444 
L 445.038889 -75.385444 
L 456.216667 -75.385444 
L 456.216667 -87.096024 
L 456.216667 -87.096024 
L 445.038889 -85.488226 
L 433.861111 -82.789937 
L 422.683333 -81.284032 
L 411.505556 -78.513897 
L 400.327778 -75.385444 
z
" id="mff78d79632" style="stroke:#cc7af4;stroke-opacity:0.1;"/>
    </defs>
    <g clip-path="url(#pc53aefef99)">
     <use style="fill:#cc7af4;fill-opacity:0.1;stroke:#cc7af4;stroke-opacity:0.1;" x="0" xlink:href="#mff78d79632" y="648"/>
    </g>
   </g>
   <g id="matplotlib.axis_5">
    <g id="xtick_7">
     <g id="line2d_40">
      <g>
       <use style="fill:#ffffff;stroke:#ffffff;stroke-width:0.8;" x="76.172222" xlink:href="#me47bc32886" y="606.04"/>
      </g>
     </g>
     <g id="text_33">
      <!-- 3/26 -->
      <defs>
       <path d="M 33.015625 40.375 
Q 26.375 40.375 22.484375 35.828125 
Q 18.609375 31.296875 18.609375 23.390625 
Q 18.609375 15.53125 22.484375 10.953125 
Q 26.375 6.390625 33.015625 6.390625 
Q 39.65625 6.390625 43.53125 10.953125 
Q 47.40625 15.53125 47.40625 23.390625 
Q 47.40625 31.296875 43.53125 35.828125 
Q 39.65625 40.375 33.015625 40.375 
z
M 52.59375 71.296875 
L 52.59375 62.3125 
Q 48.875 64.0625 45.09375 64.984375 
Q 41.3125 65.921875 37.59375 65.921875 
Q 27.828125 65.921875 22.671875 59.328125 
Q 17.53125 52.734375 16.796875 39.40625 
Q 19.671875 43.65625 24.015625 45.921875 
Q 28.375 48.1875 33.59375 48.1875 
Q 44.578125 48.1875 50.953125 41.515625 
Q 57.328125 34.859375 57.328125 23.390625 
Q 57.328125 12.15625 50.6875 5.359375 
Q 44.046875 -1.421875 33.015625 -1.421875 
Q 20.359375 -1.421875 13.671875 8.265625 
Q 6.984375 17.96875 6.984375 36.375 
Q 6.984375 53.65625 15.1875 63.9375 
Q 23.390625 74.21875 37.203125 74.21875 
Q 40.921875 74.21875 44.703125 73.484375 
Q 48.484375 72.75 52.59375 71.296875 
z
" id="DejaVuSans-54"/>
      </defs>
      <g style="fill:#ffffff;" transform="translate(64.944097 620.638438)scale(0.1 -0.1)">
       <use xlink:href="#DejaVuSans-51"/>
       <use x="63.623047" xlink:href="#DejaVuSans-47"/>
       <use x="97.314453" xlink:href="#DejaVuSans-50"/>
       <use x="160.9375" xlink:href="#DejaVuSans-54"/>
      </g>
     </g>
    </g>
    <g id="xtick_8">
     <g id="line2d_41">
      <g>
       <use style="fill:#ffffff;stroke:#ffffff;stroke-width:0.8;" x="400.327778" xlink:href="#me47bc32886" y="606.04"/>
      </g>
     </g>
     <g id="text_34">
      <!-- 4/25 -->
      <g style="fill:#ffffff;" transform="translate(389.099653 620.638438)scale(0.1 -0.1)">
       <use xlink:href="#DejaVuSans-52"/>
       <use x="63.623047" xlink:href="#DejaVuSans-47"/>
       <use x="97.314453" xlink:href="#DejaVuSans-50"/>
       <use x="160.9375" xlink:href="#DejaVuSans-53"/>
      </g>
     </g>
    </g>
    <g id="xtick_9">
     <g id="line2d_42">
      <g>
       <use style="fill:#ffffff;stroke:#ffffff;stroke-width:0.8;" x="456.216667" xlink:href="#me47bc32886" y="606.04"/>
      </g>
     </g>
     <g id="text_35">
      <!-- 4/30 -->
      <g style="fill:#ffffff;" transform="translate(444.988542 620.638438)scale(0.1 -0.1)">
       <use xlink:href="#DejaVuSans-52"/>
       <use x="63.623047" xlink:href="#DejaVuSans-47"/>
       <use x="97.314453" xlink:href="#DejaVuSans-51"/>
       <use x="160.9375" xlink:href="#DejaVuSans-48"/>
      </g>
     </g>
    </g>
    <g id="text_36">
     <!-- Date -->
     <defs>
      <path d="M 19.671875 64.796875 
L 19.671875 8.109375 
L 31.59375 8.109375 
Q 46.6875 8.109375 53.6875 14.9375 
Q 60.6875 21.78125 60.6875 36.53125 
Q 60.6875 51.171875 53.6875 57.984375 
Q 46.6875 64.796875 31.59375 64.796875 
z
M 9.8125 72.90625 
L 30.078125 72.90625 
Q 51.265625 72.90625 61.171875 64.09375 
Q 71.09375 55.28125 71.09375 36.53125 
Q 71.09375 17.671875 61.125 8.828125 
Q 51.171875 0 30.078125 0 
L 9.8125 0 
z
" id="DejaVuSans-68"/>
     </defs>
     <g style="fill:#ffffff;" transform="translate(299.234219 634.316563)scale(0.1 -0.1)">
      <use xlink:href="#DejaVuSans-68"/>
      <use x="77.001953" xlink:href="#DejaVuSans-97"/>
      <use x="138.28125" xlink:href="#DejaVuSans-116"/>
      <use x="177.490234" xlink:href="#DejaVuSans-101"/>
     </g>
    </g>
   </g>
   <g id="matplotlib.axis_6">
    <g id="ytick_12">
     <g id="line2d_43">
      <g>
       <use style="fill:#ffffff;stroke:#ffffff;stroke-width:0.8;" x="57.17" xlink:href="#m4ac9a52464" y="599.834227"/>
      </g>
     </g>
     <g id="text_37">
      <!-- 0 -->
      <g style="fill:#ffffff;" transform="translate(43.8075 603.633446)scale(0.1 -0.1)">
       <use xlink:href="#DejaVuSans-48"/>
      </g>
     </g>
    </g>
    <g id="ytick_13">
     <g id="line2d_44">
      <g>
       <use style="fill:#ffffff;stroke:#ffffff;stroke-width:0.8;" x="57.17" xlink:href="#m4ac9a52464" y="575.089072"/>
      </g>
     </g>
     <g id="text_38">
      <!-- 20 -->
      <g style="fill:#ffffff;" transform="translate(37.445 578.888291)scale(0.1 -0.1)">
       <use xlink:href="#DejaVuSans-50"/>
       <use x="63.623047" xlink:href="#DejaVuSans-48"/>
      </g>
     </g>
    </g>
    <g id="ytick_14">
     <g id="line2d_45">
      <g>
       <use style="fill:#ffffff;stroke:#ffffff;stroke-width:0.8;" x="57.17" xlink:href="#m4ac9a52464" y="550.343916"/>
      </g>
     </g>
     <g id="text_39">
      <!-- 40 -->
      <g style="fill:#ffffff;" transform="translate(37.445 554.143135)scale(0.1 -0.1)">
       <use xlink:href="#DejaVuSans-52"/>
       <use x="63.623047" xlink:href="#DejaVuSans-48"/>
      </g>
     </g>
    </g>
    <g id="ytick_15">
     <g id="line2d_46">
      <g>
       <use style="fill:#ffffff;stroke:#ffffff;stroke-width:0.8;" x="57.17" xlink:href="#m4ac9a52464" y="525.59876"/>
      </g>
     </g>
     <g id="text_40">
      <!-- 60 -->
      <g style="fill:#ffffff;" transform="translate(37.445 529.397979)scale(0.1 -0.1)">
       <use xlink:href="#DejaVuSans-54"/>
       <use x="63.623047" xlink:href="#DejaVuSans-48"/>
      </g>
     </g>
    </g>
    <g id="ytick_16">
     <g id="line2d_47">
      <g>
       <use style="fill:#ffffff;stroke:#ffffff;stroke-width:0.8;" x="57.17" xlink:href="#m4ac9a52464" y="500.853605"/>
      </g>
     </g>
     <g id="text_41">
      <!-- 80 -->
      <defs>
       <path d="M 31.78125 34.625 
Q 24.75 34.625 20.71875 30.859375 
Q 16.703125 27.09375 16.703125 20.515625 
Q 16.703125 13.921875 20.71875 10.15625 
Q 24.75 6.390625 31.78125 6.390625 
Q 38.8125 6.390625 42.859375 10.171875 
Q 46.921875 13.96875 46.921875 20.515625 
Q 46.921875 27.09375 42.890625 30.859375 
Q 38.875 34.625 31.78125 34.625 
z
M 21.921875 38.8125 
Q 15.578125 40.375 12.03125 44.71875 
Q 8.5 49.078125 8.5 55.328125 
Q 8.5 64.0625 14.71875 69.140625 
Q 20.953125 74.21875 31.78125 74.21875 
Q 42.671875 74.21875 48.875 69.140625 
Q 55.078125 64.0625 55.078125 55.328125 
Q 55.078125 49.078125 51.53125 44.71875 
Q 48 40.375 41.703125 38.8125 
Q 48.828125 37.15625 52.796875 32.3125 
Q 56.78125 27.484375 56.78125 20.515625 
Q 56.78125 9.90625 50.3125 4.234375 
Q 43.84375 -1.421875 31.78125 -1.421875 
Q 19.734375 -1.421875 13.25 4.234375 
Q 6.78125 9.90625 6.78125 20.515625 
Q 6.78125 27.484375 10.78125 32.3125 
Q 14.796875 37.15625 21.921875 38.8125 
z
M 18.3125 54.390625 
Q 18.3125 48.734375 21.84375 45.5625 
Q 25.390625 42.390625 31.78125 42.390625 
Q 38.140625 42.390625 41.71875 45.5625 
Q 45.3125 48.734375 45.3125 54.390625 
Q 45.3125 60.0625 41.71875 63.234375 
Q 38.140625 66.40625 31.78125 66.40625 
Q 25.390625 66.40625 21.84375 63.234375 
Q 18.3125 60.0625 18.3125 54.390625 
z
" id="DejaVuSans-56"/>
      </defs>
      <g style="fill:#ffffff;" transform="translate(37.445 504.652823)scale(0.1 -0.1)">
       <use xlink:href="#DejaVuSans-56"/>
       <use x="63.623047" xlink:href="#DejaVuSans-48"/>
      </g>
     </g>
    </g>
    <g id="ytick_17">
     <g id="line2d_48">
      <g>
       <use style="fill:#ffffff;stroke:#ffffff;stroke-width:0.8;" x="57.17" xlink:href="#m4ac9a52464" y="476.108449"/>
      </g>
     </g>
     <g id="text_42">
      <!-- 100 -->
      <g style="fill:#ffffff;" transform="translate(31.0825 479.907668)scale(0.1 -0.1)">
       <use xlink:href="#DejaVuSans-49"/>
       <use x="63.623047" xlink:href="#DejaVuSans-48"/>
       <use x="127.246094" xlink:href="#DejaVuSans-48"/>
      </g>
     </g>
    </g>
    <g id="ytick_18">
     <g id="line2d_49">
      <g>
       <use style="fill:#ffffff;stroke:#ffffff;stroke-width:0.8;" x="57.17" xlink:href="#m4ac9a52464" y="451.363293"/>
      </g>
     </g>
     <g id="text_43">
      <!-- 120 -->
      <g style="fill:#ffffff;" transform="translate(31.0825 455.162512)scale(0.1 -0.1)">
       <use xlink:href="#DejaVuSans-49"/>
       <use x="63.623047" xlink:href="#DejaVuSans-50"/>
       <use x="127.246094" xlink:href="#DejaVuSans-48"/>
      </g>
     </g>
    </g>
    <g id="text_44">
     <!-- Cumulative deaths -->
     <g style="fill:#ffffff;" transform="translate(25.002813 571.341667)rotate(-90)scale(0.1 -0.1)">
      <use xlink:href="#DejaVuSans-67"/>
      <use x="69.824219" xlink:href="#DejaVuSans-117"/>
      <use x="133.203125" xlink:href="#DejaVuSans-109"/>
      <use x="230.615234" xlink:href="#DejaVuSans-117"/>
      <use x="293.994141" xlink:href="#DejaVuSans-108"/>
      <use x="321.777344" xlink:href="#DejaVuSans-97"/>
      <use x="383.056641" xlink:href="#DejaVuSans-116"/>
      <use x="422.265625" xlink:href="#DejaVuSans-105"/>
      <use x="450.048828" xlink:href="#DejaVuSans-118"/>
      <use x="509.228516" xlink:href="#DejaVuSans-101"/>
      <use x="570.751953" xlink:href="#DejaVuSans-32"/>
      <use x="602.539062" xlink:href="#DejaVuSans-100"/>
      <use x="666.015625" xlink:href="#DejaVuSans-101"/>
      <use x="727.539062" xlink:href="#DejaVuSans-97"/>
      <use x="788.818359" xlink:href="#DejaVuSans-116"/>
      <use x="828.027344" xlink:href="#DejaVuSans-104"/>
      <use x="891.40625" xlink:href="#DejaVuSans-115"/>
     </g>
    </g>
   </g>
   <g id="line2d_50">
    <path clip-path="url(#pc53aefef99)" d="M 76.172222 572.614556 
L 87.35 571.377298 
L 98.527778 565.19101 
L 109.705556 565.19101 
L 120.883333 561.479236 
L 132.061111 559.004721 
L 143.238889 556.530205 
L 154.416667 551.581174 
L 165.594444 549.106658 
L 176.772222 547.869401 
L 187.95 547.869401 
L 199.127778 544.157627 
L 210.305556 542.920369 
L 221.483333 539.208596 
L 232.661111 537.971338 
L 243.838889 534.259565 
L 255.016667 533.022307 
L 266.194444 529.310534 
L 277.372222 521.886987 
L 288.55 521.886987 
L 299.727778 515.700698 
L 310.905556 510.751667 
L 322.083333 510.751667 
L 333.261111 505.802636 
L 344.438889 505.802636 
L 355.616667 493.430058 
L 366.794444 487.243769 
L 377.972222 483.531996 
L 389.15 482.294738 
L 400.327778 478.582965 
" style="fill:none;stroke:#f77189;stroke-linecap:square;stroke-width:1.5;"/>
   </g>
   <g id="line2d_51">
    <path clip-path="url(#pc53aefef99)" d="M 400.327778 478.582965 
L 411.505556 473.875613 
L 422.683333 469.777085 
L 433.861111 464.153463 
L 445.038889 459.302988 
L 456.216667 454.705872 
" style="fill:none;stroke:#f77189;stroke-dasharray:1.5,2.475;stroke-dashoffset:0;stroke-width:1.5;"/>
   </g>
   <g id="line2d_52">
    <path clip-path="url(#pc53aefef99)" d="M 76.172222 594.885196 
L 87.35 594.885196 
L 98.527778 592.410681 
L 109.705556 591.173423 
L 120.883333 591.173423 
L 132.061111 591.173423 
L 143.238889 589.936165 
L 154.416667 588.698907 
L 165.594444 584.987134 
L 176.772222 584.987134 
L 187.95 584.987134 
L 199.127778 583.749876 
L 210.305556 581.275361 
L 221.483333 580.038103 
L 232.661111 578.800845 
L 243.838889 575.089072 
L 255.016667 573.851814 
L 266.194444 571.377298 
L 277.372222 571.377298 
L 288.55 571.377298 
L 299.727778 555.292947 
L 310.905556 551.581174 
L 322.083333 551.581174 
L 333.261111 549.106658 
L 344.438889 547.869401 
L 355.616667 547.869401 
L 366.794444 546.632143 
L 377.972222 544.157627 
L 389.15 542.920369 
L 400.327778 540.445854 
" style="fill:none;stroke:#ae9d31;stroke-linecap:square;stroke-width:1.5;"/>
   </g>
   <g id="line2d_53">
    <path clip-path="url(#pc53aefef99)" d="M 400.327778 540.445854 
L 411.505556 537.665638 
L 422.683333 534.842996 
L 433.861111 532.267685 
L 445.038889 529.815469 
L 456.216667 527.65012 
" style="fill:none;stroke:#ae9d31;stroke-dasharray:1.5,2.475;stroke-dashoffset:0;stroke-width:1.5;"/>
   </g>
   <g id="line2d_54">
    <path clip-path="url(#pc53aefef99)" d="M 76.172222 593.647939 
L 87.35 592.410681 
L 98.527778 592.410681 
L 109.705556 592.410681 
L 120.883333 592.410681 
L 132.061111 587.46165 
L 143.238889 587.46165 
L 154.416667 587.46165 
L 165.594444 583.749876 
L 176.772222 583.749876 
L 187.95 583.749876 
L 199.127778 583.749876 
L 210.305556 573.851814 
L 221.483333 573.851814 
L 232.661111 573.851814 
L 243.838889 573.851814 
L 255.016667 573.851814 
L 266.194444 573.851814 
L 277.372222 573.851814 
L 288.55 573.851814 
L 299.727778 573.851814 
L 310.905556 565.19101 
L 322.083333 565.19101 
L 333.261111 565.19101 
L 344.438889 565.19101 
L 355.616667 565.19101 
L 366.794444 565.19101 
L 377.972222 552.818432 
L 389.15 551.581174 
L 400.327778 549.106658 
" style="fill:none;stroke:#33b07a;stroke-linecap:square;stroke-width:1.5;"/>
   </g>
   <g id="line2d_55">
    <path clip-path="url(#pc53aefef99)" d="M 400.327778 549.106658 
L 411.505556 544.354572 
L 422.683333 540.334621 
L 433.861111 536.693691 
L 445.038889 533.002697 
L 456.216667 529.548146 
" style="fill:none;stroke:#33b07a;stroke-dasharray:1.5,2.475;stroke-dashoffset:0;stroke-width:1.5;"/>
   </g>
   <g id="line2d_56">
    <path clip-path="url(#pc53aefef99)" d="M 76.172222 598.59697 
L 87.35 597.359712 
L 98.527778 596.122454 
L 109.705556 596.122454 
L 120.883333 596.122454 
L 132.061111 596.122454 
L 143.238889 596.122454 
L 154.416667 596.122454 
L 165.594444 593.647939 
L 176.772222 593.647939 
L 187.95 592.410681 
L 199.127778 591.173423 
L 210.305556 591.173423 
L 221.483333 591.173423 
L 232.661111 589.936165 
L 243.838889 588.698907 
L 255.016667 586.224392 
L 266.194444 586.224392 
L 277.372222 586.224392 
L 288.55 584.987134 
L 299.727778 582.512618 
L 310.905556 580.038103 
L 322.083333 580.038103 
L 333.261111 576.32633 
L 344.438889 575.089072 
L 355.616667 572.614556 
L 366.794444 572.614556 
L 377.972222 572.614556 
L 389.15 571.377298 
L 400.327778 571.377298 
" style="fill:none;stroke:#38a9c5;stroke-linecap:square;stroke-width:1.5;"/>
   </g>
   <g id="line2d_57">
    <path clip-path="url(#pc53aefef99)" d="M 400.327778 571.377298 
L 411.505556 569.940844 
L 422.683333 568.472657 
L 433.861111 567.310242 
L 445.038889 566.187428 
L 456.216667 565.281496 
" style="fill:none;stroke:#38a9c5;stroke-dasharray:1.5,2.475;stroke-dashoffset:0;stroke-width:1.5;"/>
   </g>
   <g id="line2d_58">
    <path clip-path="url(#pc53aefef99)" d="M 76.172222 597.359712 
L 87.35 596.122454 
L 98.527778 594.885196 
L 109.705556 593.647939 
L 120.883333 592.410681 
L 132.061111 592.410681 
L 143.238889 591.173423 
L 154.416667 591.173423 
L 165.594444 591.173423 
L 176.772222 589.936165 
L 187.95 589.936165 
L 199.127778 588.698907 
L 210.305556 588.698907 
L 221.483333 587.46165 
L 232.661111 587.46165 
L 243.838889 583.749876 
L 255.016667 583.749876 
L 266.194444 582.512618 
L 277.372222 581.275361 
L 288.55 581.275361 
L 299.727778 578.800845 
L 310.905556 578.800845 
L 322.083333 578.800845 
L 333.261111 575.089072 
L 344.438889 575.089072 
L 355.616667 575.089072 
L 366.794444 575.089072 
L 377.972222 573.851814 
L 389.15 573.851814 
L 400.327778 572.614556 
" style="fill:none;stroke:#cc7af4;stroke-linecap:square;stroke-width:1.5;"/>
   </g>
   <g id="line2d_59">
    <path clip-path="url(#pc53aefef99)" d="M 400.327778 572.614556 
L 411.505556 571.072898 
L 422.683333 569.72388 
L 433.861111 568.157276 
L 445.038889 566.984014 
L 456.216667 566.109172 
" style="fill:none;stroke:#cc7af4;stroke-dasharray:1.5,2.475;stroke-dashoffset:0;stroke-width:1.5;"/>
   </g>
   <g id="patch_13">
    <path d="M 57.17 606.04 
L 57.17 442.293333 
" style="fill:none;stroke:#ffffff;stroke-linecap:square;stroke-linejoin:miter;stroke-width:0.8;"/>
   </g>
   <g id="patch_14">
    <path d="M 565.2 606.04 
L 565.2 442.293333 
" style="fill:none;stroke:#ffffff;stroke-linecap:square;stroke-linejoin:miter;stroke-width:0.8;"/>
   </g>
   <g id="patch_15">
    <path d="M 57.17 606.04 
L 565.2 606.04 
" style="fill:none;stroke:#ffffff;stroke-linecap:square;stroke-linejoin:miter;stroke-width:0.8;"/>
   </g>
   <g id="patch_16">
    <path d="M 57.17 442.293333 
L 565.2 442.293333 
" style="fill:none;stroke:#ffffff;stroke-linecap:square;stroke-linejoin:miter;stroke-width:0.8;"/>
   </g>
   <g id="text_45">
    <!-- Santa Clara, CA -->
    <defs>
     <path d="M 53.515625 70.515625 
L 53.515625 60.890625 
Q 47.90625 63.578125 42.921875 64.890625 
Q 37.9375 66.21875 33.296875 66.21875 
Q 25.25 66.21875 20.875 63.09375 
Q 16.5 59.96875 16.5 54.203125 
Q 16.5 49.359375 19.40625 46.890625 
Q 22.3125 44.4375 30.421875 42.921875 
L 36.375 41.703125 
Q 47.40625 39.59375 52.65625 34.296875 
Q 57.90625 29 57.90625 20.125 
Q 57.90625 9.515625 50.796875 4.046875 
Q 43.703125 -1.421875 29.984375 -1.421875 
Q 24.8125 -1.421875 18.96875 -0.25 
Q 13.140625 0.921875 6.890625 3.21875 
L 6.890625 13.375 
Q 12.890625 10.015625 18.65625 8.296875 
Q 24.421875 6.59375 29.984375 6.59375 
Q 38.421875 6.59375 43.015625 9.90625 
Q 47.609375 13.234375 47.609375 19.390625 
Q 47.609375 24.75 44.3125 27.78125 
Q 41.015625 30.8125 33.5 32.328125 
L 27.484375 33.5 
Q 16.453125 35.6875 11.515625 40.375 
Q 6.59375 45.0625 6.59375 53.421875 
Q 6.59375 63.09375 13.40625 68.65625 
Q 20.21875 74.21875 32.171875 74.21875 
Q 37.3125 74.21875 42.625 73.28125 
Q 47.953125 72.359375 53.515625 70.515625 
z
" id="DejaVuSans-83"/>
    </defs>
    <g style="fill:#f77189;" transform="translate(467.394444 452.263853)scale(0.08 -0.08)">
     <use xlink:href="#DejaVuSans-83"/>
     <use x="63.476562" xlink:href="#DejaVuSans-97"/>
     <use x="124.755859" xlink:href="#DejaVuSans-110"/>
     <use x="188.134766" xlink:href="#DejaVuSans-116"/>
     <use x="227.34375" xlink:href="#DejaVuSans-97"/>
     <use x="288.623047" xlink:href="#DejaVuSans-32"/>
     <use x="320.410156" xlink:href="#DejaVuSans-67"/>
     <use x="390.234375" xlink:href="#DejaVuSans-108"/>
     <use x="418.017578" xlink:href="#DejaVuSans-97"/>
     <use x="479.296875" xlink:href="#DejaVuSans-114"/>
     <use x="520.410156" xlink:href="#DejaVuSans-97"/>
     <use x="581.689453" xlink:href="#DejaVuSans-44"/>
     <use x="613.476562" xlink:href="#DejaVuSans-32"/>
     <use x="645.263672" xlink:href="#DejaVuSans-67"/>
     <use x="715.087891" xlink:href="#DejaVuSans-65"/>
    </g>
   </g>
   <g id="text_46">
    <!-- Alameda, CA -->
    <g style="fill:#ae9d31;" transform="translate(467.394444 525.208101)scale(0.08 -0.08)">
     <use xlink:href="#DejaVuSans-65"/>
     <use x="68.408203" xlink:href="#DejaVuSans-108"/>
     <use x="96.191406" xlink:href="#DejaVuSans-97"/>
     <use x="157.470703" xlink:href="#DejaVuSans-109"/>
     <use x="254.882812" xlink:href="#DejaVuSans-101"/>
     <use x="316.40625" xlink:href="#DejaVuSans-100"/>
     <use x="379.882812" xlink:href="#DejaVuSans-97"/>
     <use x="441.162109" xlink:href="#DejaVuSans-44"/>
     <use x="472.949219" xlink:href="#DejaVuSans-32"/>
     <use x="504.736328" xlink:href="#DejaVuSans-67"/>
     <use x="574.560547" xlink:href="#DejaVuSans-65"/>
    </g>
   </g>
   <g id="text_47">
    <!-- San Mateo, CA -->
    <g style="fill:#33b07a;" transform="translate(467.394444 536.405165)scale(0.08 -0.08)">
     <use xlink:href="#DejaVuSans-83"/>
     <use x="63.476562" xlink:href="#DejaVuSans-97"/>
     <use x="124.755859" xlink:href="#DejaVuSans-110"/>
     <use x="188.134766" xlink:href="#DejaVuSans-32"/>
     <use x="219.921875" xlink:href="#DejaVuSans-77"/>
     <use x="306.201172" xlink:href="#DejaVuSans-97"/>
     <use x="367.480469" xlink:href="#DejaVuSans-116"/>
     <use x="406.689453" xlink:href="#DejaVuSans-101"/>
     <use x="468.212891" xlink:href="#DejaVuSans-111"/>
     <use x="529.394531" xlink:href="#DejaVuSans-44"/>
     <use x="561.181641" xlink:href="#DejaVuSans-32"/>
     <use x="592.96875" xlink:href="#DejaVuSans-67"/>
     <use x="662.792969" xlink:href="#DejaVuSans-65"/>
    </g>
   </g>
   <g id="text_48">
    <!-- Contra Costa, CA -->
    <g style="fill:#38a9c5;" transform="translate(467.394444 562.827304)scale(0.08 -0.08)">
     <use xlink:href="#DejaVuSans-67"/>
     <use x="69.824219" xlink:href="#DejaVuSans-111"/>
     <use x="131.005859" xlink:href="#DejaVuSans-110"/>
     <use x="194.384766" xlink:href="#DejaVuSans-116"/>
     <use x="233.59375" xlink:href="#DejaVuSans-114"/>
     <use x="274.707031" xlink:href="#DejaVuSans-97"/>
     <use x="335.986328" xlink:href="#DejaVuSans-32"/>
     <use x="367.773438" xlink:href="#DejaVuSans-67"/>
     <use x="437.597656" xlink:href="#DejaVuSans-111"/>
     <use x="498.779297" xlink:href="#DejaVuSans-115"/>
     <use x="550.878906" xlink:href="#DejaVuSans-116"/>
     <use x="590.087891" xlink:href="#DejaVuSans-97"/>
     <use x="651.367188" xlink:href="#DejaVuSans-44"/>
     <use x="683.154297" xlink:href="#DejaVuSans-32"/>
     <use x="714.941406" xlink:href="#DejaVuSans-67"/>
     <use x="784.765625" xlink:href="#DejaVuSans-65"/>
    </g>
   </g>
   <g id="text_49">
    <!-- San Francisco, CA -->
    <g style="fill:#cc7af4;" transform="translate(396.291944 572.978364)scale(0.08 -0.08)">
     <use xlink:href="#DejaVuSans-83"/>
     <use x="63.476562" xlink:href="#DejaVuSans-97"/>
     <use x="124.755859" xlink:href="#DejaVuSans-110"/>
     <use x="188.134766" xlink:href="#DejaVuSans-32"/>
     <use x="219.921875" xlink:href="#DejaVuSans-70"/>
     <use x="270.191406" xlink:href="#DejaVuSans-114"/>
     <use x="311.304688" xlink:href="#DejaVuSans-97"/>
     <use x="372.583984" xlink:href="#DejaVuSans-110"/>
     <use x="435.962891" xlink:href="#DejaVuSans-99"/>
     <use x="490.943359" xlink:href="#DejaVuSans-105"/>
     <use x="518.726562" xlink:href="#DejaVuSans-115"/>
     <use x="570.826172" xlink:href="#DejaVuSans-99"/>
     <use x="625.806641" xlink:href="#DejaVuSans-111"/>
     <use x="686.988281" xlink:href="#DejaVuSans-44"/>
     <use x="718.775391" xlink:href="#DejaVuSans-32"/>
     <use x="750.5625" xlink:href="#DejaVuSans-67"/>
     <use x="820.386719" xlink:href="#DejaVuSans-65"/>
    </g>
   </g>
   <g id="text_50">
    <!-- Bay area counties -->
    <g style="fill:#ffffff;" transform="translate(257.2375 436.293333)scale(0.12 -0.12)">
     <use xlink:href="#DejaVuSans-66"/>
     <use x="68.603516" xlink:href="#DejaVuSans-97"/>
     <use x="129.882812" xlink:href="#DejaVuSans-121"/>
     <use x="189.0625" xlink:href="#DejaVuSans-32"/>
     <use x="220.849609" xlink:href="#DejaVuSans-97"/>
     <use x="282.128906" xlink:href="#DejaVuSans-114"/>
     <use x="320.992188" xlink:href="#DejaVuSans-101"/>
     <use x="382.515625" xlink:href="#DejaVuSans-97"/>
     <use x="443.794922" xlink:href="#DejaVuSans-32"/>
     <use x="475.582031" xlink:href="#DejaVuSans-99"/>
     <use x="530.5625" xlink:href="#DejaVuSans-111"/>
     <use x="591.744141" xlink:href="#DejaVuSans-117"/>
     <use x="655.123047" xlink:href="#DejaVuSans-110"/>
     <use x="718.501953" xlink:href="#DejaVuSans-116"/>
     <use x="757.710938" xlink:href="#DejaVuSans-105"/>
     <use x="785.494141" xlink:href="#DejaVuSans-101"/>
     <use x="847.017578" xlink:href="#DejaVuSans-115"/>
    </g>
   </g>
  </g>
 </g>
 <defs>
  <clipPath id="peaaaaffe53">
   <rect height="163.746667" width="508.03" x="57.17" y="26.88"/>
  </clipPath>
  <clipPath id="pbf1ef81ea7">
   <rect height="163.746667" width="508.03" x="57.17" y="234.586667"/>
  </clipPath>
  <clipPath id="pc53aefef99">
   <rect height="163.746667" width="508.03" x="57.17" y="442.293333"/>
  </clipPath>
 </defs>
</svg>
