<?xml version="1.0" encoding="utf-8" standalone="no"?>
<!DOCTYPE svg PUBLIC "-//W3C//DTD SVG 1.1//EN"
  "http://www.w3.org/Graphics/SVG/1.1/DTD/svg11.dtd">
<!-- Created with matplotlib (http://matplotlib.org/) -->
<svg height="648pt" version="1.1" viewBox="0 0 576 648" width="576pt" xmlns="http://www.w3.org/2000/svg" xmlns:xlink="http://www.w3.org/1999/xlink">
 <defs>
  <style type="text/css">
*{stroke-linecap:butt;stroke-linejoin:round;}
  </style>
 </defs>
 <g id="figure_1">
  <g id="patch_1">
   <path d="M 0 648 
L 576 648 
L 576 0 
L 0 0 
z
"/>
  </g>
  <g id="axes_1">
   <g id="patch_2">
    <path d="M 57.05 181.4 
L 561.7 181.4 
L 561.7 26.8 
L 57.05 26.8 
z
"/>
   </g>
   <g id="PolyCollection_1">
    <defs>
     <path d="M 380.762907 -565.292029 
L 380.762907 -565.292029 
L 390.632203 -565.292029 
L 400.501499 -565.292029 
L 410.370795 -565.292029 
L 420.240091 -565.292029 
L 430.109387 -565.292029 
L 430.109387 -614.172727 
L 430.109387 -614.172727 
L 420.240091 -607.569405 
L 410.370795 -599.696479 
L 400.501499 -590.41942 
L 390.632203 -576.504623 
L 380.762907 -565.292029 
z
" id="mc134d7232c" style="stroke:#f77189;stroke-opacity:0.1;"/>
    </defs>
    <g clip-path="url(#pdfc2329c56)">
     <use style="fill:#f77189;fill-opacity:0.1;stroke:#f77189;stroke-opacity:0.1;" x="0" xlink:href="#mc134d7232c" y="648"/>
    </g>
   </g>
   <g id="PolyCollection_2">
    <defs>
     <path d="M 380.762907 -564.601423 
L 380.762907 -564.601423 
L 390.632203 -564.601423 
L 400.501499 -564.601423 
L 410.370795 -564.601423 
L 420.240091 -564.601423 
L 430.109387 -566.773553 
L 430.109387 -612.09329 
L 430.109387 -612.09329 
L 420.240091 -604.135443 
L 410.370795 -596.017844 
L 400.501499 -589.330712 
L 390.632203 -576.139512 
L 380.762907 -564.601423 
z
" id="m156553596e" style="stroke:#ae9d31;stroke-opacity:0.1;"/>
    </defs>
    <g clip-path="url(#pdfc2329c56)">
     <use style="fill:#ae9d31;fill-opacity:0.1;stroke:#ae9d31;stroke-opacity:0.1;" x="0" xlink:href="#m156553596e" y="648"/>
    </g>
   </g>
   <g id="PolyCollection_3">
    <defs>
     <path d="M 380.762907 -533.417875 
L 380.762907 -533.417875 
L 390.632203 -533.417875 
L 400.501499 -533.417875 
L 410.370795 -533.417875 
L 420.240091 -533.417875 
L 430.109387 -533.492425 
L 430.109387 -563.98175 
L 430.109387 -563.98175 
L 420.240091 -558.57577 
L 410.370795 -554.800584 
L 400.501499 -549.178294 
L 390.632203 -540.827609 
L 380.762907 -533.417875 
z
" id="m584b6e54e0" style="stroke:#33b07a;stroke-opacity:0.1;"/>
    </defs>
    <g clip-path="url(#pdfc2329c56)">
     <use style="fill:#33b07a;fill-opacity:0.1;stroke:#33b07a;stroke-opacity:0.1;" x="0" xlink:href="#m584b6e54e0" y="648"/>
    </g>
   </g>
   <g id="PolyCollection_4">
    <defs>
     <path d="M 380.762907 -511.45127 
L 380.762907 -511.45127 
L 390.632203 -511.45127 
L 400.501499 -511.45127 
L 410.370795 -512.564974 
L 420.240091 -511.45127 
L 430.109387 -511.45127 
L 430.109387 -533.895152 
L 430.109387 -533.895152 
L 420.240091 -527.914607 
L 410.370795 -521.298404 
L 400.501499 -518.840482 
L 390.632203 -517.214756 
L 380.762907 -511.45127 
z
" id="m1afa6db27b" style="stroke:#38a9c5;stroke-opacity:0.1;"/>
    </defs>
    <g clip-path="url(#pdfc2329c56)">
     <use style="fill:#38a9c5;fill-opacity:0.1;stroke:#38a9c5;stroke-opacity:0.1;" x="0" xlink:href="#m1afa6db27b" y="648"/>
    </g>
   </g>
   <g id="PolyCollection_5">
    <defs>
     <path d="M 380.762907 -508.954461 
L 380.762907 -508.954461 
L 390.632203 -508.954461 
L 400.501499 -508.954461 
L 410.370795 -508.954461 
L 420.240091 -509.066931 
L 430.109387 -510.081096 
L 430.109387 -520.103259 
L 430.109387 -520.103259 
L 420.240091 -518.629994 
L 410.370795 -517.609101 
L 400.501499 -516.082714 
L 390.632203 -513.348049 
L 380.762907 -508.954461 
z
" id="m32728ed021" style="stroke:#cc7af4;stroke-opacity:0.1;"/>
    </defs>
    <g clip-path="url(#pdfc2329c56)">
     <use style="fill:#cc7af4;fill-opacity:0.1;stroke:#cc7af4;stroke-opacity:0.1;" x="0" xlink:href="#m32728ed021" y="648"/>
    </g>
   </g>
   <g id="matplotlib.axis_1">
    <g id="xtick_1">
     <g id="line2d_1">
      <defs>
       <path d="M 0 0 
L 0 3.5 
" id="m6363fc9add" style="stroke:#ffffff;stroke-width:0.8;"/>
      </defs>
      <g>
       <use style="fill:#ffffff;stroke:#ffffff;stroke-width:0.8;" x="74.814733" xlink:href="#m6363fc9add" y="181.4"/>
      </g>
     </g>
     <g id="text_1">
      <!-- 3/22 -->
      <defs>
       <path d="M 40.578125 39.3125 
Q 47.65625 37.796875 51.625 33 
Q 55.609375 28.21875 55.609375 21.1875 
Q 55.609375 10.40625 48.1875 4.484375 
Q 40.765625 -1.421875 27.09375 -1.421875 
Q 22.515625 -1.421875 17.65625 -0.515625 
Q 12.796875 0.390625 7.625 2.203125 
L 7.625 11.71875 
Q 11.71875 9.328125 16.59375 8.109375 
Q 21.484375 6.890625 26.8125 6.890625 
Q 36.078125 6.890625 40.9375 10.546875 
Q 45.796875 14.203125 45.796875 21.1875 
Q 45.796875 27.640625 41.28125 31.265625 
Q 36.765625 34.90625 28.71875 34.90625 
L 20.21875 34.90625 
L 20.21875 43.015625 
L 29.109375 43.015625 
Q 36.375 43.015625 40.234375 45.921875 
Q 44.09375 48.828125 44.09375 54.296875 
Q 44.09375 59.90625 40.109375 62.90625 
Q 36.140625 65.921875 28.71875 65.921875 
Q 24.65625 65.921875 20.015625 65.03125 
Q 15.375 64.15625 9.8125 62.3125 
L 9.8125 71.09375 
Q 15.4375 72.65625 20.34375 73.4375 
Q 25.25 74.21875 29.59375 74.21875 
Q 40.828125 74.21875 47.359375 69.109375 
Q 53.90625 64.015625 53.90625 55.328125 
Q 53.90625 49.265625 50.4375 45.09375 
Q 46.96875 40.921875 40.578125 39.3125 
z
" id="DejaVuSans-33"/>
       <path d="M 25.390625 72.90625 
L 33.6875 72.90625 
L 8.296875 -9.28125 
L 0 -9.28125 
z
" id="DejaVuSans-2f"/>
       <path d="M 19.1875 8.296875 
L 53.609375 8.296875 
L 53.609375 0 
L 7.328125 0 
L 7.328125 8.296875 
Q 12.9375 14.109375 22.625 23.890625 
Q 32.328125 33.6875 34.8125 36.53125 
Q 39.546875 41.84375 41.421875 45.53125 
Q 43.3125 49.21875 43.3125 52.78125 
Q 43.3125 58.59375 39.234375 62.25 
Q 35.15625 65.921875 28.609375 65.921875 
Q 23.96875 65.921875 18.8125 64.3125 
Q 13.671875 62.703125 7.8125 59.421875 
L 7.8125 69.390625 
Q 13.765625 71.78125 18.9375 73 
Q 24.125 74.21875 28.421875 74.21875 
Q 39.75 74.21875 46.484375 68.546875 
Q 53.21875 62.890625 53.21875 53.421875 
Q 53.21875 48.921875 51.53125 44.890625 
Q 49.859375 40.875 45.40625 35.40625 
Q 44.1875 33.984375 37.640625 27.21875 
Q 31.109375 20.453125 19.1875 8.296875 
z
" id="DejaVuSans-32"/>
      </defs>
      <g style="fill:#ffffff;" transform="translate(63.586608 195.998438)scale(0.1 -0.1)">
       <use xlink:href="#DejaVuSans-33"/>
       <use x="63.623047" xlink:href="#DejaVuSans-2f"/>
       <use x="97.314453" xlink:href="#DejaVuSans-32"/>
       <use x="160.9375" xlink:href="#DejaVuSans-32"/>
      </g>
     </g>
    </g>
    <g id="xtick_2">
     <g id="line2d_2">
      <g>
       <use style="fill:#ffffff;stroke:#ffffff;stroke-width:0.8;" x="380.762907" xlink:href="#m6363fc9add" y="181.4"/>
      </g>
     </g>
     <g id="text_2">
      <!-- 4/23 -->
      <defs>
       <path d="M 37.796875 64.3125 
L 12.890625 25.390625 
L 37.796875 25.390625 
z
M 35.203125 72.90625 
L 47.609375 72.90625 
L 47.609375 25.390625 
L 58.015625 25.390625 
L 58.015625 17.1875 
L 47.609375 17.1875 
L 47.609375 0 
L 37.796875 0 
L 37.796875 17.1875 
L 4.890625 17.1875 
L 4.890625 26.703125 
z
" id="DejaVuSans-34"/>
      </defs>
      <g style="fill:#ffffff;" transform="translate(369.534782 195.998438)scale(0.1 -0.1)">
       <use xlink:href="#DejaVuSans-34"/>
       <use x="63.623047" xlink:href="#DejaVuSans-2f"/>
       <use x="97.314453" xlink:href="#DejaVuSans-32"/>
       <use x="160.9375" xlink:href="#DejaVuSans-33"/>
      </g>
     </g>
    </g>
    <g id="xtick_3">
     <g id="line2d_3">
      <g>
       <use style="fill:#ffffff;stroke:#ffffff;stroke-width:0.8;" x="430.109387" xlink:href="#m6363fc9add" y="181.4"/>
      </g>
     </g>
     <g id="text_3">
      <!-- 4/28 -->
      <defs>
       <path d="M 31.78125 34.625 
Q 24.75 34.625 20.71875 30.859375 
Q 16.703125 27.09375 16.703125 20.515625 
Q 16.703125 13.921875 20.71875 10.15625 
Q 24.75 6.390625 31.78125 6.390625 
Q 38.8125 6.390625 42.859375 10.171875 
Q 46.921875 13.96875 46.921875 20.515625 
Q 46.921875 27.09375 42.890625 30.859375 
Q 38.875 34.625 31.78125 34.625 
z
M 21.921875 38.8125 
Q 15.578125 40.375 12.03125 44.71875 
Q 8.5 49.078125 8.5 55.328125 
Q 8.5 64.0625 14.71875 69.140625 
Q 20.953125 74.21875 31.78125 74.21875 
Q 42.671875 74.21875 48.875 69.140625 
Q 55.078125 64.0625 55.078125 55.328125 
Q 55.078125 49.078125 51.53125 44.71875 
Q 48 40.375 41.703125 38.8125 
Q 48.828125 37.15625 52.796875 32.3125 
Q 56.78125 27.484375 56.78125 20.515625 
Q 56.78125 9.90625 50.3125 4.234375 
Q 43.84375 -1.421875 31.78125 -1.421875 
Q 19.734375 -1.421875 13.25 4.234375 
Q 6.78125 9.90625 6.78125 20.515625 
Q 6.78125 27.484375 10.78125 32.3125 
Q 14.796875 37.15625 21.921875 38.8125 
z
M 18.3125 54.390625 
Q 18.3125 48.734375 21.84375 45.5625 
Q 25.390625 42.390625 31.78125 42.390625 
Q 38.140625 42.390625 41.71875 45.5625 
Q 45.3125 48.734375 45.3125 54.390625 
Q 45.3125 60.0625 41.71875 63.234375 
Q 38.140625 66.40625 31.78125 66.40625 
Q 25.390625 66.40625 21.84375 63.234375 
Q 18.3125 60.0625 18.3125 54.390625 
z
" id="DejaVuSans-38"/>
      </defs>
      <g style="fill:#ffffff;" transform="translate(418.881262 195.998438)scale(0.1 -0.1)">
       <use xlink:href="#DejaVuSans-34"/>
       <use x="63.623047" xlink:href="#DejaVuSans-2f"/>
       <use x="97.314453" xlink:href="#DejaVuSans-32"/>
       <use x="160.9375" xlink:href="#DejaVuSans-38"/>
      </g>
     </g>
    </g>
   </g>
   <g id="matplotlib.axis_2">
    <g id="ytick_1">
     <g id="line2d_4">
      <defs>
       <path d="M 0 0 
L -3.5 0 
" id="ma428c00095" style="stroke:#ffffff;stroke-width:0.8;"/>
      </defs>
      <g>
       <use style="fill:#ffffff;stroke:#ffffff;stroke-width:0.8;" x="57.05" xlink:href="#ma428c00095" y="174.55866"/>
      </g>
     </g>
     <g id="text_4">
      <!-- 0 -->
      <defs>
       <path d="M 31.78125 66.40625 
Q 24.171875 66.40625 20.328125 58.90625 
Q 16.5 51.421875 16.5 36.375 
Q 16.5 21.390625 20.328125 13.890625 
Q 24.171875 6.390625 31.78125 6.390625 
Q 39.453125 6.390625 43.28125 13.890625 
Q 47.125 21.390625 47.125 36.375 
Q 47.125 51.421875 43.28125 58.90625 
Q 39.453125 66.40625 31.78125 66.40625 
z
M 31.78125 74.21875 
Q 44.046875 74.21875 50.515625 64.515625 
Q 56.984375 54.828125 56.984375 36.375 
Q 56.984375 17.96875 50.515625 8.265625 
Q 44.046875 -1.421875 31.78125 -1.421875 
Q 19.53125 -1.421875 13.0625 8.265625 
Q 6.59375 17.96875 6.59375 36.375 
Q 6.59375 54.828125 13.0625 64.515625 
Q 19.53125 74.21875 31.78125 74.21875 
z
" id="DejaVuSans-30"/>
      </defs>
      <g style="fill:#ffffff;" transform="translate(43.6875 178.357879)scale(0.1 -0.1)">
       <use xlink:href="#DejaVuSans-30"/>
      </g>
     </g>
    </g>
    <g id="ytick_2">
     <g id="line2d_5">
      <g>
       <use style="fill:#ffffff;stroke:#ffffff;stroke-width:0.8;" x="57.05" xlink:href="#ma428c00095" y="147.996864"/>
      </g>
     </g>
     <g id="text_5">
      <!-- 1000 -->
      <defs>
       <path d="M 12.40625 8.296875 
L 28.515625 8.296875 
L 28.515625 63.921875 
L 10.984375 60.40625 
L 10.984375 69.390625 
L 28.421875 72.90625 
L 38.28125 72.90625 
L 38.28125 8.296875 
L 54.390625 8.296875 
L 54.390625 0 
L 12.40625 0 
z
" id="DejaVuSans-31"/>
      </defs>
      <g style="fill:#ffffff;" transform="translate(24.6 151.796083)scale(0.1 -0.1)">
       <use xlink:href="#DejaVuSans-31"/>
       <use x="63.623047" xlink:href="#DejaVuSans-30"/>
       <use x="127.246094" xlink:href="#DejaVuSans-30"/>
       <use x="190.869141" xlink:href="#DejaVuSans-30"/>
      </g>
     </g>
    </g>
    <g id="ytick_3">
     <g id="line2d_6">
      <g>
       <use style="fill:#ffffff;stroke:#ffffff;stroke-width:0.8;" x="57.05" xlink:href="#ma428c00095" y="121.435069"/>
      </g>
     </g>
     <g id="text_6">
      <!-- 2000 -->
      <g style="fill:#ffffff;" transform="translate(24.6 125.234287)scale(0.1 -0.1)">
       <use xlink:href="#DejaVuSans-32"/>
       <use x="63.623047" xlink:href="#DejaVuSans-30"/>
       <use x="127.246094" xlink:href="#DejaVuSans-30"/>
       <use x="190.869141" xlink:href="#DejaVuSans-30"/>
      </g>
     </g>
    </g>
    <g id="ytick_4">
     <g id="line2d_7">
      <g>
       <use style="fill:#ffffff;stroke:#ffffff;stroke-width:0.8;" x="57.05" xlink:href="#ma428c00095" y="94.873273"/>
      </g>
     </g>
     <g id="text_7">
      <!-- 3000 -->
      <g style="fill:#ffffff;" transform="translate(24.6 98.672492)scale(0.1 -0.1)">
       <use xlink:href="#DejaVuSans-33"/>
       <use x="63.623047" xlink:href="#DejaVuSans-30"/>
       <use x="127.246094" xlink:href="#DejaVuSans-30"/>
       <use x="190.869141" xlink:href="#DejaVuSans-30"/>
      </g>
     </g>
    </g>
    <g id="ytick_5">
     <g id="line2d_8">
      <g>
       <use style="fill:#ffffff;stroke:#ffffff;stroke-width:0.8;" x="57.05" xlink:href="#ma428c00095" y="68.311478"/>
      </g>
     </g>
     <g id="text_8">
      <!-- 4000 -->
      <g style="fill:#ffffff;" transform="translate(24.6 72.110696)scale(0.1 -0.1)">
       <use xlink:href="#DejaVuSans-34"/>
       <use x="63.623047" xlink:href="#DejaVuSans-30"/>
       <use x="127.246094" xlink:href="#DejaVuSans-30"/>
       <use x="190.869141" xlink:href="#DejaVuSans-30"/>
      </g>
     </g>
    </g>
    <g id="ytick_6">
     <g id="line2d_9">
      <g>
       <use style="fill:#ffffff;stroke:#ffffff;stroke-width:0.8;" x="57.05" xlink:href="#ma428c00095" y="41.749682"/>
      </g>
     </g>
     <g id="text_9">
      <!-- 5000 -->
      <defs>
       <path d="M 10.796875 72.90625 
L 49.515625 72.90625 
L 49.515625 64.59375 
L 19.828125 64.59375 
L 19.828125 46.734375 
Q 21.96875 47.46875 24.109375 47.828125 
Q 26.265625 48.1875 28.421875 48.1875 
Q 40.625 48.1875 47.75 41.5 
Q 54.890625 34.8125 54.890625 23.390625 
Q 54.890625 11.625 47.5625 5.09375 
Q 40.234375 -1.421875 26.90625 -1.421875 
Q 22.3125 -1.421875 17.546875 -0.640625 
Q 12.796875 0.140625 7.71875 1.703125 
L 7.71875 11.625 
Q 12.109375 9.234375 16.796875 8.0625 
Q 21.484375 6.890625 26.703125 6.890625 
Q 35.15625 6.890625 40.078125 11.328125 
Q 45.015625 15.765625 45.015625 23.390625 
Q 45.015625 31 40.078125 35.4375 
Q 35.15625 39.890625 26.703125 39.890625 
Q 22.75 39.890625 18.8125 39.015625 
Q 14.890625 38.140625 10.796875 36.28125 
z
" id="DejaVuSans-35"/>
      </defs>
      <g style="fill:#ffffff;" transform="translate(24.6 45.548901)scale(0.1 -0.1)">
       <use xlink:href="#DejaVuSans-35"/>
       <use x="63.623047" xlink:href="#DejaVuSans-30"/>
       <use x="127.246094" xlink:href="#DejaVuSans-30"/>
       <use x="190.869141" xlink:href="#DejaVuSans-30"/>
      </g>
     </g>
    </g>
    <g id="text_10">
     <!-- Cumulative deaths -->
     <defs>
      <path d="M 64.40625 67.28125 
L 64.40625 56.890625 
Q 59.421875 61.53125 53.78125 63.8125 
Q 48.140625 66.109375 41.796875 66.109375 
Q 29.296875 66.109375 22.65625 58.46875 
Q 16.015625 50.828125 16.015625 36.375 
Q 16.015625 21.96875 22.65625 14.328125 
Q 29.296875 6.6875 41.796875 6.6875 
Q 48.140625 6.6875 53.78125 8.984375 
Q 59.421875 11.28125 64.40625 15.921875 
L 64.40625 5.609375 
Q 59.234375 2.09375 53.4375 0.328125 
Q 47.65625 -1.421875 41.21875 -1.421875 
Q 24.65625 -1.421875 15.125 8.703125 
Q 5.609375 18.84375 5.609375 36.375 
Q 5.609375 53.953125 15.125 64.078125 
Q 24.65625 74.21875 41.21875 74.21875 
Q 47.75 74.21875 53.53125 72.484375 
Q 59.328125 70.75 64.40625 67.28125 
z
" id="DejaVuSans-43"/>
      <path d="M 8.5 21.578125 
L 8.5 54.6875 
L 17.484375 54.6875 
L 17.484375 21.921875 
Q 17.484375 14.15625 20.5 10.265625 
Q 23.53125 6.390625 29.59375 6.390625 
Q 36.859375 6.390625 41.078125 11.03125 
Q 45.3125 15.671875 45.3125 23.6875 
L 45.3125 54.6875 
L 54.296875 54.6875 
L 54.296875 0 
L 45.3125 0 
L 45.3125 8.40625 
Q 42.046875 3.421875 37.71875 1 
Q 33.40625 -1.421875 27.6875 -1.421875 
Q 18.265625 -1.421875 13.375 4.4375 
Q 8.5 10.296875 8.5 21.578125 
z
M 31.109375 56 
z
" id="DejaVuSans-75"/>
      <path d="M 52 44.1875 
Q 55.375 50.25 60.0625 53.125 
Q 64.75 56 71.09375 56 
Q 79.640625 56 84.28125 50.015625 
Q 88.921875 44.046875 88.921875 33.015625 
L 88.921875 0 
L 79.890625 0 
L 79.890625 32.71875 
Q 79.890625 40.578125 77.09375 44.375 
Q 74.3125 48.1875 68.609375 48.1875 
Q 61.625 48.1875 57.5625 43.546875 
Q 53.515625 38.921875 53.515625 30.90625 
L 53.515625 0 
L 44.484375 0 
L 44.484375 32.71875 
Q 44.484375 40.625 41.703125 44.40625 
Q 38.921875 48.1875 33.109375 48.1875 
Q 26.21875 48.1875 22.15625 43.53125 
Q 18.109375 38.875 18.109375 30.90625 
L 18.109375 0 
L 9.078125 0 
L 9.078125 54.6875 
L 18.109375 54.6875 
L 18.109375 46.1875 
Q 21.1875 51.21875 25.484375 53.609375 
Q 29.78125 56 35.6875 56 
Q 41.65625 56 45.828125 52.96875 
Q 50 49.953125 52 44.1875 
z
" id="DejaVuSans-6d"/>
      <path d="M 9.421875 75.984375 
L 18.40625 75.984375 
L 18.40625 0 
L 9.421875 0 
z
" id="DejaVuSans-6c"/>
      <path d="M 34.28125 27.484375 
Q 23.390625 27.484375 19.1875 25 
Q 14.984375 22.515625 14.984375 16.5 
Q 14.984375 11.71875 18.140625 8.90625 
Q 21.296875 6.109375 26.703125 6.109375 
Q 34.1875 6.109375 38.703125 11.40625 
Q 43.21875 16.703125 43.21875 25.484375 
L 43.21875 27.484375 
z
M 52.203125 31.203125 
L 52.203125 0 
L 43.21875 0 
L 43.21875 8.296875 
Q 40.140625 3.328125 35.546875 0.953125 
Q 30.953125 -1.421875 24.3125 -1.421875 
Q 15.921875 -1.421875 10.953125 3.296875 
Q 6 8.015625 6 15.921875 
Q 6 25.140625 12.171875 29.828125 
Q 18.359375 34.515625 30.609375 34.515625 
L 43.21875 34.515625 
L 43.21875 35.40625 
Q 43.21875 41.609375 39.140625 45 
Q 35.0625 48.390625 27.6875 48.390625 
Q 23 48.390625 18.546875 47.265625 
Q 14.109375 46.140625 10.015625 43.890625 
L 10.015625 52.203125 
Q 14.9375 54.109375 19.578125 55.046875 
Q 24.21875 56 28.609375 56 
Q 40.484375 56 46.34375 49.84375 
Q 52.203125 43.703125 52.203125 31.203125 
z
" id="DejaVuSans-61"/>
      <path d="M 18.3125 70.21875 
L 18.3125 54.6875 
L 36.8125 54.6875 
L 36.8125 47.703125 
L 18.3125 47.703125 
L 18.3125 18.015625 
Q 18.3125 11.328125 20.140625 9.421875 
Q 21.96875 7.515625 27.59375 7.515625 
L 36.8125 7.515625 
L 36.8125 0 
L 27.59375 0 
Q 17.1875 0 13.234375 3.875 
Q 9.28125 7.765625 9.28125 18.015625 
L 9.28125 47.703125 
L 2.6875 47.703125 
L 2.6875 54.6875 
L 9.28125 54.6875 
L 9.28125 70.21875 
z
" id="DejaVuSans-74"/>
      <path d="M 9.421875 54.6875 
L 18.40625 54.6875 
L 18.40625 0 
L 9.421875 0 
z
M 9.421875 75.984375 
L 18.40625 75.984375 
L 18.40625 64.59375 
L 9.421875 64.59375 
z
" id="DejaVuSans-69"/>
      <path d="M 2.984375 54.6875 
L 12.5 54.6875 
L 29.59375 8.796875 
L 46.6875 54.6875 
L 56.203125 54.6875 
L 35.6875 0 
L 23.484375 0 
z
" id="DejaVuSans-76"/>
      <path d="M 56.203125 29.59375 
L 56.203125 25.203125 
L 14.890625 25.203125 
Q 15.484375 15.921875 20.484375 11.0625 
Q 25.484375 6.203125 34.421875 6.203125 
Q 39.59375 6.203125 44.453125 7.46875 
Q 49.3125 8.734375 54.109375 11.28125 
L 54.109375 2.78125 
Q 49.265625 0.734375 44.1875 -0.34375 
Q 39.109375 -1.421875 33.890625 -1.421875 
Q 20.796875 -1.421875 13.15625 6.1875 
Q 5.515625 13.8125 5.515625 26.8125 
Q 5.515625 40.234375 12.765625 48.109375 
Q 20.015625 56 32.328125 56 
Q 43.359375 56 49.78125 48.890625 
Q 56.203125 41.796875 56.203125 29.59375 
z
M 47.21875 32.234375 
Q 47.125 39.59375 43.09375 43.984375 
Q 39.0625 48.390625 32.421875 48.390625 
Q 24.90625 48.390625 20.390625 44.140625 
Q 15.875 39.890625 15.1875 32.171875 
z
" id="DejaVuSans-65"/>
      <path id="DejaVuSans-20"/>
      <path d="M 45.40625 46.390625 
L 45.40625 75.984375 
L 54.390625 75.984375 
L 54.390625 0 
L 45.40625 0 
L 45.40625 8.203125 
Q 42.578125 3.328125 38.25 0.953125 
Q 33.9375 -1.421875 27.875 -1.421875 
Q 17.96875 -1.421875 11.734375 6.484375 
Q 5.515625 14.40625 5.515625 27.296875 
Q 5.515625 40.1875 11.734375 48.09375 
Q 17.96875 56 27.875 56 
Q 33.9375 56 38.25 53.625 
Q 42.578125 51.265625 45.40625 46.390625 
z
M 14.796875 27.296875 
Q 14.796875 17.390625 18.875 11.75 
Q 22.953125 6.109375 30.078125 6.109375 
Q 37.203125 6.109375 41.296875 11.75 
Q 45.40625 17.390625 45.40625 27.296875 
Q 45.40625 37.203125 41.296875 42.84375 
Q 37.203125 48.484375 30.078125 48.484375 
Q 22.953125 48.484375 18.875 42.84375 
Q 14.796875 37.203125 14.796875 27.296875 
z
" id="DejaVuSans-64"/>
      <path d="M 54.890625 33.015625 
L 54.890625 0 
L 45.90625 0 
L 45.90625 32.71875 
Q 45.90625 40.484375 42.875 44.328125 
Q 39.84375 48.1875 33.796875 48.1875 
Q 26.515625 48.1875 22.3125 43.546875 
Q 18.109375 38.921875 18.109375 30.90625 
L 18.109375 0 
L 9.078125 0 
L 9.078125 75.984375 
L 18.109375 75.984375 
L 18.109375 46.1875 
Q 21.34375 51.125 25.703125 53.5625 
Q 30.078125 56 35.796875 56 
Q 45.21875 56 50.046875 50.171875 
Q 54.890625 44.34375 54.890625 33.015625 
z
" id="DejaVuSans-68"/>
      <path d="M 44.28125 53.078125 
L 44.28125 44.578125 
Q 40.484375 46.53125 36.375 47.5 
Q 32.28125 48.484375 27.875 48.484375 
Q 21.1875 48.484375 17.84375 46.4375 
Q 14.5 44.390625 14.5 40.28125 
Q 14.5 37.15625 16.890625 35.375 
Q 19.28125 33.59375 26.515625 31.984375 
L 29.59375 31.296875 
Q 39.15625 29.25 43.1875 25.515625 
Q 47.21875 21.78125 47.21875 15.09375 
Q 47.21875 7.46875 41.1875 3.015625 
Q 35.15625 -1.421875 24.609375 -1.421875 
Q 20.21875 -1.421875 15.453125 -0.5625 
Q 10.6875 0.296875 5.421875 2 
L 5.421875 11.28125 
Q 10.40625 8.6875 15.234375 7.390625 
Q 20.0625 6.109375 24.8125 6.109375 
Q 31.15625 6.109375 34.5625 8.28125 
Q 37.984375 10.453125 37.984375 14.40625 
Q 37.984375 18.0625 35.515625 20.015625 
Q 33.0625 21.96875 24.703125 23.78125 
L 21.578125 24.515625 
Q 13.234375 26.265625 9.515625 29.90625 
Q 5.8125 33.546875 5.8125 39.890625 
Q 5.8125 47.609375 11.28125 51.796875 
Q 16.75 56 26.8125 56 
Q 31.78125 56 36.171875 55.265625 
Q 40.578125 54.546875 44.28125 53.078125 
z
" id="DejaVuSans-73"/>
     </defs>
     <g style="fill:#ffffff;" transform="translate(18.520312 151.275)rotate(-90)scale(0.1 -0.1)">
      <use xlink:href="#DejaVuSans-43"/>
      <use x="69.824219" xlink:href="#DejaVuSans-75"/>
      <use x="133.203125" xlink:href="#DejaVuSans-6d"/>
      <use x="230.615234" xlink:href="#DejaVuSans-75"/>
      <use x="293.994141" xlink:href="#DejaVuSans-6c"/>
      <use x="321.777344" xlink:href="#DejaVuSans-61"/>
      <use x="383.056641" xlink:href="#DejaVuSans-74"/>
      <use x="422.265625" xlink:href="#DejaVuSans-69"/>
      <use x="450.048828" xlink:href="#DejaVuSans-76"/>
      <use x="509.228516" xlink:href="#DejaVuSans-65"/>
      <use x="570.751953" xlink:href="#DejaVuSans-20"/>
      <use x="602.539062" xlink:href="#DejaVuSans-64"/>
      <use x="666.015625" xlink:href="#DejaVuSans-65"/>
      <use x="727.539062" xlink:href="#DejaVuSans-61"/>
      <use x="788.818359" xlink:href="#DejaVuSans-74"/>
      <use x="828.027344" xlink:href="#DejaVuSans-68"/>
      <use x="891.40625" xlink:href="#DejaVuSans-73"/>
     </g>
    </g>
   </g>
   <g id="line2d_10">
    <path clip-path="url(#pdfc2329c56)" d="M 74.814733 174.186795 
L 84.684029 173.841491 
L 94.553325 173.363379 
L 104.422621 172.858705 
L 114.291917 172.407154 
L 124.161213 171.849357 
L 134.030508 170.12284 
L 143.899804 169.644728 
L 153.7691 168.847874 
L 163.638396 167.626031 
L 173.507692 165.846391 
L 183.376988 164.332369 
L 193.246284 161.676189 
L 203.11558 158.355965 
L 212.984876 150.759291 
L 222.854172 147.412505 
L 232.723468 143.93291 
L 242.592764 139.683022 
L 252.46206 135.433135 
L 262.331356 130.997315 
L 272.200652 125.605271 
L 282.069948 120.691338 
L 291.939244 117.928912 
L 301.80854 108.207294 
L 311.677836 103.585542 
L 321.547132 99.893452 
L 331.416428 99.893452 
L 341.285724 99.893452 
L 351.15502 90.570262 
L 361.024316 87.940644 
L 370.893611 85.311027 
L 380.762907 82.707971 
" style="fill:none;stroke:#f77189;stroke-linecap:square;stroke-width:1.5;"/>
   </g>
   <g id="line2d_11">
    <path clip-path="url(#pdfc2329c56)" d="M 380.762907 82.707971 
L 390.632203 77.969211 
L 400.501499 73.033342 
L 410.370795 67.910164 
L 420.240091 62.176767 
L 430.109387 56.547284 
" style="fill:none;stroke:#f77189;stroke-dasharray:1.5,2.475;stroke-dashoffset:0;stroke-width:1.5;"/>
   </g>
   <g id="line2d_12">
    <path clip-path="url(#pdfc2329c56)" d="M 74.814733 174.000862 
L 84.684029 173.496188 
L 94.553325 172.964952 
L 104.422621 172.114975 
L 114.291917 171.264997 
L 124.161213 170.600952 
L 134.030508 168.821312 
L 143.899804 167.838526 
L 153.7691 166.457312 
L 163.638396 164.571425 
L 173.507692 162.685537 
L 183.376988 161.304324 
L 193.246284 158.8872 
L 203.11558 156.36383 
L 212.984876 152.96392 
L 222.854172 149.378078 
L 232.723468 144.570393 
L 242.592764 138.859607 
L 252.46206 137.372146 
L 262.331356 127.836461 
L 272.200652 125.472462 
L 282.069948 118.3539 
L 291.939244 118.3539 
L 301.80854 110.252553 
L 311.677836 105.391744 
L 321.547132 101.407475 
L 331.416428 101.407475 
L 341.285724 101.407475 
L 351.15502 91.845228 
L 361.024316 89.003116 
L 370.893611 86.134442 
L 380.762907 83.398577 
" style="fill:none;stroke:#ae9d31;stroke-linecap:square;stroke-width:1.5;"/>
   </g>
   <g id="line2d_13">
    <path clip-path="url(#pdfc2329c56)" d="M 380.762907 83.398577 
L 390.632203 78.306561 
L 400.501499 73.059577 
L 410.370795 67.688076 
L 420.240091 61.772023 
L 430.109387 56.072452 
" style="fill:none;stroke:#ae9d31;stroke-dasharray:1.5,2.475;stroke-dashoffset:0;stroke-width:1.5;"/>
   </g>
   <g id="line2d_14">
    <path clip-path="url(#pdfc2329c56)" d="M 74.814733 174.186795 
L 84.684029 173.81493 
L 94.553325 173.389941 
L 104.422621 172.964952 
L 114.291917 172.460278 
L 124.161213 171.875918 
L 134.030508 170.521267 
L 143.899804 169.565042 
L 153.7691 168.847874 
L 163.638396 167.599469 
L 173.507692 164.996413 
L 183.376988 163.376144 
L 193.246284 161.808998 
L 203.11558 159.259066 
L 212.984876 157.904414 
L 222.854172 155.726347 
L 232.723468 150.59992 
L 242.592764 147.970302 
L 252.46206 146.775022 
L 262.331356 141.595472 
L 272.200652 139.815831 
L 282.069948 137.372146 
L 291.939244 136.469045 
L 301.80854 130.572326 
L 311.677836 127.51772 
L 321.547132 125.552147 
L 331.416428 125.552147 
L 341.285724 125.552147 
L 351.15502 119.283563 
L 361.024316 117.716417 
L 370.893611 116.202395 
L 380.762907 114.582125 
" style="fill:none;stroke:#33b07a;stroke-linecap:square;stroke-width:1.5;"/>
   </g>
   <g id="line2d_15">
    <path clip-path="url(#pdfc2329c56)" d="M 380.762907 114.582125 
L 390.632203 111.416031 
L 400.501499 108.117854 
L 410.370795 104.745372 
L 420.240091 101.055765 
L 430.109387 97.546372 
" style="fill:none;stroke:#33b07a;stroke-dasharray:1.5,2.475;stroke-dashoffset:0;stroke-width:1.5;"/>
   </g>
   <g id="line2d_16">
    <path clip-path="url(#pdfc2329c56)" d="M 74.814733 174.372727 
L 84.684029 174.372727 
L 94.553325 174.372727 
L 104.422621 174.107109 
L 114.291917 174.053986 
L 124.161213 173.841491 
L 134.030508 173.628997 
L 143.899804 173.628997 
L 153.7691 173.283694 
L 163.638396 172.885267 
L 173.507692 172.539963 
L 183.376988 172.035289 
L 193.246284 170.760323 
L 203.11558 170.600952 
L 212.984876 164.438616 
L 222.854172 163.057402 
L 232.723468 161.277762 
L 242.592764 159.524684 
L 252.46206 153.627965 
L 262.331356 150.918662 
L 272.200652 148.926527 
L 282.069948 147.20001 
L 291.939244 146.482842 
L 301.80854 146.482842 
L 311.677836 146.482842 
L 321.547132 145.101629 
L 331.416428 145.101629 
L 341.285724 145.101629 
L 351.15502 140.533 
L 361.024316 139.258034 
L 370.893611 137.637764 
L 380.762907 136.54873 
" style="fill:none;stroke:#38a9c5;stroke-linecap:square;stroke-width:1.5;"/>
   </g>
   <g id="line2d_17">
    <path clip-path="url(#pdfc2329c56)" d="M 380.762907 136.54873 
L 390.632203 134.159949 
L 400.501499 131.811413 
L 410.370795 129.522357 
L 420.240091 127.184575 
L 430.109387 125.13543 
" style="fill:none;stroke:#38a9c5;stroke-dasharray:1.5,2.475;stroke-dashoffset:0;stroke-width:1.5;"/>
   </g>
   <g id="line2d_18">
    <path clip-path="url(#pdfc2329c56)" d="M 74.814733 174.293042 
L 84.684029 174.053986 
L 94.553325 173.628997 
L 104.422621 173.416503 
L 114.291917 173.097761 
L 124.161213 172.832143 
L 134.030508 172.088413 
L 143.899804 171.822795 
L 153.7691 171.397806 
L 163.638396 171.132188 
L 173.507692 170.175964 
L 183.376988 169.83066 
L 193.246284 168.847874 
L 203.11558 167.546346 
L 212.984876 164.19956 
L 222.854172 162.977717 
L 232.723468 160.932459 
L 242.592764 158.515335 
L 252.46206 156.65601 
L 262.331356 155.141987 
L 272.200652 153.335785 
L 282.069948 152.007695 
L 291.939244 152.007695 
L 301.80854 148.979651 
L 311.677836 147.49219 
L 321.547132 146.137539 
L 331.416428 146.137539 
L 341.285724 146.137539 
L 351.15502 142.498573 
L 361.024316 141.303292 
L 370.893611 140.320505 
L 380.762907 139.045539 
" style="fill:none;stroke:#cc7af4;stroke-linecap:square;stroke-width:1.5;"/>
   </g>
   <g id="line2d_19">
    <path clip-path="url(#pdfc2329c56)" d="M 380.762907 139.045539 
L 390.632203 137.524956 
L 400.501499 136.008962 
L 410.370795 134.555301 
L 420.240091 133.062474 
L 430.109387 131.799085 
" style="fill:none;stroke:#cc7af4;stroke-dasharray:1.5,2.475;stroke-dashoffset:0;stroke-width:1.5;"/>
   </g>
   <g id="patch_3">
    <path d="M 57.05 181.4 
L 57.05 26.8 
" style="fill:none;stroke:#ffffff;stroke-linecap:square;stroke-linejoin:miter;stroke-width:0.8;"/>
   </g>
   <g id="patch_4">
    <path d="M 561.7 181.4 
L 561.7 26.8 
" style="fill:none;stroke:#ffffff;stroke-linecap:square;stroke-linejoin:miter;stroke-width:0.8;"/>
   </g>
   <g id="patch_5">
    <path d="M 57.05 181.4 
L 561.7 181.4 
" style="fill:none;stroke:#ffffff;stroke-linecap:square;stroke-linejoin:miter;stroke-width:0.8;"/>
   </g>
   <g id="patch_6">
    <path d="M 57.05 26.8 
L 561.7 26.8 
" style="fill:none;stroke:#ffffff;stroke-linecap:square;stroke-linejoin:miter;stroke-width:0.8;"/>
   </g>
   <g id="text_11">
    <!-- Kings, NY -->
    <defs>
     <path d="M 9.8125 72.90625 
L 19.671875 72.90625 
L 19.671875 42.09375 
L 52.390625 72.90625 
L 65.09375 72.90625 
L 28.90625 38.921875 
L 67.671875 0 
L 54.6875 0 
L 19.671875 35.109375 
L 19.671875 0 
L 9.8125 0 
z
" id="DejaVuSans-4b"/>
     <path d="M 54.890625 33.015625 
L 54.890625 0 
L 45.90625 0 
L 45.90625 32.71875 
Q 45.90625 40.484375 42.875 44.328125 
Q 39.84375 48.1875 33.796875 48.1875 
Q 26.515625 48.1875 22.3125 43.546875 
Q 18.109375 38.921875 18.109375 30.90625 
L 18.109375 0 
L 9.078125 0 
L 9.078125 54.6875 
L 18.109375 54.6875 
L 18.109375 46.1875 
Q 21.34375 51.125 25.703125 53.5625 
Q 30.078125 56 35.796875 56 
Q 45.21875 56 50.046875 50.171875 
Q 54.890625 44.34375 54.890625 33.015625 
z
" id="DejaVuSans-6e"/>
     <path d="M 45.40625 27.984375 
Q 45.40625 37.75 41.375 43.109375 
Q 37.359375 48.484375 30.078125 48.484375 
Q 22.859375 48.484375 18.828125 43.109375 
Q 14.796875 37.75 14.796875 27.984375 
Q 14.796875 18.265625 18.828125 12.890625 
Q 22.859375 7.515625 30.078125 7.515625 
Q 37.359375 7.515625 41.375 12.890625 
Q 45.40625 18.265625 45.40625 27.984375 
z
M 54.390625 6.78125 
Q 54.390625 -7.171875 48.1875 -13.984375 
Q 42 -20.796875 29.203125 -20.796875 
Q 24.46875 -20.796875 20.265625 -20.09375 
Q 16.0625 -19.390625 12.109375 -17.921875 
L 12.109375 -9.1875 
Q 16.0625 -11.328125 19.921875 -12.34375 
Q 23.78125 -13.375 27.78125 -13.375 
Q 36.625 -13.375 41.015625 -8.765625 
Q 45.40625 -4.15625 45.40625 5.171875 
L 45.40625 9.625 
Q 42.625 4.78125 38.28125 2.390625 
Q 33.9375 0 27.875 0 
Q 17.828125 0 11.671875 7.65625 
Q 5.515625 15.328125 5.515625 27.984375 
Q 5.515625 40.671875 11.671875 48.328125 
Q 17.828125 56 27.875 56 
Q 33.9375 56 38.28125 53.609375 
Q 42.625 51.21875 45.40625 46.390625 
L 45.40625 54.6875 
L 54.390625 54.6875 
z
" id="DejaVuSans-67"/>
     <path d="M 11.71875 12.40625 
L 22.015625 12.40625 
L 22.015625 4 
L 14.015625 -11.625 
L 7.71875 -11.625 
L 11.71875 4 
z
" id="DejaVuSans-2c"/>
     <path d="M 9.8125 72.90625 
L 23.09375 72.90625 
L 55.421875 11.921875 
L 55.421875 72.90625 
L 64.984375 72.90625 
L 64.984375 0 
L 51.703125 0 
L 19.390625 60.984375 
L 19.390625 0 
L 9.8125 0 
z
" id="DejaVuSans-4e"/>
     <path d="M -0.203125 72.90625 
L 10.40625 72.90625 
L 30.609375 42.921875 
L 50.6875 72.90625 
L 61.28125 72.90625 
L 35.5 34.71875 
L 35.5 0 
L 25.59375 0 
L 25.59375 34.71875 
z
" id="DejaVuSans-59"/>
    </defs>
    <g style="fill:#f77189;" transform="translate(439.978683 63.720351)scale(0.08 -0.08)">
     <use xlink:href="#DejaVuSans-4b"/>
     <use x="65.576172" xlink:href="#DejaVuSans-69"/>
     <use x="93.359375" xlink:href="#DejaVuSans-6e"/>
     <use x="156.738281" xlink:href="#DejaVuSans-67"/>
     <use x="220.214844" xlink:href="#DejaVuSans-73"/>
     <use x="272.314453" xlink:href="#DejaVuSans-2c"/>
     <use x="304.101562" xlink:href="#DejaVuSans-20"/>
     <use x="335.888672" xlink:href="#DejaVuSans-4e"/>
     <use x="410.693359" xlink:href="#DejaVuSans-59"/>
    </g>
   </g>
   <g id="text_12">
    <!-- Queens, NY -->
    <defs>
     <path d="M 39.40625 66.21875 
Q 28.65625 66.21875 22.328125 58.203125 
Q 16.015625 50.203125 16.015625 36.375 
Q 16.015625 22.609375 22.328125 14.59375 
Q 28.65625 6.59375 39.40625 6.59375 
Q 50.140625 6.59375 56.421875 14.59375 
Q 62.703125 22.609375 62.703125 36.375 
Q 62.703125 50.203125 56.421875 58.203125 
Q 50.140625 66.21875 39.40625 66.21875 
z
M 53.21875 1.3125 
L 66.21875 -12.890625 
L 54.296875 -12.890625 
L 43.5 -1.21875 
Q 41.890625 -1.3125 41.03125 -1.359375 
Q 40.1875 -1.421875 39.40625 -1.421875 
Q 24.03125 -1.421875 14.8125 8.859375 
Q 5.609375 19.140625 5.609375 36.375 
Q 5.609375 53.65625 14.8125 63.9375 
Q 24.03125 74.21875 39.40625 74.21875 
Q 54.734375 74.21875 63.90625 63.9375 
Q 73.09375 53.65625 73.09375 36.375 
Q 73.09375 23.6875 67.984375 14.640625 
Q 62.890625 5.609375 53.21875 1.3125 
z
" id="DejaVuSans-51"/>
    </defs>
    <g style="fill:#ae9d31;" transform="translate(393.572433 53.314384)scale(0.08 -0.08)">
     <use xlink:href="#DejaVuSans-51"/>
     <use x="78.710938" xlink:href="#DejaVuSans-75"/>
     <use x="142.089844" xlink:href="#DejaVuSans-65"/>
     <use x="203.613281" xlink:href="#DejaVuSans-65"/>
     <use x="265.136719" xlink:href="#DejaVuSans-6e"/>
     <use x="328.515625" xlink:href="#DejaVuSans-73"/>
     <use x="380.615234" xlink:href="#DejaVuSans-2c"/>
     <use x="412.402344" xlink:href="#DejaVuSans-20"/>
     <use x="444.189453" xlink:href="#DejaVuSans-4e"/>
     <use x="518.994141" xlink:href="#DejaVuSans-59"/>
    </g>
   </g>
   <g id="text_13">
    <!-- Bronx, NY -->
    <defs>
     <path d="M 19.671875 34.8125 
L 19.671875 8.109375 
L 35.5 8.109375 
Q 43.453125 8.109375 47.28125 11.40625 
Q 51.125 14.703125 51.125 21.484375 
Q 51.125 28.328125 47.28125 31.5625 
Q 43.453125 34.8125 35.5 34.8125 
z
M 19.671875 64.796875 
L 19.671875 42.828125 
L 34.28125 42.828125 
Q 41.5 42.828125 45.03125 45.53125 
Q 48.578125 48.25 48.578125 53.8125 
Q 48.578125 59.328125 45.03125 62.0625 
Q 41.5 64.796875 34.28125 64.796875 
z
M 9.8125 72.90625 
L 35.015625 72.90625 
Q 46.296875 72.90625 52.390625 68.21875 
Q 58.5 63.53125 58.5 54.890625 
Q 58.5 48.1875 55.375 44.234375 
Q 52.25 40.28125 46.1875 39.3125 
Q 53.46875 37.75 57.5 32.78125 
Q 61.53125 27.828125 61.53125 20.40625 
Q 61.53125 10.640625 54.890625 5.3125 
Q 48.25 0 35.984375 0 
L 9.8125 0 
z
" id="DejaVuSans-42"/>
     <path d="M 41.109375 46.296875 
Q 39.59375 47.171875 37.8125 47.578125 
Q 36.03125 48 33.890625 48 
Q 26.265625 48 22.1875 43.046875 
Q 18.109375 38.09375 18.109375 28.8125 
L 18.109375 0 
L 9.078125 0 
L 9.078125 54.6875 
L 18.109375 54.6875 
L 18.109375 46.1875 
Q 20.953125 51.171875 25.484375 53.578125 
Q 30.03125 56 36.53125 56 
Q 37.453125 56 38.578125 55.875 
Q 39.703125 55.765625 41.0625 55.515625 
z
" id="DejaVuSans-72"/>
     <path d="M 30.609375 48.390625 
Q 23.390625 48.390625 19.1875 42.75 
Q 14.984375 37.109375 14.984375 27.296875 
Q 14.984375 17.484375 19.15625 11.84375 
Q 23.34375 6.203125 30.609375 6.203125 
Q 37.796875 6.203125 41.984375 11.859375 
Q 46.1875 17.53125 46.1875 27.296875 
Q 46.1875 37.015625 41.984375 42.703125 
Q 37.796875 48.390625 30.609375 48.390625 
z
M 30.609375 56 
Q 42.328125 56 49.015625 48.375 
Q 55.71875 40.765625 55.71875 27.296875 
Q 55.71875 13.875 49.015625 6.21875 
Q 42.328125 -1.421875 30.609375 -1.421875 
Q 18.84375 -1.421875 12.171875 6.21875 
Q 5.515625 13.875 5.515625 27.296875 
Q 5.515625 40.765625 12.171875 48.375 
Q 18.84375 56 30.609375 56 
z
" id="DejaVuSans-6f"/>
     <path d="M 54.890625 54.6875 
L 35.109375 28.078125 
L 55.90625 0 
L 45.3125 0 
L 29.390625 21.484375 
L 13.484375 0 
L 2.875 0 
L 24.125 28.609375 
L 4.6875 54.6875 
L 15.28125 54.6875 
L 29.78125 35.203125 
L 44.28125 54.6875 
z
" id="DejaVuSans-78"/>
    </defs>
    <g style="fill:#33b07a;" transform="translate(439.978683 94.976096)scale(0.08 -0.08)">
     <use xlink:href="#DejaVuSans-42"/>
     <use x="68.603516" xlink:href="#DejaVuSans-72"/>
     <use x="109.685547" xlink:href="#DejaVuSans-6f"/>
     <use x="170.867188" xlink:href="#DejaVuSans-6e"/>
     <use x="234.246094" xlink:href="#DejaVuSans-78"/>
     <use x="293.425781" xlink:href="#DejaVuSans-2c"/>
     <use x="325.212891" xlink:href="#DejaVuSans-20"/>
     <use x="357" xlink:href="#DejaVuSans-4e"/>
     <use x="431.804688" xlink:href="#DejaVuSans-59"/>
    </g>
   </g>
   <g id="text_14">
    <!-- Nassau, NY -->
    <g style="fill:#38a9c5;" transform="translate(439.978683 122.565154)scale(0.08 -0.08)">
     <use xlink:href="#DejaVuSans-4e"/>
     <use x="74.804688" xlink:href="#DejaVuSans-61"/>
     <use x="136.083984" xlink:href="#DejaVuSans-73"/>
     <use x="188.183594" xlink:href="#DejaVuSans-73"/>
     <use x="240.283203" xlink:href="#DejaVuSans-61"/>
     <use x="301.5625" xlink:href="#DejaVuSans-75"/>
     <use x="364.941406" xlink:href="#DejaVuSans-2c"/>
     <use x="396.728516" xlink:href="#DejaVuSans-20"/>
     <use x="428.515625" xlink:href="#DejaVuSans-4e"/>
     <use x="503.320312" xlink:href="#DejaVuSans-59"/>
    </g>
   </g>
   <g id="text_15">
    <!-- New York, NY -->
    <defs>
     <path d="M 4.203125 54.6875 
L 13.1875 54.6875 
L 24.421875 12.015625 
L 35.59375 54.6875 
L 46.1875 54.6875 
L 57.421875 12.015625 
L 68.609375 54.6875 
L 77.59375 54.6875 
L 63.28125 0 
L 52.6875 0 
L 40.921875 44.828125 
L 29.109375 0 
L 18.5 0 
z
" id="DejaVuSans-77"/>
     <path d="M 9.078125 75.984375 
L 18.109375 75.984375 
L 18.109375 31.109375 
L 44.921875 54.6875 
L 56.390625 54.6875 
L 27.390625 29.109375 
L 57.625 0 
L 45.90625 0 
L 18.109375 26.703125 
L 18.109375 0 
L 9.078125 0 
z
" id="DejaVuSans-6b"/>
    </defs>
    <g style="fill:#cc7af4;" transform="translate(439.978683 138.784361)scale(0.08 -0.08)">
     <use xlink:href="#DejaVuSans-4e"/>
     <use x="74.804688" xlink:href="#DejaVuSans-65"/>
     <use x="136.328125" xlink:href="#DejaVuSans-77"/>
     <use x="218.115234" xlink:href="#DejaVuSans-20"/>
     <use x="249.902344" xlink:href="#DejaVuSans-59"/>
     <use x="310.783203" xlink:href="#DejaVuSans-6f"/>
     <use x="371.964844" xlink:href="#DejaVuSans-72"/>
     <use x="413.078125" xlink:href="#DejaVuSans-6b"/>
     <use x="470.988281" xlink:href="#DejaVuSans-2c"/>
     <use x="502.775391" xlink:href="#DejaVuSans-20"/>
     <use x="534.5625" xlink:href="#DejaVuSans-4e"/>
     <use x="609.367188" xlink:href="#DejaVuSans-59"/>
    </g>
   </g>
   <g id="text_16">
    <!-- Most-affected counties -->
    <defs>
     <path d="M 9.8125 72.90625 
L 24.515625 72.90625 
L 43.109375 23.296875 
L 61.8125 72.90625 
L 76.515625 72.90625 
L 76.515625 0 
L 66.890625 0 
L 66.890625 64.015625 
L 48.09375 14.015625 
L 38.1875 14.015625 
L 19.390625 64.015625 
L 19.390625 0 
L 9.8125 0 
z
" id="DejaVuSans-4d"/>
     <path d="M 4.890625 31.390625 
L 31.203125 31.390625 
L 31.203125 23.390625 
L 4.890625 23.390625 
z
" id="DejaVuSans-2d"/>
     <path d="M 37.109375 75.984375 
L 37.109375 68.5 
L 28.515625 68.5 
Q 23.6875 68.5 21.796875 66.546875 
Q 19.921875 64.59375 19.921875 59.515625 
L 19.921875 54.6875 
L 34.71875 54.6875 
L 34.71875 47.703125 
L 19.921875 47.703125 
L 19.921875 0 
L 10.890625 0 
L 10.890625 47.703125 
L 2.296875 47.703125 
L 2.296875 54.6875 
L 10.890625 54.6875 
L 10.890625 58.5 
Q 10.890625 67.625 15.140625 71.796875 
Q 19.390625 75.984375 28.609375 75.984375 
z
" id="DejaVuSans-66"/>
     <path d="M 48.78125 52.59375 
L 48.78125 44.1875 
Q 44.96875 46.296875 41.140625 47.34375 
Q 37.3125 48.390625 33.40625 48.390625 
Q 24.65625 48.390625 19.8125 42.84375 
Q 14.984375 37.3125 14.984375 27.296875 
Q 14.984375 17.28125 19.8125 11.734375 
Q 24.65625 6.203125 33.40625 6.203125 
Q 37.3125 6.203125 41.140625 7.25 
Q 44.96875 8.296875 48.78125 10.40625 
L 48.78125 2.09375 
Q 45.015625 0.34375 40.984375 -0.53125 
Q 36.96875 -1.421875 32.421875 -1.421875 
Q 20.0625 -1.421875 12.78125 6.34375 
Q 5.515625 14.109375 5.515625 27.296875 
Q 5.515625 40.671875 12.859375 48.328125 
Q 20.21875 56 33.015625 56 
Q 37.15625 56 41.109375 55.140625 
Q 45.0625 54.296875 48.78125 52.59375 
z
" id="DejaVuSans-63"/>
    </defs>
    <g style="fill:#ffffff;" transform="translate(240.820312 20.8)scale(0.12 -0.12)">
     <use xlink:href="#DejaVuSans-4d"/>
     <use x="86.279297" xlink:href="#DejaVuSans-6f"/>
     <use x="147.460938" xlink:href="#DejaVuSans-73"/>
     <use x="199.560547" xlink:href="#DejaVuSans-74"/>
     <use x="238.769531" xlink:href="#DejaVuSans-2d"/>
     <use x="274.853516" xlink:href="#DejaVuSans-61"/>
     <use x="336.132812" xlink:href="#DejaVuSans-66"/>
     <use x="371.337891" xlink:href="#DejaVuSans-66"/>
     <use x="406.542969" xlink:href="#DejaVuSans-65"/>
     <use x="468.066406" xlink:href="#DejaVuSans-63"/>
     <use x="523.046875" xlink:href="#DejaVuSans-74"/>
     <use x="562.255859" xlink:href="#DejaVuSans-65"/>
     <use x="623.779297" xlink:href="#DejaVuSans-64"/>
     <use x="687.255859" xlink:href="#DejaVuSans-20"/>
     <use x="719.042969" xlink:href="#DejaVuSans-63"/>
     <use x="774.023438" xlink:href="#DejaVuSans-6f"/>
     <use x="835.205078" xlink:href="#DejaVuSans-75"/>
     <use x="898.583984" xlink:href="#DejaVuSans-6e"/>
     <use x="961.962891" xlink:href="#DejaVuSans-74"/>
     <use x="1001.171875" xlink:href="#DejaVuSans-69"/>
     <use x="1028.955078" xlink:href="#DejaVuSans-65"/>
     <use x="1090.478516" xlink:href="#DejaVuSans-73"/>
    </g>
   </g>
  </g>
  <g id="axes_2">
   <g id="patch_7">
    <path d="M 57.05 393.8 
L 561.7 393.8 
L 561.7 239.2 
L 57.05 239.2 
z
"/>
   </g>
   <g id="PolyCollection_6">
    <defs>
     <path d="M 375.521923 -363.036696 
L 375.521923 -363.036696 
L 386.262966 -363.036696 
L 397.004009 -365.365192 
L 407.745051 -366.219817 
L 418.486094 -365.748571 
L 429.227137 -373.896876 
L 429.227137 -401.772727 
L 429.227137 -401.772727 
L 418.486094 -400.025708 
L 407.745051 -389.836794 
L 397.004009 -381.208074 
L 386.262966 -375.898581 
L 375.521923 -363.036696 
z
" id="m7ba1f66d73" style="stroke:#f77189;stroke-opacity:0.1;"/>
    </defs>
    <g clip-path="url(#paa99cb1e31)">
     <use style="fill:#f77189;fill-opacity:0.1;stroke:#f77189;stroke-opacity:0.1;" x="0" xlink:href="#m7ba1f66d73" y="648"/>
    </g>
   </g>
   <g id="PolyCollection_7">
    <defs>
     <path d="M 375.521923 -340.928591 
L 375.521923 -340.928591 
L 386.262966 -341.007964 
L 397.004009 -341.920573 
L 407.745051 -346.667772 
L 418.486094 -345.086403 
L 429.227137 -351.489304 
L 429.227137 -387.37268 
L 429.227137 -387.37268 
L 418.486094 -381.306267 
L 407.745051 -368.205012 
L 397.004009 -361.822408 
L 386.262966 -352.385383 
L 375.521923 -340.928591 
z
" id="m2d440c1b9d" style="stroke:#bb9832;stroke-opacity:0.1;"/>
    </defs>
    <g clip-path="url(#paa99cb1e31)">
     <use style="fill:#bb9832;fill-opacity:0.1;stroke:#bb9832;stroke-opacity:0.1;" x="0" xlink:href="#m2d440c1b9d" y="648"/>
    </g>
   </g>
   <g id="PolyCollection_8">
    <defs>
     <path d="M 375.521923 -328.673012 
L 375.521923 -328.673012 
L 386.262966 -328.673012 
L 397.004009 -328.906076 
L 407.745051 -330.101015 
L 418.486094 -328.673012 
L 429.227137 -332.276892 
L 429.227137 -365.479416 
L 429.227137 -365.479416 
L 418.486094 -360.730344 
L 407.745051 -351.154655 
L 397.004009 -344.57012 
L 386.262966 -338.099112 
L 375.521923 -328.673012 
z
" id="mce9afb8c79" style="stroke:#50b131;stroke-opacity:0.1;"/>
    </defs>
    <g clip-path="url(#paa99cb1e31)">
     <use style="fill:#50b131;fill-opacity:0.1;stroke:#50b131;stroke-opacity:0.1;" x="0" xlink:href="#mce9afb8c79" y="648"/>
    </g>
   </g>
   <g id="PolyCollection_9">
    <defs>
     <path d="M 375.521923 -327.551586 
L 375.521923 -327.551586 
L 386.262966 -327.551586 
L 397.004009 -327.571963 
L 407.745051 -327.551586 
L 418.486094 -327.551586 
L 429.227137 -327.551586 
L 429.227137 -360.011467 
L 429.227137 -360.011467 
L 418.486094 -351.182567 
L 407.745051 -344.397826 
L 397.004009 -338.539607 
L 386.262966 -333.833134 
L 375.521923 -327.551586 
z
" id="m8e9ec1d595" style="stroke:#36ada4;stroke-opacity:0.1;"/>
    </defs>
    <g clip-path="url(#paa99cb1e31)">
     <use style="fill:#36ada4;fill-opacity:0.1;stroke:#36ada4;stroke-opacity:0.1;" x="0" xlink:href="#m8e9ec1d595" y="648"/>
    </g>
   </g>
   <g id="PolyCollection_10">
    <defs>
     <path d="M 375.521923 -319.060792 
L 375.521923 -319.060792 
L 386.262966 -319.060792 
L 397.004009 -319.789623 
L 407.745051 -322.812847 
L 418.486094 -327.429259 
L 429.227137 -330.209698 
L 429.227137 -352.353013 
L 429.227137 -352.353013 
L 418.486094 -345.351908 
L 407.745051 -340.776155 
L 397.004009 -334.641622 
L 386.262966 -327.049249 
L 375.521923 -319.060792 
z
" id="m17b3584020" style="stroke:#3ba3ec;stroke-opacity:0.1;"/>
    </defs>
    <g clip-path="url(#paa99cb1e31)">
     <use style="fill:#3ba3ec;fill-opacity:0.1;stroke:#3ba3ec;stroke-opacity:0.1;" x="0" xlink:href="#m17b3584020" y="648"/>
    </g>
   </g>
   <g id="PolyCollection_11">
    <defs>
     <path d="M 375.521923 -304.241954 
L 375.521923 -304.241954 
L 386.262966 -304.241954 
L 397.004009 -304.241954 
L 407.745051 -304.241954 
L 418.486094 -308.791963 
L 429.227137 -309.58436 
L 429.227137 -330.000592 
L 429.227137 -330.000592 
L 418.486094 -324.399729 
L 407.745051 -322.867808 
L 397.004009 -317.063025 
L 386.262966 -311.665177 
L 375.521923 -304.241954 
z
" id="m87bb4c9371" style="stroke:#e866f4;stroke-opacity:0.1;"/>
    </defs>
    <g clip-path="url(#paa99cb1e31)">
     <use style="fill:#e866f4;fill-opacity:0.1;stroke:#e866f4;stroke-opacity:0.1;" x="0" xlink:href="#m87bb4c9371" y="648"/>
    </g>
   </g>
   <g id="matplotlib.axis_3">
    <g id="xtick_4">
     <g id="line2d_20">
      <g>
       <use style="fill:#ffffff;stroke:#ffffff;stroke-width:0.8;" x="74.772721" xlink:href="#m6363fc9add" y="393.8"/>
      </g>
     </g>
     <g id="text_17">
      <!-- 3/25 -->
      <g style="fill:#ffffff;" transform="translate(63.544596 408.398438)scale(0.1 -0.1)">
       <use xlink:href="#DejaVuSans-33"/>
       <use x="63.623047" xlink:href="#DejaVuSans-2f"/>
       <use x="97.314453" xlink:href="#DejaVuSans-32"/>
       <use x="160.9375" xlink:href="#DejaVuSans-35"/>
      </g>
     </g>
    </g>
    <g id="xtick_5">
     <g id="line2d_21">
      <g>
       <use style="fill:#ffffff;stroke:#ffffff;stroke-width:0.8;" x="375.521923" xlink:href="#m6363fc9add" y="393.8"/>
      </g>
     </g>
     <g id="text_18">
      <!-- 4/23 -->
      <g style="fill:#ffffff;" transform="translate(364.293798 408.398438)scale(0.1 -0.1)">
       <use xlink:href="#DejaVuSans-34"/>
       <use x="63.623047" xlink:href="#DejaVuSans-2f"/>
       <use x="97.314453" xlink:href="#DejaVuSans-32"/>
       <use x="160.9375" xlink:href="#DejaVuSans-33"/>
      </g>
     </g>
    </g>
    <g id="xtick_6">
     <g id="line2d_22">
      <g>
       <use style="fill:#ffffff;stroke:#ffffff;stroke-width:0.8;" x="429.227137" xlink:href="#m6363fc9add" y="393.8"/>
      </g>
     </g>
     <g id="text_19">
      <!-- 4/28 -->
      <g style="fill:#ffffff;" transform="translate(417.999012 408.398438)scale(0.1 -0.1)">
       <use xlink:href="#DejaVuSans-34"/>
       <use x="63.623047" xlink:href="#DejaVuSans-2f"/>
       <use x="97.314453" xlink:href="#DejaVuSans-32"/>
       <use x="160.9375" xlink:href="#DejaVuSans-38"/>
      </g>
     </g>
    </g>
    <g id="text_20">
     <!-- Days -->
     <defs>
      <path d="M 19.671875 64.796875 
L 19.671875 8.109375 
L 31.59375 8.109375 
Q 46.6875 8.109375 53.6875 14.9375 
Q 60.6875 21.78125 60.6875 36.53125 
Q 60.6875 51.171875 53.6875 57.984375 
Q 46.6875 64.796875 31.59375 64.796875 
z
M 9.8125 72.90625 
L 30.078125 72.90625 
Q 51.265625 72.90625 61.171875 64.09375 
Q 71.09375 55.28125 71.09375 36.53125 
Q 71.09375 17.671875 61.125 8.828125 
Q 51.171875 0 30.078125 0 
L 9.8125 0 
z
" id="DejaVuSans-44"/>
      <path d="M 32.171875 -5.078125 
Q 28.375 -14.84375 24.75 -17.8125 
Q 21.140625 -20.796875 15.09375 -20.796875 
L 7.90625 -20.796875 
L 7.90625 -13.28125 
L 13.1875 -13.28125 
Q 16.890625 -13.28125 18.9375 -11.515625 
Q 21 -9.765625 23.484375 -3.21875 
L 25.09375 0.875 
L 2.984375 54.6875 
L 12.5 54.6875 
L 29.59375 11.921875 
L 46.6875 54.6875 
L 56.203125 54.6875 
z
" id="DejaVuSans-79"/>
     </defs>
     <g style="fill:#ffffff;" transform="translate(296.896875 422.076563)scale(0.1 -0.1)">
      <use xlink:href="#DejaVuSans-44"/>
      <use x="77.001953" xlink:href="#DejaVuSans-61"/>
      <use x="138.28125" xlink:href="#DejaVuSans-79"/>
      <use x="197.460938" xlink:href="#DejaVuSans-73"/>
     </g>
    </g>
   </g>
   <g id="matplotlib.axis_4">
    <g id="ytick_7">
     <g id="line2d_23">
      <g>
       <use style="fill:#ffffff;stroke:#ffffff;stroke-width:0.8;" x="57.05" xlink:href="#ma428c00095" y="387.33344"/>
      </g>
     </g>
     <g id="text_21">
      <!-- 0 -->
      <g style="fill:#ffffff;" transform="translate(43.6875 391.132659)scale(0.1 -0.1)">
       <use xlink:href="#DejaVuSans-30"/>
      </g>
     </g>
    </g>
    <g id="ytick_8">
     <g id="line2d_24">
      <g>
       <use style="fill:#ffffff;stroke:#ffffff;stroke-width:0.8;" x="57.05" xlink:href="#ma428c00095" y="347.282526"/>
      </g>
     </g>
     <g id="text_22">
      <!-- 500 -->
      <g style="fill:#ffffff;" transform="translate(30.9625 351.081745)scale(0.1 -0.1)">
       <use xlink:href="#DejaVuSans-35"/>
       <use x="63.623047" xlink:href="#DejaVuSans-30"/>
       <use x="127.246094" xlink:href="#DejaVuSans-30"/>
      </g>
     </g>
    </g>
    <g id="ytick_9">
     <g id="line2d_25">
      <g>
       <use style="fill:#ffffff;stroke:#ffffff;stroke-width:0.8;" x="57.05" xlink:href="#ma428c00095" y="307.231612"/>
      </g>
     </g>
     <g id="text_23">
      <!-- 1000 -->
      <g style="fill:#ffffff;" transform="translate(24.6 311.030831)scale(0.1 -0.1)">
       <use xlink:href="#DejaVuSans-31"/>
       <use x="63.623047" xlink:href="#DejaVuSans-30"/>
       <use x="127.246094" xlink:href="#DejaVuSans-30"/>
       <use x="190.869141" xlink:href="#DejaVuSans-30"/>
      </g>
     </g>
    </g>
    <g id="ytick_10">
     <g id="line2d_26">
      <g>
       <use style="fill:#ffffff;stroke:#ffffff;stroke-width:0.8;" x="57.05" xlink:href="#ma428c00095" y="267.180698"/>
      </g>
     </g>
     <g id="text_24">
      <!-- 1500 -->
      <g style="fill:#ffffff;" transform="translate(24.6 270.979917)scale(0.1 -0.1)">
       <use xlink:href="#DejaVuSans-31"/>
       <use x="63.623047" xlink:href="#DejaVuSans-35"/>
       <use x="127.246094" xlink:href="#DejaVuSans-30"/>
       <use x="190.869141" xlink:href="#DejaVuSans-30"/>
      </g>
     </g>
    </g>
    <g id="text_25">
     <!-- Cumulative deaths -->
     <g style="fill:#ffffff;" transform="translate(18.520312 363.675)rotate(-90)scale(0.1 -0.1)">
      <use xlink:href="#DejaVuSans-43"/>
      <use x="69.824219" xlink:href="#DejaVuSans-75"/>
      <use x="133.203125" xlink:href="#DejaVuSans-6d"/>
      <use x="230.615234" xlink:href="#DejaVuSans-75"/>
      <use x="293.994141" xlink:href="#DejaVuSans-6c"/>
      <use x="321.777344" xlink:href="#DejaVuSans-61"/>
      <use x="383.056641" xlink:href="#DejaVuSans-74"/>
      <use x="422.265625" xlink:href="#DejaVuSans-69"/>
      <use x="450.048828" xlink:href="#DejaVuSans-76"/>
      <use x="509.228516" xlink:href="#DejaVuSans-65"/>
      <use x="570.751953" xlink:href="#DejaVuSans-20"/>
      <use x="602.539062" xlink:href="#DejaVuSans-64"/>
      <use x="666.015625" xlink:href="#DejaVuSans-65"/>
      <use x="727.539062" xlink:href="#DejaVuSans-61"/>
      <use x="788.818359" xlink:href="#DejaVuSans-74"/>
      <use x="828.027344" xlink:href="#DejaVuSans-68"/>
      <use x="891.40625" xlink:href="#DejaVuSans-73"/>
     </g>
    </g>
   </g>
   <g id="line2d_27">
    <path clip-path="url(#paa99cb1e31)" d="M 74.772721 385.651302 
L 85.513764 385.250793 
L 96.254807 384.369672 
L 106.99585 383.648756 
L 117.736893 382.847738 
L 128.477935 380.684988 
L 139.218978 377.721221 
L 149.960021 375.638573 
L 160.701064 371.793685 
L 171.442107 369.470732 
L 182.18315 367.147779 
L 192.924193 363.863604 
L 203.665236 359.618208 
L 214.406279 355.132505 
L 225.147322 351.608025 
L 235.888365 346.962119 
L 246.629408 338.551427 
L 257.370451 335.107048 
L 268.111493 330.941753 
L 278.852536 330.941753 
L 289.593579 321.649941 
L 300.334622 316.523424 
L 311.075665 308.753547 
L 321.816708 303.707132 
L 332.557751 301.624484 
L 343.298794 297.699495 
L 354.039837 295.376542 
L 364.78088 284.963304 
L 375.521923 284.963304 
" style="fill:none;stroke:#f77189;stroke-linecap:square;stroke-width:1.5;"/>
   </g>
   <g id="line2d_28">
    <path clip-path="url(#paa99cb1e31)" d="M 375.521923 284.963304 
L 386.262966 279.56456 
L 397.004009 274.653107 
L 407.745051 269.683345 
L 418.486094 264.60669 
L 429.227137 259.595156 
" style="fill:none;stroke:#f77189;stroke-dasharray:1.5,2.475;stroke-dashoffset:0;stroke-width:1.5;"/>
   </g>
   <g id="line2d_29">
    <path clip-path="url(#paa99cb1e31)" d="M 74.772721 386.292116 
L 85.513764 385.891607 
L 96.254807 385.731404 
L 106.99585 385.090589 
L 117.736893 384.129367 
L 128.477935 383.80896 
L 139.218978 382.447229 
L 149.960021 379.723766 
L 160.701064 378.762544 
L 171.442107 376.039082 
L 182.18315 373.956435 
L 192.924193 372.4345 
L 203.665236 370.592158 
L 214.406279 367.388085 
L 225.147322 362.34167 
L 235.888365 359.217698 
L 246.629408 355.452913 
L 257.370451 351.047312 
L 268.111493 348.484054 
L 278.852536 348.484054 
L 289.593579 341.114685 
L 300.334622 336.869288 
L 311.075665 329.49992 
L 321.816708 326.456051 
L 332.557751 318.445868 
L 343.298794 317.084137 
L 354.039837 314.040268 
L 364.78088 307.071409 
L 375.521923 307.071409 
" style="fill:none;stroke:#bb9832;stroke-linecap:square;stroke-width:1.5;"/>
   </g>
   <g id="line2d_30">
    <path clip-path="url(#paa99cb1e31)" d="M 375.521923 307.071409 
L 386.262966 300.545912 
L 397.004009 294.447219 
L 407.745051 288.249059 
L 418.486094 282.117935 
L 429.227137 275.901297 
" style="fill:none;stroke:#bb9832;stroke-dasharray:1.5,2.475;stroke-dashoffset:0;stroke-width:1.5;"/>
   </g>
   <g id="line2d_31">
    <path clip-path="url(#paa99cb1e31)" d="M 74.772721 386.772727 
L 85.513764 386.45232 
L 96.254807 386.212014 
L 106.99585 385.731404 
L 117.736893 385.731404 
L 128.477935 385.731404 
L 139.218978 384.850283 
L 149.960021 381.806414 
L 160.701064 379.403359 
L 171.442107 377.881424 
L 182.18315 374.917657 
L 192.924193 373.555926 
L 203.665236 372.4345 
L 214.406279 368.749816 
L 225.147322 365.225336 
L 235.888365 362.34167 
L 246.629408 359.137597 
L 257.370451 354.331487 
L 268.111493 353.049858 
L 278.852536 353.049858 
L 289.593579 344.478962 
L 300.334622 340.073362 
L 311.075665 335.908067 
L 321.816708 332.54379 
L 332.557751 328.698902 
L 343.298794 328.058087 
L 354.039837 327.176967 
L 364.78088 319.326988 
L 375.521923 319.326988 
" style="fill:none;stroke:#50b131;stroke-linecap:square;stroke-width:1.5;"/>
   </g>
   <g id="line2d_32">
    <path clip-path="url(#paa99cb1e31)" d="M 375.521923 319.326988 
L 386.262966 314.823464 
L 397.004009 310.597528 
L 407.745051 306.318946 
L 418.486094 302.044492 
L 429.227137 297.838464 
" style="fill:none;stroke:#50b131;stroke-dasharray:1.5,2.475;stroke-dashoffset:0;stroke-width:1.5;"/>
   </g>
   <g id="line2d_33">
    <path clip-path="url(#paa99cb1e31)" d="M 74.772721 386.212014 
L 85.513764 385.971709 
L 96.254807 385.410996 
L 106.99585 384.770182 
L 117.736893 384.770182 
L 128.477935 384.770182 
L 139.218978 383.728858 
L 149.960021 381.325803 
L 160.701064 377.721221 
L 171.442107 376.759999 
L 182.18315 372.995213 
L 192.924193 372.194195 
L 203.665236 371.313074 
L 214.406279 366.266659 
L 225.147322 362.181466 
L 235.888365 359.698309 
L 246.629408 356.093727 
L 257.370451 352.489145 
L 268.111493 351.047312 
L 278.852536 351.047312 
L 289.593579 343.277435 
L 300.334622 338.631529 
L 311.075665 333.825419 
L 321.816708 330.140735 
L 332.557751 327.977986 
L 343.298794 325.895338 
L 354.039837 324.293302 
L 364.78088 320.448414 
L 375.521923 320.448414 
" style="fill:none;stroke:#36ada4;stroke-linecap:square;stroke-width:1.5;"/>
   </g>
   <g id="line2d_34">
    <path clip-path="url(#paa99cb1e31)" d="M 375.521923 320.448414 
L 386.262966 316.843103 
L 397.004009 313.560453 
L 407.745051 310.355895 
L 418.486094 307.117492 
L 429.227137 304.26211 
" style="fill:none;stroke:#36ada4;stroke-dasharray:1.5,2.475;stroke-dashoffset:0;stroke-width:1.5;"/>
   </g>
   <g id="line2d_35">
    <path clip-path="url(#paa99cb1e31)" d="M 74.772721 386.292116 
L 85.513764 385.651302 
L 96.254807 385.250793 
L 106.99585 384.770182 
L 117.736893 384.369672 
L 128.477935 383.80896 
L 139.218978 383.007941 
L 149.960021 382.126821 
L 160.701064 381.085497 
L 171.442107 380.204377 
L 182.18315 377.961526 
L 192.924193 376.759999 
L 203.665236 375.558471 
L 214.406279 373.796231 
L 225.147322 371.473278 
L 235.888365 369.470732 
L 246.629408 368.0289 
L 257.370451 366.106456 
L 268.111493 363.623299 
L 278.852536 361.700855 
L 289.593579 358.496782 
L 300.334622 355.132505 
L 311.075665 350.887108 
L 321.816708 347.683035 
L 332.557751 341.194787 
L 343.298794 339.272343 
L 354.039837 337.910612 
L 364.78088 334.225928 
L 375.521923 328.939208 
" style="fill:none;stroke:#3ba3ec;stroke-linecap:square;stroke-width:1.5;"/>
   </g>
   <g id="line2d_36">
    <path clip-path="url(#paa99cb1e31)" d="M 375.521923 328.939208 
L 386.262966 324.778975 
L 397.004009 320.026017 
L 407.745051 315.368477 
L 418.486094 310.625201 
L 429.227137 305.559548 
" style="fill:none;stroke:#3ba3ec;stroke-dasharray:1.5,2.475;stroke-dashoffset:0;stroke-width:1.5;"/>
   </g>
   <g id="line2d_37">
    <path clip-path="url(#paa99cb1e31)" d="M 74.772721 386.372218 
L 85.513764 386.292116 
L 96.254807 386.131913 
L 106.99585 385.731404 
L 117.736893 385.651302 
L 128.477935 385.651302 
L 139.218978 384.289571 
L 149.960021 383.648756 
L 160.701064 382.126821 
L 171.442107 381.245701 
L 182.18315 380.444683 
L 192.924193 379.643665 
L 203.665236 379.243155 
L 214.406279 376.759999 
L 225.147322 374.917657 
L 235.888365 373.075315 
L 246.629408 371.072769 
L 257.370451 369.711038 
L 268.111493 367.468187 
L 278.852536 366.346761 
L 289.593579 364.344215 
L 300.334622 358.096273 
L 311.075665 354.812098 
L 321.816708 353.290163 
L 332.557751 352.72945 
L 343.298794 351.527923 
L 354.039837 346.321304 
L 364.78088 343.758046 
L 375.521923 343.758046 
" style="fill:none;stroke:#e866f4;stroke-linecap:square;stroke-width:1.5;"/>
   </g>
   <g id="line2d_38">
    <path clip-path="url(#paa99cb1e31)" d="M 375.521923 343.758046 
L 386.262966 340.068717 
L 397.004009 336.88751 
L 407.745051 333.660427 
L 418.486094 330.172674 
L 429.227137 326.888215 
" style="fill:none;stroke:#e866f4;stroke-dasharray:1.5,2.475;stroke-dashoffset:0;stroke-width:1.5;"/>
   </g>
   <g id="patch_8">
    <path d="M 57.05 393.8 
L 57.05 239.2 
" style="fill:none;stroke:#ffffff;stroke-linecap:square;stroke-linejoin:miter;stroke-width:0.8;"/>
   </g>
   <g id="patch_9">
    <path d="M 561.7 393.8 
L 561.7 239.2 
" style="fill:none;stroke:#ffffff;stroke-linecap:square;stroke-linejoin:miter;stroke-width:0.8;"/>
   </g>
   <g id="patch_10">
    <path d="M 57.05 393.8 
L 561.7 393.8 
" style="fill:none;stroke:#ffffff;stroke-linecap:square;stroke-linejoin:miter;stroke-width:0.8;"/>
   </g>
   <g id="patch_11">
    <path d="M 57.05 239.2 
L 561.7 239.2 
" style="fill:none;stroke:#ffffff;stroke-linecap:square;stroke-linejoin:miter;stroke-width:0.8;"/>
   </g>
   <g id="text_26">
    <!-- Wayne, MI -->
    <defs>
     <path d="M 3.328125 72.90625 
L 13.28125 72.90625 
L 28.609375 11.28125 
L 43.890625 72.90625 
L 54.984375 72.90625 
L 70.3125 11.28125 
L 85.59375 72.90625 
L 95.609375 72.90625 
L 77.296875 0 
L 64.890625 0 
L 49.515625 63.28125 
L 33.984375 0 
L 21.578125 0 
z
" id="DejaVuSans-57"/>
     <path d="M 9.8125 72.90625 
L 19.671875 72.90625 
L 19.671875 0 
L 9.8125 0 
z
" id="DejaVuSans-49"/>
    </defs>
    <g style="fill:#f77189;" transform="translate(439.96818 256.964445)scale(0.08 -0.08)">
     <use xlink:href="#DejaVuSans-57"/>
     <use x="98.783203" xlink:href="#DejaVuSans-61"/>
     <use x="160.0625" xlink:href="#DejaVuSans-79"/>
     <use x="219.242188" xlink:href="#DejaVuSans-6e"/>
     <use x="282.621094" xlink:href="#DejaVuSans-65"/>
     <use x="344.144531" xlink:href="#DejaVuSans-2c"/>
     <use x="375.931641" xlink:href="#DejaVuSans-20"/>
     <use x="407.71875" xlink:href="#DejaVuSans-4d"/>
     <use x="493.998047" xlink:href="#DejaVuSans-49"/>
    </g>
   </g>
   <g id="text_27">
    <!-- Cook, IL -->
    <defs>
     <path d="M 9.8125 72.90625 
L 19.671875 72.90625 
L 19.671875 8.296875 
L 55.171875 8.296875 
L 55.171875 0 
L 9.8125 0 
z
" id="DejaVuSans-4c"/>
    </defs>
    <g style="fill:#bb9832;" transform="translate(439.96818 273.270586)scale(0.08 -0.08)">
     <use xlink:href="#DejaVuSans-43"/>
     <use x="69.824219" xlink:href="#DejaVuSans-6f"/>
     <use x="131.005859" xlink:href="#DejaVuSans-6f"/>
     <use x="192.1875" xlink:href="#DejaVuSans-6b"/>
     <use x="250.097656" xlink:href="#DejaVuSans-2c"/>
     <use x="281.884766" xlink:href="#DejaVuSans-20"/>
     <use x="313.671875" xlink:href="#DejaVuSans-49"/>
     <use x="343.164062" xlink:href="#DejaVuSans-4c"/>
    </g>
   </g>
   <g id="text_28">
    <!-- Essex, NJ -->
    <defs>
     <path d="M 9.8125 72.90625 
L 55.90625 72.90625 
L 55.90625 64.59375 
L 19.671875 64.59375 
L 19.671875 43.015625 
L 54.390625 43.015625 
L 54.390625 34.71875 
L 19.671875 34.71875 
L 19.671875 8.296875 
L 56.78125 8.296875 
L 56.78125 0 
L 9.8125 0 
z
" id="DejaVuSans-45"/>
     <path d="M 9.8125 72.90625 
L 19.671875 72.90625 
L 19.671875 5.078125 
Q 19.671875 -8.109375 14.671875 -14.0625 
Q 9.671875 -20.015625 -1.421875 -20.015625 
L -5.171875 -20.015625 
L -5.171875 -11.71875 
L -2.09375 -11.71875 
Q 4.4375 -11.71875 7.125 -8.046875 
Q 9.8125 -4.390625 9.8125 5.078125 
z
" id="DejaVuSans-4a"/>
    </defs>
    <g style="fill:#50b131;" transform="translate(403.49193 291.732078)scale(0.08 -0.08)">
     <use xlink:href="#DejaVuSans-45"/>
     <use x="63.183594" xlink:href="#DejaVuSans-73"/>
     <use x="115.283203" xlink:href="#DejaVuSans-73"/>
     <use x="167.382812" xlink:href="#DejaVuSans-65"/>
     <use x="228.890625" xlink:href="#DejaVuSans-78"/>
     <use x="288.070312" xlink:href="#DejaVuSans-2c"/>
     <use x="319.857422" xlink:href="#DejaVuSans-20"/>
     <use x="351.644531" xlink:href="#DejaVuSans-4e"/>
     <use x="426.449219" xlink:href="#DejaVuSans-4a"/>
    </g>
   </g>
   <g id="text_29">
    <!-- Bergen, NJ -->
    <g style="fill:#36ada4;" transform="translate(439.96818 303.646586)scale(0.08 -0.08)">
     <use xlink:href="#DejaVuSans-42"/>
     <use x="68.603516" xlink:href="#DejaVuSans-65"/>
     <use x="130.126953" xlink:href="#DejaVuSans-72"/>
     <use x="171.224609" xlink:href="#DejaVuSans-67"/>
     <use x="234.701172" xlink:href="#DejaVuSans-65"/>
     <use x="296.224609" xlink:href="#DejaVuSans-6e"/>
     <use x="359.603516" xlink:href="#DejaVuSans-2c"/>
     <use x="391.390625" xlink:href="#DejaVuSans-20"/>
     <use x="423.177734" xlink:href="#DejaVuSans-4e"/>
     <use x="497.982422" xlink:href="#DejaVuSans-4a"/>
    </g>
   </g>
   <g id="text_30">
    <!-- Los Angeles, CA -->
    <defs>
     <path d="M 34.1875 63.1875 
L 20.796875 26.90625 
L 47.609375 26.90625 
z
M 28.609375 72.90625 
L 39.796875 72.90625 
L 67.578125 0 
L 57.328125 0 
L 50.6875 18.703125 
L 17.828125 18.703125 
L 11.1875 0 
L 0.78125 0 
z
" id="DejaVuSans-41"/>
    </defs>
    <g style="fill:#3ba3ec;" transform="translate(375.90693 312.459482)scale(0.08 -0.08)">
     <use xlink:href="#DejaVuSans-4c"/>
     <use x="55.697266" xlink:href="#DejaVuSans-6f"/>
     <use x="116.878906" xlink:href="#DejaVuSans-73"/>
     <use x="168.978516" xlink:href="#DejaVuSans-20"/>
     <use x="200.765625" xlink:href="#DejaVuSans-41"/>
     <use x="269.173828" xlink:href="#DejaVuSans-6e"/>
     <use x="332.552734" xlink:href="#DejaVuSans-67"/>
     <use x="396.029297" xlink:href="#DejaVuSans-65"/>
     <use x="457.552734" xlink:href="#DejaVuSans-6c"/>
     <use x="485.335938" xlink:href="#DejaVuSans-65"/>
     <use x="546.859375" xlink:href="#DejaVuSans-73"/>
     <use x="598.958984" xlink:href="#DejaVuSans-2c"/>
     <use x="630.746094" xlink:href="#DejaVuSans-20"/>
     <use x="662.533203" xlink:href="#DejaVuSans-43"/>
     <use x="732.357422" xlink:href="#DejaVuSans-41"/>
    </g>
   </g>
   <g id="text_31">
    <!-- Fairfield, CT -->
    <defs>
     <path d="M 9.8125 72.90625 
L 51.703125 72.90625 
L 51.703125 64.59375 
L 19.671875 64.59375 
L 19.671875 43.109375 
L 48.578125 43.109375 
L 48.578125 34.8125 
L 19.671875 34.8125 
L 19.671875 0 
L 9.8125 0 
z
" id="DejaVuSans-46"/>
     <path d="M -0.296875 72.90625 
L 61.375 72.90625 
L 61.375 64.59375 
L 35.5 64.59375 
L 35.5 0 
L 25.59375 0 
L 25.59375 64.59375 
L -0.296875 64.59375 
z
" id="DejaVuSans-54"/>
    </defs>
    <g style="fill:#e866f4;" transform="translate(439.96818 324.835044)scale(0.08 -0.08)">
     <use xlink:href="#DejaVuSans-46"/>
     <use x="57.378906" xlink:href="#DejaVuSans-61"/>
     <use x="118.658203" xlink:href="#DejaVuSans-69"/>
     <use x="146.441406" xlink:href="#DejaVuSans-72"/>
     <use x="187.554688" xlink:href="#DejaVuSans-66"/>
     <use x="222.759766" xlink:href="#DejaVuSans-69"/>
     <use x="250.542969" xlink:href="#DejaVuSans-65"/>
     <use x="312.066406" xlink:href="#DejaVuSans-6c"/>
     <use x="339.849609" xlink:href="#DejaVuSans-64"/>
     <use x="403.326172" xlink:href="#DejaVuSans-2c"/>
     <use x="435.113281" xlink:href="#DejaVuSans-20"/>
     <use x="466.900391" xlink:href="#DejaVuSans-43"/>
     <use x="536.724609" xlink:href="#DejaVuSans-54"/>
    </g>
   </g>
   <g id="text_32">
    <!-- Most-affected counties outside NY -->
    <g style="fill:#ffffff;" transform="translate(206.73375 233.2)scale(0.12 -0.12)">
     <use xlink:href="#DejaVuSans-4d"/>
     <use x="86.279297" xlink:href="#DejaVuSans-6f"/>
     <use x="147.460938" xlink:href="#DejaVuSans-73"/>
     <use x="199.560547" xlink:href="#DejaVuSans-74"/>
     <use x="238.769531" xlink:href="#DejaVuSans-2d"/>
     <use x="274.853516" xlink:href="#DejaVuSans-61"/>
     <use x="336.132812" xlink:href="#DejaVuSans-66"/>
     <use x="371.337891" xlink:href="#DejaVuSans-66"/>
     <use x="406.542969" xlink:href="#DejaVuSans-65"/>
     <use x="468.066406" xlink:href="#DejaVuSans-63"/>
     <use x="523.046875" xlink:href="#DejaVuSans-74"/>
     <use x="562.255859" xlink:href="#DejaVuSans-65"/>
     <use x="623.779297" xlink:href="#DejaVuSans-64"/>
     <use x="687.255859" xlink:href="#DejaVuSans-20"/>
     <use x="719.042969" xlink:href="#DejaVuSans-63"/>
     <use x="774.023438" xlink:href="#DejaVuSans-6f"/>
     <use x="835.205078" xlink:href="#DejaVuSans-75"/>
     <use x="898.583984" xlink:href="#DejaVuSans-6e"/>
     <use x="961.962891" xlink:href="#DejaVuSans-74"/>
     <use x="1001.171875" xlink:href="#DejaVuSans-69"/>
     <use x="1028.955078" xlink:href="#DejaVuSans-65"/>
     <use x="1090.478516" xlink:href="#DejaVuSans-73"/>
     <use x="1142.578125" xlink:href="#DejaVuSans-20"/>
     <use x="1174.365234" xlink:href="#DejaVuSans-6f"/>
     <use x="1235.546875" xlink:href="#DejaVuSans-75"/>
     <use x="1298.925781" xlink:href="#DejaVuSans-74"/>
     <use x="1338.134766" xlink:href="#DejaVuSans-73"/>
     <use x="1390.234375" xlink:href="#DejaVuSans-69"/>
     <use x="1418.017578" xlink:href="#DejaVuSans-64"/>
     <use x="1481.494141" xlink:href="#DejaVuSans-65"/>
     <use x="1543.017578" xlink:href="#DejaVuSans-20"/>
     <use x="1574.804688" xlink:href="#DejaVuSans-4e"/>
     <use x="1649.609375" xlink:href="#DejaVuSans-59"/>
    </g>
   </g>
  </g>
  <g id="axes_3">
   <g id="patch_12">
    <path d="M 57.05 606.2 
L 561.7 606.2 
L 561.7 451.6 
L 57.05 451.6 
z
"/>
   </g>
   <g id="PolyCollection_12">
    <defs>
     <path d="M 373.562939 -146.516375 
L 373.562939 -146.516375 
L 384.629825 -146.516375 
L 395.696711 -147.136147 
L 406.763596 -150.60237 
L 417.830482 -155.12704 
L 428.897368 -160.361588 
L 428.897368 -189.372727 
L 428.897368 -189.372727 
L 417.830482 -182.911929 
L 406.763596 -176.200239 
L 395.696711 -168.676926 
L 384.629825 -161.381758 
L 373.562939 -146.516375 
z
" id="m5b12a9f30f" style="stroke:#f77189;stroke-opacity:0.1;"/>
    </defs>
    <g clip-path="url(#pebf230edde)">
     <use style="fill:#f77189;fill-opacity:0.1;stroke:#f77189;stroke-opacity:0.1;" x="0" xlink:href="#m5b12a9f30f" y="648"/>
    </g>
   </g>
   <g id="PolyCollection_13">
    <defs>
     <path d="M 373.562939 -95.045773 
L 373.562939 -95.045773 
L 384.629825 -95.045773 
L 395.696711 -95.045773 
L 406.763596 -95.045773 
L 417.830482 -95.045773 
L 428.897368 -95.045773 
L 428.897368 -126.019741 
L 428.897368 -126.019741 
L 417.830482 -125.414636 
L 406.763596 -109.903914 
L 395.696711 -105.249331 
L 384.629825 -99.933393 
L 373.562939 -95.045773 
z
" id="m14e07720b2" style="stroke:#ae9d31;stroke-opacity:0.1;"/>
    </defs>
    <g clip-path="url(#pebf230edde)">
     <use style="fill:#ae9d31;fill-opacity:0.1;stroke:#ae9d31;stroke-opacity:0.1;" x="0" xlink:href="#m14e07720b2" y="648"/>
    </g>
   </g>
   <g id="PolyCollection_14">
    <defs>
     <path d="M 373.562939 -87.69283 
L 373.562939 -87.69283 
L 384.629825 -87.69283 
L 395.696711 -87.69283 
L 406.763596 -87.69283 
L 417.830482 -87.69283 
L 428.897368 -87.69283 
L 428.897368 -112.110477 
L 428.897368 -112.110477 
L 417.830482 -109.178718 
L 406.763596 -103.683918 
L 395.696711 -102.133822 
L 384.629825 -101.069699 
L 373.562939 -87.69283 
z
" id="mdaff0d66a3" style="stroke:#33b07a;stroke-opacity:0.1;"/>
    </defs>
    <g clip-path="url(#pebf230edde)">
     <use style="fill:#33b07a;fill-opacity:0.1;stroke:#33b07a;stroke-opacity:0.1;" x="0" xlink:href="#mdaff0d66a3" y="648"/>
    </g>
   </g>
   <g id="PolyCollection_15">
    <defs>
     <path d="M 373.562939 -70.886102 
L 373.562939 -70.886102 
L 384.629825 -70.886102 
L 395.696711 -70.886102 
L 406.763596 -70.886102 
L 417.830482 -70.886102 
L 428.897368 -70.886102 
L 428.897368 -83.459344 
L 428.897368 -83.459344 
L 417.830482 -82.277474 
L 406.763596 -76.881521 
L 395.696711 -76.600558 
L 384.629825 -73.927603 
L 373.562939 -70.886102 
z
" id="m0d7f5a606f" style="stroke:#38a9c5;stroke-opacity:0.1;"/>
    </defs>
    <g clip-path="url(#pebf230edde)">
     <use style="fill:#38a9c5;fill-opacity:0.1;stroke:#38a9c5;stroke-opacity:0.1;" x="0" xlink:href="#m0d7f5a606f" y="648"/>
    </g>
   </g>
   <g id="PolyCollection_16">
    <defs>
     <path d="M 373.562939 -69.835682 
L 373.562939 -69.835682 
L 384.629825 -69.835682 
L 395.696711 -69.835682 
L 406.763596 -69.835682 
L 417.830482 -69.835682 
L 428.897368 -69.835682 
L 428.897368 -77.097616 
L 428.897368 -77.097616 
L 417.830482 -76.636473 
L 406.763596 -75.578941 
L 395.696711 -74.302468 
L 384.629825 -72.395584 
L 373.562939 -69.835682 
z
" id="m7f1ebbd227" style="stroke:#cc7af4;stroke-opacity:0.1;"/>
    </defs>
    <g clip-path="url(#pebf230edde)">
     <use style="fill:#cc7af4;fill-opacity:0.1;stroke:#cc7af4;stroke-opacity:0.1;" x="0" xlink:href="#m7f1ebbd227" y="648"/>
    </g>
   </g>
   <g id="matplotlib.axis_5">
    <g id="xtick_7">
     <g id="line2d_39">
      <g>
       <use style="fill:#ffffff;stroke:#ffffff;stroke-width:0.8;" x="74.757018" xlink:href="#m6363fc9add" y="606.2"/>
      </g>
     </g>
     <g id="text_33">
      <!-- 3/26 -->
      <defs>
       <path d="M 33.015625 40.375 
Q 26.375 40.375 22.484375 35.828125 
Q 18.609375 31.296875 18.609375 23.390625 
Q 18.609375 15.53125 22.484375 10.953125 
Q 26.375 6.390625 33.015625 6.390625 
Q 39.65625 6.390625 43.53125 10.953125 
Q 47.40625 15.53125 47.40625 23.390625 
Q 47.40625 31.296875 43.53125 35.828125 
Q 39.65625 40.375 33.015625 40.375 
z
M 52.59375 71.296875 
L 52.59375 62.3125 
Q 48.875 64.0625 45.09375 64.984375 
Q 41.3125 65.921875 37.59375 65.921875 
Q 27.828125 65.921875 22.671875 59.328125 
Q 17.53125 52.734375 16.796875 39.40625 
Q 19.671875 43.65625 24.015625 45.921875 
Q 28.375 48.1875 33.59375 48.1875 
Q 44.578125 48.1875 50.953125 41.515625 
Q 57.328125 34.859375 57.328125 23.390625 
Q 57.328125 12.15625 50.6875 5.359375 
Q 44.046875 -1.421875 33.015625 -1.421875 
Q 20.359375 -1.421875 13.671875 8.265625 
Q 6.984375 17.96875 6.984375 36.375 
Q 6.984375 53.65625 15.1875 63.9375 
Q 23.390625 74.21875 37.203125 74.21875 
Q 40.921875 74.21875 44.703125 73.484375 
Q 48.484375 72.75 52.59375 71.296875 
z
" id="DejaVuSans-36"/>
      </defs>
      <g style="fill:#ffffff;" transform="translate(63.528893 620.798437)scale(0.1 -0.1)">
       <use xlink:href="#DejaVuSans-33"/>
       <use x="63.623047" xlink:href="#DejaVuSans-2f"/>
       <use x="97.314453" xlink:href="#DejaVuSans-32"/>
       <use x="160.9375" xlink:href="#DejaVuSans-36"/>
      </g>
     </g>
    </g>
    <g id="xtick_8">
     <g id="line2d_40">
      <g>
       <use style="fill:#ffffff;stroke:#ffffff;stroke-width:0.8;" x="373.562939" xlink:href="#m6363fc9add" y="606.2"/>
      </g>
     </g>
     <g id="text_34">
      <!-- 4/23 -->
      <g style="fill:#ffffff;" transform="translate(362.334814 620.798437)scale(0.1 -0.1)">
       <use xlink:href="#DejaVuSans-34"/>
       <use x="63.623047" xlink:href="#DejaVuSans-2f"/>
       <use x="97.314453" xlink:href="#DejaVuSans-32"/>
       <use x="160.9375" xlink:href="#DejaVuSans-33"/>
      </g>
     </g>
    </g>
    <g id="xtick_9">
     <g id="line2d_41">
      <g>
       <use style="fill:#ffffff;stroke:#ffffff;stroke-width:0.8;" x="428.897368" xlink:href="#m6363fc9add" y="606.2"/>
      </g>
     </g>
     <g id="text_35">
      <!-- 4/28 -->
      <g style="fill:#ffffff;" transform="translate(417.669243 620.798437)scale(0.1 -0.1)">
       <use xlink:href="#DejaVuSans-34"/>
       <use x="63.623047" xlink:href="#DejaVuSans-2f"/>
       <use x="97.314453" xlink:href="#DejaVuSans-32"/>
       <use x="160.9375" xlink:href="#DejaVuSans-38"/>
      </g>
     </g>
    </g>
    <g id="text_36">
     <!-- Days -->
     <g style="fill:#ffffff;" transform="translate(296.896875 634.476562)scale(0.1 -0.1)">
      <use xlink:href="#DejaVuSans-44"/>
      <use x="77.001953" xlink:href="#DejaVuSans-61"/>
      <use x="138.28125" xlink:href="#DejaVuSans-79"/>
      <use x="197.460938" xlink:href="#DejaVuSans-73"/>
     </g>
    </g>
   </g>
   <g id="matplotlib.axis_6">
    <g id="ytick_11">
     <g id="line2d_42">
      <g>
       <use style="fill:#ffffff;stroke:#ffffff;stroke-width:0.8;" x="57.05" xlink:href="#ma428c00095" y="600.223148"/>
      </g>
     </g>
     <g id="text_37">
      <!-- 0 -->
      <g style="fill:#ffffff;" transform="translate(43.6875 604.022366)scale(0.1 -0.1)">
       <use xlink:href="#DejaVuSans-30"/>
      </g>
     </g>
    </g>
    <g id="ytick_12">
     <g id="line2d_43">
      <g>
       <use style="fill:#ffffff;stroke:#ffffff;stroke-width:0.8;" x="57.05" xlink:href="#ma428c00095" y="573.962636"/>
      </g>
     </g>
     <g id="text_38">
      <!-- 25 -->
      <g style="fill:#ffffff;" transform="translate(37.325 577.761855)scale(0.1 -0.1)">
       <use xlink:href="#DejaVuSans-32"/>
       <use x="63.623047" xlink:href="#DejaVuSans-35"/>
      </g>
     </g>
    </g>
    <g id="ytick_13">
     <g id="line2d_44">
      <g>
       <use style="fill:#ffffff;stroke:#ffffff;stroke-width:0.8;" x="57.05" xlink:href="#ma428c00095" y="547.702125"/>
      </g>
     </g>
     <g id="text_39">
      <!-- 50 -->
      <g style="fill:#ffffff;" transform="translate(37.325 551.501344)scale(0.1 -0.1)">
       <use xlink:href="#DejaVuSans-35"/>
       <use x="63.623047" xlink:href="#DejaVuSans-30"/>
      </g>
     </g>
    </g>
    <g id="ytick_14">
     <g id="line2d_45">
      <g>
       <use style="fill:#ffffff;stroke:#ffffff;stroke-width:0.8;" x="57.05" xlink:href="#ma428c00095" y="521.441614"/>
      </g>
     </g>
     <g id="text_40">
      <!-- 75 -->
      <defs>
       <path d="M 8.203125 72.90625 
L 55.078125 72.90625 
L 55.078125 68.703125 
L 28.609375 0 
L 18.3125 0 
L 43.21875 64.59375 
L 8.203125 64.59375 
z
" id="DejaVuSans-37"/>
      </defs>
      <g style="fill:#ffffff;" transform="translate(37.325 525.240832)scale(0.1 -0.1)">
       <use xlink:href="#DejaVuSans-37"/>
       <use x="63.623047" xlink:href="#DejaVuSans-35"/>
      </g>
     </g>
    </g>
    <g id="ytick_15">
     <g id="line2d_46">
      <g>
       <use style="fill:#ffffff;stroke:#ffffff;stroke-width:0.8;" x="57.05" xlink:href="#ma428c00095" y="495.181102"/>
      </g>
     </g>
     <g id="text_41">
      <!-- 100 -->
      <g style="fill:#ffffff;" transform="translate(30.9625 498.980321)scale(0.1 -0.1)">
       <use xlink:href="#DejaVuSans-31"/>
       <use x="63.623047" xlink:href="#DejaVuSans-30"/>
       <use x="127.246094" xlink:href="#DejaVuSans-30"/>
      </g>
     </g>
    </g>
    <g id="ytick_16">
     <g id="line2d_47">
      <g>
       <use style="fill:#ffffff;stroke:#ffffff;stroke-width:0.8;" x="57.05" xlink:href="#ma428c00095" y="468.920591"/>
      </g>
     </g>
     <g id="text_42">
      <!-- 125 -->
      <g style="fill:#ffffff;" transform="translate(30.9625 472.71981)scale(0.1 -0.1)">
       <use xlink:href="#DejaVuSans-31"/>
       <use x="63.623047" xlink:href="#DejaVuSans-32"/>
       <use x="127.246094" xlink:href="#DejaVuSans-35"/>
      </g>
     </g>
    </g>
    <g id="text_43">
     <!-- Cumulative deaths -->
     <g style="fill:#ffffff;" transform="translate(24.882812 576.075)rotate(-90)scale(0.1 -0.1)">
      <use xlink:href="#DejaVuSans-43"/>
      <use x="69.824219" xlink:href="#DejaVuSans-75"/>
      <use x="133.203125" xlink:href="#DejaVuSans-6d"/>
      <use x="230.615234" xlink:href="#DejaVuSans-75"/>
      <use x="293.994141" xlink:href="#DejaVuSans-6c"/>
      <use x="321.777344" xlink:href="#DejaVuSans-61"/>
      <use x="383.056641" xlink:href="#DejaVuSans-74"/>
      <use x="422.265625" xlink:href="#DejaVuSans-69"/>
      <use x="450.048828" xlink:href="#DejaVuSans-76"/>
      <use x="509.228516" xlink:href="#DejaVuSans-65"/>
      <use x="570.751953" xlink:href="#DejaVuSans-20"/>
      <use x="602.539062" xlink:href="#DejaVuSans-64"/>
      <use x="666.015625" xlink:href="#DejaVuSans-65"/>
      <use x="727.539062" xlink:href="#DejaVuSans-61"/>
      <use x="788.818359" xlink:href="#DejaVuSans-74"/>
      <use x="828.027344" xlink:href="#DejaVuSans-68"/>
      <use x="891.40625" xlink:href="#DejaVuSans-73"/>
     </g>
    </g>
   </g>
   <g id="line2d_48">
    <path clip-path="url(#pebf230edde)" d="M 74.757018 577.113898 
L 85.823904 576.063477 
L 96.890789 570.811375 
L 107.957675 570.811375 
L 119.024561 567.660114 
L 130.091447 565.559273 
L 141.158333 563.458432 
L 152.225219 559.25675 
L 163.292105 557.155909 
L 174.358991 556.105489 
L 185.425877 556.105489 
L 196.492763 552.954227 
L 207.559649 551.903807 
L 218.626535 548.752546 
L 229.693421 547.702125 
L 240.760307 544.550864 
L 251.827193 543.500443 
L 262.894079 540.349182 
L 273.960965 534.046659 
L 285.027851 534.046659 
L 296.094737 528.794557 
L 307.161623 524.592875 
L 318.228509 524.592875 
L 329.295395 520.391193 
L 340.362281 520.391193 
L 351.429167 509.886989 
L 362.496053 504.634886 
L 373.562939 501.483625 
" style="fill:none;stroke:#f77189;stroke-linecap:square;stroke-width:1.5;"/>
   </g>
   <g id="line2d_49">
    <path clip-path="url(#pebf230edde)" d="M 373.562939 501.483625 
L 384.629825 494.522482 
L 395.696711 488.246758 
L 406.763596 481.89138 
L 417.830482 475.803046 
L 428.897368 470.100515 
" style="fill:none;stroke:#f77189;stroke-dasharray:1.5,2.475;stroke-dashoffset:0;stroke-width:1.5;"/>
   </g>
   <g id="line2d_50">
    <path clip-path="url(#pebf230edde)" d="M 74.757018 596.021466 
L 85.823904 596.021466 
L 96.890789 593.920625 
L 107.957675 592.870205 
L 119.024561 592.870205 
L 130.091447 592.870205 
L 141.158333 591.819784 
L 152.225219 590.769364 
L 163.292105 587.618102 
L 174.358991 587.618102 
L 185.425877 587.618102 
L 196.492763 586.567682 
L 207.559649 584.466841 
L 218.626535 583.41642 
L 229.693421 582.366 
L 240.760307 579.214739 
L 251.827193 578.164318 
L 262.894079 576.063477 
L 273.960965 576.063477 
L 285.027851 576.063477 
L 296.094737 562.408011 
L 307.161623 559.25675 
L 318.228509 559.25675 
L 329.295395 557.155909 
L 340.362281 556.105489 
L 351.429167 556.105489 
L 362.496053 555.055068 
L 373.562939 552.954227 
" style="fill:none;stroke:#ae9d31;stroke-linecap:square;stroke-width:1.5;"/>
   </g>
   <g id="line2d_51">
    <path clip-path="url(#pebf230edde)" d="M 373.562939 552.954227 
L 384.629825 551.131718 
L 395.696711 549.075296 
L 406.763596 547.092101 
L 417.830482 545.347991 
L 428.897368 543.873666 
" style="fill:none;stroke:#ae9d31;stroke-dasharray:1.5,2.475;stroke-dashoffset:0;stroke-width:1.5;"/>
   </g>
   <g id="line2d_52">
    <path clip-path="url(#pebf230edde)" d="M 74.757018 594.971045 
L 85.823904 593.920625 
L 96.890789 593.920625 
L 107.957675 593.920625 
L 119.024561 593.920625 
L 130.091447 589.718943 
L 141.158333 589.718943 
L 152.225219 589.718943 
L 163.292105 586.567682 
L 174.358991 586.567682 
L 185.425877 586.567682 
L 196.492763 586.567682 
L 207.559649 578.164318 
L 218.626535 578.164318 
L 229.693421 578.164318 
L 240.760307 578.164318 
L 251.827193 578.164318 
L 262.894079 578.164318 
L 273.960965 578.164318 
L 285.027851 578.164318 
L 296.094737 578.164318 
L 307.161623 570.811375 
L 318.228509 570.811375 
L 329.295395 570.811375 
L 340.362281 570.811375 
L 351.429167 570.811375 
L 362.496053 570.811375 
L 373.562939 560.30717 
" style="fill:none;stroke:#33b07a;stroke-linecap:square;stroke-width:1.5;"/>
   </g>
   <g id="line2d_53">
    <path clip-path="url(#pebf230edde)" d="M 373.562939 560.30717 
L 384.629825 558.934091 
L 395.696711 556.080376 
L 406.763596 553.297714 
L 417.830482 550.685561 
L 428.897368 548.293089 
" style="fill:none;stroke:#33b07a;stroke-dasharray:1.5,2.475;stroke-dashoffset:0;stroke-width:1.5;"/>
   </g>
   <g id="line2d_54">
    <path clip-path="url(#pebf230edde)" d="M 74.757018 599.172727 
L 85.823904 598.122307 
L 96.890789 597.071886 
L 107.957675 597.071886 
L 119.024561 597.071886 
L 130.091447 597.071886 
L 141.158333 597.071886 
L 152.225219 597.071886 
L 163.292105 594.971045 
L 174.358991 594.971045 
L 185.425877 593.920625 
L 196.492763 592.870205 
L 207.559649 592.870205 
L 218.626535 592.870205 
L 229.693421 591.819784 
L 240.760307 590.769364 
L 251.827193 588.668523 
L 262.894079 588.668523 
L 273.960965 588.668523 
L 285.027851 587.618102 
L 296.094737 585.517261 
L 307.161623 583.41642 
L 318.228509 583.41642 
L 329.295395 580.265159 
L 340.362281 579.214739 
L 351.429167 577.113898 
L 362.496053 577.113898 
L 373.562939 577.113898 
" style="fill:none;stroke:#38a9c5;stroke-linecap:square;stroke-width:1.5;"/>
   </g>
   <g id="line2d_55">
    <path clip-path="url(#pebf230edde)" d="M 373.562939 577.113898 
L 384.629825 575.59618 
L 395.696711 574.330372 
L 406.763596 573.151894 
L 417.830482 572.113223 
L 428.897368 571.238928 
" style="fill:none;stroke:#38a9c5;stroke-dasharray:1.5,2.475;stroke-dashoffset:0;stroke-width:1.5;"/>
   </g>
   <g id="line2d_56">
    <path clip-path="url(#pebf230edde)" d="M 74.757018 598.122307 
L 85.823904 597.071886 
L 96.890789 596.021466 
L 107.957675 594.971045 
L 119.024561 593.920625 
L 130.091447 593.920625 
L 141.158333 592.870205 
L 152.225219 592.870205 
L 163.292105 592.870205 
L 174.358991 591.819784 
L 185.425877 591.819784 
L 196.492763 590.769364 
L 207.559649 590.769364 
L 218.626535 589.718943 
L 229.693421 589.718943 
L 240.760307 586.567682 
L 251.827193 586.567682 
L 262.894079 585.517261 
L 273.960965 584.466841 
L 285.027851 584.466841 
L 296.094737 582.366 
L 307.161623 582.366 
L 318.228509 582.366 
L 329.295395 579.214739 
L 340.362281 579.214739 
L 351.429167 579.214739 
L 362.496053 579.214739 
L 373.562939 578.164318 
" style="fill:none;stroke:#cc7af4;stroke-linecap:square;stroke-width:1.5;"/>
   </g>
   <g id="line2d_57">
    <path clip-path="url(#pebf230edde)" d="M 373.562939 578.164318 
L 384.629825 577.080897 
L 395.696711 575.916946 
L 406.763596 574.908994 
L 417.830482 574.121616 
L 428.897368 573.546333 
" style="fill:none;stroke:#cc7af4;stroke-dasharray:1.5,2.475;stroke-dashoffset:0;stroke-width:1.5;"/>
   </g>
   <g id="patch_13">
    <path d="M 57.05 606.2 
L 57.05 451.6 
" style="fill:none;stroke:#ffffff;stroke-linecap:square;stroke-linejoin:miter;stroke-width:0.8;"/>
   </g>
   <g id="patch_14">
    <path d="M 561.7 606.2 
L 561.7 451.6 
" style="fill:none;stroke:#ffffff;stroke-linecap:square;stroke-linejoin:miter;stroke-width:0.8;"/>
   </g>
   <g id="patch_15">
    <path d="M 57.05 606.2 
L 561.7 606.2 
" style="fill:none;stroke:#ffffff;stroke-linecap:square;stroke-linejoin:miter;stroke-width:0.8;"/>
   </g>
   <g id="patch_16">
    <path d="M 57.05 451.6 
L 561.7 451.6 
" style="fill:none;stroke:#ffffff;stroke-linecap:square;stroke-linejoin:miter;stroke-width:0.8;"/>
   </g>
   <g id="text_44">
    <!-- Santa Clara, CA -->
    <defs>
     <path d="M 53.515625 70.515625 
L 53.515625 60.890625 
Q 47.90625 63.578125 42.921875 64.890625 
Q 37.9375 66.21875 33.296875 66.21875 
Q 25.25 66.21875 20.875 63.09375 
Q 16.5 59.96875 16.5 54.203125 
Q 16.5 49.359375 19.40625 46.890625 
Q 22.3125 44.4375 30.421875 42.921875 
L 36.375 41.703125 
Q 47.40625 39.59375 52.65625 34.296875 
Q 57.90625 29 57.90625 20.125 
Q 57.90625 9.515625 50.796875 4.046875 
Q 43.703125 -1.421875 29.984375 -1.421875 
Q 24.8125 -1.421875 18.96875 -0.25 
Q 13.140625 0.921875 6.890625 3.21875 
L 6.890625 13.375 
Q 12.890625 10.015625 18.65625 8.296875 
Q 24.421875 6.59375 29.984375 6.59375 
Q 38.421875 6.59375 43.015625 9.90625 
Q 47.609375 13.234375 47.609375 19.390625 
Q 47.609375 24.75 44.3125 27.78125 
Q 41.015625 30.8125 33.5 32.328125 
L 27.484375 33.5 
Q 16.453125 35.6875 11.515625 40.375 
Q 6.59375 45.0625 6.59375 53.421875 
Q 6.59375 63.09375 13.40625 68.65625 
Q 20.21875 74.21875 32.171875 74.21875 
Q 37.3125 74.21875 42.625 73.28125 
Q 47.953125 72.359375 53.515625 70.515625 
z
" id="DejaVuSans-53"/>
    </defs>
    <g style="fill:#f77189;" transform="translate(439.964254 467.500022)scale(0.08 -0.08)">
     <use xlink:href="#DejaVuSans-53"/>
     <use x="63.476562" xlink:href="#DejaVuSans-61"/>
     <use x="124.755859" xlink:href="#DejaVuSans-6e"/>
     <use x="188.134766" xlink:href="#DejaVuSans-74"/>
     <use x="227.34375" xlink:href="#DejaVuSans-61"/>
     <use x="288.623047" xlink:href="#DejaVuSans-20"/>
     <use x="320.410156" xlink:href="#DejaVuSans-43"/>
     <use x="390.234375" xlink:href="#DejaVuSans-6c"/>
     <use x="418.017578" xlink:href="#DejaVuSans-61"/>
     <use x="479.296875" xlink:href="#DejaVuSans-72"/>
     <use x="520.410156" xlink:href="#DejaVuSans-61"/>
     <use x="581.689453" xlink:href="#DejaVuSans-2c"/>
     <use x="613.476562" xlink:href="#DejaVuSans-20"/>
     <use x="645.263672" xlink:href="#DejaVuSans-43"/>
     <use x="715.087891" xlink:href="#DejaVuSans-41"/>
    </g>
   </g>
   <g id="text_45">
    <!-- Alameda, CA -->
    <g style="fill:#ae9d31;" transform="translate(439.964254 541.273173)scale(0.08 -0.08)">
     <use xlink:href="#DejaVuSans-41"/>
     <use x="68.408203" xlink:href="#DejaVuSans-6c"/>
     <use x="96.191406" xlink:href="#DejaVuSans-61"/>
     <use x="157.470703" xlink:href="#DejaVuSans-6d"/>
     <use x="254.882812" xlink:href="#DejaVuSans-65"/>
     <use x="316.40625" xlink:href="#DejaVuSans-64"/>
     <use x="379.882812" xlink:href="#DejaVuSans-61"/>
     <use x="441.162109" xlink:href="#DejaVuSans-2c"/>
     <use x="472.949219" xlink:href="#DejaVuSans-20"/>
     <use x="504.736328" xlink:href="#DejaVuSans-43"/>
     <use x="574.560547" xlink:href="#DejaVuSans-41"/>
    </g>
   </g>
   <g id="text_46">
    <!-- San Mateo, CA -->
    <g style="fill:#33b07a;" transform="translate(439.964254 555.308582)scale(0.08 -0.08)">
     <use xlink:href="#DejaVuSans-53"/>
     <use x="63.476562" xlink:href="#DejaVuSans-61"/>
     <use x="124.755859" xlink:href="#DejaVuSans-6e"/>
     <use x="188.134766" xlink:href="#DejaVuSans-20"/>
     <use x="219.921875" xlink:href="#DejaVuSans-4d"/>
     <use x="306.201172" xlink:href="#DejaVuSans-61"/>
     <use x="367.480469" xlink:href="#DejaVuSans-74"/>
     <use x="406.689453" xlink:href="#DejaVuSans-65"/>
     <use x="468.212891" xlink:href="#DejaVuSans-6f"/>
     <use x="529.394531" xlink:href="#DejaVuSans-2c"/>
     <use x="561.181641" xlink:href="#DejaVuSans-20"/>
     <use x="592.96875" xlink:href="#DejaVuSans-43"/>
     <use x="662.792969" xlink:href="#DejaVuSans-41"/>
    </g>
   </g>
   <g id="text_47">
    <!-- Contra Costa, CA -->
    <g style="fill:#38a9c5;" transform="translate(439.964254 568.674741)scale(0.08 -0.08)">
     <use xlink:href="#DejaVuSans-43"/>
     <use x="69.824219" xlink:href="#DejaVuSans-6f"/>
     <use x="131.005859" xlink:href="#DejaVuSans-6e"/>
     <use x="194.384766" xlink:href="#DejaVuSans-74"/>
     <use x="233.59375" xlink:href="#DejaVuSans-72"/>
     <use x="274.707031" xlink:href="#DejaVuSans-61"/>
     <use x="335.986328" xlink:href="#DejaVuSans-20"/>
     <use x="367.773438" xlink:href="#DejaVuSans-43"/>
     <use x="437.597656" xlink:href="#DejaVuSans-6f"/>
     <use x="498.779297" xlink:href="#DejaVuSans-73"/>
     <use x="550.878906" xlink:href="#DejaVuSans-74"/>
     <use x="590.087891" xlink:href="#DejaVuSans-61"/>
     <use x="651.367188" xlink:href="#DejaVuSans-2c"/>
     <use x="683.154297" xlink:href="#DejaVuSans-20"/>
     <use x="714.941406" xlink:href="#DejaVuSans-43"/>
     <use x="784.765625" xlink:href="#DejaVuSans-41"/>
    </g>
   </g>
   <g id="text_48">
    <!-- San Francisco, CA -->
    <g style="fill:#cc7af4;" transform="translate(439.964254 580.561826)scale(0.08 -0.08)">
     <use xlink:href="#DejaVuSans-53"/>
     <use x="63.476562" xlink:href="#DejaVuSans-61"/>
     <use x="124.755859" xlink:href="#DejaVuSans-6e"/>
     <use x="188.134766" xlink:href="#DejaVuSans-20"/>
     <use x="219.921875" xlink:href="#DejaVuSans-46"/>
     <use x="277.332031" xlink:href="#DejaVuSans-72"/>
     <use x="318.445312" xlink:href="#DejaVuSans-61"/>
     <use x="379.724609" xlink:href="#DejaVuSans-6e"/>
     <use x="443.103516" xlink:href="#DejaVuSans-63"/>
     <use x="498.083984" xlink:href="#DejaVuSans-69"/>
     <use x="525.867188" xlink:href="#DejaVuSans-73"/>
     <use x="577.966797" xlink:href="#DejaVuSans-63"/>
     <use x="632.947266" xlink:href="#DejaVuSans-6f"/>
     <use x="694.128906" xlink:href="#DejaVuSans-2c"/>
     <use x="725.916016" xlink:href="#DejaVuSans-20"/>
     <use x="757.703125" xlink:href="#DejaVuSans-43"/>
     <use x="827.527344" xlink:href="#DejaVuSans-41"/>
    </g>
   </g>
   <g id="text_49">
    <!-- Bay area counties -->
    <g style="fill:#ffffff;" transform="translate(255.294375 445.6)scale(0.12 -0.12)">
     <use xlink:href="#DejaVuSans-42"/>
     <use x="68.603516" xlink:href="#DejaVuSans-61"/>
     <use x="129.882812" xlink:href="#DejaVuSans-79"/>
     <use x="189.0625" xlink:href="#DejaVuSans-20"/>
     <use x="220.849609" xlink:href="#DejaVuSans-61"/>
     <use x="282.128906" xlink:href="#DejaVuSans-72"/>
     <use x="323.210938" xlink:href="#DejaVuSans-65"/>
     <use x="384.734375" xlink:href="#DejaVuSans-61"/>
     <use x="446.013672" xlink:href="#DejaVuSans-20"/>
     <use x="477.800781" xlink:href="#DejaVuSans-63"/>
     <use x="532.78125" xlink:href="#DejaVuSans-6f"/>
     <use x="593.962891" xlink:href="#DejaVuSans-75"/>
     <use x="657.341797" xlink:href="#DejaVuSans-6e"/>
     <use x="720.720703" xlink:href="#DejaVuSans-74"/>
     <use x="759.929688" xlink:href="#DejaVuSans-69"/>
     <use x="787.712891" xlink:href="#DejaVuSans-65"/>
     <use x="849.236328" xlink:href="#DejaVuSans-73"/>
    </g>
   </g>
  </g>
 </g>
 <defs>
  <clipPath id="pdfc2329c56">
   <rect height="154.6" width="504.65" x="57.05" y="26.8"/>
  </clipPath>
  <clipPath id="paa99cb1e31">
   <rect height="154.6" width="504.65" x="57.05" y="239.2"/>
  </clipPath>
  <clipPath id="pebf230edde">
   <rect height="154.6" width="504.65" x="57.05" y="451.6"/>
  </clipPath>
 </defs>
</svg>
