<?xml version="1.0" encoding="utf-8" standalone="no"?>
<!DOCTYPE svg PUBLIC "-//W3C//DTD SVG 1.1//EN"
  "http://www.w3.org/Graphics/SVG/1.1/DTD/svg11.dtd">
<!-- Created with matplotlib (http://matplotlib.org/) -->
<svg height="648pt" version="1.1" viewBox="0 0 576 648" width="576pt" xmlns="http://www.w3.org/2000/svg" xmlns:xlink="http://www.w3.org/1999/xlink">
 <defs>
  <style type="text/css">
*{stroke-linecap:butt;stroke-linejoin:round;}
  </style>
 </defs>
 <g id="figure_1">
  <g id="patch_1">
   <path d="M 0 648 
L 576 648 
L 576 0 
L 0 0 
z
"/>
  </g>
  <g id="axes_1">
   <g id="patch_2">
    <path d="M 57.26 181.24 
L 562.68 181.24 
L 562.68 25.44 
L 57.26 25.44 
z
"/>
   </g>
   <g id="PolyCollection_1">
    <defs>
     <path d="M 402.270947 -566.218073 
L 402.270947 -566.218073 
L 412.789573 -566.218073 
L 423.3082 -566.218073 
L 433.826826 -566.218073 
L 444.345453 -566.218073 
L 454.864079 -566.218073 
L 454.864079 -615.478182 
L 454.864079 -615.478182 
L 444.345453 -608.823605 
L 433.826826 -600.88957 
L 423.3082 -591.540503 
L 412.789573 -577.517699 
L 402.270947 -566.218073 
z
" id="m3a8026e7b7" style="stroke:#f77189;stroke-opacity:0.1;"/>
    </defs>
    <g clip-path="url(#pade4338625)">
     <use style="fill:#f77189;fill-opacity:0.1;stroke:#f77189;stroke-opacity:0.1;" x="0" xlink:href="#m3a8026e7b7" y="648"/>
    </g>
   </g>
   <g id="PolyCollection_2">
    <defs>
     <path d="M 402.270947 -565.522106 
L 402.270947 -565.522106 
L 412.789573 -565.522106 
L 423.3082 -565.522106 
L 433.826826 -565.522106 
L 444.345453 -565.522106 
L 454.864079 -567.711097 
L 454.864079 -613.382604 
L 454.864079 -613.382604 
L 444.345453 -605.362988 
L 433.826826 -597.182381 
L 423.3082 -590.443344 
L 412.789573 -577.149754 
L 402.270947 -565.522106 
z
" id="m2c4242d88a" style="stroke:#ae9d31;stroke-opacity:0.1;"/>
    </defs>
    <g clip-path="url(#pade4338625)">
     <use style="fill:#ae9d31;fill-opacity:0.1;stroke:#ae9d31;stroke-opacity:0.1;" x="0" xlink:href="#m2c4242d88a" y="648"/>
    </g>
   </g>
   <g id="PolyCollection_3">
    <defs>
     <path d="M 402.270947 -534.096513 
L 402.270947 -534.096513 
L 412.789573 -534.096513 
L 423.3082 -534.096513 
L 433.826826 -534.096513 
L 444.345453 -534.096513 
L 454.864079 -534.171642 
L 454.864079 -564.897624 
L 454.864079 -564.897624 
L 444.345453 -559.449683 
L 433.826826 -555.645194 
L 423.3082 -549.979264 
L 412.789573 -541.563762 
L 402.270947 -534.096513 
z
" id="m36f96ecc7f" style="stroke:#33b07a;stroke-opacity:0.1;"/>
    </defs>
    <g clip-path="url(#pade4338625)">
     <use style="fill:#33b07a;fill-opacity:0.1;stroke:#33b07a;stroke-opacity:0.1;" x="0" xlink:href="#m36f96ecc7f" y="648"/>
    </g>
   </g>
   <g id="PolyCollection_4">
    <defs>
     <path d="M 402.270947 -511.959404 
L 402.270947 -511.959404 
L 412.789573 -511.959404 
L 423.3082 -511.959404 
L 433.826826 -513.081753 
L 444.345453 -511.959404 
L 454.864079 -511.959404 
L 454.864079 -534.577495 
L 454.864079 -534.577495 
L 444.345453 -528.550528 
L 433.826826 -521.882971 
L 423.3082 -519.405971 
L 412.789573 -517.767626 
L 402.270947 -511.959404 
z
" id="m6b2e36d787" style="stroke:#38a9c5;stroke-opacity:0.1;"/>
    </defs>
    <g clip-path="url(#pade4338625)">
     <use style="fill:#38a9c5;fill-opacity:0.1;stroke:#38a9c5;stroke-opacity:0.1;" x="0" xlink:href="#m6b2e36d787" y="648"/>
    </g>
   </g>
   <g id="PolyCollection_5">
    <defs>
     <path d="M 402.270947 -509.443215 
L 402.270947 -509.443215 
L 412.789573 -509.443215 
L 423.3082 -509.443215 
L 433.826826 -509.443215 
L 444.345453 -509.556558 
L 454.864079 -510.578595 
L 454.864079 -520.67855 
L 454.864079 -520.67855 
L 444.345453 -519.193849 
L 433.826826 -518.165032 
L 423.3082 -516.626797 
L 412.789573 -513.870905 
L 402.270947 -509.443215 
z
" id="m4400fd0f8d" style="stroke:#cc7af4;stroke-opacity:0.1;"/>
    </defs>
    <g clip-path="url(#pade4338625)">
     <use style="fill:#cc7af4;fill-opacity:0.1;stroke:#cc7af4;stroke-opacity:0.1;" x="0" xlink:href="#m4400fd0f8d" y="648"/>
    </g>
   </g>
   <g id="matplotlib.axis_1">
    <g id="xtick_1">
     <g id="line2d_1">
      <defs>
       <path d="M 0 0 
L 0 3.5 
" id="m23b5ad83b3" style="stroke:#ffffff;stroke-width:0.8;"/>
      </defs>
      <g>
       <use style="fill:#ffffff;stroke:#ffffff;stroke-width:0.8;" x="76.193528" xlink:href="#m23b5ad83b3" y="181.24"/>
      </g>
     </g>
     <g id="text_1">
      <!-- 3/22 -->
      <defs>
       <path d="M 40.578125 39.3125 
Q 47.65625 37.796875 51.625 33 
Q 55.609375 28.21875 55.609375 21.1875 
Q 55.609375 10.40625 48.1875 4.484375 
Q 40.765625 -1.421875 27.09375 -1.421875 
Q 22.515625 -1.421875 17.65625 -0.515625 
Q 12.796875 0.390625 7.625 2.203125 
L 7.625 11.71875 
Q 11.71875 9.328125 16.59375 8.109375 
Q 21.484375 6.890625 26.8125 6.890625 
Q 36.078125 6.890625 40.9375 10.546875 
Q 45.796875 14.203125 45.796875 21.1875 
Q 45.796875 27.640625 41.28125 31.265625 
Q 36.765625 34.90625 28.71875 34.90625 
L 20.21875 34.90625 
L 20.21875 43.015625 
L 29.109375 43.015625 
Q 36.375 43.015625 40.234375 45.921875 
Q 44.09375 48.828125 44.09375 54.296875 
Q 44.09375 59.90625 40.109375 62.90625 
Q 36.140625 65.921875 28.71875 65.921875 
Q 24.65625 65.921875 20.015625 65.03125 
Q 15.375 64.15625 9.8125 62.3125 
L 9.8125 71.09375 
Q 15.4375 72.65625 20.34375 73.4375 
Q 25.25 74.21875 29.59375 74.21875 
Q 40.828125 74.21875 47.359375 69.109375 
Q 53.90625 64.015625 53.90625 55.328125 
Q 53.90625 49.265625 50.4375 45.09375 
Q 46.96875 40.921875 40.578125 39.3125 
z
" id="DejaVuSans-33"/>
       <path d="M 25.390625 72.90625 
L 33.6875 72.90625 
L 8.296875 -9.28125 
L 0 -9.28125 
z
" id="DejaVuSans-2f"/>
       <path d="M 19.1875 8.296875 
L 53.609375 8.296875 
L 53.609375 0 
L 7.328125 0 
L 7.328125 8.296875 
Q 12.9375 14.109375 22.625 23.890625 
Q 32.328125 33.6875 34.8125 36.53125 
Q 39.546875 41.84375 41.421875 45.53125 
Q 43.3125 49.21875 43.3125 52.78125 
Q 43.3125 58.59375 39.234375 62.25 
Q 35.15625 65.921875 28.609375 65.921875 
Q 23.96875 65.921875 18.8125 64.3125 
Q 13.671875 62.703125 7.8125 59.421875 
L 7.8125 69.390625 
Q 13.765625 71.78125 18.9375 73 
Q 24.125 74.21875 28.421875 74.21875 
Q 39.75 74.21875 46.484375 68.546875 
Q 53.21875 62.890625 53.21875 53.421875 
Q 53.21875 48.921875 51.53125 44.890625 
Q 49.859375 40.875 45.40625 35.40625 
Q 44.1875 33.984375 37.640625 27.21875 
Q 31.109375 20.453125 19.1875 8.296875 
z
" id="DejaVuSans-32"/>
      </defs>
      <g style="fill:#ffffff;" transform="translate(64.965403 195.838437)scale(0.1 -0.1)">
       <use xlink:href="#DejaVuSans-33"/>
       <use x="63.623047" xlink:href="#DejaVuSans-2f"/>
       <use x="97.314453" xlink:href="#DejaVuSans-32"/>
       <use x="160.9375" xlink:href="#DejaVuSans-32"/>
      </g>
     </g>
    </g>
    <g id="xtick_2">
     <g id="line2d_2">
      <g>
       <use style="fill:#ffffff;stroke:#ffffff;stroke-width:0.8;" x="402.270947" xlink:href="#m23b5ad83b3" y="181.24"/>
      </g>
     </g>
     <g id="text_2">
      <!-- 4/23 -->
      <defs>
       <path d="M 37.796875 64.3125 
L 12.890625 25.390625 
L 37.796875 25.390625 
z
M 35.203125 72.90625 
L 47.609375 72.90625 
L 47.609375 25.390625 
L 58.015625 25.390625 
L 58.015625 17.1875 
L 47.609375 17.1875 
L 47.609375 0 
L 37.796875 0 
L 37.796875 17.1875 
L 4.890625 17.1875 
L 4.890625 26.703125 
z
" id="DejaVuSans-34"/>
      </defs>
      <g style="fill:#ffffff;" transform="translate(391.042822 195.838437)scale(0.1 -0.1)">
       <use xlink:href="#DejaVuSans-34"/>
       <use x="63.623047" xlink:href="#DejaVuSans-2f"/>
       <use x="97.314453" xlink:href="#DejaVuSans-32"/>
       <use x="160.9375" xlink:href="#DejaVuSans-33"/>
      </g>
     </g>
    </g>
    <g id="xtick_3">
     <g id="line2d_3">
      <g>
       <use style="fill:#ffffff;stroke:#ffffff;stroke-width:0.8;" x="454.864079" xlink:href="#m23b5ad83b3" y="181.24"/>
      </g>
     </g>
     <g id="text_3">
      <!-- 4/28 -->
      <defs>
       <path d="M 31.78125 34.625 
Q 24.75 34.625 20.71875 30.859375 
Q 16.703125 27.09375 16.703125 20.515625 
Q 16.703125 13.921875 20.71875 10.15625 
Q 24.75 6.390625 31.78125 6.390625 
Q 38.8125 6.390625 42.859375 10.171875 
Q 46.921875 13.96875 46.921875 20.515625 
Q 46.921875 27.09375 42.890625 30.859375 
Q 38.875 34.625 31.78125 34.625 
z
M 21.921875 38.8125 
Q 15.578125 40.375 12.03125 44.71875 
Q 8.5 49.078125 8.5 55.328125 
Q 8.5 64.0625 14.71875 69.140625 
Q 20.953125 74.21875 31.78125 74.21875 
Q 42.671875 74.21875 48.875 69.140625 
Q 55.078125 64.0625 55.078125 55.328125 
Q 55.078125 49.078125 51.53125 44.71875 
Q 48 40.375 41.703125 38.8125 
Q 48.828125 37.15625 52.796875 32.3125 
Q 56.78125 27.484375 56.78125 20.515625 
Q 56.78125 9.90625 50.3125 4.234375 
Q 43.84375 -1.421875 31.78125 -1.421875 
Q 19.734375 -1.421875 13.25 4.234375 
Q 6.78125 9.90625 6.78125 20.515625 
Q 6.78125 27.484375 10.78125 32.3125 
Q 14.796875 37.15625 21.921875 38.8125 
z
M 18.3125 54.390625 
Q 18.3125 48.734375 21.84375 45.5625 
Q 25.390625 42.390625 31.78125 42.390625 
Q 38.140625 42.390625 41.71875 45.5625 
Q 45.3125 48.734375 45.3125 54.390625 
Q 45.3125 60.0625 41.71875 63.234375 
Q 38.140625 66.40625 31.78125 66.40625 
Q 25.390625 66.40625 21.84375 63.234375 
Q 18.3125 60.0625 18.3125 54.390625 
z
" id="DejaVuSans-38"/>
      </defs>
      <g style="fill:#ffffff;" transform="translate(443.635954 195.838437)scale(0.1 -0.1)">
       <use xlink:href="#DejaVuSans-34"/>
       <use x="63.623047" xlink:href="#DejaVuSans-2f"/>
       <use x="97.314453" xlink:href="#DejaVuSans-32"/>
       <use x="160.9375" xlink:href="#DejaVuSans-38"/>
      </g>
     </g>
    </g>
   </g>
   <g id="matplotlib.axis_2">
    <g id="ytick_1">
     <g id="line2d_4">
      <defs>
       <path d="M 0 0 
L -3.5 0 
" id="m131d3105c9" style="stroke:#ffffff;stroke-width:0.8;"/>
      </defs>
      <g>
       <use style="fill:#ffffff;stroke:#ffffff;stroke-width:0.8;" x="57.26" xlink:href="#m131d3105c9" y="174.345558"/>
      </g>
     </g>
     <g id="text_4">
      <!-- 0 -->
      <defs>
       <path d="M 31.78125 66.40625 
Q 24.171875 66.40625 20.328125 58.90625 
Q 16.5 51.421875 16.5 36.375 
Q 16.5 21.390625 20.328125 13.890625 
Q 24.171875 6.390625 31.78125 6.390625 
Q 39.453125 6.390625 43.28125 13.890625 
Q 47.125 21.390625 47.125 36.375 
Q 47.125 51.421875 43.28125 58.90625 
Q 39.453125 66.40625 31.78125 66.40625 
z
M 31.78125 74.21875 
Q 44.046875 74.21875 50.515625 64.515625 
Q 56.984375 54.828125 56.984375 36.375 
Q 56.984375 17.96875 50.515625 8.265625 
Q 44.046875 -1.421875 31.78125 -1.421875 
Q 19.53125 -1.421875 13.0625 8.265625 
Q 6.59375 17.96875 6.59375 36.375 
Q 6.59375 54.828125 13.0625 64.515625 
Q 19.53125 74.21875 31.78125 74.21875 
z
" id="DejaVuSans-30"/>
      </defs>
      <g style="fill:#ffffff;" transform="translate(43.8975 178.144776)scale(0.1 -0.1)">
       <use xlink:href="#DejaVuSans-30"/>
      </g>
     </g>
    </g>
    <g id="ytick_2">
     <g id="line2d_5">
      <g>
       <use style="fill:#ffffff;stroke:#ffffff;stroke-width:0.8;" x="57.26" xlink:href="#m131d3105c9" y="147.57759"/>
      </g>
     </g>
     <g id="text_5">
      <!-- 1000 -->
      <defs>
       <path d="M 12.40625 8.296875 
L 28.515625 8.296875 
L 28.515625 63.921875 
L 10.984375 60.40625 
L 10.984375 69.390625 
L 28.421875 72.90625 
L 38.28125 72.90625 
L 38.28125 8.296875 
L 54.390625 8.296875 
L 54.390625 0 
L 12.40625 0 
z
" id="DejaVuSans-31"/>
      </defs>
      <g style="fill:#ffffff;" transform="translate(24.81 151.376809)scale(0.1 -0.1)">
       <use xlink:href="#DejaVuSans-31"/>
       <use x="63.623047" xlink:href="#DejaVuSans-30"/>
       <use x="127.246094" xlink:href="#DejaVuSans-30"/>
       <use x="190.869141" xlink:href="#DejaVuSans-30"/>
      </g>
     </g>
    </g>
    <g id="ytick_3">
     <g id="line2d_6">
      <g>
       <use style="fill:#ffffff;stroke:#ffffff;stroke-width:0.8;" x="57.26" xlink:href="#m131d3105c9" y="120.809623"/>
      </g>
     </g>
     <g id="text_6">
      <!-- 2000 -->
      <g style="fill:#ffffff;" transform="translate(24.81 124.608842)scale(0.1 -0.1)">
       <use xlink:href="#DejaVuSans-32"/>
       <use x="63.623047" xlink:href="#DejaVuSans-30"/>
       <use x="127.246094" xlink:href="#DejaVuSans-30"/>
       <use x="190.869141" xlink:href="#DejaVuSans-30"/>
      </g>
     </g>
    </g>
    <g id="ytick_4">
     <g id="line2d_7">
      <g>
       <use style="fill:#ffffff;stroke:#ffffff;stroke-width:0.8;" x="57.26" xlink:href="#m131d3105c9" y="94.041656"/>
      </g>
     </g>
     <g id="text_7">
      <!-- 3000 -->
      <g style="fill:#ffffff;" transform="translate(24.81 97.840874)scale(0.1 -0.1)">
       <use xlink:href="#DejaVuSans-33"/>
       <use x="63.623047" xlink:href="#DejaVuSans-30"/>
       <use x="127.246094" xlink:href="#DejaVuSans-30"/>
       <use x="190.869141" xlink:href="#DejaVuSans-30"/>
      </g>
     </g>
    </g>
    <g id="ytick_5">
     <g id="line2d_8">
      <g>
       <use style="fill:#ffffff;stroke:#ffffff;stroke-width:0.8;" x="57.26" xlink:href="#m131d3105c9" y="67.273688"/>
      </g>
     </g>
     <g id="text_8">
      <!-- 4000 -->
      <g style="fill:#ffffff;" transform="translate(24.81 71.072907)scale(0.1 -0.1)">
       <use xlink:href="#DejaVuSans-34"/>
       <use x="63.623047" xlink:href="#DejaVuSans-30"/>
       <use x="127.246094" xlink:href="#DejaVuSans-30"/>
       <use x="190.869141" xlink:href="#DejaVuSans-30"/>
      </g>
     </g>
    </g>
    <g id="ytick_6">
     <g id="line2d_9">
      <g>
       <use style="fill:#ffffff;stroke:#ffffff;stroke-width:0.8;" x="57.26" xlink:href="#m131d3105c9" y="40.505721"/>
      </g>
     </g>
     <g id="text_9">
      <!-- 5000 -->
      <defs>
       <path d="M 10.796875 72.90625 
L 49.515625 72.90625 
L 49.515625 64.59375 
L 19.828125 64.59375 
L 19.828125 46.734375 
Q 21.96875 47.46875 24.109375 47.828125 
Q 26.265625 48.1875 28.421875 48.1875 
Q 40.625 48.1875 47.75 41.5 
Q 54.890625 34.8125 54.890625 23.390625 
Q 54.890625 11.625 47.5625 5.09375 
Q 40.234375 -1.421875 26.90625 -1.421875 
Q 22.3125 -1.421875 17.546875 -0.640625 
Q 12.796875 0.140625 7.71875 1.703125 
L 7.71875 11.625 
Q 12.109375 9.234375 16.796875 8.0625 
Q 21.484375 6.890625 26.703125 6.890625 
Q 35.15625 6.890625 40.078125 11.328125 
Q 45.015625 15.765625 45.015625 23.390625 
Q 45.015625 31 40.078125 35.4375 
Q 35.15625 39.890625 26.703125 39.890625 
Q 22.75 39.890625 18.8125 39.015625 
Q 14.890625 38.140625 10.796875 36.28125 
z
" id="DejaVuSans-35"/>
      </defs>
      <g style="fill:#ffffff;" transform="translate(24.81 44.30494)scale(0.1 -0.1)">
       <use xlink:href="#DejaVuSans-35"/>
       <use x="63.623047" xlink:href="#DejaVuSans-30"/>
       <use x="127.246094" xlink:href="#DejaVuSans-30"/>
       <use x="190.869141" xlink:href="#DejaVuSans-30"/>
      </g>
     </g>
    </g>
    <g id="text_10">
     <!-- Cumulative deaths -->
     <defs>
      <path d="M 64.40625 67.28125 
L 64.40625 56.890625 
Q 59.421875 61.53125 53.78125 63.8125 
Q 48.140625 66.109375 41.796875 66.109375 
Q 29.296875 66.109375 22.65625 58.46875 
Q 16.015625 50.828125 16.015625 36.375 
Q 16.015625 21.96875 22.65625 14.328125 
Q 29.296875 6.6875 41.796875 6.6875 
Q 48.140625 6.6875 53.78125 8.984375 
Q 59.421875 11.28125 64.40625 15.921875 
L 64.40625 5.609375 
Q 59.234375 2.09375 53.4375 0.328125 
Q 47.65625 -1.421875 41.21875 -1.421875 
Q 24.65625 -1.421875 15.125 8.703125 
Q 5.609375 18.84375 5.609375 36.375 
Q 5.609375 53.953125 15.125 64.078125 
Q 24.65625 74.21875 41.21875 74.21875 
Q 47.75 74.21875 53.53125 72.484375 
Q 59.328125 70.75 64.40625 67.28125 
z
" id="DejaVuSans-43"/>
      <path d="M 8.5 21.578125 
L 8.5 54.6875 
L 17.484375 54.6875 
L 17.484375 21.921875 
Q 17.484375 14.15625 20.5 10.265625 
Q 23.53125 6.390625 29.59375 6.390625 
Q 36.859375 6.390625 41.078125 11.03125 
Q 45.3125 15.671875 45.3125 23.6875 
L 45.3125 54.6875 
L 54.296875 54.6875 
L 54.296875 0 
L 45.3125 0 
L 45.3125 8.40625 
Q 42.046875 3.421875 37.71875 1 
Q 33.40625 -1.421875 27.6875 -1.421875 
Q 18.265625 -1.421875 13.375 4.4375 
Q 8.5 10.296875 8.5 21.578125 
z
M 31.109375 56 
z
" id="DejaVuSans-75"/>
      <path d="M 52 44.1875 
Q 55.375 50.25 60.0625 53.125 
Q 64.75 56 71.09375 56 
Q 79.640625 56 84.28125 50.015625 
Q 88.921875 44.046875 88.921875 33.015625 
L 88.921875 0 
L 79.890625 0 
L 79.890625 32.71875 
Q 79.890625 40.578125 77.09375 44.375 
Q 74.3125 48.1875 68.609375 48.1875 
Q 61.625 48.1875 57.5625 43.546875 
Q 53.515625 38.921875 53.515625 30.90625 
L 53.515625 0 
L 44.484375 0 
L 44.484375 32.71875 
Q 44.484375 40.625 41.703125 44.40625 
Q 38.921875 48.1875 33.109375 48.1875 
Q 26.21875 48.1875 22.15625 43.53125 
Q 18.109375 38.875 18.109375 30.90625 
L 18.109375 0 
L 9.078125 0 
L 9.078125 54.6875 
L 18.109375 54.6875 
L 18.109375 46.1875 
Q 21.1875 51.21875 25.484375 53.609375 
Q 29.78125 56 35.6875 56 
Q 41.65625 56 45.828125 52.96875 
Q 50 49.953125 52 44.1875 
z
" id="DejaVuSans-6d"/>
      <path d="M 9.421875 75.984375 
L 18.40625 75.984375 
L 18.40625 0 
L 9.421875 0 
z
" id="DejaVuSans-6c"/>
      <path d="M 34.28125 27.484375 
Q 23.390625 27.484375 19.1875 25 
Q 14.984375 22.515625 14.984375 16.5 
Q 14.984375 11.71875 18.140625 8.90625 
Q 21.296875 6.109375 26.703125 6.109375 
Q 34.1875 6.109375 38.703125 11.40625 
Q 43.21875 16.703125 43.21875 25.484375 
L 43.21875 27.484375 
z
M 52.203125 31.203125 
L 52.203125 0 
L 43.21875 0 
L 43.21875 8.296875 
Q 40.140625 3.328125 35.546875 0.953125 
Q 30.953125 -1.421875 24.3125 -1.421875 
Q 15.921875 -1.421875 10.953125 3.296875 
Q 6 8.015625 6 15.921875 
Q 6 25.140625 12.171875 29.828125 
Q 18.359375 34.515625 30.609375 34.515625 
L 43.21875 34.515625 
L 43.21875 35.40625 
Q 43.21875 41.609375 39.140625 45 
Q 35.0625 48.390625 27.6875 48.390625 
Q 23 48.390625 18.546875 47.265625 
Q 14.109375 46.140625 10.015625 43.890625 
L 10.015625 52.203125 
Q 14.9375 54.109375 19.578125 55.046875 
Q 24.21875 56 28.609375 56 
Q 40.484375 56 46.34375 49.84375 
Q 52.203125 43.703125 52.203125 31.203125 
z
" id="DejaVuSans-61"/>
      <path d="M 18.3125 70.21875 
L 18.3125 54.6875 
L 36.8125 54.6875 
L 36.8125 47.703125 
L 18.3125 47.703125 
L 18.3125 18.015625 
Q 18.3125 11.328125 20.140625 9.421875 
Q 21.96875 7.515625 27.59375 7.515625 
L 36.8125 7.515625 
L 36.8125 0 
L 27.59375 0 
Q 17.1875 0 13.234375 3.875 
Q 9.28125 7.765625 9.28125 18.015625 
L 9.28125 47.703125 
L 2.6875 47.703125 
L 2.6875 54.6875 
L 9.28125 54.6875 
L 9.28125 70.21875 
z
" id="DejaVuSans-74"/>
      <path d="M 9.421875 54.6875 
L 18.40625 54.6875 
L 18.40625 0 
L 9.421875 0 
z
M 9.421875 75.984375 
L 18.40625 75.984375 
L 18.40625 64.59375 
L 9.421875 64.59375 
z
" id="DejaVuSans-69"/>
      <path d="M 2.984375 54.6875 
L 12.5 54.6875 
L 29.59375 8.796875 
L 46.6875 54.6875 
L 56.203125 54.6875 
L 35.6875 0 
L 23.484375 0 
z
" id="DejaVuSans-76"/>
      <path d="M 56.203125 29.59375 
L 56.203125 25.203125 
L 14.890625 25.203125 
Q 15.484375 15.921875 20.484375 11.0625 
Q 25.484375 6.203125 34.421875 6.203125 
Q 39.59375 6.203125 44.453125 7.46875 
Q 49.3125 8.734375 54.109375 11.28125 
L 54.109375 2.78125 
Q 49.265625 0.734375 44.1875 -0.34375 
Q 39.109375 -1.421875 33.890625 -1.421875 
Q 20.796875 -1.421875 13.15625 6.1875 
Q 5.515625 13.8125 5.515625 26.8125 
Q 5.515625 40.234375 12.765625 48.109375 
Q 20.015625 56 32.328125 56 
Q 43.359375 56 49.78125 48.890625 
Q 56.203125 41.796875 56.203125 29.59375 
z
M 47.21875 32.234375 
Q 47.125 39.59375 43.09375 43.984375 
Q 39.0625 48.390625 32.421875 48.390625 
Q 24.90625 48.390625 20.390625 44.140625 
Q 15.875 39.890625 15.1875 32.171875 
z
" id="DejaVuSans-65"/>
      <path id="DejaVuSans-20"/>
      <path d="M 45.40625 46.390625 
L 45.40625 75.984375 
L 54.390625 75.984375 
L 54.390625 0 
L 45.40625 0 
L 45.40625 8.203125 
Q 42.578125 3.328125 38.25 0.953125 
Q 33.9375 -1.421875 27.875 -1.421875 
Q 17.96875 -1.421875 11.734375 6.484375 
Q 5.515625 14.40625 5.515625 27.296875 
Q 5.515625 40.1875 11.734375 48.09375 
Q 17.96875 56 27.875 56 
Q 33.9375 56 38.25 53.625 
Q 42.578125 51.265625 45.40625 46.390625 
z
M 14.796875 27.296875 
Q 14.796875 17.390625 18.875 11.75 
Q 22.953125 6.109375 30.078125 6.109375 
Q 37.203125 6.109375 41.296875 11.75 
Q 45.40625 17.390625 45.40625 27.296875 
Q 45.40625 37.203125 41.296875 42.84375 
Q 37.203125 48.484375 30.078125 48.484375 
Q 22.953125 48.484375 18.875 42.84375 
Q 14.796875 37.203125 14.796875 27.296875 
z
" id="DejaVuSans-64"/>
      <path d="M 54.890625 33.015625 
L 54.890625 0 
L 45.90625 0 
L 45.90625 32.71875 
Q 45.90625 40.484375 42.875 44.328125 
Q 39.84375 48.1875 33.796875 48.1875 
Q 26.515625 48.1875 22.3125 43.546875 
Q 18.109375 38.921875 18.109375 30.90625 
L 18.109375 0 
L 9.078125 0 
L 9.078125 75.984375 
L 18.109375 75.984375 
L 18.109375 46.1875 
Q 21.34375 51.125 25.703125 53.5625 
Q 30.078125 56 35.796875 56 
Q 45.21875 56 50.046875 50.171875 
Q 54.890625 44.34375 54.890625 33.015625 
z
" id="DejaVuSans-68"/>
      <path d="M 44.28125 53.078125 
L 44.28125 44.578125 
Q 40.484375 46.53125 36.375 47.5 
Q 32.28125 48.484375 27.875 48.484375 
Q 21.1875 48.484375 17.84375 46.4375 
Q 14.5 44.390625 14.5 40.28125 
Q 14.5 37.15625 16.890625 35.375 
Q 19.28125 33.59375 26.515625 31.984375 
L 29.59375 31.296875 
Q 39.15625 29.25 43.1875 25.515625 
Q 47.21875 21.78125 47.21875 15.09375 
Q 47.21875 7.46875 41.1875 3.015625 
Q 35.15625 -1.421875 24.609375 -1.421875 
Q 20.21875 -1.421875 15.453125 -0.5625 
Q 10.6875 0.296875 5.421875 2 
L 5.421875 11.28125 
Q 10.40625 8.6875 15.234375 7.390625 
Q 20.0625 6.109375 24.8125 6.109375 
Q 31.15625 6.109375 34.5625 8.28125 
Q 37.984375 10.453125 37.984375 14.40625 
Q 37.984375 18.0625 35.515625 20.015625 
Q 33.0625 21.96875 24.703125 23.78125 
L 21.578125 24.515625 
Q 13.234375 26.265625 9.515625 29.90625 
Q 5.8125 33.546875 5.8125 39.890625 
Q 5.8125 47.609375 11.28125 51.796875 
Q 16.75 56 26.8125 56 
Q 31.78125 56 36.171875 55.265625 
Q 40.578125 54.546875 44.28125 53.078125 
z
" id="DejaVuSans-73"/>
     </defs>
     <g style="fill:#ffffff;" transform="translate(18.730312 150.515)rotate(-90)scale(0.1 -0.1)">
      <use xlink:href="#DejaVuSans-43"/>
      <use x="69.824219" xlink:href="#DejaVuSans-75"/>
      <use x="133.203125" xlink:href="#DejaVuSans-6d"/>
      <use x="230.615234" xlink:href="#DejaVuSans-75"/>
      <use x="293.994141" xlink:href="#DejaVuSans-6c"/>
      <use x="321.777344" xlink:href="#DejaVuSans-61"/>
      <use x="383.056641" xlink:href="#DejaVuSans-74"/>
      <use x="422.265625" xlink:href="#DejaVuSans-69"/>
      <use x="450.048828" xlink:href="#DejaVuSans-76"/>
      <use x="509.228516" xlink:href="#DejaVuSans-65"/>
      <use x="570.751953" xlink:href="#DejaVuSans-20"/>
      <use x="602.539062" xlink:href="#DejaVuSans-64"/>
      <use x="666.015625" xlink:href="#DejaVuSans-65"/>
      <use x="727.539062" xlink:href="#DejaVuSans-61"/>
      <use x="788.818359" xlink:href="#DejaVuSans-74"/>
      <use x="828.027344" xlink:href="#DejaVuSans-68"/>
      <use x="891.40625" xlink:href="#DejaVuSans-73"/>
     </g>
    </g>
   </g>
   <g id="line2d_10">
    <path clip-path="url(#pade4338625)" d="M 76.193528 173.970806 
L 86.712154 173.622822 
L 97.23078 173.140999 
L 107.749407 172.632408 
L 118.268033 172.177352 
L 128.78666 171.615225 
L 139.305286 169.875307 
L 149.823913 169.393484 
L 160.342539 168.590445 
L 170.861165 167.359118 
L 181.379792 165.565664 
L 191.898418 164.03989 
L 202.417045 161.363093 
L 212.935671 158.017098 
L 223.454298 150.361459 
L 233.972924 146.988695 
L 244.49155 143.482091 
L 255.010177 139.199216 
L 265.528803 134.916342 
L 276.04743 130.446091 
L 286.566056 125.012194 
L 297.084683 120.06012 
L 307.603309 117.276251 
L 318.121935 107.479175 
L 328.640562 102.821549 
L 339.159188 99.100801 
L 349.677815 99.100801 
L 360.196441 99.100801 
L 370.715068 89.705245 
L 381.233694 87.055216 
L 391.75232 84.405187 
L 402.270947 81.781927 
" style="fill:none;stroke:#f77189;stroke-linecap:square;stroke-width:1.5;"/>
   </g>
   <g id="line2d_11">
    <path clip-path="url(#pade4338625)" d="M 402.270947 81.781927 
L 412.789573 77.006385 
L 423.3082 72.032204 
L 433.826826 66.869259 
L 444.345453 61.09136 
L 454.864079 55.418181 
" style="fill:none;stroke:#f77189;stroke-dasharray:1.5,2.475;stroke-dashoffset:0;stroke-width:1.5;"/>
   </g>
   <g id="line2d_12">
    <path clip-path="url(#pade4338625)" d="M 76.193528 173.78343 
L 86.712154 173.274839 
L 97.23078 172.73948 
L 107.749407 171.882905 
L 118.268033 171.02633 
L 128.78666 170.35713 
L 139.305286 168.563677 
L 149.823913 167.573262 
L 160.342539 166.181328 
L 170.861165 164.280802 
L 181.379792 162.380276 
L 191.898418 160.988342 
L 202.417045 158.552457 
L 212.935671 156.0095 
L 223.454298 152.5832 
L 233.972924 148.969525 
L 244.49155 144.124522 
L 255.010177 138.369409 
L 265.528803 136.870403 
L 276.04743 127.260703 
L 286.566056 124.878354 
L 297.084683 117.704539 
L 307.603309 117.704539 
L 318.121935 109.540309 
L 328.640562 104.641771 
L 339.159188 100.626576 
L 349.677815 100.626576 
L 360.196441 100.626576 
L 370.715068 90.990107 
L 381.233694 88.125935 
L 391.75232 85.234994 
L 402.270947 82.477894 
" style="fill:none;stroke:#ae9d31;stroke-linecap:square;stroke-width:1.5;"/>
   </g>
   <g id="line2d_13">
    <path clip-path="url(#pade4338625)" d="M 402.270947 82.477894 
L 412.789573 77.346353 
L 423.3082 72.058643 
L 433.826826 66.645448 
L 444.345453 60.683474 
L 454.864079 54.939664 
" style="fill:none;stroke:#ae9d31;stroke-dasharray:1.5,2.475;stroke-dashoffset:0;stroke-width:1.5;"/>
   </g>
   <g id="line2d_14">
    <path clip-path="url(#pade4338625)" d="M 76.193528 173.970806 
L 86.712154 173.596055 
L 97.23078 173.167767 
L 107.749407 172.73948 
L 118.268033 172.230888 
L 128.78666 171.641993 
L 139.305286 170.276827 
L 149.823913 169.31318 
L 160.342539 168.590445 
L 170.861165 167.33235 
L 181.379792 164.709089 
L 191.898418 163.076243 
L 202.417045 161.496933 
L 212.935671 158.927208 
L 223.454298 157.562042 
L 233.972924 155.367069 
L 244.49155 150.200851 
L 255.010177 147.550822 
L 265.528803 146.346264 
L 276.04743 141.12651 
L 286.566056 139.333056 
L 297.084683 136.870403 
L 307.603309 135.960292 
L 318.121935 130.017804 
L 328.640562 126.939487 
L 339.159188 124.958658 
L 349.677815 124.958658 
L 360.196441 124.958658 
L 370.715068 118.641418 
L 381.233694 117.062107 
L 391.75232 115.536333 
L 402.270947 113.903487 
" style="fill:none;stroke:#33b07a;stroke-linecap:square;stroke-width:1.5;"/>
   </g>
   <g id="line2d_15">
    <path clip-path="url(#pade4338625)" d="M 402.270947 113.903487 
L 412.789573 110.712818 
L 423.3082 107.38904 
L 433.826826 103.990381 
L 444.345453 100.272136 
L 454.864079 96.735503 
" style="fill:none;stroke:#33b07a;stroke-dasharray:1.5,2.475;stroke-dashoffset:0;stroke-width:1.5;"/>
   </g>
   <g id="line2d_16">
    <path clip-path="url(#pade4338625)" d="M 76.193528 174.158182 
L 86.712154 174.158182 
L 97.23078 174.158182 
L 107.749407 173.890502 
L 118.268033 173.836966 
L 128.78666 173.622822 
L 139.305286 173.408679 
L 149.823913 173.408679 
L 160.342539 173.060695 
L 170.861165 172.659176 
L 181.379792 172.311192 
L 191.898418 171.802601 
L 202.417045 170.517738 
L 212.935671 170.35713 
L 223.454298 164.146962 
L 233.972924 162.755028 
L 244.49155 160.961574 
L 255.010177 159.194888 
L 265.528803 153.252399 
L 276.04743 150.522067 
L 286.566056 148.514469 
L 297.084683 146.774551 
L 307.603309 146.051816 
L 318.121935 146.051816 
L 328.640562 146.051816 
L 339.159188 144.659882 
L 349.677815 144.659882 
L 360.196441 144.659882 
L 370.715068 140.055791 
L 381.233694 138.770929 
L 391.75232 137.138083 
L 402.270947 136.040596 
" style="fill:none;stroke:#38a9c5;stroke-linecap:square;stroke-width:1.5;"/>
   </g>
   <g id="line2d_17">
    <path clip-path="url(#pade4338625)" d="M 402.270947 136.040596 
L 412.789573 133.633273 
L 423.3082 131.266508 
L 433.826826 128.959685 
L 444.345453 126.603757 
L 454.864079 124.538707 
" style="fill:none;stroke:#38a9c5;stroke-dasharray:1.5,2.475;stroke-dashoffset:0;stroke-width:1.5;"/>
   </g>
   <g id="line2d_18">
    <path clip-path="url(#pade4338625)" d="M 76.193528 174.077878 
L 86.712154 173.836966 
L 97.23078 173.408679 
L 107.749407 173.194535 
L 118.268033 172.873319 
L 128.78666 172.60564 
L 139.305286 171.856137 
L 149.823913 171.588457 
L 160.342539 171.160169 
L 170.861165 170.89249 
L 181.379792 169.928843 
L 191.898418 169.580859 
L 202.417045 168.590445 
L 212.935671 167.278814 
L 223.454298 163.90605 
L 233.972924 162.674724 
L 244.49155 160.61359 
L 255.010177 158.177705 
L 265.528803 156.303948 
L 276.04743 154.778173 
L 286.566056 152.957952 
L 297.084683 151.619553 
L 307.603309 151.619553 
L 318.121935 148.568005 
L 328.640562 147.068999 
L 339.159188 145.703833 
L 349.677815 145.703833 
L 360.196441 145.703833 
L 370.715068 142.036621 
L 381.233694 140.832062 
L 391.75232 139.841648 
L 402.270947 138.556785 
" style="fill:none;stroke:#cc7af4;stroke-linecap:square;stroke-width:1.5;"/>
   </g>
   <g id="line2d_19">
    <path clip-path="url(#pade4338625)" d="M 402.270947 138.556785 
L 412.789573 137.024399 
L 423.3082 135.496638 
L 433.826826 134.031694 
L 444.345453 132.52728 
L 454.864079 131.254085 
" style="fill:none;stroke:#cc7af4;stroke-dasharray:1.5,2.475;stroke-dashoffset:0;stroke-width:1.5;"/>
   </g>
   <g id="patch_3">
    <path d="M 57.26 181.24 
L 57.26 25.44 
" style="fill:none;stroke:#ffffff;stroke-linecap:square;stroke-linejoin:miter;stroke-width:0.8;"/>
   </g>
   <g id="patch_4">
    <path d="M 562.68 181.24 
L 562.68 25.44 
" style="fill:none;stroke:#ffffff;stroke-linecap:square;stroke-linejoin:miter;stroke-width:0.8;"/>
   </g>
   <g id="patch_5">
    <path d="M 57.26 181.24 
L 562.68 181.24 
" style="fill:none;stroke:#ffffff;stroke-linecap:square;stroke-linejoin:miter;stroke-width:0.8;"/>
   </g>
   <g id="patch_6">
    <path d="M 57.26 25.44 
L 562.68 25.44 
" style="fill:none;stroke:#ffffff;stroke-linecap:square;stroke-linejoin:miter;stroke-width:0.8;"/>
   </g>
   <g id="text_11">
    <!-- Kings, NY -->
    <defs>
     <path d="M 9.8125 72.90625 
L 19.671875 72.90625 
L 19.671875 42.09375 
L 52.390625 72.90625 
L 65.09375 72.90625 
L 28.90625 38.921875 
L 67.671875 0 
L 54.6875 0 
L 19.671875 35.109375 
L 19.671875 0 
L 9.8125 0 
z
" id="DejaVuSans-4b"/>
     <path d="M 54.890625 33.015625 
L 54.890625 0 
L 45.90625 0 
L 45.90625 32.71875 
Q 45.90625 40.484375 42.875 44.328125 
Q 39.84375 48.1875 33.796875 48.1875 
Q 26.515625 48.1875 22.3125 43.546875 
Q 18.109375 38.921875 18.109375 30.90625 
L 18.109375 0 
L 9.078125 0 
L 9.078125 54.6875 
L 18.109375 54.6875 
L 18.109375 46.1875 
Q 21.34375 51.125 25.703125 53.5625 
Q 30.078125 56 35.796875 56 
Q 45.21875 56 50.046875 50.171875 
Q 54.890625 44.34375 54.890625 33.015625 
z
" id="DejaVuSans-6e"/>
     <path d="M 45.40625 27.984375 
Q 45.40625 37.75 41.375 43.109375 
Q 37.359375 48.484375 30.078125 48.484375 
Q 22.859375 48.484375 18.828125 43.109375 
Q 14.796875 37.75 14.796875 27.984375 
Q 14.796875 18.265625 18.828125 12.890625 
Q 22.859375 7.515625 30.078125 7.515625 
Q 37.359375 7.515625 41.375 12.890625 
Q 45.40625 18.265625 45.40625 27.984375 
z
M 54.390625 6.78125 
Q 54.390625 -7.171875 48.1875 -13.984375 
Q 42 -20.796875 29.203125 -20.796875 
Q 24.46875 -20.796875 20.265625 -20.09375 
Q 16.0625 -19.390625 12.109375 -17.921875 
L 12.109375 -9.1875 
Q 16.0625 -11.328125 19.921875 -12.34375 
Q 23.78125 -13.375 27.78125 -13.375 
Q 36.625 -13.375 41.015625 -8.765625 
Q 45.40625 -4.15625 45.40625 5.171875 
L 45.40625 9.625 
Q 42.625 4.78125 38.28125 2.390625 
Q 33.9375 0 27.875 0 
Q 17.828125 0 11.671875 7.65625 
Q 5.515625 15.328125 5.515625 27.984375 
Q 5.515625 40.671875 11.671875 48.328125 
Q 17.828125 56 27.875 56 
Q 33.9375 56 38.28125 53.609375 
Q 42.625 51.21875 45.40625 46.390625 
L 45.40625 54.6875 
L 54.390625 54.6875 
z
" id="DejaVuSans-67"/>
     <path d="M 11.71875 12.40625 
L 22.015625 12.40625 
L 22.015625 4 
L 14.015625 -11.625 
L 7.71875 -11.625 
L 11.71875 4 
z
" id="DejaVuSans-2c"/>
     <path d="M 9.8125 72.90625 
L 23.09375 72.90625 
L 55.421875 11.921875 
L 55.421875 72.90625 
L 64.984375 72.90625 
L 64.984375 0 
L 51.703125 0 
L 19.390625 60.984375 
L 19.390625 0 
L 9.8125 0 
z
" id="DejaVuSans-4e"/>
     <path d="M -0.203125 72.90625 
L 10.40625 72.90625 
L 30.609375 42.921875 
L 50.6875 72.90625 
L 61.28125 72.90625 
L 35.5 34.71875 
L 35.5 0 
L 25.59375 0 
L 25.59375 34.71875 
z
" id="DejaVuSans-59"/>
    </defs>
    <g style="fill:#f77189;" transform="translate(465.382706 62.284623)scale(0.08 -0.08)">
     <use xlink:href="#DejaVuSans-4b"/>
     <use x="65.576172" xlink:href="#DejaVuSans-69"/>
     <use x="93.359375" xlink:href="#DejaVuSans-6e"/>
     <use x="156.738281" xlink:href="#DejaVuSans-67"/>
     <use x="220.214844" xlink:href="#DejaVuSans-73"/>
     <use x="272.314453" xlink:href="#DejaVuSans-2c"/>
     <use x="304.101562" xlink:href="#DejaVuSans-20"/>
     <use x="335.888672" xlink:href="#DejaVuSans-4e"/>
     <use x="410.693359" xlink:href="#DejaVuSans-59"/>
    </g>
   </g>
   <g id="text_12">
    <!-- Queens, NY -->
    <defs>
     <path d="M 39.40625 66.21875 
Q 28.65625 66.21875 22.328125 58.203125 
Q 16.015625 50.203125 16.015625 36.375 
Q 16.015625 22.609375 22.328125 14.59375 
Q 28.65625 6.59375 39.40625 6.59375 
Q 50.140625 6.59375 56.421875 14.59375 
Q 62.703125 22.609375 62.703125 36.375 
Q 62.703125 50.203125 56.421875 58.203125 
Q 50.140625 66.21875 39.40625 66.21875 
z
M 53.21875 1.3125 
L 66.21875 -12.890625 
L 54.296875 -12.890625 
L 43.5 -1.21875 
Q 41.890625 -1.3125 41.03125 -1.359375 
Q 40.1875 -1.421875 39.40625 -1.421875 
Q 24.03125 -1.421875 14.8125 8.859375 
Q 5.609375 19.140625 5.609375 36.375 
Q 5.609375 53.65625 14.8125 63.9375 
Q 24.03125 74.21875 39.40625 74.21875 
Q 54.734375 74.21875 63.90625 63.9375 
Q 73.09375 53.65625 73.09375 36.375 
Q 73.09375 23.6875 67.984375 14.640625 
Q 62.890625 5.609375 53.21875 1.3125 
z
" id="DejaVuSans-51"/>
    </defs>
    <g style="fill:#ae9d31;" transform="translate(418.976456 52.488222)scale(0.08 -0.08)">
     <use xlink:href="#DejaVuSans-51"/>
     <use x="78.710938" xlink:href="#DejaVuSans-75"/>
     <use x="142.089844" xlink:href="#DejaVuSans-65"/>
     <use x="203.613281" xlink:href="#DejaVuSans-65"/>
     <use x="265.136719" xlink:href="#DejaVuSans-6e"/>
     <use x="328.515625" xlink:href="#DejaVuSans-73"/>
     <use x="380.615234" xlink:href="#DejaVuSans-2c"/>
     <use x="412.402344" xlink:href="#DejaVuSans-20"/>
     <use x="444.189453" xlink:href="#DejaVuSans-4e"/>
     <use x="518.994141" xlink:href="#DejaVuSans-59"/>
    </g>
   </g>
   <g id="text_13">
    <!-- Bronx, NY -->
    <defs>
     <path d="M 19.671875 34.8125 
L 19.671875 8.109375 
L 35.5 8.109375 
Q 43.453125 8.109375 47.28125 11.40625 
Q 51.125 14.703125 51.125 21.484375 
Q 51.125 28.328125 47.28125 31.5625 
Q 43.453125 34.8125 35.5 34.8125 
z
M 19.671875 64.796875 
L 19.671875 42.828125 
L 34.28125 42.828125 
Q 41.5 42.828125 45.03125 45.53125 
Q 48.578125 48.25 48.578125 53.8125 
Q 48.578125 59.328125 45.03125 62.0625 
Q 41.5 64.796875 34.28125 64.796875 
z
M 9.8125 72.90625 
L 35.015625 72.90625 
Q 46.296875 72.90625 52.390625 68.21875 
Q 58.5 63.53125 58.5 54.890625 
Q 58.5 48.1875 55.375 44.234375 
Q 52.25 40.28125 46.1875 39.3125 
Q 53.46875 37.75 57.5 32.78125 
Q 61.53125 27.828125 61.53125 20.40625 
Q 61.53125 10.640625 54.890625 5.3125 
Q 48.25 0 35.984375 0 
L 9.8125 0 
z
" id="DejaVuSans-42"/>
     <path d="M 41.109375 46.296875 
Q 39.59375 47.171875 37.8125 47.578125 
Q 36.03125 48 33.890625 48 
Q 26.265625 48 22.1875 43.046875 
Q 18.109375 38.09375 18.109375 28.8125 
L 18.109375 0 
L 9.078125 0 
L 9.078125 54.6875 
L 18.109375 54.6875 
L 18.109375 46.1875 
Q 20.953125 51.171875 25.484375 53.578125 
Q 30.03125 56 36.53125 56 
Q 37.453125 56 38.578125 55.875 
Q 39.703125 55.765625 41.0625 55.515625 
z
" id="DejaVuSans-72"/>
     <path d="M 30.609375 48.390625 
Q 23.390625 48.390625 19.1875 42.75 
Q 14.984375 37.109375 14.984375 27.296875 
Q 14.984375 17.484375 19.15625 11.84375 
Q 23.34375 6.203125 30.609375 6.203125 
Q 37.796875 6.203125 41.984375 11.859375 
Q 46.1875 17.53125 46.1875 27.296875 
Q 46.1875 37.015625 41.984375 42.703125 
Q 37.796875 48.390625 30.609375 48.390625 
z
M 30.609375 56 
Q 42.328125 56 49.015625 48.375 
Q 55.71875 40.765625 55.71875 27.296875 
Q 55.71875 13.875 49.015625 6.21875 
Q 42.328125 -1.421875 30.609375 -1.421875 
Q 18.84375 -1.421875 12.171875 6.21875 
Q 5.515625 13.875 5.515625 27.296875 
Q 5.515625 40.765625 12.171875 48.375 
Q 18.84375 56 30.609375 56 
z
" id="DejaVuSans-6f"/>
     <path d="M 54.890625 54.6875 
L 35.109375 28.078125 
L 55.90625 0 
L 45.3125 0 
L 29.390625 21.484375 
L 13.484375 0 
L 2.875 0 
L 24.125 28.609375 
L 4.6875 54.6875 
L 15.28125 54.6875 
L 29.78125 35.203125 
L 44.28125 54.6875 
z
" id="DejaVuSans-78"/>
    </defs>
    <g style="fill:#33b07a;" transform="translate(465.382706 94.35514)scale(0.08 -0.08)">
     <use xlink:href="#DejaVuSans-42"/>
     <use x="68.603516" xlink:href="#DejaVuSans-72"/>
     <use x="109.685547" xlink:href="#DejaVuSans-6f"/>
     <use x="170.867188" xlink:href="#DejaVuSans-6e"/>
     <use x="234.246094" xlink:href="#DejaVuSans-78"/>
     <use x="293.425781" xlink:href="#DejaVuSans-2c"/>
     <use x="325.212891" xlink:href="#DejaVuSans-20"/>
     <use x="357" xlink:href="#DejaVuSans-4e"/>
     <use x="431.804688" xlink:href="#DejaVuSans-59"/>
    </g>
   </g>
   <g id="text_14">
    <!-- Nassau, NY -->
    <g style="fill:#38a9c5;" transform="translate(465.382706 122.158344)scale(0.08 -0.08)">
     <use xlink:href="#DejaVuSans-4e"/>
     <use x="74.804688" xlink:href="#DejaVuSans-61"/>
     <use x="136.083984" xlink:href="#DejaVuSans-73"/>
     <use x="188.183594" xlink:href="#DejaVuSans-73"/>
     <use x="240.283203" xlink:href="#DejaVuSans-61"/>
     <use x="301.5625" xlink:href="#DejaVuSans-75"/>
     <use x="364.941406" xlink:href="#DejaVuSans-2c"/>
     <use x="396.728516" xlink:href="#DejaVuSans-20"/>
     <use x="428.515625" xlink:href="#DejaVuSans-4e"/>
     <use x="503.320312" xlink:href="#DejaVuSans-59"/>
    </g>
   </g>
   <g id="text_15">
    <!-- New York, NY -->
    <defs>
     <path d="M 4.203125 54.6875 
L 13.1875 54.6875 
L 24.421875 12.015625 
L 35.59375 54.6875 
L 46.1875 54.6875 
L 57.421875 12.015625 
L 68.609375 54.6875 
L 77.59375 54.6875 
L 63.28125 0 
L 52.6875 0 
L 40.921875 44.828125 
L 29.109375 0 
L 18.5 0 
z
" id="DejaVuSans-77"/>
     <path d="M 9.078125 75.984375 
L 18.109375 75.984375 
L 18.109375 31.109375 
L 44.921875 54.6875 
L 56.390625 54.6875 
L 27.390625 29.109375 
L 57.625 0 
L 45.90625 0 
L 18.109375 26.703125 
L 18.109375 0 
L 9.078125 0 
z
" id="DejaVuSans-6b"/>
    </defs>
    <g style="fill:#cc7af4;" transform="translate(465.382706 138.049447)scale(0.08 -0.08)">
     <use xlink:href="#DejaVuSans-4e"/>
     <use x="74.804688" xlink:href="#DejaVuSans-65"/>
     <use x="136.328125" xlink:href="#DejaVuSans-77"/>
     <use x="218.115234" xlink:href="#DejaVuSans-20"/>
     <use x="249.902344" xlink:href="#DejaVuSans-59"/>
     <use x="310.783203" xlink:href="#DejaVuSans-6f"/>
     <use x="371.964844" xlink:href="#DejaVuSans-72"/>
     <use x="413.078125" xlink:href="#DejaVuSans-6b"/>
     <use x="470.988281" xlink:href="#DejaVuSans-2c"/>
     <use x="502.775391" xlink:href="#DejaVuSans-20"/>
     <use x="534.5625" xlink:href="#DejaVuSans-4e"/>
     <use x="609.367188" xlink:href="#DejaVuSans-59"/>
    </g>
   </g>
   <g id="text_16">
    <!-- Most-affected counties -->
    <defs>
     <path d="M 9.8125 72.90625 
L 24.515625 72.90625 
L 43.109375 23.296875 
L 61.8125 72.90625 
L 76.515625 72.90625 
L 76.515625 0 
L 66.890625 0 
L 66.890625 64.015625 
L 48.09375 14.015625 
L 38.1875 14.015625 
L 19.390625 64.015625 
L 19.390625 0 
L 9.8125 0 
z
" id="DejaVuSans-4d"/>
     <path d="M 4.890625 31.390625 
L 31.203125 31.390625 
L 31.203125 23.390625 
L 4.890625 23.390625 
z
" id="DejaVuSans-2d"/>
     <path d="M 37.109375 75.984375 
L 37.109375 68.5 
L 28.515625 68.5 
Q 23.6875 68.5 21.796875 66.546875 
Q 19.921875 64.59375 19.921875 59.515625 
L 19.921875 54.6875 
L 34.71875 54.6875 
L 34.71875 47.703125 
L 19.921875 47.703125 
L 19.921875 0 
L 10.890625 0 
L 10.890625 47.703125 
L 2.296875 47.703125 
L 2.296875 54.6875 
L 10.890625 54.6875 
L 10.890625 58.5 
Q 10.890625 67.625 15.140625 71.796875 
Q 19.390625 75.984375 28.609375 75.984375 
z
" id="DejaVuSans-66"/>
     <path d="M 48.78125 52.59375 
L 48.78125 44.1875 
Q 44.96875 46.296875 41.140625 47.34375 
Q 37.3125 48.390625 33.40625 48.390625 
Q 24.65625 48.390625 19.8125 42.84375 
Q 14.984375 37.3125 14.984375 27.296875 
Q 14.984375 17.28125 19.8125 11.734375 
Q 24.65625 6.203125 33.40625 6.203125 
Q 37.3125 6.203125 41.140625 7.25 
Q 44.96875 8.296875 48.78125 10.40625 
L 48.78125 2.09375 
Q 45.015625 0.34375 40.984375 -0.53125 
Q 36.96875 -1.421875 32.421875 -1.421875 
Q 20.0625 -1.421875 12.78125 6.34375 
Q 5.515625 14.109375 5.515625 27.296875 
Q 5.515625 40.671875 12.859375 48.328125 
Q 20.21875 56 33.015625 56 
Q 37.15625 56 41.109375 55.140625 
Q 45.0625 54.296875 48.78125 52.59375 
z
" id="DejaVuSans-63"/>
    </defs>
    <g style="fill:#ffffff;" transform="translate(241.415312 19.44)scale(0.12 -0.12)">
     <use xlink:href="#DejaVuSans-4d"/>
     <use x="86.279297" xlink:href="#DejaVuSans-6f"/>
     <use x="147.460938" xlink:href="#DejaVuSans-73"/>
     <use x="199.560547" xlink:href="#DejaVuSans-74"/>
     <use x="238.769531" xlink:href="#DejaVuSans-2d"/>
     <use x="274.853516" xlink:href="#DejaVuSans-61"/>
     <use x="336.132812" xlink:href="#DejaVuSans-66"/>
     <use x="371.337891" xlink:href="#DejaVuSans-66"/>
     <use x="406.542969" xlink:href="#DejaVuSans-65"/>
     <use x="468.066406" xlink:href="#DejaVuSans-63"/>
     <use x="523.046875" xlink:href="#DejaVuSans-74"/>
     <use x="562.255859" xlink:href="#DejaVuSans-65"/>
     <use x="623.779297" xlink:href="#DejaVuSans-64"/>
     <use x="687.255859" xlink:href="#DejaVuSans-20"/>
     <use x="719.042969" xlink:href="#DejaVuSans-63"/>
     <use x="774.023438" xlink:href="#DejaVuSans-6f"/>
     <use x="835.205078" xlink:href="#DejaVuSans-75"/>
     <use x="898.583984" xlink:href="#DejaVuSans-6e"/>
     <use x="961.962891" xlink:href="#DejaVuSans-74"/>
     <use x="1001.171875" xlink:href="#DejaVuSans-69"/>
     <use x="1028.955078" xlink:href="#DejaVuSans-65"/>
     <use x="1090.478516" xlink:href="#DejaVuSans-73"/>
    </g>
   </g>
  </g>
  <g id="axes_2">
   <g id="patch_7">
    <path d="M 57.26 393.64 
L 562.68 393.64 
L 562.68 237.84 
L 57.26 237.84 
z
"/>
   </g>
   <g id="PolyCollection_6">
    <defs>
     <path d="M 396.687022 -364.041483 
L 396.687022 -364.041483 
L 408.134813 -364.041483 
L 419.582605 -366.388052 
L 431.030396 -367.249311 
L 442.478188 -366.774407 
L 453.92598 -374.985959 
L 453.92598 -403.078182 
L 453.92598 -403.078182 
L 442.478188 -401.317603 
L 431.030396 -391.049602 
L 419.582605 -382.353906 
L 408.134813 -377.003202 
L 396.687022 -364.041483 
z
" id="mdc85117e03" style="stroke:#f77189;stroke-opacity:0.1;"/>
    </defs>
    <g clip-path="url(#pfc3b01396d)">
     <use style="fill:#f77189;fill-opacity:0.1;stroke:#f77189;stroke-opacity:0.1;" x="0" xlink:href="#mdc85117e03" y="648"/>
    </g>
   </g>
   <g id="PolyCollection_7">
    <defs>
     <path d="M 396.687022 -341.761776 
L 396.687022 -341.761776 
L 408.134813 -341.841765 
L 419.582605 -342.761457 
L 431.030396 -347.545503 
L 442.478188 -345.951861 
L 453.92598 -352.404461 
L 453.92598 -388.566362 
L 453.92598 -388.566362 
L 442.478188 -382.452862 
L 431.030396 -369.249916 
L 419.582605 -362.81777 
L 408.134813 -353.307494 
L 396.687022 -341.761776 
z
" id="mf05ff6bdcb" style="stroke:#bb9832;stroke-opacity:0.1;"/>
    </defs>
    <g clip-path="url(#pfc3b01396d)">
     <use style="fill:#bb9832;fill-opacity:0.1;stroke:#bb9832;stroke-opacity:0.1;" x="0" xlink:href="#mf05ff6bdcb" y="648"/>
    </g>
   </g>
   <g id="PolyCollection_8">
    <defs>
     <path d="M 396.687022 -329.411069 
L 396.687022 -329.411069 
L 408.134813 -329.411069 
L 419.582605 -329.645942 
L 431.030396 -330.850156 
L 442.478188 -329.411069 
L 453.92598 -333.042922 
L 453.92598 -366.503163 
L 453.92598 -366.503163 
L 442.478188 -361.717228 
L 431.030396 -352.067214 
L 419.582605 -345.431569 
L 408.134813 -338.910334 
L 396.687022 -329.411069 
z
" id="m37e8f3bdd5" style="stroke:#50b131;stroke-opacity:0.1;"/>
    </defs>
    <g clip-path="url(#pfc3b01396d)">
     <use style="fill:#50b131;fill-opacity:0.1;stroke:#50b131;stroke-opacity:0.1;" x="0" xlink:href="#m37e8f3bdd5" y="648"/>
    </g>
   </g>
   <g id="PolyCollection_9">
    <defs>
     <path d="M 396.687022 -328.280939 
L 396.687022 -328.280939 
L 408.134813 -328.280939 
L 419.582605 -328.301473 
L 431.030396 -328.280939 
L 442.478188 -328.280939 
L 453.92598 -328.280939 
L 453.92598 -360.992772 
L 453.92598 -360.992772 
L 442.478188 -352.095343 
L 431.030396 -345.257938 
L 419.582605 -339.354248 
L 408.134813 -334.611244 
L 396.687022 -328.280939 
z
" id="m36f62244c4" style="stroke:#36ada4;stroke-opacity:0.1;"/>
    </defs>
    <g clip-path="url(#pfc3b01396d)">
     <use style="fill:#36ada4;fill-opacity:0.1;stroke:#36ada4;stroke-opacity:0.1;" x="0" xlink:href="#m36f62244c4" y="648"/>
    </g>
   </g>
   <g id="PolyCollection_10">
    <defs>
     <path d="M 396.687022 -319.72424 
L 396.687022 -319.72424 
L 408.134813 -319.72424 
L 419.582605 -320.458728 
L 431.030396 -323.505418 
L 442.478188 -328.157662 
L 453.92598 -330.959682 
L 453.92598 -353.274873 
L 453.92598 -353.274873 
L 442.478188 -346.219426 
L 431.030396 -341.608157 
L 419.582605 -335.426007 
L 408.134813 -327.774702 
L 396.687022 -319.72424 
z
" id="mcc55b0b019" style="stroke:#3ba3ec;stroke-opacity:0.1;"/>
    </defs>
    <g clip-path="url(#pfc3b01396d)">
     <use style="fill:#3ba3ec;fill-opacity:0.1;stroke:#3ba3ec;stroke-opacity:0.1;" x="0" xlink:href="#mcc55b0b019" y="648"/>
    </g>
   </g>
   <g id="PolyCollection_11">
    <defs>
     <path d="M 396.687022 -304.790378 
L 396.687022 -304.790378 
L 408.134813 -304.790378 
L 419.582605 -304.790378 
L 431.030396 -304.790378 
L 442.478188 -309.375704 
L 453.92598 -310.174252 
L 453.92598 -330.748954 
L 453.92598 -330.748954 
L 442.478188 -325.104617 
L 431.030396 -323.560805 
L 419.582605 -317.710966 
L 408.134813 -312.27122 
L 396.687022 -304.790378 
z
" id="mb293b44a25" style="stroke:#e866f4;stroke-opacity:0.1;"/>
    </defs>
    <g clip-path="url(#pfc3b01396d)">
     <use style="fill:#e866f4;fill-opacity:0.1;stroke:#e866f4;stroke-opacity:0.1;" x="0" xlink:href="#mb293b44a25" y="648"/>
    </g>
   </g>
   <g id="matplotlib.axis_3">
    <g id="xtick_4">
     <g id="line2d_20">
      <g>
       <use style="fill:#ffffff;stroke:#ffffff;stroke-width:0.8;" x="76.148856" xlink:href="#m23b5ad83b3" y="393.64"/>
      </g>
     </g>
     <g id="text_17">
      <!-- 3/25 -->
      <g style="fill:#ffffff;" transform="translate(64.920731 408.238437)scale(0.1 -0.1)">
       <use xlink:href="#DejaVuSans-33"/>
       <use x="63.623047" xlink:href="#DejaVuSans-2f"/>
       <use x="97.314453" xlink:href="#DejaVuSans-32"/>
       <use x="160.9375" xlink:href="#DejaVuSans-35"/>
      </g>
     </g>
    </g>
    <g id="xtick_5">
     <g id="line2d_21">
      <g>
       <use style="fill:#ffffff;stroke:#ffffff;stroke-width:0.8;" x="396.687022" xlink:href="#m23b5ad83b3" y="393.64"/>
      </g>
     </g>
     <g id="text_18">
      <!-- 4/23 -->
      <g style="fill:#ffffff;" transform="translate(385.458897 408.238437)scale(0.1 -0.1)">
       <use xlink:href="#DejaVuSans-34"/>
       <use x="63.623047" xlink:href="#DejaVuSans-2f"/>
       <use x="97.314453" xlink:href="#DejaVuSans-32"/>
       <use x="160.9375" xlink:href="#DejaVuSans-33"/>
      </g>
     </g>
    </g>
    <g id="xtick_6">
     <g id="line2d_22">
      <g>
       <use style="fill:#ffffff;stroke:#ffffff;stroke-width:0.8;" x="453.92598" xlink:href="#m23b5ad83b3" y="393.64"/>
      </g>
     </g>
     <g id="text_19">
      <!-- 4/28 -->
      <g style="fill:#ffffff;" transform="translate(442.697855 408.238437)scale(0.1 -0.1)">
       <use xlink:href="#DejaVuSans-34"/>
       <use x="63.623047" xlink:href="#DejaVuSans-2f"/>
       <use x="97.314453" xlink:href="#DejaVuSans-32"/>
       <use x="160.9375" xlink:href="#DejaVuSans-38"/>
      </g>
     </g>
    </g>
    <g id="text_20">
     <!-- Days -->
     <defs>
      <path d="M 19.671875 64.796875 
L 19.671875 8.109375 
L 31.59375 8.109375 
Q 46.6875 8.109375 53.6875 14.9375 
Q 60.6875 21.78125 60.6875 36.53125 
Q 60.6875 51.171875 53.6875 57.984375 
Q 46.6875 64.796875 31.59375 64.796875 
z
M 9.8125 72.90625 
L 30.078125 72.90625 
Q 51.265625 72.90625 61.171875 64.09375 
Q 71.09375 55.28125 71.09375 36.53125 
Q 71.09375 17.671875 61.125 8.828125 
Q 51.171875 0 30.078125 0 
L 9.8125 0 
z
" id="DejaVuSans-44"/>
      <path d="M 32.171875 -5.078125 
Q 28.375 -14.84375 24.75 -17.8125 
Q 21.140625 -20.796875 15.09375 -20.796875 
L 7.90625 -20.796875 
L 7.90625 -13.28125 
L 13.1875 -13.28125 
Q 16.890625 -13.28125 18.9375 -11.515625 
Q 21 -9.765625 23.484375 -3.21875 
L 25.09375 0.875 
L 2.984375 54.6875 
L 12.5 54.6875 
L 29.59375 11.921875 
L 46.6875 54.6875 
L 56.203125 54.6875 
z
" id="DejaVuSans-79"/>
     </defs>
     <g style="fill:#ffffff;" transform="translate(297.491875 421.916562)scale(0.1 -0.1)">
      <use xlink:href="#DejaVuSans-44"/>
      <use x="77.001953" xlink:href="#DejaVuSans-61"/>
      <use x="138.28125" xlink:href="#DejaVuSans-79"/>
      <use x="197.460938" xlink:href="#DejaVuSans-73"/>
     </g>
    </g>
   </g>
   <g id="matplotlib.axis_4">
    <g id="ytick_7">
     <g id="line2d_23">
      <g>
       <use style="fill:#ffffff;stroke:#ffffff;stroke-width:0.8;" x="57.26" xlink:href="#m131d3105c9" y="387.123247"/>
      </g>
     </g>
     <g id="text_21">
      <!-- 0 -->
      <g style="fill:#ffffff;" transform="translate(43.8975 390.922466)scale(0.1 -0.1)">
       <use xlink:href="#DejaVuSans-30"/>
      </g>
     </g>
    </g>
    <g id="ytick_8">
     <g id="line2d_24">
      <g>
       <use style="fill:#ffffff;stroke:#ffffff;stroke-width:0.8;" x="57.26" xlink:href="#m131d3105c9" y="346.761459"/>
      </g>
     </g>
     <g id="text_22">
      <!-- 500 -->
      <g style="fill:#ffffff;" transform="translate(31.1725 350.560678)scale(0.1 -0.1)">
       <use xlink:href="#DejaVuSans-35"/>
       <use x="63.623047" xlink:href="#DejaVuSans-30"/>
       <use x="127.246094" xlink:href="#DejaVuSans-30"/>
      </g>
     </g>
    </g>
    <g id="ytick_9">
     <g id="line2d_25">
      <g>
       <use style="fill:#ffffff;stroke:#ffffff;stroke-width:0.8;" x="57.26" xlink:href="#m131d3105c9" y="306.399671"/>
      </g>
     </g>
     <g id="text_23">
      <!-- 1000 -->
      <g style="fill:#ffffff;" transform="translate(24.81 310.19889)scale(0.1 -0.1)">
       <use xlink:href="#DejaVuSans-31"/>
       <use x="63.623047" xlink:href="#DejaVuSans-30"/>
       <use x="127.246094" xlink:href="#DejaVuSans-30"/>
       <use x="190.869141" xlink:href="#DejaVuSans-30"/>
      </g>
     </g>
    </g>
    <g id="ytick_10">
     <g id="line2d_26">
      <g>
       <use style="fill:#ffffff;stroke:#ffffff;stroke-width:0.8;" x="57.26" xlink:href="#m131d3105c9" y="266.037883"/>
      </g>
     </g>
     <g id="text_24">
      <!-- 1500 -->
      <g style="fill:#ffffff;" transform="translate(24.81 269.837102)scale(0.1 -0.1)">
       <use xlink:href="#DejaVuSans-31"/>
       <use x="63.623047" xlink:href="#DejaVuSans-35"/>
       <use x="127.246094" xlink:href="#DejaVuSans-30"/>
       <use x="190.869141" xlink:href="#DejaVuSans-30"/>
      </g>
     </g>
    </g>
    <g id="text_25">
     <!-- Cumulative deaths -->
     <g style="fill:#ffffff;" transform="translate(18.730312 362.915)rotate(-90)scale(0.1 -0.1)">
      <use xlink:href="#DejaVuSans-43"/>
      <use x="69.824219" xlink:href="#DejaVuSans-75"/>
      <use x="133.203125" xlink:href="#DejaVuSans-6d"/>
      <use x="230.615234" xlink:href="#DejaVuSans-75"/>
      <use x="293.994141" xlink:href="#DejaVuSans-6c"/>
      <use x="321.777344" xlink:href="#DejaVuSans-61"/>
      <use x="383.056641" xlink:href="#DejaVuSans-74"/>
      <use x="422.265625" xlink:href="#DejaVuSans-69"/>
      <use x="450.048828" xlink:href="#DejaVuSans-76"/>
      <use x="509.228516" xlink:href="#DejaVuSans-65"/>
      <use x="570.751953" xlink:href="#DejaVuSans-20"/>
      <use x="602.539062" xlink:href="#DejaVuSans-64"/>
      <use x="666.015625" xlink:href="#DejaVuSans-65"/>
      <use x="727.539062" xlink:href="#DejaVuSans-61"/>
      <use x="788.818359" xlink:href="#DejaVuSans-74"/>
      <use x="828.027344" xlink:href="#DejaVuSans-68"/>
      <use x="891.40625" xlink:href="#DejaVuSans-73"/>
     </g>
    </g>
   </g>
   <g id="line2d_27">
    <path clip-path="url(#pfc3b01396d)" d="M 76.148856 385.428052 
L 87.596648 385.024434 
L 99.044439 384.136475 
L 110.492231 383.409962 
L 121.940023 382.602727 
L 133.387814 380.42319 
L 144.835606 377.436418 
L 156.283398 375.337605 
L 167.731189 371.462873 
L 179.178981 369.121889 
L 190.626772 366.780906 
L 202.074564 363.471239 
L 213.522356 359.19289 
L 224.970147 354.672369 
L 236.417939 351.120532 
L 247.86573 346.438565 
L 259.313522 337.962589 
L 270.761314 334.491476 
L 282.209105 330.29385 
L 293.656897 330.29385 
L 305.104689 320.929915 
L 316.55248 315.763606 
L 328.000272 307.933419 
L 339.448063 302.847834 
L 350.895855 300.749021 
L 362.343647 296.793566 
L 373.791438 294.452582 
L 385.23923 283.958517 
L 396.687022 283.958517 
" style="fill:none;stroke:#f77189;stroke-linecap:square;stroke-width:1.5;"/>
   </g>
   <g id="line2d_28">
    <path clip-path="url(#pfc3b01396d)" d="M 396.687022 283.958517 
L 408.134813 278.517868 
L 419.582605 273.568293 
L 431.030396 268.559955 
L 442.478188 263.443896 
L 453.92598 258.393462 
" style="fill:none;stroke:#f77189;stroke-dasharray:1.5,2.475;stroke-dashoffset:0;stroke-width:1.5;"/>
   </g>
   <g id="line2d_29">
    <path clip-path="url(#pfc3b01396d)" d="M 76.148856 386.07384 
L 87.596648 385.670222 
L 99.044439 385.508775 
L 110.492231 384.862987 
L 121.940023 383.894304 
L 133.387814 383.57141 
L 144.835606 382.199109 
L 156.283398 379.454507 
L 167.731189 378.485824 
L 179.178981 375.741223 
L 190.626772 373.64241 
L 202.074564 372.108662 
L 213.522356 370.25202 
L 224.970147 367.023077 
L 236.417939 361.937491 
L 247.86573 358.789272 
L 259.313522 354.995264 
L 270.761314 350.555467 
L 282.209105 347.972313 
L 293.656897 347.972313 
L 305.104689 340.545744 
L 316.55248 336.267394 
L 328.000272 328.840825 
L 339.448063 325.773329 
L 350.895855 317.700972 
L 362.343647 316.328671 
L 373.791438 313.261175 
L 385.23923 306.238224 
L 396.687022 306.238224 
" style="fill:none;stroke:#bb9832;stroke-linecap:square;stroke-width:1.5;"/>
   </g>
   <g id="line2d_30">
    <path clip-path="url(#pfc3b01396d)" d="M 396.687022 306.238224 
L 408.134813 299.662077 
L 419.582605 293.516046 
L 431.030396 287.269777 
L 442.478188 281.091063 
L 453.92598 274.826171 
" style="fill:none;stroke:#bb9832;stroke-dasharray:1.5,2.475;stroke-dashoffset:0;stroke-width:1.5;"/>
   </g>
   <g id="line2d_31">
    <path clip-path="url(#pfc3b01396d)" d="M 76.148856 386.558182 
L 87.596648 386.235288 
L 99.044439 385.993117 
L 110.492231 385.508775 
L 121.940023 385.508775 
L 133.387814 385.508775 
L 144.835606 384.620816 
L 156.283398 381.55332 
L 167.731189 379.131613 
L 179.178981 377.597865 
L 190.626772 374.611093 
L 202.074564 373.238792 
L 213.522356 372.108662 
L 224.970147 368.395377 
L 236.417939 364.84354 
L 247.86573 361.937491 
L 259.313522 358.708548 
L 270.761314 353.865134 
L 282.209105 352.573556 
L 293.656897 352.573556 
L 305.104689 343.936134 
L 316.55248 339.496337 
L 328.000272 335.298711 
L 339.448063 331.908321 
L 350.895855 328.03359 
L 362.343647 327.387801 
L 373.791438 326.499842 
L 385.23923 318.588931 
L 396.687022 318.588931 
" style="fill:none;stroke:#50b131;stroke-linecap:square;stroke-width:1.5;"/>
   </g>
   <g id="line2d_32">
    <path clip-path="url(#pfc3b01396d)" d="M 396.687022 318.588931 
L 408.134813 314.050451 
L 419.582605 309.791713 
L 431.030396 305.479921 
L 442.478188 301.172289 
L 453.92598 296.933613 
" style="fill:none;stroke:#50b131;stroke-dasharray:1.5,2.475;stroke-dashoffset:0;stroke-width:1.5;"/>
   </g>
   <g id="line2d_33">
    <path clip-path="url(#pfc3b01396d)" d="M 76.148856 385.993117 
L 87.596648 385.750946 
L 99.044439 385.185881 
L 110.492231 384.540092 
L 121.940023 384.540092 
L 133.387814 384.540092 
L 144.835606 383.490686 
L 156.283398 381.068979 
L 167.731189 377.436418 
L 179.178981 376.467735 
L 190.626772 372.673727 
L 202.074564 371.866491 
L 213.522356 370.978532 
L 224.970147 365.892946 
L 236.417939 361.776044 
L 247.86573 359.273613 
L 259.313522 355.641052 
L 270.761314 352.008491 
L 282.209105 350.555467 
L 293.656897 350.555467 
L 305.104689 342.72528 
L 316.55248 338.043313 
L 328.000272 333.199898 
L 339.448063 329.486614 
L 350.895855 327.307077 
L 362.343647 325.208264 
L 373.791438 323.593793 
L 385.23923 319.719061 
L 396.687022 319.719061 
" style="fill:none;stroke:#36ada4;stroke-linecap:square;stroke-width:1.5;"/>
   </g>
   <g id="line2d_34">
    <path clip-path="url(#pfc3b01396d)" d="M 396.687022 319.719061 
L 408.134813 316.085766 
L 419.582605 312.777636 
L 431.030396 309.548205 
L 442.478188 306.284665 
L 453.92598 303.40712 
" style="fill:none;stroke:#36ada4;stroke-dasharray:1.5,2.475;stroke-dashoffset:0;stroke-width:1.5;"/>
   </g>
   <g id="line2d_35">
    <path clip-path="url(#pfc3b01396d)" d="M 76.148856 386.07384 
L 87.596648 385.428052 
L 99.044439 385.024434 
L 110.492231 384.540092 
L 121.940023 384.136475 
L 133.387814 383.57141 
L 144.835606 382.764174 
L 156.283398 381.876214 
L 167.731189 380.826808 
L 179.178981 379.938849 
L 190.626772 377.678589 
L 202.074564 376.467735 
L 213.522356 375.256881 
L 224.970147 373.480963 
L 236.417939 371.139979 
L 247.86573 369.121889 
L 259.313522 367.668865 
L 270.761314 365.731499 
L 282.209105 363.229068 
L 293.656897 361.291703 
L 305.104689 358.06276 
L 316.55248 354.672369 
L 328.000272 350.39402 
L 339.448063 347.165077 
L 350.895855 340.626467 
L 362.343647 338.689101 
L 373.791438 337.316801 
L 385.23923 333.603516 
L 396.687022 328.27576 
" style="fill:none;stroke:#3ba3ec;stroke-linecap:square;stroke-width:1.5;"/>
   </g>
   <g id="line2d_36">
    <path clip-path="url(#pfc3b01396d)" d="M 396.687022 328.27576 
L 408.134813 324.083236 
L 419.582605 319.293386 
L 431.030396 314.599694 
L 442.478188 309.819601 
L 453.92598 304.714629 
" style="fill:none;stroke:#3ba3ec;stroke-dasharray:1.5,2.475;stroke-dashoffset:0;stroke-width:1.5;"/>
   </g>
   <g id="line2d_37">
    <path clip-path="url(#pfc3b01396d)" d="M 76.148856 386.154564 
L 87.596648 386.07384 
L 99.044439 385.912393 
L 110.492231 385.508775 
L 121.940023 385.428052 
L 133.387814 385.428052 
L 144.835606 384.055751 
L 156.283398 383.409962 
L 167.731189 381.876214 
L 179.178981 380.988255 
L 190.626772 380.181019 
L 202.074564 379.373784 
L 213.522356 378.970166 
L 224.970147 376.467735 
L 236.417939 374.611093 
L 247.86573 372.75445 
L 259.313522 370.736361 
L 270.761314 369.36406 
L 282.209105 367.1038 
L 293.656897 365.97367 
L 305.104689 363.955581 
L 316.55248 357.659142 
L 328.000272 354.349475 
L 339.448063 352.815727 
L 350.895855 352.250662 
L 362.343647 351.039809 
L 373.791438 345.792776 
L 385.23923 343.209622 
L 396.687022 343.209622 
" style="fill:none;stroke:#e866f4;stroke-linecap:square;stroke-width:1.5;"/>
   </g>
   <g id="line2d_38">
    <path clip-path="url(#pfc3b01396d)" d="M 396.687022 343.209622 
L 408.134813 339.491656 
L 419.582605 336.285757 
L 431.030396 333.033626 
L 442.478188 329.518801 
L 453.92598 326.208848 
" style="fill:none;stroke:#e866f4;stroke-dasharray:1.5,2.475;stroke-dashoffset:0;stroke-width:1.5;"/>
   </g>
   <g id="patch_8">
    <path d="M 57.26 393.64 
L 57.26 237.84 
" style="fill:none;stroke:#ffffff;stroke-linecap:square;stroke-linejoin:miter;stroke-width:0.8;"/>
   </g>
   <g id="patch_9">
    <path d="M 562.68 393.64 
L 562.68 237.84 
" style="fill:none;stroke:#ffffff;stroke-linecap:square;stroke-linejoin:miter;stroke-width:0.8;"/>
   </g>
   <g id="patch_10">
    <path d="M 57.26 393.64 
L 562.68 393.64 
" style="fill:none;stroke:#ffffff;stroke-linecap:square;stroke-linejoin:miter;stroke-width:0.8;"/>
   </g>
   <g id="patch_11">
    <path d="M 57.26 237.84 
L 562.68 237.84 
" style="fill:none;stroke:#ffffff;stroke-linecap:square;stroke-linejoin:miter;stroke-width:0.8;"/>
   </g>
   <g id="text_26">
    <!-- Wayne, MI -->
    <defs>
     <path d="M 3.328125 72.90625 
L 13.28125 72.90625 
L 28.609375 11.28125 
L 43.890625 72.90625 
L 54.984375 72.90625 
L 70.3125 11.28125 
L 85.59375 72.90625 
L 95.609375 72.90625 
L 77.296875 0 
L 64.890625 0 
L 49.515625 63.28125 
L 33.984375 0 
L 21.578125 0 
z
" id="DejaVuSans-57"/>
     <path d="M 9.8125 72.90625 
L 19.671875 72.90625 
L 19.671875 0 
L 9.8125 0 
z
" id="DejaVuSans-49"/>
    </defs>
    <g style="fill:#f77189;" transform="translate(465.373771 255.965326)scale(0.08 -0.08)">
     <use xlink:href="#DejaVuSans-57"/>
     <use x="98.783203" xlink:href="#DejaVuSans-61"/>
     <use x="160.0625" xlink:href="#DejaVuSans-79"/>
     <use x="219.242188" xlink:href="#DejaVuSans-6e"/>
     <use x="282.621094" xlink:href="#DejaVuSans-65"/>
     <use x="344.144531" xlink:href="#DejaVuSans-2c"/>
     <use x="375.931641" xlink:href="#DejaVuSans-20"/>
     <use x="407.71875" xlink:href="#DejaVuSans-4d"/>
     <use x="493.998047" xlink:href="#DejaVuSans-49"/>
    </g>
   </g>
   <g id="text_27">
    <!-- Cook, IL -->
    <defs>
     <path d="M 9.8125 72.90625 
L 19.671875 72.90625 
L 19.671875 8.296875 
L 55.171875 8.296875 
L 55.171875 0 
L 9.8125 0 
z
" id="DejaVuSans-4c"/>
    </defs>
    <g style="fill:#bb9832;" transform="translate(465.373771 272.398034)scale(0.08 -0.08)">
     <use xlink:href="#DejaVuSans-43"/>
     <use x="69.824219" xlink:href="#DejaVuSans-6f"/>
     <use x="131.005859" xlink:href="#DejaVuSans-6f"/>
     <use x="192.1875" xlink:href="#DejaVuSans-6b"/>
     <use x="250.097656" xlink:href="#DejaVuSans-2c"/>
     <use x="281.884766" xlink:href="#DejaVuSans-20"/>
     <use x="313.671875" xlink:href="#DejaVuSans-49"/>
     <use x="343.164062" xlink:href="#DejaVuSans-4c"/>
    </g>
   </g>
   <g id="text_28">
    <!-- Essex, NJ -->
    <defs>
     <path d="M 9.8125 72.90625 
L 55.90625 72.90625 
L 55.90625 64.59375 
L 19.671875 64.59375 
L 19.671875 43.015625 
L 54.390625 43.015625 
L 54.390625 34.71875 
L 19.671875 34.71875 
L 19.671875 8.296875 
L 56.78125 8.296875 
L 56.78125 0 
L 9.8125 0 
z
" id="DejaVuSans-45"/>
     <path d="M 9.8125 72.90625 
L 19.671875 72.90625 
L 19.671875 5.078125 
Q 19.671875 -8.109375 14.671875 -14.0625 
Q 9.671875 -20.015625 -1.421875 -20.015625 
L -5.171875 -20.015625 
L -5.171875 -11.71875 
L -2.09375 -11.71875 
Q 4.4375 -11.71875 7.125 -8.046875 
Q 9.8125 -4.390625 9.8125 5.078125 
z
" id="DejaVuSans-4a"/>
    </defs>
    <g style="fill:#50b131;" transform="translate(465.373771 293.14189)scale(0.08 -0.08)">
     <use xlink:href="#DejaVuSans-45"/>
     <use x="63.183594" xlink:href="#DejaVuSans-73"/>
     <use x="115.283203" xlink:href="#DejaVuSans-73"/>
     <use x="167.382812" xlink:href="#DejaVuSans-65"/>
     <use x="228.890625" xlink:href="#DejaVuSans-78"/>
     <use x="288.070312" xlink:href="#DejaVuSans-2c"/>
     <use x="319.857422" xlink:href="#DejaVuSans-20"/>
     <use x="351.644531" xlink:href="#DejaVuSans-4e"/>
     <use x="426.449219" xlink:href="#DejaVuSans-4a"/>
    </g>
   </g>
   <g id="text_29">
    <!-- Bergen, NJ -->
    <g style="fill:#36ada4;" transform="translate(423.173771 302.314531)scale(0.08 -0.08)">
     <use xlink:href="#DejaVuSans-42"/>
     <use x="68.603516" xlink:href="#DejaVuSans-65"/>
     <use x="130.126953" xlink:href="#DejaVuSans-72"/>
     <use x="171.224609" xlink:href="#DejaVuSans-67"/>
     <use x="234.701172" xlink:href="#DejaVuSans-65"/>
     <use x="296.224609" xlink:href="#DejaVuSans-6e"/>
     <use x="359.603516" xlink:href="#DejaVuSans-2c"/>
     <use x="391.390625" xlink:href="#DejaVuSans-20"/>
     <use x="423.177734" xlink:href="#DejaVuSans-4e"/>
     <use x="497.982422" xlink:href="#DejaVuSans-4a"/>
    </g>
   </g>
   <g id="text_30">
    <!-- Los Angeles, CA -->
    <defs>
     <path d="M 34.1875 63.1875 
L 20.796875 26.90625 
L 47.609375 26.90625 
z
M 28.609375 72.90625 
L 39.796875 72.90625 
L 67.578125 0 
L 57.328125 0 
L 50.6875 18.703125 
L 17.828125 18.703125 
L 11.1875 0 
L 0.78125 0 
z
" id="DejaVuSans-41"/>
    </defs>
    <g style="fill:#3ba3ec;" transform="translate(465.373771 311.736476)scale(0.08 -0.08)">
     <use xlink:href="#DejaVuSans-4c"/>
     <use x="55.697266" xlink:href="#DejaVuSans-6f"/>
     <use x="116.878906" xlink:href="#DejaVuSans-73"/>
     <use x="168.978516" xlink:href="#DejaVuSans-20"/>
     <use x="200.765625" xlink:href="#DejaVuSans-41"/>
     <use x="269.173828" xlink:href="#DejaVuSans-6e"/>
     <use x="332.552734" xlink:href="#DejaVuSans-67"/>
     <use x="396.029297" xlink:href="#DejaVuSans-65"/>
     <use x="457.552734" xlink:href="#DejaVuSans-6c"/>
     <use x="485.335938" xlink:href="#DejaVuSans-65"/>
     <use x="546.859375" xlink:href="#DejaVuSans-73"/>
     <use x="598.958984" xlink:href="#DejaVuSans-2c"/>
     <use x="630.746094" xlink:href="#DejaVuSans-20"/>
     <use x="662.533203" xlink:href="#DejaVuSans-43"/>
     <use x="732.357422" xlink:href="#DejaVuSans-41"/>
    </g>
   </g>
   <g id="text_31">
    <!-- Fairfield, CT -->
    <defs>
     <path d="M 9.8125 72.90625 
L 51.703125 72.90625 
L 51.703125 64.59375 
L 19.671875 64.59375 
L 19.671875 43.109375 
L 48.578125 43.109375 
L 48.578125 34.8125 
L 19.671875 34.8125 
L 19.671875 0 
L 9.8125 0 
z
" id="DejaVuSans-46"/>
     <path d="M -0.296875 72.90625 
L 61.375 72.90625 
L 61.375 64.59375 
L 35.5 64.59375 
L 35.5 0 
L 25.59375 0 
L 25.59375 64.59375 
L -0.296875 64.59375 
z
" id="DejaVuSans-54"/>
    </defs>
    <g style="fill:#e866f4;" transform="translate(465.373771 323.780711)scale(0.08 -0.08)">
     <use xlink:href="#DejaVuSans-46"/>
     <use x="57.378906" xlink:href="#DejaVuSans-61"/>
     <use x="118.658203" xlink:href="#DejaVuSans-69"/>
     <use x="146.441406" xlink:href="#DejaVuSans-72"/>
     <use x="187.554688" xlink:href="#DejaVuSans-66"/>
     <use x="222.759766" xlink:href="#DejaVuSans-69"/>
     <use x="250.542969" xlink:href="#DejaVuSans-65"/>
     <use x="312.066406" xlink:href="#DejaVuSans-6c"/>
     <use x="339.849609" xlink:href="#DejaVuSans-64"/>
     <use x="403.326172" xlink:href="#DejaVuSans-2c"/>
     <use x="435.113281" xlink:href="#DejaVuSans-20"/>
     <use x="466.900391" xlink:href="#DejaVuSans-43"/>
     <use x="536.724609" xlink:href="#DejaVuSans-54"/>
    </g>
   </g>
   <g id="text_32">
    <!-- Most-affected counties outside NY -->
    <g style="fill:#ffffff;" transform="translate(207.32875 231.84)scale(0.12 -0.12)">
     <use xlink:href="#DejaVuSans-4d"/>
     <use x="86.279297" xlink:href="#DejaVuSans-6f"/>
     <use x="147.460938" xlink:href="#DejaVuSans-73"/>
     <use x="199.560547" xlink:href="#DejaVuSans-74"/>
     <use x="238.769531" xlink:href="#DejaVuSans-2d"/>
     <use x="274.853516" xlink:href="#DejaVuSans-61"/>
     <use x="336.132812" xlink:href="#DejaVuSans-66"/>
     <use x="371.337891" xlink:href="#DejaVuSans-66"/>
     <use x="406.542969" xlink:href="#DejaVuSans-65"/>
     <use x="468.066406" xlink:href="#DejaVuSans-63"/>
     <use x="523.046875" xlink:href="#DejaVuSans-74"/>
     <use x="562.255859" xlink:href="#DejaVuSans-65"/>
     <use x="623.779297" xlink:href="#DejaVuSans-64"/>
     <use x="687.255859" xlink:href="#DejaVuSans-20"/>
     <use x="719.042969" xlink:href="#DejaVuSans-63"/>
     <use x="774.023438" xlink:href="#DejaVuSans-6f"/>
     <use x="835.205078" xlink:href="#DejaVuSans-75"/>
     <use x="898.583984" xlink:href="#DejaVuSans-6e"/>
     <use x="961.962891" xlink:href="#DejaVuSans-74"/>
     <use x="1001.171875" xlink:href="#DejaVuSans-69"/>
     <use x="1028.955078" xlink:href="#DejaVuSans-65"/>
     <use x="1090.478516" xlink:href="#DejaVuSans-73"/>
     <use x="1142.578125" xlink:href="#DejaVuSans-20"/>
     <use x="1174.365234" xlink:href="#DejaVuSans-6f"/>
     <use x="1235.546875" xlink:href="#DejaVuSans-75"/>
     <use x="1298.925781" xlink:href="#DejaVuSans-74"/>
     <use x="1338.134766" xlink:href="#DejaVuSans-73"/>
     <use x="1390.234375" xlink:href="#DejaVuSans-69"/>
     <use x="1418.017578" xlink:href="#DejaVuSans-64"/>
     <use x="1481.494141" xlink:href="#DejaVuSans-65"/>
     <use x="1543.017578" xlink:href="#DejaVuSans-20"/>
     <use x="1574.804688" xlink:href="#DejaVuSans-4e"/>
     <use x="1649.609375" xlink:href="#DejaVuSans-59"/>
    </g>
   </g>
  </g>
  <g id="axes_3">
   <g id="patch_12">
    <path d="M 57.26 606.04 
L 562.68 606.04 
L 562.68 450.24 
L 57.26 450.24 
z
"/>
   </g>
   <g id="PolyCollection_12">
    <defs>
     <path d="M 394.599837 -147.48918 
L 394.599837 -147.48918 
L 406.394936 -147.48918 
L 418.190035 -148.113763 
L 429.985134 -151.60689 
L 441.780233 -156.166681 
L 453.575333 -161.441859 
L 453.575333 -190.678182 
L 453.575333 -190.678182 
L 441.780233 -184.167235 
L 429.985134 -177.403449 
L 418.190035 -169.82174 
L 406.394936 -162.469948 
L 394.599837 -147.48918 
z
" id="ma2935d11b3" style="stroke:#f77189;stroke-opacity:0.1;"/>
    </defs>
    <g clip-path="url(#p484a7ef01b)">
     <use style="fill:#f77189;fill-opacity:0.1;stroke:#f77189;stroke-opacity:0.1;" x="0" xlink:href="#ma2935d11b3" y="648"/>
    </g>
   </g>
   <g id="PolyCollection_13">
    <defs>
     <path d="M 394.599837 -95.619065 
L 394.599837 -95.619065 
L 406.394936 -95.619065 
L 418.190035 -95.619065 
L 429.985134 -95.619065 
L 441.780233 -95.619065 
L 453.575333 -95.619065 
L 453.575333 -126.833452 
L 453.575333 -126.833452 
L 441.780233 -126.22365 
L 429.985134 -110.592534 
L 418.190035 -105.901822 
L 406.394936 -100.544623 
L 394.599837 -95.619065 
z
" id="m8a12ea00d4" style="stroke:#ae9d31;stroke-opacity:0.1;"/>
    </defs>
    <g clip-path="url(#p484a7ef01b)">
     <use style="fill:#ae9d31;fill-opacity:0.1;stroke:#ae9d31;stroke-opacity:0.1;" x="0" xlink:href="#m8a12ea00d4" y="648"/>
    </g>
   </g>
   <g id="PolyCollection_14">
    <defs>
     <path d="M 394.599837 -88.209048 
L 394.599837 -88.209048 
L 406.394936 -88.209048 
L 418.190035 -88.209048 
L 429.985134 -88.209048 
L 441.780233 -88.209048 
L 453.575333 -88.209048 
L 453.575333 -112.816225 
L 453.575333 -112.816225 
L 441.780233 -109.861709 
L 429.985134 -104.324259 
L 418.190035 -102.762131 
L 406.394936 -101.689749 
L 394.599837 -88.209048 
z
" id="m46a1fe2fea" style="stroke:#33b07a;stroke-opacity:0.1;"/>
    </defs>
    <g clip-path="url(#p484a7ef01b)">
     <use style="fill:#33b07a;fill-opacity:0.1;stroke:#33b07a;stroke-opacity:0.1;" x="0" xlink:href="#m46a1fe2fea" y="648"/>
    </g>
   </g>
   <g id="PolyCollection_15">
    <defs>
     <path d="M 394.599837 -71.271868 
L 394.599837 -71.271868 
L 406.394936 -71.271868 
L 418.190035 -71.271868 
L 429.985134 -71.271868 
L 441.780233 -71.271868 
L 453.575333 -71.271868 
L 453.575333 -83.942702 
L 453.575333 -83.942702 
L 441.780233 -82.751658 
L 429.985134 -77.313822 
L 418.190035 -77.030679 
L 406.394936 -74.336976 
L 394.599837 -71.271868 
z
" id="m6d9ff7e6bf" style="stroke:#38a9c5;stroke-opacity:0.1;"/>
    </defs>
    <g clip-path="url(#p484a7ef01b)">
     <use style="fill:#38a9c5;fill-opacity:0.1;stroke:#38a9c5;stroke-opacity:0.1;" x="0" xlink:href="#m6d9ff7e6bf" y="648"/>
    </g>
   </g>
   <g id="PolyCollection_16">
    <defs>
     <path d="M 394.599837 -70.213294 
L 394.599837 -70.213294 
L 406.394936 -70.213294 
L 418.190035 -70.213294 
L 429.985134 -70.213294 
L 441.780233 -70.213294 
L 453.575333 -70.213294 
L 453.575333 -77.531595 
L 453.575333 -77.531595 
L 441.780233 -77.066873 
L 429.985134 -76.001132 
L 418.190035 -74.714751 
L 406.394936 -72.793066 
L 394.599837 -70.213294 
z
" id="mae119f687d" style="stroke:#cc7af4;stroke-opacity:0.1;"/>
    </defs>
    <g clip-path="url(#p484a7ef01b)">
     <use style="fill:#cc7af4;fill-opacity:0.1;stroke:#cc7af4;stroke-opacity:0.1;" x="0" xlink:href="#mae119f687d" y="648"/>
    </g>
   </g>
   <g id="matplotlib.axis_5">
    <g id="xtick_7">
     <g id="line2d_39">
      <g>
       <use style="fill:#ffffff;stroke:#ffffff;stroke-width:0.8;" x="76.132159" xlink:href="#m23b5ad83b3" y="606.04"/>
      </g>
     </g>
     <g id="text_33">
      <!-- 3/26 -->
      <defs>
       <path d="M 33.015625 40.375 
Q 26.375 40.375 22.484375 35.828125 
Q 18.609375 31.296875 18.609375 23.390625 
Q 18.609375 15.53125 22.484375 10.953125 
Q 26.375 6.390625 33.015625 6.390625 
Q 39.65625 6.390625 43.53125 10.953125 
Q 47.40625 15.53125 47.40625 23.390625 
Q 47.40625 31.296875 43.53125 35.828125 
Q 39.65625 40.375 33.015625 40.375 
z
M 52.59375 71.296875 
L 52.59375 62.3125 
Q 48.875 64.0625 45.09375 64.984375 
Q 41.3125 65.921875 37.59375 65.921875 
Q 27.828125 65.921875 22.671875 59.328125 
Q 17.53125 52.734375 16.796875 39.40625 
Q 19.671875 43.65625 24.015625 45.921875 
Q 28.375 48.1875 33.59375 48.1875 
Q 44.578125 48.1875 50.953125 41.515625 
Q 57.328125 34.859375 57.328125 23.390625 
Q 57.328125 12.15625 50.6875 5.359375 
Q 44.046875 -1.421875 33.015625 -1.421875 
Q 20.359375 -1.421875 13.671875 8.265625 
Q 6.984375 17.96875 6.984375 36.375 
Q 6.984375 53.65625 15.1875 63.9375 
Q 23.390625 74.21875 37.203125 74.21875 
Q 40.921875 74.21875 44.703125 73.484375 
Q 48.484375 72.75 52.59375 71.296875 
z
" id="DejaVuSans-36"/>
      </defs>
      <g style="fill:#ffffff;" transform="translate(64.904034 620.638437)scale(0.1 -0.1)">
       <use xlink:href="#DejaVuSans-33"/>
       <use x="63.623047" xlink:href="#DejaVuSans-2f"/>
       <use x="97.314453" xlink:href="#DejaVuSans-32"/>
       <use x="160.9375" xlink:href="#DejaVuSans-36"/>
      </g>
     </g>
    </g>
    <g id="xtick_8">
     <g id="line2d_40">
      <g>
       <use style="fill:#ffffff;stroke:#ffffff;stroke-width:0.8;" x="394.599837" xlink:href="#m23b5ad83b3" y="606.04"/>
      </g>
     </g>
     <g id="text_34">
      <!-- 4/23 -->
      <g style="fill:#ffffff;" transform="translate(383.371712 620.638437)scale(0.1 -0.1)">
       <use xlink:href="#DejaVuSans-34"/>
       <use x="63.623047" xlink:href="#DejaVuSans-2f"/>
       <use x="97.314453" xlink:href="#DejaVuSans-32"/>
       <use x="160.9375" xlink:href="#DejaVuSans-33"/>
      </g>
     </g>
    </g>
    <g id="xtick_9">
     <g id="line2d_41">
      <g>
       <use style="fill:#ffffff;stroke:#ffffff;stroke-width:0.8;" x="453.575333" xlink:href="#m23b5ad83b3" y="606.04"/>
      </g>
     </g>
     <g id="text_35">
      <!-- 4/28 -->
      <g style="fill:#ffffff;" transform="translate(442.347208 620.638437)scale(0.1 -0.1)">
       <use xlink:href="#DejaVuSans-34"/>
       <use x="63.623047" xlink:href="#DejaVuSans-2f"/>
       <use x="97.314453" xlink:href="#DejaVuSans-32"/>
       <use x="160.9375" xlink:href="#DejaVuSans-38"/>
      </g>
     </g>
    </g>
    <g id="text_36">
     <!-- Days -->
     <g style="fill:#ffffff;" transform="translate(297.491875 634.316562)scale(0.1 -0.1)">
      <use xlink:href="#DejaVuSans-44"/>
      <use x="77.001953" xlink:href="#DejaVuSans-61"/>
      <use x="138.28125" xlink:href="#DejaVuSans-79"/>
      <use x="197.460938" xlink:href="#DejaVuSans-73"/>
     </g>
    </g>
   </g>
   <g id="matplotlib.axis_6">
    <g id="ytick_11">
     <g id="line2d_42">
      <g>
       <use style="fill:#ffffff;stroke:#ffffff;stroke-width:0.8;" x="57.26" xlink:href="#m131d3105c9" y="600.016756"/>
      </g>
     </g>
     <g id="text_37">
      <!-- 0 -->
      <g style="fill:#ffffff;" transform="translate(43.8975 603.815974)scale(0.1 -0.1)">
       <use xlink:href="#DejaVuSans-30"/>
      </g>
     </g>
    </g>
    <g id="ytick_12">
     <g id="line2d_43">
      <g>
       <use style="fill:#ffffff;stroke:#ffffff;stroke-width:0.8;" x="57.26" xlink:href="#m131d3105c9" y="573.552411"/>
      </g>
     </g>
     <g id="text_38">
      <!-- 25 -->
      <g style="fill:#ffffff;" transform="translate(37.535 577.35163)scale(0.1 -0.1)">
       <use xlink:href="#DejaVuSans-32"/>
       <use x="63.623047" xlink:href="#DejaVuSans-35"/>
      </g>
     </g>
    </g>
    <g id="ytick_13">
     <g id="line2d_44">
      <g>
       <use style="fill:#ffffff;stroke:#ffffff;stroke-width:0.8;" x="57.26" xlink:href="#m131d3105c9" y="547.088067"/>
      </g>
     </g>
     <g id="text_39">
      <!-- 50 -->
      <g style="fill:#ffffff;" transform="translate(37.535 550.887285)scale(0.1 -0.1)">
       <use xlink:href="#DejaVuSans-35"/>
       <use x="63.623047" xlink:href="#DejaVuSans-30"/>
      </g>
     </g>
    </g>
    <g id="ytick_14">
     <g id="line2d_45">
      <g>
       <use style="fill:#ffffff;stroke:#ffffff;stroke-width:0.8;" x="57.26" xlink:href="#m131d3105c9" y="520.623722"/>
      </g>
     </g>
     <g id="text_40">
      <!-- 75 -->
      <defs>
       <path d="M 8.203125 72.90625 
L 55.078125 72.90625 
L 55.078125 68.703125 
L 28.609375 0 
L 18.3125 0 
L 43.21875 64.59375 
L 8.203125 64.59375 
z
" id="DejaVuSans-37"/>
      </defs>
      <g style="fill:#ffffff;" transform="translate(37.535 524.422941)scale(0.1 -0.1)">
       <use xlink:href="#DejaVuSans-37"/>
       <use x="63.623047" xlink:href="#DejaVuSans-35"/>
      </g>
     </g>
    </g>
    <g id="ytick_15">
     <g id="line2d_46">
      <g>
       <use style="fill:#ffffff;stroke:#ffffff;stroke-width:0.8;" x="57.26" xlink:href="#m131d3105c9" y="494.159377"/>
      </g>
     </g>
     <g id="text_41">
      <!-- 100 -->
      <g style="fill:#ffffff;" transform="translate(31.1725 497.958596)scale(0.1 -0.1)">
       <use xlink:href="#DejaVuSans-31"/>
       <use x="63.623047" xlink:href="#DejaVuSans-30"/>
       <use x="127.246094" xlink:href="#DejaVuSans-30"/>
      </g>
     </g>
    </g>
    <g id="ytick_16">
     <g id="line2d_47">
      <g>
       <use style="fill:#ffffff;stroke:#ffffff;stroke-width:0.8;" x="57.26" xlink:href="#m131d3105c9" y="467.695033"/>
      </g>
     </g>
     <g id="text_42">
      <!-- 125 -->
      <g style="fill:#ffffff;" transform="translate(31.1725 471.494252)scale(0.1 -0.1)">
       <use xlink:href="#DejaVuSans-31"/>
       <use x="63.623047" xlink:href="#DejaVuSans-32"/>
       <use x="127.246094" xlink:href="#DejaVuSans-35"/>
      </g>
     </g>
    </g>
    <g id="text_43">
     <!-- Cumulative deaths -->
     <g style="fill:#ffffff;" transform="translate(25.092813 575.315)rotate(-90)scale(0.1 -0.1)">
      <use xlink:href="#DejaVuSans-43"/>
      <use x="69.824219" xlink:href="#DejaVuSans-75"/>
      <use x="133.203125" xlink:href="#DejaVuSans-6d"/>
      <use x="230.615234" xlink:href="#DejaVuSans-75"/>
      <use x="293.994141" xlink:href="#DejaVuSans-6c"/>
      <use x="321.777344" xlink:href="#DejaVuSans-61"/>
      <use x="383.056641" xlink:href="#DejaVuSans-74"/>
      <use x="422.265625" xlink:href="#DejaVuSans-69"/>
      <use x="450.048828" xlink:href="#DejaVuSans-76"/>
      <use x="509.228516" xlink:href="#DejaVuSans-65"/>
      <use x="570.751953" xlink:href="#DejaVuSans-20"/>
      <use x="602.539062" xlink:href="#DejaVuSans-64"/>
      <use x="666.015625" xlink:href="#DejaVuSans-65"/>
      <use x="727.539062" xlink:href="#DejaVuSans-61"/>
      <use x="788.818359" xlink:href="#DejaVuSans-74"/>
      <use x="828.027344" xlink:href="#DejaVuSans-68"/>
      <use x="891.40625" xlink:href="#DejaVuSans-73"/>
     </g>
    </g>
   </g>
   <g id="line2d_48">
    <path clip-path="url(#p484a7ef01b)" d="M 76.132159 576.728132 
L 87.927258 575.669559 
L 99.722357 570.37669 
L 111.517456 570.37669 
L 123.312555 567.200968 
L 135.107655 565.083821 
L 146.902754 562.966673 
L 158.697853 558.732378 
L 170.492952 556.615231 
L 182.288051 555.556657 
L 194.083151 555.556657 
L 205.87825 552.380935 
L 217.673349 551.322362 
L 229.468448 548.14664 
L 241.263547 547.088067 
L 253.058646 543.912345 
L 264.853746 542.853771 
L 276.648845 539.67805 
L 288.443944 533.326607 
L 300.239043 533.326607 
L 312.034142 528.033738 
L 323.829242 523.799443 
L 335.624341 523.799443 
L 347.41944 519.565148 
L 359.214539 519.565148 
L 371.009638 508.97941 
L 382.804737 503.686541 
L 394.599837 500.51082 
" style="fill:none;stroke:#f77189;stroke-linecap:square;stroke-width:1.5;"/>
   </g>
   <g id="line2d_49">
    <path clip-path="url(#p484a7ef01b)" d="M 394.599837 500.51082 
L 406.394936 493.495645 
L 418.190035 487.171209 
L 429.985134 480.766501 
L 441.780233 474.630909 
L 453.575333 468.884116 
" style="fill:none;stroke:#f77189;stroke-dasharray:1.5,2.475;stroke-dashoffset:0;stroke-width:1.5;"/>
   </g>
   <g id="line2d_50">
    <path clip-path="url(#p484a7ef01b)" d="M 76.132159 595.78246 
L 87.927258 595.78246 
L 99.722357 593.665313 
L 111.517456 592.606739 
L 123.312555 592.606739 
L 135.107655 592.606739 
L 146.902754 591.548165 
L 158.697853 590.489592 
L 170.492952 587.31387 
L 182.288051 587.31387 
L 194.083151 587.31387 
L 205.87825 586.255296 
L 217.673349 584.138149 
L 229.468448 583.079575 
L 241.263547 582.021001 
L 253.058646 578.84528 
L 264.853746 577.786706 
L 276.648845 575.669559 
L 288.443944 575.669559 
L 300.239043 575.669559 
L 312.034142 561.908099 
L 323.829242 558.732378 
L 335.624341 558.732378 
L 347.41944 556.615231 
L 359.214539 555.556657 
L 371.009638 555.556657 
L 382.804737 554.498083 
L 394.599837 552.380935 
" style="fill:none;stroke:#ae9d31;stroke-linecap:square;stroke-width:1.5;"/>
   </g>
   <g id="line2d_51">
    <path clip-path="url(#p484a7ef01b)" d="M 394.599837 552.380935 
L 406.394936 550.54428 
L 418.190035 548.471896 
L 429.985134 546.473308 
L 441.780233 544.715659 
L 453.575333 543.229891 
" style="fill:none;stroke:#ae9d31;stroke-dasharray:1.5,2.475;stroke-dashoffset:0;stroke-width:1.5;"/>
   </g>
   <g id="line2d_52">
    <path clip-path="url(#p484a7ef01b)" d="M 76.132159 594.723887 
L 87.927258 593.665313 
L 99.722357 593.665313 
L 111.517456 593.665313 
L 123.312555 593.665313 
L 135.107655 589.431018 
L 146.902754 589.431018 
L 158.697853 589.431018 
L 170.492952 586.255296 
L 182.288051 586.255296 
L 194.083151 586.255296 
L 205.87825 586.255296 
L 217.673349 577.786706 
L 229.468448 577.786706 
L 241.263547 577.786706 
L 253.058646 577.786706 
L 264.853746 577.786706 
L 276.648845 577.786706 
L 288.443944 577.786706 
L 300.239043 577.786706 
L 312.034142 577.786706 
L 323.829242 570.37669 
L 335.624341 570.37669 
L 347.41944 570.37669 
L 359.214539 570.37669 
L 371.009638 570.37669 
L 382.804737 570.37669 
L 394.599837 559.790952 
" style="fill:none;stroke:#33b07a;stroke-linecap:square;stroke-width:1.5;"/>
   </g>
   <g id="line2d_53">
    <path clip-path="url(#p484a7ef01b)" d="M 394.599837 559.790952 
L 406.394936 558.407214 
L 418.190035 555.531349 
L 429.985134 552.727088 
L 441.780233 550.09466 
L 453.575333 547.683618 
" style="fill:none;stroke:#33b07a;stroke-dasharray:1.5,2.475;stroke-dashoffset:0;stroke-width:1.5;"/>
   </g>
   <g id="line2d_54">
    <path clip-path="url(#p484a7ef01b)" d="M 76.132159 598.958182 
L 87.927258 597.899608 
L 99.722357 596.841034 
L 111.517456 596.841034 
L 123.312555 596.841034 
L 135.107655 596.841034 
L 146.902754 596.841034 
L 158.697853 596.841034 
L 170.492952 594.723887 
L 182.288051 594.723887 
L 194.083151 593.665313 
L 205.87825 592.606739 
L 217.673349 592.606739 
L 229.468448 592.606739 
L 241.263547 591.548165 
L 253.058646 590.489592 
L 264.853746 588.372444 
L 276.648845 588.372444 
L 288.443944 588.372444 
L 300.239043 587.31387 
L 312.034142 585.196723 
L 323.829242 583.079575 
L 335.624341 583.079575 
L 347.41944 579.903854 
L 359.214539 578.84528 
L 371.009638 576.728132 
L 382.804737 576.728132 
L 394.599837 576.728132 
" style="fill:none;stroke:#38a9c5;stroke-linecap:square;stroke-width:1.5;"/>
   </g>
   <g id="line2d_55">
    <path clip-path="url(#p484a7ef01b)" d="M 394.599837 576.728132 
L 406.394936 575.198634 
L 418.190035 573.923001 
L 429.985134 572.735376 
L 441.780233 571.688642 
L 453.575333 570.807561 
" style="fill:none;stroke:#38a9c5;stroke-dasharray:1.5,2.475;stroke-dashoffset:0;stroke-width:1.5;"/>
   </g>
   <g id="line2d_56">
    <path clip-path="url(#p484a7ef01b)" d="M 76.132159 597.899608 
L 87.927258 596.841034 
L 99.722357 595.78246 
L 111.517456 594.723887 
L 123.312555 593.665313 
L 135.107655 593.665313 
L 146.902754 592.606739 
L 158.697853 592.606739 
L 170.492952 592.606739 
L 182.288051 591.548165 
L 194.083151 591.548165 
L 205.87825 590.489592 
L 217.673349 590.489592 
L 229.468448 589.431018 
L 241.263547 589.431018 
L 253.058646 586.255296 
L 264.853746 586.255296 
L 276.648845 585.196723 
L 288.443944 584.138149 
L 300.239043 584.138149 
L 312.034142 582.021001 
L 323.829242 582.021001 
L 335.624341 582.021001 
L 347.41944 578.84528 
L 359.214539 578.84528 
L 371.009638 578.84528 
L 382.804737 578.84528 
L 394.599837 577.786706 
" style="fill:none;stroke:#cc7af4;stroke-linecap:square;stroke-width:1.5;"/>
   </g>
   <g id="line2d_57">
    <path clip-path="url(#p484a7ef01b)" d="M 394.599837 577.786706 
L 406.394936 576.694876 
L 418.190035 575.52189 
L 429.985134 574.506114 
L 441.780233 573.712625 
L 453.575333 573.132876 
" style="fill:none;stroke:#cc7af4;stroke-dasharray:1.5,2.475;stroke-dashoffset:0;stroke-width:1.5;"/>
   </g>
   <g id="patch_13">
    <path d="M 57.26 606.04 
L 57.26 450.24 
" style="fill:none;stroke:#ffffff;stroke-linecap:square;stroke-linejoin:miter;stroke-width:0.8;"/>
   </g>
   <g id="patch_14">
    <path d="M 562.68 606.04 
L 562.68 450.24 
" style="fill:none;stroke:#ffffff;stroke-linecap:square;stroke-linejoin:miter;stroke-width:0.8;"/>
   </g>
   <g id="patch_15">
    <path d="M 57.26 606.04 
L 562.68 606.04 
" style="fill:none;stroke:#ffffff;stroke-linecap:square;stroke-linejoin:miter;stroke-width:0.8;"/>
   </g>
   <g id="patch_16">
    <path d="M 57.26 450.24 
L 562.68 450.24 
" style="fill:none;stroke:#ffffff;stroke-linecap:square;stroke-linejoin:miter;stroke-width:0.8;"/>
   </g>
   <g id="text_44">
    <!-- Santa Clara, CA -->
    <defs>
     <path d="M 53.515625 70.515625 
L 53.515625 60.890625 
Q 47.90625 63.578125 42.921875 64.890625 
Q 37.9375 66.21875 33.296875 66.21875 
Q 25.25 66.21875 20.875 63.09375 
Q 16.5 59.96875 16.5 54.203125 
Q 16.5 49.359375 19.40625 46.890625 
Q 22.3125 44.4375 30.421875 42.921875 
L 36.375 41.703125 
Q 47.40625 39.59375 52.65625 34.296875 
Q 57.90625 29 57.90625 20.125 
Q 57.90625 9.515625 50.796875 4.046875 
Q 43.703125 -1.421875 29.984375 -1.421875 
Q 24.8125 -1.421875 18.96875 -0.25 
Q 13.140625 0.921875 6.890625 3.21875 
L 6.890625 13.375 
Q 12.890625 10.015625 18.65625 8.296875 
Q 24.421875 6.59375 29.984375 6.59375 
Q 38.421875 6.59375 43.015625 9.90625 
Q 47.609375 13.234375 47.609375 19.390625 
Q 47.609375 24.75 44.3125 27.78125 
Q 41.015625 30.8125 33.5 32.328125 
L 27.484375 33.5 
Q 16.453125 35.6875 11.515625 40.375 
Q 6.59375 45.0625 6.59375 53.421875 
Q 6.59375 63.09375 13.40625 68.65625 
Q 20.21875 74.21875 32.171875 74.21875 
Q 37.3125 74.21875 42.625 73.28125 
Q 47.953125 72.359375 53.515625 70.515625 
z
" id="DejaVuSans-53"/>
    </defs>
    <g style="fill:#f77189;" transform="translate(465.370432 466.479866)scale(0.08 -0.08)">
     <use xlink:href="#DejaVuSans-53"/>
     <use x="63.476562" xlink:href="#DejaVuSans-61"/>
     <use x="124.755859" xlink:href="#DejaVuSans-6e"/>
     <use x="188.134766" xlink:href="#DejaVuSans-74"/>
     <use x="227.34375" xlink:href="#DejaVuSans-61"/>
     <use x="288.623047" xlink:href="#DejaVuSans-20"/>
     <use x="320.410156" xlink:href="#DejaVuSans-43"/>
     <use x="390.234375" xlink:href="#DejaVuSans-6c"/>
     <use x="418.017578" xlink:href="#DejaVuSans-61"/>
     <use x="479.296875" xlink:href="#DejaVuSans-72"/>
     <use x="520.410156" xlink:href="#DejaVuSans-61"/>
     <use x="581.689453" xlink:href="#DejaVuSans-2c"/>
     <use x="613.476562" xlink:href="#DejaVuSans-20"/>
     <use x="645.263672" xlink:href="#DejaVuSans-43"/>
     <use x="715.087891" xlink:href="#DejaVuSans-41"/>
    </g>
   </g>
   <g id="text_45">
    <!-- Alameda, CA -->
    <g style="fill:#ae9d31;" transform="translate(465.370432 540.825641)scale(0.08 -0.08)">
     <use xlink:href="#DejaVuSans-41"/>
     <use x="68.408203" xlink:href="#DejaVuSans-6c"/>
     <use x="96.191406" xlink:href="#DejaVuSans-61"/>
     <use x="157.470703" xlink:href="#DejaVuSans-6d"/>
     <use x="254.882812" xlink:href="#DejaVuSans-65"/>
     <use x="316.40625" xlink:href="#DejaVuSans-64"/>
     <use x="379.882812" xlink:href="#DejaVuSans-61"/>
     <use x="441.162109" xlink:href="#DejaVuSans-2c"/>
     <use x="472.949219" xlink:href="#DejaVuSans-20"/>
     <use x="504.736328" xlink:href="#DejaVuSans-43"/>
     <use x="574.560547" xlink:href="#DejaVuSans-41"/>
    </g>
   </g>
   <g id="text_46">
    <!-- San Mateo, CA -->
    <g style="fill:#33b07a;" transform="translate(465.370432 554.502867)scale(0.08 -0.08)">
     <use xlink:href="#DejaVuSans-53"/>
     <use x="63.476562" xlink:href="#DejaVuSans-61"/>
     <use x="124.755859" xlink:href="#DejaVuSans-6e"/>
     <use x="188.134766" xlink:href="#DejaVuSans-20"/>
     <use x="219.921875" xlink:href="#DejaVuSans-4d"/>
     <use x="306.201172" xlink:href="#DejaVuSans-61"/>
     <use x="367.480469" xlink:href="#DejaVuSans-74"/>
     <use x="406.689453" xlink:href="#DejaVuSans-65"/>
     <use x="468.212891" xlink:href="#DejaVuSans-6f"/>
     <use x="529.394531" xlink:href="#DejaVuSans-2c"/>
     <use x="561.181641" xlink:href="#DejaVuSans-20"/>
     <use x="592.96875" xlink:href="#DejaVuSans-43"/>
     <use x="662.792969" xlink:href="#DejaVuSans-41"/>
    </g>
   </g>
   <g id="text_47">
    <!-- Contra Costa, CA -->
    <g style="fill:#38a9c5;" transform="translate(465.370432 568.403311)scale(0.08 -0.08)">
     <use xlink:href="#DejaVuSans-43"/>
     <use x="69.824219" xlink:href="#DejaVuSans-6f"/>
     <use x="131.005859" xlink:href="#DejaVuSans-6e"/>
     <use x="194.384766" xlink:href="#DejaVuSans-74"/>
     <use x="233.59375" xlink:href="#DejaVuSans-72"/>
     <use x="274.707031" xlink:href="#DejaVuSans-61"/>
     <use x="335.986328" xlink:href="#DejaVuSans-20"/>
     <use x="367.773438" xlink:href="#DejaVuSans-43"/>
     <use x="437.597656" xlink:href="#DejaVuSans-6f"/>
     <use x="498.779297" xlink:href="#DejaVuSans-73"/>
     <use x="550.878906" xlink:href="#DejaVuSans-74"/>
     <use x="590.087891" xlink:href="#DejaVuSans-61"/>
     <use x="651.367188" xlink:href="#DejaVuSans-2c"/>
     <use x="683.154297" xlink:href="#DejaVuSans-20"/>
     <use x="714.941406" xlink:href="#DejaVuSans-43"/>
     <use x="784.765625" xlink:href="#DejaVuSans-41"/>
    </g>
   </g>
   <g id="text_48">
    <!-- San Francisco, CA -->
    <g style="fill:#cc7af4;" transform="translate(465.370432 579.952126)scale(0.08 -0.08)">
     <use xlink:href="#DejaVuSans-53"/>
     <use x="63.476562" xlink:href="#DejaVuSans-61"/>
     <use x="124.755859" xlink:href="#DejaVuSans-6e"/>
     <use x="188.134766" xlink:href="#DejaVuSans-20"/>
     <use x="219.921875" xlink:href="#DejaVuSans-46"/>
     <use x="277.332031" xlink:href="#DejaVuSans-72"/>
     <use x="318.445312" xlink:href="#DejaVuSans-61"/>
     <use x="379.724609" xlink:href="#DejaVuSans-6e"/>
     <use x="443.103516" xlink:href="#DejaVuSans-63"/>
     <use x="498.083984" xlink:href="#DejaVuSans-69"/>
     <use x="525.867188" xlink:href="#DejaVuSans-73"/>
     <use x="577.966797" xlink:href="#DejaVuSans-63"/>
     <use x="632.947266" xlink:href="#DejaVuSans-6f"/>
     <use x="694.128906" xlink:href="#DejaVuSans-2c"/>
     <use x="725.916016" xlink:href="#DejaVuSans-20"/>
     <use x="757.703125" xlink:href="#DejaVuSans-43"/>
     <use x="827.527344" xlink:href="#DejaVuSans-41"/>
    </g>
   </g>
   <g id="text_49">
    <!-- Bay area counties -->
    <g style="fill:#ffffff;" transform="translate(255.889375 444.24)scale(0.12 -0.12)">
     <use xlink:href="#DejaVuSans-42"/>
     <use x="68.603516" xlink:href="#DejaVuSans-61"/>
     <use x="129.882812" xlink:href="#DejaVuSans-79"/>
     <use x="189.0625" xlink:href="#DejaVuSans-20"/>
     <use x="220.849609" xlink:href="#DejaVuSans-61"/>
     <use x="282.128906" xlink:href="#DejaVuSans-72"/>
     <use x="323.210938" xlink:href="#DejaVuSans-65"/>
     <use x="384.734375" xlink:href="#DejaVuSans-61"/>
     <use x="446.013672" xlink:href="#DejaVuSans-20"/>
     <use x="477.800781" xlink:href="#DejaVuSans-63"/>
     <use x="532.78125" xlink:href="#DejaVuSans-6f"/>
     <use x="593.962891" xlink:href="#DejaVuSans-75"/>
     <use x="657.341797" xlink:href="#DejaVuSans-6e"/>
     <use x="720.720703" xlink:href="#DejaVuSans-74"/>
     <use x="759.929688" xlink:href="#DejaVuSans-69"/>
     <use x="787.712891" xlink:href="#DejaVuSans-65"/>
     <use x="849.236328" xlink:href="#DejaVuSans-73"/>
    </g>
   </g>
  </g>
 </g>
 <defs>
  <clipPath id="pade4338625">
   <rect height="155.8" width="505.42" x="57.26" y="25.44"/>
  </clipPath>
  <clipPath id="pfc3b01396d">
   <rect height="155.8" width="505.42" x="57.26" y="237.84"/>
  </clipPath>
  <clipPath id="p484a7ef01b">
   <rect height="155.8" width="505.42" x="57.26" y="450.24"/>
  </clipPath>
 </defs>
</svg>
