<?xml version="1.0" encoding="utf-8" standalone="no"?>
<!DOCTYPE svg PUBLIC "-//W3C//DTD SVG 1.1//EN"
  "http://www.w3.org/Graphics/SVG/1.1/DTD/svg11.dtd">
<!-- Created with matplotlib (https://matplotlib.org/) -->
<svg height="648pt" version="1.1" viewBox="0 0 576 648" width="576pt" xmlns="http://www.w3.org/2000/svg" xmlns:xlink="http://www.w3.org/1999/xlink">
 <defs>
  <style type="text/css">
*{stroke-linecap:butt;stroke-linejoin:round;}
  </style>
 </defs>
 <g id="figure_1">
  <g id="patch_1">
   <path d="M 0 648 
L 576 648 
L 576 0 
L 0 0 
z
"/>
  </g>
  <g id="axes_1">
   <g id="patch_2">
    <path d="M 57.17 190.626667 
L 565.2 190.626667 
L 565.2 26.88 
L 57.17 26.88 
z
"/>
   </g>
   <g id="PolyCollection_1">
    <defs>
     <path d="M 412.836482 -551.80767 
L 412.836482 -551.80767 
L 421.932811 -551.80767 
L 431.029141 -551.80767 
L 440.12547 -551.80767 
L 449.221799 -558.324707 
L 458.318129 -570.030625 
L 458.318129 -613.67697 
L 458.318129 -613.67697 
L 449.221799 -605.585321 
L 440.12547 -597.741568 
L 431.029141 -590.494023 
L 421.932811 -583.804449 
L 412.836482 -551.80767 
z
" id="m273a4c54b9" style="stroke:#f77189;stroke-opacity:0.1;"/>
    </defs>
    <g clip-path="url(#p9ce55bc565)">
     <use style="fill:#f77189;fill-opacity:0.1;stroke:#f77189;stroke-opacity:0.1;" x="0" xlink:href="#m273a4c54b9" y="648"/>
    </g>
   </g>
   <g id="PolyCollection_2">
    <defs>
     <path d="M 412.836482 -546.894211 
L 412.836482 -546.894211 
L 421.932811 -546.894211 
L 431.029141 -546.894211 
L 440.12547 -547.630286 
L 449.221799 -558.453617 
L 458.318129 -562.372265 
L 458.318129 -602.369356 
L 458.318129 -602.369356 
L 449.221799 -588.81496 
L 440.12547 -583.442306 
L 431.029141 -577.74974 
L 421.932811 -572.211989 
L 412.836482 -546.894211 
z
" id="m36b4fe1f0d" style="stroke:#ae9d31;stroke-opacity:0.1;"/>
    </defs>
    <g clip-path="url(#p9ce55bc565)">
     <use style="fill:#ae9d31;fill-opacity:0.1;stroke:#ae9d31;stroke-opacity:0.1;" x="0" xlink:href="#m36b4fe1f0d" y="648"/>
    </g>
   </g>
   <g id="PolyCollection_3">
    <defs>
     <path d="M 412.836482 -520.084533 
L 412.836482 -520.084533 
L 421.932811 -520.084533 
L 431.029141 -520.084533 
L 440.12547 -520.084533 
L 449.221799 -526.804236 
L 458.318129 -531.263665 
L 458.318129 -556.561258 
L 458.318129 -556.561258 
L 449.221799 -549.340717 
L 440.12547 -545.561884 
L 431.029141 -542.192297 
L 421.932811 -538.115846 
L 412.836482 -520.084533 
z
" id="m0a76eacf04" style="stroke:#33b07a;stroke-opacity:0.1;"/>
    </defs>
    <g clip-path="url(#p9ce55bc565)">
     <use style="fill:#33b07a;fill-opacity:0.1;stroke:#33b07a;stroke-opacity:0.1;" x="0" xlink:href="#m0a76eacf04" y="648"/>
    </g>
   </g>
   <g id="PolyCollection_4">
    <defs>
     <path d="M 412.836482 -498.287242 
L 412.836482 -498.287242 
L 421.932811 -498.287242 
L 431.029141 -498.287242 
L 440.12547 -498.287242 
L 449.221799 -498.287242 
L 458.318129 -498.47105 
L 458.318129 -521.255659 
L 458.318129 -521.255659 
L 449.221799 -520.08754 
L 440.12547 -515.770243 
L 431.029141 -512.448654 
L 421.932811 -509.901391 
L 412.836482 -498.287242 
z
" id="m77b343388c" style="stroke:#38a9c5;stroke-opacity:0.1;"/>
    </defs>
    <g clip-path="url(#p9ce55bc565)">
     <use style="fill:#38a9c5;fill-opacity:0.1;stroke:#38a9c5;stroke-opacity:0.1;" x="0" xlink:href="#m77b343388c" y="648"/>
    </g>
   </g>
   <g id="PolyCollection_5">
    <defs>
     <path d="M 412.836482 -492.466936 
L 412.836482 -492.466936 
L 421.932811 -492.466936 
L 431.029141 -493.161569 
L 440.12547 -494.01657 
L 449.221799 -494.555521 
L 458.318129 -494.157062 
L 458.318129 -501.534437 
L 458.318129 -501.534437 
L 449.221799 -498.816752 
L 440.12547 -497.072331 
L 431.029141 -495.75353 
L 421.932811 -494.416061 
L 412.836482 -492.466936 
z
" id="mef1baa1664" style="stroke:#cc7af4;stroke-opacity:0.1;"/>
    </defs>
    <g clip-path="url(#p9ce55bc565)">
     <use style="fill:#cc7af4;fill-opacity:0.1;stroke:#cc7af4;stroke-opacity:0.1;" x="0" xlink:href="#mef1baa1664" y="648"/>
    </g>
   </g>
   <g id="matplotlib.axis_1">
    <g id="xtick_1">
     <g id="line2d_1">
      <defs>
       <path d="M 0 0 
L 0 3.5 
" id="m04df5468d6" style="stroke:#ffffff;stroke-width:0.8;"/>
      </defs>
      <g>
       <use style="fill:#ffffff;stroke:#ffffff;stroke-width:0.8;" x="76.272292" xlink:href="#m04df5468d6" y="190.626667"/>
      </g>
     </g>
     <g id="text_1">
      <!-- 3/22 -->
      <defs>
       <path d="M 40.578125 39.3125 
Q 47.65625 37.796875 51.625 33 
Q 55.609375 28.21875 55.609375 21.1875 
Q 55.609375 10.40625 48.1875 4.484375 
Q 40.765625 -1.421875 27.09375 -1.421875 
Q 22.515625 -1.421875 17.65625 -0.515625 
Q 12.796875 0.390625 7.625 2.203125 
L 7.625 11.71875 
Q 11.71875 9.328125 16.59375 8.109375 
Q 21.484375 6.890625 26.8125 6.890625 
Q 36.078125 6.890625 40.9375 10.546875 
Q 45.796875 14.203125 45.796875 21.1875 
Q 45.796875 27.640625 41.28125 31.265625 
Q 36.765625 34.90625 28.71875 34.90625 
L 20.21875 34.90625 
L 20.21875 43.015625 
L 29.109375 43.015625 
Q 36.375 43.015625 40.234375 45.921875 
Q 44.09375 48.828125 44.09375 54.296875 
Q 44.09375 59.90625 40.109375 62.90625 
Q 36.140625 65.921875 28.71875 65.921875 
Q 24.65625 65.921875 20.015625 65.03125 
Q 15.375 64.15625 9.8125 62.3125 
L 9.8125 71.09375 
Q 15.4375 72.65625 20.34375 73.4375 
Q 25.25 74.21875 29.59375 74.21875 
Q 40.828125 74.21875 47.359375 69.109375 
Q 53.90625 64.015625 53.90625 55.328125 
Q 53.90625 49.265625 50.4375 45.09375 
Q 46.96875 40.921875 40.578125 39.3125 
z
" id="DejaVuSans-51"/>
       <path d="M 25.390625 72.90625 
L 33.6875 72.90625 
L 8.296875 -9.28125 
L 0 -9.28125 
z
" id="DejaVuSans-47"/>
       <path d="M 19.1875 8.296875 
L 53.609375 8.296875 
L 53.609375 0 
L 7.328125 0 
L 7.328125 8.296875 
Q 12.9375 14.109375 22.625 23.890625 
Q 32.328125 33.6875 34.8125 36.53125 
Q 39.546875 41.84375 41.421875 45.53125 
Q 43.3125 49.21875 43.3125 52.78125 
Q 43.3125 58.59375 39.234375 62.25 
Q 35.15625 65.921875 28.609375 65.921875 
Q 23.96875 65.921875 18.8125 64.3125 
Q 13.671875 62.703125 7.8125 59.421875 
L 7.8125 69.390625 
Q 13.765625 71.78125 18.9375 73 
Q 24.125 74.21875 28.421875 74.21875 
Q 39.75 74.21875 46.484375 68.546875 
Q 53.21875 62.890625 53.21875 53.421875 
Q 53.21875 48.921875 51.53125 44.890625 
Q 49.859375 40.875 45.40625 35.40625 
Q 44.1875 33.984375 37.640625 27.21875 
Q 31.109375 20.453125 19.1875 8.296875 
z
" id="DejaVuSans-50"/>
      </defs>
      <g style="fill:#ffffff;" transform="translate(65.044167 205.225104)scale(0.1 -0.1)">
       <use xlink:href="#DejaVuSans-51"/>
       <use x="63.623047" xlink:href="#DejaVuSans-47"/>
       <use x="97.314453" xlink:href="#DejaVuSans-50"/>
       <use x="160.9375" xlink:href="#DejaVuSans-50"/>
      </g>
     </g>
    </g>
    <g id="xtick_2">
     <g id="line2d_2">
      <g>
       <use style="fill:#ffffff;stroke:#ffffff;stroke-width:0.8;" x="412.836482" xlink:href="#m04df5468d6" y="190.626667"/>
      </g>
     </g>
     <g id="text_2">
      <!-- 4/29 -->
      <defs>
       <path d="M 37.796875 64.3125 
L 12.890625 25.390625 
L 37.796875 25.390625 
z
M 35.203125 72.90625 
L 47.609375 72.90625 
L 47.609375 25.390625 
L 58.015625 25.390625 
L 58.015625 17.1875 
L 47.609375 17.1875 
L 47.609375 0 
L 37.796875 0 
L 37.796875 17.1875 
L 4.890625 17.1875 
L 4.890625 26.703125 
z
" id="DejaVuSans-52"/>
       <path d="M 10.984375 1.515625 
L 10.984375 10.5 
Q 14.703125 8.734375 18.5 7.8125 
Q 22.3125 6.890625 25.984375 6.890625 
Q 35.75 6.890625 40.890625 13.453125 
Q 46.046875 20.015625 46.78125 33.40625 
Q 43.953125 29.203125 39.59375 26.953125 
Q 35.25 24.703125 29.984375 24.703125 
Q 19.046875 24.703125 12.671875 31.3125 
Q 6.296875 37.9375 6.296875 49.421875 
Q 6.296875 60.640625 12.9375 67.421875 
Q 19.578125 74.21875 30.609375 74.21875 
Q 43.265625 74.21875 49.921875 64.515625 
Q 56.59375 54.828125 56.59375 36.375 
Q 56.59375 19.140625 48.40625 8.859375 
Q 40.234375 -1.421875 26.421875 -1.421875 
Q 22.703125 -1.421875 18.890625 -0.6875 
Q 15.09375 0.046875 10.984375 1.515625 
z
M 30.609375 32.421875 
Q 37.25 32.421875 41.125 36.953125 
Q 45.015625 41.5 45.015625 49.421875 
Q 45.015625 57.28125 41.125 61.84375 
Q 37.25 66.40625 30.609375 66.40625 
Q 23.96875 66.40625 20.09375 61.84375 
Q 16.21875 57.28125 16.21875 49.421875 
Q 16.21875 41.5 20.09375 36.953125 
Q 23.96875 32.421875 30.609375 32.421875 
z
" id="DejaVuSans-57"/>
      </defs>
      <g style="fill:#ffffff;" transform="translate(401.608357 205.225104)scale(0.1 -0.1)">
       <use xlink:href="#DejaVuSans-52"/>
       <use x="63.623047" xlink:href="#DejaVuSans-47"/>
       <use x="97.314453" xlink:href="#DejaVuSans-50"/>
       <use x="160.9375" xlink:href="#DejaVuSans-57"/>
      </g>
     </g>
    </g>
    <g id="xtick_3">
     <g id="line2d_3">
      <g>
       <use style="fill:#ffffff;stroke:#ffffff;stroke-width:0.8;" x="458.318129" xlink:href="#m04df5468d6" y="190.626667"/>
      </g>
     </g>
     <g id="text_3">
      <!-- 5/4 -->
      <defs>
       <path d="M 10.796875 72.90625 
L 49.515625 72.90625 
L 49.515625 64.59375 
L 19.828125 64.59375 
L 19.828125 46.734375 
Q 21.96875 47.46875 24.109375 47.828125 
Q 26.265625 48.1875 28.421875 48.1875 
Q 40.625 48.1875 47.75 41.5 
Q 54.890625 34.8125 54.890625 23.390625 
Q 54.890625 11.625 47.5625 5.09375 
Q 40.234375 -1.421875 26.90625 -1.421875 
Q 22.3125 -1.421875 17.546875 -0.640625 
Q 12.796875 0.140625 7.71875 1.703125 
L 7.71875 11.625 
Q 12.109375 9.234375 16.796875 8.0625 
Q 21.484375 6.890625 26.703125 6.890625 
Q 35.15625 6.890625 40.078125 11.328125 
Q 45.015625 15.765625 45.015625 23.390625 
Q 45.015625 31 40.078125 35.4375 
Q 35.15625 39.890625 26.703125 39.890625 
Q 22.75 39.890625 18.8125 39.015625 
Q 14.890625 38.140625 10.796875 36.28125 
z
" id="DejaVuSans-53"/>
      </defs>
      <g style="fill:#ffffff;" transform="translate(450.271254 205.225104)scale(0.1 -0.1)">
       <use xlink:href="#DejaVuSans-53"/>
       <use x="63.623047" xlink:href="#DejaVuSans-47"/>
       <use x="97.314453" xlink:href="#DejaVuSans-52"/>
      </g>
     </g>
    </g>
   </g>
   <g id="matplotlib.axis_2">
    <g id="ytick_1">
     <g id="line2d_4">
      <defs>
       <path d="M 0 0 
L -3.5 0 
" id="m6f9df64f73" style="stroke:#ffffff;stroke-width:0.8;"/>
      </defs>
      <g>
       <use style="fill:#ffffff;stroke:#ffffff;stroke-width:0.8;" x="57.17" xlink:href="#m6f9df64f73" y="183.266077"/>
      </g>
     </g>
     <g id="text_4">
      <!-- 0 -->
      <defs>
       <path d="M 31.78125 66.40625 
Q 24.171875 66.40625 20.328125 58.90625 
Q 16.5 51.421875 16.5 36.375 
Q 16.5 21.390625 20.328125 13.890625 
Q 24.171875 6.390625 31.78125 6.390625 
Q 39.453125 6.390625 43.28125 13.890625 
Q 47.125 21.390625 47.125 36.375 
Q 47.125 51.421875 43.28125 58.90625 
Q 39.453125 66.40625 31.78125 66.40625 
z
M 31.78125 74.21875 
Q 44.046875 74.21875 50.515625 64.515625 
Q 56.984375 54.828125 56.984375 36.375 
Q 56.984375 17.96875 50.515625 8.265625 
Q 44.046875 -1.421875 31.78125 -1.421875 
Q 19.53125 -1.421875 13.0625 8.265625 
Q 6.59375 17.96875 6.59375 36.375 
Q 6.59375 54.828125 13.0625 64.515625 
Q 19.53125 74.21875 31.78125 74.21875 
z
" id="DejaVuSans-48"/>
      </defs>
      <g style="fill:#ffffff;" transform="translate(43.8075 187.065296)scale(0.1 -0.1)">
       <use xlink:href="#DejaVuSans-48"/>
      </g>
     </g>
    </g>
    <g id="ytick_2">
     <g id="line2d_5">
      <g>
       <use style="fill:#ffffff;stroke:#ffffff;stroke-width:0.8;" x="57.17" xlink:href="#m6f9df64f73" y="150.289842"/>
      </g>
     </g>
     <g id="text_5">
      <!-- 2000 -->
      <g style="fill:#ffffff;" transform="translate(24.72 154.089061)scale(0.1 -0.1)">
       <use xlink:href="#DejaVuSans-50"/>
       <use x="63.623047" xlink:href="#DejaVuSans-48"/>
       <use x="127.246094" xlink:href="#DejaVuSans-48"/>
       <use x="190.869141" xlink:href="#DejaVuSans-48"/>
      </g>
     </g>
    </g>
    <g id="ytick_3">
     <g id="line2d_6">
      <g>
       <use style="fill:#ffffff;stroke:#ffffff;stroke-width:0.8;" x="57.17" xlink:href="#m6f9df64f73" y="117.313608"/>
      </g>
     </g>
     <g id="text_6">
      <!-- 4000 -->
      <g style="fill:#ffffff;" transform="translate(24.72 121.112827)scale(0.1 -0.1)">
       <use xlink:href="#DejaVuSans-52"/>
       <use x="63.623047" xlink:href="#DejaVuSans-48"/>
       <use x="127.246094" xlink:href="#DejaVuSans-48"/>
       <use x="190.869141" xlink:href="#DejaVuSans-48"/>
      </g>
     </g>
    </g>
    <g id="ytick_4">
     <g id="line2d_7">
      <g>
       <use style="fill:#ffffff;stroke:#ffffff;stroke-width:0.8;" x="57.17" xlink:href="#m6f9df64f73" y="84.337373"/>
      </g>
     </g>
     <g id="text_7">
      <!-- 6000 -->
      <defs>
       <path d="M 33.015625 40.375 
Q 26.375 40.375 22.484375 35.828125 
Q 18.609375 31.296875 18.609375 23.390625 
Q 18.609375 15.53125 22.484375 10.953125 
Q 26.375 6.390625 33.015625 6.390625 
Q 39.65625 6.390625 43.53125 10.953125 
Q 47.40625 15.53125 47.40625 23.390625 
Q 47.40625 31.296875 43.53125 35.828125 
Q 39.65625 40.375 33.015625 40.375 
z
M 52.59375 71.296875 
L 52.59375 62.3125 
Q 48.875 64.0625 45.09375 64.984375 
Q 41.3125 65.921875 37.59375 65.921875 
Q 27.828125 65.921875 22.671875 59.328125 
Q 17.53125 52.734375 16.796875 39.40625 
Q 19.671875 43.65625 24.015625 45.921875 
Q 28.375 48.1875 33.59375 48.1875 
Q 44.578125 48.1875 50.953125 41.515625 
Q 57.328125 34.859375 57.328125 23.390625 
Q 57.328125 12.15625 50.6875 5.359375 
Q 44.046875 -1.421875 33.015625 -1.421875 
Q 20.359375 -1.421875 13.671875 8.265625 
Q 6.984375 17.96875 6.984375 36.375 
Q 6.984375 53.65625 15.1875 63.9375 
Q 23.390625 74.21875 37.203125 74.21875 
Q 40.921875 74.21875 44.703125 73.484375 
Q 48.484375 72.75 52.59375 71.296875 
z
" id="DejaVuSans-54"/>
      </defs>
      <g style="fill:#ffffff;" transform="translate(24.72 88.136592)scale(0.1 -0.1)">
       <use xlink:href="#DejaVuSans-54"/>
       <use x="63.623047" xlink:href="#DejaVuSans-48"/>
       <use x="127.246094" xlink:href="#DejaVuSans-48"/>
       <use x="190.869141" xlink:href="#DejaVuSans-48"/>
      </g>
     </g>
    </g>
    <g id="ytick_5">
     <g id="line2d_8">
      <g>
       <use style="fill:#ffffff;stroke:#ffffff;stroke-width:0.8;" x="57.17" xlink:href="#m6f9df64f73" y="51.361139"/>
      </g>
     </g>
     <g id="text_8">
      <!-- 8000 -->
      <defs>
       <path d="M 31.78125 34.625 
Q 24.75 34.625 20.71875 30.859375 
Q 16.703125 27.09375 16.703125 20.515625 
Q 16.703125 13.921875 20.71875 10.15625 
Q 24.75 6.390625 31.78125 6.390625 
Q 38.8125 6.390625 42.859375 10.171875 
Q 46.921875 13.96875 46.921875 20.515625 
Q 46.921875 27.09375 42.890625 30.859375 
Q 38.875 34.625 31.78125 34.625 
z
M 21.921875 38.8125 
Q 15.578125 40.375 12.03125 44.71875 
Q 8.5 49.078125 8.5 55.328125 
Q 8.5 64.0625 14.71875 69.140625 
Q 20.953125 74.21875 31.78125 74.21875 
Q 42.671875 74.21875 48.875 69.140625 
Q 55.078125 64.0625 55.078125 55.328125 
Q 55.078125 49.078125 51.53125 44.71875 
Q 48 40.375 41.703125 38.8125 
Q 48.828125 37.15625 52.796875 32.3125 
Q 56.78125 27.484375 56.78125 20.515625 
Q 56.78125 9.90625 50.3125 4.234375 
Q 43.84375 -1.421875 31.78125 -1.421875 
Q 19.734375 -1.421875 13.25 4.234375 
Q 6.78125 9.90625 6.78125 20.515625 
Q 6.78125 27.484375 10.78125 32.3125 
Q 14.796875 37.15625 21.921875 38.8125 
z
M 18.3125 54.390625 
Q 18.3125 48.734375 21.84375 45.5625 
Q 25.390625 42.390625 31.78125 42.390625 
Q 38.140625 42.390625 41.71875 45.5625 
Q 45.3125 48.734375 45.3125 54.390625 
Q 45.3125 60.0625 41.71875 63.234375 
Q 38.140625 66.40625 31.78125 66.40625 
Q 25.390625 66.40625 21.84375 63.234375 
Q 18.3125 60.0625 18.3125 54.390625 
z
" id="DejaVuSans-56"/>
      </defs>
      <g style="fill:#ffffff;" transform="translate(24.72 55.160357)scale(0.1 -0.1)">
       <use xlink:href="#DejaVuSans-56"/>
       <use x="63.623047" xlink:href="#DejaVuSans-48"/>
       <use x="127.246094" xlink:href="#DejaVuSans-48"/>
       <use x="190.869141" xlink:href="#DejaVuSans-48"/>
      </g>
     </g>
    </g>
    <g id="text_9">
     <!-- Cumulative deaths -->
     <defs>
      <path d="M 64.40625 67.28125 
L 64.40625 56.890625 
Q 59.421875 61.53125 53.78125 63.8125 
Q 48.140625 66.109375 41.796875 66.109375 
Q 29.296875 66.109375 22.65625 58.46875 
Q 16.015625 50.828125 16.015625 36.375 
Q 16.015625 21.96875 22.65625 14.328125 
Q 29.296875 6.6875 41.796875 6.6875 
Q 48.140625 6.6875 53.78125 8.984375 
Q 59.421875 11.28125 64.40625 15.921875 
L 64.40625 5.609375 
Q 59.234375 2.09375 53.4375 0.328125 
Q 47.65625 -1.421875 41.21875 -1.421875 
Q 24.65625 -1.421875 15.125 8.703125 
Q 5.609375 18.84375 5.609375 36.375 
Q 5.609375 53.953125 15.125 64.078125 
Q 24.65625 74.21875 41.21875 74.21875 
Q 47.75 74.21875 53.53125 72.484375 
Q 59.328125 70.75 64.40625 67.28125 
z
" id="DejaVuSans-67"/>
      <path d="M 8.5 21.578125 
L 8.5 54.6875 
L 17.484375 54.6875 
L 17.484375 21.921875 
Q 17.484375 14.15625 20.5 10.265625 
Q 23.53125 6.390625 29.59375 6.390625 
Q 36.859375 6.390625 41.078125 11.03125 
Q 45.3125 15.671875 45.3125 23.6875 
L 45.3125 54.6875 
L 54.296875 54.6875 
L 54.296875 0 
L 45.3125 0 
L 45.3125 8.40625 
Q 42.046875 3.421875 37.71875 1 
Q 33.40625 -1.421875 27.6875 -1.421875 
Q 18.265625 -1.421875 13.375 4.4375 
Q 8.5 10.296875 8.5 21.578125 
z
M 31.109375 56 
z
" id="DejaVuSans-117"/>
      <path d="M 52 44.1875 
Q 55.375 50.25 60.0625 53.125 
Q 64.75 56 71.09375 56 
Q 79.640625 56 84.28125 50.015625 
Q 88.921875 44.046875 88.921875 33.015625 
L 88.921875 0 
L 79.890625 0 
L 79.890625 32.71875 
Q 79.890625 40.578125 77.09375 44.375 
Q 74.3125 48.1875 68.609375 48.1875 
Q 61.625 48.1875 57.5625 43.546875 
Q 53.515625 38.921875 53.515625 30.90625 
L 53.515625 0 
L 44.484375 0 
L 44.484375 32.71875 
Q 44.484375 40.625 41.703125 44.40625 
Q 38.921875 48.1875 33.109375 48.1875 
Q 26.21875 48.1875 22.15625 43.53125 
Q 18.109375 38.875 18.109375 30.90625 
L 18.109375 0 
L 9.078125 0 
L 9.078125 54.6875 
L 18.109375 54.6875 
L 18.109375 46.1875 
Q 21.1875 51.21875 25.484375 53.609375 
Q 29.78125 56 35.6875 56 
Q 41.65625 56 45.828125 52.96875 
Q 50 49.953125 52 44.1875 
z
" id="DejaVuSans-109"/>
      <path d="M 9.421875 75.984375 
L 18.40625 75.984375 
L 18.40625 0 
L 9.421875 0 
z
" id="DejaVuSans-108"/>
      <path d="M 34.28125 27.484375 
Q 23.390625 27.484375 19.1875 25 
Q 14.984375 22.515625 14.984375 16.5 
Q 14.984375 11.71875 18.140625 8.90625 
Q 21.296875 6.109375 26.703125 6.109375 
Q 34.1875 6.109375 38.703125 11.40625 
Q 43.21875 16.703125 43.21875 25.484375 
L 43.21875 27.484375 
z
M 52.203125 31.203125 
L 52.203125 0 
L 43.21875 0 
L 43.21875 8.296875 
Q 40.140625 3.328125 35.546875 0.953125 
Q 30.953125 -1.421875 24.3125 -1.421875 
Q 15.921875 -1.421875 10.953125 3.296875 
Q 6 8.015625 6 15.921875 
Q 6 25.140625 12.171875 29.828125 
Q 18.359375 34.515625 30.609375 34.515625 
L 43.21875 34.515625 
L 43.21875 35.40625 
Q 43.21875 41.609375 39.140625 45 
Q 35.0625 48.390625 27.6875 48.390625 
Q 23 48.390625 18.546875 47.265625 
Q 14.109375 46.140625 10.015625 43.890625 
L 10.015625 52.203125 
Q 14.9375 54.109375 19.578125 55.046875 
Q 24.21875 56 28.609375 56 
Q 40.484375 56 46.34375 49.84375 
Q 52.203125 43.703125 52.203125 31.203125 
z
" id="DejaVuSans-97"/>
      <path d="M 18.3125 70.21875 
L 18.3125 54.6875 
L 36.8125 54.6875 
L 36.8125 47.703125 
L 18.3125 47.703125 
L 18.3125 18.015625 
Q 18.3125 11.328125 20.140625 9.421875 
Q 21.96875 7.515625 27.59375 7.515625 
L 36.8125 7.515625 
L 36.8125 0 
L 27.59375 0 
Q 17.1875 0 13.234375 3.875 
Q 9.28125 7.765625 9.28125 18.015625 
L 9.28125 47.703125 
L 2.6875 47.703125 
L 2.6875 54.6875 
L 9.28125 54.6875 
L 9.28125 70.21875 
z
" id="DejaVuSans-116"/>
      <path d="M 9.421875 54.6875 
L 18.40625 54.6875 
L 18.40625 0 
L 9.421875 0 
z
M 9.421875 75.984375 
L 18.40625 75.984375 
L 18.40625 64.59375 
L 9.421875 64.59375 
z
" id="DejaVuSans-105"/>
      <path d="M 2.984375 54.6875 
L 12.5 54.6875 
L 29.59375 8.796875 
L 46.6875 54.6875 
L 56.203125 54.6875 
L 35.6875 0 
L 23.484375 0 
z
" id="DejaVuSans-118"/>
      <path d="M 56.203125 29.59375 
L 56.203125 25.203125 
L 14.890625 25.203125 
Q 15.484375 15.921875 20.484375 11.0625 
Q 25.484375 6.203125 34.421875 6.203125 
Q 39.59375 6.203125 44.453125 7.46875 
Q 49.3125 8.734375 54.109375 11.28125 
L 54.109375 2.78125 
Q 49.265625 0.734375 44.1875 -0.34375 
Q 39.109375 -1.421875 33.890625 -1.421875 
Q 20.796875 -1.421875 13.15625 6.1875 
Q 5.515625 13.8125 5.515625 26.8125 
Q 5.515625 40.234375 12.765625 48.109375 
Q 20.015625 56 32.328125 56 
Q 43.359375 56 49.78125 48.890625 
Q 56.203125 41.796875 56.203125 29.59375 
z
M 47.21875 32.234375 
Q 47.125 39.59375 43.09375 43.984375 
Q 39.0625 48.390625 32.421875 48.390625 
Q 24.90625 48.390625 20.390625 44.140625 
Q 15.875 39.890625 15.1875 32.171875 
z
" id="DejaVuSans-101"/>
      <path id="DejaVuSans-32"/>
      <path d="M 45.40625 46.390625 
L 45.40625 75.984375 
L 54.390625 75.984375 
L 54.390625 0 
L 45.40625 0 
L 45.40625 8.203125 
Q 42.578125 3.328125 38.25 0.953125 
Q 33.9375 -1.421875 27.875 -1.421875 
Q 17.96875 -1.421875 11.734375 6.484375 
Q 5.515625 14.40625 5.515625 27.296875 
Q 5.515625 40.1875 11.734375 48.09375 
Q 17.96875 56 27.875 56 
Q 33.9375 56 38.25 53.625 
Q 42.578125 51.265625 45.40625 46.390625 
z
M 14.796875 27.296875 
Q 14.796875 17.390625 18.875 11.75 
Q 22.953125 6.109375 30.078125 6.109375 
Q 37.203125 6.109375 41.296875 11.75 
Q 45.40625 17.390625 45.40625 27.296875 
Q 45.40625 37.203125 41.296875 42.84375 
Q 37.203125 48.484375 30.078125 48.484375 
Q 22.953125 48.484375 18.875 42.84375 
Q 14.796875 37.203125 14.796875 27.296875 
z
" id="DejaVuSans-100"/>
      <path d="M 54.890625 33.015625 
L 54.890625 0 
L 45.90625 0 
L 45.90625 32.71875 
Q 45.90625 40.484375 42.875 44.328125 
Q 39.84375 48.1875 33.796875 48.1875 
Q 26.515625 48.1875 22.3125 43.546875 
Q 18.109375 38.921875 18.109375 30.90625 
L 18.109375 0 
L 9.078125 0 
L 9.078125 75.984375 
L 18.109375 75.984375 
L 18.109375 46.1875 
Q 21.34375 51.125 25.703125 53.5625 
Q 30.078125 56 35.796875 56 
Q 45.21875 56 50.046875 50.171875 
Q 54.890625 44.34375 54.890625 33.015625 
z
" id="DejaVuSans-104"/>
      <path d="M 44.28125 53.078125 
L 44.28125 44.578125 
Q 40.484375 46.53125 36.375 47.5 
Q 32.28125 48.484375 27.875 48.484375 
Q 21.1875 48.484375 17.84375 46.4375 
Q 14.5 44.390625 14.5 40.28125 
Q 14.5 37.15625 16.890625 35.375 
Q 19.28125 33.59375 26.515625 31.984375 
L 29.59375 31.296875 
Q 39.15625 29.25 43.1875 25.515625 
Q 47.21875 21.78125 47.21875 15.09375 
Q 47.21875 7.46875 41.1875 3.015625 
Q 35.15625 -1.421875 24.609375 -1.421875 
Q 20.21875 -1.421875 15.453125 -0.5625 
Q 10.6875 0.296875 5.421875 2 
L 5.421875 11.28125 
Q 10.40625 8.6875 15.234375 7.390625 
Q 20.0625 6.109375 24.8125 6.109375 
Q 31.15625 6.109375 34.5625 8.28125 
Q 37.984375 10.453125 37.984375 14.40625 
Q 37.984375 18.0625 35.515625 20.015625 
Q 33.0625 21.96875 24.703125 23.78125 
L 21.578125 24.515625 
Q 13.234375 26.265625 9.515625 29.90625 
Q 5.8125 33.546875 5.8125 39.890625 
Q 5.8125 47.609375 11.28125 51.796875 
Q 16.75 56 26.8125 56 
Q 31.78125 56 36.171875 55.265625 
Q 40.578125 54.546875 44.28125 53.078125 
z
" id="DejaVuSans-115"/>
     </defs>
     <g style="fill:#ffffff;" transform="translate(18.640313 155.928333)rotate(-90)scale(0.1 -0.1)">
      <use xlink:href="#DejaVuSans-67"/>
      <use x="69.824219" xlink:href="#DejaVuSans-117"/>
      <use x="133.203125" xlink:href="#DejaVuSans-109"/>
      <use x="230.615234" xlink:href="#DejaVuSans-117"/>
      <use x="293.994141" xlink:href="#DejaVuSans-108"/>
      <use x="321.777344" xlink:href="#DejaVuSans-97"/>
      <use x="383.056641" xlink:href="#DejaVuSans-116"/>
      <use x="422.265625" xlink:href="#DejaVuSans-105"/>
      <use x="450.048828" xlink:href="#DejaVuSans-118"/>
      <use x="509.228516" xlink:href="#DejaVuSans-101"/>
      <use x="570.751953" xlink:href="#DejaVuSans-32"/>
      <use x="602.539062" xlink:href="#DejaVuSans-100"/>
      <use x="666.015625" xlink:href="#DejaVuSans-101"/>
      <use x="727.539062" xlink:href="#DejaVuSans-97"/>
      <use x="788.818359" xlink:href="#DejaVuSans-116"/>
      <use x="828.027344" xlink:href="#DejaVuSans-104"/>
      <use x="891.40625" xlink:href="#DejaVuSans-115"/>
     </g>
    </g>
   </g>
   <g id="line2d_9">
    <path clip-path="url(#p9ce55bc565)" d="M 76.272292 183.035243 
L 85.368621 182.820898 
L 94.464951 182.524112 
L 103.56128 182.210837 
L 112.65761 181.930539 
L 121.753939 181.584289 
L 130.850269 180.512561 
L 139.946598 180.215775 
L 149.042927 179.721132 
L 158.139257 178.962678 
L 167.235586 177.857974 
L 176.331916 176.918152 
L 185.428245 175.26934 
L 194.524575 173.208325 
L 203.620904 168.492724 
L 212.717234 166.415221 
L 221.813563 164.255278 
L 230.909893 161.617179 
L 240.006222 158.97908 
L 249.102551 156.225565 
L 258.198881 152.878477 
L 267.29521 149.828175 
L 276.39154 148.113411 
L 285.487869 142.07876 
L 294.584199 139.209828 
L 303.680528 136.917979 
L 312.776858 136.917979 
L 321.873187 136.917979 
L 330.969517 131.13065 
L 340.065846 129.498326 
L 349.162175 127.866003 
L 358.258505 126.250167 
L 367.354834 124.898142 
L 376.451164 123.265818 
L 385.547493 121.699447 
L 394.643823 120.380398 
L 403.740152 119.259206 
L 412.836482 96.19233 
" style="fill:none;stroke:#f77189;stroke-linecap:square;stroke-width:1.5;"/>
   </g>
   <g id="line2d_10">
    <path clip-path="url(#p9ce55bc565)" d="M 412.836482 96.19233 
L 421.932811 91.744088 
L 431.029141 83.564383 
L 440.12547 74.870061 
L 449.221799 65.550869 
L 458.318129 55.571108 
" style="fill:none;stroke:#f77189;stroke-dasharray:1.5,2.475;stroke-dashoffset:0;stroke-width:1.5;"/>
   </g>
   <g id="line2d_11">
    <path clip-path="url(#p9ce55bc565)" d="M 76.272292 182.919826 
L 85.368621 182.606552 
L 94.464951 182.27679 
L 103.56128 181.74917 
L 112.65761 181.22155 
L 121.753939 180.809347 
L 130.850269 179.704644 
L 139.946598 179.094583 
L 149.042927 178.237201 
L 158.139257 177.066545 
L 167.235586 175.895889 
L 176.331916 175.038506 
L 185.428245 173.538088 
L 194.524575 171.971717 
L 203.620904 169.861238 
L 212.717234 167.635342 
L 221.813563 164.650993 
L 230.909893 161.106047 
L 240.006222 160.182713 
L 249.102551 154.263479 
L 258.198881 152.796036 
L 267.29521 148.377221 
L 276.39154 148.377221 
L 285.487869 143.348345 
L 294.584199 140.33102 
L 303.680528 137.857802 
L 312.776858 137.857802 
L 321.873187 137.857802 
L 330.969517 131.92208 
L 340.065846 130.157851 
L 349.162175 128.377135 
L 358.258505 126.678858 
L 367.354834 125.227904 
L 376.451164 123.892367 
L 385.547493 122.622782 
L 394.643823 121.336708 
L 403.740152 120.232005 
L 412.836482 101.105789 
" style="fill:none;stroke:#ae9d31;stroke-linecap:square;stroke-width:1.5;"/>
   </g>
   <g id="line2d_12">
    <path clip-path="url(#p9ce55bc565)" d="M 412.836482 101.105789 
L 421.932811 96.752339 
L 431.029141 89.324707 
L 440.12547 81.486673 
L 449.221799 73.202132 
L 458.318129 64.467044 
" style="fill:none;stroke:#ae9d31;stroke-dasharray:1.5,2.475;stroke-dashoffset:0;stroke-width:1.5;"/>
   </g>
   <g id="line2d_13">
    <path clip-path="url(#p9ce55bc565)" d="M 76.272292 183.035243 
L 85.368621 182.80441 
L 94.464951 182.5406 
L 103.56128 182.27679 
L 112.65761 181.963516 
L 121.753939 181.600777 
L 130.850269 180.759883 
L 139.946598 180.166311 
L 149.042927 179.721132 
L 158.139257 178.94619 
L 167.235586 177.330355 
L 176.331916 176.32458 
L 185.428245 175.351781 
L 194.524575 173.768921 
L 203.620904 172.928027 
L 212.717234 171.576002 
L 221.813563 168.393795 
L 230.909893 166.761472 
L 240.006222 166.019506 
L 249.102551 162.804323 
L 258.198881 161.69962 
L 267.29521 160.182713 
L 276.39154 159.622117 
L 285.487869 155.961755 
L 294.584199 154.065621 
L 303.680528 152.845501 
L 312.776858 152.845501 
L 321.873187 152.845501 
L 330.969517 148.954305 
L 340.065846 147.981506 
L 349.162175 147.041683 
L 358.258505 146.035908 
L 367.354834 144.766323 
L 376.451164 143.892453 
L 385.547493 143.002095 
L 394.643823 142.260129 
L 403.740152 141.386259 
L 412.836482 127.915467 
" style="fill:none;stroke:#33b07a;stroke-linecap:square;stroke-width:1.5;"/>
   </g>
   <g id="line2d_14">
    <path clip-path="url(#p9ce55bc565)" d="M 412.836482 127.915467 
L 421.932811 125.026644 
L 431.029141 119.979102 
L 440.12547 114.673218 
L 449.221799 109.096204 
L 458.318129 103.240081 
" style="fill:none;stroke:#33b07a;stroke-dasharray:1.5,2.475;stroke-dashoffset:0;stroke-width:1.5;"/>
   </g>
   <g id="line2d_15">
    <path clip-path="url(#p9ce55bc565)" d="M 76.272292 183.101196 
L 85.368621 182.952803 
L 94.464951 182.688993 
L 103.56128 182.557088 
L 112.65761 182.35923 
L 121.753939 182.194349 
L 130.850269 181.732682 
L 139.946598 181.567801 
L 149.042927 181.303991 
L 158.139257 181.13911 
L 167.235586 180.545538 
L 176.331916 180.331192 
L 185.428245 179.721132 
L 194.524575 178.913214 
L 203.620904 176.835711 
L 212.717234 176.077258 
L 221.813563 174.807673 
L 230.909893 173.307254 
L 240.006222 172.153086 
L 249.102551 171.213263 
L 258.198881 170.092071 
L 267.29521 169.267665 
L 276.39154 169.267665 
L 285.487869 167.38802 
L 294.584199 166.464685 
L 303.680528 165.623791 
L 312.776858 165.623791 
L 321.873187 165.623791 
L 330.969517 163.364919 
L 340.065846 162.622954 
L 349.162175 162.012894 
L 358.258505 161.221464 
L 367.354834 160.743309 
L 376.451164 160.743309 
L 385.547493 159.539676 
L 394.643823 158.929616 
L 403.740152 158.517413 
L 412.836482 149.712758 
" style="fill:none;stroke:#38a9c5;stroke-linecap:square;stroke-width:1.5;"/>
   </g>
   <g id="line2d_16">
    <path clip-path="url(#p9ce55bc565)" d="M 412.836482 149.712758 
L 421.932811 148.371518 
L 431.029141 145.741678 
L 440.12547 143.066264 
L 449.221799 140.349432 
L 458.318129 137.584051 
" style="fill:none;stroke:#38a9c5;stroke-dasharray:1.5,2.475;stroke-dashoffset:0;stroke-width:1.5;"/>
   </g>
   <g id="line2d_17">
    <path clip-path="url(#p9ce55bc565)" d="M 76.272292 183.183636 
L 85.368621 183.134172 
L 94.464951 183.051731 
L 103.56128 182.919826 
L 112.65761 182.837386 
L 121.753939 182.656017 
L 130.850269 182.507624 
L 139.946598 182.342742 
L 149.042927 181.897563 
L 158.139257 181.287503 
L 167.235586 180.858812 
L 176.331916 180.067382 
L 185.428245 179.589227 
L 194.524575 179.111071 
L 203.620904 178.435059 
L 212.717234 177.561188 
L 221.813563 176.637854 
L 230.909893 175.912377 
L 240.006222 174.956066 
L 249.102551 173.224814 
L 258.198881 172.515824 
L 267.29521 171.658442 
L 276.39154 171.658442 
L 285.487869 169.745821 
L 294.584199 168.690581 
L 303.680528 167.091234 
L 312.776858 166.052483 
L 321.873187 165.623791 
L 330.969517 164.815874 
L 340.065846 164.337718 
L 349.162175 162.194263 
L 358.258505 161.51825 
L 367.354834 160.248665 
L 376.451164 159.473724 
L 385.547493 157.544614 
L 394.643823 157.214852 
L 403.740152 156.522351 
L 412.836482 155.533064 
" style="fill:none;stroke:#cc7af4;stroke-linecap:square;stroke-width:1.5;"/>
   </g>
   <g id="line2d_18">
    <path clip-path="url(#p9ce55bc565)" d="M 412.836482 155.533064 
L 421.932811 154.612795 
L 431.029141 153.567779 
L 440.12547 152.49518 
L 449.221799 151.33485 
L 458.318129 150.125823 
" style="fill:none;stroke:#cc7af4;stroke-dasharray:1.5,2.475;stroke-dashoffset:0;stroke-width:1.5;"/>
   </g>
   <g id="patch_3">
    <path d="M 57.17 190.626667 
L 57.17 26.88 
" style="fill:none;stroke:#ffffff;stroke-linecap:square;stroke-linejoin:miter;stroke-width:0.8;"/>
   </g>
   <g id="patch_4">
    <path d="M 565.2 190.626667 
L 565.2 26.88 
" style="fill:none;stroke:#ffffff;stroke-linecap:square;stroke-linejoin:miter;stroke-width:0.8;"/>
   </g>
   <g id="patch_5">
    <path d="M 57.17 190.626667 
L 565.2 190.626667 
" style="fill:none;stroke:#ffffff;stroke-linecap:square;stroke-linejoin:miter;stroke-width:0.8;"/>
   </g>
   <g id="patch_6">
    <path d="M 57.17 26.88 
L 565.2 26.88 
" style="fill:none;stroke:#ffffff;stroke-linecap:square;stroke-linejoin:miter;stroke-width:0.8;"/>
   </g>
   <g id="text_10">
    <!-- Kings, NY -->
    <defs>
     <path d="M 9.8125 72.90625 
L 19.671875 72.90625 
L 19.671875 42.09375 
L 52.390625 72.90625 
L 65.09375 72.90625 
L 28.90625 38.921875 
L 67.671875 0 
L 54.6875 0 
L 19.671875 35.109375 
L 19.671875 0 
L 9.8125 0 
z
" id="DejaVuSans-75"/>
     <path d="M 54.890625 33.015625 
L 54.890625 0 
L 45.90625 0 
L 45.90625 32.71875 
Q 45.90625 40.484375 42.875 44.328125 
Q 39.84375 48.1875 33.796875 48.1875 
Q 26.515625 48.1875 22.3125 43.546875 
Q 18.109375 38.921875 18.109375 30.90625 
L 18.109375 0 
L 9.078125 0 
L 9.078125 54.6875 
L 18.109375 54.6875 
L 18.109375 46.1875 
Q 21.34375 51.125 25.703125 53.5625 
Q 30.078125 56 35.796875 56 
Q 45.21875 56 50.046875 50.171875 
Q 54.890625 44.34375 54.890625 33.015625 
z
" id="DejaVuSans-110"/>
     <path d="M 45.40625 27.984375 
Q 45.40625 37.75 41.375 43.109375 
Q 37.359375 48.484375 30.078125 48.484375 
Q 22.859375 48.484375 18.828125 43.109375 
Q 14.796875 37.75 14.796875 27.984375 
Q 14.796875 18.265625 18.828125 12.890625 
Q 22.859375 7.515625 30.078125 7.515625 
Q 37.359375 7.515625 41.375 12.890625 
Q 45.40625 18.265625 45.40625 27.984375 
z
M 54.390625 6.78125 
Q 54.390625 -7.171875 48.1875 -13.984375 
Q 42 -20.796875 29.203125 -20.796875 
Q 24.46875 -20.796875 20.265625 -20.09375 
Q 16.0625 -19.390625 12.109375 -17.921875 
L 12.109375 -9.1875 
Q 16.0625 -11.328125 19.921875 -12.34375 
Q 23.78125 -13.375 27.78125 -13.375 
Q 36.625 -13.375 41.015625 -8.765625 
Q 45.40625 -4.15625 45.40625 5.171875 
L 45.40625 9.625 
Q 42.625 4.78125 38.28125 2.390625 
Q 33.9375 0 27.875 0 
Q 17.828125 0 11.671875 7.65625 
Q 5.515625 15.328125 5.515625 27.984375 
Q 5.515625 40.671875 11.671875 48.328125 
Q 17.828125 56 27.875 56 
Q 33.9375 56 38.28125 53.609375 
Q 42.625 51.21875 45.40625 46.390625 
L 45.40625 54.6875 
L 54.390625 54.6875 
z
" id="DejaVuSans-103"/>
     <path d="M 11.71875 12.40625 
L 22.015625 12.40625 
L 22.015625 4 
L 14.015625 -11.625 
L 7.71875 -11.625 
L 11.71875 4 
z
" id="DejaVuSans-44"/>
     <path d="M 9.8125 72.90625 
L 23.09375 72.90625 
L 55.421875 11.921875 
L 55.421875 72.90625 
L 64.984375 72.90625 
L 64.984375 0 
L 51.703125 0 
L 19.390625 60.984375 
L 19.390625 0 
L 9.8125 0 
z
" id="DejaVuSans-78"/>
     <path d="M -0.203125 72.90625 
L 10.40625 72.90625 
L 30.609375 42.921875 
L 50.6875 72.90625 
L 61.28125 72.90625 
L 35.5 34.71875 
L 35.5 0 
L 25.59375 0 
L 25.59375 34.71875 
z
" id="DejaVuSans-89"/>
    </defs>
    <g style="fill:#f77189;" transform="translate(467.414458 53.129088)scale(0.08 -0.08)">
     <use xlink:href="#DejaVuSans-75"/>
     <use x="65.576172" xlink:href="#DejaVuSans-105"/>
     <use x="93.359375" xlink:href="#DejaVuSans-110"/>
     <use x="156.738281" xlink:href="#DejaVuSans-103"/>
     <use x="220.214844" xlink:href="#DejaVuSans-115"/>
     <use x="272.314453" xlink:href="#DejaVuSans-44"/>
     <use x="304.101562" xlink:href="#DejaVuSans-32"/>
     <use x="335.888672" xlink:href="#DejaVuSans-78"/>
     <use x="410.693359" xlink:href="#DejaVuSans-89"/>
    </g>
   </g>
   <g id="text_11">
    <!-- Queens, NY -->
    <defs>
     <path d="M 39.40625 66.21875 
Q 28.65625 66.21875 22.328125 58.203125 
Q 16.015625 50.203125 16.015625 36.375 
Q 16.015625 22.609375 22.328125 14.59375 
Q 28.65625 6.59375 39.40625 6.59375 
Q 50.140625 6.59375 56.421875 14.59375 
Q 62.703125 22.609375 62.703125 36.375 
Q 62.703125 50.203125 56.421875 58.203125 
Q 50.140625 66.21875 39.40625 66.21875 
z
M 53.21875 1.3125 
L 66.21875 -12.890625 
L 54.296875 -12.890625 
L 43.5 -1.21875 
Q 41.890625 -1.3125 41.03125 -1.359375 
Q 40.1875 -1.421875 39.40625 -1.421875 
Q 24.03125 -1.421875 14.8125 8.859375 
Q 5.609375 19.140625 5.609375 36.375 
Q 5.609375 53.65625 14.8125 63.9375 
Q 24.03125 74.21875 39.40625 74.21875 
Q 54.734375 74.21875 63.90625 63.9375 
Q 73.09375 53.65625 73.09375 36.375 
Q 73.09375 23.6875 67.984375 14.640625 
Q 62.890625 5.609375 53.21875 1.3125 
z
" id="DejaVuSans-81"/>
    </defs>
    <g style="fill:#ae9d31;" transform="translate(467.414458 71.324063)scale(0.08 -0.08)">
     <use xlink:href="#DejaVuSans-81"/>
     <use x="78.710938" xlink:href="#DejaVuSans-117"/>
     <use x="142.089844" xlink:href="#DejaVuSans-101"/>
     <use x="203.613281" xlink:href="#DejaVuSans-101"/>
     <use x="265.136719" xlink:href="#DejaVuSans-110"/>
     <use x="328.515625" xlink:href="#DejaVuSans-115"/>
     <use x="380.615234" xlink:href="#DejaVuSans-44"/>
     <use x="412.402344" xlink:href="#DejaVuSans-32"/>
     <use x="444.189453" xlink:href="#DejaVuSans-78"/>
     <use x="518.994141" xlink:href="#DejaVuSans-89"/>
    </g>
   </g>
   <g id="text_12">
    <!-- Bronx, NY -->
    <defs>
     <path d="M 19.671875 34.8125 
L 19.671875 8.109375 
L 35.5 8.109375 
Q 43.453125 8.109375 47.28125 11.40625 
Q 51.125 14.703125 51.125 21.484375 
Q 51.125 28.328125 47.28125 31.5625 
Q 43.453125 34.8125 35.5 34.8125 
z
M 19.671875 64.796875 
L 19.671875 42.828125 
L 34.28125 42.828125 
Q 41.5 42.828125 45.03125 45.53125 
Q 48.578125 48.25 48.578125 53.8125 
Q 48.578125 59.328125 45.03125 62.0625 
Q 41.5 64.796875 34.28125 64.796875 
z
M 9.8125 72.90625 
L 35.015625 72.90625 
Q 46.296875 72.90625 52.390625 68.21875 
Q 58.5 63.53125 58.5 54.890625 
Q 58.5 48.1875 55.375 44.234375 
Q 52.25 40.28125 46.1875 39.3125 
Q 53.46875 37.75 57.5 32.78125 
Q 61.53125 27.828125 61.53125 20.40625 
Q 61.53125 10.640625 54.890625 5.3125 
Q 48.25 0 35.984375 0 
L 9.8125 0 
z
" id="DejaVuSans-66"/>
     <path d="M 41.109375 46.296875 
Q 39.59375 47.171875 37.8125 47.578125 
Q 36.03125 48 33.890625 48 
Q 26.265625 48 22.1875 43.046875 
Q 18.109375 38.09375 18.109375 28.8125 
L 18.109375 0 
L 9.078125 0 
L 9.078125 54.6875 
L 18.109375 54.6875 
L 18.109375 46.1875 
Q 20.953125 51.171875 25.484375 53.578125 
Q 30.03125 56 36.53125 56 
Q 37.453125 56 38.578125 55.875 
Q 39.703125 55.765625 41.0625 55.515625 
z
" id="DejaVuSans-114"/>
     <path d="M 30.609375 48.390625 
Q 23.390625 48.390625 19.1875 42.75 
Q 14.984375 37.109375 14.984375 27.296875 
Q 14.984375 17.484375 19.15625 11.84375 
Q 23.34375 6.203125 30.609375 6.203125 
Q 37.796875 6.203125 41.984375 11.859375 
Q 46.1875 17.53125 46.1875 27.296875 
Q 46.1875 37.015625 41.984375 42.703125 
Q 37.796875 48.390625 30.609375 48.390625 
z
M 30.609375 56 
Q 42.328125 56 49.015625 48.375 
Q 55.71875 40.765625 55.71875 27.296875 
Q 55.71875 13.875 49.015625 6.21875 
Q 42.328125 -1.421875 30.609375 -1.421875 
Q 18.84375 -1.421875 12.171875 6.21875 
Q 5.515625 13.875 5.515625 27.296875 
Q 5.515625 40.765625 12.171875 48.375 
Q 18.84375 56 30.609375 56 
z
" id="DejaVuSans-111"/>
     <path d="M 54.890625 54.6875 
L 35.109375 28.078125 
L 55.90625 0 
L 45.3125 0 
L 29.390625 21.484375 
L 13.484375 0 
L 2.875 0 
L 24.125 28.609375 
L 4.6875 54.6875 
L 15.28125 54.6875 
L 29.78125 35.203125 
L 44.28125 54.6875 
z
" id="DejaVuSans-120"/>
    </defs>
    <g style="fill:#33b07a;" transform="translate(467.414458 100.798062)scale(0.08 -0.08)">
     <use xlink:href="#DejaVuSans-66"/>
     <use x="68.603516" xlink:href="#DejaVuSans-114"/>
     <use x="107.466797" xlink:href="#DejaVuSans-111"/>
     <use x="168.648438" xlink:href="#DejaVuSans-110"/>
     <use x="232.027344" xlink:href="#DejaVuSans-120"/>
     <use x="291.207031" xlink:href="#DejaVuSans-44"/>
     <use x="322.994141" xlink:href="#DejaVuSans-32"/>
     <use x="354.78125" xlink:href="#DejaVuSans-78"/>
     <use x="429.585938" xlink:href="#DejaVuSans-89"/>
    </g>
   </g>
   <g id="text_13">
    <!-- New York, NY -->
    <defs>
     <path d="M 4.203125 54.6875 
L 13.1875 54.6875 
L 24.421875 12.015625 
L 35.59375 54.6875 
L 46.1875 54.6875 
L 57.421875 12.015625 
L 68.609375 54.6875 
L 77.59375 54.6875 
L 63.28125 0 
L 52.6875 0 
L 40.921875 44.828125 
L 29.109375 0 
L 18.5 0 
z
" id="DejaVuSans-119"/>
     <path d="M 9.078125 75.984375 
L 18.109375 75.984375 
L 18.109375 31.109375 
L 44.921875 54.6875 
L 56.390625 54.6875 
L 27.390625 29.109375 
L 57.625 0 
L 45.90625 0 
L 18.109375 26.703125 
L 18.109375 0 
L 9.078125 0 
z
" id="DejaVuSans-107"/>
    </defs>
    <g style="fill:#38a9c5;" transform="translate(467.414458 135.142032)scale(0.08 -0.08)">
     <use xlink:href="#DejaVuSans-78"/>
     <use x="74.804688" xlink:href="#DejaVuSans-101"/>
     <use x="136.328125" xlink:href="#DejaVuSans-119"/>
     <use x="218.115234" xlink:href="#DejaVuSans-32"/>
     <use x="249.902344" xlink:href="#DejaVuSans-89"/>
     <use x="297.736328" xlink:href="#DejaVuSans-111"/>
     <use x="358.917969" xlink:href="#DejaVuSans-114"/>
     <use x="400.03125" xlink:href="#DejaVuSans-107"/>
     <use x="457.941406" xlink:href="#DejaVuSans-44"/>
     <use x="489.728516" xlink:href="#DejaVuSans-32"/>
     <use x="521.515625" xlink:href="#DejaVuSans-78"/>
     <use x="596.320312" xlink:href="#DejaVuSans-89"/>
    </g>
   </g>
   <g id="text_14">
    <!-- Wayne, MI -->
    <defs>
     <path d="M 3.328125 72.90625 
L 13.28125 72.90625 
L 28.609375 11.28125 
L 43.890625 72.90625 
L 54.984375 72.90625 
L 70.3125 11.28125 
L 85.59375 72.90625 
L 95.609375 72.90625 
L 77.296875 0 
L 64.890625 0 
L 49.515625 63.28125 
L 33.984375 0 
L 21.578125 0 
z
" id="DejaVuSans-87"/>
     <path d="M 32.171875 -5.078125 
Q 28.375 -14.84375 24.75 -17.8125 
Q 21.140625 -20.796875 15.09375 -20.796875 
L 7.90625 -20.796875 
L 7.90625 -13.28125 
L 13.1875 -13.28125 
Q 16.890625 -13.28125 18.9375 -11.515625 
Q 21 -9.765625 23.484375 -3.21875 
L 25.09375 0.875 
L 2.984375 54.6875 
L 12.5 54.6875 
L 29.59375 11.921875 
L 46.6875 54.6875 
L 56.203125 54.6875 
z
" id="DejaVuSans-121"/>
     <path d="M 9.8125 72.90625 
L 24.515625 72.90625 
L 43.109375 23.296875 
L 61.8125 72.90625 
L 76.515625 72.90625 
L 76.515625 0 
L 66.890625 0 
L 66.890625 64.015625 
L 48.09375 14.015625 
L 38.1875 14.015625 
L 19.390625 64.015625 
L 19.390625 0 
L 9.8125 0 
z
" id="DejaVuSans-77"/>
     <path d="M 9.8125 72.90625 
L 19.671875 72.90625 
L 19.671875 0 
L 9.8125 0 
z
" id="DejaVuSans-73"/>
    </defs>
    <g style="fill:#cc7af4;" transform="translate(467.414458 147.683804)scale(0.08 -0.08)">
     <use xlink:href="#DejaVuSans-87"/>
     <use x="92.501953" xlink:href="#DejaVuSans-97"/>
     <use x="153.78125" xlink:href="#DejaVuSans-121"/>
     <use x="212.960938" xlink:href="#DejaVuSans-110"/>
     <use x="276.339844" xlink:href="#DejaVuSans-101"/>
     <use x="337.863281" xlink:href="#DejaVuSans-44"/>
     <use x="369.650391" xlink:href="#DejaVuSans-32"/>
     <use x="401.4375" xlink:href="#DejaVuSans-77"/>
     <use x="487.716797" xlink:href="#DejaVuSans-73"/>
    </g>
   </g>
   <g id="text_15">
    <!-- Most-affected counties -->
    <defs>
     <path d="M 4.890625 31.390625 
L 31.203125 31.390625 
L 31.203125 23.390625 
L 4.890625 23.390625 
z
" id="DejaVuSans-45"/>
     <path d="M 37.109375 75.984375 
L 37.109375 68.5 
L 28.515625 68.5 
Q 23.6875 68.5 21.796875 66.546875 
Q 19.921875 64.59375 19.921875 59.515625 
L 19.921875 54.6875 
L 34.71875 54.6875 
L 34.71875 47.703125 
L 19.921875 47.703125 
L 19.921875 0 
L 10.890625 0 
L 10.890625 47.703125 
L 2.296875 47.703125 
L 2.296875 54.6875 
L 10.890625 54.6875 
L 10.890625 58.5 
Q 10.890625 67.625 15.140625 71.796875 
Q 19.390625 75.984375 28.609375 75.984375 
z
" id="DejaVuSans-102"/>
     <path d="M 48.78125 52.59375 
L 48.78125 44.1875 
Q 44.96875 46.296875 41.140625 47.34375 
Q 37.3125 48.390625 33.40625 48.390625 
Q 24.65625 48.390625 19.8125 42.84375 
Q 14.984375 37.3125 14.984375 27.296875 
Q 14.984375 17.28125 19.8125 11.734375 
Q 24.65625 6.203125 33.40625 6.203125 
Q 37.3125 6.203125 41.140625 7.25 
Q 44.96875 8.296875 48.78125 10.40625 
L 48.78125 2.09375 
Q 45.015625 0.34375 40.984375 -0.53125 
Q 36.96875 -1.421875 32.421875 -1.421875 
Q 20.0625 -1.421875 12.78125 6.34375 
Q 5.515625 14.109375 5.515625 27.296875 
Q 5.515625 40.671875 12.859375 48.328125 
Q 20.21875 56 33.015625 56 
Q 37.15625 56 41.109375 55.140625 
Q 45.0625 54.296875 48.78125 52.59375 
z
" id="DejaVuSans-99"/>
    </defs>
    <g style="fill:#ffffff;" transform="translate(242.630312 20.88)scale(0.12 -0.12)">
     <use xlink:href="#DejaVuSans-77"/>
     <use x="86.279297" xlink:href="#DejaVuSans-111"/>
     <use x="147.460938" xlink:href="#DejaVuSans-115"/>
     <use x="199.560547" xlink:href="#DejaVuSans-116"/>
     <use x="238.769531" xlink:href="#DejaVuSans-45"/>
     <use x="274.853516" xlink:href="#DejaVuSans-97"/>
     <use x="336.132812" xlink:href="#DejaVuSans-102"/>
     <use x="371.337891" xlink:href="#DejaVuSans-102"/>
     <use x="406.542969" xlink:href="#DejaVuSans-101"/>
     <use x="468.066406" xlink:href="#DejaVuSans-99"/>
     <use x="523.046875" xlink:href="#DejaVuSans-116"/>
     <use x="562.255859" xlink:href="#DejaVuSans-101"/>
     <use x="623.779297" xlink:href="#DejaVuSans-100"/>
     <use x="687.255859" xlink:href="#DejaVuSans-32"/>
     <use x="719.042969" xlink:href="#DejaVuSans-99"/>
     <use x="774.023438" xlink:href="#DejaVuSans-111"/>
     <use x="835.205078" xlink:href="#DejaVuSans-117"/>
     <use x="898.583984" xlink:href="#DejaVuSans-110"/>
     <use x="961.962891" xlink:href="#DejaVuSans-116"/>
     <use x="1001.171875" xlink:href="#DejaVuSans-105"/>
     <use x="1028.955078" xlink:href="#DejaVuSans-101"/>
     <use x="1090.478516" xlink:href="#DejaVuSans-115"/>
    </g>
   </g>
  </g>
  <g id="axes_2">
   <g id="patch_7">
    <path d="M 57.17 398.333333 
L 565.2 398.333333 
L 565.2 234.586667 
L 57.17 234.586667 
z
"/>
   </g>
   <g id="PolyCollection_6">
    <defs>
     <path d="M 408.732628 -369.176242 
L 408.732628 -369.176242 
L 418.511838 -369.176242 
L 428.291049 -371.994919 
L 438.07026 -375.464339 
L 447.849471 -377.651289 
L 457.628681 -376.034427 
L 457.628681 -405.970303 
L 457.628681 -405.970303 
L 447.849471 -394.942493 
L 438.07026 -387.86399 
L 428.291049 -382.512565 
L 418.511838 -377.085389 
L 408.732628 -369.176242 
z
" id="m652914b4d5" style="stroke:#f77189;stroke-opacity:0.1;"/>
    </defs>
    <g clip-path="url(#p72ec4639aa)">
     <use style="fill:#f77189;fill-opacity:0.1;stroke:#f77189;stroke-opacity:0.1;" x="0" xlink:href="#m652914b4d5" y="648"/>
    </g>
   </g>
   <g id="PolyCollection_7">
    <defs>
     <path d="M 408.732628 -354.122527 
L 408.732628 -354.122527 
L 418.511838 -355.132655 
L 428.291049 -357.282177 
L 438.07026 -359.496918 
L 447.849471 -364.486807 
L 457.628681 -372.058422 
L 457.628681 -401.716494 
L 457.628681 -401.716494 
L 447.849471 -393.774073 
L 438.07026 -384.52891 
L 428.291049 -373.581251 
L 418.511838 -363.327184 
L 408.732628 -354.122527 
z
" id="m7e555518f1" style="stroke:#bb9832;stroke-opacity:0.1;"/>
    </defs>
    <g clip-path="url(#p72ec4639aa)">
     <use style="fill:#bb9832;fill-opacity:0.1;stroke:#bb9832;stroke-opacity:0.1;" x="0" xlink:href="#m7e555518f1" y="648"/>
    </g>
   </g>
   <g id="PolyCollection_8">
    <defs>
     <path d="M 408.732628 -329.568245 
L 408.732628 -329.568245 
L 418.511838 -329.568245 
L 428.291049 -329.568245 
L 438.07026 -329.898597 
L 447.849471 -335.901822 
L 457.628681 -339.209033 
L 457.628681 -353.0529 
L 457.628681 -353.0529 
L 447.849471 -348.841716 
L 438.07026 -347.820829 
L 428.291049 -343.891618 
L 418.511838 -338.309686 
L 408.732628 -329.568245 
z
" id="mfc2bae539f" style="stroke:#50b131;stroke-opacity:0.1;"/>
    </defs>
    <g clip-path="url(#p72ec4639aa)">
     <use style="fill:#50b131;fill-opacity:0.1;stroke:#50b131;stroke-opacity:0.1;" x="0" xlink:href="#mfc2bae539f" y="648"/>
    </g>
   </g>
   <g id="PolyCollection_9">
    <defs>
     <path d="M 408.732628 -323.68057 
L 408.732628 -323.68057 
L 418.511838 -323.68057 
L 428.291049 -323.68057 
L 438.07026 -323.68057 
L 447.849471 -326.013008 
L 457.628681 -329.561524 
L 457.628681 -341.238955 
L 457.628681 -341.238955 
L 447.849471 -339.384394 
L 438.07026 -337.699249 
L 428.291049 -334.50207 
L 418.511838 -330.457759 
L 408.732628 -323.68057 
z
" id="mf6dd021f56" style="stroke:#36ada4;stroke-opacity:0.1;"/>
    </defs>
    <g clip-path="url(#p72ec4639aa)">
     <use style="fill:#36ada4;fill-opacity:0.1;stroke:#36ada4;stroke-opacity:0.1;" x="0" xlink:href="#mf6dd021f56" y="648"/>
    </g>
   </g>
   <g id="PolyCollection_10">
    <defs>
     <path d="M 408.732628 -323.546759 
L 408.732628 -323.546759 
L 418.511838 -323.546759 
L 428.291049 -324.149251 
L 438.07026 -325.696888 
L 447.849471 -328.657566 
L 457.628681 -332.726038 
L 457.628681 -356.724248 
L 457.628681 -356.724248 
L 447.849471 -350.957998 
L 438.07026 -344.78226 
L 428.291049 -337.831145 
L 418.511838 -330.799599 
L 408.732628 -323.546759 
z
" id="m7bb451f17b" style="stroke:#3ba3ec;stroke-opacity:0.1;"/>
    </defs>
    <g clip-path="url(#p72ec4639aa)">
     <use style="fill:#3ba3ec;fill-opacity:0.1;stroke:#3ba3ec;stroke-opacity:0.1;" x="0" xlink:href="#m7bb451f17b" y="648"/>
    </g>
   </g>
   <g id="PolyCollection_11">
    <defs>
     <path d="M 408.732628 -306.619693 
L 408.732628 -306.619693 
L 418.511838 -306.956395 
L 428.291049 -307.569264 
L 438.07026 -308.236419 
L 447.849471 -309.326107 
L 457.628681 -309.784609 
L 457.628681 -329.368631 
L 457.628681 -329.368631 
L 447.849471 -323.939935 
L 438.07026 -319.556566 
L 428.291049 -315.085341 
L 418.511838 -310.873133 
L 408.732628 -306.619693 
z
" id="mcde598726c" style="stroke:#e866f4;stroke-opacity:0.1;"/>
    </defs>
    <g clip-path="url(#p72ec4639aa)">
     <use style="fill:#e866f4;fill-opacity:0.1;stroke:#e866f4;stroke-opacity:0.1;" x="0" xlink:href="#mcde598726c" y="648"/>
    </g>
   </g>
   <g id="matplotlib.axis_3">
    <g id="xtick_4">
     <g id="line2d_19">
      <g>
       <use style="fill:#ffffff;stroke:#ffffff;stroke-width:0.8;" x="76.239461" xlink:href="#m04df5468d6" y="398.333333"/>
      </g>
     </g>
     <g id="text_16">
      <!-- 3/25 -->
      <g style="fill:#ffffff;" transform="translate(65.011336 412.931771)scale(0.1 -0.1)">
       <use xlink:href="#DejaVuSans-51"/>
       <use x="63.623047" xlink:href="#DejaVuSans-47"/>
       <use x="97.314453" xlink:href="#DejaVuSans-50"/>
       <use x="160.9375" xlink:href="#DejaVuSans-53"/>
      </g>
     </g>
    </g>
    <g id="xtick_5">
     <g id="line2d_20">
      <g>
       <use style="fill:#ffffff;stroke:#ffffff;stroke-width:0.8;" x="408.732628" xlink:href="#m04df5468d6" y="398.333333"/>
      </g>
     </g>
     <g id="text_17">
      <!-- 4/29 -->
      <g style="fill:#ffffff;" transform="translate(397.504503 412.931771)scale(0.1 -0.1)">
       <use xlink:href="#DejaVuSans-52"/>
       <use x="63.623047" xlink:href="#DejaVuSans-47"/>
       <use x="97.314453" xlink:href="#DejaVuSans-50"/>
       <use x="160.9375" xlink:href="#DejaVuSans-57"/>
      </g>
     </g>
    </g>
    <g id="xtick_6">
     <g id="line2d_21">
      <g>
       <use style="fill:#ffffff;stroke:#ffffff;stroke-width:0.8;" x="457.628681" xlink:href="#m04df5468d6" y="398.333333"/>
      </g>
     </g>
     <g id="text_18">
      <!-- 5/4 -->
      <g style="fill:#ffffff;" transform="translate(449.581806 412.931771)scale(0.1 -0.1)">
       <use xlink:href="#DejaVuSans-53"/>
       <use x="63.623047" xlink:href="#DejaVuSans-47"/>
       <use x="97.314453" xlink:href="#DejaVuSans-52"/>
      </g>
     </g>
    </g>
   </g>
   <g id="matplotlib.axis_4">
    <g id="ytick_6">
     <g id="line2d_22">
      <g>
       <use style="fill:#ffffff;stroke:#ffffff;stroke-width:0.8;" x="57.17" xlink:href="#m6f9df64f73" y="391.358641"/>
      </g>
     </g>
     <g id="text_19">
      <!-- 0 -->
      <g style="fill:#ffffff;" transform="translate(43.8075 395.15786)scale(0.1 -0.1)">
       <use xlink:href="#DejaVuSans-48"/>
      </g>
     </g>
    </g>
    <g id="ytick_7">
     <g id="line2d_23">
      <g>
       <use style="fill:#ffffff;stroke:#ffffff;stroke-width:0.8;" x="57.17" xlink:href="#m6f9df64f73" y="357.905941"/>
      </g>
     </g>
     <g id="text_20">
      <!-- 500 -->
      <g style="fill:#ffffff;" transform="translate(31.0825 361.70516)scale(0.1 -0.1)">
       <use xlink:href="#DejaVuSans-53"/>
       <use x="63.623047" xlink:href="#DejaVuSans-48"/>
       <use x="127.246094" xlink:href="#DejaVuSans-48"/>
      </g>
     </g>
    </g>
    <g id="ytick_8">
     <g id="line2d_24">
      <g>
       <use style="fill:#ffffff;stroke:#ffffff;stroke-width:0.8;" x="57.17" xlink:href="#m6f9df64f73" y="324.453241"/>
      </g>
     </g>
     <g id="text_21">
      <!-- 1000 -->
      <defs>
       <path d="M 12.40625 8.296875 
L 28.515625 8.296875 
L 28.515625 63.921875 
L 10.984375 60.40625 
L 10.984375 69.390625 
L 28.421875 72.90625 
L 38.28125 72.90625 
L 38.28125 8.296875 
L 54.390625 8.296875 
L 54.390625 0 
L 12.40625 0 
z
" id="DejaVuSans-49"/>
      </defs>
      <g style="fill:#ffffff;" transform="translate(24.72 328.252459)scale(0.1 -0.1)">
       <use xlink:href="#DejaVuSans-49"/>
       <use x="63.623047" xlink:href="#DejaVuSans-48"/>
       <use x="127.246094" xlink:href="#DejaVuSans-48"/>
       <use x="190.869141" xlink:href="#DejaVuSans-48"/>
      </g>
     </g>
    </g>
    <g id="ytick_9">
     <g id="line2d_25">
      <g>
       <use style="fill:#ffffff;stroke:#ffffff;stroke-width:0.8;" x="57.17" xlink:href="#m6f9df64f73" y="291.000541"/>
      </g>
     </g>
     <g id="text_22">
      <!-- 1500 -->
      <g style="fill:#ffffff;" transform="translate(24.72 294.799759)scale(0.1 -0.1)">
       <use xlink:href="#DejaVuSans-49"/>
       <use x="63.623047" xlink:href="#DejaVuSans-53"/>
       <use x="127.246094" xlink:href="#DejaVuSans-48"/>
       <use x="190.869141" xlink:href="#DejaVuSans-48"/>
      </g>
     </g>
    </g>
    <g id="ytick_10">
     <g id="line2d_26">
      <g>
       <use style="fill:#ffffff;stroke:#ffffff;stroke-width:0.8;" x="57.17" xlink:href="#m6f9df64f73" y="257.547841"/>
      </g>
     </g>
     <g id="text_23">
      <!-- 2000 -->
      <g style="fill:#ffffff;" transform="translate(24.72 261.347059)scale(0.1 -0.1)">
       <use xlink:href="#DejaVuSans-50"/>
       <use x="63.623047" xlink:href="#DejaVuSans-48"/>
       <use x="127.246094" xlink:href="#DejaVuSans-48"/>
       <use x="190.869141" xlink:href="#DejaVuSans-48"/>
      </g>
     </g>
    </g>
    <g id="text_24">
     <!-- Cumulative deaths -->
     <g style="fill:#ffffff;" transform="translate(18.640313 363.635)rotate(-90)scale(0.1 -0.1)">
      <use xlink:href="#DejaVuSans-67"/>
      <use x="69.824219" xlink:href="#DejaVuSans-117"/>
      <use x="133.203125" xlink:href="#DejaVuSans-109"/>
      <use x="230.615234" xlink:href="#DejaVuSans-117"/>
      <use x="293.994141" xlink:href="#DejaVuSans-108"/>
      <use x="321.777344" xlink:href="#DejaVuSans-97"/>
      <use x="383.056641" xlink:href="#DejaVuSans-116"/>
      <use x="422.265625" xlink:href="#DejaVuSans-105"/>
      <use x="450.048828" xlink:href="#DejaVuSans-118"/>
      <use x="509.228516" xlink:href="#DejaVuSans-101"/>
      <use x="570.751953" xlink:href="#DejaVuSans-32"/>
      <use x="602.539062" xlink:href="#DejaVuSans-100"/>
      <use x="666.015625" xlink:href="#DejaVuSans-101"/>
      <use x="727.539062" xlink:href="#DejaVuSans-97"/>
      <use x="788.818359" xlink:href="#DejaVuSans-116"/>
      <use x="828.027344" xlink:href="#DejaVuSans-104"/>
      <use x="891.40625" xlink:href="#DejaVuSans-115"/>
     </g>
    </g>
   </g>
   <g id="line2d_27">
    <path clip-path="url(#p72ec4639aa)" d="M 76.239461 389.953627 
L 86.018672 389.6191 
L 95.797883 388.883141 
L 105.577093 388.280992 
L 115.356304 387.611938 
L 125.135515 385.805493 
L 134.914726 383.329993 
L 144.693936 381.590452 
L 154.473147 378.378993 
L 164.252358 376.438737 
L 174.031569 374.49848 
L 183.81078 371.755359 
L 193.58999 368.209372 
L 203.369201 364.46267 
L 213.148412 361.518832 
L 222.927623 357.638319 
L 232.706833 350.613252 
L 242.486044 347.73632 
L 252.265255 344.257239 
L 262.044466 344.257239 
L 271.823677 336.496213 
L 281.602887 332.214267 
L 291.382098 325.724443 
L 301.161309 321.509403 
L 310.94052 319.769863 
L 320.719731 316.491498 
L 330.498941 314.551241 
L 340.278152 305.853539 
L 350.057363 303.110418 
L 359.836574 297.958702 
L 369.615784 294.814148 
L 379.394995 286.986217 
L 389.174206 285.648109 
L 398.953417 282.838082 
L 408.732628 278.823758 
" style="fill:none;stroke:#f77189;stroke-linecap:square;stroke-width:1.5;"/>
   </g>
   <g id="line2d_28">
    <path clip-path="url(#p72ec4639aa)" d="M 408.732628 278.823758 
L 418.511838 275.089494 
L 428.291049 270.849036 
L 438.07026 266.496648 
L 447.849471 261.788268 
L 457.628681 256.882283 
" style="fill:none;stroke:#f77189;stroke-dasharray:1.5,2.475;stroke-dashoffset:0;stroke-width:1.5;"/>
   </g>
   <g id="line2d_29">
    <path clip-path="url(#p72ec4639aa)" d="M 76.239461 390.488871 
L 86.018672 390.154344 
L 95.797883 390.020533 
L 105.577093 389.48529 
L 115.356304 388.682425 
L 125.135515 388.414803 
L 134.914726 387.277411 
L 144.693936 385.002628 
L 154.473147 384.199763 
L 164.252358 381.924979 
L 174.031569 380.185439 
L 183.81078 378.914236 
L 193.58999 377.375412 
L 203.369201 374.699196 
L 213.148412 370.484156 
L 222.927623 367.874845 
L 232.706833 364.730292 
L 242.486044 361.050495 
L 252.265255 358.909522 
L 262.044466 358.909522 
L 271.823677 352.754225 
L 281.602887 349.208239 
L 291.382098 343.052942 
L 301.161309 340.510537 
L 310.94052 333.819997 
L 320.719731 332.682605 
L 330.498941 330.1402 
L 340.278152 324.31943 
L 350.057363 319.636052 
L 359.836574 314.952674 
L 369.615784 309.734053 
L 379.394995 306.589499 
L 389.174206 303.51185 
L 398.953417 301.237067 
L 408.732628 293.877473 
" style="fill:none;stroke:#bb9832;stroke-linecap:square;stroke-width:1.5;"/>
   </g>
   <g id="line2d_30">
    <path clip-path="url(#p72ec4639aa)" d="M 408.732628 293.877473 
L 418.511838 287.729656 
L 428.291049 280.60629 
L 438.07026 273.246144 
L 447.849471 265.775599 
L 457.628681 258.273648 
" style="fill:none;stroke:#bb9832;stroke-dasharray:1.5,2.475;stroke-dashoffset:0;stroke-width:1.5;"/>
   </g>
   <g id="line2d_31">
    <path clip-path="url(#p72ec4639aa)" d="M 76.239461 390.890303 
L 86.018672 390.622681 
L 95.797883 390.421965 
L 105.577093 390.020533 
L 115.356304 390.020533 
L 125.135515 390.020533 
L 134.914726 389.284573 
L 144.693936 386.742168 
L 154.473147 384.735006 
L 164.252358 383.463804 
L 174.031569 380.988304 
L 183.81078 379.850912 
L 193.58999 378.914236 
L 203.369201 375.836588 
L 213.148412 372.89275 
L 222.927623 370.484156 
L 232.706833 367.80794 
L 242.486044 363.793616 
L 252.265255 362.72313 
L 262.044466 362.72313 
L 271.823677 355.564252 
L 281.602887 351.884455 
L 291.382098 348.405374 
L 301.161309 345.595347 
L 310.94052 342.383888 
L 320.719731 341.848645 
L 330.498941 341.112685 
L 340.278152 334.555956 
L 350.057363 334.555956 
L 359.836574 334.555956 
L 369.615784 326.125876 
L 379.394995 323.182038 
L 389.174206 322.914416 
L 398.953417 322.579889 
L 408.732628 318.431755 
" style="fill:none;stroke:#50b131;stroke-linecap:square;stroke-width:1.5;"/>
   </g>
   <g id="line2d_32">
    <path clip-path="url(#p72ec4639aa)" d="M 408.732628 318.431755 
L 418.511838 315.812505 
L 428.291049 312.433161 
L 438.07026 308.961479 
L 447.849471 305.355074 
L 457.628681 301.166567 
" style="fill:none;stroke:#50b131;stroke-dasharray:1.5,2.475;stroke-dashoffset:0;stroke-width:1.5;"/>
   </g>
   <g id="line2d_33">
    <path clip-path="url(#p72ec4639aa)" d="M 76.239461 390.421965 
L 86.018672 390.221249 
L 95.797883 389.752911 
L 105.577093 389.217668 
L 115.356304 389.217668 
L 125.135515 389.217668 
L 134.914726 388.347898 
L 144.693936 386.340736 
L 154.473147 383.329993 
L 164.252358 382.527128 
L 174.031569 379.382574 
L 183.81078 378.71352 
L 193.58999 377.977561 
L 203.369201 373.762521 
L 213.148412 370.350345 
L 222.927623 368.276278 
L 232.706833 365.265535 
L 242.486044 362.254792 
L 252.265255 361.050495 
L 262.044466 361.050495 
L 271.823677 354.560671 
L 281.602887 350.680158 
L 291.382098 346.665834 
L 301.161309 343.588185 
L 310.94052 341.781739 
L 320.719731 340.042199 
L 330.498941 338.704091 
L 340.278152 335.492632 
L 350.057363 335.492632 
L 359.836574 335.492632 
L 369.615784 328.868997 
L 379.394995 327.530889 
L 389.174206 327.463984 
L 398.953417 327.129457 
L 408.732628 324.31943 
" style="fill:none;stroke:#36ada4;stroke-linecap:square;stroke-width:1.5;"/>
   </g>
   <g id="line2d_34">
    <path clip-path="url(#p72ec4639aa)" d="M 408.732628 324.31943 
L 418.511838 322.020631 
L 428.291049 319.236224 
L 438.07026 316.456416 
L 447.849471 313.740718 
L 457.628681 311.004469 
" style="fill:none;stroke:#36ada4;stroke-dasharray:1.5,2.475;stroke-dashoffset:0;stroke-width:1.5;"/>
   </g>
   <g id="line2d_35">
    <path clip-path="url(#p72ec4639aa)" d="M 76.239461 390.488871 
L 86.018672 389.953627 
L 95.797883 389.6191 
L 105.577093 389.217668 
L 115.356304 388.883141 
L 125.135515 388.414803 
L 134.914726 387.745749 
L 144.693936 387.00979 
L 154.473147 386.14002 
L 164.252358 385.40406 
L 174.031569 383.530709 
L 183.81078 382.527128 
L 193.58999 381.523547 
L 203.369201 380.051628 
L 213.148412 378.111372 
L 222.927623 376.438737 
L 232.706833 375.234439 
L 242.486044 373.62871 
L 252.265255 371.554642 
L 262.044466 369.948913 
L 271.823677 367.272697 
L 281.602887 364.46267 
L 291.382098 360.916684 
L 301.161309 358.240468 
L 310.94052 352.82113 
L 320.719731 351.215401 
L 330.498941 350.078009 
L 340.278152 347.000361 
L 350.057363 342.584604 
L 359.836574 338.035037 
L 369.615784 334.622862 
L 379.394995 331.478308 
L 389.174206 330.274011 
L 398.953417 328.333754 
L 408.732628 324.453241 
" style="fill:none;stroke:#3ba3ec;stroke-linecap:square;stroke-width:1.5;"/>
   </g>
   <g id="line2d_36">
    <path clip-path="url(#p72ec4639aa)" d="M 408.732628 324.453241 
L 418.511838 320.581866 
L 428.291049 316.149831 
L 438.07026 311.540683 
L 447.849471 306.771719 
L 457.628681 301.92489 
" style="fill:none;stroke:#3ba3ec;stroke-dasharray:1.5,2.475;stroke-dashoffset:0;stroke-width:1.5;"/>
   </g>
   <g id="line2d_37">
    <path clip-path="url(#p72ec4639aa)" d="M 76.239461 390.555776 
L 86.018672 390.488871 
L 95.797883 390.35506 
L 105.577093 390.020533 
L 115.356304 389.953627 
L 125.135515 389.953627 
L 134.914726 388.816236 
L 144.693936 388.280992 
L 154.473147 387.00979 
L 164.252358 386.27383 
L 174.031569 385.604776 
L 183.81078 384.935722 
L 193.58999 384.601195 
L 203.369201 382.527128 
L 213.148412 380.988304 
L 222.927623 379.44948 
L 232.706833 377.776845 
L 242.486044 376.639453 
L 252.265255 374.766102 
L 262.044466 373.829426 
L 271.823677 372.156791 
L 281.602887 366.93817 
L 291.382098 364.195048 
L 301.161309 362.923846 
L 310.94052 362.455508 
L 320.719731 361.451927 
L 330.498941 357.103076 
L 340.278152 354.962103 
L 350.057363 352.285887 
L 359.836574 350.21182 
L 369.615784 347.067266 
L 379.394995 345.26082 
L 389.174206 344.056523 
L 398.953417 342.718415 
L 408.732628 341.380307 
" style="fill:none;stroke:#e866f4;stroke-linecap:square;stroke-width:1.5;"/>
   </g>
   <g id="line2d_38">
    <path clip-path="url(#p72ec4639aa)" d="M 408.732628 341.380307 
L 418.511838 338.846479 
L 428.291049 336.141107 
L 438.07026 333.318211 
L 447.849471 330.409047 
L 457.628681 327.456867 
" style="fill:none;stroke:#e866f4;stroke-dasharray:1.5,2.475;stroke-dashoffset:0;stroke-width:1.5;"/>
   </g>
   <g id="patch_8">
    <path d="M 57.17 398.333333 
L 57.17 234.586667 
" style="fill:none;stroke:#ffffff;stroke-linecap:square;stroke-linejoin:miter;stroke-width:0.8;"/>
   </g>
   <g id="patch_9">
    <path d="M 565.2 398.333333 
L 565.2 234.586667 
" style="fill:none;stroke:#ffffff;stroke-linecap:square;stroke-linejoin:miter;stroke-width:0.8;"/>
   </g>
   <g id="patch_10">
    <path d="M 57.17 398.333333 
L 565.2 398.333333 
" style="fill:none;stroke:#ffffff;stroke-linecap:square;stroke-linejoin:miter;stroke-width:0.8;"/>
   </g>
   <g id="patch_11">
    <path d="M 57.17 234.586667 
L 565.2 234.586667 
" style="fill:none;stroke:#ffffff;stroke-linecap:square;stroke-linejoin:miter;stroke-width:0.8;"/>
   </g>
   <g id="text_25">
    <!-- Wayne, MI -->
    <g style="fill:#f77189;" transform="translate(467.407892 254.415158)scale(0.08 -0.08)">
     <use xlink:href="#DejaVuSans-87"/>
     <use x="92.501953" xlink:href="#DejaVuSans-97"/>
     <use x="153.78125" xlink:href="#DejaVuSans-121"/>
     <use x="212.960938" xlink:href="#DejaVuSans-110"/>
     <use x="276.339844" xlink:href="#DejaVuSans-101"/>
     <use x="337.863281" xlink:href="#DejaVuSans-44"/>
     <use x="369.650391" xlink:href="#DejaVuSans-32"/>
     <use x="401.4375" xlink:href="#DejaVuSans-77"/>
     <use x="487.716797" xlink:href="#DejaVuSans-73"/>
    </g>
   </g>
   <g id="text_26">
    <!-- Cook, IL -->
    <defs>
     <path d="M 9.8125 72.90625 
L 19.671875 72.90625 
L 19.671875 8.296875 
L 55.171875 8.296875 
L 55.171875 0 
L 9.8125 0 
z
" id="DejaVuSans-76"/>
    </defs>
    <g style="fill:#bb9832;" transform="translate(435.496642 265.155773)scale(0.08 -0.08)">
     <use xlink:href="#DejaVuSans-67"/>
     <use x="69.824219" xlink:href="#DejaVuSans-111"/>
     <use x="131.005859" xlink:href="#DejaVuSans-111"/>
     <use x="192.1875" xlink:href="#DejaVuSans-107"/>
     <use x="250.097656" xlink:href="#DejaVuSans-44"/>
     <use x="281.884766" xlink:href="#DejaVuSans-32"/>
     <use x="313.671875" xlink:href="#DejaVuSans-73"/>
     <use x="343.164062" xlink:href="#DejaVuSans-76"/>
    </g>
   </g>
   <g id="text_27">
    <!-- Essex, NJ -->
    <defs>
     <path d="M 9.8125 72.90625 
L 55.90625 72.90625 
L 55.90625 64.59375 
L 19.671875 64.59375 
L 19.671875 43.015625 
L 54.390625 43.015625 
L 54.390625 34.71875 
L 19.671875 34.71875 
L 19.671875 8.296875 
L 56.78125 8.296875 
L 56.78125 0 
L 9.8125 0 
z
" id="DejaVuSans-69"/>
     <path d="M 9.8125 72.90625 
L 19.671875 72.90625 
L 19.671875 5.078125 
Q 19.671875 -8.109375 14.671875 -14.0625 
Q 9.671875 -20.015625 -1.421875 -20.015625 
L -5.171875 -20.015625 
L -5.171875 -11.71875 
L -2.09375 -11.71875 
Q 4.4375 -11.71875 7.125 -8.046875 
Q 9.8125 -4.390625 9.8125 5.078125 
z
" id="DejaVuSans-74"/>
    </defs>
    <g style="fill:#50b131;" transform="translate(431.070392 297.862279)scale(0.08 -0.08)">
     <use xlink:href="#DejaVuSans-69"/>
     <use x="63.183594" xlink:href="#DejaVuSans-115"/>
     <use x="115.283203" xlink:href="#DejaVuSans-115"/>
     <use x="167.382812" xlink:href="#DejaVuSans-101"/>
     <use x="227.15625" xlink:href="#DejaVuSans-120"/>
     <use x="286.335938" xlink:href="#DejaVuSans-44"/>
     <use x="318.123047" xlink:href="#DejaVuSans-32"/>
     <use x="349.910156" xlink:href="#DejaVuSans-78"/>
     <use x="424.714844" xlink:href="#DejaVuSans-74"/>
    </g>
   </g>
   <g id="text_28">
    <!-- Bergen, NJ -->
    <g style="fill:#36ada4;" transform="translate(467.407892 317.886594)scale(0.08 -0.08)">
     <use xlink:href="#DejaVuSans-66"/>
     <use x="68.603516" xlink:href="#DejaVuSans-101"/>
     <use x="130.126953" xlink:href="#DejaVuSans-114"/>
     <use x="169.490234" xlink:href="#DejaVuSans-103"/>
     <use x="232.966797" xlink:href="#DejaVuSans-101"/>
     <use x="294.490234" xlink:href="#DejaVuSans-110"/>
     <use x="357.869141" xlink:href="#DejaVuSans-44"/>
     <use x="389.65625" xlink:href="#DejaVuSans-32"/>
     <use x="421.443359" xlink:href="#DejaVuSans-78"/>
     <use x="496.248047" xlink:href="#DejaVuSans-74"/>
    </g>
   </g>
   <g id="text_29">
    <!-- Los Angeles, CA -->
    <defs>
     <path d="M 34.1875 63.1875 
L 20.796875 26.90625 
L 47.609375 26.90625 
z
M 28.609375 72.90625 
L 39.796875 72.90625 
L 67.578125 0 
L 57.328125 0 
L 50.6875 18.703125 
L 17.828125 18.703125 
L 11.1875 0 
L 0.78125 0 
z
" id="DejaVuSans-65"/>
    </defs>
    <g style="fill:#3ba3ec;" transform="translate(467.407892 308.616088)scale(0.08 -0.08)">
     <use xlink:href="#DejaVuSans-76"/>
     <use x="53.962891" xlink:href="#DejaVuSans-111"/>
     <use x="115.144531" xlink:href="#DejaVuSans-115"/>
     <use x="167.244141" xlink:href="#DejaVuSans-32"/>
     <use x="199.03125" xlink:href="#DejaVuSans-65"/>
     <use x="267.439453" xlink:href="#DejaVuSans-110"/>
     <use x="330.818359" xlink:href="#DejaVuSans-103"/>
     <use x="394.294922" xlink:href="#DejaVuSans-101"/>
     <use x="455.818359" xlink:href="#DejaVuSans-108"/>
     <use x="483.601562" xlink:href="#DejaVuSans-101"/>
     <use x="545.125" xlink:href="#DejaVuSans-115"/>
     <use x="597.224609" xlink:href="#DejaVuSans-44"/>
     <use x="629.011719" xlink:href="#DejaVuSans-32"/>
     <use x="660.798828" xlink:href="#DejaVuSans-67"/>
     <use x="730.623047" xlink:href="#DejaVuSans-65"/>
    </g>
   </g>
   <g id="text_30">
    <!-- Fairfield, CT -->
    <defs>
     <path d="M 9.8125 72.90625 
L 51.703125 72.90625 
L 51.703125 64.59375 
L 19.671875 64.59375 
L 19.671875 43.109375 
L 48.578125 43.109375 
L 48.578125 34.8125 
L 19.671875 34.8125 
L 19.671875 0 
L 9.8125 0 
z
" id="DejaVuSans-70"/>
     <path d="M -0.296875 72.90625 
L 61.375 72.90625 
L 61.375 64.59375 
L 35.5 64.59375 
L 35.5 0 
L 25.59375 0 
L 25.59375 64.59375 
L -0.296875 64.59375 
z
" id="DejaVuSans-84"/>
    </defs>
    <g style="fill:#e866f4;" transform="translate(467.407892 334.338991)scale(0.08 -0.08)">
     <use xlink:href="#DejaVuSans-70"/>
     <use x="48.394531" xlink:href="#DejaVuSans-97"/>
     <use x="109.673828" xlink:href="#DejaVuSans-105"/>
     <use x="137.457031" xlink:href="#DejaVuSans-114"/>
     <use x="178.570312" xlink:href="#DejaVuSans-102"/>
     <use x="213.775391" xlink:href="#DejaVuSans-105"/>
     <use x="241.558594" xlink:href="#DejaVuSans-101"/>
     <use x="303.082031" xlink:href="#DejaVuSans-108"/>
     <use x="330.865234" xlink:href="#DejaVuSans-100"/>
     <use x="394.341797" xlink:href="#DejaVuSans-44"/>
     <use x="426.128906" xlink:href="#DejaVuSans-32"/>
     <use x="457.916016" xlink:href="#DejaVuSans-67"/>
     <use x="527.740234" xlink:href="#DejaVuSans-84"/>
    </g>
   </g>
   <g id="text_31">
    <!-- Most-affected counties outside NY -->
    <g style="fill:#ffffff;" transform="translate(208.54375 228.586667)scale(0.12 -0.12)">
     <use xlink:href="#DejaVuSans-77"/>
     <use x="86.279297" xlink:href="#DejaVuSans-111"/>
     <use x="147.460938" xlink:href="#DejaVuSans-115"/>
     <use x="199.560547" xlink:href="#DejaVuSans-116"/>
     <use x="238.769531" xlink:href="#DejaVuSans-45"/>
     <use x="274.853516" xlink:href="#DejaVuSans-97"/>
     <use x="336.132812" xlink:href="#DejaVuSans-102"/>
     <use x="371.337891" xlink:href="#DejaVuSans-102"/>
     <use x="406.542969" xlink:href="#DejaVuSans-101"/>
     <use x="468.066406" xlink:href="#DejaVuSans-99"/>
     <use x="523.046875" xlink:href="#DejaVuSans-116"/>
     <use x="562.255859" xlink:href="#DejaVuSans-101"/>
     <use x="623.779297" xlink:href="#DejaVuSans-100"/>
     <use x="687.255859" xlink:href="#DejaVuSans-32"/>
     <use x="719.042969" xlink:href="#DejaVuSans-99"/>
     <use x="774.023438" xlink:href="#DejaVuSans-111"/>
     <use x="835.205078" xlink:href="#DejaVuSans-117"/>
     <use x="898.583984" xlink:href="#DejaVuSans-110"/>
     <use x="961.962891" xlink:href="#DejaVuSans-116"/>
     <use x="1001.171875" xlink:href="#DejaVuSans-105"/>
     <use x="1028.955078" xlink:href="#DejaVuSans-101"/>
     <use x="1090.478516" xlink:href="#DejaVuSans-115"/>
     <use x="1142.578125" xlink:href="#DejaVuSans-32"/>
     <use x="1174.365234" xlink:href="#DejaVuSans-111"/>
     <use x="1235.546875" xlink:href="#DejaVuSans-117"/>
     <use x="1298.925781" xlink:href="#DejaVuSans-116"/>
     <use x="1338.134766" xlink:href="#DejaVuSans-115"/>
     <use x="1390.234375" xlink:href="#DejaVuSans-105"/>
     <use x="1418.017578" xlink:href="#DejaVuSans-100"/>
     <use x="1481.494141" xlink:href="#DejaVuSans-101"/>
     <use x="1543.017578" xlink:href="#DejaVuSans-32"/>
     <use x="1574.804688" xlink:href="#DejaVuSans-78"/>
     <use x="1649.609375" xlink:href="#DejaVuSans-89"/>
    </g>
   </g>
  </g>
  <g id="axes_3">
   <g id="patch_12">
    <path d="M 57.17 606.04 
L 565.2 606.04 
L 565.2 442.293333 
L 57.17 442.293333 
z
"/>
   </g>
   <g id="PolyCollection_12">
    <defs>
     <path d="M 407.224235 -160.7786 
L 407.224235 -160.7786 
L 417.254442 -160.786665 
L 427.28465 -160.7786 
L 437.314857 -160.7786 
L 447.345064 -160.7786 
L 457.375271 -160.7786 
L 457.375271 -198.263636 
L 457.375271 -198.263636 
L 447.345064 -192.040252 
L 437.314857 -183.711597 
L 427.28465 -175.478599 
L 417.254442 -166.964387 
L 407.224235 -160.7786 
z
" id="mc596ddd5a6" style="stroke:#f77189;stroke-opacity:0.1;"/>
    </defs>
    <g clip-path="url(#pe82c08c5e2)">
     <use style="fill:#f77189;fill-opacity:0.1;stroke:#f77189;stroke-opacity:0.1;" x="0" xlink:href="#mc596ddd5a6" y="648"/>
    </g>
   </g>
   <g id="PolyCollection_13">
    <defs>
     <path d="M 407.224235 -106.681895 
L 407.224235 -106.681895 
L 417.254442 -106.681895 
L 427.28465 -106.681895 
L 437.314857 -106.681895 
L 447.345064 -106.884812 
L 457.375271 -108.996188 
L 457.375271 -116.652337 
L 457.375271 -116.652337 
L 447.345064 -116.117601 
L 437.314857 -114.805934 
L 427.28465 -113.938944 
L 417.254442 -110.68146 
L 407.224235 -106.681895 
z
" id="m2a02eb8248" style="stroke:#ae9d31;stroke-opacity:0.1;"/>
    </defs>
    <g clip-path="url(#pe82c08c5e2)">
     <use style="fill:#ae9d31;fill-opacity:0.1;stroke:#ae9d31;stroke-opacity:0.1;" x="0" xlink:href="#m2a02eb8248" y="648"/>
    </g>
   </g>
   <g id="PolyCollection_14">
    <defs>
     <path d="M 407.224235 -99.256857 
L 407.224235 -99.256857 
L 417.254442 -99.256857 
L 427.28465 -99.256857 
L 437.314857 -99.256857 
L 447.345064 -99.256857 
L 457.375271 -99.256857 
L 457.375271 -125.463323 
L 457.375271 -125.463323 
L 447.345064 -124.661937 
L 437.314857 -123.847715 
L 427.28465 -109.660644 
L 417.254442 -107.329233 
L 407.224235 -99.256857 
z
" id="mcf7400b61a" style="stroke:#33b07a;stroke-opacity:0.1;"/>
    </defs>
    <g clip-path="url(#pe82c08c5e2)">
     <use style="fill:#33b07a;fill-opacity:0.1;stroke:#33b07a;stroke-opacity:0.1;" x="0" xlink:href="#mcf7400b61a" y="648"/>
    </g>
   </g>
   <g id="PolyCollection_15">
    <defs>
     <path d="M 407.224235 -74.860303 
L 407.224235 -74.860303 
L 417.254442 -74.860303 
L 427.28465 -74.860303 
L 437.314857 -74.860303 
L 447.345064 -74.860303 
L 457.375271 -74.860303 
L 457.375271 -82.167266 
L 457.375271 -82.167266 
L 447.345064 -82.243263 
L 437.314857 -79.998558 
L 427.28465 -78.418256 
L 417.254442 -76.72283 
L 407.224235 -74.860303 
z
" id="m935b377a4f" style="stroke:#38a9c5;stroke-opacity:0.1;"/>
    </defs>
    <g clip-path="url(#pe82c08c5e2)">
     <use style="fill:#38a9c5;fill-opacity:0.1;stroke:#38a9c5;stroke-opacity:0.1;" x="0" xlink:href="#m935b377a4f" y="648"/>
    </g>
   </g>
   <g id="PolyCollection_16">
    <defs>
     <path d="M 407.224235 -72.738864 
L 407.224235 -72.738864 
L 417.254442 -72.738864 
L 427.28465 -72.738864 
L 437.314857 -72.738864 
L 447.345064 -72.738864 
L 457.375271 -72.738864 
L 457.375271 -80.56013 
L 457.375271 -80.56013 
L 447.345064 -78.701917 
L 437.314857 -76.999592 
L 427.28465 -76.339949 
L 417.254442 -74.567399 
L 407.224235 -72.738864 
z
" id="mfb9ffb47fc" style="stroke:#cc7af4;stroke-opacity:0.1;"/>
    </defs>
    <g clip-path="url(#pe82c08c5e2)">
     <use style="fill:#cc7af4;fill-opacity:0.1;stroke:#cc7af4;stroke-opacity:0.1;" x="0" xlink:href="#mfb9ffb47fc" y="648"/>
    </g>
   </g>
   <g id="matplotlib.axis_5">
    <g id="xtick_7">
     <g id="line2d_39">
      <g>
       <use style="fill:#ffffff;stroke:#ffffff;stroke-width:0.8;" x="76.227394" xlink:href="#m04df5468d6" y="606.04"/>
      </g>
     </g>
     <g id="text_32">
      <!-- 3/26 -->
      <g style="fill:#ffffff;" transform="translate(64.999269 620.638438)scale(0.1 -0.1)">
       <use xlink:href="#DejaVuSans-51"/>
       <use x="63.623047" xlink:href="#DejaVuSans-47"/>
       <use x="97.314453" xlink:href="#DejaVuSans-50"/>
       <use x="160.9375" xlink:href="#DejaVuSans-54"/>
      </g>
     </g>
    </g>
    <g id="xtick_8">
     <g id="line2d_40">
      <g>
       <use style="fill:#ffffff;stroke:#ffffff;stroke-width:0.8;" x="407.224235" xlink:href="#m04df5468d6" y="606.04"/>
      </g>
     </g>
     <g id="text_33">
      <!-- 4/29 -->
      <g style="fill:#ffffff;" transform="translate(395.99611 620.638438)scale(0.1 -0.1)">
       <use xlink:href="#DejaVuSans-52"/>
       <use x="63.623047" xlink:href="#DejaVuSans-47"/>
       <use x="97.314453" xlink:href="#DejaVuSans-50"/>
       <use x="160.9375" xlink:href="#DejaVuSans-57"/>
      </g>
     </g>
    </g>
    <g id="xtick_9">
     <g id="line2d_41">
      <g>
       <use style="fill:#ffffff;stroke:#ffffff;stroke-width:0.8;" x="457.375271" xlink:href="#m04df5468d6" y="606.04"/>
      </g>
     </g>
     <g id="text_34">
      <!-- 5/4 -->
      <g style="fill:#ffffff;" transform="translate(449.328396 620.638438)scale(0.1 -0.1)">
       <use xlink:href="#DejaVuSans-53"/>
       <use x="63.623047" xlink:href="#DejaVuSans-47"/>
       <use x="97.314453" xlink:href="#DejaVuSans-52"/>
      </g>
     </g>
    </g>
    <g id="text_35">
     <!-- Date -->
     <defs>
      <path d="M 19.671875 64.796875 
L 19.671875 8.109375 
L 31.59375 8.109375 
Q 46.6875 8.109375 53.6875 14.9375 
Q 60.6875 21.78125 60.6875 36.53125 
Q 60.6875 51.171875 53.6875 57.984375 
Q 46.6875 64.796875 31.59375 64.796875 
z
M 9.8125 72.90625 
L 30.078125 72.90625 
Q 51.265625 72.90625 61.171875 64.09375 
Q 71.09375 55.28125 71.09375 36.53125 
Q 71.09375 17.671875 61.125 8.828125 
Q 51.171875 0 30.078125 0 
L 9.8125 0 
z
" id="DejaVuSans-68"/>
     </defs>
     <g style="fill:#ffffff;" transform="translate(299.234219 634.316563)scale(0.1 -0.1)">
      <use xlink:href="#DejaVuSans-68"/>
      <use x="77.001953" xlink:href="#DejaVuSans-97"/>
      <use x="138.28125" xlink:href="#DejaVuSans-116"/>
      <use x="177.490234" xlink:href="#DejaVuSans-101"/>
     </g>
    </g>
   </g>
   <g id="matplotlib.axis_6">
    <g id="ytick_11">
     <g id="line2d_42">
      <g>
       <use style="fill:#ffffff;stroke:#ffffff;stroke-width:0.8;" x="57.17" xlink:href="#m6f9df64f73" y="599.657689"/>
      </g>
     </g>
     <g id="text_36">
      <!-- 0 -->
      <g style="fill:#ffffff;" transform="translate(43.8075 603.456908)scale(0.1 -0.1)">
       <use xlink:href="#DejaVuSans-48"/>
      </g>
     </g>
    </g>
    <g id="ytick_12">
     <g id="line2d_43">
      <g>
       <use style="fill:#ffffff;stroke:#ffffff;stroke-width:0.8;" x="57.17" xlink:href="#m6f9df64f73" y="578.443295"/>
      </g>
     </g>
     <g id="text_37">
      <!-- 20 -->
      <g style="fill:#ffffff;" transform="translate(37.445 582.242514)scale(0.1 -0.1)">
       <use xlink:href="#DejaVuSans-50"/>
       <use x="63.623047" xlink:href="#DejaVuSans-48"/>
      </g>
     </g>
    </g>
    <g id="ytick_13">
     <g id="line2d_44">
      <g>
       <use style="fill:#ffffff;stroke:#ffffff;stroke-width:0.8;" x="57.17" xlink:href="#m6f9df64f73" y="557.228901"/>
      </g>
     </g>
     <g id="text_38">
      <!-- 40 -->
      <g style="fill:#ffffff;" transform="translate(37.445 561.02812)scale(0.1 -0.1)">
       <use xlink:href="#DejaVuSans-52"/>
       <use x="63.623047" xlink:href="#DejaVuSans-48"/>
      </g>
     </g>
    </g>
    <g id="ytick_14">
     <g id="line2d_45">
      <g>
       <use style="fill:#ffffff;stroke:#ffffff;stroke-width:0.8;" x="57.17" xlink:href="#m6f9df64f73" y="536.014507"/>
      </g>
     </g>
     <g id="text_39">
      <!-- 60 -->
      <g style="fill:#ffffff;" transform="translate(37.445 539.813726)scale(0.1 -0.1)">
       <use xlink:href="#DejaVuSans-54"/>
       <use x="63.623047" xlink:href="#DejaVuSans-48"/>
      </g>
     </g>
    </g>
    <g id="ytick_15">
     <g id="line2d_46">
      <g>
       <use style="fill:#ffffff;stroke:#ffffff;stroke-width:0.8;" x="57.17" xlink:href="#m6f9df64f73" y="514.800113"/>
      </g>
     </g>
     <g id="text_40">
      <!-- 80 -->
      <g style="fill:#ffffff;" transform="translate(37.445 518.599331)scale(0.1 -0.1)">
       <use xlink:href="#DejaVuSans-56"/>
       <use x="63.623047" xlink:href="#DejaVuSans-48"/>
      </g>
     </g>
    </g>
    <g id="ytick_16">
     <g id="line2d_47">
      <g>
       <use style="fill:#ffffff;stroke:#ffffff;stroke-width:0.8;" x="57.17" xlink:href="#m6f9df64f73" y="493.585719"/>
      </g>
     </g>
     <g id="text_41">
      <!-- 100 -->
      <g style="fill:#ffffff;" transform="translate(31.0825 497.384937)scale(0.1 -0.1)">
       <use xlink:href="#DejaVuSans-49"/>
       <use x="63.623047" xlink:href="#DejaVuSans-48"/>
       <use x="127.246094" xlink:href="#DejaVuSans-48"/>
      </g>
     </g>
    </g>
    <g id="ytick_17">
     <g id="line2d_48">
      <g>
       <use style="fill:#ffffff;stroke:#ffffff;stroke-width:0.8;" x="57.17" xlink:href="#m6f9df64f73" y="472.371324"/>
      </g>
     </g>
     <g id="text_42">
      <!-- 120 -->
      <g style="fill:#ffffff;" transform="translate(31.0825 476.170543)scale(0.1 -0.1)">
       <use xlink:href="#DejaVuSans-49"/>
       <use x="63.623047" xlink:href="#DejaVuSans-50"/>
       <use x="127.246094" xlink:href="#DejaVuSans-48"/>
      </g>
     </g>
    </g>
    <g id="ytick_18">
     <g id="line2d_49">
      <g>
       <use style="fill:#ffffff;stroke:#ffffff;stroke-width:0.8;" x="57.17" xlink:href="#m6f9df64f73" y="451.15693"/>
      </g>
     </g>
     <g id="text_43">
      <!-- 140 -->
      <g style="fill:#ffffff;" transform="translate(31.0825 454.956149)scale(0.1 -0.1)">
       <use xlink:href="#DejaVuSans-49"/>
       <use x="63.623047" xlink:href="#DejaVuSans-52"/>
       <use x="127.246094" xlink:href="#DejaVuSans-48"/>
      </g>
     </g>
    </g>
    <g id="text_44">
     <!-- Cumulative deaths -->
     <g style="fill:#ffffff;" transform="translate(25.002813 571.341667)rotate(-90)scale(0.1 -0.1)">
      <use xlink:href="#DejaVuSans-67"/>
      <use x="69.824219" xlink:href="#DejaVuSans-117"/>
      <use x="133.203125" xlink:href="#DejaVuSans-109"/>
      <use x="230.615234" xlink:href="#DejaVuSans-117"/>
      <use x="293.994141" xlink:href="#DejaVuSans-108"/>
      <use x="321.777344" xlink:href="#DejaVuSans-97"/>
      <use x="383.056641" xlink:href="#DejaVuSans-116"/>
      <use x="422.265625" xlink:href="#DejaVuSans-105"/>
      <use x="450.048828" xlink:href="#DejaVuSans-118"/>
      <use x="509.228516" xlink:href="#DejaVuSans-101"/>
      <use x="570.751953" xlink:href="#DejaVuSans-32"/>
      <use x="602.539062" xlink:href="#DejaVuSans-100"/>
      <use x="666.015625" xlink:href="#DejaVuSans-101"/>
      <use x="727.539062" xlink:href="#DejaVuSans-97"/>
      <use x="788.818359" xlink:href="#DejaVuSans-116"/>
      <use x="828.027344" xlink:href="#DejaVuSans-104"/>
      <use x="891.40625" xlink:href="#DejaVuSans-115"/>
     </g>
    </g>
   </g>
   <g id="line2d_50">
    <path clip-path="url(#pe82c08c5e2)" d="M 76.227394 576.321856 
L 86.257601 575.261136 
L 96.287808 569.957538 
L 106.318016 569.957538 
L 116.348223 566.775378 
L 126.37843 564.653939 
L 136.408638 562.5325 
L 146.438845 558.289621 
L 156.469052 556.168181 
L 166.49926 555.107462 
L 176.529467 555.107462 
L 186.559674 551.925303 
L 196.589882 550.864583 
L 206.620089 547.682424 
L 216.650296 546.621704 
L 226.680503 543.439545 
L 236.710711 542.378825 
L 246.740918 539.196666 
L 256.771125 532.832348 
L 266.801333 532.832348 
L 276.83154 527.528749 
L 286.861747 523.28587 
L 296.891955 523.28587 
L 306.922162 519.042992 
L 316.952369 519.042992 
L 326.982577 508.435794 
L 337.012784 503.132196 
L 347.042991 499.950037 
L 357.073198 498.889317 
L 367.103406 495.707158 
L 377.133613 494.646438 
L 387.16382 493.585719 
L 397.194028 490.403559 
L 407.224235 487.2214 
" style="fill:none;stroke:#f77189;stroke-linecap:square;stroke-width:1.5;"/>
   </g>
   <g id="line2d_51">
    <path clip-path="url(#pe82c08c5e2)" d="M 407.224235 487.2214 
L 417.254442 483.346899 
L 427.28465 479.243288 
L 437.314857 475.279269 
L 447.345064 471.542786 
L 457.375271 468.143272 
" style="fill:none;stroke:#f77189;stroke-dasharray:1.5,2.475;stroke-dashoffset:0;stroke-width:1.5;"/>
   </g>
   <g id="line2d_52">
    <path clip-path="url(#pe82c08c5e2)" d="M 76.227394 595.414811 
L 86.257601 595.414811 
L 96.287808 593.293371 
L 106.318016 592.232651 
L 116.348223 592.232651 
L 126.37843 592.232651 
L 136.408638 591.171932 
L 146.438845 590.111212 
L 156.469052 586.929053 
L 166.49926 586.929053 
L 176.529467 586.929053 
L 186.559674 585.868333 
L 196.589882 583.746894 
L 206.620089 582.686174 
L 216.650296 581.625454 
L 226.680503 578.443295 
L 236.710711 577.382576 
L 246.740918 575.261136 
L 256.771125 575.261136 
L 266.801333 575.261136 
L 276.83154 561.47178 
L 286.861747 558.289621 
L 296.891955 558.289621 
L 306.922162 556.168181 
L 316.952369 555.107462 
L 326.982577 555.107462 
L 337.012784 554.046742 
L 347.042991 551.925303 
L 357.073198 550.864583 
L 367.103406 548.743143 
L 377.133613 544.500265 
L 387.16382 544.500265 
L 397.194028 544.500265 
L 407.224235 541.318105 
" style="fill:none;stroke:#ae9d31;stroke-linecap:square;stroke-width:1.5;"/>
   </g>
   <g id="line2d_53">
    <path clip-path="url(#pe82c08c5e2)" d="M 407.224235 541.318105 
L 417.254442 539.83579 
L 427.28465 537.932211 
L 437.314857 536.213317 
L 447.345064 534.730325 
L 457.375271 533.525068 
" style="fill:none;stroke:#ae9d31;stroke-dasharray:1.5,2.475;stroke-dashoffset:0;stroke-width:1.5;"/>
   </g>
   <g id="line2d_54">
    <path clip-path="url(#pe82c08c5e2)" d="M 76.227394 594.354091 
L 86.257601 593.293371 
L 96.287808 593.293371 
L 106.318016 593.293371 
L 116.348223 593.293371 
L 126.37843 589.050492 
L 136.408638 589.050492 
L 146.438845 589.050492 
L 156.469052 585.868333 
L 166.49926 585.868333 
L 176.529467 585.868333 
L 186.559674 585.868333 
L 196.589882 577.382576 
L 206.620089 577.382576 
L 216.650296 577.382576 
L 226.680503 577.382576 
L 236.710711 577.382576 
L 246.740918 577.382576 
L 256.771125 577.382576 
L 266.801333 577.382576 
L 276.83154 577.382576 
L 286.861747 569.957538 
L 296.891955 569.957538 
L 306.922162 569.957538 
L 316.952369 569.957538 
L 326.982577 569.957538 
L 337.012784 569.957538 
L 347.042991 559.35034 
L 357.073198 558.289621 
L 367.103406 556.168181 
L 377.133613 556.168181 
L 387.16382 556.168181 
L 397.194028 556.168181 
L 407.224235 548.743143 
" style="fill:none;stroke:#33b07a;stroke-linecap:square;stroke-width:1.5;"/>
   </g>
   <g id="line2d_55">
    <path clip-path="url(#pe82c08c5e2)" d="M 407.224235 548.743143 
L 417.254442 547.41813 
L 427.28465 545.06666 
L 437.314857 542.830587 
L 447.345064 540.749565 
L 457.375271 538.873134 
" style="fill:none;stroke:#33b07a;stroke-dasharray:1.5,2.475;stroke-dashoffset:0;stroke-width:1.5;"/>
   </g>
   <g id="line2d_56">
    <path clip-path="url(#pe82c08c5e2)" d="M 76.227394 598.59697 
L 86.257601 597.53625 
L 96.287808 596.47553 
L 106.318016 596.47553 
L 116.348223 596.47553 
L 126.37843 596.47553 
L 136.408638 596.47553 
L 146.438845 596.47553 
L 156.469052 594.354091 
L 166.49926 594.354091 
L 176.529467 593.293371 
L 186.559674 592.232651 
L 196.589882 592.232651 
L 206.620089 592.232651 
L 216.650296 591.171932 
L 226.680503 590.111212 
L 236.710711 587.989773 
L 246.740918 587.989773 
L 256.771125 587.989773 
L 266.801333 586.929053 
L 276.83154 584.807613 
L 286.861747 582.686174 
L 296.891955 582.686174 
L 306.922162 579.504015 
L 316.952369 578.443295 
L 326.982577 576.321856 
L 337.012784 576.321856 
L 347.042991 576.321856 
L 357.073198 575.261136 
L 367.103406 575.261136 
L 377.133613 573.139697 
L 387.16382 573.139697 
L 397.194028 573.139697 
L 407.224235 573.139697 
" style="fill:none;stroke:#38a9c5;stroke-linecap:square;stroke-width:1.5;"/>
   </g>
   <g id="line2d_57">
    <path clip-path="url(#pe82c08c5e2)" d="M 407.224235 573.139697 
L 417.254442 572.315607 
L 427.28465 571.537519 
L 437.314857 570.860915 
L 447.345064 570.300401 
L 457.375271 569.898788 
" style="fill:none;stroke:#38a9c5;stroke-dasharray:1.5,2.475;stroke-dashoffset:0;stroke-width:1.5;"/>
   </g>
   <g id="line2d_58">
    <path clip-path="url(#pe82c08c5e2)" d="M 76.227394 597.53625 
L 86.257601 596.47553 
L 96.287808 595.414811 
L 106.318016 594.354091 
L 116.348223 593.293371 
L 126.37843 593.293371 
L 136.408638 592.232651 
L 146.438845 592.232651 
L 156.469052 592.232651 
L 166.49926 591.171932 
L 176.529467 591.171932 
L 186.559674 590.111212 
L 196.589882 590.111212 
L 206.620089 589.050492 
L 216.650296 589.050492 
L 226.680503 585.868333 
L 236.710711 585.868333 
L 246.740918 584.807613 
L 256.771125 583.746894 
L 266.801333 583.746894 
L 276.83154 581.625454 
L 286.861747 581.625454 
L 296.891955 581.625454 
L 306.922162 578.443295 
L 316.952369 578.443295 
L 326.982577 578.443295 
L 337.012784 578.443295 
L 347.042991 577.382576 
L 357.073198 577.382576 
L 367.103406 576.321856 
L 377.133613 576.321856 
L 387.16382 576.321856 
L 397.194028 575.261136 
L 407.224235 575.261136 
" style="fill:none;stroke:#cc7af4;stroke-linecap:square;stroke-width:1.5;"/>
   </g>
   <g id="line2d_59">
    <path clip-path="url(#pe82c08c5e2)" d="M 407.224235 575.261136 
L 417.254442 574.137811 
L 427.28465 573.170448 
L 437.314857 572.355241 
L 447.345064 571.729341 
L 457.375271 571.299984 
" style="fill:none;stroke:#cc7af4;stroke-dasharray:1.5,2.475;stroke-dashoffset:0;stroke-width:1.5;"/>
   </g>
   <g id="patch_13">
    <path d="M 57.17 606.04 
L 57.17 442.293333 
" style="fill:none;stroke:#ffffff;stroke-linecap:square;stroke-linejoin:miter;stroke-width:0.8;"/>
   </g>
   <g id="patch_14">
    <path d="M 565.2 606.04 
L 565.2 442.293333 
" style="fill:none;stroke:#ffffff;stroke-linecap:square;stroke-linejoin:miter;stroke-width:0.8;"/>
   </g>
   <g id="patch_15">
    <path d="M 57.17 606.04 
L 565.2 606.04 
" style="fill:none;stroke:#ffffff;stroke-linecap:square;stroke-linejoin:miter;stroke-width:0.8;"/>
   </g>
   <g id="patch_16">
    <path d="M 57.17 442.293333 
L 565.2 442.293333 
" style="fill:none;stroke:#ffffff;stroke-linecap:square;stroke-linejoin:miter;stroke-width:0.8;"/>
   </g>
   <g id="text_45">
    <!-- Santa Clara, CA -->
    <defs>
     <path d="M 53.515625 70.515625 
L 53.515625 60.890625 
Q 47.90625 63.578125 42.921875 64.890625 
Q 37.9375 66.21875 33.296875 66.21875 
Q 25.25 66.21875 20.875 63.09375 
Q 16.5 59.96875 16.5 54.203125 
Q 16.5 49.359375 19.40625 46.890625 
Q 22.3125 44.4375 30.421875 42.921875 
L 36.375 41.703125 
Q 47.40625 39.59375 52.65625 34.296875 
Q 57.90625 29 57.90625 20.125 
Q 57.90625 9.515625 50.796875 4.046875 
Q 43.703125 -1.421875 29.984375 -1.421875 
Q 24.8125 -1.421875 18.96875 -0.25 
Q 13.140625 0.921875 6.890625 3.21875 
L 6.890625 13.375 
Q 12.890625 10.015625 18.65625 8.296875 
Q 24.421875 6.59375 29.984375 6.59375 
Q 38.421875 6.59375 43.015625 9.90625 
Q 47.609375 13.234375 47.609375 19.390625 
Q 47.609375 24.75 44.3125 27.78125 
Q 41.015625 30.8125 33.5 32.328125 
L 27.484375 33.5 
Q 16.453125 35.6875 11.515625 40.375 
Q 6.59375 45.0625 6.59375 53.421875 
Q 6.59375 63.09375 13.40625 68.65625 
Q 20.21875 74.21875 32.171875 74.21875 
Q 37.3125 74.21875 42.625 73.28125 
Q 47.953125 72.359375 53.515625 70.515625 
z
" id="DejaVuSans-83"/>
    </defs>
    <g style="fill:#f77189;" transform="translate(467.405479 465.701253)scale(0.08 -0.08)">
     <use xlink:href="#DejaVuSans-83"/>
     <use x="63.476562" xlink:href="#DejaVuSans-97"/>
     <use x="124.755859" xlink:href="#DejaVuSans-110"/>
     <use x="188.134766" xlink:href="#DejaVuSans-116"/>
     <use x="227.34375" xlink:href="#DejaVuSans-97"/>
     <use x="288.623047" xlink:href="#DejaVuSans-32"/>
     <use x="320.410156" xlink:href="#DejaVuSans-67"/>
     <use x="390.234375" xlink:href="#DejaVuSans-108"/>
     <use x="418.017578" xlink:href="#DejaVuSans-97"/>
     <use x="479.296875" xlink:href="#DejaVuSans-114"/>
     <use x="520.410156" xlink:href="#DejaVuSans-97"/>
     <use x="581.689453" xlink:href="#DejaVuSans-44"/>
     <use x="613.476562" xlink:href="#DejaVuSans-32"/>
     <use x="645.263672" xlink:href="#DejaVuSans-67"/>
     <use x="715.087891" xlink:href="#DejaVuSans-65"/>
    </g>
   </g>
   <g id="text_46">
    <!-- Alameda, CA -->
    <g style="fill:#ae9d31;" transform="translate(467.405479 531.083049)scale(0.08 -0.08)">
     <use xlink:href="#DejaVuSans-65"/>
     <use x="68.408203" xlink:href="#DejaVuSans-108"/>
     <use x="96.191406" xlink:href="#DejaVuSans-97"/>
     <use x="157.470703" xlink:href="#DejaVuSans-109"/>
     <use x="254.882812" xlink:href="#DejaVuSans-101"/>
     <use x="316.40625" xlink:href="#DejaVuSans-100"/>
     <use x="379.882812" xlink:href="#DejaVuSans-97"/>
     <use x="441.162109" xlink:href="#DejaVuSans-44"/>
     <use x="472.949219" xlink:href="#DejaVuSans-32"/>
     <use x="504.736328" xlink:href="#DejaVuSans-67"/>
     <use x="574.560547" xlink:href="#DejaVuSans-65"/>
    </g>
   </g>
   <g id="text_47">
    <!-- San Mateo, CA -->
    <g style="fill:#33b07a;" transform="translate(467.405479 545.730154)scale(0.08 -0.08)">
     <use xlink:href="#DejaVuSans-83"/>
     <use x="63.476562" xlink:href="#DejaVuSans-97"/>
     <use x="124.755859" xlink:href="#DejaVuSans-110"/>
     <use x="188.134766" xlink:href="#DejaVuSans-32"/>
     <use x="219.921875" xlink:href="#DejaVuSans-77"/>
     <use x="306.201172" xlink:href="#DejaVuSans-97"/>
     <use x="367.480469" xlink:href="#DejaVuSans-116"/>
     <use x="406.689453" xlink:href="#DejaVuSans-101"/>
     <use x="468.212891" xlink:href="#DejaVuSans-111"/>
     <use x="529.394531" xlink:href="#DejaVuSans-44"/>
     <use x="561.181641" xlink:href="#DejaVuSans-32"/>
     <use x="592.96875" xlink:href="#DejaVuSans-67"/>
     <use x="662.792969" xlink:href="#DejaVuSans-65"/>
    </g>
   </g>
   <g id="text_48">
    <!-- Contra Costa, CA -->
    <g style="fill:#38a9c5;" transform="translate(467.405479 567.453557)scale(0.08 -0.08)">
     <use xlink:href="#DejaVuSans-67"/>
     <use x="69.824219" xlink:href="#DejaVuSans-111"/>
     <use x="131.005859" xlink:href="#DejaVuSans-110"/>
     <use x="194.384766" xlink:href="#DejaVuSans-116"/>
     <use x="233.59375" xlink:href="#DejaVuSans-114"/>
     <use x="274.707031" xlink:href="#DejaVuSans-97"/>
     <use x="335.986328" xlink:href="#DejaVuSans-32"/>
     <use x="367.773438" xlink:href="#DejaVuSans-67"/>
     <use x="437.597656" xlink:href="#DejaVuSans-111"/>
     <use x="498.779297" xlink:href="#DejaVuSans-115"/>
     <use x="550.878906" xlink:href="#DejaVuSans-116"/>
     <use x="590.087891" xlink:href="#DejaVuSans-97"/>
     <use x="651.367188" xlink:href="#DejaVuSans-44"/>
     <use x="683.154297" xlink:href="#DejaVuSans-32"/>
     <use x="714.941406" xlink:href="#DejaVuSans-67"/>
     <use x="784.765625" xlink:href="#DejaVuSans-65"/>
    </g>
   </g>
   <g id="text_49">
    <!-- San Francisco, CA -->
    <g style="fill:#cc7af4;" transform="translate(396.302979 578.160215)scale(0.08 -0.08)">
     <use xlink:href="#DejaVuSans-83"/>
     <use x="63.476562" xlink:href="#DejaVuSans-97"/>
     <use x="124.755859" xlink:href="#DejaVuSans-110"/>
     <use x="188.134766" xlink:href="#DejaVuSans-32"/>
     <use x="219.921875" xlink:href="#DejaVuSans-70"/>
     <use x="270.191406" xlink:href="#DejaVuSans-114"/>
     <use x="311.304688" xlink:href="#DejaVuSans-97"/>
     <use x="372.583984" xlink:href="#DejaVuSans-110"/>
     <use x="435.962891" xlink:href="#DejaVuSans-99"/>
     <use x="490.943359" xlink:href="#DejaVuSans-105"/>
     <use x="518.726562" xlink:href="#DejaVuSans-115"/>
     <use x="570.826172" xlink:href="#DejaVuSans-99"/>
     <use x="625.806641" xlink:href="#DejaVuSans-111"/>
     <use x="686.988281" xlink:href="#DejaVuSans-44"/>
     <use x="718.775391" xlink:href="#DejaVuSans-32"/>
     <use x="750.5625" xlink:href="#DejaVuSans-67"/>
     <use x="820.386719" xlink:href="#DejaVuSans-65"/>
    </g>
   </g>
   <g id="text_50">
    <!-- Bay area counties -->
    <g style="fill:#ffffff;" transform="translate(257.2375 436.293333)scale(0.12 -0.12)">
     <use xlink:href="#DejaVuSans-66"/>
     <use x="68.603516" xlink:href="#DejaVuSans-97"/>
     <use x="129.882812" xlink:href="#DejaVuSans-121"/>
     <use x="189.0625" xlink:href="#DejaVuSans-32"/>
     <use x="220.849609" xlink:href="#DejaVuSans-97"/>
     <use x="282.128906" xlink:href="#DejaVuSans-114"/>
     <use x="320.992188" xlink:href="#DejaVuSans-101"/>
     <use x="382.515625" xlink:href="#DejaVuSans-97"/>
     <use x="443.794922" xlink:href="#DejaVuSans-32"/>
     <use x="475.582031" xlink:href="#DejaVuSans-99"/>
     <use x="530.5625" xlink:href="#DejaVuSans-111"/>
     <use x="591.744141" xlink:href="#DejaVuSans-117"/>
     <use x="655.123047" xlink:href="#DejaVuSans-110"/>
     <use x="718.501953" xlink:href="#DejaVuSans-116"/>
     <use x="757.710938" xlink:href="#DejaVuSans-105"/>
     <use x="785.494141" xlink:href="#DejaVuSans-101"/>
     <use x="847.017578" xlink:href="#DejaVuSans-115"/>
    </g>
   </g>
  </g>
 </g>
 <defs>
  <clipPath id="p9ce55bc565">
   <rect height="163.746667" width="508.03" x="57.17" y="26.88"/>
  </clipPath>
  <clipPath id="p72ec4639aa">
   <rect height="163.746667" width="508.03" x="57.17" y="234.586667"/>
  </clipPath>
  <clipPath id="pe82c08c5e2">
   <rect height="163.746667" width="508.03" x="57.17" y="442.293333"/>
  </clipPath>
 </defs>
</svg>
