<?xml version="1.0" encoding="utf-8" standalone="no"?>
<!DOCTYPE svg PUBLIC "-//W3C//DTD SVG 1.1//EN"
  "http://www.w3.org/Graphics/SVG/1.1/DTD/svg11.dtd">
<!-- Created with matplotlib (https://matplotlib.org/) -->
<svg height="648pt" version="1.1" viewBox="0 0 576 648" width="576pt" xmlns="http://www.w3.org/2000/svg" xmlns:xlink="http://www.w3.org/1999/xlink">
 <defs>
  <style type="text/css">
*{stroke-linecap:butt;stroke-linejoin:round;}
  </style>
 </defs>
 <g id="figure_1">
  <g id="patch_1">
   <path d="M 0 648 
L 576 648 
L 576 0 
L 0 0 
z
"/>
  </g>
  <g id="axes_1">
   <g id="patch_2">
    <path d="M 57.17 190.626667 
L 565.2 190.626667 
L 565.2 26.88 
L 57.17 26.88 
z
"/>
   </g>
   <g id="PolyCollection_1">
    <defs>
     <path d="M 414.079965 -577.525111 
L 414.079965 -577.525111 
L 422.969379 -578.049786 
L 431.858793 -578.773536 
L 440.748206 -579.036984 
L 449.63762 -579.286454 
L 458.527034 -580.271624 
L 458.527034 -613.67697 
L 458.527034 -613.67697 
L 449.63762 -606.159841 
L 440.748206 -598.395552 
L 431.858793 -590.950414 
L 422.969379 -584.322321 
L 414.079965 -577.525111 
z
" id="md2faee894f" style="stroke:#f77189;stroke-opacity:0.1;"/>
    </defs>
    <g clip-path="url(#p51ce466416)">
     <use style="fill:#f77189;fill-opacity:0.1;stroke:#f77189;stroke-opacity:0.1;" x="0" xlink:href="#md2faee894f" y="648"/>
    </g>
   </g>
   <g id="PolyCollection_2">
    <defs>
     <path d="M 414.079965 -571.981711 
L 414.079965 -571.981711 
L 422.969379 -572.206393 
L 431.858793 -572.612973 
L 440.748206 -573.730072 
L 449.63762 -572.699062 
L 458.527034 -571.981711 
L 458.527034 -610.537383 
L 458.527034 -610.537383 
L 449.63762 -601.102321 
L 440.748206 -592.076236 
L 431.858793 -585.550825 
L 422.969379 -578.704484 
L 414.079965 -571.981711 
z
" id="m592bbe9d19" style="stroke:#ae9d31;stroke-opacity:0.1;"/>
    </defs>
    <g clip-path="url(#p51ce466416)">
     <use style="fill:#ae9d31;fill-opacity:0.1;stroke:#ae9d31;stroke-opacity:0.1;" x="0" xlink:href="#m592bbe9d19" y="648"/>
    </g>
   </g>
   <g id="PolyCollection_3">
    <defs>
     <path d="M 414.079965 -536.647826 
L 414.079965 -536.647826 
L 422.969379 -536.669175 
L 431.858793 -537.169899 
L 440.748206 -537.724342 
L 449.63762 -537.621847 
L 458.527034 -538.234271 
L 458.527034 -562.525315 
L 458.527034 -562.525315 
L 449.63762 -557.055151 
L 440.748206 -551.244767 
L 431.858793 -546.374173 
L 422.969379 -541.722308 
L 414.079965 -536.647826 
z
" id="me66b460b24" style="stroke:#33b07a;stroke-opacity:0.1;"/>
    </defs>
    <g clip-path="url(#p51ce466416)">
     <use style="fill:#33b07a;fill-opacity:0.1;stroke:#33b07a;stroke-opacity:0.1;" x="0" xlink:href="#me66b460b24" y="648"/>
    </g>
   </g>
   <g id="PolyCollection_4">
    <defs>
     <path d="M 414.079965 -508.296085 
L 414.079965 -508.296085 
L 422.969379 -508.296085 
L 431.858793 -508.296085 
L 440.748206 -508.296085 
L 449.63762 -508.296085 
L 458.527034 -509.641882 
L 458.527034 -515.368179 
L 458.527034 -515.368179 
L 449.63762 -515.119986 
L 440.748206 -513.509503 
L 431.858793 -511.703477 
L 422.969379 -510.26459 
L 414.079965 -508.296085 
z
" id="m9902421ef1" style="stroke:#38a9c5;stroke-opacity:0.1;"/>
    </defs>
    <g clip-path="url(#p51ce466416)">
     <use style="fill:#38a9c5;fill-opacity:0.1;stroke:#38a9c5;stroke-opacity:0.1;" x="0" xlink:href="#m9902421ef1" y="648"/>
    </g>
   </g>
   <g id="PolyCollection_5">
    <defs>
     <path d="M 414.079965 -501.250466 
L 414.079965 -501.250466 
L 422.969379 -501.250466 
L 431.858793 -501.724596 
L 440.748206 -502.553517 
L 449.63762 -502.984051 
L 458.527034 -502.63519 
L 458.527034 -511.12767 
L 458.527034 -511.12767 
L 449.63762 -508.505789 
L 440.748206 -506.721274 
L 431.858793 -505.268804 
L 422.969379 -503.698817 
L 414.079965 -501.250466 
z
" id="m2ee09f4c14" style="stroke:#cc7af4;stroke-opacity:0.1;"/>
    </defs>
    <g clip-path="url(#p51ce466416)">
     <use style="fill:#cc7af4;fill-opacity:0.1;stroke:#cc7af4;stroke-opacity:0.1;" x="0" xlink:href="#m2ee09f4c14" y="648"/>
    </g>
   </g>
   <g id="matplotlib.axis_1">
    <g id="xtick_1">
     <g id="line2d_1">
      <defs>
       <path d="M 0 0 
L 0 3.5 
" id="m7471623cfd" style="stroke:#ffffff;stroke-width:0.8;"/>
      </defs>
      <g>
       <use style="fill:#ffffff;stroke:#ffffff;stroke-width:0.8;" x="76.28224" xlink:href="#m7471623cfd" y="190.626667"/>
      </g>
     </g>
     <g id="text_1">
      <!-- 3/22 -->
      <defs>
       <path d="M 40.578125 39.3125 
Q 47.65625 37.796875 51.625 33 
Q 55.609375 28.21875 55.609375 21.1875 
Q 55.609375 10.40625 48.1875 4.484375 
Q 40.765625 -1.421875 27.09375 -1.421875 
Q 22.515625 -1.421875 17.65625 -0.515625 
Q 12.796875 0.390625 7.625 2.203125 
L 7.625 11.71875 
Q 11.71875 9.328125 16.59375 8.109375 
Q 21.484375 6.890625 26.8125 6.890625 
Q 36.078125 6.890625 40.9375 10.546875 
Q 45.796875 14.203125 45.796875 21.1875 
Q 45.796875 27.640625 41.28125 31.265625 
Q 36.765625 34.90625 28.71875 34.90625 
L 20.21875 34.90625 
L 20.21875 43.015625 
L 29.109375 43.015625 
Q 36.375 43.015625 40.234375 45.921875 
Q 44.09375 48.828125 44.09375 54.296875 
Q 44.09375 59.90625 40.109375 62.90625 
Q 36.140625 65.921875 28.71875 65.921875 
Q 24.65625 65.921875 20.015625 65.03125 
Q 15.375 64.15625 9.8125 62.3125 
L 9.8125 71.09375 
Q 15.4375 72.65625 20.34375 73.4375 
Q 25.25 74.21875 29.59375 74.21875 
Q 40.828125 74.21875 47.359375 69.109375 
Q 53.90625 64.015625 53.90625 55.328125 
Q 53.90625 49.265625 50.4375 45.09375 
Q 46.96875 40.921875 40.578125 39.3125 
z
" id="DejaVuSans-51"/>
       <path d="M 25.390625 72.90625 
L 33.6875 72.90625 
L 8.296875 -9.28125 
L 0 -9.28125 
z
" id="DejaVuSans-47"/>
       <path d="M 19.1875 8.296875 
L 53.609375 8.296875 
L 53.609375 0 
L 7.328125 0 
L 7.328125 8.296875 
Q 12.9375 14.109375 22.625 23.890625 
Q 32.328125 33.6875 34.8125 36.53125 
Q 39.546875 41.84375 41.421875 45.53125 
Q 43.3125 49.21875 43.3125 52.78125 
Q 43.3125 58.59375 39.234375 62.25 
Q 35.15625 65.921875 28.609375 65.921875 
Q 23.96875 65.921875 18.8125 64.3125 
Q 13.671875 62.703125 7.8125 59.421875 
L 7.8125 69.390625 
Q 13.765625 71.78125 18.9375 73 
Q 24.125 74.21875 28.421875 74.21875 
Q 39.75 74.21875 46.484375 68.546875 
Q 53.21875 62.890625 53.21875 53.421875 
Q 53.21875 48.921875 51.53125 44.890625 
Q 49.859375 40.875 45.40625 35.40625 
Q 44.1875 33.984375 37.640625 27.21875 
Q 31.109375 20.453125 19.1875 8.296875 
z
" id="DejaVuSans-50"/>
      </defs>
      <g style="fill:#ffffff;" transform="translate(65.054115 205.225104)scale(0.1 -0.1)">
       <use xlink:href="#DejaVuSans-51"/>
       <use x="63.623047" xlink:href="#DejaVuSans-47"/>
       <use x="97.314453" xlink:href="#DejaVuSans-50"/>
       <use x="160.9375" xlink:href="#DejaVuSans-50"/>
      </g>
     </g>
    </g>
    <g id="xtick_2">
     <g id="line2d_2">
      <g>
       <use style="fill:#ffffff;stroke:#ffffff;stroke-width:0.8;" x="414.079965" xlink:href="#m7471623cfd" y="190.626667"/>
      </g>
     </g>
     <g id="text_2">
      <!-- 4/30 -->
      <defs>
       <path d="M 37.796875 64.3125 
L 12.890625 25.390625 
L 37.796875 25.390625 
z
M 35.203125 72.90625 
L 47.609375 72.90625 
L 47.609375 25.390625 
L 58.015625 25.390625 
L 58.015625 17.1875 
L 47.609375 17.1875 
L 47.609375 0 
L 37.796875 0 
L 37.796875 17.1875 
L 4.890625 17.1875 
L 4.890625 26.703125 
z
" id="DejaVuSans-52"/>
       <path d="M 31.78125 66.40625 
Q 24.171875 66.40625 20.328125 58.90625 
Q 16.5 51.421875 16.5 36.375 
Q 16.5 21.390625 20.328125 13.890625 
Q 24.171875 6.390625 31.78125 6.390625 
Q 39.453125 6.390625 43.28125 13.890625 
Q 47.125 21.390625 47.125 36.375 
Q 47.125 51.421875 43.28125 58.90625 
Q 39.453125 66.40625 31.78125 66.40625 
z
M 31.78125 74.21875 
Q 44.046875 74.21875 50.515625 64.515625 
Q 56.984375 54.828125 56.984375 36.375 
Q 56.984375 17.96875 50.515625 8.265625 
Q 44.046875 -1.421875 31.78125 -1.421875 
Q 19.53125 -1.421875 13.0625 8.265625 
Q 6.59375 17.96875 6.59375 36.375 
Q 6.59375 54.828125 13.0625 64.515625 
Q 19.53125 74.21875 31.78125 74.21875 
z
" id="DejaVuSans-48"/>
      </defs>
      <g style="fill:#ffffff;" transform="translate(402.85184 205.225104)scale(0.1 -0.1)">
       <use xlink:href="#DejaVuSans-52"/>
       <use x="63.623047" xlink:href="#DejaVuSans-47"/>
       <use x="97.314453" xlink:href="#DejaVuSans-51"/>
       <use x="160.9375" xlink:href="#DejaVuSans-48"/>
      </g>
     </g>
    </g>
    <g id="xtick_3">
     <g id="line2d_3">
      <g>
       <use style="fill:#ffffff;stroke:#ffffff;stroke-width:0.8;" x="458.527034" xlink:href="#m7471623cfd" y="190.626667"/>
      </g>
     </g>
     <g id="text_3">
      <!-- 5/5 -->
      <defs>
       <path d="M 10.796875 72.90625 
L 49.515625 72.90625 
L 49.515625 64.59375 
L 19.828125 64.59375 
L 19.828125 46.734375 
Q 21.96875 47.46875 24.109375 47.828125 
Q 26.265625 48.1875 28.421875 48.1875 
Q 40.625 48.1875 47.75 41.5 
Q 54.890625 34.8125 54.890625 23.390625 
Q 54.890625 11.625 47.5625 5.09375 
Q 40.234375 -1.421875 26.90625 -1.421875 
Q 22.3125 -1.421875 17.546875 -0.640625 
Q 12.796875 0.140625 7.71875 1.703125 
L 7.71875 11.625 
Q 12.109375 9.234375 16.796875 8.0625 
Q 21.484375 6.890625 26.703125 6.890625 
Q 35.15625 6.890625 40.078125 11.328125 
Q 45.015625 15.765625 45.015625 23.390625 
Q 45.015625 31 40.078125 35.4375 
Q 35.15625 39.890625 26.703125 39.890625 
Q 22.75 39.890625 18.8125 39.015625 
Q 14.890625 38.140625 10.796875 36.28125 
z
" id="DejaVuSans-53"/>
      </defs>
      <g style="fill:#ffffff;" transform="translate(450.480159 205.225104)scale(0.1 -0.1)">
       <use xlink:href="#DejaVuSans-53"/>
       <use x="63.623047" xlink:href="#DejaVuSans-47"/>
       <use x="97.314453" xlink:href="#DejaVuSans-53"/>
      </g>
     </g>
    </g>
   </g>
   <g id="matplotlib.axis_2">
    <g id="ytick_1">
     <g id="line2d_4">
      <defs>
       <path d="M 0 0 
L -3.5 0 
" id="m8e6b6e8bf7" style="stroke:#ffffff;stroke-width:0.8;"/>
      </defs>
      <g>
       <use style="fill:#ffffff;stroke:#ffffff;stroke-width:0.8;" x="57.17" xlink:href="#m8e6b6e8bf7" y="183.289426"/>
      </g>
     </g>
     <g id="text_4">
      <!-- 0 -->
      <g style="fill:#ffffff;" transform="translate(43.8075 187.088645)scale(0.1 -0.1)">
       <use xlink:href="#DejaVuSans-48"/>
      </g>
     </g>
    </g>
    <g id="ytick_2">
     <g id="line2d_5">
      <g>
       <use style="fill:#ffffff;stroke:#ffffff;stroke-width:0.8;" x="57.17" xlink:href="#m8e6b6e8bf7" y="162.131411"/>
      </g>
     </g>
     <g id="text_5">
      <!-- 1000 -->
      <defs>
       <path d="M 12.40625 8.296875 
L 28.515625 8.296875 
L 28.515625 63.921875 
L 10.984375 60.40625 
L 10.984375 69.390625 
L 28.421875 72.90625 
L 38.28125 72.90625 
L 38.28125 8.296875 
L 54.390625 8.296875 
L 54.390625 0 
L 12.40625 0 
z
" id="DejaVuSans-49"/>
      </defs>
      <g style="fill:#ffffff;" transform="translate(24.72 165.93063)scale(0.1 -0.1)">
       <use xlink:href="#DejaVuSans-49"/>
       <use x="63.623047" xlink:href="#DejaVuSans-48"/>
       <use x="127.246094" xlink:href="#DejaVuSans-48"/>
       <use x="190.869141" xlink:href="#DejaVuSans-48"/>
      </g>
     </g>
    </g>
    <g id="ytick_3">
     <g id="line2d_6">
      <g>
       <use style="fill:#ffffff;stroke:#ffffff;stroke-width:0.8;" x="57.17" xlink:href="#m8e6b6e8bf7" y="140.973396"/>
      </g>
     </g>
     <g id="text_6">
      <!-- 2000 -->
      <g style="fill:#ffffff;" transform="translate(24.72 144.772614)scale(0.1 -0.1)">
       <use xlink:href="#DejaVuSans-50"/>
       <use x="63.623047" xlink:href="#DejaVuSans-48"/>
       <use x="127.246094" xlink:href="#DejaVuSans-48"/>
       <use x="190.869141" xlink:href="#DejaVuSans-48"/>
      </g>
     </g>
    </g>
    <g id="ytick_4">
     <g id="line2d_7">
      <g>
       <use style="fill:#ffffff;stroke:#ffffff;stroke-width:0.8;" x="57.17" xlink:href="#m8e6b6e8bf7" y="119.81538"/>
      </g>
     </g>
     <g id="text_7">
      <!-- 3000 -->
      <g style="fill:#ffffff;" transform="translate(24.72 123.614599)scale(0.1 -0.1)">
       <use xlink:href="#DejaVuSans-51"/>
       <use x="63.623047" xlink:href="#DejaVuSans-48"/>
       <use x="127.246094" xlink:href="#DejaVuSans-48"/>
       <use x="190.869141" xlink:href="#DejaVuSans-48"/>
      </g>
     </g>
    </g>
    <g id="ytick_5">
     <g id="line2d_8">
      <g>
       <use style="fill:#ffffff;stroke:#ffffff;stroke-width:0.8;" x="57.17" xlink:href="#m8e6b6e8bf7" y="98.657365"/>
      </g>
     </g>
     <g id="text_8">
      <!-- 4000 -->
      <g style="fill:#ffffff;" transform="translate(24.72 102.456584)scale(0.1 -0.1)">
       <use xlink:href="#DejaVuSans-52"/>
       <use x="63.623047" xlink:href="#DejaVuSans-48"/>
       <use x="127.246094" xlink:href="#DejaVuSans-48"/>
       <use x="190.869141" xlink:href="#DejaVuSans-48"/>
      </g>
     </g>
    </g>
    <g id="ytick_6">
     <g id="line2d_9">
      <g>
       <use style="fill:#ffffff;stroke:#ffffff;stroke-width:0.8;" x="57.17" xlink:href="#m8e6b6e8bf7" y="77.49935"/>
      </g>
     </g>
     <g id="text_9">
      <!-- 5000 -->
      <g style="fill:#ffffff;" transform="translate(24.72 81.298568)scale(0.1 -0.1)">
       <use xlink:href="#DejaVuSans-53"/>
       <use x="63.623047" xlink:href="#DejaVuSans-48"/>
       <use x="127.246094" xlink:href="#DejaVuSans-48"/>
       <use x="190.869141" xlink:href="#DejaVuSans-48"/>
      </g>
     </g>
    </g>
    <g id="ytick_7">
     <g id="line2d_10">
      <g>
       <use style="fill:#ffffff;stroke:#ffffff;stroke-width:0.8;" x="57.17" xlink:href="#m8e6b6e8bf7" y="56.341334"/>
      </g>
     </g>
     <g id="text_10">
      <!-- 6000 -->
      <defs>
       <path d="M 33.015625 40.375 
Q 26.375 40.375 22.484375 35.828125 
Q 18.609375 31.296875 18.609375 23.390625 
Q 18.609375 15.53125 22.484375 10.953125 
Q 26.375 6.390625 33.015625 6.390625 
Q 39.65625 6.390625 43.53125 10.953125 
Q 47.40625 15.53125 47.40625 23.390625 
Q 47.40625 31.296875 43.53125 35.828125 
Q 39.65625 40.375 33.015625 40.375 
z
M 52.59375 71.296875 
L 52.59375 62.3125 
Q 48.875 64.0625 45.09375 64.984375 
Q 41.3125 65.921875 37.59375 65.921875 
Q 27.828125 65.921875 22.671875 59.328125 
Q 17.53125 52.734375 16.796875 39.40625 
Q 19.671875 43.65625 24.015625 45.921875 
Q 28.375 48.1875 33.59375 48.1875 
Q 44.578125 48.1875 50.953125 41.515625 
Q 57.328125 34.859375 57.328125 23.390625 
Q 57.328125 12.15625 50.6875 5.359375 
Q 44.046875 -1.421875 33.015625 -1.421875 
Q 20.359375 -1.421875 13.671875 8.265625 
Q 6.984375 17.96875 6.984375 36.375 
Q 6.984375 53.65625 15.1875 63.9375 
Q 23.390625 74.21875 37.203125 74.21875 
Q 40.921875 74.21875 44.703125 73.484375 
Q 48.484375 72.75 52.59375 71.296875 
z
" id="DejaVuSans-54"/>
      </defs>
      <g style="fill:#ffffff;" transform="translate(24.72 60.140553)scale(0.1 -0.1)">
       <use xlink:href="#DejaVuSans-54"/>
       <use x="63.623047" xlink:href="#DejaVuSans-48"/>
       <use x="127.246094" xlink:href="#DejaVuSans-48"/>
       <use x="190.869141" xlink:href="#DejaVuSans-48"/>
      </g>
     </g>
    </g>
    <g id="ytick_8">
     <g id="line2d_11">
      <g>
       <use style="fill:#ffffff;stroke:#ffffff;stroke-width:0.8;" x="57.17" xlink:href="#m8e6b6e8bf7" y="35.183319"/>
      </g>
     </g>
     <g id="text_11">
      <!-- 7000 -->
      <defs>
       <path d="M 8.203125 72.90625 
L 55.078125 72.90625 
L 55.078125 68.703125 
L 28.609375 0 
L 18.3125 0 
L 43.21875 64.59375 
L 8.203125 64.59375 
z
" id="DejaVuSans-55"/>
      </defs>
      <g style="fill:#ffffff;" transform="translate(24.72 38.982538)scale(0.1 -0.1)">
       <use xlink:href="#DejaVuSans-55"/>
       <use x="63.623047" xlink:href="#DejaVuSans-48"/>
       <use x="127.246094" xlink:href="#DejaVuSans-48"/>
       <use x="190.869141" xlink:href="#DejaVuSans-48"/>
      </g>
     </g>
    </g>
    <g id="text_12">
     <!-- Cumulative deaths -->
     <defs>
      <path d="M 64.40625 67.28125 
L 64.40625 56.890625 
Q 59.421875 61.53125 53.78125 63.8125 
Q 48.140625 66.109375 41.796875 66.109375 
Q 29.296875 66.109375 22.65625 58.46875 
Q 16.015625 50.828125 16.015625 36.375 
Q 16.015625 21.96875 22.65625 14.328125 
Q 29.296875 6.6875 41.796875 6.6875 
Q 48.140625 6.6875 53.78125 8.984375 
Q 59.421875 11.28125 64.40625 15.921875 
L 64.40625 5.609375 
Q 59.234375 2.09375 53.4375 0.328125 
Q 47.65625 -1.421875 41.21875 -1.421875 
Q 24.65625 -1.421875 15.125 8.703125 
Q 5.609375 18.84375 5.609375 36.375 
Q 5.609375 53.953125 15.125 64.078125 
Q 24.65625 74.21875 41.21875 74.21875 
Q 47.75 74.21875 53.53125 72.484375 
Q 59.328125 70.75 64.40625 67.28125 
z
" id="DejaVuSans-67"/>
      <path d="M 8.5 21.578125 
L 8.5 54.6875 
L 17.484375 54.6875 
L 17.484375 21.921875 
Q 17.484375 14.15625 20.5 10.265625 
Q 23.53125 6.390625 29.59375 6.390625 
Q 36.859375 6.390625 41.078125 11.03125 
Q 45.3125 15.671875 45.3125 23.6875 
L 45.3125 54.6875 
L 54.296875 54.6875 
L 54.296875 0 
L 45.3125 0 
L 45.3125 8.40625 
Q 42.046875 3.421875 37.71875 1 
Q 33.40625 -1.421875 27.6875 -1.421875 
Q 18.265625 -1.421875 13.375 4.4375 
Q 8.5 10.296875 8.5 21.578125 
z
M 31.109375 56 
z
" id="DejaVuSans-117"/>
      <path d="M 52 44.1875 
Q 55.375 50.25 60.0625 53.125 
Q 64.75 56 71.09375 56 
Q 79.640625 56 84.28125 50.015625 
Q 88.921875 44.046875 88.921875 33.015625 
L 88.921875 0 
L 79.890625 0 
L 79.890625 32.71875 
Q 79.890625 40.578125 77.09375 44.375 
Q 74.3125 48.1875 68.609375 48.1875 
Q 61.625 48.1875 57.5625 43.546875 
Q 53.515625 38.921875 53.515625 30.90625 
L 53.515625 0 
L 44.484375 0 
L 44.484375 32.71875 
Q 44.484375 40.625 41.703125 44.40625 
Q 38.921875 48.1875 33.109375 48.1875 
Q 26.21875 48.1875 22.15625 43.53125 
Q 18.109375 38.875 18.109375 30.90625 
L 18.109375 0 
L 9.078125 0 
L 9.078125 54.6875 
L 18.109375 54.6875 
L 18.109375 46.1875 
Q 21.1875 51.21875 25.484375 53.609375 
Q 29.78125 56 35.6875 56 
Q 41.65625 56 45.828125 52.96875 
Q 50 49.953125 52 44.1875 
z
" id="DejaVuSans-109"/>
      <path d="M 9.421875 75.984375 
L 18.40625 75.984375 
L 18.40625 0 
L 9.421875 0 
z
" id="DejaVuSans-108"/>
      <path d="M 34.28125 27.484375 
Q 23.390625 27.484375 19.1875 25 
Q 14.984375 22.515625 14.984375 16.5 
Q 14.984375 11.71875 18.140625 8.90625 
Q 21.296875 6.109375 26.703125 6.109375 
Q 34.1875 6.109375 38.703125 11.40625 
Q 43.21875 16.703125 43.21875 25.484375 
L 43.21875 27.484375 
z
M 52.203125 31.203125 
L 52.203125 0 
L 43.21875 0 
L 43.21875 8.296875 
Q 40.140625 3.328125 35.546875 0.953125 
Q 30.953125 -1.421875 24.3125 -1.421875 
Q 15.921875 -1.421875 10.953125 3.296875 
Q 6 8.015625 6 15.921875 
Q 6 25.140625 12.171875 29.828125 
Q 18.359375 34.515625 30.609375 34.515625 
L 43.21875 34.515625 
L 43.21875 35.40625 
Q 43.21875 41.609375 39.140625 45 
Q 35.0625 48.390625 27.6875 48.390625 
Q 23 48.390625 18.546875 47.265625 
Q 14.109375 46.140625 10.015625 43.890625 
L 10.015625 52.203125 
Q 14.9375 54.109375 19.578125 55.046875 
Q 24.21875 56 28.609375 56 
Q 40.484375 56 46.34375 49.84375 
Q 52.203125 43.703125 52.203125 31.203125 
z
" id="DejaVuSans-97"/>
      <path d="M 18.3125 70.21875 
L 18.3125 54.6875 
L 36.8125 54.6875 
L 36.8125 47.703125 
L 18.3125 47.703125 
L 18.3125 18.015625 
Q 18.3125 11.328125 20.140625 9.421875 
Q 21.96875 7.515625 27.59375 7.515625 
L 36.8125 7.515625 
L 36.8125 0 
L 27.59375 0 
Q 17.1875 0 13.234375 3.875 
Q 9.28125 7.765625 9.28125 18.015625 
L 9.28125 47.703125 
L 2.6875 47.703125 
L 2.6875 54.6875 
L 9.28125 54.6875 
L 9.28125 70.21875 
z
" id="DejaVuSans-116"/>
      <path d="M 9.421875 54.6875 
L 18.40625 54.6875 
L 18.40625 0 
L 9.421875 0 
z
M 9.421875 75.984375 
L 18.40625 75.984375 
L 18.40625 64.59375 
L 9.421875 64.59375 
z
" id="DejaVuSans-105"/>
      <path d="M 2.984375 54.6875 
L 12.5 54.6875 
L 29.59375 8.796875 
L 46.6875 54.6875 
L 56.203125 54.6875 
L 35.6875 0 
L 23.484375 0 
z
" id="DejaVuSans-118"/>
      <path d="M 56.203125 29.59375 
L 56.203125 25.203125 
L 14.890625 25.203125 
Q 15.484375 15.921875 20.484375 11.0625 
Q 25.484375 6.203125 34.421875 6.203125 
Q 39.59375 6.203125 44.453125 7.46875 
Q 49.3125 8.734375 54.109375 11.28125 
L 54.109375 2.78125 
Q 49.265625 0.734375 44.1875 -0.34375 
Q 39.109375 -1.421875 33.890625 -1.421875 
Q 20.796875 -1.421875 13.15625 6.1875 
Q 5.515625 13.8125 5.515625 26.8125 
Q 5.515625 40.234375 12.765625 48.109375 
Q 20.015625 56 32.328125 56 
Q 43.359375 56 49.78125 48.890625 
Q 56.203125 41.796875 56.203125 29.59375 
z
M 47.21875 32.234375 
Q 47.125 39.59375 43.09375 43.984375 
Q 39.0625 48.390625 32.421875 48.390625 
Q 24.90625 48.390625 20.390625 44.140625 
Q 15.875 39.890625 15.1875 32.171875 
z
" id="DejaVuSans-101"/>
      <path id="DejaVuSans-32"/>
      <path d="M 45.40625 46.390625 
L 45.40625 75.984375 
L 54.390625 75.984375 
L 54.390625 0 
L 45.40625 0 
L 45.40625 8.203125 
Q 42.578125 3.328125 38.25 0.953125 
Q 33.9375 -1.421875 27.875 -1.421875 
Q 17.96875 -1.421875 11.734375 6.484375 
Q 5.515625 14.40625 5.515625 27.296875 
Q 5.515625 40.1875 11.734375 48.09375 
Q 17.96875 56 27.875 56 
Q 33.9375 56 38.25 53.625 
Q 42.578125 51.265625 45.40625 46.390625 
z
M 14.796875 27.296875 
Q 14.796875 17.390625 18.875 11.75 
Q 22.953125 6.109375 30.078125 6.109375 
Q 37.203125 6.109375 41.296875 11.75 
Q 45.40625 17.390625 45.40625 27.296875 
Q 45.40625 37.203125 41.296875 42.84375 
Q 37.203125 48.484375 30.078125 48.484375 
Q 22.953125 48.484375 18.875 42.84375 
Q 14.796875 37.203125 14.796875 27.296875 
z
" id="DejaVuSans-100"/>
      <path d="M 54.890625 33.015625 
L 54.890625 0 
L 45.90625 0 
L 45.90625 32.71875 
Q 45.90625 40.484375 42.875 44.328125 
Q 39.84375 48.1875 33.796875 48.1875 
Q 26.515625 48.1875 22.3125 43.546875 
Q 18.109375 38.921875 18.109375 30.90625 
L 18.109375 0 
L 9.078125 0 
L 9.078125 75.984375 
L 18.109375 75.984375 
L 18.109375 46.1875 
Q 21.34375 51.125 25.703125 53.5625 
Q 30.078125 56 35.796875 56 
Q 45.21875 56 50.046875 50.171875 
Q 54.890625 44.34375 54.890625 33.015625 
z
" id="DejaVuSans-104"/>
      <path d="M 44.28125 53.078125 
L 44.28125 44.578125 
Q 40.484375 46.53125 36.375 47.5 
Q 32.28125 48.484375 27.875 48.484375 
Q 21.1875 48.484375 17.84375 46.4375 
Q 14.5 44.390625 14.5 40.28125 
Q 14.5 37.15625 16.890625 35.375 
Q 19.28125 33.59375 26.515625 31.984375 
L 29.59375 31.296875 
Q 39.15625 29.25 43.1875 25.515625 
Q 47.21875 21.78125 47.21875 15.09375 
Q 47.21875 7.46875 41.1875 3.015625 
Q 35.15625 -1.421875 24.609375 -1.421875 
Q 20.21875 -1.421875 15.453125 -0.5625 
Q 10.6875 0.296875 5.421875 2 
L 5.421875 11.28125 
Q 10.40625 8.6875 15.234375 7.390625 
Q 20.0625 6.109375 24.8125 6.109375 
Q 31.15625 6.109375 34.5625 8.28125 
Q 37.984375 10.453125 37.984375 14.40625 
Q 37.984375 18.0625 35.515625 20.015625 
Q 33.0625 21.96875 24.703125 23.78125 
L 21.578125 24.515625 
Q 13.234375 26.265625 9.515625 29.90625 
Q 5.8125 33.546875 5.8125 39.890625 
Q 5.8125 47.609375 11.28125 51.796875 
Q 16.75 56 26.8125 56 
Q 31.78125 56 36.171875 55.265625 
Q 40.578125 54.546875 44.28125 53.078125 
z
" id="DejaVuSans-115"/>
     </defs>
     <g style="fill:#ffffff;" transform="translate(18.640313 155.928333)rotate(-90)scale(0.1 -0.1)">
      <use xlink:href="#DejaVuSans-67"/>
      <use x="69.824219" xlink:href="#DejaVuSans-117"/>
      <use x="133.203125" xlink:href="#DejaVuSans-109"/>
      <use x="230.615234" xlink:href="#DejaVuSans-117"/>
      <use x="293.994141" xlink:href="#DejaVuSans-108"/>
      <use x="321.777344" xlink:href="#DejaVuSans-97"/>
      <use x="383.056641" xlink:href="#DejaVuSans-116"/>
      <use x="422.265625" xlink:href="#DejaVuSans-105"/>
      <use x="450.048828" xlink:href="#DejaVuSans-118"/>
      <use x="509.228516" xlink:href="#DejaVuSans-101"/>
      <use x="570.751953" xlink:href="#DejaVuSans-32"/>
      <use x="602.539062" xlink:href="#DejaVuSans-100"/>
      <use x="666.015625" xlink:href="#DejaVuSans-101"/>
      <use x="727.539062" xlink:href="#DejaVuSans-97"/>
      <use x="788.818359" xlink:href="#DejaVuSans-116"/>
      <use x="828.027344" xlink:href="#DejaVuSans-104"/>
      <use x="891.40625" xlink:href="#DejaVuSans-115"/>
     </g>
    </g>
   </g>
   <g id="line2d_12">
    <path clip-path="url(#p51ce466416)" d="M 76.28224 182.993214 
L 85.171654 182.71816 
L 94.061067 182.337316 
L 102.950481 181.935313 
L 111.839895 181.575627 
L 120.729309 181.131309 
L 129.618723 179.756038 
L 138.508136 179.375194 
L 147.39755 178.740453 
L 156.286964 177.767184 
L 165.176378 176.349597 
L 174.065792 175.143591 
L 182.955206 173.027789 
L 191.844619 170.383037 
L 200.734033 164.331845 
L 209.623447 161.665935 
L 218.512861 158.894235 
L 227.402275 155.508952 
L 236.291689 152.12367 
L 245.181102 148.590281 
L 254.070516 144.295204 
L 262.95993 140.380971 
L 271.849344 138.180538 
L 280.738758 116.557046 
L 289.628171 112.685129 
L 298.517585 109.744165 
L 307.406999 107.649522 
L 316.296413 106.866675 
L 325.185827 98.086099 
L 334.075241 94.891238 
L 342.964654 91.294376 
L 351.854068 87.824461 
L 360.743482 84.946971 
L 369.632896 81.879059 
L 378.52231 77.964826 
L 387.411724 75.912499 
L 396.301137 74.029435 
L 405.190551 71.553947 
L 414.079965 70.474889 
" style="fill:none;stroke:#f77189;stroke-linecap:square;stroke-width:1.5;"/>
   </g>
   <g id="line2d_13">
    <path clip-path="url(#p51ce466416)" d="M 414.079965 70.474889 
L 422.969379 66.32284 
L 431.858793 62.191405 
L 440.748206 57.970352 
L 449.63762 53.750824 
L 458.527034 49.550432 
" style="fill:none;stroke:#f77189;stroke-dasharray:1.5,2.475;stroke-dashoffset:0;stroke-width:1.5;"/>
   </g>
   <g id="line2d_14">
    <path clip-path="url(#p51ce466416)" d="M 76.28224 182.845108 
L 85.171654 182.443106 
L 94.061067 182.019946 
L 102.950481 181.342889 
L 111.839895 180.665833 
L 120.729309 180.136882 
L 129.618723 178.719295 
L 138.508136 177.936449 
L 147.39755 176.836232 
L 156.286964 175.334013 
L 165.176378 173.831794 
L 174.065792 172.731577 
L 182.955206 170.806197 
L 191.844619 168.796186 
L 200.734033 166.08796 
L 209.623447 163.231628 
L 218.512861 159.402027 
L 227.402275 154.853054 
L 236.291689 153.668205 
L 245.181102 146.072477 
L 254.070516 144.189414 
L 262.95993 138.519066 
L 271.849344 138.519066 
L 280.738758 120.915597 
L 289.628171 115.414513 
L 298.517585 112.240811 
L 307.406999 110.802066 
L 316.296413 109.955745 
L 325.185827 101.238643 
L 334.075241 98.107257 
L 342.964654 94.34113 
L 351.854068 91.35785 
L 360.743482 88.861204 
L 369.632896 86.576138 
L 378.52231 83.36012 
L 387.411724 81.730953 
L 396.301137 80.249892 
L 405.190551 77.859036 
L 414.079965 76.018289 
" style="fill:none;stroke:#ae9d31;stroke-linecap:square;stroke-width:1.5;"/>
   </g>
   <g id="line2d_15">
    <path clip-path="url(#p51ce466416)" d="M 414.079965 76.018289 
L 422.969379 71.830523 
L 431.858793 67.531468 
L 440.748206 63.188869 
L 449.63762 58.932377 
L 458.527034 54.822419 
" style="fill:none;stroke:#ae9d31;stroke-dasharray:1.5,2.475;stroke-dashoffset:0;stroke-width:1.5;"/>
   </g>
   <g id="line2d_16">
    <path clip-path="url(#p51ce466416)" d="M 76.28224 182.993214 
L 85.171654 182.697002 
L 94.061067 182.358474 
L 102.950481 182.019946 
L 111.839895 181.617943 
L 120.729309 181.152467 
L 129.618723 180.073408 
L 138.508136 179.31172 
L 147.39755 178.740453 
L 156.286964 177.746026 
L 165.176378 175.672541 
L 174.065792 174.381902 
L 182.955206 173.133579 
L 191.844619 171.10241 
L 200.734033 170.023351 
L 209.623447 168.288394 
L 218.512861 164.204897 
L 227.402275 162.110253 
L 236.291689 161.158142 
L 245.181102 157.032329 
L 254.070516 155.614742 
L 262.95993 153.668205 
L 271.849344 152.948832 
L 280.738758 140.846448 
L 289.628171 137.736219 
L 298.517585 136.170526 
L 307.406999 134.879887 
L 316.296413 134.583675 
L 325.185827 128.574799 
L 334.075241 126.734051 
L 342.964654 124.639408 
L 351.854068 122.3755 
L 360.743482 119.81538 
L 369.632896 118.228529 
L 378.52231 116.19736 
L 387.411724 115.245249 
L 396.301137 113.785346 
L 405.190551 112.261969 
L 414.079965 111.352174 
" style="fill:none;stroke:#33b07a;stroke-linecap:square;stroke-width:1.5;"/>
   </g>
   <g id="line2d_17">
    <path clip-path="url(#p51ce466416)" d="M 414.079965 111.352174 
L 422.969379 108.31257 
L 431.858793 105.267937 
L 440.748206 102.180107 
L 449.63762 99.135305 
L 458.527034 96.186817 
" style="fill:none;stroke:#33b07a;stroke-dasharray:1.5,2.475;stroke-dashoffset:0;stroke-width:1.5;"/>
   </g>
   <g id="line2d_18">
    <path clip-path="url(#p51ce466416)" d="M 76.28224 183.077846 
L 85.171654 182.887424 
L 94.061067 182.548896 
L 102.950481 182.379632 
L 111.839895 182.125736 
L 120.729309 181.914155 
L 129.618723 181.321731 
L 138.508136 181.110151 
L 147.39755 180.771623 
L 156.286964 180.560042 
L 165.176378 179.798354 
L 174.065792 179.5233 
L 182.955206 178.740453 
L 191.844619 177.70371 
L 200.734033 175.0378 
L 209.623447 174.064532 
L 218.512861 172.435365 
L 227.402275 170.509985 
L 236.291689 169.028924 
L 245.181102 167.822917 
L 254.070516 166.384172 
L 262.95993 165.326271 
L 271.849344 165.326271 
L 280.738758 155.826323 
L 289.628171 155.382004 
L 298.517585 154.302945 
L 307.406999 153.647047 
L 316.296413 153.393151 
L 325.185827 150.0925 
L 334.075241 148.801861 
L 342.964654 147.701645 
L 351.854068 145.903213 
L 360.743482 144.951103 
L 369.632896 144.485626 
L 378.52231 141.98898 
L 387.411724 141.544662 
L 396.301137 140.994554 
L 405.190551 140.232865 
L 414.079965 139.703915 
" style="fill:none;stroke:#38a9c5;stroke-linecap:square;stroke-width:1.5;"/>
   </g>
   <g id="line2d_19">
    <path clip-path="url(#p51ce466416)" d="M 414.079965 139.703915 
L 422.969379 138.565276 
L 431.858793 137.457414 
L 440.748206 136.401569 
L 449.63762 135.458148 
L 458.527034 134.65912 
" style="fill:none;stroke:#38a9c5;stroke-dasharray:1.5,2.475;stroke-dashoffset:0;stroke-width:1.5;"/>
   </g>
   <g id="line2d_20">
    <path clip-path="url(#p51ce466416)" d="M 76.28224 183.183636 
L 85.171654 183.120162 
L 94.061067 183.014372 
L 102.950481 182.845108 
L 111.839895 182.739318 
L 120.729309 182.50658 
L 129.618723 182.316158 
L 138.508136 182.104578 
L 147.39755 181.533311 
L 156.286964 180.750465 
L 165.176378 180.200356 
L 174.065792 179.184771 
L 182.955206 178.571189 
L 191.844619 177.957607 
L 200.734033 177.090128 
L 209.623447 175.968753 
L 218.512861 174.783904 
L 227.402275 173.852952 
L 236.291689 172.625787 
L 245.181102 170.404195 
L 254.070516 169.4944 
L 262.95993 168.394184 
L 271.849344 168.394184 
L 280.738758 165.939854 
L 289.628171 164.585741 
L 298.517585 162.533413 
L 307.406999 161.200458 
L 316.296413 160.65035 
L 325.185827 159.613607 
L 334.075241 159.000025 
L 342.964654 156.249483 
L 351.854068 155.382004 
L 360.743482 153.752837 
L 369.632896 152.75841 
L 378.52231 150.282922 
L 387.411724 149.859762 
L 396.301137 148.971126 
L 405.190551 147.701645 
L 414.079965 146.749534 
" style="fill:none;stroke:#cc7af4;stroke-linecap:square;stroke-width:1.5;"/>
   </g>
   <g id="line2d_21">
    <path clip-path="url(#p51ce466416)" d="M 414.079965 146.749534 
L 422.969379 145.606575 
L 431.858793 144.447488 
L 440.748206 143.270024 
L 449.63762 142.11643 
L 458.527034 140.948786 
" style="fill:none;stroke:#cc7af4;stroke-dasharray:1.5,2.475;stroke-dashoffset:0;stroke-width:1.5;"/>
   </g>
   <g id="patch_3">
    <path d="M 57.17 190.626667 
L 57.17 26.88 
" style="fill:none;stroke:#ffffff;stroke-linecap:square;stroke-linejoin:miter;stroke-width:0.8;"/>
   </g>
   <g id="patch_4">
    <path d="M 565.2 190.626667 
L 565.2 26.88 
" style="fill:none;stroke:#ffffff;stroke-linecap:square;stroke-linejoin:miter;stroke-width:0.8;"/>
   </g>
   <g id="patch_5">
    <path d="M 57.17 190.626667 
L 565.2 190.626667 
" style="fill:none;stroke:#ffffff;stroke-linecap:square;stroke-linejoin:miter;stroke-width:0.8;"/>
   </g>
   <g id="patch_6">
    <path d="M 57.17 26.88 
L 565.2 26.88 
" style="fill:none;stroke:#ffffff;stroke-linecap:square;stroke-linejoin:miter;stroke-width:0.8;"/>
   </g>
   <g id="text_13">
    <!-- Kings, NY -->
    <defs>
     <path d="M 9.8125 72.90625 
L 19.671875 72.90625 
L 19.671875 42.09375 
L 52.390625 72.90625 
L 65.09375 72.90625 
L 28.90625 38.921875 
L 67.671875 0 
L 54.6875 0 
L 19.671875 35.109375 
L 19.671875 0 
L 9.8125 0 
z
" id="DejaVuSans-75"/>
     <path d="M 54.890625 33.015625 
L 54.890625 0 
L 45.90625 0 
L 45.90625 32.71875 
Q 45.90625 40.484375 42.875 44.328125 
Q 39.84375 48.1875 33.796875 48.1875 
Q 26.515625 48.1875 22.3125 43.546875 
Q 18.109375 38.921875 18.109375 30.90625 
L 18.109375 0 
L 9.078125 0 
L 9.078125 54.6875 
L 18.109375 54.6875 
L 18.109375 46.1875 
Q 21.34375 51.125 25.703125 53.5625 
Q 30.078125 56 35.796875 56 
Q 45.21875 56 50.046875 50.171875 
Q 54.890625 44.34375 54.890625 33.015625 
z
" id="DejaVuSans-110"/>
     <path d="M 45.40625 27.984375 
Q 45.40625 37.75 41.375 43.109375 
Q 37.359375 48.484375 30.078125 48.484375 
Q 22.859375 48.484375 18.828125 43.109375 
Q 14.796875 37.75 14.796875 27.984375 
Q 14.796875 18.265625 18.828125 12.890625 
Q 22.859375 7.515625 30.078125 7.515625 
Q 37.359375 7.515625 41.375 12.890625 
Q 45.40625 18.265625 45.40625 27.984375 
z
M 54.390625 6.78125 
Q 54.390625 -7.171875 48.1875 -13.984375 
Q 42 -20.796875 29.203125 -20.796875 
Q 24.46875 -20.796875 20.265625 -20.09375 
Q 16.0625 -19.390625 12.109375 -17.921875 
L 12.109375 -9.1875 
Q 16.0625 -11.328125 19.921875 -12.34375 
Q 23.78125 -13.375 27.78125 -13.375 
Q 36.625 -13.375 41.015625 -8.765625 
Q 45.40625 -4.15625 45.40625 5.171875 
L 45.40625 9.625 
Q 42.625 4.78125 38.28125 2.390625 
Q 33.9375 0 27.875 0 
Q 17.828125 0 11.671875 7.65625 
Q 5.515625 15.328125 5.515625 27.984375 
Q 5.515625 40.671875 11.671875 48.328125 
Q 17.828125 56 27.875 56 
Q 33.9375 56 38.28125 53.609375 
Q 42.625 51.21875 45.40625 46.390625 
L 45.40625 54.6875 
L 54.390625 54.6875 
z
" id="DejaVuSans-103"/>
     <path d="M 11.71875 12.40625 
L 22.015625 12.40625 
L 22.015625 4 
L 14.015625 -11.625 
L 7.71875 -11.625 
L 11.71875 4 
z
" id="DejaVuSans-44"/>
     <path d="M 9.8125 72.90625 
L 23.09375 72.90625 
L 55.421875 11.921875 
L 55.421875 72.90625 
L 64.984375 72.90625 
L 64.984375 0 
L 51.703125 0 
L 19.390625 60.984375 
L 19.390625 0 
L 9.8125 0 
z
" id="DejaVuSans-78"/>
     <path d="M -0.203125 72.90625 
L 10.40625 72.90625 
L 30.609375 42.921875 
L 50.6875 72.90625 
L 61.28125 72.90625 
L 35.5 34.71875 
L 35.5 0 
L 25.59375 0 
L 25.59375 34.71875 
z
" id="DejaVuSans-89"/>
    </defs>
    <g style="fill:#f77189;" transform="translate(467.416448 47.108413)scale(0.08 -0.08)">
     <use xlink:href="#DejaVuSans-75"/>
     <use x="65.576172" xlink:href="#DejaVuSans-105"/>
     <use x="93.359375" xlink:href="#DejaVuSans-110"/>
     <use x="156.738281" xlink:href="#DejaVuSans-103"/>
     <use x="220.214844" xlink:href="#DejaVuSans-115"/>
     <use x="272.314453" xlink:href="#DejaVuSans-44"/>
     <use x="304.101562" xlink:href="#DejaVuSans-32"/>
     <use x="335.888672" xlink:href="#DejaVuSans-78"/>
     <use x="410.693359" xlink:href="#DejaVuSans-89"/>
    </g>
   </g>
   <g id="text_14">
    <!-- Queens, NY -->
    <defs>
     <path d="M 39.40625 66.21875 
Q 28.65625 66.21875 22.328125 58.203125 
Q 16.015625 50.203125 16.015625 36.375 
Q 16.015625 22.609375 22.328125 14.59375 
Q 28.65625 6.59375 39.40625 6.59375 
Q 50.140625 6.59375 56.421875 14.59375 
Q 62.703125 22.609375 62.703125 36.375 
Q 62.703125 50.203125 56.421875 58.203125 
Q 50.140625 66.21875 39.40625 66.21875 
z
M 53.21875 1.3125 
L 66.21875 -12.890625 
L 54.296875 -12.890625 
L 43.5 -1.21875 
Q 41.890625 -1.3125 41.03125 -1.359375 
Q 40.1875 -1.421875 39.40625 -1.421875 
Q 24.03125 -1.421875 14.8125 8.859375 
Q 5.609375 19.140625 5.609375 36.375 
Q 5.609375 53.65625 14.8125 63.9375 
Q 24.03125 74.21875 39.40625 74.21875 
Q 54.734375 74.21875 63.90625 63.9375 
Q 73.09375 53.65625 73.09375 36.375 
Q 73.09375 23.6875 67.984375 14.640625 
Q 62.890625 5.609375 53.21875 1.3125 
z
" id="DejaVuSans-81"/>
    </defs>
    <g style="fill:#ae9d31;" transform="translate(467.416448 61.679439)scale(0.08 -0.08)">
     <use xlink:href="#DejaVuSans-81"/>
     <use x="78.710938" xlink:href="#DejaVuSans-117"/>
     <use x="142.089844" xlink:href="#DejaVuSans-101"/>
     <use x="203.613281" xlink:href="#DejaVuSans-101"/>
     <use x="265.136719" xlink:href="#DejaVuSans-110"/>
     <use x="328.515625" xlink:href="#DejaVuSans-115"/>
     <use x="380.615234" xlink:href="#DejaVuSans-44"/>
     <use x="412.402344" xlink:href="#DejaVuSans-32"/>
     <use x="444.189453" xlink:href="#DejaVuSans-78"/>
     <use x="518.994141" xlink:href="#DejaVuSans-89"/>
    </g>
   </g>
   <g id="text_15">
    <!-- Bronx, NY -->
    <defs>
     <path d="M 19.671875 34.8125 
L 19.671875 8.109375 
L 35.5 8.109375 
Q 43.453125 8.109375 47.28125 11.40625 
Q 51.125 14.703125 51.125 21.484375 
Q 51.125 28.328125 47.28125 31.5625 
Q 43.453125 34.8125 35.5 34.8125 
z
M 19.671875 64.796875 
L 19.671875 42.828125 
L 34.28125 42.828125 
Q 41.5 42.828125 45.03125 45.53125 
Q 48.578125 48.25 48.578125 53.8125 
Q 48.578125 59.328125 45.03125 62.0625 
Q 41.5 64.796875 34.28125 64.796875 
z
M 9.8125 72.90625 
L 35.015625 72.90625 
Q 46.296875 72.90625 52.390625 68.21875 
Q 58.5 63.53125 58.5 54.890625 
Q 58.5 48.1875 55.375 44.234375 
Q 52.25 40.28125 46.1875 39.3125 
Q 53.46875 37.75 57.5 32.78125 
Q 61.53125 27.828125 61.53125 20.40625 
Q 61.53125 10.640625 54.890625 5.3125 
Q 48.25 0 35.984375 0 
L 9.8125 0 
z
" id="DejaVuSans-66"/>
     <path d="M 41.109375 46.296875 
Q 39.59375 47.171875 37.8125 47.578125 
Q 36.03125 48 33.890625 48 
Q 26.265625 48 22.1875 43.046875 
Q 18.109375 38.09375 18.109375 28.8125 
L 18.109375 0 
L 9.078125 0 
L 9.078125 54.6875 
L 18.109375 54.6875 
L 18.109375 46.1875 
Q 20.953125 51.171875 25.484375 53.578125 
Q 30.03125 56 36.53125 56 
Q 37.453125 56 38.578125 55.875 
Q 39.703125 55.765625 41.0625 55.515625 
z
" id="DejaVuSans-114"/>
     <path d="M 30.609375 48.390625 
Q 23.390625 48.390625 19.1875 42.75 
Q 14.984375 37.109375 14.984375 27.296875 
Q 14.984375 17.484375 19.15625 11.84375 
Q 23.34375 6.203125 30.609375 6.203125 
Q 37.796875 6.203125 41.984375 11.859375 
Q 46.1875 17.53125 46.1875 27.296875 
Q 46.1875 37.015625 41.984375 42.703125 
Q 37.796875 48.390625 30.609375 48.390625 
z
M 30.609375 56 
Q 42.328125 56 49.015625 48.375 
Q 55.71875 40.765625 55.71875 27.296875 
Q 55.71875 13.875 49.015625 6.21875 
Q 42.328125 -1.421875 30.609375 -1.421875 
Q 18.84375 -1.421875 12.171875 6.21875 
Q 5.515625 13.875 5.515625 27.296875 
Q 5.515625 40.765625 12.171875 48.375 
Q 18.84375 56 30.609375 56 
z
" id="DejaVuSans-111"/>
     <path d="M 54.890625 54.6875 
L 35.109375 28.078125 
L 55.90625 0 
L 45.3125 0 
L 29.390625 21.484375 
L 13.484375 0 
L 2.875 0 
L 24.125 28.609375 
L 4.6875 54.6875 
L 15.28125 54.6875 
L 29.78125 35.203125 
L 44.28125 54.6875 
z
" id="DejaVuSans-120"/>
    </defs>
    <g style="fill:#33b07a;" transform="translate(467.416448 93.744798)scale(0.08 -0.08)">
     <use xlink:href="#DejaVuSans-66"/>
     <use x="68.603516" xlink:href="#DejaVuSans-114"/>
     <use x="107.466797" xlink:href="#DejaVuSans-111"/>
     <use x="168.648438" xlink:href="#DejaVuSans-110"/>
     <use x="232.027344" xlink:href="#DejaVuSans-120"/>
     <use x="291.207031" xlink:href="#DejaVuSans-44"/>
     <use x="322.994141" xlink:href="#DejaVuSans-32"/>
     <use x="354.78125" xlink:href="#DejaVuSans-78"/>
     <use x="429.585938" xlink:href="#DejaVuSans-89"/>
    </g>
   </g>
   <g id="text_16">
    <!-- New York, NY -->
    <defs>
     <path d="M 4.203125 54.6875 
L 13.1875 54.6875 
L 24.421875 12.015625 
L 35.59375 54.6875 
L 46.1875 54.6875 
L 57.421875 12.015625 
L 68.609375 54.6875 
L 77.59375 54.6875 
L 63.28125 0 
L 52.6875 0 
L 40.921875 44.828125 
L 29.109375 0 
L 18.5 0 
z
" id="DejaVuSans-119"/>
     <path d="M 9.078125 75.984375 
L 18.109375 75.984375 
L 18.109375 31.109375 
L 44.921875 54.6875 
L 56.390625 54.6875 
L 27.390625 29.109375 
L 57.625 0 
L 45.90625 0 
L 18.109375 26.703125 
L 18.109375 0 
L 9.078125 0 
z
" id="DejaVuSans-107"/>
    </defs>
    <g style="fill:#38a9c5;" transform="translate(467.416448 132.217101)scale(0.08 -0.08)">
     <use xlink:href="#DejaVuSans-78"/>
     <use x="74.804688" xlink:href="#DejaVuSans-101"/>
     <use x="136.328125" xlink:href="#DejaVuSans-119"/>
     <use x="218.115234" xlink:href="#DejaVuSans-32"/>
     <use x="249.902344" xlink:href="#DejaVuSans-89"/>
     <use x="297.736328" xlink:href="#DejaVuSans-111"/>
     <use x="358.917969" xlink:href="#DejaVuSans-114"/>
     <use x="400.03125" xlink:href="#DejaVuSans-107"/>
     <use x="457.941406" xlink:href="#DejaVuSans-44"/>
     <use x="489.728516" xlink:href="#DejaVuSans-32"/>
     <use x="521.515625" xlink:href="#DejaVuSans-78"/>
     <use x="596.320312" xlink:href="#DejaVuSans-89"/>
    </g>
   </g>
   <g id="text_17">
    <!-- Wayne, MI -->
    <defs>
     <path d="M 3.328125 72.90625 
L 13.28125 72.90625 
L 28.609375 11.28125 
L 43.890625 72.90625 
L 54.984375 72.90625 
L 70.3125 11.28125 
L 85.59375 72.90625 
L 95.609375 72.90625 
L 77.296875 0 
L 64.890625 0 
L 49.515625 63.28125 
L 33.984375 0 
L 21.578125 0 
z
" id="DejaVuSans-87"/>
     <path d="M 32.171875 -5.078125 
Q 28.375 -14.84375 24.75 -17.8125 
Q 21.140625 -20.796875 15.09375 -20.796875 
L 7.90625 -20.796875 
L 7.90625 -13.28125 
L 13.1875 -13.28125 
Q 16.890625 -13.28125 18.9375 -11.515625 
Q 21 -9.765625 23.484375 -3.21875 
L 25.09375 0.875 
L 2.984375 54.6875 
L 12.5 54.6875 
L 29.59375 11.921875 
L 46.6875 54.6875 
L 56.203125 54.6875 
z
" id="DejaVuSans-121"/>
     <path d="M 9.8125 72.90625 
L 24.515625 72.90625 
L 43.109375 23.296875 
L 61.8125 72.90625 
L 76.515625 72.90625 
L 76.515625 0 
L 66.890625 0 
L 66.890625 64.015625 
L 48.09375 14.015625 
L 38.1875 14.015625 
L 19.390625 64.015625 
L 19.390625 0 
L 9.8125 0 
z
" id="DejaVuSans-77"/>
     <path d="M 9.8125 72.90625 
L 19.671875 72.90625 
L 19.671875 0 
L 9.8125 0 
z
" id="DejaVuSans-73"/>
    </defs>
    <g style="fill:#cc7af4;" transform="translate(467.416448 147.805805)scale(0.08 -0.08)">
     <use xlink:href="#DejaVuSans-87"/>
     <use x="92.501953" xlink:href="#DejaVuSans-97"/>
     <use x="153.78125" xlink:href="#DejaVuSans-121"/>
     <use x="212.960938" xlink:href="#DejaVuSans-110"/>
     <use x="276.339844" xlink:href="#DejaVuSans-101"/>
     <use x="337.863281" xlink:href="#DejaVuSans-44"/>
     <use x="369.650391" xlink:href="#DejaVuSans-32"/>
     <use x="401.4375" xlink:href="#DejaVuSans-77"/>
     <use x="487.716797" xlink:href="#DejaVuSans-73"/>
    </g>
   </g>
   <g id="text_18">
    <!-- Most-affected counties -->
    <defs>
     <path d="M 4.890625 31.390625 
L 31.203125 31.390625 
L 31.203125 23.390625 
L 4.890625 23.390625 
z
" id="DejaVuSans-45"/>
     <path d="M 37.109375 75.984375 
L 37.109375 68.5 
L 28.515625 68.5 
Q 23.6875 68.5 21.796875 66.546875 
Q 19.921875 64.59375 19.921875 59.515625 
L 19.921875 54.6875 
L 34.71875 54.6875 
L 34.71875 47.703125 
L 19.921875 47.703125 
L 19.921875 0 
L 10.890625 0 
L 10.890625 47.703125 
L 2.296875 47.703125 
L 2.296875 54.6875 
L 10.890625 54.6875 
L 10.890625 58.5 
Q 10.890625 67.625 15.140625 71.796875 
Q 19.390625 75.984375 28.609375 75.984375 
z
" id="DejaVuSans-102"/>
     <path d="M 48.78125 52.59375 
L 48.78125 44.1875 
Q 44.96875 46.296875 41.140625 47.34375 
Q 37.3125 48.390625 33.40625 48.390625 
Q 24.65625 48.390625 19.8125 42.84375 
Q 14.984375 37.3125 14.984375 27.296875 
Q 14.984375 17.28125 19.8125 11.734375 
Q 24.65625 6.203125 33.40625 6.203125 
Q 37.3125 6.203125 41.140625 7.25 
Q 44.96875 8.296875 48.78125 10.40625 
L 48.78125 2.09375 
Q 45.015625 0.34375 40.984375 -0.53125 
Q 36.96875 -1.421875 32.421875 -1.421875 
Q 20.0625 -1.421875 12.78125 6.34375 
Q 5.515625 14.109375 5.515625 27.296875 
Q 5.515625 40.671875 12.859375 48.328125 
Q 20.21875 56 33.015625 56 
Q 37.15625 56 41.109375 55.140625 
Q 45.0625 54.296875 48.78125 52.59375 
z
" id="DejaVuSans-99"/>
    </defs>
    <g style="fill:#ffffff;" transform="translate(242.630312 20.88)scale(0.12 -0.12)">
     <use xlink:href="#DejaVuSans-77"/>
     <use x="86.279297" xlink:href="#DejaVuSans-111"/>
     <use x="147.460938" xlink:href="#DejaVuSans-115"/>
     <use x="199.560547" xlink:href="#DejaVuSans-116"/>
     <use x="238.769531" xlink:href="#DejaVuSans-45"/>
     <use x="274.853516" xlink:href="#DejaVuSans-97"/>
     <use x="336.132812" xlink:href="#DejaVuSans-102"/>
     <use x="371.337891" xlink:href="#DejaVuSans-102"/>
     <use x="406.542969" xlink:href="#DejaVuSans-101"/>
     <use x="468.066406" xlink:href="#DejaVuSans-99"/>
     <use x="523.046875" xlink:href="#DejaVuSans-116"/>
     <use x="562.255859" xlink:href="#DejaVuSans-101"/>
     <use x="623.779297" xlink:href="#DejaVuSans-100"/>
     <use x="687.255859" xlink:href="#DejaVuSans-32"/>
     <use x="719.042969" xlink:href="#DejaVuSans-99"/>
     <use x="774.023438" xlink:href="#DejaVuSans-111"/>
     <use x="835.205078" xlink:href="#DejaVuSans-117"/>
     <use x="898.583984" xlink:href="#DejaVuSans-110"/>
     <use x="961.962891" xlink:href="#DejaVuSans-116"/>
     <use x="1001.171875" xlink:href="#DejaVuSans-105"/>
     <use x="1028.955078" xlink:href="#DejaVuSans-101"/>
     <use x="1090.478516" xlink:href="#DejaVuSans-115"/>
    </g>
   </g>
  </g>
  <g id="axes_2">
   <g id="patch_7">
    <path d="M 57.17 398.333333 
L 565.2 398.333333 
L 565.2 234.586667 
L 57.17 234.586667 
z
"/>
   </g>
   <g id="PolyCollection_6">
    <defs>
     <path d="M 410.167371 -368.818896 
L 410.167371 -368.818896 
L 419.70784 -368.818896 
L 429.24831 -370.27008 
L 438.788779 -372.807182 
L 448.329249 -374.124931 
L 457.869718 -373.057159 
L 457.869718 -399.050344 
L 457.869718 -399.050344 
L 448.329249 -391.025474 
L 438.788779 -385.563558 
L 429.24831 -381.117939 
L 419.70784 -376.312635 
L 410.167371 -368.818896 
z
" id="m3af3f05c86" style="stroke:#f77189;stroke-opacity:0.1;"/>
    </defs>
    <g clip-path="url(#paefa435caa)">
     <use style="fill:#f77189;fill-opacity:0.1;stroke:#f77189;stroke-opacity:0.1;" x="0" xlink:href="#m3af3f05c86" y="648"/>
    </g>
   </g>
   <g id="PolyCollection_7">
    <defs>
     <path d="M 410.167371 -355.154756 
L 410.167371 -355.154756 
L 419.70784 -356.782311 
L 429.24831 -358.593521 
L 438.788779 -360.62564 
L 448.329249 -365.98789 
L 457.869718 -370.688256 
L 457.869718 -405.970303 
L 457.869718 -405.970303 
L 448.329249 -395.566589 
L 438.788779 -386.899705 
L 429.24831 -375.82581 
L 419.70784 -365.32995 
L 410.167371 -355.154756 
z
" id="m71997ffb68" style="stroke:#bb9832;stroke-opacity:0.1;"/>
    </defs>
    <g clip-path="url(#paefa435caa)">
     <use style="fill:#bb9832;fill-opacity:0.1;stroke:#bb9832;stroke-opacity:0.1;" x="0" xlink:href="#m71997ffb68" y="648"/>
    </g>
   </g>
   <g id="PolyCollection_8">
    <defs>
     <path d="M 410.167371 -330.74063 
L 410.167371 -330.74063 
L 419.70784 -330.74063 
L 429.24831 -330.74063 
L 438.788779 -331.251333 
L 448.329249 -333.312735 
L 457.869718 -340.305208 
L 457.869718 -356.006815 
L 457.869718 -356.006815 
L 448.329249 -355.502871 
L 438.788779 -350.509175 
L 429.24831 -346.376493 
L 419.70784 -339.059331 
L 410.167371 -330.74063 
z
" id="m0c3805bfc8" style="stroke:#50b131;stroke-opacity:0.1;"/>
    </defs>
    <g clip-path="url(#paefa435caa)">
     <use style="fill:#50b131;fill-opacity:0.1;stroke:#50b131;stroke-opacity:0.1;" x="0" xlink:href="#m0c3805bfc8" y="648"/>
    </g>
   </g>
   <g id="PolyCollection_9">
    <defs>
     <path d="M 410.167371 -325.430395 
L 410.167371 -325.430395 
L 419.70784 -325.430395 
L 429.24831 -325.430395 
L 438.788779 -325.430395 
L 448.329249 -327.5156 
L 457.869718 -331.867109 
L 457.869718 -342.41074 
L 457.869718 -342.41074 
L 448.329249 -341.691192 
L 438.788779 -339.437886 
L 429.24831 -336.415513 
L 419.70784 -330.974678 
L 410.167371 -325.430395 
z
" id="me2f4cc81d5" style="stroke:#36ada4;stroke-opacity:0.1;"/>
    </defs>
    <g clip-path="url(#paefa435caa)">
     <use style="fill:#36ada4;fill-opacity:0.1;stroke:#36ada4;stroke-opacity:0.1;" x="0" xlink:href="#me2f4cc81d5" y="648"/>
    </g>
   </g>
   <g id="PolyCollection_10">
    <defs>
     <path d="M 410.167371 -325.365636 
L 410.167371 -325.365636 
L 419.70784 -325.365636 
L 429.24831 -326.290321 
L 438.788779 -328.34293 
L 448.329249 -331.323683 
L 457.869718 -334.178127 
L 457.869718 -361.58116 
L 457.869718 -361.58116 
L 448.329249 -354.282993 
L 438.788779 -347.786682 
L 429.24831 -340.836655 
L 419.70784 -333.32891 
L 410.167371 -325.365636 
z
" id="m72ae8e2607" style="stroke:#3ba3ec;stroke-opacity:0.1;"/>
    </defs>
    <g clip-path="url(#paefa435caa)">
     <use style="fill:#3ba3ec;fill-opacity:0.1;stroke:#3ba3ec;stroke-opacity:0.1;" x="0" xlink:href="#m72ae8e2607" y="648"/>
    </g>
   </g>
   <g id="PolyCollection_11">
    <defs>
     <path d="M 410.167371 -308.916862 
L 410.167371 -308.916862 
L 419.70784 -309.471056 
L 429.24831 -311.943848 
L 438.788779 -314.260712 
L 448.329249 -314.338228 
L 457.869718 -317.370031 
L 457.869718 -330.314658 
L 457.869718 -330.314658 
L 448.329249 -326.860053 
L 438.788779 -320.5869 
L 429.24831 -316.723423 
L 419.70784 -313.296869 
L 410.167371 -308.916862 
z
" id="m3c04bba5d0" style="stroke:#e866f4;stroke-opacity:0.1;"/>
    </defs>
    <g clip-path="url(#paefa435caa)">
     <use style="fill:#e866f4;fill-opacity:0.1;stroke:#e866f4;stroke-opacity:0.1;" x="0" xlink:href="#m3c04bba5d0" y="648"/>
    </g>
   </g>
   <g id="matplotlib.axis_3">
    <g id="xtick_4">
     <g id="line2d_22">
      <g>
       <use style="fill:#ffffff;stroke:#ffffff;stroke-width:0.8;" x="76.250939" xlink:href="#m7471623cfd" y="398.333333"/>
      </g>
     </g>
     <g id="text_19">
      <!-- 3/25 -->
      <g style="fill:#ffffff;" transform="translate(65.022814 412.931771)scale(0.1 -0.1)">
       <use xlink:href="#DejaVuSans-51"/>
       <use x="63.623047" xlink:href="#DejaVuSans-47"/>
       <use x="97.314453" xlink:href="#DejaVuSans-50"/>
       <use x="160.9375" xlink:href="#DejaVuSans-53"/>
      </g>
     </g>
    </g>
    <g id="xtick_5">
     <g id="line2d_23">
      <g>
       <use style="fill:#ffffff;stroke:#ffffff;stroke-width:0.8;" x="410.167371" xlink:href="#m7471623cfd" y="398.333333"/>
      </g>
     </g>
     <g id="text_20">
      <!-- 4/30 -->
      <g style="fill:#ffffff;" transform="translate(398.939246 412.931771)scale(0.1 -0.1)">
       <use xlink:href="#DejaVuSans-52"/>
       <use x="63.623047" xlink:href="#DejaVuSans-47"/>
       <use x="97.314453" xlink:href="#DejaVuSans-51"/>
       <use x="160.9375" xlink:href="#DejaVuSans-48"/>
      </g>
     </g>
    </g>
    <g id="xtick_6">
     <g id="line2d_24">
      <g>
       <use style="fill:#ffffff;stroke:#ffffff;stroke-width:0.8;" x="457.869718" xlink:href="#m7471623cfd" y="398.333333"/>
      </g>
     </g>
     <g id="text_21">
      <!-- 5/5 -->
      <g style="fill:#ffffff;" transform="translate(449.822843 412.931771)scale(0.1 -0.1)">
       <use xlink:href="#DejaVuSans-53"/>
       <use x="63.623047" xlink:href="#DejaVuSans-47"/>
       <use x="97.314453" xlink:href="#DejaVuSans-53"/>
      </g>
     </g>
    </g>
   </g>
   <g id="matplotlib.axis_4">
    <g id="ytick_9">
     <g id="line2d_25">
      <g>
       <use style="fill:#ffffff;stroke:#ffffff;stroke-width:0.8;" x="57.17" xlink:href="#m8e6b6e8bf7" y="391.019821"/>
      </g>
     </g>
     <g id="text_22">
      <!-- 0 -->
      <g style="fill:#ffffff;" transform="translate(43.8075 394.81904)scale(0.1 -0.1)">
       <use xlink:href="#DejaVuSans-48"/>
      </g>
     </g>
    </g>
    <g id="ytick_10">
     <g id="line2d_26">
      <g>
       <use style="fill:#ffffff;stroke:#ffffff;stroke-width:0.8;" x="57.17" xlink:href="#m8e6b6e8bf7" y="358.640343"/>
      </g>
     </g>
     <g id="text_23">
      <!-- 500 -->
      <g style="fill:#ffffff;" transform="translate(31.0825 362.439562)scale(0.1 -0.1)">
       <use xlink:href="#DejaVuSans-53"/>
       <use x="63.623047" xlink:href="#DejaVuSans-48"/>
       <use x="127.246094" xlink:href="#DejaVuSans-48"/>
      </g>
     </g>
    </g>
    <g id="ytick_11">
     <g id="line2d_27">
      <g>
       <use style="fill:#ffffff;stroke:#ffffff;stroke-width:0.8;" x="57.17" xlink:href="#m8e6b6e8bf7" y="326.260865"/>
      </g>
     </g>
     <g id="text_24">
      <!-- 1000 -->
      <g style="fill:#ffffff;" transform="translate(24.72 330.060084)scale(0.1 -0.1)">
       <use xlink:href="#DejaVuSans-49"/>
       <use x="63.623047" xlink:href="#DejaVuSans-48"/>
       <use x="127.246094" xlink:href="#DejaVuSans-48"/>
       <use x="190.869141" xlink:href="#DejaVuSans-48"/>
      </g>
     </g>
    </g>
    <g id="ytick_12">
     <g id="line2d_28">
      <g>
       <use style="fill:#ffffff;stroke:#ffffff;stroke-width:0.8;" x="57.17" xlink:href="#m8e6b6e8bf7" y="293.881387"/>
      </g>
     </g>
     <g id="text_25">
      <!-- 1500 -->
      <g style="fill:#ffffff;" transform="translate(24.72 297.680606)scale(0.1 -0.1)">
       <use xlink:href="#DejaVuSans-49"/>
       <use x="63.623047" xlink:href="#DejaVuSans-53"/>
       <use x="127.246094" xlink:href="#DejaVuSans-48"/>
       <use x="190.869141" xlink:href="#DejaVuSans-48"/>
      </g>
     </g>
    </g>
    <g id="ytick_13">
     <g id="line2d_29">
      <g>
       <use style="fill:#ffffff;stroke:#ffffff;stroke-width:0.8;" x="57.17" xlink:href="#m8e6b6e8bf7" y="261.501909"/>
      </g>
     </g>
     <g id="text_26">
      <!-- 2000 -->
      <g style="fill:#ffffff;" transform="translate(24.72 265.301128)scale(0.1 -0.1)">
       <use xlink:href="#DejaVuSans-50"/>
       <use x="63.623047" xlink:href="#DejaVuSans-48"/>
       <use x="127.246094" xlink:href="#DejaVuSans-48"/>
       <use x="190.869141" xlink:href="#DejaVuSans-48"/>
      </g>
     </g>
    </g>
    <g id="text_27">
     <!-- Cumulative deaths -->
     <g style="fill:#ffffff;" transform="translate(18.640313 363.635)rotate(-90)scale(0.1 -0.1)">
      <use xlink:href="#DejaVuSans-67"/>
      <use x="69.824219" xlink:href="#DejaVuSans-117"/>
      <use x="133.203125" xlink:href="#DejaVuSans-109"/>
      <use x="230.615234" xlink:href="#DejaVuSans-117"/>
      <use x="293.994141" xlink:href="#DejaVuSans-108"/>
      <use x="321.777344" xlink:href="#DejaVuSans-97"/>
      <use x="383.056641" xlink:href="#DejaVuSans-116"/>
      <use x="422.265625" xlink:href="#DejaVuSans-105"/>
      <use x="450.048828" xlink:href="#DejaVuSans-118"/>
      <use x="509.228516" xlink:href="#DejaVuSans-101"/>
      <use x="570.751953" xlink:href="#DejaVuSans-32"/>
      <use x="602.539062" xlink:href="#DejaVuSans-100"/>
      <use x="666.015625" xlink:href="#DejaVuSans-101"/>
      <use x="727.539062" xlink:href="#DejaVuSans-97"/>
      <use x="788.818359" xlink:href="#DejaVuSans-116"/>
      <use x="828.027344" xlink:href="#DejaVuSans-104"/>
      <use x="891.40625" xlink:href="#DejaVuSans-115"/>
     </g>
    </g>
   </g>
   <g id="line2d_30">
    <path clip-path="url(#paefa435caa)" d="M 76.250939 389.659883 
L 85.791408 389.336088 
L 95.331878 388.62374 
L 104.872347 388.040909 
L 114.412817 387.393319 
L 123.953286 385.644828 
L 133.493756 383.248746 
L 143.034225 381.565013 
L 152.574695 378.456584 
L 162.115164 376.578574 
L 171.655634 374.700564 
L 181.196103 372.045447 
L 190.736573 368.613222 
L 200.277042 364.986721 
L 209.817512 362.137327 
L 219.357981 358.381307 
L 228.898451 351.581617 
L 238.43892 348.796982 
L 247.97939 345.429516 
L 257.519859 345.429516 
L 267.060329 337.917477 
L 276.600798 333.772904 
L 286.141268 327.491285 
L 295.681737 323.411471 
L 305.222207 321.727738 
L 314.762676 318.554549 
L 324.303146 316.67654 
L 333.843615 308.257875 
L 343.384085 305.602758 
L 352.924554 300.616319 
L 362.465023 297.572648 
L 372.005493 289.99585 
L 381.545962 288.700671 
L 391.086432 285.980795 
L 400.626901 282.095257 
L 410.167371 279.181104 
" style="fill:none;stroke:#f77189;stroke-linecap:square;stroke-width:1.5;"/>
   </g>
   <g id="line2d_31">
    <path clip-path="url(#paefa435caa)" d="M 410.167371 279.181104 
L 419.70784 275.682817 
L 429.24831 272.135166 
L 438.788779 268.531266 
L 448.329249 265.000426 
L 457.869718 261.426585 
" style="fill:none;stroke:#f77189;stroke-dasharray:1.5,2.475;stroke-dashoffset:0;stroke-width:1.5;"/>
   </g>
   <g id="line2d_32">
    <path clip-path="url(#paefa435caa)" d="M 76.250939 390.177955 
L 85.791408 389.85416 
L 95.331878 389.724642 
L 104.872347 389.20657 
L 114.412817 388.429463 
L 123.953286 388.170427 
L 133.493756 387.069525 
L 143.034225 384.86772 
L 152.574695 384.090613 
L 162.115164 381.888808 
L 171.655634 380.205075 
L 181.196103 378.974655 
L 190.736573 377.485199 
L 200.277042 374.894841 
L 209.817512 370.815027 
L 219.357981 368.289427 
L 228.898451 365.245757 
L 238.43892 361.684014 
L 247.97939 359.611727 
L 257.519859 359.611727 
L 267.060329 353.653903 
L 276.600798 350.221679 
L 286.141268 344.263855 
L 295.681737 341.803014 
L 305.222207 335.327119 
L 314.762676 334.226217 
L 324.303146 331.765376 
L 333.843615 326.131347 
L 343.384085 321.59822 
L 352.924554 317.065093 
L 362.465023 312.013895 
L 372.005493 308.970224 
L 381.545962 305.991312 
L 391.086432 303.789507 
L 400.626901 296.666022 
L 410.167371 292.845244 
" style="fill:none;stroke:#bb9832;stroke-linecap:square;stroke-width:1.5;"/>
   </g>
   <g id="line2d_33">
    <path clip-path="url(#paefa435caa)" d="M 410.167371 292.845244 
L 419.70784 285.740147 
L 429.24831 278.346229 
L 438.788779 270.88717 
L 448.329249 263.483895 
L 457.869718 256.223064 
" style="fill:none;stroke:#bb9832;stroke-dasharray:1.5,2.475;stroke-dashoffset:0;stroke-width:1.5;"/>
   </g>
   <g id="line2d_34">
    <path clip-path="url(#paefa435caa)" d="M 76.250939 390.566508 
L 85.791408 390.307472 
L 95.331878 390.113196 
L 104.872347 389.724642 
L 114.412817 389.724642 
L 123.953286 389.724642 
L 133.493756 389.012293 
L 143.034225 386.551453 
L 152.574695 384.608684 
L 162.115164 383.378264 
L 171.655634 380.982183 
L 181.196103 379.881281 
L 190.736573 378.974655 
L 200.277042 375.995743 
L 209.817512 373.146349 
L 219.357981 370.815027 
L 228.898451 368.224668 
L 238.43892 364.339131 
L 247.97939 363.302988 
L 257.519859 363.302988 
L 267.060329 356.37378 
L 276.600798 352.812037 
L 286.141268 349.444571 
L 295.681737 346.724695 
L 305.222207 343.616265 
L 314.762676 343.098194 
L 324.303146 342.385845 
L 333.843615 336.039467 
L 343.384085 336.039467 
L 352.924554 336.039467 
L 362.465023 327.879839 
L 372.005493 325.030445 
L 381.545962 324.771409 
L 391.086432 324.447614 
L 400.626901 320.432559 
L 410.167371 317.25937 
" style="fill:none;stroke:#50b131;stroke-linecap:square;stroke-width:1.5;"/>
   </g>
   <g id="line2d_35">
    <path clip-path="url(#paefa435caa)" d="M 410.167371 317.25937 
L 419.70784 313.994617 
L 429.24831 310.292599 
L 438.788779 306.545877 
L 448.329249 302.871964 
L 457.869718 299.288479 
" style="fill:none;stroke:#50b131;stroke-dasharray:1.5,2.475;stroke-dashoffset:0;stroke-width:1.5;"/>
   </g>
   <g id="line2d_36">
    <path clip-path="url(#paefa435caa)" d="M 76.250939 390.113196 
L 85.791408 389.918919 
L 95.331878 389.465606 
L 104.872347 388.947534 
L 114.412817 388.947534 
L 123.953286 388.947534 
L 133.493756 388.105668 
L 143.034225 386.162899 
L 152.574695 383.248746 
L 162.115164 382.471639 
L 171.655634 379.427968 
L 181.196103 378.780378 
L 190.736573 378.06803 
L 200.277042 373.988216 
L 209.817512 370.685509 
L 219.357981 368.677981 
L 228.898451 365.763828 
L 238.43892 362.849675 
L 247.97939 361.684014 
L 257.519859 361.684014 
L 267.060329 355.402395 
L 276.600798 351.646376 
L 286.141268 347.760838 
L 295.681737 344.781926 
L 305.222207 343.033435 
L 314.762676 341.349702 
L 324.303146 340.054523 
L 333.843615 336.946093 
L 343.384085 336.946093 
L 352.924554 336.946093 
L 362.465023 330.534956 
L 372.005493 329.239777 
L 381.545962 329.175018 
L 391.086432 328.851223 
L 400.626901 326.131347 
L 410.167371 322.569605 
" style="fill:none;stroke:#36ada4;stroke-linecap:square;stroke-width:1.5;"/>
   </g>
   <g id="line2d_37">
    <path clip-path="url(#paefa435caa)" d="M 410.167371 322.569605 
L 419.70784 320.005217 
L 429.24831 317.062133 
L 438.788779 314.204228 
L 448.329249 311.563313 
L 457.869718 309.208658 
" style="fill:none;stroke:#36ada4;stroke-dasharray:1.5,2.475;stroke-dashoffset:0;stroke-width:1.5;"/>
   </g>
   <g id="line2d_38">
    <path clip-path="url(#paefa435caa)" d="M 76.250939 390.177955 
L 85.791408 389.659883 
L 95.331878 389.336088 
L 104.872347 388.947534 
L 114.412817 388.62374 
L 123.953286 388.170427 
L 133.493756 387.522837 
L 143.034225 386.810489 
L 152.574695 385.968622 
L 162.115164 385.256274 
L 171.655634 383.443023 
L 181.196103 382.471639 
L 190.736573 381.500254 
L 200.277042 380.075557 
L 209.817512 378.197548 
L 219.357981 376.578574 
L 228.898451 375.412913 
L 238.43892 373.858698 
L 247.97939 371.85117 
L 257.519859 370.296955 
L 267.060329 367.706597 
L 276.600798 364.986721 
L 286.141268 361.554496 
L 295.681737 358.964138 
L 305.222207 353.718662 
L 314.762676 352.164447 
L 324.303146 351.063545 
L 333.843615 348.084633 
L 343.384085 343.810542 
L 352.924554 339.406933 
L 362.465023 336.104226 
L 372.005493 333.060555 
L 381.545962 331.894894 
L 391.086432 330.016885 
L 400.626901 326.260865 
L 410.167371 322.634364 
" style="fill:none;stroke:#3ba3ec;stroke-linecap:square;stroke-width:1.5;"/>
   </g>
   <g id="line2d_39">
    <path clip-path="url(#paefa435caa)" d="M 410.167371 322.634364 
L 419.70784 318.182627 
L 429.24831 313.332838 
L 438.788779 308.407382 
L 448.329249 303.461823 
L 457.869718 298.483525 
" style="fill:none;stroke:#3ba3ec;stroke-dasharray:1.5,2.475;stroke-dashoffset:0;stroke-width:1.5;"/>
   </g>
   <g id="line2d_40">
    <path clip-path="url(#paefa435caa)" d="M 76.250939 390.890303 
L 85.791408 390.696026 
L 95.331878 390.631267 
L 104.872347 390.631267 
L 114.412817 390.566508 
L 123.953286 390.43699 
L 133.493756 389.85416 
L 143.034225 389.659883 
L 152.574695 389.141811 
L 162.115164 388.494222 
L 171.655634 388.494222 
L 181.196103 388.299945 
L 190.736573 387.911391 
L 200.277042 386.551453 
L 209.817512 385.839104 
L 219.357981 384.997238 
L 228.898451 383.961095 
L 238.43892 382.147844 
L 247.97939 381.370737 
L 257.519859 380.464111 
L 267.060329 378.845137 
L 276.600798 376.708092 
L 286.141268 374.31201 
L 295.681737 371.980688 
L 305.222207 369.39033 
L 314.762676 366.929489 
L 324.303146 364.986721 
L 333.843615 363.302988 
L 343.384085 359.028897 
L 352.924554 355.72619 
L 362.465023 353.135832 
L 372.005493 350.286438 
L 381.545962 347.631321 
L 391.086432 345.688552 
L 400.626901 343.681024 
L 410.167371 339.083138 
" style="fill:none;stroke:#e866f4;stroke-linecap:square;stroke-width:1.5;"/>
   </g>
   <g id="line2d_41">
    <path clip-path="url(#paefa435caa)" d="M 410.167371 339.083138 
L 419.70784 336.288542 
L 429.24831 333.03369 
L 438.788779 329.750767 
L 448.329249 326.444836 
L 457.869718 323.183433 
" style="fill:none;stroke:#e866f4;stroke-dasharray:1.5,2.475;stroke-dashoffset:0;stroke-width:1.5;"/>
   </g>
   <g id="patch_8">
    <path d="M 57.17 398.333333 
L 57.17 234.586667 
" style="fill:none;stroke:#ffffff;stroke-linecap:square;stroke-linejoin:miter;stroke-width:0.8;"/>
   </g>
   <g id="patch_9">
    <path d="M 565.2 398.333333 
L 565.2 234.586667 
" style="fill:none;stroke:#ffffff;stroke-linecap:square;stroke-linejoin:miter;stroke-width:0.8;"/>
   </g>
   <g id="patch_10">
    <path d="M 57.17 398.333333 
L 565.2 398.333333 
" style="fill:none;stroke:#ffffff;stroke-linecap:square;stroke-linejoin:miter;stroke-width:0.8;"/>
   </g>
   <g id="patch_11">
    <path d="M 57.17 234.586667 
L 565.2 234.586667 
" style="fill:none;stroke:#ffffff;stroke-linecap:square;stroke-linejoin:miter;stroke-width:0.8;"/>
   </g>
   <g id="text_28">
    <!-- Wayne, MI -->
    <g style="fill:#f77189;" transform="translate(467.410188 268.283604)scale(0.08 -0.08)">
     <use xlink:href="#DejaVuSans-87"/>
     <use x="92.501953" xlink:href="#DejaVuSans-97"/>
     <use x="153.78125" xlink:href="#DejaVuSans-121"/>
     <use x="212.960938" xlink:href="#DejaVuSans-110"/>
     <use x="276.339844" xlink:href="#DejaVuSans-101"/>
     <use x="337.863281" xlink:href="#DejaVuSans-44"/>
     <use x="369.650391" xlink:href="#DejaVuSans-32"/>
     <use x="401.4375" xlink:href="#DejaVuSans-77"/>
     <use x="487.716797" xlink:href="#DejaVuSans-73"/>
    </g>
   </g>
   <g id="text_29">
    <!-- Cook, IL -->
    <defs>
     <path d="M 9.8125 72.90625 
L 19.671875 72.90625 
L 19.671875 8.296875 
L 55.171875 8.296875 
L 55.171875 0 
L 9.8125 0 
z
" id="DejaVuSans-76"/>
    </defs>
    <g style="fill:#bb9832;" transform="translate(467.410188 253.781045)scale(0.08 -0.08)">
     <use xlink:href="#DejaVuSans-67"/>
     <use x="69.824219" xlink:href="#DejaVuSans-111"/>
     <use x="131.005859" xlink:href="#DejaVuSans-111"/>
     <use x="192.1875" xlink:href="#DejaVuSans-107"/>
     <use x="250.097656" xlink:href="#DejaVuSans-44"/>
     <use x="281.884766" xlink:href="#DejaVuSans-32"/>
     <use x="313.671875" xlink:href="#DejaVuSans-73"/>
     <use x="343.164062" xlink:href="#DejaVuSans-76"/>
    </g>
   </g>
   <g id="text_30">
    <!-- Essex, NJ -->
    <defs>
     <path d="M 9.8125 72.90625 
L 55.90625 72.90625 
L 55.90625 64.59375 
L 19.671875 64.59375 
L 19.671875 43.015625 
L 54.390625 43.015625 
L 54.390625 34.71875 
L 19.671875 34.71875 
L 19.671875 8.296875 
L 56.78125 8.296875 
L 56.78125 0 
L 9.8125 0 
z
" id="DejaVuSans-69"/>
     <path d="M 9.8125 72.90625 
L 19.671875 72.90625 
L 19.671875 5.078125 
Q 19.671875 -8.109375 14.671875 -14.0625 
Q 9.671875 -20.015625 -1.421875 -20.015625 
L -5.171875 -20.015625 
L -5.171875 -11.71875 
L -2.09375 -11.71875 
Q 4.4375 -11.71875 7.125 -8.046875 
Q 9.8125 -4.390625 9.8125 5.078125 
z
" id="DejaVuSans-74"/>
    </defs>
    <g style="fill:#50b131;" transform="translate(467.410188 306.158026)scale(0.08 -0.08)">
     <use xlink:href="#DejaVuSans-69"/>
     <use x="63.183594" xlink:href="#DejaVuSans-115"/>
     <use x="115.283203" xlink:href="#DejaVuSans-115"/>
     <use x="167.382812" xlink:href="#DejaVuSans-101"/>
     <use x="227.15625" xlink:href="#DejaVuSans-120"/>
     <use x="286.335938" xlink:href="#DejaVuSans-44"/>
     <use x="318.123047" xlink:href="#DejaVuSans-32"/>
     <use x="349.910156" xlink:href="#DejaVuSans-78"/>
     <use x="424.714844" xlink:href="#DejaVuSans-74"/>
    </g>
   </g>
   <g id="text_31">
    <!-- Bergen, NJ -->
    <g style="fill:#36ada4;" transform="translate(467.410188 316.065677)scale(0.08 -0.08)">
     <use xlink:href="#DejaVuSans-66"/>
     <use x="68.603516" xlink:href="#DejaVuSans-101"/>
     <use x="130.126953" xlink:href="#DejaVuSans-114"/>
     <use x="169.490234" xlink:href="#DejaVuSans-103"/>
     <use x="232.966797" xlink:href="#DejaVuSans-101"/>
     <use x="294.490234" xlink:href="#DejaVuSans-110"/>
     <use x="357.869141" xlink:href="#DejaVuSans-44"/>
     <use x="389.65625" xlink:href="#DejaVuSans-32"/>
     <use x="421.443359" xlink:href="#DejaVuSans-78"/>
     <use x="496.248047" xlink:href="#DejaVuSans-74"/>
    </g>
   </g>
   <g id="text_32">
    <!-- Los Angeles, CA -->
    <defs>
     <path d="M 34.1875 63.1875 
L 20.796875 26.90625 
L 47.609375 26.90625 
z
M 28.609375 72.90625 
L 39.796875 72.90625 
L 67.578125 0 
L 57.328125 0 
L 50.6875 18.703125 
L 17.828125 18.703125 
L 11.1875 0 
L 0.78125 0 
z
" id="DejaVuSans-65"/>
    </defs>
    <g style="fill:#3ba3ec;" transform="translate(403.487688 296.028978)scale(0.08 -0.08)">
     <use xlink:href="#DejaVuSans-76"/>
     <use x="53.962891" xlink:href="#DejaVuSans-111"/>
     <use x="115.144531" xlink:href="#DejaVuSans-115"/>
     <use x="167.244141" xlink:href="#DejaVuSans-32"/>
     <use x="199.03125" xlink:href="#DejaVuSans-65"/>
     <use x="267.439453" xlink:href="#DejaVuSans-110"/>
     <use x="330.818359" xlink:href="#DejaVuSans-103"/>
     <use x="394.294922" xlink:href="#DejaVuSans-101"/>
     <use x="455.818359" xlink:href="#DejaVuSans-108"/>
     <use x="483.601562" xlink:href="#DejaVuSans-101"/>
     <use x="545.125" xlink:href="#DejaVuSans-115"/>
     <use x="597.224609" xlink:href="#DejaVuSans-44"/>
     <use x="629.011719" xlink:href="#DejaVuSans-32"/>
     <use x="660.798828" xlink:href="#DejaVuSans-67"/>
     <use x="730.623047" xlink:href="#DejaVuSans-65"/>
    </g>
   </g>
   <g id="text_33">
    <!-- Middlesex, MA -->
    <g style="fill:#e866f4;" transform="translate(467.410188 330.040453)scale(0.08 -0.08)">
     <use xlink:href="#DejaVuSans-77"/>
     <use x="86.279297" xlink:href="#DejaVuSans-105"/>
     <use x="114.0625" xlink:href="#DejaVuSans-100"/>
     <use x="177.539062" xlink:href="#DejaVuSans-100"/>
     <use x="241.015625" xlink:href="#DejaVuSans-108"/>
     <use x="268.798828" xlink:href="#DejaVuSans-101"/>
     <use x="330.322266" xlink:href="#DejaVuSans-115"/>
     <use x="382.421875" xlink:href="#DejaVuSans-101"/>
     <use x="442.195312" xlink:href="#DejaVuSans-120"/>
     <use x="501.375" xlink:href="#DejaVuSans-44"/>
     <use x="533.162109" xlink:href="#DejaVuSans-32"/>
     <use x="564.949219" xlink:href="#DejaVuSans-77"/>
     <use x="651.228516" xlink:href="#DejaVuSans-65"/>
    </g>
   </g>
   <g id="text_34">
    <!-- Most-affected counties outside NY -->
    <g style="fill:#ffffff;" transform="translate(208.54375 228.586667)scale(0.12 -0.12)">
     <use xlink:href="#DejaVuSans-77"/>
     <use x="86.279297" xlink:href="#DejaVuSans-111"/>
     <use x="147.460938" xlink:href="#DejaVuSans-115"/>
     <use x="199.560547" xlink:href="#DejaVuSans-116"/>
     <use x="238.769531" xlink:href="#DejaVuSans-45"/>
     <use x="274.853516" xlink:href="#DejaVuSans-97"/>
     <use x="336.132812" xlink:href="#DejaVuSans-102"/>
     <use x="371.337891" xlink:href="#DejaVuSans-102"/>
     <use x="406.542969" xlink:href="#DejaVuSans-101"/>
     <use x="468.066406" xlink:href="#DejaVuSans-99"/>
     <use x="523.046875" xlink:href="#DejaVuSans-116"/>
     <use x="562.255859" xlink:href="#DejaVuSans-101"/>
     <use x="623.779297" xlink:href="#DejaVuSans-100"/>
     <use x="687.255859" xlink:href="#DejaVuSans-32"/>
     <use x="719.042969" xlink:href="#DejaVuSans-99"/>
     <use x="774.023438" xlink:href="#DejaVuSans-111"/>
     <use x="835.205078" xlink:href="#DejaVuSans-117"/>
     <use x="898.583984" xlink:href="#DejaVuSans-110"/>
     <use x="961.962891" xlink:href="#DejaVuSans-116"/>
     <use x="1001.171875" xlink:href="#DejaVuSans-105"/>
     <use x="1028.955078" xlink:href="#DejaVuSans-101"/>
     <use x="1090.478516" xlink:href="#DejaVuSans-115"/>
     <use x="1142.578125" xlink:href="#DejaVuSans-32"/>
     <use x="1174.365234" xlink:href="#DejaVuSans-111"/>
     <use x="1235.546875" xlink:href="#DejaVuSans-117"/>
     <use x="1298.925781" xlink:href="#DejaVuSans-116"/>
     <use x="1338.134766" xlink:href="#DejaVuSans-115"/>
     <use x="1390.234375" xlink:href="#DejaVuSans-105"/>
     <use x="1418.017578" xlink:href="#DejaVuSans-100"/>
     <use x="1481.494141" xlink:href="#DejaVuSans-101"/>
     <use x="1543.017578" xlink:href="#DejaVuSans-32"/>
     <use x="1574.804688" xlink:href="#DejaVuSans-78"/>
     <use x="1649.609375" xlink:href="#DejaVuSans-89"/>
    </g>
   </g>
  </g>
  <g id="axes_3">
   <g id="patch_12">
    <path d="M 57.17 606.04 
L 565.2 606.04 
L 565.2 442.293333 
L 57.17 442.293333 
z
"/>
   </g>
   <g id="PolyCollection_12">
    <defs>
     <path d="M 408.732628 -159.757667 
L 408.732628 -159.757667 
L 418.511838 -160.135526 
L 428.291049 -160.215208 
L 438.07026 -159.757667 
L 447.849471 -159.757667 
L 457.628681 -159.757667 
L 457.628681 -198.263636 
L 457.628681 -198.263636 
L 447.849471 -191.766594 
L 438.07026 -183.414627 
L 428.291049 -173.184568 
L 418.511838 -166.498941 
L 408.732628 -159.757667 
z
" id="mf13bf74c79" style="stroke:#f77189;stroke-opacity:0.1;"/>
    </defs>
    <g clip-path="url(#p3079a846bb)">
     <use style="fill:#f77189;fill-opacity:0.1;stroke:#f77189;stroke-opacity:0.1;" x="0" xlink:href="#mf13bf74c79" y="648"/>
    </g>
   </g>
   <g id="PolyCollection_13">
    <defs>
     <path d="M 408.732628 -107.703593 
L 408.732628 -107.703593 
L 418.511838 -107.703593 
L 428.291049 -107.703593 
L 438.07026 -108.630581 
L 447.849471 -109.940827 
L 457.628681 -115.451753 
L 457.628681 -120.450654 
L 457.628681 -120.450654 
L 447.849471 -121.594817 
L 438.07026 -118.72004 
L 428.291049 -117.026764 
L 418.511838 -112.830264 
L 408.732628 -107.703593 
z
" id="me37f9957e0" style="stroke:#ae9d31;stroke-opacity:0.1;"/>
    </defs>
    <g clip-path="url(#p3079a846bb)">
     <use style="fill:#ae9d31;fill-opacity:0.1;stroke:#ae9d31;stroke-opacity:0.1;" x="0" xlink:href="#me37f9957e0" y="648"/>
    </g>
   </g>
   <g id="PolyCollection_14">
    <defs>
     <path d="M 408.732628 -98.33386 
L 408.732628 -98.33386 
L 418.511838 -98.33386 
L 428.291049 -98.33386 
L 438.07026 -98.33386 
L 447.849471 -98.33386 
L 457.628681 -98.33386 
L 457.628681 -127.813841 
L 457.628681 -127.813841 
L 447.849471 -126.688813 
L 438.07026 -117.103348 
L 428.291049 -111.311129 
L 418.511838 -108.313363 
L 408.732628 -98.33386 
z
" id="m309caeffdd" style="stroke:#33b07a;stroke-opacity:0.1;"/>
    </defs>
    <g clip-path="url(#p3079a846bb)">
     <use style="fill:#33b07a;fill-opacity:0.1;stroke:#33b07a;stroke-opacity:0.1;" x="0" xlink:href="#m309caeffdd" y="648"/>
    </g>
   </g>
   <g id="PolyCollection_15">
    <defs>
     <path d="M 408.732628 -74.388986 
L 408.732628 -74.388986 
L 418.511838 -74.388986 
L 428.291049 -74.388986 
L 438.07026 -74.388986 
L 447.849471 -74.388986 
L 457.628681 -74.388986 
L 457.628681 -83.007326 
L 457.628681 -83.007326 
L 447.849471 -81.964081 
L 438.07026 -80.146956 
L 428.291049 -78.28657 
L 418.511838 -76.408248 
L 408.732628 -74.388986 
z
" id="m5a115aaebe" style="stroke:#38a9c5;stroke-opacity:0.1;"/>
    </defs>
    <g clip-path="url(#p3079a846bb)">
     <use style="fill:#38a9c5;fill-opacity:0.1;stroke:#38a9c5;stroke-opacity:0.1;" x="0" xlink:href="#m5a115aaebe" y="648"/>
    </g>
   </g>
   <g id="PolyCollection_16">
    <defs>
     <path d="M 408.732628 -72.306823 
L 408.732628 -72.306823 
L 418.511838 -72.306823 
L 428.291049 -72.306823 
L 438.07026 -72.306823 
L 447.849471 -72.306823 
L 457.628681 -72.306823 
L 457.628681 -81.025377 
L 457.628681 -81.025377 
L 447.849471 -79.059317 
L 438.07026 -77.143882 
L 428.291049 -76.211629 
L 418.511838 -74.366021 
L 408.732628 -72.306823 
z
" id="me56bad21c9" style="stroke:#cc7af4;stroke-opacity:0.1;"/>
    </defs>
    <g clip-path="url(#p3079a846bb)">
     <use style="fill:#cc7af4;fill-opacity:0.1;stroke:#cc7af4;stroke-opacity:0.1;" x="0" xlink:href="#me56bad21c9" y="648"/>
    </g>
   </g>
   <g id="matplotlib.axis_5">
    <g id="xtick_7">
     <g id="line2d_42">
      <g>
       <use style="fill:#ffffff;stroke:#ffffff;stroke-width:0.8;" x="76.239461" xlink:href="#m7471623cfd" y="606.04"/>
      </g>
     </g>
     <g id="text_35">
      <!-- 3/26 -->
      <g style="fill:#ffffff;" transform="translate(65.011336 620.638438)scale(0.1 -0.1)">
       <use xlink:href="#DejaVuSans-51"/>
       <use x="63.623047" xlink:href="#DejaVuSans-47"/>
       <use x="97.314453" xlink:href="#DejaVuSans-50"/>
       <use x="160.9375" xlink:href="#DejaVuSans-54"/>
      </g>
     </g>
    </g>
    <g id="xtick_8">
     <g id="line2d_43">
      <g>
       <use style="fill:#ffffff;stroke:#ffffff;stroke-width:0.8;" x="408.732628" xlink:href="#m7471623cfd" y="606.04"/>
      </g>
     </g>
     <g id="text_36">
      <!-- 4/30 -->
      <g style="fill:#ffffff;" transform="translate(397.504503 620.638438)scale(0.1 -0.1)">
       <use xlink:href="#DejaVuSans-52"/>
       <use x="63.623047" xlink:href="#DejaVuSans-47"/>
       <use x="97.314453" xlink:href="#DejaVuSans-51"/>
       <use x="160.9375" xlink:href="#DejaVuSans-48"/>
      </g>
     </g>
    </g>
    <g id="xtick_9">
     <g id="line2d_44">
      <g>
       <use style="fill:#ffffff;stroke:#ffffff;stroke-width:0.8;" x="457.628681" xlink:href="#m7471623cfd" y="606.04"/>
      </g>
     </g>
     <g id="text_37">
      <!-- 5/5 -->
      <g style="fill:#ffffff;" transform="translate(449.581806 620.638438)scale(0.1 -0.1)">
       <use xlink:href="#DejaVuSans-53"/>
       <use x="63.623047" xlink:href="#DejaVuSans-47"/>
       <use x="97.314453" xlink:href="#DejaVuSans-53"/>
      </g>
     </g>
    </g>
    <g id="text_38">
     <!-- Date -->
     <defs>
      <path d="M 19.671875 64.796875 
L 19.671875 8.109375 
L 31.59375 8.109375 
Q 46.6875 8.109375 53.6875 14.9375 
Q 60.6875 21.78125 60.6875 36.53125 
Q 60.6875 51.171875 53.6875 57.984375 
Q 46.6875 64.796875 31.59375 64.796875 
z
M 9.8125 72.90625 
L 30.078125 72.90625 
Q 51.265625 72.90625 61.171875 64.09375 
Q 71.09375 55.28125 71.09375 36.53125 
Q 71.09375 17.671875 61.125 8.828125 
Q 51.171875 0 30.078125 0 
L 9.8125 0 
z
" id="DejaVuSans-68"/>
     </defs>
     <g style="fill:#ffffff;" transform="translate(299.234219 634.316563)scale(0.1 -0.1)">
      <use xlink:href="#DejaVuSans-68"/>
      <use x="77.001953" xlink:href="#DejaVuSans-97"/>
      <use x="138.28125" xlink:href="#DejaVuSans-116"/>
      <use x="177.490234" xlink:href="#DejaVuSans-101"/>
     </g>
    </g>
   </g>
   <g id="matplotlib.axis_6">
    <g id="ytick_14">
     <g id="line2d_45">
      <g>
       <use style="fill:#ffffff;stroke:#ffffff;stroke-width:0.8;" x="57.17" xlink:href="#m8e6b6e8bf7" y="599.638051"/>
      </g>
     </g>
     <g id="text_39">
      <!-- 0 -->
      <g style="fill:#ffffff;" transform="translate(43.8075 603.43727)scale(0.1 -0.1)">
       <use xlink:href="#DejaVuSans-48"/>
      </g>
     </g>
    </g>
    <g id="ytick_15">
     <g id="line2d_46">
      <g>
       <use style="fill:#ffffff;stroke:#ffffff;stroke-width:0.8;" x="57.17" xlink:href="#m8e6b6e8bf7" y="578.816422"/>
      </g>
     </g>
     <g id="text_40">
      <!-- 20 -->
      <g style="fill:#ffffff;" transform="translate(37.445 582.61564)scale(0.1 -0.1)">
       <use xlink:href="#DejaVuSans-50"/>
       <use x="63.623047" xlink:href="#DejaVuSans-48"/>
      </g>
     </g>
    </g>
    <g id="ytick_16">
     <g id="line2d_47">
      <g>
       <use style="fill:#ffffff;stroke:#ffffff;stroke-width:0.8;" x="57.17" xlink:href="#m8e6b6e8bf7" y="557.994792"/>
      </g>
     </g>
     <g id="text_41">
      <!-- 40 -->
      <g style="fill:#ffffff;" transform="translate(37.445 561.794011)scale(0.1 -0.1)">
       <use xlink:href="#DejaVuSans-52"/>
       <use x="63.623047" xlink:href="#DejaVuSans-48"/>
      </g>
     </g>
    </g>
    <g id="ytick_17">
     <g id="line2d_48">
      <g>
       <use style="fill:#ffffff;stroke:#ffffff;stroke-width:0.8;" x="57.17" xlink:href="#m8e6b6e8bf7" y="537.173163"/>
      </g>
     </g>
     <g id="text_42">
      <!-- 60 -->
      <g style="fill:#ffffff;" transform="translate(37.445 540.972381)scale(0.1 -0.1)">
       <use xlink:href="#DejaVuSans-54"/>
       <use x="63.623047" xlink:href="#DejaVuSans-48"/>
      </g>
     </g>
    </g>
    <g id="ytick_18">
     <g id="line2d_49">
      <g>
       <use style="fill:#ffffff;stroke:#ffffff;stroke-width:0.8;" x="57.17" xlink:href="#m8e6b6e8bf7" y="516.351533"/>
      </g>
     </g>
     <g id="text_43">
      <!-- 80 -->
      <defs>
       <path d="M 31.78125 34.625 
Q 24.75 34.625 20.71875 30.859375 
Q 16.703125 27.09375 16.703125 20.515625 
Q 16.703125 13.921875 20.71875 10.15625 
Q 24.75 6.390625 31.78125 6.390625 
Q 38.8125 6.390625 42.859375 10.171875 
Q 46.921875 13.96875 46.921875 20.515625 
Q 46.921875 27.09375 42.890625 30.859375 
Q 38.875 34.625 31.78125 34.625 
z
M 21.921875 38.8125 
Q 15.578125 40.375 12.03125 44.71875 
Q 8.5 49.078125 8.5 55.328125 
Q 8.5 64.0625 14.71875 69.140625 
Q 20.953125 74.21875 31.78125 74.21875 
Q 42.671875 74.21875 48.875 69.140625 
Q 55.078125 64.0625 55.078125 55.328125 
Q 55.078125 49.078125 51.53125 44.71875 
Q 48 40.375 41.703125 38.8125 
Q 48.828125 37.15625 52.796875 32.3125 
Q 56.78125 27.484375 56.78125 20.515625 
Q 56.78125 9.90625 50.3125 4.234375 
Q 43.84375 -1.421875 31.78125 -1.421875 
Q 19.734375 -1.421875 13.25 4.234375 
Q 6.78125 9.90625 6.78125 20.515625 
Q 6.78125 27.484375 10.78125 32.3125 
Q 14.796875 37.15625 21.921875 38.8125 
z
M 18.3125 54.390625 
Q 18.3125 48.734375 21.84375 45.5625 
Q 25.390625 42.390625 31.78125 42.390625 
Q 38.140625 42.390625 41.71875 45.5625 
Q 45.3125 48.734375 45.3125 54.390625 
Q 45.3125 60.0625 41.71875 63.234375 
Q 38.140625 66.40625 31.78125 66.40625 
Q 25.390625 66.40625 21.84375 63.234375 
Q 18.3125 60.0625 18.3125 54.390625 
z
" id="DejaVuSans-56"/>
      </defs>
      <g style="fill:#ffffff;" transform="translate(37.445 520.150752)scale(0.1 -0.1)">
       <use xlink:href="#DejaVuSans-56"/>
       <use x="63.623047" xlink:href="#DejaVuSans-48"/>
      </g>
     </g>
    </g>
    <g id="ytick_19">
     <g id="line2d_50">
      <g>
       <use style="fill:#ffffff;stroke:#ffffff;stroke-width:0.8;" x="57.17" xlink:href="#m8e6b6e8bf7" y="495.529904"/>
      </g>
     </g>
     <g id="text_44">
      <!-- 100 -->
      <g style="fill:#ffffff;" transform="translate(31.0825 499.329122)scale(0.1 -0.1)">
       <use xlink:href="#DejaVuSans-49"/>
       <use x="63.623047" xlink:href="#DejaVuSans-48"/>
       <use x="127.246094" xlink:href="#DejaVuSans-48"/>
      </g>
     </g>
    </g>
    <g id="ytick_20">
     <g id="line2d_51">
      <g>
       <use style="fill:#ffffff;stroke:#ffffff;stroke-width:0.8;" x="57.17" xlink:href="#m8e6b6e8bf7" y="474.708274"/>
      </g>
     </g>
     <g id="text_45">
      <!-- 120 -->
      <g style="fill:#ffffff;" transform="translate(31.0825 478.507493)scale(0.1 -0.1)">
       <use xlink:href="#DejaVuSans-49"/>
       <use x="63.623047" xlink:href="#DejaVuSans-50"/>
       <use x="127.246094" xlink:href="#DejaVuSans-48"/>
      </g>
     </g>
    </g>
    <g id="ytick_21">
     <g id="line2d_52">
      <g>
       <use style="fill:#ffffff;stroke:#ffffff;stroke-width:0.8;" x="57.17" xlink:href="#m8e6b6e8bf7" y="453.886644"/>
      </g>
     </g>
     <g id="text_46">
      <!-- 140 -->
      <g style="fill:#ffffff;" transform="translate(31.0825 457.685863)scale(0.1 -0.1)">
       <use xlink:href="#DejaVuSans-49"/>
       <use x="63.623047" xlink:href="#DejaVuSans-52"/>
       <use x="127.246094" xlink:href="#DejaVuSans-48"/>
      </g>
     </g>
    </g>
    <g id="text_47">
     <!-- Cumulative deaths -->
     <g style="fill:#ffffff;" transform="translate(25.002813 571.341667)rotate(-90)scale(0.1 -0.1)">
      <use xlink:href="#DejaVuSans-67"/>
      <use x="69.824219" xlink:href="#DejaVuSans-117"/>
      <use x="133.203125" xlink:href="#DejaVuSans-109"/>
      <use x="230.615234" xlink:href="#DejaVuSans-117"/>
      <use x="293.994141" xlink:href="#DejaVuSans-108"/>
      <use x="321.777344" xlink:href="#DejaVuSans-97"/>
      <use x="383.056641" xlink:href="#DejaVuSans-116"/>
      <use x="422.265625" xlink:href="#DejaVuSans-105"/>
      <use x="450.048828" xlink:href="#DejaVuSans-118"/>
      <use x="509.228516" xlink:href="#DejaVuSans-101"/>
      <use x="570.751953" xlink:href="#DejaVuSans-32"/>
      <use x="602.539062" xlink:href="#DejaVuSans-100"/>
      <use x="666.015625" xlink:href="#DejaVuSans-101"/>
      <use x="727.539062" xlink:href="#DejaVuSans-97"/>
      <use x="788.818359" xlink:href="#DejaVuSans-116"/>
      <use x="828.027344" xlink:href="#DejaVuSans-104"/>
      <use x="891.40625" xlink:href="#DejaVuSans-115"/>
     </g>
    </g>
   </g>
   <g id="line2d_53">
    <path clip-path="url(#p3079a846bb)" d="M 76.239461 576.734259 
L 86.018672 575.693177 
L 95.797883 570.48777 
L 105.577093 570.48777 
L 115.356304 567.364525 
L 125.135515 565.282362 
L 134.914726 563.2002 
L 144.693936 559.035874 
L 154.473147 556.953711 
L 164.252358 555.912629 
L 174.031569 555.912629 
L 183.81078 552.789385 
L 193.58999 551.748303 
L 203.369201 548.625059 
L 213.148412 547.583977 
L 222.927623 544.460733 
L 232.706833 543.419651 
L 242.486044 540.296407 
L 252.265255 534.049918 
L 262.044466 534.049918 
L 271.823677 528.844511 
L 281.602887 524.680185 
L 291.382098 524.680185 
L 301.161309 520.515859 
L 310.94052 520.515859 
L 320.719731 510.105044 
L 330.498941 504.899637 
L 340.278152 501.776392 
L 350.057363 500.735311 
L 359.836574 497.612066 
L 369.615784 496.570985 
L 379.394995 495.529904 
L 389.174206 492.406659 
L 398.953417 489.283415 
L 408.732628 488.242333 
" style="fill:none;stroke:#f77189;stroke-linecap:square;stroke-width:1.5;"/>
   </g>
   <g id="line2d_54">
    <path clip-path="url(#p3079a846bb)" d="M 408.732628 488.242333 
L 418.511838 483.991228 
L 428.291049 479.85225 
L 438.07026 475.782452 
L 447.849471 471.954126 
L 457.628681 468.439447 
" style="fill:none;stroke:#f77189;stroke-dasharray:1.5,2.475;stroke-dashoffset:0;stroke-width:1.5;"/>
   </g>
   <g id="line2d_55">
    <path clip-path="url(#p3079a846bb)" d="M 76.239461 595.473725 
L 86.018672 595.473725 
L 95.797883 593.391562 
L 105.577093 592.350481 
L 115.356304 592.350481 
L 125.135515 592.350481 
L 134.914726 591.309399 
L 144.693936 590.268318 
L 154.473147 587.145073 
L 164.252358 587.145073 
L 174.031569 587.145073 
L 183.81078 586.103992 
L 193.58999 584.021829 
L 203.369201 582.980748 
L 213.148412 581.939666 
L 222.927623 578.816422 
L 232.706833 577.77534 
L 242.486044 575.693177 
L 252.265255 575.693177 
L 262.044466 575.693177 
L 271.823677 562.159118 
L 281.602887 559.035874 
L 291.382098 559.035874 
L 301.161309 556.953711 
L 310.94052 555.912629 
L 320.719731 555.912629 
L 330.498941 554.871548 
L 340.278152 552.789385 
L 350.057363 551.748303 
L 359.836574 549.66614 
L 369.615784 545.501814 
L 379.394995 545.501814 
L 389.174206 545.501814 
L 398.953417 542.37857 
L 408.732628 540.296407 
" style="fill:none;stroke:#ae9d31;stroke-linecap:square;stroke-width:1.5;"/>
   </g>
   <g id="line2d_56">
    <path clip-path="url(#p3079a846bb)" d="M 408.732628 540.296407 
L 418.511838 537.877951 
L 428.291049 535.278099 
L 438.07026 532.775685 
L 447.849471 530.507396 
L 457.628681 528.499628 
" style="fill:none;stroke:#ae9d31;stroke-dasharray:1.5,2.475;stroke-dashoffset:0;stroke-width:1.5;"/>
   </g>
   <g id="line2d_57">
    <path clip-path="url(#p3079a846bb)" d="M 76.239461 594.432644 
L 86.018672 593.391562 
L 95.797883 593.391562 
L 105.577093 593.391562 
L 115.356304 593.391562 
L 125.135515 589.227236 
L 134.914726 589.227236 
L 144.693936 589.227236 
L 154.473147 586.103992 
L 164.252358 586.103992 
L 174.031569 586.103992 
L 183.81078 586.103992 
L 193.58999 577.77534 
L 203.369201 577.77534 
L 213.148412 577.77534 
L 222.927623 577.77534 
L 232.706833 577.77534 
L 242.486044 577.77534 
L 252.265255 577.77534 
L 262.044466 577.77534 
L 271.823677 577.77534 
L 281.602887 570.48777 
L 291.382098 570.48777 
L 301.161309 570.48777 
L 310.94052 570.48777 
L 320.719731 570.48777 
L 330.498941 570.48777 
L 340.278152 560.076955 
L 350.057363 559.035874 
L 359.836574 556.953711 
L 369.615784 556.953711 
L 379.394995 556.953711 
L 389.174206 556.953711 
L 398.953417 549.66614 
L 408.732628 549.66614 
" style="fill:none;stroke:#33b07a;stroke-linecap:square;stroke-width:1.5;"/>
   </g>
   <g id="line2d_58">
    <path clip-path="url(#p3079a846bb)" d="M 408.732628 549.66614 
L 418.511838 546.554318 
L 428.291049 543.74164 
L 438.07026 541.008765 
L 447.849471 538.428813 
L 457.628681 536.04173 
" style="fill:none;stroke:#33b07a;stroke-dasharray:1.5,2.475;stroke-dashoffset:0;stroke-width:1.5;"/>
   </g>
   <g id="line2d_59">
    <path clip-path="url(#p3079a846bb)" d="M 76.239461 598.59697 
L 86.018672 597.555888 
L 95.797883 596.514807 
L 105.577093 596.514807 
L 115.356304 596.514807 
L 125.135515 596.514807 
L 134.914726 596.514807 
L 144.693936 596.514807 
L 154.473147 594.432644 
L 164.252358 594.432644 
L 174.031569 593.391562 
L 183.81078 592.350481 
L 193.58999 592.350481 
L 203.369201 592.350481 
L 213.148412 591.309399 
L 222.927623 590.268318 
L 232.706833 588.186155 
L 242.486044 588.186155 
L 252.265255 588.186155 
L 262.044466 587.145073 
L 271.823677 585.062911 
L 281.602887 582.980748 
L 291.382098 582.980748 
L 301.161309 579.857503 
L 310.94052 578.816422 
L 320.719731 576.734259 
L 330.498941 576.734259 
L 340.278152 576.734259 
L 350.057363 575.693177 
L 359.836574 575.693177 
L 369.615784 573.611014 
L 379.394995 573.611014 
L 389.174206 573.611014 
L 398.953417 573.611014 
L 408.732628 573.611014 
" style="fill:none;stroke:#38a9c5;stroke-linecap:square;stroke-width:1.5;"/>
   </g>
   <g id="line2d_60">
    <path clip-path="url(#p3079a846bb)" d="M 408.732628 573.611014 
L 418.511838 572.669283 
L 428.291049 571.756239 
L 438.07026 570.900784 
L 447.849471 570.163496 
L 457.628681 569.544078 
" style="fill:none;stroke:#38a9c5;stroke-dasharray:1.5,2.475;stroke-dashoffset:0;stroke-width:1.5;"/>
   </g>
   <g id="line2d_61">
    <path clip-path="url(#p3079a846bb)" d="M 76.239461 597.555888 
L 86.018672 596.514807 
L 95.797883 595.473725 
L 105.577093 594.432644 
L 115.356304 593.391562 
L 125.135515 593.391562 
L 134.914726 592.350481 
L 144.693936 592.350481 
L 154.473147 592.350481 
L 164.252358 591.309399 
L 174.031569 591.309399 
L 183.81078 590.268318 
L 193.58999 590.268318 
L 203.369201 589.227236 
L 213.148412 589.227236 
L 222.927623 586.103992 
L 232.706833 586.103992 
L 242.486044 585.062911 
L 252.265255 584.021829 
L 262.044466 584.021829 
L 271.823677 581.939666 
L 281.602887 581.939666 
L 291.382098 581.939666 
L 301.161309 578.816422 
L 310.94052 578.816422 
L 320.719731 578.816422 
L 330.498941 578.816422 
L 340.278152 577.77534 
L 350.057363 577.77534 
L 359.836574 576.734259 
L 369.615784 576.734259 
L 379.394995 576.734259 
L 389.174206 575.693177 
L 398.953417 575.693177 
L 408.732628 575.693177 
" style="fill:none;stroke:#cc7af4;stroke-linecap:square;stroke-width:1.5;"/>
   </g>
   <g id="line2d_62">
    <path clip-path="url(#p3079a846bb)" d="M 408.732628 575.693177 
L 418.511838 574.45434 
L 428.291049 573.359717 
L 438.07026 572.366636 
L 447.849471 571.544869 
L 457.628681 570.893111 
" style="fill:none;stroke:#cc7af4;stroke-dasharray:1.5,2.475;stroke-dashoffset:0;stroke-width:1.5;"/>
   </g>
   <g id="patch_13">
    <path d="M 57.17 606.04 
L 57.17 442.293333 
" style="fill:none;stroke:#ffffff;stroke-linecap:square;stroke-linejoin:miter;stroke-width:0.8;"/>
   </g>
   <g id="patch_14">
    <path d="M 565.2 606.04 
L 565.2 442.293333 
" style="fill:none;stroke:#ffffff;stroke-linecap:square;stroke-linejoin:miter;stroke-width:0.8;"/>
   </g>
   <g id="patch_15">
    <path d="M 57.17 606.04 
L 565.2 606.04 
" style="fill:none;stroke:#ffffff;stroke-linecap:square;stroke-linejoin:miter;stroke-width:0.8;"/>
   </g>
   <g id="patch_16">
    <path d="M 57.17 442.293333 
L 565.2 442.293333 
" style="fill:none;stroke:#ffffff;stroke-linecap:square;stroke-linejoin:miter;stroke-width:0.8;"/>
   </g>
   <g id="text_48">
    <!-- Santa Clara, CA -->
    <defs>
     <path d="M 53.515625 70.515625 
L 53.515625 60.890625 
Q 47.90625 63.578125 42.921875 64.890625 
Q 37.9375 66.21875 33.296875 66.21875 
Q 25.25 66.21875 20.875 63.09375 
Q 16.5 59.96875 16.5 54.203125 
Q 16.5 49.359375 19.40625 46.890625 
Q 22.3125 44.4375 30.421875 42.921875 
L 36.375 41.703125 
Q 47.40625 39.59375 52.65625 34.296875 
Q 57.90625 29 57.90625 20.125 
Q 57.90625 9.515625 50.796875 4.046875 
Q 43.703125 -1.421875 29.984375 -1.421875 
Q 24.8125 -1.421875 18.96875 -0.25 
Q 13.140625 0.921875 6.890625 3.21875 
L 6.890625 13.375 
Q 12.890625 10.015625 18.65625 8.296875 
Q 24.421875 6.59375 29.984375 6.59375 
Q 38.421875 6.59375 43.015625 9.90625 
Q 47.609375 13.234375 47.609375 19.390625 
Q 47.609375 24.75 44.3125 27.78125 
Q 41.015625 30.8125 33.5 32.328125 
L 27.484375 33.5 
Q 16.453125 35.6875 11.515625 40.375 
Q 6.59375 45.0625 6.59375 53.421875 
Q 6.59375 63.09375 13.40625 68.65625 
Q 20.21875 74.21875 32.171875 74.21875 
Q 37.3125 74.21875 42.625 73.28125 
Q 47.953125 72.359375 53.515625 70.515625 
z
" id="DejaVuSans-83"/>
    </defs>
    <g style="fill:#f77189;" transform="translate(467.407892 465.997428)scale(0.08 -0.08)">
     <use xlink:href="#DejaVuSans-83"/>
     <use x="63.476562" xlink:href="#DejaVuSans-97"/>
     <use x="124.755859" xlink:href="#DejaVuSans-110"/>
     <use x="188.134766" xlink:href="#DejaVuSans-116"/>
     <use x="227.34375" xlink:href="#DejaVuSans-97"/>
     <use x="288.623047" xlink:href="#DejaVuSans-32"/>
     <use x="320.410156" xlink:href="#DejaVuSans-67"/>
     <use x="390.234375" xlink:href="#DejaVuSans-108"/>
     <use x="418.017578" xlink:href="#DejaVuSans-97"/>
     <use x="479.296875" xlink:href="#DejaVuSans-114"/>
     <use x="520.410156" xlink:href="#DejaVuSans-97"/>
     <use x="581.689453" xlink:href="#DejaVuSans-44"/>
     <use x="613.476562" xlink:href="#DejaVuSans-32"/>
     <use x="645.263672" xlink:href="#DejaVuSans-67"/>
     <use x="715.087891" xlink:href="#DejaVuSans-65"/>
    </g>
   </g>
   <g id="text_49">
    <!-- Alameda, CA -->
    <g style="fill:#ae9d31;" transform="translate(467.407892 526.057609)scale(0.08 -0.08)">
     <use xlink:href="#DejaVuSans-65"/>
     <use x="68.408203" xlink:href="#DejaVuSans-108"/>
     <use x="96.191406" xlink:href="#DejaVuSans-97"/>
     <use x="157.470703" xlink:href="#DejaVuSans-109"/>
     <use x="254.882812" xlink:href="#DejaVuSans-101"/>
     <use x="316.40625" xlink:href="#DejaVuSans-100"/>
     <use x="379.882812" xlink:href="#DejaVuSans-97"/>
     <use x="441.162109" xlink:href="#DejaVuSans-44"/>
     <use x="472.949219" xlink:href="#DejaVuSans-32"/>
     <use x="504.736328" xlink:href="#DejaVuSans-67"/>
     <use x="574.560547" xlink:href="#DejaVuSans-65"/>
    </g>
   </g>
   <g id="text_50">
    <!-- San Mateo, CA -->
    <g style="fill:#33b07a;" transform="translate(467.407892 542.898749)scale(0.08 -0.08)">
     <use xlink:href="#DejaVuSans-83"/>
     <use x="63.476562" xlink:href="#DejaVuSans-97"/>
     <use x="124.755859" xlink:href="#DejaVuSans-110"/>
     <use x="188.134766" xlink:href="#DejaVuSans-32"/>
     <use x="219.921875" xlink:href="#DejaVuSans-77"/>
     <use x="306.201172" xlink:href="#DejaVuSans-97"/>
     <use x="367.480469" xlink:href="#DejaVuSans-116"/>
     <use x="406.689453" xlink:href="#DejaVuSans-101"/>
     <use x="468.212891" xlink:href="#DejaVuSans-111"/>
     <use x="529.394531" xlink:href="#DejaVuSans-44"/>
     <use x="561.181641" xlink:href="#DejaVuSans-32"/>
     <use x="592.96875" xlink:href="#DejaVuSans-67"/>
     <use x="662.792969" xlink:href="#DejaVuSans-65"/>
    </g>
   </g>
   <g id="text_51">
    <!-- Contra Costa, CA -->
    <g style="fill:#38a9c5;" transform="translate(399.155392 567.098032)scale(0.08 -0.08)">
     <use xlink:href="#DejaVuSans-67"/>
     <use x="69.824219" xlink:href="#DejaVuSans-111"/>
     <use x="131.005859" xlink:href="#DejaVuSans-110"/>
     <use x="194.384766" xlink:href="#DejaVuSans-116"/>
     <use x="233.59375" xlink:href="#DejaVuSans-114"/>
     <use x="274.707031" xlink:href="#DejaVuSans-97"/>
     <use x="335.986328" xlink:href="#DejaVuSans-32"/>
     <use x="367.773438" xlink:href="#DejaVuSans-67"/>
     <use x="437.597656" xlink:href="#DejaVuSans-111"/>
     <use x="498.779297" xlink:href="#DejaVuSans-115"/>
     <use x="550.878906" xlink:href="#DejaVuSans-116"/>
     <use x="590.087891" xlink:href="#DejaVuSans-97"/>
     <use x="651.367188" xlink:href="#DejaVuSans-44"/>
     <use x="683.154297" xlink:href="#DejaVuSans-32"/>
     <use x="714.941406" xlink:href="#DejaVuSans-67"/>
     <use x="784.765625" xlink:href="#DejaVuSans-65"/>
    </g>
   </g>
   <g id="text_52">
    <!-- San Francisco, CA -->
    <defs>
     <path d="M 9.8125 72.90625 
L 51.703125 72.90625 
L 51.703125 64.59375 
L 19.671875 64.59375 
L 19.671875 43.109375 
L 48.578125 43.109375 
L 48.578125 34.8125 
L 19.671875 34.8125 
L 19.671875 0 
L 9.8125 0 
z
" id="DejaVuSans-70"/>
    </defs>
    <g style="fill:#cc7af4;" transform="translate(467.407892 577.754157)scale(0.08 -0.08)">
     <use xlink:href="#DejaVuSans-83"/>
     <use x="63.476562" xlink:href="#DejaVuSans-97"/>
     <use x="124.755859" xlink:href="#DejaVuSans-110"/>
     <use x="188.134766" xlink:href="#DejaVuSans-32"/>
     <use x="219.921875" xlink:href="#DejaVuSans-70"/>
     <use x="270.191406" xlink:href="#DejaVuSans-114"/>
     <use x="311.304688" xlink:href="#DejaVuSans-97"/>
     <use x="372.583984" xlink:href="#DejaVuSans-110"/>
     <use x="435.962891" xlink:href="#DejaVuSans-99"/>
     <use x="490.943359" xlink:href="#DejaVuSans-105"/>
     <use x="518.726562" xlink:href="#DejaVuSans-115"/>
     <use x="570.826172" xlink:href="#DejaVuSans-99"/>
     <use x="625.806641" xlink:href="#DejaVuSans-111"/>
     <use x="686.988281" xlink:href="#DejaVuSans-44"/>
     <use x="718.775391" xlink:href="#DejaVuSans-32"/>
     <use x="750.5625" xlink:href="#DejaVuSans-67"/>
     <use x="820.386719" xlink:href="#DejaVuSans-65"/>
    </g>
   </g>
   <g id="text_53">
    <!-- Bay area counties -->
    <g style="fill:#ffffff;" transform="translate(257.2375 436.293333)scale(0.12 -0.12)">
     <use xlink:href="#DejaVuSans-66"/>
     <use x="68.603516" xlink:href="#DejaVuSans-97"/>
     <use x="129.882812" xlink:href="#DejaVuSans-121"/>
     <use x="189.0625" xlink:href="#DejaVuSans-32"/>
     <use x="220.849609" xlink:href="#DejaVuSans-97"/>
     <use x="282.128906" xlink:href="#DejaVuSans-114"/>
     <use x="320.992188" xlink:href="#DejaVuSans-101"/>
     <use x="382.515625" xlink:href="#DejaVuSans-97"/>
     <use x="443.794922" xlink:href="#DejaVuSans-32"/>
     <use x="475.582031" xlink:href="#DejaVuSans-99"/>
     <use x="530.5625" xlink:href="#DejaVuSans-111"/>
     <use x="591.744141" xlink:href="#DejaVuSans-117"/>
     <use x="655.123047" xlink:href="#DejaVuSans-110"/>
     <use x="718.501953" xlink:href="#DejaVuSans-116"/>
     <use x="757.710938" xlink:href="#DejaVuSans-105"/>
     <use x="785.494141" xlink:href="#DejaVuSans-101"/>
     <use x="847.017578" xlink:href="#DejaVuSans-115"/>
    </g>
   </g>
  </g>
 </g>
 <defs>
  <clipPath id="p51ce466416">
   <rect height="163.746667" width="508.03" x="57.17" y="26.88"/>
  </clipPath>
  <clipPath id="paefa435caa">
   <rect height="163.746667" width="508.03" x="57.17" y="234.586667"/>
  </clipPath>
  <clipPath id="p3079a846bb">
   <rect height="163.746667" width="508.03" x="57.17" y="442.293333"/>
  </clipPath>
 </defs>
</svg>
